P2
# 2 of 608 Angiograms
64 64
255
177
177
180
183
185
188
188
189
189
186
178
168
163
159
152
148
144
144
146
146
144
148
150
148
152
154
152
150
148
144
142
144
144
144
139
133
129
129
117
91
77
69
72
77
79
71
65
62
56
55
58
62
62
66
65
63
66
74
76
81
84
91
98
104
178
178
183
183
186
188
189
188
188
185
173
163
159
158
154
152
146
148
148
148
146
150
150
152
152
152
148
146
142
142
142
142
144
142
141
135
129
127
115
91
79
71
69
69
68
62
60
60
58
52
54
60
63
65
66
66
71
77
86
93
96
102
106
106
177
180
185
185
185
188
189
189
188
182
170
163
159
158
154
154
148
148
150
150
146
150
150
152
150
146
144
141
139
141
141
139
139
141
141
135
129
121
104
84
71
63
63
62
59
56
56
58
59
52
51
56
59
63
68
69
79
89
100
106
104
104
104
102
175
180
186
188
188
189
189
188
186
178
167
161
159
158
156
154
150
150
152
152
148
148
148
148
146
142
139
135
135
139
141
137
139
142
141
135
123
108
87
69
56
52
54
56
58
54
55
58
58
52
51
54
60
66
72
77
89
102
113
115
108
104
98
96
173
180
185
186
186
188
188
186
185
177
167
161
161
159
158
154
150
150
154
152
150
148
146
146
141
137
135
133
133
137
139
137
139
141
137
129
110
82
62
50
46
47
51
55
56
54
55
55
55
54
51
55
62
71
77
87
102
115
121
115
108
100
96
95
173
177
182
183
183
183
185
183
182
175
167
161
161
159
156
152
150
150
150
150
150
150
146
142
139
137
135
131
133
135
137
139
141
139
133
123
96
62
44
40
41
44
51
56
56
52
54
55
56
56
55
56
65
76
86
100
112
115
113
108
102
98
95
96
175
175
177
180
180
180
180
182
180
173
163
159
159
156
152
150
150
148
148
148
148
148
144
144
141
139
135
135
135
137
139
141
141
137
127
112
79
49
39
36
39
44
51
55
54
51
50
54
58
58
55
58
69
84
100
110
112
110
102
98
96
96
93
95
175
177
177
177
177
178
178
180
177
168
159
156
154
152
148
148
148
150
148
148
148
148
146
144
142
141
139
139
141
142
142
142
139
129
117
95
66
44
35
34
40
45
51
52
55
52
52
56
56
56
56
63
77
96
110
110
100
89
79
82
89
91
91
95
177
175
175
177
177
177
178
177
172
161
154
150
148
148
150
150
152
150
150
148
148
148
148
146
144
142
144
146
146
146
146
142
133
119
96
76
55
42
33
34
42
46
51
52
54
52
54
56
58
59
63
72
89
106
110
95
81
68
60
71
79
86
87
91
177
177
177
177
177
175
175
173
165
154
146
144
144
148
148
152
152
152
154
152
148
150
148
148
144
148
150
152
150
150
146
139
123
98
76
60
47
39
32
35
43
49
51
51
52
52
54
58
60
66
72
86
98
104
100
87
74
68
65
68
74
77
81
84
180
178
178
178
178
177
173
168
158
150
144
142
144
148
150
154
154
154
152
152
150
150
152
152
150
152
154
154
154
150
146
127
100
76
62
51
42
38
32
37
45
50
52
52
55
55
54
60
66
77
91
100
104
102
98
87
77
77
77
79
79
79
77
76
180
182
182
182
182
180
175
167
154
148
146
146
148
150
154
154
156
154
152
150
150
150
154
156
156
156
156
154
154
150
133
106
79
62
54
45
39
38
36
40
49
54
55
54
58
58
59
66
81
96
115
117
113
110
104
91
81
81
82
84
86
86
81
72
180
182
183
183
183
182
177
165
154
152
150
152
154
156
158
158
156
156
152
148
148
152
154
156
158
156
154
154
152
139
112
82
62
54
46
40
36
35
37
42
50
55
55
55
58
60
66
77
98
121
133
131
121
113
108
91
82
82
84
87
89
89
84
81
180
182
183
185
186
185
178
165
158
156
156
156
158
159
159
159
156
156
152
150
152
156
156
156
158
156
154
154
144
119
86
63
52
46
40
36
35
36
39
43
50
54
56
58
62
68
77
95
123
139
139
133
125
115
106
91
86
87
87
89
93
89
84
84
180
183
185
186
188
186
178
165
156
158
159
161
163
163
161
159
156
156
154
154
156
158
158
158
158
156
154
150
127
95
68
52
44
37
34
34
35
38
41
43
49
55
58
63
69
77
93
121
139
142
141
135
125
113
102
91
93
95
89
89
93
93
89
91
182
182
183
186
186
185
177
163
158
161
163
165
167
165
161
159
156
158
158
158
158
158
159
158
158
156
154
141
106
76
55
43
36
32
32
34
36
40
43
44
49
55
62
69
76
91
115
137
141
141
141
135
125
110
98
89
93
93
91
91
93
95
95
96
180
182
183
185
185
183
175
161
159
163
165
167
167
165
163
161
159
161
159
158
156
158
159
159
158
156
150
121
86
63
47
37
32
31
34
35
39
43
45
45
49
56
66
74
87
112
135
142
141
137
137
133
123
106
96
89
95
95
95
95
93
96
96
100
178
182
183
182
183
183
170
161
159
161
165
167
167
167
165
163
163
161
159
158
158
158
158
158
158
154
137
98
72
55
40
31
30
30
33
37
41
44
45
46
50
59
71
84
104
131
142
142
139
135
133
129
121
104
96
93
96
98
98
96
98
100
98
98
177
178
182
182
183
180
168
161
159
161
165
165
167
167
163
161
159
158
156
156
156
154
154
156
156
146
117
82
62
47
33
29
29
31
35
39
43
45
46
49
55
66
81
100
125
139
141
139
141
135
129
127
121
108
100
96
98
100
100
100
102
100
96
100
178
180
180
182
183
180
167
159
158
159
163
163
165
165
161
158
154
152
152
154
154
152
154
154
150
133
96
69
54
38
29
28
30
34
38
40
44
46
50
55
62
76
96
119
135
141
144
144
142
137
129
125
123
112
104
100
98
98
104
106
106
102
98
100
180
180
180
182
182
177
165
159
158
159
165
165
163
159
156
154
152
148
148
154
154
154
152
150
141
115
81
62
46
32
29
29
31
36
40
41
44
49
56
62
72
93
117
133
137
142
146
146
144
139
133
127
123
115
108
104
102
102
106
110
108
102
98
104
180
178
178
180
178
173
161
158
158
161
163
163
159
156
152
150
152
148
148
152
154
150
146
141
129
98
71
58
42
30
29
29
32
37
41
44
47
55
63
74
91
115
133
139
137
139
142
144
144
141
135
131
123
119
110
106
108
108
108
110
110
104
100
104
177
175
177
177
177
170
159
156
159
161
161
158
154
152
150
152
150
150
152
154
154
148
142
135
115
86
66
54
38
30
29
31
36
40
43
47
55
65
79
95
113
129
139
142
139
137
139
142
142
141
135
131
125
119
112
110
113
112
110
110
108
104
102
104
173
173
175
175
173
165
158
159
161
161
159
154
150
150
152
152
150
148
152
154
154
148
139
129
102
76
62
51
37
30
31
35
41
46
49
55
63
79
100
121
131
131
135
141
135
133
135
137
139
137
135
129
123
117
113
115
117
115
110
110
108
104
104
106
170
172
175
175
170
161
158
159
161
161
158
150
148
148
150
150
150
150
152
152
152
146
137
123
89
71
59
47
36
30
32
40
46
50
54
60
76
102
127
139
142
135
133
135
131
129
129
135
137
133
131
127
121
115
112
117
121
117
110
108
106
104
106
106
172
175
177
173
165
156
156
159
159
159
154
148
146
144
146
148
152
150
152
154
152
146
137
112
81
65
56
46
33
29
34
42
51
55
59
71
95
125
144
150
148
141
133
129
125
123
125
131
133
131
129
127
119
112
110
115
125
123
113
108
108
102
104
106
175
177
177
172
161
156
158
158
158
156
152
148
148
146
146
148
150
150
154
156
152
146
131
100
77
62
52
43
32
31
37
45
55
59
66
86
121
146
154
154
152
141
131
125
121
119
121
127
129
129
129
125
119
113
108
113
123
125
117
113
112
102
102
106
178
178
178
172
159
158
158
156
156
154
152
150
148
148
148
148
152
152
154
154
152
148
127
93
72
62
50
40
32
35
40
52
60
68
81
110
141
156
156
154
152
141
129
123
117
113
117
123
127
127
123
121
121
117
113
113
123
125
119
115
112
106
106
108
183
182
178
168
158
156
156
154
152
154
154
154
150
150
150
152
154
156
154
152
152
146
123
89
71
59
49
39
35
38
45
60
71
86
104
129
148
156
156
154
150
141
129
123
117
108
110
119
125
123
119
117
117
119
115
117
119
121
121
119
113
110
108
112
186
183
178
167
156
154
154
152
152
152
154
154
154
156
156
154
156
156
154
152
148
146
123
89
71
59
47
39
39
42
54
72
91
108
123
139
150
152
152
154
148
137
129
125
115
102
102
113
119
119
117
115
115
113
113
121
121
117
119
117
112
110
110
112
189
186
180
167
156
154
152
152
150
148
150
152
154
156
159
159
158
158
154
150
148
144
119
87
72
59
45
40
42
47
66
95
115
125
129
139
148
150
150
150
144
135
127
123
115
98
95
108
115
115
115
113
110
108
115
121
121
117
113
113
113
110
112
112
189
188
180
167
154
152
148
150
150
150
152
154
156
158
159
161
161
161
156
150
146
139
110
86
72
59
46
42
46
56
84
119
133
131
131
139
148
150
150
148
142
135
127
121
113
96
87
96
112
113
115
112
106
110
117
119
121
121
115
117
117
115
115
110
188
186
180
165
154
150
148
150
152
154
154
158
156
158
159
161
163
161
156
150
144
129
102
82
71
59
47
45
50
66
104
133
141
131
127
137
146
148
148
146
141
135
125
119
113
96
81
86
106
113
113
108
106
112
115
119
123
123
119
121
121
117
117
113
188
186
177
161
152
148
150
152
156
154
154
158
158
158
161
163
163
163
156
148
137
117
95
81
71
59
49
49
55
72
110
133
137
127
123
133
142
146
146
142
139
135
127
121
113
98
81
77
96
108
108
104
108
112
115
117
121
123
121
123
121
117
117
115
188
183
172
158
150
146
150
154
154
154
156
158
158
156
161
165
165
161
152
139
121
104
86
76
69
60
55
54
60
72
106
129
129
121
119
125
137
141
142
141
139
133
127
121
113
100
86
77
91
100
104
104
108
110
113
117
121
125
125
121
119
117
117
117
188
183
170
156
150
148
148
152
152
154
158
159
158
156
161
163
165
158
142
121
104
91
79
69
66
63
60
60
65
71
102
127
127
117
115
119
129
135
137
137
133
129
125
121
110
104
93
81
86
93
100
104
108
112
115
119
123
125
123
121
117
117
119
117
188
183
170
156
152
152
154
154
152
154
158
159
159
158
161
161
163
150
125
102
87
77
69
66
66
68
66
66
66
69
100
127
127
117
113
117
127
131
131
131
129
125
123
117
108
108
100
91
86
87
91
96
100
106
112
119
125
125
121
117
115
119
121
115
188
183
172
159
156
156
158
158
159
159
161
161
161
159
159
163
156
133
104
86
76
69
66
66
71
77
76
71
65
69
98
123
125
115
108
115
127
129
129
127
127
123
119
113
108
110
108
102
93
82
81
89
93
98
106
113
125
125
121
117
115
117
117
115
189
183
172
161
156
154
159
161
161
161
163
163
161
159
159
158
141
110
86
72
68
68
68
72
84
93
87
72
65
68
96
119
119
110
104
115
127
127
129
131
127
121
115
110
106
108
108
108
104
95
91
95
98
104
108
113
121
123
123
125
119
117
115
115
188
182
170
161
156
152
158
161
161
161
161
161
154
152
152
141
117
91
72
66
63
66
71
84
102
108
96
72
65
69
95
115
113
104
102
113
127
131
129
129
127
119
115
108
104
106
108
108
108
106
108
110
110
112
115
119
123
127
131
131
127
121
119
121
186
177
167
158
154
154
158
159
161
159
159
156
144
141
139
125
100
79
66
63
63
68
79
100
115
115
98
71
62
69
95
112
110
98
100
113
129
133
133
131
129
121
115
108
104
106
108
110
110
108
110
113
115
117
119
123
127
131
133
133
131
123
123
125
183
175
165
156
152
154
158
159
163
161
159
156
137
129
127
108
87
71
63
62
66
72
91
119
129
121
98
65
59
68
93
108
102
96
98
110
125
133
135
133
131
125
117
108
102
106
112
112
110
106
110
113
117
121
121
123
131
131
127
127
129
125
123
123
180
172
161
154
152
156
158
159
163
163
161
158
141
125
115
95
81
68
63
65
69
81
106
135
142
131
102
65
58
68
89
98
96
91
96
108
123
131
135
135
131
125
115
106
102
106
110
112
108
104
110
115
119
121
121
123
131
129
129
129
127
123
121
123
178
167
158
152
154
156
159
161
165
165
163
159
148
125
102
86
74
68
65
68
74
93
123
144
148
137
108
66
58
68
86
93
95
95
100
108
123
131
135
133
129
121
113
106
102
106
110
113
108
106
110
113
115
115
117
121
127
129
129
131
125
121
119
123
177
163
156
152
154
158
161
163
165
167
165
163
148
121
93
77
71
66
66
72
86
110
137
150
148
139
112
69
59
68
84
91
96
102
106
110
123
133
135
129
125
117
110
104
106
106
110
110
104
104
108
113
113
112
113
119
121
125
129
127
123
117
119
123
173
161
156
150
154
158
163
163
165
167
167
163
144
112
86
72
68
66
69
79
96
121
139
146
146
139
117
76
66
71
82
95
104
110
110
112
125
133
129
121
115
106
100
102
106
106
106
102
98
102
108
112
112
106
110
112
117
121
123
121
117
113
117
121
170
159
156
150
152
158
163
165
168
168
167
159
135
102
79
68
66
68
74
87
106
123
135
141
141
139
121
87
72
77
87
102
110
112
110
113
125
127
123
115
108
98
98
100
104
104
102
98
96
100
106
110
110
104
108
110
113
119
119
119
117
113
115
119
168
158
154
150
150
158
163
168
170
170
165
154
123
95
72
63
65
71
79
95
112
121
129
139
139
139
127
95
84
86
93
108
108
106
106
113
125
125
119
113
108
104
104
102
102
102
102
102
100
100
106
110
108
108
110
110
113
119
119
121
119
115
112
115
165
156
156
152
152
158
163
167
168
167
163
146
112
91
68
60
65
69
82
100
119
119
127
137
141
141
131
100
89
91
102
112
108
104
104
113
125
125
117
113
112
112
108
106
104
100
100
100
102
102
108
108
108
110
113
112
112
115
119
121
123
117
112
113
165
159
158
156
156
159
163
165
165
163
159
139
102
86
69
62
62
69
86
110
121
123
129
139
142
142
133
102
91
93
104
117
112
102
102
115
127
123
117
113
113
115
110
106
104
98
98
100
106
104
106
106
108
112
112
113
113
113
115
119
119
117
113
113
165
161
159
158
159
161
161
161
163
161
156
125
95
81
69
62
60
69
91
117
127
129
133
141
142
142
133
104
87
89
100
113
110
102
102
115
125
123
117
113
115
117
112
106
102
98
100
102
106
106
108
110
110
110
112
112
112
113
112
115
115
115
113
110
170
165
161
159
161
161
163
163
165
161
144
112
87
74
66
62
62
69
95
121
127
129
135
142
142
142
133
104
86
86
95
106
104
102
106
115
123
121
115
110
113
115
108
104
100
100
98
104
106
108
108
112
112
108
110
110
112
110
110
113
112
112
110
108
173
167
163
159
161
163
161
161
163
159
135
98
79
69
63
60
62
72
102
125
131
131
135
139
141
141
133
106
84
82
91
100
102
102
110
117
119
117
113
108
110
110
104
100
98
100
102
106
106
108
112
113
110
108
108
110
110
108
108
112
110
110
108
106
177
172
167
161
161
161
159
161
163
158
127
93
74
65
60
60
63
81
112
133
137
137
137
139
139
139
133
112
82
79
86
98
100
102
113
117
115
115
112
106
106
104
102
98
100
100
104
104
102
108
113
113
112
113
112
112
112
112
112
112
108
106
106
108
180
177
170
163
159
158
159
161
163
158
125
91
74
65
62
62
68
89
123
139
141
139
141
139
137
137
133
115
82
77
79
95
104
108
115
119
117
113
112
106
102
102
100
100
102
98
100
102
102
106
112
113
117
115
113
113
112
113
113
112
108
106
108
110
182
178
173
165
159
158
159
161
163
156
119
89
74
66
65
66
77
102
131
141
141
139
139
139
137
137
133
117
84
72
74
93
106
112
117
121
117
112
106
100
96
93
93
96
100
96
100
100
98
102
108
110
110
110
110
110
112
112
110
110
108
106
110
112
180
178
175
168
161
159
161
163
163
154
115
86
74
69
68
71
82
115
142
142
141
139
139
139
137
137
133
119
84
69
74
93
110
115
119
119
115
110
104
96
93
87
86
91
95
98
98
98
98
100
102
106
108
108
106
106
106
108
108
108
106
106
108
110
177
177
177
170
163
159
159
163
161
148
110
84
74
69
68
71
89
127
150
152
144
139
139
139
139
141
137
117
84
66
72
96
112
117
121
121
117
110
104
100
96
95
93
91
91
96
98
96
98
100
100
100
102
102
104
104
106
104
106
104
110
106
106
106
178
178
177
170
165
159
158
159
156
141
104
82
72
68
66
72
96
137
158
158
150
144
141
139
141
142
139
121
82
68
72
96
115
121
121
121
119
115
110
106
104
98
98
95
95
98
98
98
100
100
96
98
100
100
98
102
106
106
104
106
108
106
106
106
180
182
177
170
165
159
156
156
152
131
96
79
69
65
66
76
102
142
159
161
156
148
142
141
141
142
141
121
82
66
72
100
117
123
127
127
123
119
113
108
108
104
100
100
98
98
98
100
102
102
100
102
102
102
102
102
106
108
106
106
108
106
104
106
183
182
178
170
165
159
156
154
148
121
87
74
65
62
65
77
108
146
161
163
161
154
146
144
142
142
139
119
81
65
72
100
119
127
129
129
127
121
117
108
108
106
104
102
100
102
102
104
104
104
106
106
104
104
100
104
108
108
106
104
106
104
102
104
185
182
177
170
167
163
158
154
148
117
82
68
60
59
62
79
112
150
161
165
163
159
152
146
144
141
137
117
81
66
76
102
123
129
131
129
129
123
117
112
108
106
106
106
104
106
106
106
106
108
112
112
112
108
102
104
106
106
108
106
104
104
104
102
183
180
175
168
165
163
161
158
150
115
79
63
56
54
59
79
113
150
158
161
163
163
156
148
144
141
137
115
79
66
74
104
123
131
131
129
127
121
117
112
106
106
106
106
106
106
108
108
108
112
113
113
113
110
104
104
106
108
108
106
104
104
104
100
180
177
170
167
161
163
163
159
152
117
77
60
51
51
58
77
113
148
156
159
159
161
156
152
144
141
137
115
77
65
76
106
123
129
127
125
125
119
113
110
106
104
106
106
106
108
106
106
108
117
115
113
115
112
106
104
104
106
108
104
104
106
102
98
