P2
# 4 of 608 Angiograms
64 64
255
178
182
183
185
188
191
191
191
188
177
165
158
154
148
144
142
142
142
141
141
139
135
133
137
137
133
135
135
133
133
133
135
137
137
137
131
125
121
123
123
121
121
119
112
89
63
49
41
38
39
44
54
62
71
76
76
72
68
62
60
59
58
56
58
178
182
185
186
189
189
191
191
185
173
161
158
154
154
148
146
146
144
141
137
137
137
133
137
137
135
135
131
129
129
131
135
137
137
135
129
125
125
125
123
125
123
119
113
96
68
51
44
42
44
54
66
76
81
81
74
69
63
58
55
54
56
58
59
177
180
183
186
189
191
191
188
180
168
159
158
156
154
150
146
146
144
139
137
137
139
137
139
137
135
131
127
121
125
129
135
135
135
135
129
125
125
125
127
125
125
123
117
102
74
56
47
46
52
68
86
91
86
81
76
68
62
56
52
51
52
56
59
173
177
185
188
189
189
188
185
175
165
158
158
156
154
150
146
144
142
141
139
139
141
141
139
139
135
131
125
123
127
131
135
133
135
133
127
127
127
127
127
127
127
125
121
108
84
63
55
55
62
81
98
98
89
79
74
68
62
55
51
50
51
55
58
175
177
180
185
183
183
183
180
172
163
158
156
154
152
148
144
142
142
142
142
141
139
139
141
139
135
133
127
129
133
135
133
133
133
129
125
127
129
131
131
127
127
127
125
115
95
71
63
65
69
81
93
91
82
74
68
65
59
51
47
50
52
54
59
178
178
178
178
178
178
178
177
167
159
156
152
152
148
146
144
144
144
144
144
142
139
139
137
135
133
133
129
129
133
135
133
131
129
129
127
129
133
133
133
131
129
129
127
121
104
82
69
69
71
76
84
79
72
68
63
62
56
49
47
51
54
58
66
180
180
178
175
173
175
177
173
163
156
152
150
148
146
144
146
146
146
144
144
141
139
135
133
135
133
131
129
129
133
135
131
129
127
127
127
129
131
133
133
133
131
131
129
123
108
86
71
66
68
71
74
69
66
63
62
59
52
51
52
58
60
65
76
183
182
180
175
173
172
173
167
159
152
148
146
144
144
146
150
148
144
144
141
139
135
131
131
131
133
129
127
131
133
133
131
127
125
127
129
129
129
131
133
133
131
131
129
123
106
81
65
60
60
63
65
65
65
63
59
55
50
52
59
65
68
76
89
183
183
183
182
177
173
172
163
158
154
146
144
144
146
150
150
150
146
142
141
139
135
127
127
129
133
129
131
129
131
131
129
125
123
127
129
129
129
131
131
131
131
129
125
117
93
68
56
56
58
62
62
62
63
60
56
50
50
58
66
76
82
93
100
182
183
183
185
182
177
170
161
156
154
148
148
148
152
152
152
150
144
141
141
139
135
129
127
131
131
129
127
129
127
127
125
123
123
125
127
131
133
133
127
127
125
125
119
100
72
51
49
50
52
59
60
59
58
59
56
52
56
63
74
89
98
98
100
182
182
185
186
186
182
170
159
156
154
152
152
154
154
154
154
150
144
142
141
139
135
129
131
133
131
127
123
123
125
123
121
121
123
125
129
131
133
133
129
125
123
117
100
72
50
42
42
45
49
56
59
59
58
59
58
56
63
74
89
106
110
106
102
182
183
186
188
188
185
170
159
158
158
158
159
159
158
156
154
150
146
142
142
139
137
131
133
135
131
123
121
121
121
121
119
119
123
127
131
133
133
131
129
125
113
98
74
56
44
39
39
43
49
56
58
59
58
60
62
63
71
89
102
112
113
106
100
183
183
185
186
188
182
168
161
161
159
161
163
163
161
158
154
148
146
142
141
137
135
133
133
133
131
123
123
123
121
119
115
117
123
127
131
133
135
133
129
117
95
74
62
52
44
40
38
42
49
55
55
55
55
62
66
71
86
100
106
108
108
106
102
186
186
186
188
186
178
167
163
163
165
163
163
165
163
158
152
148
146
144
139
133
131
133
133
133
131
127
127
129
123
119
115
119
123
127
129
131
133
129
117
95
72
60
58
52
46
41
39
42
49
54
54
55
58
66
71
82
100
108
106
106
106
108
102
188
189
189
188
185
177
165
163
163
163
165
167
165
161
156
150
146
144
142
137
133
133
133
133
135
133
129
131
131
125
119
119
121
123
125
127
127
127
119
96
72
59
59
56
51
46
42
41
43
49
52
55
59
63
69
82
95
108
113
110
106
106
106
104
186
189
191
188
183
173
163
161
163
163
165
165
163
159
154
150
146
144
142
139
139
137
135
135
135
133
131
133
133
127
121
123
123
123
125
125
123
121
102
76
59
55
56
55
50
46
44
44
46
49
52
56
63
69
81
93
106
113
119
112
106
106
108
104
186
188
189
189
182
172
163
161
163
163
163
163
159
156
152
150
146
142
142
141
141
139
137
135
137
131
127
133
135
129
123
123
123
123
123
119
117
106
79
59
52
52
55
52
49
46
45
47
50
51
55
63
71
82
96
106
110
112
115
112
104
106
112
108
185
188
189
189
182
170
163
163
163
163
163
161
158
154
150
148
144
142
142
142
142
139
137
135
135
131
129
137
137
129
125
123
125
125
119
117
108
82
62
54
51
52
52
51
47
46
47
52
55
58
62
69
81
96
110
113
112
108
110
108
104
108
113
113
183
188
189
186
178
167
161
163
161
161
159
156
154
152
148
144
142
141
141
142
141
139
137
137
135
129
131
137
135
131
125
125
125
125
117
108
82
63
54
52
55
54
51
51
49
49
51
56
60
65
68
77
95
113
125
125
117
108
108
108
104
110
113
113
183
186
186
182
173
165
161
161
161
159
154
152
152
148
144
144
142
141
141
141
139
135
135
137
135
131
131
137
135
131
127
125
127
123
110
82
62
55
54
54
52
51
50
50
49
50
55
62
68
71
76
87
110
127
133
131
121
110
106
106
106
112
113
112
183
183
180
175
168
161
158
159
159
156
152
152
152
148
146
144
141
141
141
139
137
133
133
135
137
133
131
135
133
131
129
127
125
113
87
62
52
52
52
52
50
47
47
46
49
52
60
68
72
77
86
102
123
133
137
133
119
110
104
104
110
112
113
112
178
175
172
168
163
156
154
156
156
154
154
152
154
150
146
144
141
141
139
137
137
131
131
133
137
131
131
133
133
131
131
127
117
93
66
54
51
52
51
49
46
44
43
44
50
58
65
71
77
86
100
115
127
137
142
137
121
110
100
102
108
110
108
108
170
167
165
161
156
152
150
154
156
156
156
154
154
152
148
144
141
139
137
137
137
133
133
135
135
131
129
131
133
133
129
121
100
72
55
50
52
52
50
46
43
41
41
45
54
62
69
76
86
100
115
119
129
141
142
139
127
113
108
108
110
106
104
104
165
163
161
158
152
148
148
150
152
152
154
154
152
148
146
142
139
137
135
137
139
135
135
137
135
129
127
131
133
131
123
104
79
59
51
49
50
51
49
43
40
41
43
47
56
65
74
82
96
117
121
119
127
139
142
141
131
119
117
117
112
106
100
102
161
161
159
154
152
150
150
152
150
150
152
152
150
146
144
141
137
135
135
137
139
139
135
139
137
131
129
131
131
127
112
84
63
52
52
51
50
49
46
41
41
41
43
50
60
72
81
93
115
125
123
117
129
139
141
139
135
125
117
119
117
112
104
98
159
159
159
154
152
152
154
154
154
154
152
152
150
144
142
139
135
135
137
141
142
142
139
139
139
133
131
133
131
119
93
68
54
51
51
50
51
49
44
39
40
42
44
54
66
77
89
110
127
133
123
119
131
139
139
137
137
129
121
123
119
115
108
100
161
159
158
154
152
154
156
154
156
154
154
152
148
142
139
135
133
135
139
144
146
144
142
141
137
129
129
131
127
106
79
60
52
51
50
50
50
46
42
37
38
41
46
59
72
86
104
123
133
135
123
121
131
141
141
141
141
133
125
123
123
119
112
102
165
161
159
152
152
156
158
156
154
154
154
150
146
142
137
133
133
137
142
146
146
144
142
139
129
125
125
127
117
91
68
56
51
49
50
51
49
45
39
39
39
42
51
65
79
96
121
133
137
133
121
121
133
139
139
139
141
133
127
125
123
121
112
106
168
165
159
152
154
158
159
156
154
154
152
148
142
139
133
133
137
139
142
142
142
142
141
135
127
121
121
121
104
76
59
51
52
50
50
49
49
44
38
35
38
43
55
71
89
113
133
139
139
131
121
121
133
139
139
137
137
133
127
127
127
123
113
108
173
168
161
154
156
159
159
158
154
154
150
146
141
135
133
135
137
141
142
141
141
139
137
133
125
121
117
110
86
65
52
50
50
49
47
47
49
44
39
38
42
50
63
81
104
127
137
139
137
127
121
127
135
139
141
139
135
133
125
125
127
125
115
113
178
172
165
156
158
161
159
156
154
150
146
142
137
133
135
135
139
142
144
141
139
135
133
127
121
117
112
95
72
55
49
46
47
49
47
49
49
46
42
43
47
60
76
95
119
131
137
137
135
127
125
129
135
139
137
135
133
129
123
121
127
125
119
112
183
178
165
158
159
161
156
154
150
144
142
139
135
135
135
137
139
142
146
141
135
131
127
125
121
113
100
81
60
50
46
46
46
46
46
47
49
49
44
45
58
72
93
113
123
129
133
135
135
129
125
129
131
131
131
129
127
129
119
115
125
127
121
113
186
178
165
158
158
156
154
148
142
141
141
139
137
137
137
137
139
142
144
139
131
125
125
123
117
106
87
69
54
45
44
45
45
45
45
46
49
50
45
50
66
89
113
125
129
127
129
131
135
133
127
125
125
125
129
131
129
129
115
110
117
125
121
115
186
177
163
156
154
152
150
144
141
139
141
141
141
142
141
141
141
144
141
133
127
125
125
119
113
98
77
60
50
43
43
44
45
44
45
49
52
51
49
55
74
104
123
131
133
129
125
125
129
133
131
129
129
129
129
133
135
133
117
112
115
117
115
113
183
172
159
152
148
148
148
142
139
139
141
142
146
146
142
141
141
139
133
129
125
125
127
117
112
95
69
55
44
42
43
44
47
49
50
54
55
54
51
62
86
112
127
133
133
129
123
123
125
127
131
131
129
125
129
135
137
133
117
113
115
113
112
110
182
167
154
146
146
148
146
141
139
139
141
146
150
148
144
139
137
133
131
129
127
129
129
119
110
89
63
50
44
42
45
47
50
52
52
55
55
55
58
71
93
115
127
129
127
125
121
117
119
123
129
129
127
125
129
137
135
127
113
110
113
113
112
108
177
159
148
144
146
146
144
141
137
139
142
148
150
148
142
137
133
131
133
135
131
131
131
119
106
81
60
47
45
44
47
50
52
55
56
58
58
59
66
81
98
119
127
125
123
125
119
113
115
123
127
125
127
127
129
135
131
121
102
100
110
113
113
108
172
154
144
144
146
146
144
142
139
141
144
148
148
146
141
135
133
133
133
135
137
133
133
119
98
76
59
47
44
44
50
54
56
59
62
63
65
68
76
87
104
123
127
123
123
127
121
113
115
123
127
125
127
129
129
131
125
108
87
96
106
112
110
104
168
150
141
141
144
144
144
144
142
142
146
148
148
144
141
137
133
135
137
135
137
137
135
119
95
71
58
49
44
46
52
56
62
65
68
69
71
76
81
89
108
125
129
125
125
125
123
115
115
121
125
127
127
127
127
125
115
93
82
95
98
106
106
102
167
148
141
141
144
144
144
146
146
144
146
148
150
144
141
139
137
137
137
135
137
139
135
119
91
68
58
50
47
50
56
62
66
71
77
82
81
79
81
89
112
127
129
125
125
127
123
115
113
119
123
123
125
125
125
121
108
87
84
89
91
95
100
100
161
146
141
141
142
144
146
148
150
148
148
150
150
146
142
141
139
137
139
135
135
137
133
119
93
68
59
52
49
52
60
68
72
82
96
100
89
81
84
91
113
127
129
125
127
129
125
117
112
113
117
117
119
117
121
121
108
87
81
81
81
84
91
95
159
146
142
142
144
144
144
150
154
152
150
150
150
146
142
142
141
141
141
137
135
133
129
121
91
68
63
55
51
56
65
72
84
100
115
113
96
84
84
93
112
125
127
125
127
129
127
121
115
113
115
115
117
113
119
119
110
96
86
81
82
89
93
100
158
146
142
142
146
148
148
150
156
156
154
154
152
146
144
144
142
142
141
133
129
127
123
119
89
69
65
58
54
59
69
81
100
119
129
121
102
87
86
95
112
123
125
123
127
127
125
121
117
117
115
113
113
112
119
119
112
108
102
100
100
100
104
108
159
152
150
152
154
154
154
154
156
156
156
156
154
150
148
148
146
142
139
127
123
121
123
117
86
68
65
59
55
60
72
93
113
131
137
131
108
91
87
95
110
121
125
123
127
125
123
119
115
117
119
113
113
115
117
117
112
108
108
108
108
108
112
112
161
158
158
159
161
158
158
156
156
156
158
156
154
154
152
152
146
142
135
121
117
117
119
108
79
66
60
58
56
62
79
102
119
133
141
135
110
93
89
95
108
121
123
123
123
121
119
117
110
115
119
115
117
117
117
115
112
110
112
113
112
112
115
117
165
161
161
163
165
163
159
158
156
156
156
156
154
154
154
152
144
142
135
119
115
117
115
98
72
60
58
56
56
63
82
106
121
131
139
137
113
93
89
91
104
117
119
121
121
121
119
113
110
113
117
117
119
121
119
113
110
113
115
115
113
115
115
117
165
165
165
167
168
167
161
158
156
156
158
156
156
156
154
148
142
141
135
119
115
112
104
84
65
56
54
55
56
68
87
106
119
127
135
135
115
91
84
87
100
117
119
121
119
119
119
113
110
115
119
117
119
117
119
115
113
115
117
115
117
115
115
117
165
165
167
167
168
167
163
159
156
158
159
159
158
158
156
148
142
139
133
119
110
102
89
72
60
55
55
56
63
79
87
102
119
127
131
133
115
91
82
86
98
117
121
121
121
121
119
113
112
117
121
117
117
117
119
117
117
119
121
117
117
115
113
115
163
161
163
165
167
165
163
159
158
159
161
163
161
161
158
146
141
137
131
117
100
89
77
66
59
56
58
62
77
89
89
100
119
125
129
133
115
91
82
82
96
115
123
123
123
121
119
115
113
115
119
117
117
117
115
115
117
121
123
117
115
113
113
115
161
159
161
163
163
161
163
161
159
159
161
165
165
163
158
146
137
135
127
108
89
77
66
62
60
60
62
71
93
96
86
98
119
127
127
131
115
93
82
84
96
117
123
123
123
121
119
117
115
117
119
117
117
117
117
117
121
121
119
115
113
113
117
113
156
154
156
158
159
159
161
163
163
161
163
165
167
163
156
146
137
133
121
95
77
66
60
60
65
65
69
86
106
100
87
96
115
125
127
129
117
93
84
86
96
113
123
123
123
121
121
119
115
113
117
117
115
115
115
119
119
119
117
117
117
115
117
115
150
148
152
156
156
158
161
163
165
165
167
167
165
159
152
139
133
127
110
84
66
59
58
62
66
69
77
95
108
98
87
93
108
119
125
127
117
93
86
86
95
112
123
125
127
123
123
119
112
108
112
113
113
113
115
117
119
117
117
117
117
113
113
113
150
146
150
154
158
161
161
161
163
165
167
165
163
156
146
131
127
121
96
71
59
55
58
62
66
72
82
98
106
93
86
87
98
113
123
127
117
93
86
87
95
112
121
125
127
123
123
119
112
108
108
112
113
113
113
115
115
115
117
115
112
112
112
112
150
148
150
154
158
159
159
159
161
163
165
165
161
150
135
125
123
113
84
63
54
52
55
62
68
79
93
102
102
86
79
82
91
108
123
127
117
91
82
84
91
106
117
123
125
123
121
117
112
106
104
112
112
113
113
115
115
115
115
113
110
110
115
115
152
148
150
154
154
154
156
158
159
161
165
165
159
146
131
125
123
106
77
59
50
50
55
62
72
87
102
106
100
81
74
79
89
108
123
125
117
93
84
82
87
102
113
119
121
121
119
115
110
104
102
108
112
113
113
113
113
113
112
108
106
108
110
110
156
152
150
152
152
150
152
156
159
163
165
163
159
150
139
129
121
96
72
58
50
50
55
65
79
96
106
110
100
81
77
82
98
115
123
123
115
93
84
82
87
102
112
115
117
117
115
112
106
102
104
106
106
108
112
113
113
112
110
106
102
102
102
100
163
156
154
154
152
148
152
152
158
161
165
161
158
150
142
131
115
89
71
58
50
51
58
69
87
106
110
110
96
82
84
93
112
121
125
123
113
91
81
82
87
100
110
113
113
113
112
112
110
106
106
104
102
108
110
112
110
110
106
100
98
96
100
96
167
161
158
156
154
150
152
154
156
159
161
158
154
150
144
131
108
82
69
59
51
52
59
76
96
110
113
110
98
93
96
110
119
121
123
125
112
91
81
82
89
104
112
110
110
110
113
117
115
112
108
104
102
106
108
106
104
104
100
98
98
96
98
98
170
165
159
159
158
152
152
154
154
154
154
154
152
146
142
129
100
77
66
56
54
54
60
79
102
113
115
110
102
100
108
117
121
121
123
121
112
89
77
81
89
108
115
110
108
110
112
117
115
112
108
104
104
106
106
104
102
100
96
96
96
96
98
102
172
168
161
158
158
152
154
154
154
154
154
152
148
144
141
127
95
74
63
54
54
55
63
84
104
113
113
106
102
106
117
123
123
123
123
117
108
89
79
79
89
110
117
112
112
112
112
115
115
108
104
100
102
106
104
102
100
98
98
98
96
96
100
102
172
168
165
159
158
156
154
156
154
154
154
152
146
144
142
125
89
71
60
51
52
58
68
89
108
113
110
104
104
112
123
123
123
119
119
117
106
89
77
77
89
112
117
117
113
115
115
117
113
106
100
93
98
102
102
98
96
96
98
98
98
98
100
100
172
170
168
163
163
161
158
156
156
154
152
150
148
146
144
121
86
69
59
50
54
59
71
93
112
112
104
100
106
117
123
121
119
119
117
115
104
86
74
76
93
112
119
119
117
117
119
115
110
102
100
96
98
100
98
95
93
93
96
100
100
102
100
104
172
172
170
167
165
165
163
158
158
156
150
148
148
148
142
112
79
66
58
50
54
60
76
100
115
110
102
100
108
115
121
121
119
115
117
115
104
84
72
76
91
108
115
117
119
119
117
113
106
100
104
102
98
100
98
93
93
95
98
100
100
102
102
104
172
172
172
168
168
168
167
159
158
154
150
148
150
150
141
106
76
65
56
52
54
62
81
108
119
112
108
102
108
112
119
121
115
115
115
113
104
86
72
76
91
108
112
115
115
115
113
110
104
104
108
104
98
98
96
93
95
96
98
98
100
102
104
106
