P2
# 6 of 608 Angiograms
64 64
255
180
163
154
154
161
168
172
172
172
168
167
165
165
163
158
156
148
133
102
84
79
86
102
123
137
141
129
96
71
62
52
49
45
44
44
44
46
47
50
50
59
84
110
119
121
121
121
117
115
125
133
133
127
112
100
98
96
98
100
98
96
100
100
100
177
161
154
154
161
168
172
173
170
168
167
165
163
161
158
152
142
121
91
82
86
100
121
133
139
139
129
93
63
54
50
47
46
44
45
46
49
50
51
55
72
102
117
121
119
123
123
119
117
121
129
129
125
112
98
100
100
100
100
98
98
100
100
102
173
159
154
156
159
165
168
168
167
165
163
161
161
159
156
148
135
106
82
84
95
117
133
137
142
139
129
89
58
49
49
49
46
45
45
47
51
54
56
65
91
115
123
123
119
121
119
119
119
119
125
127
121
113
104
100
102
102
102
100
98
98
98
98
168
158
154
156
159
163
163
161
159
159
159
159
158
158
154
144
121
93
82
89
112
131
135
137
142
139
127
84
52
46
47
47
46
46
47
50
56
59
65
84
108
119
123
121
121
121
119
121
117
115
123
123
119
117
112
104
102
100
102
98
98
100
100
98
163
156
156
158
159
159
158
156
156
156
158
156
156
156
150
131
104
87
86
98
123
137
137
139
141
135
119
77
49
44
46
49
49
50
51
55
59
66
81
100
115
121
121
121
123
123
119
115
113
115
121
121
119
121
119
112
104
102
100
98
98
100
98
98
161
156
156
159
159
158
156
156
156
154
154
154
154
152
141
112
93
89
91
108
131
139
139
139
137
129
108
69
45
42
45
49
51
54
56
60
68
81
100
110
119
123
123
121
121
121
117
112
110
115
123
123
121
123
119
115
112
104
100
98
98
96
98
96
159
158
158
159
158
158
156
154
154
154
154
152
152
146
121
98
89
91
98
119
135
137
137
135
129
123
100
63
41
39
44
49
54
58
62
68
84
102
110
112
119
121
119
117
119
117
115
113
113
119
123
125
123
123
121
119
115
110
104
100
98
98
96
95
161
159
158
159
156
156
154
152
154
154
154
152
148
133
106
91
87
93
110
131
139
137
133
131
127
121
93
59
38
38
43
51
56
60
68
82
104
115
113
112
115
119
115
115
121
117
117
115
113
119
125
123
123
123
123
123
117
112
106
104
100
100
98
95
161
161
161
159
156
154
152
150
152
154
154
152
144
117
95
86
89
100
119
135
139
137
131
131
127
117
87
55
37
40
44
51
58
66
77
100
115
117
112
108
112
115
115
117
121
121
119
115
113
119
121
123
125
123
121
121
117
112
110
106
102
100
100
96
159
163
163
159
156
154
154
150
152
154
154
152
135
106
84
82
87
106
125
137
139
135
133
131
125
112
82
52
37
40
44
54
62
72
91
113
121
117
110
106
108
110
112
117
121
121
119
113
112
117
119
123
123
121
119
119
117
113
110
108
104
102
106
100
159
163
163
159
154
156
154
152
152
156
156
148
123
95
77
79
87
112
131
139
141
137
135
129
121
102
77
54
40
35
43
54
62
79
100
117
117
112
102
98
104
106
113
119
121
119
117
112
108
113
119
123
123
123
121
117
113
112
108
110
106
102
108
106
156
159
159
156
152
154
156
156
154
158
154
142
113
86
74
74
89
117
135
141
141
137
135
127
113
93
72
56
45
39
43
54
58
72
96
113
115
110
96
91
100
108
115
119
121
117
113
108
104
110
115
121
123
121
119
115
110
106
106
110
106
106
108
108
156
158
158
152
148
150
154
158
156
156
150
137
102
79
71
76
95
121
139
142
141
137
129
117
95
81
68
60
56
49
50
55
60
71
91
110
113
110
98
91
95
106
112
117
117
113
108
104
104
110
113
117
117
117
115
113
110
104
102
102
106
106
108
112
156
156
154
150
148
150
156
159
158
154
148
131
95
74
69
77
102
129
142
144
139
131
117
96
81
71
65
62
60
62
65
69
74
81
93
110
113
112
104
93
93
104
106
108
108
106
102
100
108
113
115
112
112
112
112
110
104
102
100
98
104
106
110
113
152
152
150
150
152
154
158
161
159
152
144
125
89
71
71
82
112
135
142
142
133
115
96
81
72
68
62
60
63
68
76
82
86
89
100
110
119
119
110
95
95
106
100
98
100
102
102
98
106
112
110
110
108
110
110
106
100
102
98
102
106
110
113
117
148
148
150
152
156
159
161
163
159
152
142
117
82
69
72
86
115
133
135
131
117
98
82
74
71
65
62
63
68
79
91
93
91
93
102
113
123
123
113
96
98
108
106
104
104
106
102
98
102
106
104
104
104
104
104
104
100
102
102
104
108
112
112
117
144
146
152
154
158
163
163
163
158
150
139
110
79
69
74
86
112
125
127
117
98
84
76
72
69
66
65
69
81
93
96
96
91
91
104
115
121
119
108
95
95
102
108
108
110
108
102
100
104
98
100
102
104
106
104
104
100
104
102
104
110
112
112
115
142
148
154
154
159
163
163
161
156
150
137
102
76
68
74
82
104
113
112
98
86
77
76
72
71
68
71
81
95
96
96
96
89
89
102
113
117
112
96
89
89
93
102
108
110
110
104
104
102
98
102
104
104
104
106
102
100
104
102
106
112
113
112
112
142
150
154
158
161
163
163
159
152
148
135
98
72
66
72
79
95
100
91
82
76
76
74
72
72
74
81
95
102
102
96
95
87
87
100
112
112
106
91
82
79
82
91
104
110
108
102
104
102
102
106
110
108
106
106
100
96
98
100
106
108
112
108
110
146
154
158
159
161
161
159
154
150
148
133
93
69
66
74
79
84
86
79
72
72
72
74
74
76
81
93
102
106
106
100
95
86
86
98
108
108
100
86
77
77
79
86
98
106
104
102
104
104
108
113
112
112
108
104
98
95
95
98
102
106
108
108
112
154
159
161
161
161
159
154
152
150
146
131
89
69
71
77
81
81
76
71
69
69
72
76
77
82
91
102
108
110
110
104
98
87
86
96
106
106
95
84
81
82
81
86
95
104
106
104
102
106
110
115
115
113
112
106
100
96
96
102
104
108
108
106
108
159
161
163
161
159
156
154
150
150
146
125
86
68
69
77
79
74
68
65
66
69
72
76
82
93
106
112
113
113
113
110
102
91
87
96
102
100
93
87
86
86
86
87
95
102
106
102
102
104
110
112
113
113
112
108
100
93
93
100
102
106
108
106
108
163
161
161
159
159
156
154
152
150
144
121
82
66
68
71
71
65
63
62
65
71
76
81
89
108
115
117
113
113
113
112
106
95
91
96
102
100
95
95
95
89
86
87
95
104
106
104
102
104
108
112
112
112
110
108
98
91
93
96
100
102
104
106
108
163
163
159
158
158
154
154
154
152
144
119
82
68
65
63
60
58
59
60
63
72
79
86
102
117
121
119
112
113
113
110
108
100
98
102
106
100
100
100
100
93
87
89
98
108
106
102
98
98
108
112
112
108
108
106
96
93
95
96
98
102
106
106
106
167
163
159
156
156
154
156
156
154
146
113
77
68
63
58
54
54
56
60
66
76
84
100
115
123
119
117
115
113
113
110
112
110
106
108
110
102
98
100
100
93
91
93
100
106
104
102
95
95
106
112
112
108
106
102
95
91
95
98
98
104
106
108
104
167
161
156
154
154
156
156
156
156
144
108
74
65
59
55
51
54
59
62
69
81
96
115
121
121
115
115
112
110
112
110
113
117
113
112
110
104
102
102
96
91
93
95
102
104
102
100
96
98
108
112
110
106
104
98
91
89
95
96
100
104
106
106
106
163
158
156
152
152
154
154
156
156
139
102
74
62
56
55
51
55
60
65
76
91
110
119
125
119
115
113
112
110
112
113
115
115
113
113
110
106
104
100
93
91
93
98
102
102
100
96
98
104
110
108
106
102
95
95
91
93
95
98
100
102
106
106
106
158
156
154
152
154
154
156
158
152
133
95
66
54
54
56
51
55
62
69
86
106
117
123
125
119
115
113
112
112
113
115
115
112
112
113
112
106
100
93
89
91
93
102
100
100
100
100
102
106
108
108
102
95
95
93
93
95
98
100
100
102
102
104
106
156
154
154
152
152
154
154
154
150
127
86
58
47
51
55
52
54
63
77
96
113
117
119
125
121
117
115
115
113
113
113
113
112
112
113
112
104
95
87
86
89
93
102
102
104
100
100
104
108
110
104
96
95
95
93
93
98
100
102
100
102
102
104
104
154
152
154
154
152
154
154
152
146
119
74
49
46
51
56
54
52
63
82
106
117
115
119
123
121
119
119
117
119
117
115
115
112
110
112
108
98
86
82
84
89
95
98
100
104
104
102
102
106
106
100
95
95
93
91
96
102
102
102
100
102
104
106
106
150
148
154
154
152
152
150
150
142
108
63
42
42
52
56
55
59
69
91
110
117
115
121
123
121
121
121
121
119
119
117
117
113
112
110
104
91
81
82
86
93
95
98
102
106
108
106
104
104
102
98
95
95
95
95
100
102
102
102
102
104
104
104
108
148
150
152
152
150
150
150
148
133
93
49
37
41
52
59
62
69
84
102
110
115
115
121
123
121
119
119
121
121
119
117
117
112
112
108
96
82
79
84
93
95
95
100
104
110
110
106
106
102
98
96
96
95
95
100
104
104
102
102
104
106
106
108
108
146
148
150
150
148
148
148
144
123
74
39
34
42
54
62
71
82
98
110
108
112
115
121
121
121
119
119
121
121
119
117
117
112
112
104
89
77
77
87
95
95
95
102
106
112
113
108
106
100
98
98
100
98
100
104
104
104
102
104
106
106
106
108
110
144
148
148
150
148
146
144
137
110
58
34
34
45
58
69
81
95
110
113
110
112
115
117
119
117
121
121
119
121
119
117
117
113
110
100
84
76
81
91
96
98
96
104
110
112
113
110
106
98
98
102
100
98
100
104
104
106
106
108
110
106
108
108
108
146
148
150
150
148
144
141
131
93
49
32
35
49
63
76
91
110
121
121
115
112
115
119
119
119
121
121
119
117
115
115
115
113
110
95
79
76
84
95
98
98
98
104
108
112
112
110
104
98
100
104
98
98
102
104
104
106
108
110
110
110
108
104
104
146
148
152
154
150
144
139
123
79
44
33
36
50
66
81
102
125
133
125
115
112
115
117
117
117
119
119
115
115
117
119
115
112
106
91
77
77
89
98
100
98
100
104
106
110
110
106
100
100
102
100
96
96
100
102
102
108
112
112
108
110
108
104
106
150
152
154
154
152
148
139
113
68
40
35
37
51
71
93
115
135
137
127
113
110
113
113
113
112
112
115
113
113
115
117
113
112
106
91
81
79
91
100
98
100
102
104
106
108
108
100
96
102
100
100
98
96
102
102
104
108
110
113
112
110
110
108
106
152
154
154
154
154
150
139
104
60
38
35
39
55
79
102
129
139
135
125
112
110
112
112
110
110
112
113
112
115
115
115
113
110
102
89
81
81
95
100
102
98
102
104
104
108
104
96
96
102
102
98
100
100
104
104
106
106
108
112
112
110
110
110
108
150
152
156
158
158
152
133
93
54
36
35
41
60
86
112
137
139
133
121
113
110
108
110
108
110
112
112
112
115
113
112
110
104
96
89
79
81
93
102
102
100
102
102
104
100
100
98
100
100
102
102
102
102
102
102
104
104
108
110
112
112
112
110
104
150
154
158
161
159
152
125
82
49
35
35
42
65
93
121
137
135
129
119
117
115
113
113
112
112
112
112
112
112
112
110
104
96
93
89
81
82
93
102
100
98
100
102
100
95
100
102
100
102
102
102
102
104
106
102
104
106
106
108
112
112
112
108
106
152
156
161
163
159
146
113
72
45
35
35
43
71
102
127
135
129
123
115
115
121
121
117
115
113
110
108
108
106
106
102
96
91
93
91
86
84
93
100
98
98
100
98
95
96
102
104
102
102
102
102
100
102
104
104
106
104
104
106
108
112
112
110
106
158
161
165
165
156
139
98
63
41
33
34
44
76
112
133
133
123
119
112
117
123
121
123
119
115
108
102
102
102
102
98
95
91
93
95
89
87
93
96
93
95
96
95
95
96
98
98
98
98
100
104
102
102
104
106
106
108
108
106
106
110
110
108
106
159
163
163
161
152
125
86
56
38
33
35
45
81
117
133
131
121
117
112
117
121
123
123
121
117
110
102
98
98
98
95
93
91
93
93
91
87
91
96
89
89
95
95
96
96
95
96
98
98
100
102
104
102
106
108
110
108
106
102
102
106
106
108
108
163
163
163
158
144
112
72
52
38
31
33
45
82
117
129
129
123
119
117
121
119
121
121
119
117
113
108
102
98
98
95
93
91
93
95
91
89
91
96
96
91
95
98
100
98
96
100
102
102
100
104
104
104
108
110
110
110
110
106
102
104
106
108
108
161
161
158
150
133
96
62
50
36
29
32
45
82
108
121
125
123
121
119
123
123
123
119
119
119
117
113
110
106
102
98
93
93
95
96
93
89
91
95
100
96
96
102
104
100
98
102
104
104
102
108
106
106
106
108
110
108
108
106
102
104
104
108
110
158
156
152
142
119
81
56
47
38
31
32
44
69
89
100
106
110
115
119
125
123
123
123
121
121
121
119
115
112
108
100
95
93
93
96
95
87
87
93
100
102
100
100
104
100
98
100
100
102
102
104
106
108
110
112
110
108
106
104
102
100
104
110
110
156
152
146
135
104
66
50
49
43
37
38
46
60
72
76
81
86
98
113
125
123
123
125
125
125
123
121
119
115
112
104
100
95
93
95
95
87
86
95
102
104
102
102
102
102
100
98
98
100
102
106
108
112
112
113
110
108
108
106
100
100
106
108
108
154
150
144
127
87
58
50
50
50
46
49
58
66
69
69
68
72
84
100
119
123
125
127
127
129
125
123
123
119
113
108
104
100
98
98
95
86
84
95
102
102
104
102
102
104
104
104
102
102
106
110
112
113
115
113
112
113
110
104
102
102
104
106
104
154
148
141
117
79
58
54
55
56
60
68
81
84
79
76
72
72
77
91
112
121
125
125
127
127
127
125
123
119
112
112
110
108
104
102
96
86
84
95
100
102
106
106
102
108
108
110
108
106
110
112
115
117
117
113
110
112
108
102
102
104
102
104
102
152
146
137
104
69
58
58
60
66
79
96
117
119
110
100
87
79
79
86
104
117
123
127
129
127
127
129
125
117
112
112
112
112
112
108
100
86
82
93
100
102
108
108
104
110
113
113
110
110
110
113
117
117
117
115
113
110
108
106
102
100
100
102
102
150
144
129
89
62
56
56
62
76
93
123
142
144
135
123
106
87
77
82
102
115
121
123
127
127
125
129
123
115
106
108
110
113
113
110
102
87
82
87
98
102
106
106
106
112
115
115
113
112
110
112
113
115
117
115
113
112
108
104
104
104
102
102
100
150
142
113
72
58
54
56
66
84
110
141
152
152
142
131
117
91
77
81
102
117
121
125
127
123
123
125
121
112
104
106
110
115
113
112
102
89
82
86
93
98
100
102
104
110
115
117
113
115
113
112
112
110
112
113
113
112
108
102
106
104
100
100
98
148
133
93
62
52
52
56
71
93
125
150
158
158
148
137
121
95
81
81
102
121
123
127
123
121
121
121
115
108
100
106
110
115
113
112
100
89
82
81
86
91
95
96
100
106
110
112
112
113
115
113
112
112
113
112
113
113
108
104
102
102
98
96
93
141
115
76
55
50
51
58
74
100
135
154
159
158
150
139
123
95
84
81
102
121
123
123
123
121
119
115
108
104
102
106
112
115
115
113
100
89
84
82
86
89
95
96
102
104
104
106
110
112
113
115
115
115
115
112
113
113
110
106
104
102
98
95
93
135
98
62
49
46
50
59
79
108
139
154
158
156
148
137
123
96
86
79
102
121
121
121
123
119
112
108
106
104
104
110
115
115
117
115
104
96
91
91
93
98
102
108
112
110
108
104
106
110
112
115
115
113
113
110
110
112
110
106
102
98
95
95
91
127
86
56
44
43
50
60
82
113
141
152
152
152
142
135
121
96
84
81
100
117
119
117
117
113
106
108
110
106
106
112
117
117
117
117
112
104
104
104
106
106
110
117
119
117
115
110
106
108
112
117
115
113
112
108
106
106
108
104
98
95
95
91
89
119
79
56
46
46
52
62
87
121
141
144
148
146
139
129
117
95
82
79
95
113
117
115
112
108
108
113
113
110
108
112
113
115
117
117
117
115
115
115
115
110
110
119
121
119
117
115
108
108
112
115
115
113
108
108
106
106
106
102
98
93
95
91
91
110
72
56
49
51
56
69
96
127
139
141
142
135
131
123
113
95
81
77
91
108
112
110
108
110
115
117
115
110
113
112
113
115
117
117
117
115
115
119
121
117
113
117
121
117
119
119
112
106
108
112
110
108
106
106
104
102
102
100
96
95
96
93
93
96
68
55
52
54
60
77
110
135
141
141
139
133
125
119
112
95
79
76
84
98
106
106
110
115
119
117
113
113
113
113
112
113
115
117
117
115
115
119
123
121
117
115
121
119
119
119
115
108
104
108
108
104
102
102
100
102
98
98
93
91
93
93
93
86
63
55
52
55
65
86
121
141
144
142
139
129
123
119
110
96
79
72
74
86
98
104
113
119
119
115
113
113
113
113
112
112
113
113
113
113
113
119
121
121
119
115
117
119
119
117
113
104
98
102
102
100
98
96
100
98
98
98
93
89
91
93
93
77
59
55
54
58
69
95
127
142
144
142
139
131
125
119
112
100
84
72
69
77
89
102
115
119
119
115
112
112
113
113
110
108
112
113
112
113
115
117
119
117
119
113
113
119
119
115
112
104
96
96
100
96
95
95
95
98
100
95
91
87
89
91
93
71
60
58
58
63
76
106
131
139
142
142
141
135
129
121
115
104
93
79
72
74
82
98
115
121
121
115
110
108
110
108
104
106
110
112
112
112
113
113
115
117
119
117
113
117
117
113
112
104
96
95
96
98
98
96
93
95
95
91
91
89
89
91
91
68
62
60
63
69
86
113
131
135
137
139
141
135
131
123
117
110
102
89
77
76
79
95
115
123
121
115
110
106
106
104
102
100
106
110
108
108
110
110
113
119
123
115
113
117
117
115
110
104
98
95
96
98
98
100
98
96
93
89
93
93
91
91
89
66
63
63
68
76
96
121
129
131
133
139
142
137
131
125
119
113
108
100
87
77
77
87
110
121
121
117
113
108
110
108
102
100
106
108
106
104
108
110
113
117
119
113
110
112
115
117
112
108
102
96
96
96
98
96
98
96
91
87
93
93
91
89
89
