P2
# 15 of 608 Angiograms
64 64
255
127
125
125
123
125
125
127
129
129
133
133
133
133
133
133
133
135
137
133
131
133
135
133
131
129
121
115
117
115
108
104
106
106
104
98
98
93
86
84
84
82
81
84
87
89
91
95
98
98
96
95
95
93
95
96
96
100
104
104
104
106
106
106
102
125
123
125
121
125
123
123
125
127
131
131
131
131
129
127
131
133
135
133
133
135
131
131
131
127
121
117
117
113
104
100
102
104
100
100
96
91
84
82
82
84
86
89
89
93
96
96
98
96
98
96
96
96
96
96
96
98
100
102
102
104
102
102
96
123
125
123
121
121
119
121
121
125
129
127
129
127
125
125
125
129
131
131
131
133
129
131
131
125
121
115
115
112
104
100
100
100
98
98
95
89
84
82
84
86
89
93
95
96
96
100
96
98
98
98
95
96
96
96
96
98
98
102
104
102
100
95
87
123
123
125
123
121
121
121
123
125
123
125
125
125
127
125
125
127
129
129
129
129
129
127
129
127
121
115
113
110
104
100
100
100
96
96
93
87
84
84
87
91
95
96
98
102
102
100
96
98
98
96
96
95
95
98
100
100
100
102
102
98
95
87
77
121
119
123
121
121
121
121
127
125
123
121
121
123
123
123
121
121
123
123
123
125
127
127
129
125
121
117
112
110
104
98
100
96
95
93
89
82
81
86
91
95
95
96
98
102
102
100
98
100
100
100
96
96
96
98
100
98
98
98
96
93
84
76
69
121
117
119
119
121
121
121
123
123
121
119
117
117
119
117
115
117
119
117
119
121
123
125
125
121
119
119
112
108
102
98
98
96
98
93
87
82
84
91
96
96
93
95
98
102
100
100
96
102
98
100
98
96
96
98
98
98
98
95
89
82
74
68
63
123
121
119
119
121
121
123
123
123
121
121
117
115
117
113
112
113
115
115
117
119
119
121
121
117
117
119
112
108
100
98
96
96
95
89
86
84
87
95
96
96
95
95
98
100
102
102
98
102
100
98
100
100
98
100
98
96
95
87
81
72
66
63
60
125
123
119
121
123
121
121
121
123
121
117
117
117
115
113
110
112
112
113
115
115
119
119
119
119
119
115
110
106
100
96
95
93
89
86
84
82
89
96
96
98
96
96
98
102
102
102
100
102
102
102
104
102
100
98
96
91
87
81
71
65
63
59
60
123
123
121
121
125
123
123
123
123
117
117
119
119
117
115
113
113
115
115
115
117
117
117
115
117
115
113
108
104
100
98
96
89
87
86
87
86
95
100
100
98
96
96
96
100
100
102
104
102
100
102
104
106
102
100
95
87
79
71
65
60
59
56
58
123
121
121
121
123
123
121
121
119
119
119
119
119
119
119
115
117
117
119
121
121
121
121
115
115
113
110
106
104
102
100
96
91
87
87
87
91
98
100
98
98
96
96
96
98
100
102
104
100
100
102
104
106
106
100
93
82
72
66
60
58
56
58
56
127
123
119
121
123
123
121
123
121
121
119
121
121
119
119
117
119
121
121
123
119
121
121
117
113
110
104
102
102
102
100
95
89
87
86
87
93
98
100
100
98
98
96
96
98
98
98
100
98
98
102
104
104
104
98
87
74
68
63
59
59
55
56
54
127
123
119
121
123
121
123
125
123
121
119
121
121
121
119
121
125
127
125
125
123
121
121
117
112
106
102
100
100
100
100
93
89
86
86
86
93
98
98
98
100
98
96
96
96
96
98
100
100
100
102
104
106
100
87
76
69
65
60
56
55
55
55
52
125
123
121
123
123
125
127
125
123
121
119
121
123
121
121
123
125
127
127
127
125
123
123
117
113
108
104
100
102
100
98
93
87
87
89
89
95
98
98
98
98
96
96
95
96
96
98
102
100
104
106
104
100
89
77
72
66
63
58
55
54
52
54
55
125
121
121
121
123
123
127
125
123
123
119
119
121
121
125
125
125
129
129
127
127
123
121
117
113
108
102
102
102
100
98
91
87
89
93
91
95
98
96
95
95
93
89
91
93
96
95
100
102
104
104
98
89
79
71
68
63
59
56
54
54
54
54
54
123
119
119
121
121
123
127
127
125
125
125
121
121
123
127
127
125
127
129
129
127
121
117
113
110
106
102
102
104
100
96
91
87
91
93
91
93
98
96
96
96
93
89
89
93
95
95
95
98
102
98
89
81
72
66
63
59
56
55
56
56
54
52
55
123
119
119
121
119
123
127
127
125
125
127
123
125
127
129
129
129
131
129
127
125
121
115
110
108
104
102
104
104
100
96
91
89
89
93
93
93
95
98
100
95
95
93
91
91
93
95
96
96
95
87
79
72
66
63
60
60
58
56
56
56
55
52
56
123
119
117
117
119
123
125
125
127
125
127
125
127
129
129
131
131
133
129
127
123
121
112
104
106
102
102
104
102
100
95
93
93
91
95
93
93
96
98
98
95
91
93
93
91
93
95
93
89
82
77
71
66
60
60
59
58
56
54
52
54
55
56
60
123
119
117
117
117
119
121
125
125
123
125
123
125
129
131
131
133
133
129
125
121
119
112
104
104
104
102
104
104
100
96
96
96
95
96
95
95
95
96
96
95
93
93
95
91
95
93
87
81
76
71
65
62
59
56
58
55
54
52
52
54
56
59
62
123
119
119
119
117
117
121
123
123
123
123
123
127
129
131
131
133
131
127
123
117
117
112
106
102
104
104
104
102
100
95
95
96
98
96
96
96
98
98
98
95
95
95
93
93
95
91
82
76
69
65
62
59
56
56
54
52
54
55
55
54
56
60
65
121
117
119
121
119
115
119
121
125
123
121
123
123
125
129
131
133
129
127
123
121
119
112
106
100
102
102
106
102
98
95
96
98
100
100
98
98
100
98
98
98
96
96
96
95
95
87
79
71
65
62
59
56
56
55
55
52
54
54
55
55
58
60
65
121
117
117
119
119
115
119
121
121
119
117
121
123
123
125
127
131
129
125
121
121
119
112
104
98
102
108
110
106
96
93
96
102
104
100
100
100
100
98
100
100
98
98
98
98
91
82
72
66
62
58
56
55
55
52
52
51
54
52
55
58
60
66
68
123
119
117
117
119
117
119
121
121
119
117
121
121
121
123
127
129
129
123
117
117
119
113
106
100
102
108
110
106
98
95
100
102
102
100
100
102
102
100
100
100
98
98
98
95
84
76
68
62
59
56
55
54
52
52
52
52
54
55
56
59
62
66
74
123
123
119
117
117
117
119
121
121
121
117
119
121
121
121
125
127
127
121
119
117
119
113
108
104
104
108
110
106
98
96
100
102
102
102
104
106
104
102
100
100
100
102
95
84
76
69
65
59
56
55
54
52
52
54
51
52
54
55
58
60
63
69
79
123
121
121
121
119
121
121
121
121
119
117
119
121
121
123
125
127
123
119
121
121
117
113
110
108
104
108
110
104
100
100
102
104
104
108
108
108
106
102
100
102
102
96
86
76
69
65
60
56
56
54
52
54
54
52
51
54
54
56
59
63
66
76
84
125
123
125
125
121
123
123
121
121
117
119
119
119
121
121
125
123
119
117
119
119
115
115
113
110
108
104
106
104
98
104
104
104
108
110
110
110
106
102
102
102
100
89
77
69
65
59
56
56
55
52
52
54
55
52
54
55
56
58
60
65
72
82
93
125
125
127
125
123
125
125
123
121
119
119
121
119
119
121
119
117
117
117
119
117
113
115
115
112
108
104
106
104
100
102
106
106
108
112
108
108
106
102
104
100
93
82
71
65
59
56
56
54
55
54
55
56
56
55
54
55
56
60
63
69
81
89
98
129
127
129
125
123
125
125
123
121
121
123
121
121
121
119
115
115
115
115
115
115
115
119
117
113
110
106
104
100
100
104
110
106
108
110
108
106
102
100
102
96
86
74
66
62
56
54
56
54
52
54
56
58
55
55
54
55
59
62
68
77
87
96
98
131
129
129
125
123
125
125
125
123
123
123
121
123
119
115
112
112
112
112
113
115
117
119
119
115
112
106
100
96
100
106
110
106
108
108
108
106
102
102
96
87
76
66
62
60
58
55
54
54
54
55
54
56
56
55
55
58
60
66
74
86
95
98
100
131
129
129
125
125
127
127
129
127
123
123
123
123
117
113
112
112
113
112
112
115
119
119
119
117
113
106
100
95
98
104
110
106
106
108
108
108
102
98
91
82
71
63
58
56
58
56
55
55
55
55
55
55
54
55
58
60
65
72
82
93
98
102
102
129
129
129
127
129
131
133
131
129
127
123
121
121
117
115
113
113
115
117
113
115
119
119
119
117
113
108
102
95
96
102
106
106
108
108
106
106
102
96
89
77
66
62
58
56
56
56
58
55
54
54
54
55
55
58
60
65
72
81
91
98
102
104
100
129
129
129
129
131
133
137
135
131
129
125
121
119
115
115
113
110
112
115
117
119
119
119
119
117
112
108
102
95
96
98
104
106
106
106
104
104
98
91
84
72
63
59
56
54
52
55
59
59
55
55
56
58
60
62
66
72
79
91
98
100
100
102
100
129
127
127
129
133
133
135
137
133
131
125
121
115
113
113
115
112
112
112
115
117
121
117
119
117
112
110
104
95
96
98
102
102
104
102
102
100
95
87
77
69
60
59
58
55
54
55
59
59
56
58
59
60
65
69
74
82
89
98
102
102
100
100
104
129
127
129
133
133
133
135
135
133
131
123
119
113
112
110
112
110
110
110
113
117
119
119
119
117
113
112
106
96
95
98
102
104
104
102
102
98
91
81
72
66
60
60
60
56
56
58
59
59
60
62
63
65
69
77
84
91
98
102
104
104
100
102
104
129
131
133
135
135
135
133
133
131
129
123
119
113
110
110
112
110
110
112
112
117
117
117
119
117
115
113
106
98
95
96
102
104
102
104
98
96
87
77
69
66
63
60
59
59
59
59
60
60
63
65
69
74
79
87
93
100
104
106
108
108
104
102
106
125
129
133
135
133
133
131
131
131
127
125
121
113
112
110
110
108
112
112
113
115
117
117
117
119
117
113
108
100
95
95
96
102
102
100
98
91
82
76
68
65
62
63
58
58
59
59
62
63
66
69
76
82
89
96
100
104
110
108
108
110
108
104
102
123
127
129
133
135
133
129
131
129
127
125
119
113
113
112
110
112
113
112
115
115
117
117
119
119
119
113
108
100
95
91
93
96
98
98
95
87
79
72
68
66
63
63
62
62
62
60
65
69
71
76
84
89
96
98
102
104
108
108
108
108
108
104
100
123
125
125
129
133
131
131
131
131
127
123
117
113
112
112
113
115
113
113
115
113
113
117
117
117
115
113
108
102
95
95
93
95
96
95
91
84
76
71
68
66
66
63
65
65
66
66
69
72
77
84
89
93
96
100
104
104
104
106
108
108
108
104
104
123
123
123
125
129
129
131
131
129
125
121
117
113
112
110
108
110
110
110
113
115
117
115
115
115
112
112
110
106
100
95
93
96
96
95
89
82
76
71
68
66
65
65
66
66
68
69
72
79
87
91
95
96
96
100
104
106
104
106
108
108
106
106
104
123
125
123
123
127
131
129
129
127
125
121
117
115
112
106
106
108
110
112
113
115
115
113
112
112
108
110
112
110
102
96
91
93
96
95
89
82
76
68
66
66
66
68
69
69
69
72
81
87
93
95
98
98
96
100
106
104
106
108
110
110
108
104
100
125
125
127
125
125
127
127
127
127
125
121
117
112
106
102
104
108
110
112
112
112
112
112
110
110
110
110
110
108
102
98
95
93
96
95
89
81
74
68
68
69
69
69
71
72
74
81
87
93
95
95
96
95
95
98
104
104
108
106
108
108
106
102
100
129
127
127
125
125
129
127
127
127
125
119
113
110
106
102
100
106
108
110
110
108
110
112
110
110
110
112
110
106
104
98
93
91
93
93
89
81
72
68
68
68
71
72
74
79
82
87
95
96
96
93
93
91
91
96
102
104
106
106
104
102
100
100
102
129
129
127
127
125
125
129
127
127
123
119
113
110
106
104
102
104
108
108
108
108
112
112
112
112
108
112
110
106
104
102
93
87
87
91
89
81
72
66
66
66
68
71
77
82
87
91
93
96
95
95
95
93
93
96
100
102
102
102
102
100
98
100
100
129
127
129
127
123
123
129
127
125
121
117
112
106
104
102
102
102
106
108
108
106
110
112
112
110
112
112
108
104
102
100
91
84
82
87
89
82
74
68
65
65
66
71
81
87
89
91
91
93
91
91
95
95
96
93
95
98
100
102
98
98
98
98
96
129
127
127
127
125
125
129
125
123
119
115
110
104
102
102
104
104
106
110
110
108
110
115
113
112
112
110
106
102
102
96
89
81
79
82
86
81
74
68
63
66
68
71
81
87
89
91
91
91
91
93
96
95
98
95
95
96
96
96
95
96
98
96
96
129
129
127
127
125
127
127
123
121
119
113
108
102
102
102
104
104
104
108
108
108
110
113
113
113
112
108
108
102
98
93
84
77
74
79
82
81
74
69
63
65
65
71
79
87
93
95
95
95
95
96
98
98
102
98
95
95
95
98
96
95
93
96
96
131
129
129
127
125
127
123
121
121
117
112
108
102
100
102
104
102
102
104
106
108
112
113
113
112
108
108
108
102
95
87
82
79
77
77
81
79
74
68
65
62
63
69
76
86
95
98
96
96
98
98
98
102
102
100
96
96
98
100
96
95
96
96
98
129
129
129
127
127
125
123
123
119
115
113
108
102
98
100
102
102
102
102
104
108
110
115
115
112
106
106
108
102
93
87
84
82
79
77
79
79
77
71
66
62
62
68
74
84
93
102
100
100
100
98
102
106
106
100
98
96
98
100
100
98
100
102
104
131
127
127
127
127
123
121
119
117
115
113
108
102
100
100
102
102
100
100
102
108
110
112
115
113
108
106
106
100
91
87
86
87
86
81
77
79
79
76
66
60
63
68
76
82
91
102
100
102
102
102
104
104
102
102
100
100
102
102
104
104
104
108
112
129
129
129
127
125
121
119
119
117
115
112
108
106
102
100
100
98
100
100
104
108
113
112
115
112
110
108
104
96
89
89
89
93
89
86
81
79
77
77
71
63
65
71
77
82
89
102
106
106
106
108
106
104
104
106
104
106
108
110
106
108
110
112
112
131
131
131
129
123
119
119
117
117
113
110
108
106
100
100
98
95
95
98
104
108
113
113
113
112
110
106
100
95
89
89
91
95
93
87
81
79
79
76
72
69
68
74
76
81
86
96
104
106
110
110
110
108
106
106
104
106
110
112
108
108
108
112
110
131
133
133
131
123
123
123
119
115
112
110
106
106
102
98
96
93
93
96
100
106
112
112
113
112
108
104
98
91
87
91
89
95
93
89
84
79
81
79
76
74
72
76
77
79
82
93
100
106
110
110
108
112
110
106
102
106
108
110
110
110
108
108
110
131
131
133
131
127
123
121
117
113
110
110
108
106
104
100
98
95
95
96
100
104
108
112
113
112
112
104
96
89
87
89
87
95
96
95
89
84
86
86
81
77
74
74
74
77
81
87
98
106
108
110
110
113
110
106
102
104
108
106
108
110
110
112
110
129
129
131
129
127
123
119
117
113
112
110
108
108
104
102
96
95
93
95
96
104
110
112
115
112
110
102
91
82
84
87
89
95
95
95
93
89
91
91
86
79
77
74
72
74
79
86
95
104
108
110
112
113
113
110
108
106
108
106
106
110
112
112
112
129
129
127
127
123
121
119
117
113
112
110
110
108
106
102
98
95
95
95
95
102
108
112
112
110
104
96
86
79
82
87
89
91
91
93
95
95
95
95
89
82
76
72
74
76
81
84
91
102
108
108
112
115
113
110
108
106
104
106
106
110
112
110
110
125
127
125
125
121
121
119
117
112
112
110
110
110
108
106
100
98
96
96
98
102
106
106
106
102
96
87
81
79
82
87
87
89
95
95
96
100
98
98
93
84
74
72
74
77
81
82
86
96
106
110
113
117
115
112
108
106
104
106
110
112
113
110
112
119
121
123
125
123
119
117
115
112
113
112
112
112
112
110
104
102
102
100
100
102
102
102
100
95
87
84
82
82
86
84
86
91
93
93
95
98
102
100
93
87
77
74
74
76
77
79
82
93
106
112
113
117
117
112
110
108
108
108
106
110
110
112
112
117
121
121
121
119
117
115
113
112
112
112
115
113
115
115
112
106
104
104
100
98
96
96
93
87
82
81
84
86
87
87
87
87
91
93
98
98
100
100
96
91
81
76
72
71
74
76
77
86
102
113
113
115
115
112
112
108
108
110
106
108
106
110
113
117
117
121
121
121
119
115
117
113
112
112
117
117
117
119
115
110
106
102
100
96
95
91
86
79
77
81
84
84
86
89
89
91
93
95
95
98
102
102
100
95
84
77
74
72
71
71
74
81
96
110
110
112
113
113
112
110
110
110
108
108
104
104
110
121
121
123
123
123
119
119
117
115
113
113
115
117
119
121
117
110
106
104
102
96
91
84
77
74
74
84
84
86
86
89
93
95
96
95
95
98
100
102
102
96
87
81
76
72
69
69
72
77
89
106
110
112
112
113
112
112
112
110
110
110
104
102
106
125
123
125
125
123
121
117
119
113
115
115
115
115
117
119
117
110
106
102
98
93
84
77
72
72
74
84
87
89
89
91
95
98
96
95
96
100
100
100
102
98
91
81
74
71
69
69
71
76
86
100
108
112
113
113
110
108
112
110
108
106
102
98
104
129
127
127
129
127
125
121
119
115
113
113
112
113
115
115
115
110
104
100
95
87
79
76
76
76
79
86
89
91
93
96
96
100
98
96
96
98
100
104
104
100
95
86
77
74
72
72
71
74
81
95
104
112
112
112
112
110
110
110
110
104
100
100
104
133
131
131
129
127
127
127
121
115
113
112
113
112
113
115
115
112
106
98
91
84
81
79
81
81
84
87
87
93
91
96
98
100
96
96
96
98
102
104
104
100
98
91
84
79
76
71
69
72
77
87
98
108
110
110
110
110
110
110
106
104
104
102
102
133
133
131
129
125
125
127
125
119
117
115
113
115
113
112
115
112
104
95
87
84
82
82
84
86
87
89
91
95
95
95
98
98
98
100
98
98
100
100
104
104
104
98
89
82
77
72
72
72
74
82
95
102
110
110
110
108
108
106
104
102
102
102
102
135
133
133
131
125
125
125
125
121
121
119
117
117
115
113
115
110
100
91
84
82
82
86
89
93
93
93
95
95
96
96
100
102
104
100
98
98
100
98
102
106
108
106
96
86
77
76
74
72
74
79
89
98
106
110
110
108
106
104
104
104
102
100
100
