P2
# 35 of 608 Angiograms
64 64
255
123
123
125
125
125
127
127
133
127
127
125
127
131
129
125
123
119
119
123
123
123
121
121
123
121
119
119
123
121
121
123
123
121
121
119
119
121
123
127
131
133
135
139
140
142
142
142
140
142
140
142
139
135
135
137
139
140
140
140
140
139
140
142
142
125
125
123
123
125
127
129
133
129
125
127
129
129
127
125
123
125
125
125
125
123
121
121
123
121
121
119
123
119
117
121
119
121
121
121
121
119
119
125
131
135
135
137
139
139
140
142
142
140
139
139
137
137
135
133
137
140
140
140
139
139
140
144
142
127
131
127
125
127
127
129
133
131
127
127
127
127
127
125
127
127
125
125
125
125
125
125
127
121
119
119
125
121
117
117
119
119
119
119
121
121
121
125
133
133
137
139
137
135
137
140
139
135
135
137
137
137
135
133
135
140
139
139
139
140
140
140
140
127
127
125
125
127
127
131
131
131
127
127
125
125
125
123
125
127
125
125
123
125
125
125
127
123
117
121
125
123
121
119
121
117
117
119
121
123
125
125
133
137
139
139
139
137
137
139
139
137
137
137
135
135
135
135
135
137
137
133
135
139
140
140
139
125
125
123
121
129
127
129
131
131
129
131
133
131
129
127
129
125
125
123
123
125
125
125
121
121
119
121
123
123
119
119
121
121
119
121
121
125
125
127
135
140
140
140
139
139
139
139
135
135
135
135
135
137
135
131
133
137
135
131
137
137
140
140
139
129
129
127
125
129
127
125
129
129
127
131
133
131
131
129
131
127
125
125
125
125
125
121
119
121
123
123
119
121
119
119
121
121
121
123
125
125
127
131
137
139
139
142
139
137
135
133
133
135
135
135
135
135
137
135
133
135
135
131
135
137
140
142
142
129
129
127
131
129
127
129
129
129
129
129
129
133
131
129
125
127
127
125
123
127
123
123
119
121
123
119
119
121
125
125
121
119
121
123
125
127
131
135
140
137
137
139
139
137
137
133
131
135
135
133
135
135
139
137
135
133
133
133
133
137
139
140
142
131
131
129
131
129
129
129
127
129
129
127
129
133
131
129
125
129
125
123
121
117
119
121
117
119
123
121
123
123
123
123
125
123
121
121
125
127
133
137
140
140
140
137
140
140
137
135
131
133
133
133
137
135
135
135
137
133
133
133
133
135
135
139
142
133
131
125
127
127
129
131
129
129
129
129
129
129
127
125
125
127
129
125
121
117
119
121
121
121
119
121
123
125
121
127
129
127
125
123
125
127
135
135
139
139
139
139
140
140
139
135
133
135
133
135
140
139
139
137
135
131
133
131
131
133
129
133
139
131
131
127
125
123
125
129
133
131
129
129
129
133
129
127
127
131
133
127
119
123
121
121
121
121
119
119
117
125
127
131
131
129
123
125
125
127
135
137
140
139
139
139
137
137
137
135
133
133
133
133
137
140
140
139
135
131
133
133
133
133
133
133
133
129
129
129
129
129
131
131
133
129
127
129
129
131
131
127
125
127
129
127
125
123
123
123
121
123
121
121
121
125
129
133
131
131
127
127
127
129
133
137
139
135
137
139
135
135
135
135
135
135
135
129
131
139
139
137
137
137
135
133
133
131
133
133
131
127
127
125
127
127
131
131
131
133
127
127
129
127
129
129
129
127
129
127
125
127
127
123
125
123
121
121
121
125
133
133
131
129
127
129
131
131
133
135
133
133
135
137
137
137
135
135
137
135
135
135
135
137
137
137
139
137
135
135
133
133
135
129
129
125
125
123
123
121
123
125
127
127
125
125
125
125
127
127
127
125
125
123
123
127
127
125
125
121
119
125
123
125
131
129
127
127
127
127
129
133
135
133
131
131
133
133
135
137
135
135
135
137
139
137
139
137
135
137
135
135
133
133
135
133
135
129
129
123
121
121
119
117
121
121
121
123
121
123
119
119
121
121
121
119
119
119
119
123
127
125
125
123
125
127
123
123
127
127
127
127
127
125
127
129
129
129
129
129
131
131
137
137
133
133
135
139
139
133
137
135
137
133
131
133
135
133
133
129
131
129
129
115
114
114
114
115
117
115
115
115
119
119
117
117
115
117
117
117
119
119
117
119
125
125
121
121
123
123
119
119
125
125
127
127
127
129
129
133
129
127
127
129
131
131
137
139
135
133
137
139
139
135
133
135
137
131
129
131
133
135
133
129
131
131
133
114
112
112
112
114
114
114
112
114
112
114
115
115
115
115
115
114
115
114
112
115
119
121
121
119
121
119
119
119
123
127
131
127
127
127
131
131
129
123
123
125
127
129
133
137
137
137
139
140
140
139
135
135
133
131
131
131
135
137
135
133
131
135
133
115
115
117
114
112
110
110
112
110
110
110
110
110
110
110
108
110
112
108
108
112
114
117
121
119
121
121
123
119
119
125
129
129
131
129
129
129
127
125
125
125
125
125
131
133
137
139
139
140
140
140
137
137
135
135
137
139
139
137
135
133
131
135
135
114
115
114
110
108
112
114
114
112
110
112
108
106
104
100
102
106
106
108
114
114
112
114
117
121
123
121
125
125
123
123
127
127
129
129
127
131
129
125
125
123
125
125
131
133
135
137
137
139
137
137
137
139
139
139
139
137
137
133
133
137
135
133
131
115
114
114
112
112
117
115
115
114
110
112
108
100
99
95
97
100
102
106
110
114
112
114
117
121
119
119
121
123
121
123
123
121
123
123
123
131
129
125
125
123
123
123
129
129
129
129
135
137
139
139
140
139
137
139
137
135
135
133
135
135
135
129
127
112
110
112
112
112
114
112
108
106
104
102
102
99
99
93
95
95
97
102
106
112
114
117
119
117
115
117
119
123
121
119
121
123
123
123
123
125
127
127
125
123
123
125
125
125
127
127
131
135
133
133
135
135
139
137
135
131
133
129
129
131
131
125
123
102
102
102
102
102
106
104
99
97
97
95
95
97
95
90
95
91
91
93
100
108
114
117
117
114
115
119
123
127
127
123
127
129
129
129
127
127
127
127
127
123
125
127
125
123
125
125
129
131
131
131
131
129
131
133
133
129
129
127
127
129
125
121
117
95
97
100
99
99
99
97
91
91
91
95
97
95
91
91
91
93
91
95
97
104
110
112
115
114
119
123
125
129
131
127
131
135
133
131
133
131
129
131
129
125
127
125
123
121
123
125
127
129
129
131
129
131
131
131
129
131
129
125
125
123
119
119
114
91
95
95
95
97
97
93
91
93
93
95
95
93
91
90
90
90
90
93
93
99
106
112
114
115
121
125
127
131
131
127
131
133
135
135
135
135
133
129
129
127
129
127
123
123
123
129
127
127
129
131
129
131
131
131
129
127
125
121
121
119
117
115
112
91
95
97
95
99
97
91
91
93
95
95
93
90
91
90
91
88
88
90
90
95
104
110
117
123
121
123
133
133
131
131
133
131
133
137
135
133
129
129
129
127
131
129
129
125
125
127
127
127
129
131
131
133
129
129
127
125
121
121
117
115
117
117
115
93
95
99
95
97
95
91
90
93
93
93
93
90
91
93
91
91
91
90
91
93
100
108
115
121
123
125
133
131
131
135
135
135
135
137
135
133
133
131
133
131
133
133
129
127
125
125
127
129
131
135
133
131
127
123
123
121
121
119
115
114
117
117
115
93
95
95
93
93
95
95
95
95
93
91
93
91
91
91
93
93
93
95
95
99
100
106
114
117
121
125
129
133
131
135
135
133
137
135
133
131
129
131
129
133
133
135
131
127
127
131
129
129
127
131
131
127
125
125
123
121
117
117
115
115
117
119
117
95
93
91
93
93
97
99
97
95
93
93
95
95
91
91
93
95
95
99
102
104
102
106
112
115
123
125
129
131
135
137
137
135
135
133
133
133
133
129
129
131
131
133
131
131
129
133
133
127
125
125
129
125
123
121
119
119
117
117
117
119
121
121
119
97
97
91
95
95
99
97
97
95
95
93
93
97
95
93
95
97
100
102
104
106
110
108
114
114
123
127
127
133
137
133
133
133
131
131
131
129
131
129
127
131
135
135
133
133
135
135
137
133
129
127
125
125
123
121
121
121
121
121
123
121
121
123
125
99
99
95
95
99
102
99
97
97
99
97
97
97
97
97
99
100
102
106
108
112
115
112
114
114
119
127
127
133
133
131
133
135
129
129
129
131
131
131
127
135
135
137
135
135
135
137
137
135
133
133
125
121
121
119
121
123
125
125
125
127
127
129
125
108
106
104
104
106
104
102
100
100
100
99
99
99
95
100
106
106
106
110
112
115
115
117
117
115
115
119
125
129
129
129
131
129
129
131
127
129
131
133
131
133
135
133
133
131
133
135
135
135
131
129
123
119
119
121
125
127
125
127
127
125
125
125
125
119
117
115
114
112
110
108
108
108
108
108
106
102
100
102
102
106
108
112
112
117
119
121
115
114
115
115
119
125
129
127
127
129
133
133
127
129
129
131
131
131
133
133
131
133
133
133
133
131
127
121
119
117
119
123
125
119
121
127
127
123
125
123
125
125
125
123
121
121
121
121
121
121
121
121
117
115
112
110
110
108
110
112
114
117
119
119
115
114
117
114
117
119
125
129
129
129
133
129
131
133
131
133
133
129
131
131
129
129
133
129
127
125
125
121
115
115
119
121
121
119
123
125
125
123
121
123
125
133
133
133
131
127
125
125
125
127
131
129
127
123
121
119
117
117
117
115
114
114
117
117
114
114
112
112
114
121
121
125
125
125
129
129
131
133
135
133
131
133
131
131
129
127
129
125
125
123
119
115
114
115
117
114
117
121
123
121
119
119
119
119
121
133
135
135
135
133
131
129
133
133
135
133
129
127
127
125
125
127
127
125
119
114
114
112
110
112
110
110
114
119
119
121
121
123
125
127
131
135
133
131
129
131
129
129
127
125
123
123
121
117
115
112
112
112
114
114
117
119
117
119
119
119
117
117
119
133
133
133
133
133
133
133
131
133
131
131
133
129
125
129
131
129
129
131
127
123
117
114
108
108
110
110
114
119
119
121
123
125
121
125
129
131
129
131
131
129
129
127
123
121
117
117
117
114
110
114
114
115
112
114
115
117
121
121
121
115
115
115
119
133
133
129
131
133
135
133
131
135
135
131
131
131
131
133
131
129
127
129
129
127
123
119
115
110
112
114
114
115
119
121
123
125
121
121
121
121
123
125
127
125
123
121
119
115
115
117
115
110
108
112
115
114
112
115
117
119
117
117
115
115
117
115
115
131
133
135
133
133
133
129
129
131
135
131
131
131
131
135
131
129
125
127
129
129
125
123
121
115
110
108
108
112
114
117
119
119
119
117
115
115
119
121
119
119
119
117
115
119
119
119
117
114
115
115
115
117
119
117
119
117
115
115
119
123
121
115
115
129
133
137
137
135
131
131
131
129
127
129
131
131
129
129
129
129
127
131
131
133
125
123
123
121
114
106
106
108
110
112
112
114
115
112
112
112
112
112
114
117
117
119
119
121
123
125
121
123
123
121
121
121
123
121
121
123
117
117
119
121
117
119
121
129
133
133
135
135
131
131
129
129
129
129
131
129
127
125
129
127
129
129
131
129
129
125
127
127
123
114
110
108
104
104
106
108
112
114
112
108
108
106
108
112
115
117
117
123
123
125
125
125
125
125
123
123
123
125
125
121
117
117
119
121
117
119
119
129
131
133
131
131
131
131
129
133
129
131
131
131
129
129
129
129
131
129
127
125
125
125
127
129
127
121
112
110
108
102
106
106
110
112
110
108
108
106
104
106
108
114
117
123
123
121
123
123
125
123
125
123
123
125
123
123
121
119
121
123
125
125
123
127
127
133
133
131
129
131
131
133
133
131
129
127
131
131
131
133
131
131
127
123
127
129
125
129
129
127
119
115
112
108
106
108
106
104
106
104
104
102
102
100
104
106
114
121
121
117
121
125
125
123
125
123
125
123
123
125
125
125
127
129
125
125
125
131
127
131
131
129
129
129
131
131
129
131
131
133
131
133
131
131
133
131
125
123
129
131
129
129
129
129
125
121
117
114
110
108
102
100
102
100
97
97
99
97
97
100
106
114
121
121
121
125
125
127
127
125
123
123
121
123
125
125
125
127
127
127
129
135
133
131
129
131
129
127
129
129
129
129
129
129
129
129
125
127
129
129
123
121
129
131
129
127
125
127
127
125
125
123
115
110
102
100
99
95
95
95
93
90
91
93
99
104
114
121
121
125
125
127
129
125
125
123
123
125
127
127
129
131
131
133
133
135
133
133
133
129
127
127
133
131
129
125
127
125
125
127
127
129
127
127
125
121
129
131
129
129
127
127
131
127
127
125
119
114
106
102
95
91
91
90
84
81
84
91
93
97
104
114
121
125
127
129
129
123
123
123
123
127
129
131
133
133
131
133
135
131
133
133
131
133
133
133
133
129
125
127
127
129
129
127
125
127
125
127
125
123
127
131
131
131
127
125
127
127
123
121
119
115
110
102
97
95
90
84
79
79
79
83
86
90
95
104
114
121
125
127
127
123
129
127
123
125
129
131
135
137
133
133
133
133
131
131
129
131
135
135
135
133
129
131
129
127
127
127
125
125
125
125
125
127
125
127
125
127
123
125
125
125
125
121
121
117
117
110
102
100
93
86
79
78
78
76
79
84
88
93
100
110
115
117
119
121
125
127
121
125
129
133
137
137
135
135
137
137
135
129
127
129
131
133
133
131
129
131
127
127
125
123
123
125
125
125
125
125
123
125
125
125
125
125
123
127
127
125
123
121
121
117
110
100
97
91
84
78
78
79
78
81
81
84
91
99
106
112
112
114
117
121
121
123
127
133
135
135
133
135
137
137
135
131
131
131
131
131
131
131
127
127
127
125
127
123
123
125
125
123
123
123
123
125
125
123
121
123
125
125
123
125
123
123
125
121
115
106
100
95
88
81
79
81
83
81
79
79
83
93
99
102
104
104
106
112
115
115
121
131
135
137
131
137
140
139
135
131
133
133
135
129
127
127
125
125
123
125
125
125
123
123
125
121
121
125
127
127
125
123
119
119
121
121
123
125
127
129
127
123
119
110
102
99
93
88
86
84
83
84
83
79
81
90
95
99
100
102
106
106
110
108
112
119
129
135
137
139
139
139
135
135
133
133
133
133
129
127
127
125
123
123
125
125
125
123
123
123
125
127
129
131
125
123
121
123
121
121
123
127
129
129
129
127
123
114
106
102
97
93
90
88
86
86
84
84
86
90
93
100
106
106
106
104
106
106
106
110
117
127
133
137
137
131
131
131
131
129
129
133
131
129
129
125
123
119
125
121
121
123
125
123
125
127
129
131
127
123
121
121
121
123
123
125
125
127
127
127
123
115
108
104
99
93
93
93
91
91
90
90
91
91
95
100
108
108
108
108
106
106
104
102
106
115
125
131
135
125
127
131
127
127
129
129
127
125
127
123
123
121
123
123
121
125
125
123
127
129
129
127
123
123
121
121
121
121
121
123
127
125
123
121
119
115
110
104
99
93
95
95
91
93
93
95
95
91
95
99
108
114
114
110
112
110
104
100
100
106
117
123
129
121
125
129
127
123
121
123
123
123
125
121
123
121
123
123
125
123
125
125
125
125
125
125
119
121
121
123
123
121
119
123
125
121
121
123
121
121
114
108
100
95
95
91
91
91
93
93
95
90
93
97
104
110
114
112
112
110
106
104
100
102
110
117
123
127
127
125
123
123
121
117
117
119
117
119
121
119
121
123
125
119
119
121
127
127
123
123
121
123
121
121
121
119
119
121
121
121
121
123
123
123
117
110
104
99
97
95
93
93
93
93
91
91
93
95
102
102
106
108
108
108
110
106
102
102
106
108
117
131
127
123
127
123
119
115
115
114
114
115
117
117
119
121
121
121
119
121
123
123
125
123
123
125
123
123
119
119
117
119
121
121
121
125
123
123
119
115
106
102
99
93
93
93
90
91
91
93
93
99
99
102
104
104
106
108
110
104
104
104
104
106
108
133
129
125
131
127
123
119
117
115
114
114
112
117
117
117
117
117
119
119
121
121
121
121
123
123
123
123
121
119
119
125
127
125
121
121
119
123
125
119
110
104
102
97
91
91
93
93
93
91
91
95
99
100
106
108
108
108
108
100
99
104
104
102
104
133
131
131
131
129
127
125
123
121
117
117
115
115
114
115
115
114
117
114
115
117
119
121
123
123
123
125
121
117
121
125
127
125
121
119
119
121
127
123
115
108
106
100
95
91
93
95
95
95
97
97
100
102
108
110
108
108
106
100
97
100
102
99
100
135
135
135
131
127
129
129
127
127
123
121
117
115
115
117
119
112
114
112
114
115
117
119
121
123
123
121
119
121
123
121
121
119
115
117
119
123
125
125
121
115
110
104
99
99
99
97
97
97
97
95
100
104
112
112
114
110
108
104
100
100
102
99
95
133
133
131
131
133
131
129
129
133
129
125
123
123
121
121
119
115
114
115
114
112
114
115
115
117
117
117
119
117
117
115
115
114
114
115
119
123
127
127
125
119
115
110
102
102
102
99
99
97
95
99
100
106
114
117
119
119
114
108
106
104
104
99
95
135
131
131
133
131
129
129
127
129
131
129
125
123
125
125
123
115
117
119
117
115
114
112
110
110
110
112
110
110
110
108
108
112
114
117
121
125
129
127
127
121
117
112
106
104
102
102
100
99
100
104
104
110
114
117
121
125
123
117
112
110
108
106
100
135
135
133
135
131
131
129
127
123
129
127
125
125
127
127
123
121
121
121
119
119
115
108
108
110
110
110
106
102
102
102
102
106
114
119
123
125
123
125
125
121
117
112
108
104
100
102
102
100
104
106
108
110
114
117
117
125
127
125
119
115
115
112
108
135
131
131
129
127
129
125
129
127
125
127
127
127
125
127
125
125
123
127
125
121
119
114
110
112
112
112
106
99
102
102
100
104
110
115
119
119
119
121
123
121
119
115
112
106
106
104
100
102
104
104
108
110
112
112
115
121
129
127
123
119
119
117
114
127
129
131
125
127
125
127
129
129
127
127
127
125
123
125
125
123
121
127
125
121
119
117
115
112
112
112
110
106
106
104
106
106
106
108
112
114
114
117
117
117
115
114
112
108
106
104
104
102
102
104
108
108
112
112
114
115
121
125
125
123
119
119
117
121
125
127
125
125
125
127
127
127
127
127
127
125
127
127
123
121
121
123
123
119
119
117
114
114
114
114
114
112
110
110
108
108
106
104
106
110
114
114
115
117
114
114
114
112
110
110
108
108
102
104
106
108
110
114
110
114
114
117
121
123
123
123
119
