P2
# 40 of 608 Angiograms
64 64
255
121
114
104
99
99
100
99
100
93
86
81
84
90
91
95
100
104
110
117
125
131
135
137
137
135
137
139
137
135
139
139
137
139
140
137
135
137
137
133
133
129
129
127
131
131
129
131
129
131
131
127
123
127
131
129
131
131
133
131
135
135
131
129
131
127
121
112
104
102
102
100
99
97
91
88
90
91
93
97
97
100
106
108
115
123
131
135
135
135
137
137
135
135
139
140
139
140
139
137
135
137
140
135
133
131
131
129
129
127
125
127
127
127
129
127
127
131
133
133
133
131
133
135
135
133
135
133
129
133
127
119
110
106
104
102
99
97
97
91
91
93
95
97
93
93
99
102
108
115
125
131
131
133
133
133
133
133
135
139
142
140
140
139
139
137
139
135
131
133
133
135
135
129
127
127
123
123
125
127
131
133
135
133
131
131
133
135
135
133
135
137
129
139
135
131
121
114
106
104
102
100
97
91
93
90
91
93
93
90
93
97
102
106
115
127
131
133
133
135
133
133
133
137
140
139
140
139
139
135
137
133
131
133
133
135
135
131
129
127
123
121
119
123
129
131
131
131
129
131
131
131
133
133
133
133
131
139
139
139
133
125
117
112
108
104
100
97
99
91
91
91
95
95
91
93
95
100
108
115
125
129
131
133
133
133
135
135
137
139
139
137
135
133
133
131
135
133
129
135
135
133
129
125
123
119
117
121
125
127
127
131
129
131
131
131
131
133
131
129
127
137
140
140
139
133
127
121
115
110
106
104
100
97
93
93
91
93
93
91
95
95
102
108
115
123
129
133
131
129
133
135
137
139
137
135
133
135
131
127
133
133
127
131
129
129
127
125
125
121
121
123
123
127
127
129
129
131
131
127
125
127
131
131
127
135
139
142
140
137
133
129
127
119
112
106
102
99
95
93
93
91
88
91
93
97
99
104
108
115
125
129
131
131
133
135
135
135
137
135
133
135
133
131
131
133
131
131
131
131
131
129
127
123
119
125
127
127
129
131
131
131
131
127
127
127
127
131
131
131
135
140
137
135
135
137
137
131
123
114
106
99
97
91
93
93
90
90
90
93
97
100
102
108
119
127
129
129
129
129
131
133
135
133
131
131
133
135
135
135
133
131
131
133
133
129
129
127
125
125
129
129
133
131
127
125
129
129
131
129
127
131
133
131
133
139
139
139
139
139
140
140
135
123
115
106
100
93
93
95
95
95
93
93
93
97
100
104
112
121
125
125
125
125
125
129
129
129
127
129
131
133
137
135
135
131
129
129
133
131
129
127
127
129
133
133
133
133
127
125
127
129
129
129
129
129
131
133
133
137
140
139
139
137
137
140
140
133
125
115
106
97
93
99
99
99
99
95
95
95
97
102
106
114
119
123
123
121
125
127
127
125
123
125
127
129
133
137
135
131
131
131
131
131
131
129
131
133
137
133
131
131
129
129
127
129
129
131
129
129
127
133
133
137
140
139
139
137
137
137
139
137
133
125
114
104
97
99
100
102
100
95
97
97
99
100
102
108
114
121
125
123
121
123
125
125
125
129
129
127
129
133
133
133
133
133
135
133
135
133
133
135
137
135
133
133
131
135
131
129
131
133
133
131
129
127
131
135
135
135
137
135
133
137
139
139
135
131
125
114
102
100
104
104
102
97
97
97
100
100
100
104
112
121
125
125
123
125
125
125
127
131
129
127
129
129
127
131
135
133
139
133
133
135
137
137
139
137
135
131
133
133
127
127
129
133
133
131
129
127
129
131
135
137
137
131
131
139
140
139
135
135
131
121
112
104
104
104
100
99
97
99
100
99
100
100
108
117
123
125
127
129
129
129
127
127
129
131
129
129
127
131
137
135
137
133
133
133
135
137
137
135
135
135
131
131
127
123
127
131
133
131
129
127
131
131
137
137
137
133
135
139
140
140
139
137
135
131
121
114
106
104
102
102
100
97
97
95
97
100
104
114
121
127
131
129
133
131
129
129
127
127
129
125
125
131
131
133
133
133
131
131
135
139
135
135
135
137
131
125
123
119
125
127
129
129
129
125
127
129
133
135
139
137
137
140
144
144
144
140
139
137
131
123
115
108
106
106
102
100
99
99
99
104
108
112
119
127
131
131
131
129
133
131
129
127
125
125
129
127
127
129
131
133
131
131
133
135
135
137
133
135
133
129
127
121
123
123
125
127
129
125
125
127
129
133
137
135
135
139
142
144
144
142
142
140
137
129
125
117
110
110
104
104
102
102
102
104
108
112
119
125
131
131
127
127
131
133
135
131
127
127
125
123
125
127
129
133
133
133
129
131
131
131
129
131
129
127
129
125
123
121
121
125
131
123
125
127
129
131
133
133
131
133
137
140
140
140
142
139
137
133
129
123
114
110
104
104
104
102
104
106
108
115
117
123
129
131
129
129
129
131
133
131
129
127
123
121
121
125
127
129
129
129
129
131
127
127
127
129
127
123
125
123
121
117
119
119
125
127
127
127
127
129
133
133
129
133
137
137
137
139
140
139
135
131
131
123
117
112
106
108
108
100
100
106
112
115
119
123
129
133
129
129
131
133
131
131
131
125
123
119
119
121
123
123
123
125
127
129
123
123
127
125
123
119
121
119
119
117
117
117
121
127
125
125
125
129
131
131
129
133
137
139
139
137
137
135
129
129
131
125
123
117
110
110
108
102
104
110
115
117
121
127
129
133
131
127
127
133
131
127
125
121
123
121
117
117
119
119
119
121
123
121
119
119
123
121
119
115
117
119
119
117
117
115
115
121
119
119
125
129
129
125
127
133
135
135
133
133
133
129
127
127
129
131
129
123
115
108
108
106
110
114
119
119
123
125
129
127
125
127
127
129
125
121
119
115
117
117
115
117
115
119
117
119
121
121
123
125
127
125
123
117
117
119
121
119
117
117
115
117
119
121
121
121
121
121
121
125
129
129
125
125
127
127
125
125
127
129
127
127
123
112
106
110
112
115
119
119
117
117
121
121
123
125
125
123
123
121
119
115
115
117
121
121
121
117
115
121
121
121
125
129
133
131
127
123
121
123
125
121
119
119
121
119
119
119
117
115
117
117
117
119
121
121
121
123
125
125
123
125
129
127
131
131
129
121
110
106
110
115
117
115
112
108
110
115
119
119
119
117
119
123
119
117
119
123
123
123
123
119
121
121
119
121
123
131
133
133
127
123
125
125
123
119
121
123
125
119
123
121
117
117
121
121
119
119
119
119
125
129
127
125
123
127
129
129
133
135
133
127
115
110
114
114
115
114
110
110
104
110
114
115
114
112
114
119
119
119
121
119
117
119
121
121
119
117
119
119
121
125
127
129
125
123
125
125
121
119
121
127
129
123
123
119
119
119
123
123
121
123
125
125
129
133
125
125
127
131
131
133
137
137
135
129
119
114
110
114
115
115
112
112
112
114
119
119
119
117
114
117
119
121
121
119
112
114
115
117
115
114
115
117
119
117
117
119
121
123
121
121
121
119
119
121
125
121
121
121
121
123
127
125
121
125
123
129
133
129
125
129
129
131
135
137
135
135
135
129
121
114
110
112
119
121
121
121
121
121
125
127
125
123
121
119
121
119
119
117
115
114
114
115
115
112
112
112
115
114
110
114
117
119
117
117
115
114
117
119
119
117
121
121
121
123
127
123
121
123
125
129
127
123
125
131
133
133
137
137
135
135
135
133
123
114
110
112
115
121
123
125
125
125
127
133
133
129
125
119
119
123
121
121
117
117
115
114
115
117
117
117
115
114
110
112
114
114
114
114
114
112
115
117
121
117
121
123
119
121
123
121
119
123
129
129
125
125
127
135
135
135
135
135
137
133
135
133
127
117
114
112
114
114
117
123
125
127
129
129
131
131
125
121
121
125
125
121
119
119
119
121
119
121
119
117
115
112
112
114
114
114
115
117
117
115
119
123
125
117
119
119
119
117
121
125
123
127
129
129
127
127
131
135
135
135
137
135
137
135
137
133
129
123
117
115
112
112
112
117
125
127
129
127
125
129
127
125
127
127
127
123
121
123
123
123
123
123
121
121
121
119
117
115
117
117
115
117
119
123
125
125
125
117
117
119
117
121
121
119
121
125
129
129
125
129
131
135
135
135
137
137
137
137
135
135
131
127
119
114
112
114
114
115
121
125
127
127
125
127
129
129
127
127
125
121
119
123
121
121
125
125
127
129
127
127
123
123
121
119
117
117
121
127
127
127
127
117
119
121
121
121
121
121
119
123
127
127
125
123
127
133
135
135
139
139
140
139
137
133
133
131
125
112
110
112
114
115
117
121
125
125
125
129
131
127
127
125
119
117
119
119
119
123
127
129
131
133
131
131
127
127
125
117
115
119
123
127
127
129
131
119
117
117
117
117
119
121
121
125
125
125
127
125
129
131
133
133
133
135
137
137
133
133
133
131
129
119
112
112
114
115
117
121
127
127
125
127
129
121
123
121
117
117
119
121
121
127
125
125
127
127
129
131
129
129
125
117
115
119
125
125
127
127
129
121
119
119
119
115
117
119
119
123
125
123
125
125
129
129
131
133
133
137
135
135
135
133
133
133
131
123
112
108
114
119
121
121
123
127
125
123
123
119
123
121
119
119
119
123
123
125
123
119
125
127
127
129
129
127
125
121
119
119
123
123
123
123
125
121
119
119
117
115
115
119
121
123
125
125
127
127
131
129
131
133
137
137
139
135
131
133
135
133
133
127
117
110
112
117
121
123
123
123
123
125
121
123
121
119
117
119
121
125
125
125
125
121
123
125
127
131
127
129
127
121
117
119
121
119
119
119
121
121
119
119
121
119
117
119
119
123
125
125
127
129
131
131
131
135
139
137
137
133
131
135
133
135
135
129
125
115
114
115
119
121
119
117
121
123
123
123
125
123
121
119
119
121
121
123
125
123
125
121
125
129
131
131
129
121
117
117
117
119
117
119
123
117
117
119
119
117
119
121
123
123
125
123
125
129
133
131
131
137
137
135
133
131
131
131
131
133
137
135
131
123
115
114
121
121
119
115
114
117
119
123
125
129
127
123
119
121
119
119
119
121
125
123
123
127
129
129
127
121
119
119
119
119
117
117
121
115
115
119
121
119
119
121
125
127
127
125
125
129
133
133
135
137
135
133
131
133
131
129
129
133
139
135
135
131
121
117
119
121
121
117
112
110
115
117
121
129
129
129
127
123
119
117
115
119
123
123
123
123
127
125
125
121
121
119
121
121
119
119
119
115
117
115
115
119
121
119
121
127
125
123
125
127
133
133
135
135
133
131
131
131
129
129
131
135
137
135
135
135
125
121
117
121
121
117
114
112
115
115
119
127
131
133
129
127
125
121
117
119
123
125
121
121
123
123
127
123
121
123
123
123
121
119
117
115
114
115
119
121
121
121
121
127
127
125
125
127
129
131
135
131
131
131
133
133
129
133
135
137
137
135
135
133
131
123
121
119
119
119
117
112
110
112
115
121
129
131
133
133
127
125
125
123
127
127
127
123
123
125
127
123
123
121
117
119
117
117
115
115
114
115
121
121
121
123
121
125
125
123
125
125
129
129
131
129
129
129
131
133
131
133
135
135
133
137
135
135
133
125
121
117
119
117
114
108
102
104
108
115
123
129
135
135
131
131
129
125
127
133
135
131
129
129
129
127
123
121
119
119
114
115
115
117
114
115
121
119
123
123
119
125
125
125
125
127
131
133
133
127
125
129
131
133
135
135
135
135
133
135
137
137
137
131
121
117
115
114
108
102
100
99
102
110
117
125
131
133
131
133
131
131
131
137
140
139
135
133
131
129
127
125
123
117
114
114
115
119
114
115
117
117
123
123
121
127
129
125
125
127
131
133
135
129
125
127
129
133
135
135
133
135
135
135
137
135
135
135
127
119
117
112
108
104
100
97
99
104
114
119
125
129
133
133
131
129
131
135
139
137
137
137
135
135
135
131
125
119
115
114
114
119
117
117
117
119
119
125
125
129
131
129
129
129
133
133
135
131
129
129
131
133
137
135
131
133
135
135
133
135
135
135
133
125
119
112
108
106
104
102
99
100
108
114
119
125
133
133
131
131
131
131
137
139
139
137
137
137
135
131
129
123
119
115
114
119
117
117
119
119
123
127
125
125
127
129
129
129
131
129
129
129
133
133
131
133
137
135
129
131
135
135
137
139
140
139
135
131
121
112
110
106
106
104
100
99
104
110
114
119
127
133
133
131
131
133
133
137
137
135
137
139
137
135
133
131
125
119
115
117
117
115
117
121
123
129
129
125
127
127
127
133
131
127
127
129
133
131
131
133
131
131
129
131
131
133
133
135
137
137
135
133
127
117
110
108
108
106
104
100
104
110
112
115
119
127
133
133
135
135
133
133
131
133
137
137
137
139
133
131
127
119
117
117
117
117
121
121
123
123
127
125
131
129
129
131
129
127
127
129
131
133
131
133
131
129
131
135
131
129
133
135
133
135
133
135
131
121
114
110
108
106
106
102
102
106
110
114
114
119
125
131
131
131
131
131
131
129
133
135
133
133
133
129
123
121
123
117
115
115
121
121
121
123
127
129
131
133
129
129
129
129
127
127
129
131
131
133
131
131
135
137
133
133
135
135
135
135
135
135
135
127
121
112
108
106
106
106
100
100
102
106
110
114
119
125
129
129
127
127
131
131
133
133
131
129
129
125
125
125
123
117
115
117
119
123
125
125
129
129
131
131
127
125
127
125
125
127
131
131
131
133
133
129
131
137
137
137
133
131
135
137
135
135
137
137
127
121
112
106
104
102
100
100
102
106
106
112
114
121
125
129
131
129
129
131
133
129
127
125
127
127
125
125
125
119
119
117
119
123
125
125
125
127
129
129
127
129
125
125
127
127
127
131
129
129
131
131
133
137
135
135
133
131
133
137
139
140
139
140
135
127
119
110
106
102
100
100
104
104
106
108
112
115
119
123
129
131
131
131
131
127
123
123
125
127
129
127
125
119
121
119
115
121
123
121
123
123
123
125
127
129
125
125
125
125
125
127
127
125
125
127
133
137
135
137
135
133
135
137
140
142
140
139
139
135
125
117
110
108
102
102
102
102
102
104
108
110
112
117
123
127
129
129
127
125
121
121
119
125
125
127
125
123
123
119
121
121
121
121
123
123
123
123
125
127
123
121
125
123
123
127
127
123
123
127
131
133
133
137
137
133
135
137
139
140
137
137
139
135
131
125
119
112
106
102
102
100
99
100
102
106
106
112
117
121
125
127
125
123
121
121
121
123
125
125
129
125
121
121
123
125
119
121
123
125
127
125
125
129
127
129
125
123
123
127
125
125
123
127
127
131
135
137
135
133
137
137
135
135
137
135
135
135
133
133
127
119
112
106
102
99
97
97
99
102
102
106
114
119
125
129
129
129
125
123
121
123
125
121
127
123
123
121
123
123
121
121
121
123
123
121
125
129
127
129
127
125
123
121
123
125
123
127
129
133
133
133
135
137
135
131
129
131
137
137
133
137
137
133
135
129
119
108
102
100
97
97
97
97
100
104
112
115
121
125
129
129
131
127
123
125
125
123
125
125
121
119
121
121
121
123
119
121
121
119
125
125
125
125
127
123
125
123
123
123
123
125
127
129
129
133
135
135
133
133
131
133
137
137
133
133
135
137
137
133
127
117
108
104
99
99
97
93
100
104
108
112
117
121
127
133
135
133
127
125
121
121
125
127
123
123
127
123
121
121
121
123
123
123
123
123
123
123
125
125
123
123
123
125
123
125
127
129
127
133
135
133
133
133
137
135
135
135
135
133
135
139
137
135
133
127
119
112
106
100
99
95
95
99
102
108
114
117
123
131
135
133
129
127
125
123
127
121
119
123
127
127
125
123
123
123
125
123
123
125
121
121
127
127
127
123
121
121
117
121
121
123
125
129
131
133
133
133
135
137
133
133
133
135
137
135
135
133
135
133
127
119
112
106
100
99
97
99
100
104
110
112
119
127
133
133
133
131
127
125
125
125
119
123
123
123
123
123
121
123
123
121
123
125
125
123
123
125
127
123
119
117
117
119
121
125
125
125
127
129
133
135
133
137
137
133
133
137
139
139
135
135
137
139
135
129
119
112
108
104
99
97
100
100
106
108
112
121
129
131
133
135
129
123
123
123
123
121
121
121
119
121
119
119
123
121
123
123
127
125
121
121
125
123
119
121
121
117
121
125
127
125
127
127
129
133
131
135
135
135
137
135
137
137
137
135
139
139
137
133
127
121
115
108
102
99
100
100
100
106
110
115
123
131
135
137
131
125
125
123
123
119
121
119
119
121
119
121
123
121
123
127
127
127
125
123
123
121
119
121
119
117
121
123
125
123
125
125
127
131
133
135
137
135
137
135
137
139
139
137
135
137
137
135
131
127
121
114
106
102
100
99
100
104
106
112
119
125
131
135
133
129
131
123
121
117
119
119
119
117
123
123
125
125
123
125
125
123
123
123
121
119
119
121
121
119
121
123
123
125
127
123
123
127
129
133
137
133
135
133
135
137
140
139
137
137
139
139
135
133
129
117
110
102
102
99
99
100
102
106
112
121
127
133
135
133
133
123
121
119
119
121
119
115
117
121
123
129
127
127
125
121
121
125
123
121
119
121
123
125
121
121
123
125
127
123
123
125
127
129
133
133
137
139
137
135
139
137
135
133
137
140
137
135
133
125
114
106
100
99
99
95
99
104
106
112
121
129
135
137
135
121
121
121
121
119
119
119
119
121
123
127
129
127
127
125
127
127
127
127
123
123
123
123
123
123
125
125
125
127
127
129
129
129
129
135
137
139
139
137
139
139
137
137
137
139
137
137
135
131
121
112
106
102
97
95
97
102
104
108
114
125
133
137
133
121
121
121
119
121
121
121
123
125
125
125
125
127
127
127
129
129
129
127
123
125
123
119
125
125
123
125
125
125
125
127
129
127
127
129
133
135
137
137
137
140
137
137
137
139
140
139
137
135
125
115
110
106
99
97
97
99
100
104
112
117
129
135
135
121
121
121
119
123
121
123
123
125
125
125
123
125
127
127
129
131
129
127
127
123
125
125
127
127
125
125
125
125
125
127
129
127
125
127
129
131
137
137
139
135
133
135
137
139
139
137
137
137
129
119
112
106
100
97
97
99
100
100
104
112
121
129
133
119
119
119
121
123
125
121
123
123
125
125
125
127
129
131
131
133
133
129
131
127
129
129
127
125
125
125
125
125
127
129
127
125
127
127
131
129
133
135
135
135
133
133
133
137
139
139
139
139
133
123
114
108
102
99
95
95
97
100
104
108
114
123
127
