P2
# 45 of 608 Angiograms
64 64
255
133
135
131
129
133
129
129
129
125
127
131
129
129
129
129
127
129
125
129
129
127
129
127
127
129
127
125
125
123
123
121
119
121
123
119
121
123
121
121
119
119
123
125
127
135
137
135
133
133
131
133
133
137
135
131
129
133
133
133
137
135
135
135
137
137
133
129
127
129
129
127
125
127
127
127
125
125
129
129
127
127
127
127
129
129
131
129
125
125
123
123
123
123
121
119
119
123
121
123
119
121
121
123
121
125
127
129
133
137
139
140
137
135
137
137
133
137
135
131
131
131
133
133
135
137
139
137
135
133
133
127
127
129
127
125
125
125
127
127
125
129
129
129
125
123
123
125
127
127
127
125
123
123
125
123
125
121
121
117
115
117
121
121
117
119
119
121
125
127
129
131
137
137
140
142
140
135
133
133
131
135
135
133
135
131
133
133
133
131
133
133
131
129
129
125
127
127
127
127
125
125
127
127
127
129
131
129
125
121
123
125
123
121
119
121
121
123
121
121
121
123
123
119
115
119
121
121
121
125
127
127
129
133
133
135
139
139
139
137
137
131
129
133
131
133
137
135
137
131
131
133
133
133
131
135
135
123
123
121
125
123
125
123
123
125
127
127
127
127
129
127
123
121
121
119
117
117
119
121
119
121
123
123
123
121
123
121
119
123
121
123
127
127
129
131
131
133
131
131
137
140
142
139
133
131
129
133
133
133
137
137
135
133
135
137
133
131
133
135
135
123
123
121
125
125
125
125
125
121
123
127
129
131
129
127
121
121
117
114
114
114
115
119
117
119
123
123
121
123
125
121
123
123
125
127
129
131
129
129
129
131
131
131
133
139
140
142
137
133
133
133
133
133
133
135
135
135
135
137
135
135
131
133
131
123
123
121
125
125
125
127
125
125
123
127
129
127
125
121
117
114
110
108
106
110
112
117
117
121
123
119
123
127
125
121
121
125
125
129
127
127
133
129
129
131
131
135
137
135
135
135
135
135
137
131
133
133
135
135
139
137
137
137
137
135
129
133
133
121
119
119
123
123
123
123
125
125
121
123
119
117
115
114
112
108
102
102
104
106
108
112
115
117
123
125
129
127
125
127
125
125
125
125
127
129
135
129
131
131
131
135
137
135
137
135
137
137
137
133
131
133
135
137
137
139
137
135
137
137
133
135
135
110
112
114
114
115
117
119
117
114
114
112
112
110
106
104
104
100
99
99
99
102
104
106
110
115
119
125
127
125
125
127
129
125
127
129
133
133
133
131
131
135
133
133
137
135
133
133
137
137
140
135
133
131
133
135
137
140
139
137
139
139
135
135
137
102
104
104
104
106
108
110
108
108
106
106
106
104
102
102
104
104
100
99
99
99
100
102
104
108
117
123
127
127
127
123
125
131
133
135
137
137
135
133
133
135
137
135
135
135
137
137
137
137
137
133
133
129
131
133
139
139
139
139
140
137
137
137
140
95
95
99
97
95
97
99
102
100
99
99
99
99
99
100
100
100
100
100
100
99
100
99
100
102
112
121
127
127
131
127
129
133
133
131
135
137
135
135
133
133
135
135
133
135
139
142
140
140
135
135
133
129
131
133
135
140
140
140
142
137
139
139
140
93
93
95
93
93
93
93
99
99
95
93
93
95
95
99
97
97
97
99
99
97
97
99
99
102
110
117
123
127
131
127
127
135
133
129
131
135
135
135
135
133
135
137
139
137
137
140
142
140
137
137
133
131
135
135
135
140
140
142
142
139
140
139
140
90
90
90
93
93
88
91
95
91
90
91
90
91
93
93
95
95
95
97
93
95
93
97
99
102
108
114
119
123
125
125
127
135
131
129
133
137
135
133
135
135
137
139
139
139
139
139
139
139
137
135
133
135
137
133
133
139
139
140
140
142
142
139
139
88
86
88
90
88
88
88
86
86
86
86
90
88
90
90
91
93
93
95
95
97
95
99
100
106
110
112
115
121
127
127
129
133
133
131
135
137
135
135
137
137
139
139
142
139
140
140
135
135
135
135
137
137
135
135
137
139
137
139
139
140
137
133
135
88
84
84
86
86
84
84
84
84
84
86
88
86
86
90
88
90
93
95
97
99
99
100
100
104
110
110
115
121
125
129
131
133
135
133
133
139
139
137
135
137
139
140
144
140
142
140
137
135
137
139
135
135
133
135
137
135
135
139
137
137
131
133
137
86
90
90
88
84
84
84
88
86
90
88
88
88
86
86
86
90
95
95
97
99
99
104
110
108
108
112
115
121
125
129
131
133
133
135
133
133
135
139
135
137
140
142
140
140
140
139
139
137
139
137
137
137
135
137
137
135
135
133
135
135
135
135
137
95
95
93
91
86
88
88
90
88
88
91
88
88
90
86
88
93
99
99
97
97
99
106
108
110
110
112
114
121
125
125
125
129
133
133
135
135
137
139
137
137
139
139
139
139
139
139
139
140
139
135
133
133
137
139
137
135
135
131
133
137
133
133
133
102
102
102
99
95
93
93
93
91
93
95
91
91
90
90
91
91
95
95
97
99
102
104
106
110
112
112
114
115
117
119
123
127
131
131
133
137
137
139
139
137
135
139
135
135
135
133
133
135
137
135
133
133
137
137
137
137
137
131
133
137
135
133
133
114
112
112
112
108
106
104
104
102
102
100
99
97
95
95
93
90
93
91
95
97
104
104
104
106
110
114
114
114
115
121
123
123
129
131
133
133
133
133
137
137
135
137
131
133
133
131
131
133
131
131
135
135
137
135
137
137
137
137
135
135
137
135
131
125
125
123
123
119
119
119
117
114
110
108
108
106
106
106
102
99
97
99
97
100
104
106
106
106
108
112
114
114
114
117
119
119
127
131
133
133
131
129
133
133
133
133
133
133
131
131
131
131
133
129
131
133
135
133
131
133
133
135
135
135
135
133
129
133
135
131
129
129
127
127
125
123
123
121
119
115
115
114
112
108
108
106
104
106
108
110
108
104
106
110
106
106
108
112
119
121
127
127
129
129
131
129
133
131
129
129
131
131
129
129
133
129
127
127
127
127
129
131
131
131
129
129
129
129
131
129
127
129
133
133
133
129
131
133
133
131
129
127
125
123
121
121
121
119
117
117
115
115
117
115
114
106
106
108
102
102
102
108
114
119
123
123
123
125
127
125
127
129
127
127
129
127
127
127
131
129
123
123
125
125
125
125
123
125
125
123
125
127
129
127
125
131
135
133
131
133
133
135
137
133
133
133
131
131
129
129
129
129
127
125
125
125
123
123
121
115
112
110
106
104
104
110
117
119
119
119
119
123
123
123
125
131
127
125
125
127
127
123
125
125
121
121
123
123
125
121
119
119
121
119
119
121
121
121
117
131
131
131
129
131
133
133
137
137
133
135
135
131
131
131
133
131
127
127
127
129
127
129
127
125
119
115
112
108
106
110
115
119
119
121
119
121
119
123
125
125
125
125
127
127
125
125
125
125
123
125
125
125
123
119
119
115
119
119
117
115
115
117
119
133
135
135
131
133
131
137
135
133
135
135
135
131
133
137
137
131
129
125
129
135
133
131
131
131
127
125
119
115
112
110
112
115
119
119
121
119
119
123
121
121
125
123
125
127
127
129
127
131
133
135
131
129
125
121
121
121
119
121
121
119
117
119
121
131
133
133
131
131
131
135
135
133
135
135
133
131
133
137
135
131
131
129
131
135
137
131
133
131
133
129
123
119
117
114
110
110
114
117
119
117
119
121
119
117
119
119
123
129
131
131
135
135
139
139
133
133
129
127
125
125
123
123
123
125
123
119
119
127
127
129
131
131
131
131
133
133
131
131
131
133
135
139
135
133
129
131
129
131
135
135
133
131
133
129
125
123
125
121
115
112
114
115
114
112
112
115
114
112
115
117
117
123
129
133
135
135
139
139
133
131
129
129
127
125
123
123
123
123
123
119
119
125
129
129
127
131
131
135
133
131
131
133
131
133
137
139
137
133
129
131
129
129
133
133
131
133
133
131
127
131
131
129
121
119
117
114
110
108
104
112
112
108
110
110
112
115
121
127
131
131
133
135
131
129
125
125
127
125
127
127
123
121
125
129
123
125
127
131
131
133
133
135
135
135
135
133
131
129
135
135
135
131
129
127
129
131
133
133
131
129
133
135
131
131
133
133
127
121
119
115
112
108
106
108
108
106
106
104
106
110
115
119
123
127
131
131
133
131
125
129
129
127
129
127
125
125
125
125
123
123
125
129
131
133
133
131
135
135
135
131
133
135
135
133
131
129
129
127
129
133
135
135
133
133
135
135
129
131
137
135
127
127
125
121
117
110
106
106
106
104
102
100
100
104
108
110
115
121
125
129
129
129
127
129
129
127
129
127
129
129
123
121
123
127
127
127
133
137
135
131
133
129
129
129
133
131
129
127
129
129
131
129
131
129
129
131
135
135
135
135
131
133
137
133
129
129
131
131
125
115
108
108
102
99
95
95
95
95
99
100
104
112
119
127
129
129
127
127
129
131
127
125
129
127
125
121
123
127
131
129
133
135
133
131
127
127
127
127
131
131
125
125
125
129
131
129
129
125
131
131
133
135
137
133
131
133
133
133
129
131
131
131
129
119
112
106
100
97
90
90
88
86
90
91
91
97
106
114
119
123
123
127
129
127
123
123
123
123
123
121
123
127
129
129
129
131
133
129
127
129
129
129
129
131
129
129
127
129
129
129
127
127
129
129
129
133
137
133
129
129
131
133
129
129
129
127
129
123
119
110
104
99
91
90
84
79
81
83
86
86
91
100
108
114
117
121
121
123
123
121
119
117
119
119
119
127
129
131
129
129
131
127
127
127
127
129
129
129
129
129
127
125
123
125
127
125
129
129
131
131
133
131
129
129
131
129
127
125
127
129
127
127
123
115
110
102
97
90
84
78
76
78
81
83
83
86
95
102
108
112
112
112
112
114
114
115
119
121
125
131
129
131
127
129
127
127
125
123
127
127
127
125
125
123
121
123
123
125
123
125
125
127
127
129
129
129
127
127
125
125
123
123
129
131
131
131
129
121
114
106
100
95
90
84
79
76
81
84
83
84
84
91
99
99
97
99
99
102
106
110
115
119
127
131
131
133
129
127
123
125
123
121
125
129
125
121
123
123
121
121
123
125
123
119
121
125
127
127
129
129
127
129
127
127
123
123
129
129
129
129
129
125
117
110
104
99
95
88
84
84
83
83
86
84
83
84
93
95
93
91
91
97
97
100
108
114
121
129
131
133
129
125
123
125
121
121
125
127
123
121
119
121
119
119
121
121
119
121
121
123
125
125
127
129
127
129
129
129
125
125
127
127
129
127
125
125
119
114
106
102
99
91
90
88
88
88
86
84
84
83
90
95
95
95
95
99
95
97
100
108
114
127
127
127
127
123
125
123
121
121
125
127
123
121
119
119
119
121
119
117
121
119
119
121
121
123
129
129
129
127
129
129
129
127
127
125
127
127
125
125
121
115
110
104
102
97
91
88
88
91
88
86
86
86
90
95
97
97
97
99
95
93
99
102
108
119
119
121
123
121
125
125
123
123
127
127
123
127
127
121
121
123
117
115
119
119
117
119
119
121
125
127
129
125
125
127
131
131
129
127
127
127
125
125
123
119
112
108
106
100
93
91
90
90
86
88
90
88
90
91
95
99
104
106
104
102
104
102
104
115
117
119
123
123
123
125
123
125
125
125
125
127
129
121
123
123
117
117
119
117
115
117
119
121
123
125
127
127
127
129
131
129
127
129
127
131
131
127
125
121
114
108
106
100
95
90
91
90
88
90
86
88
84
88
93
99
106
110
112
110
106
106
106
119
121
121
121
121
121
119
119
123
119
121
121
121
121
119
117
121
117
119
123
121
117
119
119
121
121
121
125
127
125
127
129
129
125
125
125
127
127
127
129
123
115
110
108
100
97
91
91
91
90
86
84
86
83
84
90
95
102
106
110
108
108
106
104
123
119
123
121
121
121
119
119
119
115
115
114
114
115
115
112
115
117
119
121
123
123
121
119
121
121
121
123
127
127
123
127
129
123
123
125
125
125
127
123
119
115
112
108
100
97
91
90
90
86
86
86
86
84
86
88
93
97
100
104
104
102
102
106
123
123
127
127
127
125
123
121
119
119
117
114
112
112
110
110
114
114
117
117
123
123
121
119
123
121
127
125
125
125
125
125
123
125
127
125
123
125
121
117
117
114
114
110
100
95
93
90
90
88
86
86
84
84
90
95
95
95
102
104
100
99
100
100
123
125
131
131
127
129
129
127
125
127
125
121
119
115
115
112
117
110
114
115
114
117
119
119
123
123
123
127
125
123
123
123
121
123
125
125
125
121
115
114
117
117
119
112
102
97
93
90
90
90
90
91
90
88
90
95
97
99
102
104
102
100
99
100
123
123
127
129
129
129
131
131
129
131
129
127
125
123
119
117
119
114
112
112
110
112
114
117
119
117
117
117
119
119
119
119
121
119
119
121
119
114
108
112
117
117
119
115
108
100
95
93
93
91
91
91
91
90
91
93
95
99
104
106
106
102
99
100
127
123
123
127
127
127
129
129
131
129
129
129
127
127
125
121
119
117
117
114
115
112
112
112
117
114
114
114
114
114
114
114
117
114
112
112
108
108
108
110
119
119
117
117
114
104
99
97
93
90
90
91
91
91
95
93
95
97
102
106
106
104
99
99
127
125
127
129
127
129
129
129
127
127
129
129
129
127
127
123
123
121
121
119
117
115
115
114
115
114
112
112
110
106
108
112
110
106
104
102
102
106
112
112
117
119
119
119
115
112
102
97
91
90
90
91
93
93
95
95
97
97
99
108
112
104
102
104
129
129
131
135
137
133
131
127
127
125
131
131
131
129
125
127
129
127
129
125
125
121
119
119
117
115
114
110
110
106
108
108
102
100
100
102
102
104
112
114
115
115
117
117
117
114
108
100
95
93
93
93
93
95
97
95
95
99
99
104
108
104
104
110
127
129
129
131
135
135
133
129
127
125
127
131
129
127
125
125
129
127
129
127
123
123
123
123
117
114
110
110
108
106
104
102
100
99
97
102
104
106
108
110
110
110
112
114
114
110
106
99
95
91
91
91
91
93
95
97
95
100
102
102
102
106
110
114
123
127
131
129
129
133
131
127
125
123
123
123
125
121
123
123
123
125
127
125
125
123
121
121
117
114
112
114
112
108
108
104
102
102
104
106
106
104
102
106
112
108
104
104
104
106
104
99
95
93
91
91
93
93
91
95
93
97
102
100
100
102
108
112
125
127
131
133
131
131
131
127
125
123
123
123
123
119
119
123
125
125
123
123
125
125
121
119
119
115
114
115
112
110
112
112
112
112
110
110
112
110
108
108
108
106
108
104
104
104
104
102
102
100
99
97
97
93
95
95
95
99
97
95
99
97
100
110
129
127
127
131
135
131
129
127
129
129
127
127
123
121
119
123
125
125
121
121
123
125
123
119
117
114
112
115
114
115
117
115
115
115
115
115
115
114
115
112
112
112
112
112
110
110
112
112
112
108
104
102
100
99
102
102
100
100
97
97
99
97
97
102
127
129
127
131
131
129
127
125
127
129
127
127
125
123
121
127
125
123
123
123
119
121
119
123
115
114
114
115
117
121
119
119
121
119
119
117
117
117
115
115
119
119
121
117
117
119
119
119
121
117
114
106
104
102
104
102
100
102
100
100
99
97
93
95
125
125
127
127
125
127
123
125
125
123
125
121
121
121
121
125
129
125
123
121
119
117
115
117
114
114
115
115
121
125
121
121
121
119
121
119
119
119
115
115
117
123
125
123
123
123
121
121
123
123
119
115
110
106
106
104
100
104
106
102
95
91
91
93
123
123
125
125
125
123
121
123
123
121
121
121
123
121
123
123
123
121
123
121
117
114
114
114
114
115
115
119
121
121
115
119
119
117
119
119
117
115
114
117
119
123
125
125
125
123
123
127
125
127
121
119
117
112
108
106
104
106
108
104
95
86
88
91
119
121
121
123
119
119
117
119
117
117
119
121
123
119
123
123
125
121
125
121
115
110
110
110
114
115
114
121
117
117
115
115
117
115
117
117
115
115
117
119
121
121
125
127
123
123
123
125
127
125
123
123
121
117
112
110
106
106
108
104
97
88
88
90
115
117
117
117
119
119
119
115
115
119
121
123
123
123
123
125
127
123
123
125
119
114
110
108
112
115
119
121
119
117
115
115
115
117
117
115
114
117
117
119
121
125
127
129
127
127
123
123
125
123
127
125
123
119
117
114
110
106
108
106
99
91
91
90
112
112
115
119
119
119
117
115
119
121
123
125
123
125
125
129
129
121
123
123
123
119
112
110
114
119
125
121
121
117
117
117
115
115
117
115
115
117
117
119
123
127
127
129
129
129
125
127
125
127
129
129
125
125
127
123
117
112
110
104
97
91
88
90
112
114
115
117
121
123
119
123
123
121
121
123
123
127
127
127
129
119
121
123
121
121
115
114
117
121
125
123
119
119
121
119
117
117
115
114
114
114
117
119
121
125
125
127
125
123
123
127
127
131
127
125
123
125
127
125
123
115
112
106
99
95
90
88
114
115
114
117
121
121
123
123
121
119
119
119
119
125
125
125
125
121
119
121
119
121
121
119
121
121
123
121
121
119
119
115
114
114
115
114
112
114
117
117
119
123
125
127
121
121
121
125
129
131
129
123
125
125
125
127
125
121
114
110
102
99
93
88
119
119
115
119
123
121
121
119
119
119
121
121
121
127
127
121
119
123
123
117
117
121
123
119
119
119
117
117
115
119
115
115
115
115
115
117
115
115
115
115
119
123
123
119
119
119
123
121
123
127
127
123
127
125
127
125
125
125
123
115
110
104
99
88
114
114
114
117
119
119
119
123
119
117
119
119
119
121
123
119
117
119
123
121
115
115
115
117
117
117
119
119
115
117
117
115
117
117
115
115
115
117
119
115
121
121
123
121
117
119
119
121
123
125
127
125
125
127
129
125
129
131
131
125
117
110
102
91
114
114
117
121
121
121
119
121
119
117
119
117
117
119
121
119
119
119
121
121
121
117
117
117
117
117
119
117
117
119
117
114
114
115
115
112
115
117
117
117
121
123
123
123
119
117
123
125
127
129
129
129
127
123
127
129
127
131
135
133
125
117
106
95
112
114
119
121
123
121
115
119
121
117
115
115
117
117
119
119
119
119
123
125
123
121
119
119
121
119
119
121
121
119
121
119
114
115
115
114
117
117
117
121
121
121
121
121
119
119
125
127
129
129
131
127
127
127
129
133
133
135
137
135
131
123
110
99
