P2
# 47 of 608 Angiograms
64 64
255
86
86
87
87
84
84
81
74
67
68
67
68
68
67
68
67
59
60
70
79
89
98
100
100
101
101
101
101
101
101
101
101
100
103
103
101
100
94
94
100
101
98
100
100
105
107
107
109
107
105
103
105
107
107
109
103
105
105
105
103
107
107
110
109
86
87
89
89
84
84
79
71
66
66
66
64
67
67
68
61
56
66
71
76
86
100
101
103
105
107
105
103
103
103
105
107
105
105
105
103
100
98
100
103
101
100
100
103
107
107
107
109
109
107
105
107
107
107
107
103
105
105
105
105
105
107
107
109
86
86
84
87
86
81
78
71
67
66
64
64
66
70
66
59
63
71
74
78
86
101
103
107
109
109
109
109
110
110
109
110
109
109
107
105
101
98
100
103
101
101
103
105
109
109
109
109
109
109
107
107
105
105
105
103
105
103
103
103
103
105
105
109
84
86
84
86
86
84
78
73
68
67
63
66
66
64
60
59
67
73
74
78
87
103
107
110
114
116
116
112
112
110
107
109
109
109
110
110
103
101
101
103
105
105
103
105
107
107
105
109
110
109
105
101
101
101
101
103
103
101
100
101
103
101
103
105
86
86
84
86
86
84
78
74
68
67
63
64
63
60
56
63
70
73
73
78
89
103
109
112
118
120
118
116
112
112
109
107
109
110
112
110
107
105
105
107
107
107
101
103
105
105
107
110
110
110
107
103
101
101
100
100
101
100
100
103
103
101
101
101
89
87
87
86
86
82
79
74
70
67
63
61
57
54
57
66
70
73
74
78
89
103
109
116
120
120
118
116
116
114
110
110
110
110
114
114
110
107
105
103
105
105
103
101
103
105
109
110
112
110
107
107
103
101
101
100
100
98
98
101
103
101
98
96
91
89
87
86
84
82
79
76
70
66
61
56
52
56
61
66
68
73
74
76
91
103
109
118
118
118
118
114
114
112
110
112
112
110
114
112
110
110
105
105
103
100
100
101
105
107
110
112
114
110
107
107
105
105
103
101
101
100
101
101
101
100
96
93
91
93
91
87
86
86
81
76
70
64
57
51
54
57
61
64
67
71
71
76
93
103
110
116
118
118
118
114
114
114
114
116
116
114
114
110
110
110
107
105
101
100
100
103
105
109
114
116
114
112
109
109
109
109
109
107
105
103
100
100
98
98
96
91
94
93
91
87
87
86
79
74
68
61
55
54
56
59
61
61
63
68
71
78
93
105
110
114
118
120
118
116
116
112
112
114
112
112
110
110
110
105
105
103
98
98
100
101
107
110
112
112
114
114
110
110
110
114
112
109
107
101
98
96
94
94
94
93
94
91
91
89
86
84
78
74
66
56
54
57
59
60
61
59
60
64
70
78
91
105
110
112
118
120
116
116
118
112
112
114
110
110
109
109
107
107
105
103
98
98
101
103
103
109
109
109
112
110
110
110
114
116
114
110
109
103
100
98
94
93
91
89
91
91
89
86
82
81
78
71
60
52
56
59
60
60
61
59
60
63
71
76
87
103
107
110
116
120
120
118
116
114
112
112
112
112
110
109
110
110
105
101
98
98
100
103
101
105
105
107
110
112
110
112
112
114
116
112
109
105
101
98
96
93
91
91
91
87
87
84
82
78
78
68
55
57
61
61
61
61
60
57
60
64
71
76
89
101
105
107
112
118
118
116
114
112
112
112
112
116
114
114
112
110
107
101
98
98
101
101
100
103
107
110
112
114
112
112
112
114
114
116
114
107
101
100
98
98
96
94
91
86
82
79
79
76
74
61
55
60
61
63
61
60
60
56
57
64
71
79
89
103
107
107
110
116
116
112
112
112
112
110
112
116
116
114
114
110
105
101
100
98
100
103
101
105
112
114
114
114
114
114
110
112
116
120
118
112
107
101
100
98
96
96
87
81
82
82
78
74
68
59
59
60
60
60
61
61
63
61
60
61
70
81
89
101
107
107
109
112
116
112
110
110
110
109
112
114
114
110
109
107
101
98
96
98
100
101
103
105
112
114
112
112
116
118
114
114
118
121
120
116
109
105
103
100
100
100
82
81
82
81
76
71
63
57
59
60
61
60
61
60
61
63
63
64
71
81
87
100
109
109
107
109
114
116
116
114
114
110
114
114
112
107
105
101
100
96
94
98
101
103
101
105
109
110
110
114
118
118
114
116
118
120
121
116
109
107
107
103
103
105
81
79
81
79
76
68
59
55
60
60
61
61
60
59
57
59
63
66
70
79
86
101
109
107
107
109
114
116
121
116
114
112
112
112
110
107
103
101
98
94
96
96
98
100
101
105
105
107
109
116
120
118
116
116
118
116
116
112
109
105
107
107
105
105
78
78
79
78
74
67
56
55
60
60
59
59
57
57
56
57
61
64
70
78
84
100
109
110
110
110
114
118
121
120
114
112
110
107
107
107
103
100
100
100
100
98
94
96
100
103
105
105
107
112
116
114
116
114
114
114
116
112
109
109
109
109
107
107
76
76
79
78
73
67
55
55
59
60
60
60
59
59
59
57
59
61
66
74
84
101
114
116
114
114
114
118
123
123
118
110
109
105
105
107
105
103
101
100
98
96
94
96
98
100
105
103
107
112
114
112
116
116
114
114
114
114
109
107
105
107
105
105
79
78
78
76
71
66
54
52
57
61
60
59
60
61
60
57
60
60
64
74
84
101
116
121
118
114
114
118
123
123
120
112
112
107
101
103
101
101
101
100
96
96
96
96
98
98
103
103
107
112
114
114
116
118
116
114
114
114
114
110
105
105
107
103
79
79
79
78
71
66
55
52
56
61
61
60
60
61
61
63
63
61
66
76
84
101
114
120
118
116
114
116
118
121
118
112
110
107
103
101
103
100
101
98
96
94
96
94
98
101
103
105
109
112
116
118
118
118
116
116
114
114
112
110
105
101
103
105
82
82
84
81
74
68
59
51
54
60
63
63
60
61
63
66
64
64
70
78
84
98
110
118
118
116
114
112
114
120
116
112
110
107
101
100
101
98
98
98
98
94
98
98
101
105
109
110
112
112
114
116
118
116
116
116
116
114
110
109
107
101
101
103
82
84
86
82
79
73
64
55
51
56
60
63
63
63
64
66
66
67
73
81
87
94
101
110
116
118
112
109
110
116
114
114
110
109
103
101
101
100
101
101
100
98
98
101
103
109
109
110
110
112
114
118
118
118
116
116
114
114
110
107
105
105
101
100
82
84
86
84
81
78
71
64
57
56
60
64
66
67
67
67
67
70
76
82
89
91
96
105
110
114
110
107
105
112
112
112
110
112
109
103
101
105
107
107
103
101
101
103
103
107
109
110
110
112
114
118
118
118
114
116
114
114
114
110
107
107
105
101
86
87
87
86
84
81
78
73
67
59
60
63
67
70
71
71
70
73
79
86
87
87
93
100
105
110
110
107
103
107
110
112
114
112
112
109
107
107
109
109
105
103
103
105
103
107
107
109
114
114
112
116
118
116
114
114
112
114
114
112
107
103
103
103
87
87
89
89
86
86
82
78
76
68
60
59
66
73
74
73
73
74
82
87
94
94
93
93
98
105
109
109
105
103
109
116
118
116
114
112
112
110
110
107
105
105
103
105
105
107
107
109
112
114
110
112
116
116
114
116
116
116
112
112
109
105
103
101
89
89
91
89
86
86
86
82
82
81
73
63
60
70
76
78
76
79
86
94
100
98
93
89
94
100
107
112
109
103
107
112
116
116
116
116
112
112
112
109
105
105
105
105
107
109
109
109
110
112
110
112
112
116
116
114
114
114
114
112
109
107
105
103
87
89
91
91
86
87
84
86
89
86
82
76
68
70
79
82
81
84
91
100
103
98
93
87
93
98
107
114
112
109
109
110
112
114
116
114
112
112
110
109
107
107
103
107
109
109
109
107
109
112
114
112
112
112
112
110
112
114
114
112
110
107
105
103
91
89
89
89
87
86
84
84
87
84
84
84
81
81
87
87
87
91
98
105
101
100
93
89
91
98
105
112
114
112
110
112
112
112
116
118
112
112
110
112
109
107
109
109
107
107
105
107
110
112
110
112
112
112
112
112
114
112
110
114
110
107
107
105
89
89
89
87
86
84
84
86
84
86
84
86
86
87
89
89
93
96
100
105
101
98
93
87
89
98
103
112
118
118
114
110
110
112
116
116
116
116
112
114
112
109
105
107
107
107
109
107
109
110
112
112
112
114
112
112
114
114
112
114
114
110
109
107
87
87
87
84
86
84
84
82
84
87
89
89
91
91
91
91
96
98
103
105
105
100
94
89
89
98
103
112
120
120
114
110
110
112
112
114
114
116
114
114
114
110
107
105
109
107
107
105
105
109
112
114
112
112
114
112
112
114
112
114
114
110
109
109
84
86
86
79
81
78
79
79
82
87
91
93
91
91
94
96
98
101
107
109
107
103
98
91
91
98
103
110
116
120
120
114
110
110
110
110
112
114
114
112
110
110
109
107
109
107
105
105
105
107
109
112
112
114
114
112
110
112
112
112
116
114
112
112
81
81
82
81
82
79
78
78
82
86
89
89
89
89
96
98
100
105
109
109
109
103
101
96
94
98
103
110
112
120
123
120
114
109
107
110
109
112
114
112
110
112
110
110
107
103
101
103
107
107
109
109
112
114
114
112
110
112
110
114
116
116
116
112
79
76
76
78
82
81
76
78
82
86
91
93
89
91
98
98
103
109
109
110
107
105
103
101
98
96
101
109
109
114
121
120
116
109
105
107
110
112
114
114
112
110
110
110
105
103
103
101
105
107
107
109
110
114
110
112
114
114
112
112
114
116
114
110
79
74
76
76
79
78
78
79
82
86
89
91
91
94
98
101
105
110
110
112
110
109
109
107
103
101
100
107
109
110
114
118
116
110
105
105
109
110
112
112
112
112
110
110
107
107
105
101
105
107
107
107
110
112
109
107
110
110
110
110
112
112
112
110
78
78
81
81
79
79
76
81
84
84
89
89
93
94
98
101
109
112
112
116
114
114
112
110
110
107
103
107
109
109
110
114
116
114
109
105
105
109
112
112
112
114
112
110
107
107
109
105
105
109
109
107
110
112
109
103
105
107
105
107
109
109
112
110
78
79
82
82
81
79
78
82
86
82
89
91
93
96
98
103
109
114
114
116
118
120
118
114
114
110
105
107
110
109
105
107
109
112
110
109
105
107
109
112
112
112
110
109
109
109
107
109
109
110
110
109
110
109
105
103
100
101
105
107
105
105
109
109
76
78
82
82
78
78
76
81
86
86
87
91
94
98
98
103
109
112
114
118
120
121
123
121
118
112
107
107
112
109
105
101
101
105
109
109
105
105
107
112
112
112
110
109
110
110
109
110
112
112
109
109
107
103
103
105
101
103
105
107
107
107
105
103
78
79
82
81
79
78
78
82
86
89
91
93
96
96
98
105
109
112
116
121
120
121
125
125
123
118
110
105
109
107
103
100
96
98
100
101
103
105
105
110
112
112
110
109
110
110
110
114
114
110
109
107
107
103
103
105
103
105
103
103
105
107
103
101
78
81
86
81
81
81
81
84
86
89
91
96
100
100
103
105
107
114
118
121
121
123
123
125
125
123
118
110
105
105
103
98
94
94
94
98
101
103
105
109
110
112
112
112
112
112
112
114
112
110
107
107
105
105
103
107
107
107
105
103
103
105
103
101
79
81
84
82
82
84
81
86
86
87
93
98
101
105
103
105
107
114
118
121
121
121
123
125
127
125
123
116
109
105
101
98
94
91
91
94
94
96
100
105
109
109
114
114
114
114
112
112
112
112
109
107
105
103
105
105
107
105
105
105
105
103
105
107
81
81
82
81
82
84
82
86
89
87
93
96
103
107
107
107
110
116
118
120
120
120
123
125
125
127
125
121
114
107
100
96
91
91
93
93
93
93
94
100
103
105
110
116
116
118
118
116
114
112
110
109
105
103
105
105
105
107
107
109
107
107
107
105
81
82
82
81
79
82
82
86
86
89
94
98
103
109
107
109
114
116
116
121
120
118
121
127
125
129
127
125
120
109
96
93
93
96
96
96
94
94
93
98
100
101
105
114
118
118
120
121
118
114
109
107
103
103
101
107
105
105
107
110
107
107
109
107
86
87
84
79
78
79
82
86
86
91
98
101
103
105
109
112
116
118
118
120
121
121
123
129
127
127
127
127
123
116
98
86
89
94
96
94
94
96
94
93
93
96
100
107
114
118
121
121
121
120
114
110
109
103
101
103
101
105
105
107
105
105
107
109
91
89
87
84
82
82
84
87
87
94
98
101
105
105
110
112
114
118
120
121
123
125
129
129
127
127
129
129
125
121
107
89
87
94
96
93
94
94
94
91
89
89
93
103
110
118
121
123
123
123
118
114
109
105
103
101
100
101
101
101
101
103
105
107
93
91
89
86
86
87
89
89
91
96
98
101
105
109
110
114
118
120
121
123
125
129
129
127
127
127
129
129
125
123
116
100
89
93
94
93
93
93
94
89
87
84
86
94
101
110
118
121
123
121
120
112
105
105
103
103
101
100
100
100
98
100
101
103
96
94
91
89
89
89
91
91
94
98
101
101
105
109
112
116
120
123
123
125
127
131
129
127
129
127
125
125
125
123
118
107
96
89
91
91
91
96
96
93
89
84
82
86
94
105
110
118
123
121
120
114
107
105
105
101
100
98
96
98
98
100
100
100
98
96
93
91
91
89
91
93
94
98
101
103
103
105
110
118
120
125
123
125
125
129
127
127
127
125
125
125
123
121
116
110
103
94
93
93
89
93
94
93
87
82
81
81
86
93
100
109
118
121
120
114
109
107
105
103
98
96
96
100
100
100
98
100
101
100
94
93
93
94
96
94
93
98
101
105
103
103
109
116
118
121
123
123
127
127
125
127
125
125
125
123
123
120
112
112
107
98
93
89
86
87
89
89
86
79
76
78
81
82
89
100
112
121
120
116
110
109
105
105
100
96
98
98
100
100
100
100
101
100
98
96
96
94
94
91
94
101
103
105
107
105
109
112
114
118
121
123
123
125
125
129
127
127
125
123
121
118
114
114
110
103
94
87
84
84
84
84
84
82
76
78
78
76
82
89
103
116
120
116
112
112
107
105
103
98
100
98
98
100
100
101
100
96
96
96
94
94
94
94
100
103
109
110
109
109
110
112
112
114
118
121
121
125
127
129
129
127
121
120
116
114
116
118
114
107
96
87
81
79
79
79
79
81
78
73
74
71
74
81
93
109
116
116
114
114
110
107
103
98
98
94
94
100
101
103
98
94
96
96
94
94
96
96
101
107
112
114
112
112
112
112
116
112
116
121
123
123
125
127
125
127
121
116
112
116
121
121
118
110
101
89
79
74
76
78
79
79
78
76
74
73
70
74
84
98
110
116
118
118
114
109
101
100
98
96
96
101
103
105
98
94
96
96
94
94
96
96
101
107
110
112
116
114
114
112
116
114
116
121
123
123
127
127
125
125
120
114
114
120
123
125
120
112
103
93
82
78
76
81
81
84
84
81
76
71
70
70
74
86
100
114
120
120
118
110
103
100
100
100
101
101
101
101
98
96
96
96
94
94
96
96
100
105
109
110
110
112
112
112
112
110
114
120
125
127
129
127
125
123
116
112
116
121
125
125
120
112
103
98
89
82
79
82
84
86
84
82
79
74
70
68
70
78
91
109
118
118
116
110
105
103
103
103
105
103
103
101
100
100
96
96
94
91
94
96
100
105
109
107
105
110
112
112
110
110
110
118
123
127
127
129
127
123
116
114
118
123
125
121
118
112
105
101
94
87
82
81
82
82
82
86
84
79
73
70
70
74
81
96
112
118
118
114
109
107
107
105
105
105
103
103
100
100
100
98
94
93
96
96
98
105
105
107
107
112
110
109
110
110
110
118
123
127
127
131
129
123
120
118
121
125
123
120
114
112
109
105
103
98
91
84
82
82
84
87
87
84
79
74
71
74
79
89
101
112
118
118
114
112
109
105
105
103
105
103
101
105
103
100
96
94
96
98
100
105
109
107
107
110
110
107
107
109
110
118
121
125
129
131
129
125
123
121
123
123
120
116
112
110
110
109
109
105
98
91
84
82
84
86
87
86
82
78
74
74
74
84
94
107
116
118
116
116
114
110
109
109
107
103
105
103
103
101
100
100
100
101
103
107
109
109
107
107
107
109
103
107
110
116
121
125
129
129
129
125
121
120
121
121
116
114
112
112
114
114
114
112
107
98
89
84
81
82
82
84
81
76
74
76
76
81
91
105
112
120
120
118
116
114
112
112
109
101
105
101
103
103
101
98
98
101
107
110
109
110
107
103
105
105
105
105
105
112
120
123
127
127
125
121
120
120
120
118
118
116
116
116
114
114
114
110
110
105
96
86
78
79
81
81
82
79
78
81
81
82
91
101
110
118
121
120
118
118
116
112
110
103
105
105
105
103
101
100
100
103
109
109
110
110
107
105
101
105
107
105
103
107
114
118
120
120
118
116
114
116
120
121
121
120
120
116
112
114
112
110
112
110
107
96
82
78
78
81
82
81
78
82
84
86
91
100
105
114
120
120
118
118
118
114
110
103
110
109
105
105
105
103
101
105
107
110
114
110
109
103
101
105
107
105
105
105
107
112
112
112
110
109
109
114
121
123
121
121
120
118
114
116
112
114
116
112
109
105
91
78
74
76
79
79
81
86
87
89
93
96
100
105
110
116
118
120
118
114
110
105
114
110
109
109
105
103
103
107
110
110
112
112
109
103
101
105
105
107
107
107
105
109
110
109
105
105
109
116
121
125
125
123
123
121
118
114
110
110
114
114
112
110
101
87
78
76
78
79
84
86
89
91
94
94
94
96
101
103
110
114
114
112
110
107
116
110
110
107
105
105
103
107
110
109
112
112
110
107
105
105
105
107
105
107
107
109
112
107
101
105
112
118
123
127
129
129
127
125
121
118
114
112
114
114
110
110
109
98
86
79
76
78
82
84
84
89
91
91
91
91
93
96
103
107
109
110
109
107
116
112
110
107
105
105
105
107
109
110
114
114
114
112
109
107
107
107
105
107
110
114
112
107
105
109
114
121
125
131
133
131
129
129
125
121
116
112
112
114
110
112
112
105
94
86
78
78
79
82
86
87
89
89
87
86
84
86
93
100
105
109
109
109
114
110
109
107
101
105
107
107
109
112
116
116
116
116
114
110
107
107
107
109
114
116
110
107
107
112
118
123
129
133
136
136
133
131
127
123
120
114
112
114
112
114
118
112
103
93
86
78
78
78
82
84
87
86
84
82
81
81
86
91
98
105
109
112
