P2
# 48 of 608 Angiograms
64 64
255
91
94
100
107
114
118
118
118
121
120
121
121
121
118
114
116
114
114
110
112
114
114
114
118
118
114
112
110
109
105
103
105
105
101
103
105
103
101
101
103
101
101
105
105
103
105
107
110
116
118
116
112
110
112
109
109
107
100
98
101
103
103
109
107
82
86
89
96
105
112
116
118
123
121
121
121
120
118
116
116
116
116
112
112
112
116
118
118
116
114
112
109
107
107
103
105
103
100
100
101
101
98
98
100
103
107
105
105
105
105
110
114
116
114
116
116
114
110
110
109
105
100
98
101
105
105
107
107
74
79
81
86
93
100
110
116
123
123
121
118
118
118
118
120
118
118
116
116
116
116
120
118
116
114
110
109
109
107
103
105
103
103
100
100
100
100
100
100
103
107
107
105
107
107
110
114
114
116
114
116
116
116
114
110
105
101
100
105
107
103
105
105
73
74
78
81
86
91
98
109
116
121
121
120
121
121
121
123
123
121
120
120
118
118
118
116
116
112
110
110
110
109
107
107
105
101
100
98
100
98
100
101
103
107
107
107
110
109
110
114
116
114
116
118
120
120
116
112
107
103
103
107
107
105
107
109
73
76
76
78
79
84
91
98
109
118
121
121
125
129
127
123
123
125
123
120
118
120
120
116
116
114
114
112
110
112
112
110
109
105
101
100
98
100
103
103
103
105
105
109
110
110
110
110
112
112
118
120
121
118
114
112
110
107
107
107
107
107
110
109
73
76
78
78
79
82
87
93
101
109
118
123
125
129
129
127
123
127
125
123
121
121
121
120
118
116
114
112
112
114
114
112
110
109
107
103
103
105
107
107
107
107
105
107
109
109
110
109
112
116
118
118
118
114
114
112
110
109
105
107
107
107
109
107
71
74
76
78
79
81
84
87
94
101
112
120
125
127
131
131
127
127
127
129
125
123
120
116
114
114
112
114
114
114
116
116
114
114
112
112
114
112
112
112
110
107
109
105
105
107
107
109
110
112
114
116
116
112
112
110
109
109
105
107
109
109
109
107
73
74
76
76
79
82
82
86
89
98
105
112
120
125
129
131
129
129
127
127
127
120
120
116
114
112
114
116
114
116
116
118
114
114
114
116
118
118
118
116
114
112
109
107
109
105
107
109
110
112
112
114
112
109
109
107
109
109
109
112
114
112
110
109
74
74
74
78
79
81
82
84
86
94
101
107
112
120
125
131
131
129
127
125
125
121
120
116
112
114
116
118
114
116
118
116
118
118
118
116
116
116
118
120
118
114
110
105
105
103
105
105
107
110
110
110
110
109
109
109
110
110
110
110
110
112
110
109
74
74
74
79
78
79
81
82
84
93
100
103
109
114
121
125
131
129
127
125
123
123
121
116
114
114
116
118
118
116
114
116
116
118
120
118
116
114
116
116
118
116
110
107
105
103
103
105
105
109
107
107
109
109
109
109
112
112
110
109
109
110
109
107
79
76
76
79
79
79
79
81
84
89
96
101
105
109
114
120
125
127
125
123
121
121
121
118
118
116
116
118
120
118
118
118
118
118
120
116
116
114
112
114
114
112
110
107
107
105
107
107
103
107
109
105
105
109
110
107
110
110
110
109
109
109
107
105
89
84
81
78
79
82
79
81
84
86
93
98
100
101
107
110
116
120
123
123
121
120
120
120
120
120
118
120
118
118
120
120
121
120
118
116
116
114
112
114
114
112
110
107
107
107
109
107
105
105
107
107
107
109
112
114
109
109
107
107
107
103
103
100
101
94
89
82
81
84
82
86
86
86
89
94
94
94
98
101
105
110
116
118
120
121
121
120
121
121
120
120
118
120
120
121
123
121
118
118
114
112
112
112
114
112
110
110
107
105
107
105
105
105
105
109
109
110
112
110
107
105
103
101
103
100
100
98
112
107
98
93
86
82
84
86
89
89
87
91
91
91
93
96
100
101
107
112
118
121
123
123
120
121
121
120
121
121
121
125
125
123
120
118
114
110
110
110
110
110
112
107
105
103
101
107
107
103
103
105
107
107
107
105
101
100
98
100
100
98
100
94
120
116
109
101
94
91
89
89
91
89
89
89
91
91
91
93
98
98
100
103
110
118
125
125
123
120
121
120
121
121
123
125
125
125
121
118
116
112
110
112
110
109
110
105
103
103
103
107
105
101
101
101
103
103
103
101
98
98
96
96
98
96
96
91
123
123
118
110
103
98
93
91
91
89
89
87
89
89
91
93
96
98
98
100
103
109
120
125
123
123
121
120
121
123
123
123
123
123
121
120
118
116
112
114
112
112
109
107
105
105
105
103
101
101
101
98
98
100
101
96
96
94
96
98
96
98
96
89
127
127
125
120
114
107
101
98
94
93
91
91
86
89
91
91
91
94
98
100
100
105
112
121
123
123
121
121
123
123
123
125
125
123
121
118
116
114
116
116
114
112
112
107
105
107
103
100
100
100
101
100
98
96
98
94
91
93
96
98
100
96
94
89
129
129
129
125
121
116
110
103
101
100
93
91
87
91
89
89
91
94
96
96
96
100
105
112
118
120
120
121
121
120
123
127
129
125
121
118
116
116
118
116
116
114
112
109
107
105
101
100
96
100
101
100
96
96
96
94
91
94
96
98
100
100
98
89
129
129
129
127
125
121
118
112
105
105
100
93
93
93
91
93
94
93
94
94
96
94
96
101
110
112
116
118
121
121
123
127
129
125
121
116
118
118
116
114
112
112
109
107
105
103
103
101
101
100
98
96
96
94
96
94
96
98
96
98
100
100
96
91
125
129
129
129
127
125
125
121
112
107
105
100
96
93
91
94
94
93
93
93
93
91
89
94
101
105
109
116
121
121
123
127
127
123
120
116
114
112
112
109
107
107
109
109
107
105
103
103
101
100
100
96
96
94
96
96
96
98
98
100
100
100
96
89
120
125
129
127
127
129
129
127
121
114
109
105
101
94
93
91
87
84
84
86
87
89
87
87
94
101
105
110
118
121
123
125
121
121
118
114
109
107
110
110
105
107
109
107
107
107
107
107
103
101
103
100
98
100
100
100
101
100
100
100
101
103
96
86
116
120
125
129
127
129
129
129
127
121
116
110
107
100
96
94
86
76
78
82
84
86
89
87
89
96
101
109
112
118
123
121
120
118
114
109
105
103
107
110
109
110
109
107
107
109
107
107
103
103
103
101
100
101
101
103
105
103
101
101
101
101
96
84
112
116
120
123
125
127
127
127
127
123
120
118
114
107
101
98
93
84
78
78
82
82
87
87
87
93
98
107
109
112
114
114
114
112
110
105
103
101
105
107
109
110
110
107
107
107
105
105
101
101
101
101
105
105
101
103
105
105
103
103
101
100
93
84
112
110
114
120
121
125
125
127
123
123
121
120
120
116
110
105
101
93
86
79
78
81
86
89
87
91
98
103
107
109
109
107
107
109
107
105
105
101
101
105
107
109
110
109
109
105
105
105
103
101
103
103
107
105
107
107
107
107
103
101
101
98
91
86
116
110
110
114
118
121
123
123
121
123
121
120
120
120
118
116
110
105
96
87
84
79
82
89
91
93
98
101
103
105
107
109
107
107
105
103
103
101
101
101
107
107
107
107
107
105
101
103
103
101
103
105
107
105
107
107
107
107
103
100
98
96
91
87
118
114
110
112
114
116
120
120
120
120
121
121
118
120
120
118
118
112
107
100
93
86
82
86
94
100
101
101
101
103
105
109
109
103
101
105
103
105
105
101
105
103
105
105
105
103
100
101
107
109
109
107
105
105
107
109
107
103
101
100
98
96
91
87
121
120
116
112
112
112
114
114
116
118
120
120
120
120
120
121
121
118
112
109
105
100
93
87
93
100
103
105
103
100
103
105
105
101
100
105
107
109
109
105
107
105
105
103
101
101
100
101
105
109
110
109
105
105
107
107
107
105
101
105
101
94
91
86
125
123
120
116
112
114
112
110
110
116
120
120
123
121
120
120
121
123
118
114
112
110
109
100
93
91
96
103
105
103
105
105
103
101
100
107
109
109
110
107
107
105
105
105
103
100
98
100
105
105
109
109
103
103
103
105
103
103
105
105
105
94
89
87
123
125
123
120
116
110
110
107
109
114
120
121
120
120
118
118
121
123
121
118
118
118
116
110
103
94
89
96
103
107
109
107
103
101
103
109
112
110
110
107
107
105
105
107
101
96
98
101
105
105
105
105
101
103
103
103
101
101
105
103
100
94
91
87
123
123
125
123
118
112
109
109
107
112
120
121
121
121
120
116
116
118
120
121
123
121
120
116
114
105
94
91
98
105
109
109
107
105
103
107
116
114
112
109
107
107
105
105
103
98
98
100
101
100
101
100
100
103
103
103
101
101
103
100
98
93
89
87
123
125
123
123
118
114
112
109
105
110
118
123
123
123
121
118
114
116
120
121
123
123
121
120
118
114
107
96
93
98
103
107
107
107
103
107
114
116
116
112
109
109
107
105
103
100
96
96
98
98
98
96
98
100
100
100
100
101
103
100
96
89
86
86
118
121
123
121
118
116
114
109
105
107
112
120
121
123
123
121
116
116
120
123
123
123
123
120
120
118
114
109
96
91
96
101
103
103
105
107
110
116
114
110
109
110
109
105
101
100
98
94
93
94
94
94
98
96
98
100
98
98
100
96
94
89
86
87
118
118
118
120
118
120
118
110
107
105
109
116
121
123
123
123
120
120
123
123
123
123
125
121
120
120
116
112
105
96
93
94
100
105
107
105
109
114
114
112
112
112
110
105
103
101
100
96
91
91
94
96
96
96
98
98
98
96
96
96
93
89
84
86
116
118
118
118
116
116
116
110
107
105
105
110
118
121
121
121
123
123
123
125
123
125
123
120
118
120
116
112
110
103
94
89
91
100
103
100
105
109
114
116
114
114
112
107
105
103
98
98
96
93
93
96
98
96
96
94
96
98
96
94
91
86
86
89
120
118
118
116
114
114
114
110
105
103
105
109
116
120
121
121
125
123
121
121
123
125
123
118
120
120
116
112
109
107
103
94
87
89
98
100
105
107
110
112
116
116
112
109
107
105
101
100
100
98
96
96
94
94
94
94
96
96
94
91
84
84
86
84
121
121
118
116
114
112
110
109
103
101
105
109
114
118
121
120
121
120
120
120
121
121
120
118
120
118
116
110
107
109
109
103
93
84
89
98
103
107
107
110
114
114
114
110
109
107
103
103
103
101
100
98
96
96
96
94
94
94
93
86
79
81
84
84
120
120
120
118
116
109
107
107
101
101
101
107
112
118
121
120
118
120
120
120
118
118
118
116
116
112
112
110
107
107
109
107
98
86
79
86
96
101
103
105
110
114
114
112
112
109
110
109
107
105
101
101
100
98
98
93
89
89
87
82
78
78
81
82
114
114
116
118
114
109
105
105
105
101
98
101
109
116
116
118
120
120
118
118
116
114
114
114
114
112
112
110
107
107
103
103
100
93
82
79
87
94
98
100
105
110
110
110
110
109
109
107
105
105
103
101
100
100
96
93
87
89
87
82
78
78
78
78
109
110
110
112
112
109
103
103
101
101
98
100
107
110
114
116
118
120
120
116
114
114
114
112
110
109
109
109
109
107
101
101
100
96
91
82
79
86
94
98
103
107
109
110
109
107
109
109
107
103
101
98
100
98
96
93
89
87
86
84
79
76
76
76
105
109
110
112
110
109
107
107
105
101
101
103
105
110
114
116
118
118
116
116
116
112
109
110
110
107
109
109
109
109
101
100
100
96
93
89
79
78
86
94
100
101
103
103
103
103
105
107
105
101
101
98
98
96
94
94
91
89
89
86
81
78
74
76
103
105
109
110
110
109
107
107
105
103
101
101
105
110
110
112
116
116
112
112
116
114
110
110
109
109
109
109
107
105
103
101
100
94
91
93
86
78
79
87
93
96
96
96
98
98
100
101
101
105
101
98
96
96
94
93
91
93
91
86
81
78
78
82
103
103
107
107
105
107
107
107
107
103
103
103
105
110
112
114
116
116
114
112
110
110
110
110
109
109
105
105
107
105
105
105
100
94
91
94
93
84
79
79
84
86
91
93
94
96
96
96
98
100
98
96
94
93
93
94
94
96
93
86
79
79
81
87
101
101
101
103
103
103
105
105
105
105
105
105
109
114
116
116
116
118
114
112
110
110
109
109
107
107
107
107
107
107
103
105
101
100
98
96
94
91
86
81
78
82
86
89
93
91
89
91
93
93
94
94
96
96
96
98
98
98
93
84
79
81
84
89
100
98
96
98
100
100
101
103
103
105
109
109
112
116
114
116
114
116
112
110
109
109
107
107
105
105
109
110
109
107
105
101
103
103
101
101
100
98
93
86
78
74
82
86
87
86
84
84
87
87
91
94
98
96
98
98
96
96
91
82
81
86
86
91
98
96
96
96
96
96
100
101
105
110
112
116
118
118
114
114
116
114
112
112
109
107
105
105
107
109
109
110
112
110
107
105
105
103
105
107
105
101
98
94
86
74
74
78
79
79
79
79
82
86
87
91
91
94
96
94
96
94
87
81
82
87
89
93
98
94
96
96
94
100
101
105
110
112
114
118
118
120
116
112
114
114
112
112
109
105
109
109
110
110
110
110
112
112
112
109
109
109
110
112
112
105
100
96
93
82
70
70
74
74
76
78
79
81
86
89
91
91
94
94
94
93
84
79
82
87
89
93
96
93
93
96
98
101
103
107
112
114
116
118
120
121
116
114
114
114
110
110
109
109
110
112
114
114
112
112
112
112
114
110
110
112
114
118
116
110
103
96
93
84
78
67
70
71
73
74
74
76
79
86
89
93
91
93
91
89
84
82
84
87
89
94
94
94
96
96
96
98
103
107
112
116
116
114
116
118
118
116
116
112
110
110
112
110
114
114
116
118
118
118
118
116
114
112
110
114
116
118
120
114
109
101
94
87
82
70
66
68
71
73
71
73
74
81
86
89
89
91
89
87
84
81
82
87
89
96
93
93
94
94
96
101
105
107
110
114
116
116
114
114
114
114
114
114
114
112
112
112
114
116
114
116
116
116
116
114
114
110
110
112
114
116
118
116
112
105
98
91
86
76
64
64
68
71
73
73
74
81
84
87
87
89
89
87
84
79
84
86
91
98
89
89
93
96
100
105
107
107
112
114
116
112
110
109
110
110
112
114
114
112
112
112
114
116
118
116
116
116
116
114
112
109
107
109
110
114
116
114
112
109
103
94
91
84
71
63
67
74
74
74
76
79
84
89
87
87
87
87
84
84
84
87
91
98
87
89
93
96
100
103
107
110
114
114
112
110
109
109
107
107
110
112
112
110
114
112
114
116
116
114
114
112
114
112
110
107
109
112
112
116
116
114
110
105
103
100
94
89
79
67
67
73
76
76
79
79
84
84
87
89
91
87
82
82
82
84
91
98
89
89
93
96
100
105
107
112
118
118
114
109
110
110
110
107
110
116
116
112
112
112
112
114
112
112
112
110
110
110
109
109
109
114
114
120
118
112
109
105
107
103
98
94
87
78
67
70
74
79
81
81
81
82
87
91
91
89
82
79
81
82
89
96
94
94
98
100
105
109
109
112
116
116
114
112
112
110
109
109
109
116
118
118
114
112
112
110
110
110
107
105
105
107
109
110
112
112
112
116
114
109
107
107
107
107
103
100
94
86
73
68
73
78
79
79
81
81
84
87
87
87
82
79
81
82
89
94
96
94
100
103
109
112
112
112
116
118
116
116
112
110
107
107
110
114
118
118
116
112
109
107
105
103
105
103
107
107
109
110
112
112
112
112
110
107
105
107
105
107
105
103
100
93
82
70
68
76
79
78
79
79
79
82
84
81
79
81
79
84
91
93
96
94
100
105
110
112
114
116
118
118
118
118
116
112
109
109
110
112
116
116
114
110
107
107
103
103
105
109
109
110
109
109
110
112
112
109
107
109
107
109
107
107
109
109
103
100
91
78
68
71
78
78
78
78
76
78
79
79
79
81
79
84
93
94
98
98
100
105
109
112
116
116
118
120
118
118
118
116
114
112
110
114
114
112
110
109
107
103
101
103
105
109
107
109
107
107
107
109
109
109
109
107
107
109
109
110
110
110
109
101
96
84
73
68
74
81
79
78
78
78
78
79
79
79
79
84
91
93
98
100
103
105
107
109
112
116
116
120
120
118
118
118
116
112
110
112
110
109
109
105
105
100
101
101
105
109
107
107
107
105
105
105
107
110
107
105
107
109
109
110
112
110
109
105
98
86
76
67
70
76
79
76
76
76
78
78
78
79
82
86
93
94
100
101
103
105
109
109
112
116
116
120
120
118
116
118
116
110
109
110
110
109
109
107
101
100
101
103
105
107
105
105
105
109
107
107
109
105
103
105
109
109
109
109
112
110
112
107
100
89
79
68
67
73
74
74
73
73
73
71
74
79
84
87
94
96
101
101
103
105
107
107
110
112
114
118
116
116
116
118
112
110
109
112
110
110
107
107
100
101
100
101
103
101
100
101
107
109
105
103
109
107
105
105
109
109
107
107
110
110
109
105
98
93
86
76
67
70
73
73
73
74
71
70
73
79
84
89
94
98
98
101
105
103
107
109
110
110
114
116
114
116
116
114
110
109
109
110
110
109
107
105
101
101
101
101
103
101
100
100
105
109
105
105
105
105
107
107
107
107
109
112
112
109
109
103
100
96
91
82
71
68
71
73
74
74
71
70
70
76
82
89
98
101
98
98
101
103
107
109
110
112
116
116
114
114
114
110
109
109
105
105
107
107
105
103
101
103
103
101
101
103
101
100
105
105
105
105
107
107
107
105
105
107
109
112
110
107
107
103
101
100
96
89
78
67
71
74
74
71
70
67
68
73
84
89
96
98
100
100
101
101
103
107
110
110
112
114
112
112
112
109
105
107
101
103
103
105
105
101
105
105
105
103
101
105
103
100
101
101
101
103
105
103
101
103
105
105
109
109
109
105
107
103
100
101
96
93
86
71
71
73
76
70
68
66
67
71
84
91
93
94
94
98
98
100
101
105
109
109
109
112
110
109
110
109
109
107
100
100
101
103
103
103
103
103
101
101
105
105
103
100
100
100
100
100
101
101
103
103
105
105
107
109
109
107
107
103
100
100
98
94
91
81
70
71
74
70
67
67
70
71
82
93
94
94
94
94
94
98
101
105
109
110
112
112
112
110
110
107
107
105
101
98
100
101
101
100
98
98
100
101
101
103
101
100
100
101
101
101
103
103
103
105
105
101
105
105
105
105
103
101
101
100
100
98
93
87
74
70
73
70
66
67
68
70
78
91
94
94
