P2
# 53 of 608 Angiograms
64 64
255
96
101
103
103
107
107
103
103
105
105
101
96
81
71
61
57
56
52
52
52
50
49
45
42
49
71
84
89
93
93
93
91
93
93
94
94
94
94
94
94
93
93
93
96
98
98
98
100
100
101
105
110
110
110
109
109
109
109
107
103
101
100
100
103
93
94
100
101
105
103
100
100
101
100
100
94
81
71
63
59
57
57
57
56
52
51
48
43
52
73
86
91
89
91
91
91
94
94
94
91
93
93
96
94
94
94
94
96
98
98
98
98
98
101
109
110
114
112
112
110
110
110
109
109
107
103
103
103
93
91
93
101
105
100
98
98
94
98
98
93
81
70
61
57
59
59
60
59
54
52
49
45
55
79
91
93
89
93
94
96
96
94
96
93
93
96
96
96
96
96
98
94
98
98
100
98
96
101
109
110
112
114
112
110
112
110
109
109
109
109
105
107
94
91
89
94
100
101
101
101
96
96
96
91
79
68
63
56
56
59
59
59
57
55
49
46
60
84
94
98
100
100
101
101
100
98
98
94
96
98
98
94
98
98
96
96
94
100
98
98
98
103
109
110
110
112
112
112
112
112
109
107
109
107
107
107
93
93
93
93
94
100
103
103
100
98
94
87
78
68
63
59
56
59
57
57
57
54
48
50
63
87
98
105
107
107
105
105
105
101
98
100
98
98
96
94
98
98
96
96
96
98
98
98
101
107
110
110
110
112
114
114
112
110
110
107
105
105
107
105
93
94
94
93
94
94
100
103
100
96
91
84
78
68
63
59
59
59
59
59
55
50
46
55
70
91
105
110
116
118
118
116
112
107
101
100
100
100
100
100
100
98
96
100
100
100
100
101
103
105
109
109
110
114
114
112
110
109
107
107
109
107
107
107
91
93
93
91
93
93
93
96
98
96
89
82
76
67
61
59
59
57
56
57
54
48
50
61
74
94
110
116
121
123
123
120
116
112
107
103
100
101
101
100
101
101
100
100
101
101
101
101
103
103
105
105
110
114
112
109
107
105
105
109
110
112
110
107
89
93
93
89
93
94
94
94
93
91
89
82
76
67
61
59
59
56
55
56
50
49
55
64
78
98
114
121
125
127
127
125
121
116
112
109
103
101
101
100
101
100
98
98
98
98
98
100
101
101
105
107
109
112
109
105
107
107
109
110
110
110
109
107
89
91
87
86
87
87
89
91
91
91
89
84
74
68
63
61
60
57
54
51
49
52
60
67
79
101
118
123
131
133
133
129
123
120
114
112
105
103
103
103
103
101
100
98
96
94
93
94
98
101
105
103
105
109
109
107
105
109
110
110
109
105
105
107
91
89
89
87
89
87
91
89
89
93
91
82
73
67
63
59
57
55
51
49
51
57
63
67
81
101
118
129
134
138
136
133
127
121
116
112
107
101
103
101
103
100
101
98
94
93
89
91
93
96
101
101
105
107
109
110
107
110
112
110
107
103
103
105
91
91
91
91
89
89
91
91
89
91
87
79
71
66
60
55
55
52
49
49
55
59
64
66
79
100
120
131
138
138
136
131
127
120
114
110
109
103
101
101
103
103
100
96
93
91
89
89
89
94
96
100
103
105
105
109
109
110
109
107
105
101
101
103
87
89
89
91
93
91
93
91
86
86
82
76
68
64
59
51
52
50
50
54
59
60
64
66
78
98
118
127
134
136
134
129
125
120
114
112
109
107
103
100
101
103
103
98
93
93
91
87
91
94
96
96
101
101
103
105
107
109
109
107
105
101
100
103
89
91
94
89
87
87
91
93
86
84
81
73
68
63
56
50
50
51
52
56
57
59
61
67
76
96
116
121
129
133
131
127
125
120
114
116
110
109
107
103
103
101
101
100
96
91
91
91
93
93
94
98
100
101
101
103
105
107
101
105
103
98
96
101
93
91
93
89
87
86
87
87
87
84
81
74
67
60
52
48
49
52
55
57
59
61
63
68
74
93
109
120
123
127
129
127
123
118
114
116
116
112
109
109
105
105
105
105
103
96
94
91
93
93
96
96
98
101
100
101
101
105
101
101
101
94
96
100
89
87
89
89
87
86
87
86
87
84
81
74
66
56
50
45
49
55
54
55
59
61
63
67
73
93
105
114
121
123
121
121
118
116
110
112
118
116
112
110
109
109
110
107
103
100
98
93
93
96
100
98
100
101
100
98
98
101
101
100
100
98
100
100
89
86
87
89
87
86
86
84
82
82
79
73
63
55
49
48
51
52
55
56
57
61
63
64
73
89
101
110
118
120
123
120
116
116
112
114
120
118
116
114
112
116
112
110
105
101
100
96
98
100
101
101
100
101
101
100
100
101
101
101
101
101
101
101
89
89
91
87
84
84
84
84
82
81
79
73
61
52
50
51
54
55
55
56
56
59
61
64
71
87
100
109
116
121
123
123
120
120
118
121
120
120
118
114
116
118
114
110
107
103
103
103
105
101
100
101
101
105
105
107
105
101
103
105
109
105
105
105
93
89
89
87
84
86
86
86
84
82
81
73
60
52
54
56
55
56
56
56
56
57
60
64
73
86
100
107
112
120
125
123
123
120
121
121
121
121
120
114
116
118
114
109
110
107
105
107
109
105
103
101
105
107
105
105
107
107
107
109
110
109
107
107
91
91
87
87
87
84
87
87
84
84
79
68
59
56
57
57
56
56
57
56
57
57
60
61
70
86
98
103
109
118
125
129
123
120
120
121
123
120
118
114
116
116
110
109
112
110
109
109
109
109
105
107
109
109
109
109
109
109
109
109
110
110
107
109
91
87
86
87
86
86
86
84
84
82
74
61
56
57
59
57
59
56
55
56
57
57
60
60
66
81
94
100
107
114
123
125
121
118
120
121
120
118
114
112
114
112
110
110
114
114
116
114
109
110
110
110
112
112
112
112
112
112
112
112
112
114
110
110
84
86
84
84
86
86
81
82
82
78
67
57
56
59
57
57
57
56
54
56
56
56
59
60
63
81
91
96
103
110
116
121
121
118
114
112
116
114
112
112
110
112
114
114
114
112
116
112
112
112
112
112
112
112
112
112
112
116
116
116
116
116
114
114
81
84
84
84
87
86
82
82
82
74
61
56
56
56
56
57
56
55
55
54
55
56
59
60
64
79
87
93
98
105
110
114
118
116
110
107
110
112
110
110
112
114
120
118
116
112
114
116
114
112
112
112
110
110
110
110
114
118
120
116
116
118
116
116
86
86
86
86
84
84
84
86
81
70
59
56
55
55
57
56
54
54
55
52
54
57
61
61
67
78
87
91
98
100
107
109
112
110
109
109
109
110
107
107
110
112
114
112
112
112
109
112
112
110
110
110
107
109
112
114
114
118
118
118
116
116
116
116
87
84
87
86
87
87
87
87
79
67
54
55
57
57
59
57
55
55
54
54
54
56
59
61
66
79
89
94
98
98
103
109
112
109
110
110
110
109
112
109
107
107
107
109
110
112
107
109
112
112
110
109
110
109
114
114
116
120
120
116
116
116
116
112
84
86
86
87
89
89
89
89
79
64
52
52
57
57
59
59
57
57
56
52
54
54
56
61
68
82
94
96
98
98
98
105
110
109
109
107
109
109
112
110
107
105
105
107
112
114
110
107
112
110
110
107
105
109
112
114
116
118
120
120
116
114
114
112
84
87
87
89
91
89
91
91
79
64
54
50
56
59
59
61
61
60
57
56
56
55
56
61
68
84
100
103
100
98
96
100
107
110
109
109
107
110
109
109
107
107
105
109
114
114
112
109
109
110
109
105
107
109
112
114
116
118
120
118
116
116
116
112
84
84
87
87
91
89
89
91
81
66
57
51
54
57
56
59
63
60
57
59
57
54
56
63
71
84
98
103
98
96
96
98
103
109
110
112
110
107
107
110
112
109
107
110
112
112
112
109
107
107
107
105
105
107
110
110
114
118
116
118
118
118
118
116
86
84
84
87
89
89
89
87
82
70
61
54
50
55
57
60
61
63
63
61
56
56
59
64
73
82
94
101
98
93
94
96
100
107
112
114
112
107
105
109
112
112
110
110
112
110
107
109
105
103
103
101
101
105
109
112
114
114
116
118
116
116
116
118
84
82
84
87
91
93
91
87
84
74
67
60
54
52
56
60
60
61
61
61
57
59
63
67
73
81
89
98
96
93
91
94
96
103
110
116
118
114
110
110
112
112
112
110
109
107
103
103
101
103
101
100
101
105
109
112
114
112
114
116
116
114
116
118
84
82
84
86
91
93
89
87
82
76
73
66
59
55
54
60
63
61
63
61
60
63
66
70
76
81
86
94
100
98
94
94
98
101
109
114
116
116
116
116
110
110
110
110
109
107
105
100
98
101
103
101
101
105
109
110
112
110
112
114
114
114
120
118
84
87
89
87
87
89
93
86
81
78
76
71
67
59
55
57
63
63
64
64
64
67
70
76
79
81
84
91
100
101
100
96
96
100
107
112
116
116
116
114
109
109
112
110
105
105
103
100
96
98
101
101
101
105
110
112
112
109
110
112
114
116
114
118
89
89
93
91
87
86
87
86
81
79
79
74
73
68
63
59
61
66
67
67
68
71
78
86
87
84
84
89
100
100
100
100
100
100
107
109
116
116
114
114
112
110
112
107
107
103
105
101
98
98
101
101
103
105
107
112
110
110
110
110
112
116
114
120
89
89
91
91
87
84
87
86
82
81
79
78
76
76
73
66
64
68
74
76
76
79
87
91
94
93
87
91
98
100
103
103
103
101
103
105
110
116
116
112
110
110
110
107
105
103
98
98
101
101
103
105
105
107
109
112
110
109
110
107
109
112
116
121
84
87
87
89
87
86
87
89
82
79
79
78
78
79
78
74
71
76
82
84
86
89
94
96
98
96
91
91
98
100
105
109
105
100
100
101
105
110
116
112
110
112
110
107
103
101
98
98
101
101
105
107
107
107
112
112
110
110
109
107
109
112
118
121
84
86
89
89
91
87
89
89
84
79
79
78
79
79
81
81
84
87
89
93
94
98
103
105
100
96
93
91
96
100
107
110
109
101
100
100
100
105
110
112
114
112
110
109
107
105
101
100
100
101
105
109
107
107
109
110
109
110
110
107
107
112
118
121
86
87
87
87
87
86
84
86
84
82
81
79
79
81
84
87
89
94
96
98
100
105
107
103
100
94
91
89
93
98
103
109
109
103
100
98
98
101
109
114
116
116
114
110
109
109
103
100
100
103
105
107
107
107
109
110
112
112
110
112
112
112
120
123
86
86
87
84
86
84
86
87
84
81
82
82
79
79
84
89
91
96
98
100
101
107
107
103
98
94
91
87
89
96
101
107
109
109
101
98
94
100
105
114
118
120
116
114
112
109
105
103
103
107
109
107
109
107
110
109
112
112
110
112
112
112
120
123
87
84
86
84
86
82
86
84
79
78
78
81
79
82
89
91
94
94
98
101
103
109
109
105
98
91
89
87
87
93
100
103
107
110
105
98
94
96
101
110
116
118
118
116
112
110
109
109
109
107
107
107
105
109
109
110
110
110
109
110
112
112
118
123
89
86
84
82
84
81
81
82
81
79
79
79
79
84
89
93
96
96
96
101
103
107
110
105
98
91
89
89
87
93
98
100
103
110
110
100
94
96
98
103
110
116
116
116
114
116
114
112
110
107
107
107
109
109
110
110
109
110
109
110
112
112
118
123
86
84
82
82
82
81
82
82
82
81
79
81
82
86
91
94
96
96
98
98
103
103
105
107
103
96
93
94
93
94
96
98
98
103
109
103
96
94
93
96
105
110
114
114
116
118
116
114
112
109
110
112
112
110
112
110
107
109
112
116
116
114
116
121
84
82
82
82
82
82
84
84
82
81
79
81
82
84
91
96
98
98
101
100
101
101
105
107
107
103
101
100
100
96
98
96
93
94
101
107
100
94
91
89
96
107
112
116
118
120
114
114
112
110
112
114
112
112
114
114
109
109
114
118
114
116
116
120
84
82
82
81
81
82
84
86
84
79
79
81
81
84
91
94
96
98
98
101
100
103
105
107
109
105
107
105
101
98
96
96
91
87
93
100
100
94
87
89
94
103
110
114
116
118
114
114
114
114
118
116
114
114
114
112
109
110
116
116
112
114
114
116
84
87
84
79
79
84
86
86
82
79
79
79
81
84
93
94
94
98
98
101
100
103
105
107
107
107
107
105
103
100
96
96
94
91
89
91
93
91
89
91
94
101
110
114
116
118
116
116
116
118
118
114
109
110
112
112
110
112
114
112
110
110
112
114
82
86
82
79
78
84
87
84
79
79
81
81
82
86
93
94
98
101
100
101
103
107
107
107
107
109
109
109
105
101
98
98
98
93
86
86
89
93
93
91
94
100
107
114
116
118
118
116
114
116
116
114
112
112
112
112
114
116
114
114
112
110
110
112
81
81
79
78
81
82
84
79
78
76
78
79
84
87
93
96
100
105
103
105
107
109
107
107
107
109
110
110
109
103
100
98
98
93
86
82
84
87
91
91
94
100
105
110
116
120
121
120
116
114
114
116
114
114
116
114
114
114
114
116
110
110
109
110
82
82
79
78
79
82
86
79
78
76
74
78
82
87
93
96
100
103
105
105
107
109
107
109
109
107
109
110
110
109
103
96
93
89
84
79
78
84
87
91
94
98
103
107
112
118
120
120
120
118
116
116
118
116
116
114
114
114
116
114
112
109
109
109
79
82
79
78
81
82
82
79
78
74
73
76
82
87
93
94
100
105
105
105
105
105
107
109
107
109
110
109
109
109
109
100
91
87
82
78
74
81
84
84
89
94
100
103
110
114
118
120
118
120
120
120
118
116
114
114
116
114
114
114
109
107
110
109
78
79
81
81
79
82
81
78
76
76
74
76
84
86
91
94
98
105
107
107
105
100
101
105
105
110
112
110
112
109
109
107
94
86
79
76
76
79
82
84
84
89
93
98
103
110
116
121
121
120
121
120
118
116
114
112
112
110
112
112
110
109
107
105
78
79
81
81
81
84
81
79
74
74
76
81
86
84
87
94
98
103
105
107
105
101
101
103
103
107
109
109
110
112
110
112
103
84
74
71
73
76
82
86
82
82
87
91
96
105
112
120
120
121
120
120
118
120
118
114
112
112
109
109
109
109
105
103
78
81
81
81
79
81
79
76
74
76
78
82
86
86
89
94
98
101
101
101
107
103
105
105
103
107
107
109
109
116
116
114
109
91
74
71
74
76
78
82
84
81
81
84
91
100
107
116
120
121
123
120
118
120
120
118
114
109
109
107
107
107
103
103
81
79
82
84
84
81
81
79
78
78
81
82
86
86
89
94
98
98
98
100
105
105
105
107
105
107
109
109
112
116
116
114
112
101
81
71
74
74
76
78
81
79
76
76
82
89
100
110
118
121
121
121
120
121
121
120
116
110
109
103
105
103
105
105
84
82
82
86
86
87
86
84
79
79
82
82
84
86
89
94
98
96
96
96
98
101
105
110
109
110
110
110
112
118
116
114
112
105
91
78
73
73
73
73
78
79
74
71
76
82
89
100
114
120
121
123
121
121
121
121
118
114
109
103
103
101
105
103
87
86
86
87
87
89
89
87
82
81
81
81
81
82
87
91
94
94
94
96
100
101
105
109
109
112
114
116
118
120
120
118
116
110
100
84
74
73
70
68
73
76
73
71
73
74
81
91
103
114
120
121
121
121
121
120
118
118
112
109
107
105
103
101
91
89
89
91
91
91
93
89
84
81
82
86
82
82
87
87
89
91
91
93
96
101
107
110
112
114
118
120
121
120
121
121
118
112
107
96
82
76
70
67
70
73
71
71
71
71
74
81
91
103
114
120
121
120
121
123
121
121
118
112
109
105
103
96
94
94
94
91
91
93
89
87
86
82
84
86
84
86
89
91
93
94
93
91
93
100
107
110
114
114
120
121
121
121
121
121
118
114
112
103
91
79
73
70
71
74
73
74
71
68
68
71
79
93
103
116
123
121
123
125
125
123
120
114
110
107
103
100
94
94
94
93
93
93
91
91
87
82
82
84
87
93
96
100
101
100
96
94
94
100
105
110
114
114
118
118
120
118
118
116
116
116
114
110
100
84
73
68
70
73
74
73
71
67
66
66
70
81
94
109
121
123
127
127
127
125
121
118
114
110
109
105
100
100
98
98
94
96
96
94
89
87
84
86
93
100
105
105
105
103
101
101
100
100
105
112
116
116
120
118
118
116
114
112
116
120
120
116
107
89
73
67
68
70
73
73
71
70
64
64
67
73
84
101
116
123
129
131
131
127
123
120
116
114
112
107
107
105
101
101
98
98
98
94
91
89
87
91
98
103
107
109
110
109
109
109
105
101
105
112
116
118
118
120
118
114
110
112
116
121
127
123
114
96
76
68
68
70
71
73
71
71
66
61
66
70
74
87
105
120
127
131
131
127
121
120
118
114
112
105
109
107
103
103
101
100
96
94
93
91
93
96
100
105
110
110
112
114
114
114
109
103
103
110
116
120
120
118
116
110
110
112
116
123
129
127
116
100
82
73
70
71
74
76
74
71
68
61
61
66
70
78
91
110
125
129
131
127
123
121
118
114
110
105
110
109
103
101
100
98
98
94
94
94
96
98
103
107
110
114
118
114
114
116
112
105
105
110
116
120
121
118
114
110
109
109
116
123
127
125
114
101
93
82
74
74
76
78
74
71
68
63
60
60
66
71
79
100
120
127
131
127
127
123
118
116
110
103
110
109
103
101
101
98
98
98
96
98
100
101
105
107
112
114
114
114
114
116
114
107
105
110
116
121
121
120
112
110
110
112
118
125
127
121
110
101
98
93
82
79
79
78
76
74
71
67
63
60
63
66
74
87
110
121
125
125
125
123
118
116
112
105
110
105
105
103
103
103
103
103
103
103
103
103
105
107
112
112
112
114
116
116
114
107
103
109
116
120
121
116
112
110
112
114
118
121
123
116
109
101
100
100
93
84
79
76
76
76
73
68
64
59
60
64
67
78
98
116
121
123
125
123
118
114
110
105
109
105
107
105
101
103
105
105
105
105
103
105
107
109
110
109
112
112
112
112
112
107
101
107
112
118
118
114
110
109
109
112
116
120
116
112
109
103
101
105
101
93
81
76
74
76
74
68
64
60
59
61
64
71
84
107
120
123
123
121
118
112
107
105
109
107
107
105
101
103
105
103
105
105
105
107
107
107
107
109
110
112
112
110
112
107
100
105
109
112
112
109
107
105
105
110
116
118
112
112
110
103
103
109
107
100
87
78
74
74
73
70
64
61
60
57
61
67
76
96
114
123
123
120
116
110
105
105
