P2
# 59 of 608 Angiograms
64 64
255
91
93
93
87
87
91
91
91
94
94
93
87
74
66
61
59
59
56
57
56
51
45
45
55
70
82
89
93
98
105
110
114
114
116
112
109
105
101
98
96
96
96
93
91
93
96
98
96
96
98
101
101
105
107
107
112
112
112
110
107
109
107
105
107
89
93
91
87
87
89
93
89
91
91
89
84
73
66
61
59
57
59
57
54
46
44
50
57
74
87
93
100
105
110
118
123
125
125
123
120
114
107
100
98
96
98
93
94
94
94
96
96
94
98
101
101
107
109
109
110
112
112
110
109
110
109
105
105
91
93
91
93
91
91
91
89
89
89
87
82
71
66
60
56
56
57
55
50
46
48
52
60
76
89
96
103
110
116
125
131
133
129
127
125
120
112
105
100
98
96
94
93
93
94
93
94
94
98
103
105
107
109
109
107
107
107
109
109
110
107
105
107
93
91
89
89
91
89
89
91
89
89
86
79
68
63
57
57
59
57
54
48
45
50
55
61
74
91
100
109
114
121
129
136
133
131
129
127
121
116
110
105
101
101
96
93
91
93
93
93
94
96
105
105
107
109
107
103
103
105
107
105
107
103
103
107
93
91
87
89
91
91
89
91
91
89
84
78
67
61
56
56
56
55
51
48
49
54
57
63
74
93
101
110
118
125
131
136
136
136
133
129
125
118
109
109
105
103
100
94
93
93
91
93
94
96
103
101
103
107
109
105
103
101
105
105
105
105
103
103
89
91
91
91
89
89
87
91
89
87
82
74
67
60
56
55
56
52
51
51
54
56
57
63
78
94
101
110
116
125
131
134
136
136
134
129
123
118
110
109
107
103
100
96
94
96
93
93
94
98
101
100
101
103
105
105
105
103
103
103
101
103
101
101
87
89
91
93
87
84
87
89
87
84
78
71
64
60
55
52
51
50
51
52
59
57
59
63
76
91
101
109
114
123
129
133
134
136
131
127
121
118
112
107
103
100
98
98
100
98
94
94
96
98
100
100
100
98
100
101
101
101
101
100
101
100
98
98
91
87
91
93
87
86
86
87
84
81
76
68
63
59
54
51
49
51
50
54
60
57
60
63
74
87
98
105
112
120
125
127
131
131
127
125
121
118
114
109
103
101
98
98
98
96
94
96
98
98
98
96
96
96
98
100
98
100
100
98
103
101
96
93
89
91
91
91
87
86
87
86
82
78
73
68
61
57
51
51
52
54
54
55
57
57
57
60
73
84
96
103
110
116
120
121
121
123
125
123
120
114
114
110
107
105
103
100
98
96
98
98
98
96
94
94
96
100
98
96
100
100
98
98
98
96
96
94
89
91
91
89
86
87
87
84
82
78
74
68
60
55
51
52
54
56
59
57
57
57
55
59
70
81
93
103
109
114
116
120
120
120
121
121
121
116
120
118
112
107
103
103
100
100
98
98
101
96
94
94
93
93
93
96
98
100
98
96
96
98
96
96
93
89
91
87
84
86
84
81
81
78
76
68
59
54
52
55
55
57
56
56
59
59
59
57
67
79
91
101
107
110
112
118
120
121
121
121
120
118
121
120
116
110
103
103
101
101
98
100
101
98
98
96
94
94
94
96
100
100
100
94
100
101
100
100
93
91
89
84
82
82
82
79
81
82
74
66
55
52
55
59
60
55
56
55
57
57
56
57
66
78
87
100
105
109
112
116
120
121
125
123
121
120
120
118
116
112
109
107
105
105
103
103
103
103
98
94
98
96
98
100
100
100
100
100
103
105
105
105
89
87
82
82
81
82
84
84
82
81
73
59
52
55
57
60
59
55
57
56
59
57
56
59
64
74
84
98
103
110
112
116
121
123
127
123
123
120
118
116
116
110
109
107
107
109
105
109
107
105
100
98
100
100
101
101
103
101
105
107
107
107
107
107
84
81
81
81
84
84
82
82
81
78
67
56
54
59
60
63
60
54
55
57
57
57
57
59
66
74
81
93
103
112
114
118
121
121
123
123
120
118
114
114
112
109
110
109
110
110
110
110
109
105
101
103
103
105
105
107
109
107
109
109
109
107
109
110
82
79
79
82
84
86
87
86
82
76
61
56
57
61
61
63
59
56
55
57
57
57
59
60
67
76
79
87
100
112
118
120
118
118
120
121
118
116
114
110
109
109
110
109
112
114
112
112
110
107
107
107
109
107
107
110
110
110
109
110
109
109
110
112
81
81
81
82
86
84
86
86
82
71
59
56
59
60
59
60
57
57
57
55
56
55
59
63
71
76
78
84
93
105
114
118
116
118
118
114
114
112
109
107
107
105
109
110
112
114
116
114
112
110
105
109
109
105
105
110
110
109
110
112
114
114
114
114
78
78
82
86
87
82
84
84
79
67
56
55
59
60
57
59
56
55
55
55
56
57
61
64
73
76
76
81
87
98
107
112
112
114
112
112
112
109
107
105
107
107
109
110
112
116
118
114
112
110
105
107
109
105
107
110
110
112
114
114
118
120
118
118
79
78
84
89
87
86
86
84
76
63
55
54
56
57
59
60
55
54
54
54
55
57
61
64
74
79
76
79
84
91
100
107
109
109
109
107
107
107
109
105
107
107
107
110
114
118
118
114
110
107
109
109
107
107
110
110
112
112
110
114
120
121
120
116
79
78
81
84
86
84
86
82
71
57
54
55
55
56
57
57
56
54
55
54
54
57
60
63
73
79
78
81
82
89
96
101
107
107
105
105
103
105
107
105
109
107
109
114
118
116
114
114
110
110
110
109
105
107
107
107
109
110
109
112
116
120
118
114
82
79
79
79
82
84
86
81
68
55
52
59
57
59
57
57
56
56
54
54
52
56
57
63
73
79
81
79
84
89
96
100
105
103
105
103
103
103
101
103
105
107
109
112
116
116
114
112
112
110
109
107
105
103
103
103
105
107
109
112
114
116
116
114
84
81
81
79
82
82
84
78
68
56
52
57
57
57
57
57
57
56
55
54
52
55
59
66
76
82
84
86
87
94
96
100
103
105
103
103
103
101
101
103
103
105
110
112
112
114
114
114
110
109
107
105
103
103
101
103
107
110
114
116
114
116
112
110
82
82
84
86
86
82
81
76
70
61
54
55
57
57
59
57
59
59
55
54
54
56
60
67
78
86
89
89
93
93
94
98
101
107
105
109
107
103
103
103
107
109
114
112
112
112
112
110
109
105
105
103
101
100
100
101
107
114
114
114
114
112
109
110
82
84
89
89
89
82
79
76
73
66
55
52
55
57
56
59
61
60
57
56
57
57
60
67
76
86
91
93
94
93
93
96
100
107
105
105
105
103
103
107
110
114
112
110
110
110
110
109
107
107
103
101
98
98
100
100
107
112
114
112
110
112
109
110
84
84
86
89
87
84
81
78
76
70
63
55
55
55
56
60
63
60
59
60
61
60
63
66
73
82
91
96
100
94
93
94
96
105
107
109
109
107
105
109
112
112
114
109
109
110
110
107
105
101
101
103
100
98
101
103
105
110
114
112
110
110
107
110
84
86
86
87
89
86
84
79
76
73
68
60
54
52
56
60
61
59
57
59
60
61
66
67
71
82
91
98
98
94
91
93
94
101
107
112
114
112
109
110
110
109
112
112
109
109
110
109
103
100
101
103
100
98
103
103
105
109
109
110
110
109
107
110
82
84
84
84
87
86
84
81
79
79
74
68
60
52
55
59
63
60
59
61
61
66
68
68
73
81
89
98
101
98
93
91
91
98
107
109
110
112
109
110
110
110
110
110
107
109
110
109
103
101
100
103
101
100
101
103
105
109
109
110
109
107
107
110
84
84
84
86
84
84
82
82
81
81
78
73
67
60
59
60
63
63
61
64
68
73
76
76
74
78
86
96
103
103
98
94
93
96
105
112
109
110
109
109
110
110
110
109
105
107
107
103
103
103
101
101
101
101
103
103
107
109
107
107
109
105
105
109
86
87
86
87
87
87
86
82
84
82
81
78
74
71
64
61
66
68
71
73
78
82
82
82
79
74
82
94
105
105
103
96
93
96
101
110
110
110
109
110
107
109
110
109
105
105
105
105
103
103
101
105
105
107
105
107
110
112
110
107
107
103
105
109
86
89
87
86
86
87
82
79
82
81
82
81
79
81
76
70
71
74
78
81
86
89
86
84
81
74
79
93
103
109
107
98
94
93
96
105
110
110
112
112
110
109
109
109
105
107
105
103
103
103
101
107
107
109
109
107
110
112
110
110
109
105
103
109
82
84
86
86
84
82
82
79
81
81
79
81
79
81
82
79
78
81
84
86
87
89
91
87
82
79
81
93
100
109
112
103
96
93
91
98
107
109
112
110
112
110
107
103
105
107
107
107
103
100
101
107
107
107
109
112
109
110
109
109
107
107
109
110
81
84
86
87
84
81
79
76
76
81
81
81
78
81
84
84
84
86
87
89
93
94
94
93
86
81
81
89
98
105
112
107
100
93
91
94
100
105
110
114
112
110
109
105
107
110
110
109
105
100
103
109
110
109
110
110
109
110
110
110
109
107
109
110
79
79
84
84
82
79
79
76
76
78
79
79
79
82
86
86
84
87
91
93
96
98
98
94
86
84
81
87
94
101
107
107
103
96
91
93
96
103
112
114
112
110
110
107
103
109
109
107
105
101
105
109
110
109
110
110
110
109
107
107
109
105
107
105
79
81
82
82
79
79
78
76
76
78
81
81
82
82
87
87
89
91
93
94
96
98
100
93
86
84
82
84
93
98
103
109
107
98
93
89
91
100
109
112
114
112
112
110
107
109
109
107
105
105
107
110
109
109
109
110
110
107
105
110
109
107
107
107
79
82
82
84
81
81
81
81
78
78
81
81
81
84
86
87
89
91
93
96
98
100
100
94
89
87
87
86
91
98
100
105
109
103
96
93
89
91
101
109
110
114
110
110
114
112
110
110
110
110
109
110
109
107
109
109
109
107
109
109
110
112
110
110
79
82
84
86
82
81
82
81
76
73
79
79
81
82
89
89
89
91
93
96
98
100
101
98
94
93
91
89
89
96
98
101
107
107
100
94
87
89
94
101
107
110
114
114
114
114
112
110
110
109
109
107
109
110
110
107
109
109
110
112
110
112
110
112
82
84
81
81
79
79
81
78
74
76
76
78
81
84
87
91
89
89
91
96
98
101
103
100
96
98
94
91
91
96
96
98
101
107
105
94
91
87
89
96
101
110
114
116
116
116
114
109
107
109
109
109
110
112
112
109
110
112
112
112
110
109
112
114
81
81
81
79
79
81
81
79
78
78
78
78
79
82
86
89
93
91
91
94
98
101
103
103
98
98
96
94
94
96
96
96
96
101
105
100
89
84
86
93
98
107
112
116
114
114
114
112
107
109
110
109
110
109
110
109
112
116
116
116
114
114
114
112
81
79
79
82
82
84
81
79
79
79
78
78
81
84
86
89
89
89
91
94
96
98
101
105
101
103
101
100
96
96
94
94
93
93
96
96
89
84
87
91
94
105
110
116
116
112
112
112
110
109
109
109
110
109
110
110
114
118
118
116
116
118
114
110
79
78
78
82
81
79
79
79
79
76
76
78
81
82
86
87
89
93
94
94
94
94
98
103
103
101
101
100
100
98
96
94
89
87
87
91
89
86
87
91
93
103
110
114
116
110
109
109
109
109
109
109
109
109
109
110
114
118
118
118
118
114
110
107
79
79
78
81
79
78
79
78
78
76
78
79
81
81
84
91
91
93
94
96
94
94
96
100
101
103
105
103
103
100
98
98
89
86
86
86
87
86
87
89
91
100
109
116
118
112
110
109
109
110
109
109
109
110
110
110
114
120
118
120
118
112
109
105
79
81
81
79
79
78
78
78
78
78
78
79
79
79
86
91
91
91
93
96
96
96
96
100
101
105
107
109
109
105
100
96
89
84
81
82
82
82
84
86
89
96
105
112
118
118
114
116
114
112
112
112
112
114
112
114
116
116
116
120
118
112
109
105
82
82
81
81
79
78
76
78
76
78
79
79
79
79
87
93
93
91
94
98
98
96
96
100
103
107
110
112
110
109
101
94
87
79
78
79
81
81
82
86
87
93
101
107
116
120
118
118
118
114
112
112
114
114
114
116
114
116
116
118
116
110
107
105
84
84
84
81
79
76
76
76
76
76
78
79
79
82
89
93
91
93
98
100
100
100
101
101
105
109
109
112
112
110
105
93
79
73
71
76
78
79
79
81
84
87
96
103
110
114
116
118
116
114
110
114
116
118
120
118
114
116
116
116
112
109
105
103
81
82
86
82
79
78
76
78
76
74
78
79
81
86
93
93
94
94
98
100
103
103
101
101
101
107
109
110
112
114
107
93
76
68
67
71
76
81
76
76
79
84
93
100
107
110
116
118
118
118
118
120
118
118
116
114
114
116
114
112
112
107
103
100
82
82
84
84
79
79
78
79
79
76
79
81
82
84
89
93
93
96
98
103
103
103
101
101
100
105
105
107
110
112
109
96
78
63
66
71
73
79
78
74
74
79
86
93
101
107
112
118
120
118
120
120
120
118
114
112
112
112
112
112
109
105
101
100
82
82
86
86
81
78
78
81
81
78
78
81
82
84
86
91
91
91
96
101
101
100
101
101
100
101
105
107
110
112
112
103
86
66
66
68
71
78
79
78
74
78
81
86
94
101
110
116
118
118
118
120
120
120
118
112
110
110
112
109
105
101
100
100
86
86
86
84
82
79
79
82
81
81
79
81
82
82
84
87
89
89
94
100
103
101
100
101
101
105
107
109
109
114
116
109
94
74
68
68
70
74
78
79
78
76
73
78
82
94
105
114
118
121
121
121
120
120
120
118
114
114
114
107
103
100
100
98
91
89
87
84
84
82
84
84
84
82
81
82
84
82
86
86
89
89
91
94
100
101
100
101
101
105
109
109
110
112
114
110
100
86
74
71
68
71
76
81
78
76
70
71
76
86
98
110
116
118
121
125
123
121
121
121
120
118
114
107
101
98
100
96
93
91
87
84
86
87
86
87
87
82
81
81
81
84
87
86
89
89
89
91
96
98
98
101
103
107
109
112
114
112
116
110
103
94
82
74
71
67
71
76
79
76
70
68
70
76
87
100
110
118
123
125
125
123
123
123
121
118
114
110
103
98
96
96
93
91
89
86
84
86
87
86
87
86
79
79
84
87
87
89
89
89
89
89
93
98
98
103
107
109
112
116
116
114
112
109
103
100
87
79
73
70
70
74
76
78
73
68
67
68
79
87
100
112
121
127
127
127
127
125
121
120
116
114
109
103
98
98
93
93
91
89
87
86
86
86
86
86
81
84
91
93
93
96
98
98
94
89
91
98
101
109
110
114
116
118
116
112
110
109
105
103
96
86
74
68
71
74
78
79
76
71
67
66
67
78
89
105
118
125
129
131
129
127
123
121
118
114
112
109
105
101
103
101
96
94
93
89
87
87
87
86
84
87
94
98
101
103
103
105
101
96
91
98
105
110
114
114
118
118
114
109
105
105
110
109
103
93
78
70
71
74
74
78
78
76
67
64
61
67
79
94
112
123
129
131
127
123
123
123
120
116
114
112
110
105
105
105
103
101
98
93
89
89
89
87
87
89
96
100
105
107
105
107
107
103
96
96
107
112
116
114
116
116
109
105
103
107
110
112
109
100
86
74
70
70
71
76
76
76
68
66
63
64
71
84
103
120
127
129
125
123
125
125
123
118
118
114
112
109
105
105
105
101
101
98
91
89
91
89
91
94
96
101
105
105
107
105
107
107
103
101
109
112
116
114
112
109
103
101
101
107
112
112
112
107
94
79
71
70
73
74
78
74
73
68
64
61
66
73
87
109
121
127
125
125
125
125
123
120
118
116
116
112
105
103
103
100
101
100
94
91
93
94
96
96
100
105
107
105
109
110
112
109
105
105
109
114
114
114
112
103
100
100
103
112
118
116
114
107
100
87
78
74
78
76
74
76
76
71
66
59
61
67
78
94
114
125
125
125
125
125
121
118
118
116
114
114
107
103
100
98
100
101
100
96
96
96
96
98
101
107
109
107
107
109
114
110
105
103
109
114
116
116
110
100
98
100
105
114
121
118
114
107
100
94
86
82
81
78
74
74
74
74
68
63
60
63
68
82
101
120
125
127
127
123
121
118
120
118
114
114
107
103
101
101
101
101
105
103
100
98
98
100
105
109
110
107
107
105
110
112
107
103
107
114
114
112
105
98
98
101
107
116
121
118
112
105
100
100
94
87
84
81
79
76
74
74
70
63
61
63
64
70
86
110
123
129
127
123
121
120
118
116
116
110
109
107
103
105
105
101
105
103
101
101
103
103
107
109
109
109
109
107
109
110
107
103
103
112
112
109
101
98
100
101
109
116
120
112
107
101
101
105
105
98
89
84
81
79
76
74
71
64
60
59
59
64
74
96
118
125
123
123
120
118
116
116
112
105
112
110
105
103
103
100
101
101
101
101
103
105
107
107
110
110
109
110
109
110
107
103
101
109
109
105
98
98
98
101
109
118
114
107
105
103
101
105
112
109
98
89
82
76
78
76
70
64
60
56
56
59
67
86
109
121
123
121
118
116
114
112
107
101
112
110
109
105
101
100
101
101
101
103
103
105
107
107
110
112
110
110
109
109
105
100
101
105
105
100
94
94
96
101
107
112
110
107
107
105
103
103
110
114
107
96
86
76
76
74
71
64
60
57
57
60
64
76
98
114
118
116
114
110
109
107
105
100
110
110
107
105
103
103
103
103
101
100
100
101
103
109
110
110
110
107
105
107
107
100
98
103
101
96
91
91
91
98
105
109
112
114
110
107
103
103
105
109
107
103
93
78
71
71
68
63
60
59
57
60
63
68
84
101
109
109
109
107
105
105
103
101
110
112
109
105
100
100
100
103
101
101
100
100
100
107
110
110
112
109
105
105
105
101
94
100
98
91
86
84
86
94
103
110
114
118
120
112
105
103
103
105
107
107
100
87
74
70
67
64
60
59
59
61
61
66
74
87
101
109
107
105
105
101
101
100
112
112
109
105
101
101
103
103
101
101
100
98
100
105
107
109
110
110
107
109
107
101
93
93
91
84
79
78
82
94
105
112
120
125
125
121
112
105
101
103
105
107
107
98
84
70
66
64
60
61
61
64
67
66
70
76
91
103
109
107
107
103
103
105
110
110
109
107
103
101
101
103
101
101
101
101
101
103
109
112
110
110
112
110
109
101
94
89
86
78
74
76
84
98
109
116
127
133
129
123
118
109
105
103
103
107
110
107
93
79
67
66
63
64
66
68
66
64
68
73
79
91
101
109
110
110
110
110
