P2
# 61 of 608 Angiograms
64 64
255
96
91
87
89
86
86
84
86
86
78
67
57
59
59
59
60
60
61
59
57
59
60
61
67
73
78
82
84
94
105
110
118
120
123
127
127
127
120
116
112
109
107
101
100
98
100
98
93
93
93
96
98
100
98
100
101
100
96
98
101
101
100
103
107
94
93
87
89
87
86
86
84
82
71
63
59
61
60
59
60
60
59
56
57
57
59
61
66
74
81
84
84
93
105
110
116
118
120
123
125
121
118
114
112
110
109
101
98
100
96
94
93
94
94
94
94
96
98
96
98
100
98
98
100
101
101
101
101
91
89
91
89
86
84
84
81
78
67
59
56
60
61
59
59
57
56
56
56
56
59
60
64
76
82
84
84
91
103
110
114
116
116
120
121
121
118
116
114
112
109
105
98
98
98
94
94
96
94
94
96
100
98
96
98
98
96
98
100
101
101
101
101
87
87
91
87
86
82
82
78
71
60
56
56
57
59
59
57
56
55
55
57
56
57
60
63
76
84
84
86
91
100
110
116
118
118
120
118
120
118
114
112
114
110
107
101
101
101
100
96
98
98
98
100
98
98
98
100
98
96
96
100
100
100
101
101
84
87
89
89
89
86
82
76
66
56
55
55
55
59
59
55
59
55
52
56
56
59
57
63
76
86
84
82
89
98
109
116
116
118
116
114
114
116
114
112
112
110
109
107
107
103
103
101
101
105
103
101
101
101
101
103
100
100
98
100
101
101
101
103
86
87
89
89
89
84
82
74
61
51
51
55
57
57
59
57
57
56
56
56
57
59
59
63
74
82
82
82
87
96
109
114
114
112
110
110
112
114
112
114
112
112
112
110
107
105
103
107
109
107
103
101
101
103
103
103
101
100
103
105
105
103
101
100
86
87
86
87
86
84
82
71
61
50
50
55
56
57
57
57
56
56
56
56
55
59
59
63
73
79
81
82
87
93
103
112
116
110
110
109
110
114
112
114
116
116
112
110
109
107
105
109
109
107
103
100
101
101
101
105
103
101
107
110
109
105
103
103
87
87
84
84
84
82
79
71
64
54
50
55
57
59
59
57
57
57
59
56
54
59
61
63
70
78
79
84
87
91
98
109
114
110
110
110
112
114
116
118
116
114
109
112
112
112
110
109
110
109
105
101
100
98
100
105
105
107
109
110
109
109
109
107
89
87
86
84
84
82
79
73
67
57
54
55
59
60
59
60
63
61
59
57
57
56
60
63
67
74
79
84
87
89
93
103
112
110
114
114
116
116
118
120
114
110
107
109
112
114
112
114
114
112
109
103
101
98
100
103
107
110
110
114
112
110
110
112
86
87
86
82
84
82
79
76
70
61
54
54
57
60
61
60
60
61
59
60
60
57
60
63
68
73
79
86
87
86
91
100
112
116
118
118
118
116
118
116
112
107
105
110
112
116
116
112
112
110
109
105
103
103
105
107
110
109
110
112
112
114
114
116
87
86
84
82
81
81
81
74
73
67
56
51
54
57
61
60
61
59
57
56
59
60
61
64
67
71
81
86
84
84
89
96
105
116
121
118
116
114
114
112
109
107
105
110
116
116
114
116
110
109
107
103
103
107
109
109
110
109
110
112
114
116
116
116
84
84
84
82
82
81
81
76
76
71
64
56
55
57
63
66
63
61
56
59
61
64
67
64
64
71
79
86
87
84
87
94
101
112
116
116
112
112
109
107
107
107
105
110
114
114
112
114
110
107
105
105
105
107
105
107
109
110
114
118
120
118
118
118
82
82
82
79
81
79
79
78
78
74
70
64
57
60
61
66
64
63
60
63
67
71
71
67
66
71
76
84
87
87
89
91
98
103
112
110
110
109
107
107
105
107
109
110
116
116
114
114
112
109
107
107
105
107
103
103
109
110
116
116
120
123
121
120
81
79
78
78
76
78
78
79
79
78
73
70
64
59
60
67
66
64
66
68
73
78
78
73
68
70
76
81
91
93
91
89
91
98
103
107
103
103
105
107
107
107
107
105
114
116
114
112
109
109
105
105
105
105
103
103
109
112
112
116
120
121
121
118
76
76
76
79
78
79
81
81
81
78
76
74
70
64
60
66
71
73
73
76
79
81
79
78
73
70
73
79
91
96
93
89
93
94
98
103
100
101
103
103
105
107
109
107
109
112
112
107
107
107
109
105
105
101
100
101
105
110
112
116
116
118
114
116
79
79
78
81
79
79
81
81
79
76
78
76
73
71
68
73
76
79
79
81
82
84
82
79
71
68
71
79
91
100
100
91
93
91
93
100
101
105
107
107
107
107
107
109
107
109
110
109
109
109
107
105
103
101
100
101
103
107
110
114
114
116
118
116
79
79
78
78
78
81
81
79
81
79
79
78
78
76
78
79
81
82
84
84
86
84
82
78
71
68
71
78
89
101
105
98
94
91
91
94
101
105
109
107
105
105
105
107
109
109
109
109
107
109
107
107
103
101
100
100
101
105
109
109
114
116
114
114
78
81
82
82
82
84
82
79
81
81
79
79
81
84
86
86
86
86
86
87
87
84
81
78
73
70
71
76
87
101
107
103
98
93
93
96
100
107
107
107
107
107
107
110
109
109
109
107
107
110
109
109
105
103
103
100
101
107
107
107
109
112
110
110
78
82
82
84
86
84
86
82
79
79
79
82
84
87
87
86
89
89
87
89
87
84
81
76
74
73
73
78
89
98
107
107
101
96
94
94
98
105
105
107
110
109
109
110
110
109
109
107
110
107
105
105
103
101
98
100
103
105
107
107
107
107
109
105
79
82
84
86
86
84
86
84
82
81
82
86
86
87
86
87
89
93
91
91
91
87
84
78
74
76
78
81
91
93
101
105
103
96
93
93
94
100
105
110
114
112
110
110
110
110
109
105
107
103
101
100
100
100
98
103
103
105
107
105
105
103
105
107
84
82
84
87
86
87
86
84
86
86
84
82
82
82
84
89
89
91
89
87
89
89
87
84
79
79
81
84
89
91
96
105
103
96
94
91
91
94
101
109
112
112
114
112
110
109
109
103
103
101
100
96
100
101
101
105
103
105
105
103
105
103
101
105
82
82
81
84
86
86
86
86
84
86
86
82
84
82
84
91
89
89
87
87
89
89
89
89
86
82
84
86
89
93
94
101
107
103
96
91
91
93
96
105
112
114
114
114
112
110
107
105
103
100
96
100
101
105
107
107
109
109
109
107
107
103
101
105
79
82
84
84
84
86
84
84
84
81
84
82
82
84
84
89
89
87
89
87
89
93
91
91
89
87
86
89
93
96
96
98
103
107
100
94
87
87
93
101
110
116
120
116
112
107
107
105
103
100
100
100
103
105
107
105
109
110
110
110
105
105
101
103
81
82
82
82
84
84
82
82
82
82
81
81
81
82
86
87
87
91
89
86
89
93
93
91
91
91
91
93
93
93
94
93
98
105
103
96
87
86
91
98
107
112
112
112
110
109
109
107
103
100
103
105
107
107
107
109
110
114
109
110
107
103
103
107
84
82
82
81
81
84
82
81
81
81
81
81
79
81
82
87
89
89
89
89
91
91
93
94
93
94
96
96
96
96
98
93
91
98
100
94
89
86
91
94
103
109
109
109
109
107
110
112
105
100
100
105
107
109
109
110
116
118
112
109
105
105
105
109
82
81
82
79
78
84
84
82
78
78
79
81
81
81
84
86
87
89
91
91
89
91
93
93
96
100
103
100
96
98
100
94
89
89
93
93
91
89
91
93
98
107
110
109
109
112
110
110
105
101
101
105
110
110
110
114
116
116
114
112
107
105
109
109
78
78
79
81
78
81
79
79
79
76
78
82
84
82
84
87
89
89
91
89
93
94
96
98
101
105
107
107
101
103
101
96
87
82
86
89
87
91
93
91
96
103
112
110
112
112
110
109
107
103
101
105
112
110
112
116
118
114
114
114
112
109
109
110
79
79
79
78
81
81
78
79
79
76
78
84
86
82
86
87
87
91
93
94
96
98
98
98
101
105
109
110
107
101
100
94
86
81
81
84
86
87
91
91
96
100
109
116
120
118
114
112
109
107
105
105
110
112
114
116
118
114
116
116
116
116
114
112
78
79
81
79
78
76
79
79
78
79
81
86
87
86
87
87
86
89
94
98
98
98
98
100
101
107
109
114
112
107
98
91
81
81
81
84
84
82
86
89
91
96
103
112
120
120
116
114
112
109
107
103
107
110
112
114
116
116
114
116
118
116
116
114
79
78
78
76
76
78
82
81
79
81
81
82
86
87
89
91
86
87
93
96
101
100
100
101
103
107
110
114
110
110
100
86
79
76
79
84
81
78
76
82
87
91
96
107
116
118
118
118
114
109
109
105
107
107
107
110
112
114
114
114
116
116
114
114
79
79
78
76
76
81
84
82
81
82
82
82
84
86
87
87
86
89
93
98
100
100
100
101
103
107
110
114
112
112
105
86
74
73
76
81
81
74
73
73
78
86
91
101
112
118
118
118
114
112
112
112
110
110
107
107
107
112
114
114
114
116
112
112
79
79
79
78
78
81
82
82
81
81
81
79
84
84
86
84
86
89
94
96
96
98
101
105
105
109
114
116
114
114
109
89
73
71
74
76
76
76
74
70
70
78
86
96
105
116
116
118
118
116
114
114
112
110
107
105
107
110
114
114
114
116
118
112
84
79
78
79
79
79
79
79
79
81
79
79
81
82
84
84
87
89
96
96
94
98
103
107
107
110
114
114
112
116
112
98
78
71
70
71
74
76
74
70
67
71
79
89
98
110
114
116
118
118
114
114
112
112
112
110
110
114
114
114
114
114
114
112
84
84
79
79
79
81
79
79
81
81
81
79
81
81
82
86
89
91
94
94
96
98
103
105
107
110
112
110
112
116
114
101
86
74
71
73
73
73
74
73
71
68
71
81
91
103
112
116
116
118
116
116
114
112
114
114
114
114
114
112
114
112
112
110
84
84
81
79
81
81
79
78
79
79
79
81
82
81
79
82
87
87
89
94
93
96
101
105
103
107
112
112
114
116
110
101
91
81
73
71
71
71
71
73
73
67
67
71
81
94
105
112
112
116
120
116
116
114
116
114
116
116
114
112
109
109
110
109
87
84
81
78
81
81
78
78
79
78
78
78
78
76
76
81
87
89
86
87
94
96
103
105
103
103
110
114
114
110
105
101
96
87
76
71
70
67
67
70
68
67
67
68
71
82
98
107
110
114
121
120
118
120
118
118
120
118
114
114
110
105
105
107
89
82
81
79
78
78
76
76
76
76
76
76
76
76
78
86
93
91
89
86
91
96
100
101
100
101
109
112
109
103
103
103
100
91
81
73
68
67
66
68
68
68
67
67
68
76
86
98
107
114
120
121
120
121
120
121
121
120
114
116
112
105
101
105
87
84
84
81
78
74
73
73
73
74
74
74
79
81
84
91
93
94
89
87
87
94
98
98
101
103
107
107
101
100
103
107
105
98
87
78
71
68
68
67
68
70
67
70
67
70
76
87
100
112
120
121
121
121
121
121
121
118
116
116
112
107
101
100
87
86
84
82
81
76
74
71
73
74
78
78
78
82
87
93
94
94
91
86
84
93
98
100
101
103
101
100
96
96
103
109
107
103
96
81
74
73
70
68
68
70
70
68
66
67
70
78
89
107
120
123
123
123
125
125
121
118
114
114
112
107
105
101
87
86
82
84
84
78
74
73
74
74
79
81
79
84
91
93
93
93
93
87
84
91
98
100
101
101
100
94
93
96
105
112
112
109
101
87
76
70
67
68
70
73
70
67
66
63
63
67
79
96
112
125
127
129
127
127
121
116
114
114
114
109
105
98
87
86
86
86
82
79
76
76
78
79
82
82
84
86
91
94
94
93
93
91
86
89
100
100
101
100
96
93
93
98
110
116
116
112
103
94
81
70
68
71
76
76
73
68
67
61
60
63
68
82
101
118
127
129
125
127
127
120
116
118
114
110
103
98
86
84
84
86
84
82
81
81
81
82
84
84
82
86
87
93
94
96
94
93
91
89
98
101
103
98
94
93
94
101
114
120
118
112
103
96
89
78
74
78
79
79
74
71
68
61
61
60
63
71
87
107
121
127
127
127
129
125
120
118
114
110
101
96
89
87
84
86
87
86
86
87
86
86
84
86
84
86
89
91
94
96
96
94
93
89
98
101
103
96
94
94
98
105
114
116
114
107
101
96
94
89
81
81
79
78
74
73
68
64
61
59
59
66
76
96
116
125
127
127
129
127
123
120
114
110
101
93
89
89
91
91
89
89
91
89
89
86
89
87
87
87
91
93
94
96
96
94
93
93
98
105
101
94
93
93
98
105
112
112
109
101
98
94
96
96
91
84
81
78
76
73
70
66
61
59
57
61
70
87
109
121
127
129
127
127
125
121
118
110
101
94
94
96
98
93
93
93
91
89
91
93
91
89
89
91
94
96
98
98
100
98
93
94
101
103
100
93
89
91
96
107
109
107
105
101
96
93
94
101
100
93
84
78
74
74
73
68
64
63
57
59
67
78
100
118
127
127
127
127
123
121
118
112
105
98
100
100
96
93
91
94
93
93
91
93
94
94
94
96
100
103
105
105
105
103
96
94
101
101
98
94
91
93
98
103
105
103
101
103
100
96
96
103
105
100
89
79
74
73
71
68
66
63
60
61
66
74
93
116
127
129
129
127
125
123
120
114
107
100
107
103
96
94
94
96
96
94
93
94
94
96
96
98
101
105
105
109
107
105
100
96
103
101
96
93
91
93
98
100
101
101
100
103
101
98
98
101
105
101
93
82
76
73
70
68
67
63
61
61
67
74
89
110
123
131
133
131
129
127
121
116
110
103
109
105
100
96
93
96
96
96
96
94
94
93
94
96
103
107
107
109
109
105
100
98
100
96
91
89
87
93
98
100
100
101
109
110
109
100
96
100
107
101
96
89
78
73
71
71
68
63
60
63
68
74
87
100
116
127
131
134
133
129
123
118
112
109
112
105
101
100
98
98
98
96
96
96
93
93
94
98
103
109
107
107
109
109
103
96
94
89
84
82
86
91
100
105
109
112
118
118
114
105
98
100
103
100
100
96
84
76
73
71
68
66
64
66
70
76
86
94
105
118
127
131
131
129
123
120
116
110
112
107
103
101
101
101
100
94
96
96
96
98
100
100
103
105
107
107
109
109
105
98
91
84
81
81
87
93
105
112
120
123
125
121
118
109
103
103
105
101
100
98
94
84
74
70
68
68
68
68
71
76
84
89
96
107
116
121
125
125
121
118
114
109
110
109
107
109
110
107
103
98
98
98
98
100
101
103
105
105
109
109
107
105
103
101
93
84
84
86
91
100
112
121
127
131
131
127
121
114
105
103
103
101
98
100
98
91
82
73
67
67
68
73
76
78
79
86
91
94
103
112
116
120
118
114
112
110
112
110
112
110
112
109
103
100
100
101
100
100
103
105
107
105
107
107
109
105
101
101
96
91
89
89
94
105
118
127
133
133
131
127
125
121
112
105
103
101
101
103
101
96
91
78
70
67
68
71
74
78
78
81
86
86
91
100
107
110
112
112
112
110
109
110
112
114
116
110
101
100
98
100
101
100
103
105
107
107
109
107
107
101
101
103
100
94
91
91
96
110
123
129
133
133
131
129
127
125
120
110
107
105
101
105
107
101
93
84
76
68
68
70
73
76
74
76
79
81
82
89
94
101
107
109
110
109
109
107
109
110
114
107
101
101
101
100
101
100
103
107
109
109
110
107
101
100
105
103
98
91
89
91
98
114
125
129
131
129
127
127
127
127
123
116
109
101
100
103
109
107
100
93
84
74
71
68
73
74
74
74
74
76
79
81
87
93
98
103
107
109
109
109
107
109
109
105
101
103
105
107
103
101
105
105
109
107
107
101
101
101
103
101
94
87
86
91
98
112
123
127
129
129
125
125
127
127
120
120
112
103
103
103
109
107
103
100
91
86
76
73
73
74
71
73
71
73
74
79
82
87
89
93
100
103
109
110
109
109
107
101
103
107
107
107
101
101
103
103
109
107
101
100
101
101
101
98
91
84
82
89
100
112
120
123
125
125
121
121
127
125
120
118
116
107
105
107
109
109
107
103
100
94
87
78
73
68
68
73
76
73
79
81
81
78
79
86
89
93
110
112
112
109
107
103
100
103
107
103
101
101
100
101
105
103
103
103
103
103
103
96
87
81
81
87
98
112
118
118
121
121
120
121
125
127
121
118
114
110
107
105
107
107
109
109
103
98
91
86
76
67
67
71
74
73
76
78
76
74
73
76
81
86
114
110
109
107
107
105
105
105
105
103
101
100
98
98
103
105
105
105
107
107
107
94
84
81
81
87
100
112
116
114
116
120
120
123
125
127
123
118
112
112
110
107
107
107
110
114
109
101
94
87
81
71
66
67
70
70
73
73
74
73
73
73
74
76
114
112
110
110
107
107
107
105
103
101
103
103
98
100
101
105
107
107
109
110
107
93
84
81
82
89
98
110
114
114
116
118
120
125
125
125
123
121
116
114
114
110
107
109
110
112
110
109
100
91
84
78
70
67
67
68
71
74
78
73
71
73
74
76
116
114
112
112
109
109
109
109
105
101
101
101
98
103
107
110
110
110
112
114
110
93
84
81
84
93
103
110
112
116
120
120
123
127
129
127
125
121
118
120
118
114
109
105
107
105
105
107
105
94
86
82
78
71
68
68
71
73
74
74
73
73
76
78
114
112
112
110
107
107
107
105
101
101
98
100
101
103
109
112
110
112
116
118
109
94
86
84
87
96
107
110
114
120
121
120
123
129
131
131
129
123
123
123
121
118
112
105
103
100
103
107
105
96
87
84
81
78
73
70
73
74
74
76
78
76
74
76
112
109
109
109
107
107
105
103
101
101
98
100
101
101
107
110
110
110
116
118
109
98
93
89
93
100
110
114
116
121
121
121
125
129
129
131
129
125
123
125
123
120
114
107
100
98
103
103
101
96
87
87
84
81
79
76
78
78
79
79
79
76
74
76
107
109
110
110
112
110
109
105
103
103
103
103
100
103
107
109
110
114
118
116
109
101
98
96
100
107
114
116
120
120
120
118
125
129
129
127
129
127
127
127
123
123
118
109
100
98
101
101
100
94
89
89
86
84
82
81
81
81
82
81
79
76
74
74
112
114
112
116
116
116
114
109
105
105
105
105
103
105
109
110
114
116
118
114
110
105
103
105
109
112
116
120
121
120
118
116
121
127
131
129
129
125
127
127
123
125
121
110
100
98
98
98
96
93
91
86
86
86
86
87
87
89
86
82
81
81
78
73
