P2
# 62 of 608 Angiograms
64 64
255
78
78
76
78
78
79
79
76
73
74
76
74
78
84
94
101
110
114
118
120
121
123
123
123
123
121
121
120
120
118
116
118
114
112
110
107
105
101
103
105
105
109
109
112
114
112
109
109
105
103
105
109
110
112
114
112
110
110
110
110
109
109
110
109
82
81
79
81
78
76
76
74
70
73
74
71
73
76
82
91
100
110
116
120
123
123
121
121
123
121
120
118
118
118
118
118
114
114
114
112
109
107
105
105
109
109
109
112
116
114
112
109
109
107
107
107
107
110
112
112
112
112
112
114
110
110
110
107
89
84
84
82
79
76
76
73
68
70
70
68
68
70
74
81
89
100
110
118
125
123
121
123
121
118
118
114
114
114
116
116
118
118
118
118
114
112
110
110
110
110
110
114
116
114
112
109
107
105
105
107
107
109
110
112
110
112
112
110
110
110
110
107
101
96
91
86
82
79
76
70
70
68
66
67
68
68
70
74
81
91
100
112
121
125
125
125
120
118
116
112
114
114
112
114
118
120
120
120
118
114
112
112
114
116
116
114
118
116
112
109
110
109
107
107
110
110
112
112
109
112
109
109
110
109
109
107
114
107
100
93
86
79
76
70
73
70
67
66
66
64
66
68
74
81
89
100
112
120
123
121
120
118
118
116
116
118
116
116
120
118
121
121
121
120
118
118
118
120
121
118
120
118
116
114
114
112
109
110
114
112
110
112
110
109
109
109
107
105
109
107
121
118
110
100
91
84
78
71
71
71
70
67
64
63
64
66
71
74
81
91
101
112
116
118
118
116
118
118
118
118
120
121
120
118
123
127
125
123
123
121
121
123
125
123
121
121
120
116
116
112
110
109
109
110
107
109
109
109
109
109
107
107
107
107
125
125
121
114
101
89
82
76
74
73
70
67
64
64
63
64
68
71
74
81
91
101
112
116
118
118
118
118
120
120
121
125
121
121
125
129
125
123
125
125
127
127
127
127
127
125
121
116
116
116
116
114
110
107
107
109
109
109
109
109
107
105
103
103
121
127
129
125
116
100
89
82
78
76
73
68
64
63
63
66
70
70
71
74
82
91
103
114
120
120
120
120
123
121
120
123
123
123
125
127
125
125
125
127
131
133
133
133
129
123
121
116
110
116
116
114
109
109
109
109
107
107
107
105
105
103
101
101
116
127
133
133
125
112
100
89
84
81
76
73
68
64
64
67
68
68
70
73
76
82
94
109
118
120
120
120
121
120
123
127
127
125
127
127
127
127
129
131
134
133
133
133
131
125
121
114
110
114
116
114
109
109
107
109
107
105
103
101
101
103
101
100
109
120
129
131
127
121
110
101
96
89
84
76
73
68
64
64
63
66
67
68
70
76
86
101
114
118
121
121
121
123
125
127
129
129
129
127
129
131
133
134
136
133
131
131
131
125
120
114
110
114
112
110
110
109
110
109
109
107
101
100
100
96
94
96
103
112
121
127
127
125
120
110
105
98
89
84
78
73
67
63
57
59
61
64
67
73
79
93
109
116
121
121
123
125
125
127
127
129
129
129
131
131
133
134
134
133
131
131
127
121
120
116
110
112
112
110
110
109
110
109
107
107
103
100
98
94
96
94
96
105
110
120
125
127
123
116
109
103
98
93
86
79
71
63
57
54
56
60
66
70
76
84
101
114
120
123
127
129
129
129
129
131
133
134
133
133
131
133
133
133
129
127
125
120
118
116
112
110
109
109
109
110
110
109
105
100
100
100
98
94
96
96
94
98
101
110
121
127
127
121
114
109
105
103
96
89
79
70
64
57
55
57
64
67
71
81
93
107
116
123
125
129
133
133
133
134
136
136
136
136
134
133
133
133
129
127
121
118
116
112
110
109
109
109
109
110
109
105
101
100
100
98
98
96
96
100
94
94
96
101
110
120
125
123
118
112
109
109
107
101
91
82
74
67
60
59
61
67
70
76
87
94
107
116
121
127
131
134
138
140
142
142
140
138
138
134
133
131
127
127
121
118
114
112
110
109
109
109
107
109
105
101
101
101
98
98
100
96
96
100
98
94
93
94
103
114
121
123
121
116
114
116
116
110
103
94
86
81
74
68
66
67
70
76
86
89
96
103
114
123
131
136
140
142
144
142
142
140
138
138
134
133
129
127
123
118
114
110
109
105
105
109
105
109
105
101
101
101
98
98
96
94
94
98
100
98
91
94
96
103
112
121
121
118
118
121
121
120
114
105
100
94
89
84
78
70
68
73
81
86
89
98
107
118
127
133
136
138
142
140
138
138
138
136
136
136
131
127
123
116
114
112
110
107
107
105
105
107
103
103
101
101
100
96
94
96
96
96
100
101
96
96
98
98
105
114
120
123
125
127
129
125
121
118
110
105
103
100
94
87
78
73
76
81
86
93
100
110
121
129
134
134
136
138
138
136
134
136
138
138
133
129
123
116
114
114
112
110
109
105
105
107
105
103
101
101
100
96
94
93
96
96
98
100
100
98
98
98
98
105
114
121
127
131
133
127
125
121
118
114
112
110
107
101
93
84
76
76
79
87
96
105
112
121
131
134
136
136
134
133
133
133
134
136
134
131
123
114
112
114
112
110
109
107
109
110
109
105
105
103
100
100
96
93
96
94
98
101
101
101
101
98
98
100
109
118
125
129
131
127
125
123
121
120
121
121
118
109
103
96
87
79
76
79
87
98
105
112
120
127
129
129
129
129
129
129
129
131
131
127
121
114
112
114
112
110
109
109
110
112
110
107
105
100
101
103
98
94
96
94
101
101
100
101
103
101
96
98
103
110
120
129
129
123
123
129
127
125
129
129
125
118
110
103
98
91
81
76
79
87
98
107
112
116
121
123
123
127
127
127
127
123
123
123
118
114
112
110
110
110
110
110
112
116
112
107
107
105
103
101
98
94
94
94
100
101
101
101
103
100
98
96
100
107
114
123
125
121
121
125
125
125
129
131
127
123
114
109
103
96
89
82
78
79
86
98
107
110
112
114
118
121
123
123
123
121
120
118
116
110
109
112
112
112
112
109
114
114
110
109
109
107
103
100
100
96
98
96
98
98
100
100
103
103
101
100
100
101
109
118
121
121
116
120
123
123
127
131
129
125
118
110
105
100
93
89
82
78
78
86
96
101
105
107
110
114
116
118
118
118
116
114
112
110
109
110
112
110
114
114
112
110
110
110
109
109
107
103
100
98
98
98
101
98
98
100
103
105
103
100
98
100
107
112
118
120
114
116
121
125
125
127
127
125
121
114
109
103
96
93
91
84
78
76
81
91
96
100
105
109
114
116
120
118
114
114
112
110
109
112
112
112
116
118
114
112
112
112
109
110
107
105
100
98
98
98
101
100
100
101
101
103
105
101
96
98
105
109
116
120
118
116
120
125
123
123
123
123
120
116
112
107
100
94
91
89
84
78
74
76
86
89
93
100
109
116
120
116
112
110
110
109
109
112
114
116
116
120
118
116
112
109
107
105
105
103
100
100
101
100
103
101
100
101
103
105
107
105
101
101
103
107
116
120
120
120
120
123
121
120
118
118
118
118
118
112
105
96
89
87
87
84
79
74
74
79
84
91
100
109
112
114
112
107
107
109
110
112
114
114
116
120
121
118
112
107
103
101
103
101
100
100
101
101
105
105
105
107
105
105
107
107
103
103
103
105
116
120
121
123
123
123
118
116
114
114
118
118
116
114
109
101
94
89
91
89
86
81
76
74
74
79
87
98
107
112
110
110
107
109
112
114
112
114
116
118
120
118
112
107
103
101
101
103
103
100
101
101
103
107
107
109
105
105
107
105
101
100
100
103
112
120
120
120
121
121
116
116
118
120
116
114
116
116
114
109
103
98
94
91
86
84
82
74
71
71
78
87
98
107
110
110
107
109
112
112
112
109
112
114
118
114
112
105
103
101
103
101
105
101
100
98
101
105
107
107
103
101
107
107
101
100
100
100
107
116
118
120
121
120
114
118
121
123
120
118
118
116
114
114
109
101
98
91
87
84
81
78
71
68
68
76
87
98
109
110
110
110
110
109
109
109
114
116
114
112
110
109
103
100
101
101
101
101
98
93
100
103
107
105
101
103
105
105
100
96
94
98
105
110
116
120
120
120
118
120
121
123
121
120
118
116
112
116
116
107
100
91
87
82
81
81
76
71
68
68
76
87
98
105
109
110
112
114
110
110
112
112
114
112
109
105
101
98
100
100
101
98
93
93
101
101
103
101
101
103
105
105
100
94
94
96
105
109
114
118
118
116
120
121
123
123
125
123
120
118
114
114
116
112
103
91
86
84
82
81
79
78
74
70
71
78
86
94
100
107
110
114
116
110
112
112
116
114
109
105
101
100
100
98
98
93
91
91
103
105
103
103
105
105
107
103
98
93
93
94
101
107
112
116
118
114
116
120
123
123
127
127
125
121
118
114
114
112
107
98
91
89
84
81
81
81
79
74
70
70
74
82
91
96
105
112
116
112
114
114
114
112
109
107
100
96
93
93
91
89
91
93
101
105
105
105
109
107
103
101
93
87
86
91
98
107
112
118
114
114
114
114
120
125
127
127
125
123
121
118
116
114
110
103
98
94
89
86
84
84
84
79
73
67
66
71
81
91
98
107
112
114
118
116
114
114
109
109
101
94
93
91
89
89
91
94
101
103
105
107
109
107
103
100
93
86
82
84
93
101
110
114
110
112
112
112
118
125
125
127
125
125
123
120
118
116
112
109
105
101
96
91
86
84
82
81
78
73
66
66
71
82
91
100
109
114
118
118
118
116
109
107
103
98
93
89
89
89
87
91
100
103
101
107
107
105
103
100
93
86
82
84
87
98
107
110
110
110
112
114
120
127
127
129
131
127
125
123
121
120
116
114
112
110
103
98
93
87
86
81
78
76
71
67
67
73
82
93
100
109
116
118
116
116
109
107
103
100
96
91
89
89
87
89
98
105
105
105
105
105
105
101
94
87
84
82
84
94
103
109
109
109
110
114
120
127
127
129
129
127
123
123
123
121
118
116
114
116
114
107
100
94
89
84
81
78
76
73
68
68
74
86
94
101
110
116
118
114
110
109
105
101
98
98
94
94
93
91
94
103
107
109
107
107
107
103
98
89
86
82
82
91
100
107
109
109
112
112
118
125
125
125
125
127
123
125
125
123
120
116
114
120
118
112
109
101
96
91
87
82
79
78
74
68
67
76
87
94
101
109
116
116
114
112
109
103
100
100
100
100
94
91
94
100
105
109
109
109
109
103
100
91
84
79
79
86
94
103
107
109
112
112
116
121
123
125
125
125
121
120
121
120
116
116
112
116
116
112
110
109
105
98
94
91
84
81
76
73
67
70
79
89
94
103
109
116
114
114
110
107
105
100
101
101
93
89
94
100
103
105
107
105
107
103
100
94
87
81
81
84
91
96
105
109
112
114
118
121
123
127
123
123
120
118
120
118
116
114
110
114
114
114
112
114
110
105
100
94
93
84
79
74
71
67
71
79
89
94
105
112
114
112
110
103
103
103
101
98
87
87
94
98
101
103
103
103
105
101
100
98
93
87
82
84
87
94
101
109
112
114
118
121
123
123
121
121
120
118
118
118
116
114
112
114
114
114
114
114
112
109
103
98
98
91
84
79
76
67
64
73
81
87
94
105
110
110
112
107
105
101
98
93
87
87
93
98
100
98
101
103
105
101
98
98
94
91
86
82
84
93
98
105
110
112
116
120
121
120
120
120
120
118
116
118
116
112
114
116
118
114
112
110
110
109
103
103
100
96
87
82
79
73
64
66
74
79
89
98
107
112
112
110
105
101
96
93
91
89
89
96
98
94
98
100
101
103
101
100
96
93
87
84
82
87
93
100
107
112
114
118
121
121
120
116
118
118
118
118
114
110
110
116
118
112
109
107
107
107
107
105
101
100
89
84
81
76
68
63
67
73
79
89
100
109
112
110
105
100
96
93
93
91
87
96
96
96
98
98
100
105
101
100
100
96
89
86
82
84
87
94
101
109
114
118
120
121
118
116
118
120
120
118
114
109
110
114
116
112
107
105
107
105
105
103
103
100
93
87
82
78
73
66
63
67
73
81
93
103
109
110
107
100
93
91
93
91
87
93
94
96
100
98
100
100
98
98
96
96
91
86
84
82
84
87
96
103
110
114
120
121
121
120
118
120
118
114
112
107
109
110
114
109
103
105
107
107
105
105
103
101
98
91
86
81
76
71
63
63
68
74
84
93
103
107
101
98
94
93
91
91
86
87
93
94
94
94
98
96
96
94
94
94
93
89
86
84
81
84
93
100
105
110
118
121
123
120
118
118
114
114
110
105
105
109
110
107
103
103
107
109
109
107
109
109
103
96
91
84
78
73
67
61
66
71
78
86
94
100
101
100
94
93
93
93
84
87
89
93
91
93
94
96
94
94
94
94
93
89
86
84
81
82
89
96
101
110
116
121
121
120
120
114
112
110
109
107
105
107
109
109
105
101
103
105
107
107
112
112
109
103
96
87
81
73
70
63
63
68
74
81
87
94
100
98
94
93
94
91
82
86
87
89
93
94
94
94
93
94
94
93
91
87
84
81
79
86
91
94
100
109
114
121
120
118
116
110
109
107
105
109
107
110
109
112
109
103
100
101
105
109
112
112
109
107
100
93
84
74
73
66
61
64
71
76
81
89
94
96
93
93
93
91
79
84
87
87
89
93
93
93
91
93
93
93
89
87
86
81
84
89
94
94
98
105
112
114
114
114
110
107
109
110
107
107
110
112
109
107
110
109
101
101
109
112
114
112
112
109
103
98
89
79
76
70
61
61
68
74
79
84
93
94
91
91
91
89
81
86
87
86
89
87
91
91
91
91
89
91
87
86
86
86
89
93
96
96
98
101
109
114
112
110
110
109
105
105
103
105
110
110
110
110
112
109
105
105
109
114
120
116
114
109
107
103
94
84
78
73
66
60
64
70
74
79
87
93
91
89
91
93
82
86
87
87
86
87
87
89
91
91
89
91
89
89
89
87
93
94
100
98
96
96
103
107
109
109
112
109
103
105
103
107
109
110
107
107
109
109
105
109
109
112
118
118
116
112
110
109
100
89
79
73
67
61
61
66
70
74
81
91
93
93
91
94
86
87
86
87
86
87
87
89
93
91
89
89
87
87
89
87
91
93
98
96
94
94
98
105
109
107
109
107
105
109
105
105
109
107
105
105
105
109
107
109
109
112
116
120
120
118
116
110
100
91
81
73
68
61
59
63
66
70
76
84
91
91
91
94
87
87
86
87
86
87
87
89
89
91
89
87
86
87
87
89
91
94
96
96
93
93
96
103
107
105
107
107
107
107
105
105
103
105
107
105
103
105
107
109
110
114
118
116
118
120
118
112
105
94
82
74
67
63
56
59
66
68
73
79
87
93
91
91
87
89
86
86
86
84
82
86
86
89
89
89
89
87
86
87
87
89
94
96
94
94
96
101
107
107
105
105
105
101
101
103
103
101
103
105
101
103
105
109
112
116
120
120
120
120
120
114
107
98
86
76
68
64
57
57
61
67
68
73
82
89
93
93
89
89
89
87
84
84
84
84
87
84
87
87
89
89
87
87
86
87
91
94
94
93
91
98
105
109
109
105
101
100
98
100
101
100
101
105
107
107
107
109
114
118
123
121
121
121
120
114
109
100
89
76
68
63
61
57
59
63
66
68
76
89
93
93
91
91
93
89
84
84
86
86
86
86
86
87
89
89
87
87
86
86
91
94
94
91
91
96
103
109
107
105
103
100
100
100
100
101
103
107
109
110
110
110
114
118
123
123
121
120
120
114
109
101
91
78
70
66
64
59
55
59
63
66
74
89
96
96
93
91
89
87
84
86
86
82
82
86
87
91
89
89
89
89
89
86
91
94
96
93
93
98
105
107
103
101
103
103
103
101
100
103
105
110
110
110
110
112
114
116
120
121
121
120
118
114
109
103
93
81
73
68
64
59
54
56
59
63
74
89
96
98
87
89
89
87
87
87
86
81
81
84
87
91
91
93
89
89
89
89
91
94
94
89
94
101
105
103
103
103
105
105
107
105
103
107
109
112
112
112
109
110
114
116
120
121
123
123
120
114
110
105
94
79
73
70
64
61
55
54
56
63
74
86
93
96
87
87
91
87
87
87
87
84
84
87
89
93
94
94
93
89
89
91
93
94
93
93
96
103
105
107
105
107
105
105
107
109
103
109
110
114
112
110
107
109
110
114
118
120
121
121
120
114
112
107
94
81
73
70
66
61
57
54
55
63
71
82
91
96
93
93
91
86
86
84
84
84
84
87
89
94
94
96
93
89
89
91
91
89
91
94
101
105
107
109
107
107
109
109
109
107
105
109
112
116
114
110
109
109
109
112
114
118
118
118
116
112
112
107
96
81
73
70
66
61
57
52
55
60
68
78
89
94
93
91
87
84
84
82
86
84
84
87
89
93
93
93
91
87
87
89
89
93
98
100
105
105
109
110
112
109
109
109
110
109
107
109
112
114
112
112
109
109
112
112
112
114
116
112
110
110
109
105
94
82
73
70
67
61
59
54
54
59
66
73
84
93
91
89
87
86
86
86
86
84
84
84
87
89
91
89
87
84
84
86
93
100
101
103
107
109
110
110
110
107
109
109
110
109
105
105
109
114
114
112
110
112
112
114
116
116
114
110
107
109
109
105
93
81
74
71
67
63
60
55
52
57
64
70
79
89
87
86
86
87
87
89
89
87
87
84
87
91
89
86
84
82
81
86
94
101
105
105
105
109
110
110
107
103
107
109
112
110
107
103
107
110
110
110
110
114
110
112
112
112
112
109
107
110
107
101
91
81
74
73
71
66
61
56
52
56
61
68
76
84
86
87
86
86
86
86
89
89
87
89
89
89
87
86
87
84
84
89
98
107
109
107
107
107
109
109
103
105
107
109
110
110
107
101
107
110
114
110
112
112
109
109
109
110
109
109
109
109
105
100
91
79
73
74
73
67
63
59
51
54
60
64
71
78
87
87
89
91
87
86
87
89
91
91
91
89
87
89
87
86
87
94
103
110
110
109
109
105
107
107
107
105
103
107
107
109
107
103
105
110
112
112
110
109
107
107
107
107
105
107
109
107
103
98
91
78
71
74
73
67
61
60
55
52
57
64
68
74
87
84
87
89
87
87
89
89
91
93
93
91
91
91
87
87
91
96
103
110
110
110
109
109
109
109
109
105
105
107
107
109
105
103
105
109
110
112
109
105
105
105
105
103
103
103
103
103
101
98
87
78
74
73
70
66
63
61
59
54
57
63
67
71
