P2
# 72 of 608 Angiograms
64 64
255
112
112
112
112
110
112
114
119
117
114
112
108
106
108
112
108
108
104
106
104
101
101
102
102
106
108
106
106
108
110
112
116
114
116
119
116
114
114
112
114
112
116
116
116
116
119
121
119
116
116
114
114
116
117
119
121
123
125
127
129
129
123
123
125
110
110
108
112
110
112
116
117
121
117
114
112
110
110
112
114
110
110
108
104
102
101
102
104
112
112
112
106
106
106
110
114
117
117
117
119
117
114
112
114
112
112
110
112
114
116
119
121
119
116
116
116
117
119
119
119
117
119
121
125
123
123
123
127
108
108
106
110
110
116
119
119
121
121
116
112
108
110
112
117
116
114
112
110
108
108
108
108
110
110
112
108
108
108
106
110
114
114
116
117
116
114
114
114
112
110
112
116
114
116
117
121
121
119
117
117
117
119
119
117
116
116
117
117
117
117
119
119
102
102
104
108
112
117
117
117
119
119
116
110
106
114
117
119
121
119
117
116
116
112
110
110
110
106
106
106
110
110
106
108
112
112
114
114
112
110
112
112
112
112
110
112
110
114
112
114
116
116
114
117
119
117
117
114
114
116
114
112
112
114
114
114
97
99
102
102
106
112
114
114
117
116
110
108
108
114
119
125
125
121
121
119
117
116
112
108
108
104
104
106
108
108
108
110
110
108
110
114
112
110
112
114
110
110
112
114
110
114
114
114
114
110
114
117
119
119
117
116
116
116
114
110
112
116
112
108
95
95
99
101
101
110
112
112
112
108
104
104
106
114
117
123
127
123
123
125
121
119
117
110
108
106
106
106
104
110
110
112
108
108
108
110
108
114
114
110
110
110
114
116
116
116
116
116
116
112
116
117
116
116
116
114
116
114
112
110
110
116
114
108
93
95
97
101
102
106
108
108
106
101
99
101
106
110
116
119
125
123
125
129
125
123
121
116
112
108
108
106
106
110
108
112
112
112
110
110
112
112
114
112
116
112
114
117
119
116
117
116
116
114
114
116
114
114
117
116
116
114
112
112
114
114
112
112
95
99
95
99
101
101
102
102
101
97
95
97
101
106
112
116
119
121
125
129
127
125
123
121
119
116
110
110
106
106
110
110
110
110
114
114
112
114
112
112
114
116
117
119
119
117
119
117
114
116
117
117
116
116
117
121
119
117
117
117
119
119
117
117
95
97
93
97
99
101
101
97
97
93
90
93
101
99
102
108
116
117
121
125
123
121
123
125
125
121
117
116
112
110
110
108
110
110
112
114
112
114
116
117
117
121
119
119
119
119
121
117
114
116
116
119
119
117
117
123
123
123
121
121
121
121
119
119
99
93
92
93
99
97
99
95
97
97
95
99
101
97
97
99
106
112
116
121
121
123
125
127
125
123
123
121
117
116
114
112
114
112
112
116
114
112
112
116
117
117
119
121
119
121
121
119
116
116
116
119
119
117
116
121
123
125
121
117
117
117
121
121
102
97
93
92
95
99
97
97
97
99
101
102
99
95
93
99
101
104
110
116
119
121
125
127
123
123
123
127
123
121
117
116
116
114
116
117
119
114
114
114
114
114
117
119
121
119
119
117
114
116
116
117
119
116
116
117
121
123
119
119
117
117
121
123
108
104
102
101
97
99
99
102
104
104
102
101
97
97
97
97
99
99
102
110
116
117
121
121
125
125
125
127
127
123
119
119
119
117
117
119
119
114
112
112
114
116
116
116
116
119
119
117
114
116
116
119
119
116
117
117
116
116
117
117
117
119
123
119
116
112
112
110
104
99
99
99
102
104
102
101
99
99
99
102
102
101
95
102
108
112
114
117
121
123
123
125
123
121
119
123
123
119
119
116
114
110
108
110
114
117
117
110
112
114
116
116
116
117
117
119
121
119
119
117
117
116
116
117
119
121
125
123
119
116
116
114
110
104
102
99
97
99
101
101
99
101
99
101
101
97
97
97
102
108
112
114
117
121
121
121
119
117
119
121
121
119
116
114
116
116
114
114
114
116
112
110
112
112
112
112
116
119
121
121
121
119
116
117
119
117
117
119
119
121
125
123
123
121
117
116
112
108
104
102
99
99
101
102
102
104
101
102
102
99
97
99
99
104
108
112
114
117
121
121
121
119
117
117
119
119
116
116
117
116
114
114
116
117
116
116
114
112
110
110
114
117
119
117
117
116
116
116
119
119
116
117
116
119
123
123
125
125
125
119
117
114
108
106
101
102
102
102
106
106
102
102
101
101
102
101
99
101
104
106
108
116
119
121
123
117
119
121
121
121
119
117
117
116
116
116
116
119
121
123
119
116
117
114
116
116
116
116
116
116
117
117
116
117
116
116
117
119
119
121
125
121
123
123
121
119
114
110
108
106
102
104
106
108
101
101
101
102
101
99
99
99
104
104
104
112
116
117
121
119
121
123
121
123
119
117
119
119
121
119
119
121
121
125
121
117
117
117
119
117
119
117
114
110
112
116
112
116
112
114
119
117
116
117
125
123
121
121
123
123
121
117
112
108
106
104
108
106
102
102
102
101
99
95
95
101
102
102
102
106
108
112
117
119
123
125
125
123
123
121
117
121
121
119
117
119
121
123
123
121
119
121
123
121
119
117
114
112
112
114
112
114
112
116
121
119
116
116
127
127
125
125
125
125
125
123
119
116
112
110
108
106
106
106
104
101
101
99
95
95
101
102
102
102
104
110
114
117
119
123
123
121
119
125
125
125
121
117
116
121
121
121
123
123
121
123
125
123
123
119
116
116
114
114
114
117
116
117
117
114
110
112
123
125
125
127
125
125
125
127
125
121
117
117
114
108
106
102
101
97
101
102
99
97
97
101
104
101
102
106
112
116
117
121
121
121
123
127
125
123
119
121
119
117
117
121
123
125
123
123
125
123
123
119
119
121
119
117
116
117
114
114
116
114
112
112
119
121
123
127
127
127
127
127
127
125
121
121
117
114
108
102
99
95
99
104
102
102
95
97
99
99
102
104
108
112
114
117
119
123
125
129
125
123
123
123
121
119
119
123
123
125
125
125
127
127
123
121
119
119
117
117
116
117
116
112
116
116
116
114
116
117
121
125
125
125
127
127
129
129
127
125
121
117
112
106
101
97
99
101
102
101
99
97
99
102
104
106
106
110
114
116
119
123
123
127
125
125
125
123
125
125
123
123
123
127
127
127
127
125
121
119
119
119
117
117
116
117
116
114
114
112
112
110
119
116
119
125
123
125
129
127
125
127
129
129
125
121
117
114
106
102
102
101
101
99
99
99
99
101
104
108
106
106
106
110
116
123
125
127
127
127
129
127
125
125
125
123
125
125
127
125
125
125
125
121
123
119
116
117
117
117
116
114
114
114
112
116
119
117
117
121
121
121
123
125
127
129
131
131
127
127
127
123
119
108
102
97
99
99
97
99
101
104
104
101
102
104
104
106
114
117
125
123
123
127
129
127
123
125
127
123
123
121
123
121
121
125
125
123
121
119
116
117
117
116
114
114
114
114
114
117
119
117
117
117
121
121
123
125
129
131
129
131
129
127
127
125
123
119
110
102
99
97
99
102
104
106
99
99
101
101
102
106
114
114
119
121
123
123
125
125
123
127
125
121
123
123
121
121
121
123
121
127
123
121
116
117
117
116
116
116
114
112
114
117
117
117
116
116
119
121
121
121
121
123
125
127
127
129
127
125
125
125
119
108
102
101
102
104
104
102
101
99
99
101
101
106
114
114
117
117
119
121
123
123
125
125
125
123
123
123
123
121
121
123
121
125
123
121
116
121
119
117
116
114
116
114
114
116
114
119
119
117
119
117
121
121
119
123
125
125
125
129
129
129
131
127
123
119
110
104
104
104
104
106
104
102
99
97
101
102
108
112
116
117
119
121
121
123
125
125
123
119
121
123
123
121
123
123
123
123
121
121
117
119
117
116
116
114
116
116
116
116
116
119
121
119
121
123
121
117
119
123
123
125
127
131
133
133
131
125
121
123
119
112
108
104
104
104
104
104
101
99
101
104
106
108
108
114
121
116
116
117
121
123
121
119
123
121
125
125
121
119
119
121
121
117
119
117
119
117
114
114
114
117
117
116
114
117
119
119
119
121
121
123
125
121
121
125
127
127
129
129
127
127
125
125
125
117
110
104
106
104
102
106
104
101
101
102
102
102
106
114
121
119
117
117
121
119
117
119
119
119
121
123
123
121
119
119
117
117
116
117
119
117
114
114
116
121
119
117
112
116
121
121
119
117
121
123
123
123
121
127
123
123
123
127
127
131
129
125
125
121
116
110
110
108
102
102
106
106
102
101
102
104
110
114
116
117
117
117
117
117
119
119
117
117
119
119
121
121
119
119
117
114
114
117
117
117
117
116
117
117
119
117
114
116
121
119
119
119
121
123
123
125
125
125
123
123
121
121
121
125
125
127
127
127
121
119
116
110
102
101
110
106
106
104
106
108
110
110
114
117
116
117
116
117
119
119
119
117
119
117
121
121
119
119
121
119
114
117
121
121
117
119
117
119
119
116
112
114
119
125
119
119
123
123
123
125
125
123
125
127
125
119
119
121
125
123
125
129
125
127
123
116
106
101
102
106
106
106
106
106
104
110
114
116
114
114
116
116
117
123
121
119
119
117
119
121
119
121
121
121
116
117
121
121
121
119
117
121
119
117
114
114
116
119
117
117
123
125
123
125
125
125
127
127
125
125
121
119
121
125
123
125
129
129
127
123
116
102
99
101
104
106
108
110
108
112
114
110
112
117
119
119
119
121
121
119
119
121
119
119
121
117
116
119
117
117
119
117
117
121
119
119
117
117
114
114
116
116
117
121
123
125
127
123
125
127
127
127
127
127
127
121
119
123
121
121
127
129
129
125
121
114
102
99
101
102
106
110
110
114
114
110
110
114
117
119
117
117
121
119
119
121
121
121
121
117
116
117
117
116
119
117
116
117
117
119
119
121
112
112
112
112
112
116
117
119
123
121
125
129
125
125
125
127
127
123
123
121
117
121
123
127
125
123
123
119
112
102
99
97
101
104
108
114
114
112
112
110
114
119
119
117
117
119
119
119
119
121
121
121
119
117
116
117
116
117
116
117
116
114
121
125
108
110
110
112
114
112
112
114
119
119
121
127
127
127
121
121
123
127
127
119
116
119
121
123
123
125
125
125
119
112
102
95
93
102
108
114
114
114
112
112
110
117
121
117
117
119
116
116
119
121
121
123
123
117
116
116
114
117
116
114
114
114
119
119
102
106
108
110
112
112
112
114
119
117
121
121
121
121
123
125
121
123
125
121
117
121
123
123
119
123
127
131
125
117
110
101
93
95
104
110
110
110
110
114
114
116
119
117
117
121
117
116
119
119
117
117
119
116
114
114
114
116
117
117
116
116
117
117
97
104
108
110
110
112
112
114
117
116
119
117
119
121
123
123
123
121
123
123
123
127
121
121
117
121
125
129
127
121
117
110
97
93
97
102
106
108
110
112
114
117
117
117
117
119
119
119
117
117
117
116
117
117
116
114
112
117
116
117
117
114
116
117
90
99
104
108
104
106
110
114
114
114
117
119
119
119
119
123
119
119
123
125
127
125
123
119
117
119
121
123
125
125
121
116
106
97
93
97
101
104
108
108
110
116
117
116
116
117
119
121
117
117
117
117
119
119
117
114
116
119
117
116
117
116
116
116
83
88
99
102
104
102
106
108
110
112
114
114
116
117
117
121
119
119
123
123
123
123
123
119
117
119
121
119
125
123
125
121
114
104
93
90
97
102
110
112
110
116
117
116
114
116
117
117
117
116
112
114
119
123
119
117
117
119
116
112
116
116
114
116
76
81
88
99
104
106
108
108
108
110
112
112
114
116
117
117
117
117
119
121
121
123
123
119
119
119
119
123
123
119
117
117
116
108
101
92
95
97
106
114
116
116
117
116
114
112
114
114
114
114
110
116
119
121
121
117
119
116
110
112
112
114
116
116
75
75
80
92
102
106
110
108
106
112
114
110
110
114
116
114
116
116
117
121
123
123
123
121
117
119
119
119
117
114
114
116
114
112
102
97
97
93
97
106
114
116
116
117
114
110
112
110
112
110
114
117
117
119
119
117
117
116
114
112
112
112
114
114
78
75
78
83
95
104
110
110
112
114
114
112
112
114
114
112
116
119
119
123
123
123
125
123
117
119
119
119
117
116
117
117
114
110
106
101
99
93
90
101
110
114
117
117
117
116
116
117
114
114
117
116
117
121
119
119
116
116
116
114
112
112
114
114
83
75
75
80
88
97
106
112
112
112
112
110
112
117
116
116
117
117
121
125
125
127
127
125
121
119
119
117
117
117
116
116
112
106
106
102
101
97
95
97
104
112
117
116
116
117
116
117
117
114
117
114
116
117
116
116
116
116
116
114
114
114
114
112
92
80
75
78
83
90
99
108
108
110
108
108
110
116
114
114
117
119
119
119
123
123
125
125
121
121
119
119
117
117
117
117
116
108
106
106
104
104
101
97
97
104
114
117
117
117
119
117
117
114
117
117
116
117
114
112
114
116
114
116
116
112
112
114
99
90
80
78
80
86
92
101
108
110
110
110
112
112
110
114
117
119
119
123
121
121
125
125
121
123
123
121
117
117
117
117
114
110
106
104
104
108
106
101
99
102
106
114
119
119
117
116
117
119
119
117
114
114
114
114
117
116
114
114
114
110
112
112
104
95
86
80
78
81
85
93
102
110
112
110
114
114
112
116
114
119
119
121
123
123
127
123
123
123
123
121
119
119
119
119
116
116
112
104
102
104
106
104
104
101
102
106
114
117
117
114
116
119
117
116
114
116
116
114
116
114
112
112
112
112
112
112
108
102
93
85
80
78
80
86
95
104
110
114
114
116
116
116
116
116
117
121
125
123
127
125
123
125
121
119
119
119
119
119
117
117
117
110
106
108
106
106
104
101
99
101
106
114
116
116
117
121
117
116
117
119
117
116
116
114
110
110
112
112
112
114
112
108
102
93
83
76
76
81
88
97
106
112
116
116
114
116
117
116
117
117
121
123
123
123
121
119
119
117
116
116
114
114
117
117
117
116
110
108
106
104
104
104
102
101
101
106
112
112
112
117
119
119
119
121
121
119
117
116
114
112
116
117
117
117
116
112
106
102
93
83
81
78
83
90
101
108
116
119
116
117
117
117
116
116
117
119
123
121
121
121
123
121
116
116
114
112
116
119
117
117
114
108
106
102
104
104
102
101
97
99
106
108
110
114
119
119
117
121
123
121
119
117
116
116
117
123
123
123
117
116
110
106
102
92
85
81
80
86
95
104
110
117
117
117
117
114
114
110
116
117
119
116
119
119
121
119
117
116
116
116
116
119
117
119
116
112
104
102
104
101
101
99
93
93
102
108
114
116
117
117
119
123
123
121
119
119
117
119
119
125
123
123
117
116
108
108
106
97
88
83
85
83
88
99
106
112
117
116
117
116
117
116
116
117
119
116
116
117
116
119
119
117
114
114
112
116
117
117
116
116
112
106
102
102
102
99
95
95
99
106
112
112
117
117
119
121
123
121
117
117
117
119
119
119
121
121
117
116
110
112
108
101
95
86
81
80
83
90
102
110
112
119
116
117
121
119
117
121
119
116
119
117
112
117
114
117
116
114
114
112
117
117
116
114
112
110
106
102
101
97
95
97
99
101
108
112
117
119
119
123
121
119
117
117
117
117
117
117
119
121
117
116
114
110
106
104
102
95
88
83
83
83
92
104
110
117
116
119
121
121
121
123
123
119
119
116
114
114
114
116
114
116
114
112
116
116
116
114
114
112
110
104
101
101
101
101
102
97
101
110
117
117
119
119
119
119
117
119
121
119
117
119
119
121
116
114
116
110
106
108
108
102
95
88
83
81
86
93
104
110
116
116
116
117
119
123
123
121
121
117
114
112
112
114
114
114
114
114
117
116
114
114
114
114
114
108
106
102
102
102
101
97
95
102
114
116
114
116
117
117
121
121
123
123
121
116
116
117
116
114
116
110
112
110
112
108
101
93
88
80
81
90
97
104
112
119
119
119
119
119
119
123
123
121
117
116
114
114
116
116
116
114
114
116
116
117
116
114
114
112
110
106
104
102
104
101
97
99
104
112
116
114
114
117
121
125
121
121
117
116
116
117
117
114
116
112
112
114
112
110
108
101
93
83
78
86
92
99
110
119
117
119
119
119
121
123
121
119
117
116
117
114
116
119
117
114
112
116
116
119
117
117
116
114
112
108
106
106
104
104
101
95
97
104
112
114
116
116
119
125
123
121
119
121
119
117
114
116
117
116
112
116
117
116
112
108
97
88
78
83
86
93
104
116
116
119
123
123
121
121
121
117
117
116
119
116
117
119
119
117
114
117
117
117
119
117
119
117
116
110
108
108
108
106
104
99
93
99
104
114
116
112
119
121
121
119
117
117
119
119
114
116
117
116
114
117
119
117
116
112
106
95
83
81
81
88
95
106
110
114
119
121
119
119
119
121
119
116
117
117
117
119
121
117
116
116
116
116
119
119
119
119
117
112
110
110
106
104
102
101
97
97
97
106
112
116
119
119
119
119
119
119
121
119
116
114
117
117
114
114
116
116
116
116
112
102
90
83
80
80
90
95
106
112
116
119
117
119
121
123
121
121
121
116
117
117
117
119
117
117
117
117
117
117
119
121
119
116
112
110
108
106
102
104
101
97
93
97
108
114
117
116
116
119
121
121
119
117
116
116
117
116
112
112
112
116
116
116
116
108
97
86
80
76
85
92
101
108
116
117
117
121
121
123
123
123
121
117
119
117
114
117
117
119
119
119
121
121
117
119
121
119
117
116
112
108
108
106
106
102
97
93
99
110
114
114
117
119
121
119
121
117
117
117
116
116
112
112
116
116
114
116
117
112
104
95
83
80
81
88
97
104
114
119
119
123
121
125
125
121
121
119
119
117
116
117
117
119
121
119
123
123
121
119
125
125
121
121
117
116
114
108
106
104
102
97
95
104
112
116
119
121
121
117
119
116
117
117
119
117
116
116
117
117
116
117
119
116
110
102
92
81
80
83
90
101
112
121
119
121
121
121
123
123
123
121
117
114
114
117
121
121
119
119
121
121
121
125
127
121
121
125
121
117
114
110
110
108
106
104
101
102
108
116
119
119
121
119
121
121
116
117
119
119
117
119
117
116
116
116
117
116
112
108
101
88
81
80
83
93
104
116
119
119
121
121
121
125
125
127
119
117
117
117
119
119
121
121
123
123
123
123
123
119
123
125
123
125
119
112
110
108
104
104
102
99
102
110
116
117
119
123
121
121
