P2
# 76 of 608 Angiograms
64 64
255
125
123
119
117
117
119
119
112
112
116
116
114
116
114
116
116
116
114
110
110
112
116
114
112
112
114
116
112
110
114
116
114
110
112
114
112
110
112
112
114
116
117
116
117
121
121
119
117
117
117
117
117
116
116
121
119
119
116
119
121
123
123
119
121
127
121
121
119
121
121
117
117
116
119
114
112
116
116
117
116
116
117
112
110
110
116
116
112
110
114
114
114
112
114
114
112
112
112
112
112
112
116
117
116
116
116
119
119
121
121
117
117
117
117
114
119
116
116
119
117
117
116
117
119
123
123
119
119
125
121
123
123
121
121
117
116
116
117
114
116
116
117
116
116
116
117
114
112
112
114
112
108
106
112
116
114
110
114
114
114
112
114
112
112
112
116
117
117
117
121
119
119
119
119
117
117
116
116
116
117
119
117
117
117
114
116
114
119
123
125
123
121
121
119
121
125
125
121
117
114
116
114
112
116
114
114
112
114
114
117
116
110
108
112
112
112
114
114
112
112
110
114
116
119
117
116
114
114
114
114
117
117
121
119
121
121
119
117
117
117
119
116
114
114
119
116
116
119
119
117
116
119
123
125
127
125
121
121
121
117
117
117
117
117
116
114
112
116
116
112
110
112
114
116
114
110
108
112
110
112
114
110
110
114
110
114
117
117
117
117
114
114
116
116
117
119
117
116
119
121
119
121
119
119
119
117
114
114
117
114
116
119
121
117
117
119
123
127
127
121
121
121
117
117
117
116
116
116
114
112
112
116
116
110
112
116
114
110
112
110
110
112
110
108
106
104
108
112
112
112
117
117
119
119
116
116
117
117
119
117
116
117
119
121
119
123
121
119
119
117
116
117
116
116
117
117
116
117
117
119
123
127
123
119
121
121
119
117
116
117
116
112
110
114
112
112
112
108
110
112
112
110
110
110
112
112
108
106
101
104
108
112
112
112
116
117
121
119
117
119
119
119
119
117
121
123
123
125
123
125
123
123
119
117
117
116
116
116
117
117
114
116
119
121
121
121
121
121
121
121
117
117
116
116
116
114
108
110
110
110
110
110
108
108
110
110
112
112
114
112
112
112
106
104
110
116
116
116
116
119
117
117
119
121
119
117
119
123
125
125
123
125
125
125
119
119
119
121
117
116
117
116
116
117
114
117
116
117
119
123
123
123
121
119
116
117
121
117
116
112
106
102
102
104
108
108
108
110
110
112
114
116
112
110
110
114
114
112
114
116
117
117
119
121
117
117
117
121
119
121
121
127
129
125
123
123
123
125
125
119
119
119
117
117
116
116
116
117
119
119
117
116
119
125
125
123
117
116
116
119
116
116
112
104
99
95
93
97
99
102
108
108
112
110
116
114
110
110
114
116
117
114
114
114
116
117
117
117
119
121
123
123
123
121
123
127
129
127
125
125
123
127
125
121
117
117
117
119
119
117
117
119
121
121
119
117
121
121
125
121
112
112
114
114
112
106
101
95
90
83
85
90
90
93
101
108
108
112
117
116
110
112
116
116
117
117
117
116
117
117
116
119
119
123
125
121
121
121
123
123
125
127
125
125
121
125
121
119
119
121
119
117
117
119
121
119
117
119
117
116
117
119
121
119
101
101
101
101
99
95
92
90
86
81
81
83
83
86
90
99
106
112
116
112
112
116
117
116
116
119
117
116
116
117
119
117
117
121
123
121
119
121
123
125
125
127
125
125
123
123
121
117
121
121
123
117
116
119
121
119
119
119
117
119
119
121
121
119
90
90
92
92
90
86
83
83
83
81
78
76
75
80
85
92
101
108
112
112
114
116
117
117
119
119
119
117
117
117
119
121
123
123
121
123
123
123
121
121
125
129
125
123
123
123
125
121
121
123
123
117
114
116
117
119
121
121
119
119
121
121
119
117
81
80
81
83
81
80
78
76
76
81
78
75
75
76
80
86
92
99
108
110
112
116
121
121
119
117
117
116
116
119
121
121
123
125
127
125
125
123
121
123
127
131
127
125
125
127
127
125
123
123
123
119
117
119
117
117
121
121
123
123
119
121
123
117
78
76
75
76
78
76
75
73
75
80
78
73
75
76
76
80
86
95
104
110
114
116
117
121
121
119
119
117
117
121
121
125
127
125
129
127
123
123
123
125
127
131
129
129
127
125
123
121
123
123
121
119
119
117
117
121
123
123
125
121
117
123
123
117
76
75
72
73
76
76
78
76
78
78
78
75
73
76
80
81
83
88
99
106
112
116
114
116
117
119
121
119
121
121
127
127
127
125
127
127
125
125
125
123
127
129
129
127
129
125
123
123
123
123
121
119
117
116
117
121
125
125
123
119
119
121
121
119
76
75
76
75
78
80
81
78
83
80
76
81
81
80
80
85
85
88
97
106
110
116
116
114
117
119
121
123
121
125
129
127
127
131
129
127
125
127
127
127
129
129
129
129
127
127
123
123
123
125
121
119
119
119
119
119
123
125
123
119
121
119
119
121
80
80
78
76
78
80
83
78
83
81
81
83
83
85
86
88
92
93
101
104
108
114
117
117
121
121
123
127
125
125
127
129
127
131
131
129
127
125
125
129
129
127
129
129
127
125
125
125
125
123
123
121
119
121
121
121
121
121
119
117
119
119
119
121
80
78
75
75
76
80
80
83
83
81
83
83
85
88
90
95
99
101
104
104
108
112
116
123
125
121
123
125
125
123
127
127
127
129
127
127
127
127
125
129
127
125
127
129
125
123
127
127
127
125
125
123
121
123
119
119
117
119
117
114
114
116
119
119
81
81
80
80
80
80
83
81
85
83
86
88
90
92
95
99
102
104
104
108
108
112
117
123
125
121
123
123
125
125
123
125
129
129
125
127
129
131
127
129
127
127
127
129
129
125
123
125
121
121
125
123
123
119
119
119
116
119
119
116
117
114
116
117
86
86
86
88
90
88
85
85
86
85
85
86
90
93
101
102
102
106
108
110
112
112
114
119
121
121
123
123
123
125
125
123
127
127
129
129
129
133
133
129
127
127
125
125
129
125
123
123
123
123
123
121
121
119
119
123
121
119
119
117
119
116
112
114
101
99
99
99
99
97
95
90
88
88
86
86
90
97
101
104
104
106
108
114
114
112
108
112
116
119
123
123
127
129
125
125
127
127
133
131
135
135
135
131
127
127
125
125
125
127
123
123
123
123
123
121
121
123
121
125
125
121
117
116
116
114
114
114
110
110
110
110
108
104
102
101
99
93
93
93
95
97
99
102
104
108
108
110
110
112
110
108
112
116
121
123
127
129
125
123
129
131
131
131
133
133
135
131
129
129
127
129
127
127
125
123
121
123
123
121
123
125
123
125
123
117
116
116
110
114
116
116
117
119
119
116
116
114
112
110
108
104
102
102
101
101
101
104
106
108
110
110
110
110
110
104
108
112
117
121
127
127
125
125
127
127
133
135
133
133
135
129
129
127
127
129
127
127
125
123
119
121
121
121
123
121
121
121
121
121
121
117
114
112
116
119
117
123
123
117
117
119
119
117
114
114
114
112
112
112
112
108
112
108
110
108
110
108
110
106
108
110
114
117
125
125
125
127
127
129
135
135
131
131
133
131
125
125
127
125
127
127
127
127
121
119
121
121
123
123
123
121
117
116
117
119
116
114
117
117
117
121
123
121
123
123
123
119
123
121
119
117
117
119
119
114
112
108
110
106
104
102
108
106
108
108
110
114
121
123
125
127
127
131
135
133
129
133
133
127
125
123
125
127
127
125
125
125
123
123
121
117
121
123
123
117
116
116
117
117
117
119
119
117
116
117
119
119
121
123
125
123
123
119
117
119
121
123
123
119
117
114
110
104
104
102
104
106
108
110
112
114
119
119
121
125
127
127
131
131
129
129
127
125
123
123
119
121
123
123
121
123
119
121
119
117
117
121
117
116
117
117
116
116
116
119
117
119
116
116
114
116
117
125
121
119
119
117
119
121
121
123
127
123
121
117
112
106
102
102
104
104
108
110
112
114
119
117
117
117
119
119
121
125
125
125
125
123
123
121
117
117
117
117
117
121
117
116
116
117
117
117
116
116
116
117
117
119
117
117
116
117
116
114
114
114
116
121
117
117
117
116
119
121
119
121
127
125
121
117
114
110
104
102
102
102
102
106
108
110
114
114
114
114
112
112
116
117
119
121
121
119
116
117
117
116
116
114
112
117
114
114
114
112
112
112
112
114
117
119
119
117
116
112
112
114
117
116
116
114
114
117
117
114
116
116
117
121
117
119
123
123
121
116
116
112
110
106
102
104
101
102
106
104
106
108
110
110
108
108
108
108
112
116
121
119
119
117
119
117
117
114
112
112
112
110
108
106
110
108
106
108
114
116
117
119
116
112
114
114
121
117
119
117
116
117
116
110
110
116
116
117
119
121
123
121
121
117
117
117
116
114
110
106
104
102
101
101
101
102
104
104
106
104
101
102
106
112
117
119
117
116
117
119
119
119
117
112
110
106
104
106
108
106
104
108
112
114
116
117
117
116
114
112
119
116
119
117
121
119
116
110
112
116
117
117
119
119
119
119
121
117
117
117
117
117
116
114
108
102
99
101
95
97
97
99
101
102
99
99
102
106
114
119
117
117
121
123
121
121
119
114
112
106
104
106
108
104
106
110
112
112
110
112
117
117
119
114
121
119
119
123
121
121
116
110
114
119
117
119
117
112
116
119
117
116
116
114
116
117
121
116
112
108
104
99
97
95
95
95
95
95
95
95
99
101
106
114
117
117
121
123
123
121
116
114
112
110
110
112
110
108
112
114
114
112
110
114
116
117
117
114
119
119
119
121
121
121
119
114
117
121
121
119
117
117
117
116
116
116
116
116
116
116
116
117
117
114
110
102
101
95
93
90
88
90
90
90
92
93
99
104
110
112
116
117
117
119
114
112
112
114
114
112
110
108
112
116
117
116
114
112
116
116
112
116
123
119
121
125
123
123
125
119
117
123
121
121
121
121
119
117
117
117
116
117
116
117
117
119
121
119
116
110
102
93
88
83
83
85
83
83
85
88
92
97
104
110
112
116
117
117
114
114
114
114
114
112
108
108
110
112
116
117
114
114
116
114
112
116
125
123
125
125
129
125
125
123
121
119
121
121
123
119
117
117
119
117
117
121
119
117
119
121
121
119
119
116
112
101
90
85
81
81
81
80
83
85
85
90
95
102
108
110
116
116
114
116
114
114
116
116
110
110
112
110
116
119
119
114
114
112
117
114
127
121
125
125
123
121
125
125
123
121
123
125
125
121
117
119
119
121
121
119
119
117
117
117
117
119
123
125
119
112
99
93
86
83
80
81
80
80
80
83
88
93
99
104
108
112
114
114
114
114
116
114
112
110
114
112
114
117
121
119
116
110
114
116
125
123
125
123
123
125
123
125
125
123
123
125
125
121
119
121
121
123
123
121
121
119
121
119
121
123
125
125
123
121
112
99
93
86
81
78
75
73
75
80
83
88
92
95
102
104
110
112
114
114
114
112
112
112
112
114
114
117
117
116
114
112
114
116
127
129
127
123
123
121
119
121
123
127
131
127
125
123
123
123
125
127
123
123
121
121
123
125
127
129
123
119
121
121
119
110
99
90
85
78
73
70
73
72
76
80
83
86
93
99
104
106
110
112
110
112
112
112
112
116
116
117
117
114
116
116
117
117
125
129
127
123
125
123
123
121
125
125
129
129
127
127
127
127
123
123
123
125
121
121
121
125
125
127
125
119
119
123
119
116
106
95
88
81
75
70
70
70
75
73
75
80
86
92
97
102
104
108
110
108
104
108
110
110
112
116
117
116
116
117
121
121
127
127
129
127
121
121
123
125
125
125
127
129
129
127
127
127
125
123
125
125
125
123
125
123
121
127
125
123
125
123
121
117
110
101
95
85
80
76
73
68
73
73
70
75
80
85
90
93
99
102
102
101
102
108
108
108
110
112
116
117
117
119
119
117
127
127
129
131
125
125
125
125
121
123
125
125
127
129
129
127
127
125
123
123
123
127
125
121
123
125
123
123
123
123
121
121
114
104
97
90
85
81
80
73
70
73
72
72
76
80
85
88
92
97
97
95
97
101
106
106
112
116
117
114
112
117
117
116
125
125
129
127
127
131
131
129
127
123
123
123
125
127
129
131
127
123
123
123
125
125
121
121
123
125
123
123
121
125
123
121
116
110
99
92
90
86
81
76
75
75
73
70
76
80
80
88
93
95
95
92
92
95
97
101
106
110
112
112
108
112
114
114
121
123
127
127
127
129
133
131
129
127
127
125
127
127
129
131
129
127
123
123
123
121
117
123
129
127
125
125
123
123
123
123
117
110
102
95
90
88
85
80
80
76
75
75
80
78
78
90
95
99
95
90
92
92
93
93
97
102
102
104
106
110
114
117
119
119
123
123
125
127
131
131
129
127
129
125
127
131
127
129
129
129
125
121
121
121
121
121
125
123
127
127
123
125
125
127
117
112
104
99
95
92
88
83
78
76
83
81
81
85
83
90
95
101
101
95
92
90
95
92
95
97
97
99
104
110
112
112
114
114
119
121
121
123
127
127
129
127
129
127
127
129
127
125
129
127
123
125
125
123
123
121
121
123
121
121
123
127
127
129
119
114
108
101
97
90
90
88
85
83
83
78
81
88
85
90
97
102
104
102
97
97
99
93
93
92
90
95
99
102
108
114
108
108
114
117
116
117
119
121
123
123
125
127
127
125
123
123
125
125
123
125
121
119
121
123
123
123
121
123
123
121
125
125
117
114
112
104
97
92
92
90
86
83
81
80
80
83
83
90
95
101
102
102
102
101
101
97
95
93
92
97
101
102
106
110
108
104
108
108
112
114
116
116
116
116
119
123
123
123
125
125
125
121
121
127
123
123
123
125
123
121
119
121
121
121
119
119
117
114
112
106
99
93
90
88
86
85
80
80
81
81
83
88
92
95
97
101
102
102
99
99
97
97
93
97
99
102
106
108
106
106
108
108
106
108
110
110
108
110
110
116
119
121
123
123
121
123
123
125
121
123
121
121
123
123
119
117
119
117
112
112
116
112
112
108
101
97
93
90
86
88
85
81
81
80
83
85
88
92
95
99
102
104
99
101
101
101
93
95
97
102
104
106
110
108
108
108
106
106
106
106
104
104
106
108
112
116
117
119
119
121
123
123
121
121
121
121
121
121
117
119
117
114
108
110
114
114
116
108
102
101
97
92
88
88
86
80
81
83
86
88
86
86
93
97
101
101
99
99
97
93
90
93
97
101
99
101
110
110
110
110
110
108
108
106
102
102
102
102
104
104
108
110
112
114
116
119
119
117
121
121
121
119
117
117
114
110
110
112
116
117
116
110
104
101
95
93
90
88
88
86
83
83
86
85
85
86
90
97
101
101
99
99
95
93
90
90
93
97
97
97
114
116
117
116
114
114
112
110
108
108
104
102
101
101
102
104
106
108
108
110
112
114
117
121
121
119
117
112
106
106
108
116
117
119
119
116
108
101
97
93
93
90
90
90
86
85
86
86
86
90
95
97
99
101
102
102
99
99
95
90
88
92
93
93
117
116
119
117
114
114
116
114
114
112
108
106
102
101
102
104
104
102
102
104
106
108
112
114
116
116
112
108
106
108
110
116
117
119
119
119
114
104
99
93
92
92
88
88
86
88
88
86
88
88
90
97
101
102
106
108
99
99
99
92
88
86
90
92
117
114
117
117
116
114
117
119
117
112
112
108
108
106
106
106
102
101
102
102
102
101
104
106
106
104
104
102
104
110
110
116
119
119
119
121
116
108
104
97
93
88
86
88
88
90
86
86
86
88
88
95
101
106
110
106
102
99
99
95
90
88
85
88
117
117
117
121
116
116
116
117
117
116
116
112
112
112
112
110
106
106
104
104
101
101
102
101
99
97
99
101
102
110
114
119
119
117
116
117
116
112
108
99
90
86
88
90
88
88
85
88
90
86
86
92
101
108
112
108
104
104
101
99
95
90
86
90
117
116
117
116
116
119
117
119
117
117
117
114
117
116
116
114
112
108
104
102
101
101
102
95
97
99
95
99
104
108
114
114
112
112
112
112
108
108
106
99
90
88
90
88
88
90
86
88
88
85
83
88
95
104
112
112
108
108
102
101
99
95
93
92
116
114
116
116
116
117
121
125
119
117
114
117
121
123
116
114
112
110
106
110
108
102
99
97
99
95
99
102
102
106
110
110
108
108
110
106
104
108
106
97
92
90
88
88
86
90
86
88
86
85
86
85
90
97
104
110
110
110
108
104
104
102
101
99
116
114
116
117
117
116
119
123
119
116
114
116
119
121
116
112
112
112
112
110
108
104
102
102
102
102
104
104
104
108
106
106
106
106
106
101
101
104
104
97
93
92
90
92
92
85
86
88
86
86
85
81
86
92
97
104
108
110
106
108
110
112
112
110
114
112
116
119
119
116
112
117
116
112
114
114
117
119
116
116
114
114
114
110
110
108
106
106
106
110
108
108
108
110
108
110
110
108
106
104
104
104
102
101
99
97
97
93
88
88
88
86
86
85
85
85
86
90
90
95
104
104
106
106
108
112
116
114
114
112
116
117
117
119
116
114
114
114
112
116
119
117
116
116
116
114
112
108
108
108
102
106
114
114
112
112
110
110
110
110
114
110
112
110
106
110
108
108
108
106
104
101
93
92
90
88
90
86
85
90
86
90
88
88
93
102
106
104
110
112
116
116
112
112
116
116
119
121
119
117
117
114
116
117
117
119
117
117
114
110
106
102
99
101
106
112
114
114
112
116
117
114
112
110
112
114
114
110
110
114
112
112
112
114
112
108
102
99
93
88
90
86
88
92
88
86
86
86
90
93
97
101
104
110
114
117
114
114
117
117
119
119
121
119
121
117
116
114
116
116
112
112
110
106
102
102
99
99
106
112
114
114
112
112
116
114
114
110
116
117
116
112
112
114
116
117
116
117
117
117
112
104
99
93
93
92
90
88
85
81
83
83
83
86
88
93
99
106
112
114
110
110
117
117
117
116
117
117
119
119
116
116
114
110
108
108
106
104
104
101
101
104
106
110
112
108
112
116
116
116
116
116
116
119
117
114
116
117
119
121
119
121
119
117
117
112
102
99
93
92
86
83
81
80
81
83
83
83
83
88
92
97
104
108
110
110
114
116
114
112
112
110
114
116
112
112
110
102
102
104
104
102
104
104
104
106
108
112
112
114
114
114
116
116
114
114
116
117
116
119
119
121
119
119
119
121
117
117
119
116
110
99
97
92
88
85
78
81
83
83
85
81
80
80
85
90
95
102
