P2
# 79 of 608 Angiograms
64 64
255
108
108
112
117
123
125
123
119
116
114
114
112
112
114
116
116
114
114
117
121
119
119
121
121
121
117
117
119
119
117
119
123
125
123
121
121
121
119
121
116
116
117
117
121
119
119
121
123
121
121
116
117
121
121
117
116
114
112
112
112
110
114
117
119
102
101
104
116
123
131
131
125
121
119
117
116
114
110
108
110
110
108
114
116
117
123
123
123
121
119
119
119
117
116
117
119
123
125
125
123
123
121
119
117
117
117
121
123
125
121
119
125
121
117
117
119
119
121
121
117
116
112
112
114
114
114
117
119
95
93
101
106
117
125
127
125
127
125
123
121
114
112
108
106
108
110
108
116
119
121
121
121
121
121
123
123
119
116
119
123
125
125
123
125
123
119
117
116
117
117
119
121
121
117
117
119
119
119
121
123
123
123
123
119
117
116
112
114
112
114
119
119
93
90
95
102
110
119
123
125
129
127
127
125
119
116
112
108
108
110
110
110
114
114
114
116
116
116
117
119
116
116
119
123
123
125
127
129
125
123
121
119
117
117
119
121
121
119
119
117
117
117
119
119
121
119
121
123
119
114
112
116
114
114
116
119
90
85
88
95
99
106
114
119
123
129
127
127
125
121
119
116
112
114
110
112
114
112
112
114
112
112
114
114
114
117
117
119
121
127
125
127
125
123
121
123
121
119
117
117
117
117
117
117
116
116
116
116
117
119
123
123
121
116
117
119
119
116
116
117
88
83
85
92
95
97
102
108
117
125
127
129
127
127
125
123
119
116
112
114
110
110
112
112
106
106
106
106
112
112
112
114
117
117
117
117
117
119
119
121
119
121
119
117
116
117
119
117
117
116
116
119
117
119
123
123
119
117
117
116
117
116
117
121
86
85
85
90
93
93
93
97
106
116
125
129
127
129
129
129
127
123
119
114
114
114
110
110
106
106
104
106
104
102
102
106
110
114
114
112
110
110
114
114
114
112
112
112
110
114
117
117
117
119
117
119
119
117
119
121
119
117
119
119
119
117
114
117
86
85
85
85
88
90
90
92
95
106
119
125
129
131
133
131
129
125
121
119
119
119
116
114
112
112
112
108
104
101
97
99
106
110
110
108
106
106
108
106
102
104
104
106
106
106
108
110
114
117
117
117
117
117
119
121
119
117
121
121
121
119
114
114
85
83
83
81
83
85
86
86
86
93
106
117
125
129
129
131
129
125
125
123
121
123
123
117
117
116
117
114
110
108
106
102
104
104
106
106
101
99
102
102
102
102
102
104
102
102
102
104
110
114
116
116
116
116
117
119
117
117
119
123
121
119
117
117
86
85
81
76
80
81
85
83
83
86
97
108
117
125
127
133
133
129
127
121
121
127
125
119
121
121
119
121
119
116
114
110
106
106
104
101
99
99
101
101
101
102
104
102
99
99
102
102
106
112
114
114
114
117
117
119
116
119
119
121
121
119
119
123
88
88
85
76
78
81
86
83
81
83
92
101
108
117
125
131
131
129
127
123
123
129
129
125
123
123
123
123
123
121
119
117
116
114
112
108
106
104
102
102
101
106
108
104
102
101
99
101
106
108
110
112
114
117
117
117
116
117
119
119
119
123
121
121
90
88
85
80
80
85
86
85
81
80
86
93
101
110
117
123
127
127
127
123
123
127
125
123
123
127
127
125
125
123
123
121
117
119
117
114
110
104
106
108
106
108
110
108
106
102
99
97
102
106
104
108
112
114
117
119
119
117
119
119
123
121
119
119
90
90
86
80
81
85
85
85
80
81
85
88
93
101
108
116
119
123
123
121
121
125
127
123
125
125
125
123
123
121
121
119
121
123
121
117
112
108
112
116
114
112
114
114
110
110
106
102
102
106
102
102
108
112
114
117
121
119
119
123
123
119
117
116
90
90
86
80
83
85
86
85
85
88
86
90
90
92
101
106
114
119
119
121
123
123
125
123
123
123
125
125
121
117
119
121
125
125
123
121
116
112
116
117
116
116
116
114
114
112
110
106
102
102
104
102
104
110
114
114
116
119
117
119
117
119
117
116
92
88
85
85
86
90
86
85
85
85
85
88
88
90
93
99
106
114
117
121
125
123
121
121
119
121
125
123
119
119
121
123
121
121
119
119
119
119
119
117
121
121
116
116
117
116
116
112
106
102
101
101
102
106
108
110
112
112
114
117
117
117
117
117
93
90
85
85
86
88
83
85
85
85
85
86
86
88
90
93
97
106
114
119
125
121
121
119
117
121
123
121
121
123
121
121
117
117
119
121
123
121
123
121
119
119
116
114
117
116
114
114
112
108
104
102
102
106
106
106
110
110
110
114
116
117
117
117
101
93
86
86
86
85
81
85
88
90
85
86
86
88
90
90
93
97
106
114
119
121
121
123
121
121
121
123
123
123
123
123
117
117
119
121
121
123
125
123
119
117
117
119
119
114
112
112
112
114
110
104
101
104
104
104
106
106
108
108
110
112
114
116
112
102
93
88
88
83
83
86
86
88
85
86
86
88
86
86
92
93
99
106
114
117
121
123
121
121
121
121
123
123
125
125
121
117
119
121
121
121
123
121
119
117
116
117
119
116
116
116
116
116
112
110
106
104
106
106
104
104
104
102
104
104
108
114
121
114
102
95
90
83
83
90
86
86
86
85
83
86
86
86
90
90
93
101
108
114
119
121
119
125
125
121
121
123
125
123
121
121
125
121
117
119
121
121
119
119
114
117
119
117
116
117
119
116
114
114
114
110
110
110
104
106
104
102
106
106
106
110
123
121
114
104
95
90
85
86
86
86
88
90
83
86
86
86
86
85
90
93
104
110
116
117
121
125
123
123
121
123
125
121
121
123
121
121
119
121
121
119
119
119
117
119
121
119
116
117
117
112
114
117
117
116
116
114
110
110
108
106
108
110
108
108
127
127
123
114
102
95
90
86
90
90
90
92
86
88
85
86
85
85
88
92
99
108
114
119
123
123
123
123
119
123
123
119
121
121
123
121
119
121
119
119
117
117
119
119
119
116
114
116
112
110
112
116
117
121
119
116
116
114
112
112
112
114
112
110
127
127
123
119
110
99
93
92
92
88
90
92
92
88
86
88
85
81
86
92
93
104
114
117
119
117
119
123
123
123
121
121
119
119
121
121
119
119
117
117
117
117
119
119
116
117
116
114
110
110
114
117
119
123
119
117
117
112
116
117
117
117
117
116
125
121
123
121
117
108
101
101
101
97
95
93
95
92
90
88
85
81
85
92
92
99
110
114
116
114
116
121
121
123
125
121
119
117
117
116
116
117
117
121
119
119
119
119
119
114
114
112
108
112
117
123
125
123
119
119
117
114
117
119
121
121
119
117
127
123
127
127
123
116
108
104
104
106
101
95
88
90
88
86
86
83
83
88
92
95
106
114
116
116
119
119
121
123
123
119
117
116
117
116
117
117
117
117
119
119
119
119
119
116
114
110
110
114
119
123
125
123
119
117
117
117
117
121
119
117
121
119
123
125
129
131
127
123
114
108
108
106
104
97
90
86
85
88
88
81
83
88
93
97
104
112
112
116
117
119
119
123
119
119
119
117
119
119
121
117
117
119
121
121
119
117
117
114
112
108
106
114
117
119
119
123
119
117
116
117
121
121
119
119
121
121
123
125
123
125
125
123
117
110
108
110
108
102
95
88
81
83
85
81
83
88
93
97
104
110
112
117
119
119
121
119
121
121
119
116
117
119
121
121
117
119
119
121
121
119
116
110
106
102
102
110
116
117
117
119
119
116
116
119
123
121
121
119
117
123
121
121
121
121
121
123
119
110
108
110
116
112
104
93
86
85
85
83
81
88
95
99
106
110
116
116
117
119
119
117
119
119
117
114
116
119
117
117
119
117
117
119
117
116
112
106
102
99
102
112
116
116
117
119
119
116
116
119
121
121
119
119
119
123
116
121
119
121
125
127
121
112
108
110
117
119
112
101
90
81
80
83
83
88
95
101
108
114
116
116
116
114
116
112
116
116
117
116
116
119
117
117
117
117
119
116
114
112
112
106
106
104
104
110
116
116
117
119
117
116
116
117
119
121
121
121
121
123
119
119
121
121
127
125
123
114
114
114
119
123
119
110
95
85
78
80
83
90
99
104
110
116
119
116
117
119
116
114
116
117
116
116
117
116
116
116
116
116
117
116
114
114
112
110
110
106
102
106
112
114
117
117
114
116
117
117
117
117
117
119
117
117
119
119
121
125
127
125
121
117
117
117
121
123
123
119
106
92
80
75
81
90
101
108
114
117
119
119
117
117
116
117
119
121
119
117
117
117
116
119
117
116
117
117
116
114
116
114
114
112
106
106
110
114
112
117
114
117
116
116
116
114
117
117
116
116
119
117
119
123
125
121
119
119
121
121
119
125
125
121
117
104
86
78
80
90
99
108
114
119
119
121
117
116
116
119
123
123
121
119
117
117
119
121
117
114
114
116
116
116
116
114
112
110
106
106
108
108
108
114
114
116
114
112
116
116
117
116
114
116
117
116
117
123
119
121
121
119
123
125
125
129
127
127
121
114
99
85
80
85
93
102
110
116
116
119
119
117
114
117
123
123
121
121
119
119
121
121
116
112
116
114
114
117
114
112
112
110
110
110
108
110
114
116
116
114
112
110
114
116
114
116
112
116
114
116
116
116
117
119
116
119
121
127
125
129
129
127
123
119
108
95
85
81
83
95
104
110
114
116
116
116
119
121
123
125
127
123
121
121
119
119
117
116
114
114
114
110
108
112
114
110
110
110
112
117
117
119
114
114
114
114
116
116
114
116
116
116
110
110
112
112
112
116
116
116
117
121
125
127
129
127
123
119
114
102
92
85
78
83
97
106
110
112
110
112
117
123
125
125
129
125
125
125
123
123
121
116
112
116
114
110
112
114
112
112
114
112
116
117
116
116
116
116
116
114
117
117
116
116
116
114
110
110
112
112
110
114
116
116
117
119
123
125
123
123
123
119
117
108
99
90
81
76
86
97
106
112
112
112
116
119
125
125
127
125
123
127
125
125
123
119
117
117
116
114
114
114
114
117
117
114
112
112
108
110
114
114
114
114
117
116
116
116
116
117
112
112
114
114
112
114
114
114
119
119
121
123
123
121
123
117
117
114
102
93
86
80
80
86
99
108
114
116
114
119
123
125
125
127
127
127
125
125
123
123
117
114
114
114
116
117
116
119
121
116
112
106
104
106
108
108
110
114
112
114
116
116
116
116
116
116
117
117
117
114
114
114
116
116
117
123
121
117
116
117
119
117
106
97
90
85
81
78
88
101
110
114
112
114
121
125
127
131
131
127
125
125
125
123
116
114
114
114
116
116
116
119
119
117
116
108
106
110
110
112
112
110
112
114
116
117
114
116
114
117
119
119
117
117
116
116
114
110
116
119
119
114
116
119
119
119
108
101
93
90
83
75
80
90
101
110
110
112
117
123
129
131
129
127
125
125
121
117
119
114
114
114
117
116
117
121
123
119
119
114
114
114
112
116
110
108
114
114
114
116
116
114
116
116
117
119
119
119
119
121
114
108
116
117
116
114
114
116
117
117
112
106
99
92
88
81
78
83
92
102
108
112
117
119
127
129
129
129
125
121
121
117
117
119
117
117
119
119
119
123
123
121
119
117
114
112
110
112
110
112
112
112
116
116
116
112
116
114
116
117
119
119
121
121
112
108
112
112
114
114
114
116
116
116
114
108
104
95
92
86
83
80
80
92
97
104
110
116
121
125
127
131
127
125
123
121
125
123
121
123
121
121
119
123
123
119
119
116
116
112
106
108
112
112
114
116
117
116
114
112
117
114
116
117
117
119
121
119
110
106
110
112
114
114
114
117
116
116
116
112
104
99
93
88
86
81
76
80
88
99
102
108
116
119
125
129
131
127
127
127
129
129
125
125
123
123
121
123
123
119
119
117
116
106
104
110
114
114
114
114
117
117
117
116
116
114
114
119
117
121
121
116
110
108
108
110
110
108
114
117
117
119
117
110
108
101
95
92
88
85
78
75
80
88
101
106
110
116
119
127
131
131
129
127
127
127
127
127
121
125
125
123
121
117
112
112
110
104
106
110
114
116
116
117
116
116
117
117
114
116
114
117
119
121
117
112
110
106
108
110
108
106
114
114
116
119
114
112
110
104
99
92
90
85
80
78
81
85
92
102
108
112
116
123
125
125
127
129
127
127
131
129
127
125
123
121
117
112
108
106
106
104
104
108
112
117
116
116
112
114
116
116
114
116
114
117
119
114
114
114
114
112
112
112
106
106
110
116
117
116
112
114
108
104
102
95
86
81
80
81
81
81
81
92
101
104
110
116
119
121
121
125
125
127
127
127
127
125
121
117
114
110
106
106
102
102
101
106
110
116
117
114
114
114
114
114
114
117
114
116
116
114
116
114
114
114
114
114
112
112
114
117
117
116
116
114
112
106
102
99
90
83
81
85
83
78
73
80
88
93
99
104
110
114
114
117
119
121
119
121
123
123
119
116
110
110
112
108
104
104
101
104
110
114
114
112
112
114
114
112
112
116
117
114
116
117
114
116
116
116
116
116
114
117
121
121
121
119
121
119
116
110
108
104
95
86
83
83
83
81
75
76
80
88
93
99
104
110
112
114
114
117
119
121
123
123
121
117
116
116
114
112
110
108
104
106
110
112
108
110
110
108
110
112
112
112
112
112
110
112
114
116
117
119
119
117
117
119
121
125
125
121
121
117
114
114
112
110
104
95
85
85
86
80
78
75
75
81
92
95
101
110
114
114
116
116
117
121
125
125
125
123
123
121
121
119
119
116
112
108
110
108
102
104
102
101
102
106
112
106
106
110
112
114
116
116
119
121
119
117
119
121
119
119
123
121
121
119
116
116
117
117
108
102
93
90
90
81
83
78
73
78
86
92
99
108
114
116
112
116
119
125
127
129
133
131
129
127
125
123
123
119
117
112
110
110
104
104
106
104
106
106
112
110
110
114
117
114
114
116
117
119
119
117
117
121
119
121
125
125
121
121
116
116
119
121
116
108
101
95
90
88
85
81
76
78
83
92
99
108
114
116
114
117
123
127
129
133
135
135
133
129
127
125
125
123
121
116
112
110
108
110
110
110
110
110
112
110
114
116
117
116
119
116
116
119
119
119
117
119
119
125
125
125
123
121
121
119
121
123
119
114
108
99
93
90
86
85
81
81
80
86
95
104
112
116
119
121
121
123
127
133
135
135
135
131
129
131
131
125
123
119
114
108
112
114
114
117
116
116
110
112
117
117
119
114
116
114
117
117
119
119
121
117
117
121
125
123
123
123
125
121
119
121
125
119
112
106
95
90
86
85
85
81
80
80
88
101
110
110
114
117
117
123
123
129
131
131
131
133
131
131
131
127
123
123
117
112
116
117
121
119
117
119
108
112
116
116
116
114
114
114
116
116
117
119
119
117
119
121
125
123
125
127
125
123
121
123
127
123
119
112
102
95
90
88
85
85
83
80
80
90
102
108
112
112
117
121
125
127
129
129
131
133
131
131
131
131
127
125
123
119
119
121
123
119
117
117
110
110
114
116
116
117
116
116
117
117
117
119
117
121
121
121
125
125
123
123
127
119
119
125
125
123
125
119
110
101
97
92
90
88
86
85
80
83
92
102
106
106
110
117
125
127
127
129
133
135
131
129
129
131
133
131
127
125
125
123
121
119
117
117
112
112
112
114
117
114
112
114
116
116
116
117
117
119
119
117
121
123
123
119
121
121
121
125
127
127
129
127
117
106
101
92
90
88
88
88
83
80
83
90
95
101
102
112
121
125
127
129
133
133
131
133
131
131
131
131
131
133
129
125
123
119
116
116
114
114
114
114
116
116
114
114
114
116
116
116
117
117
116
116
117
121
119
117
116
121
125
129
125
127
131
129
127
117
106
99
95
92
88
90
86
81
80
83
90
93
99
106
114
121
125
127
131
131
135
137
137
135
131
131
131
135
131
131
127
123
121
117
116
116
116
114
114
117
116
117
114
116
114
112
117
117
116
116
117
119
116
117
114
119
125
127
125
127
131
131
131
125
114
106
99
95
93
92
92
86
81
78
83
88
93
102
108
116
121
125
129
133
135
133
135
135
133
135
135
133
133
133
129
127
125
121
119
117
116
116
114
117
116
112
112
112
112
110
117
117
116
117
116
117
119
117
116
121
121
121
123
127
127
129
127
127
123
112
104
99
99
97
93
88
83
78
78
85
90
99
102
110
116
119
125
133
131
129
131
135
137
135
135
133
133
133
131
133
131
127
121
116
114
117
116
116
114
112
112
116
112
114
114
114
116
117
117
119
119
117
116
119
121
119
121
125
127
131
129
127
129
123
110
102
97
95
93
88
86
81
78
81
86
93
95
102
110
114
119
129
131
131
133
135
137
135
135
135
133
133
131
133
133
131
117
117
116
116
117
116
116
114
112
114
114
112
110
112
114
112
114
119
119
114
114
116
119
119
121
125
129
131
127
129
131
127
121
110
101
95
95
95
92
88
86
83
83
90
93
97
102
108
114
119
129
131
131
133
135
131
137
135
131
129
129
131
129
133
117
117
117
116
116
117
121
116
108
116
116
112
112
114
114
114
116
116
116
116
117
119
117
119
121
123
123
127
123
129
129
129
125
116
110
101
97
97
93
90
86
85
81
86
92
97
99
102
108
114
121
129
127
131
135
133
133
133
131
131
131
129
133
131
119
119
117
117
117
119
121
116
114
117
119
117
116
112
114
114
116
116
116
114
116
119
119
119
119
119
117
119
123
125
127
125
127
123
117
114
101
97
93
92
92
90
86
85
88
95
101
101
102
108
114
121
127
133
133
131
131
131
129
133
131
129
135
133
119
119
121
117
121
123
123
121
117
117
117
117
116
110
112
112
114
116
116
114
114
117
117
117
117
117
119
119
119
123
125
127
129
123
121
117
112
104
97
95
93
92
90
86
85
90
95
97
99
101
106
114
121
129
131
133
131
131
129
133
131
129
133
133
119
119
121
121
119
121
121
119
117
117
121
119
117
114
114
117
116
114
114
112
114
116
116
116
116
116
117
117
119
123
123
123
121
121
121
121
117
114
104
99
97
95
90
90
83
85
93
95
93
95
99
106
116
121
127
131
131
131
131
133
131
131
131
133
119
117
119
121
123
121
117
119
121
117
121
123
121
116
117
119
117
114
112
112
116
119
117
116
114
114
116
119
119
117
119
117
119
121
121
119
121
117
116
108
102
99
97
93
90
85
88
92
93
95
97
99
106
114
119
127
131
131
133
133
131
129
127
129
