P2
# 80 of 608 Angiograms
64 64
255
117
119
117
116
117
116
116
114
116
116
112
116
116
116
116
114
114
112
114
114
112
112
112
110
112
110
110
112
116
116
116
117
114
112
112
114
114
114
117
117
117
117
119
117
117
116
112
114
116
116
119
117
116
116
117
117
119
121
123
125
123
121
119
119
119
121
119
117
117
116
117
114
116
114
112
114
116
117
117
112
110
112
114
112
112
108
108
110
110
110
108
110
114
110
112
116
116
116
116
116
112
114
116
117
119
119
116
116
116
117
114
114
116
116
117
116
119
117
116
117
117
119
121
125
127
123
119
119
121
119
119
117
116
117
117
117
116
114
114
112
114
116
114
114
112
110
110
108
112
108
106
112
114
114
114
114
114
112
110
110
114
114
116
116
116
117
117
119
119
121
117
116
117
117
116
116
116
116
114
114
117
117
116
116
117
117
119
127
127
125
119
121
123
123
123
121
116
116
116
114
112
110
114
114
114
114
114
114
112
112
112
114
110
108
110
112
110
110
110
112
110
114
110
108
112
114
114
116
117
119
119
121
121
121
119
119
117
117
116
116
117
117
116
116
117
117
116
116
117
116
116
125
127
125
121
119
119
117
119
121
117
114
110
114
110
110
110
114
112
112
114
112
110
112
116
116
112
112
110
108
108
108
106
106
108
114
114
114
117
117
116
117
121
123
119
121
121
119
119
123
121
119
116
116
117
117
116
114
116
119
119
117
117
119
117
123
125
123
121
119
121
117
116
116
114
114
108
108
110
110
108
106
110
110
112
112
112
114
116
116
114
112
110
108
106
108
110
108
110
116
116
114
117
116
116
117
121
119
121
121
121
121
125
123
123
121
119
119
119
117
119
117
116
116
117
116
116
117
119
121
121
119
119
119
121
119
114
114
112
114
110
106
102
106
106
106
110
108
110
112
108
112
114
114
114
112
108
108
108
114
112
110
112
112
116
117
119
117
114
117
117
121
123
125
123
123
125
121
121
123
121
119
117
117
117
117
117
114
114
116
116
116
117
121
117
121
123
119
119
117
114
114
116
116
112
106
102
102
104
104
104
106
108
110
110
108
112
114
114
112
112
110
112
112
112
112
114
114
119
119
119
117
117
116
121
123
123
123
125
125
125
123
123
123
121
117
119
121
119
117
116
110
114
116
117
119
117
117
117
117
119
119
121
116
114
114
116
116
110
102
99
99
104
102
101
104
108
110
108
110
112
114
114
116
114
112
112
112
110
112
116
117
116
114
117
119
121
119
121
123
123
125
127
127
127
123
121
121
121
121
123
123
117
117
116
116
117
114
116
116
119
117
117
117
119
119
117
116
112
110
110
108
102
99
99
99
101
99
101
101
104
108
108
112
110
114
114
114
116
114
112
110
114
114
117
116
114
114
119
121
121
119
121
123
123
125
125
125
123
121
121
123
121
121
121
117
117
116
114
117
121
117
117
119
121
119
117
116
117
117
110
108
108
106
106
104
99
93
93
92
93
93
95
99
102
104
110
112
112
117
117
116
116
117
116
112
112
116
117
116
117
117
117
119
121
121
121
123
125
123
123
125
121
121
123
123
119
121
119
119
121
119
117
117
117
117
117
119
117
117
117
117
117
117
104
101
101
102
102
101
95
90
88
90
92
93
93
97
99
104
108
112
114
116
117
116
114
116
116
117
116
117
117
117
119
119
119
119
121
123
123
125
127
125
125
125
121
123
125
123
117
121
119
123
123
119
119
121
119
119
121
119
119
117
117
117
119
119
95
93
93
95
95
93
90
86
86
92
93
95
93
97
99
104
106
108
112
114
119
116
114
114
116
119
119
117
119
121
121
121
119
121
123
121
125
125
125
127
129
129
123
125
127
125
121
121
121
123
121
116
117
117
119
117
117
121
121
119
117
117
119
121
85
86
88
90
90
90
86
86
86
88
92
93
92
95
99
101
104
108
110
112
116
116
114
116
116
117
119
119
119
123
123
121
121
123
125
121
123
125
127
129
131
131
127
129
127
125
123
123
121
121
119
116
116
119
119
119
117
123
123
121
121
119
119
119
81
83
83
85
85
85
81
83
86
86
92
90
88
92
95
99
101
106
108
110
116
116
116
116
117
119
119
123
123
125
123
123
125
125
125
123
123
125
127
131
129
125
123
125
125
125
125
125
125
123
119
119
121
123
119
119
121
123
125
121
121
119
119
119
80
81
81
80
80
81
85
81
83
83
85
86
88
92
95
97
97
102
104
112
114
117
116
116
119
121
121
123
125
127
127
127
127
127
127
125
127
127
127
131
129
123
123
123
123
125
125
125
125
125
123
123
123
121
119
117
119
121
123
121
119
117
119
121
78
81
83
76
76
80
85
80
80
85
86
86
90
92
93
97
97
101
104
110
114
116
112
114
121
125
125
123
125
127
129
127
123
125
127
127
127
125
129
129
127
121
123
123
125
127
127
123
121
121
121
121
121
117
116
119
121
119
117
119
119
116
117
117
76
80
81
78
78
81
86
85
85
90
92
90
92
92
93
97
101
104
106
110
114
116
112
114
119
123
125
125
125
129
129
127
127
127
125
127
131
127
125
129
129
127
127
127
127
127
123
121
121
123
125
125
121
116
116
116
119
119
117
119
117
116
119
117
76
80
83
80
80
83
83
85
85
86
90
90
92
97
97
95
99
104
106
108
114
119
117
117
117
123
125
123
127
129
129
127
127
127
129
129
131
129
127
127
125
127
125
125
127
127
121
119
123
125
123
123
119
116
119
117
117
117
119
119
117
116
116
116
83
86
86
85
81
78
78
81
85
83
83
88
93
95
95
99
102
104
106
108
114
116
114
117
121
123
125
127
127
125
127
125
127
131
129
129
129
131
131
131
125
127
123
125
125
125
119
117
121
127
125
121
119
117
119
117
116
117
117
121
119
117
114
114
92
92
92
92
88
85
85
83
85
85
81
88
95
93
93
99
102
106
110
110
112
112
114
116
119
123
125
127
125
125
127
125
129
135
133
133
131
125
131
131
127
127
123
121
121
123
121
117
121
125
123
121
119
119
117
117
119
117
117
117
117
117
116
116
102
102
102
102
99
97
95
92
92
90
90
93
95
95
95
101
104
110
112
112
114
114
112
116
117
119
119
123
127
125
129
129
131
133
133
133
129
125
131
133
127
121
121
121
123
123
121
123
123
123
121
121
121
121
119
117
119
117
116
114
114
116
117
117
112
112
114
114
114
112
108
104
102
101
99
99
99
101
102
106
110
112
110
110
110
112
112
114
117
117
117
121
127
125
127
131
131
131
131
131
131
129
129
133
129
125
125
125
127
121
119
125
123
121
121
121
119
121
121
119
117
117
116
116
114
116
114
117
117
119
119
119
121
116
112
112
112
112
110
110
108
108
110
108
106
108
110
110
108
110
110
112
114
117
121
121
125
127
127
129
127
127
129
127
129
129
129
127
127
127
125
125
125
123
121
125
121
121
123
123
125
121
117
117
117
117
116
114
117
117
116
116
123
121
123
123
123
119
116
116
117
116
116
117
116
116
114
112
108
106
106
108
108
108
108
110
114
117
119
121
125
125
125
127
127
131
131
131
129
127
127
123
123
127
129
125
121
125
123
121
119
125
125
125
123
119
116
116
116
116
114
112
119
117
114
114
119
123
123
123
125
123
119
119
121
119
119
119
121
123
125
123
114
110
104
104
106
108
108
112
112
114
117
119
123
125
125
127
125
129
131
129
129
129
127
119
119
125
125
123
121
123
123
119
119
119
119
119
117
116
116
114
116
112
112
114
116
114
114
114
119
121
121
121
121
123
121
123
123
125
125
121
121
121
127
123
121
114
108
104
102
104
110
110
108
114
117
119
121
121
123
125
127
129
127
125
125
127
121
119
121
125
123
119
119
119
119
116
114
116
114
114
112
112
110
112
116
116
116
114
114
110
114
114
116
117
123
123
123
119
119
121
123
119
123
123
121
121
123
127
123
119
114
108
102
102
108
106
104
110
114
114
116
119
119
121
123
127
125
121
121
121
117
117
119
117
117
114
114
114
116
114
110
112
110
110
108
108
110
110
114
116
117
116
116
112
108
108
114
117
121
121
123
117
116
119
119
119
121
119
119
121
121
123
123
119
114
114
108
106
106
104
101
102
108
110
112
114
116
116
117
121
121
119
117
116
114
116
117
119
116
117
119
116
114
112
108
108
106
110
110
104
110
110
112
112
116
114
116
114
110
104
117
119
119
123
121
117
116
117
117
119
117
117
121
121
121
123
125
121
117
116
114
112
110
108
104
101
102
104
104
106
108
112
114
116
114
112
110
110
114
117
119
123
121
119
119
119
117
114
106
106
104
110
110
104
106
108
112
112
114
116
117
117
110
102
117
117
117
121
119
121
119
119
117
117
117
116
114
117
119
123
123
123
121
119
119
119
116
112
108
101
101
101
97
99
101
106
110
110
110
110
106
108
112
117
121
123
125
119
119
123
123
116
110
110
110
114
112
112
110
114
117
117
116
116
117
116
110
106
116
116
121
123
119
117
117
117
114
116
116
116
114
114
117
117
121
119
119
121
119
121
119
116
112
106
101
97
92
93
93
99
102
106
106
106
102
104
108
116
119
123
123
121
123
121
121
117
110
106
112
114
116
114
114
119
121
119
116
116
116
116
114
112
119
117
117
121
119
121
119
116
114
112
110
116
114
116
114
114
116
116
119
119
119
121
121
116
116
110
106
101
93
93
93
92
95
99
102
101
99
99
102
108
114
119
121
119
123
119
119
117
112
112
112
114
112
117
119
125
121
119
117
119
116
117
116
110
123
117
116
119
121
125
121
116
116
116
112
114
116
117
117
117
117
116
117
119
119
119
117
117
117
116
112
106
101
95
92
86
86
92
95
97
97
97
99
102
108
112
116
117
119
116
114
112
116
117
114
114
112
114
119
123
119
117
119
121
119
119
116
116
123
121
117
119
123
123
123
117
119
119
119
117
117
119
119
117
117
119
117
119
121
119
117
117
117
117
116
114
110
101
97
90
86
86
86
88
92
93
95
97
102
104
106
112
114
114
110
110
114
114
110
110
112
114
114
119
121
117
119
121
119
123
121
121
125
123
121
123
123
123
125
119
119
123
121
121
119
123
119
121
123
121
119
121
121
121
119
117
116
119
119
119
117
110
102
95
90
85
81
81
85
86
88
90
92
97
99
102
108
110
110
110
110
112
110
110
110
112
114
116
121
119
117
119
119
121
123
119
123
123
123
123
121
121
119
119
125
127
127
125
121
123
125
123
121
125
123
121
119
119
119
119
119
121
123
121
121
116
108
102
95
86
78
73
75
76
80
81
83
86
90
95
99
102
104
106
108
110
112
110
110
112
114
114
119
123
121
123
121
121
121
117
123
123
123
121
123
121
121
121
123
127
127
123
121
125
125
123
125
127
127
123
123
121
119
117
117
119
119
121
121
119
114
108
101
92
83
76
73
70
72
73
75
80
81
86
92
95
95
99
101
102
108
108
106
110
110
114
119
119
121
121
123
123
119
116
121
121
121
121
123
125
123
125
125
125
127
127
125
123
121
123
125
127
127
125
125
123
121
119
121
121
119
117
117
117
117
110
102
97
88
81
75
65
65
72
72
75
81
85
86
90
92
93
93
95
99
101
104
108
108
110
117
121
121
119
119
123
119
117
123
127
127
125
123
125
125
125
123
127
127
127
129
125
121
119
123
129
127
125
121
121
121
123
123
125
123
121
121
119
117
114
106
101
92
86
76
70
68
72
73
73
78
83
83
86
90
92
92
95
93
93
99
102
106
106
110
116
119
119
119
123
121
117
125
125
127
127
125
123
129
127
127
127
125
127
127
125
123
123
123
127
127
127
123
121
125
125
125
123
125
123
121
121
119
119
110
104
97
92
83
76
75
73
72
75
81
85
85
85
90
88
90
88
90
93
93
97
95
97
102
108
112
117
117
119
121
121
125
119
125
125
121
123
127
129
127
123
123
125
127
127
123
125
127
125
127
127
123
121
121
127
125
121
125
123
123
119
121
119
112
106
101
93
88
81
80
76
76
81
83
85
86
88
88
88
88
88
88
92
90
95
93
93
95
99
102
108
114
116
117
116
125
123
123
123
123
125
127
127
127
125
125
125
123
125
123
125
129
123
127
127
125
123
125
127
125
121
121
119
119
121
119
117
112
108
101
95
92
88
83
78
78
83
85
86
92
93
90
92
95
93
90
92
93
92
93
92
92
92
92
97
106
112
116
116
121
123
125
125
125
125
127
125
129
129
129
125
123
123
123
123
125
123
123
125
127
127
127
125
125
121
119
121
123
121
119
121
114
108
101
95
90
88
85
85
81
81
81
90
93
95
97
99
101
99
95
95
95
93
93
93
90
90
88
92
99
108
116
119
119
119
123
123
123
125
121
123
129
127
127
125
121
119
121
125
125
125
121
121
127
127
127
127
125
123
121
119
119
117
119
121
116
108
101
97
90
86
86
86
81
78
83
83
90
93
97
99
104
104
102
106
104
102
101
99
95
92
88
92
97
104
116
121
110
114
116
117
119
121
117
121
127
125
123
123
119
119
121
125
125
125
121
123
125
125
123
123
125
125
125
125
121
117
117
117
112
108
104
101
95
90
86
88
83
81
81
83
85
90
95
97
104
104
102
108
106
106
108
110
104
99
95
90
93
101
110
121
101
102
106
110
114
116
117
119
121
119
119
121
121
121
123
123
125
125
121
121
121
123
121
121
121
123
125
125
121
117
116
114
112
112
110
104
97
90
86
86
85
85
81
81
81
86
93
99
101
101
102
104
101
102
108
112
112
106
101
95
95
99
104
114
97
101
104
104
106
108
110
110
112
114
116
116
117
117
121
121
123
123
121
123
121
119
121
121
121
121
123
123
119
114
112
108
108
112
112
108
97
88
86
85
83
83
83
81
81
81
88
95
97
97
97
101
101
101
104
106
104
102
99
97
97
101
101
108
102
104
108
104
104
102
106
106
106
108
112
116
114
112
114
117
119
121
121
121
119
119
121
121
121
121
119
117
112
108
106
110
110
110
110
106
97
88
86
85
83
80
83
83
85
85
85
92
95
97
99
99
101
97
97
99
101
99
93
92
95
95
95
101
106
106
106
102
101
101
102
104
99
99
104
108
108
110
114
114
117
117
117
119
121
123
123
119
119
117
116
112
108
106
104
108
114
116
112
106
101
93
90
88
85
81
85
85
85
85
86
92
95
95
99
99
99
101
99
97
97
92
88
92
92
92
92
95
110
110
110
106
102
104
104
106
101
95
101
106
104
102
106
108
110
112
112
116
119
121
121
119
116
116
110
108
104
102
106
108
114
117
116
108
102
99
92
88
83
85
85
86
85
85
85
90
93
97
99
99
99
99
101
97
95
88
86
88
88
90
90
90
114
117
114
112
110
110
108
108
106
102
101
101
101
99
101
101
102
104
108
108
112
114
114
114
114
114
106
104
101
104
112
114
119
121
119
114
110
104
97
90
86
85
83
86
86
88
86
88
93
101
97
99
101
101
102
101
99
92
86
86
88
90
90
90
119
119
116
116
116
116
114
112
108
108
104
101
101
99
97
97
101
101
104
102
104
106
108
106
104
102
97
99
101
104
112
114
119
117
117
117
112
108
99
95
90
88
83
85
86
86
88
86
93
101
101
101
104
106
106
101
102
97
90
85
86
86
88
86
119
116
116
117
117
117
119
116
114
112
110
108
104
102
101
99
101
99
101
99
102
104
102
101
101
95
95
95
99
102
106
110
114
116
117
116
112
104
97
95
90
86
85
83
85
85
86
86
90
95
97
101
106
112
112
106
104
102
97
90
88
83
83
85
119
114
117
117
117
121
119
117
116
116
114
114
112
110
106
104
104
104
102
99
101
101
99
97
93
90
92
95
101
102
104
108
112
112
110
110
108
104
97
93
90
86
81
83
83
85
86
85
90
92
95
99
102
110
114
112
108
104
102
97
90
85
86
86
116
116
119
117
117
119
119
119
117
117
117
117
119
116
114
110
110
106
104
102
101
99
95
92
90
90
93
97
101
102
104
106
108
106
104
104
106
104
99
93
93
90
90
86
88
86
85
86
86
88
90
97
97
104
108
106
108
110
104
101
97
95
93
92
116
116
117
116
114
117
119
119
119
119
117
117
119
117
117
114
110
110
110
104
102
99
93
92
93
95
99
102
104
106
106
104
106
102
101
101
104
102
99
95
93
92
93
88
90
88
83
83
81
85
86
92
92
95
101
102
104
108
104
102
101
101
102
99
112
116
116
117
114
117
117
121
119
119
117
117
117
117
117
116
114
114
110
106
102
97
97
99
99
101
104
104
110
106
104
102
104
102
101
104
106
99
99
97
97
93
90
92
92
90
81
80
81
80
81
88
90
92
93
99
104
106
106
102
104
106
104
106
112
117
116
116
116
116
117
121
121
119
121
119
116
116
114
116
117
112
106
102
102
104
104
106
108
110
112
112
112
112
110
108
106
104
104
106
106
104
102
102
102
102
99
95
93
92
86
86
81
81
85
86
90
90
90
90
97
101
101
102
104
108
106
108
110
112
114
114
114
116
117
117
117
116
119
121
119
117
114
114
114
106
104
101
102
106
108
110
116
114
116
116
116
116
116
114
110
108
110
110
106
110
110
108
110
110
108
102
97
95
92
88
85
85
86
86
85
86
85
83
88
93
97
97
101
104
108
112
108
110
112
116
116
114
116
117
121
116
119
119
116
114
112
112
106
102
106
104
102
104
108
112
114
116
117
116
116
116
119
117
116
116
114
110
108
112
112
114
114
114
116
112
104
99
95
92
86
85
85
85
85
85
85
81
83
88
93
93
93
95
102
106
110
112
112
112
116
116
116
117
119
116
116
116
114
114
108
106
104
104
104
106
104
106
110
110
114
116
114
114
114
114
114
116
117
116
110
112
114
112
112
114
114
116
116
114
112
106
99
95
90
88
85
83
85
83
81
83
85
85
86
86
86
88
93
101
108
108
112
112
116
112
110
110
110
110
110
108
106
106
104
102
102
102
104
106
106
110
114
112
110
110
112
114
114
116
116
117
116
116
114
114
112
112
112
114
112
114
114
116
114
114
106
101
93
90
86
83
81
83
83
83
81
83
85
85
83
80
86
95
108
110
112
112
110
108
106
106
108
106
104
104
104
102
99
101
102
106
104
104
106
108
114
110
110
110
110
117
114
114
116
114
114
114
114
114
110
116
116
117
116
112
112
114
117
119
114
104
99
92
86
81
80
85
85
83
83
86
85
81
78
80
85
90
