P2
# 84 of 608 Angiograms
64 64
255
119
119
116
116
117
116
114
114
112
116
114
114
114
117
114
114
117
112
112
114
114
116
112
112
114
112
112
112
112
112
114
116
116
112
108
112
112
114
116
117
117
117
116
116
119
119
119
119
116
116
117
117
121
117
117
119
119
117
119
121
121
121
121
121
121
121
117
116
116
116
114
110
112
116
119
117
116
114
114
114
114
114
112
112
114
114
112
108
110
116
116
116
114
112
114
117
116
116
114
112
112
114
116
116
117
117
119
117
116
116
116
117
117
116
117
121
121
121
119
117
119
119
117
121
123
123
121
121
123
123
121
116
116
116
112
114
117
117
116
116
116
116
112
112
114
114
114
114
114
112
108
108
108
114
114
114
110
114
114
117
117
117
114
112
114
116
116
116
119
121
123
117
116
116
116
116
117
116
117
119
119
121
121
119
119
121
121
123
121
123
123
121
125
121
121
116
114
116
114
114
117
116
114
114
116
117
114
112
114
116
114
116
114
110
112
112
112
112
112
116
116
116
114
116
119
121
119
116
116
114
114
116
121
125
123
119
117
116
119
116
114
116
119
119
121
121
123
123
121
119
119
121
121
125
125
121
123
123
119
114
117
117
114
114
112
114
112
114
114
114
112
114
114
114
114
114
112
112
108
112
116
116
114
114
116
116
114
117
119
121
121
117
116
116
117
114
117
119
119
121
117
119
119
116
114
116
117
117
121
123
121
123
121
119
123
125
127
127
121
119
119
119
119
116
116
117
114
108
106
108
108
108
110
112
114
116
116
114
112
114
112
110
106
108
110
110
108
110
112
116
116
121
117
117
117
123
119
119
117
117
119
119
119
119
117
121
121
117
117
117
117
119
121
121
117
121
121
121
125
123
127
125
119
117
116
116
119
116
116
116
112
106
104
102
104
110
110
112
114
110
114
114
112
112
112
110
108
108
106
108
112
112
112
116
119
121
119
116
116
119
121
119
121
117
119
119
121
121
123
121
123
119
117
117
116
117
119
116
116
119
117
117
123
123
121
121
119
119
121
117
116
114
117
116
112
106
102
102
104
108
106
108
106
110
112
114
112
112
112
108
112
108
110
110
114
114
114
114
117
117
119
119
117
119
119
121
125
125
123
119
123
123
123
121
121
119
119
119
119
116
114
116
117
116
116
119
123
121
121
117
119
121
123
119
119
119
117
116
112
108
106
102
101
106
108
106
104
108
110
114
112
112
114
108
112
110
112
114
114
114
114
116
117
117
117
121
121
123
119
119
121
123
127
123
127
125
123
125
121
121
121
121
117
117
116
116
116
116
114
119
119
117
119
116
119
119
119
117
116
116
117
116
110
108
104
101
104
106
106
102
106
110
110
112
114
112
114
110
110
112
112
116
116
117
117
119
121
121
119
123
125
121
119
117
119
123
123
125
125
125
125
127
123
123
121
119
117
119
117
114
116
116
117
119
119
117
117
116
117
116
110
110
110
108
108
110
106
104
102
101
102
102
102
101
104
106
108
112
114
114
114
116
112
112
114
117
117
117
116
121
119
117
119
125
119
117
117
121
123
121
125
125
127
127
125
125
121
119
121
119
119
119
117
116
117
116
117
117
117
117
117
117
116
114
102
106
108
106
104
102
101
99
99
101
101
101
99
99
99
104
110
112
116
116
116
116
114
116
116
116
117
116
117
121
117
117
123
125
123
123
121
125
125
121
123
123
125
129
129
127
123
119
119
117
117
114
114
114
117
119
121
119
117
117
117
119
121
117
99
101
104
104
99
95
93
93
97
101
101
101
95
93
92
99
106
110
112
114
117
114
114
119
119
117
117
114
117
119
117
121
125
127
123
125
127
127
123
123
121
121
125
129
127
123
121
119
119
117
117
114
114
116
116
117
119
117
116
116
116
121
125
119
93
99
102
102
97
93
95
95
97
95
95
95
97
95
92
92
101
104
108
112
114
116
116
119
119
119
117
117
117
117
119
121
125
127
127
123
127
125
121
123
121
121
121
125
127
125
125
121
121
119
119
121
117
117
116
114
116
119
117
117
116
119
123
121
92
93
93
95
95
95
92
92
93
90
92
95
93
93
92
90
95
101
104
112
114
114
116
117
121
121
119
119
123
121
119
121
125
127
127
123
127
125
125
129
125
125
125
127
127
127
125
121
119
119
117
119
119
116
116
114
117
123
121
117
116
119
121
121
93
88
86
88
88
92
90
95
92
90
92
95
93
93
93
92
95
101
104
108
112
112
116
117
117
117
123
125
125
123
121
123
127
127
127
127
125
123
127
131
131
131
127
127
127
127
123
119
119
121
121
119
117
114
116
117
117
117
119
116
119
121
121
119
92
90
85
86
86
92
90
95
92
93
92
93
93
93
95
97
99
102
106
110
114
114
116
116
117
119
123
125
125
127
127
125
125
125
125
127
125
125
127
131
133
131
127
125
123
121
123
121
121
121
121
119
119
119
121
119
119
117
117
117
117
119
121
116
90
88
88
86
86
90
90
95
95
97
95
95
93
92
95
95
99
102
104
112
116
117
117
117
119
123
123
121
123
127
127
125
125
127
129
131
129
127
129
127
129
131
127
123
119
119
121
123
121
119
117
119
123
121
116
117
119
121
119
119
117
116
119
114
88
88
90
92
92
90
93
93
95
97
101
99
97
97
101
101
99
101
106
114
114
116
119
117
121
123
123
123
123
127
127
127
129
131
131
133
127
127
129
127
125
125
125
125
121
119
121
123
121
121
121
119
121
121
117
116
117
116
117
121
117
117
119
116
86
88
90
90
88
88
92
90
93
99
101
101
102
102
104
104
101
104
108
114
112
116
117
117
121
123
123
121
123
127
127
125
127
133
131
131
133
131
127
129
125
123
125
127
123
121
121
125
121
121
121
121
121
121
119
119
119
116
119
119
119
117
116
116
90
93
90
88
86
86
88
88
92
95
97
97
102
102
106
106
104
110
112
112
112
116
116
117
121
123
121
123
119
125
125
127
127
131
129
129
133
133
131
127
123
123
123
123
121
121
117
121
121
121
123
123
119
123
119
119
123
121
119
117
117
116
114
114
95
95
95
92
90
90
90
92
88
90
92
95
97
101
102
108
112
112
112
114
116
117
116
119
121
125
125
125
123
125
129
127
127
129
131
131
135
133
133
129
123
121
121
121
121
123
123
123
121
121
123
125
123
123
121
119
121
121
119
117
116
110
114
116
106
102
101
101
99
99
97
97
95
95
95
92
92
97
101
106
110
110
112
114
112
116
116
117
121
121
125
127
125
127
131
131
131
131
133
131
135
131
131
125
123
121
121
127
125
121
123
123
123
123
127
127
127
123
121
116
121
119
117
117
117
112
112
116
116
114
114
114
110
106
106
104
102
102
102
101
99
99
102
104
106
108
110
114
112
112
114
119
119
121
125
127
127
129
131
131
131
133
135
133
133
131
131
129
123
123
127
125
123
121
121
123
121
125
127
125
125
123
119
116
116
121
121
116
114
116
117
116
119
121
117
117
117
114
112
112
112
112
112
112
112
110
110
108
108
110
110
110
112
112
114
116
117
119
123
125
131
129
129
131
131
131
131
131
133
131
131
129
125
125
123
125
123
123
121
121
121
127
125
125
127
123
119
117
117
119
119
114
114
114
117
117
119
123
117
119
123
121
117
112
117
121
119
117
119
121
116
112
112
112
108
106
108
112
116
117
119
119
121
129
129
125
125
125
129
131
131
129
131
129
129
125
121
121
125
125
125
125
121
119
123
127
125
123
121
119
116
116
114
116
117
116
116
117
117
119
116
121
121
121
125
125
121
117
119
123
123
119
125
123
119
116
114
112
108
110
106
108
112
116
117
119
123
125
123
123
123
123
123
125
125
127
129
129
125
123
121
121
123
123
123
123
121
123
121
121
123
119
117
116
116
119
117
116
117
117
116
119
119
117
114
117
121
121
117
121
121
117
121
119
119
119
123
125
121
117
117
112
108
108
106
106
104
108
114
116
119
121
119
121
119
119
121
119
119
121
123
123
121
121
119
119
123
121
117
117
117
119
117
116
117
119
119
117
117
119
117
114
117
119
121
121
117
116
117
117
119
119
117
116
117
119
117
116
117
116
116
117
119
119
117
114
112
110
104
104
104
106
110
112
114
116
117
119
119
117
117
116
114
116
117
117
116
112
112
114
117
116
114
114
114
116
114
110
110
112
116
119
116
114
119
116
117
119
119
121
121
119
117
117
117
117
119
116
117
117
116
114
116
116
116
116
119
121
119
117
116
116
110
106
106
108
102
108
110
114
117
114
112
112
114
112
108
108
114
116
116
116
114
110
110
114
114
112
110
110
112
106
104
106
112
114
116
114
114
116
117
116
117
117
119
117
116
116
117
116
117
116
114
114
114
112
114
112
114
119
121
121
117
117
119
119
116
108
106
106
99
101
108
110
110
110
110
110
110
108
106
102
106
112
114
114
117
117
112
114
114
114
110
110
108
104
101
101
106
108
112
112
110
114
116
117
116
119
119
121
121
117
119
117
116
114
116
114
112
116
114
114
116
117
119
119
117
116
116
117
117
112
110
106
101
99
104
106
104
104
104
106
104
104
102
101
102
110
114
114
116
114
116
119
117
117
117
114
108
106
104
102
104
104
104
110
114
116
116
116
117
119
121
119
121
116
119
117
116
114
116
116
116
116
116
114
114
116
117
117
116
112
116
116
114
119
114
110
104
101
102
101
97
99
101
104
104
104
101
99
104
108
112
112
116
114
119
121
119
121
119
116
108
106
108
104
104
102
104
106
114
117
117
117
119
121
121
117
121
117
119
119
117
116
119
119
119
117
116
116
117
116
114
117
114
114
116
117
116
119
119
114
110
104
104
102
99
97
95
101
102
104
102
99
102
102
106
110
112
116
119
119
117
119
119
112
106
110
110
108
108
104
106
110
114
117
117
117
117
119
119
116
125
117
117
121
119
119
121
119
121
119
116
119
117
117
116
117
116
117
116
117
119
119
119
119
114
110
108
106
102
95
90
92
97
101
99
95
97
101
99
102
104
110
117
119
116
117
117
112
108
110
108
110
112
112
110
110
114
116
116
117
119
117
116
114
123
125
123
123
127
123
121
119
121
121
119
121
117
119
117
117
117
117
116
119
119
119
119
119
116
114
116
114
108
101
92
86
86
92
93
90
92
95
95
99
102
106
110
116
116
116
116
112
108
108
108
110
108
110
110
112
114
114
114
114
117
121
117
112
125
125
127
129
127
127
121
119
121
121
119
117
119
123
119
119
119
119
121
123
119
117
119
121
119
119
119
117
114
110
101
92
90
88
90
90
92
92
93
93
99
102
102
108
112
116
116
116
112
110
114
112
110
110
112
116
117
116
114
116
119
117
117
114
129
127
125
125
123
123
121
123
123
121
121
119
123
127
125
123
125
119
117
121
117
117
121
121
121
121
121
119
121
116
108
97
92
86
85
88
88
90
88
85
86
93
97
102
108
112
116
114
114
117
119
112
108
108
114
116
117
117
116
121
121
117
116
114
129
125
121
119
119
123
127
127
121
121
123
123
127
127
123
123
125
123
121
121
119
119
125
127
121
123
125
117
117
119
114
104
95
92
86
85
81
81
81
78
80
83
90
97
102
106
108
114
116
117
119
114
114
116
116
114
116
117
117
117
121
117
116
116
127
127
123
119
121
123
127
129
127
127
129
127
127
125
123
123
125
125
125
125
125
123
127
125
123
125
127
123
121
119
116
108
101
93
88
80
75
75
76
78
80
78
83
88
95
101
102
104
108
112
112
114
116
117
117
114
114
121
119
119
117
116
119
117
127
127
123
125
123
119
125
125
127
131
131
129
129
125
125
127
125
123
123
123
123
121
123
125
127
127
127
123
125
123
119
112
104
95
88
80
73
73
73
75
78
76
80
83
88
92
93
97
101
104
106
108
110
114
116
112
114
116
117
117
117
119
119
121
129
127
123
123
123
125
125
127
129
129
125
123
123
125
125
125
121
121
125
123
123
119
121
123
127
123
123
121
123
125
123
117
106
99
92
86
80
78
73
72
75
76
76
80
83
88
88
88
92
95
99
101
104
106
108
108
110
110
114
116
117
121
119
117
125
125
125
125
125
127
127
129
129
127
125
123
123
125
127
125
121
123
127
127
123
123
119
125
125
125
123
121
123
127
127
121
108
101
97
92
86
83
76
75
76
81
80
83
83
85
85
85
86
88
92
95
95
95
95
97
102
106
108
114
116
117
119
116
121
125
127
127
125
127
129
127
125
127
131
123
125
125
127
125
123
123
123
125
125
125
121
123
125
125
127
127
125
125
125
123
110
101
97
93
90
86
85
85
83
83
86
90
85
85
86
86
88
88
90
90
90
93
93
93
95
99
102
104
110
116
117
116
119
121
125
127
129
127
127
131
131
125
125
123
125
129
127
125
123
123
121
123
127
125
123
125
125
123
125
125
123
123
121
121
114
102
97
92
90
88
86
88
83
85
90
90
90
90
88
90
93
93
93
92
88
88
90
93
92
95
97
99
99
108
117
117
112
116
119
123
127
127
129
131
131
125
121
123
123
123
125
125
123
123
123
125
125
123
123
125
127
127
125
125
121
119
119
119
117
106
99
95
93
88
90
90
86
86
88
93
95
99
92
92
97
97
97
95
92
88
88
92
93
95
101
101
99
104
112
117
106
110
112
117
117
117
119
123
121
119
119
123
125
125
127
125
125
125
121
117
117
123
123
123
127
129
123
121
121
121
121
121
117
108
99
93
90
90
88
88
90
88
88
92
93
97
97
95
97
101
101
97
97
93
92
93
95
93
97
99
101
104
106
112
106
108
108
110
108
108
110
114
116
116
117
121
121
123
125
123
123
123
121
121
121
121
125
123
125
123
123
117
119
121
119
116
112
108
101
97
92
92
86
86
88
86
86
88
92
95
95
97
99
104
104
102
102
99
97
95
97
93
93
97
99
101
104
106
102
108
106
104
102
104
106
106
104
106
110
116
114
116
119
117
117
117
119
125
125
123
125
123
117
116
117
117
117
116
110
110
112
112
104
99
92
92
88
88
88
88
88
90
90
93
95
97
97
102
106
106
108
102
101
101
99
95
95
97
99
99
101
104
106
110
112
108
102
102
102
102
99
99
101
106
110
112
116
116
116
117
119
125
125
125
125
121
119
116
116
114
114
110
106
110
110
114
110
102
92
92
86
86
88
88
86
88
90
90
93
95
97
101
102
106
104
106
104
102
101
99
95
97
101
101
101
99
110
110
116
112
110
106
104
101
97
97
99
99
102
104
106
110
110
114
117
121
121
121
121
121
121
112
114
110
110
108
110
112
112
114
112
106
97
92
90
88
86
83
85
86
86
90
93
93
95
99
104
106
104
104
104
102
101
95
92
93
95
99
101
97
110
114
116
117
112
112
108
104
101
99
93
92
95
99
101
101
104
108
112
112
116
116
117
117
117
114
110
106
104
106
114
116
117
116
114
110
101
93
90
90
86
86
85
86
83
86
92
97
101
102
108
106
106
108
102
106
104
97
95
97
93
93
99
93
114
119
121
117
116
116
114
110
106
102
97
95
95
97
99
97
99
101
101
101
101
104
110
114
114
110
106
101
101
106
117
119
117
116
116
112
102
99
93
90
86
85
83
86
83
85
90
95
99
99
102
102
104
108
102
106
106
101
95
95
92
93
95
92
116
121
121
117
117
116
116
116
112
110
104
102
101
101
99
99
102
99
97
95
93
99
102
106
106
102
99
93
99
106
116
117
117
117
117
114
106
99
93
92
88
85
81
85
85
85
88
93
99
99
102
104
104
104
104
104
102
99
95
95
92
92
93
90
114
116
116
116
116
114
116
117
117
116
114
114
112
110
106
104
104
101
99
97
97
99
101
101
101
95
95
95
99
106
112
116
117
114
114
116
110
102
97
88
86
83
85
86
85
86
90
92
95
101
101
102
106
106
106
102
99
95
95
93
93
95
90
90
114
114
116
116
116
116
116
116
117
117
119
121
116
114
114
110
106
106
106
102
99
101
101
99
93
90
92
97
101
106
108
112
108
106
108
110
108
104
99
88
86
83
85
88
86
86
88
90
92
99
101
101
104
110
106
106
106
101
99
97
95
93
92
90
114
117
117
119
117
119
119
117
116
117
117
116
114
114
114
114
110
106
104
104
101
97
99
95
93
93
97
97
99
104
104
104
101
101
102
104
104
102
93
90
88
86
86
86
83
85
86
88
92
95
97
95
99
106
108
108
108
106
102
102
99
101
95
93
116
119
117
117
119
123
121
121
121
117
116
114
116
114
114
112
112
110
108
108
104
99
99
101
97
99
101
102
102
104
104
102
102
101
99
104
104
102
101
97
93
88
88
85
80
80
83
88
88
93
93
95
95
99
102
102
104
106
106
102
101
102
101
97
116
119
119
119
121
119
117
117
117
119
116
116
116
116
114
114
114
110
106
108
104
101
101
102
104
106
108
106
106
106
108
108
108
104
106
106
102
104
104
102
99
93
88
88
85
83
83
85
86
90
93
95
95
97
95
97
101
101
102
102
102
106
108
106
114
117
119
117
119
121
117
116
117
117
117
114
116
117
117
112
110
104
104
102
102
101
102
104
110
114
114
112
112
114
116
112
112
112
108
104
102
102
104
108
104
101
97
93
90
86
85
83
85
88
90
92
93
93
93
95
99
101
102
104
106
112
114
108
117
117
116
116
116
119
117
117
116
114
110
112
112
114
116
116
108
102
102
102
99
101
106
110
112
114
116
114
112
114
117
116
114
114
110
110
108
108
110
110
110
108
104
97
93
90
86
86
86
86
90
92
92
90
90
92
95
99
101
104
108
110
108
108
119
117
114
112
114
117
117
114
112
114
110
112
112
110
110
112
106
99
97
99
99
102
106
110
112
112
116
116
112
114
116
117
116
114
110
110
114
114
117
116
112
112
110
104
99
95
92
92
92
88
90
88
88
90
88
90
90
95
95
97
101
102
104
110
114
116
117
116
112
112
112
112
112
110
110
112
112
108
108
106
102
101
101
97
101
106
112
114
114
116
114
116
114
116
117
116
116
116
112
112
116
116
119
119
114
119
117
112
106
101
93
92
93
93
92
86
86
88
90
90
88
86
86
88
92
99
104
108
108
110
114
112
106
108
112
112
108
110
108
108
104
104
106
101
102
101
102
101
104
108
112
112
114
112
114
114
116
117
116
116
114
112
110
112
116
117
117
119
117
117
116
116
112
106
99
95
93
92
90
86
85
85
90
90
90
85
83
81
86
90
99
104
