P2
# 86 of 608 Angiograms
64 64
255
131
133
133
135
137
137
137
135
131
131
131
129
129
127
129
129
127
127
131
131
133
135
137
139
139
141
139
137
137
135
133
131
131
127
123
121
117
112
104
102
104
108
108
104
104
106
106
108
110
112
112
113
115
121
125
125
123
121
125
129
127
131
135
139
135
139
139
137
137
135
135
135
133
131
131
129
129
129
131
131
131
133
133
135
135
137
139
139
141
141
141
139
137
133
131
129
127
123
121
119
113
108
104
104
110
112
112
108
108
106
108
113
112
112
112
113
115
121
125
125
123
121
125
127
127
129
133
139
139
141
141
137
135
133
137
135
135
131
133
131
131
131
133
133
135
137
141
141
139
139
139
139
144
142
141
139
137
133
131
125
123
123
123
117
112
110
106
110
115
117
115
113
108
106
110
112
112
113
113
113
115
121
123
125
123
123
123
127
129
131
133
137
139
141
139
135
133
133
137
137
135
131
131
131
133
137
139
137
137
142
142
142
141
137
137
141
141
142
142
139
135
133
129
125
123
123
121
119
115
112
110
113
115
117
119
117
113
110
112
112
112
113
113
112
112
117
123
127
123
121
121
123
129
131
133
133
137
137
135
135
133
135
137
137
137
135
135
135
135
141
141
139
139
141
142
144
139
137
137
139
139
141
141
137
133
131
127
127
127
125
119
119
119
117
115
113
115
119
121
119
119
113
112
112
110
112
112
113
110
113
119
121
121
119
121
125
127
129
129
129
137
135
133
135
137
139
139
139
137
137
137
137
139
141
141
139
141
144
146
142
139
137
137
137
139
139
139
133
129
129
127
125
125
125
123
125
123
121
119
117
119
121
123
123
121
119
112
108
110
112
110
108
110
110
113
115
115
117
117
121
123
125
123
125
139
137
135
137
137
139
139
139
137
137
139
141
141
141
141
141
141
141
142
142
141
137
133
135
137
139
135
131
125
127
127
127
129
125
127
129
127
125
125
123
123
123
123
123
123
121
117
112
110
110
112
106
106
106
108
110
112
113
115
115
117
117
119
117
139
139
137
137
139
139
141
139
139
141
142
146
144
142
141
141
141
141
141
141
139
137
135
135
137
137
135
129
125
123
123
125
129
131
131
129
127
129
131
129
125
121
119
121
123
121
119
115
112
112
112
106
104
102
102
106
108
108
112
115
115
115
115
113
137
139
137
137
139
141
141
141
142
144
144
144
144
144
141
141
142
141
141
139
139
139
137
137
137
137
135
127
123
119
121
127
127
129
131
131
129
131
131
131
131
125
121
117
119
119
121
117
113
112
110
106
102
102
102
102
106
106
110
112
112
115
115
112
137
139
137
135
139
141
142
142
144
146
146
144
142
141
141
141
141
141
141
141
141
139
139
137
139
139
135
127
119
117
119
123
125
127
131
131
131
133
135
137
137
129
123
115
113
117
117
115
113
112
108
108
108
106
104
102
102
106
110
110
110
110
112
112
139
141
137
135
139
141
142
146
146
146
144
142
141
139
139
141
141
142
141
141
141
139
137
137
139
137
133
121
113
115
119
121
125
127
131
131
131
135
137
139
137
131
123
112
110
113
115
113
112
112
108
110
115
112
108
106
104
108
110
110
112
112
112
115
141
141
141
139
139
142
142
144
144
146
144
142
141
139
139
141
139
141
141
142
141
141
141
139
139
137
131
117
110
113
117
123
127
127
127
125
127
129
135
137
133
127
119
112
110
112
113
112
112
112
108
108
115
112
110
110
110
110
112
110
113
115
115
115
141
142
141
141
142
144
144
144
144
144
144
141
141
139
139
139
137
139
141
142
142
142
141
137
137
135
127
117
112
113
119
125
125
125
125
123
123
127
129
131
127
123
117
113
113
112
113
113
112
112
108
110
113
113
112
110
110
112
113
112
115
115
117
115
141
139
139
141
142
142
144
144
142
142
139
139
137
137
137
137
137
139
141
141
141
141
139
135
135
131
125
117
115
115
119
125
125
123
123
123
123
125
125
129
125
121
117
117
115
112
112
112
112
112
110
112
113
113
112
110
112
113
112
110
110
110
110
110
137
135
135
139
141
141
141
141
139
139
137
135
133
131
131
135
137
139
139
141
139
139
137
135
131
127
123
117
117
117
119
123
123
119
119
115
117
123
125
127
123
119
119
121
117
113
112
112
112
110
110
108
108
108
108
106
104
100
98
96
95
95
93
95
137
135
137
141
139
139
139
139
137
135
133
133
131
131
133
135
137
137
139
137
135
135
133
131
127
123
119
115
113
113
119
123
119
117
113
112
113
121
127
125
123
117
119
121
117
112
110
108
104
104
102
100
100
98
96
93
91
87
87
86
82
82
84
84
137
135
137
139
139
139
137
137
133
131
129
127
129
131
135
135
137
139
137
135
131
129
127
125
123
117
112
110
110
112
115
119
117
115
115
113
115
123
127
123
121
119
119
117
113
106
102
96
95
93
91
91
89
87
84
81
79
81
81
81
79
81
84
84
135
137
137
139
139
139
137
133
131
129
127
129
129
131
135
139
141
139
139
133
127
123
123
117
112
106
102
102
102
106
108
110
112
113
115
117
121
127
127
121
119
117
113
110
104
96
89
84
84
82
82
82
82
81
81
77
77
77
77
76
77
79
81
82
133
135
135
135
135
137
135
131
131
131
131
133
133
133
135
137
137
141
139
133
123
119
115
108
102
98
96
102
102
102
102
106
110
115
119
123
125
129
127
121
113
110
102
95
89
82
77
76
76
76
79
81
79
79
79
76
76
77
77
79
79
81
81
84
129
135
139
137
135
135
135
133
131
131
133
135
137
135
133
135
137
141
141
135
125
117
110
102
96
98
100
102
104
100
98
104
110
115
121
123
125
127
125
115
104
93
86
82
79
76
72
69
69
71
72
76
77
77
77
74
76
77
79
82
84
82
82
87
129
133
137
137
137
137
133
129
129
133
135
135
137
135
135
137
137
139
139
133
125
115
106
100
95
100
106
104
100
98
100
108
112
113
121
123
125
123
119
102
91
81
76
76
72
69
68
66
63
65
71
74
74
74
77
76
76
76
76
79
84
84
86
91
129
131
135
135
137
133
129
129
129
133
135
135
137
137
139
139
139
137
135
131
125
113
106
98
98
102
106
104
102
100
104
110
112
113
119
121
121
115
104
89
81
76
72
71
68
66
65
63
62
66
68
72
74
72
74
72
71
71
74
79
82
87
93
96
131
133
135
135
133
129
129
131
133
137
137
139
137
139
139
141
139
135
133
127
123
115
106
98
98
104
106
104
106
106
110
110
113
115
117
117
112
102
93
82
74
71
71
69
68
66
63
63
63
63
68
71
74
74
72
69
71
72
77
81
86
91
95
100
133
137
137
133
131
127
129
131
135
139
141
139
137
139
139
137
137
135
133
129
125
117
108
100
100
102
104
108
110
112
115
115
115
115
113
106
98
91
86
76
69
68
69
68
66
65
63
63
65
65
69
74
72
72
71
71
72
76
81
86
91
95
100
106
135
135
133
131
129
129
131
133
139
141
142
139
139
139
141
137
139
137
133
131
129
119
108
102
102
102
108
112
117
117
119
117
117
112
102
96
89
82
76
69
68
68
68
66
63
65
63
62
66
68
71
72
74
74
76
79
81
86
91
95
98
102
106
110
133
131
127
129
131
131
131
135
141
142
144
142
142
141
142
142
142
141
135
131
129
119
112
106
102
104
110
117
121
121
119
115
110
104
93
86
81
76
71
71
71
69
66
65
63
66
66
66
68
71
74
79
81
84
86
89
93
96
100
104
108
110
110
113
129
125
125
127
129
133
135
139
141
146
146
142
142
141
141
142
144
141
135
131
125
119
115
112
108
110
115
119
123
123
117
112
104
95
84
76
71
71
69
69
68
68
68
66
66
69
71
74
76
81
87
91
95
96
100
102
104
106
106
108
112
113
113
113
125
121
125
127
131
135
137
139
142
146
146
142
141
141
141
141
139
137
133
127
125
123
119
115
113
115
119
121
121
119
115
110
98
86
76
69
66
66
66
65
63
66
66
66
69
74
79
86
93
100
106
108
110
108
106
108
110
110
108
110
112
113
115
113
121
123
129
133
135
135
135
137
142
144
144
142
139
137
141
139
135
133
129
127
127
123
121
117
117
117
121
123
121
119
113
104
93
82
72
66
63
63
62
60
60
65
66
71
77
86
96
106
113
115
115
115
115
115
112
110
110
108
108
108
110
112
112
112
123
127
131
135
137
139
135
137
142
144
144
142
137
137
139
137
133
131
127
129
129
129
123
121
119
121
123
123
121
117
110
98
87
77
69
63
60
56
58
59
63
68
72
82
95
104
113
121
121
121
117
115
113
113
113
112
110
108
106
108
110
108
108
110
127
131
133
137
139
139
137
139
142
144
144
141
137
139
139
137
133
131
129
127
127
129
127
123
121
123
125
125
119
113
106
93
82
72
66
63
58
56
58
62
68
74
82
96
108
117
121
123
125
123
119
113
113
112
112
110
108
104
106
106
108
108
108
108
131
135
137
139
141
139
141
142
144
144
142
142
139
139
139
139
133
129
127
127
129
127
129
123
123
123
125
123
117
110
98
87
76
68
65
62
59
58
59
68
76
82
95
106
117
121
125
127
125
125
121
112
110
108
108
108
106
106
106
104
104
104
102
102
135
137
137
141
142
141
141
144
144
142
142
142
141
141
139
137
133
131
127
127
129
129
127
125
123
121
121
121
113
104
93
86
72
66
62
62
59
60
66
74
84
93
102
113
119
123
127
127
123
121
119
112
108
106
108
106
104
106
104
102
102
100
100
102
139
139
137
141
142
144
142
144
142
142
142
142
142
139
137
135
135
133
131
129
127
125
125
123
121
121
119
115
104
95
89
82
72
68
63
63
65
68
74
81
91
98
106
115
121
121
125
121
119
119
115
110
108
108
106
106
102
100
100
102
102
102
102
104
139
137
137
139
144
144
142
144
146
142
144
142
141
139
135
135
133
129
125
125
123
119
121
121
119
117
113
106
96
91
89
82
76
71
68
66
69
74
84
93
100
106
112
119
119
121
119
117
119
115
113
110
108
106
104
102
98
98
100
98
98
100
102
104
137
137
137
139
144
144
144
144
144
144
146
142
141
137
133
133
131
125
125
125
121
119
123
121
117
112
104
96
91
89
89
86
81
76
72
72
79
89
98
104
108
112
119
123
121
119
117
115
117
113
112
108
104
104
104
102
100
100
102
102
100
100
104
106
137
137
137
141
142
144
146
146
144
144
144
142
141
137
135
133
127
123
125
125
121
119
117
117
112
104
96
91
89
89
87
86
86
82
81
82
93
104
112
113
115
119
121
123
121
119
117
117
115
112
108
102
100
102
102
100
98
102
104
102
100
102
106
104
137
137
139
142
142
146
146
146
146
144
144
142
139
137
137
133
127
121
123
123
121
119
115
110
102
93
89
86
82
86
89
87
86
86
91
100
110
113
117
117
119
119
119
121
119
117
115
115
113
110
104
98
98
102
102
100
100
104
104
104
100
102
106
106
137
139
141
142
142
144
144
144
144
142
141
137
137
137
137
131
125
121
123
121
119
115
108
100
93
87
84
84
81
86
87
89
89
95
102
112
117
119
121
119
123
123
121
117
117
117
115
113
112
106
102
98
100
100
100
100
102
102
102
100
100
102
106
108
137
139
141
142
144
142
142
141
139
137
135
135
135
137
137
131
123
121
119
117
112
106
98
89
86
84
86
86
84
87
89
91
96
104
113
117
119
121
121
121
123
123
123
121
117
115
112
112
106
102
100
100
98
96
96
100
102
100
100
100
98
100
104
108
135
139
142
141
141
139
137
137
137
135
133
135
135
137
135
129
121
119
117
110
100
91
86
84
82
82
86
87
86
87
91
98
104
113
115
119
121
121
121
119
121
123
123
121
119
113
110
106
104
100
100
98
95
93
96
100
102
98
100
98
100
104
106
106
137
141
141
139
137
135
135
135
135
133
133
135
133
133
131
127
119
115
106
95
86
82
81
82
82
82
86
89
87
91
98
108
115
117
117
121
123
119
121
121
121
123
123
121
119
113
108
106
102
100
98
98
95
95
95
98
100
100
102
100
102
104
108
108
137
139
141
137
135
135
137
137
135
133
135
133
131
131
129
119
112
104
93
84
82
79
79
79
79
79
84
87
91
96
106
115
121
123
123
123
123
119
119
121
121
123
123
123
119
113
110
108
104
100
98
96
96
98
96
96
100
102
104
102
104
108
108
110
133
135
137
135
133
133
135
137
137
135
135
133
129
129
123
113
102
89
82
79
76
74
76
76
74
76
82
87
93
106
115
121
123
123
123
123
119
117
119
119
121
121
123
123
119
115
112
110
104
102
100
96
96
100
100
100
102
104
102
102
106
108
110
110
131
133
135
135
133
133
135
137
135
135
135
131
129
123
115
104
87
79
76
74
72
71
71
72
72
76
84
93
104
115
121
121
121
121
121
121
117
117
119
121
121
121
125
121
117
115
112
110
104
104
100
96
98
100
100
102
106
106
106
106
110
112
112
108
129
133
135
135
135
135
137
135
133
133
133
131
125
115
104
89
77
72
71
68
69
69
68
69
72
79
87
100
113
121
121
121
119
121
121
119
117
117
117
121
123
125
125
121
117
112
110
110
106
106
104
100
100
102
102
106
110
108
106
110
112
115
112
112
129
133
137
137
133
135
135
135
135
135
131
127
117
104
91
81
74
71
68
68
66
66
65
68
74
81
93
108
119
123
123
123
121
121
121
119
119
119
121
123
125
125
123
121
117
112
112
110
108
110
106
102
100
102
104
108
110
110
108
112
115
113
112
113
131
133
137
135
135
133
135
137
137
135
131
121
106
93
82
76
71
66
66
68
66
65
66
69
76
87
104
115
121
123
125
123
123
121
123
121
123
123
125
123
123
123
121
119
115
112
113
112
110
110
106
102
102
100
104
108
108
110
112
115
115
115
115
115
135
137
135
133
133
135
137
137
137
133
123
108
95
84
77
71
65
65
66
65
65
66
68
72
81
96
113
121
121
125
129
125
125
123
123
121
121
125
123
121
121
121
121
117
113
112
112
112
110
110
104
106
106
104
104
106
108
112
113
113
113
117
119
115
137
137
133
135
135
133
135
135
133
127
113
98
86
79
74
68
63
65
66
65
66
69
71
77
91
108
119
125
125
127
127
125
125
121
121
119
121
121
121
123
119
121
117
115
115
113
113
112
112
110
108
110
112
110
106
108
110
112
113
113
115
115
117
115
137
135
133
133
133
131
129
129
127
117
102
89
81
76
71
66
60
59
63
65
68
71
74
82
102
117
123
127
129
129
127
127
123
119
117
115
117
119
121
121
121
119
117
117
117
117
119
115
117
115
113
113
115
113
112
110
110
112
113
115
117
115
115
115
133
131
131
131
127
123
123
121
117
110
96
84
77
72
69
65
58
56
62
66
71
72
77
93
110
121
125
127
129
131
131
127
121
119
119
117
117
119
121
123
123
117
117
119
119
121
121
119
115
115
115
117
115
113
113
112
110
112
113
113
115
117
117
119
129
129
127
125
121
119
119
117
115
104
89
81
76
72
69
65
58
58
63
69
72
76
84
102
119
125
125
127
129
131
127
123
121
117
119
117
119
119
121
123
123
119
117
121
121
125
123
123
121
119
117
119
117
115
115
115
113
113
115
115
117
119
119
119
123
123
121
119
117
115
115
115
110
100
86
79
74
69
69
65
62
62
66
69
74
81
91
108
123
123
123
125
127
125
123
123
119
117
117
115
119
121
121
123
123
121
123
123
125
127
125
127
127
123
119
119
117
115
119
121
121
123
121
119
121
121
119
117
119
119
117
115
115
115
112
112
106
96
84
77
71
66
68
65
65
65
69
72
76
84
98
115
125
123
123
123
121
121
123
121
119
117
115
117
123
121
121
123
121
121
123
123
123
127
129
129
127
125
123
119
119
121
121
121
119
121
121
117
121
119
119
117
117
117
115
115
115
113
110
108
104
93
82
74
68
65
65
63
65
69
71
76
81
89
106
119
125
123
123
121
121
121
123
121
119
119
117
119
121
121
125
125
123
121
125
125
125
129
131
131
129
127
123
125
125
125
125
121
121
121
121
119
121
119
119
117
113
113
113
113
113
113
112
110
102
91
79
71
68
68
65
63
68
69
71
76
84
96
112
121
123
121
123
121
121
121
121
123
117
117
117
119
121
123
125
125
125
125
125
125
125
129
129
129
129
127
125
125
125
127
125
123
121
121
121
121
121
121
121
117
110
112
112
113
112
113
113
110
102
89
76
71
68
66
65
63
66
69
71
79
89
104
115
123
121
123
125
123
123
123
125
121
115
115
119
121
121
121
123
123
123
123
125
123
127
127
125
125
127
125
125
127
127
127
125
125
121
123
121
123
121
119
117
113
110
110
110
112
110
113
113
110
100
89
76
69
66
63
65
62
65
69
72
82
95
112
121
121
123
125
123
121
121
123
123
121
117
115
117
121
121
121
121
119
121
123
123
121
121
121
121
121
123
125
127
129
127
127
125
121
121
121
119
119
117
117
113
115
112
110
108
112
112
113
113
110
96
86
76
69
65
62
63
63
66
71
76
89
108
119
123
123
123
125
121
119
123
125
125
123
121
117
119
121
119
121
119
119
121
123
121
119
117
117
117
117
121
123
123
123
123
123
123
121
121
117
113
112
112
112
110
112
112
110
112
113
113
113
113
112
98
84
76
69
63
60
62
65
69
74
82
96
113
123
123
123
123
121
121
123
125
125
127
125
123
121
121
121
121
123
119
121
123
123
119
117
117
117
117
117
121
121
117
117
119
119
119
119
117
113
110
108
110
110
110
108
113
115
117
119
119
119
117
113
98
86
77
69
65
60
63
66
72
81
95
106
121
125
125
125
125
123
121
127
129
127
127
125
123
121
119
121
119
117
119
121
119
119
117
115
117
117
117
117
119
117
115
117
119
121
117
115
115
112
108
106
110
110
108
110
115
117
119
121
125
125
121
113
98
87
81
71
66
65
66
71
77
87
100
113
125
127
125
125
127
125
127
129
129
129
129
127
125
123
119
119
119
117
119
119
119
117
115
113
115
115
117
119
117
115
113
115
119
117
117
115
112
110
104
106
108
108
108
112
115
119
121
125
127
127
123
110
98
89
82
74
69
69
71
74
82
96
106
119
127
129
125
125
125
127
127
125
127
131
133
129
127
125
119
119
121
121
121
119
117
117
113
113
115
117
121
119
117
113
117
117
117
119
119
113
112
108
104
106
106
106
110
113
