P2
# 87 of 608 Angiograms
64 64
255
106
106
104
104
100
102
104
106
106
102
98
95
84
77
74
71
65
62
60
56
56
56
60
69
82
91
95
98
98
96
98
100
102
104
108
110
110
113
113
115
117
119
119
119
117
117
113
113
113
113
115
117
117
119
125
129
135
139
142
142
144
146
144
142
104
106
104
104
100
100
104
104
104
102
96
91
84
77
72
69
66
62
59
55
55
55
58
65
77
89
93
96
96
98
100
102
102
104
106
108
106
110
108
110
112
113
115
115
115
113
110
108
106
108
108
108
110
112
115
121
129
135
139
141
142
144
144
144
106
106
104
104
104
100
102
102
100
98
96
89
82
79
74
71
66
62
58
58
56
55
55
62
72
86
93
95
96
98
100
102
104
104
102
104
104
108
108
108
108
108
108
112
112
110
106
106
104
104
102
100
100
102
108
113
119
125
131
133
139
142
144
144
104
106
106
106
106
102
100
98
96
96
95
86
82
79
76
71
68
62
59
58
56
54
54
60
72
87
93
95
96
96
98
100
100
102
102
104
106
108
104
102
104
102
102
104
106
106
100
98
100
98
96
95
93
95
100
106
110
115
119
123
127
131
137
141
108
106
108
104
104
100
98
98
96
96
93
87
82
79
74
72
71
63
60
59
56
55
56
62
74
89
95
93
95
96
98
98
98
102
102
102
104
104
102
100
98
100
102
104
104
100
100
100
100
96
93
91
89
93
96
100
104
106
110
112
117
121
127
129
108
108
108
106
106
102
98
98
96
96
95
89
84
77
76
72
71
65
60
60
56
54
55
62
74
87
91
93
95
98
98
96
98
102
104
104
104
104
100
98
100
100
100
100
102
102
104
100
98
93
91
91
91
93
95
96
98
100
102
104
108
113
115
119
106
110
108
108
106
104
100
100
98
96
93
91
84
79
76
71
68
66
62
60
59
55
56
62
74
87
91
93
96
98
98
98
98
100
102
100
100
98
100
100
98
98
100
98
102
102
102
98
95
91
91
91
89
89
91
95
98
96
98
100
104
108
110
110
108
110
106
106
104
102
102
102
100
96
95
91
84
81
77
71
68
66
62
59
56
54
56
63
74
86
91
93
96
96
96
98
98
98
98
98
98
98
100
100
100
98
98
100
98
98
98
95
91
91
95
93
89
86
91
95
96
93
98
98
102
104
104
102
108
106
106
102
102
102
104
102
98
98
96
91
87
84
79
72
71
65
60
56
56
54
55
62
72
86
91
96
96
96
96
96
96
96
95
98
98
98
100
96
96
96
96
96
96
96
96
96
96
93
93
93
91
87
93
96
95
91
96
98
102
104
102
98
104
104
102
102
104
102
100
96
95
95
93
91
91
87
82
74
69
63
58
54
55
56
59
60
71
86
93
95
96
98
98
96
98
96
96
95
95
96
96
95
96
98
98
96
98
95
95
96
96
93
95
91
93
89
91
93
89
89
95
96
100
102
98
96
104
102
102
104
102
100
96
95
95
91
93
93
93
91
84
77
69
62
54
51
55
58
60
62
69
84
93
96
95
95
98
100
98
98
96
95
93
95
96
93
96
98
100
100
98
96
96
96
96
93
91
91
91
93
91
93
89
91
93
96
98
98
98
98
102
102
102
102
102
98
96
96
95
91
95
96
95
93
86
77
69
59
54
54
54
55
58
60
69
82
91
98
95
98
100
98
96
100
100
96
95
96
96
95
96
98
98
96
96
98
96
95
93
89
87
87
89
93
93
91
89
93
95
96
98
98
98
96
102
104
104
102
102
98
96
98
96
95
95
95
96
93
86
79
69
59
51
50
52
54
58
60
68
81
91
96
100
100
100
96
96
96
96
95
95
98
96
96
95
93
91
91
93
95
95
93
89
87
87
91
93
93
93
93
91
93
93
95
95
95
95
93
100
102
104
100
98
95
96
95
95
96
95
98
98
93
84
81
71
59
54
51
55
58
59
60
66
79
89
96
98
100
100
100
98
96
95
91
93
95
95
96
93
91
89
87
93
91
93
89
86
87
87
87
91
91
89
93
93
93
95
93
91
89
91
91
98
102
100
98
96
98
96
96
96
98
96
96
96
93
84
81
71
60
55
55
58
59
60
62
66
79
87
95
96
96
98
98
95
93
93
87
91
93
93
93
93
91
91
91
91
89
89
86
84
84
86
86
89
91
91
91
91
93
93
89
89
93
91
91
100
100
100
98
96
98
96
100
100
102
100
100
98
93
84
81
71
62
59
60
60
62
62
60
65
76
86
91
95
95
95
96
91
87
87
86
91
89
87
89
87
87
87
87
87
87
87
86
84
84
86
89
89
89
89
89
89
91
89
89
91
91
91
89
102
102
100
98
96
100
100
100
102
104
102
102
102
93
86
81
71
66
62
62
59
62
59
60
63
74
82
89
91
93
95
93
93
89
87
86
86
87
87
86
86
84
86
87
86
87
87
87
87
84
87
91
87
87
86
87
87
89
89
89
89
89
89
89
100
98
98
98
98
100
102
102
102
104
106
104
104
95
89
81
72
66
63
60
60
65
60
62
65
74
81
86
89
93
93
93
93
91
87
84
86
87
86
87
87
86
84
84
87
87
89
89
87
84
86
87
84
82
84
86
86
87
86
84
84
86
87
89
96
96
98
98
98
102
104
102
104
104
104
102
102
96
91
86
77
68
63
62
60
60
62
65
69
77
81
86
87
89
93
91
93
89
84
86
86
87
87
87
87
87
86
86
86
87
91
89
87
87
86
82
84
84
87
86
84
84
84
81
84
84
86
87
98
96
96
98
96
100
100
104
102
104
104
100
100
98
95
89
82
72
66
65
63
62
66
69
76
79
82
87
91
91
91
91
89
89
87
87
87
86
86
87
87
89
86
84
86
87
89
91
87
87
84
81
82
84
86
86
81
82
82
82
82
84
86
86
100
98
98
100
100
102
100
106
108
106
104
102
102
100
98
89
86
79
72
69
66
66
68
74
82
84
87
91
95
93
91
91
89
89
89
89
89
87
86
87
91
89
86
87
87
89
89
89
86
84
82
79
82
84
84
84
81
84
82
79
79
79
81
82
100
96
98
100
100
104
104
106
106
104
104
104
102
98
98
91
87
84
77
72
71
69
74
79
84
87
91
93
96
95
93
89
89
93
91
91
91
87
86
86
91
89
89
87
89
87
87
87
84
82
84
82
82
82
84
82
84
81
82
79
76
77
76
81
98
100
104
106
106
106
104
108
106
102
104
104
102
100
96
93
89
86
81
76
74
76
79
79
86
91
93
95
98
96
93
91
91
91
89
89
89
87
87
87
87
87
87
87
87
89
86
86
84
84
87
86
84
82
81
81
84
82
81
77
77
76
76
77
98
104
108
108
106
108
108
110
104
100
102
102
102
100
100
95
95
91
86
81
79
79
79
82
86
91
93
95
96
96
95
93
89
91
89
87
89
89
93
89
87
84
86
86
89
91
89
86
84
86
89
87
84
81
77
81
82
82
82
77
76
76
76
79
102
108
106
108
108
108
106
110
102
100
104
102
102
102
100
96
96
93
91
86
84
84
82
82
84
89
93
96
96
96
95
95
87
86
87
87
87
89
89
91
86
86
87
86
91
91
87
86
87
89
89
87
84
79
77
79
81
81
79
76
76
76
76
77
102
108
108
108
110
110
108
106
100
100
102
104
102
100
98
98
98
96
93
91
87
86
81
81
82
89
93
95
95
93
93
93
87
86
89
87
89
87
91
91
89
87
87
87
89
89
86
86
87
87
89
87
82
77
77
77
77
77
76
77
76
74
74
74
104
108
108
110
110
108
108
104
104
100
102
100
100
98
98
100
98
95
95
93
91
87
82
81
81
86
89
91
93
95
93
93
89
86
86
89
91
87
91
93
91
87
87
87
89
87
87
87
89
87
87
86
81
77
76
77
76
74
76
77
76
76
79
77
106
106
108
106
108
106
106
104
104
100
98
96
95
98
100
102
98
96
93
95
95
89
84
82
81
82
86
91
93
95
93
93
89
87
89
89
89
87
91
93
95
91
87
87
87
89
89
91
89
87
86
82
81
81
77
77
79
77
77
77
77
77
79
77
104
106
104
108
108
108
106
104
102
98
96
95
95
98
100
96
95
95
95
91
93
89
87
84
82
81
86
91
95
95
93
91
91
91
89
89
89
91
91
93
95
93
89
86
84
91
91
93
89
86
84
79
79
82
81
81
79
79
77
77
79
77
77
81
106
110
106
110
110
104
106
104
100
98
96
95
95
96
95
93
93
95
93
91
93
91
89
86
84
82
86
91
93
93
89
89
91
91
91
91
89
89
89
89
93
93
91
87
86
89
91
93
91
87
84
82
82
84
82
81
81
81
79
77
79
79
79
79
104
110
108
106
108
106
104
104
100
98
98
93
95
96
96
93
93
93
93
91
93
91
89
87
86
86
86
87
89
89
87
89
87
91
91
93
93
93
91
91
93
91
89
89
89
91
96
95
91
87
86
84
82
84
82
81
79
79
79
77
79
79
79
81
102
106
108
106
108
106
104
104
100
96
95
95
95
98
95
93
87
91
93
93
93
95
93
89
87
87
84
84
87
91
91
91
89
93
95
95
95
95
93
95
95
93
91
89
89
91
96
96
93
87
86
86
86
84
82
82
79
77
77
79
81
79
79
79
100
102
106
104
106
102
100
102
100
98
96
96
95
95
95
91
87
89
89
93
95
95
95
89
91
87
82
82
86
89
89
91
91
93
93
91
89
91
95
95
95
95
95
93
89
89
93
93
93
91
87
89
87
86
81
82
79
82
81
82
81
82
81
81
102
106
106
104
102
98
96
100
102
100
98
100
95
95
91
91
91
91
89
91
93
95
91
89
89
87
84
82
87
89
89
91
91
93
91
91
91
93
93
95
96
93
89
89
93
93
91
91
89
91
87
89
87
84
84
86
82
82
82
84
82
84
81
81
104
104
104
104
104
102
98
102
102
102
100
100
95
93
91
91
91
89
89
93
93
93
91
91
89
86
86
82
84
87
89
87
89
91
91
93
91
91
91
93
96
91
87
89
93
91
89
87
87
89
86
86
86
84
86
87
84
84
86
84
82
82
84
82
106
104
102
98
102
102
98
98
100
100
100
100
95
93
91
91
91
91
91
91
91
89
89
89
87
84
84
82
82
84
86
87
89
89
91
91
89
91
89
93
95
91
89
93
93
91
89
87
86
84
86
84
84
84
84
86
84
84
84
82
81
84
86
84
104
102
102
100
100
100
96
95
98
102
100
98
96
93
93
91
93
91
91
87
87
87
87
87
89
86
84
81
81
81
81
82
86
87
89
91
91
89
89
89
89
91
91
93
93
95
95
91
87
86
84
84
86
84
82
84
86
84
86
84
82
84
86
84
104
102
102
102
102
100
95
95
98
100
100
95
91
91
93
91
87
87
89
87
86
87
87
89
89
89
86
79
77
76
79
81
81
87
89
89
91
87
91
87
89
91
93
95
95
95
93
93
89
86
86
84
86
87
87
86
86
86
87
86
82
82
86
84
100
102
104
104
102
98
93
95
98
102
98
96
96
91
91
89
87
87
87
87
86
87
87
87
89
89
82
79
79
81
82
81
79
86
91
91
91
89
93
91
89
91
93
93
91
93
91
95
91
87
93
89
87
87
87
86
84
86
87
89
86
86
87
82
102
104
102
104
102
100
95
93
98
98
98
98
95
91
91
89
87
86
87
86
86
86
86
87
87
86
82
84
82
82
82
82
79
84
89
95
95
93
93
93
91
91
93
93
93
91
91
93
93
93
93
91
89
87
86
86
84
84
87
89
86
87
87
82
102
102
100
104
102
102
96
93
98
98
98
96
96
89
87
87
86
84
87
84
84
82
86
87
87
86
86
87
86
82
82
79
79
81
87
93
95
95
93
93
95
91
89
93
93
93
91
91
93
93
91
91
95
89
89
87
86
84
84
89
86
86
89
86
104
102
102
100
98
98
95
91
95
96
96
95
96
89
87
86
86
82
82
82
86
86
86
87
89
89
87
89
87
84
81
79
77
79
86
89
95
96
95
93
93
91
89
89
91
91
93
93
91
89
91
93
95
89
89
87
86
87
86
89
87
86
86
86
100
98
96
98
96
96
95
91
91
95
98
98
95
91
89
87
84
82
82
84
86
86
87
89
91
89
89
91
89
86
81
79
81
82
86
89
93
95
93
93
93
91
87
87
89
91
93
91
89
86
91
93
91
87
89
89
87
87
87
87
86
86
82
84
96
96
96
96
98
96
95
93
91
95
98
98
93
89
86
86
82
82
84
82
87
89
89
91
89
89
89
91
91
87
82
81
82
82
86
89
93
93
95
96
93
89
89
87
89
93
95
91
91
89
91
93
95
91
91
91
93
93
87
84
86
86
86
86
96
98
98
96
95
96
96
93
91
91
93
93
91
91
87
84
82
84
87
87
89
89
91
91
89
89
93
95
95
89
84
82
84
84
84
87
95
95
95
96
95
89
86
87
93
93
95
93
91
89
89
93
93
91
91
91
91
93
89
86
86
84
84
84
96
96
98
98
95
96
96
93
91
93
95
93
91
91
89
86
86
84
86
89
87
87
89
91
91
89
91
95
95
93
89
84
87
86
87
89
95
95
95
95
95
91
89
89
91
93
93
93
91
91
89
89
91
91
95
91
89
93
89
86
87
86
84
81
96
96
95
95
93
96
96
93
91
95
96
93
89
89
89
87
86
87
87
84
87
89
89
91
91
89
91
95
96
95
91
87
86
87
89
87
91
95
93
91
91
91
91
89
93
95
91
91
89
93
89
87
87
93
96
93
93
93
93
87
86
87
87
84
95
95
91
93
93
95
95
91
91
91
91
93
89
91
89
86
86
87
89
87
89
89
89
91
93
91
93
95
98
95
91
87
89
87
87
86
87
93
93
89
89
87
91
93
95
95
95
95
91
91
86
84
86
91
95
96
93
93
91
87
89
91
91
87
95
96
95
96
96
95
95
89
93
91
89
91
91
89
87
87
87
91
93
91
91
91
93
89
93
95
95
95
95
93
91
89
89
84
82
84
89
89
89
91
87
86
89
93
95
95
93
93
95
91
87
86
87
91
93
91
93
93
89
89
89
91
93
87
96
100
100
95
95
96
95
91
91
91
89
87
86
87
87
91
91
91
91
91
93
91
93
89
95
95
95
98
96
93
93
89
86
86
87
89
89
89
87
86
84
84
89
93
95
93
95
91
95
93
91
89
87
93
95
93
93
91
93
91
91
91
93
87
98
98
98
95
95
95
93
93
93
91
91
86
87
87
87
89
93
91
93
93
91
93
91
93
95
96
95
95
95
93
95
91
87
86
89
93
93
89
87
87
86
84
84
89
93
91
93
93
95
93
91
91
87
93
95
95
93
91
91
95
93
93
91
87
95
96
96
95
96
96
91
91
93
93
93
87
89
89
87
89
91
91
91
93
93
93
91
93
93
95
95
93
93
95
93
91
87
89
91
93
89
89
89
89
87
86
86
87
91
91
89
93
93
91
87
87
87
93
95
93
93
91
93
96
95
91
87
87
95
95
93
93
95
95
93
91
93
91
91
87
87
87
89
86
87
91
91
93
95
95
93
93
93
95
96
95
95
95
95
91
87
89
91
87
89
91
93
93
91
87
86
86
91
89
91
93
93
89
87
87
89
95
95
91
93
93
95
95
93
89
87
87
93
91
93
93
93
95
95
91
89
86
87
87
89
87
86
84
86
87
91
93
93
93
93
93
95
96
96
95
95
95
95
91
87
89
87
87
91
91
93
93
91
89
86
86
87
89
91
91
93
95
91
89
89
95
96
95
91
91
95
93
87
87
89
89
93
91
91
93
91
91
89
87
86
84
84
86
89
89
86
86
87
87
93
89
89
93
95
98
96
95
95
95
95
96
95
89
84
86
89
89
87
89
87
91
87
89
87
87
86
89
89
91
95
93
91
91
87
93
96
95
91
89
93
91
89
87
87
89
93
91
87
91
91
89
87
86
86
84
84
82
86
89
86
86
89
89
91
91
93
96
95
96
96
95
95
95
96
95
95
89
84
86
89
91
89
89
87
89
87
86
87
87
86
87
89
89
93
91
89
89
91
91
93
89
87
87
89
93
87
86
86
89
93
91
89
91
91
87
87
86
86
84
81
81
84
86
84
86
86
87
89
91
93
95
96
98
96
95
91
93
95
95
93
89
87
87
91
95
93
93
87
86
87
87
87
89
87
87
87
87
89
93
91
89
87
87
87
86
86
87
89
91
87
86
84
87
93
91
93
89
89
91
91
91
87
84
82
86
86
84
82
84
86
89
89
89
91
93
95
98
96
93
91
93
95
95
95
93
89
89
91
93
95
93
89
89
87
86
87
89
87
87
87
86
86
87
87
86
82
81
81
82
82
84
86
89
86
84
84
87
89
91
91
89
86
87
91
91
87
86
84
84
84
84
84
86
89
89
89
89
89
93
95
98
96
89
89
93
93
96
93
91
87
87
91
95
93
91
91
91
91
86
86
86
84
87
86
84
86
84
81
82
84
79
77
81
81
82
86
87
87
84
84
86
87
89
87
87
87
87
87
87
86
84
81
82
84
82
86
87
89
89
89
87
89
91
91
93
95
95
95
93
93
93
91
89
84
86
91
91
91
93
93
95
93
89
89
86
87
86
86
82
82
79
79
82
84
77
76
79
81
81
87
87
87
84
81
86
89
86
86
87
87
87
86
84
84
84
86
86
86
82
86
84
86
86
86
87
87
89
91
91
95
96
96
95
96
95
89
87
87
87
87
91
91
95
95
93
89
87
89
86
86
87
86
84
81
79
79
79
81
82
81
77
81
84
86
87
89
84
82
82
86
84
84
86
87
86
84
82
84
84
84
89
89
84
87
87
87
84
82
82
84
86
89
93
96
96
98
95
96
96
89
91
89
87
91
91
93
96
95
91
89
87
91
87
82
84
84
84
81
79
77
79
79
86
82
77
76
81
82
82
82
84
84
81
86
86
84
82
84
82
82
84
82
84
87
87
89
86
87
86
82
84
82
82
82
86
89
93
95
95
95
93
95
95
93
91
89
89
89
91
89
93
91
87
89
87
93
93
86
84
84
86
82
81
79
77
79
84
81
76
76
77
79
79
79
82
82
79
86
86
86
81
79
79
79
82
84
84
86
87
86
84
86
84
82
82
87
89
89
87
89
89
91
91
93
93
93
91
89
91
91
91
89
91
93
93
87
87
89
89
93
95
89
86
86
86
84
82
82
82
81
81
79
77
77
77
79
79
81
79
77
77
