P2
# 90 of 608 Angiograms
64 64
255
133
131
125
112
93
87
102
123
135
141
142
144
144
142
146
148
148
146
146
144
144
144
142
142
146
148
144
144
141
139
139
139
133
129
125
121
121
123
127
127
123
121
125
125
127
127
127
127
121
119
117
115
112
108
106
104
102
104
102
100
100
100
104
108
135
131
121
98
81
71
86
113
133
141
144
146
144
142
144
146
146
142
144
144
144
142
144
144
144
146
146
142
142
139
139
139
133
125
123
123
123
123
127
125
121
119
125
129
129
133
133
129
121
115
113
113
110
108
104
102
100
102
100
98
100
102
104
106
133
131
121
100
81
72
84
115
133
141
144
144
146
146
144
144
142
141
142
144
142
144
146
146
146
144
144
142
141
141
141
135
127
121
123
123
123
125
127
121
119
121
125
127
131
129
131
125
119
115
112
112
110
106
100
104
102
102
104
102
102
102
104
112
131
131
123
112
93
86
96
121
135
141
146
146
148
146
146
146
144
142
141
142
142
142
142
144
144
144
144
142
139
137
137
131
123
123
123
123
125
123
123
119
115
115
123
127
131
129
127
123
119
115
113
112
110
104
106
108
106
106
106
106
102
100
104
110
133
131
125
117
106
102
108
129
139
142
146
148
150
148
146
148
146
144
141
141
142
142
141
144
144
144
142
141
139
137
133
127
123
123
125
125
125
121
117
115
115
117
121
125
129
127
125
121
117
117
115
113
110
104
106
106
106
106
106
106
106
104
104
108
133
131
125
117
112
112
121
135
142
144
146
150
150
150
148
148
146
144
142
141
141
139
141
141
141
141
141
139
137
135
131
125
123
123
123
125
123
119
117
119
117
117
119
125
127
129
123
117
117
117
115
113
112
108
106
108
108
106
108
108
106
106
104
106
133
129
125
117
113
117
129
141
146
148
148
150
154
152
150
148
144
144
142
141
141
141
141
139
137
139
139
137
137
133
127
125
123
123
121
119
121
119
119
119
115
117
117
125
127
125
121
115
113
115
115
113
112
110
108
108
108
106
106
106
104
102
100
102
131
127
119
115
117
127
137
144
148
150
148
150
152
152
148
146
144
144
141
141
141
142
142
141
139
139
137
137
133
129
127
125
121
123
119
117
121
121
119
121
119
119
119
121
125
121
117
112
112
117
115
113
112
112
110
110
108
108
110
108
104
100
98
102
129
119
113
117
123
133
142
146
150
150
150
152
150
148
146
144
142
142
141
141
142
144
146
144
142
141
139
135
131
127
123
121
117
119
117
119
119
119
119
119
121
119
117
117
119
117
113
108
110
113
115
115
113
112
112
113
112
110
112
110
108
102
100
102
119
112
112
121
131
137
144
148
150
150
152
154
150
146
144
144
141
142
144
141
142
144
144
144
142
142
141
137
131
123
123
121
117
117
113
115
115
117
117
119
119
113
108
108
112
113
112
108
108
113
117
117
115
115
113
113
113
112
112
112
108
104
100
98
117
113
119
127
137
142
148
150
148
148
152
152
148
146
146
144
144
146
146
144
144
144
142
144
144
142
141
137
129
123
121
119
115
115
112
112
113
117
117
119
117
108
100
104
110
115
112
110
113
119
121
121
119
121
121
119
115
112
110
110
104
98
95
91
121
121
129
135
141
146
148
150
148
146
152
152
148
146
148
146
146
148
148
146
146
148
146
146
146
144
141
135
125
119
119
117
117
115
110
110
112
117
115
115
113
106
100
104
110
115
115
113
119
123
125
127
125
123
121
119
113
110
106
102
95
89
87
87
133
135
137
141
142
146
150
150
146
148
150
150
150
152
150
148
148
148
148
146
146
146
148
150
148
144
139
131
121
115
117
119
117
113
110
108
112
113
113
112
113
112
108
110
113
115
117
117
121
123
127
127
123
117
113
110
104
100
96
93
87
82
81
82
141
142
142
144
144
148
150
148
146
146
148
148
150
150
150
150
148
148
146
146
144
146
152
152
146
141
135
125
119
113
117
119
117
113
110
110
110
112
113
112
112
112
115
117
115
119
117
119
121
121
121
117
112
110
102
96
95
93
89
86
82
82
81
81
144
146
144
146
146
148
150
148
144
146
146
148
150
148
150
150
148
148
146
144
144
148
150
148
144
135
129
121
115
115
117
115
113
112
110
110
110
112
112
113
113
115
117
119
117
115
113
113
113
113
110
106
100
96
95
91
89
87
86
82
79
77
81
79
150
150
148
148
148
148
150
148
146
144
146
146
148
150
150
150
148
146
144
144
144
148
148
146
139
131
125
119
113
115
113
112
110
108
108
106
106
108
112
113
113
115
117
113
110
104
102
102
100
100
98
95
93
91
89
87
86
87
86
84
82
81
82
82
150
152
152
148
146
148
150
148
146
144
144
144
146
148
150
150
146
144
146
144
144
148
146
144
135
127
123
117
113
112
112
110
110
108
108
108
108
110
112
112
112
112
108
102
98
96
96
95
93
93
93
93
93
91
89
89
87
87
86
86
82
84
86
86
148
150
152
150
148
148
148
146
144
144
144
146
146
146
148
146
144
144
148
146
144
146
144
139
129
123
121
115
112
108
108
108
112
112
112
112
110
110
110
106
100
96
93
89
87
89
91
93
91
91
93
93
93
93
93
95
91
87
87
87
86
86
89
89
146
146
150
150
148
148
146
144
142
144
144
144
144
144
146
144
146
144
146
146
146
144
141
131
125
119
117
115
113
110
112
113
117
115
113
113
112
104
98
91
86
84
82
82
82
82
86
91
93
91
89
93
95
96
98
96
93
89
89
89
89
89
93
93
146
148
148
146
144
146
144
142
141
142
144
142
141
142
144
144
144
146
146
146
144
139
131
125
121
115
113
113
113
113
117
117
119
119
115
112
104
91
82
77
76
74
76
77
79
81
82
86
89
89
86
89
95
96
96
96
93
89
93
95
95
96
98
98
146
146
146
146
146
144
142
141
139
142
142
141
142
144
142
142
142
144
144
142
139
129
121
117
113
112
112
112
113
115
117
121
123
121
113
104
89
79
72
71
69
66
68
69
72
77
81
82
86
87
84
86
91
95
95
95
95
95
96
96
98
102
102
100
146
150
148
148
148
146
144
142
139
141
142
142
144
144
144
142
142
142
141
137
129
121
113
110
110
112
110
113
119
117
115
119
121
117
106
91
77
71
68
66
69
68
65
66
71
72
76
77
84
87
84
86
91
93
95
98
98
98
102
104
106
106
108
106
146
148
148
148
150
146
144
144
142
142
142
142
142
142
142
141
141
141
137
129
121
113
110
110
108
110
112
115
119
115
113
115
115
104
91
81
71
68
65
65
66
66
63
65
68
72
76
77
82
86
86
89
95
98
102
104
106
106
108
112
112
112
112
110
146
146
146
146
148
146
142
142
142
141
142
142
141
141
139
139
139
135
129
121
117
112
112
110
112
115
115
115
115
115
113
112
104
95
82
74
68
63
60
62
65
63
62
63
65
71
76
79
84
87
89
93
96
104
110
110
112
113
113
115
113
113
113
110
141
146
148
146
146
146
141
141
141
141
142
141
139
137
135
135
131
127
121
117
115
113
112
113
117
119
121
119
119
115
113
106
93
87
77
69
65
63
60
62
65
62
63
63
65
71
76
82
87
93
95
100
106
113
117
117
117
113
113
113
112
113
112
112
137
142
146
146
146
142
142
139
139
141
142
139
135
133
131
129
125
119
117
117
115
115
115
117
119
121
123
121
121
115
104
93
86
77
71
65
60
60
60
63
65
63
63
66
71
76
82
91
96
100
104
110
113
119
123
123
119
115
113
112
110
112
112
112
135
141
144
144
142
141
141
139
141
144
142
137
131
127
125
125
121
117
119
117
115
117
117
119
121
123
123
119
119
110
95
84
77
72
66
63
60
58
60
65
65
66
68
72
77
86
93
104
110
113
113
113
115
119
121
121
119
113
113
112
110
112
113
112
137
139
142
142
139
137
141
142
144
146
141
135
129
127
127
125
121
121
119
115
115
121
121
121
121
119
121
119
112
98
84
76
72
68
65
63
60
62
63
63
66
69
74
79
87
98
108
115
119
117
117
115
115
117
115
115
115
112
112
110
108
113
113
113
137
139
139
139
135
137
142
144
144
142
137
137
129
127
127
127
125
121
117
115
119
125
123
123
121
121
117
113
102
87
76
71
68
65
65
62
63
65
66
68
71
76
82
91
102
113
119
119
121
117
113
112
113
113
112
112
110
108
108
106
106
108
110
110
137
137
137
137
137
139
141
142
141
137
137
135
129
127
127
125
123
119
115
117
123
127
125
123
119
117
112
102
89
77
69
65
63
62
63
63
68
71
72
76
81
86
89
102
115
121
125
121
121
115
113
112
110
110
110
110
106
102
104
106
104
106
104
102
137
135
137
135
135
135
137
139
139
137
137
133
127
123
125
123
121
117
115
119
125
125
125
123
117
113
108
95
81
69
63
62
60
60
62
66
71
76
77
81
86
91
102
113
121
123
123
123
119
113
113
110
106
108
106
104
100
100
102
100
100
102
96
98
137
135
133
133
131
133
135
137
137
135
133
129
123
121
121
121
119
113
117
123
127
129
127
123
115
112
102
89
76
66
62
62
62
60
63
69
74
79
82
86
91
100
110
117
121
123
125
123
119
115
113
108
108
106
102
100
96
98
100
100
98
100
100
104
133
131
131
129
129
129
131
135
135
133
131
125
121
121
123
123
119
117
121
125
129
127
123
121
115
112
102
91
77
68
65
63
63
63
63
72
82
87
89
93
98
108
115
117
121
123
125
125
119
117
113
110
108
104
98
98
96
96
96
98
98
102
104
102
131
129
127
127
127
131
131
133
133
131
129
125
123
123
125
123
123
121
121
125
129
127
123
119
113
110
102
89
77
69
66
65
63
65
68
79
89
95
98
100
104
112
117
119
119
123
125
125
123
117
115
110
108
102
96
91
93
95
95
96
100
102
104
104
129
127
127
129
129
129
133
133
131
129
129
127
127
127
127
127
125
123
123
125
127
127
123
119
112
110
102
91
79
71
68
66
66
69
76
87
96
100
104
108
112
113
119
121
121
123
123
121
121
117
115
112
108
102
93
89
95
96
100
104
104
104
106
106
127
127
129
131
133
133
137
135
133
129
127
127
129
131
131
129
129
127
129
127
125
125
121
117
112
108
102
93
82
74
71
69
71
76
84
96
104
108
112
113
115
115
117
121
123
121
121
121
121
119
115
112
108
104
96
95
96
96
100
106
106
106
110
110
125
125
127
129
133
135
133
135
135
131
129
129
129
131
131
133
133
131
129
125
125
123
119
115
110
104
98
93
87
79
76
74
76
84
96
110
115
117
117
117
117
115
113
117
121
121
121
123
121
119
117
115
112
110
102
100
96
96
104
106
106
106
110
112
125
127
131
133
135
135
133
137
137
133
131
129
131
133
133
135
137
131
127
123
123
119
117
112
106
100
96
95
91
87
82
82
84
95
108
117
121
121
119
119
115
113
112
113
119
119
121
125
121
119
121
119
117
115
112
106
102
102
106
106
108
110
113
115
129
131
135
135
135
133
135
137
135
135
131
129
135
133
135
137
135
131
127
123
121
119
113
106
102
98
98
96
93
91
89
89
96
110
119
121
123
121
123
119
115
112
112
113
119
117
119
123
121
117
119
121
121
117
117
113
110
108
108
106
110
113
117
115
135
137
135
137
133
131
135
135
133
131
129
129
131
133
137
137
133
131
129
125
121
115
110
102
100
96
96
96
96
96
95
100
112
119
125
127
125
123
123
121
117
115
113
115
117
115
115
119
119
119
119
121
123
119
117
117
115
113
113
113
115
115
115
117
137
137
135
135
133
133
135
131
129
127
127
129
131
133
133
133
131
131
129
125
117
110
102
100
100
98
96
98
98
100
102
112
121
125
127
125
123
123
123
121
119
117
115
117
113
113
115
119
121
121
121
123
123
123
121
121
121
119
117
117
119
117
115
115
139
139
135
135
135
133
129
125
125
127
127
127
129
131
131
131
131
129
125
119
112
104
100
100
100
98
98
98
100
104
112
121
125
123
123
121
119
119
121
119
117
115
117
117
117
115
119
121
121
121
123
123
123
123
123
125
125
125
123
119
117
119
117
119
141
139
137
135
133
127
125
121
121
123
123
123
123
127
129
129
127
125
119
110
106
102
100
98
98
96
98
100
102
112
121
127
129
123
119
121
119
117
117
117
115
113
117
119
119
119
117
119
119
119
123
123
123
121
121
125
125
125
123
121
119
121
121
119
139
139
135
133
127
121
117
115
119
121
121
119
121
123
125
123
121
115
108
104
100
98
98
96
96
100
100
102
108
117
125
129
127
121
117
119
119
117
117
117
117
115
117
119
121
121
121
121
123
123
123
125
125
125
123
125
127
125
123
121
119
117
119
121
137
137
133
129
121
115
117
119
117
119
121
119
119
119
119
115
110
102
100
96
95
93
95
95
95
100
100
104
113
121
127
127
123
119
115
119
121
121
121
119
121
121
121
119
123
127
125
123
127
123
123
125
127
127
127
129
127
125
123
125
121
121
121
123
135
133
129
121
117
115
117
121
119
117
119
117
115
113
110
102
98
95
93
93
93
91
91
93
96
98
100
108
115
121
125
121
119
117
117
121
123
121
121
121
123
127
127
123
125
127
127
127
125
125
125
127
127
127
129
129
127
125
125
125
123
125
121
121
131
129
123
117
117
115
117
121
119
117
117
115
112
106
98
93
91
87
87
87
86
86
89
95
98
100
106
112
115
121
123
119
119
119
123
125
125
121
121
121
125
127
127
125
129
127
125
127
125
125
127
127
125
125
127
129
127
123
125
125
125
123
119
117
127
123
119
115
117
117
117
119
119
117
115
112
104
96
89
86
84
84
86
86
84
84
89
95
100
104
110
115
115
119
123
125
123
123
125
129
127
123
121
123
129
131
127
123
127
125
125
123
123
123
125
123
123
121
123
123
123
123
123
123
121
119
117
113
123
119
112
113
117
117
117
117
119
115
112
108
100
89
84
79
79
81
81
82
82
86
89
96
102
108
115
119
117
119
123
125
123
125
129
129
129
127
125
127
131
131
127
123
123
121
121
121
123
121
121
119
121
119
121
119
119
119
119
119
117
115
112
112
121
113
112
113
117
115
115
117
117
113
112
106
95
87
81
77
77
79
77
81
82
87
91
98
104
113
119
121
119
121
123
125
125
127
125
129
133
131
129
131
129
129
127
125
121
119
117
119
121
117
115
115
119
119
119
117
117
117
117
117
113
112
112
110
117
112
112
115
117
117
117
117
115
113
110
100
91
86
81
77
77
77
79
79
82
87
93
100
108
117
121
123
123
123
125
125
125
123
125
127
131
131
133
131
129
125
125
123
119
117
115
117
117
113
112
115
117
121
119
117
115
115
115
113
112
110
110
108
113
113
113
115
117
119
121
119
115
112
104
96
89
86
82
81
79
77
76
79
84
89
98
108
115
121
123
123
121
123
125
125
125
125
123
125
129
131
135
133
127
123
119
121
119
117
115
113
110
110
110
113
117
117
117
117
115
115
117
115
112
110
110
106
115
115
115
117
119
121
123
121
115
108
98
93
87
84
84
82
81
79
76
77
86
93
106
117
125
127
127
121
121
123
121
123
125
123
121
123
125
129
131
131
127
121
117
119
121
119
113
110
106
108
113
115
117
115
115
113
113
113
117
115
113
113
110
106
117
119
119
121
123
123
125
121
115
104
95
91
87
84
86
82
81
79
77
79
87
96
110
123
131
131
129
123
121
123
123
123
123
123
121
123
123
125
127
127
125
119
115
115
117
117
113
112
108
110
113
117
117
115
115
113
113
113
115
115
113
112
110
104
117
121
121
123
123
123
125
121
112
102
95
91
87
87
86
82
84
81
81
82
89
100
113
129
133
131
131
127
123
121
121
125
123
123
121
121
121
123
123
121
119
117
113
113
115
117
115
113
112
112
115
117
117
115
112
113
113
113
115
115
113
112
110
104
119
121
121
121
125
127
125
119
108
100
96
93
89
87
86
86
86
82
84
87
95
106
121
131
135
133
129
129
125
123
119
121
123
123
121
119
121
121
119
117
117
113
112
112
115
113
113
115
113
113
117
117
115
115
115
115
113
112
113
113
113
112
110
106
121
119
117
121
125
127
127
117
108
100
98
95
91
87
86
84
84
84
87
93
100
112
127
133
135
133
129
129
129
125
121
121
121
119
117
119
119
119
117
115
113
113
112
112
115
113
113
115
113
113
115
115
115
115
115
113
113
112
110
112
112
110
110
110
121
117
115
121
123
127
127
117
106
98
93
93
91
89
87
86
87
87
91
96
106
121
131
135
135
135
131
131
131
125
121
117
117
115
113
115
117
117
115
112
110
112
113
112
112
113
113
113
113
115
113
113
115
117
112
112
112
112
108
110
112
110
112
112
123
121
119
121
123
127
125
115
104
96
95
91
91
91
89
86
87
89
93
102
113
129
135
137
137
133
133
133
131
125
119
113
115
115
117
113
115
115
112
110
110
112
113
113
112
113
113
115
115
115
113
112
113
117
113
110
110
110
110
110
110
110
112
112
125
121
121
117
119
125
123
113
104
96
96
93
89
87
86
84
87
93
98
108
123
133
137
139
139
135
135
133
129
125
115
110
110
112
112
112
110
110
110
110
110
113
113
113
112
112
113
113
115
113
112
112
112
113
112
110
110
112
110
108
108
110
112
110
125
121
119
119
119
119
117
110
100
96
96
93
87
86
86
84
87
96
104
115
131
137
141
142
139
137
137
131
127
121
112
106
106
106
106
102
104
108
110
110
110
112
112
112
112
110
113
117
113
110
110
110
110
110
110
112
110
112
113
108
106
110
110
110
125
123
119
121
123
121
115
108
100
95
93
89
86
86
86
87
93
100
112
123
135
137
139
139
139
137
133
127
121
115
108
106
106
104
104
98
100
108
110
110
110
110
108
108
110
112
113
115
113
112
110
110
110
108
112
112
110
112
110
106
106
108
106
108
125
123
121
121
121
121
115
106
98
93
87
86
86
82
84
87
96
106
117
129
139
139
135
137
137
135
129
123
119
113
108
108
106
104
104
102
104
108
110
110
108
108
108
108
112
112
113
115
115
112
108
110
108
108
112
110
112
110
108
102
104
106
104
106
125
125
123
123
123
125
117
104
96
91
86
84
81
81
84
89
100
112
121
133
137
137
135
135
133
129
125
121
115
113
112
110
110
108
104
102
104
108
110
108
108
108
110
112
113
112
112
115
115
112
108
106
108
110
110
110
108
108
106
100
98
102
102
102
