P2
# 92 of 608 Angiograms
64 64
255
91
95
112
131
139
141
142
142
144
148
154
156
156
156
156
156
154
154
152
148
146
148
150
150
150
150
152
150
148
146
144
146
144
142
135
127
117
113
112
112
112
110
113
119
125
127
129
129
129
127
123
119
121
121
123
121
117
112
110
110
106
104
104
110
71
76
104
129
137
141
144
146
148
152
154
156
158
158
158
156
156
154
150
146
146
146
148
148
148
148
148
146
148
146
148
146
142
137
127
115
110
106
104
102
102
102
106
115
123
129
133
133
131
125
121
119
119
119
119
117
115
115
115
113
110
108
108
110
72
82
113
133
141
141
144
148
150
152
154
156
159
158
158
156
154
152
148
146
146
146
148
148
148
148
148
148
148
148
148
146
141
129
115
110
106
102
100
98
93
95
102
108
117
125
131
133
129
119
115
115
121
119
115
115
113
115
115
115
112
110
110
110
95
106
129
141
144
146
146
150
152
154
154
154
158
158
156
154
154
152
146
144
146
148
148
146
146
148
148
150
150
150
148
146
137
121
110
108
108
106
106
102
95
91
98
106
112
117
125
127
125
117
113
113
121
123
119
119
117
117
117
117
113
110
108
108
112
125
139
146
148
148
146
150
152
154
154
154
156
156
154
154
154
150
146
146
148
148
146
146
146
146
150
150
150
150
146
142
131
117
108
110
113
113
112
108
102
98
102
106
110
110
113
119
121
119
113
115
123
123
125
123
123
119
119
117
115
112
108
110
123
135
146
150
152
150
150
150
152
156
154
154
154
154
152
152
150
148
148
150
148
146
146
144
146
146
148
146
146
144
142
137
125
113
112
115
117
115
115
112
110
110
110
108
112
112
112
113
117
119
117
119
121
123
125
125
125
123
119
119
115
113
112
113
135
144
150
152
150
150
152
152
156
156
154
154
154
154
152
150
146
146
148
150
146
144
144
144
144
144
146
146
144
142
139
131
119
112
112
115
117
113
113
113
112
113
113
115
113
112
112
110
113
119
121
119
123
125
127
131
129
125
123
121
117
115
113
117
142
148
150
150
148
150
154
156
156
154
152
150
152
152
150
146
144
146
148
146
144
142
142
142
144
142
142
144
144
139
133
123
115
112
112
115
113
110
112
113
115
117
113
117
117
117
112
108
113
121
125
125
127
129
131
133
131
127
125
125
121
117
117
117
144
148
150
146
146
150
154
156
156
152
150
152
152
150
146
144
142
144
144
142
144
146
144
142
142
142
141
141
141
137
127
117
112
110
110
112
112
112
112
113
117
117
117
117
117
117
115
112
115
121
127
127
129
131
133
133
131
129
127
125
121
115
113
112
146
146
148
144
146
152
156
154
154
152
150
152
150
146
144
144
144
142
144
141
144
144
146
142
141
139
139
137
137
131
121
115
110
106
106
106
112
110
108
112
115
119
115
119
121
121
117
115
117
121
125
127
127
129
129
129
127
123
119
113
110
106
100
96
146
148
146
144
148
152
154
152
152
150
150
150
148
144
144
146
144
144
144
144
142
142
144
142
139
139
137
135
129
123
117
113
108
102
100
106
108
108
106
110
117
117
119
123
125
123
121
119
115
117
119
119
119
121
119
119
115
108
104
98
95
91
87
82
146
146
144
146
150
150
152
152
150
146
146
148
146
142
146
150
148
146
144
144
141
141
142
141
141
139
133
129
123
117
115
110
102
95
96
100
104
104
104
110
115
119
121
127
129
125
123
119
115
113
112
112
108
106
104
102
98
95
91
87
84
81
76
72
146
144
144
146
148
148
148
150
150
146
146
146
144
144
146
150
150
148
146
144
139
141
141
141
141
135
129
123
115
112
110
108
96
91
93
98
102
104
108
112
113
119
125
129
129
123
119
113
108
104
104
100
96
91
87
89
87
86
84
81
77
76
71
71
146
144
144
144
146
148
150
150
150
148
146
146
146
144
148
152
150
150
146
142
139
141
139
139
137
129
121
115
110
108
108
102
93
89
91
96
98
104
110
113
117
121
127
125
121
113
106
102
98
96
95
91
86
82
81
81
81
82
79
77
76
76
74
72
146
144
142
142
146
148
150
150
150
148
146
144
148
148
148
148
146
144
144
142
139
139
137
137
133
123
115
110
104
102
100
96
91
86
89
96
102
106
113
115
117
119
119
117
110
98
91
87
89
89
87
84
82
79
77
77
79
79
76
77
77
74
74
77
146
144
142
142
144
148
150
150
150
148
148
146
146
146
146
144
142
142
141
139
137
137
137
133
125
115
112
106
100
98
96
95
91
86
93
100
106
108
113
117
115
112
108
100
93
86
81
81
81
82
79
79
77
77
76
76
77
79
76
79
81
79
79
79
144
144
144
144
142
146
148
148
148
148
146
146
144
144
142
142
141
141
139
137
135
135
133
127
119
113
110
102
96
93
95
96
93
89
96
104
108
106
108
110
106
100
93
87
81
77
76
76
74
72
72
72
74
74
76
76
76
79
81
81
81
81
81
84
142
142
144
144
146
146
146
144
144
144
142
142
141
139
139
137
135
137
137
137
133
133
127
123
117
113
108
102
96
93
95
102
96
93
98
106
110
106
104
100
91
84
81
76
72
71
71
71
69
69
71
72
72
69
74
77
79
77
81
81
79
81
84
87
141
142
146
148
148
146
142
141
141
141
139
139
137
135
133
133
133
133
135
133
131
127
123
119
115
113
110
106
102
100
98
102
100
96
100
106
110
104
96
87
81
76
72
69
66
68
66
66
66
68
68
69
72
71
76
79
81
79
79
79
81
82
87
91
137
141
142
146
144
142
139
137
135
135
135
133
133
135
133
129
129
131
131
129
125
123
121
119
115
112
113
110
108
106
106
106
104
102
104
106
102
93
86
79
76
74
69
65
65
66
65
63
65
66
65
66
69
74
76
77
82
81
81
81
82
86
91
96
131
135
139
139
139
137
133
129
127
129
131
131
131
133
129
127
125
127
125
121
121
117
119
117
113
113
115
112
110
108
110
110
108
106
104
102
93
84
79
76
72
71
66
62
62
62
60
60
63
66
66
68
72
76
79
82
84
82
84
86
89
96
102
104
133
135
133
133
133
129
125
121
121
125
129
129
131
133
131
129
125
123
119
121
121
119
117
115
110
110
112
112
110
112
110
108
108
108
102
95
86
79
76
71
69
68
65
60
62
62
60
62
63
66
68
71
76
82
86
86
87
87
91
96
102
108
112
112
137
135
131
129
125
123
121
121
123
127
129
129
129
131
133
133
129
125
121
123
123
121
117
112
108
106
106
108
110
112
110
108
108
106
96
84
79
72
69
68
68
66
63
60
60
60
60
63
66
69
72
79
86
96
102
102
102
102
104
108
110
113
112
112
137
135
129
125
123
121
121
121
121
127
131
131
127
133
135
135
131
127
125
125
123
121
115
112
110
112
110
108
108
106
106
108
108
104
91
77
72
66
66
66
65
63
63
60
62
62
62
66
71
76
84
95
106
112
115
117
115
113
112
112
115
113
113
112
137
135
129
125
121
121
121
121
123
127
129
129
129
131
133
131
131
129
125
123
119
117
117
115
117
117
115
112
110
108
106
112
110
100
82
72
66
63
63
65
62
63
62
60
62
63
66
72
82
91
102
113
119
121
123
123
119
115
113
113
113
115
115
115
135
131
127
121
119
119
123
123
121
127
127
127
129
127
131
131
129
127
125
119
119
121
123
123
125
125
123
121
117
113
110
112
108
95
77
68
62
62
63
62
60
62
62
60
63
68
77
86
96
108
115
121
123
125
127
123
121
117
115
113
113
113
113
113
131
129
123
117
117
121
123
123
123
123
125
125
125
125
129
129
129
127
125
123
125
127
127
127
127
131
129
127
123
119
115
110
102
86
76
66
62
62
63
62
63
62
63
63
69
79
87
100
112
119
121
119
123
125
127
123
121
119
117
115
113
115
117
115
127
125
117
113
113
121
125
127
123
121
119
121
123
127
129
127
129
127
123
125
129
129
127
127
129
135
133
129
127
125
115
110
96
82
72
66
63
62
63
62
65
65
68
71
81
89
100
110
121
127
125
123
125
123
123
119
119
117
115
115
115
115
117
117
125
121
115
113
115
121
127
129
127
119
117
123
129
133
135
135
131
125
123
127
131
129
131
131
131
133
131
131
129
125
115
108
95
81
71
65
63
62
65
65
65
69
76
82
89
96
106
117
125
129
127
123
121
119
121
119
117
117
115
115
113
115
117
117
121
119
117
115
119
123
125
127
129
125
125
129
131
135
135
133
129
123
119
125
131
131
131
131
133
133
131
131
129
121
110
100
89
77
69
63
62
63
65
66
69
76
84
89
95
102
112
121
127
127
127
123
119
117
117
117
115
115
115
115
115
117
117
117
117
119
119
123
125
127
129
131
133
133
133
131
133
135
133
127
123
121
121
127
129
131
133
137
137
133
131
131
123
113
102
95
89
76
66
62
62
65
66
69
77
86
91
95
98
104
113
123
127
127
127
125
119
117
115
117
115
115
115
113
115
119
121
119
117
119
123
125
125
129
131
133
135
133
135
133
133
133
129
123
119
119
123
129
133
135
137
137
137
131
127
121
113
102
96
93
87
79
69
65
65
68
71
77
87
95
96
98
102
108
117
125
131
129
127
127
121
117
117
117
113
112
113
113
115
115
119
117
121
123
125
127
125
129
129
133
135
137
135
133
133
127
123
119
119
121
127
133
135
139
139
139
135
129
121
112
102
98
93
91
84
79
76
71
71
74
81
89
98
104
108
106
110
113
121
129
135
133
127
125
121
119
117
115
115
115
113
113
113
113
117
117
121
125
125
125
125
129
131
131
133
135
135
133
129
123
121
121
121
125
129
133
137
139
139
137
131
121
110
100
96
93
91
87
82
81
79
79
81
84
93
104
112
115
117
117
115
119
125
129
133
131
125
123
119
117
113
113
115
115
113
113
115
119
121
119
121
123
125
127
125
127
129
129
131
133
131
129
123
127
129
127
125
127
129
133
137
139
137
131
119
110
100
93
89
89
86
84
82
79
82
86
89
96
108
115
119
121
123
123
121
123
125
127
129
129
125
121
119
119
113
113
115
117
115
117
117
117
119
121
119
119
125
125
125
123
125
127
131
131
129
125
123
127
129
129
127
129
133
133
135
133
127
117
108
96
89
86
84
84
82
82
84
84
87
95
102
112
117
123
123
123
123
123
125
127
127
127
127
125
123
119
117
117
115
113
115
115
117
119
119
117
117
117
121
123
125
123
121
121
119
123
127
129
127
123
125
129
133
133
131
131
133
133
131
127
117
106
95
86
82
82
81
82
82
84
86
89
96
106
115
121
125
127
127
125
123
123
125
127
125
127
125
123
119
115
117
117
117
113
113
113
117
119
119
121
117
115
119
121
121
119
117
121
117
121
127
127
123
123
127
131
135
135
133
131
131
131
125
115
104
91
84
81
77
81
82
82
84
89
93
102
110
119
125
127
127
131
131
127
125
125
125
127
125
127
123
119
119
115
113
113
115
115
113
112
113
115
115
115
113
113
119
117
119
119
121
121
121
125
127
125
123
125
129
133
135
137
137
135
133
125
113
100
93
86
82
81
79
82
82
84
91
96
104
115
121
127
131
133
133
133
133
129
129
129
127
127
125
125
119
115
117
117
113
112
115
113
113
110
110
112
113
113
112
113
119
119
119
121
121
123
125
127
125
125
125
129
131
133
135
139
139
137
127
112
100
93
89
84
82
81
82
84
86
91
96
106
115
123
127
131
131
135
135
131
131
129
129
129
127
123
123
123
117
112
112
113
113
112
115
113
112
112
106
108
110
113
115
113
119
117
121
121
125
127
129
127
123
125
129
131
131
133
137
139
137
129
112
98
93
89
87
87
87
87
89
93
95
98
106
117
127
131
131
129
133
135
135
133
131
129
127
127
127
125
123
121
115
112
108
110
113
113
113
113
113
112
108
106
108
112
113
113
119
119
121
123
125
129
129
127
127
129
131
133
133
137
139
137
129
113
100
95
91
87
86
87
89
89
93
98
100
108
117
127
133
133
131
131
133
133
133
129
129
125
127
127
127
127
121
119
115
112
108
113
117
117
117
117
115
113
112
110
108
108
113
113
121
123
125
127
129
129
129
127
129
133
133
135
135
137
137
129
115
102
96
93
89
89
87
89
89
93
98
102
108
117
127
135
135
133
135
133
129
131
129
127
129
127
127
127
129
127
125
119
117
115
113
117
119
117
117
117
113
113
113
110
108
106
110
113
123
125
129
131
131
131
127
127
131
133
133
135
137
137
131
117
106
96
93
93
91
89
89
91
93
95
100
106
115
123
133
137
135
133
135
133
131
131
127
125
125
129
127
127
127
129
127
123
119
117
117
117
117
117
117
115
115
115
112
112
112
112
112
112
123
127
131
131
131
127
125
127
129
133
133
135
135
133
121
108
98
96
93
89
91
93
91
93
93
95
100
108
119
131
139
139
135
131
133
133
131
127
123
123
125
127
129
129
127
129
129
123
119
121
117
119
117
117
119
115
115
117
113
110
110
112
112
112
123
127
127
127
127
123
125
129
129
131
133
135
131
123
110
100
96
93
89
87
89
93
91
95
95
98
102
113
125
135
139
137
137
135
131
131
127
125
125
123
125
127
129
127
127
127
125
121
117
119
117
119
117
117
117
115
115
117
113
113
112
112
113
110
123
125
123
125
123
123
127
129
131
129
131
133
123
112
104
96
95
89
86
86
89
93
89
93
96
102
106
115
127
133
135
135
135
133
131
129
127
127
125
125
123
125
125
125
123
121
119
117
117
117
121
121
119
117
117
117
115
113
113
113
112
113
112
110
125
123
119
119
123
125
127
127
129
129
131
127
115
106
98
93
89
86
82
84
89
91
91
95
96
102
108
121
129
131
129
129
129
129
127
125
125
125
123
123
121
121
123
119
117
117
117
115
113
117
121
121
117
115
119
119
115
115
113
112
112
110
110
108
125
119
115
117
123
125
125
129
129
131
127
119
108
98
93
87
84
81
79
84
87
87
89
95
98
104
115
125
131
129
127
127
125
123
121
121
121
119
117
115
117
119
123
117
115
115
113
113
113
115
117
115
113
113
115
113
115
115
112
112
112
108
108
112
127
117
115
117
121
123
125
131
133
131
125
113
102
95
87
84
82
79
79
82
84
86
87
93
100
108
121
127
131
129
127
125
121
119
119
117
117
115
115
115
117
119
119
117
115
115
113
113
113
115
115
113
112
112
113
113
113
113
112
112
112
108
108
110
125
117
115
121
123
125
127
133
133
131
121
106
96
91
86
82
82
79
79
82
82
86
87
93
102
113
127
129
129
129
125
121
115
115
117
113
112
110
110
112
113
117
115
113
113
113
113
115
115
115
113
115
112
110
112
113
113
112
112
112
110
108
108
106
123
117
119
125
121
123
129
133
133
131
117
104
95
89
86
82
79
77
79
82
82
86
87
93
104
119
127
129
129
125
121
117
112
112
110
110
110
108
110
110
110
113
115
115
113
113
113
113
113
112
112
115
115
112
115
115
112
110
112
112
106
104
108
108
121
119
121
123
121
125
131
133
135
129
113
104
93
87
86
82
77
77
79
81
84
87
89
96
110
121
127
127
127
121
117
112
108
108
104
104
106
102
104
108
110
112
110
108
108
110
110
110
108
108
112
113
115
115
115
113
110
112
113
110
108
106
108
110
123
121
123
125
123
125
131
133
133
127
112
100
93
87
86
82
76
76
77
81
86
93
93
100
113
121
125
125
121
117
112
106
102
100
100
98
100
102
104
108
110
110
106
106
104
106
108
108
106
108
113
115
115
115
113
112
110
110
113
112
112
112
112
112
123
123
123
123
125
125
129
133
133
125
108
96
91
87
84
79
74
72
76
81
86
93
95
104
115
121
121
117
115
112
108
104
96
93
93
93
96
102
102
108
108
108
108
110
106
104
106
106
106
110
113
115
115
112
110
110
112
113
115
115
112
112
113
113
125
123
121
123
125
125
127
135
133
117
102
95
87
82
81
76
76
72
76
81
87
96
96
108
117
117
115
113
112
108
104
102
95
89
87
91
93
98
102
106
110
110
108
108
104
102
104
106
106
110
112
113
117
113
110
110
110
113
115
113
115
115
113
113
127
123
123
123
123
127
129
133
127
115
100
91
82
79
77
74
76
76
76
82
89
96
102
110
113
113
112
110
104
104
104
98
93
89
89
89
93
98
100
106
106
106
104
106
104
102
102
104
106
106
108
112
115
113
112
112
112
113
115
113
115
113
113
112
125
125
125
123
123
127
129
131
125
112
95
86
79
77
76
74
74
76
79
86
93
100
108
112
112
112
108
104
100
100
100
96
91
93
93
95
96
96
100
104
106
104
104
108
108
104
104
106
106
104
106
108
112
113
110
112
113
115
115
113
113
113
112
112
129
127
127
127
125
127
127
127
121
108
91
81
77
74
74
72
74
77
82
87
96
104
110
112
112
108
102
98
98
98
98
95
93
95
95
95
98
100
102
102
104
104
106
108
108
110
106
110
106
104
102
102
108
110
112
112
113
113
113
112
113
112
112
112
127
127
129
129
125
127
127
125
117
102
87
81
76
71
74
74
77
81
84
93
100
108
113
112
110
104
98
98
96
98
96
96
96
96
95
95
98
100
104
104
104
104
106
108
110
110
108
108
106
104
102
102
104
108
110
112
110
110
112
113
113
112
110
113
125
125
127
127
125
125
125
121
115
98
86
79
74
71
72
77
79
82
89
100
106
112
112
110
106
104
104
100
98
98
96
95
96
96
93
96
100
100
102
102
104
108
106
106
108
108
106
106
106
102
100
102
104
108
113
112
112
110
110
112
113
113
115
117
121
121
123
125
127
125
123
121
112
95
82
77
74
72
72
76
79
86
98
106
110
112
112
110
106
106
102
102
100
102
100
96
96
93
91
96
102
102
104
104
104
106
108
106
106
106
104
104
104
102
102
102
104
108
112
113
113
112
110
112
115
115
117
117
119
119
119
123
125
127
125
121
108
91
81
76
74
71
74
76
82
93
104
110
112
112
110
110
106
106
104
104
100
100
100
98
96
93
93
98
104
108
106
106
106
106
106
106
106
106
106
108
106
102
98
102
104
108
110
112
113
113
113
113
115
115
115
115
117
121
123
127
129
131
127
121
106
87
81
72
72
72
76
79
87
98
108
113
115
113
108
112
108
108
106
102
98
98
98
98
95
93
95
100
106
108
108
106
102
106
106
106
106
104
108
108
106
102
100
100
106
108
108
110
113
115
115
115
112
113
113
113
