P2
# 94 of 608 Angiograms
64 64
255
131
119
106
102
106
113
117
119
125
127
127
125
123
125
123
123
121
115
115
119
121
125
127
127
129
129
131
129
129
127
127
123
119
115
115
115
119
123
129
127
121
119
117
117
119
121
123
125
123
119
117
113
112
108
108
112
115
115
119
121
121
119
119
125
127
119
106
102
104
113
119
123
129
133
133
131
129
127
125
127
125
119
119
119
121
127
131
131
129
129
131
131
129
129
129
123
115
112
113
119
125
131
135
135
129
125
121
117
117
119
117
117
117
115
112
112
108
106
106
108
112
115
117
119
119
119
119
125
123
117
106
100
104
113
119
127
133
137
137
135
133
129
129
129
127
121
121
123
125
131
133
131
131
131
133
133
131
131
131
121
113
112
117
125
131
137
139
137
133
129
125
123
119
115
112
112
113
112
112
112
106
104
102
104
110
115
117
119
119
117
117
123
117
113
106
100
106
115
123
131
137
141
139
139
137
135
131
129
129
125
125
127
131
133
135
133
131
131
133
133
133
133
129
121
117
115
123
129
135
139
141
139
137
131
127
123
121
113
108
106
108
112
113
113
106
104
106
110
110
115
117
119
117
115
117
123
117
113
108
104
108
117
127
135
141
144
142
141
141
139
135
131
131
129
127
129
133
135
137
137
135
133
135
135
135
133
129
121
119
121
127
135
137
141
142
141
137
133
127
123
119
113
106
102
108
110
112
112
108
106
106
110
112
113
115
117
113
113
117
123
121
115
112
110
112
117
127
137
142
144
142
142
144
142
139
135
133
129
129
133
137
139
139
139
141
139
139
139
139
137
131
123
121
125
133
135
135
141
141
139
135
127
123
119
115
115
110
106
106
102
108
112
110
110
108
106
110
112
115
112
112
115
119
123
125
121
117
115
117
117
125
135
142
144
142
142
142
141
139
137
135
133
133
137
139
141
141
141
142
142
142
142
142
139
133
127
123
127
133
137
137
137
137
133
125
119
119
117
119
117
113
108
106
102
104
110
113
112
108
108
110
115
113
110
112
117
119
123
131
127
125
123
123
121
121
131
139
141
142
141
141
141
139
137
135
137
137
141
142
144
144
146
146
146
144
144
146
142
135
127
125
125
131
133
135
135
133
125
119
115
119
119
121
121
119
113
108
102
104
110
113
112
110
108
110
115
112
110
112
115
119
121
135
133
131
129
125
121
119
127
135
139
141
141
141
139
139
137
139
139
141
144
148
150
148
148
148
146
146
146
146
142
135
127
123
127
131
133
133
131
125
125
119
117
121
125
125
127
123
117
112
104
104
110
112
113
110
110
112
115
113
110
110
115
119
121
139
133
133
133
131
125
121
123
131
137
141
141
141
139
139
139
141
142
144
146
150
152
150
150
150
146
146
146
144
141
133
127
123
125
129
131
129
125
125
125
123
121
123
127
129
131
127
119
112
106
104
110
115
115
113
115
117
117
113
110
110
113
121
123
139
135
135
135
133
129
125
123
129
137
141
142
142
141
141
142
144
146
146
144
148
150
150
150
148
144
144
144
142
137
129
125
125
125
127
129
125
125
125
125
125
123
127
129
131
131
127
117
112
106
104
110
117
119
117
119
121
119
115
113
112
113
119
123
139
139
137
137
137
133
129
125
127
135
141
144
146
144
146
146
146
144
142
144
146
148
150
148
146
144
144
144
141
135
127
123
123
123
123
123
123
125
125
125
121
121
123
127
131
131
127
115
113
110
108
110
115
119
119
121
121
117
117
113
113
113
117
121
141
139
139
139
141
139
135
129
129
135
141
144
148
148
146
144
142
139
139
142
144
146
146
144
144
144
144
141
137
131
123
119
117
117
117
119
123
125
123
119
119
119
123
129
131
129
125
117
115
113
112
112
113
115
115
115
115
113
112
112
112
112
113
115
141
139
139
141
144
144
142
137
135
137
141
146
148
146
142
139
137
135
135
137
139
139
141
141
141
142
141
135
131
125
117
110
110
113
117
119
123
125
123
121
123
125
129
131
131
129
123
119
117
113
112
112
110
108
106
106
106
106
106
104
104
100
100
102
141
141
142
146
148
148
148
144
141
139
142
142
144
139
135
133
135
135
137
137
135
139
137
133
133
133
131
129
125
117
110
102
104
110
115
117
119
121
121
123
129
131
135
137
135
129
121
115
113
110
106
106
100
96
96
95
95
95
93
91
87
84
79
79
142
144
148
148
148
150
150
148
146
142
141
141
135
133
135
137
137
137
133
133
135
137
133
127
121
121
121
121
117
112
102
96
96
102
110
115
115
117
121
125
129
135
139
139
133
123
113
108
104
96
93
89
84
82
82
79
79
77
76
72
71
69
68
68
146
150
152
150
150
152
150
150
148
144
141
135
129
131
139
142
142
137
133
133
135
135
129
123
115
113
115
113
110
106
100
98
98
98
102
110
115
117
121
123
127
135
137
133
121
110
98
89
87
84
79
77
74
74
76
74
72
72
69
66
66
63
63
63
150
152
154
154
154
154
152
148
144
141
135
129
127
131
139
144
144
141
135
131
133
131
129
127
121
119
115
113
108
102
100
104
102
100
100
104
110
113
119
123
129
131
127
117
106
91
81
77
74
72
72
71
69
69
74
72
69
71
66
68
68
66
63
63
150
152
154
156
154
152
150
146
139
133
127
127
129
135
139
142
146
142
139
135
135
133
133
133
135
129
121
113
104
100
100
106
108
106
104
102
104
108
113
117
119
119
112
98
82
74
71
69
68
68
69
69
69
69
69
69
68
68
65
65
65
66
66
66
150
152
154
152
150
148
144
141
135
129
125
129
135
137
139
141
142
142
139
137
137
135
133
135
137
133
123
113
104
100
102
108
110
112
108
106
106
106
106
110
110
100
89
77
69
68
69
68
68
68
68
69
71
71
69
68
68
69
68
66
65
66
68
69
141
142
144
144
142
142
139
135
133
133
133
135
135
135
135
139
141
142
139
135
131
133
133
133
133
129
123
113
108
104
106
110
110
113
113
112
110
108
102
100
95
82
71
66
65
66
66
65
63
65
66
68
68
69
68
66
66
68
69
66
68
68
71
71
127
131
135
137
139
137
133
131
133
139
141
137
135
131
131
135
139
141
137
131
129
129
127
129
129
127
121
113
112
110
108
108
110
115
113
115
112
106
100
89
79
71
66
62
63
63
65
62
63
63
66
66
66
69
68
69
69
69
71
71
71
74
76
76
119
125
133
137
135
133
133
135
141
146
144
142
139
135
135
135
137
141
135
131
129
127
127
127
127
125
117
112
113
112
108
108
112
113
112
112
110
100
89
79
69
66
63
60
60
63
65
63
63
63
65
66
65
68
69
71
74
74
74
72
72
76
79
79
117
125
133
135
137
139
139
141
144
146
146
146
146
144
141
141
141
141
137
133
131
129
129
129
127
123
117
112
112
110
108
110
113
113
110
108
102
93
82
71
65
63
60
59
59
62
62
62
60
60
62
66
68
71
72
77
81
81
79
77
76
79
82
86
123
131
139
141
142
144
144
144
146
148
146
150
152
150
146
144
144
142
139
137
135
131
131
129
127
121
113
110
108
104
102
104
106
108
106
100
95
86
76
68
62
59
56
58
56
59
59
58
58
59
63
68
71
76
82
86
87
89
87
86
86
87
93
98
137
142
144
146
146
146
148
148
146
148
148
152
154
154
150
146
144
141
139
137
135
131
129
125
123
117
112
106
104
100
102
102
102
102
98
93
86
79
71
65
59
56
56
54
54
58
56
58
59
62
66
72
81
87
96
104
108
110
104
102
102
104
108
112
146
150
150
148
146
146
148
146
146
148
150
154
154
154
152
148
144
141
139
137
133
129
123
123
119
112
108
108
104
102
102
100
98
93
89
86
81
76
71
65
60
55
52
51
51
58
60
62
65
68
76
87
98
108
117
123
125
125
117
115
117
119
121
123
150
150
152
150
148
148
146
144
144
148
152
152
152
152
152
148
144
141
139
135
131
125
121
119
115
110
108
110
110
108
104
100
93
87
84
82
76
76
71
66
62
55
49
50
54
60
65
69
77
86
98
110
117
125
129
129
129
125
125
121
121
121
125
125
148
150
150
148
148
144
144
141
142
146
152
152
150
150
150
146
142
141
137
133
127
123
117
117
112
106
106
110
112
108
102
95
87
84
82
77
74
74
69
65
62
55
50
52
58
65
76
87
98
108
117
121
125
125
131
129
125
123
121
119
121
123
125
123
146
148
146
146
144
142
142
139
141
144
146
148
146
146
148
146
141
141
137
131
127
123
117
113
108
104
108
113
113
104
95
87
84
82
79
77
77
76
69
63
60
56
52
56
63
74
87
100
110
115
121
127
125
127
127
125
121
117
113
113
115
119
119
119
146
144
144
144
142
141
141
139
139
142
144
146
146
144
146
144
141
141
137
131
125
123
117
112
108
106
110
113
106
96
87
84
84
81
76
76
77
77
74
66
60
58
58
63
74
84
95
106
112
117
123
125
123
121
121
119
115
112
113
115
113
113
113
115
144
142
142
141
139
141
139
137
137
141
144
146
144
142
142
142
139
139
135
131
125
121
117
112
108
110
110
104
95
84
79
79
77
76
74
74
76
77
77
71
66
65
68
74
82
91
98
106
112
119
121
123
121
121
119
115
112
110
113
112
112
112
112
112
142
141
139
137
137
137
137
137
137
142
142
144
144
141
141
139
137
137
133
131
125
121
117
112
106
102
96
91
81
77
74
72
72
74
74
76
79
79
81
77
77
79
82
87
93
98
104
110
115
119
121
123
121
117
115
113
113
112
112
112
110
108
110
112
141
137
135
135
135
137
135
137
141
142
142
144
142
142
139
137
135
133
133
131
125
121
115
106
96
89
81
77
72
72
72
74
74
74
77
77
81
82
86
89
93
98
100
104
106
106
110
115
119
119
121
123
121
117
113
112
110
108
110
110
108
108
110
110
137
135
135
135
135
133
135
139
141
141
142
142
141
141
139
135
135
135
133
129
123
115
106
93
82
77
74
69
68
69
72
74
77
81
82
84
89
96
100
106
110
112
115
117
119
121
121
123
123
123
125
123
121
119
113
110
106
104
104
108
108
108
110
108
135
133
133
135
133
131
133
137
141
141
144
142
141
141
141
137
137
135
131
127
115
104
91
79
72
71
69
66
68
71
72
76
81
86
91
96
104
112
115
117
121
123
125
125
127
127
127
127
125
125
127
125
123
119
113
108
108
106
106
104
102
104
104
104
131
131
131
131
133
131
135
137
139
142
142
142
142
142
142
141
139
135
127
115
100
87
76
69
69
68
66
65
69
74
76
81
87
93
98
106
117
121
123
123
123
125
127
125
125
127
127
125
123
123
125
125
123
121
113
110
110
108
108
104
104
106
106
106
133
133
131
131
129
131
135
135
137
141
141
142
142
142
141
141
137
129
115
98
84
74
68
66
68
65
65
68
72
76
81
87
93
100
110
119
127
129
129
127
125
125
127
125
125
127
127
123
123
123
121
123
123
121
115
112
113
112
108
108
110
112
110
108
131
133
131
131
131
133
133
133
137
139
139
141
141
141
141
137
129
113
98
84
72
65
63
63
66
65
66
69
74
79
86
93
100
113
123
129
131
131
129
127
123
125
123
119
119
123
121
119
121
121
121
121
121
121
117
113
112
113
112
110
110
112
112
112
131
133
135
133
133
135
135
135
135
137
141
141
144
141
139
129
113
98
86
72
65
62
62
63
66
66
68
69
76
81
89
102
115
123
129
135
131
131
129
125
123
123
117
115
117
119
121
121
119
119
119
121
119
119
117
115
115
113
113
112
110
110
112
112
133
133
135
133
135
137
139
137
135
137
141
141
144
139
129
115
98
86
76
66
62
60
63
65
65
66
68
69
77
84
98
113
125
127
129
131
129
127
127
125
123
117
113
115
119
121
123
121
119
119
119
121
121
119
117
117
117
112
110
110
110
113
113
112
133
135
133
133
137
141
141
139
137
139
141
142
141
131
113
98
86
77
71
63
62
60
60
62
65
66
68
71
79
89
108
121
127
129
127
125
127
125
123
121
117
113
113
119
123
121
123
123
121
121
119
119
119
119
117
117
115
113
110
112
112
113
115
115
137
137
135
135
139
142
141
139
139
142
142
142
135
115
98
84
79
71
66
62
59
58
56
59
65
68
68
74
82
98
115
123
125
125
125
125
121
119
119
117
113
113
119
121
123
123
123
121
121
119
117
117
117
115
115
112
112
112
112
113
115
113
117
117
137
137
133
131
137
141
142
139
141
142
142
137
119
100
84
77
72
66
65
62
59
59
58
59
62
68
69
76
89
108
119
121
123
123
121
119
115
115
113
115
115
119
121
123
127
125
123
121
121
121
121
117
115
113
112
112
113
113
113
119
119
115
117
117
135
133
131
131
135
137
139
142
142
144
141
125
104
87
76
71
66
65
63
60
60
60
60
59
59
63
69
81
95
110
115
117
117
119
117
115
117
113
113
113
117
121
123
125
127
125
125
123
123
121
119
119
113
113
113
113
112
113
117
123
123
117
115
115
135
131
133
133
135
137
141
142
144
141
133
113
95
79
71
66
65
62
60
60
60
59
58
58
60
65
74
89
106
112
115
115
115
117
117
115
113
113
115
117
119
121
125
129
131
125
125
123
121
121
119
117
113
113
113
113
115
115
117
121
121
117
113
113
133
131
131
131
135
139
142
144
142
137
123
104
86
74
68
65
63
62
59
60
59
58
55
56
62
71
84
100
110
112
113
113
112
113
115
115
117
117
119
121
121
123
127
131
133
129
125
123
121
119
119
117
113
113
112
112
115
119
117
119
115
113
112
110
131
131
129
129
133
137
142
142
139
133
115
93
79
68
62
60
62
60
59
60
58
54
52
58
65
77
95
108
112
115
115
113
112
115
119
119
119
121
121
125
123
123
127
131
131
129
127
123
119
117
115
113
113
112
110
112
113
117
115
115
113
112
112
108
131
129
127
127
129
135
139
139
135
125
106
89
74
63
58
56
58
59
59
59
55
52
51
58
69
86
102
113
115
113
113
110
110
115
119
119
121
123
123
123
123
127
127
127
127
127
125
121
115
112
110
108
108
108
108
110
112
113
115
115
110
110
108
108
133
129
127
127
131
135
137
135
131
119
100
84
71
63
58
56
58
58
56
56
54
51
51
60
77
96
112
115
115
113
113
112
113
117
121
123
125
127
127
125
125
125
127
127
125
123
119
115
112
108
108
108
106
106
106
108
110
112
112
110
110
110
110
108
135
129
127
127
131
135
133
133
127
115
96
82
71
65
59
58
60
58
56
58
56
55
59
69
91
113
119
119
119
117
115
117
121
123
125
127
129
129
127
127
125
125
125
123
121
119
117
110
108
106
106
108
106
106
104
104
108
112
112
110
110
110
110
110
135
131
129
129
129
131
133
133
127
112
95
82
72
65
60
59
60
59
59
60
62
65
69
84
110
121
125
125
123
121
119
123
125
127
129
129
129
129
127
125
125
125
125
121
121
117
113
110
106
104
108
112
110
106
104
106
110
110
112
110
110
112
113
110
137
135
135
133
133
133
133
135
125
110
93
81
71
63
62
60
62
62
63
66
69
72
82
102
119
129
129
129
125
123
123
125
127
129
131
129
129
125
127
125
123
123
123
119
117
115
110
108
108
110
112
113
112
108
106
108
110
112
113
112
115
117
117
115
139
139
139
141
139
137
137
135
123
106
91
77
71
63
60
63
65
66
68
71
74
82
100
117
131
135
131
127
127
125
125
127
127
129
129
127
125
125
127
127
121
121
119
115
113
113
110
110
113
113
113
112
112
112
110
108
112
112
113
115
119
117
119
117
141
139
142
144
141
139
137
131
115
98
86
74
69
65
62
66
66
68
69
74
82
95
112
129
137
137
135
131
127
127
125
123
125
127
125
125
125
125
127
125
121
121
119
117
115
113
112
113
117
113
110
112
112
113
112
110
112
112
112
113
115
115
115
115
141
141
142
141
139
137
135
125
108
93
81
74
68
65
63
66
68
69
74
81
93
106
121
137
142
142
139
135
133
129
127
127
129
127
125
125
125
127
127
127
125
121
119
117
115
113
113
117
119
115
112
110
110
113
113
112
112
112
112
112
113
115
113
113
137
137
139
137
135
131
127
119
104
89
79
74
68
65
65
68
71
74
81
89
104
117
129
139
144
144
141
137
135
133
131
129
129
125
127
127
125
125
125
127
123
121
119
117
117
117
119
119
117
117
115
112
113
113
115
112
112
112
112
112
115
115
113
110
129
131
131
129
127
127
121
113
96
84
76
71
68
65
66
69
72
77
84
96
113
125
133
139
142
142
141
139
137
133
131
129
129
125
129
127
125
121
121
123
123
121
119
119
119
121
119
119
119
119
115
113
113
115
115
113
113
110
112
112
113
112
110
110
127
127
123
121
121
119
117
108
89
79
72
69
65
62
62
68
76
81
89
106
123
131
137
141
141
141
139
137
135
133
129
129
129
127
127
125
121
121
119
117
117
119
117
119
121
121
121
121
117
117
115
113
115
115
115
113
110
108
110
110
113
112
110
112
129
125
123
121
119
117
115
102
84
76
69
65
62
62
63
68
76
84
96
117
129
135
139
139
135
133
133
131
131
129
127
127
127
127
125
121
119
121
119
117
115
117
119
121
121
123
123
121
117
115
115
115
115
117
115
112
110
110
110
112
113
113
112
113
127
125
123
123
123
119
113
98
81
72
66
62
60
62
65
68
77
89
108
125
133
137
135
131
129
127
127
129
127
125
125
127
129
127
123
119
117
119
123
119
117
117
117
117
119
119
119
117
117
117
117
119
119
117
115
112
112
110
110
113
113
115
115
113
127
125
123
125
129
123
113
96
82
72
66
62
59
62
63
69
81
96
117
129
135
135
131
129
125
125
125
125
127
125
125
127
129
127
121
119
117
117
121
121
119
117
117
117
117
115
113
113
115
115
115
117
119
119
119
113
112
112
112
112
113
113
113
113
131
127
123
125
129
123
112
95
82
74
68
63
63
66
68
74
89
108
125
131
131
131
127
127
125
127
125
125
129
125
125
127
127
125
121
119
119
119
121
121
119
117
113
113
112
112
110
112
115
117
119
117
117
117
119
115
115
112
112
113
113
110
110
110
135
131
129
129
127
119
106
95
84
76
69
66
66
69
72
81
96
113
125
127
125
125
123
123
125
125
127
127
127
125
125
125
123
121
117
115
117
121
121
121
117
117
113
113
112
112
110
112
115
117
119
115
115
117
117
117
117
113
112
112
113
112
112
110
