P2
# 97 of 608 Angiograms
64 64
255
89
89
91
91
89
93
96
100
100
104
110
108
106
98
86
77
74
71
68
63
62
62
62
63
66
69
72
74
81
84
82
82
84
84
82
82
82
84
84
84
86
86
89
93
96
96
93
89
91
91
96
95
95
96
100
102
106
108
108
110
108
108
110
110
89
89
91
91
87
93
98
100
102
102
106
108
108
98
86
81
74
71
68
63
63
62
60
65
65
66
69
74
79
82
84
82
79
79
81
81
82
86
86
82
82
84
89
93
95
93
91
91
91
91
96
96
98
95
98
102
106
108
108
110
108
108
110
112
91
91
91
87
87
91
98
100
100
100
102
108
108
100
87
81
74
71
68
65
63
62
63
65
66
68
69
74
81
81
81
79
76
76
81
81
84
86
86
84
84
89
93
96
93
93
93
93
91
95
98
100
100
100
100
102
104
106
108
108
108
108
110
110
86
86
86
84
86
91
96
100
100
98
100
104
104
96
87
81
74
69
69
66
62
60
63
66
66
68
68
71
79
77
79
77
76
76
81
79
81
84
86
86
87
91
95
95
91
93
93
93
95
98
98
100
102
102
100
100
102
104
106
106
108
108
110
110
86
87
84
82
86
91
98
98
100
98
98
102
100
93
86
79
71
68
68
65
62
62
63
63
62
62
65
69
77
82
79
76
79
79
79
77
79
82
84
86
89
91
93
91
89
91
95
93
95
98
98
100
100
102
102
102
104
102
106
108
108
108
108
106
91
89
86
84
86
91
96
98
98
98
100
100
98
93
86
76
69
63
63
63
65
63
65
65
62
62
65
69
74
79
79
76
76
79
81
79
79
84
84
84
87
89
87
91
89
89
93
93
95
100
102
104
100
100
100
100
102
104
106
108
108
108
104
102
96
93
91
87
87
91
95
96
98
98
100
98
96
91
84
72
68
66
65
63
65
62
62
65
62
62
63
69
74
77
77
76
74
76
79
82
82
82
86
86
87
87
87
87
87
91
93
95
95
100
104
102
102
100
100
100
100
102
104
104
104
102
102
100
100
95
93
91
89
93
93
93
96
98
102
100
95
89
81
72
68
68
68
65
62
62
60
63
62
62
63
69
77
77
77
74
72
72
77
82
84
82
84
84
86
87
87
86
87
91
91
91
95
98
102
102
102
100
100
102
102
100
104
104
102
102
102
104
100
95
96
95
91
93
93
95
98
102
102
100
95
87
81
76
71
69
68
68
63
62
62
62
60
62
65
69
79
82
79
72
71
71
77
84
86
84
84
84
84
87
86
86
87
87
89
91
95
96
100
98
98
98
98
102
102
100
100
100
102
100
102
100
100
96
95
93
89
91
93
96
100
104
102
98
98
87
82
77
72
69
68
68
65
65
65
60
62
62
65
69
79
82
81
72
69
74
79
82
84
84
86
84
86
87
86
87
87
89
87
89
93
96
98
96
96
100
98
100
102
102
100
100
102
100
100
98
102
98
95
93
93
91
91
95
96
100
102
100
100
91
84
81
74
72
71
71
68
66
66
63
60
59
65
69
76
79
77
72
69
72
77
79
81
82
86
87
89
89
84
86
89
91
91
89
93
96
100
98
96
98
98
98
100
98
96
98
98
96
96
93
102
98
95
93
91
89
91
96
98
100
104
104
100
95
87
82
76
72
72
71
66
65
65
65
59
56
62
69
74
77
76
71
69
72
79
79
82
84
86
87
89
87
84
86
87
89
91
91
91
96
100
100
98
98
102
102
98
96
98
96
96
95
91
91
98
96
96
93
91
87
89
96
98
100
102
100
102
96
89
82
79
74
72
69
63
62
65
62
58
55
60
68
72
74
72
69
71
74
79
81
86
86
87
87
89
84
82
87
86
86
89
93
93
96
96
96
96
98
102
100
96
96
96
96
96
93
89
91
96
96
95
95
93
87
89
96
98
100
100
100
102
98
89
82
81
77
76
71
66
62
63
62
56
56
60
68
72
76
74
71
71
74
79
81
84
87
87
89
86
86
82
84
87
87
89
93
98
96
98
96
96
96
98
100
96
93
95
95
95
91
91
89
95
95
96
95
93
89
91
95
100
102
102
102
102
100
93
84
81
79
76
71
66
62
59
60
58
56
60
66
74
74
74
76
74
74
81
82
86
89
87
86
84
86
79
81
86
93
93
95
96
100
100
102
98
96
98
96
93
93
93
96
95
93
91
87
91
95
96
95
91
91
91
96
100
100
102
104
104
102
95
89
82
79
76
69
63
59
58
60
58
56
60
66
74
79
79
77
74
76
77
81
87
89
87
87
86
82
79
84
86
89
93
96
98
100
102
100
98
98
96
96
95
93
95
95
96
91
89
87
84
89
91
91
93
93
95
98
98
100
100
104
104
104
96
89
84
81
76
68
62
62
59
59
56
56
62
68
74
81
84
77
76
76
77
84
87
87
84
84
82
77
77
84
87
89
93
95
98
98
102
100
100
100
95
95
93
91
95
96
93
91
89
91
79
82
84
87
91
93
96
96
98
100
102
104
104
104
98
89
84
81
74
69
63
60
58
56
58
59
62
68
74
82
84
81
76
79
81
86
87
86
86
82
81
76
76
79
86
89
91
95
98
96
98
98
100
98
98
95
91
93
95
95
93
93
93
93
72
79
82
82
86
91
95
96
98
100
100
102
102
104
96
89
81
79
72
68
63
62
60
58
58
59
62
66
74
82
81
79
79
82
81
86
91
91
87
82
79
74
74
79
82
87
89
93
96
96
96
95
96
98
96
96
96
95
93
95
96
96
95
93
72
77
81
81
82
86
91
93
95
98
96
98
100
98
95
86
79
74
69
65
62
59
58
58
58
58
62
66
74
81
82
84
81
79
81
87
89
89
87
82
79
74
77
79
82
86
86
87
91
95
95
93
96
98
98
96
95
96
96
95
96
96
93
91
74
81
82
82
82
82
87
91
95
96
98
98
98
98
93
81
74
66
62
58
54
52
55
59
59
62
65
69
74
79
86
87
84
82
82
89
91
89
89
84
79
77
82
84
84
86
86
87
87
91
93
93
96
96
98
98
95
98
100
96
95
91
91
93
76
82
86
81
79
81
87
93
95
98
100
100
100
102
91
77
68
60
54
51
49
50
55
60
62
65
66
69
74
79
86
86
86
86
84
86
89
87
87
86
79
79
84
87
86
86
86
86
91
91
91
93
93
96
96
96
95
96
98
93
91
89
91
91
76
81
84
81
79
82
89
93
93
96
98
104
106
102
91
76
63
56
49
46
45
50
58
60
63
68
69
71
74
81
86
86
86
86
87
86
87
84
84
82
79
81
87
89
87
87
86
87
93
95
93
93
93
96
95
96
95
96
96
93
91
87
89
89
77
79
81
79
79
84
89
91
93
95
96
100
106
102
95
81
68
59
52
49
50
55
60
62
65
66
69
74
74
82
86
86
86
84
82
84
86
84
82
79
79
86
89
89
89
91
91
91
91
93
93
93
93
95
96
95
95
93
93
91
89
89
89
93
77
79
81
79
79
86
91
91
93
93
93
98
104
104
100
87
77
69
63
58
58
62
62
63
63
66
68
72
72
84
87
87
89
87
84
82
82
82
82
82
84
87
89
89
91
93
95
91
89
87
89
91
91
93
93
95
93
91
89
89
89
91
89
91
79
81
81
81
81
87
91
93
91
95
95
96
102
102
102
95
84
77
71
68
68
66
66
63
62
65
68
69
74
84
91
89
87
86
86
84
82
81
82
82
82
89
91
93
91
93
95
95
95
91
89
91
93
95
93
93
91
93
89
87
87
89
91
91
81
82
81
76
79
87
95
95
93
95
93
96
100
102
102
98
89
82
77
74
72
69
68
65
63
65
66
72
76
82
89
89
89
89
89
86
84
82
82
82
84
89
91
95
95
93
95
96
96
93
93
93
93
96
95
91
91
93
93
93
87
87
87
89
82
84
79
72
77
87
93
93
91
93
93
95
98
100
98
98
93
86
82
77
76
71
69
68
65
63
65
71
76
82
89
87
87
91
87
86
86
84
82
82
86
91
93
95
95
93
93
95
96
93
96
95
98
96
95
89
91
93
91
91
89
87
87
86
79
82
77
72
77
86
93
96
95
91
89
91
96
100
102
98
95
87
86
81
77
72
69
68
65
63
66
71
74
81
84
86
84
87
84
82
82
82
81
81
87
91
95
96
96
93
91
91
93
95
95
89
96
96
95
91
91
91
89
89
89
87
89
87
82
82
77
71
79
86
95
100
98
91
89
89
95
100
100
100
95
89
91
82
79
74
68
66
66
65
66
68
72
79
84
84
82
86
86
82
82
82
81
84
87
89
93
96
96
96
96
91
95
98
93
89
93
93
91
89
87
91
89
89
87
86
87
87
82
81
76
74
79
87
95
102
98
95
89
91
96
102
104
102
98
91
89
84
79
74
71
68
66
68
69
71
74
81
81
82
86
89
89
86
86
86
86
86
89
93
93
96
96
96
96
96
96
96
95
91
93
91
91
89
87
89
89
91
89
87
87
89
81
81
74
74
79
87
95
100
98
96
93
93
98
102
106
106
100
95
91
84
81
76
71
68
65
63
65
66
76
82
86
86
87
87
87
87
84
84
86
87
87
91
93
96
96
96
96
100
95
95
93
91
91
87
91
89
87
87
89
89
87
86
89
87
84
81
74
72
77
87
95
96
96
98
95
93
98
102
106
106
104
98
93
84
82
76
71
68
68
65
65
69
79
84
87
82
84
86
91
89
86
84
86
89
86
91
95
96
95
95
98
96
95
91
89
91
87
87
91
86
87
87
89
89
89
87
89
87
82
81
76
77
81
87
93
96
98
98
95
93
96
102
106
106
106
100
96
87
82
79
72
69
68
66
68
72
79
84
86
82
81
86
87
86
84
84
87
87
87
91
96
96
98
98
98
98
96
93
91
87
86
87
86
84
89
89
89
93
93
91
91
93
86
84
79
81
84
87
93
100
102
102
98
98
98
100
102
106
106
104
100
93
87
82
77
74
71
71
71
72
79
82
84
82
77
81
86
84
84
87
91
93
91
91
93
96
98
98
98
102
100
96
95
91
91
89
86
86
89
91
91
93
93
95
93
93
86
86
81
79
84
87
93
100
104
100
98
100
96
98
98
104
108
106
104
98
93
89
82
79
76
72
74
72
77
81
82
86
86
84
84
86
89
93
95
93
93
91
93
96
96
98
98
100
98
98
95
93
93
91
87
87
87
91
91
91
91
93
91
91
82
86
82
81
84
87
91
96
102
102
100
98
100
96
95
100
106
106
104
100
96
95
87
82
77
76
74
72
72
79
82
87
86
82
82
86
93
93
93
93
93
91
93
96
96
96
96
98
96
98
96
96
93
91
89
87
87
89
91
91
91
89
87
91
84
87
86
84
84
84
89
93
98
100
100
98
100
98
95
98
104
106
106
100
96
98
93
86
81
77
74
71
71
76
82
84
82
82
81
86
89
87
91
95
93
93
95
98
98
96
98
96
95
95
96
98
93
91
89
87
87
91
89
89
89
91
87
89
86
87
86
86
86
84
86
91
96
98
100
98
100
100
96
100
102
106
104
96
96
98
95
89
82
79
76
72
71
72
79
84
84
82
82
84
87
93
95
95
95
96
98
98
96
96
98
96
93
96
98
98
91
86
89
89
87
87
84
86
87
89
87
91
87
89
91
89
87
87
86
91
95
98
102
102
100
100
98
100
102
104
100
96
95
98
96
93
86
82
79
77
74
71
76
82
84
86
84
82
87
95
96
95
93
96
100
96
95
95
96
96
95
95
95
95
91
89
89
91
91
87
86
89
87
87
87
89
91
91
93
91
89
89
89
91
93
95
98
98
98
95
95
96
98
96
96
96
96
98
96
93
89
84
81
77
74
69
74
82
86
87
84
84
89
91
95
96
93
96
100
98
91
93
96
100
98
95
95
93
95
93
93
91
89
89
87
89
91
89
87
89
95
91
91
91
93
91
89
87
89
93
93
93
93
91
91
93
95
98
96
95
96
96
98
95
91
86
82
79
72
69
71
81
87
89
87
86
89
91
95
95
95
96
100
98
89
89
95
98
96
95
93
93
93
95
93
93
93
91
87
89
87
87
87
87
98
96
93
91
93
91
89
89
87
89
93
91
91
93
95
95
96
100
98
95
98
96
95
95
89
87
82
79
71
69
69
79
87
89
89
89
91
93
91
93
95
98
98
98
93
89
93
96
98
96
95
93
93
98
93
93
93
93
89
89
86
86
87
86
102
95
89
93
93
89
89
87
84
86
89
89
91
93
93
96
96
98
95
98
98
95
93
91
87
87
82
81
74
68
68
76
84
89
89
91
91
89
91
93
93
93
93
95
95
93
93
95
96
98
96
96
95
98
95
95
91
91
93
91
87
87
86
84
104
95
89
87
89
87
87
87
84
86
89
93
91
87
91
96
96
96
96
98
95
95
93
91
89
87
84
81
77
68
65
72
81
86
89
91
91
87
89
89
91
91
91
95
96
93
89
91
93
96
95
96
98
96
95
96
93
89
91
91
87
89
84
82
102
95
91
89
87
86
87
86
82
82
89
95
95
91
91
95
95
95
93
96
95
95
91
91
89
89
87
84
79
71
65
69
79
82
86
89
87
87
87
89
87
89
89
93
96
96
93
89
89
95
96
100
100
96
96
98
95
96
95
93
91
89
84
81
100
95
93
89
87
84
86
86
84
82
87
96
98
93
91
93
93
93
91
95
93
91
91
87
86
86
89
87
81
74
68
66
76
81
86
87
87
86
82
84
84
86
89
93
95
95
93
91
89
93
93
95
96
96
96
98
98
95
96
93
93
93
87
82
104
98
93
91
89
87
89
87
86
84
86
95
98
95
93
93
91
89
89
89
91
89
91
89
87
89
91
89
82
76
71
69
76
81
84
86
86
84
84
84
84
87
87
95
95
91
93
91
91
93
95
93
96
96
96
98
100
95
96
93
89
91
89
84
106
100
93
89
89
87
87
86
82
81
86
93
96
96
95
93
91
89
87
87
91
93
91
91
89
91
93
91
86
77
71
71
77
82
84
84
82
81
82
84
84
86
87
93
91
91
91
91
93
91
91
93
93
95
95
98
98
96
95
91
87
89
87
86
108
102
95
91
87
84
84
82
82
84
84
91
95
96
96
93
89
86
87
84
87
93
91
93
87
89
93
95
86
81
74
74
81
86
84
79
81
81
79
82
86
86
87
87
91
91
89
91
93
91
93
96
98
98
95
93
95
96
95
93
89
93
91
87
106
102
95
93
87
82
82
81
81
82
82
89
95
96
95
93
89
86
89
86
87
91
91
93
89
89
91
93
87
81
79
77
81
86
86
82
82
82
81
82
81
81
84
87
91
89
87
89
95
95
98
98
98
98
95
95
96
98
95
95
93
93
91
89
104
100
96
93
87
84
81
77
79
79
81
84
93
95
93
95
91
89
87
87
87
91
91
89
91
91
91
91
87
81
81
79
79
82
86
84
86
82
81
81
79
79
82
84
86
86
87
89
91
93
95
98
98
96
96
95
96
96
95
95
95
96
95
87
104
100
98
95
87
86
82
79
79
74
77
81
87
89
89
87
87
89
87
82
87
91
89
91
91
89
93
91
89
82
79
77
79
82
86
87
87
82
79
79
79
79
82
82
82
84
84
89
93
93
91
95
98
98
96
95
98
98
96
96
96
96
95
87
106
104
98
95
89
86
82
81
77
72
71
77
81
84
86
86
87
86
86
82
84
89
91
93
89
89
87
89
89
84
79
77
81
81
84
87
87
81
79
76
77
79
84
84
84
84
86
87
91
93
91
91
95
95
95
96
98
100
98
98
98
98
93
89
106
106
100
95
91
86
84
82
77
74
71
71
77
81
82
84
84
84
84
84
84
86
89
91
91
91
87
86
86
84
81
79
81
79
81
84
82
81
76
72
77
81
82
81
82
86
86
84
87
89
89
89
87
91
91
93
96
95
98
96
95
95
93
89
110
108
102
95
89
86
84
81
79
76
76
72
72
81
81
82
82
84
86
86
84
86
89
89
89
91
87
86
87
84
82
79
79
82
82
84
82
81
76
76
79
84
82
81
84
86
82
81
84
87
91
89
87
87
89
93
91
91
95
95
93
93
93
89
110
108
104
96
93
89
84
82
79
74
77
74
71
76
82
82
82
86
86
82
84
87
87
89
89
87
86
86
84
82
81
79
79
82
82
82
84
82
79
74
77
82
82
82
84
84
81
81
82
86
91
91
89
87
86
87
89
93
93
93
93
93
91
89
112
110
106
100
93
89
84
84
79
77
77
74
72
76
79
81
82
84
82
82
86
89
91
91
91
86
84
84
84
84
81
79
82
82
82
84
86
82
81
77
81
84
86
82
81
81
82
84
86
87
91
91
89
84
82
87
89
91
93
93
91
91
89
87
112
110
108
102
93
87
84
82
79
77
77
74
71
74
77
81
84
82
82
82
87
87
87
91
89
89
86
89
87
86
81
79
82
84
81
82
82
81
79
79
82
84
86
86
82
82
84
86
82
87
93
93
87
87
86
89
91
93
93
93
91
89
87
86
113
112
108
102
95
91
86
81
79
79
77
74
74
71
72
77
82
82
81
84
84
86
86
86
91
89
87
87
91
89
84
81
86
86
84
81
81
79
79
81
81
79
82
84
86
87
84
82
81
87
93
93
89
87
87
93
89
91
89
95
95
93
89
87
112
112
108
104
96
95
89
82
79
79
79
74
71
71
71
74
79
84
84
84
86
86
87
89
89
89
86
89
91
91
82
84
87
86
86
81
79
79
82
84
82
77
81
82
84
86
86
82
84
87
93
93
91
89
89
91
93
89
91
93
93
93
91
89
113
108
108
104
98
95
93
86
81
79
79
72
66
71
71
72
79
82
81
82
86
86
89
91
87
87
89
91
93
89
84
86
87
89
89
82
77
79
82
82
82
77
79
81
84
87
89
87
84
89
95
95
93
93
91
89
89
91
91
91
93
95
93
91
113
110
110
106
102
98
95
89
82
79
79
74
68
69
71
72
77
81
82
84
84
82
87
91
87
87
91
89
93
93
87
82
84
89
87
84
79
77
82
82
81
81
79
79
82
86
89
84
84
87
93
93
93
93
91
89
89
89
91
93
95
95
91
91
112
110
112
108
104
100
98
93
84
81
77
76
72
71
71
72
74
79
81
82
82
84
86
89
89
86
86
87
91
93
87
82
82
86
87
87
82
77
79
81
84
84
79
77
81
84
84
82
86
89
93
93
93
93
89
87
87
91
91
93
95
93
89
91
