P2
# 106 of 608 Angiograms
64 64
255
131
131
129
127
129
131
133
135
135
133
131
129
129
129
129
129
129
127
129
127
127
125
127
129
133
133
135
133
135
133
129
125
123
121
119
115
110
106
106
106
110
112
115
121
119
119
119
121
121
117
112
108
104
104
110
110
104
96
98
98
100
100
96
91
135
133
131
131
135
135
135
135
133
131
129
127
125
129
129
129
125
127
129
127
127
127
125
125
127
129
131
131
131
129
125
123
121
119
117
112
106
104
104
104
108
112
115
119
119
121
121
121
121
119
110
104
102
104
106
106
104
96
98
98
96
95
96
95
137
135
135
139
139
139
137
133
129
127
127
127
125
129
129
127
127
127
133
131
131
129
127
125
127
127
127
129
129
125
123
121
119
115
115
112
106
102
100
102
106
110
113
117
119
123
125
125
123
119
110
102
102
102
106
106
106
100
98
98
100
100
98
93
137
135
137
141
142
142
135
129
127
127
127
129
127
129
127
129
129
129
131
133
131
131
127
125
127
127
127
129
125
123
119
115
115
115
115
112
102
95
95
98
104
108
112
113
119
121
121
123
121
117
110
106
106
104
104
108
108
104
102
102
104
104
100
95
137
135
135
141
141
137
131
125
125
125
127
127
127
125
125
129
129
129
129
131
131
129
127
125
127
127
127
129
123
121
115
113
115
117
117
108
96
91
93
96
100
108
110
112
115
121
121
121
121
115
110
104
102
102
104
108
110
106
106
104
102
104
102
96
137
133
131
135
137
133
129
125
125
125
127
127
123
123
125
127
129
131
129
129
129
127
131
125
125
125
125
125
121
117
117
115
117
117
115
106
98
96
93
95
100
108
110
110
115
119
121
121
117
112
108
106
106
108
110
110
108
106
106
102
104
104
102
96
137
133
133
133
133
129
127
123
123
125
127
123
125
125
127
127
129
131
129
127
127
127
129
127
125
123
121
121
119
117
117
117
117
115
108
100
98
98
96
96
102
104
104
106
110
113
117
117
112
108
112
112
112
113
112
106
104
104
108
106
104
102
98
93
135
133
129
129
127
127
125
121
121
123
121
121
123
123
125
123
129
131
127
125
125
127
129
129
125
121
121
119
119
117
117
117
115
110
102
100
100
98
98
98
102
100
102
104
104
106
110
112
110
110
113
113
115
115
112
106
104
100
100
100
96
93
91
89
127
125
125
123
125
125
125
121
119
119
119
121
123
123
125
125
129
127
123
123
125
129
129
129
123
121
121
119
117
115
115
113
108
104
100
100
100
102
100
100
100
100
102
102
104
108
110
110
112
112
112
112
112
110
108
102
96
96
95
93
89
87
86
86
121
119
121
121
123
123
125
121
119
119
121
123
123
123
127
127
127
125
123
121
125
127
129
129
123
121
123
117
113
112
110
108
104
100
100
96
96
96
98
102
104
100
100
102
106
110
113
113
113
112
110
106
102
100
98
93
93
93
91
91
89
87
84
81
117
115
115
117
121
123
123
123
123
123
123
121
123
123
125
125
127
125
123
121
123
125
129
127
125
125
121
113
108
106
106
104
100
96
96
95
95
95
98
102
102
102
104
106
108
112
113
115
113
110
102
96
93
89
87
87
89
89
87
86
87
84
82
82
115
113
112
115
119
121
123
125
125
125
123
119
121
121
123
125
123
125
125
123
123
123
127
125
125
121
117
110
104
102
100
98
95
93
95
96
93
93
95
98
100
104
110
110
112
113
113
113
108
100
93
89
84
84
84
82
84
82
84
84
86
84
84
84
117
113
112
117
119
119
121
123
125
125
121
117
121
121
123
125
125
125
127
127
125
123
125
125
123
119
113
108
102
98
96
95
91
91
98
98
96
95
93
96
100
106
110
112
112
113
110
104
96
89
84
82
81
82
81
81
79
79
82
82
86
84
82
82
119
115
113
115
117
115
115
117
119
119
119
117
119
121
123
123
125
127
129
129
129
127
123
123
119
113
112
108
102
95
95
93
93
96
100
102
100
96
96
96
102
106
110
110
110
110
106
98
89
82
77
77
79
79
79
77
77
77
81
81
84
82
81
84
121
117
115
115
117
115
113
112
112
113
115
115
117
119
121
121
125
125
127
129
127
127
123
123
117
112
108
104
100
95
95
93
96
100
106
104
100
100
100
102
106
106
110
112
110
104
98
91
82
77
74
77
77
74
74
74
77
79
77
81
82
84
86
87
121
119
121
119
117
112
110
110
110
112
113
115
117
119
117
117
123
123
123
127
129
127
123
119
115
110
104
102
100
98
96
95
95
102
108
104
102
104
104
106
108
108
110
110
106
98
89
82
79
74
74
76
76
74
74
74
77
77
76
79
82
86
91
87
121
121
121
119
117
113
112
108
110
112
112
113
113
115
117
121
123
125
127
131
129
125
119
115
113
112
108
104
104
102
98
91
93
100
106
106
108
110
110
110
110
110
112
104
96
89
86
79
77
76
76
77
77
76
74
76
76
74
77
84
86
89
93
91
121
121
119
119
115
113
112
112
112
112
112
112
112
115
119
121
123
127
127
127
125
121
117
113
112
110
110
108
106
102
96
91
93
96
106
110
113
113
113
112
112
112
106
95
86
82
82
79
77
76
76
77
77
77
76
74
76
77
84
89
93
91
93
93
119
119
119
119
113
112
115
115
113
117
113
110
108
113
119
121
123
127
127
125
123
119
117
115
112
110
108
106
102
100
95
95
96
100
108
113
117
117
115
110
110
108
98
86
81
81
81
77
77
76
77
77
76
79
81
77
79
84
91
96
96
95
96
98
115
115
115
115
112
112
113
115
115
117
113
112
108
110
115
121
123
125
127
123
119
117
117
115
112
110
108
104
104
98
95
95
98
104
108
113
121
119
117
110
108
102
91
79
77
77
76
74
76
77
76
77
77
79
79
82
87
91
96
96
95
96
100
100
106
108
112
112
112
113
115
117
117
113
112
110
110
112
117
121
123
125
123
119
117
117
113
112
110
106
104
104
102
98
95
96
102
106
108
113
121
119
117
110
104
96
84
76
76
76
72
71
76
77
77
76
82
84
87
89
93
93
96
96
96
100
100
102
100
102
106
110
113
115
117
115
113
112
108
108
112
115
117
121
121
123
121
117
115
112
110
112
112
108
106
104
104
104
104
104
108
110
110
115
121
121
117
110
100
91
82
77
76
74
71
71
74
77
77
81
86
91
95
96
95
96
98
100
102
104
102
102
98
100
102
110
115
117
115
113
110
106
106
108
113
117
119
121
119
119
117
115
115
112
112
112
112
110
108
106
108
110
112
112
112
112
113
119
121
121
115
110
98
87
81
76
69
68
66
71
76
82
84
87
93
96
96
100
98
102
102
108
108
108
106
104
93
96
102
108
113
113
112
108
106
106
106
108
112
113
117
117
117
119
117
115
117
115
113
112
113
112
113
113
113
115
117
117
117
117
119
121
121
119
115
106
96
87
81
72
68
66
69
74
77
86
89
93
96
100
100
102
104
106
104
108
110
108
106
106
86
91
96
102
106
106
104
102
104
106
106
108
113
117
119
119
117
119
119
117
121
119
117
113
115
117
119
117
117
119
121
121
121
121
121
123
123
121
113
102
93
86
81
74
68
66
71
74
81
87
93
96
100
102
102
106
110
110
108
110
108
108
106
106
82
84
89
96
98
100
100
100
102
106
108
110
115
117
121
121
119
121
119
117
121
121
121
117
115
115
119
119
117
121
123
123
125
125
125
125
123
119
106
96
91
84
81
76
69
71
72
77
86
91
98
102
106
104
104
106
112
112
112
108
108
106
108
106
82
82
87
93
96
95
98
100
104
108
110
110
113
117
121
121
121
123
119
117
121
123
121
119
115
115
115
119
121
123
125
125
125
125
125
125
119
110
100
95
91
82
79
79
72
74
79
86
93
98
102
104
104
102
102
108
113
112
110
108
104
104
108
106
86
86
87
91
93
96
100
106
108
108
112
112
113
117
119
121
121
121
117
119
121
123
121
119
119
117
115
119
123
123
125
121
123
123
123
121
112
104
98
95
91
86
82
82
81
81
87
95
100
104
104
104
102
102
104
115
115
112
110
108
104
108
108
108
91
93
93
96
98
102
104
108
112
108
112
115
115
117
119
119
119
117
117
117
121
121
119
119
121
121
117
121
125
123
123
121
123
123
121
113
104
102
100
98
95
89
89
87
87
93
96
100
104
108
106
104
102
104
110
113
115
113
110
110
108
110
110
112
95
96
98
98
100
104
106
110
110
108
112
113
115
115
115
115
117
115
117
121
121
119
119
121
123
123
121
125
129
125
121
119
121
117
112
102
102
100
102
100
96
95
93
93
98
100
102
104
104
108
106
106
104
110
113
113
115
113
113
112
110
110
112
115
96
102
100
98
100
104
106
106
106
110
112
113
113
113
113
113
115
115
119
121
125
125
125
125
127
125
123
127
129
123
121
119
115
108
102
98
98
100
104
100
100
98
98
102
108
110
112
112
112
110
110
108
110
113
113
112
113
115
113
112
110
112
115
117
100
102
102
96
98
102
104
102
102
108
110
110
110
110
112
112
115
117
121
123
123
129
129
131
129
127
123
125
125
121
119
113
106
100
96
91
95
100
106
104
104
102
102
110
115
119
121
119
117
115
113
113
112
112
112
112
112
112
112
112
112
112
113
115
98
102
104
98
95
98
100
96
98
106
108
110
110
108
112
110
113
119
123
123
121
127
131
135
133
129
123
123
123
119
112
104
98
95
93
91
95
102
108
106
106
106
108
113
119
123
125
121
119
119
117
115
115
112
110
108
106
108
108
108
112
112
110
110
96
100
104
102
96
95
95
89
93
102
106
108
110
106
108
110
115
119
121
123
123
125
129
133
131
129
123
121
117
110
102
96
91
91
91
93
96
102
110
110
110
112
115
117
121
123
123
119
117
117
117
115
113
110
106
106
106
104
106
106
108
108
106
104
95
102
104
106
100
96
93
86
95
102
104
108
108
108
110
113
117
121
123
125
127
125
127
129
129
127
123
112
102
95
91
87
86
87
91
95
98
102
110
112
113
117
119
119
121
123
119
119
117
115
117
115
112
110
106
104
104
104
102
102
104
104
102
102
95
100
104
106
102
98
96
95
102
106
108
108
108
108
113
117
123
123
123
125
127
125
127
127
125
121
113
100
91
87
84
86
87
87
93
95
102
104
110
113
119
119
121
121
121
119
117
119
115
117
113
113
112
108
106
102
100
96
95
98
100
100
100
98
96
100
102
104
104
102
100
102
108
112
110
110
110
110
115
121
121
123
123
129
129
129
131
127
123
112
100
91
86
81
81
82
84
86
91
95
102
104
110
115
119
121
121
121
115
115
115
113
117
115
113
112
110
104
102
98
96
95
93
95
96
95
98
98
102
102
100
104
106
104
102
106
112
113
112
110
112
112
119
123
123
123
127
131
135
135
133
125
115
102
91
86
81
76
77
81
84
89
91
95
100
106
113
119
119
121
119
117
113
115
115
113
115
112
110
108
106
102
98
96
96
93
95
95
96
96
98
100
102
100
100
102
108
106
102
104
112
115
115
112
112
117
121
125
123
127
133
137
139
137
129
117
104
91
84
84
79
77
81
81
82
87
91
93
100
108
115
117
119
117
115
115
113
113
112
112
110
108
108
108
104
100
96
96
96
95
93
93
95
98
98
98
106
106
106
106
108
106
102
104
108
113
115
113
115
119
121
123
125
133
139
137
137
131
119
106
93
82
81
82
79
77
76
79
82
86
91
95
100
110
115
115
115
115
112
112
110
108
112
112
108
108
110
108
102
100
95
95
91
91
93
96
98
96
98
100
110
110
110
112
112
108
104
108
110
112
113
113
117
123
123
125
129
137
141
137
131
117
106
96
86
79
77
77
77
74
74
79
82
86
93
96
106
110
110
112
112
112
110
108
108
108
110
108
108
108
110
104
104
100
95
91
91
93
95
98
96
96
96
98
115
110
110
113
113
110
108
108
110
112
113
117
121
123
123
125
129
133
135
131
117
106
96
91
82
79
74
74
72
71
72
79
82
86
93
102
108
108
108
112
112
110
106
106
106
106
108
108
108
108
106
102
102
100
96
95
95
98
98
98
96
100
98
96
119
112
108
110
112
112
110
108
108
112
115
121
121
121
119
121
125
127
125
119
106
96
91
86
82
77
72
68
68
71
76
82
86
89
100
106
108
110
110
110
108
106
104
104
104
106
110
110
112
108
102
100
100
100
98
98
100
102
100
98
96
96
96
95
121
113
108
108
110
112
108
106
108
113
117
119
119
115
113
117
119
121
117
110
98
93
84
79
79
74
68
65
66
71
77
84
87
95
102
106
106
106
110
112
108
108
106
104
106
110
112
112
110
106
100
100
100
100
102
102
104
104
102
98
95
95
98
98
123
117
112
106
108
110
106
108
110
113
115
117
115
113
115
117
117
117
110
98
93
87
81
77
74
71
66
63
68
72
79
84
89
96
102
104
104
104
106
108
106
106
106
106
110
112
113
112
108
104
100
98
102
104
104
104
104
104
102
100
98
98
100
102
127
121
113
108
108
108
104
104
108
112
112
113
112
112
115
117
119
113
106
96
89
86
79
76
74
71
65
63
69
76
79
84
91
98
102
104
104
102
104
104
102
106
106
106
110
112
112
110
104
100
98
98
104
108
108
106
104
102
102
104
102
102
102
104
129
125
117
110
106
106
104
100
106
110
112
112
110
110
113
119
119
112
100
89
86
84
77
71
72
69
65
65
69
77
81
86
93
102
108
106
104
102
104
104
104
106
106
106
108
106
108
106
102
96
96
98
106
108
106
104
106
102
100
104
104
104
104
104
129
127
121
115
112
110
104
98
104
108
110
110
110
110
115
119
121
112
96
87
81
81
76
72
71
68
66
68
71
77
81
87
98
110
110
108
108
104
106
104
104
104
106
108
104
104
104
104
100
96
96
100
108
112
108
104
102
102
102
102
104
106
106
106
131
129
125
119
115
113
108
102
104
108
110
110
110
113
119
125
121
110
93
84
79
77
72
69
68
69
68
68
71
77
84
93
102
110
110
108
106
106
104
102
100
104
102
102
100
98
98
98
98
96
98
106
113
115
112
106
104
104
102
104
104
104
106
104
133
131
127
123
119
115
112
104
104
110
112
108
112
115
121
125
121
108
91
81
76
74
71
68
66
66
65
66
71
79
86
95
104
106
108
108
104
102
102
100
98
100
98
98
98
96
98
98
98
100
104
112
117
117
112
110
108
108
106
106
104
106
108
104
133
131
127
127
123
119
113
108
106
108
108
110
113
117
121
123
117
104
89
81
76
74
69
65
63
63
66
68
71
79
87
96
102
106
108
104
102
98
98
96
98
100
95
96
96
96
96
100
100
104
112
113
115
112
106
104
108
108
106
104
104
106
106
104
129
129
127
127
125
121
113
110
106
104
106
110
113
119
123
121
115
102
89
81
74
72
68
62
60
60
63
69
72
81
89
98
100
106
106
102
96
96
96
96
100
96
95
96
95
95
98
102
106
110
113
112
112
106
100
100
106
104
106
104
104
106
106
104
127
127
125
127
127
119
112
108
104
104
108
110
112
115
121
121
113
100
87
81
74
69
63
62
62
60
63
69
74
82
89
100
100
102
102
96
93
89
91
93
93
93
93
93
93
96
98
104
110
112
112
110
108
104
102
100
104
106
106
108
102
104
102
102
123
123
127
125
123
113
110
108
104
106
108
110
112
113
119
117
113
100
87
79
71
65
62
60
62
62
63
69
76
84
91
100
98
98
96
95
93
89
89
93
93
93
89
91
95
95
100
106
110
110
110
106
104
104
104
102
106
108
104
102
102
102
102
102
121
123
127
123
119
110
106
106
104
106
106
108
112
110
113
113
108
95
84
77
69
63
60
59
59
62
65
71
79
87
93
98
96
95
95
95
93
91
91
93
91
89
89
87
95
100
106
108
108
108
108
104
108
108
106
104
108
108
104
100
100
104
104
102
121
123
127
121
115
108
104
102
106
108
108
110
110
110
110
108
102
93
82
77
69
63
58
56
59
60
65
71
79
89
93
95
93
91
95
96
96
95
95
95
95
91
91
87
98
100
106
110
108
108
108
106
110
110
108
110
110
104
102
106
110
110
106
104
123
123
121
115
110
106
102
102
102
104
110
112
112
110
108
104
96
89
81
76
69
62
56
56
56
59
65
72
84
91
91
89
89
91
93
95
98
98
98
96
98
98
96
95
98
100
106
108
108
106
104
108
110
112
110
110
110
106
102
108
112
113
112
108
121
121
115
112
108
106
100
96
100
106
110
113
113
108
106
102
93
86
77
71
66
60
58
59
58
62
68
77
86
91
89
89
87
87
89
93
98
100
98
100
102
100
100
102
102
104
106
108
104
106
108
110
110
113
115
113
110
106
106
112
115
115
115
113
119
113
112
110
106
106
100
98
104
110
112
113
113
110
104
98
91
82
74
69
63
59
58
60
62
65
76
84
91
89
87
89
87
86
86
89
95
95
95
98
102
100
102
106
106
106
106
108
108
108
110
108
110
112
112
112
110
104
108
110
112
112
112
112
115
110
110
106
106
106
102
102
106
110
113
113
113
110
100
95
86
79
72
68
60
56
59
60
62
68
81
87
93
89
87
87
87
86
84
89
93
95
96
98
102
104
106
108
106
108
106
108
108
108
108
108
108
110
110
110
108
104
106
106
110
112
110
110
112
110
108
104
106
106
104
106
108
113
115
113
112
106
98
91
82
76
69
65
60
59
60
60
63
74
84
86
87
87
86
86
86
87
87
91
95
98
98
98
98
100
100
104
108
110
110
112
110
106
106
106
108
110
110
108
104
102
100
104
106
108
112
110
110
110
108
106
106
106
106
108
113
117
117
113
110
102
95
86
77
72
68
63
60
60
62
62
68
79
86
87
87
86
86
87
86
87
89
93
98
102
104
100
98
96
100
102
102
104
106
110
110
110
110
108
108
110
108
106
102
102
102
106
108
110
110
106
112
110
108
106
104
108
112
112
113
119
115
113
108
100
89
77
72
68
63
59
55
58
62
65
72
82
87
91
87
89
91
89
89
91
93
96
98
104
102
100
96
96
98
100
100
102
104
104
106
110
108
108
108
108
108
108
104
102
106
108
108
108
108
106
112
110
110
106
106
108
110
112
113
117
115
112
106
96
86
76
68
65
62
59
55
58
63
66
76
84
89
91
91
95
93
89
91
93
96
98
100
104
104
98
98
98
96
100
102
100
104
104
104
104
104
104
108
104
104
108
104
104
106
106
108
108
110
108
