P2
# 111 of 608 Angiograms
64 64
255
108
102
96
89
82
77
81
81
82
81
76
72
68
63
59
59
56
51
50
52
59
68
76
87
96
96
96
98
100
100
98
93
89
96
98
100
110
121
127
133
137
135
131
131
131
129
125
125
129
131
133
137
137
135
133
131
131
129
129
129
125
121
119
113
110
106
100
93
86
81
79
77
77
77
74
72
69
66
63
60
56
52
54
56
62
69
77
84
93
98
96
100
98
100
100
95
93
96
96
96
104
117
129
135
139
133
133
131
127
131
123
123
125
129
135
135
131
133
135
131
131
131
129
127
125
123
117
113
112
112
104
96
87
82
77
74
72
71
69
69
69
68
65
60
56
55
58
62
63
72
79
82
89
96
98
102
98
96
100
96
95
95
93
95
100
110
123
131
133
133
133
133
127
129
123
121
123
127
131
133
135
135
137
131
131
133
129
127
123
123
119
113
110
110
106
98
91
84
76
74
69
66
65
66
65
65
66
63
59
58
60
63
68
74
79
82
87
95
98
100
100
98
100
98
96
95
95
96
98
104
115
125
131
133
133
133
129
127
123
119
123
125
129
133
133
135
135
131
133
131
131
129
127
125
119
113
108
104
104
100
96
89
81
74
71
65
65
63
62
60
60
62
58
60
62
66
71
79
86
87
91
96
96
100
102
98
100
100
96
93
91
93
96
100
106
115
125
131
133
133
131
127
123
119
119
123
125
129
129
131
135
133
133
131
131
131
129
125
119
115
106
106
104
104
100
95
89
79
72
63
59
58
56
58
58
58
59
65
66
68
76
86
91
91
91
96
95
96
98
98
100
98
95
96
93
91
95
100
106
110
117
123
127
127
129
127
125
121
117
121
123
125
129
129
133
133
133
131
129
131
129
125
121
119
108
108
104
104
106
104
96
87
77
66
59
55
55
54
54
56
59
63
68
71
81
89
93
95
91
96
96
96
96
96
96
95
95
93
91
89
91
100
104
104
110
119
123
123
125
127
123
123
121
121
119
121
123
125
129
131
131
133
127
127
129
125
123
119
108
112
108
108
110
110
106
98
87
72
63
56
55
54
52
54
59
62
68
72
84
93
96
96
95
95
95
95
100
96
96
96
95
89
86
86
89
98
102
102
106
112
119
123
125
125
123
119
119
119
115
113
117
119
123
125
129
131
127
123
125
129
123
121
108
110
112
110
112
112
112
106
96
81
65
56
51
52
54
55
59
62
68
72
86
95
100
96
95
95
95
96
96
98
96
96
96
91
86
89
91
95
96
98
102
106
113
117
123
125
123
117
113
112
108
108
113
115
117
121
123
125
125
123
125
127
127
123
106
110
108
108
110
110
113
112
106
91
69
59
52
52
54
56
59
63
69
72
86
96
102
96
93
93
96
96
96
95
96
98
96
95
91
93
93
93
93
93
96
100
106
113
117
121
119
115
112
104
104
100
106
110
113
117
119
121
121
123
125
127
127
125
104
104
104
108
108
108
113
113
108
98
77
63
56
56
56
58
60
66
69
74
86
98
100
98
93
93
93
93
91
89
93
93
91
91
89
91
91
91
87
91
95
95
100
106
112
117
117
113
108
102
100
98
100
106
108
112
117
119
119
121
123
125
127
125
100
106
102
104
104
108
113
113
110
100
84
71
63
62
62
60
62
68
72
77
89
98
102
100
96
95
95
89
89
91
87
86
86
86
86
87
89
87
87
89
91
93
95
100
104
112
115
112
106
100
96
96
98
100
104
108
112
115
115
117
119
119
121
121
104
106
104
104
104
108
110
112
112
102
89
76
68
63
63
63
65
69
74
81
87
98
104
106
102
98
96
93
91
93
86
82
81
79
82
86
87
89
89
89
91
93
93
96
98
104
110
110
110
102
100
100
102
102
100
104
108
110
112
112
117
117
117
119
108
106
100
102
106
106
110
110
106
102
91
79
71
65
63
62
65
72
76
82
89
96
104
102
98
98
100
95
91
93
91
87
84
82
82
84
86
87
91
91
93
91
93
96
93
96
104
112
112
108
104
100
100
100
98
100
102
108
110
112
113
115
119
119
110
108
102
106
106
108
108
108
106
102
93
82
71
69
63
58
63
72
76
84
93
98
104
100
96
100
100
98
91
93
95
96
93
87
84
84
84
86
93
93
93
93
91
93
95
95
100
106
108
108
106
104
100
96
98
100
100
104
108
112
115
117
119
115
108
106
104
104
106
108
104
106
106
102
95
87
76
69
65
59
59
68
76
86
93
98
102
100
98
100
100
100
95
93
95
95
96
95
91
89
87
89
89
95
93
91
95
95
96
96
98
100
106
110
110
106
104
102
100
100
98
98
104
110
113
117
115
113
104
102
102
102
104
106
104
104
102
100
96
95
82
69
65
62
59
63
72
82
91
95
98
100
102
106
100
98
95
93
93
95
96
98
96
93
89
91
91
93
95
93
96
96
98
98
100
102
108
110
110
110
106
104
100
96
98
98
102
110
112
113
112
113
102
104
102
102
104
108
106
104
100
102
100
100
93
81
71
65
62
60
71
79
86
91
95
98
98
96
96
96
95
95
95
98
100
100
102
102
96
95
95
95
96
95
96
96
102
100
102
104
108
112
115
115
108
104
100
98
100
102
100
106
108
110
110
112
102
106
106
104
104
106
106
106
102
100
100
106
100
93
81
72
66
63
68
76
84
89
89
93
93
91
93
95
96
100
104
104
106
106
106
104
98
96
95
95
95
95
98
98
102
102
104
104
106
110
112
115
113
110
104
100
100
98
100
102
106
104
106
108
104
102
100
100
102
104
106
106
104
104
104
104
104
102
93
84
76
68
68
74
84
89
86
87
86
87
89
93
98
104
104
104
108
108
104
102
98
93
95
96
96
96
95
96
100
98
100
102
108
108
110
113
113
112
112
106
102
102
104
104
108
108
108
108
102
102
100
98
102
108
110
110
110
110
110
108
106
106
102
95
87
79
71
74
82
89
86
86
81
82
86
87
89
95
102
106
108
108
104
104
98
96
96
96
96
96
98
95
96
96
98
102
104
106
108
110
112
110
112
112
110
108
106
108
112
112
112
112
102
102
100
104
108
112
113
115
113
117
112
112
110
106
106
102
96
89
81
77
82
89
89
87
87
84
84
82
82
86
95
104
108
112
110
108
104
98
96
96
95
96
96
93
95
96
96
100
100
104
104
108
110
110
112
112
112
113
113
113
115
117
117
117
104
106
106
110
112
110
113
117
117
117
115
112
108
104
108
108
102
96
91
86
86
91
93
95
93
89
84
81
82
84
87
98
106
110
110
112
110
104
100
100
96
96
96
91
93
95
96
96
100
104
106
106
108
110
115
115
113
117
117
117
117
123
121
121
106
106
108
110
112
112
113
115
119
117
113
113
110
106
106
110
106
100
96
91
91
93
96
102
102
95
89
84
81
82
87
93
104
112
112
112
110
106
100
100
98
96
95
95
95
93
98
96
96
98
102
102
104
106
113
117
115
117
117
117
117
123
123
123
110
110
108
110
112
113
112
117
119
115
112
110
108
108
108
110
108
102
98
96
95
95
98
106
108
106
98
91
82
82
86
93
104
112
112
115
112
106
104
100
96
95
95
95
95
95
96
96
98
100
102
102
102
106
110
115
113
117
115
117
119
125
125
125
113
115
115
112
113
113
112
117
115
113
112
112
110
110
112
110
110
106
98
96
91
91
98
106
110
108
104
96
89
87
87
95
106
112
112
115
113
110
108
104
98
98
96
96
95
96
96
96
98
98
100
100
98
102
106
112
115
115
113
115
119
123
123
123
117
117
113
115
117
113
113
113
113
112
113
112
110
110
110
108
108
106
100
95
89
89
98
104
108
106
100
95
91
89
91
95
104
112
112
113
112
110
106
106
100
100
100
98
98
96
98
98
96
96
96
96
96
98
102
106
113
115
113
113
113
117
119
119
113
115
115
115
115
113
113
113
112
112
112
110
108
108
108
106
106
104
102
95
89
87
96
104
106
102
96
89
87
91
93
95
104
112
113
112
110
108
108
104
102
102
102
102
100
98
98
98
96
96
96
96
98
96
95
98
108
113
113
113
112
115
117
117
112
113
113
115
115
112
110
112
113
112
110
110
108
110
106
108
106
104
104
96
89
87
95
100
100
98
91
89
89
91
95
98
106
112
110
108
110
108
104
104
104
104
104
102
102
102
100
98
96
98
96
95
96
96
95
96
104
110
112
112
113
115
117
115
113
113
115
112
110
110
108
110
113
110
110
110
104
104
104
106
104
104
102
98
91
86
91
96
95
89
86
89
91
87
93
102
110
113
113
112
112
106
104
102
104
104
106
104
100
98
96
98
98
98
98
96
95
96
96
98
104
108
110
110
112
113
115
119
115
113
115
112
108
110
112
112
112
112
112
110
106
108
108
110
108
104
104
100
89
81
86
89
87
84
82
84
87
93
102
110
113
115
112
112
110
108
106
102
100
104
106
102
102
96
100
100
98
100
100
100
100
100
98
98
102
108
110
110
113
113
113
115
115
113
112
112
108
110
112
112
112
110
112
110
108
110
112
110
104
104
106
102
87
81
81
82
82
79
79
82
93
102
110
113
113
113
113
112
110
110
108
102
100
102
100
98
100
96
98
98
98
102
104
102
100
104
102
102
102
106
110
112
113
112
110
108
115
115
112
108
108
108
108
108
110
110
113
112
110
106
110
106
106
104
106
102
89
82
74
72
74
79
79
86
95
102
108
112
112
113
110
110
110
106
104
104
102
102
98
98
102
98
100
98
100
104
104
102
102
104
104
104
102
106
110
113
113
112
112
106
112
113
108
108
108
108
108
112
112
115
113
115
113
110
108
106
108
106
108
102
93
82
72
69
69
72
81
87
93
96
104
108
110
110
110
110
110
108
106
102
102
102
102
100
102
100
100
100
100
102
102
102
104
104
100
102
102
106
110
110
113
113
112
110
112
110
110
108
110
110
112
115
113
117
117
115
115
113
110
110
108
106
108
104
96
86
69
65
66
72
82
89
91
93
96
100
106
108
110
110
110
112
108
102
104
104
106
102
102
102
102
102
102
104
106
104
104
106
106
104
106
110
110
110
110
112
113
112
110
108
110
108
110
112
112
113
112
115
117
119
119
117
113
110
110
110
108
106
100
91
74
66
71
76
84
91
91
95
96
96
98
104
104
108
106
108
108
104
104
104
106
106
104
106
106
106
104
106
108
106
102
104
102
104
106
110
108
108
110
113
112
110
110
106
106
110
112
112
113
113
113
113
115
117
113
115
117
113
113
115
112
110
102
93
79
72
74
76
84
91
95
96
96
95
93
100
104
108
108
108
108
106
104
102
106
106
104
106
106
106
104
104
108
106
104
106
106
108
108
110
108
108
112
112
108
108
112
106
106
108
106
108
110
110
112
113
113
115
115
119
119
117
117
117
113
110
108
98
86
76
76
76
79
87
95
98
95
91
89
95
98
102
108
108
106
106
104
102
106
106
106
106
106
106
106
106
108
108
106
108
108
110
108
108
112
108
110
112
110
108
115
112
110
110
106
104
106
110
115
115
113
113
115
117
121
119
119
119
115
112
110
106
95
82
77
77
77
81
89
93
93
93
91
91
93
98
102
106
106
106
102
100
104
106
106
104
102
104
104
106
106
108
108
110
108
108
106
112
112
108
108
110
112
110
117
112
112
110
110
104
106
112
115
115
113
113
112
113
117
117
119
119
117
115
113
108
102
93
82
77
77
76
84
89
93
93
93
91
89
91
98
104
104
106
104
100
102
104
104
102
100
102
104
108
108
108
108
110
110
110
110
112
112
110
110
108
112
108
119
113
110
110
108
108
108
112
113
115
117
115
112
112
117
115
119
117
117
113
113
113
108
102
93
82
77
76
79
86
93
96
95
91
89
89
93
98
100
102
102
102
104
106
102
102
100
102
106
108
112
112
110
110
108
112
112
112
112
110
108
112
112
106
119
115
112
110
108
108
110
113
115
113
115
112
110
112
115
119
119
117
119
115
115
113
112
106
96
86
79
76
76
82
89
95
96
95
91
93
93
96
98
102
102
104
106
106
106
104
102
102
102
104
106
108
110
108
108
110
113
110
110
108
108
112
110
108
119
117
112
110
110
112
110
115
113
113
115
110
112
112
110
115
119
119
117
115
113
112
112
108
100
91
81
79
79
82
87
95
98
98
96
95
95
96
100
100
98
104
110
108
108
104
104
104
102
102
102
106
108
108
110
112
113
110
106
102
104
106
106
104
123
117
112
108
110
110
108
113
113
112
113
110
112
112
113
115
119
119
119
119
113
113
112
110
106
95
84
84
82
84
87
95
100
102
100
102
100
98
98
102
102
106
112
110
110
110
106
108
104
104
104
108
108
106
110
112
112
110
106
102
102
104
102
100
127
121
115
112
110
110
110
113
112
113
112
113
113
115
115
117
117
117
119
117
115
115
113
112
110
100
89
89
84
84
86
93
96
98
100
102
104
98
96
100
104
106
112
112
112
110
106
108
106
104
104
106
106
104
108
110
110
108
106
104
104
106
100
100
127
125
119
115
112
106
110
112
112
113
113
113
115
115
115
115
117
115
117
119
117
115
113
113
112
104
93
87
82
81
86
89
96
98
96
100
102
102
100
104
106
108
110
112
110
110
106
102
104
102
100
104
106
106
108
106
108
106
106
102
100
100
96
93
125
127
123
119
112
110
108
108
112
112
112
115
115
115
115
115
119
117
117
117
119
115
115
115
112
106
98
89
84
84
86
89
95
98
98
96
100
102
102
106
106
108
110
110
110
108
102
100
100
100
100
102
102
102
104
102
102
100
102
102
98
98
95
91
127
127
127
123
117
112
110
108
113
113
112
113
113
115
117
115
119
119
117
119
119
119
117
117
112
108
102
95
86
82
82
87
93
98
100
95
96
100
102
104
104
104
108
108
108
106
102
104
104
100
98
96
95
95
93
95
100
98
100
104
102
100
96
96
129
129
125
125
121
115
113
112
112
113
110
112
115
117
117
119
119
119
115
117
117
117
117
115
112
110
106
96
86
82
84
84
89
96
102
98
95
98
102
102
100
102
102
106
104
104
102
106
102
98
91
86
84
84
87
89
93
96
96
100
100
100
100
100
127
127
125
123
121
119
115
113
112
113
112
113
115
119
117
119
119
117
119
119
121
119
119
115
112
112
106
100
93
82
79
79
84
91
98
100
98
104
104
102
100
100
104
106
104
102
104
102
95
87
82
82
79
81
81
82
86
89
89
95
96
100
102
102
127
131
127
125
123
123
119
115
112
115
112
113
115
119
119
117
121
119
119
119
119
119
119
113
112
110
106
104
98
86
79
81
84
86
95
100
102
104
106
104
102
102
102
106
106
104
102
95
86
79
76
76
76
81
82
82
82
84
82
89
96
102
102
104
125
127
127
125
123
123
121
113
113
113
110
112
112
115
119
119
119
121
119
117
115
119
119
115
112
110
108
106
102
95
82
82
82
86
87
96
102
104
104
104
104
102
98
102
106
104
98
87
81
79
77
76
79
84
89
87
86
82
82
89
96
104
104
104
127
125
125
127
127
123
121
115
113
112
110
110
108
113
119
119
119
121
119
117
119
117
117
117
117
112
108
110
106
100
91
84
81
81
82
91
100
104
104
106
106
104
98
98
102
100
91
82
77
79
81
82
89
93
93
93
89
86
84
87
95
100
106
108
127
125
125
125
129
127
123
117
112
113
113
110
110
112
117
117
121
121
119
119
121
119
117
117
113
110
106
108
106
104
98
89
82
79
81
82
91
98
104
106
106
102
96
95
98
95
84
77
72
79
84
91
98
98
95
91
93
91
84
84
93
100
106
106
131
129
129
125
125
127
123
117
112
112
112
112
112
113
115
117
121
123
123
119
123
123
121
115
112
110
106
110
106
104
102
93
84
81
79
79
81
91
96
100
102
100
96
96
93
84
77
72
72
81
89
98
100
98
96
96
98
96
89
87
91
100
106
108
127
129
125
123
123
125
123
117
113
112
110
110
113
112
115
117
121
123
121
119
121
121
119
117
115
112
108
110
106
106
106
98
87
81
77
77
74
81
89
95
96
98
95
89
84
81
74
72
77
87
96
102
98
100
102
100
98
96
91
89
91
98
104
108
125
127
125
123
123
125
123
119
115
113
112
112
112
113
113
117
121
121
121
121
121
121
119
117
115
115
112
110
110
112
108
106
96
82
76
77
74
74
79
84
89
87
86
82
79
77
77
81
87
96
102
102
100
104
104
102
102
96
93
89
93
93
100
106
125
125
125
125
123
123
121
119
115
113
112
112
110
115
117
117
123
121
119
123
123
123
123
121
117
115
113
112
112
110
113
110
104
91
81
76
76
77
77
76
77
79
79
76
77
77
82
91
98
102
104
104
102
102
102
104
102
100
96
96
95
93
95
100
125
127
127
127
127
123
119
117
117
113
112
110
110
112
113
117
121
121
119
121
123
121
123
121
119
115
112
112
113
112
113
113
108
98
89
81
79
79
77
76
76
76
76
76
81
86
91
102
106
108
106
108
104
100
100
102
102
100
98
98
96
91
89
93
121
123
125
125
127
125
121
119
121
117
112
110
108
113
112
115
119
117
121
121
121
121
123
121
117
117
115
115
117
117
115
115
112
106
100
93
86
82
81
77
77
77
79
84
89
95
102
108
110
110
110
108
106
104
102
102
104
100
100
98
98
93
89
91
117
119
123
125
127
125
125
123
123
121
117
113
110
113
112
113
115
115
117
117
119
121
123
123
121
119
119
119
119
119
117
117
115
112
104
100
96
95
87
84
84
86
87
95
96
100
108
113
113
113
110
106
108
106
104
104
104
100
102
98
95
95
91
93
117
117
121
123
125
127
127
127
123
121
119
115
115
112
112
113
112
112
113
113
117
119
123
121
117
119
119
117
117
117
117
119
113
112
110
106
104
104
100
98
96
96
100
102
104
108
112
113
115
115
112
110
108
108
108
108
102
100
102
98
96
95
91
87
117
119
121
125
127
127
125
125
123
123
121
119
117
115
113
112
110
113
113
115
117
121
125
123
121
119
119
119
117
115
115
115
113
112
112
110
108
110
110
108
108
108
108
108
110
113
113
113
112
113
113
112
112
106
104
106
104
104
104
100
96
93
89
86
119
117
123
127
125
127
125
123
125
125
123
121
117
115
112
110
110
112
108
113
119
123
125
123
121
121
121
121
121
119
115
117
113
112
108
110
108
110
110
110
106
106
108
110
110
112
112
112
112
112
112
112
112
106
104
106
104
106
106
102
100
93
89
87
