P2
# 116 of 608 Angiograms
64 64
255
123
123
125
123
119
121
121
121
119
117
119
123
125
123
121
123
125
121
121
121
115
112
112
108
102
96
95
91
87
87
87
87
87
86
82
81
84
86
84
84
87
82
76
71
69
66
65
60
56
56
56
54
55
56
58
59
62
66
71
72
77
84
86
86
123
123
125
123
121
121
125
123
119
117
115
121
121
119
119
119
119
121
121
115
112
112
110
112
108
102
100
96
93
89
86
82
82
82
82
84
86
86
84
81
81
77
71
65
62
60
59
58
55
56
58
56
56
56
58
63
66
71
74
77
82
84
87
86
123
123
123
123
121
119
123
123
119
115
115
119
121
117
117
115
117
119
115
112
112
113
110
110
110
108
104
100
96
93
89
84
82
81
79
82
84
82
81
77
77
76
69
60
58
55
56
56
58
58
58
56
55
56
58
60
65
69
76
79
84
89
86
82
125
125
123
123
121
123
123
121
119
119
121
123
121
121
121
117
115
117
113
110
110
113
112
113
112
112
106
102
100
98
93
91
87
84
84
86
87
81
77
77
79
74
66
59
58
54
56
55
54
54
54
55
56
60
60
60
66
71
76
82
86
87
86
82
125
127
123
123
121
125
125
123
119
117
119
119
119
121
119
117
113
115
113
110
112
112
112
115
113
112
108
106
104
98
93
93
93
89
87
87
87
81
77
76
76
71
65
58
54
56
56
52
52
54
54
56
59
62
62
66
71
71
74
77
82
84
82
81
125
125
123
123
123
123
123
121
117
115
117
119
123
121
115
113
112
117
117
113
113
113
113
115
117
112
110
108
104
100
95
95
93
93
93
91
89
84
81
77
74
69
60
55
52
52
51
47
46
50
51
56
60
62
66
71
74
79
79
77
77
82
82
81
123
125
123
121
119
121
123
121
117
115
115
119
119
119
117
115
115
115
115
115
115
117
119
119
115
113
112
108
104
104
96
96
96
96
96
96
91
89
86
77
72
69
60
55
54
54
51
47
47
50
54
58
63
66
71
76
77
79
79
77
79
82
82
82
119
125
123
121
121
123
125
121
117
112
113
115
117
117
117
115
115
115
115
113
115
119
119
117
115
112
110
108
106
104
98
95
98
100
96
98
96
93
86
74
68
66
63
58
56
54
52
50
52
55
59
60
63
71
76
82
82
79
81
79
77
81
84
84
119
123
123
127
123
125
125
123
121
117
117
117
119
117
115
110
112
115
113
112
113
119
117
115
112
110
110
106
104
102
100
100
98
100
102
98
95
91
81
68
65
66
62
56
56
52
54
50
54
56
58
62
69
77
84
86
84
81
82
84
81
84
89
91
117
119
121
127
125
125
125
123
125
125
121
121
117
115
115
113
113
113
113
112
110
112
113
110
108
106
108
106
102
102
102
100
100
102
104
98
93
81
72
66
65
63
56
54
55
55
55
52
54
55
59
66
76
84
86
89
87
82
84
84
84
82
87
89
112
113
117
123
123
123
123
123
123
127
123
123
119
117
115
113
113
113
112
113
112
108
110
108
108
104
104
104
100
100
102
102
102
102
100
95
84
72
68
66
65
63
58
56
56
58
59
56
55
56
65
72
82
87
93
93
89
84
84
84
84
84
89
89
110
113
115
121
123
125
127
125
127
129
127
127
121
121
117
115
113
112
113
112
112
108
110
110
106
100
98
102
102
104
104
100
100
100
95
82
71
68
68
66
63
62
62
62
59
58
60
59
59
62
71
77
84
87
91
93
91
89
86
84
82
86
91
89
112
112
113
117
121
123
127
129
129
131
129
125
123
121
117
115
115
113
113
112
112
110
110
110
104
98
96
104
104
106
106
102
98
95
84
69
65
66
63
63
62
62
65
62
60
62
62
62
65
69
76
79
87
87
86
89
91
91
89
84
82
84
89
87
112
113
112
113
117
119
125
129
129
131
127
125
123
119
117
115
117
117
117
113
113
112
110
108
102
98
102
106
108
106
104
100
95
82
74
65
60
63
60
59
60
62
62
62
65
66
65
68
71
77
79
82
86
84
82
84
86
93
87
82
81
81
86
87
110
112
110
108
112
117
119
123
129
129
125
125
123
119
117
115
117
115
115
115
113
112
112
104
102
104
104
108
110
106
100
96
87
76
66
65
62
62
62
62
59
59
62
65
68
69
71
74
79
82
84
86
86
84
84
86
89
91
86
84
82
82
84
87
106
106
108
106
112
115
119
121
125
123
123
125
125
121
121
115
113
113
112
113
113
112
110
104
102
104
106
108
106
104
98
91
81
66
63
62
60
59
59
59
56
60
62
65
69
72
74
79
82
86
86
86
86
87
87
87
89
89
89
87
84
84
84
91
108
108
110
108
112
113
119
119
121
123
127
127
127
125
121
119
115
115
112
113
110
106
104
104
100
104
106
106
104
102
95
86
71
62
58
56
58
59
56
58
58
60
60
66
69
72
77
81
86
91
86
84
84
86
89
93
93
91
89
91
87
86
87
93
108
110
110
108
112
112
113
117
119
125
125
125
127
123
121
119
117
115
112
108
104
102
100
102
98
102
104
104
100
95
91
79
68
62
56
52
54
58
56
59
59
59
59
60
66
71
76
81
87
91
87
86
86
86
87
95
98
98
95
91
91
89
93
95
106
108
110
110
110
108
110
115
121
123
127
125
125
123
121
119
115
113
108
104
102
98
98
98
102
100
100
104
96
91
84
72
68
60
56
55
55
58
54
54
56
59
59
59
63
69
74
81
87
89
89
86
86
87
87
95
100
100
96
93
93
93
93
91
106
110
110
108
110
110
110
115
119
125
127
127
125
123
123
121
115
112
106
102
100
96
95
95
100
102
104
104
95
89
79
71
68
60
56
58
59
59
56
58
56
59
60
60
66
71
72
77
82
84
86
84
82
82
86
93
100
100
95
93
91
87
93
95
112
112
110
110
112
113
115
115
117
123
125
127
123
121
125
119
115
110
102
98
95
93
93
93
100
104
106
102
93
86
77
71
68
63
59
60
60
59
63
62
59
58
58
62
68
72
71
74
81
82
81
82
81
79
82
89
96
102
96
95
91
89
91
93
112
112
110
108
110
113
113
117
119
121
123
123
121
123
123
117
113
106
98
96
93
95
91
93
102
106
106
100
93
82
74
68
66
63
62
58
60
65
68
65
63
65
63
62
68
71
74
72
76
81
81
82
79
79
79
87
91
96
98
93
87
89
89
87
112
110
108
110
112
113
113
115
117
119
123
123
125
129
123
115
110
102
98
96
95
95
91
95
104
108
104
102
93
81
72
66
65
65
65
63
62
63
65
65
66
69
66
66
69
74
72
77
79
84
84
84
81
77
76
82
91
95
96
91
82
82
84
86
108
106
108
112
113
112
112
115
117
119
123
123
123
125
121
115
108
100
96
95
95
93
89
93
102
106
106
102
93
79
71
66
65
66
69
66
65
65
63
68
71
69
68
68
69
69
79
82
86
86
89
82
79
79
79
81
87
91
89
86
81
77
82
86
108
108
108
113
112
110
110
115
119
121
123
125
127
127
123
115
108
102
98
96
98
95
93
95
102
104
106
104
95
79
69
66
63
68
69
69
66
66
63
68
71
71
69
71
71
77
82
86
87
91
91
86
84
84
82
79
84
89
89
84
79
81
82
87
104
112
112
112
113
113
113
113
115
119
123
125
129
127
121
117
110
104
102
98
96
98
98
98
100
104
108
106
98
81
71
68
65
66
66
68
69
69
69
71
72
72
72
72
77
82
86
91
95
93
93
91
86
84
84
76
79
86
89
86
79
79
82
86
108
110
112
113
115
113
115
113
112
115
119
123
127
127
121
117
112
104
100
98
100
98
100
98
100
104
108
106
104
91
77
71
68
68
65
68
69
71
71
72
72
74
77
81
82
87
89
95
96
96
95
95
93
89
86
76
79
84
84
84
81
79
82
86
113
113
112
115
117
115
115
113
112
113
119
123
125
123
119
115
112
104
100
102
102
100
100
100
98
104
108
108
108
100
87
77
69
68
63
65
68
72
76
76
79
82
84
86
89
91
93
96
98
100
96
98
96
95
87
79
81
89
87
84
81
81
82
87
115
115
113
112
112
110
113
115
115
115
119
121
119
119
117
113
110
106
102
104
106
104
104
102
100
106
110
108
108
104
96
87
76
69
66
65
68
72
77
82
87
91
89
89
89
89
91
93
96
100
102
100
96
96
89
79
81
91
89
84
82
82
84
89
112
115
115
110
110
112
112
115
117
117
119
119
115
115
115
112
112
106
100
104
106
106
108
102
100
106
110
112
110
104
100
93
84
74
69
69
71
74
81
86
91
95
93
95
95
95
95
95
98
104
106
102
96
93
89
79
81
86
87
84
86
82
86
86
112
113
113
110
112
112
113
117
117
115
115
115
113
112
112
112
110
104
102
102
104
106
106
106
104
108
112
112
108
102
100
95
86
77
71
69
69
76
84
91
95
96
95
95
95
95
98
96
98
102
100
102
98
95
87
79
79
82
84
89
89
84
84
84
110
110
112
110
112
113
115
117
119
117
115
115
112
108
106
108
104
98
100
102
104
106
106
108
108
112
115
113
110
102
98
91
82
76
72
69
72
77
86
93
96
96
98
98
100
98
98
96
100
98
100
102
98
95
86
81
79
82
82
87
86
82
82
82
106
106
108
110
112
113
113
113
117
117
117
115
112
106
106
102
96
96
96
100
106
108
108
108
112
112
110
108
110
106
96
84
77
72
74
71
74
81
87
93
96
96
100
100
100
104
100
98
100
98
104
102
98
93
87
86
86
84
86
84
84
81
81
84
106
106
108
110
112
113
113
117
119
119
115
113
110
108
104
98
95
93
95
102
106
110
108
112
112
112
108
108
108
102
91
79
71
68
72
71
72
79
86
95
96
100
100
100
98
100
102
100
102
98
100
98
96
93
91
91
86
82
82
81
81
81
84
87
110
110
110
113
115
115
112
115
117
117
115
110
104
104
100
95
89
91
95
100
102
106
108
113
110
110
110
106
102
95
84
72
66
65
68
71
72
76
84
91
95
98
98
98
100
100
100
100
100
96
95
91
91
89
91
95
91
84
82
82
82
84
87
91
110
112
112
113
117
117
115
113
117
115
110
106
104
102
96
93
87
89
95
100
102
108
110
112
113
110
108
102
98
89
77
66
62
58
60
66
71
76
84
89
95
100
100
100
98
98
100
98
98
93
93
87
89
93
93
95
91
89
84
84
82
84
89
93
112
112
113
115
117
117
117
115
115
113
108
106
104
100
95
93
91
91
95
100
102
106
110
110
110
108
106
102
96
86
72
63
56
52
54
59
68
76
82
93
96
96
98
100
100
100
102
102
96
89
89
89
91
91
89
87
87
89
86
86
82
82
86
87
113
115
115
115
117
115
117
117
115
110
106
104
102
98
93
89
91
93
96
100
96
104
106
112
110
106
104
100
91
79
69
62
52
50
52
56
62
72
82
93
96
96
93
95
96
98
98
98
96
93
91
95
93
93
91
86
84
82
87
87
84
81
82
84
113
115
117
117
115
115
121
121
113
108
108
102
98
93
91
91
91
93
98
100
98
102
100
106
108
104
100
93
82
74
68
60
54
52
52
55
60
68
79
91
96
98
96
93
93
98
96
98
100
100
95
93
89
91
91
86
84
82
87
87
84
84
86
87
117
115
117
117
121
121
123
121
115
110
104
100
95
93
93
95
89
91
95
98
98
100
98
100
104
100
95
84
76
69
65
60
54
55
55
58
62
69
76
86
98
100
98
93
93
96
98
102
104
98
96
96
96
96
95
89
86
84
86
86
86
87
91
87
119
119
117
119
121
123
123
119
115
110
104
98
91
89
93
95
89
91
93
96
96
96
96
100
100
95
87
79
71
66
62
59
55
55
55
60
69
71
74
81
95
96
95
91
93
95
100
100
100
96
98
96
96
96
96
91
87
86
84
82
84
84
87
86
121
123
121
119
119
121
121
119
113
110
100
95
89
87
93
93
87
89
93
93
91
93
95
96
95
89
77
71
65
65
62
59
56
52
56
65
68
72
74
77
86
93
93
86
87
95
100
102
100
96
93
95
96
98
95
91
86
86
87
86
79
81
87
84
123
123
119
119
119
117
117
115
112
106
95
91
91
95
98
98
89
89
91
89
87
87
91
91
86
79
69
65
62
60
59
58
54
52
59
66
69
77
77
77
81
86
87
86
87
91
96
98
96
95
91
91
93
93
93
93
89
86
89
87
81
77
84
84
121
121
119
117
117
117
115
113
108
100
91
91
93
96
95
93
89
89
91
91
87
91
91
84
81
71
65
62
60
58
56
59
56
55
62
68
76
81
81
84
86
81
82
86
84
86
89
93
91
93
89
86
86
84
86
87
87
84
86
84
77
76
82
86
113
113
113
115
117
115
113
110
104
96
89
93
96
96
91
93
91
91
91
91
89
89
87
82
76
66
62
59
62
59
56
56
56
60
65
72
81
82
82
86
87
82
81
86
84
82
81
86
89
89
87
84
86
84
86
84
82
82
79
77
77
79
82
89
113
115
115
115
115
115
113
106
100
95
91
95
96
100
93
93
93
93
93
93
93
91
87
79
72
65
60
60
59
59
60
60
59
60
65
71
82
86
86
91
87
86
86
86
82
82
81
84
86
82
86
86
89
87
84
81
79
76
81
81
82
82
87
91
113
115
115
115
117
117
113
102
98
95
93
93
96
100
98
93
93
91
95
95
93
96
93
79
69
62
58
59
59
60
60
60
59
60
62
69
82
87
86
89
87
89
93
93
89
89
89
87
86
84
87
89
91
91
89
86
82
77
81
84
87
86
87
93
117
117
115
115
115
113
110
98
96
95
91
91
98
98
100
96
93
89
91
93
93
95
93
81
68
60
58
60
60
59
62
65
63
65
62
66
79
84
84
87
89
95
95
96
95
95
95
91
86
86
91
91
89
89
91
89
86
82
81
87
87
86
89
96
117
115
115
113
112
108
100
96
96
93
91
93
96
96
96
98
95
89
91
95
93
93
91
79
65
60
60
59
59
60
65
68
66
66
62
65
77
79
79
84
89
93
93
96
98
96
95
91
86
86
89
91
87
91
93
87
86
82
82
86
84
86
91
93
112
112
113
112
108
100
96
96
96
95
93
95
93
95
98
95
93
91
93
95
93
93
87
77
65
59
60
58
59
60
62
65
69
69
63
65
74
76
77
82
86
91
96
100
100
98
95
93
89
87
89
86
89
87
87
84
86
82
81
81
82
86
89
91
113
112
110
108
102
98
100
100
98
96
93
93
95
95
96
95
93
91
95
93
91
91
84
72
63
60
59
59
59
59
60
63
71
69
65
66
71
71
72
79
82
89
96
100
100
102
98
96
95
91
89
91
91
87
86
87
87
82
79
81
84
87
91
89
113
108
106
102
96
98
100
100
98
98
95
95
96
96
96
95
91
93
95
91
93
91
79
68
62
60
60
58
58
56
59
65
69
68
69
71
72
69
71
76
82
87
96
100
98
102
98
96
95
91
91
89
87
86
89
93
89
86
84
84
86
89
93
89
112
106
100
100
98
98
102
102
102
98
96
96
100
100
100
98
95
93
95
91
93
89
72
63
63
59
59
59
59
60
62
65
69
71
74
74
74
72
74
76
81
86
91
95
98
102
98
96
96
93
89
87
86
86
87
89
86
84
84
84
86
87
91
89
110
104
100
104
102
102
106
106
102
102
102
98
102
104
100
96
95
95
93
95
95
86
69
63
63
58
59
59
59
60
65
65
69
76
79
81
82
81
77
76
77
82
87
93
96
100
96
96
98
98
89
87
86
86
87
87
86
81
81
79
86
89
91
95
108
104
104
106
104
104
110
112
106
106
106
104
102
100
100
96
96
95
98
100
96
84
69
63
60
58
58
59
60
65
68
68
71
79
82
87
89
86
84
82
79
77
82
89
96
96
96
95
95
96
91
91
87
86
84
89
87
82
79
82
87
91
91
93
106
106
104
106
108
110
112
112
112
110
108
108
102
100
98
100
100
98
100
104
100
84
69
63
62
59
59
62
62
66
66
68
69
77
86
93
95
93
91
87
84
79
79
82
89
96
98
95
91
93
91
86
84
87
86
87
84
81
82
87
91
95
95
96
104
104
106
110
112
112
113
112
110
108
108
106
104
100
96
98
102
100
102
102
98
84
71
65
62
62
63
65
63
65
65
68
71
79
91
98
93
96
96
93
87
82
81
77
84
95
98
91
89
89
89
86
86
87
84
82
81
81
86
91
91
91
95
95
102
106
110
113
115
112
112
112
108
104
106
104
104
102
100
100
100
102
102
100
95
81
71
63
62
65
65
65
63
62
63
69
74
81
93
102
98
98
98
98
93
87
81
81
81
86
96
95
93
91
87
84
86
89
89
86
82
81
87
91
89
89
91
93
102
108
113
112
113
112
110
108
108
104
104
106
106
106
102
102
104
104
102
98
89
79
69
65
65
65
63
60
60
60
62
66
76
84
95
102
100
102
102
100
98
95
87
84
81
79
89
95
91
91
87
84
84
86
86
86
87
86
87
87
89
89
87
87
104
112
113
112
112
112
110
108
108
104
104
104
104
108
102
100
98
102
104
96
87
76
68
62
63
65
63
60
62
63
66
68
76
89
102
104
98
100
100
96
98
100
95
87
82
81
84
91
96
96
93
87
87
84
82
84
84
82
84
84
87
89
87
91
106
112
112
112
112
112
110
110
108
104
104
102
100
100
100
98
100
100
100
96
86
74
66
62
60
63
62
62
66
68
66
71
81
93
110
108
100
100
104
102
102
102
102
91
86
82
82
89
96
98
96
95
95
89
86
87
86
84
84
87
91
87
91
89
108
112
113
110
110
108
110
108
102
100
102
100
98
100
98
96
96
98
98
93
82
72
68
62
59
63
63
63
63
66
68
72
86
96
106
106
102
102
100
102
104
102
104
95
87
82
81
87
96
100
102
102
100
95
91
89
89
87
87
91
91
89
89
89
108
112
113
110
112
110
108
106
106
104
102
98
98
98
98
95
96
96
93
87
79
71
66
63
60
63
65
65
63
66
69
76
89
96
102
102
100
100
102
104
102
104
102
100
91
84
82
86
95
102
100
98
96
95
91
91
91
89
91
93
95
93
93
89
112
115
113
110
112
108
104
106
108
110
102
100
98
98
96
93
93
93
89
82
77
69
66
65
62
63
66
66
63
66
72
79
89
96
102
104
98
96
100
108
108
106
106
102
95
89
86
89
93
102
100
96
96
96
96
93
91
91
93
93
96
96
95
86
