P2
# 122 of 608 Angiograms
64 64
255
142
137
135
137
137
139
144
144
146
144
139
139
141
142
142
142
142
144
150
152
154
156
156
156
154
156
154
156
156
154
154
152
144
139
139
144
144
146
146
148
148
148
148
150
148
146
144
142
142
142
141
142
146
152
154
150
144
137
129
121
121
125
129
127
142
139
139
139
141
144
148
150
146
142
139
141
142
144
144
144
144
146
148
152
154
154
156
156
156
156
154
152
154
154
152
152
146
142
142
144
148
150
152
152
152
154
154
150
146
142
139
139
139
137
131
131
139
146
148
146
141
133
125
121
125
127
129
129
144
141
141
142
144
150
152
150
148
144
142
142
141
142
141
144
146
148
148
150
152
154
156
154
152
154
154
154
154
156
154
152
150
150
148
148
152
152
154
154
156
156
154
148
144
137
137
137
133
131
127
127
137
142
142
139
135
127
123
125
125
123
125
129
144
142
144
142
148
152
152
150
148
144
141
137
135
133
133
135
141
144
146
150
150
152
154
152
148
150
154
154
154
154
150
152
154
154
152
154
156
156
154
154
154
154
150
142
137
127
125
123
123
125
125
129
135
137
133
125
123
119
119
121
121
121
125
127
144
142
142
144
150
154
154
150
144
137
131
125
121
121
121
127
131
137
144
148
152
154
154
150
148
150
152
150
148
148
150
152
156
158
156
156
158
159
156
154
154
150
146
135
123
117
112
110
108
108
112
119
123
123
119
115
113
110
113
117
119
123
127
125
144
142
142
144
148
152
152
146
135
123
113
110
112
115
121
125
129
133
141
146
150
154
152
150
150
150
148
137
127
129
142
150
154
156
156
156
158
159
156
154
150
148
139
127
119
115
113
108
104
98
98
106
110
110
112
108
106
106
113
117
121
127
129
127
146
141
141
144
146
148
148
141
123
112
110
112
115
123
133
137
139
137
139
142
146
150
152
150
148
146
141
123
106
108
125
142
150
152
154
156
159
158
154
152
148
141
129
123
121
125
121
113
108
102
98
98
100
106
108
106
104
108
113
119
121
125
129
125
146
142
141
142
144
146
146
133
115
106
112
123
133
141
146
148
148
146
144
141
137
141
142
142
139
139
137
121
104
98
113
131
144
152
154
154
154
154
150
150
144
133
125
123
131
131
131
127
121
113
104
98
98
102
108
106
106
106
110
113
115
121
123
119
148
144
142
142
144
146
146
129
115
115
127
139
144
148
152
154
156
156
154
146
139
135
135
135
137
139
141
135
119
112
113
123
139
150
152
152
152
148
148
144
135
125
123
127
133
137
135
135
135
127
115
104
100
100
102
100
98
98
100
104
104
106
106
106
150
146
144
144
146
150
148
129
119
123
135
146
150
150
152
158
161
163
163
158
148
141
139
139
141
144
148
146
139
125
115
117
131
144
150
148
146
144
142
133
129
119
119
127
135
137
137
135
135
129
117
108
98
93
91
89
91
91
91
91
89
87
87
87
152
148
144
144
148
152
148
131
121
125
141
150
152
152
152
159
165
168
167
163
158
148
146
146
148
150
152
150
146
137
125
117
125
139
146
142
144
142
137
133
127
117
113
121
129
129
127
125
123
117
106
96
86
77
76
77
79
79
77
77
76
74
74
76
150
148
146
148
150
150
150
135
123
125
141
150
154
152
152
158
165
168
168
167
163
156
150
148
150
152
150
148
148
144
133
123
121
129
141
144
146
144
141
135
125
112
110
108
110
110
108
104
98
93
86
79
71
66
65
68
71
72
72
69
71
69
72
71
148
148
148
152
152
154
150
139
125
125
135
148
152
152
152
156
163
167
170
170
167
161
152
150
150
154
154
152
150
148
142
131
123
125
133
141
144
142
141
135
119
106
96
93
91
86
84
79
76
74
71
66
63
58
56
59
63
68
71
68
68
69
69
66
148
148
150
154
154
152
150
142
131
123
129
142
150
152
154
154
158
163
167
168
168
163
154
152
152
154
156
156
154
150
146
141
129
127
129
135
139
139
135
125
106
87
77
74
72
69
68
66
65
63
60
60
60
55
51
55
56
63
68
69
68
69
71
68
148
146
150
154
154
152
148
144
135
123
125
135
144
148
150
152
156
159
161
165
167
163
156
154
154
152
154
154
154
150
150
146
137
129
127
129
131
127
117
104
87
71
63
63
65
65
62
60
59
55
54
55
58
55
55
56
55
59
65
69
69
69
69
71
148
146
148
150
150
150
148
146
139
127
121
127
139
146
148
148
150
156
159
161
161
159
152
144
146
146
148
148
150
152
154
152
144
129
125
125
113
104
95
84
71
59
54
58
60
60
58
55
54
51
51
54
55
54
56
56
59
62
63
69
72
71
69
69
144
144
146
146
148
148
148
146
141
131
125
125
131
139
142
144
144
148
154
156
156
154
144
137
135
141
146
146
148
154
158
156
146
133
115
102
91
81
76
69
58
51
51
55
60
60
60
58
55
56
52
54
52
55
58
55
58
63
65
68
71
74
74
71
142
144
144
150
150
148
150
148
142
137
129
125
125
131
135
137
139
144
148
152
156
154
142
137
135
137
139
139
142
152
156
156
146
125
100
82
74
69
65
56
50
46
49
56
62
60
59
59
56
54
52
52
55
56
59
59
59
62
65
68
69
76
74
74
142
141
146
150
150
148
148
146
142
139
135
127
121
121
127
133
139
142
148
154
158
154
144
139
137
137
139
137
139
148
154
154
139
108
86
71
65
62
55
47
45
44
49
58
62
62
60
59
56
55
56
58
58
59
60
63
65
68
71
74
76
77
79
81
141
141
146
148
148
146
144
144
141
137
133
127
125
123
127
135
142
144
150
154
156
154
146
139
135
139
142
141
141
148
152
150
127
100
76
66
62
55
50
44
44
46
52
59
62
65
60
60
59
60
60
62
63
66
66
68
74
77
81
84
84
87
89
91
142
141
144
146
146
144
144
141
133
131
129
125
127
129
131
137
141
144
148
150
154
154
146
139
139
144
148
150
148
150
156
150
123
95
72
63
54
50
46
47
49
51
56
60
63
66
65
65
65
65
65
66
69
72
76
81
86
87
91
96
98
102
102
104
142
141
142
144
144
142
139
131
127
125
127
125
129
133
135
139
141
142
144
144
150
150
148
148
152
154
156
156
152
156
161
154
123
93
72
58
47
47
50
52
56
60
62
65
66
66
68
68
66
68
71
74
79
84
87
95
100
104
104
106
108
110
110
110
146
144
142
142
141
137
131
127
125
125
129
131
135
141
142
141
137
137
141
144
152
150
152
156
159
163
163
159
159
165
167
154
123
91
69
52
45
47
52
58
65
66
69
69
66
65
68
68
69
72
76
81
87
95
100
104
108
110
110
112
113
113
113
112
148
146
142
137
131
129
129
131
131
133
139
142
146
148
148
139
135
135
141
144
154
152
154
161
167
168
165
161
161
167
165
152
121
89
69
56
49
49
56
63
66
66
63
65
66
66
63
66
69
74
81
91
98
104
108
110
110
112
115
115
117
115
113
113
150
144
135
123
121
127
129
133
139
142
146
150
154
154
152
139
131
131
139
144
150
154
159
168
172
168
161
159
161
163
158
141
115
87
71
60
52
54
60
66
66
66
62
62
65
65
65
66
69
79
89
98
104
108
115
113
115
115
117
119
119
117
115
110
148
139
121
110
112
123
137
142
146
146
146
150
156
156
154
141
131
129
139
146
154
159
168
173
173
168
161
163
161
156
144
125
110
89
79
69
60
60
65
72
71
68
62
59
60
62
65
68
74
86
96
100
106
110
117
117
115
115
115
119
119
119
119
113
146
131
110
96
102
121
141
148
152
150
148
148
154
156
156
148
137
137
146
156
165
172
175
177
173
167
161
159
152
141
127
119
110
95
86
79
69
66
71
74
74
71
66
60
60
63
68
76
82
93
95
104
106
108
117
115
113
117
117
119
119
117
117
115
144
129
102
87
93
115
142
152
156
154
152
148
152
159
158
152
148
148
156
165
172
175
177
175
170
163
156
146
137
125
119
115
106
96
95
87
82
74
74
79
76
76
71
68
69
71
77
84
91
96
100
108
110
110
115
113
112
113
113
117
113
113
117
113
142
125
96
84
87
108
141
156
159
159
156
150
152
158
158
152
150
154
163
168
175
175
173
167
159
150
141
133
127
121
115
112
104
96
96
95
87
84
79
81
82
79
76
76
77
82
89
95
100
102
104
108
112
113
117
115
113
113
113
115
112
115
117
112
142
125
95
82
86
102
137
158
161
161
159
152
150
152
154
150
152
159
165
168
168
165
158
148
139
131
127
123
121
115
112
106
104
100
96
98
96
91
89
87
87
86
82
82
87
95
98
102
104
106
108
108
110
112
115
113
112
110
108
110
113
113
113
112
142
125
93
81
82
98
135
158
163
163
158
148
144
146
148
150
154
159
159
158
154
144
131
125
121
119
117
117
113
110
106
104
104
104
100
100
106
100
95
95
96
98
98
100
100
102
102
106
108
112
108
106
108
110
110
110
110
108
108
110
113
110
112
112
144
129
95
76
77
95
131
156
163
161
152
142
141
144
146
146
150
150
144
135
125
119
110
106
106
108
108
110
108
102
100
104
104
106
104
104
108
106
102
102
104
108
106
108
106
106
104
104
104
108
106
104
108
104
102
102
102
108
112
112
110
108
108
108
148
133
98
77
76
93
129
150
158
156
142
141
144
148
148
146
139
131
121
112
106
100
95
93
93
95
98
100
98
96
100
106
108
108
106
108
112
113
110
110
112
115
113
112
113
112
104
98
102
106
108
104
102
98
98
100
100
106
112
110
110
106
104
104
150
135
102
81
77
93
125
144
152
148
139
142
150
152
148
137
123
113
106
100
95
89
87
82
82
87
91
93
93
93
98
106
110
112
112
113
119
121
117
112
108
112
115
117
113
115
110
104
102
106
108
102
100
96
98
98
100
102
108
108
108
104
102
104
148
135
104
86
81
91
119
141
146
141
139
148
154
152
139
121
112
106
96
91
87
87
84
82
81
82
86
89
87
91
98
106
113
115
119
123
125
123
121
113
106
106
113
119
117
115
112
110
108
108
106
104
102
100
104
102
102
100
100
106
106
104
104
100
146
133
104
87
87
95
115
139
142
142
144
154
152
137
119
110
102
98
91
86
84
84
84
81
79
79
84
89
91
95
104
113
119
125
129
129
127
125
123
117
106
100
108
117
121
117
117
115
113
110
104
102
102
102
104
102
104
100
98
104
102
102
104
104
146
129
102
93
93
96
115
139
144
146
148
146
135
121
110
102
95
89
86
82
81
81
82
81
77
82
87
93
98
104
112
121
129
135
135
133
129
127
125
121
110
100
106
112
119
119
123
121
117
113
110
104
104
104
104
102
100
100
106
106
102
100
102
102
146
127
104
95
95
96
117
141
146
144
139
129
119
110
100
95
89
84
82
81
81
76
79
79
81
89
95
100
110
117
123
133
137
142
139
135
131
127
127
125
115
102
102
108
113
119
121
119
117
117
115
112
108
106
102
100
100
102
106
106
102
96
96
98
146
125
106
96
96
100
125
142
144
133
125
117
108
100
93
87
84
82
79
77
77
76
81
84
86
95
104
113
123
129
133
139
142
144
141
135
133
129
127
127
119
106
104
106
110
117
119
119
121
119
115
115
112
108
104
102
100
102
104
102
102
98
96
100
146
127
104
96
96
108
135
146
139
123
115
106
100
93
86
84
82
79
79
77
76
79
84
86
93
106
117
127
133
137
139
141
142
144
141
137
133
133
133
129
121
112
108
106
106
113
117
123
123
123
119
119
117
112
108
106
102
102
102
100
100
98
95
96
144
129
108
100
104
117
142
148
131
115
106
96
93
86
82
82
79
77
77
77
79
82
86
91
104
121
133
141
141
141
142
141
142
142
141
135
133
131
131
129
123
115
110
106
104
110
115
117
121
125
123
119
117
115
113
110
110
106
102
100
98
95
95
95
144
131
112
106
112
121
142
141
123
108
96
89
87
82
79
77
77
74
76
79
81
84
91
102
119
137
146
146
148
146
142
142
142
144
141
137
131
133
131
129
125
121
112
108
104
108
113
117
119
119
123
121
119
121
119
119
119
115
108
104
102
98
96
95
142
133
115
113
117
123
135
133
113
96
89
86
81
77
76
74
76
76
77
81
82
91
100
115
137
150
154
152
148
150
144
142
141
142
141
137
135
135
131
127
129
123
117
113
110
108
113
115
117
121
123
123
123
123
123
125
127
123
113
108
104
102
98
95
141
133
123
115
117
119
125
117
98
86
81
79
79
76
76
79
79
77
77
81
87
98
112
133
150
158
156
154
150
150
146
142
142
141
142
139
135
137
131
125
127
123
119
119
119
113
112
110
112
119
119
123
123
121
123
125
129
125
117
113
110
104
100
95
139
135
131
123
117
121
117
98
84
76
72
74
76
77
82
82
81
77
79
84
91
104
125
146
158
161
159
156
152
150
146
142
141
142
144
142
139
135
129
125
123
119
117
119
125
121
115
110
108
110
115
119
121
121
119
121
123
121
113
113
113
110
106
100
135
135
137
133
123
121
104
86
72
69
66
71
74
76
84
82
81
82
86
89
98
119
141
158
161
163
159
158
154
150
146
144
144
148
150
146
141
133
129
127
123
119
117
117
121
125
117
112
108
106
110
113
117
117
117
117
117
115
112
113
115
115
110
106
135
139
142
142
129
115
86
69
66
65
66
69
72
74
77
81
86
87
89
95
113
135
154
159
161
161
158
156
154
152
150
150
150
152
152
144
133
129
127
127
125
121
117
115
117
121
117
113
108
104
108
110
112
113
113
115
112
110
112
115
113
115
113
110
142
146
150
146
129
102
74
62
59
59
62
63
68
71
76
82
86
89
96
112
133
154
159
159
161
158
156
154
156
156
156
154
156
154
148
137
131
129
125
127
125
123
117
112
113
115
115
113
110
108
108
104
106
110
112
113
112
112
113
113
115
115
115
115
148
148
152
144
119
89
69
58
56
58
62
63
65
69
76
82
87
96
113
131
152
161
161
159
158
156
152
154
156
159
158
158
156
150
141
131
129
131
129
125
123
125
119
112
112
115
117
113
113
113
110
104
104
104
108
112
112
113
113
112
113
113
115
117
150
150
150
135
106
82
68
58
56
59
65
69
69
72
77
84
93
108
131
154
163
163
159
156
156
156
154
158
158
156
158
156
152
141
133
125
125
127
129
129
127
123
119
113
113
115
115
117
115
115
113
110
104
102
104
106
110
112
113
110
112
113
115
115
154
152
141
115
89
74
65
59
56
60
65
68
72
74
79
87
102
127
150
163
163
159
158
154
152
152
156
159
159
158
156
152
142
133
125
121
123
127
125
121
121
121
119
115
115
113
112
115
117
117
117
115
113
108
104
106
108
112
113
110
112
112
117
119
156
144
121
95
79
69
65
60
60
60
65
71
77
81
86
96
117
144
158
161
159
158
156
154
152
154
156
156
156
154
150
142
133
125
121
125
125
121
119
119
119
121
119
117
115
115
115
113
113
115
115
115
117
113
108
106
104
108
110
110
110
112
117
117
148
127
102
81
71
65
63
60
60
63
69
74
81
87
96
110
129
144
156
158
156
156
154
152
152
152
150
150
150
144
137
129
119
119
121
121
121
119
119
117
119
117
115
113
115
119
117
115
112
112
115
113
115
115
113
106
100
104
110
110
110
110
113
113
127
104
82
71
66
63
62
62
63
66
71
76
84
95
110
125
135
139
146
150
150
150
148
146
146
146
144
142
139
133
123
115
112
115
115
117
119
119
117
113
113
112
112
110
113
117
117
117
112
110
112
115
117
115
117
112
104
102
108
110
110
110
113
117
104
84
72
66
66
65
63
65
68
68
71
77
87
100
121
131
137
137
139
141
142
141
139
137
137
135
135
133
125
121
115
110
108
112
113
112
115
117
115
112
113
112
110
110
113
115
115
115
110
106
110
113
113
113
113
115
110
108
108
106
108
108
108
112
84
72
68
63
65
66
65
68
69
69
74
81
93
110
123
131
135
131
129
129
129
131
127
125
125
125
125
123
119
117
117
113
112
110
108
110
113
112
108
110
112
112
110
110
108
110
113
115
112
108
108
112
112
113
112
113
112
112
108
102
104
106
106
112
69
69
65
63
63
65
68
68
69
71
77
86
102
113
113
119
123
121
119
119
119
121
119
119
119
123
125
121
119
119
119
115
115
113
112
113
113
110
104
108
110
113
112
112
108
110
113
115
115
110
106
108
108
110
113
115
113
113
112
106
102
102
104
110
66
66
66
66
65
66
68
68
71
76
82
96
112
117
110
108
110
110
112
113
113
117
115
117
119
123
123
125
125
123
119
119
117
117
115
115
115
110
106
106
106
110
110
108
106
110
113
113
115
113
108
106
106
112
112
113
112
110
112
110
106
102
102
110
65
65
65
66
68
71
72
72
76
82
95
112
119
119
110
102
98
104
108
110
110
115
117
117
117
119
119
123
127
125
121
119
117
117
117
117
113
110
108
108
106
106
108
108
106
106
110
110
115
115
110
106
110
110
113
115
112
110
108
106
106
100
98
102
66
66
65
68
72
74
76
79
86
95
112
123
125
125
117
108
98
98
102
104
108
115
119
117
117
115
115
115
121
121
119
121
117
115
115
115
113
113
113
113
110
108
108
108
106
108
110
110
113
113
110
104
104
106
113
115
117
112
108
106
104
102
98
102
69
69
71
76
77
79
82
89
102
115
125
133
135
135
131
119
108
100
100
100
106
119
119
117
115
113
115
113
117
115
117
117
115
117
115
115
112
115
115
113
110
106
104
106
104
110
110
110
110
110
108
102
98
100
110
115
119
112
108
104
104
106
104
104
69
74
76
81
82
84
91
104
121
133
141
142
142
141
141
135
121
108
102
98
104
121
125
121
117
115
112
113
115
112
115
117
117
115
113
113
115
117
117
113
110
106
100
104
108
108
108
106
104
106
108
104
104
104
108
113
115
112
108
104
106
104
106
104
72
77
79
82
86
89
102
125
139
144
148
150
150
148
148
142
135
117
106
100
106
121
125
123
117
117
119
119
113
110
115
117
121
119
117
113
117
119
117
113
110
106
102
104
110
108
108
106
102
108
108
106
110
110
110
112
113
112
108
104
102
104
110
108
71
74
79
86
89
102
123
141
148
148
152
152
150
150
150
150
144
129
113
102
104
117
125
123
119
121
119
117
113
110
113
117
121
121
115
112
113
117
113
112
112
108
106
104
106
108
106
104
100
106
110
108
113
117
115
113
112
112
108
100
98
102
106
104
