P2
# 123 of 608 Angiograms
64 64
255
100
100
102
104
108
110
113
112
112
110
108
104
93
86
87
89
93
98
102
102
95
84
71
60
54
51
50
49
46
50
52
52
54
56
63
81
98
106
108
110
112
113
117
119
119
123
125
129
131
133
135
137
141
142
141
141
141
135
135
135
131
131
125
127
106
102
104
108
108
112
110
108
113
110
110
106
96
86
86
86
87
93
96
96
91
79
65
59
58
52
51
47
46
47
50
50
52
56
66
86
102
110
113
112
110
115
117
119
117
121
123
123
125
129
131
135
139
139
139
139
139
131
133
133
129
129
125
125
106
104
106
110
110
110
108
108
113
113
113
108
98
89
86
84
84
86
87
87
84
77
63
59
58
55
50
46
49
49
49
50
51
58
71
91
106
113
115
112
113
115
117
117
117
117
117
117
121
123
127
131
135
133
133
133
135
131
131
131
129
127
125
121
106
106
108
110
108
110
112
112
112
112
112
108
102
93
86
82
81
81
81
81
79
72
62
56
56
54
49
46
44
47
49
50
51
59
72
91
112
117
117
115
113
113
117
119
117
119
119
117
115
119
125
127
127
131
131
131
129
127
127
125
125
125
123
121
104
104
106
108
106
106
108
108
112
112
108
104
98
96
91
82
79
79
79
77
76
68
59
58
55
52
47
43
40
42
45
46
51
60
74
93
112
119
121
119
117
115
119
119
117
119
119
115
115
115
121
123
127
129
129
129
131
129
129
125
127
125
123
119
102
102
104
106
106
108
108
106
112
110
108
102
98
100
100
93
84
77
77
79
74
63
59
59
59
52
47
43
41
41
43
45
52
62
74
91
110
115
117
119
117
117
119
119
117
115
119
119
117
113
119
123
127
129
125
125
127
131
127
127
127
127
125
123
104
102
104
106
104
104
106
104
108
108
108
104
102
104
108
98
91
84
79
77
69
60
55
55
56
52
47
45
44
46
46
46
52
62
74
93
106
112
117
119
119
119
119
121
119
117
121
121
119
115
117
123
127
127
123
121
123
127
127
127
129
129
127
125
108
104
104
102
98
100
102
102
106
104
104
106
104
106
104
100
98
89
84
74
65
58
52
52
52
52
51
47
47
46
46
46
50
59
69
89
100
108
113
121
125
123
121
123
123
123
125
125
123
119
119
123
125
125
121
119
121
125
125
125
129
133
131
129
110
104
106
104
98
98
98
102
106
104
100
104
100
102
100
100
98
91
84
74
62
56
52
51
50
51
51
50
47
47
46
45
50
58
69
86
95
102
108
117
123
125
123
127
129
127
125
123
121
119
117
121
123
121
117
117
119
121
123
125
131
133
133
131
113
110
110
108
104
102
98
100
102
102
102
106
102
96
95
96
93
89
86
74
62
56
52
50
47
46
47
46
44
45
44
46
52
59
72
86
93
95
104
112
119
119
125
127
131
131
125
125
123
119
117
119
119
119
115
119
119
119
121
127
133
131
131
133
117
112
110
104
102
102
98
95
96
102
108
108
104
98
98
93
91
89
86
77
65
56
54
51
47
44
43
42
46
46
46
49
55
62
79
87
89
93
98
106
113
119
125
127
129
133
131
127
125
121
115
113
115
115
115
115
115
117
121
127
133
131
127
129
117
112
110
106
102
100
95
91
93
102
106
108
106
102
100
98
98
93
87
81
69
59
54
51
47
45
44
45
45
44
47
49
55
63
82
86
91
91
96
102
108
113
119
125
127
127
127
129
125
125
117
115
112
110
110
108
112
115
121
129
133
131
131
127
119
113
112
106
104
104
100
96
95
102
104
104
106
104
104
104
104
100
93
84
72
63
54
50
47
44
43
43
42
42
44
49
56
66
84
91
95
96
98
100
104
110
115
121
121
119
121
121
121
121
117
115
112
110
108
108
110
115
123
133
135
135
133
133
121
113
112
104
102
106
104
100
98
100
106
102
104
104
106
108
108
106
100
89
76
63
55
50
47
42
42
41
41
40
42
46
55
66
86
93
95
95
98
102
102
104
112
115
115
115
119
117
115
117
115
112
113
110
108
102
108
113
121
131
135
135
137
135
125
115
112
104
104
106
104
102
100
100
104
102
102
104
106
104
110
110
106
96
82
66
58
54
50
44
43
41
40
41
43
46
55
66
84
91
93
95
96
100
102
102
108
110
113
115
119
119
115
115
113
112
110
106
106
100
104
108
117
125
131
133
135
137
129
117
110
106
108
108
104
104
104
102
102
104
104
108
106
106
106
110
108
100
84
66
59
55
50
46
44
41
38
40
44
50
59
68
81
86
86
86
89
95
96
100
104
106
108
113
117
119
117
112
112
110
106
106
104
98
100
104
110
119
127
129
131
135
129
119
110
104
106
108
106
104
104
100
100
100
104
104
102
104
108
110
108
100
86
69
60
58
51
45
43
41
40
42
46
54
62
69
82
84
79
77
81
87
91
95
100
104
106
110
113
115
115
112
110
110
106
104
102
100
96
100
104
110
119
125
129
131
133
123
112
108
108
108
110
106
106
102
102
102
104
104
102
102
106
104
108
102
86
71
62
59
54
45
42
42
44
46
49
58
65
74
84
84
79
76
74
81
87
93
95
98
104
106
110
115
115
112
108
108
106
104
98
96
93
95
98
102
112
121
125
127
133
125
113
108
106
108
110
108
106
102
104
104
106
108
104
104
104
102
106
104
86
71
63
60
55
47
44
44
47
45
50
59
66
77
87
89
84
82
81
77
84
89
91
93
96
102
106
112
115
110
104
104
104
100
95
89
86
87
89
95
102
112
119
123
133
125
115
110
110
106
110
112
110
106
104
102
104
106
104
100
102
104
108
104
84
71
63
59
55
49
46
43
46
46
51
58
68
79
91
89
87
89
89
82
84
87
89
91
95
98
102
106
110
104
100
102
104
96
93
89
84
82
82
87
95
102
112
115
131
127
117
112
112
110
108
110
108
106
106
102
102
110
102
98
100
104
110
104
86
72
63
59
56
50
47
46
42
43
50
56
65
81
91
89
89
89
86
84
84
84
84
86
91
96
98
102
102
98
98
100
100
96
93
89
87
81
82
84
89
96
102
108
133
127
119
112
108
108
108
110
112
106
106
104
108
106
100
100
100
104
110
102
86
74
66
60
58
52
47
45
43
42
45
55
65
77
86
84
86
89
89
89
84
81
81
82
86
91
95
96
96
100
98
98
98
98
96
93
89
84
82
82
87
93
96
100
133
127
121
112
106
108
110
113
112
112
106
106
106
102
100
102
102
102
106
102
86
77
71
66
60
55
51
47
43
43
44
51
65
72
79
81
82
87
89
87
81
79
81
84
86
89
93
96
95
96
96
96
98
100
102
98
95
89
86
86
86
93
95
96
133
127
121
113
110
112
110
112
112
113
106
106
106
104
102
100
100
100
104
102
89
82
72
71
66
60
55
50
46
44
45
51
63
69
74
77
81
84
86
82
79
79
81
84
86
89
93
91
91
95
96
96
100
102
108
104
102
96
91
86
86
89
91
93
133
129
125
117
112
112
108
110
112
112
106
102
100
104
104
98
98
102
106
100
93
89
79
74
71
65
59
52
47
44
47
52
62
66
71
74
76
79
79
76
76
77
81
82
87
93
95
93
95
95
95
98
100
102
108
106
102
100
98
93
87
89
93
95
131
131
127
119
113
110
108
108
108
110
106
104
102
106
104
100
100
100
102
100
98
93
87
81
77
72
65
58
54
50
51
56
62
69
69
71
74
76
76
74
71
71
74
79
86
93
95
98
98
96
96
96
96
98
106
106
104
104
104
98
96
96
96
96
133
133
131
123
117
110
108
112
112
112
106
102
100
102
102
102
100
100
100
100
100
96
95
89
86
81
72
65
60
58
59
62
68
74
74
72
74
76
76
71
68
71
72
74
79
87
93
96
98
98
96
93
91
95
100
108
108
106
104
102
100
100
96
98
133
131
129
125
119
112
110
110
110
112
108
98
96
98
98
96
98
100
100
102
104
104
100
98
95
89
82
71
68
66
66
68
72
79
81
77
76
76
77
72
71
71
72
72
72
81
91
95
95
96
95
95
93
95
98
106
108
112
110
108
104
100
96
98
133
131
129
127
121
112
108
108
110
112
108
102
98
96
96
96
96
98
98
100
100
104
106
108
106
98
89
84
76
71
69
71
76
82
84
86
84
82
81
76
72
72
71
71
69
76
86
93
91
95
95
93
91
95
96
102
106
113
112
112
108
104
102
100
131
127
129
129
121
112
104
106
110
113
112
108
104
100
98
100
100
98
96
98
100
104
108
113
113
106
98
93
84
76
71
71
74
82
89
89
89
87
84
82
76
72
69
71
71
74
82
89
91
93
95
89
91
95
96
102
102
108
112
112
112
106
106
104
129
127
129
131
125
115
108
106
108
112
108
108
110
102
98
98
98
96
98
98
102
108
113
115
115
110
104
98
89
82
72
69
72
84
95
95
93
93
91
89
84
76
72
71
71
76
82
86
89
95
95
91
91
95
96
100
98
100
108
112
112
112
108
108
125
125
129
127
123
117
112
110
110
108
106
108
110
108
102
100
102
100
98
102
104
110
112
113
112
112
106
102
96
87
79
69
71
81
95
96
95
98
96
96
91
79
72
71
74
77
84
91
95
96
95
91
86
89
95
98
98
98
106
112
112
112
110
108
127
127
127
123
125
121
113
112
110
110
112
112
113
112
110
108
104
102
102
102
104
108
108
108
108
108
106
106
102
93
84
72
69
77
91
95
96
100
102
102
95
79
69
72
77
81
87
96
98
98
98
93
86
86
91
96
96
98
100
108
112
112
108
110
125
123
125
127
127
125
121
115
110
110
113
112
115
115
113
112
106
106
108
106
106
106
106
106
106
106
104
104
102
98
89
77
71
76
87
95
96
96
100
102
89
76
71
72
77
82
93
104
104
102
98
96
89
86
86
89
91
93
95
98
104
108
112
110
125
127
129
131
133
131
127
121
115
115
115
117
113
115
115
112
108
106
104
104
106
106
108
110
113
112
110
106
100
98
93
81
71
74
84
91
93
98
100
93
82
72
69
74
77
87
100
106
106
104
98
96
89
82
82
84
87
86
89
93
98
104
110
113
125
129
133
135
137
137
135
127
123
117
115
115
115
115
115
113
108
104
104
104
106
106
110
113
117
113
112
108
100
98
95
82
71
71
77
84
91
93
89
82
76
69
69
76
82
93
104
106
106
102
98
96
89
84
82
82
84
86
86
91
95
98
106
112
125
131
135
139
137
137
137
129
123
121
115
117
119
121
119
117
110
106
108
108
106
108
112
113
115
115
115
110
104
100
93
84
76
68
72
77
81
81
79
76
72
68
74
82
91
98
102
102
104
102
100
95
89
86
81
81
82
84
86
87
89
95
100
108
129
133
137
139
137
139
137
133
125
123
119
119
119
119
115
117
110
110
110
108
106
106
112
113
117
115
117
110
106
98
93
87
81
72
69
72
72
71
72
71
72
74
81
89
98
100
100
102
102
102
98
96
91
84
84
84
82
84
86
86
89
91
98
104
131
133
133
137
137
139
137
137
129
123
121
115
117
115
115
117
112
108
108
110
104
106
110
113
115
115
115
110
104
100
95
87
84
74
71
69
69
66
65
66
71
76
82
93
98
98
98
100
102
98
96
95
93
87
87
86
81
84
86
86
84
89
98
104
131
133
133
137
139
137
137
137
133
125
119
115
113
113
113
117
115
110
108
108
106
112
110
113
115
115
115
112
106
98
100
95
87
77
71
66
63
60
59
62
68
76
81
86
87
89
93
95
96
95
91
89
89
87
87
84
82
86
87
87
87
91
96
104
133
131
133
135
137
135
135
137
133
125
121
117
115
112
110
113
113
112
110
108
108
110
113
117
117
117
115
112
106
100
100
95
91
82
72
69
66
62
59
62
69
77
79
82
84
86
86
89
91
89
87
84
84
84
84
82
82
87
91
93
89
87
95
102
133
131
131
137
137
135
135
135
135
127
121
117
115
115
110
110
113
112
112
110
108
110
113
115
115
117
113
110
106
104
98
96
95
86
76
72
68
66
65
69
74
79
81
84
89
87
82
82
86
87
86
84
87
87
84
77
82
91
93
95
91
93
95
102
129
131
129
135
137
137
135
135
137
131
123
119
117
113
108
110
112
113
112
112
110
112
112
113
117
119
115
113
112
108
104
102
98
93
81
72
69
69
71
74
77
81
81
86
87
89
82
77
81
86
87
87
89
89
84
77
82
91
96
100
98
98
100
106
129
131
131
131
135
135
133
133
137
133
127
121
117
113
113
112
112
112
113
112
112
113
110
112
115
119
119
117
119
113
110
104
100
93
86
76
72
72
72
72
76
79
81
82
86
87
86
79
81
84
87
89
89
86
86
84
89
96
100
102
102
102
106
110
129
129
131
131
131
133
133
133
137
133
131
125
119
115
115
110
110
112
112
110
112
110
112
110
113
115
119
119
121
117
113
108
102
96
89
84
77
72
71
71
69
77
81
79
81
87
87
79
79
82
86
87
86
84
84
89
95
96
102
102
102
102
106
113
131
131
131
133
133
135
133
133
135
133
131
127
121
115
113
112
106
108
110
112
110
110
112
112
112
112
115
119
121
119
113
110
104
100
95
89
82
74
72
68
66
72
76
76
76
82
86
81
76
81
81
84
84
84
87
89
91
93
95
98
98
100
106
112
131
133
135
135
133
135
135
137
137
133
127
125
123
121
117
113
110
108
108
110
112
112
112
110
110
112
113
117
119
119
113
108
106
104
102
95
89
77
71
68
66
68
74
72
76
79
82
81
76
77
79
81
84
86
87
91
89
89
91
93
96
100
106
112
131
133
131
133
131
131
133
137
137
133
129
127
125
125
121
113
112
110
108
108
113
115
113
110
110
112
113
117
119
119
113
108
104
102
106
100
93
81
69
63
63
66
71
74
77
74
77
77
76
76
77
76
84
87
87
89
87
87
89
91
95
98
106
110
129
131
131
133
133
131
135
135
135
133
133
133
129
125
121
113
110
110
106
108
112
115
115
112
112
108
110
113
119
119
115
112
108
106
106
104
96
87
72
65
62
65
69
76
79
77
76
74
74
76
76
76
82
87
89
89
89
89
89
89
93
96
102
106
125
127
127
129
133
133
135
133
133
135
135
135
131
127
123
113
110
110
106
108
113
115
115
113
110
110
108
112
115
115
117
117
113
112
110
106
100
95
82
69
62
65
69
76
81
84
82
79
76
77
77
76
81
87
91
91
93
93
87
87
87
93
98
106
123
125
127
127
131
135
133
131
133
135
135
135
135
129
123
113
108
110
108
110
113
115
113
115
113
110
106
112
112
115
119
117
115
112
112
108
102
96
93
81
69
69
69
72
77
84
87
84
81
79
82
81
79
84
91
93
93
89
89
87
86
89
95
100
123
125
125
129
129
131
131
131
133
135
135
137
137
133
127
119
112
112
112
108
110
112
112
117
117
113
108
108
110
115
119
119
119
113
110
108
104
100
98
91
81
72
69
68
72
79
86
89
87
86
86
84
77
79
87
91
93
91
91
86
82
84
89
96
121
123
127
129
129
127
131
133
133
135
137
137
137
135
129
123
119
115
112
110
108
106
112
115
117
113
110
110
110
112
115
119
117
115
113
110
108
104
102
96
89
79
74
69
68
74
82
89
91
87
87
87
81
81
86
91
91
93
91
86
82
81
84
87
119
121
123
127
129
129
129
131
131
135
135
139
137
137
131
127
123
119
117
112
106
106
110
112
115
115
113
113
113
112
113
112
113
115
117
115
108
106
104
102
96
84
76
74
69
71
77
86
91
91
89
91
86
82
87
91
93
93
89
81
79
77
77
81
119
119
121
121
125
129
129
133
133
133
137
139
139
137
135
131
125
121
119
115
113
110
108
112
113
113
115
115
115
115
115
112
112
117
117
113
113
108
102
106
100
89
76
74
72
69
69
79
87
89
89
91
87
84
86
89
91
93
86
79
76
74
72
71
115
119
121
121
123
127
129
131
133
131
133
133
135
135
137
133
129
125
119
117
112
112
112
113
115
113
113
113
112
115
115
113
115
115
113
112
112
110
104
104
102
93
81
74
71
69
66
71
81
87
91
91
89
86
82
82
87
89
87
81
74
69
65
62
119
125
127
125
125
125
129
129
129
127
127
129
129
131
135
135
129
127
121
119
113
113
115
115
117
113
112
112
110
112
113
115
115
115
113
115
112
110
108
104
102
96
86
77
72
71
69
69
74
82
87
89
91
89
84
79
82
86
87
82
72
68
63
59
123
127
129
129
127
127
129
129
129
125
125
127
129
131
131
131
129
125
125
121
117
113
113
115
115
113
113
113
110
110
115
115
115
113
112
112
110
110
108
108
104
100
95
82
72
69
68
71
72
77
82
87
89
89
89
84
81
82
87
81
72
68
65
65
121
125
129
131
131
131
131
131
129
125
125
127
127
129
129
131
129
127
127
125
119
113
113
115
115
115
115
117
113
112
115
117
121
117
113
112
110
108
110
108
104
100
98
91
79
72
69
71
72
76
79
84
86
87
91
87
82
84
86
77
69
66
65
69
119
123
127
129
131
131
129
129
127
123
121
123
125
127
127
131
131
129
131
125
119
117
117
115
113
112
117
119
115
113
115
115
117
117
115
113
112
110
108
108
108
104
100
96
86
76
72
69
71
74
77
82
86
89
87
89
89
86
79
69
65
65
63
69
121
125
129
129
129
129
129
127
123
123
119
121
125
125
127
129
129
129
129
127
121
117
117
115
112
112
115
119
119
113
113
115
117
115
119
115
112
110
108
110
106
104
104
102
95
82
76
69
71
71
72
77
82
84
86
87
86
77
71
63
60
62
66
74
125
125
125
123
123
123
123
125
123
123
123
125
127
127
127
131
131
129
131
129
123
119
115
112
112
113
117
119
119
119
115
113
113
115
115
115
112
112
110
106
104
106
106
102
96
89
77
71
69
68
69
69
72
77
79
79
74
69
68
62
60
63
69
79
123
123
125
125
127
125
123
123
127
127
123
125
127
127
131
133
129
129
131
129
123
119
115
112
110
112
115
117
119
121
121
115
112
113
112
113
113
113
112
108
106
106
104
98
96
91
79
71
69
69
63
62
65
66
68
69
69
66
65
66
68
69
76
81
123
123
127
129
127
125
127
125
127
127
125
123
125
127
129
129
127
127
129
127
125
121
115
113
115
115
113
115
115
121
121
119
115
112
110
108
112
113
112
110
108
104
102
104
98
93
84
72
68
68
60
62
65
63
63
63
66
65
62
66
71
77
76
79
