P2
# 126 of 608 Angiograms
64 64
255
154
152
152
152
152
154
152
148
146
144
144
148
150
150
148
146
146
146
146
148
148
152
152
152
154
154
152
152
156
156
156
154
146
144
144
142
142
144
144
144
144
144
146
144
142
142
141
141
141
139
133
117
108
106
110
108
106
110
108
108
108
113
119
119
154
154
152
152
152
152
150
146
146
144
146
152
152
148
144
144
148
148
148
150
150
152
152
154
156
156
154
154
156
158
156
152
146
146
148
150
150
146
146
146
144
146
148
146
142
142
139
139
141
135
127
115
112
110
110
108
110
108
106
106
110
115
115
117
152
148
148
148
148
150
148
148
148
148
148
150
148
146
144
146
148
148
146
148
150
154
154
158
159
158
158
156
156
154
154
150
146
146
148
150
150
146
144
142
141
142
144
144
141
141
139
141
139
131
119
112
108
104
102
102
106
108
106
108
112
115
117
117
148
146
144
146
148
150
150
150
150
150
146
146
146
146
142
144
144
146
146
148
152
156
158
159
161
159
158
156
154
150
152
148
142
141
142
146
146
142
141
137
137
139
142
144
142
141
142
141
135
125
115
110
100
96
93
96
98
102
108
113
113
115
113
113
148
142
144
148
152
154
156
156
152
150
146
146
146
144
142
142
144
144
146
150
154
156
158
159
159
159
159
156
154
152
148
146
142
139
137
142
142
142
141
137
137
137
137
139
142
141
139
135
127
117
112
104
95
89
89
96
96
100
106
112
110
112
112
112
148
146
146
148
152
154
154
152
152
150
148
148
148
146
144
142
146
148
150
152
156
158
158
158
156
158
159
156
154
150
148
148
142
139
139
142
142
142
141
137
139
137
137
137
139
137
135
131
119
112
108
98
91
91
91
96
98
98
102
106
110
110
108
108
150
146
148
150
152
156
154
152
152
152
152
150
150
150
146
144
148
152
152
154
156
156
156
156
156
156
156
152
150
148
146
146
142
139
142
144
142
144
141
137
137
135
137
135
133
131
129
123
115
106
98
93
87
86
89
95
96
98
95
100
104
104
102
102
152
148
148
148
152
156
154
152
152
150
152
150
152
152
150
148
150
154
156
156
154
154
154
156
154
150
148
148
146
142
141
142
141
139
142
144
144
144
141
139
137
137
137
135
131
129
125
117
110
96
89
82
82
82
84
89
95
95
93
96
98
100
98
100
152
148
148
146
146
150
152
152
152
152
152
150
152
154
152
150
154
158
156
154
152
152
152
152
150
146
144
146
144
141
139
141
141
141
142
144
144
142
141
139
137
137
137
135
133
127
121
113
102
89
82
79
81
81
82
86
91
96
98
100
100
100
95
96
150
148
146
142
142
146
148
152
152
154
156
152
150
152
154
154
154
156
154
152
150
150
150
148
144
141
139
141
141
139
137
142
144
146
142
144
146
142
141
141
139
137
139
139
135
127
119
106
96
89
84
84
84
84
84
82
84
91
98
98
98
95
91
91
146
144
142
142
141
142
146
148
154
158
156
154
150
150
154
152
152
150
150
148
148
148
148
141
139
137
133
135
137
139
137
141
144
146
146
144
144
142
139
137
135
133
137
135
133
123
113
100
95
93
93
95
93
87
84
82
79
84
89
93
93
89
87
84
139
139
139
141
142
144
146
150
152
156
156
156
152
150
150
146
144
146
146
146
146
150
146
139
139
137
133
131
135
137
139
139
142
144
146
144
142
137
133
129
125
125
129
131
127
119
108
96
96
96
96
96
98
91
84
79
76
77
82
86
87
86
82
77
135
135
135
139
141
144
146
148
152
154
156
156
154
148
144
141
141
144
148
148
150
150
146
141
141
141
141
139
139
137
137
135
139
142
142
139
135
129
123
115
110
110
115
121
121
115
104
93
93
96
95
95
93
86
81
74
71
71
71
74
77
79
79
76
137
139
139
141
141
142
146
150
154
156
158
156
154
146
141
139
139
144
148
150
154
154
150
146
146
150
152
150
146
141
137
131
129
133
135
133
127
123
119
112
102
98
102
108
112
108
98
86
86
87
91
87
82
79
74
71
68
65
66
71
74
76
74
77
141
141
142
144
142
142
146
150
154
156
158
158
154
144
137
135
139
144
150
152
158
158
154
152
154
159
158
156
154
148
141
133
127
125
127
125
123
121
119
113
104
96
96
100
102
100
89
77
72
71
74
74
72
69
68
66
60
63
65
68
69
72
76
77
142
142
146
146
144
142
146
148
150
152
154
154
152
146
135
133
137
144
150
154
159
159
158
154
159
163
159
158
156
154
148
139
131
125
123
123
121
123
123
119
112
102
91
91
91
84
76
63
59
58
60
62
63
63
65
65
63
63
66
65
68
72
79
81
142
144
148
144
144
142
146
148
148
150
150
152
150
144
135
129
133
142
148
154
158
158
156
158
163
165
159
156
154
154
150
142
135
129
127
127
127
125
125
121
115
104
89
82
76
69
63
56
52
55
58
59
62
62
62
65
68
66
66
68
71
72
77
81
142
144
146
142
142
142
146
146
150
150
152
152
150
146
139
131
131
137
146
152
156
158
158
161
165
165
158
154
152
150
146
141
135
133
131
133
135
131
125
119
108
100
86
74
66
59
56
51
47
52
55
59
62
63
63
65
66
68
68
69
76
76
77
79
141
142
142
142
141
141
144
146
148
150
148
150
152
150
141
129
125
135
144
152
158
159
161
161
163
161
156
150
144
141
139
135
133
133
133
137
137
131
125
112
98
87
76
68
62
58
52
47
45
49
55
60
62
65
66
66
66
69
69
68
72
76
74
77
139
141
142
141
142
142
141
144
146
148
148
150
154
154
142
129
123
133
148
154
159
163
165
163
163
158
152
146
141
135
129
129
127
129
133
135
133
125
113
100
86
74
69
65
62
58
51
46
43
46
54
60
65
66
69
71
71
71
71
72
72
74
74
77
139
141
142
142
144
144
144
144
146
146
150
152
156
154
142
131
121
131
146
154
158
159
161
163
159
154
148
144
137
133
127
121
117
123
127
129
127
115
102
87
74
68
66
62
60
58
54
50
44
45
51
59
63
66
72
72
74
76
76
77
81
82
82
86
139
141
141
144
146
144
142
142
142
144
150
154
156
154
148
137
127
131
144
152
156
158
159
161
158
152
146
141
137
131
127
121
113
119
125
123
117
104
93
79
69
66
62
60
60
60
56
52
46
45
50
58
63
68
74
77
76
79
82
86
91
91
93
95
141
142
141
144
144
142
141
137
141
144
150
154
156
152
148
142
135
133
142
148
154
158
159
159
156
150
146
139
137
131
129
127
123
125
127
121
110
96
86
79
71
65
63
62
63
62
60
54
50
47
50
58
63
69
76
77
81
86
89
95
100
102
102
104
139
141
139
141
142
141
137
135
141
144
150
154
154
150
150
148
144
139
142
148
152
156
158
158
154
150
146
144
141
137
135
131
131
131
129
123
108
93
84
79
74
68
63
68
65
65
62
59
54
52
54
58
65
71
77
82
87
91
98
106
112
113
112
108
139
137
135
137
141
141
139
137
141
142
148
150
148
146
146
148
150
144
144
148
148
152
156
156
152
148
144
144
146
144
142
139
135
137
135
127
108
93
82
76
72
69
68
69
69
68
66
63
59
56
58
62
66
69
77
86
91
98
104
110
115
115
113
108
135
133
135
133
137
141
141
139
141
142
142
141
142
144
144
148
150
148
146
148
146
148
150
150
146
142
142
142
146
146
144
139
139
141
141
129
106
87
77
71
68
68
68
68
69
71
68
65
60
60
60
65
66
68
77
89
95
104
108
112
110
110
110
110
131
135
137
135
135
139
141
139
139
137
135
135
137
139
144
146
148
150
152
148
142
141
141
141
139
135
137
141
142
144
144
139
137
139
139
129
104
84
74
68
68
69
68
68
71
71
71
68
65
62
62
63
66
69
77
89
98
106
106
112
108
108
108
106
131
133
137
137
137
137
137
135
133
131
131
133
137
139
142
144
148
148
150
146
139
133
129
131
133
133
133
137
142
144
142
139
135
137
135
123
102
82
72
68
71
72
72
72
71
72
72
68
66
66
65
68
69
71
77
87
95
102
104
108
106
106
106
108
131
135
137
139
137
135
131
131
131
133
135
137
139
142
144
144
146
148
144
142
139
129
125
127
131
135
133
137
141
142
142
139
135
133
131
119
102
84
77
74
76
76
74
76
76
74
71
68
71
71
69
71
71
74
76
84
93
100
102
102
100
104
104
102
135
137
139
137
135
131
129
129
133
135
137
139
142
144
146
148
146
144
142
141
135
131
125
127
133
137
135
139
141
142
141
135
131
129
121
113
102
91
86
86
84
82
82
81
79
77
76
74
76
76
76
76
77
79
77
81
89
98
104
102
100
102
102
102
137
139
139
135
133
129
129
133
137
139
139
141
144
146
148
150
148
144
141
137
131
129
129
129
137
139
137
139
139
135
131
127
125
123
115
113
104
98
95
93
93
91
89
86
82
81
81
81
82
82
84
84
84
84
79
81
84
93
100
102
100
98
100
102
135
133
131
131
131
133
135
137
141
141
141
141
141
144
148
150
148
142
141
133
129
131
133
131
137
137
135
133
131
127
123
119
117
117
115
113
106
102
100
98
96
98
98
96
91
86
86
87
87
87
89
91
93
89
84
79
81
87
96
100
100
102
102
102
131
131
129
129
133
137
139
141
142
146
142
139
135
135
141
146
146
142
141
133
131
133
135
135
135
135
129
127
123
119
113
112
113
115
112
112
108
106
104
106
106
108
108
108
104
96
96
96
98
96
95
96
95
93
91
86
84
86
95
98
100
104
106
102
133
131
133
135
139
142
142
144
148
150
146
139
127
123
127
135
141
142
141
135
131
131
133
133
131
127
123
117
115
110
108
108
110
112
110
112
108
108
108
108
112
112
113
113
113
110
106
104
104
102
98
96
95
95
96
93
89
91
95
98
100
104
102
102
133
137
141
142
142
144
146
148
152
156
152
142
125
115
115
123
131
137
139
133
129
129
127
125
121
117
112
110
106
106
104
106
110
112
113
112
110
110
112
112
113
117
117
119
119
115
113
110
108
108
100
95
96
96
98
100
96
95
95
96
100
102
100
104
139
144
142
144
144
148
150
154
158
159
156
146
129
113
110
112
119
127
131
127
123
121
117
117
113
106
102
100
98
98
102
106
108
112
115
115
115
115
113
113
117
121
119
121
121
119
117
119
113
110
102
95
96
102
106
112
108
102
96
96
100
104
106
108
144
146
146
146
146
148
150
154
158
159
158
150
137
119
108
106
108
113
117
117
117
113
110
106
102
98
96
95
95
95
102
106
108
110
115
119
121
119
119
117
119
117
115
117
119
121
119
117
115
110
102
96
96
104
110
113
113
108
104
104
104
108
110
108
146
148
150
148
148
152
152
152
154
156
156
152
146
133
113
104
102
102
100
100
102
100
100
98
98
95
93
91
93
95
102
106
108
110
115
121
125
125
121
121
121
119
117
117
119
117
117
113
113
106
102
98
100
106
106
108
110
112
106
104
108
112
110
108
144
146
146
146
146
150
148
148
150
150
152
154
150
142
125
112
104
96
91
89
91
93
93
93
93
87
87
87
89
95
104
106
110
113
121
125
127
129
125
125
123
119
117
117
117
117
117
113
110
106
104
102
100
100
106
108
108
108
106
106
112
113
110
110
144
144
144
144
146
146
148
148
148
148
150
152
152
146
139
119
106
91
82
79
81
87
91
89
87
82
82
89
91
96
106
110
115
125
129
131
129
131
129
127
123
117
113
115
117
115
117
113
108
106
106
102
100
102
106
110
112
110
110
106
110
113
113
112
146
146
144
142
142
144
146
146
144
146
148
150
152
146
139
125
108
87
76
69
68
76
84
89
87
86
86
91
95
100
108
113
125
135
137
135
131
133
131
129
125
115
112
113
113
115
117
115
108
106
108
102
102
102
108
112
112
112
112
108
108
112
113
113
146
148
146
142
141
141
142
142
142
144
146
148
148
144
137
123
104
86
71
63
62
69
77
84
89
87
89
91
98
104
113
123
135
142
144
142
135
133
131
131
125
115
112
113
113
117
117
115
110
108
106
106
106
104
108
113
113
117
113
108
106
110
113
112
142
142
142
144
141
139
139
141
141
141
144
146
146
142
131
117
102
86
69
60
60
63
74
81
87
89
91
96
102
112
121
135
142
146
150
148
139
135
133
131
123
115
112
112
113
117
117
115
110
106
104
102
108
110
113
113
113
119
115
113
110
108
112
112
142
141
141
141
139
135
135
135
139
139
141
144
144
139
127
112
95
82
69
59
58
59
71
77
84
91
96
100
108
119
131
142
146
150
152
150
141
135
131
127
119
115
113
112
117
115
117
115
110
106
100
100
108
112
113
113
112
115
115
117
112
108
110
110
139
139
139
139
137
135
133
131
137
139
141
142
144
137
123
104
89
79
68
59
55
58
68
74
82
93
96
102
115
127
139
146
150
150
152
146
139
131
127
123
117
113
113
115
117
117
117
115
112
106
100
104
108
110
112
112
112
115
117
115
113
104
106
106
137
137
137
135
133
133
133
131
135
139
144
144
141
133
115
96
86
77
66
60
58
58
66
74
84
93
96
108
117
131
142
150
150
150
146
139
135
129
125
119
113
110
112
115
119
117
117
115
112
106
102
104
108
112
115
112
113
115
115
117
112
100
102
104
135
133
133
131
133
133
131
131
133
137
142
141
137
125
110
91
82
74
65
59
55
59
65
71
84
91
96
110
123
137
146
150
150
146
141
137
131
125
119
117
112
110
112
115
117
117
113
112
112
108
104
106
108
112
117
113
112
113
117
115
112
102
100
100
131
129
131
131
129
131
129
129
129
133
137
137
131
115
98
86
77
71
62
58
56
56
63
69
82
91
98
113
129
142
146
146
146
142
139
135
129
121
117
115
110
108
110
112
113
113
113
112
110
106
104
106
108
112
117
117
113
115
115
113
110
104
98
96
127
125
125
125
123
123
125
125
125
127
131
129
119
104
86
79
71
66
60
55
54
55
59
68
79
91
104
117
137
144
144
142
141
141
139
131
127
121
117
115
108
106
104
104
108
112
112
112
110
110
110
110
112
113
119
119
117
115
115
112
108
106
98
93
125
119
119
121
123
123
123
119
123
125
123
119
106
89
79
71
66
62
59
55
51
54
56
66
79
96
112
127
141
146
146
141
139
137
135
127
127
123
117
115
108
104
100
98
102
106
108
110
112
110
112
113
112
113
115
119
117
115
113
110
110
108
102
96
123
119
117
121
123
123
125
119
121
121
115
104
91
81
72
66
63
65
62
59
54
54
56
66
82
100
119
135
146
148
146
141
137
135
133
127
127
125
115
112
106
102
98
98
100
100
102
104
108
110
113
112
108
110
112
115
117
113
112
110
108
110
104
102
125
121
117
119
121
123
125
121
119
117
108
95
81
72
65
63
65
65
62
63
60
59
63
72
89
108
125
139
148
148
142
139
135
133
131
127
125
125
113
108
100
96
95
96
96
98
100
100
106
108
113
112
108
106
108
113
115
113
110
110
110
110
106
104
125
125
123
119
121
123
121
123
119
113
100
87
74
66
60
62
65
65
65
68
66
68
71
81
96
112
127
141
146
144
141
137
133
131
131
129
127
121
112
106
98
96
96
95
93
96
98
100
100
104
110
112
110
108
108
112
113
113
112
110
108
106
106
104
127
127
125
125
123
121
123
123
117
108
95
79
71
63
60
65
65
65
69
71
71
72
81
93
104
117
131
139
144
142
139
137
133
133
131
129
125
119
113
106
102
100
98
96
95
98
100
100
102
104
108
110
110
106
108
110
115
115
110
110
106
104
104
108
131
131
129
131
129
125
125
123
115
102
87
76
69
65
62
63
66
69
74
76
77
86
96
106
113
119
129
135
141
142
139
137
137
135
133
131
127
119
113
108
106
102
100
100
100
98
100
100
100
104
108
108
108
108
108
110
110
112
113
108
106
106
106
106
135
133
135
133
131
129
127
123
113
96
81
71
68
66
65
63
66
72
77
81
89
102
113
117
119
119
123
127
133
139
139
139
137
135
135
135
127
119
113
108
108
102
104
102
102
100
102
102
102
104
106
106
112
112
108
108
106
108
110
110
108
104
102
104
137
135
135
131
131
131
127
119
106
93
76
69
69
66
66
66
69
76
79
84
98
115
123
125
123
121
123
125
127
131
137
137
135
137
137
133
127
119
112
106
106
104
104
108
108
106
106
106
102
104
108
108
112
113
110
110
110
108
108
106
104
100
102
104
141
137
137
137
133
129
121
113
100
86
74
69
69
68
68
69
72
79
81
93
110
125
133
133
125
119
125
123
123
125
129
131
131
133
133
129
123
117
112
108
108
106
104
104
104
106
108
106
102
102
106
106
110
112
112
110
112
110
108
104
98
100
100
102
142
142
139
137
131
123
113
104
95
81
71
72
72
69
68
71
77
81
86
100
117
133
139
137
129
121
123
121
121
121
123
127
127
125
123
123
119
117
115
110
108
104
100
102
104
108
106
106
106
102
104
104
102
106
112
112
113
112
108
100
95
98
102
102
144
144
139
133
125
115
108
95
86
77
71
72
76
72
69
74
79
86
96
112
125
137
141
137
131
123
119
117
119
119
119
123
125
125
123
119
119
115
115
112
106
106
100
100
102
106
104
102
102
104
104
102
104
102
110
112
112
112
110
104
96
98
102
102
144
141
135
127
115
104
95
86
81
77
76
76
77
76
74
79
86
95
108
119
133
139
139
135
129
123
117
119
123
125
121
119
119
119
117
117
117
119
117
110
110
110
106
104
106
106
104
102
102
102
104
104
104
100
106
108
108
108
110
106
102
98
98
98
137
133
125
115
104
93
84
79
81
81
79
79
81
81
82
87
93
106
117
127
135
139
137
133
129
125
117
117
123
127
123
117
115
113
112
112
115
117
113
112
112
110
108
106
106
106
102
102
102
102
104
100
102
102
104
108
112
113
110
106
104
96
95
95
131
123
117
104
93
82
76
76
81
82
84
84
86
91
93
95
104
117
127
133
135
135
135
133
129
125
117
113
115
121
121
117
115
112
108
110
112
112
112
112
113
112
108
106
106
106
102
102
104
104
104
100
106
106
106
110
112
115
110
108
104
98
93
91
121
113
104
91
82
77
76
74
79
84
87
89
95
100
102
108
119
129
135
137
137
135
133
131
129
125
119
113
112
115
119
117
119
115
106
104
104
108
112
112
110
108
106
104
104
104
104
104
104
104
104
104
106
106
110
110
112
112
110
110
106
98
91
87
