P2
# 132 of 608 Angiograms
64 64
255
142
142
142
142
144
148
150
152
152
148
144
144
141
139
139
135
135
131
129
129
131
133
131
133
135
135
137
139
137
135
135
135
129
123
121
121
125
125
125
127
129
129
133
137
135
133
129
123
112
102
100
100
98
102
104
108
110
110
106
106
106
106
104
102
142
142
144
144
144
146
150
152
150
148
144
142
141
137
129
125
125
127
127
133
135
137
135
135
137
137
141
142
139
137
135
127
117
117
119
123
125
125
125
129
129
129
131
135
133
129
125
117
108
104
102
100
98
96
96
104
108
106
106
106
106
108
104
100
142
141
142
144
146
146
148
148
146
144
142
141
141
129
117
119
127
129
137
142
146
144
141
137
133
135
139
139
135
131
127
115
102
102
113
119
121
125
129
129
129
127
127
131
129
127
119
112
108
108
108
106
100
95
93
98
104
108
108
106
108
104
102
98
142
144
144
144
146
146
146
146
148
146
142
142
135
119
110
119
131
139
146
152
152
150
148
142
137
131
131
131
127
123
119
112
100
98
108
115
121
129
131
129
127
125
125
125
123
119
113
108
108
110
110
108
104
100
98
100
100
104
108
104
104
100
96
93
142
142
142
144
144
144
144
146
146
148
144
142
133
117
112
121
137
144
150
154
152
152
150
148
142
133
127
125
123
123
123
123
117
108
108
113
123
129
129
131
129
127
123
119
117
115
108
100
102
106
110
106
104
102
100
96
95
96
102
100
96
95
89
86
139
139
141
141
142
144
146
146
146
148
144
142
133
117
117
127
141
146
150
152
152
154
154
152
148
141
133
129
125
129
131
133
129
119
112
113
123
129
131
131
129
125
119
115
113
108
96
91
93
100
104
100
100
96
95
93
89
86
87
89
89
86
82
79
135
133
137
141
142
146
146
146
146
148
144
142
133
119
119
129
142
148
150
154
154
158
156
154
154
150
139
135
135
137
139
137
135
127
117
115
121
125
129
129
123
121
115
112
110
102
91
86
86
91
96
96
93
89
87
86
79
74
74
79
79
77
76
74
139
135
139
142
146
150
150
150
148
146
142
142
135
121
119
131
142
148
154
156
159
159
158
156
156
154
144
139
139
141
139
137
135
131
123
117
117
117
119
121
123
119
113
113
108
98
87
81
77
81
84
82
81
77
74
69
66
65
65
66
69
69
68
68
139
137
141
146
150
154
156
156
152
148
144
142
135
123
121
133
146
152
158
159
158
158
159
159
159
156
148
141
141
141
141
139
137
133
129
121
115
110
113
119
121
119
115
112
106
95
81
72
68
68
68
68
66
65
62
59
58
59
59
63
65
63
63
66
141
141
142
146
150
156
158
159
156
152
148
144
137
127
125
131
146
154
159
159
156
158
159
161
159
158
148
141
141
141
141
139
139
135
131
125
117
108
112
117
123
119
113
106
95
81
69
60
56
58
60
62
59
58
59
58
56
59
60
63
65
62
62
65
142
144
144
148
150
152
156
158
158
158
152
148
144
133
127
133
144
152
156
158
158
159
161
163
161
158
146
139
139
139
139
139
137
133
133
127
117
110
110
113
115
112
104
93
81
71
60
54
51
54
55
56
54
54
56
58
59
58
60
62
63
63
63
65
144
144
146
148
150
150
152
154
156
154
152
150
146
139
131
135
144
152
156
156
158
161
161
159
158
152
142
137
135
135
137
137
133
133
133
133
125
113
108
106
102
95
84
77
69
62
55
51
47
51
54
54
52
54
54
56
59
60
63
65
66
68
68
69
144
142
142
142
146
146
148
150
152
154
154
152
150
144
139
139
142
148
152
152
152
156
158
156
152
146
137
133
135
131
135
133
129
129
133
133
127
113
100
91
84
76
71
66
62
59
52
49
49
51
55
55
55
55
56
60
65
65
66
68
69
68
71
72
144
142
141
141
144
144
146
148
150
152
154
154
152
150
144
142
141
142
144
144
146
148
154
152
152
144
137
137
135
133
131
127
123
125
131
129
123
110
89
77
69
63
60
60
59
56
50
49
50
55
58
58
60
59
60
62
63
69
71
71
71
72
74
76
142
142
139
139
139
142
144
144
146
150
150
152
152
150
146
142
139
137
142
146
146
148
152
154
152
146
139
137
135
131
127
127
123
125
129
129
119
102
79
65
58
55
52
54
54
54
50
50
51
58
59
60
62
63
65
68
69
72
74
77
79
79
79
81
142
141
137
133
135
141
142
144
146
146
150
150
148
144
142
137
137
139
144
146
146
146
150
152
152
148
141
135
133
131
127
131
125
123
129
127
112
93
72
59
52
49
49
51
52
51
51
51
54
58
60
62
66
68
71
74
76
77
82
89
93
89
91
91
141
139
133
131
137
139
142
142
146
146
148
148
142
137
133
131
135
142
144
144
142
142
146
148
150
142
139
137
137
135
131
133
125
123
127
127
113
91
74
59
51
50
51
52
52
55
58
59
58
60
60
65
71
72
76
81
84
87
95
98
102
104
100
98
139
137
133
131
135
137
139
142
144
146
146
142
137
135
131
131
133
139
142
142
141
141
146
146
148
141
137
139
141
139
135
131
125
125
127
125
112
91
77
60
54
52
54
59
59
59
65
65
63
65
65
71
77
79
82
89
93
98
104
108
112
112
106
102
135
135
131
131
133
135
139
141
141
141
141
139
139
137
137
135
135
137
141
141
135
137
141
146
146
142
141
142
144
144
137
131
125
121
123
123
112
89
77
62
55
58
56
58
60
63
68
66
65
65
69
77
79
84
89
96
102
108
112
113
113
112
106
102
135
133
129
129
131
133
135
133
133
133
137
141
142
142
139
139
139
141
141
142
135
129
137
142
144
144
144
146
148
146
137
129
127
125
123
121
108
89
74
62
59
58
59
60
63
63
66
66
68
68
71
77
81
87
96
100
106
110
113
113
112
110
106
100
135
133
129
129
133
133
131
123
121
127
137
141
144
144
142
142
142
142
144
144
137
125
127
139
141
144
148
152
154
146
135
125
125
125
123
115
104
87
72
65
60
59
63
69
68
68
68
69
69
71
72
76
82
91
100
104
108
110
112
110
110
106
102
100
133
129
127
125
129
131
125
113
110
121
137
144
148
144
142
142
144
146
148
146
141
131
131
139
142
148
150
156
154
146
135
129
127
123
115
108
96
86
74
71
65
62
69
77
76
72
72
68
71
74
79
79
87
93
100
106
110
113
110
106
108
104
100
98
129
125
125
127
131
129
117
100
98
113
139
148
146
146
142
139
141
144
148
146
144
141
139
141
144
148
150
154
150
146
139
131
127
119
110
100
95
86
77
74
72
68
72
76
77
77
74
71
74
77
81
84
91
95
100
106
108
110
110
108
104
102
96
98
127
125
123
127
133
129
112
91
89
106
135
148
148
146
142
137
137
142
144
146
148
148
142
141
141
148
148
148
146
144
137
127
121
112
102
95
89
84
79
81
79
77
76
77
81
82
81
76
77
77
84
89
95
93
98
104
102
104
108
104
100
98
95
96
127
131
129
129
135
129
112
89
86
98
131
146
148
146
142
135
133
137
142
144
148
152
150
142
139
144
146
144
139
133
125
117
110
102
98
93
86
84
82
82
84
84
84
84
87
87
84
81
79
81
84
91
96
93
98
102
100
100
104
98
96
96
95
96
129
131
131
131
135
133
115
91
86
95
123
146
152
148
142
135
129
133
141
144
150
156
152
146
139
137
137
133
123
115
112
108
100
100
98
91
87
86
86
87
91
93
93
89
87
91
87
84
82
81
86
93
96
98
100
100
98
98
98
96
95
95
98
96
127
133
135
135
137
137
119
95
86
93
119
142
148
148
144
135
127
131
139
144
150
152
150
141
133
125
121
115
113
110
108
100
96
96
98
93
91
91
91
93
96
100
100
96
93
93
93
89
84
82
87
91
96
98
100
102
102
102
102
98
93
95
98
96
127
131
133
135
137
139
125
100
91
95
117
141
148
146
144
135
127
133
139
144
148
148
139
123
115
112
108
106
104
104
100
96
96
95
98
93
95
100
104
104
102
100
102
98
95
95
96
93
91
87
87
87
95
96
98
100
102
98
98
98
95
96
96
96
125
129
131
133
135
139
129
106
96
98
113
139
146
146
144
135
129
137
142
146
142
133
119
108
106
102
100
98
96
96
96
95
95
96
98
95
98
102
104
108
106
102
104
104
96
95
95
93
93
93
87
87
91
96
98
100
102
100
96
98
98
98
96
96
123
125
127
129
135
135
131
110
98
98
113
135
142
144
142
137
135
141
144
141
129
113
106
100
98
95
91
89
89
91
95
89
93
95
96
96
102
102
108
112
112
108
108
108
98
95
95
91
95
93
91
89
91
96
98
102
104
102
98
96
95
93
95
96
117
119
125
129
133
133
131
112
100
102
112
133
142
144
144
141
139
144
141
127
112
102
96
93
87
89
91
89
91
93
91
93
95
95
98
102
106
108
113
115
113
113
113
112
104
96
96
96
98
96
95
96
98
96
100
100
104
102
98
95
96
95
95
96
113
113
121
127
131
133
129
113
102
104
110
131
146
146
146
142
141
137
125
110
98
91
87
84
81
84
87
89
91
93
91
95
96
98
102
106
110
112
115
117
115
117
113
113
106
102
100
98
100
98
96
98
98
100
100
106
104
98
98
95
96
100
96
95
112
113
119
127
131
133
129
112
102
104
110
131
146
148
148
141
133
123
108
96
89
82
82
84
82
82
87
91
89
93
96
100
106
108
112
113
115
113
117
119
117
117
117
115
110
104
102
100
100
98
98
98
96
102
108
108
102
100
98
95
96
98
98
96
110
112
121
129
133
133
125
112
102
100
112
135
150
150
146
135
119
106
98
87
82
79
79
81
81
84
87
91
93
95
100
108
113
119
121
121
117
115
119
119
117
117
119
115
112
106
102
98
100
100
102
102
104
108
110
106
100
100
100
95
95
96
96
95
113
115
123
133
135
133
125
113
102
104
115
137
150
148
142
123
106
95
86
82
79
77
79
77
81
84
87
93
95
98
106
117
123
125
125
127
123
119
115
115
117
119
121
117
113
108
106
104
106
106
106
108
112
112
112
108
102
98
98
96
98
98
95
95
119
119
127
135
139
135
129
113
106
110
121
139
150
146
131
112
95
87
82
81
74
74
77
79
82
84
89
95
100
106
117
129
133
131
129
129
125
117
115
117
119
121
121
121
115
110
106
104
104
108
110
112
113
113
115
115
110
104
102
104
106
102
96
95
121
121
129
135
137
137
133
119
113
115
125
139
148
141
119
100
87
81
79
76
71
69
74
81
84
87
91
96
106
117
133
141
139
135
129
125
119
117
115
117
119
119
123
123
119
113
106
106
108
110
113
110
112
117
117
115
113
112
108
110
108
104
98
93
125
125
131
135
139
139
137
127
121
123
129
139
142
129
108
91
81
77
74
72
68
68
72
81
82
87
95
100
115
133
144
146
141
135
129
121
115
113
112
113
113
117
123
125
121
115
110
108
112
112
110
110
115
117
119
119
113
113
112
110
108
104
100
93
129
127
129
133
135
137
139
135
129
129
131
135
131
115
96
82
77
74
76
72
68
68
72
81
86
91
98
112
131
142
150
148
142
131
125
121
115
112
112
113
117
119
121
121
119
115
110
112
115
113
112
112
112
113
115
117
115
115
112
108
106
106
100
95
129
127
129
129
129
135
137
139
137
133
133
131
119
98
86
79
72
72
76
72
71
72
74
82
89
96
108
127
141
146
150
146
141
129
127
121
117
113
115
115
119
117
117
119
117
119
112
112
113
113
115
112
108
110
113
115
115
112
112
108
106
106
104
98
127
125
123
123
125
131
139
144
144
139
133
123
102
86
81
76
71
71
72
74
76
76
79
86
93
102
121
139
144
146
146
142
137
129
129
125
121
119
119
115
115
115
117
117
117
117
112
112
115
117
117
108
102
104
110
113
112
110
108
106
106
106
106
102
123
119
117
117
121
129
139
150
152
144
133
108
84
77
76
72
72
71
74
72
77
79
82
87
96
113
135
144
146
146
142
137
135
131
131
127
123
123
123
119
117
115
117
117
117
117
112
113
117
117
113
108
100
98
102
106
106
104
104
102
106
110
108
102
123
119
117
119
123
129
137
152
154
146
125
91
76
72
71
74
79
76
74
74
79
81
84
93
110
129
142
144
146
142
137
135
135
133
133
133
129
125
123
121
117
117
115
117
115
117
115
115
115
113
112
106
100
98
100
100
100
100
100
102
106
108
104
102
131
125
123
125
127
129
135
146
148
137
108
79
71
68
68
74
81
81
76
76
77
82
89
104
125
139
144
144
142
137
131
131
133
135
135
135
131
127
125
117
112
113
113
115
113
113
115
112
110
110
108
108
102
100
102
96
95
100
106
108
108
104
104
104
137
135
133
131
131
133
133
139
139
119
95
77
71
68
71
74
81
82
79
76
81
87
100
117
131
139
142
141
137
131
131
133
135
139
139
137
131
125
117
112
110
110
113
117
115
113
112
112
110
110
108
110
106
98
102
100
95
98
102
106
106
102
104
104
144
141
137
137
135
133
131
131
119
98
86
76
71
68
71
76
84
86
82
81
86
98
113
127
129
133
135
135
131
131
131
131
133
137
135
131
129
121
112
110
112
112
117
115
113
113
115
113
112
112
106
106
104
100
104
100
98
98
100
100
100
100
100
104
148
144
142
141
139
137
131
119
98
86
77
74
69
71
76
77
86
89
89
87
93
110
121
129
127
129
129
127
123
123
125
129
129
129
129
127
123
113
110
110
112
115
117
115
117
115
113
113
113
112
104
102
102
104
104
104
104
104
104
102
98
96
102
104
144
141
139
139
137
133
121
98
86
77
72
69
66
69
74
77
81
87
87
91
100
112
119
123
123
123
121
117
117
117
119
123
123
125
123
121
115
110
108
108
110
113
117
117
115
112
112
115
112
108
102
98
98
98
102
108
106
102
104
98
95
96
100
102
139
137
135
135
129
117
100
84
77
72
72
68
68
72
72
74
77
84
89
98
104
110
113
115
115
113
113
113
113
113
113
117
119
119
119
115
113
112
108
108
110
112
112
115
115
112
110
113
113
108
102
95
96
98
102
104
102
102
102
98
96
98
98
102
131
129
129
125
113
96
84
77
72
71
71
69
72
74
76
77
79
87
95
104
106
108
108
108
108
110
110
112
110
113
113
115
113
113
113
112
110
110
108
108
108
108
110
112
113
112
112
113
112
110
108
102
98
98
102
102
102
102
104
102
98
96
98
102
121
121
117
104
91
81
74
69
69
69
71
72
76
79
81
81
86
93
102
108
112
110
104
104
106
106
106
106
108
108
112
112
110
110
113
112
110
108
106
104
102
100
106
110
112
112
113
110
112
110
108
110
108
106
108
106
106
102
102
104
100
102
100
98
113
108
96
81
74
69
68
68
72
74
74
77
77
79
82
86
93
104
110
112
112
112
108
106
106
106
106
106
106
106
106
108
106
108
112
112
108
102
104
100
96
96
100
106
108
110
112
110
110
112
112
112
112
108
106
108
108
106
104
104
98
100
100
96
100
89
79
71
68
66
69
69
72
76
76
79
79
79
86
95
102
112
112
110
110
112
110
108
102
102
106
104
102
100
102
106
106
106
106
106
102
102
104
100
96
98
102
104
108
108
108
110
112
115
113
113
112
110
108
106
108
106
104
104
100
98
102
100
84
74
69
69
69
66
68
69
74
79
82
84
84
86
96
106
113
115
115
110
106
104
104
104
100
100
104
104
98
96
96
98
100
104
104
104
102
104
104
100
98
100
104
108
110
110
108
110
112
113
113
115
112
110
110
106
106
102
102
100
98
100
102
102
74
69
66
71
72
72
71
74
79
86
89
93
93
98
108
115
121
121
119
113
108
102
104
98
98
102
108
104
100
98
96
100
104
102
98
102
102
104
104
102
100
106
110
112
108
104
104
106
112
113
115
117
113
110
110
106
100
100
102
102
102
102
104
102
69
66
65
69
74
76
79
81
87
91
95
96
102
112
119
121
123
125
125
121
112
102
100
96
98
104
108
106
104
100
102
104
104
102
100
102
102
104
104
102
102
106
110
108
106
102
104
110
108
113
117
119
117
112
106
102
98
98
98
102
102
104
100
102
66
66
65
69
74
79
82
87
91
91
96
104
115
123
123
125
127
127
127
125
117
104
100
93
96
104
108
110
110
106
106
104
102
102
102
102
100
100
102
102
102
102
106
106
104
104
106
106
104
110
113
117
115
113
106
102
100
95
95
98
102
104
102
100
66
66
66
71
76
81
84
89
91
93
104
115
127
129
129
129
129
127
127
127
125
113
102
93
91
100
106
110
108
108
108
106
100
98
100
102
100
98
100
98
100
102
100
102
102
104
104
106
104
106
112
112
112
113
110
106
102
100
96
95
98
102
102
100
65
68
71
72
79
84
87
89
91
102
115
127
131
135
135
131
131
129
133
135
133
125
106
95
91
95
102
104
106
106
104
102
98
95
96
100
102
102
98
98
102
102
104
102
102
106
106
104
106
108
112
112
112
113
115
110
106
104
102
98
98
100
96
93
66
66
69
72
79
86
89
93
100
112
125
133
135
135
137
133
131
133
137
141
139
131
113
95
89
93
100
102
106
106
104
102
96
95
98
96
100
102
98
98
100
102
106
104
102
104
106
104
106
108
112
113
113
113
115
113
110
110
106
102
100
98
95
89
65
69
68
71
76
82
86
96
110
121
133
137
137
135
137
135
135
139
141
144
142
133
117
98
89
93
98
104
110
110
104
100
98
98
100
96
100
102
100
98
100
100
102
106
104
104
104
100
104
110
112
113
113
115
113
112
112
113
108
104
100
98
95
93
66
68
68
69
74
81
89
100
117
129
135
141
139
135
135
133
135
142
142
146
142
133
121
104
93
95
100
108
112
113
106
102
102
100
96
95
96
102
102
100
98
102
102
104
106
106
104
98
104
108
110
112
115
113
112
112
112
112
108
102
100
96
95
87
63
68
71
74
79
86
96
110
121
129
131
135
135
135
135
131
135
142
146
148
141
135
123
108
96
96
98
108
113
113
110
104
102
100
95
96
96
102
104
100
98
104
102
100
102
102
102
104
106
108
108
112
115
113
112
110
112
113
108
100
98
95
89
89
62
71
74
81
87
100
113
117
121
121
123
123
125
127
127
129
133
142
146
144
139
137
127
113
100
96
98
106
112
113
110
106
108
104
98
100
100
100
102
102
102
102
102
102
102
100
104
110
110
110
106
110
112
113
113
113
113
115
108
102
100
93
89
89
