P2
# 134 of 608 Angiograms
64 64
255
108
110
113
113
112
112
117
121
125
131
133
137
141
144
146
148
152
156
159
159
163
161
159
159
159
158
158
158
159
161
163
161
161
161
159
156
156
156
156
154
152
152
152
152
154
156
154
150
148
148
148
146
148
150
154
158
163
168
172
173
177
177
178
180
110
112
110
106
104
108
112
119
125
131
135
137
141
144
146
150
150
156
161
161
165
163
161
161
158
159
159
159
161
163
167
167
165
163
161
159
159
158
158
158
158
156
156
158
158
156
152
148
146
148
148
144
146
152
154
158
163
167
168
170
172
172
172
173
110
108
106
102
100
104
110
113
121
127
131
135
141
142
146
148
150
156
159
163
163
163
161
161
159
161
161
161
163
165
167
167
167
165
163
161
159
161
159
159
158
159
159
158
156
152
148
146
144
142
142
142
146
152
154
159
163
165
165
167
168
168
167
168
104
104
104
104
102
106
112
112
117
123
127
133
137
141
142
144
148
152
156
159
161
163
161
159
161
161
163
161
163
167
168
167
163
163
163
161
161
161
161
159
159
158
158
156
150
146
146
142
141
141
141
142
148
152
156
161
163
163
163
163
165
165
165
163
102
102
106
104
106
106
110
112
115
119
123
129
135
139
139
141
142
146
150
154
156
159
159
161
159
158
159
163
163
167
167
165
165
163
161
161
161
159
159
158
158
156
154
148
146
144
142
141
141
142
142
144
146
150
156
161
163
163
163
161
161
161
161
159
106
104
106
104
106
104
108
112
112
117
121
127
133
135
135
139
139
141
144
146
150
154
156
158
156
156
158
159
159
161
161
161
161
161
161
161
159
158
156
156
154
150
148
146
144
144
142
142
142
146
146
144
146
150
158
159
163
163
161
159
159
161
163
161
108
110
106
104
106
106
110
110
110
113
119
125
129
133
135
137
139
139
139
142
144
148
150
152
152
152
150
150
152
152
154
156
158
158
158
158
158
156
158
158
152
148
146
144
144
144
144
146
146
146
144
142
148
154
156
159
159
159
158
158
159
159
161
163
106
108
104
108
108
108
108
108
108
112
117
121
127
129
131
137
137
137
137
139
141
142
142
144
144
144
142
142
146
148
148
150
150
150
152
154
156
154
156
158
156
150
146
144
146
148
146
146
148
148
146
146
150
154
156
156
156
156
154
154
156
158
159
163
106
108
108
112
110
110
108
108
112
113
117
119
123
127
129
131
135
135
135
137
139
139
137
137
135
135
135
137
141
146
146
146
146
146
148
150
154
154
154
154
152
148
144
144
146
150
150
152
152
148
150
150
150
156
156
156
154
152
152
152
152
154
158
161
110
108
110
113
112
112
112
112
112
113
117
121
121
125
127
129
131
135
133
135
137
135
135
133
131
133
135
139
141
141
144
146
144
146
150
150
152
152
152
152
148
146
142
144
148
150
154
154
154
150
152
152
154
158
156
154
154
154
154
152
152
154
158
161
112
110
112
113
112
112
115
115
113
115
117
121
119
121
125
125
129
133
133
135
133
133
133
131
131
135
137
141
141
139
141
142
144
146
148
150
150
148
146
144
142
144
144
144
146
150
152
154
154
154
156
156
159
159
156
156
154
154
154
152
154
156
159
161
112
113
113
115
115
115
117
115
113
117
117
119
119
119
123
125
127
129
135
135
133
131
133
131
133
137
141
139
141
141
141
142
146
144
146
146
146
144
141
141
141
141
141
141
141
144
148
152
154
156
158
159
159
159
159
158
158
154
154
154
156
158
161
163
113
115
117
117
117
115
115
117
113
115
119
117
119
119
123
125
127
131
133
133
135
133
133
133
137
141
141
141
141
142
142
146
146
146
144
142
141
141
139
141
141
141
139
137
137
142
146
148
152
156
159
159
159
159
158
158
156
154
152
154
156
159
163
163
117
119
119
119
115
117
117
115
115
117
117
117
121
119
123
125
127
131
131
133
137
135
135
135
139
142
142
144
142
142
144
144
144
142
139
141
139
137
137
139
142
142
139
137
137
139
142
146
148
152
154
156
154
154
154
152
154
152
152
154
159
161
163
165
119
119
121
121
119
119
117
115
115
119
119
121
123
121
121
123
127
133
133
131
137
139
139
137
139
142
141
142
141
141
141
139
135
133
133
135
139
139
141
141
142
142
139
137
135
137
141
142
146
148
150
148
148
150
148
146
148
150
150
152
158
159
161
163
119
119
123
121
121
121
121
119
119
121
121
121
121
123
123
125
129
133
133
131
137
139
141
141
141
142
141
141
137
135
135
133
129
121
119
127
135
142
146
144
142
139
137
135
133
133
137
141
142
146
148
148
146
148
146
146
148
148
146
150
152
156
158
158
119
119
121
123
121
121
119
121
123
121
123
123
121
123
125
127
131
133
135
133
137
142
144
144
144
141
139
135
133
135
135
133
127
115
110
117
131
141
146
144
142
139
135
133
133
131
135
139
142
144
146
146
146
148
148
148
148
146
148
150
150
150
150
152
121
121
123
123
119
119
123
127
127
125
125
123
123
125
127
131
135
135
135
135
137
142
142
142
141
137
133
131
131
133
137
133
125
112
106
112
125
139
144
146
141
135
133
135
135
135
133
137
141
142
144
146
148
148
146
144
144
146
148
148
146
146
146
146
121
121
121
123
123
123
125
125
123
127
123
125
125
129
129
131
133
133
135
133
133
139
141
139
135
129
127
129
131
133
137
135
121
108
104
110
125
139
144
142
139
135
133
135
133
135
137
139
139
141
144
144
142
142
142
141
141
141
142
144
144
142
141
141
119
123
123
123
125
123
125
123
125
127
125
125
129
129
129
131
133
131
133
131
135
137
139
133
129
125
125
127
135
137
137
133
119
106
102
110
125
139
142
141
139
137
135
133
133
135
141
142
144
141
142
142
141
141
137
135
135
135
135
133
133
131
131
133
125
125
121
121
123
127
127
125
125
129
123
125
129
131
131
133
133
135
139
131
137
139
133
127
125
121
125
131
137
137
137
131
119
108
102
112
127
141
142
139
137
137
135
135
135
137
142
144
146
142
141
141
141
139
135
133
131
127
125
123
121
119
119
119
125
125
121
123
121
123
127
125
125
129
127
125
131
133
133
135
135
139
137
133
135
135
131
125
123
123
129
135
139
137
133
127
115
108
108
117
131
142
142
139
139
137
135
135
135
139
142
146
144
141
139
137
135
135
133
129
125
121
117
115
113
110
108
108
125
125
125
123
121
121
123
125
127
125
129
127
131
135
135
135
139
137
137
135
137
133
129
125
125
127
133
141
139
135
129
123
113
108
113
123
133
137
139
139
135
135
133
133
131
133
137
137
133
127
121
121
123
123
125
121
119
117
113
110
112
110
106
106
123
121
121
117
119
119
119
123
125
127
127
129
131
131
131
131
131
133
135
135
133
127
123
123
127
129
135
141
137
131
125
121
117
117
121
127
135
137
137
135
129
127
125
123
121
119
119
115
112
110
110
112
115
119
121
119
115
115
113
112
113
112
108
108
119
119
115
112
115
115
117
119
121
125
125
129
129
131
131
133
131
131
131
133
129
123
119
121
131
133
135
135
131
125
123
123
123
123
125
127
131
133
131
127
117
115
113
110
108
104
102
98
95
96
102
108
113
117
119
117
115
115
115
115
117
115
113
112
117
115
113
115
117
117
119
121
123
121
123
127
131
131
131
131
133
133
133
131
127
121
117
121
131
133
135
133
125
121
123
127
129
125
123
123
125
123
119
112
106
102
98
98
98
96
93
91
84
89
98
106
113
119
123
121
119
117
117
121
123
125
123
119
117
117
117
115
119
117
117
121
123
121
123
125
127
131
133
131
135
133
131
129
123
117
117
123
131
133
133
129
121
119
125
129
129
123
119
115
113
110
104
95
87
84
84
86
86
89
89
87
84
89
98
110
119
125
129
129
129
129
129
129
131
131
131
131
119
119
117
117
117
115
117
121
123
123
123
123
123
127
129
129
131
133
129
125
119
117
117
123
131
137
133
125
121
123
127
129
125
115
108
104
100
95
89
84
79
79
79
79
81
81
82
82
87
95
106
117
127
133
137
137
139
139
139
139
139
137
137
139
119
119
117
117
117
119
117
117
117
115
115
119
119
121
121
121
121
121
121
119
119
119
123
127
131
133
127
121
119
119
121
119
113
104
96
93
89
87
86
84
82
84
86
86
82
82
82
86
93
100
112
125
135
142
144
146
148
148
148
148
146
146
144
144
121
121
119
119
119
117
113
110
106
106
106
108
110
110
110
110
112
112
110
110
113
117
121
123
125
123
119
117
117
113
112
106
100
91
89
87
87
89
89
93
95
98
100
100
98
96
95
95
100
104
112
127
141
146
148
152
152
154
154
154
152
150
150
148
123
117
117
117
113
108
104
98
93
91
91
93
95
93
89
91
93
93
95
96
100
104
110
112
113
113
112
110
104
100
95
93
91
89
89
93
95
96
100
104
106
110
112
112
110
110
106
104
104
106
112
127
141
146
150
150
152
154
158
158
154
150
150
148
117
112
106
102
100
95
91
87
82
81
82
82
82
81
81
82
82
82
84
89
93
95
95
95
93
95
93
91
87
82
77
76
81
87
93
96
102
108
112
112
113
115
113
115
115
113
113
112
108
108
113
129
141
146
152
152
154
154
156
156
152
150
148
148
106
100
95
89
87
84
79
79
79
77
77
77
77
79
79
77
76
76
81
82
86
87
86
84
82
81
81
77
74
69
63
65
74
87
95
104
112
117
119
115
112
113
113
112
112
110
112
112
112
112
119
131
142
146
150
152
154
156
156
154
154
152
150
150
89
87
86
82
81
77
74
74
74
76
76
72
74
74
74
71
71
74
79
79
79
81
82
81
76
74
71
71
68
65
62
65
74
89
102
113
119
119
117
115
112
106
104
108
108
110
112
110
113
117
125
135
142
146
148
150
154
156
154
154
152
152
152
150
82
81
82
79
77
77
74
71
72
72
72
71
72
72
71
71
71
74
76
76
74
76
77
77
74
68
65
66
65
63
66
71
81
95
110
117
125
125
121
115
110
100
96
102
108
112
117
119
121
125
129
137
141
144
146
148
150
152
152
150
150
150
152
152
79
81
81
77
77
79
77
72
72
72
74
72
71
71
71
71
71
74
74
72
74
76
77
77
72
65
63
66
66
68
71
76
89
102
113
117
125
123
119
119
110
98
91
96
106
113
121
127
129
129
131
137
141
144
146
146
148
150
152
150
148
148
150
152
77
81
79
77
76
76
79
72
68
72
72
72
72
71
69
69
69
72
72
72
77
79
81
79
72
63
63
66
69
71
77
87
98
108
112
113
119
119
119
119
110
96
91
95
104
113
123
131
131
133
131
139
141
144
144
146
146
148
150
148
146
146
148
150
76
76
76
74
76
76
77
74
69
71
72
74
71
68
68
71
71
74
76
79
82
84
84
79
76
71
72
74
77
82
89
100
106
110
110
110
113
119
117
115
110
98
91
91
100
110
121
129
135
133
135
139
142
144
144
148
146
148
148
146
146
146
146
148
76
81
77
76
77
76
76
76
72
72
72
74
74
74
74
76
79
81
84
86
84
87
84
79
81
79
79
82
89
95
102
108
108
110
108
110
110
113
115
112
106
98
91
87
93
102
112
127
133
135
137
142
144
144
146
148
148
150
150
146
144
144
142
142
84
86
84
82
82
79
77
77
74
72
76
77
81
82
84
86
87
91
91
89
84
86
84
82
82
84
84
89
96
104
112
112
113
113
113
115
110
112
113
112
106
98
93
86
87
96
106
121
131
135
141
146
148
144
146
148
148
148
150
146
144
142
141
141
86
89
91
93
87
84
81
81
81
84
86
87
89
91
93
95
96
96
95
91
86
87
86
86
87
89
93
98
108
115
117
117
119
119
119
117
115
113
115
113
108
100
96
89
87
93
102
117
129
137
142
144
146
144
148
146
146
148
148
146
146
144
142
141
84
89
95
95
95
93
93
95
96
98
100
102
102
102
98
95
96
100
95
91
87
86
87
89
95
96
100
110
117
121
123
123
125
127
129
129
127
125
121
117
113
106
100
95
89
93
100
110
125
135
141
144
146
146
148
146
144
142
142
142
142
144
141
137
89
95
98
102
104
104
106
108
110
108
108
108
108
104
98
96
96
102
95
91
87
89
91
96
100
104
110
115
121
123
127
127
127
127
131
131
129
129
127
125
119
112
104
100
95
95
98
106
117
129
135
141
144
148
146
142
142
141
137
139
141
141
137
133
102
106
110
112
115
115
117
115
115
115
113
112
108
102
98
96
100
100
95
89
89
93
95
100
104
110
115
121
123
123
125
127
125
125
129
129
131
129
133
127
123
117
112
106
102
96
100
106
113
119
125
133
137
142
142
142
142
141
137
137
137
139
137
135
115
117
121
121
121
121
119
117
119
117
113
112
108
98
96
95
96
98
96
93
93
93
96
100
108
113
119
123
123
123
121
121
125
127
125
127
129
131
131
129
125
119
117
113
108
104
104
106
112
115
117
121
127
133
137
141
141
139
137
135
135
135
135
135
129
131
131
131
127
125
123
123
119
117
115
112
108
102
96
96
95
95
96
95
93
95
98
104
112
117
123
125
123
125
121
121
123
127
127
125
127
127
127
125
123
123
123
121
117
113
112
110
112
113
119
115
117
121
127
131
137
139
139
137
135
129
133
135
135
135
137
133
131
131
129
127
121
117
115
113
110
106
100
98
93
91
89
89
89
96
100
106
113
121
125
127
129
127
125
125
127
125
125
125
125
121
121
123
123
125
125
125
123
125
123
119
115
115
117
115
117
117
119
121
125
133
135
135
135
131
133
135
135
135
137
135
133
133
131
127
129
123
117
117
117
112
102
95
87
84
82
86
89
96
102
110
115
123
127
127
129
129
129
127
127
127
125
123
121
117
115
119
123
125
125
125
129
133
131
127
121
119
119
119
115
115
115
115
121
129
131
133
133
133
135
137
139
139
137
135
137
135
133
131
129
125
119
119
119
112
100
91
82
77
77
84
89
98
108
112
117
123
125
127
127
127
127
129
129
129
127
123
119
115
112
119
127
131
129
129
133
137
139
135
129
125
125
123
119
113
113
113
119
125
131
133
133
135
137
141
141
141
137
137
135
135
129
129
131
127
121
119
115
106
95
86
77
74
77
86
93
102
112
117
123
121
121
127
129
125
125
125
127
125
121
119
115
112
110
121
131
131
131
133
137
142
144
142
137
133
129
127
123
121
117
117
121
125
125
129
131
131
139
142
141
141
137
135
133
131
127
129
131
129
123
117
108
96
89
82
77
76
79
87
96
110
117
125
125
121
119
125
127
125
123
127
125
123
119
115
112
110
113
125
135
131
133
135
139
144
148
148
142
141
137
135
131
127
125
123
123
125
121
123
125
127
133
137
141
137
135
133
135
133
131
129
131
127
123
113
100
89
84
77
79
79
81
89
102
115
123
127
123
123
119
121
127
127
125
125
123
125
119
117
115
113
117
125
133
133
137
141
142
146
146
146
142
142
144
142
139
135
133
129
129
129
127
125
125
125
131
133
137
137
135
133
133
133
129
129
127
125
119
104
93
87
84
81
81
82
86
95
110
119
125
127
125
123
119
119
123
125
125
125
121
121
119
113
115
115
119
125
131
135
141
146
148
150
148
144
142
144
148
148
148
146
144
142
141
135
133
129
127
127
129
131
135
139
137
133
129
129
129
131
127
123
110
96
89
86
84
81
84
87
96
108
115
121
127
127
125
121
119
117
117
121
121
123
123
119
115
112
113
117
121
125
133
139
144
148
152
152
150
148
144
146
148
150
152
150
150
150
148
144
139
133
131
129
127
125
133
133
135
133
129
129
129
129
125
115
104
95
89
84
82
84
89
96
108
117
119
123
127
125
123
121
123
119
117
121
119
119
119
113
110
112
117
119
123
127
133
141
146
150
152
154
152
148
144
144
148
152
154
154
156
156
154
152
148
141
137
133
129
127
133
131
135
131
131
129
129
127
121
110
102
95
91
86
86
89
98
108
115
121
123
125
127
123
121
121
119
119
119
121
119
119
117
112
112
113
119
121
123
127
135
142
146
148
150
152
152
148
142
144
150
152
154
156
156
158
156
154
150
146
141
139
133
127
131
131
133
131
129
127
125
121
112
106
102
96
93
89
91
100
108
115
119
121
123
127
127
125
121
117
115
115
119
121
121
119
115
110
113
117
119
121
123
131
135
142
144
148
150
150
150
148
144
144
148
154
154
154
156
154
154
150
150
148
144
144
139
133
133
133
131
131
127
123
121
113
106
106
104
98
93
95
104
110
115
119
121
123
123
125
125
127
123
119
117
119
121
119
121
119
113
113
117
121
119
117
123
131
135
142
144
150
150
148
148
146
142
142
146
152
154
152
154
154
152
152
152
150
148
146
142
139
133
129
127
127
125
123
117
106
102
104
104
98
98
102
110
115
121
121
123
127
129
129
129
129
123
121
119
119
121
121
119
117
113
115
117
121
119
119
123
131
137
142
144
148
150
152
150
146
142
142
146
150
152
152
154
154
154
152
150
148
146
146
142
141
133
129
129
129
125
121
112
102
104
104
100
102
106
112
115
121
121
123
125
127
129
131
129
127
123
121
121
121
121
119
115
112
112
117
117
117
117
121
125
131
137
142
146
148
154
152
150
148
146
144
146
148
148
150
150
152
154
150
150
146
146
146
144
139
133
133
133
131
125
115
108
102
104
102
104
106
113
117
121
123
123
123
125
127
127
127
129
127
123
121
117
119
119
115
112
110
112
115
117
121
119
121
127
133
137
141
146
148
152
152
150
150
150
148
150
150
150
152
152
150
150
148
148
146
144
142
137
135
135
133
133
127
119
110
104
104
104
102
104
112
117
123
127
127
127
125
125
125
127
127
127
125
123
123
121
121
117
115
113
110
112
113
115
117
119
123
129
133
135
139
142
148
150
150
150
150
152
152
156
156
152
152
150
150
150
146
144
144
141
137
131
131
137
135
131
121
113
106
104
106
100
102
108
113
119
127
129
127
127
129
125
123
127
129
129
127
123
123
123
123
119
115
112
112
110
113
113
115
117
121
127
131
133
137
141
144
148
148
148
148
150
154
156
154
152
148
146
146
146
146
142
141
135
131
131
129
135
133
125
117
110
104
102
102
102
108
113
117
121
125
131
129
129
129
125
121
125
131
131
127
125
123
123
121
121
113
110
110
108
108
108
112
115
119
121
123
127
133
137
141
144
148
148
148
148
152
156
154
148
146
144
144
144
142
141
139
133
129
131
131
