P2
# 139 of 608 Angiograms
64 64
255
102
104
108
110
108
104
106
104
104
106
108
104
106
104
102
102
100
96
96
98
98
96
93
93
96
104
108
106
104
100
98
95
91
86
82
81
77
74
76
81
84
86
87
93
98
100
104
108
110
112
113
115
112
108
104
110
110
112
110
104
104
102
102
100
104
110
113
110
108
106
104
104
106
108
108
104
100
100
100
100
98
98
96
98
98
96
89
91
98
104
108
108
104
104
100
98
91
87
84
82
79
79
79
84
86
86
89
95
102
104
108
110
110
110
112
112
113
108
106
108
108
112
112
110
108
106
104
100
110
112
113
115
112
106
104
104
104
106
106
104
102
100
100
100
98
96
98
100
98
93
91
91
98
102
104
102
102
102
104
102
93
87
84
79
82
82
84
86
84
87
91
95
100
108
113
110
110
108
110
113
113
110
110
112
110
113
115
113
110
110
106
102
112
112
113
113
110
104
104
104
104
102
100
102
98
100
102
98
96
96
98
98
96
93
93
95
100
104
104
104
106
102
104
104
93
87
84
82
82
84
86
87
86
89
93
95
98
106
112
110
110
112
110
112
112
113
110
112
113
117
115
115
112
112
110
106
113
113
113
113
108
104
102
102
102
102
102
102
100
100
100
102
100
98
96
96
96
93
96
96
100
106
110
110
108
104
104
102
95
89
84
86
84
84
84
86
91
93
93
95
98
104
106
108
110
112
112
113
113
112
112
113
117
117
115
115
117
115
115
113
113
113
113
112
108
102
100
100
100
102
102
102
104
100
100
100
100
96
96
95
96
95
95
100
102
110
112
112
112
108
102
98
95
89
84
86
89
87
84
87
93
96
96
96
96
100
104
110
113
115
112
112
113
110
112
115
121
121
121
117
117
117
119
119
112
112
110
112
108
104
100
100
100
102
102
102
104
100
98
98
96
96
93
91
89
95
96
100
108
110
112
110
108
108
104
102
96
91
84
86
91
89
89
91
96
98
100
98
96
98
102
108
115
115
115
113
113
115
113
117
121
123
127
125
119
121
123
117
108
106
106
110
108
102
100
98
100
104
100
100
100
100
100
96
96
95
93
89
89
95
98
106
110
110
112
110
106
108
106
106
100
91
87
89
89
87
89
96
98
102
104
100
104
102
102
104
112
117
115
117
112
113
113
117
119
123
123
121
117
119
119
115
108
106
106
110
106
102
98
98
100
102
98
98
96
100
102
96
95
95
93
91
89
95
102
108
110
112
112
110
108
106
108
108
100
95
89
89
87
89
91
96
100
102
100
104
106
108
106
106
110
115
117
115
113
113
113
113
115
121
119
119
117
119
115
115
106
104
106
104
102
104
102
98
98
102
96
100
98
100
100
96
95
93
93
91
89
95
102
108
112
113
110
112
108
108
112
108
102
96
95
91
91
93
95
98
100
102
102
104
110
110
108
106
108
112
115
117
115
117
115
117
119
119
117
117
117
119
115
115
108
106
106
106
106
104
102
98
100
98
96
100
100
102
98
96
95
93
93
91
91
95
104
108
112
112
112
112
112
108
108
108
104
98
93
91
91
93
100
100
100
102
104
108
108
108
106
106
108
110
113
117
117
119
117
117
117
117
117
117
117
115
113
112
110
108
108
108
102
100
100
100
100
95
96
98
98
96
96
93
93
95
93
87
89
98
106
108
110
112
110
110
110
104
108
106
106
102
95
93
95
96
98
102
102
102
104
110
104
100
100
102
106
108
113
115
113
115
113
115
113
115
119
117
115
115
113
113
106
104
104
104
102
104
100
100
100
98
96
98
96
93
95
93
93
95
93
91
96
102
110
112
110
113
110
112
110
106
108
106
106
102
96
91
95
98
104
106
104
106
106
110
106
100
98
100
100
104
113
115
115
115
115
115
115
115
117
117
115
115
113
113
106
106
104
104
104
102
95
98
98
98
98
98
96
98
100
96
95
93
93
95
100
104
110
115
112
112
112
112
108
106
108
108
102
102
96
91
91
96
102
108
104
104
106
110
106
100
96
96
100
106
112
113
115
119
119
117
119
117
117
117
113
110
112
113
104
108
106
106
104
102
100
98
100
100
96
96
100
100
102
100
96
95
93
95
100
106
110
112
110
112
110
110
110
110
108
110
106
102
98
93
96
100
102
108
106
106
108
106
104
100
96
95
100
106
110
115
115
117
117
115
119
121
119
115
113
110
110
113
102
102
104
104
104
106
106
102
102
98
96
96
102
102
100
100
96
91
89
95
100
108
108
110
112
112
108
108
110
110
110
108
106
102
98
95
98
102
108
112
110
110
108
104
106
102
96
96
100
104
112
117
119
119
119
115
119
119
115
113
115
115
112
110
100
102
104
108
108
106
104
100
102
100
100
100
104
104
102
96
91
89
91
95
102
106
108
110
110
110
108
108
108
108
108
110
104
100
96
95
96
104
110
110
113
112
110
108
108
104
100
96
98
100
112
117
121
121
121
117
119
117
113
113
113
115
113
112
104
102
104
110
108
108
108
106
104
102
102
106
106
104
102
96
93
93
91
96
102
106
110
110
110
110
106
106
110
112
112
112
104
98
95
95
98
106
112
113
115
113
112
112
108
104
98
96
98
102
112
117
121
119
121
117
119
117
115
113
112
110
112
113
102
104
106
108
108
106
110
108
106
104
104
106
104
102
100
96
93
91
95
100
104
104
106
108
108
110
110
110
113
113
112
112
106
98
96
96
96
104
112
115
119
117
113
110
108
104
100
98
98
102
112
117
121
121
119
119
117
117
115
113
113
110
112
112
102
102
106
108
106
106
110
110
106
108
108
106
104
100
98
93
87
93
102
104
106
106
106
106
110
110
110
112
113
112
108
110
106
100
96
95
100
104
112
115
117
117
119
115
110
102
96
98
100
102
112
117
119
119
121
121
121
121
115
115
112
112
112
110
102
106
108
106
106
110
110
110
110
110
108
106
104
102
96
93
91
98
100
102
106
106
108
108
110
112
110
112
110
112
112
110
104
100
95
96
100
108
113
117
121
121
121
117
112
104
95
95
98
104
115
119
119
121
123
123
123
121
117
115
113
113
110
112
104
106
106
110
110
112
112
113
112
112
108
108
106
100
95
91
95
100
102
104
106
108
112
112
113
110
110
112
112
110
113
110
104
98
95
96
100
110
117
117
121
125
125
123
115
106
98
93
96
102
115
117
117
121
123
121
123
119
119
117
113
113
112
112
104
106
108
108
108
108
110
115
112
110
110
108
106
98
96
98
98
106
106
104
108
110
110
110
113
110
112
112
110
108
112
110
106
102
93
95
100
113
119
119
121
125
127
127
117
106
100
93
95
98
110
113
115
119
119
121
121
121
119
119
117
113
117
113
106
106
104
104
108
108
110
113
113
110
108
108
104
95
93
98
102
108
108
108
108
108
108
112
112
110
112
110
108
110
110
110
108
104
96
95
102
115
119
123
127
127
129
129
119
108
102
95
95
96
106
113
117
117
119
123
121
119
119
119
117
117
115
113
98
96
96
98
104
108
108
113
112
108
106
106
100
93
95
100
104
108
106
110
112
108
110
112
112
112
113
112
110
112
112
112
110
102
95
95
104
115
119
121
125
127
129
127
121
113
104
96
96
100
104
113
119
117
117
119
121
121
121
121
117
113
115
115
95
95
96
98
100
104
108
108
106
106
104
102
98
91
96
102
106
110
110
108
110
112
113
113
112
112
113
113
110
113
112
110
110
100
95
96
104
115
123
123
125
129
133
129
123
117
106
100
96
100
106
112
115
117
117
121
123
123
123
123
119
117
115
115
89
95
96
96
98
100
102
102
100
98
96
95
96
96
100
102
106
108
106
106
112
113
115
117
115
112
112
113
110
112
108
110
110
102
96
98
102
115
123
125
129
133
131
129
125
119
112
102
100
98
104
108
113
115
115
121
125
123
123
123
121
121
117
115
87
93
95
98
100
102
98
98
96
95
93
91
95
98
104
102
104
104
106
110
113
115
117
115
115
113
115
113
112
110
110
112
112
104
96
96
102
115
123
125
129
133
129
129
127
119
113
106
102
98
100
104
112
119
117
119
123
123
123
123
123
123
121
117
89
91
95
100
98
98
95
95
93
91
87
91
95
98
100
102
102
102
106
110
112
113
115
115
113
115
115
113
113
113
112
112
110
104
100
96
102
113
121
127
129
131
129
127
127
119
113
108
104
98
95
100
110
117
117
119
121
125
125
123
121
123
121
115
89
91
93
100
100
95
91
87
87
84
86
91
96
98
98
102
100
102
102
108
110
112
113
117
115
115
115
115
115
117
115
113
112
102
96
95
102
112
123
127
131
129
127
129
127
119
115
112
106
102
100
104
108
113
117
119
121
125
123
121
119
119
115
110
93
95
95
98
98
93
89
87
86
86
87
91
91
96
95
98
100
98
102
106
112
113
113
115
117
115
117
117
119
117
115
113
110
98
96
95
102
112
123
129
131
129
129
129
129
121
119
115
110
104
100
104
108
110
113
117
121
123
125
123
119
117
113
110
98
98
100
95
95
91
91
86
86
82
87
91
93
93
95
96
96
96
100
102
104
106
110
112
113
115
117
119
121
117
117
117
110
98
96
96
102
112
123
127
129
129
131
133
131
123
119
113
110
104
102
104
104
110
112
117
119
121
125
127
121
117
115
110
96
98
98
95
95
91
89
86
86
86
89
93
96
95
96
96
95
96
98
96
100
102
104
106
110
113
117
119
119
117
117
117
110
100
96
95
102
112
121
125
127
129
131
129
129
125
119
115
112
102
96
98
102
108
113
117
117
121
121
125
123
119
115
112
95
98
98
95
95
95
89
86
86
87
89
95
98
96
96
95
95
95
96
95
96
98
104
104
106
112
117
117
115
117
115
112
108
100
95
96
104
113
115
123
127
129
131
129
127
125
123
119
115
106
100
100
106
108
113
117
117
119
121
121
123
121
115
112
95
95
96
93
93
91
89
86
87
89
91
95
98
96
95
96
96
95
95
95
93
95
98
100
106
110
113
112
112
110
110
110
106
100
95
96
106
115
115
121
127
129
129
129
127
125
123
119
117
110
102
100
104
106
112
115
117
119
121
121
123
121
115
112
93
95
96
91
91
89
87
87
87
91
91
96
96
95
93
95
96
95
96
96
91
95
98
100
104
106
106
106
106
108
112
108
106
100
91
96
106
115
117
121
125
129
129
129
129
127
123
123
119
112
108
104
104
108
108
115
119
121
121
123
121
121
115
115
95
95
93
91
93
93
87
89
89
95
98
100
96
96
95
96
98
96
96
95
93
95
96
102
98
100
102
104
104
108
110
104
106
100
91
95
106
113
117
121
125
129
129
131
129
125
121
121
121
117
112
106
104
108
108
115
125
123
123
123
123
121
117
115
95
93
91
91
91
91
91
93
91
96
100
100
98
96
96
96
96
95
96
96
98
98
100
106
104
102
98
100
102
108
108
102
100
96
89
93
104
112
115
119
123
127
133
133
129
125
123
123
125
123
113
108
104
106
108
115
123
127
127
127
127
125
121
117
95
93
91
89
89
87
93
95
95
95
96
100
96
95
96
95
96
93
98
96
96
100
98
106
104
100
98
98
102
102
102
100
98
93
93
93
100
108
115
119
123
127
131
129
127
125
125
125
123
121
115
108
104
102
106
113
121
127
125
127
127
127
123
119
95
91
91
89
89
89
93
95
96
93
98
100
96
96
98
96
95
96
98
98
98
98
98
104
102
102
100
102
106
106
104
98
98
95
93
95
96
106
112
115
117
121
123
123
123
125
129
129
125
123
117
112
102
102
106
112
117
127
127
127
125
125
125
123
93
93
89
91
91
91
95
96
98
96
98
100
98
96
96
96
95
96
98
96
98
98
98
102
104
104
104
104
106
104
102
98
96
95
91
91
93
100
110
112
112
115
117
117
119
123
129
127
127
123
119
115
108
106
106
112
117
127
133
129
127
129
127
123
91
87
87
93
95
95
96
96
100
98
98
100
100
98
98
98
96
91
93
96
96
96
98
100
98
102
104
104
102
102
102
96
98
95
91
89
93
96
106
108
108
112
112
115
115
119
125
125
127
125
119
117
112
108
108
108
115
123
133
133
133
131
127
119
93
91
93
96
96
98
102
100
98
98
98
96
96
98
98
96
98
95
95
96
95
95
98
98
100
102
104
106
104
102
102
100
100
98
95
91
91
95
102
106
108
112
112
112
113
117
121
125
123
123
123
119
113
108
108
106
112
121
127
131
133
131
127
119
95
96
98
96
98
96
102
104
102
98
96
95
96
96
96
98
98
96
96
95
98
98
96
98
100
104
104
106
108
104
102
102
104
102
100
95
93
93
100
104
108
108
110
112
113
113
119
123
121
119
121
119
113
108
106
104
112
117
125
129
129
127
127
125
98
102
100
98
98
98
102
100
98
100
100
98
98
96
96
98
100
95
95
95
95
95
95
96
98
100
104
108
110
108
106
106
102
104
100
98
95
93
98
104
106
110
108
112
112
112
117
121
119
119
121
119
112
106
102
104
110
113
119
127
129
129
127
125
100
102
100
100
102
100
102
102
102
102
102
102
100
96
98
98
98
96
96
96
96
98
96
96
98
100
106
110
112
112
110
106
102
104
102
98
95
95
96
102
108
110
110
112
113
115
119
117
115
117
121
115
112
108
106
106
106
110
113
121
127
131
129
125
98
98
98
100
102
102
102
102
104
104
102
102
100
98
96
96
96
96
95
96
95
95
95
95
96
102
108
112
110
110
110
106
106
104
102
98
95
96
98
100
106
104
108
112
113
115
115
113
115
117
117
113
112
110
106
106
104
104
108
113
119
127
127
123
100
98
100
100
100
100
102
102
104
104
102
106
106
98
98
98
98
100
96
96
96
93
93
95
100
104
108
112
115
112
110
108
108
108
102
102
102
98
96
96
102
100
106
108
113
117
113
113
115
113
115
112
112
112
108
106
100
102
104
108
112
117
121
121
102
100
100
102
104
102
106
106
106
106
104
106
106
100
102
100
100
100
96
96
93
91
91
96
104
108
108
113
115
115
112
110
108
112
106
104
102
102
95
100
100
98
104
110
112
115
113
115
113
113
113
110
110
110
106
104
102
98
102
104
106
112
115
119
102
104
104
104
106
106
104
108
110
106
106
106
102
102
102
102
100
100
98
95
95
93
95
98
104
108
110
113
115
113
110
108
110
115
110
106
102
104
100
96
98
98
102
106
112
113
112
113
117
117
117
112
108
110
110
108
104
100
100
102
102
108
112
115
102
104
104
104
102
104
102
104
106
104
108
106
102
104
104
104
100
100
98
96
95
95
96
100
106
108
112
113
112
112
112
112
113
113
112
110
106
104
100
100
100
96
96
102
108
110
110
113
115
115
115
115
112
112
112
112
108
104
104
104
100
102
110
112
104
106
106
102
102
102
102
102
104
106
104
104
102
104
104
102
96
98
98
93
95
96
98
102
106
106
110
113
112
110
108
112
113
113
110
106
106
104
104
102
100
96
98
98
104
110
113
113
115
115
115
113
113
113
113
115
112
108
106
104
100
98
106
112
110
110
106
102
104
100
106
104
104
104
106
104
104
100
100
98
96
98
98
93
95
98
102
106
110
110
110
112
113
112
110
110
113
112
110
106
106
102
100
98
96
96
98
98
102
108
113
113
117
117
119
117
115
113
115
115
113
112
108
104
102
98
104
112
104
108
106
108
108
108
106
104
104
104
102
106
106
100
100
100
98
96
96
93
96
102
106
112
112
110
112
115
112
110
112
112
115
115
113
110
108
102
102
100
95
93
93
95
98
104
110
113
115
117
119
117
119
117
117
117
117
113
112
108
102
102
106
110
104
106
106
106
108
110
108
102
102
102
100
104
102
100
98
96
95
95
93
93
98
104
108
112
110
108
113
115
110
108
112
112
113
113
113
112
112
108
108
104
93
89
91
91
96
102
106
113
117
117
117
117
115
115
113
117
117
113
113
110
108
110
112
113
106
108
104
102
106
108
106
104
104
102
100
102
102
98
98
96
93
91
93
96
98
104
108
110
110
110
108
106
106
108
117
119
115
113
113
112
113
112
110
104
93
89
89
91
95
100
102
110
115
113
115
119
119
115
113
115
115
117
113
108
112
113
113
113
108
106
104
102
108
104
106
104
104
104
102
102
102
98
100
96
95
91
95
95
98
104
104
108
110
110
104
102
104
110
117
119
117
115
113
113
113
113
113
104
93
89
89
91
93
96
100
104
112
113
117
119
117
113
113
113
113
117
113
112
113
115
117
119
108
106
106
106
108
104
106
104
104
106
108
106
104
104
102
95
95
95
95
95
100
106
104
106
110
108
104
104
108
113
117
117
119
119
117
121
117
115
113
106
96
89
87
87
93
95
98
102
106
112
115
115
117
112
112
112
113
113
112
113
115
115
117
119
108
106
106
108
106
104
104
106
106
108
112
108
104
102
100
93
93
95
96
96
98
102
104
106
108
108
104
104
112
117
115
119
119
121
119
119
121
117
113
108
100
93
87
86
89
95
95
100
104
110
112
115
113
112
112
113
113
117
115
115
117
119
117
117
110
108
108
108
104
102
104
106
106
108
110
110
102
102
98
95
93
93
95
96
96
98
100
104
106
106
104
104
112
117
117
121
123
123
121
121
121
121
115
112
104
96
89
87
86
91
95
100
102
110
112
112
110
108
112
113
115
119
119
119
121
119
113
113
110
112
108
106
104
106
104
104
106
106
110
110
102
100
96
96
95
96
98
98
96
98
102
102
104
102
98
104
110
113
117
119
119
121
119
117
117
117
113
112
106
98
93
91
87
89
95
100
100
108
110
112
110
106
110
113
117
117
117
117
119
119
117
117
112
112
110
106
108
108
104
104
106
106
108
108
102
98
96
96
95
96
100
100
96
96
100
100
102
100
100
106
112
113
113
117
115
119
121
117
115
112
112
112
106
98
95
93
91
89
93
95
100
106
108
112
110
108
112
115
117
117
119
121
117
119
119
117
112
110
106
108
104
108
108
104
102
104
104
104
100
95
93
95
95
100
100
98
100
100
100
102
102
96
98
106
112
112
112
112
113
117
119
117
115
112
112
113
108
100
98
93
89
91
95
95
102
106
108
108
108
106
110
112
113
117
115
119
119
119
117
117
112
112
106
108
106
110
110
104
104
104
104
104
100
95
91
93
95
98
100
96
96
100
104
102
102
95
96
106
113
110
108
110
110
112
113
112
113
115
115
113
110
102
98
93
91
91
93
98
102
108
110
108
108
106
110
112
110
112
113
115
117
117
115
117
