P2
# 142 of 608 Angiograms
64 64
255
123
127
129
131
135
135
133
131
129
129
129
129
131
139
144
148
148
148
146
146
144
144
144
146
146
144
146
148
150
154
156
156
156
154
152
156
156
154
156
152
154
152
150
148
142
144
144
144
146
148
150
152
156
156
158
159
159
161
161
163
165
168
172
172
121
123
127
131
133
135
135
133
131
129
129
127
131
135
142
146
148
146
148
146
146
146
146
148
146
144
148
148
152
152
158
159
158
158
158
158
158
158
156
152
152
152
150
148
148
148
148
150
154
156
158
159
159
159
158
159
163
163
163
163
167
167
170
172
121
121
125
129
133
133
131
131
131
131
127
129
129
135
142
146
148
148
148
146
148
146
146
146
142
144
148
150
152
154
156
161
163
163
161
159
158
156
156
156
152
152
150
148
148
150
152
156
158
161
163
163
159
158
158
158
159
161
161
163
165
167
168
170
119
119
119
125
129
131
131
131
129
129
127
127
129
133
141
146
148
148
150
148
150
148
146
144
142
144
148
150
154
156
156
159
163
163
163
163
159
158
158
156
154
154
152
152
152
154
158
161
163
165
165
165
161
158
158
161
161
161
161
165
165
167
167
170
115
115
117
119
123
125
129
129
127
125
125
127
129
133
141
144
144
146
148
146
148
148
150
146
144
146
146
148
154
156
156
156
161
163
161
161
159
159
159
156
156
154
156
158
158
159
163
165
167
167
167
167
161
161
161
163
161
161
163
165
167
168
167
167
119
113
115
117
119
123
125
127
125
123
123
125
127
129
137
141
142
146
150
150
150
150
148
148
146
146
146
148
154
156
154
154
158
161
161
161
161
161
161
158
156
158
159
161
163
165
167
168
168
168
168
167
165
163
163
161
161
163
165
165
165
167
165
165
119
117
117
117
117
119
121
123
125
123
123
125
127
129
129
135
139
142
148
152
150
150
150
150
148
148
146
148
154
158
156
154
156
159
163
163
163
163
161
159
159
163
165
165
167
168
168
170
172
172
170
168
167
167
165
161
161
163
161
161
159
158
158
159
125
121
119
119
117
115
117
117
119
121
123
125
123
125
127
129
135
139
144
148
148
148
146
146
144
142
144
146
150
158
158
156
158
159
163
163
163
165
163
163
167
167
168
167
170
170
168
172
172
172
172
170
167
165
163
161
161
159
159
159
158
154
152
152
127
125
121
119
117
115
115
112
113
117
119
121
117
119
123
127
129
133
139
141
141
137
133
131
131
129
129
137
144
154
158
158
158
161
163
165
165
167
168
170
170
172
172
170
172
170
170
170
170
170
168
167
167
165
161
161
159
159
159
158
154
152
150
150
123
125
123
115
113
112
112
113
113
117
117
119
117
117
121
123
125
127
131
131
129
127
123
121
121
117
115
119
131
146
156
158
159
161
163
167
167
168
170
173
173
173
173
172
173
173
172
170
168
168
168
168
168
167
161
159
158
158
158
156
152
148
146
148
125
125
123
115
113
112
113
115
115
117
115
115
115
113
119
119
121
121
121
119
117
117
117
117
119
113
104
106
115
135
148
156
159
163
161
163
165
168
170
173
175
175
173
173
173
172
170
167
165
167
168
168
168
167
165
163
161
159
158
156
154
152
152
152
127
129
127
119
115
113
115
115
115
117
115
115
113
115
117
117
119
115
112
110
110
113
119
119
119
115
104
100
108
125
144
154
158
159
159
159
159
163
167
170
172
170
170
167
167
167
165
165
165
165
167
168
170
170
168
168
165
161
159
159
158
156
154
154
127
129
127
123
119
117
117
117
115
117
117
117
112
112
112
115
115
110
104
102
106
112
119
123
125
121
110
104
108
123
141
154
156
158
156
158
158
158
159
163
163
163
161
159
161
161
161
163
163
163
167
168
170
172
172
170
167
159
159
159
159
158
158
156
129
127
129
127
123
119
115
117
119
121
119
117
113
110
112
113
112
104
96
98
106
113
121
131
133
123
113
108
110
121
141
152
154
154
154
154
156
156
156
158
158
156
156
156
156
158
159
159
159
161
165
168
168
168
168
167
163
159
159
159
159
159
158
158
133
131
129
127
123
121
121
119
119
119
117
117
113
113
113
113
108
98
96
100
106
117
129
137
135
123
110
110
113
125
146
150
152
152
150
150
152
152
152
152
152
152
152
154
154
156
158
159
158
158
163
163
161
158
156
156
154
152
154
154
154
156
156
158
133
129
127
127
123
121
123
123
121
117
115
117
115
115
115
112
104
100
98
104
110
121
133
137
131
117
106
106
115
131
148
150
152
152
152
148
150
150
150
150
150
148
150
152
152
156
156
156
156
154
152
150
144
141
139
139
139
139
137
137
139
139
142
144
131
131
129
127
125
125
127
123
123
119
119
115
117
115
117
112
104
102
102
106
113
123
131
131
127
117
108
110
121
137
150
154
156
156
156
152
148
146
144
146
146
148
148
150
152
154
154
152
148
142
137
129
125
121
121
121
121
119
119
117
117
121
125
127
129
131
131
129
129
127
127
123
123
121
121
115
115
113
113
108
108
106
106
110
117
125
127
127
125
119
113
117
129
141
152
154
156
156
152
150
146
141
135
135
139
144
146
146
146
146
144
141
137
127
121
115
110
104
102
102
104
104
104
106
110
112
112
112
129
129
131
133
133
129
127
127
125
123
117
113
113
113
110
108
106
106
108
113
121
125
123
123
121
121
121
125
133
144
152
152
152
150
150
144
139
131
123
119
121
127
135
135
135
133
129
127
123
117
112
106
102
96
95
95
95
96
96
98
100
102
102
102
129
129
133
133
129
129
131
127
129
125
117
113
112
112
108
104
106
108
112
121
125
127
125
119
121
125
123
123
131
142
148
150
148
142
139
135
127
115
110
104
104
112
119
121
121
121
121
121
117
112
104
100
98
96
96
95
95
93
91
91
91
93
95
96
131
133
135
131
129
127
129
129
129
123
119
119
115
112
106
102
106
112
117
125
129
129
123
119
121
121
117
117
123
131
141
142
137
125
121
115
110
106
102
100
98
102
112
117
119
121
125
119
113
108
104
100
100
98
96
95
96
93
93
91
91
93
96
100
133
133
133
129
129
129
127
129
127
119
117
115
113
106
100
100
104
112
117
123
127
125
119
113
113
112
108
108
110
115
121
121
112
102
98
95
93
93
95
96
98
100
110
119
123
123
123
121
113
108
108
106
106
104
104
98
96
95
96
95
96
100
106
108
135
131
133
131
129
131
127
127
125
119
115
112
104
98
96
98
106
108
117
117
119
117
110
104
104
102
98
93
91
91
87
86
81
77
77
76
77
81
86
91
95
102
112
121
127
129
129
129
121
117
115
115
115
117
113
112
108
104
106
108
108
112
115
119
133
131
131
133
131
131
129
127
123
117
112
106
96
93
91
95
102
106
110
113
112
108
104
100
100
96
89
81
76
72
68
68
68
68
69
74
77
81
84
89
96
106
115
127
139
144
144
141
135
131
131
133
133
131
127
121
119
119
119
121
123
125
131
131
127
127
127
129
127
127
125
121
113
108
102
95
89
84
87
91
98
102
104
108
106
104
100
98
95
89
79
72
71
69
68
69
71
76
82
86
87
89
93
98
102
112
117
129
146
156
156
154
150
146
144
144
146
146
144
142
137
137
135
135
137
141
144
144
119
117
117
117
119
115
112
104
98
89
84
81
79
77
81
86
89
95
96
98
98
96
96
95
89
81
74
71
72
76
81
84
89
95
98
102
102
102
104
106
108
112
115
123
141
154
158
154
154
152
154
156
158
158
156
152
148
148
146
146
146
150
152
150
108
102
100
96
91
89
86
84
79
74
71
68
66
68
74
79
82
84
86
87
87
87
86
86
82
81
77
79
86
95
104
110
112
110
108
108
108
110
110
112
110
108
110
117
131
148
154
154
154
156
158
159
161
161
163
158
152
150
152
150
150
154
154
150
87
82
77
72
69
66
66
66
65
63
62
60
60
65
72
79
79
77
77
76
76
76
76
74
76
79
81
87
100
115
125
131
125
119
112
106
104
106
108
110
112
110
110
115
123
137
148
150
152
158
158
159
161
161
165
161
154
152
154
154
158
156
152
148
71
66
62
59
59
59
58
59
58
58
56
58
60
63
69
77
77
76
72
68
68
65
63
63
69
77
87
104
117
131
141
142
135
125
108
98
96
102
106
110
113
110
110
113
115
125
137
142
148
154
158
159
161
163
165
161
156
154
158
159
159
158
152
146
60
58
56
56
55
56
56
56
58
58
56
60
63
65
71
77
77
76
69
65
63
62
62
63
69
79
96
117
133
142
146
146
141
129
104
93
91
98
108
112
117
115
113
110
112
117
121
131
139
144
148
154
158
159
161
158
156
158
161
163
163
159
154
146
56
58
56
56
55
59
60
58
60
60
59
63
66
69
76
79
76
76
68
62
62
63
62
65
72
87
108
131
146
148
148
148
144
133
108
93
91
96
110
117
119
117
115
108
108
112
115
117
123
129
135
141
144
152
154
156
154
158
163
167
167
163
156
148
55
56
56
58
58
62
62
60
62
62
65
66
69
74
79
81
77
76
66
59
60
60
63
69
82
102
123
142
150
152
152
150
148
135
112
96
91
98
112
121
123
121
117
108
106
112
115
115
115
117
121
125
129
135
142
150
154
158
165
167
165
161
156
150
56
55
58
56
56
59
62
62
63
66
71
71
74
81
81
81
79
77
68
59
58
62
68
82
100
117
133
144
150
154
154
152
148
141
115
100
93
98
112
123
125
123
119
112
110
113
113
112
112
112
112
113
115
121
129
139
148
158
161
161
159
158
154
150
56
58
59
59
60
63
65
66
66
69
72
77
82
86
86
84
82
79
74
68
66
72
82
98
117
125
133
144
150
152
156
150
150
141
121
106
96
98
106
117
125
123
121
119
115
112
108
106
108
104
104
104
104
110
113
121
135
148
158
158
158
152
150
148
59
60
62
63
65
68
69
71
72
76
81
87
91
91
91
87
86
82
79
76
79
87
98
115
121
125
133
141
148
152
156
152
150
141
129
113
104
104
106
115
125
127
129
129
123
117
112
108
108
106
102
98
98
98
104
110
117
133
142
146
144
142
139
139
66
66
66
69
71
72
74
76
79
84
93
102
102
96
93
87
84
81
81
84
91
100
112
121
121
125
131
137
146
152
152
150
148
139
129
121
113
108
110
115
125
131
137
137
133
127
121
113
110
108
106
98
95
95
95
95
102
112
121
123
123
121
119
121
72
74
76
79
81
82
84
86
87
95
104
112
110
100
95
87
82
82
84
89
100
112
121
125
123
127
131
137
144
146
148
148
144
135
127
125
121
113
112
117
125
133
141
141
139
135
129
121
113
112
108
100
95
89
86
87
89
93
100
106
106
102
100
102
86
84
87
93
95
98
100
98
98
102
108
113
108
100
95
89
84
84
87
96
106
119
127
129
129
129
133
139
142
144
144
142
139
127
125
125
121
119
115
117
123
129
133
137
135
133
131
127
117
112
108
102
95
86
81
79
84
87
91
98
98
96
91
93
100
102
106
108
112
110
108
106
104
104
108
110
100
95
93
89
84
82
91
100
113
123
129
135
133
131
135
137
139
141
141
137
129
121
119
121
121
117
115
115
117
123
125
127
125
123
121
121
115
110
108
104
98
89
82
76
81
86
87
93
96
96
95
95
115
117
119
119
119
115
110
106
104
104
106
102
95
91
89
89
86
86
93
106
117
125
129
133
133
131
133
135
135
135
133
127
121
117
115
119
115
112
112
110
108
112
115
115
117
119
119
117
113
113
112
110
102
98
95
91
87
86
89
89
93
98
102
100
123
127
125
121
119
115
112
110
104
104
100
93
89
87
89
91
89
91
98
112
121
125
125
127
129
129
129
129
127
125
123
119
113
112
115
119
113
110
110
110
108
104
108
112
119
121
123
121
123
123
121
117
112
106
104
100
95
89
91
93
96
102
104
106
127
127
123
119
117
117
113
115
108
102
95
86
84
84
87
91
93
96
102
113
119
119
119
119
119
121
121
121
121
119
115
112
106
108
117
117
115
113
115
115
113
112
112
115
121
127
127
125
129
127
127
125
119
115
113
112
106
98
96
98
102
110
115
117
127
125
121
117
119
121
119
115
110
98
87
82
81
79
84
89
96
100
102
110
112
112
112
113
113
117
115
113
113
113
112
108
106
113
119
117
117
121
125
125
119
117
117
119
123
129
133
127
131
129
127
123
123
119
119
119
117
110
106
108
112
119
127
131
129
127
125
123
125
127
123
117
108
95
82
77
79
79
86
95
102
104
102
106
106
106
108
113
117
117
117
110
110
112
108
104
110
119
119
119
119
125
127
127
121
119
119
121
123
129
133
127
129
127
125
123
125
125
127
125
121
117
113
112
119
129
135
141
133
131
129
127
129
129
127
117
104
87
74
74
77
82
93
104
106
106
108
113
113
110
110
113
115
115
117
110
104
106
104
104
113
121
119
115
117
123
127
125
121
125
125
123
121
127
131
129
125
123
121
125
127
129
131
131
127
121
119
115
121
133
141
146
133
131
133
133
131
129
123
112
95
82
72
72
76
87
102
110
110
112
117
121
117
115
112
113
117
117
117
113
106
102
98
100
112
119
119
115
119
123
123
123
125
127
127
125
121
125
129
131
125
121
119
121
125
129
129
133
133
129
123
121
125
131
141
148
131
133
129
131
129
125
113
100
86
77
71
71
76
93
110
115
115
119
123
123
121
119
119
119
121
119
119
113
106
98
95
98
108
113
115
117
121
123
119
121
129
131
131
127
121
123
127
129
123
119
115
117
123
127
127
131
135
133
129
125
123
131
139
148
131
131
129
131
129
119
102
89
81
76
72
69
81
100
115
119
123
123
125
125
119
119
125
125
125
121
119
112
100
93
93
98
106
112
115
119
123
125
121
123
131
133
131
127
125
121
121
129
127
119
115
112
117
125
129
129
135
137
131
123
123
129
139
146
129
127
127
131
123
106
91
81
77
77
76
76
89
110
117
121
123
125
125
121
117
121
125
127
127
125
117
106
93
89
89
95
104
112
113
119
125
125
123
125
133
131
129
131
127
125
123
127
129
121
113
110
112
119
125
129
133
137
133
127
125
127
133
144
127
127
129
125
110
95
86
76
72
76
77
84
100
115
119
123
127
129
127
123
121
123
127
127
127
125
117
100
89
87
87
93
100
110
115
119
121
119
119
129
135
133
133
133
131
125
123
125
129
123
113
108
108
115
123
127
131
133
133
131
129
127
129
139
129
129
127
113
96
86
81
72
71
74
82
95
112
117
119
123
127
129
127
123
123
125
127
127
125
125
113
95
87
84
87
93
98
108
117
123
119
119
123
131
135
135
131
133
131
129
125
123
129
123
113
108
104
112
119
125
129
131
133
133
133
129
129
135
129
129
119
100
87
81
79
74
72
79
91
108
119
125
127
125
127
127
127
125
127
127
127
127
127
123
110
93
87
87
91
95
100
108
119
119
119
123
127
133
135
135
133
133
133
127
121
123
129
123
112
108
102
108
117
123
125
129
133
133
133
127
127
131
129
123
108
91
82
81
77
76
77
86
102
119
125
131
131
131
129
125
121
123
127
131
127
127
125
119
108
93
89
93
95
98
104
112
117
117
117
123
131
133
135
133
133
135
131
127
123
123
127
123
112
108
106
108
115
123
125
131
133
135
135
131
129
131
125
115
98
89
81
81
81
79
82
98
115
127
131
135
135
133
131
125
119
119
127
131
129
125
123
115
108
95
93
96
98
98
106
113
115
113
117
123
133
133
133
133
135
133
131
127
123
123
127
123
112
108
108
112
113
119
127
131
135
137
137
135
133
133
123
108
93
86
81
81
81
82
93
113
127
133
135
137
137
133
129
125
123
123
127
131
131
127
123
113
106
96
96
98
102
100
108
112
112
112
117
123
133
133
133
133
135
135
133
131
125
123
125
123
115
110
108
112
117
119
123
129
133
139
142
139
137
131
117
100
89
82
81
81
81
87
104
125
133
135
135
135
137
131
127
125
125
127
129
131
129
127
119
112
102
98
96
96
98
102
112
113
110
110
117
123
131
131
133
133
133
133
135
129
127
125
125
121
117
112
108
113
119
123
127
133
139
141
146
141
137
127
110
95
84
84
82
82
87
100
123
133
137
135
135
139
135
131
129
129
129
131
133
131
129
125
117
106
100
98
95
95
98
106
112
110
106
108
117
123
129
131
131
131
131
131
135
129
125
121
121
119
115
112
112
117
121
127
133
139
141
144
144
142
137
129
102
89
82
84
82
86
96
113
131
139
139
137
137
137
135
131
133
131
129
129
133
135
127
121
113
102
96
95
93
95
102
106
106
106
106
110
117
121
125
127
129
129
129
131
131
127
123
119
119
117
113
113
117
121
127
135
139
142
146
146
146
144
137
131
95
84
79
79
82
91
108
125
135
135
135
137
137
135
135
131
131
133
133
135
135
137
131
121
110
102
96
93
93
95
98
102
102
102
104
110
115
119
123
123
123
125
127
129
129
123
123
119
117
119
117
117
121
125
133
139
141
144
146
148
150
144
139
137
86
81
81
79
86
102
119
133
137
137
139
137
137
135
133
131
131
135
137
137
135
135
129
121
112
102
96
95
95
96
98
98
96
98
100
110
115
117
119
121
121
125
125
127
127
123
121
119
115
117
119
123
125
131
137
141
144
148
148
150
150
146
142
139
81
81
82
84
95
113
129
137
139
141
139
139
137
135
135
133
133
135
137
139
135
131
125
123
112
104
96
95
100
104
102
98
93
98
100
108
113
115
117
119
121
119
123
127
125
125
121
117
112
113
119
127
129
133
137
142
144
146
148
150
150
146
144
141
81
81
84
91
108
123
135
141
142
141
139
139
137
135
135
135
133
133
137
135
131
127
129
125
113
104
100
100
108
106
106
102
98
96
100
106
108
112
115
117
117
121
127
129
129
127
123
115
110
115
123
131
133
135
137
139
142
146
148
148
148
148
146
142
77
82
91
100
117
131
137
139
142
142
141
137
135
133
133
133
131
131
129
131
131
131
131
127
113
104
98
104
108
108
106
106
104
102
104
108
108
108
110
113
115
121
123
127
131
129
123
115
113
119
127
133
135
135
137
141
141
142
146
150
148
148
144
141
81
86
96
108
119
131
135
137
141
141
137
133
129
127
127
127
129
131
125
125
129
129
129
123
115
104
96
98
104
106
110
113
112
108
108
110
112
108
106
110
113
121
123
125
127
125
119
113
113
123
131
135
139
137
139
137
139
141
146
148
146
146
144
139
