P2
# 144 of 608 Angiograms
64 64
255
117
119
125
127
129
131
133
133
127
127
127
127
131
137
141
148
148
148
150
150
148
146
146
144
144
146
144
142
144
148
150
150
146
142
142
144
146
148
148
150
154
156
156
156
154
152
148
142
141
139
135
129
129
131
135
139
139
142
144
148
154
156
159
165
113
117
123
127
129
131
133
131
129
129
129
125
127
135
141
148
150
152
152
150
146
144
144
146
146
146
144
142
142
144
148
148
146
144
142
144
146
148
150
154
156
156
156
154
152
150
146
144
141
141
135
131
133
137
141
142
142
144
146
146
152
156
158
163
112
115
119
123
127
129
129
127
129
129
129
125
127
135
142
148
152
154
154
150
146
144
144
144
144
144
142
142
142
144
146
150
148
146
144
144
146
150
152
154
154
154
156
152
150
150
148
144
141
139
137
137
141
142
144
144
146
148
148
148
150
156
158
163
108
115
117
119
121
123
127
129
127
127
125
123
127
133
142
148
150
150
152
148
144
146
144
144
144
142
141
141
144
144
142
146
148
150
150
150
152
154
156
154
154
154
154
152
152
148
146
144
142
142
142
146
150
150
150
150
152
154
152
150
152
156
158
163
108
110
113
115
115
121
123
123
123
121
123
125
125
129
139
146
148
148
150
148
146
146
144
144
142
141
137
139
144
144
142
142
148
154
156
156
156
158
158
154
156
154
152
152
150
148
146
144
144
146
150
156
158
158
156
154
154
154
152
152
154
156
158
161
110
110
112
115
117
119
117
121
123
123
123
123
123
125
135
144
146
150
152
148
150
150
146
144
141
137
135
141
144
146
144
144
150
156
158
159
159
159
158
158
156
154
152
152
148
148
148
148
150
154
158
159
161
161
159
156
154
152
152
152
156
156
156
159
113
112
113
113
115
115
115
115
119
121
121
119
121
123
129
139
142
146
150
150
150
148
144
142
144
139
137
142
146
146
146
146
150
156
159
159
163
163
159
158
158
156
154
152
150
152
152
154
156
159
159
161
161
163
161
158
154
152
152
152
154
154
154
156
117
113
113
112
112
113
119
115
115
117
121
121
121
121
125
133
137
141
144
148
146
144
142
141
141
141
135
142
146
146
148
150
150
154
158
158
161
163
163
161
158
158
156
154
154
156
158
159
161
163
163
161
159
159
158
154
152
148
148
152
154
152
150
152
117
113
113
113
112
115
119
117
115
115
119
121
119
121
125
127
133
135
141
142
142
142
144
142
141
137
135
142
148
148
148
152
152
154
156
158
158
159
163
161
158
158
158
158
158
159
161
163
165
165
163
159
158
156
152
150
148
148
150
152
152
150
148
148
117
115
115
113
113
115
115
115
115
115
115
119
119
119
123
125
127
131
135
139
141
139
141
141
135
131
133
141
146
150
150
152
152
154
154
154
156
158
159
159
159
158
159
159
161
161
165
165
165
163
161
159
156
152
150
150
152
150
152
154
152
152
150
150
121
119
117
113
113
112
113
115
115
117
113
115
117
117
121
123
125
127
131
135
141
139
137
139
133
131
131
137
144
146
150
152
150
150
148
150
152
156
156
156
156
158
158
159
161
163
163
163
163
161
159
156
154
154
154
156
158
154
154
154
154
154
152
154
125
125
121
117
113
115
115
115
115
115
113
113
115
115
119
119
121
125
129
133
137
139
135
135
133
131
131
137
141
146
148
150
148
148
146
146
150
152
154
152
154
156
158
158
158
159
159
159
159
158
158
158
158
159
159
161
158
156
156
156
158
158
156
158
129
129
127
121
115
115
115
115
117
115
113
115
115
115
117
117
119
121
125
131
133
133
131
131
131
133
135
139
141
142
144
146
146
146
144
144
150
154
152
150
152
154
156
156
156
154
154
154
154
156
158
159
161
163
161
161
158
156
158
159
161
163
161
161
131
129
127
127
121
115
115
115
115
113
115
117
119
119
117
119
119
119
123
127
131
131
131
131
131
135
139
142
142
142
144
144
144
144
144
146
152
154
154
152
152
154
156
156
156
154
154
154
156
156
159
163
161
163
161
161
159
158
159
163
165
167
165
165
131
129
131
129
125
119
117
117
119
115
119
121
121
119
119
121
117
119
121
125
129
131
133
133
135
137
141
142
142
142
141
141
141
142
146
150
154
152
152
154
154
158
158
154
152
150
150
152
154
154
158
161
161
161
161
161
159
159
163
167
168
170
168
167
131
131
133
131
129
125
119
119
119
117
121
119
121
119
121
121
121
119
121
121
127
131
133
135
137
139
141
141
141
139
133
127
127
131
141
150
154
154
152
156
156
158
154
150
148
148
146
150
154
154
154
158
159
159
159
159
161
163
167
167
168
170
170
168
133
131
133
131
129
127
123
119
117
117
121
121
125
123
125
123
123
121
117
117
123
129
133
139
141
137
135
133
129
129
121
117
113
117
129
146
152
154
156
158
156
156
152
148
148
150
150
152
156
154
152
152
154
156
156
158
161
165
167
168
168
170
170
170
131
129
131
131
129
125
125
119
115
115
119
123
123
123
127
125
123
121
115
119
123
125
133
139
139
135
127
123
121
121
119
110
102
106
119
141
152
156
154
156
156
156
154
152
152
152
154
156
158
156
154
152
152
154
156
158
161
163
163
167
168
168
167
163
127
129
131
129
127
127
123
121
119
115
117
119
123
123
127
127
125
121
121
119
119
125
133
137
133
127
119
119
119
121
121
108
102
104
117
137
150
154
154
152
154
156
152
150
152
156
158
158
159
158
154
152
154
154
154
158
161
161
161
161
161
161
159
156
125
127
133
131
131
127
123
119
119
117
117
121
121
119
123
125
125
123
123
123
119
125
131
131
125
123
119
119
125
129
127
115
106
108
115
135
150
154
152
152
150
152
152
150
152
158
159
161
161
159
156
152
154
156
158
159
159
156
154
150
146
144
142
141
127
127
131
129
129
123
123
125
121
119
119
121
119
119
121
123
125
123
125
125
123
129
129
125
121
119
119
121
129
133
131
119
115
115
121
139
150
152
152
150
148
148
152
152
154
158
159
159
159
158
154
152
156
158
158
156
152
142
135
127
123
123
123
121
127
127
127
129
127
125
125
127
125
121
121
123
121
119
121
121
119
121
125
127
127
131
125
117
112
113
119
125
133
139
135
121
117
117
125
142
150
152
152
150
150
150
152
156
156
156
156
156
154
152
152
152
154
152
150
144
137
123
115
110
104
104
104
104
125
127
129
127
127
127
127
127
127
125
123
123
121
117
119
119
117
117
123
125
127
127
121
113
108
112
121
131
141
142
131
117
112
117
133
146
152
150
150
150
154
154
152
156
159
156
154
152
146
144
144
144
144
141
133
127
117
108
102
96
93
93
95
95
125
127
127
127
129
129
127
129
131
125
121
123
119
119
121
119
119
117
121
123
125
121
117
110
108
112
121
133
142
139
127
113
112
121
139
150
154
154
152
152
154
154
154
152
152
150
146
142
137
133
131
129
127
123
119
115
108
102
96
91
87
86
87
89
125
123
125
125
129
131
129
131
131
127
125
127
123
121
121
121
117
117
121
121
121
117
113
110
113
115
123
133
137
133
125
119
119
127
144
154
156
156
154
150
152
152
148
142
133
127
125
123
119
119
119
119
119
117
115
110
104
98
93
89
89
87
86
87
125
125
125
123
125
129
127
129
129
127
127
129
127
123
121
119
119
119
121
121
119
117
110
110
113
117
125
131
133
131
127
127
129
135
148
156
158
154
152
150
146
141
133
119
108
100
98
104
108
113
117
119
117
117
113
108
102
95
89
86
87
87
87
87
123
125
125
121
123
125
125
127
127
123
123
127
127
125
121
121
119
121
121
117
115
112
108
112
115
123
127
131
129
129
133
135
135
137
146
152
152
148
142
135
127
121
110
96
93
89
89
96
106
113
119
121
121
115
113
108
102
96
91
87
87
89
89
89
121
123
123
121
121
123
123
125
127
125
125
127
127
125
123
119
117
119
117
113
110
108
108
113
119
127
127
131
131
131
135
137
135
139
142
146
142
133
119
110
104
98
91
89
91
93
95
98
110
119
125
127
123
119
115
112
106
100
96
96
96
98
98
96
119
121
123
121
121
125
121
123
127
129
127
125
125
127
125
121
119
119
113
108
106
104
110
115
125
129
131
129
127
129
133
135
133
131
131
131
123
112
98
91
84
82
81
84
86
89
95
104
119
133
141
141
137
131
125
119
115
108
108
108
110
112
110
110
119
119
119
121
121
123
123
121
125
127
125
123
121
123
119
115
117
115
108
102
102
106
112
119
125
129
131
129
127
127
129
125
119
113
110
108
104
98
91
89
84
79
79
81
86
91
100
113
129
142
152
154
152
146
144
139
133
129
129
129
129
127
127
125
117
119
119
121
123
123
123
121
125
123
121
121
119
119
113
110
113
110
104
98
100
104
110
117
119
121
121
119
119
119
113
106
98
95
95
96
96
96
96
100
98
98
95
95
96
102
113
123
131
148
161
161
159
158
156
154
152
152
152
150
150
146
142
141
115
117
119
123
121
119
119
117
117
117
117
115
113
110
108
106
102
100
95
91
93
96
102
102
104
106
106
106
104
100
93
86
84
82
86
91
98
100
106
112
121
121
119
117
117
117
125
127
131
146
158
159
159
158
158
161
161
161
161
161
158
154
150
148
115
113
117
119
115
113
110
106
100
102
102
100
95
89
86
84
79
76
74
74
77
81
84
86
89
89
87
82
81
79
77
76
76
77
84
93
100
108
112
117
125
131
133
135
137
135
133
131
127
139
152
158
159
159
161
163
163
163
165
165
161
158
154
152
113
110
106
102
96
93
89
86
84
86
84
82
77
74
71
69
66
63
63
65
68
71
72
74
74
72
68
65
63
66
71
72
74
79
89
100
106
110
112
112
115
123
129
133
139
141
135
129
129
141
148
152
154
159
161
163
165
163
165
165
161
158
156
156
102
95
89
86
79
77
72
71
71
69
68
66
65
63
62
59
56
56
59
60
62
62
63
63
62
58
55
56
55
56
65
72
79
87
98
108
110
113
108
100
98
106
115
125
133
137
135
131
137
144
148
144
148
152
156
159
161
161
161
161
159
158
154
154
87
82
77
74
71
68
66
63
63
62
62
60
59
58
56
54
54
55
58
60
60
60
59
58
56
54
52
55
56
60
68
77
91
104
113
113
113
113
102
91
84
87
102
115
127
133
137
137
142
146
148
146
146
148
150
152
154
158
158
156
156
154
152
152
79
72
69
69
66
63
62
59
59
58
58
56
56
54
55
56
56
56
60
62
60
63
63
60
55
55
55
56
60
68
77
91
110
123
127
127
121
115
102
84
76
77
87
104
117
123
133
137
141
144
148
150
146
148
152
150
150
150
152
156
156
152
152
150
71
66
66
65
60
58
55
56
58
56
56
56
58
56
56
58
59
63
63
65
68
71
65
58
55
56
58
62
68
77
93
113
131
139
141
137
131
125
112
89
74
71
77
91
106
117
123
127
131
137
144
150
150
152
152
150
150
148
148
152
156
156
152
148
66
68
65
63
60
55
54
55
56
58
59
60
60
62
60
60
65
68
69
72
77
77
69
62
58
58
62
71
81
95
115
133
144
148
148
146
142
137
123
98
77
68
71
81
96
108
113
117
123
127
139
144
150
150
150
148
146
144
144
146
152
158
156
150
66
68
65
62
62
56
54
55
59
59
59
62
62
65
65
66
69
72
77
81
82
79
74
69
65
65
71
84
98
117
131
141
148
150
148
148
148
144
133
112
86
74
71
74
84
96
104
108
113
119
127
137
144
146
144
144
142
141
141
142
148
152
156
154
66
68
66
62
62
58
55
58
60
62
65
65
65
68
71
74
77
84
87
89
86
82
79
77
74
76
87
102
119
131
137
142
148
148
150
152
152
148
139
121
100
84
76
76
82
91
98
100
108
110
113
121
131
137
137
137
135
135
133
135
139
142
148
152
66
66
65
60
62
63
65
63
65
69
72
76
76
77
81
87
93
93
91
89
86
82
82
84
86
91
100
117
131
137
139
141
144
146
146
150
150
146
141
127
115
98
87
82
84
89
95
98
102
104
104
110
113
119
123
127
129
127
125
123
127
133
139
144
68
65
65
65
68
69
72
76
77
81
84
89
89
89
91
98
104
100
93
86
82
82
84
86
93
98
110
127
137
141
139
137
141
144
146
148
146
142
137
127
119
113
104
95
93
93
95
98
98
102
102
102
106
108
108
110
110
112
110
112
115
125
133
137
69
69
72
76
79
81
84
87
89
95
98
100
100
98
100
106
110
104
91
82
79
79
82
87
95
106
119
131
137
137
137
135
137
142
146
146
142
139
133
125
121
117
113
108
104
102
104
102
100
100
100
98
100
96
96
95
96
98
98
100
106
113
121
129
76
81
87
91
95
96
98
102
104
108
110
110
104
104
104
110
110
100
89
81
77
77
82
87
98
110
123
133
135
135
135
131
135
139
142
144
141
135
129
121
119
117
112
110
108
113
112
106
102
98
96
95
93
87
82
82
84
86
87
91
96
104
112
119
93
100
104
108
113
113
113
115
115
117
115
112
106
102
102
104
102
96
89
82
79
79
82
87
98
113
125
133
135
133
131
129
133
137
141
139
135
131
123
119
119
115
110
106
108
113
115
108
100
98
95
95
89
86
81
79
76
77
81
86
89
95
98
108
112
119
119
119
121
121
121
121
119
119
115
112
104
96
98
100
98
93
89
86
81
82
84
89
102
115
123
129
129
127
127
129
133
135
135
133
129
123
119
117
115
113
108
106
108
110
113
112
102
98
95
95
91
89
86
82
77
77
81
86
91
91
93
100
127
131
129
127
125
123
125
125
121
119
117
113
108
102
100
95
89
87
87
84
86
87
87
96
106
115
117
119
121
121
123
127
127
127
125
125
121
117
115
117
115
110
108
108
110
110
112
112
108
106
104
102
98
95
93
89
86
86
89
91
93
89
86
89
131
133
131
131
127
125
129
127
123
121
117
117
113
108
100
89
84
82
86
84
86
89
93
100
106
112
113
113
112
112
115
117
119
119
117
115
115
110
110
112
112
108
106
110
110
110
110
113
115
115
113
113
112
106
100
98
96
96
96
95
91
87
84
86
129
131
129
129
127
127
127
127
123
121
121
119
117
108
96
81
76
79
84
84
87
95
98
100
104
106
108
106
106
106
112
115
112
112
115
115
110
106
106
112
110
108
110
113
112
112
113
119
123
123
123
121
119
117
113
110
108
108
108
108
102
95
87
87
129
129
129
127
127
127
127
127
125
129
129
127
119
104
87
76
72
76
82
87
96
104
102
100
100
104
104
102
102
106
113
113
112
115
117
113
108
108
110
112
113
113
115
117
115
115
119
125
127
129
129
129
127
121
117
115
115
117
119
117
112
106
96
89
127
125
129
127
129
125
129
131
131
131
131
127
113
95
81
74
71
74
81
93
106
112
110
106
102
104
106
106
104
108
115
115
110
112
113
110
106
112
113
113
113
115
119
121
119
119
125
127
127
131
131
133
131
123
119
115
119
123
127
127
125
117
108
96
127
127
129
127
129
129
129
133
133
133
131
119
98
87
77
71
66
71
82
100
117
121
115
113
112
113
115
115
112
112
115
115
112
110
106
104
104
110
110
112
113
119
125
125
119
119
125
127
129
129
133
133
129
123
119
113
117
125
133
137
135
133
123
113
127
125
127
129
133
133
131
133
133
131
123
106
91
82
74
66
66
74
89
110
123
123
117
115
117
121
121
121
117
117
119
117
112
108
102
100
102
108
110
113
117
123
129
127
119
119
125
125
129
127
129
131
129
125
117
112
110
121
133
139
141
141
137
129
125
127
129
133
133
135
137
135
133
125
108
93
86
81
76
69
71
82
102
121
125
121
117
117
121
123
121
123
121
121
121
117
110
102
100
96
100
106
112
115
121
129
129
127
121
123
125
127
127
129
129
127
127
125
117
106
106
115
129
137
142
144
142
139
127
127
129
133
137
135
133
133
125
112
95
86
81
77
79
74
79
96
115
127
127
119
115
119
123
123
121
125
125
123
121
115
104
95
93
95
98
104
112
119
125
131
129
125
125
127
129
127
129
129
127
123
125
123
117
106
104
113
125
133
141
144
144
142
129
131
129
135
137
137
133
127
113
98
86
81
81
76
76
79
93
113
125
129
127
119
119
123
123
123
123
127
129
127
121
108
95
89
89
93
96
102
112
123
127
125
123
121
129
131
129
127
129
131
127
121
125
123
117
108
108
112
123
133
137
142
142
144
131
135
129
133
137
135
131
119
102
87
82
79
77
76
79
89
110
123
129
127
125
123
123
127
125
123
125
129
131
127
117
100
89
89
93
96
100
104
113
125
127
121
119
119
127
129
129
127
129
129
129
125
127
121
115
110
110
117
127
137
137
141
141
144
127
133
131
133
135
133
123
110
91
81
79
77
77
79
89
104
121
129
131
127
123
123
127
131
127
125
127
131
131
125
110
96
87
93
96
100
104
108
117
127
127
121
119
119
125
129
129
125
125
125
127
127
123
119
112
106
110
121
129
137
139
142
144
148
133
131
133
135
135
127
113
98
86
79
79
81
82
87
100
115
125
129
129
123
123
123
129
129
125
123
129
129
127
119
108
93
86
93
96
100
106
112
121
127
125
119
121
123
127
129
129
123
119
123
125
125
121
117
110
110
113
121
131
139
144
146
148
150
133
135
133
133
133
119
102
91
86
81
79
82
87
96
110
121
127
127
123
123
125
129
129
125
125
125
129
131
127
117
104
95
89
93
96
102
108
115
123
123
119
115
121
127
129
129
129
125
121
123
123
123
121
117
112
112
117
125
135
142
146
150
152
154
135
135
133
133
125
110
96
89
87
84
82
89
95
106
115
121
123
125
127
127
127
129
129
127
125
129
131
129
125
117
104
98
95
95
98
104
110
119
123
119
117
117
123
131
133
129
131
127
121
121
123
123
121
117
113
115
121
131
141
144
150
154
156
156
135
135
133
129
119
104
93
86
84
87
89
95
102
112
119
123
123
123
129
129
129
129
127
129
129
131
131
127
123
113
104
100
96
96
98
106
113
119
121
117
117
119
127
133
133
131
129
127
121
123
125
125
123
117
115
119
127
135
142
148
152
156
156
156
131
135
133
125
112
98
91
87
87
89
93
98
112
117
123
127
127
127
127
129
131
131
129
129
133
129
129
127
119
110
100
98
96
95
98
106
115
119
119
115
115
121
129
131
131
129
131
127
123
121
127
129
125
119
119
123
131
141
146
152
154
156
156
154
