P2
# 146 of 608 Angiograms
64 64
255
117
117
119
123
123
123
121
123
131
139
142
146
148
148
146
144
148
148
146
148
146
144
142
142
142
141
139
141
141
141
146
152
154
156
154
154
152
152
150
148
148
146
146
146
144
146
148
146
144
142
141
139
141
142
144
146
148
152
158
161
167
170
173
178
117
117
115
119
119
117
119
121
127
135
139
142
146
148
146
142
146
146
146
148
146
146
144
144
142
139
139
141
141
142
148
154
154
154
152
150
152
152
152
150
148
146
146
148
150
152
150
146
142
142
141
139
139
141
142
142
148
150
154
156
159
161
167
173
113
115
115
117
117
115
113
121
123
129
135
139
141
144
144
144
146
146
144
144
144
146
146
144
144
141
141
141
142
144
148
150
150
150
150
150
154
154
152
150
150
148
148
152
152
152
150
146
144
142
141
139
139
141
141
142
148
152
154
152
152
156
161
167
113
113
115
115
112
110
110
115
121
125
131
135
139
142
144
146
146
146
144
142
139
141
142
144
142
142
142
142
144
144
148
148
148
148
148
150
154
154
154
154
154
152
152
154
154
152
152
150
148
144
142
141
141
142
142
144
150
152
152
150
150
154
158
163
113
115
112
113
113
112
112
115
119
125
127
135
135
137
141
142
142
142
141
137
137
137
137
139
142
142
142
142
142
144
144
144
144
144
148
148
150
150
152
152
152
152
152
154
154
152
152
150
150
148
146
144
142
144
146
150
152
152
152
152
152
154
158
159
113
113
113
115
117
115
113
112
117
121
125
129
135
135
137
137
139
137
135
135
135
135
131
135
139
142
141
139
139
139
139
142
142
144
146
148
148
148
148
150
150
152
154
152
154
154
154
152
150
148
148
146
144
148
152
154
156
158
156
154
154
158
159
161
112
115
115
115
115
115
113
112
115
117
121
127
129
131
133
135
135
133
131
133
133
135
133
133
137
141
139
137
137
135
137
139
141
142
142
144
144
144
144
148
152
154
154
152
154
152
154
154
150
150
150
148
148
154
158
159
159
161
161
159
159
161
161
161
115
117
117
115
117
117
115
113
112
115
117
125
127
129
131
133
133
133
131
133
133
135
135
133
135
137
135
135
137
137
137
141
141
141
141
141
141
141
142
146
150
152
154
154
154
154
156
154
154
154
152
152
154
159
161
163
163
165
165
163
161
161
159
158
119
119
117
119
119
119
115
113
113
115
115
121
127
129
131
131
129
129
129
131
135
135
133
133
135
135
135
137
139
137
139
141
142
141
139
141
141
142
144
146
150
152
152
154
154
156
158
154
152
152
152
154
158
161
165
167
168
165
165
165
163
159
156
152
119
119
117
119
121
119
115
115
115
117
119
121
129
131
131
131
129
129
131
131
133
133
133
135
139
139
139
137
139
142
141
142
146
144
144
144
144
146
146
146
150
150
150
150
152
152
154
154
152
152
152
156
159
163
167
168
168
163
161
159
158
156
152
148
123
123
119
119
121
119
119
117
119
119
119
121
127
129
129
131
131
129
133
133
135
135
137
137
141
141
141
139
141
142
144
146
148
148
150
150
150
146
148
148
150
148
152
152
150
152
154
152
150
152
152
156
159
163
165
167
167
163
161
158
156
152
146
142
121
123
121
119
121
117
119
123
123
123
119
117
123
127
129
131
131
131
133
137
139
141
141
142
144
144
144
144
142
144
148
150
152
152
150
150
150
150
150
150
150
152
154
154
154
154
152
148
148
148
150
154
159
163
163
163
163
161
158
156
150
146
142
139
121
121
119
119
119
119
121
125
123
123
121
119
121
123
127
131
135
137
139
142
144
146
148
148
148
146
150
150
148
150
150
152
152
152
152
154
150
152
154
152
150
152
154
156
154
150
148
148
146
146
150
152
154
156
156
154
156
154
154
150
144
139
137
135
123
121
119
119
121
119
121
121
123
121
121
121
121
125
127
131
135
141
142
144
146
148
150
152
152
148
156
154
152
154
154
154
152
152
154
152
152
152
150
150
152
158
158
156
152
146
148
150
148
148
150
152
152
152
150
148
148
150
148
144
141
137
135
133
125
121
119
113
115
117
121
127
125
125
125
123
123
125
127
131
135
139
141
144
146
148
148
150
152
154
156
156
156
156
156
154
152
152
150
152
154
154
152
154
158
159
158
154
152
148
148
150
150
150
152
152
150
150
148
144
144
144
142
141
139
137
137
137
125
121
121
119
115
117
123
125
123
125
125
125
123
125
127
129
133
137
139
142
146
146
148
148
150
154
156
159
158
156
154
150
146
144
144
148
152
154
156
156
159
159
154
150
150
150
150
152
152
154
154
152
152
150
146
144
142
144
142
141
139
141
139
137
123
119
119
117
115
115
119
123
121
123
123
123
125
125
127
127
129
133
137
141
142
144
146
146
150
152
154
154
152
150
144
139
129
123
129
139
150
154
158
156
158
156
150
146
144
146
150
152
156
156
156
152
152
150
146
142
142
144
142
141
141
142
141
137
121
121
123
117
115
117
119
121
121
125
125
125
129
125
125
127
129
129
133
137
142
144
144
144
148
150
150
148
144
139
133
127
117
108
110
123
142
154
158
156
154
152
146
144
144
148
154
159
161
161
159
156
154
150
146
144
144
146
141
139
139
139
137
135
123
121
123
121
119
117
119
119
119
121
125
125
127
127
125
125
129
129
133
135
139
142
142
146
148
146
141
135
133
133
131
125
112
100
102
113
135
152
158
158
154
150
146
144
148
156
159
163
165
167
163
159
156
152
146
144
146
142
137
133
131
131
127
127
123
125
123
123
119
117
117
117
119
121
123
125
127
129
129
127
129
129
133
135
135
137
141
142
142
137
129
125
129
133
131
129
112
98
98
112
135
156
159
156
154
150
146
150
156
161
165
168
170
168
165
161
156
152
148
144
141
131
123
119
115
115
113
113
121
123
121
123
119
117
117
115
115
119
123
129
127
127
131
131
131
131
131
133
133
133
135
135
133
125
123
123
127
135
137
131
115
106
106
117
139
156
159
156
152
152
150
156
163
168
170
172
172
172
167
161
154
148
142
135
125
117
108
102
100
98
100
102
121
121
119
121
121
119
115
115
117
115
121
129
129
127
131
133
133
133
133
135
133
131
131
129
123
119
119
121
129
139
144
137
117
110
112
127
144
156
156
152
152
156
156
161
168
172
172
172
173
172
167
158
148
139
129
119
110
100
95
93
93
93
98
98
121
119
121
121
119
117
113
115
115
117
119
125
129
127
129
131
133
135
135
135
135
131
133
127
119
119
119
125
137
148
150
141
121
112
117
135
150
156
152
148
152
154
159
165
170
172
170
167
165
159
152
142
133
121
113
104
98
91
89
89
89
93
100
100
119
115
117
119
119
117
115
117
117
119
121
123
127
129
129
129
129
129
131
133
133
135
131
125
119
117
121
129
142
154
152
139
121
115
123
141
152
152
150
148
152
156
161
165
163
159
156
152
146
139
131
121
113
110
102
96
93
87
86
87
89
95
102
102
119
117
117
119
123
119
117
115
117
117
117
119
123
127
129
127
125
125
129
131
131
133
127
123
117
117
123
137
150
156
150
137
123
121
129
142
150
152
148
148
152
156
156
154
146
135
131
125
121
119
115
110
106
100
96
95
91
86
84
86
89
96
102
104
123
121
121
119
121
121
119
119
123
119
119
119
123
125
125
121
121
123
127
129
129
129
125
119
117
119
129
141
150
152
144
137
129
127
135
144
148
146
144
144
146
144
141
131
119
110
106
106
112
113
110
108
104
100
96
96
89
84
87
87
93
98
102
108
123
125
127
123
123
123
123
121
123
123
121
123
125
127
125
123
121
121
123
125
123
121
119
121
117
125
133
142
148
148
142
141
135
133
137
142
141
141
137
133
127
123
117
110
106
106
102
104
112
117
115
112
108
104
100
96
89
89
91
93
96
102
108
112
123
127
127
127
125
125
127
127
127
125
125
123
123
125
125
125
121
121
121
119
117
115
115
115
121
131
141
146
146
146
144
142
137
131
131
131
131
127
119
110
102
98
96
98
102
106
108
108
113
121
123
123
119
113
110
106
100
98
100
102
106
112
117
123
123
127
127
127
129
127
127
129
131
129
129
129
129
125
125
125
123
119
117
115
112
112
112
117
127
139
144
142
141
141
142
141
135
127
119
117
115
110
100
89
84
82
84
87
93
98
106
110
119
127
137
142
141
135
129
125
117
113
113
117
123
127
133
137
119
123
127
129
129
131
131
129
133
137
135
131
129
129
125
121
117
117
115
110
108
112
113
121
135
144
148
144
139
137
137
133
125
115
110
106
104
100
93
87
82
86
87
89
93
95
102
110
121
133
144
154
156
150
146
142
137
133
133
137
141
142
144
148
113
117
123
129
131
135
133
131
133
133
135
131
129
125
119
117
115
113
108
102
104
112
117
125
137
144
144
139
133
129
127
123
113
104
100
100
102
96
96
100
102
104
104
102
102
102
104
112
119
129
142
154
158
156
154
152
148
146
144
148
148
150
148
150
112
115
119
121
125
127
125
123
123
123
125
123
119
115
110
108
104
100
96
95
100
108
115
125
133
135
133
127
119
115
113
108
102
100
102
100
102
104
112
121
127
129
127
125
121
117
115
117
119
123
133
148
154
156
156
156
154
150
148
150
152
152
148
146
112
113
117
115
115
113
112
108
104
106
108
106
104
100
95
93
89
87
86
87
93
100
108
113
119
119
117
112
106
98
96
96
98
102
106
108
112
121
131
137
139
139
137
135
135
131
125
121
119
119
129
142
148
150
152
154
156
156
154
154
150
148
146
144
110
108
108
100
98
95
93
89
87
86
86
87
86
84
82
79
76
74
74
79
84
89
95
98
98
96
95
87
82
82
84
91
96
104
112
115
123
133
139
142
141
137
135
133
135
131
129
123
121
123
131
139
144
148
150
154
156
158
158
156
150
148
146
148
104
100
95
87
82
81
77
76
74
74
76
77
76
72
71
69
66
65
65
69
76
79
82
84
82
77
71
68
66
68
76
86
95
106
113
121
131
139
141
139
131
123
121
125
129
127
129
127
127
131
135
139
144
146
150
152
154
154
154
154
152
152
150
152
91
86
79
76
72
71
69
69
68
69
69
69
68
66
63
62
58
56
59
65
66
68
68
66
63
60
58
58
59
63
69
81
96
106
113
123
133
135
135
127
115
108
110
119
127
131
135
135
135
135
137
139
144
148
148
152
154
152
150
152
152
152
154
154
77
74
71
69
69
69
68
63
62
63
63
63
60
60
59
54
55
55
59
63
62
63
63
60
56
54
51
54
56
63
71
82
96
110
115
121
127
127
127
117
102
93
96
112
123
133
139
141
139
139
141
144
148
152
152
152
154
152
150
154
156
152
154
152
71
69
66
69
66
65
66
65
62
62
59
62
59
56
52
50
52
54
59
60
63
66
63
60
55
50
51
55
59
68
77
91
106
113
117
119
121
121
117
108
91
84
86
98
117
131
139
142
142
141
142
144
148
152
154
152
154
154
154
154
156
156
154
152
71
71
69
69
65
66
65
63
62
63
59
59
56
51
51
52
55
58
60
66
66
68
65
59
56
55
54
58
68
77
91
104
113
117
119
117
117
115
110
98
84
76
76
87
108
125
135
139
141
141
141
144
150
156
156
156
156
154
154
150
152
152
150
150
72
72
71
68
65
65
62
62
63
62
59
59
55
54
54
55
58
60
65
68
69
71
68
63
62
60
62
68
79
95
113
121
123
125
123
119
115
112
106
95
81
69
69
79
95
113
129
135
137
137
137
144
150
156
158
158
158
156
152
148
146
146
146
148
76
76
71
68
63
60
62
60
62
60
60
62
60
59
58
60
65
69
72
76
77
76
74
72
72
72
74
86
100
119
131
131
131
131
129
123
115
110
104
93
79
69
63
71
84
100
121
133
135
137
139
142
148
154
156
158
158
154
148
142
137
137
142
142
79
74
72
72
65
62
60
65
65
65
66
68
69
69
71
74
77
82
86
86
84
84
84
82
82
84
91
104
121
133
137
139
137
135
135
131
123
115
104
91
81
69
65
68
76
89
112
127
135
139
141
142
146
150
152
156
152
148
142
135
129
131
137
142
76
76
72
72
71
71
71
72
74
77
81
84
86
84
86
87
93
95
95
91
89
86
86
84
87
93
102
117
131
139
141
139
139
139
139
137
131
121
110
95
82
72
69
68
71
82
100
119
131
139
142
141
142
146
146
148
146
141
135
133
127
125
129
139
74
76
77
79
81
82
86
89
91
93
96
100
100
98
98
98
102
98
96
89
84
86
87
89
93
100
112
125
135
141
139
137
139
141
142
142
137
127
117
102
86
79
74
72
74
82
95
110
123
133
141
142
142
141
142
142
141
137
135
135
129
125
123
131
77
81
87
89
93
96
100
102
106
108
112
112
108
102
104
106
102
98
91
86
82
84
86
93
98
108
119
129
137
139
137
139
142
144
144
142
139
131
121
110
95
87
82
79
79
86
95
102
112
123
133
139
139
139
139
141
141
135
133
135
131
125
123
125
87
95
100
104
108
110
113
117
115
115
115
115
110
102
102
104
102
95
87
84
84
86
87
96
104
113
125
133
141
141
137
139
142
144
144
142
139
129
119
112
102
93
87
81
81
89
96
100
104
112
119
129
133
133
135
139
135
133
133
133
131
125
121
121
106
112
117
119
121
121
123
125
121
117
119
115
108
102
100
100
98
89
84
81
82
82
86
96
110
119
127
137
141
139
139
141
144
144
141
139
133
125
115
108
110
104
93
86
84
93
98
98
98
100
104
113
121
125
129
131
131
133
131
131
127
125
119
115
123
127
127
127
125
125
125
123
125
119
117
115
112
104
100
98
91
86
82
82
82
82
87
96
112
121
129
137
141
139
141
141
142
141
135
131
127
119
108
106
110
108
102
95
89
91
95
89
87
91
96
102
106
112
117
121
125
129
133
133
131
127
121
119
133
131
129
127
127
127
129
127
123
119
119
115
115
106
100
93
84
82
81
81
79
82
89
96
110
119
127
131
133
137
137
137
135
131
129
127
121
112
106
104
110
110
102
98
96
93
91
87
87
86
89
95
98
102
104
110
115
123
133
135
137
137
131
127
133
135
133
129
131
129
129
129
127
123
123
121
115
106
95
82
76
74
76
77
79
86
91
96
106
112
119
123
125
129
131
131
127
123
121
119
113
108
108
108
104
104
104
104
100
96
91
91
87
87
89
91
93
96
96
98
106
117
129
137
146
148
141
135
135
133
133
133
133
129
129
129
131
127
129
123
115
100
86
76
69
69
72
79
86
95
96
96
102
106
110
115
117
121
127
125
119
113
115
113
108
104
110
108
104
102
104
106
106
104
100
98
95
93
91
91
91
95
89
93
96
108
121
135
146
150
144
135
133
133
133
135
133
131
129
133
135
133
129
121
108
89
79
69
65
69
74
84
96
106
104
100
104
108
108
110
112
119
123
123
115
108
108
106
100
102
108
112
112
112
113
117
117
115
112
108
104
100
96
96
95
93
87
87
93
100
115
131
141
144
141
135
129
131
133
135
135
133
131
133
137
133
125
112
95
81
74
66
65
71
81
96
113
117
112
106
106
112
113
113
115
117
121
121
113
106
104
98
100
104
108
113
115
119
125
127
123
119
119
117
113
108
106
102
98
95
91
87
87
96
112
123
133
135
133
129
127
129
131
129
131
133
133
131
131
127
115
98
82
76
71
65
65
74
89
108
121
125
117
110
110
112
115
117
117
117
119
119
115
108
102
96
98
106
110
113
117
127
131
131
123
119
123
123
121
117
115
115
112
106
98
91
87
95
108
121
127
129
127
123
129
131
131
131
131
135
133
129
127
117
98
84
76
72
71
66
69
81
100
119
127
125
117
113
113
113
117
117
117
119
121
119
113
106
96
96
100
106
112
117
125
133
131
127
119
119
123
125
125
125
125
125
125
119
112
100
95
96
108
119
121
123
123
121
131
131
131
133
137
139
135
129
119
102
87
77
72
72
71
71
77
91
113
127
131
127
119
117
115
115
119
117
115
121
123
117
108
96
93
98
104
112
115
123
131
135
133
121
113
117
123
123
125
129
131
133
133
133
123
112
106
106
112
119
123
121
121
119
133
133
133
133
137
137
133
123
106
91
81
74
69
69
72
79
91
106
125
133
135
129
121
117
113
113
117
115
121
123
117
110
98
93
95
102
106
113
119
127
133
135
129
117
112
117
123
123
125
131
137
139
141
139
131
121
115
115
121
125
125
125
125
121
131
133
133
133
133
131
127
112
95
82
77
74
74
76
81
91
104
119
131
135
137
127
119
117
113
113
115
115
117
119
113
102
93
91
95
102
110
115
121
129
135
135
123
113
110
117
121
125
129
133
137
144
141
139
131
127
125
123
127
129
129
129
129
127
129
131
135
133
135
129
115
100
87
81
77
77
77
82
91
104
115
129
133
137
133
123
119
115
115
113
115
113
113
115
110
96
91
95
96
104
112
117
125
133
135
131
121
112
112
117
125
131
133
135
137
144
144
139
131
129
129
131
135
137
137
139
141
139
129
133
135
135
133
121
106
93
86
79
81
81
84
91
104
113
125
133
135
133
125
121
117
117
115
113
115
113
113
113
106
95
93
96
100
106
115
121
129
133
133
125
119
113
112
117
125
133
133
135
139
144
144
139
133
133
133
135
141
144
148
148
152
154
135
133
133
133
125
113
98
89
84
81
82
84
91
100
112
121
131
137
133
127
121
117
113
115
113
113
115
115
112
110
102
95
91
96
102
108
117
123
131
133
129
121
115
113
113
119
125
133
135
137
141
146
142
137
135
135
135
139
144
148
150
154
158
163
135
131
133
131
121
104
93
87
84
81
82
89
96
108
119
127
133
133
129
123
117
115
115
115
115
115
117
119
113
108
100
96
93
96
102
110
119
125
133
133
125
119
117
117
115
117
125
135
137
137
141
144
141
137
135
135
137
141
146
148
152
158
161
167
135
137
135
129
112
98
91
89
87
86
89
96
106
117
125
129
131
131
127
119
115
119
119
117
117
117
119
117
112
104
96
95
95
96
102
110
121
129
133
129
125
121
121
125
121
119
125
135
137
139
142
142
141
139
135
135
141
144
148
152
156
158
159
167
137
141
135
119
102
95
91
89
89
89
95
104
117
125
129
131
133
131
125
121
119
121
121
125
119
119
119
117
108
100
93
93
95
96
102
112
121
129
131
129
125
123
127
131
129
123
127
137
139
141
142
142
141
141
135
139
144
148
152
154
156
158
159
163
