P2
# 148 of 608 Angiograms
64 64
255
115
113
112
112
112
113
115
119
125
129
129
131
135
135
133
133
137
135
135
133
135
137
141
139
137
137
135
135
135
133
129
129
133
137
137
139
141
141
141
141
144
148
150
150
152
150
146
144
141
139
141
144
152
158
161
163
165
165
163
163
163
165
167
168
119
119
117
115
115
115
115
119
123
129
129
131
135
135
133
133
135
135
135
135
135
135
135
133
131
129
129
129
129
127
125
127
131
135
135
137
139
141
142
142
144
146
150
152
152
148
146
146
144
146
148
150
156
159
163
165
167
165
163
163
161
161
161
163
119
119
119
115
117
113
115
119
121
127
129
131
137
137
131
129
133
135
133
133
133
133
131
131
129
125
127
129
129
131
127
127
131
135
135
137
139
141
142
142
144
146
150
150
148
146
146
148
148
150
152
156
158
159
163
165
167
168
165
161
161
161
158
156
119
119
115
115
117
117
117
119
123
125
131
133
137
137
133
131
131
133
131
131
131
133
133
131
131
131
129
131
133
133
131
131
135
135
135
139
141
139
141
142
142
142
146
146
144
144
146
146
150
152
154
158
158
159
161
163
167
167
165
163
159
156
152
148
119
119
117
117
121
119
117
121
123
125
131
135
135
139
135
133
131
133
133
133
135
135
135
133
135
135
135
137
139
137
133
135
135
137
139
142
142
141
142
142
141
142
144
144
144
144
146
146
150
152
156
158
158
158
159
163
163
163
161
159
154
146
141
137
119
119
119
119
119
121
121
123
123
125
127
133
133
135
135
135
135
135
135
135
135
135
135
137
139
137
135
139
141
141
141
139
139
141
144
146
146
144
141
141
142
146
146
146
144
142
144
146
148
150
152
156
156
156
156
159
159
158
156
150
146
137
135
135
115
117
121
119
121
123
121
121
123
123
125
129
129
133
137
141
139
141
141
137
135
137
139
139
141
141
139
139
142
142
142
141
144
146
148
148
148
142
142
144
146
148
148
146
146
148
144
142
146
148
150
150
150
150
150
152
152
150
146
142
139
133
133
135
117
119
121
121
121
121
121
123
123
121
125
129
129
133
137
141
142
144
142
142
141
139
141
142
146
148
146
142
142
142
144
146
146
148
148
148
146
144
144
146
148
150
148
146
146
148
146
146
146
146
146
146
146
148
148
146
144
142
137
135
133
131
129
133
119
121
121
121
119
119
123
125
123
121
123
127
129
135
139
141
142
144
144
146
144
141
144
148
152
154
154
152
150
148
148
152
150
148
148
148
146
146
148
150
148
148
148
146
148
148
150
150
150
146
146
144
144
142
144
144
142
137
131
129
129
127
129
131
117
121
125
125
121
121
125
123
123
121
123
127
131
137
141
142
142
144
144
146
146
144
148
152
156
158
159
156
152
150
150
152
150
148
150
148
150
150
152
152
148
144
144
144
150
150
150
150
150
150
148
146
144
141
142
144
141
135
131
127
125
125
127
129
119
123
125
125
125
125
123
121
125
123
125
127
133
139
142
139
141
144
144
144
146
148
150
154
156
158
158
158
156
154
152
152
152
152
152
152
154
154
152
150
146
142
142
146
150
152
152
152
152
152
152
150
142
141
142
142
137
133
131
127
125
125
125
127
123
121
119
121
125
123
123
123
125
125
125
127
131
137
139
139
141
144
146
146
146
148
150
154
156
156
156
158
156
156
156
156
154
154
156
156
156
154
152
148
144
142
144
150
156
156
158
158
158
156
154
150
146
146
144
141
137
133
131
127
125
129
129
131
119
117
117
119
123
123
123
125
125
125
123
125
129
135
137
139
141
142
144
146
146
150
150
152
152
156
154
154
156
158
158
158
156
156
154
148
146
144
146
144
144
144
150
156
159
161
163
163
161
159
154
152
150
150
148
142
137
133
129
129
131
133
135
135
119
117
117
117
121
123
121
123
125
123
125
123
127
131
135
139
141
142
144
144
146
146
148
152
150
150
152
154
156
159
161
158
154
148
142
139
131
127
133
141
144
150
156
159
163
165
167
165
161
158
156
152
152
154
150
142
135
131
127
131
135
137
139
139
117
113
113
115
117
121
121
125
127
125
125
125
127
131
133
137
139
142
142
142
144
146
146
150
150
150
150
156
158
159
156
150
142
139
133
127
115
108
115
127
141
156
161
165
168
170
170
167
163
158
156
154
154
156
150
142
135
135
131
135
139
141
142
142
117
117
115
115
115
119
121
127
125
125
127
127
129
131
131
133
139
142
144
142
142
142
144
146
148
148
150
156
158
156
148
141
135
133
131
121
104
95
102
115
139
158
165
168
170
172
172
167
163
159
158
154
152
152
148
142
137
135
137
139
142
146
148
144
115
119
117
115
113
115
121
127
125
125
129
127
129
129
129
131
135
139
141
141
141
141
141
142
144
146
152
156
152
148
139
135
133
131
131
121
100
91
98
113
141
163
170
170
172
172
170
167
167
161
159
156
154
152
150
144
139
137
139
141
146
150
146
146
117
119
117
115
112
113
117
123
123
125
129
129
129
127
127
129
133
137
137
139
139
139
139
139
141
148
152
152
146
141
137
135
135
135
133
123
104
98
104
121
148
167
172
173
175
173
170
167
165
163
163
159
154
152
150
146
142
141
142
144
148
146
146
144
119
119
117
115
113
112
113
119
121
123
125
127
129
125
129
129
131
137
135
139
139
137
139
139
142
148
150
144
139
135
135
135
137
141
139
127
110
108
113
131
158
172
177
177
177
173
170
167
167
167
167
163
156
154
148
146
144
144
146
148
146
142
139
133
117
119
121
119
117
113
115
119
119
119
121
127
129
127
127
127
131
133
135
137
139
139
141
141
142
144
144
139
133
131
133
137
139
144
142
131
113
110
119
141
163
175
178
178
177
173
172
172
170
168
167
163
158
152
146
144
144
144
144
141
137
129
121
117
123
123
123
119
115
117
115
117
119
121
121
125
129
129
125
129
131
133
137
137
139
141
141
141
142
142
139
133
127
125
131
135
139
144
142
135
121
117
127
148
167
177
178
178
177
173
170
168
165
161
159
156
152
146
141
137
135
133
131
125
121
115
112
108
125
125
123
119
117
119
117
117
119
123
123
123
127
129
127
129
131
131
135
137
139
139
141
139
142
141
131
129
125
125
133
137
139
144
142
137
127
125
135
154
168
175
175
173
172
170
165
158
150
146
141
139
135
131
123
115
115
113
113
113
112
108
104
104
123
127
125
121
119
121
121
123
121
125
127
125
127
127
125
127
127
131
133
137
137
137
135
139
139
133
127
123
123
123
135
139
141
142
141
139
135
137
142
158
168
172
170
167
163
158
150
142
135
127
117
110
110
104
98
95
95
98
100
102
104
102
104
102
123
127
127
125
123
123
123
125
125
125
127
127
125
127
127
127
131
131
131
133
133
133
135
135
133
125
119
119
121
127
137
142
144
142
142
141
146
142
144
154
161
163
161
154
146
141
133
125
119
112
106
100
98
95
95
93
89
95
98
98
100
100
102
102
123
129
129
129
127
123
123
123
123
123
127
129
129
131
131
133
133
131
133
135
131
131
133
131
127
119
117
117
121
133
141
142
142
141
142
144
146
142
141
148
154
150
144
131
125
119
112
108
106
104
102
100
95
95
95
96
95
98
98
100
98
100
100
102
123
127
129
129
127
125
125
125
127
125
125
129
129
135
135
135
133
135
135
135
131
127
127
125
119
117
115
117
129
141
144
142
141
141
142
144
144
139
137
139
139
133
123
112
100
95
95
95
95
95
98
98
98
98
104
108
110
106
100
100
102
104
106
106
121
125
127
127
127
127
127
129
129
129
129
129
131
133
135
133
133
133
133
135
129
125
125
123
117
117
117
125
139
146
148
146
141
139
142
142
139
129
123
121
119
112
100
91
87
86
86
89
87
89
91
95
100
108
115
123
125
125
123
119
117
115
113
115
123
127
127
127
129
127
125
131
133
133
135
131
131
133
133
131
129
129
127
127
127
125
121
119
117
117
123
135
146
152
150
148
141
137
139
137
127
117
110
102
96
95
89
89
91
91
91
93
95
95
96
102
108
113
121
133
141
146
144
141
137
135
135
135
125
127
127
127
125
127
127
133
131
131
129
127
127
127
127
125
123
121
117
117
119
117
113
112
113
119
129
137
144
148
146
142
137
135
131
121
112
106
100
95
91
95
96
98
106
112
115
115
115
113
113
113
113
113
119
137
148
156
156
156
152
152
152
154
125
125
123
125
127
127
125
127
127
121
115
112
110
110
110
110
110
106
102
100
100
98
98
96
104
112
121
131
135
137
135
131
125
123
115
106
102
98
96
93
95
100
106
113
119
123
127
129
131
131
129
123
115
113
119
141
152
159
161
161
159
159
161
161
121
123
121
125
125
127
123
119
113
106
98
93
89
89
89
89
91
89
87
87
86
86
86
87
91
98
106
113
115
115
113
110
108
104
98
95
95
98
96
102
108
113
119
123
123
123
123
125
129
133
135
131
125
121
127
144
156
159
163
161
161
161
163
163
117
121
123
121
119
117
110
102
95
89
82
79
77
76
77
77
79
81
81
81
79
77
77
79
84
89
93
96
96
95
91
87
86
82
81
84
93
100
106
115
123
127
129
127
121
113
112
115
121
127
131
133
133
135
139
150
158
159
159
158
159
158
158
159
110
112
112
108
104
96
91
86
84
81
76
72
71
69
71
72
71
72
74
76
72
69
69
74
79
84
86
82
81
79
77
76
74
74
74
81
93
106
117
129
133
133
129
123
112
100
95
104
113
125
133
137
142
144
150
156
159
159
159
158
158
158
158
156
98
96
95
91
87
82
81
77
77
76
72
71
68
66
66
68
69
68
69
71
69
69
69
76
79
82
82
79
76
72
71
71
71
74
76
84
96
113
131
137
139
137
131
123
104
89
84
93
108
129
139
146
150
152
154
156
156
158
158
158
158
156
156
154
86
84
82
81
79
76
74
71
72
72
69
68
65
65
65
65
66
68
68
66
65
65
69
77
79
81
79
77
74
66
65
71
68
74
81
89
106
125
137
144
142
139
133
123
104
86
81
89
106
129
142
150
154
154
158
158
159
158
159
158
158
158
156
152
77
77
74
71
72
74
72
69
68
66
66
66
68
66
68
63
65
66
66
65
63
63
68
76
77
81
82
77
68
62
62
69
72
77
86
100
117
131
139
142
142
139
131
123
108
89
86
89
104
125
141
150
154
154
158
159
161
163
161
159
159
156
154
150
74
74
74
72
72
74
72
69
66
68
69
68
69
66
65
63
60
63
62
60
62
65
69
76
79
81
79
74
65
60
65
69
76
86
98
110
119
129
131
131
131
131
127
121
108
93
87
91
102
117
135
146
152
154
156
159
161
165
163
159
159
156
154
150
76
76
74
76
76
76
74
71
69
71
68
63
68
66
65
62
60
60
60
60
63
68
74
79
81
79
77
72
68
66
69
76
86
96
108
113
115
117
117
117
117
119
117
113
104
93
87
91
98
112
129
139
150
152
154
159
163
165
163
163
161
159
154
148
77
79
76
76
79
81
79
74
72
72
69
66
68
69
65
62
62
60
62
63
68
74
81
82
82
81
79
77
76
76
79
86
95
104
113
113
112
112
110
106
106
106
104
102
96
91
87
93
98
110
125
137
146
154
154
159
163
165
167
165
163
161
156
146
77
81
77
77
82
81
79
77
74
71
72
71
71
72
69
68
68
68
69
72
76
82
84
84
82
81
77
81
81
82
87
96
104
113
117
117
113
110
110
102
102
100
96
95
93
91
91
93
98
108
123
137
148
154
154
159
163
163
163
163
161
159
154
142
77
82
81
81
84
84
82
77
74
74
74
74
74
76
79
79
77
77
77
81
86
89
87
82
81
81
81
84
82
87
96
106
117
121
121
121
119
117
113
108
102
98
96
95
89
84
87
91
95
104
121
137
146
150
152
158
163
163
161
161
159
158
152
142
77
84
87
86
86
87
86
81
79
77
81
84
84
91
95
96
95
93
91
91
93
93
91
84
81
82
86
87
89
98
108
123
131
133
133
127
125
123
121
115
110
104
98
93
84
79
82
86
91
100
115
133
144
148
152
156
158
158
156
152
154
154
148
141
81
86
87
86
87
89
91
89
89
89
93
96
100
106
106
104
102
98
93
96
96
96
91
86
84
84
89
93
98
110
125
133
137
141
141
137
133
129
127
125
121
112
102
93
84
81
81
82
84
95
106
125
139
146
152
154
154
154
150
146
150
152
146
142
84
89
89
93
95
96
98
98
100
104
106
108
110
112
113
112
106
102
96
96
98
95
89
86
84
87
93
96
106
121
135
139
142
142
139
139
137
133
133
131
127
117
108
98
87
82
81
79
81
89
102
113
125
139
146
150
150
150
150
148
148
146
144
144
96
100
104
104
104
106
110
110
110
112
113
117
119
117
119
115
108
104
100
96
95
91
84
84
84
89
95
102
115
129
137
141
142
142
139
137
133
131
133
131
129
121
112
104
95
86
82
81
81
87
100
104
112
121
131
141
144
148
148
150
146
144
144
144
117
117
117
117
117
119
121
119
117
117
119
119
121
119
121
117
112
112
108
100
89
82
77
77
81
89
98
108
119
129
135
139
137
137
135
135
133
133
131
131
129
119
112
106
102
93
87
82
82
89
98
100
104
108
115
125
137
142
144
144
141
141
141
144
131
129
127
129
127
127
127
125
123
125
127
127
123
121
119
119
119
117
108
96
84
76
74
76
81
91
102
112
117
123
127
129
129
129
129
127
125
123
121
121
121
115
108
104
102
96
93
84
86
91
98
96
98
102
108
115
121
129
133
135
131
135
137
144
131
133
131
131
131
129
129
129
127
131
129
131
129
125
121
123
121
115
100
87
79
72
69
72
79
93
106
112
115
119
119
119
119
121
123
125
123
117
110
108
110
104
100
100
98
95
91
89
91
93
96
96
98
102
106
112
117
117
121
119
117
121
129
142
131
131
131
131
133
131
131
131
131
129
131
129
129
129
127
129
123
106
89
81
72
66
65
72
84
100
110
113
117
119
119
119
115
113
117
121
123
117
108
106
102
96
96
96
95
95
93
96
98
98
98
100
102
104
108
112
117
117
115
112
108
108
119
135
131
129
131
133
133
131
129
131
133
131
131
129
129
131
131
127
113
95
82
76
68
62
65
77
93
108
113
115
115
117
123
125
121
117
117
123
127
121
112
106
98
95
96
96
98
102
102
106
112
110
108
108
106
110
112
113
113
113
112
108
100
96
104
119
131
129
131
131
131
131
131
131
131
129
129
129
129
133
129
115
98
84
76
72
66
65
71
86
106
115
117
117
117
117
123
127
125
123
125
129
131
123
112
104
100
100
98
96
100
106
112
117
123
123
121
119
117
115
115
117
117
113
112
108
100
93
96
110
131
131
131
129
125
129
131
133
133
129
131
129
129
127
115
100
86
76
74
71
69
69
79
96
115
121
121
117
117
115
121
127
127
129
129
131
131
119
108
100
102
102
98
98
106
113
123
127
131
133
133
131
131
129
125
123
119
117
115
112
104
95
93
104
131
131
133
129
125
129
133
137
135
133
129
129
127
115
100
86
76
72
71
68
68
74
86
104
119
123
121
119
115
113
117
123
125
129
133
135
127
113
102
100
100
100
98
102
112
121
127
133
139
141
139
139
139
139
135
129
123
121
119
117
108
98
96
104
131
129
131
125
125
129
135
137
137
133
131
129
119
102
89
77
74
71
69
69
72
84
96
113
121
125
123
119
113
110
113
121
125
133
137
135
123
108
102
102
102
102
100
104
115
127
131
137
142
142
141
141
144
144
142
139
133
131
127
121
113
106
100
106
129
129
129
131
131
131
133
137
135
135
133
123
108
91
79
76
72
72
72
74
84
95
106
117
121
119
119
117
112
108
110
117
125
133
137
133
119
102
102
108
106
104
104
108
121
129
133
139
142
141
139
139
146
146
148
146
142
139
135
127
117
112
110
113
129
129
127
129
131
133
133
135
133
135
129
113
95
82
77
74
72
74
77
86
96
104
113
121
121
119
119
119
110
104
108
115
123
131
133
129
115
100
102
108
110
108
106
113
127
133
135
137
141
139
137
135
142
148
150
150
150
148
144
137
127
119
117
121
131
131
129
129
131
135
135
135
133
131
119
102
86
77
74
74
76
79
86
98
106
112
119
121
121
119
119
119
110
106
110
113
121
129
131
123
113
102
106
110
112
112
112
123
131
135
135
135
137
135
135
135
137
144
148
148
152
152
148
139
137
131
129
133
131
131
129
127
129
133
133
133
131
125
108
93
82
74
74
77
81
89
100
108
112
115
117
121
121
121
119
117
110
106
112
113
119
127
125
117
108
106
108
110
112
115
121
131
135
135
135
133
133
131
129
129
135
142
146
150
152
150
146
141
139
137
139
144
135
133
129
131
131
133
133
133
129
113
100
87
79
76
77
81
87
98
108
115
119
121
121
121
123
119
115
112
110
110
113
115
117
119
117
110
104
106
104
106
112
119
127
133
135
135
135
137
133
127
125
127
133
139
144
148
148
148
146
139
137
141
144
154
141
135
135
135
133
133
133
131
119
102
93
84
81
81
82
89
96
106
119
121
123
125
125
121
119
119
115
110
110
113
115
117
119
115
112
104
100
106
104
104
110
121
131
133
137
139
139
139
135
131
125
125
129
137
144
148
150
148
141
135
137
142
154
159
139
137
137
139
137
135
133
125
108
96
87
82
79
81
89
95
102
113
125
123
123
123
123
123
123
123
115
110
110
112
113
115
117
115
112
104
102
106
104
106
113
123
133
137
141
142
142
141
137
133
129
127
131
137
142
148
150
146
141
135
137
146
158
161
135
139
139
139
139
139
131
117
102
93
82
82
82
86
93
98
110
119
121
121
119
121
123
123
123
123
115
112
112
110
113
113
115
117
112
106
104
104
106
110
117
125
133
139
142
146
146
142
141
137
135
135
137
139
141
146
148
146
142
141
142
152
158
161
141
141
141
141
141
135
125
110
96
87
81
79
84
91
96
106
115
121
123
119
119
121
123
123
121
117
112
113
115
113
113
112
113
117
115
112
104
102
106
113
123
129
133
139
142
146
146
144
144
141
141
141
141
141
141
144
148
144
141
142
148
154
158
159
141
141
141
142
141
131
117
100
91
82
82
84
89
98
106
117
123
127
125
121
121
123
119
119
115
113
110
115
115
115
115
112
112
117
119
115
106
100
108
121
129
133
135
137
141
142
142
146
144
142
144
148
148
144
141
142
144
142
142
146
150
156
156
159
