P2
# 150 of 608 Angiograms
64 64
255
131
131
133
131
129
129
129
133
139
144
144
146
148
150
148
146
144
144
144
142
139
141
137
135
137
142
146
148
146
148
148
148
150
152
154
159
159
156
156
152
150
150
148
142
139
133
135
139
144
144
146
148
152
158
163
168
175
183
194
199
202
204
204
203
135
133
133
133
131
129
129
133
137
142
142
144
146
150
146
146
144
144
144
142
139
137
133
133
139
142
146
148
146
146
148
150
152
154
156
158
159
158
156
152
152
150
146
144
141
137
139
141
146
146
146
148
150
154
158
165
170
178
186
194
200
203
205
207
133
133
133
133
131
131
129
131
135
139
142
142
146
146
146
146
146
146
146
142
141
137
137
135
139
141
144
146
146
146
150
154
154
156
158
159
159
158
154
154
150
150
148
146
144
144
142
144
148
150
148
146
148
152
156
159
165
172
178
185
194
198
203
205
127
127
129
131
131
131
129
129
133
137
141
142
146
146
148
146
144
144
146
148
142
137
139
139
139
141
142
144
148
150
154
156
156
159
159
159
158
156
154
152
150
150
148
148
148
148
148
148
148
148
148
146
144
146
152
156
159
167
172
177
183
188
194
200
123
125
125
125
125
125
127
127
131
135
139
142
148
148
146
148
146
146
148
150
144
141
139
141
139
141
142
144
150
154
156
158
158
161
161
159
156
154
152
152
150
152
150
150
152
152
154
150
148
146
144
144
142
142
144
150
154
159
165
168
173
178
185
191
121
121
121
121
119
121
123
125
129
133
137
141
146
146
144
148
148
148
150
150
144
144
141
144
144
146
146
146
150
156
156
158
158
159
159
159
154
154
152
150
150
150
152
152
154
154
154
150
144
142
141
141
141
141
142
144
150
154
159
163
167
170
175
182
119
119
119
123
121
117
121
123
127
129
131
137
142
146
148
150
148
150
150
148
146
144
144
148
148
148
148
148
150
154
156
158
158
158
158
156
154
154
152
152
150
152
154
152
154
152
150
146
144
142
141
139
141
141
141
142
148
152
156
159
161
163
168
175
117
117
117
119
123
119
119
121
125
125
129
131
137
142
144
146
146
148
148
148
144
144
146
148
150
150
148
148
150
152
154
156
156
156
154
154
154
154
154
154
152
152
154
154
154
152
146
144
142
142
142
141
142
142
141
142
148
152
154
158
158
161
165
170
117
115
115
117
119
119
119
117
119
123
125
129
133
137
139
141
142
144
144
142
142
142
142
144
148
148
148
148
148
148
152
152
154
154
154
152
152
154
156
154
154
152
152
152
154
152
148
146
144
144
144
142
144
144
144
148
150
152
156
156
158
159
163
167
117
115
117
119
117
115
117
117
117
119
123
125
129
135
137
135
137
139
141
139
137
139
141
142
146
146
146
148
146
146
148
150
152
152
152
150
150
152
154
154
154
152
150
152
154
152
152
150
148
146
146
144
146
148
150
152
154
156
159
159
159
161
163
163
117
119
119
119
117
115
115
117
115
117
117
121
123
129
131
133
135
139
139
135
133
135
139
141
142
144
144
146
146
144
146
148
150
150
152
150
152
150
152
154
152
152
150
152
154
154
154
154
152
150
150
146
150
152
158
159
161
161
159
161
163
161
159
159
117
119
117
117
119
117
113
113
113
115
117
119
119
123
127
131
133
135
133
131
133
135
137
141
141
141
141
142
142
142
144
148
148
148
148
150
152
150
150
152
150
152
152
152
154
156
158
158
156
154
150
150
154
158
161
165
165
165
163
161
159
159
156
152
119
117
117
117
119
115
115
113
113
117
115
115
113
117
125
129
129
131
131
129
135
137
139
139
139
137
137
141
142
144
144
146
146
146
148
152
152
150
152
150
150
154
152
152
156
158
159
158
158
156
154
154
158
159
167
167
167
167
165
161
158
154
150
146
115
119
119
117
119
119
117
119
119
119
117
115
115
117
123
127
129
127
129
129
137
137
139
139
137
137
137
137
141
142
144
146
146
148
150
152
154
150
148
146
148
150
152
154
156
158
159
158
156
158
156
156
158
161
167
168
168
167
165
161
156
152
148
142
117
121
121
119
121
119
119
121
121
121
117
115
117
117
121
125
131
131
131
133
139
139
139
137
135
135
133
133
131
137
142
146
148
152
150
152
152
150
146
144
148
148
148
152
154
156
156
156
156
156
156
156
159
163
165
168
168
167
163
158
154
150
146
141
119
121
123
123
123
119
123
123
123
123
119
119
117
117
121
125
131
131
135
139
142
141
137
133
131
125
125
123
123
127
137
146
150
152
152
150
152
150
146
146
148
150
148
150
150
150
150
152
154
154
154
156
158
161
163
165
165
163
159
156
154
148
142
139
121
119
121
123
125
123
125
127
125
123
121
121
119
121
121
127
131
131
137
141
144
137
131
127
121
119
119
115
112
115
123
141
150
152
148
148
150
148
146
146
148
152
148
148
148
148
146
150
152
152
152
154
156
158
159
159
159
158
156
154
150
144
141
139
121
121
121
121
123
123
125
125
125
125
121
119
119
119
121
127
129
133
139
141
139
129
123
119
119
121
119
113
106
110
117
131
148
152
150
148
148
146
146
148
152
154
150
148
146
144
144
148
152
152
152
154
154
152
152
152
152
152
150
146
142
142
142
141
123
123
121
119
121
123
125
127
127
127
125
123
121
119
121
127
133
135
137
137
131
123
119
119
121
125
123
115
110
110
117
133
148
154
150
148
148
148
148
152
154
156
152
152
150
146
146
150
152
152
152
150
148
146
144
144
142
142
139
137
139
139
139
141
127
123
119
117
117
123
123
125
125
127
129
131
127
125
125
127
133
135
133
129
125
119
121
123
127
131
127
121
115
115
123
137
148
154
152
150
150
150
148
154
154
150
148
148
148
148
148
152
152
150
148
146
142
137
131
127
125
125
121
121
123
127
129
131
125
123
119
117
115
117
121
123
125
125
129
127
127
127
129
129
129
129
125
121
121
121
125
127
135
139
133
127
121
117
127
141
150
154
156
154
152
152
150
150
150
146
144
142
144
146
150
150
148
146
142
137
129
119
112
106
106
106
106
106
108
112
113
115
125
123
121
119
117
119
121
123
125
123
129
127
127
127
127
127
127
123
117
112
115
117
125
131
142
144
137
129
121
119
131
144
152
154
158
158
154
152
150
150
148
144
141
139
141
142
146
146
142
137
131
123
115
104
98
96
96
95
93
93
93
95
96
96
125
123
123
119
119
119
121
123
125
127
129
127
125
125
125
125
123
117
113
112
113
117
125
133
142
141
133
123
117
123
135
148
154
158
159
159
158
154
152
148
146
142
139
137
137
139
139
139
133
127
121
115
106
98
95
95
95
93
89
87
87
87
87
89
125
123
123
121
119
121
121
123
125
125
127
127
125
125
125
123
119
113
113
113
113
117
125
135
137
135
127
119
117
123
137
150
159
159
158
158
156
154
148
144
141
135
133
131
131
133
131
131
127
123
117
110
102
96
91
91
93
89
84
84
84
86
87
89
123
121
125
121
119
121
123
119
119
123
129
131
129
125
125
121
113
110
108
113
113
121
129
135
133
129
123
121
123
127
141
152
158
159
156
154
150
146
137
129
125
119
117
121
129
131
131
127
125
121
113
104
102
96
91
93
95
87
84
84
84
87
93
98
123
123
125
123
119
121
121
119
121
123
123
127
127
125
125
121
113
110
108
113
117
125
131
135
131
127
127
129
131
135
142
150
154
154
148
142
137
127
113
108
104
104
112
119
131
135
135
133
127
119
113
106
102
98
95
93
91
87
84
86
87
95
100
106
123
123
123
123
121
123
121
121
123
123
121
121
125
125
123
117
112
110
112
115
121
127
133
133
131
131
133
137
135
137
139
144
142
139
133
123
112
100
91
87
91
98
108
123
133
139
139
137
131
123
117
110
106
102
98
96
93
89
91
91
98
106
113
115
119
121
125
123
121
121
119
123
123
119
113
117
121
123
121
115
108
110
112
119
125
129
131
131
129
133
133
135
133
131
131
127
121
115
108
98
87
81
81
84
91
98
108
127
141
144
144
142
141
133
123
117
113
110
106
102
100
100
102
106
113
121
129
131
119
119
119
123
121
123
119
123
121
115
112
115
121
119
115
110
108
110
115
123
127
129
127
123
125
127
129
127
121
115
112
108
104
95
87
81
76
72
76
84
93
100
112
131
148
156
158
154
152
148
141
137
131
127
123
117
115
117
119
125
133
141
148
150
119
119
115
119
119
119
117
117
119
117
112
112
113
110
108
108
108
110
117
123
123
121
119
117
115
117
117
112
106
102
100
98
95
91
84
77
74
71
77
86
93
102
112
127
144
158
163
161
161
161
161
156
150
144
139
137
133
133
137
142
148
154
158
158
121
119
119
117
119
117
117
115
115
112
108
104
100
98
96
96
100
106
112
115
113
113
112
110
110
108
104
100
95
96
98
96
95
96
89
86
82
81
82
91
96
106
113
119
133
148
159
163
165
168
168
165
159
156
150
146
144
144
148
152
156
158
161
163
121
119
117
112
108
104
104
104
104
102
98
93
87
86
86
86
87
91
95
98
98
98
98
98
98
98
96
96
96
100
102
104
104
104
102
104
104
100
96
96
104
108
112
115
121
133
148
158
163
168
170
168
165
159
158
152
148
148
154
154
154
156
158
158
115
112
104
102
96
93
93
93
93
93
87
82
76
72
74
77
79
81
82
84
82
82
79
81
82
84
89
95
100
108
113
115
117
121
121
121
119
117
112
110
112
112
112
113
113
119
133
146
152
159
165
167
165
161
159
156
152
152
152
150
150
150
152
152
104
98
93
91
89
87
89
87
86
84
79
72
68
66
68
71
72
72
72
71
69
68
66
66
69
76
82
95
106
115
119
125
133
137
139
139
135
131
125
119
117
115
112
110
108
113
123
133
142
148
152
156
158
158
158
154
150
146
146
146
144
144
148
152
95
89
89
87
87
86
84
81
77
74
71
66
63
65
66
69
72
68
68
66
63
65
62
62
65
71
81
96
110
121
127
135
141
142
146
146
144
139
133
127
121
115
110
106
104
110
121
127
129
137
141
144
148
150
150
148
141
139
141
144
146
146
150
154
84
82
84
86
84
81
76
71
69
66
62
62
62
66
68
72
74
69
69
69
65
63
62
62
63
72
87
100
113
125
135
141
142
146
148
146
139
133
133
133
127
123
115
110
110
113
119
121
123
127
131
133
135
135
135
135
131
131
133
141
146
150
150
154
76
77
77
77
74
71
68
65
63
60
60
63
68
69
72
79
79
76
71
69
66
62
60
66
68
77
93
106
117
131
141
146
148
148
148
141
127
121
127
133
137
135
133
125
119
119
119
119
121
121
123
125
127
125
125
123
123
123
125
133
139
146
150
154
72
71
68
68
66
66
65
62
60
62
63
69
74
76
81
84
82
79
76
74
69
62
62
66
72
82
100
113
127
141
148
152
152
152
146
133
117
110
115
129
141
142
142
141
133
129
125
121
119
121
119
119
119
119
119
121
119
119
121
127
131
139
146
150
69
71
68
66
68
66
63
65
65
68
71
76
79
82
87
89
87
82
77
76
71
65
65
71
81
95
112
125
139
148
152
154
154
154
150
135
113
102
106
119
137
144
146
144
142
137
129
123
121
119
117
117
115
113
113
117
121
121
123
125
127
133
139
146
72
72
69
69
72
71
72
74
74
76
76
79
81
86
91
93
89
84
81
77
74
72
74
81
95
110
123
133
142
150
154
156
156
156
152
141
113
102
102
115
131
141
144
144
144
141
135
129
127
123
121
119
117
113
112
113
119
123
127
129
125
131
133
137
74
71
71
74
76
77
81
81
81
77
77
79
86
95
98
100
95
86
82
79
81
81
87
96
108
123
131
139
146
152
156
158
158
159
156
142
117
102
102
113
123
135
141
142
144
142
141
135
131
131
127
125
123
117
112
115
119
125
127
131
129
131
131
131
76
77
77
77
81
86
87
89
86
81
81
86
95
104
106
102
96
87
84
82
86
87
95
108
119
129
135
141
146
154
158
159
159
159
156
144
123
110
106
112
117
125
133
141
142
142
142
137
133
137
139
137
131
125
117
117
119
123
127
127
129
129
127
125
84
82
81
82
87
93
96
98
95
91
91
93
102
112
110
102
93
87
82
84
87
93
102
112
121
131
137
141
146
152
158
158
156
158
154
144
129
117
110
112
113
119
127
135
139
141
139
135
133
135
141
144
139
133
121
117
117
121
123
125
125
123
121
117
93
93
91
89
95
98
104
106
102
98
98
98
104
106
104
98
91
84
82
87
93
98
106
115
121
129
135
139
144
148
154
154
154
154
150
137
129
123
117
113
112
115
123
129
131
131
127
123
125
129
133
139
137
131
121
115
113
117
123
123
123
123
119
115
100
102
102
102
104
110
113
112
106
100
100
100
102
104
102
95
87
84
86
89
96
104
113
117
117
125
131
137
141
146
150
152
152
148
142
131
125
121
121
117
112
110
115
123
125
123
117
110
110
115
123
127
125
119
110
108
112
117
123
127
131
129
123
119
110
112
115
117
117
117
119
117
112
104
104
102
98
100
100
93
87
86
89
93
102
112
117
119
115
121
129
133
139
142
146
146
144
141
129
121
119
117
115
112
106
104
110
115
119
115
106
100
100
106
110
108
106
104
100
100
108
119
127
133
137
137
133
127
121
121
125
127
125
123
121
117
112
108
104
100
96
93
93
91
89
89
93
100
106
115
117
117
113
117
125
129
131
135
139
139
135
125
119
113
112
110
108
102
98
102
106
108
112
110
104
102
100
104
108
108
104
104
104
102
104
117
129
135
139
142
141
137
129
131
133
131
131
127
123
117
113
112
106
100
91
86
86
87
89
93
98
104
110
117
119
115
113
113
119
123
123
125
127
127
123
117
112
110
108
108
104
100
100
104
108
108
110
110
108
106
106
110
110
113
113
112
110
108
106
112
123
133
139
144
144
144
133
133
135
135
135
133
129
123
121
119
112
98
86
82
81
86
89
95
102
108
112
115
115
108
102
104
110
115
117
119
121
123
119
113
112
110
112
112
108
106
108
113
115
117
117
117
113
112
113
115
115
115
117
117
115
112
108
108
117
131
139
146
148
148
133
133
135
135
135
135
133
129
127
119
108
93
82
79
82
86
91
96
108
112
113
113
110
100
95
98
106
112
113
117
121
123
121
117
113
115
117
117
112
113
113
119
125
127
125
123
117
115
121
119
119
117
115
123
121
115
110
108
112
125
137
146
150
150
135
133
131
133
133
133
135
131
125
113
100
87
77
74
79
84
93
104
113
117
115
115
110
102
96
100
106
108
113
115
121
123
121
119
119
119
121
119
113
113
121
125
129
129
129
127
119
117
119
121
119
119
119
125
129
123
115
112
112
123
135
146
150
152
133
131
127
131
135
133
133
127
119
104
91
81
74
71
76
84
95
108
119
119
119
119
112
106
102
104
108
112
108
113
121
123
121
119
121
123
125
119
113
117
127
129
129
131
129
127
119
117
121
119
119
121
125
131
133
131
121
113
115
123
135
146
150
152
133
129
131
135
135
135
131
121
108
93
84
79
74
69
74
84
96
110
121
119
121
121
115
110
106
110
115
112
106
112
115
119
117
117
121
123
119
117
117
125
131
133
135
133
131
127
121
119
121
119
119
123
127
131
135
137
129
123
123
127
135
146
150
152
133
131
131
135
135
133
125
112
96
86
81
79
76
72
77
86
100
113
121
123
123
121
115
110
108
112
115
108
102
108
110
112
113
115
119
121
117
115
121
129
135
137
135
131
129
125
123
121
119
119
115
121
125
127
133
137
137
131
129
129
133
144
150
152
133
133
133
131
133
127
113
98
87
81
76
77
77
76
82
93
104
117
125
123
123
119
113
110
112
112
113
110
106
104
104
104
106
108
113
119
117
119
127
133
137
137
135
131
127
123
121
123
121
115
112
115
123
125
129
137
142
139
133
131
135
144
150
152
135
137
135
131
129
117
102
89
82
77
76
76
79
82
95
106
113
123
125
125
121
115
112
113
115
115
115
112
104
98
96
100
102
104
108
115
119
123
131
137
139
139
137
135
127
121
117
123
125
115
108
110
117
125
127
135
144
142
137
133
135
142
152
154
133
135
135
129
121
104
91
84
79
76
76
79
86
95
106
113
119
125
125
123
119
113
113
115
117
119
117
112
100
91
93
100
98
102
108
115
121
127
135
139
139
141
137
135
127
121
119
125
125
115
106
106
115
125
129
135
144
144
137
137
139
142
152
158
133
133
133
123
108
95
84
79
79
77
79
84
93
106
112
117
123
125
121
119
117
117
121
121
121
119
113
104
95
91
93
100
98
100
108
117
125
129
133
137
139
139
137
133
125
119
123
127
123
113
104
102
112
125
131
135
142
142
135
137
139
141
152
159
137
133
127
115
96
87
81
82
82
84
86
95
104
112
113
117
123
125
121
121
119
121
121
121
123
117
110
98
91
91
95
98
98
100
108
119
127
129
131
133
137
137
135
129
123
121
123
127
121
112
100
100
112
125
131
133
139
141
133
131
135
139
148
158
135
129
121
102
91
87
86
86
86
87
93
102
110
113
117
117
119
123
123
123
125
123
125
125
123
115
102
91
91
93
96
98
96
100
108
121
125
131
131
133
135
133
131
125
121
123
125
127
119
110
100
104
115
125
131
133
135
139
133
129
131
137
144
154
129
125
113
96
89
87
86
89
87
91
100
106
112
115
117
115
113
117
121
123
127
125
123
125
121
113
98
89
93
96
100
96
96
102
110
121
127
129
131
129
131
131
125
119
117
123
129
127
119
110
104
108
117
127
135
135
133
135
135
131
131
135
141
148
127
117
104
95
89
89
87
89
93
98
104
108
113
113
115
113
115
115
121
127
129
127
125
125
117
108
96
89
93
98
102
98
98
102
112
121
127
129
131
129
129
125
119
117
121
123
129
127
121
110
108
113
119
129
135
133
131
135
135
131
131
133
137
144
121
112
102
93
89
89
91
95
96
100
108
112
113
112
112
113
117
117
121
127
129
127
127
121
115
106
93
87
95
96
98
98
100
106
115
123
127
127
129
129
127
121
115
117
123
125
127
125
119
112
112
117
123
131
137
135
129
131
133
131
131
131
133
139
115
106
98
95
89
89
95
98
100
104
110
112
112
112
113
115
117
121
123
127
129
127
125
119
112
102
93
93
96
96
95
96
100
110
117
121
125
129
129
125
121
117
115
119
123
125
125
123
117
113
115
121
127
133
135
133
129
127
129
129
129
127
129
135
