P2
# 153 of 608 Angiograms
64 64
255
102
104
108
104
106
108
106
102
96
93
96
106
112
117
119
119
115
112
112
112
110
106
104
102
96
95
87
86
86
86
89
95
98
104
104
104
102
100
96
93
96
104
106
110
108
108
106
102
102
104
104
100
96
98
100
100
104
104
102
106
108
112
110
110
106
104
104
106
104
106
106
104
98
96
98
108
115
117
119
117
117
115
115
112
110
106
106
102
102
100
91
87
89
87
93
96
98
96
100
102
104
102
96
93
96
102
104
110
110
110
108
102
102
106
106
102
100
100
96
100
100
102
104
106
106
110
112
113
110
108
104
106
104
102
102
102
102
100
104
112
117
115
117
113
112
112
112
112
108
106
108
106
104
98
93
89
91
89
93
95
100
96
98
104
104
104
96
93
95
100
102
108
110
110
108
106
104
106
108
104
102
100
102
102
102
102
104
104
108
108
110
113
110
108
104
108
102
104
104
104
106
106
108
112
113
115
115
110
112
112
113
112
108
106
106
106
100
95
95
91
89
89
91
98
98
96
100
102
106
104
98
96
96
96
102
106
106
108
110
110
108
108
106
110
106
100
104
106
104
104
106
106
106
106
110
113
108
108
108
106
104
106
104
104
106
110
112
112
113
113
113
112
112
113
117
115
110
108
110
108
102
96
95
89
87
91
95
98
98
96
100
100
104
106
100
96
98
96
100
104
108
108
110
110
110
108
110
110
108
104
104
102
100
100
102
106
106
106
108
115
112
112
108
106
104
104
106
104
106
110
112
112
112
115
112
112
113
112
113
113
110
108
112
110
106
100
93
87
87
91
96
96
100
100
100
102
104
108
102
95
96
96
98
104
108
108
108
112
112
110
110
110
106
108
106
102
98
100
104
108
106
106
110
115
108
108
104
100
100
106
108
108
110
112
113
113
113
113
113
113
113
112
112
113
112
110
108
108
110
102
93
86
86
87
91
95
96
98
100
100
102
104
102
98
98
96
96
102
104
106
108
112
110
112
112
108
106
106
108
104
100
100
106
110
108
110
113
115
108
102
100
98
102
106
112
112
110
112
112
110
112
112
113
113
112
112
112
115
113
112
108
108
108
104
95
87
84
86
91
93
96
96
96
102
102
102
102
102
95
96
96
98
104
106
110
112
110
112
110
108
108
110
108
104
104
104
108
110
108
110
112
115
106
102
100
102
104
108
112
112
112
112
110
110
110
112
113
113
115
117
113
113
112
112
106
104
104
102
96
87
84
87
87
93
98
98
96
100
102
104
100
100
93
96
96
95
100
106
108
110
108
108
108
112
112
112
106
98
102
106
108
110
110
110
112
113
106
100
98
100
106
110
110
112
115
115
115
112
110
112
113
115
115
115
115
113
112
108
108
106
104
100
95
87
82
84
89
93
95
100
100
102
104
106
104
98
93
95
95
96
100
104
108
110
110
108
108
113
113
112
108
104
106
106
108
112
112
113
115
115
102
100
98
102
106
108
110
112
110
113
113
112
110
110
113
115
113
117
115
113
112
108
106
108
104
100
95
87
87
87
89
96
100
104
104
104
106
110
104
100
95
93
96
98
98
104
110
112
112
112
108
110
113
113
110
108
108
106
106
110
113
117
117
119
98
98
104
104
106
108
110
110
108
112
108
110
110
110
113
115
117
117
113
112
112
110
104
104
100
100
96
91
91
87
89
98
104
108
108
108
108
108
106
102
100
96
96
95
98
104
110
110
113
115
110
110
113
113
108
104
106
108
110
110
110
115
117
117
93
95
98
102
106
108
110
112
110
110
110
110
110
112
113
115
115
115
112
110
112
108
104
106
104
98
98
93
89
91
89
96
104
108
110
112
110
110
108
104
100
96
96
95
96
102
110
113
117
113
110
110
112
112
108
106
108
110
110
112
112
115
117
117
89
91
95
102
106
108
110
108
108
106
106
106
110
112
115
119
115
112
112
110
110
108
106
104
104
98
96
93
91
91
93
96
104
108
112
115
113
112
110
104
100
98
98
98
98
102
112
117
115
112
113
113
113
110
110
108
112
113
110
112
113
113
115
115
87
93
98
104
108
108
108
104
102
102
104
102
108
112
115
115
115
113
108
108
110
106
106
110
106
102
102
98
93
89
93
98
104
108
112
113
113
113
113
110
102
98
98
100
100
102
112
117
117
115
115
115
113
110
108
108
113
113
112
113
115
113
113
112
87
93
96
100
102
104
104
100
96
96
102
102
106
110
110
110
112
110
108
110
112
110
110
110
106
104
102
98
95
95
96
102
102
108
113
113
115
115
113
112
106
100
98
98
100
102
108
113
115
113
112
115
115
115
112
108
112
113
115
115
113
112
112
110
91
95
98
98
98
100
98
91
91
96
98
102
108
110
112
112
106
108
110
110
110
108
112
108
108
106
102
98
93
93
96
102
108
110
113
115
115
115
113
113
108
102
95
95
102
104
106
110
112
113
113
113
113
115
112
112
110
113
119
117
112
112
110
108
96
95
96
96
96
95
93
87
91
96
102
104
106
108
110
106
104
106
108
106
108
108
110
110
108
108
106
98
93
91
93
102
110
112
113
113
115
115
115
112
110
104
96
98
102
104
108
110
112
115
115
113
112
110
110
110
110
113
117
117
110
110
112
112
100
100
100
98
96
93
91
89
91
98
102
104
108
106
106
104
102
104
104
102
106
106
106
104
106
110
108
100
95
91
93
104
110
112
113
115
119
117
115
110
108
106
102
102
102
104
106
108
112
113
119
119
113
112
112
112
110
115
117
117
113
112
108
112
102
100
98
98
96
93
93
93
96
102
104
104
108
104
106
104
102
100
100
100
102
102
106
106
108
110
108
102
93
91
91
102
108
110
113
117
119
117
117
112
108
106
104
102
102
102
108
108
112
112
115
115
113
112
115
113
112
117
117
115
115
115
113
113
106
100
98
98
98
96
96
98
102
104
106
104
106
104
104
102
102
102
98
98
96
100
100
100
104
104
104
98
93
93
93
102
112
112
112
115
117
117
117
112
112
106
102
104
104
102
104
106
106
108
112
113
113
113
115
115
113
117
119
119
119
117
117
115
106
102
96
96
96
98
100
104
102
102
104
102
104
104
100
100
100
96
95
96
96
96
98
95
95
100
100
95
93
93
95
102
110
112
113
115
117
117
113
110
112
106
108
112
108
104
104
104
106
106
110
115
117
119
115
121
121
123
121
119
119
119
119
117
104
100
96
95
96
102
106
108
106
106
106
104
104
102
98
100
100
95
93
95
98
98
96
93
91
98
98
95
93
93
95
102
106
110
108
113
115
117
115
110
108
108
110
115
112
106
102
102
106
106
110
119
121
123
119
121
123
125
123
119
119
121
119
117
102
100
96
96
98
102
106
106
108
106
102
104
104
106
102
100
98
98
96
98
98
96
95
95
93
95
93
89
89
91
95
100
104
106
108
110
113
115
113
108
108
110
112
113
115
108
102
100
100
100
108
117
121
125
123
121
121
121
121
121
121
121
121
117
98
100
98
100
102
104
108
106
108
110
104
106
106
106
104
100
102
102
104
104
100
98
96
98
98
95
89
86
87
87
91
96
102
102
102
104
108
112
110
110
112
112
112
115
113
110
102
102
102
102
108
113
121
123
127
123
121
119
123
123
121
119
117
117
100
102
104
106
106
106
106
108
108
110
108
108
108
106
100
98
102
102
104
102
98
98
98
98
95
91
91
89
87
84
86
91
96
98
96
98
102
104
106
108
110
112
115
115
115
110
104
102
102
106
108
112
119
125
127
129
125
123
123
127
127
123
121
121
100
108
108
106
110
108
106
106
108
110
108
108
108
106
104
100
100
98
100
104
98
96
98
98
95
93
95
89
84
81
81
87
93
96
95
95
96
98
102
106
108
108
112
112
110
110
108
104
102
104
108
110
115
125
127
127
125
121
121
125
127
127
125
125
106
112
110
108
108
108
106
110
108
110
108
106
106
104
100
96
96
98
100
100
98
95
96
98
96
96
96
91
86
82
82
87
93
93
93
91
91
96
98
100
104
106
108
108
108
110
108
106
102
104
108
110
115
121
125
127
127
123
121
123
125
127
125
125
106
108
110
110
108
108
110
110
110
108
104
104
104
102
100
96
96
100
96
98
98
95
93
96
96
96
96
89
87
84
82
86
89
91
93
89
89
93
96
100
100
104
104
106
108
108
108
108
102
100
102
108
113
117
123
125
129
127
125
127
127
127
127
125
108
108
110
113
108
108
104
110
112
106
104
104
102
102
100
96
95
95
95
98
96
93
95
96
96
98
96
93
89
86
82
87
91
98
96
93
93
95
98
96
100
102
102
106
106
106
108
106
104
102
100
102
110
115
117
123
127
127
127
129
129
129
129
125
110
108
108
112
110
110
108
106
108
104
104
102
100
98
98
96
95
93
95
96
95
95
98
100
98
95
95
95
87
87
86
86
91
96
98
96
95
96
98
98
104
106
104
102
104
104
104
102
102
102
100
98
104
110
115
117
123
127
129
129
129
129
129
125
113
112
112
112
110
108
108
108
104
102
102
100
100
98
96
96
96
95
96
95
93
95
98
100
104
96
95
95
89
87
87
87
89
98
102
98
98
100
100
102
104
108
104
104
102
106
106
104
102
104
100
95
96
102
106
112
117
125
129
129
131
129
131
127
113
113
110
110
108
108
110
104
102
98
98
102
100
98
96
93
93
93
95
95
89
91
96
100
102
100
98
96
93
91
89
87
89
95
100
100
102
100
100
102
104
108
108
104
106
110
106
106
104
102
98
96
96
98
100
104
112
117
123
127
133
131
131
131
108
110
110
112
110
106
108
104
106
102
102
104
102
100
95
95
95
95
95
93
89
93
96
100
98
96
95
91
91
93
91
87
87
91
95
100
102
104
104
104
106
112
110
110
110
110
106
106
110
108
102
98
96
96
96
98
106
112
117
121
125
127
125
129
108
110
110
108
110
106
102
102
104
102
104
106
106
102
95
95
96
96
93
91
91
96
98
100
98
95
93
91
93
93
89
86
82
89
91
96
102
104
108
108
108
110
110
110
108
110
106
104
110
110
106
100
96
95
93
96
102
106
110
115
121
125
123
125
113
113
110
108
106
106
102
102
100
102
102
104
106
102
100
95
96
95
89
89
93
98
100
100
100
98
93
91
93
93
89
87
86
86
87
91
95
100
104
106
110
108
108
110
110
108
108
108
108
110
110
106
102
98
95
96
98
100
102
106
110
117
119
121
115
112
108
106
106
104
102
102
102
102
102
102
104
106
102
98
96
91
86
89
93
96
98
100
100
98
93
95
93
89
89
87
87
91
89
89
91
96
98
104
110
110
110
112
112
108
108
108
110
110
112
112
106
104
98
95
96
98
96
100
102
108
113
115
113
110
108
106
102
100
102
104
102
100
100
104
104
106
102
100
96
91
87
91
96
100
100
100
102
100
95
95
93
91
91
89
89
89
87
87
93
95
96
100
106
112
112
112
110
110
108
108
108
108
110
110
108
106
104
102
96
95
95
96
98
100
108
113
112
110
106
104
102
102
102
102
102
100
100
100
104
102
100
98
95
91
91
95
100
104
106
104
102
102
96
96
95
95
93
91
89
89
91
89
89
91
91
96
102
108
110
106
110
112
112
106
104
108
110
112
108
110
110
106
100
96
93
95
98
96
104
108
110
110
108
104
104
102
102
102
100
102
102
98
100
102
100
96
91
89
95
100
106
110
110
110
108
104
98
98
95
95
93
91
87
89
89
87
87
86
87
91
96
102
108
108
108
112
112
110
108
108
112
112
110
106
106
106
102
100
98
95
95
98
100
104
108
106
110
106
102
102
100
102
102
102
102
100
100
104
98
89
89
95
100
106
108
110
110
112
110
104
98
98
98
95
93
89
86
89
89
86
82
84
84
84
89
96
102
106
112
112
108
110
110
112
113
113
112
108
110
108
106
106
102
98
95
95
95
100
106
106
108
104
104
102
102
104
106
104
104
102
100
100
96
89
91
98
104
108
106
106
108
110
108
104
100
96
98
96
93
89
87
89
87
86
84
82
84
82
86
89
96
104
106
110
108
108
110
110
112
113
113
108
110
108
108
110
106
100
96
93
91
96
108
106
104
102
102
100
100
100
106
102
100
102
98
95
95
93
96
104
108
110
108
108
110
108
108
106
102
98
100
96
96
93
91
93
89
86
84
82
82
82
86
87
93
102
104
104
110
112
115
112
112
112
112
112
110
108
108
113
110
106
100
95
93
98
104
102
98
100
98
100
102
102
104
104
102
102
100
95
96
96
102
106
108
108
110
110
108
110
108
106
100
100
100
96
96
95
95
95
93
89
86
82
81
82
86
86
89
98
102
104
110
115
115
113
113
113
115
113
113
113
112
113
113
110
106
100
98
98
106
102
96
96
100
102
102
102
104
102
104
102
100
98
98
100
104
106
110
110
108
108
108
110
106
100
100
102
98
98
100
98
100
95
89
93
87
82
77
82
82
86
89
95
100
106
108
113
117
117
117
113
113
113
112
115
115
115
113
115
112
104
100
98
108
104
98
98
100
104
100
100
100
104
100
98
98
98
100
106
106
106
108
110
110
108
108
104
100
95
96
100
102
100
102
102
100
98
96
98
93
82
81
81
84
84
86
93
100
106
110
112
115
117
117
115
115
113
113
117
121
117
117
115
112
110
104
102
106
104
98
98
102
102
96
98
100
98
100
98
100
100
106
110
112
112
110
110
112
112
106
102
98
93
93
98
102
104
102
104
102
100
98
100
96
89
84
84
84
86
84
89
96
104
110
113
113
115
115
115
115
112
112
115
117
115
115
115
113
113
110
104
104
100
98
100
102
100
95
96
96
96
98
96
102
106
108
110
110
113
113
113
110
110
106
100
96
93
95
96
98
100
100
100
102
102
102
100
100
93
86
84
86
84
84
87
95
102
108
115
115
115
113
113
113
115
113
113
112
115
117
117
117
117
112
106
100
96
98
100
100
102
96
95
96
95
95
98
104
108
108
110
110
112
113
113
110
110
106
100
95
93
96
96
100
100
98
98
100
102
100
100
98
95
87
86
82
82
82
87
93
102
108
115
117
112
112
113
115
115
113
112
113
115
117
119
117
117
113
108
100
98
96
96
96
96
93
91
93
93
93
100
100
104
104
108
108
110
112
112
112
106
104
98
91
89
96
100
102
100
96
95
100
102
100
100
100
96
89
86
82
81
81
86
91
98
106
113
117
112
113
115
115
113
112
113
115
115
115
117
115
113
113
112
100
96
96
95
96
93
91
91
93
89
93
98
100
104
102
106
108
110
110
110
110
104
98
93
91
91
100
104
104
100
95
95
100
100
102
100
98
96
93
87
84
84
82
82
89
95
104
112
115
117
119
119
115
113
115
115
113
112
112
113
115
113
112
110
96
96
96
96
96
93
91
95
91
89
93
96
100
102
102
106
106
110
108
110
108
100
95
93
96
98
104
108
106
98
95
95
98
100
102
102
96
96
95
89
86
86
82
82
87
91
98
108
115
119
119
119
119
117
119
117
115
115
113
113
112
112
112
112
96
95
96
93
93
93
93
95
91
91
96
96
100
104
102
106
108
108
110
110
104
95
91
93
100
104
106
104
104
102
98
98
102
102
98
98
98
98
95
89
87
84
79
79
82
87
95
102
110
115
119
119
123
123
123
121
119
115
115
113
112
112
112
112
96
91
93
93
91
93
93
95
93
95
98
98
102
100
104
106
108
104
104
106
100
93
89
91
98
104
108
104
102
104
100
98
100
100
96
96
100
98
95
91
87
82
77
76
79
84
89
98
106
113
121
121
123
125
123
125
123
119
115
117
113
112
112
112
93
89
89
87
89
91
96
98
96
96
102
104
104
102
104
104
106
104
102
100
100
98
95
96
98
102
104
104
104
104
100
96
100
100
98
100
102
100
93
91
89
82
77
76
77
84
84
93
102
112
121
123
123
123
121
125
123
121
121
119
115
112
110
110
89
86
86
84
84
89
93
98
100
102
104
106
104
102
106
104
102
102
98
96
95
98
96
100
100
102
104
106
104
104
100
98
98
100
98
98
102
100
96
93
91
86
77
77
81
82
81
87
96
106
115
123
125
123
119
121
121
123
125
125
119
115
113
113
87
84
84
84
86
89
91
96
102
104
106
106
106
106
110
108
104
104
102
96
95
100
102
104
104
104
106
106
106
106
98
98
98
98
96
100
102
100
98
93
91
89
84
81
82
81
79
82
91
100
110
119
123
121
123
123
125
125
125
127
123
119
117
113
84
82
86
86
89
95
96
98
100
104
104
106
106
104
104
110
110
104
102
98
96
100
106
108
106
104
106
106
110
104
98
98
98
96
98
102
104
104
100
96
96
93
87
84
81
81
81
82
86
96
106
113
119
121
123
127
127
129
125
125
125
123
117
115
82
81
86
87
91
96
100
104
106
106
108
106
110
108
106
110
108
104
102
100
98
100
104
106
106
106
106
110
110
104
102
100
100
98
98
100
102
102
102
100
96
91
87
84
81
77
81
84
86
93
100
110
115
121
123
123
127
127
129
125
125
125
121
117
81
82
86
89
95
98
100
104
108
108
108
106
108
112
106
108
108
104
102
100
100
100
102
106
108
110
112
112
110
104
102
102
100
98
96
98
96
98
100
98
95
93
87
82
79
79
81
81
86
89
95
104
112
117
123
123
123
125
127
127
127
121
119
117
84
87
91
95
98
98
102
102
106
106
106
106
106
106
106
106
106
106
100
102
102
104
108
108
110
112
110
110
108
102
100
98
98
98
96
96
95
98
98
98
98
93
89
84
81
79
82
81
84
89
96
102
108
115
121
123
125
123
125
127
123
121
117
115
87
89
93
98
100
102
102
102
102
102
104
104
104
104
108
108
106
104
100
104
104
106
106
110
112
110
112
112
108
104
100
100
98
95
95
93
96
98
100
100
100
98
93
87
82
81
79
81
82
87
95
100
106
112
119
121
125
125
123
123
121
117
117
121
86
89
95
100
106
106
106
104
104
104
106
102
100
102
106
108
104
102
102
102
102
108
110
110
112
112
110
110
106
104
100
98
98
96
95
96
96
96
100
100
98
96
93
91
87
84
79
81
84
87
93
96
102
110
117
121
125
123
123
123
121
119
119
121
86
89
95
100
106
106
106
104
104
106
104
102
102
104
106
106
104
102
104
106
108
110
112
112
110
110
108
106
104
106
102
98
96
98
98
98
95
95
96
98
100
96
98
95
95
89
82
81
84
86
89
93
98
106
113
119
123
121
121
123
119
119
119
121
