P2
# 161 of 608 Angiograms
64 64
255
113
112
110
106
108
113
112
113
117
121
119
123
123
121
119
112
108
98
89
82
76
76
76
81
84
82
84
91
93
106
112
112
106
100
96
95
93
89
87
84
81
77
81
91
100
108
112
113
112
112
115
113
112
112
110
108
106
102
102
100
98
102
108
113
112
110
110
110
112
115
117
117
117
119
121
125
125
125
123
117
112
104
93
84
77
76
76
81
82
81
86
89
91
102
112
113
108
106
100
98
98
95
89
87
82
79
84
91
96
106
112
115
113
112
113
113
113
113
112
106
106
104
100
100
96
98
104
113
113
112
112
113
115
117
119
121
119
121
123
123
125
125
125
121
115
110
96
86
81
74
74
79
81
82
84
86
91
102
112
115
112
108
106
102
102
100
93
91
87
86
86
87
95
102
108
110
113
113
112
115
113
110
112
106
104
106
100
100
100
98
102
108
112
112
115
115
119
119
117
123
121
123
123
123
123
125
123
121
121
113
104
91
82
77
76
79
82
86
84
84
86
96
106
112
113
112
110
106
108
108
100
96
91
84
81
86
89
96
104
110
110
112
112
113
112
110
110
110
106
104
102
100
95
96
102
106
106
110
115
117
115
115
117
121
121
123
125
123
121
121
121
121
123
119
112
96
87
82
77
77
81
84
82
81
82
91
100
108
112
113
115
112
106
110
108
100
93
87
77
81
86
91
100
110
112
113
112
112
112
112
112
112
106
102
100
96
96
96
100
106
106
110
115
115
115
115
115
115
117
121
123
121
117
119
117
119
121
123
115
106
95
89
84
81
81
82
82
79
82
87
96
104
112
113
115
113
110
110
112
108
96
89
81
76
79
86
95
104
110
113
112
113
112
112
112
110
106
102
96
98
96
96
100
106
106
108
112
113
112
113
113
110
113
115
117
121
119
121
119
119
123
123
117
112
104
95
89
84
84
82
84
84
84
87
91
102
108
113
115
117
115
115
115
112
104
93
86
77
77
81
89
96
104
110
112
115
113
110
108
108
106
102
100
98
100
98
100
104
108
110
112
113
113
112
113
113
115
117
119
119
121
121
119
119
123
121
115
115
112
106
98
91
87
86
86
84
84
87
91
98
108
115
115
117
115
115
113
113
108
102
91
82
77
79
84
91
98
104
108
110
112
108
106
106
104
102
98
96
98
98
100
102
113
113
110
113
117
113
113
115
119
119
119
117
119
119
117
117
121
119
115
113
112
112
110
104
95
87
86
82
82
87
89
95
104
113
113
113
113
115
112
112
110
106
98
86
81
81
82
86
91
100
102
108
108
110
110
110
106
102
100
98
98
104
102
100
113
115
115
119
117
115
115
117
119
119
119
119
119
121
121
119
117
115
113
112
115
117
115
110
102
93
89
86
86
87
86
91
100
112
115
113
115
115
112
112
113
110
104
93
82
81
81
81
86
93
98
102
106
108
108
108
106
102
104
104
102
104
102
102
112
113
115
119
115
113
117
119
117
117
117
119
119
123
125
121
117
113
110
112
117
121
121
115
108
96
93
89
86
84
82
91
100
112
115
113
112
115
115
115
113
108
106
98
87
81
76
76
79
86
91
95
100
104
108
106
104
102
106
108
106
104
98
96
113
113
115
115
115
115
115
119
115
115
119
121
119
121
123
119
115
110
110
115
123
125
121
119
113
102
95
91
86
81
82
89
98
108
112
115
115
119
123
121
115
110
110
104
93
82
74
72
74
79
86
87
91
98
106
106
104
104
108
108
106
106
98
98
112
115
117
115
113
115
115
117
115
119
123
123
119
119
121
115
112
108
110
117
123
127
125
121
117
110
100
95
87
82
82
86
95
104
112
115
117
121
121
121
119
115
113
108
96
84
76
71
74
76
81
84
86
93
102
108
108
106
108
110
108
104
102
100
112
113
113
113
113
113
115
119
119
119
117
119
121
119
119
115
108
108
112
115
121
127
127
123
119
112
108
100
91
86
82
84
91
98
108
117
119
121
121
119
119
117
113
110
100
86
76
68
68
72
77
82
82
89
98
106
110
110
110
112
112
106
100
98
108
112
112
113
113
113
112
117
117
117
115
119
121
119
119
115
113
108
113
117
119
123
123
125
117
113
112
104
96
86
82
81
86
93
104
113
119
125
125
125
121
115
113
113
104
89
79
69
68
71
76
81
81
87
96
104
110
112
113
112
113
108
102
98
108
110
112
117
115
115
113
115
119
121
115
117
121
121
119
113
110
113
117
121
121
121
121
121
115
117
115
108
98
91
87
82
82
89
98
108
117
125
127
125
123
117
113
113
108
93
82
74
71
69
72
77
79
87
96
102
110
113
112
110
112
110
108
104
106
110
112
115
115
117
117
117
121
121
117
119
119
119
115
110
108
113
121
121
119
119
117
121
119
117
117
110
102
93
91
89
84
87
95
106
113
123
127
125
121
115
113
115
112
100
86
79
74
71
71
76
79
86
95
100
108
113
112
110
108
110
108
108
106
106
108
113
115
117
119
119
121
123
121
119
119
115
110
108
108
113
121
121
119
117
117
119
121
117
115
112
104
98
93
89
84
87
93
104
113
121
127
125
123
115
113
115
115
106
91
81
77
72
69
72
79
86
93
100
106
110
112
108
106
108
108
102
104
104
106
108
113
119
121
121
121
121
117
115
113
110
106
104
106
110
117
119
117
117
113
117
117
117
119
113
104
100
95
89
84
84
87
98
112
119
127
125
121
115
115
115
115
110
98
87
79
77
74
76
79
86
89
96
106
108
112
110
108
108
106
100
102
100
104
104
108
112
117
119
119
119
115
113
110
104
100
98
102
108
115
117
113
115
113
113
115
117
121
113
106
102
98
91
87
86
87
96
108
115
123
125
119
115
115
115
113
113
106
93
86
79
76
77
81
86
89
95
104
110
110
108
108
106
104
102
106
100
100
104
108
106
112
115
115
113
113
112
106
98
95
96
102
104
110
112
112
112
113
115
115
117
115
113
106
102
98
93
89
87
87
95
106
113
119
121
121
117
115
115
117
115
112
100
89
86
82
82
84
86
91
93
100
104
110
108
110
108
110
106
108
106
102
104
104
106
108
108
108
108
108
106
100
95
93
95
98
102
104
110
112
110
110
115
117
115
113
112
110
106
102
95
89
89
91
96
104
110
113
115
115
119
119
117
115
115
115
106
95
91
87
84
84
87
91
93
98
100
102
106
108
108
108
106
108
106
106
104
100
102
106
108
108
106
106
104
96
95
93
96
102
106
106
108
112
110
113
115
119
117
115
113
112
110
106
96
91
89
91
96
104
108
110
112
115
119
119
117
117
115
113
110
100
95
95
91
87
89
87
91
95
96
96
102
106
108
108
108
106
104
104
100
98
98
100
104
104
104
106
102
95
96
96
102
110
112
110
113
115
113
113
117
117
115
113
115
113
112
106
98
93
93
87
93
102
108
108
110
112
117
121
117
115
113
113
112
104
96
96
96
93
93
95
89
89
95
95
100
104
104
108
108
102
102
104
102
100
96
96
100
102
104
102
100
95
95
98
106
112
110
113
113
113
115
113
113
115
115
115
113
112
108
104
98
95
87
86
91
100
106
106
106
106
112
117
117
115
113
113
112
106
96
91
96
96
96
100
95
89
91
93
96
102
102
104
106
106
104
106
106
104
102
100
100
102
104
100
102
96
96
104
108
110
108
113
113
115
115
113
112
113
113
115
115
115
110
104
98
98
87
87
87
98
100
102
106
102
106
113
115
115
113
115
112
108
100
98
96
96
98
102
100
96
95
93
93
98
100
102
104
108
108
110
110
108
106
104
106
106
106
102
100
98
104
106
112
113
113
115
113
112
113
110
112
108
110
112
113
113
110
106
98
95
91
87
87
95
100
102
104
102
104
106
112
112
112
115
112
110
104
100
98
96
100
102
100
98
95
93
93
95
96
96
100
110
113
113
112
112
113
113
112
110
106
104
100
102
104
110
113
115
115
115
113
113
113
110
110
110
108
110
115
115
110
106
102
95
93
91
93
93
98
104
104
100
100
102
110
113
113
117
115
113
108
104
104
104
106
104
102
98
95
91
91
91
91
91
95
112
113
112
110
112
113
115
112
106
104
102
98
104
110
113
113
117
115
115
113
115
112
110
108
108
112
112
113
112
108
110
102
93
95
93
93
95
96
100
98
96
96
98
106
115
113
119
119
117
112
106
106
104
102
104
104
100
95
91
87
86
87
87
89
115
115
115
110
108
108
108
104
100
100
98
98
108
113
113
113
115
113
113
113
113
110
108
106
108
112
112
110
112
112
112
104
95
95
96
96
95
93
93
96
96
96
96
104
112
117
119
123
121
115
110
106
102
104
104
100
100
96
91
86
86
86
82
84
115
115
112
110
106
106
104
102
100
98
98
104
112
115
115
112
115
119
115
113
113
112
110
112
112
113
113
113
112
113
110
104
100
96
96
98
96
95
93
96
100
96
98
104
110
113
119
121
121
119
115
110
106
102
98
96
96
93
89
86
82
82
82
84
113
113
113
110
106
102
100
98
100
100
100
108
115
115
115
117
119
119
117
115
115
115
115
115
113
113
113
113
112
110
106
102
102
100
100
98
98
96
95
100
102
98
100
104
108
112
115
119
121
121
115
112
108
100
96
96
96
93
91
87
86
82
82
86
115
113
112
106
102
98
96
98
100
100
102
110
115
113
115
119
121
117
115
117
113
113
115
115
115
117
117
113
112
110
104
102
100
102
106
106
104
100
96
100
102
100
100
104
106
108
113
115
119
119
117
113
110
104
100
95
95
93
93
89
86
82
82
87
113
112
108
104
100
96
95
100
102
106
106
110
112
113
115
117
119
115
117
117
117
119
117
117
121
121
121
117
112
110
106
102
100
106
108
108
108
104
102
104
106
104
102
104
104
106
108
112
115
121
121
119
115
108
102
98
98
100
96
91
86
81
82
89
112
106
106
104
102
96
96
100
106
108
112
110
112
112
113
117
115
113
113
115
119
121
119
121
119
121
121
117
110
108
106
104
104
108
110
106
104
104
106
106
106
108
106
106
106
102
106
108
113
119
123
123
119
113
104
98
100
98
96
91
86
82
84
89
110
106
104
104
104
102
102
104
106
108
108
112
108
110
112
115
113
115
117
117
119
121
119
121
123
125
121
119
113
106
106
110
110
112
112
106
102
100
102
104
106
108
108
106
106
100
102
106
112
121
125
125
121
115
110
102
98
96
95
91
89
84
86
91
104
108
104
98
102
104
106
108
108
106
106
112
110
110
113
113
113
113
115
117
117
119
121
123
123
123
121
119
113
110
108
112
115
117
115
108
104
102
102
102
106
108
106
104
104
104
102
102
110
117
123
125
123
119
113
108
102
96
93
91
89
89
89
96
104
104
104
104
102
106
108
108
108
104
106
112
112
112
113
113
112
112
115
121
121
121
121
123
125
123
123
117
112
112
110
115
117
119
119
112
104
102
100
104
106
108
110
106
106
106
106
104
108
115
119
125
127
123
117
112
106
102
95
91
93
91
95
98
106
104
104
104
104
106
108
108
106
104
104
108
110
110
110
113
113
115
117
123
123
119
119
121
125
123
125
119
112
112
113
117
121
121
119
113
106
102
102
104
104
108
112
108
106
102
104
104
108
110
115
121
125
125
119
113
112
108
102
96
96
96
100
102
106
104
106
108
102
102
106
108
106
102
102
104
106
108
110
110
113
117
119
121
119
115
119
121
123
123
121
117
112
113
115
117
123
119
115
112
108
106
104
104
106
106
110
108
108
102
104
104
106
108
110
115
119
119
117
117
117
115
110
104
98
98
100
102
100
104
104
100
98
100
106
106
106
104
104
104
104
110
112
112
112
117
117
119
121
119
119
119
117
115
112
112
110
112
115
119
117
113
112
110
104
106
106
104
104
104
106
106
104
104
104
104
104
106
106
110
115
117
117
117
123
123
115
108
102
96
98
100
98
96
96
96
98
102
106
110
108
110
110
112
108
110
112
110
110
115
119
121
123
123
119
119
117
112
112
113
112
113
119
117
112
110
106
106
106
110
108
104
102
104
104
100
102
106
108
106
104
104
104
106
110
115
119
119
123
123
121
113
108
100
98
98
96
93
96
100
100
104
106
110
110
108
108
112
113
108
110
110
110
113
119
119
123
125
123
119
115
112
112
117
115
115
115
115
112
108
106
106
110
112
112
106
100
102
100
98
98
102
108
106
104
102
104
104
108
110
117
119
121
123
121
119
113
106
98
100
95
96
100
102
100
104
106
110
108
108
112
112
112
108
106
110
110
113
117
119
121
121
121
115
112
113
113
117
115
117
115
113
113
110
108
110
113
115
113
108
102
102
96
95
96
100
106
110
108
104
102
100
104
106
112
117
117
121
125
123
117
110
102
98
98
100
102
102
102
106
108
108
108
110
112
113
112
112
110
106
108
112
115
115
115
117
117
115
112
110
110
113
117
119
119
115
115
110
112
112
117
119
113
110
106
104
98
95
93
95
104
110
108
104
104
102
102
104
108
113
117
123
125
125
123
117
106
98
100
98
100
104
106
108
108
108
110
112
112
112
112
113
112
106
104
112
112
112
113
115
113
110
106
108
113
113
113
115
119
117
115
112
112
117
121
121
115
108
106
106
98
91
87
91
100
108
110
106
104
100
100
98
106
112
117
121
123
127
129
123
112
104
100
96
96
102
106
108
108
106
108
112
108
108
110
112
113
112
106
108
110
112
113
113
113
110
108
112
115
117
115
117
119
115
112
113
117
121
123
121
115
106
102
102
96
93
89
91
98
104
106
108
104
104
104
98
104
110
119
123
125
129
127
127
119
110
104
100
100
104
106
104
106
108
108
108
106
106
110
112
113
113
110
106
108
113
115
112
112
112
112
115
113
117
117
119
117
115
112
115
119
123
123
117
115
110
106
102
96
91
89
91
93
102
108
106
108
104
102
100
104
110
119
121
125
129
129
131
123
115
104
104
102
104
106
104
104
106
106
106
106
108
112
112
113
115
113
108
108
113
113
110
110
112
117
119
115
119
119
121
119
115
113
117
121
123
119
115
117
113
108
102
96
91
89
91
89
96
106
112
112
108
104
102
104
110
117
121
125
131
131
131
127
119
108
106
104
102
104
104
106
108
106
106
106
108
108
112
115
113
113
112
110
112
112
110
110
113
121
123
117
119
119
123
119
117
119
121
121
119
117
115
115
113
108
102
96
91
91
89
89
93
100
108
110
108
108
106
104
106
113
117
121
129
133
133
131
125
106
108
104
102
100
100
104
108
110
108
106
110
110
112
112
112
113
112
110
112
110
110
110
113
117
123
119
117
121
121
119
119
119
123
123
123
115
115
113
112
108
100
95
89
87
86
89
93
96
102
108
110
108
106
104
104
108
115
119
127
131
135
135
129
106
106
104
104
102
104
106
110
112
112
110
110
112
112
110
112
110
110
108
110
110
110
112
115
117
119
119
119
119
117
119
117
119
121
125
121
115
113
113
112
110
98
95
91
86
86
87
91
95
100
106
112
110
106
102
104
106
112
119
127
131
137
135
133
104
104
104
104
104
106
110
110
112
112
112
112
108
110
112
115
112
112
106
106
110
110
113
115
113
117
121
117
117
115
115
115
117
123
123
121
115
117
117
115
110
98
95
89
86
86
87
89
91
96
106
110
108
106
104
106
104
108
117
127
131
135
133
133
104
104
104
106
106
108
110
110
112
113
112
113
113
110
110
112
113
112
106
106
108
112
115
115
115
115
119
115
113
113
115
117
119
123
121
119
119
121
119
117
110
100
95
86
82
82
86
89
89
95
106
112
112
108
106
104
102
106
113
125
131
131
135
133
100
102
104
104
110
112
112
110
110
113
112
112
113
112
112
110
110
108
106
104
108
110
113
117
115
115
115
110
112
113
113
117
121
121
117
119
121
121
119
119
112
102
95
87
84
86
86
86
87
93
106
115
115
112
108
102
102
106
110
121
131
133
135
135
104
104
102
102
106
108
110
108
108
110
110
112
112
110
108
106
106
102
104
102
104
110
112
113
112
113
113
112
112
115
117
119
121
119
119
121
125
121
117
119
112
102
95
89
87
84
84
84
87
93
106
112
113
113
108
102
98
102
108
119
129
133
133
131
104
102
100
100
100
100
104
102
100
104
110
110
106
106
102
98
98
98
100
104
104
108
110
110
110
110
112
112
113
115
115
119
121
121
123
127
125
119
117
119
113
102
96
89
87
84
82
84
86
91
102
110
113
113
110
102
96
102
106
115
125
131
131
131
100
102
104
100
98
96
102
102
104
104
108
108
108
106
100
96
95
98
100
100
102
102
102
104
106
106
106
110
113
115
115
119
123
125
127
127
129
123
119
121
113
106
98
87
89
87
82
81
84
91
98
110
115
115
113
104
102
104
108
115
123
127
129
129
98
100
104
104
102
102
104
104
106
108
108
106
102
100
100
98
96
95
95
96
96
96
98
100
104
102
106
108
113
117
121
121
121
125
129
129
131
125
123
121
113
106
98
89
87
86
86
81
81
87
98
108
117
115
115
112
104
106
108
112
119
123
127
129
102
100
102
102
102
104
104
106
108
110
106
106
98
93
95
96
95
91
93
93
96
95
95
96
100
100
102
106
110
113
117
117
117
121
129
131
129
127
123
121
115
106
100
93
91
87
82
81
79
86
96
106
113
115
113
113
112
110
108
108
117
121
125
127
108
106
100
96
98
104
106
106
104
102
102
104
96
93
93
93
89
91
95
95
93
93
87
91
95
96
96
104
108
112
113
113
113
119
125
129
129
127
123
119
115
106
98
95
91
87
84
81
81
84
95
102
110
113
119
115
115
110
106
106
115
121
127
129
106
104
100
100
100
102
106
104
100
98
96
96
95
89
91
89
86
87
89
87
86
84
81
86
89
95
98
102
102
106
110
110
112
113
119
125
127
125
121
121
115
104
98
93
91
91
86
84
79
82
91
98
108
113
117
119
113
108
108
108
113
119
123
127
106
102
104
102
100
102
100
100
96
95
95
93
93
91
89
86
82
82
84
82
79
81
77
79
84
91
93
91
95
100
104
104
106
112
115
119
123
123
121
119
113
106
98
95
93
93
86
86
82
82
87
98
110
115
121
123
115
110
110
110
113
117
123
125
106
106
102
98
96
96
98
98
95
91
89
86
87
84
86
84
81
79
79
79
79
79
77
77
79
86
87
87
89
93
96
100
102
104
112
115
117
119
117
115
113
106
96
95
93
93
89
84
84
86
89
98
112
119
123
123
117
113
112
108
112
113
119
123
