P2
# 165 of 608 Angiograms
64 64
255
131
129
135
137
142
144
141
141
139
137
137
141
142
142
144
142
139
135
127
119
115
117
119
119
119
115
110
106
108
108
108
106
110
115
125
129
137
139
137
135
135
127
117
100
89
82
81
81
79
81
86
87
93
102
113
127
137
148
159
172
178
182
185
188
133
131
135
142
144
144
141
141
141
137
137
137
141
139
139
139
135
131
125
121
117
117
119
117
117
115
112
108
108
110
108
110
110
115
125
131
137
135
135
133
129
117
104
89
82
79
76
76
76
81
86
91
100
113
125
135
137
142
148
163
175
182
183
185
129
131
135
141
142
144
142
141
141
137
137
137
137
139
139
139
133
131
127
123
119
121
115
115
117
115
112
110
110
112
110
112
112
119
127
133
133
131
129
125
119
108
91
81
77
72
72
72
72
81
87
98
108
119
129
137
137
139
142
156
170
177
180
182
131
131
135
139
141
141
142
141
139
139
137
133
135
137
137
137
133
133
127
123
121
119
115
112
113
113
110
108
112
112
110
112
115
121
127
127
127
125
123
121
110
93
82
76
71
69
71
71
72
82
93
106
117
127
133
135
135
135
137
148
165
173
177
178
133
131
135
139
139
141
141
141
137
135
135
133
135
135
135
137
135
133
131
127
125
119
113
108
106
110
110
110
112
112
113
117
119
125
129
127
125
123
121
112
96
82
74
69
65
65
68
68
74
87
100
112
123
129
133
133
133
133
135
142
159
170
173
175
133
133
139
142
139
139
141
139
137
135
133
133
135
133
131
135
135
131
129
127
125
121
112
106
102
106
112
110
112
112
115
117
123
129
127
123
123
121
113
98
86
76
69
63
60
60
63
66
77
93
108
117
129
133
135
133
131
131
131
137
150
165
168
170
133
135
141
142
139
137
137
137
135
137
133
133
131
129
133
135
135
129
125
125
125
123
115
112
106
110
112
110
108
110
115
123
129
129
129
123
121
113
100
87
81
72
66
60
60
59
62
69
84
100
112
121
131
135
137
139
135
133
127
135
142
159
167
168
133
137
141
141
139
135
133
131
131
133
133
133
133
129
131
133
135
129
127
127
125
123
117
115
113
113
113
112
108
110
115
125
131
133
129
123
115
100
87
82
81
71
63
62
62
62
69
77
91
106
115
125
131
135
139
139
137
133
131
135
142
154
163
165
133
137
141
141
139
135
133
131
133
133
131
135
133
127
127
133
133
127
127
129
129
127
119
113
113
115
113
113
113
113
119
125
129
131
125
117
104
89
81
77
77
69
65
63
65
71
76
84
96
108
117
127
131
139
139
139
137
133
133
137
142
154
159
165
131
137
139
142
141
137
137
137
137
137
135
135
133
129
127
131
133
129
127
129
129
125
119
117
117
119
119
113
117
117
121
123
127
127
123
112
98
86
79
76
72
68
66
65
69
76
82
89
102
112
121
129
133
141
139
139
137
137
135
141
144
150
158
159
131
137
141
144
142
139
139
133
137
139
135
131
133
129
131
133
131
131
129
127
127
127
123
123
123
123
121
115
121
121
123
125
127
127
119
106
91
82
77
72
68
66
66
69
74
81
86
95
108
115
123
129
133
139
144
142
137
139
139
141
144
148
156
158
129
137
141
142
142
141
137
133
133
135
135
131
131
133
135
135
133
133
131
129
131
127
127
125
125
125
121
115
119
123
123
127
127
121
110
98
87
77
69
66
65
68
69
72
76
82
89
100
113
123
127
131
133
139
142
144
141
137
135
137
141
146
152
156
131
137
139
139
141
139
139
135
133
133
133
131
129
135
137
135
133
129
129
129
129
129
129
129
127
127
121
117
117
119
123
125
119
108
98
89
77
69
66
68
68
71
72
76
79
86
96
106
119
127
131
131
133
139
141
142
141
137
135
135
139
142
150
154
131
135
135
141
141
137
139
137
135
133
131
129
131
133
135
133
131
131
131
127
127
129
131
131
129
125
121
119
115
115
119
117
112
100
89
77
68
65
63
68
71
72
76
81
86
93
102
113
125
131
131
129
133
139
141
142
144
141
137
133
135
141
146
152
135
135
137
141
141
135
135
137
135
135
131
131
129
133
133
131
131
131
129
125
125
129
129
131
127
123
121
121
117
117
117
113
102
91
79
68
62
63
65
71
76
77
77
84
87
98
108
121
127
129
131
133
137
141
142
144
146
141
137
135
137
141
146
150
137
137
137
139
141
137
133
131
131
133
133
129
127
131
131
129
129
127
125
121
123
127
129
129
129
127
125
127
123
119
115
106
93
82
72
63
65
66
66
71
76
77
79
84
91
102
113
125
129
129
131
133
139
139
141
144
142
137
137
137
139
144
148
152
135
137
137
139
137
135
133
131
135
135
135
131
131
129
129
127
125
125
121
119
125
129
131
131
133
127
129
127
125
119
108
95
84
76
68
68
69
71
71
71
72
77
81
86
96
108
117
127
129
129
131
135
137
139
139
141
139
135
137
139
142
146
152
156
131
137
137
139
137
139
133
133
135
133
135
137
133
131
131
129
123
123
123
123
129
133
133
131
131
131
129
129
125
117
100
86
77
71
71
72
71
74
77
74
72
77
84
89
98
110
119
125
127
127
131
135
139
142
141
142
137
137
139
142
146
150
154
158
129
133
137
137
135
135
135
135
135
135
137
137
135
131
127
125
127
125
123
125
129
131
131
133
131
133
131
129
121
110
93
81
74
72
71
74
72
71
72
72
74
82
87
95
100
108
115
123
127
127
129
135
139
141
142
141
137
139
142
144
150
154
156
158
129
129
133
133
131
133
133
135
135
135
133
133
133
133
127
121
125
125
123
125
129
131
131
129
127
133
129
127
117
104
87
79
71
74
71
74
74
72
74
74
79
86
93
98
102
108
113
117
123
127
131
133
137
141
141
137
137
139
142
146
152
156
158
156
127
127
129
129
129
131
135
137
135
133
131
129
131
131
127
123
121
125
125
125
127
129
131
131
129
129
127
121
112
102
86
77
74
72
76
77
76
76
76
81
84
89
96
104
108
108
112
113
119
125
133
135
137
141
139
135
137
141
144
146
150
156
156
152
125
127
127
127
129
129
133
133
133
131
129
127
127
125
125
127
125
125
125
123
125
125
127
127
127
125
121
119
110
96
84
81
77
71
71
72
76
76
79
82
86
95
102
108
108
108
110
113
121
127
135
139
139
141
141
141
141
142
144
146
148
152
150
148
123
125
127
127
131
131
133
129
131
129
127
125
125
125
123
125
125
125
123
119
119
119
123
123
121
123
121
119
110
95
84
79
77
72
72
74
79
79
82
84
89
100
106
110
108
108
110
117
123
131
137
141
141
142
142
141
141
142
142
142
146
148
146
148
127
129
129
129
133
135
133
129
129
127
123
121
121
121
121
121
121
123
125
121
119
117
121
121
121
123
123
119
108
95
82
77
77
76
74
77
79
81
84
91
98
106
110
112
112
113
115
119
127
133
137
141
142
142
141
139
139
137
139
142
146
146
146
148
127
125
127
127
129
131
129
127
125
123
121
121
119
119
119
121
121
119
123
121
117
115
123
121
121
121
121
115
106
91
81
76
74
77
77
81
81
86
91
100
108
110
112
112
115
115
119
121
127
135
137
141
142
139
137
135
137
141
141
144
148
148
150
150
123
121
125
125
123
125
125
123
121
121
119
119
117
117
121
121
125
119
121
121
117
117
121
119
119
119
117
112
100
87
79
79
77
79
81
82
86
91
98
108
110
112
113
117
119
119
123
125
127
133
137
139
139
135
133
135
139
141
144
144
150
154
152
148
125
121
117
121
121
125
127
121
119
121
117
115
113
117
119
121
121
119
121
123
121
123
125
121
119
119
115
112
100
89
81
81
79
79
81
84
91
98
108
112
115
115
117
119
121
125
127
127
127
129
133
135
133
129
133
137
139
142
142
146
150
154
150
150
123
121
117
119
123
127
127
123
117
117
113
113
119
119
117
121
121
119
117
119
123
125
125
123
121
119
115
112
102
91
86
81
79
77
81
89
98
108
113
117
119
119
119
123
125
129
131
127
123
125
129
131
131
135
137
139
141
142
141
146
148
150
152
150
121
119
119
117
125
125
123
123
121
119
119
119
121
123
119
121
119
117
119
123
125
125
125
125
121
115
117
113
102
91
87
84
79
79
86
95
106
115
119
119
119
121
121
123
125
129
127
125
123
125
127
129
131
137
137
137
141
141
139
142
146
150
152
150
112
112
112
113
119
125
123
123
123
121
121
125
123
123
123
121
117
115
121
125
125
123
121
121
117
119
119
117
104
91
87
84
81
81
89
104
115
117
119
117
119
121
125
127
127
123
123
123
125
127
127
129
135
139
137
135
139
141
141
142
144
148
150
148
96
96
98
102
112
119
121
123
121
121
123
123
125
123
123
123
121
121
123
123
123
121
121
119
119
121
121
119
104
93
86
79
79
84
95
112
119
119
117
119
119
123
125
125
121
121
121
123
127
131
133
135
135
135
135
135
139
141
141
142
144
148
148
148
86
84
86
91
98
106
113
119
119
119
119
123
123
123
123
123
127
127
123
125
127
121
119
119
119
121
121
115
100
89
81
76
76
86
104
117
121
117
113
115
117
119
121
119
119
119
125
127
129
133
133
131
129
131
135
135
137
139
141
144
144
148
148
148
77
76
77
79
82
93
102
110
115
117
119
123
123
121
121
125
129
129
131
129
129
123
117
121
119
117
115
110
96
82
76
72
76
89
108
115
119
117
112
112
113
113
115
119
119
125
129
129
129
129
129
129
127
131
135
137
137
137
139
144
142
146
148
146
74
71
69
71
71
76
84
98
110
115
119
123
123
121
123
123
127
127
129
129
127
121
117
117
115
112
108
98
87
79
72
72
82
95
106
113
115
113
110
110
112
113
115
123
125
127
129
127
125
123
123
125
127
131
133
135
133
133
135
142
142
142
148
146
79
74
71
68
66
68
74
84
98
110
115
121
125
121
123
125
127
127
125
123
123
119
117
115
112
106
100
95
86
79
77
81
87
96
106
112
115
112
108
110
112
113
121
127
127
127
129
131
127
125
123
125
127
129
131
133
133
133
135
139
142
144
148
146
93
86
81
74
69
68
71
77
86
98
110
117
121
125
125
125
127
123
121
117
117
117
113
110
104
98
95
93
91
86
84
87
91
96
104
108
115
113
110
113
115
121
127
129
127
129
131
133
129
125
125
127
125
125
127
131
133
133
137
139
142
142
146
146
106
100
93
86
79
76
74
76
82
89
100
108
117
123
125
125
123
121
119
119
115
113
110
104
98
93
89
95
95
93
91
91
91
96
102
106
115
115
117
117
123
127
129
131
129
131
131
131
131
129
131
127
129
125
127
129
131
131
135
139
142
142
142
141
112
110
108
100
93
87
84
81
82
84
91
98
110
117
123
125
121
119
119
117
113
110
104
98
98
96
98
98
100
100
95
91
91
95
100
106
115
121
121
123
127
127
123
129
131
131
131
131
129
125
129
129
127
127
129
127
129
129
131
135
141
142
139
139
117
115
117
112
108
102
96
96
93
89
87
95
102
112
119
125
123
119
119
113
108
106
102
98
100
102
106
106
108
104
100
95
89
93
98
106
113
123
127
127
129
129
127
125
129
131
129
129
127
127
129
129
127
125
129
129
129
127
127
131
135
139
139
141
121
117
117
115
112
110
108
108
104
102
95
95
100
104
112
119
119
117
112
106
106
102
100
100
104
108
112
115
115
112
104
95
91
93
95
102
112
119
127
127
129
131
131
127
129
127
127
125
123
129
129
129
129
129
127
129
129
129
127
129
131
135
139
139
123
119
115
115
115
113
115
119
117
113
106
98
98
102
104
108
110
104
102
96
96
98
100
104
110
115
121
123
123
117
106
98
93
91
95
98
110
117
123
127
131
131
131
127
127
127
127
123
125
125
129
129
131
133
131
129
127
125
125
127
127
129
133
137
119
117
113
121
119
119
123
123
125
121
115
106
98
96
96
96
91
86
84
86
91
100
104
110
117
121
125
127
127
119
112
98
95
93
96
100
106
112
119
125
131
133
135
131
129
127
127
127
127
129
131
131
133
135
133
131
129
127
127
129
127
125
129
133
115
115
115
121
123
123
123
125
127
123
119
112
102
96
91
86
77
76
77
81
91
100
110
117
121
123
125
127
127
121
113
100
95
91
96
102
106
110
113
121
129
135
135
131
129
127
127
131
131
131
131
131
131
131
133
133
129
129
127
127
123
123
123
129
112
115
119
119
121
121
123
123
121
119
115
110
100
89
82
74
69
71
74
82
93
106
113
115
119
125
123
125
127
121
113
100
95
93
96
100
104
108
108
113
125
133
133
131
131
129
131
133
135
135
133
133
129
131
131
131
129
125
123
127
121
123
125
123
115
117
119
115
117
123
121
121
119
117
113
102
93
84
77
71
69
72
79
89
100
110
112
113
115
121
125
125
127
121
113
98
91
91
95
96
100
100
100
108
119
127
129
131
133
133
133
133
137
137
137
133
133
133
129
129
129
127
127
127
125
123
125
123
117
117
117
117
117
121
121
119
117
113
104
93
86
82
79
74
74
79
87
96
108
113
113
108
112
119
125
127
127
121
112
96
87
89
91
93
95
96
98
102
112
121
125
131
133
137
137
137
135
133
135
135
133
135
131
129
127
125
125
127
125
121
119
119
115
117
115
115
117
117
117
115
113
106
98
86
79
81
84
81
82
89
96
106
112
115
112
106
110
115
119
125
123
121
112
98
87
87
91
91
91
95
96
100
108
119
123
129
131
133
133
135
133
135
135
133
131
131
129
127
123
123
123
121
117
115
115
117
113
113
113
115
117
117
115
112
106
98
91
84
84
82
86
87
93
98
106
112
115
115
110
110
110
110
113
115
117
113
108
98
86
84
87
91
95
96
100
100
104
115
123
127
127
129
135
133
131
131
133
131
127
127
125
121
123
123
121
117
115
113
113
115
112
113
115
117
119
117
113
104
96
91
87
84
84
87
93
96
102
106
112
115
115
115
115
117
112
113
112
108
108
108
104
98
86
82
82
89
91
96
100
98
104
113
123
125
129
127
131
129
127
129
127
127
131
129
127
125
123
123
121
117
113
113
115
119
110
112
113
115
115
113
104
96
91
86
84
86
89
96
102
104
108
113
113
115
113
117
117
115
115
113
110
106
106
106
102
96
87
81
81
86
91
96
98
95
100
112
121
125
123
123
125
125
127
131
129
131
135
131
129
127
125
123
119
115
115
115
119
121
110
113
117
115
112
106
96
91
89
87
87
89
98
104
110
110
110
110
112
112
110
115
119
117
115
119
117
112
112
110
106
98
91
84
82
82
87
93
95
93
98
108
117
123
125
125
125
125
127
131
133
131
131
127
129
127
125
121
117
115
117
117
123
123
112
113
113
112
104
95
91
87
89
87
93
98
104
110
113
112
110
106
106
108
110
115
119
117
117
121
117
115
115
112
108
102
95
87
86
86
86
91
91
91
98
108
117
123
127
127
129
127
129
129
129
129
127
125
125
125
125
119
117
115
117
117
123
123
115
113
108
104
96
89
91
91
93
96
102
104
110
113
117
113
108
104
104
110
112
117
119
119
117
117
115
115
117
117
112
106
98
93
93
89
89
91
93
93
98
110
121
127
127
129
131
131
131
131
127
125
125
123
123
121
119
115
117
117
119
119
123
119
115
108
104
98
91
86
89
93
98
102
106
110
113
115
115
112
110
108
108
110
113
119
121
119
113
113
115
113
115
119
115
112
102
96
95
89
93
96
95
91
100
113
123
129
131
133
131
133
131
129
125
121
123
121
119
119
117
113
117
117
119
123
125
123
108
102
96
95
93
87
89
95
100
106
110
115
117
115
115
112
112
113
110
113
115
117
117
115
112
112
117
115
115
117
119
115
106
100
93
95
96
95
95
91
102
117
127
129
131
133
131
127
125
125
123
121
123
121
119
119
117
119
119
119
119
121
123
127
98
95
89
87
91
95
91
98
106
108
115
117
117
115
113
110
108
112
112
113
113
117
115
115
110
112
115
119
117
119
119
115
108
102
98
96
98
98
93
93
104
117
127
129
129
129
127
127
125
123
121
119
119
115
115
117
115
117
117
117
121
121
123
125
96
89
84
82
87
95
98
104
110
115
115
119
113
112
110
112
112
112
108
110
112
113
113
113
110
113
115
117
113
115
117
113
110
104
98
95
96
98
95
95
104
113
119
125
123
123
125
125
127
123
121
119
115
112
112
113
117
119
121
121
123
125
127
125
89
86
82
82
86
95
102
110
115
117
117
115
110
110
112
113
113
113
110
108
106
110
113
110
112
115
113
113
113
112
110
110
108
104
100
95
98
98
98
98
104
112
115
119
119
117
119
121
121
119
119
115
113
113
115
117
119
121
121
119
123
123
127
127
82
81
82
86
91
98
110
115
115
115
115
113
113
115
115
115
115
113
112
110
108
106
112
112
113
115
113
113
115
113
112
110
108
106
100
95
95
95
96
96
104
110
113
110
108
112
112
113
115
115
113
112
112
113
113
113
115
121
123
121
123
125
125
125
81
82
84
89
95
104
113
117
115
115
113
110
113
115
115
117
117
113
113
112
110
108
110
112
113
113
113
113
113
113
113
113
112
104
102
95
91
91
95
96
106
112
110
108
108
110
110
110
112
112
112
112
112
115
112
112
112
115
119
123
123
123
123
123
79
86
89
93
102
112
115
119
115
113
113
112
115
115
119
119
117
115
112
112
112
108
108
108
110
110
110
110
110
112
112
113
110
106
102
95
93
95
95
100
108
112
108
106
108
110
112
110
110
108
108
113
115
117
115
110
108
113
117
121
125
121
121
123
82
89
93
98
108
113
117
115
110
112
115
113
115
115
119
117
119
119
115
112
112
108
106
108
108
110
108
106
106
112
108
112
108
102
98
95
95
98
100
106
110
110
108
106
106
110
110
108
108
112
113
115
115
115
112
108
108
113
119
121
123
121
119
121
89
93
96
104
110
115
115
113
110
112
115
117
115
117
119
115
115
115
115
112
110
108
106
108
108
108
106
102
104
108
106
112
110
100
98
96
96
98
104
108
110
110
110
110
110
110
108
106
108
113
117
119
117
113
110
113
113
115
117
119
119
119
119
119
91
95
100
106
110
113
112
112
108
106
112
117
115
117
117
115
112
112
113
112
110
106
110
110
112
108
104
102
102
106
110
110
106
102
100
100
96
96
102
106
112
113
112
112
113
113
112
108
110
115
121
123
121
113
113
117
119
119
119
121
121
123
123
123
