P2
# 166 of 608 Angiograms
64 64
255
115
115
117
115
115
107
110
115
115
115
112
117
120
122
120
122
120
115
103
93
86
84
84
89
98
110
120
122
122
125
125
129
129
127
129
129
127
129
127
125
115
110
107
105
100
93
91
93
98
98
103
105
110
117
122
125
129
134
137
129
122
115
115
117
110
112
115
112
115
115
112
112
112
112
115
117
120
122
125
127
122
115
105
95
89
86
82
86
95
107
115
120
120
122
125
129
132
127
127
127
132
134
134
134
129
122
115
110
107
100
93
98
98
100
100
95
103
110
112
115
115
120
122
122
120
117
122
122
112
115
115
115
115
120
115
110
112
115
117
117
122
125
125
125
122
115
105
95
89
82
78
80
89
103
110
117
122
120
125
127
127
125
122
125
129
134
139
137
134
132
127
117
110
107
107
105
103
100
95
91
98
103
103
103
105
110
110
112
117
122
129
132
112
112
117
120
117
120
117
110
112
115
120
122
125
125
122
120
117
110
105
95
86
80
76
76
84
98
105
112
120
122
122
127
129
127
122
127
129
129
132
134
134
132
132
129
122
120
120
120
115
107
103
100
100
100
95
93
95
98
98
103
110
120
127
134
110
112
120
122
120
120
117
112
112
115
117
122
127
125
125
122
112
105
103
95
82
74
70
72
80
93
103
110
117
120
115
120
125
125
122
125
127
125
125
129
132
132
134
134
132
132
132
132
122
115
110
105
103
98
93
89
89
86
86
91
100
110
117
125
112
117
120
122
122
122
120
115
117
117
115
117
125
125
127
125
112
110
103
95
80
74
74
76
80
89
100
107
115
122
122
120
120
120
120
122
122
122
122
122
127
132
134
137
139
139
139
139
132
125
115
110
105
100
98
91
89
84
84
84
91
98
103
110
115
115
120
125
122
125
125
120
117
115
112
117
122
125
125
125
117
112
105
95
80
78
76
78
78
84
95
105
112
120
122
120
117
120
120
120
122
122
120
122
127
129
132
132
139
144
144
144
142
134
127
117
112
105
103
95
89
82
80
82
89
89
93
100
115
115
117
120
117
120
122
120
112
110
112
117
122
125
125
125
122
117
112
98
82
74
72
72
74
80
89
98
107
115
120
120
122
122
122
125
127
125
122
125
127
129
129
129
132
139
147
147
144
142
137
129
120
112
107
100
91
84
82
86
89
89
89
93
115
117
120
117
115
117
120
117
112
112
115
120
122
125
125
127
127
120
115
103
86
76
72
68
68
74
80
89
100
112
117
122
127
127
127
129
127
127
127
125
122
125
127
132
129
134
142
142
144
144
142
134
127
120
112
105
98
93
91
93
91
89
86
91
120
120
122
120
120
120
117
115
117
117
120
120
122
125
122
125
129
122
115
105
91
80
72
68
66
72
74
80
93
105
115
125
129
132
132
129
129
127
127
127
125
127
129
134
134
139
144
147
147
144
144
137
129
122
112
110
110
112
110
110
105
98
93
93
120
120
120
117
120
122
120
120
117
120
120
122
122
120
117
125
129
122
115
107
95
84
76
70
68
72
70
74
86
100
115
125
132
137
134
132
129
129
125
125
122
125
132
134
139
144
149
149
147
147
147
137
129
117
110
110
117
125
125
125
120
115
107
103
120
122
122
122
122
122
120
117
115
117
122
125
122
117
120
125
125
125
117
112
100
91
80
72
68
74
72
76
84
98
115
125
129
132
134
132
132
132
129
122
117
120
132
139
144
149
149
149
147
149
144
137
127
115
110
112
117
127
134
137
134
132
127
122
125
122
122
122
122
125
122
122
120
117
122
125
122
122
125
125
122
122
117
112
107
98
86
76
70
74
70
78
84
95
112
122
127
129
129
129
132
134
132
127
122
125
137
142
144
149
149
149
147
147
144
137
125
117
115
115
117
132
142
149
151
149
147
144
125
125
122
125
125
122
125
125
120
115
115
120
122
122
122
122
122
122
115
110
107
105
95
84
74
72
74
78
84
93
107
120
125
127
127
127
127
127
127
125
125
137
142
144
149
147
151
151
144
142
144
137
127
125
122
120
122
132
144
151
154
151
151
156
122
125
122
125
122
122
122
117
115
112
110
112
115
115
117
122
122
122
115
112
115
112
105
95
82
78
78
80
86
93
103
112
120
125
127
127
127
122
122
127
137
144
147
147
149
149
154
151
149
147
144
134
129
129
129
125
127
132
144
151
151
151
156
163
122
122
122
122
117
120
120
115
115
110
110
107
110
115
117
120
122
122
122
122
120
120
115
105
95
84
82
86
89
93
103
110
115
125
132
129
127
125
129
139
142
144
149
149
149
149
149
149
151
149
142
132
132
134
134
129
129
134
142
149
151
154
156
159
120
117
120
120
120
122
122
117
115
115
112
107
107
112
117
115
120
125
125
125
125
125
122
112
103
93
86
89
89
91
100
107
115
125
134
134
132
134
137
139
142
147
149
151
149
147
149
149
147
142
134
132
134
137
134
132
132
132
137
144
149
151
151
154
117
117
120
122
122
120
120
117
115
115
112
115
112
110
112
112
117
120
125
125
125
125
127
120
110
98
91
89
91
93
98
105
112
127
134
134
139
139
137
139
144
147
149
149
147
144
144
144
142
137
132
129
137
139
137
134
129
129
129
137
144
147
147
149
122
120
122
122
122
117
117
117
115
112
115
115
112
112
115
117
117
117
120
125
125
122
127
120
112
105
95
91
93
95
98
103
112
127
132
132
134
137
137
139
142
142
144
144
142
142
142
139
134
129
127
132
139
142
142
139
137
129
125
129
139
144
147
149
125
125
127
125
120
117
117
117
120
117
115
115
115
112
117
117
117
117
117
120
122
125
122
120
115
112
103
93
91
93
98
103
112
125
129
132
132
134
137
134
134
134
137
137
137
134
137
134
129
127
129
137
142
142
144
142
139
134
127
125
134
142
147
149
125
125
127
125
125
122
117
115
115
120
117
115
110
115
117
117
117
117
117
120
122
120
120
120
120
112
107
98
89
91
100
105
112
122
129
132
129
129
132
132
132
129
129
134
129
129
132
132
129
127
132
137
142
142
139
137
137
134
127
125
129
142
147
151
125
125
125
125
125
125
122
120
117
117
115
115
115
117
117
117
117
120
122
122
122
120
117
117
120
115
107
103
95
98
103
107
115
122
127
127
127
127
127
125
127
125
127
125
125
125
125
129
129
132
132
134
139
137
134
134
134
137
129
125
129
139
144
147
127
125
125
125
122
120
120
122
120
115
112
110
115
117
117
117
122
122
120
122
122
120
120
117
120
115
107
100
98
100
103
110
115
125
129
132
134
132
129
125
125
120
122
122
120
125
122
122
127
129
127
132
134
137
137
137
137
137
129
127
129
134
139
139
127
125
125
125
122
120
120
122
117
115
112
110
112
117
117
115
120
120
120
120
120
120
120
117
115
115
107
100
98
100
103
110
115
125
132
137
139
134
132
129
122
120
120
120
120
117
115
115
120
122
125
127
129
129
132
134
134
132
127
127
132
132
137
137
129
127
125
125
122
120
120
120
117
117
115
110
112
115
112
112
117
120
120
117
117
115
115
117
115
115
112
107
103
105
107
110
115
125
129
129
134
137
137
134
127
122
120
117
115
115
107
105
110
115
120
120
122
125
127
129
132
129
125
127
132
132
134
139
132
127
127
122
122
117
117
120
117
120
117
112
112
115
115
115
117
117
117
112
110
112
115
117
120
120
120
117
110
105
105
110
110
125
129
129
132
134
134
137
137
127
120
117
115
112
105
103
100
105
110
112
115
117
120
125
127
127
125
127
132
129
134
139
127
122
125
127
125
117
117
120
120
120
117
110
115
120
117
117
115
117
115
110
107
112
117
117
122
125
127
125
115
107
105
107
112
125
129
132
132
134
132
134
137
137
127
122
117
112
103
98
98
98
100
107
112
112
115
120
125
122
120
122
129
127
132
139
125
120
120
127
125
120
120
122
125
120
115
112
110
112
115
115
120
122
117
112
110
112
115
120
125
127
132
129
122
112
112
112
117
127
132
134
132
134
132
134
134
134
134
127
125
117
110
100
95
93
95
100
107
107
112
117
117
117
117
120
125
127
132
137
122
120
125
122
122
120
122
125
125
117
117
115
112
112
112
115
115
117
117
117
115
112
115
117
122
127
134
132
127
117
115
115
120
127
132
134
134
134
134
134
132
129
134
132
127
125
117
112
105
98
98
98
103
105
110
110
112
112
112
115
117
122
129
137
122
122
125
125
122
120
122
125
125
120
117
117
117
117
115
115
120
117
117
120
117
117
112
115
120
127
132
129
127
120
112
112
115
122
127
127
129
134
134
134
132
129
134
132
129
129
125
117
115
110
105
100
100
103
103
107
107
107
110
112
112
117
127
137
120
120
122
125
122
122
122
122
122
120
120
115
115
115
115
117
120
115
117
117
117
117
115
115
120
125
129
132
127
120
112
107
107
115
120
125
127
132
134
132
132
129
134
134
129
132
127
122
122
122
117
110
105
105
100
103
103
105
107
107
107
112
120
129
117
117
117
120
122
120
120
122
122
122
125
117
115
115
115
115
115
112
120
117
120
117
117
117
120
125
127
129
127
117
110
100
103
112
120
122
127
129
134
132
127
125
132
134
132
132
129
127
127
127
127
120
115
110
110
107
105
103
107
105
100
103
112
122
120
115
112
117
120
115
115
120
125
122
125
120
115
115
117
115
115
115
122
125
122
125
122
120
122
127
127
127
125
117
107
100
103
107
120
125
125
129
132
129
125
125
129
132
129
129
129
129
132
129
129
125
122
117
115
112
110
103
100
100
95
95
103
112
122
122
117
112
112
112
115
115
115
120
122
117
112
112
117
115
117
120
125
129
127
127
127
125
127
129
129
129
125
117
110
103
103
105
115
125
127
129
129
127
129
129
127
127
127
129
132
132
134
134
129
127
122
122
120
117
117
112
103
98
95
93
98
105
122
125
120
117
112
115
115
115
115
120
120
115
110
112
112
117
120
122
125
129
129
129
129
129
129
129
129
129
125
120
112
107
105
105
110
117
122
127
125
122
127
127
127
127
122
120
122
125
129
129
127
125
122
122
125
127
125
122
115
105
98
91
93
98
120
117
117
115
115
115
115
120
120
120
120
115
112
110
110
115
117
120
122
127
127
129
132
134
132
127
129
132
127
120
117
110
105
103
107
112
117
122
122
122
125
127
129
125
117
115
117
125
127
127
127
127
125
125
129
129
129
129
125
117
105
93
93
98
117
117
115
120
120
120
117
117
117
117
115
110
112
110
110
115
115
112
117
125
129
129
134
137
134
129
127
129
127
122
120
110
105
103
105
107
115
117
120
122
125
127
127
122
115
110
115
122
129
129
129
129
125
120
122
127
127
129
129
125
120
105
98
98
117
120
117
122
125
122
117
115
117
115
112
110
110
110
112
112
115
112
115
115
125
127
134
137
134
129
129
129
127
122
117
110
105
103
105
107
107
107
112
120
125
127
129
122
115
112
117
125
129
129
129
129
127
122
122
122
125
127
127
127
129
120
110
103
117
120
117
120
120
117
115
115
115
115
115
112
115
115
117
117
115
115
115
112
120
125
132
134
132
129
127
127
129
125
117
110
107
105
105
103
100
100
105
115
127
127
127
125
117
117
122
125
125
125
127
129
129
127
122
122
122
125
125
127
129
122
120
112
112
115
117
120
117
112
112
112
112
112
115
117
117
112
110
115
112
112
112
115
117
125
132
129
125
127
127
122
122
122
120
112
107
103
95
91
93
98
100
107
122
129
127
122
117
120
122
122
125
127
127
127
127
127
127
120
122
125
125
125
125
122
122
120
110
112
115
117
115
112
110
105
110
115
120
120
117
112
110
112
107
107
112
115
120
127
129
129
129
127
127
120
117
120
122
115
105
95
86
84
86
91
95
103
115
127
125
117
115
120
122
125
125
122
127
129
129
129
127
125
122
125
127
125
125
122
125
125
110
110
110
110
112
110
107
105
110
117
120
117
112
110
107
110
110
110
112
120
125
127
129
132
134
129
127
120
117
117
120
117
105
93
84
84
84
86
91
98
110
120
117
115
117
122
129
127
122
122
127
132
132
132
132
129
125
125
127
127
127
122
125
127
112
107
107
107
110
110
110
110
110
112
115
115
112
110
107
107
110
110
112
120
122
127
127
129
132
132
127
122
122
120
120
120
107
95
86
82
82
82
86
93
107
117
117
120
122
125
125
125
127
127
129
129
132
134
132
127
127
129
129
129
127
125
127
129
107
107
107
107
112
112
112
112
107
107
110
112
110
107
110
107
110
107
110
112
117
120
127
127
129
127
122
122
125
125
125
122
110
98
86
78
78
80
82
91
103
115
117
122
125
125
122
122
125
129
129
129
132
134
129
127
127
132
129
129
127
127
129
129
107
107
112
110
112
115
112
110
110
107
107
107
105
105
105
105
107
107
110
107
112
117
125
127
125
120
120
120
122
122
122
120
112
100
89
80
76
76
80
86
95
110
117
122
125
127
125
125
127
127
129
132
132
129
127
125
125
129
129
125
125
125
127
127
110
107
110
112
115
115
112
107
110
110
107
105
103
100
103
105
105
103
105
110
112
117
120
125
120
117
117
117
120
122
120
115
112
105
93
84
78
76
78
84
89
103
115
120
122
125
125
129
129
132
129
129
129
127
125
125
127
129
129
125
125
122
125
125
110
107
110
115
117
115
112
107
107
112
110
107
105
103
103
107
105
105
107
112
115
115
117
120
117
115
115
117
122
120
120
120
117
107
95
89
84
76
76
80
82
93
107
115
120
122
122
125
127
127
127
127
127
127
127
127
129
129
129
125
122
120
120
122
115
112
110
110
112
110
107
105
105
110
112
110
110
110
107
110
107
107
107
112
117
120
120
115
115
115
117
120
120
122
122
125
120
112
100
91
84
78
74
76
80
82
93
107
112
115
115
117
122
125
125
120
120
122
125
127
129
127
127
125
122
117
115
120
110
112
112
110
110
105
103
105
110
112
112
112
112
112
110
110
110
112
112
115
125
125
125
120
117
120
117
120
120
115
117
117
117
112
107
95
86
80
78
74
76
78
86
95
103
105
107
110
115
117
117
115
115
115
117
122
127
127
125
125
120
117
120
120
110
115
120
120
115
110
105
112
112
110
107
110
112
112
110
115
112
112
115
117
125
127
125
122
122
122
120
117
115
112
112
112
112
112
110
103
91
84
80
78
78
78
84
89
93
98
98
100
103
105
107
110
112
115
117
117
117
120
122
125
122
122
120
120
110
115
120
117
117
112
110
115
110
107
105
105
107
107
107
115
112
110
112
117
120
122
122
120
120
120
120
117
115
112
112
115
112
115
112
107
98
86
78
80
78
78
84
89
89
91
91
91
93
95
98
100
107
115
122
120
117
120
122
125
125
125
122
122
112
117
115
117
115
112
110
110
105
100
103
100
103
105
107
112
110
107
112
115
115
115
115
115
117
117
122
120
115
115
115
117
117
120
115
112
105
93
82
82
80
82
84
86
84
86
84
84
84
84
91
95
103
112
117
120
117
120
127
127
127
125
127
127
115
120
117
120
122
120
112
107
105
103
100
95
95
100
103
110
110
107
107
112
112
112
112
112
115
117
120
117
117
117
117
120
117
120
120
115
110
100
89
82
84
84
84
84
84
86
82
80
82
86
91
93
100
107
110
110
112
115
120
125
125
125
125
125
112
117
117
120
122
120
117
110
105
105
98
93
93
98
100
105
110
112
110
110
115
112
117
115
115
117
115
117
120
122
122
120
117
120
122
120
117
107
93
82
82
82
84
84
84
89
82
78
84
89
89
91
98
103
105
105
110
115
115
117
120
120
122
120
110
115
117
117
120
120
117
115
107
103
95
91
91
95
95
98
105
107
107
112
110
112
117
115
115
117
120
122
122
125
125
125
122
120
120
120
122
115
98
86
80
82
82
82
84
89
84
80
84
89
91
91
95
100
103
103
110
112
112
110
112
117
120
117
115
117
117
120
117
120
120
120
110
98
93
91
95
98
93
95
98
100
103
107
110
110
117
112
112
117
120
125
120
122
122
122
120
117
120
120
117
115
103
89
80
84
86
86
89
86
84
86
86
91
93
91
93
93
98
100
110
115
112
112
115
115
115
115
120
120
117
120
117
120
120
117
110
100
93
93
98
98
100
100
100
98
103
105
107
107
112
115
112
117
120
120
120
122
122
120
120
122
120
120
115
112
103
91
82
82
86
91
93
86
86
89
91
91
89
89
89
91
91
98
105
112
115
112
115
112
112
112
117
120
115
117
120
117
115
115
110
103
95
95
95
95
98
98
100
100
103
105
110
107
110
112
112
115
120
117
117
117
117
117
120
125
122
117
115
110
98
93
84
84
89
93
93
89
84
86
86
89
91
89
86
91
89
93
95
105
112
112
112
112
115
115
115
117
117
122
122
115
110
112
112
103
98
95
93
98
98
100
103
98
100
105
105
105
107
110
112
115
120
117
120
117
115
120
122
125
122
117
112
107
98
93
89
84
89
93
93
91
89
89
91
93
93
93
91
91
93
89
91
95
107
117
112
117
117
117
117
115
117
117
117
115
110
112
112
105
95
93
95
98
98
98
100
103
100
103
107
105
107
112
117
117
117
120
122
120
115
122
125
122
122
120
115
107
100
93
89
89
91
95
98
98
95
95
100
98
93
95
95
93
95
93
93
91
98
115
115
117
117
117
112
112
115
112
112
112
112
110
112
107
98
93
93
93
93
95
98
105
107
107
110
107
112
115
115
115
112
117
120
122
117
122
125
125
122
120
115
107
103
93
86
89
91
98
100
100
98
98
105
105
98
95
93
91
91
91
91
91
95
107
117
120
120
117
107
110
110
110
110
112
115
112
115
110
103
98
98
93
93
98
100
105
105
105
107
105
107
112
117
115
107
112
117
120
117
120
120
120
122
120
112
105
100
91
86
86
89
98
103
103
100
100
105
103
100
98
91
86
91
91
91
93
95
103
115
125
122
120
110
110
110
110
112
112
112
115
115
112
107
103
98
93
93
95
103
105
105
107
107
105
107
110
112
112
107
110
115
120
120
120
120
120
120
117
110
105
98
91
89
91
91
100
105
105
103
100
105
103
103
98
95
89
86
91
91
93
95
100
110
125
127
125
107
107
112
110
110
107
110
112
115
115
110
105
100
98
95
98
103
105
110
110
107
107
110
112
110
110
110
110
112
117
117
117
117
115
115
115
110
103
98
93
91
93
98
107
107
105
105
105
105
105
105
103
98
93
91
91
89
86
89
95
107
120
129
129
