P2
# 168 of 608 Angiograms
64 64
255
89
95
105
117
122
127
137
149
154
154
149
134
115
103
98
98
100
95
100
117
134
144
147
142
137
127
117
107
103
100
98
98
95
95
98
98
100
105
107
122
139
159
168
174
176
178
176
176
176
172
168
159
142
117
103
105
115
134
154
156
154
147
142
137
93
103
115
122
125
132
142
151
156
161
156
142
122
105
100
98
98
98
105
122
139
149
149
142
137
134
132
122
115
110
103
98
98
103
100
98
98
100
100
107
120
137
154
165
172
176
174
174
172
172
168
159
142
117
103
100
103
125
144
154
149
144
147
144
103
110
120
127
129
137
144
151
159
163
159
147
127
107
103
98
95
95
107
125
144
149
149
144
139
137
139
137
129
122
115
107
103
103
98
98
95
100
100
100
105
117
132
149
161
170
174
172
170
170
168
159
142
117
105
95
100
115
137
149
149
147
149
147
110
117
125
127
134
142
144
151
161
165
161
151
132
112
100
95
95
100
107
125
147
151
151
147
139
139
139
142
142
134
125
115
110
103
100
100
98
98
100
98
98
107
115
127
144
159
163
163
163
163
161
151
142
122
107
98
100
112
134
149
151
149
149
149
112
120
125
129
137
144
149
151
161
163
163
156
139
117
100
93
93
98
105
122
142
149
149
147
142
137
139
144
144
142
137
127
120
112
107
105
103
103
103
100
98
105
110
112
122
139
154
159
159
159
154
147
144
127
110
100
103
112
132
149
156
154
151
151
110
120
127
132
139
147
149
151
156
161
163
159
147
120
103
98
95
95
100
115
134
147
151
149
144
139
139
144
142
142
139
139
132
122
117
112
110
110
110
103
103
103
105
105
110
120
134
147
151
151
147
144
139
129
115
103
107
115
129
151
156
156
159
156
110
117
127
132
139
142
147
151
154
159
159
159
151
125
107
100
98
95
95
105
125
139
149
149
144
139
137
137
139
139
139
139
142
137
127
122
117
115
115
107
103
100
103
103
105
110
117
129
139
139
139
139
137
127
117
110
110
115
129
151
159
161
163
165
110
112
122
127
134
139
142
144
151
154
156
159
151
127
110
98
93
91
93
95
110
127
142
144
139
137
134
134
134
137
142
144
149
149
142
134
125
120
117
112
105
103
103
103
105
105
110
115
122
129
134
134
129
127
120
107
107
115
127
151
161
163
168
172
105
110
115
122
129
137
142
142
144
149
154
154
149
127
107
98
89
84
86
91
95
112
129
139
137
134
134
137
132
134
139
147
151
154
151
147
139
129
122
117
112
110
110
107
107
107
103
105
110
117
122
127
127
127
122
103
100
112
127
149
163
165
168
172
103
110
115
117
127
134
137
137
139
144
149
151
142
125
105
93
84
78
82
84
89
95
112
129
137
137
139
139
134
132
137
144
149
151
151
151
147
142
132
125
117
112
110
107
107
105
103
103
103
105
110
112
120
120
112
100
100
115
127
147
161
168
170
168
103
107
112
117
122
129
134
139
139
142
144
147
139
122
103
91
82
76
78
80
82
84
95
112
129
139
142
137
134
132
134
139
144
147
149
151
151
149
144
137
127
120
115
110
110
107
107
107
103
100
103
103
105
105
105
100
105
120
129
139
156
168
168
165
100
105
110
115
120
127
132
137
139
139
144
144
137
120
103
89
80
76
72
76
76
78
82
98
115
132
142
139
137
132
132
137
142
144
151
156
159
156
154
147
142
132
122
117
115
112
107
110
105
103
100
100
98
98
95
98
107
122
127
134
149
161
165
161
95
103
110
115
120
125
129
134
134
137
142
144
139
120
103
89
78
76
72
74
70
72
76
82
95
115
134
139
139
137
134
134
137
144
154
159
161
159
159
156
151
144
134
125
117
115
110
107
105
105
100
95
93
86
84
91
103
112
122
129
142
154
159
159
91
98
107
115
117
122
129
134
134
137
144
144
139
125
105
91
80
76
72
70
72
74
74
76
82
98
117
134
139
137
134
134
137
144
149
156
156
156
159
159
156
154
149
139
127
122
117
112
112
110
107
98
89
82
80
82
91
100
107
117
132
147
154
156
89
95
103
105
112
122
129
132
134
139
144
147
144
134
115
95
84
78
76
74
74
74
70
72
78
84
98
117
132
137
134
132
134
139
144
149
151
154
156
156
159
156
156
149
139
127
125
122
122
117
110
98
86
78
72
76
84
89
93
103
115
134
147
154
93
98
100
103
107
120
127
129
134
139
144
144
147
142
129
110
93
84
78
76
72
70
66
66
72
80
89
103
120
132
137
134
137
137
134
139
144
149
151
156
159
159
159
159
147
134
127
129
134
129
112
100
86
74
72
76
84
86
82
86
98
115
134
147
98
100
98
100
105
120
125
127
129
134
139
147
149
147
139
127
107
95
84
76
72
72
68
66
70
78
84
93
107
122
132
137
134
134
132
132
137
142
144
147
151
154
154
154
149
137
127
132
137
137
125
105
91
80
78
78
82
84
86
82
84
98
117
134
103
105
103
103
107
120
122
125
129
132
139
147
149
151
144
134
127
112
98
89
78
76
72
68
72
74
80
86
98
110
122
132
134
132
129
127
134
137
137
137
142
147
149
149
147
139
132
134
139
139
129
112
100
91
86
84
82
84
86
80
76
84
100
115
107
107
107
110
112
117
122
122
127
132
139
144
147
149
147
137
132
127
115
100
91
80
74
72
74
72
76
82
93
100
112
125
132
132
132
129
132
134
134
132
132
139
142
144
147
139
134
134
137
137
129
120
110
103
100
93
89
91
86
80
74
74
84
100
105
107
112
115
115
117
122
125
127
134
139
142
144
147
144
137
134
132
127
117
105
91
80
74
70
70
74
78
84
93
100
112
120
125
127
127
129
132
129
127
129
132
137
142
147
142
137
132
129
129
127
125
120
115
110
103
95
91
89
84
76
70
72
89
107
110
115
112
117
117
120
122
127
134
137
139
142
144
142
137
134
134
134
129
122
110
98
84
78
74
76
80
82
86
93
100
110
117
122
125
129
129
127
125
127
132
134
137
142
144
142
134
125
117
122
125
125
129
127
117
107
100
95
91
82
74
70
78
112
110
110
115
115
120
122
122
127
137
137
137
139
139
139
139
134
134
134
129
127
125
117
103
91
82
80
82
80
84
91
93
100
110
120
122
127
129
132
129
127
127
127
132
134
137
137
132
117
110
117
122
132
139
137
129
125
117
112
103
93
82
76
74
117
112
112
112
112
115
117
120
127
134
137
139
137
134
134
137
132
129
127
125
125
129
129
120
105
95
89
86
84
86
91
91
93
105
115
122
122
125
125
125
122
122
122
122
127
132
132
132
115
107
117
129
139
144
144
137
134
132
129
122
110
95
82
76
120
120
117
115
110
107
112
117
127
132
137
139
137
137
134
129
125
125
125
122
122
132
134
129
120
105
98
91
86
86
86
89
91
98
110
115
115
112
117
122
120
120
117
115
117
125
132
132
125
117
125
137
149
154
151
144
139
139
142
139
129
117
100
86
125
120
115
112
110
112
117
122
125
129
132
137
137
137
134
129
122
122
122
120
122
127
132
134
129
117
105
100
91
89
86
86
91
95
103
107
110
107
110
117
117
115
112
115
120
127
132
132
129
127
132
144
154
156
151
147
144
144
147
147
144
137
120
103
125
120
115
112
115
117
120
122
125
127
127
132
134
132
132
132
125
120
120
117
122
125
127
132
132
127
117
105
98
91
86
84
89
93
103
103
105
105
107
110
112
112
112
120
122
125
127
127
132
134
137
144
154
156
149
149
151
151
154
154
154
151
137
117
120
117
115
117
117
120
122
122
122
122
127
129
134
132
132
129
129
122
117
120
122
125
125
129
132
132
129
112
100
91
84
86
91
93
100
110
110
110
107
105
107
107
110
122
127
127
125
125
134
139
139
142
149
154
151
151
154
159
159
156
156
156
151
134
115
115
117
115
117
125
122
125
122
122
129
132
134
132
127
127
127
120
117
120
122
122
125
127
129
134
134
125
107
95
89
91
91
93
105
115
120
117
115
112
112
110
112
117
120
122
117
117
129
134
137
137
144
149
151
154
159
163
159
154
154
156
154
147
112
115
117
112
117
125
125
127
127
127
132
134
134
129
127
127
125
120
117
117
120
122
125
127
129
132
134
132
115
98
91
91
93
93
105
120
122
125
122
120
120
117
115
115
115
115
112
110
122
129
129
129
137
147
151
159
161
161
159
154
151
154
151
149
112
115
120
117
120
125
127
127
127
127
132
134
134
129
125
127
127
125
120
120
117
122
125
125
127
127
134
132
120
100
93
89
91
91
103
120
125
125
125
127
129
125
120
112
110
107
105
105
110
120
125
127
134
144
151
156
159
159
156
151
149
149
149
147
117
120
122
120
122
125
125
125
127
127
129
132
129
127
125
125
127
127
122
117
117
120
120
122
122
125
129
127
117
105
95
91
89
89
100
117
125
125
122
127
129
129
127
115
107
103
100
103
105
110
117
125
129
137
147
151
154
156
154
149
149
149
149
147
120
122
125
122
125
122
122
122
127
129
129
129
127
127
125
127
129
127
125
117
117
117
115
115
120
122
122
120
112
105
100
95
93
91
100
115
122
125
125
127
134
132
132
122
112
105
100
98
103
105
107
115
122
132
139
144
147
149
151
151
149
149
147
147
117
122
125
127
127
125
125
125
125
125
129
129
129
129
127
127
127
127
122
120
120
120
117
115
115
115
117
115
112
107
103
98
98
98
100
112
117
122
125
127
132
132
129
125
120
110
98
95
98
103
105
105
112
122
129
137
139
142
149
154
149
147
142
144
122
117
120
122
122
117
122
122
122
122
122
127
127
127
129
127
127
127
125
122
125
122
120
112
110
107
112
112
115
112
107
103
100
100
98
105
112
117
122
127
132
129
125
122
120
112
100
98
100
103
103
98
100
112
122
129
134
137
142
149
149
147
144
144
122
117
117
117
117
117
120
122
117
117
120
122
125
125
127
129
129
127
122
122
125
125
120
112
107
110
112
112
115
115
115
107
95
91
93
95
105
112
115
122
127
125
120
117
120
112
110
107
105
103
103
100
93
100
112
122
129
134
137
144
147
149
149
147
122
120
120
117
117
115
117
117
117
120
122
125
127
127
127
129
127
122
120
122
125
127
120
110
105
110
112
107
112
115
115
110
100
89
89
89
93
100
107
115
120
117
115
112
112
110
110
110
110
105
100
100
95
100
105
117
122
129
134
137
144
144
144
147
120
122
122
122
117
115
117
120
122
125
127
125
125
127
129
132
127
120
117
120
122
125
120
115
112
112
110
107
115
115
115
115
107
93
89
89
86
91
98
107
112
112
112
110
107
107
110
110
112
112
110
110
110
110
110
112
120
125
129
134
139
142
142
147
122
120
120
122
120
117
117
120
125
127
125
122
122
127
127
129
127
127
120
120
120
120
117
115
112
112
110
112
115
115
117
117
112
100
91
86
86
84
86
95
105
107
107
107
107
110
112
115
115
112
112
115
117
125
122
117
120
125
129
129
137
139
142
144
117
117
120
120
120
115
115
117
122
127
122
122
125
125
127
132
127
125
120
117
117
117
115
117
115
112
112
112
115
117
117
115
112
107
93
89
84
80
80
84
91
98
103
105
107
112
115
120
120
115
115
120
127
132
134
129
125
127
127
125
129
134
137
137
117
117
120
120
122
117
117
120
122
125
120
120
122
120
125
129
129
125
120
117
117
117
117
117
120
120
115
112
110
115
120
117
115
107
93
86
82
78
74
76
82
89
95
100
105
110
117
122
122
122
122
127
132
134
139
137
134
129
125
120
125
127
132
132
120
117
120
117
120
120
117
120
117
120
120
117
120
120
125
127
127
122
120
120
117
117
115
120
120
117
115
112
110
110
115
117
112
105
95
84
80
74
70
74
74
78
84
91
98
107
120
122
125
125
125
127
132
137
139
142
139
137
132
127
122
122
120
125
120
120
120
120
122
120
117
120
115
117
122
120
120
122
120
117
117
115
117
117
117
117
120
120
120
117
115
112
110
110
110
115
112
107
100
89
80
74
72
70
68
66
72
78
84
95
110
122
122
125
125
122
127
134
142
144
147
147
139
132
125
120
115
117
122
122
120
120
120
117
120
120
117
120
122
122
120
122
117
115
117
115
115
117
120
120
120
117
117
117
117
112
110
110
107
107
107
107
107
98
86
80
76
72
64
66
68
70
74
82
95
107
120
125
122
120
125
134
144
147
147
149
144
137
129
125
120
117
122
122
120
120
120
117
115
117
117
117
122
125
125
122
117
115
115
117
117
122
122
122
122
117
115
115
115
110
110
110
105
103
105
112
110
107
98
89
80
74
66
62
66
64
64
72
82
93
105
115
117
120
125
132
142
147
147
147
144
142
134
129
125
122
120
120
117
115
120
117
117
117
122
120
120
122
122
120
122
117
117
117
120
122
125
122
122
117
112
107
107
107
105
110
105
105
107
110
110
110
107
98
89
80
70
66
64
62
60
66
76
82
93
103
110
115
122
132
139
144
147
144
142
139
137
134
129
127
117
120
120
117
117
120
120
120
117
115
115
115
117
120
120
115
115
115
117
122
122
122
120
112
110
110
110
107
103
107
112
112
110
105
105
110
110
107
100
89
78
70
66
66
62
64
72
80
86
91
98
105
115
125
134
142
142
139
137
134
134
134
132
125
115
117
122
122
120
122
125
120
115
115
115
115
115
115
115
115
112
115
117
120
117
117
117
112
107
110
112
110
110
115
117
115
112
105
103
107
110
110
110
98
89
78
72
68
66
68
72
80
84
89
89
95
105
115
127
134
137
137
134
132
129
132
132
127
112
115
117
120
120
125
122
120
117
115
110
110
115
112
112
112
112
112
115
115
115
115
117
112
107
107
110
112
112
115
117
117
112
110
107
105
107
110
112
112
100
89
80
74
72
70
70
78
80
84
86
86
93
103
112
120
125
127
125
120
120
122
125
125
112
115
117
117
120
122
125
120
120
117
112
110
110
110
107
110
112
117
117
115
110
112
112
115
110
105
110
115
112
115
117
117
117
117
115
110
107
110
115
117
112
100
89
82
78
76
74
76
82
84
84
84
89
93
100
105
110
112
112
110
110
112
115
117
112
115
120
120
120
125
125
122
122
120
117
110
107
107
107
110
112
112
110
112
110
112
110
112
112
105
107
110
107
110
117
115
115
117
120
112
107
107
110
115
115
112
105
93
89
84
80
78
80
84
82
84
86
93
95
98
98
100
103
105
105
105
107
107
112
112
115
117
120
122
122
122
122
120
117
110
107
107
112
112
107
105
107
110
110
110
107
110
112
107
105
107
110
115
117
112
107
110
115
115
112
107
110
110
112
115
115
110
100
95
91
86
82
82
84
86
84
89
93
95
98
95
95
100
100
100
103
103
115
112
112
115
117
117
117
115
112
112
112
107
105
105
110
112
107
105
110
107
107
107
105
105
107
107
107
105
110
115
112
107
107
107
112
115
112
110
110
112
112
115
117
120
115
110
105
100
93
89
89
89
89
91
93
95
95
95
95
98
100
100
100
103
112
110
110
112
112
110
110
107
107
107
107
107
107
110
110
110
110
110
110
107
103
103
105
103
100
103
105
107
110
110
110
110
110
107
110
115
112
112
110
110
115
120
122
127
125
125
117
112
105
98
93
93
93
93
95
93
93
95
98
100
100
100
98
98
115
112
112
112
112
105
105
105
107
107
103
107
110
110
110
110
110
112
110
105
103
105
107
103
100
98
100
105
110
110
112
112
110
110
112
117
115
110
110
112
117
120
122
129
129
129
127
125
117
110
103
100
95
93
95
98
98
103
105
103
98
100
98
93
115
112
112
115
112
105
105
105
105
103
105
107
107
110
112
110
107
107
107
103
103
107
110
107
103
100
105
107
112
115
115
112
112
112
112
120
117
112
107
112
117
120
125
132
132
132
127
127
127
125
112
103
98
98
95
100
105
107
110
107
100
100
98
91
112
110
110
112
112
105
105
105
103
100
103
105
107
107
110
110
110
110
107
107
105
107
112
112
105
105
107
112
117
117
112
112
112
110
112
117
117
110
110
115
120
120
122
129
129
127
125
129
132
134
125
112
103
100
100
103
105
110
112
112
107
105
103
98
110
110
110
115
112
107
105
105
105
103
103
105
107
107
107
107
107
110
110
110
110
110
110
107
105
105
110
117
120
117
112
110
110
110
112
120
117
112
112
117
117
117
117
122
125
120
122
132
137
134
129
120
105
103
103
100
103
112
115
117
115
112
112
107
110
110
110
112
112
107
107
105
100
103
100
103
103
105
100
98
105
107
107
110
112
112
112
110
107
105
112
115
115
115
112
110
110
112
115
117
117
117
115
115
117
117
115
120
120
117
122
129
132
129
127
120
110
103
103
98
100
115
125
127
129
129
129
125
112
110
107
107
107
103
100
100
100
105
105
103
103
103
98
98
105
107
105
110
112
112
115
112
110
107
112
112
112
115
115
112
115
115
115
117
115
117
117
117
117
117
112
115
120
117
122
129
127
122
122
115
105
98
98
95
100
117
129
134
137
139
139
139
112
105
105
105
105
100
100
100
103
107
110
107
103
107
103
100
105
107
105
110
112
112
115
115
112
112
115
115
112
115
117
112
112
115
112
115
117
120
117
117
117
117
117
115
120
125
125
127
122
122
120
110
98
95
93
95
105
120
132
139
139
142
142
142
105
103
105
107
100
100
103
105
103
110
110
110
105
107
107
105
107
107
105
107
110
112
115
120
120
115
117
115
115
115
115
112
115
115
115
112
115
117
117
117
117
120
122
122
122
125
125
125
122
122
117
103
95
93
93
95
110
122
134
139
139
139
139
142
103
105
105
105
100
100
103
100
103
107
105
105
107
107
105
105
107
107
105
107
110
112
112
117
115
115
115
117
112
110
112
112
117
115
110
110
112
115
122
120
120
125
125
122
120
122
122
125
122
120
112
103
93
93
95
98
112
127
137
137
137
134
134
139
100
103
100
103
103
100
103
98
100
105
105
100
103
105
105
107
110
110
107
107
112
112
112
112
110
112
115
117
115
110
110
112
115
112
110
110
112
117
120
120
120
120
120
120
120
120
117
117
120
117
112
103
98
93
93
100
115
127
137
137
134
129
129
134
95
98
100
103
103
103
103
98
100
105
105
98
98
103
107
110
110
112
110
110
110
110
112
110
110
112
117
120
115
110
105
110
112
110
112
115
115
115
115
112
115
112
112
117
117
122
120
120
120
117
115
103
100
95
95
103
115
127
132
137
132
129
127
127
