P2
# 173 of 608 Angiograms
64 64
255
110
112
115
115
120
127
129
127
125
115
112
112
112
112
112
112
107
95
86
80
78
82
86
98
117
129
142
149
151
149
149
149
151
151
156
159
161
159
154
147
137
127
122
120
115
115
117
117
120
125
127
127
132
137
137
127
110
105
107
112
112
129
156
170
110
107
110
112
117
127
129
127
125
120
112
110
110
110
107
105
100
91
84
80
78
82
84
93
110
127
139
149
151
151
151
151
149
151
154
159
161
163
161
156
151
142
132
125
122
122
125
122
122
122
125
122
127
129
125
107
105
107
115
120
120
129
151
165
112
107
105
105
112
122
127
129
129
120
115
112
110
110
105
103
93
84
80
78
76
76
80
86
103
122
139
147
151
151
154
154
149
149
151
159
161
163
163
163
161
154
144
139
132
129
127
125
125
122
120
120
120
120
107
95
103
115
125
125
122
125
139
159
122
122
120
117
120
125
129
132
129
122
117
112
107
110
110
100
86
78
74
72
68
68
72
78
93
115
137
144
151
154
154
154
154
156
159
159
163
161
163
163
165
163
154
149
142
137
129
125
122
117
117
120
117
105
91
89
105
117
125
125
117
117
129
147
125
127
127
127
125
125
127
129
127
125
122
115
107
105
107
98
82
76
70
66
66
64
70
74
86
110
132
144
151
154
159
161
159
159
161
161
161
163
163
165
168
163
159
154
151
147
139
134
127
122
117
117
105
91
84
86
107
112
117
117
112
112
117
132
125
127
127
125
127
122
122
129
129
125
125
122
112
105
105
95
78
72
68
66
66
68
70
70
82
98
122
139
151
156
159
161
161
161
161
161
161
163
163
163
165
163
159
156
156
156
154
147
137
127
120
107
95
86
84
93
107
110
107
110
110
105
105
115
122
125
127
125
125
125
125
129
132
132
129
125
122
112
107
95
78
72
66
68
70
72
72
70
80
89
110
129
147
154
156
159
161
165
163
161
159
159
159
159
159
159
156
156
159
161
159
156
149
134
122
103
93
86
91
103
112
112
110
112
110
103
98
100
115
120
122
122
125
127
127
127
129
129
127
127
125
120
112
100
84
74
66
66
68
74
74
72
78
86
98
117
134
149
151
154
161
163
163
161
156
151
151
151
154
154
154
154
156
159
159
159
154
142
122
105
98
98
103
110
112
115
115
112
112
105
98
93
112
112
115
120
122
127
125
127
129
129
129
129
132
129
120
107
91
78
68
68
72
74
76
76
78
86
89
103
122
139
147
151
156
161
161
161
156
151
149
151
154
154
156
156
156
159
161
156
149
137
117
110
107
110
115
115
117
117
117
115
117
112
105
98
115
112
112
115
120
127
127
127
132
129
129
132
132
129
125
115
103
89
76
72
76
74
76
76
78
82
86
93
110
129
144
149
154
159
161
159
156
154
154
154
151
154
156
161
161
161
161
154
144
125
112
110
117
127
132
125
120
115
112
112
115
115
110
107
115
110
112
117
117
125
127
127
129
129
125
125
127
125
122
117
110
100
86
78
78
78
78
74
74
78
82
86
100
122
139
149
154
156
154
156
156
154
154
154
149
151
156
161
161
161
156
147
132
120
115
117
127
137
144
142
129
120
115
112
117
120
120
117
117
115
117
122
122
125
127
127
129
129
129
127
125
125
122
120
115
107
100
91
84
82
78
70
72
76
74
80
93
112
134
147
154
156
156
156
154
151
149
149
149
149
154
156
156
151
144
132
122
120
120
129
134
137
144
147
144
134
127
122
120
122
122
120
120
117
122
127
129
129
132
132
132
129
132
132
129
129
127
120
112
110
107
107
95
84
78
70
70
74
72
76
89
107
125
139
147
151
151
149
147
144
144
147
149
149
149
149
142
134
129
122
122
125
132
137
137
137
137
144
147
147
142
137
132
127
125
122
120
117
117
120
127
127
132
132
132
129
132
134
134
132
127
122
112
110
110
115
110
93
80
70
68
74
76
80
91
103
117
134
139
142
147
144
142
142
142
144
144
144
139
137
134
134
132
129
127
134
142
142
137
134
134
137
144
149
151
151
147
142
134
127
120
117
112
110
120
127
129
127
127
127
127
132
134
132
129
125
120
115
112
117
120
110
91
78
72
74
78
89
95
103
112
127
137
142
144
139
142
137
139
139
139
137
132
134
139
142
137
134
137
142
147
147
142
134
129
129
137
147
151
154
156
154
147
139
117
115
110
105
110
120
122
125
127
129
129
127
129
129
129
125
120
117
117
120
125
122
110
91
82
78
82
93
98
103
107
120
132
142
144
139
139
139
142
142
137
134
137
147
151
147
137
137
139
149
147
144
142
139
129
125
132
142
149
154
159
156
154
147
112
115
112
105
100
107
115
120
125
129
129
127
127
127
127
122
117
120
120
125
127
129
122
105
93
86
86
93
98
103
105
115
125
134
139
139
137
137
139
137
137
139
147
154
156
144
132
132
142
147
144
139
139
139
129
127
125
134
142
149
151
151
151
151
112
117
117
107
98
98
100
107
115
122
120
120
122
125
122
120
120
122
125
127
132
132
129
117
103
93
91
91
93
98
103
110
117
125
125
125
122
125
127
132
134
142
147
149
147
137
132
132
139
142
142
139
139
137
129
122
120
125
137
144
147
147
147
151
115
120
120
112
103
100
98
95
100
110
115
117
120
125
122
120
117
120
125
129
137
139
134
125
112
100
95
91
91
93
98
107
112
117
117
117
115
112
112
120
127
132
137
139
137
132
129
134
139
142
142
139
139
137
132
120
112
117
132
139
144
144
144
147
117
122
125
122
115
105
100
93
95
100
107
112
117
122
120
120
120
122
125
132
134
134
132
129
117
105
100
95
93
95
98
103
107
115
117
115
110
103
103
107
115
120
122
125
127
129
129
134
137
139
139
139
139
139
134
125
112
115
127
139
144
147
147
144
120
125
127
127
125
117
110
103
98
100
103
107
110
115
117
120
120
120
120
125
129
129
129
127
117
105
100
98
95
98
98
105
105
110
115
112
107
98
100
103
107
112
115
115
117
125
132
137
134
137
137
137
139
139
134
129
120
117
125
137
144
149
149
147
127
129
129
127
125
122
120
112
105
105
103
107
107
107
110
112
112
115
112
115
120
125
125
120
115
103
95
91
91
93
98
103
110
115
117
112
107
100
98
100
103
105
103
103
107
115
125
132
134
134
134
134
134
137
137
132
127
122
122
134
144
149
147
144
132
129
129
127
122
120
120
115
112
110
105
107
105
107
110
110
110
112
110
112
112
120
125
120
115
103
91
86
86
86
93
103
112
120
122
120
112
107
103
98
98
95
98
95
98
107
115
122
127
132
137
134
134
137
139
137
129
122
120
129
139
142
142
142
132
129
129
127
122
120
117
112
112
115
115
115
115
115
115
117
117
115
117
117
122
125
127
125
120
107
95
91
91
89
93
105
117
122
127
127
122
117
110
105
98
95
93
89
91
98
105
115
122
127
134
134
137
137
139
137
132
122
122
127
134
139
142
139
129
129
127
125
122
117
112
110
112
120
122
125
125
125
125
127
125
120
120
125
129
137
137
132
125
115
103
95
95
91
98
112
122
122
125
127
125
125
122
115
105
95
91
86
86
91
98
103
112
122
129
132
132
134
134
132
129
125
122
127
134
142
144
142
125
125
127
125
125
120
117
112
115
117
120
125
125
127
132
137
134
129
125
127
132
137
142
137
129
122
107
100
98
95
107
120
125
125
122
120
122
125
132
127
112
100
91
89
86
89
91
98
100
110
120
125
129
132
132
129
127
125
127
125
129
137
139
144
122
125
122
125
125
122
120
112
112
112
117
122
125
125
132
137
139
132
129
129
132
132
139
142
134
125
115
100
95
98
112
120
129
129
125
120
120
120
125
125
117
112
103
98
95
91
91
95
95
100
107
115
122
127
129
132
127
129
129
127
127
129
134
139
117
122
125
127
125
125
122
120
117
112
117
122
127
127
129
134
132
129
132
127
132
134
137
142
139
132
120
107
100
100
112
120
127
127
122
122
122
120
122
125
117
117
112
110
105
100
95
98
95
93
103
107
110
117
125
129
132
132
132
129
127
129
137
139
115
122
122
122
122
125
125
122
117
115
117
125
125
127
127
129
132
129
132
127
129
132
137
139
139
134
125
112
103
100
112
120
125
120
117
120
122
120
120
122
122
125
125
125
117
110
103
100
93
93
98
103
105
105
110
122
129
132
132
127
129
134
139
142
115
117
115
115
117
117
117
117
117
117
120
122
125
125
127
129
134
139
134
129
127
132
137
139
137
134
129
117
105
100
107
115
117
117
115
117
122
120
117
117
120
127
127
129
127
122
115
105
95
93
93
98
100
98
98
105
115
125
127
125
127
129
134
132
115
112
112
115
112
107
110
115
117
117
120
117
120
125
129
134
139
139
134
134
132
134
137
139
137
134
129
120
105
98
100
107
115
117
115
120
120
122
115
110
115
125
127
132
132
129
122
115
100
93
89
91
93
91
91
93
98
107
112
115
117
122
127
127
115
112
112
112
110
107
107
107
115
117
115
110
115
122
129
132
134
134
134
132
134
134
137
139
139
137
129
120
105
95
95
105
110
112
115
120
117
120
115
110
115
122
125
129
129
127
122
117
110
98
91
89
89
86
89
93
93
98
103
107
115
120
127
132
117
112
112
110
110
107
107
107
110
115
117
117
117
120
125
129
134
137
134
132
137
132
134
139
139
137
129
120
105
95
93
98
105
107
117
117
112
112
115
115
115
120
120
125
127
125
120
117
112
107
100
95
95
95
98
95
93
93
100
105
112
117
129
134
120
117
117
120
115
110
110
110
110
112
117
120
122
120
120
127
132
134
134
134
137
132
134
137
137
132
129
120
105
95
93
95
100
105
117
117
112
110
115
115
115
120
120
122
125
122
117
117
115
112
110
107
107
103
103
95
95
93
98
103
110
115
125
132
122
122
122
122
117
110
112
107
107
110
117
122
125
125
125
129
132
137
134
137
139
134
132
134
134
132
129
120
105
98
93
95
95
103
110
115
112
112
117
117
120
125
122
120
120
117
117
115
112
110
107
110
107
107
105
100
95
95
98
98
103
110
117
125
122
125
122
120
120
115
110
107
110
110
115
122
125
125
127
127
132
137
134
139
142
139
134
132
132
132
129
120
105
95
93
89
91
98
107
112
110
117
125
120
125
127
120
117
117
117
115
112
107
107
105
107
105
105
107
105
103
100
98
98
98
103
105
112
125
127
120
117
117
115
110
105
110
110
112
117
122
122
120
122
127
137
137
139
139
139
139
134
132
132
129
120
107
95
89
84
89
93
100
112
115
120
120
117
125
122
115
112
115
117
117
115
110
110
110
107
107
110
112
112
115
115
105
98
95
98
100
105
125
125
120
117
117
112
107
107
112
110
112
112
112
115
117
120
122
132
134
137
139
139
139
137
134
134
132
122
115
103
89
82
80
84
91
100
110
115
115
115
117
120
117
115
120
120
122
117
115
117
117
117
115
115
115
115
117
117
112
103
95
95
98
103
125
122
120
117
112
107
107
110
112
112
112
112
112
112
115
117
122
127
129
132
139
142
144
139
137
137
132
125
117
107
89
76
72
74
80
86
98
107
110
112
117
122
120
122
122
122
125
120
120
122
125
122
120
122
120
117
117
120
117
110
98
98
100
98
122
120
117
112
105
103
107
112
110
112
112
112
112
112
115
120
125
127
127
129
132
139
142
139
137
134
132
127
120
110
93
74
68
68
70
76
84
98
105
107
115
122
122
125
125
125
125
122
122
122
122
122
125
127
122
120
120
122
122
115
107
103
100
100
120
115
110
110
107
105
107
110
110
112
115
117
117
120
117
120
125
122
127
127
127
132
139
139
134
132
132
129
122
115
95
78
70
68
70
72
78
86
98
105
112
120
122
127
125
125
125
125
122
122
125
122
125
127
125
120
117
117
122
120
115
115
110
105
115
112
112
115
115
110
110
112
112
115
115
117
117
122
120
120
122
120
120
122
122
127
132
134
129
129
129
129
125
120
100
82
74
72
76
76
74
78
89
103
115
120
120
125
125
125
125
127
125
125
127
127
122
125
122
117
117
117
125
125
120
120
120
110
112
115
115
115
115
112
112
112
112
117
112
112
117
122
120
120
120
120
117
120
122
125
129
129
127
127
127
127
125
120
107
89
78
74
76
78
76
74
80
95
115
125
125
127
127
125
127
127
127
127
127
127
122
122
122
120
117
120
125
125
120
125
125
117
112
115
112
112
112
112
112
112
112
117
115
112
115
120
120
120
115
117
120
120
122
125
125
127
127
129
125
125
122
117
115
95
82
80
76
76
72
70
74
89
110
120
122
127
129
127
127
125
125
125
125
122
122
122
122
122
120
122
122
122
120
125
125
120
117
115
115
115
115
112
112
110
112
112
115
112
112
115
120
120
117
122
122
120
122
120
122
125
127
125
120
120
117
120
120
105
89
80
78
76
72
66
72
82
100
117
122
125
129
127
125
125
125
120
115
115
117
120
122
120
120
122
122
120
117
120
120
117
117
115
112
117
117
115
110
107
110
107
110
110
110
112
117
117
117
120
122
122
125
125
127
120
115
115
115
115
115
120
122
112
95
82
78
76
70
66
70
80
91
107
120
122
127
129
127
127
120
115
115
110
107
107
110
112
115
122
120
115
117
115
112
110
115
115
115
115
115
115
107
105
105
105
107
110
112
117
117
115
117
117
122
122
127
127
125
117
112
115
112
110
112
115
120
117
103
86
78
74
68
66
68
76
84
95
110
120
122
125
122
120
115
115
112
107
105
103
103
105
107
112
117
115
120
115
110
112
110
112
117
115
115
110
105
103
103
103
107
110
112
115
115
115
117
117
120
120
125
127
122
120
120
120
115
110
110
112
117
120
110
93
82
72
66
66
70
74
78
86
98
107
115
117
117
117
115
112
107
107
105
100
98
98
103
107
112
117
120
120
115
115
110
110
112
115
115
110
107
105
103
103
103
105
107
112
117
115
117
117
117
120
120
122
120
120
120
117
120
117
115
117
122
120
115
100
84
72
66
68
70
72
78
80
86
93
100
105
107
107
110
110
107
105
103
100
100
100
103
103
107
115
120
122
120
120
110
107
112
115
117
115
107
103
100
100
100
103
103
107
115
117
117
120
120
117
117
117
117
115
115
120
122
122
120
125
125
122
120
112
93
78
70
66
66
70
76
80
82
86
89
91
93
98
100
103
105
105
105
105
107
107
105
100
103
110
117
122
122
122
112
115
112
115
115
112
105
100
103
98
93
95
98
100
105
110
115
117
117
115
120
122
120
112
112
122
125
127
129
129
129
127
122
120
107
89
78
72
70
72
78
82
84
84
84
84
86
89
93
93
100
105
105
107
110
110
107
98
100
105
115
120
122
122
112
117
117
115
115
110
105
103
103
98
93
93
93
93
98
105
107
112
112
115
122
120
120
117
117
125
122
125
132
134
129
127
129
125
117
105
89
78
72
72
78
82
84
86
86
82
84
89
91
89
91
98
107
107
107
110
110
100
98
103
110
115
117
122
112
112
115
115
115
115
107
105
103
100
93
89
91
91
95
100
105
107
112
120
122
122
122
120
120
122
122
127
129
132
132
132
129
125
122
115
100
84
76
76
78
80
84
89
89
86
86
89
91
91
91
93
100
105
105
110
110
103
100
103
107
110
115
120
110
110
112
115
115
117
112
107
107
103
95
89
89
89
93
100
105
110
115
120
120
122
125
120
122
122
125
125
127
132
129
127
127
125
125
120
112
95
82
80
78
76
80
82
86
86
86
86
89
89
89
89
93
98
103
107
110
105
103
103
107
112
115
122
112
115
117
117
115
112
112
110
110
107
100
93
93
93
98
100
105
112
117
117
117
122
125
125
122
120
122
125
127
129
127
125
122
127
127
120
112
105
93
82
78
80
84
89
86
84
86
86
84
84
86
89
95
95
95
103
107
105
105
105
107
112
117
125
117
120
120
115
115
112
112
112
110
112
107
103
98
98
103
105
107
112
120
117
115
117
125
125
120
117
117
117
120
125
127
122
122
127
122
115
112
110
98
89
80
82
86
91
89
89
89
89
89
86
86
89
91
91
91
93
100
105
103
103
107
115
122
127
117
120
117
115
115
112
112
110
107
105
105
103
105
103
105
110
110
115
120
117
112
112
117
117
112
112
112
112
115
117
120
122
125
125
120
115
112
112
100
93
89
89
95
98
100
98
93
93
91
91
89
89
84
84
86
89
93
100
103
103
110
117
122
127
117
117
115
115
115
117
115
110
107
100
100
103
105
100
100
110
115
117
122
122
117
112
112
110
107
110
112
107
115
117
122
125
125
125
122
117
115
112
103
100
100
98
100
105
107
103
98
98
98
98
93
91
86
84
84
86
91
95
103
105
115
117
122
125
115
115
115
117
117
115
112
112
110
105
105
105
105
103
103
110
110
115
120
120
115
112
110
107
110
112
112
110
115
120
120
120
125
125
120
115
115
112
105
105
107
103
103
107
107
103
100
103
105
100
93
93
91
86
84
84
89
95
100
105
115
117
117
117
112
115
117
117
115
112
110
110
110
105
105
105
105
103
103
107
107
112
117
120
115
120
115
110
112
112
112
112
115
120
120
120
120
125
115
110
112
107
98
105
107
105
100
103
105
103
100
107
107
105
98
98
95
89
91
86
84
91
95
103
110
112
112
112
112
115
115
115
112
115
115
110
107
105
105
103
100
100
105
107
110
112
120
117
117
122
120
112
112
112
110
112
115
117
127
122
120
117
112
107
107
103
100
105
105
107
105
103
103
105
105
110
110
107
105
100
98
89
91
91
89
91
95
98
105
110
110
112
107
112
115
112
110
110
112
107
105
107
107
103
98
98
103
105
110
115
120
117
117
122
122
117
115
115
110
112
115
120
122
122
120
112
107
105
105
105
105
110
110
112
110
107
103
107
107
107
107
110
110
107
98
91
89
89
91
95
95
95
100
107
107
112
105
107
107
105
103
105
107
105
103
105
105
98
98
100
103
107
110
117
120
117
117
122
125
120
115
115
112
115
117
117
115
115
112
107
105
105
107
110
110
112
112
115
112
110
105
107
107
107
107
110
112
115
105
95
89
86
93
98
93
91
95
103
110
115
103
103
103
103
103
105
103
103
100
100
98
95
98
105
105
105
110
115
117
117
117
120
122
120
112
115
115
117
120
117
115
112
110
107
110
110
110
110
107
107
110
110
107
105
105
105
105
105
107
107
112
115
107
105
95
89
93
91
91
89
89
98
110
115
