P2
# 174 of 608 Angiograms
64 64
255
89
100
112
125
132
134
134
129
122
115
100
91
86
86
82
82
86
89
103
125
142
144
139
125
110
100
95
93
98
98
95
95
95
95
95
103
107
120
137
154
165
170
172
170
165
163
161
156
129
107
103
107
117
142
163
170
174
176
176
172
159
134
105
86
93
105
120
132
134
137
137
134
129
122
107
93
86
84
84
84
82
86
103
127
142
147
144
139
129
115
107
105
103
100
98
98
98
93
91
98
103
105
117
134
151
165
170
165
165
163
163
156
134
110
105
105
112
137
163
172
174
178
180
178
172
161
137
107
98
112
122
134
137
137
137
137
132
127
115
95
86
84
84
80
78
82
98
125
137
142
144
144
142
134
125
115
112
107
100
100
98
95
93
95
98
100
105
117
134
156
165
168
165
163
161
159
137
112
105
105
110
132
161
172
178
178
178
178
176
172
161
137
107
115
122
127
132
134
134
134
132
129
120
105
89
84
80
78
76
80
95
122
132
137
144
147
144
139
134
132
127
120
110
100
100
100
93
93
95
95
98
105
120
134
154
165
165
165
163
159
142
117
103
100
107
127
159
172
176
178
176
176
176
178
172
159
110
112
122
127
129
129
129
129
132
132
127
112
95
86
80
76
78
80
93
117
127
132
139
144
142
137
137
137
137
134
125
110
105
103
95
91
89
89
95
103
110
120
134
151
161
163
163
159
144
120
103
100
107
125
156
172
176
176
174
176
178
178
174
163
120
117
120
125
125
127
127
127
127
129
132
122
103
93
86
78
78
80
93
110
122
127
134
139
139
137
137
134
139
144
137
127
112
105
98
91
86
89
95
103
105
110
117
132
144
151
154
154
147
127
105
100
107
122
154
172
172
170
170
172
174
174
174
161
122
122
120
117
120
122
125
127
127
132
134
129
112
98
93
86
78
80
93
105
117
127
129
137
139
134
134
134
139
147
147
139
127
112
100
93
89
89
98
100
103
105
110
117
127
137
144
147
147
132
110
105
110
120
151
170
168
163
163
165
168
170
168
156
117
120
120
117
115
117
120
125
129
132
134
132
120
103
95
91
84
82
86
95
110
125
132
137
139
137
134
134
137
144
149
147
142
129
112
100
93
91
95
95
98
98
100
107
117
127
132
142
144
134
115
107
110
120
149
165
163
161
165
168
165
168
163
144
112
120
117
112
107
107
112
117
122
129
129
129
120
103
95
89
84
82
80
86
100
117
134
139
142
142
139
134
134
139
147
154
154
144
129
112
100
95
93
93
91
93
98
103
110
120
125
134
139
132
115
107
107
117
147
165
163
165
172
172
168
165
156
134
107
110
112
110
110
107
105
110
117
125
125
127
117
103
93
84
76
76
76
78
86
103
125
139
147
147
144
139
134
134
144
156
159
154
147
132
112
103
98
93
93
98
100
105
110
115
122
127
129
125
112
100
103
117
144
165
170
172
174
174
170
165
149
125
107
107
107
110
107
103
100
103
110
120
122
122
112
98
86
76
70
68
70
72
76
86
107
129
142
149
147
142
134
132
137
149
156
156
149
144
129
115
105
100
100
103
105
110
112
115
120
122
122
112
98
91
98
115
139
163
172
176
174
174
170
165
149
122
100
105
107
112
107
103
98
100
107
117
117
117
107
91
80
70
64
60
62
64
70
76
89
110
129
142
147
147
137
132
132
142
149
154
149
147
142
129
120
112
110
110
110
112
115
117
117
117
112
100
89
89
95
112
134
156
172
176
178
176
172
168
149
122
103
103
103
107
103
103
98
98
107
115
115
115
105
86
74
68
60
53
58
62
68
70
80
93
112
129
142
144
142
134
129
132
142
147
149
149
147
142
132
125
122
120
117
117
117
117
117
115
107
91
82
86
98
107
125
151
168
174
178
176
174
168
154
132
103
98
100
103
103
98
98
95
107
117
115
115
105
86
74
66
60
55
57
62
64
70
76
82
93
110
127
139
144
142
134
129
134
142
147
151
151
149
144
137
132
129
125
120
115
117
115
112
100
84
80
91
100
105
112
139
161
172
176
174
174
168
161
139
100
95
98
103
100
93
93
95
107
115
120
117
110
93
78
66
62
62
60
64
64
66
74
76
82
95
112
129
142
144
139
134
129
134
139
144
149
151
147
144
142
139
134
129
122
120
117
110
93
78
78
93
100
103
105
120
147
163
172
174
172
170
165
151
95
93
98
100
100
95
95
98
110
115
120
120
115
103
86
74
68
64
60
66
66
66
70
74
76
82
95
112
132
142
142
139
134
132
134
137
144
149
151
149
144
144
142
137
134
129
122
107
89
74
80
93
98
95
95
103
125
147
161
170
172
170
168
161
93
89
91
93
93
91
93
100
112
117
117
117
117
112
100
86
74
68
64
64
66
64
66
68
68
74
84
100
120
137
144
147
144
137
132
132
137
142
149
151
149
149
149
142
137
132
122
105
86
80
89
98
98
91
86
91
103
122
144
156
163
163
163
163
93
89
86
84
82
86
91
100
112
115
120
117
122
122
112
100
89
76
70
68
66
64
64
66
68
70
76
89
105
127
144
151
151
144
132
125
129
132
139
149
151
149
147
142
139
129
115
95
91
89
95
100
98
84
78
78
89
103
125
142
151
156
161
165
93
86
82
80
82
84
89
100
112
117
122
122
125
127
117
107
100
91
82
76
72
70
70
70
70
68
72
80
93
112
132
149
156
149
137
127
127
129
129
137
144
147
142
142
134
122
103
95
98
100
103
103
95
80
72
72
78
91
107
125
137
147
154
161
93
86
80
80
80
84
93
103
112
117
120
122
127
127
120
112
105
100
95
89
82
80
74
72
72
68
70
78
86
98
115
134
149
147
142
134
132
132
129
127
129
137
139
137
127
110
98
100
107
115
107
105
98
82
70
70
74
82
98
112
125
134
144
154
93
89
82
80
84
86
98
107
112
117
122
125
127
125
120
115
110
110
110
105
98
89
82
76
74
70
72
76
82
91
100
115
134
142
144
142
139
137
132
127
122
122
127
125
112
103
98
107
122
125
117
110
100
89
74
70
72
78
93
107
117
125
134
144
91
89
86
84
84
89
103
110
112
117
122
127
127
122
117
115
117
120
122
122
117
110
95
86
80
76
76
76
80
86
93
100
115
132
137
142
139
137
137
129
120
120
117
107
100
98
103
120
132
137
134
125
112
100
86
78
78
80
91
105
112
120
125
134
89
91
93
91
89
91
105
112
115
117
120
125
125
120
120
120
122
125
127
129
129
125
115
103
91
86
82
80
82
84
91
93
100
115
125
132
137
134
129
120
112
107
100
93
95
103
112
127
137
144
144
139
134
122
107
93
84
84
93
107
112
120
120
125
91
93
98
93
93
93
105
115
117
120
122
125
122
122
122
120
120
117
125
132
132
129
129
117
103
95
86
82
84
84
91
93
93
105
112
120
122
117
107
103
98
98
91
91
100
110
117
127
142
154
156
151
147
139
132
115
98
91
98
110
115
117
115
115
93
93
95
95
93
95
105
110
117
122
127
127
127
127
120
117
112
112
122
134
134
134
134
129
120
105
95
86
86
84
86
91
91
100
105
110
105
98
91
91
100
98
93
93
103
110
117
122
139
156
161
159
154
151
147
134
120
107
110
117
117
117
115
112
91
93
98
100
95
98
105
110
115
122
127
127
127
127
120
117
112
115
125
129
134
139
139
137
129
115
105
95
89
84
84
89
93
98
98
98
98
98
95
95
98
95
91
93
100
107
112
117
134
151
159
163
161
159
156
149
134
125
120
122
122
122
117
110
98
98
98
100
103
105
110
112
115
120
122
125
125
122
120
120
117
120
125
127
132
139
139
137
129
122
110
103
91
84
80
84
89
93
91
95
103
105
105
100
100
93
91
93
100
103
105
112
125
142
154
159
161
161
161
159
149
134
129
129
129
129
122
112
100
100
103
107
115
115
115
115
117
120
120
120
122
117
120
117
117
122
125
127
132
134
134
132
125
122
115
105
93
84
82
82
86
91
91
103
110
112
110
105
103
95
91
98
100
103
103
105
117
134
147
154
156
161
163
165
159
142
134
134
137
139
132
120
100
105
110
117
120
122
120
115
120
120
115
112
115
117
117
120
122
127
129
127
129
132
129
127
127
122
117
107
95
86
82
84
86
91
98
110
120
120
117
107
103
95
93
100
103
103
100
98
107
127
142
149
154
161
165
168
163
149
137
137
139
144
144
134
105
110
115
117
122
125
120
117
120
117
115
115
112
115
117
122
127
132
132
129
127
129
129
127
127
125
120
112
100
91
86
86
86
91
100
117
127
127
120
112
105
98
100
103
100
103
98
91
98
115
134
144
151
156
163
165
165
154
144
142
142
144
147
144
107
110
112
112
115
117
115
115
117
115
115
115
112
112
117
122
132
134
132
132
129
129
129
127
127
127
125
120
105
93
89
84
86
91
103
122
127
125
120
117
115
110
107
105
105
103
95
86
89
105
125
137
147
154
159
163
161
154
147
142
142
139
142
147
110
110
112
110
112
115
117
115
115
115
112
112
110
110
117
122
132
134
134
132
129
129
132
127
127
129
134
127
112
95
89
84
86
91
105
122
127
122
117
117
122
125
117
112
110
105
95
84
86
95
112
127
142
149
154
156
156
151
149
144
144
139
137
142
110
110
112
115
115
115
117
117
112
115
112
112
110
110
117
122
129
132
134
132
129
132
132
127
125
127
129
127
117
103
89
84
89
95
107
125
127
120
117
122
129
134
129
122
112
107
93
82
82
91
105
117
132
144
151
156
154
151
151
149
147
142
137
137
107
110
115
115
115
117
120
115
115
115
112
107
107
110
117
120
125
127
129
132
129
127
127
125
125
125
125
122
117
107
95
91
93
98
107
122
122
115
122
127
134
134
137
132
122
110
95
82
82
86
100
110
122
137
147
154
156
154
151
144
144
144
139
134
107
112
112
115
115
117
120
117
117
117
112
112
110
115
117
122
125
122
127
129
129
125
122
122
122
122
122
122
117
115
105
95
95
95
103
112
115
115
122
127
132
137
139
137
132
120
103
89
82
84
95
107
117
127
137
144
149
151
151
144
147
151
144
137
107
112
115
117
117
117
117
117
120
117
115
112
117
120
122
122
125
122
125
127
127
127
120
117
117
120
120
120
117
115
112
103
95
93
95
100
110
117
122
125
132
137
139
134
134
129
115
100
91
91
98
107
117
122
127
132
137
142
149
149
149
149
144
139
105
112
117
117
115
115
117
117
120
117
112
115
117
122
125
120
122
125
122
122
125
127
122
115
115
117
115
117
115
115
117
112
103
93
93
95
100
110
117
122
129
137
139
137
137
132
125
115
105
103
103
110
115
120
125
127
129
132
137
144
147
147
144
139
107
112
115
117
115
115
115
117
120
120
117
117
117
117
120
117
122
122
120
122
122
122
120
112
110
110
110
110
115
117
115
117
107
98
91
89
91
100
110
120
127
134
137
137
134
134
132
125
115
110
112
115
115
117
117
120
122
125
125
132
139
142
139
137
112
110
110
112
115
115
115
117
122
122
120
120
115
115
117
120
120
120
120
117
120
122
120
115
110
107
105
110
117
117
112
115
112
103
91
84
86
89
98
112
122
127
129
129
129
132
137
132
122
117
120
125
122
117
115
115
120
120
117
120
129
137
137
132
112
112
115
115
117
117
115
117
120
120
120
120
115
117
125
122
117
117
120
117
120
122
122
117
115
107
107
112
117
112
117
122
117
105
91
82
84
84
89
100
112
120
125
127
132
137
139
134
127
122
129
137
134
127
117
115
115
117
115
115
120
127
129
125
115
112
115
117
122
120
115
120
120
115
120
120
120
122
127
125
122
117
120
117
122
122
120
120
117
112
115
115
115
115
117
120
122
107
93
84
80
82
84
89
98
112
120
127
132
142
142
137
127
122
127
139
142
137
125
120
115
115
117
117
117
117
120
120
110
112
115
115
117
120
117
120
120
117
117
122
122
120
122
122
122
117
117
122
127
122
117
120
117
115
112
112
115
117
117
117
120
112
98
84
78
78
78
80
89
100
112
120
129
137
139
134
125
117
122
132
139
142
134
122
112
110
112
110
107
107
115
120
110
112
112
110
115
117
120
120
117
115
115
120
120
117
120
120
120
120
122
125
127
120
115
115
115
115
115
110
112
117
120
120
122
117
105
89
78
78
78
76
76
82
91
105
117
129
137
129
120
120
122
129
137
139
137
132
120
110
110
107
105
103
105
115
110
112
115
112
115
122
122
117
115
115
115
117
117
120
120
120
122
122
122
122
122
115
112
115
115
120
117
112
115
120
122
125
127
120
110
98
84
80
76
72
72
72
76
82
95
112
125
125
125
125
125
129
139
147
147
142
132
120
115
112
110
103
103
105
112
112
115
115
120
122
122
120
115
115
117
117
120
122
120
120
120
117
120
122
117
115
115
115
117
120
117
115
117
122
125
125
125
120
115
107
93
82
72
66
66
66
68
72
78
91
107
117
122
125
125
129
142
151
154
154
147
134
125
120
117
110
100
100
112
110
115
117
120
122
120
117
120
117
120
117
120
122
122
120
120
117
120
125
117
115
120
122
120
120
120
120
120
122
122
120
120
120
117
112
103
89
76
66
64
64
66
68
74
78
89
100
112
120
125
129
139
149
156
156
151
144
137
129
125
117
112
107
115
112
115
117
120
117
117
117
125
122
120
120
122
122
125
122
122
120
122
122
115
115
120
125
125
122
120
122
122
122
125
122
120
117
117
115
110
98
82
70
64
64
64
66
72
78
82
86
95
105
117
127
137
147
156
156
149
144
142
137
129
125
117
112
115
112
110
115
117
115
115
120
120
120
117
120
122
120
125
125
120
120
122
122
117
115
120
122
122
122
120
122
122
122
122
120
117
117
117
115
112
105
91
78
66
64
64
62
66
74
80
84
86
91
98
115
132
142
151
151
144
142
142
139
132
129
122
115
112
112
110
112
112
112
112
115
115
115
115
120
120
122
125
127
125
122
122
125
120
117
117
122
122
122
117
120
122
120
120
117
117
117
117
112
112
110
103
91
76
70
68
68
70
70
76
80
80
78
84
95
115
132
142
142
139
139
139
139
134
134
127
115
107
112
112
112
112
110
112
115
115
115
112
115
120
122
122
129
129
125
125
125
120
117
115
122
120
115
110
112
115
115
117
122
120
117
112
107
107
112
110
103
89
76
70
70
68
68
76
78
76
74
76
80
95
112
127
132
134
134
134
132
132
134
129
117
105
110
110
115
112
110
112
112
112
112
110
112
117
122
125
129
129
127
129
127
120
120
117
120
115
110
107
107
110
110
112
120
117
112
107
110
112
115
112
110
103
91
76
70
70
70
74
74
74
72
74
76
82
91
103
112
117
120
120
120
125
127
125
115
100
105
107
112
110
107
112
112
110
112
112
112
117
122
125
125
127
127
127
127
125
122
117
115
112
110
107
105
105
107
107
115
120
107
103
112
115
115
115
115
107
103
91
76
72
72
72
74
72
72
74
74
78
84
89
95
100
105
107
112
115
117
115
110
95
100
107
112
115
110
112
110
110
107
110
112
117
120
122
120
122
125
127
127
125
122
115
115
110
107
107
105
103
107
107
115
112
105
105
110
112
115
115
112
112
112
105
93
82
76
72
72
72
76
74
68
76
84
86
89
91
93
95
98
100
103
105
105
91
98
105
110
112
110
110
105
105
103
107
112
112
115
117
120
120
122
125
122
122
120
112
112
110
105
107
103
100
107
110
112
107
105
107
110
112
115
115
117
117
117
112
105
95
84
78
72
72
76
72
72
78
80
82
86
86
86
89
89
93
95
98
103
89
95
100
107
107
110
110
107
105
103
105
110
112
112
112
115
115
115
117
120
117
117
115
115
105
105
105
103
100
105
107
105
105
105
105
107
112
115
115
115
117
115
112
110
105
98
89
80
78
78
74
74
78
84
86
89
91
86
89
89
91
93
98
103
93
95
98
105
105
110
107
107
107
105
105
107
112
115
112
112
110
112
115
117
117
120
120
115
105
103
103
103
103
103
100
100
105
105
107
110
115
112
112
110
112
112
112
110
112
107
100
93
86
82
78
76
76
82
89
93
93
93
89
93
98
95
98
98
98
98
98
100
103
105
105
107
107
107
107
107
110
110
110
110
112
115
115
112
112
115
117
112
107
103
103
100
103
103
98
100
107
107
107
110
115
110
110
112
112
110
110
112
115
115
110
105
95
86
80
76
76
78
86
91
93
93
93
95
98
98
95
93
100
100
95
95
98
103
105
107
107
105
107
107
110
107
107
110
110
110
112
110
107
110
112
110
103
103
105
103
105
100
98
100
105
105
105
107
112
110
107
110
110
107
107
107
110
115
115
112
105
91
82
80
76
76
82
91
95
95
95
100
100
98
98
93
98
98
95
98
100
98
105
105
103
105
110
110
112
110
103
107
110
110
110
107
107
110
110
105
100
100
105
103
100
95
98
100
100
100
103
103
107
107
105
105
105
107
107
105
110
112
112
110
105
93
84
80
78
76
82
91
98
98
103
105
105
100
100
95
95
98
98
100
98
100
103
100
103
105
112
115
115
112
107
107
107
110
110
110
110
112
110
105
103
100
103
103
98
93
98
100
100
98
103
103
100
100
100
98
98
103
107
107
110
110
110
107
103
93
84
78
74
76
80
91
98
105
115
115
112
110
107
103
95
98
100
100
100
98
100
98
98
100
107
112
115
112
110
103
105
110
112
112
112
110
105
107
105
105
105
100
100
98
100
100
100
98
98
95
93
93
93
91
91
98
100
103
105
103
103
103
100
91
80
72
72
72
80
93
105
120
127
125
125
120
117
110
95
98
100
105
105
98
98
95
93
93
98
105
107
107
107
103
105
110
117
117
115
107
105
105
105
107
103
100
100
100
103
103
100
98
95
93
89
89
93
91
89
93
95
100
103
103
103
100
95
86
78
72
70
70
78
93
112
125
127
122
127
127
122
120
95
98
100
103
100
98
95
93
95
95
98
100
100
103
100
98
103
110
115
115
115
110
107
105
103
105
105
100
98
100
103
100
100
98
95
93
86
89
95
89
86
86
89
95
98
98
98
95
89
82
74
70
70
70
78
95
112
122
125
125
127
127
125
122
91
93
95
98
98
93
91
93
95
95
95
100
98
95
98
95
100
110
110
110
112
107
103
105
103
103
103
103
103
103
100
98
98
95
91
93
89
89
91
86
84
82
84
84
89
91
91
86
84
82
74
74
74
74
82
100
110
115
120
122
120
122
122
120
