P2
# 175 of 608 Angiograms
64 64
255
117
127
134
139
139
139
137
127
120
107
93
86
80
80
84
86
95
105
127
147
154
154
147
134
120
105
91
84
84
86
89
95
98
98
100
107
117
137
151
159
163
168
172
172
170
156
134
117
107
112
129
154
170
172
174
178
180
180
182
176
168
144
112
86
129
134
139
139
139
139
139
134
127
117
100
89
82
84
86
89
93
105
129
147
154
154
151
149
137
122
105
91
86
86
89
93
98
98
100
105
110
117
134
151
161
170
174
174
170
161
142
120
107
110
125
151
172
174
176
178
178
178
180
178
174
163
139
103
137
137
137
139
139
139
137
134
132
122
107
91
82
82
82
86
93
105
129
149
151
151
151
151
147
137
125
105
93
89
91
89
93
95
98
103
105
107
117
137
154
165
170
172
172
163
147
120
112
112
122
149
172
174
172
172
174
176
178
180
176
165
149
125
137
139
139
139
137
139
134
134
132
129
115
98
86
82
82
84
93
103
127
147
149
149
147
147
144
144
139
127
110
95
91
89
91
93
93
93
95
98
105
120
139
156
168
172
172
165
149
122
112
112
120
147
170
174
172
170
170
172
176
180
176
161
147
129
137
139
137
134
137
134
132
132
129
129
122
107
91
82
78
82
91
98
122
139
149
149
147
147
144
144
147
142
127
110
98
98
93
91
89
89
89
91
98
112
125
144
159
170
172
168
149
125
110
110
120
147
165
170
170
165
168
170
176
178
170
151
134
129
134
139
137
132
134
137
134
132
132
129
122
115
98
84
76
82
91
95
110
132
144
147
147
147
144
147
149
151
142
127
112
100
98
93
91
91
91
93
100
112
120
132
147
159
168
168
154
129
112
110
117
144
163
168
168
165
165
170
176
174
159
137
129
129
134
134
132
129
129
134
134
132
129
127
125
122
107
91
82
84
89
91
103
120
134
144
149
149
149
149
154
154
151
139
127
112
103
98
95
93
95
100
107
112
117
127
134
147
159
165
156
132
112
110
120
144
161
168
165
163
168
172
178
170
147
127
120
125
132
129
127
129
129
132
129
127
127
129
127
127
112
91
84
84
84
84
91
107
125
137
149
154
154
154
154
154
154
149
139
127
115
107
103
103
105
110
112
115
115
122
127
137
144
151
149
129
110
110
117
139
156
165
163
163
168
176
178
165
134
120
112
122
127
127
125
127
127
122
122
125
125
127
125
127
115
91
84
80
78
78
80
93
110
127
142
149
149
151
151
154
154
154
147
139
129
122
120
117
115
115
115
115
112
117
122
129
134
137
134
117
105
107
117
134
151
161
163
163
170
176
176
163
132
112
107
115
120
125
122
125
122
120
122
122
125
125
125
125
112
89
80
74
72
70
72
80
91
112
129
144
149
147
149
151
156
156
154
147
139
134
132
127
122
117
117
115
115
117
120
125
129
129
117
100
95
100
115
129
147
159
163
165
170
176
178
168
134
112
105
107
117
120
122
122
122
120
122
125
127
125
122
120
107
84
76
70
70
68
68
74
80
91
112
132
147
151
149
149
154
161
161
154
147
142
137
137
132
125
122
122
122
120
120
122
127
117
95
86
91
98
110
125
142
159
168
165
170
176
176
170
139
115
100
100
115
115
117
117
120
122
122
122
125
127
122
115
103
82
76
68
68
66
64
68
74
80
93
112
134
149
149
151
154
159
161
156
149
147
144
139
139
134
127
127
127
122
120
120
117
98
86
84
91
98
103
120
137
156
165
168
170
174
176
172
151
122
105
100
112
110
107
107
112
122
122
120
122
125
122
115
98
80
70
64
66
64
64
66
68
74
80
95
115
134
149
151
154
156
156
156
151
151
149
144
142
142
134
132
127
122
117
115
100
82
80
86
95
100
100
110
127
149
159
163
170
174
174
170
163
134
115
107
112
103
98
103
110
117
122
125
125
125
122
115
98
78
66
62
64
66
66
68
68
68
74
82
98
115
134
149
154
156
156
156
151
151
151
149
144
147
144
137
129
122
117
105
84
76
78
91
103
107
100
98
112
132
149
159
163
170
170
170
168
154
127
112
112
100
95
100
107
112
115
120
125
122
122
117
103
80
70
64
66
66
64
70
70
70
70
76
84
100
115
137
151
159
159
156
151
151
154
151
144
144
144
142
132
122
110
89
74
76
86
100
105
107
95
93
98
115
132
147
156
163
168
170
168
163
144
122
112
100
95
100
105
107
107
110
117
122
122
120
105
89
78
70
68
64
62
66
70
68
70
74
78
86
100
117
144
154
159
156
154
149
151
149
142
137
137
139
134
120
100
78
76
84
98
103
105
105
93
89
89
98
112
132
144
154
161
163
163
165
159
142
112
98
91
98
103
105
105
107
112
115
115
112
105
98
91
80
74
70
68
70
70
72
74
78
78
78
86
103
127
147
151
154
154
151
149
149
142
132
132
132
127
110
89
76
82
98
110
105
103
103
93
84
82
86
98
112
129
142
149
156
163
168
165
159
112
98
89
89
95
103
107
110
115
115
107
105
103
103
103
93
86
82
80
78
74
76
80
76
74
74
78
91
112
134
147
149
151
151
151
147
139
134
132
127
112
98
82
82
98
117
125
117
105
100
95
82
78
80
86
98
112
127
137
147
154
163
168
168
115
100
86
82
89
98
105
110
115
110
107
105
103
105
107
105
100
93
89
86
84
82
80
76
72
68
72
82
98
117
137
147
149
154
149
144
139
134
129
117
103
91
84
95
115
137
139
134
122
107
98
86
76
74
80
89
103
112
125
134
142
151
159
165
115
103
84
74
78
86
95
103
105
105
105
105
105
107
110
112
112
110
107
98
93
89
84
78
74
70
66
78
89
105
122
137
144
149
147
139
134
129
122
110
95
91
98
112
129
147
154
149
139
125
110
93
78
72
80
82
95
103
115
122
129
139
147
154
110
103
89
70
64
76
86
95
100
103
105
110
112
112
110
112
117
117
120
117
107
98
89
80
74
72
72
78
84
93
105
122
137
142
142
134
129
127
120
107
100
105
115
127
137
154
163
163
156
147
129
107
86
76
78
82
93
100
105
115
120
127
132
139
107
103
95
74
60
62
78
89
100
105
107
110
115
117
115
120
122
127
129
127
125
115
100
89
80
74
76
80
82
89
95
107
125
134
134
132
132
134
129
122
122
122
129
127
137
154
165
168
165
159
149
129
105
86
78
82
91
100
105
110
115
122
125
129
105
103
100
84
64
58
70
84
98
105
110
110
120
122
122
122
125
132
132
132
134
132
122
103
89
82
80
80
82
84
91
95
110
125
134
137
142
149
142
129
129
134
137
132
134
151
165
168
168
165
159
147
125
105
93
89
98
103
105
107
112
117
122
120
107
103
103
89
72
64
72
86
100
110
112
115
120
125
125
125
127
129
132
132
134
134
134
122
105
91
84
80
80
80
86
91
95
112
125
134
142
149
142
132
132
142
147
139
132
144
161
168
170
168
163
154
139
120
110
105
107
110
110
107
110
117
120
117
107
105
100
91
76
70
76
91
100
112
115
115
117
120
120
122
120
125
129
132
137
139
137
132
120
105
93
84
82
80
84
84
89
103
117
122
129
132
129
125
129
147
151
144
137
139
154
168
170
172
165
156
147
129
122
120
120
122
122
120
115
115
115
115
107
103
98
93
80
76
82
93
103
112
117
115
112
112
117
120
117
117
127
134
137
137
137
137
129
112
100
95
89
84
84
82
84
98
110
117
120
120
117
117
125
139
147
144
137
134
147
163
170
170
163
156
151
139
129
125
127
132
137
137
129
120
117
115
105
105
100
95
89
84
89
95
107
112
112
110
110
112
117
120
117
117
127
134
134
134
137
142
137
125
110
100
95
91
86
84
86
98
107
110
112
110
103
110
122
134
139
137
132
132
139
151
163
165
165
161
159
149
134
127
134
139
149
149
144
137
129
125
107
107
103
100
98
93
95
103
107
110
107
105
107
112
117
117
117
122
129
137
134
132
134
142
142
132
117
107
100
98
93
91
91
98
107
110
110
105
100
107
115
125
129
127
125
125
132
144
154
161
163
165
163
156
144
137
137
137
147
151
151
149
144
139
110
110
100
100
103
103
105
107
107
110
107
107
107
110
112
112
117
122
132
139
137
139
139
139
142
137
127
115
105
103
98
95
93
100
107
110
112
110
107
110
115
120
120
120
117
115
117
134
147
156
161
163
161
156
147
144
144
142
144
151
154
154
154
149
107
105
98
100
105
105
110
112
115
115
112
110
110
112
115
115
120
125
129
134
137
139
139
139
139
137
137
125
112
105
98
95
98
103
110
120
122
120
117
117
117
117
117
120
112
105
103
117
137
149
154
156
154
151
149
151
149
147
147
151
156
156
156
156
107
100
98
103
110
110
115
117
117
115
115
115
115
115
117
122
125
125
127
132
134
137
142
144
139
137
137
132
120
107
98
93
93
103
117
125
127
129
132
127
125
120
122
117
107
98
93
100
120
137
147
149
151
151
156
154
151
151
147
147
154
156
156
154
105
100
100
103
110
110
112
112
110
107
107
115
117
120
125
127
127
127
127
127
129
134
142
144
142
137
132
132
125
110
103
95
98
103
115
125
129
137
139
139
134
129
122
117
103
91
86
89
105
125
134
142
147
149
154
154
154
151
149
142
144
151
154
156
103
98
100
105
110
110
107
107
110
107
110
107
115
122
127
127
129
127
122
122
125
129
137
139
137
134
132
132
127
112
105
103
100
105
115
122
132
139
139
142
144
144
132
125
105
89
78
80
95
115
125
132
139
144
149
154
154
154
151
147
144
149
151
154
103
100
105
110
110
110
103
103
107
110
115
115
115
125
129
127
127
125
120
122
122
127
129
132
132
129
129
132
129
117
110
105
107
105
112
125
134
139
142
144
151
154
147
134
112
89
72
76
93
107
117
122
129
137
142
149
151
154
149
147
144
144
144
142
105
105
105
105
105
100
98
103
107
110
112
112
117
127
127
125
127
127
127
129
129
127
127
129
129
132
132
132
127
120
115
110
103
105
112
127
134
134
139
147
151
151
149
142
125
98
80
80
93
105
112
115
117
125
134
144
149
151
147
147
144
139
134
132
110
107
103
103
98
98
98
105
110
112
110
110
120
125
125
122
125
129
132
129
129
127
127
129
129
132
132
127
125
122
122
112
103
103
112
122
132
134
139
144
149
149
149
144
129
107
91
89
95
103
105
105
107
115
125
134
144
147
144
144
139
129
120
120
107
105
103
100
98
98
100
107
112
115
112
115
120
125
122
122
127
132
134
132
129
127
125
125
125
127
127
122
120
125
127
117
105
100
107
117
127
132
137
144
149
149
147
142
129
112
105
98
100
103
103
105
105
107
112
120
129
142
142
137
129
125
112
103
103
105
107
103
103
103
103
107
110
115
115
120
122
127
125
129
134
134
134
132
132
132
132
127
122
122
127
125
125
127
127
122
107
103
107
115
120
129
134
139
147
147
142
137
127
115
112
110
107
105
103
105
103
103
105
107
115
125
132
129
127
127
125
112
105
112
110
107
107
107
105
110
112
115
117
122
125
127
127
132
134
132
129
129
129
129
132
132
125
122
125
125
129
129
129
125
112
107
110
112
112
120
129
137
142
142
139
132
122
117
115
115
115
112
110
107
100
98
100
103
105
107
117
122
127
132
134
132
107
110
110
112
112
112
112
115
117
117
117
122
125
125
127
132
134
134
134
132
132
129
127
129
125
120
122
122
125
127
127
125
115
110
107
103
105
110
120
129
137
137
132
125
120
115
115
115
115
112
115
110
103
100
100
95
95
98
100
112
122
134
139
144
105
105
110
115
117
120
117
120
122
122
122
127
127
127
129
129
134
137
134
134
137
132
127
127
125
115
117
122
122
122
127
127
117
110
100
95
95
100
110
122
129
129
127
125
122
117
115
115
115
115
115
112
107
103
100
98
95
95
93
100
112
129
137
142
103
107
115
120
125
125
122
122
125
127
129
132
129
127
129
132
137
134
134
137
139
134
129
127
120
115
112
117
120
122
125
125
117
110
98
93
91
93
98
112
125
129
129
132
132
129
129
125
125
125
125
122
120
112
105
100
100
100
95
93
105
122
137
142
112
117
122
120
122
129
127
122
122
127
129
132
129
129
129
134
134
137
137
137
137
134
129
125
117
112
112
115
120
120
122
120
117
110
98
91
84
84
89
98
112
122
129
132
134
144
142
134
129
129
134
134
132
127
120
112
107
105
100
95
103
117
132
144
122
122
122
120
120
127
129
125
122
127
132
132
125
125
127
129
134
134
134
134
134
129
125
122
120
120
117
120
122
120
117
117
115
112
103
89
84
80
82
91
98
107
117
127
134
142
144
137
134
137
139
137
134
129
127
122
115
107
103
98
100
112
127
142
120
117
117
117
120
127
129
127
127
129
132
134
129
127
129
127
132
134
134
134
132
127
125
122
125
125
120
122
125
122
117
115
115
112
107
95
89
82
80
84
89
91
98
107
122
134
139
137
137
142
144
142
137
134
132
132
127
115
105
100
100
110
120
134
120
117
120
122
125
129
129
127
125
127
132
132
129
129
129
127
129
132
132
129
127
127
127
125
127
125
122
122
125
125
117
115
117
117
112
103
93
86
80
76
78
80
84
91
100
117
129
132
134
142
151
147
142
139
139
137
134
127
110
100
100
107
112
125
120
120
120
122
125
129
129
127
127
125
127
129
127
125
125
125
127
127
127
129
129
129
127
125
122
122
120
120
122
125
115
112
117
117
115
110
100
89
76
68
72
74
76
78
84
95
112
127
132
142
149
149
144
147
147
142
137
134
120
105
103
103
107
115
122
122
122
122
125
127
125
127
127
125
122
125
127
125
125
125
125
125
125
129
129
132
127
125
122
122
125
120
120
125
115
110
115
120
120
117
107
93
78
70
68
70
68
72
74
82
93
112
125
139
147
147
144
144
144
139
137
134
122
110
107
103
100
107
122
120
122
125
127
127
129
129
129
127
125
122
127
127
125
122
122
122
122
127
132
132
127
122
120
122
122
120
120
120
115
110
115
122
120
117
117
103
86
74
66
66
64
64
70
74
82
95
115
132
142
144
147
142
139
134
132
129
122
110
105
105
103
100
120
122
127
127
127
129
129
127
127
127
125
122
125
125
122
120
120
122
125
127
129
129
125
125
122
120
117
117
120
117
110
110
115
117
115
115
117
110
95
80
70
68
64
64
66
70
74
86
98
115
132
142
142
139
134
129
127
125
117
110
103
103
98
93
117
120
122
120
125
129
127
127
127
127
122
122
120
120
117
115
112
115
120
122
127
125
122
125
120
115
112
112
115
115
107
105
110
115
117
117
117
112
105
89
76
68
66
70
68
66
72
82
91
103
115
129
134
137
132
127
122
117
112
110
103
98
95
93
120
117
117
117
122
127
125
125
125
125
122
122
120
117
115
112
112
112
115
122
122
125
122
120
120
112
110
110
107
107
105
105
107
112
115
115
115
115
110
100
86
76
70
74
70
68
76
82
84
93
100
107
117
122
125
120
112
110
112
112
105
100
95
95
117
117
117
117
120
125
125
127
125
125
125
120
115
115
115
115
112
112
115
122
122
120
115
115
117
115
115
117
110
105
103
110
112
110
110
112
115
115
110
107
98
84
76
72
68
68
76
78
80
86
89
91
95
103
105
103
103
103
103
107
107
103
98
95
110
112
117
112
112
117
125
125
125
122
120
115
112
112
115
112
110
112
117
122
122
120
115
115
112
115
115
115
110
103
103
110
112
112
110
112
112
112
112
115
110
95
84
78
70
68
72
78
80
82
80
82
86
89
86
89
91
91
91
93
98
100
95
95
112
112
117
112
107
110
115
120
120
117
117
117
112
112
110
110
107
112
117
120
117
117
115
112
112
112
112
110
107
103
105
107
107
112
112
112
110
110
112
115
115
107
95
86
78
72
70
76
78
80
78
76
78
78
78
82
89
89
93
93
91
86
86
86
117
117
117
112
107
107
110
112
117
117
115
115
112
110
107
105
107
110
112
112
112
112
112
112
110
110
105
103
103
103
100
100
103
105
107
107
107
107
110
112
115
110
103
95
86
78
76
80
80
80
78
76
74
74
76
80
86
89
93
91
91
82
76
82
117
117
112
112
112
110
110
110
117
117
115
110
105
105
105
107
107
107
110
105
105
105
105
107
107
105
105
103
98
98
98
100
103
103
103
103
103
103
103
103
107
110
107
103
98
86
82
84
82
78
78
80
80
78
80
84
91
91
89
89
91
82
76
82
110
110
110
110
110
105
112
115
117
115
110
105
103
105
105
107
107
110
110
103
100
100
103
105
105
103
100
100
103
103
98
100
103
100
100
100
98
98
98
98
100
105
107
107
107
98
89
86
84
82
84
84
80
80
82
89
95
93
89
89
95
86
78
78
105
107
107
107
107
105
112
117
115
110
107
105
103
105
107
110
110
107
105
100
98
103
103
103
103
103
100
98
100
103
100
100
100
103
100
100
100
98
93
91
98
105
107
110
112
105
98
91
89
89
86
84
84
84
86
93
95
95
95
95
95
89
78
74
100
105
107
107
107
110
112
117
117
110
107
105
107
107
110
107
107
107
105
103
103
105
107
107
103
100
98
98
98
95
98
98
98
98
98
103
103
103
100
95
98
103
107
105
105
105
100
98
95
93
91
89
84
89
89
93
98
103
105
105
100
89
78
70
100
105
107
105
107
110
110
112
115
112
107
105
105
107
107
103
105
107
107
110
105
103
103
107
100
98
95
98
98
93
93
93
91
93
98
100
105
105
103
100
98
105
105
103
105
103
100
105
103
98
95
91
86
89
89
95
103
110
115
112
107
91
78
64
103
105
105
103
105
105
105
107
110
107
107
105
103
105
105
103
103
110
107
110
103
100
100
100
98
98
100
98
95
93
91
89
86
86
93
95
95
95
95
95
95
100
100
103
103
98
100
105
105
98
91
91
89
86
89
100
110
120
120
122
115
98
80
64
105
100
103
103
103
105
105
107
105
105
107
107
103
103
103
105
105
107
110
110
107
105
103
100
98
98
100
100
93
89
86
84
82
84
84
86
91
93
95
95
95
100
103
100
95
93
98
105
107
95
84
80
82
86
98
112
125
132
134
134
127
107
84
68
103
105
105
107
107
105
105
105
105
105
103
100
100
103
105
105
103
105
110
110
110
110
107
100
98
98
100
98
91
91
86
84
82
78
78
82
86
91
93
93
93
95
95
93
91
93
100
105
105
91
80
76
82
91
107
122
132
137
139
139
132
112
89
74
