P2
# 176 of 608 Angiograms
64 64
255
91
91
91
93
95
95
98
103
107
112
117
120
125
127
125
117
103
93
86
82
82
82
86
112
147
170
176
178
178
174
168
170
168
161
151
134
117
107
98
95
95
93
91
86
93
100
107
112
132
154
172
180
182
172
147
132
132
137
149
168
180
184
186
184
93
95
98
103
103
98
100
107
107
112
117
117
120
122
125
122
107
93
82
80
80
80
84
110
147
170
178
184
180
178
170
165
168
168
163
154
137
120
110
103
98
95
91
91
95
100
103
107
112
127
147
165
172
165
149
134
129
134
144
168
180
184
186
186
100
103
103
105
105
105
107
112
112
115
115
115
117
125
127
127
115
98
86
80
78
80
86
105
139
168
178
182
180
180
174
170
165
168
165
161
154
137
122
112
105
100
98
98
98
98
100
100
103
110
127
139
151
154
144
137
127
129
142
165
180
186
188
188
112
115
112
110
110
110
112
115
117
117
117
112
117
122
127
127
117
105
93
89
84
86
86
98
129
159
174
178
178
176
174
170
168
165
165
163
159
151
139
125
115
110
107
103
100
98
95
95
98
103
115
122
129
134
137
132
129
129
139
161
178
184
186
188
112
117
117
117
115
112
115
117
122
122
120
112
112
120
125
125
120
105
93
89
86
89
89
91
115
147
165
174
174
174
172
168
163
161
161
159
159
159
151
142
129
120
115
110
103
98
93
93
98
103
110
115
120
120
120
115
117
122
134
156
176
182
184
186
112
117
117
120
117
117
117
125
127
125
120
115
115
122
125
122
115
103
91
86
86
86
84
86
103
129
154
165
172
172
170
165
161
159
159
156
156
159
156
151
147
139
127
117
110
100
98
98
98
103
107
112
115
112
105
95
98
110
127
149
170
178
182
184
115
117
117
120
120
122
122
125
125
125
120
117
120
125
122
120
110
100
86
80
80
80
78
80
91
112
139
156
165
170
170
165
163
159
161
159
156
159
159
156
154
151
147
134
122
112
103
100
103
103
105
107
107
103
89
80
82
91
110
137
161
170
178
184
112
115
117
120
120
122
122
120
117
120
120
122
125
125
122
115
105
93
84
80
80
78
76
80
86
95
117
142
159
163
168
165
163
159
161
156
154
156
156
154
154
156
156
151
142
127
117
107
105
105
107
107
103
95
82
74
74
80
95
117
142
159
170
176
110
112
120
117
120
122
122
117
117
120
122
127
127
127
125
112
98
91
84
78
80
80
80
80
86
89
100
120
144
159
163
163
156
156
161
159
156
156
156
156
154
156
161
156
154
144
129
117
112
110
110
110
103
91
76
74
74
76
84
103
120
139
154
165
110
117
120
120
122
122
120
115
117
125
132
137
137
132
127
115
98
86
78
76
78
78
76
80
84
86
89
103
122
142
154
159
159
156
156
159
159
156
156
154
154
154
156
154
154
154
144
129
120
115
112
110
103
86
74
78
78
76
78
93
107
120
132
147
115
117
120
120
120
120
122
122
125
134
142
144
144
139
132
122
103
89
80
78
76
78
78
82
84
86
86
91
107
125
142
151
151
151
151
156
156
156
156
154
154
154
154
154
154
154
151
142
127
120
117
110
103
86
78
84
82
76
74
82
98
107
117
129
115
120
122
120
122
122
125
127
132
139
144
147
144
144
137
129
117
98
84
80
80
80
78
80
82
84
82
84
95
107
127
144
149
149
149
149
156
156
151
149
151
151
154
151
149
149
147
147
134
122
120
110
100
89
86
91
91
80
76
78
89
100
107
117
112
117
120
120
122
122
122
129
137
142
149
149
144
142
137
132
129
115
98
84
80
78
78
80
82
84
78
78
84
98
112
132
147
151
149
149
151
156
151
149
149
151
156
151
149
147
147
147
139
127
117
105
98
98
98
98
95
89
80
82
84
89
100
107
112
112
115
117
115
117
122
134
142
147
151
151
147
139
139
134
132
129
117
100
89
82
82
82
80
82
78
76
78
89
100
120
142
151
149
149
149
151
147
147
147
149
154
151
151
149
147
147
142
127
112
100
98
100
110
112
105
95
86
82
82
86
91
103
120
117
120
117
112
117
125
137
142
147
151
151
149
142
139
134
129
132
129
117
105
93
89
84
80
84
82
78
78
82
93
110
132
147
151
147
147
144
144
144
142
144
149
149
149
149
147
144
139
125
107
95
95
110
120
125
122
112
95
82
80
80
86
93
125
122
122
117
120
122
127
137
142
144
149
151
151
147
142
134
127
129
132
129
122
110
98
89
84
86
84
78
78
80
89
103
122
139
147
149
149
144
139
139
142
147
147
147
149
151
149
142
137
120
103
95
98
115
127
134
137
132
115
93
80
78
80
91
122
122
122
120
122
125
127
137
142
144
147
151
151
149
142
137
132
129
132
134
132
127
115
100
89
84
84
80
78
82
89
100
112
132
144
149
149
144
137
139
147
147
147
147
151
154
151
142
129
115
100
100
107
122
134
144
147
147
134
112
93
82
80
86
120
122
122
125
125
125
127
137
142
142
144
151
151
151
144
137
134
129
129
134
137
139
132
120
103
89
82
82
80
84
91
100
105
122
137
142
144
144
144
144
149
144
147
149
151
151
149
139
125
112
105
107
120
129
137
144
147
151
147
129
107
93
86
86
122
125
122
125
125
122
127
137
142
147
144
149
149
149
147
139
134
127
129
137
142
144
142
137
122
103
91
89
91
91
93
98
100
107
125
137
142
144
147
149
147
144
147
147
149
147
142
132
125
117
115
122
127
129
137
142
147
154
151
142
125
107
100
95
122
122
122
125
125
122
127
137
142
144
147
147
147
144
144
142
134
132
129
134
139
144
142
142
134
120
103
95
95
93
89
91
95
100
112
127
137
142
144
147
147
144
144
144
144
139
134
129
125
125
125
129
129
132
134
139
149
151
151
149
137
122
112
110
115
117
117
122
125
122
127
132
137
144
147
147
144
144
144
144
139
129
127
127
137
142
142
144
142
129
115
103
95
95
89
89
93
95
103
110
122
129
132
134
132
132
129
129
129
129
125
122
125
129
134
137
134
132
134
139
151
156
159
156
147
132
120
117
110
115
115
120
125
122
125
129
134
139
147
142
139
142
144
144
142
132
125
122
127
134
137
139
139
134
122
110
103
93
86
86
89
95
100
103
110
115
115
115
112
112
110
110
110
110
115
120
129
139
142
142
142
134
129
137
149
159
161
163
154
142
129
120
105
112
117
117
120
122
127
129
137
137
139
142
137
139
147
147
144
137
125
117
120
127
132
134
134
134
127
115
105
95
86
84
86
93
103
100
103
103
100
98
98
98
98
98
98
98
105
120
134
142
147
144
144
139
129
132
142
151
159
161
154
142
132
122
105
112
115
115
120
127
132
132
134
139
139
142
137
139
144
149
149
142
134
122
120
122
125
129
132
132
127
115
105
95
84
80
80
86
95
95
95
95
95
93
91
89
89
93
95
95
103
117
129
139
144
144
144
139
127
127
132
142
149
151
147
137
129
125
107
112
112
115
120
132
134
137
137
137
139
137
137
137
142
147
151
147
142
129
120
120
120
122
127
127
122
115
105
95
82
76
76
84
91
95
95
93
89
89
89
84
89
89
95
98
103
107
122
132
142
144
142
137
129
125
127
132
137
142
137
132
129
129
110
117
115
117
125
134
137
137
137
139
139
137
129
134
139
147
151
149
147
139
129
125
122
122
127
122
117
117
110
95
86
78
80
84
91
100
100
95
91
89
89
89
89
86
91
98
103
103
110
122
132
137
137
134
127
120
122
125
127
129
129
127
129
132
115
120
120
122
129
134
137
137
139
139
139
134
129
132
137
144
149
147
144
144
134
129
129
129
127
122
122
125
117
103
91
84
82
86
95
103
103
100
100
100
98
98
91
86
86
93
95
95
95
105
115
125
127
122
117
110
117
122
122
122
120
122
127
132
117
120
122
127
134
139
139
144
144
142
137
129
127
129
134
139
142
144
144
142
137
129
132
132
132
129
132
134
127
110
98
89
86
91
98
105
107
110
117
117
110
105
98
91
89
91
91
89
89
93
103
107
112
115
110
107
115
120
120
117
120
125
127
134
117
120
122
127
134
139
144
149
144
139
132
127
127
127
129
132
137
139
139
137
134
132
134
132
134
137
139
137
127
115
103
95
91
95
103
110
115
120
125
127
120
110
103
98
95
93
89
86
84
86
93
100
103
107
107
107
115
117
117
120
125
129
129
137
120
120
120
127
132
139
144
144
142
137
129
129
129
132
129
129
132
137
137
134
132
132
129
129
134
137
134
134
127
117
107
103
103
103
107
115
117
120
122
122
117
110
105
103
103
98
93
89
80
82
86
95
103
105
103
103
110
117
120
127
132
129
134
139
117
117
117
125
129
137
144
144
139
134
132
132
132
134
132
129
132
134
139
137
134
132
127
129
134
134
134
134
127
120
110
105
107
107
110
117
117
117
117
117
115
110
107
110
112
110
105
98
89
84
86
93
100
98
98
98
103
112
122
127
132
132
139
142
115
117
120
122
127
132
137
137
132
132
134
132
132
132
137
134
134
139
139
139
137
132
129
127
129
134
134
134
127
122
112
107
105
103
110
115
115
112
110
112
112
110
117
117
117
120
117
107
100
91
93
95
93
91
93
98
100
107
115
125
129
134
142
147
112
117
117
117
122
127
129
129
127
129
132
132
129
132
137
137
139
142
144
142
142
134
129
125
127
129
129
129
127
125
117
110
105
98
103
110
112
112
110
107
112
115
117
117
115
120
122
120
110
103
98
95
91
89
93
100
103
105
112
120
127
134
144
149
110
115
115
117
120
127
129
125
125
127
129
129
129
132
134
139
142
142
144
144
144
139
129
122
120
120
120
122
125
125
120
110
98
91
93
100
105
105
105
110
115
122
120
115
115
120
125
122
120
112
110
105
98
95
103
103
98
103
110
120
125
132
142
149
110
112
115
120
120
122
127
127
127
125
125
127
129
132
134
142
149
151
151
147
147
144
134
127
120
120
117
120
127
122
117
105
91
84
86
93
98
98
100
107
115
120
117
117
120
122
125
125
125
120
115
115
110
105
105
105
103
105
112
120
122
127
132
142
112
115
120
120
120
120
125
127
127
125
122
125
127
132
137
149
154
151
149
149
149
147
142
132
122
117
120
125
122
117
115
103
84
78
76
80
89
91
95
105
112
117
117
117
120
122
127
125
125
122
120
120
120
117
115
112
110
110
115
120
122
125
127
132
112
115
120
122
127
122
122
127
127
125
125
122
125
132
144
151
154
149
151
151
147
147
144
134
125
120
117
120
117
115
112
100
84
74
72
72
76
86
93
105
105
110
112
115
117
120
125
125
125
122
125
122
122
120
120
117
112
115
120
122
125
127
129
132
115
115
120
125
129
125
122
127
129
127
125
125
127
134
144
147
149
147
149
147
142
142
139
134
129
122
122
120
117
112
112
100
86
74
70
68
68
76
89
98
103
105
112
112
117
120
122
125
122
125
125
125
122
120
120
122
117
120
125
127
129
129
132
129
110
112
117
122
127
125
125
127
127
125
127
129
129
137
142
142
147
147
147
142
139
139
134
132
127
127
125
122
117
115
112
103
89
76
72
70
66
72
80
91
98
103
110
117
120
122
125
125
125
129
129
122
117
115
117
122
122
125
132
132
127
122
125
125
103
110
115
122
125
127
127
129
127
129
132
129
132
137
142
142
142
142
139
137
132
134
134
129
125
127
122
120
117
115
112
105
93
82
72
70
68
70
76
84
91
100
105
112
115
120
125
127
127
132
125
117
115
112
115
117
122
127
137
139
132
127
127
127
100
105
112
120
125
129
129
129
129
134
134
129
129
137
142
142
139
139
137
134
134
134
132
122
122
122
120
120
120
115
115
107
100
86
78
70
68
68
70
76
86
95
107
110
112
115
117
122
127
127
125
117
115
120
120
122
127
134
142
144
142
139
134
129
103
105
112
120
129
132
134
134
134
134
134
132
134
134
137
139
139
139
134
134
132
129
125
122
120
122
120
120
120
120
115
107
105
93
80
74
68
64
66
70
80
91
107
112
112
117
120
120
125
129
129
122
117
117
122
127
134
139
147
149
151
154
147
137
105
110
110
120
129
132
132
134
134
132
134
134
137
134
134
132
132
132
132
129
127
122
122
120
117
120
117
117
120
120
115
110
107
98
84
76
66
62
64
70
78
89
103
112
115
117
120
122
125
132
129
122
120
117
122
132
137
142
149
149
151
156
154
144
112
115
115
120
129
134
129
132
134
132
134
134
134
134
132
129
127
127
125
125
125
122
120
122
120
117
117
115
117
120
115
110
110
100
89
78
68
62
64
70
74
82
95
110
117
120
122
125
129
129
125
122
120
120
125
132
137
142
147
149
149
154
151
144
115
115
117
125
127
132
132
132
132
132
134
132
129
129
132
129
127
125
122
120
117
117
117
117
117
115
110
112
120
120
115
110
110
100
89
80
74
66
66
68
72
76
84
103
112
120
125
127
129
127
127
120
120
120
125
129
134
142
147
149
149
149
149
144
112
117
122
120
125
132
134
132
132
132
134
134
129
125
127
127
127
125
122
117
117
117
117
115
112
112
112
117
120
117
117
115
115
105
93
80
76
72
66
66
68
74
80
91
107
117
125
129
132
129
127
125
125
127
125
127
129
137
142
147
149
149
147
142
110
115
117
117
122
127
132
134
134
132
129
129
129
127
122
127
127
125
122
120
120
120
115
110
112
112
117
120
120
115
112
112
112
107
95
84
76
72
68
66
68
74
76
84
100
115
125
127
129
129
125
125
125
127
127
125
127
132
139
142
144
144
144
142
105
112
115
117
125
125
129
134
132
129
127
127
127
127
122
125
127
122
120
122
117
117
115
110
110
115
117
117
115
110
105
107
107
107
103
89
80
76
72
66
66
70
72
76
91
107
120
122
122
122
122
122
125
125
127
125
127
132
134
137
139
142
139
137
105
107
112
115
122
127
127
132
129
127
122
122
122
122
122
125
125
122
120
122
122
122
120
117
115
112
112
110
115
110
103
107
105
107
107
98
86
82
78
68
66
68
70
72
82
98
110
117
117
120
122
122
127
125
120
120
125
127
129
132
137
139
132
129
103
105
107
117
125
127
125
127
125
120
117
120
120
122
122
122
125
122
120
120
125
122
117
117
117
117
112
112
112
112
107
112
112
112
112
107
98
89
80
70
68
64
68
72
74
86
95
107
115
117
122
122
122
117
115
115
122
125
127
127
132
132
125
122
98
105
110
115
120
120
122
125
120
117
117
120
120
120
120
120
120
117
120
120
122
120
117
115
115
115
115
112
112
112
112
120
122
120
115
115
110
98
86
76
68
62
62
68
72
78
86
91
100
110
115
115
112
110
110
115
120
125
125
125
127
127
125
125
98
105
107
112
117
115
117
122
117
117
117
117
117
120
117
115
117
117
120
122
120
120
120
117
115
117
115
110
112
112
112
117
120
115
115
117
117
110
95
84
76
68
62
64
70
74
78
82
86
93
100
103
103
100
107
115
120
122
127
125
127
127
127
127
98
103
105
110
115
117
117
117
112
112
117
117
115
120
117
115
115
117
122
122
115
117
117
117
115
115
110
107
110
112
112
112
115
112
115
120
120
115
103
91
82
76
68
66
70
72
74
76
80
84
89
91
93
95
98
107
115
120
127
127
127
127
127
129
98
105
110
110
115
117
117
112
105
105
117
115
110
112
115
112
112
115
120
120
117
115
115
115
112
112
112
115
115
120
117
115
110
107
107
115
115
110
105
95
86
80
74
68
68
74
72
72
78
80
82
86
86
91
93
95
107
117
122
127
129
127
127
129
98
105
107
110
115
115
115
110
105
105
115
115
110
110
112
112
117
117
120
122
117
117
115
115
112
112
117
120
120
120
117
115
107
107
112
112
115
112
110
103
93
84
78
72
70
72
66
68
76
78
78
78
82
86
86
89
95
107
115
120
125
127
127
129
103
105
105
110
110
110
105
105
105
107
110
110
110
112
112
115
117
120
115
120
117
117
115
115
112
115
120
122
120
117
120
117
115
117
120
122
117
117
115
110
100
91
84
76
68
70
72
72
76
78
78
76
82
84
84
86
93
95
105
112
120
122
125
127
105
103
105
107
110
110
107
105
103
103
103
105
107
110
112
112
112
117
112
115
120
117
115
115
115
115
115
115
112
115
120
120
120
122
120
122
122
122
120
112
110
98
91
84
74
74
76
76
82
80
76
76
78
82
84
84
89
93
95
103
112
120
125
127
103
103
105
107
107
107
107
103
98
103
103
103
105
110
112
112
110
110
112
117
117
117
117
115
110
110
112
110
110
110
117
120
120
122
120
120
122
125
122
115
112
103
93
86
78
76
78
82
82
80
74
76
80
84
82
84
86
86
91
93
100
112
122
129
98
100
100
105
105
107
105
98
98
103
105
103
103
107
105
107
110
112
117
117
117
120
117
115
110
110
112
112
115
112
112
117
117
122
122
120
122
122
122
117
112
105
95
86
80
84
80
84
86
80
74
76
82
84
82
86
84
82
82
84
91
100
115
127
95
93
95
100
105
105
100
98
100
105
105
103
103
103
105
110
112
115
117
115
112
115
117
115
112
112
112
110
112
110
115
117
120
120
125
125
120
117
117
115
110
105
98
86
80
82
80
82
86
82
76
74
82
84
86
84
80
82
82
82
91
95
105
117
98
95
95
95
100
100
98
98
98
100
100
98
103
103
110
115
117
115
112
110
107
110
110
112
110
110
110
112
112
112
115
115
115
117
122
120
117
115
115
112
105
105
95
86
82
80
80
80
82
82
78
78
84
86
84
84
84
86
84
84
91
91
95
107
95
98
95
91
95
95
93
98
103
100
100
103
100
103
107
110
110
110
107
105
105
105
107
110
107
107
110
110
112
115
117
115
115
117
115
115
112
112
112
105
105
103
93
84
82
82
82
82
78
80
82
82
84
84
84
84
84
86
86
84
89
86
89
98
95
98
95
91
91
93
93
100
103
103
100
98
98
100
100
100
103
103
103
103
103
105
107
107
107
112
112
110
110
110
115
120
117
117
115
110
107
112
110
105
98
95
91
86
84
84
84
82
82
86
86
84
82
82
86
89
84
84
84
86
86
84
84
89
95
95
95
93
91
93
93
100
105
100
98
93
95
98
100
100
100
100
98
98
100
100
103
105
110
115
112
107
105
107
115
122
120
115
112
107
105
107
105
100
98
93
91
84
84
86
89
89
91
91
91
91
86
86
86
91
89
80
78
80
82
80
80
82
