P2
# 179 of 608 Angiograms
64 64
255
211
209
206
202
199
196
186
176
159
142
125
112
105
98
93
93
93
98
100
103
112
125
142
154
156
156
156
156
159
159
161
161
156
151
149
154
156
151
151
154
149
144
142
137
134
129
127
132
137
137
134
137
139
139
142
142
144
144
147
151
156
159
161
165
211
209
204
201
199
199
192
178
163
144
127
115
107
100
93
93
93
95
95
100
105
117
134
149
154
154
156
159
161
161
163
161
156
151
149
154
156
154
154
154
149
147
142
139
134
129
127
129
134
137
137
137
139
142
144
147
147
147
149
154
156
161
165
165
209
207
202
201
201
199
194
182
168
149
129
117
107
100
93
93
89
86
93
95
103
112
127
142
149
151
156
159
163
163
163
161
156
154
151
149
151
154
154
154
151
149
144
139
134
132
132
134
137
137
139
139
142
144
147
149
149
149
151
156
159
165
168
163
207
206
201
201
201
199
194
184
170
151
129
117
107
100
95
91
84
82
86
91
98
105
117
134
144
151
154
159
163
161
163
163
159
154
154
149
151
154
154
156
156
151
144
139
134
132
134
137
139
142
144
147
147
147
149
149
151
154
154
159
163
163
165
163
206
204
201
199
197
197
194
184
172
156
134
120
110
103
95
91
84
82
86
89
91
98
110
125
137
144
151
156
161
161
163
163
161
156
156
156
154
154
156
156
154
154
147
144
139
142
142
144
144
147
149
149
151
149
149
151
154
156
156
161
163
163
163
163
204
202
199
197
197
196
192
184
174
161
137
120
110
103
95
91
84
80
82
84
86
91
100
115
127
137
147
151
159
159
161
161
161
161
159
156
154
156
156
156
154
154
149
147
149
149
149
147
144
147
149
149
149
147
144
149
154
156
161
163
165
163
165
165
206
202
197
196
196
194
190
182
176
165
142
122
112
103
95
91
84
78
78
80
82
86
95
105
117
127
139
147
154
159
159
159
161
161
159
156
156
156
156
156
156
154
151
151
151
149
151
147
147
149
151
151
147
144
147
149
154
159
163
165
165
165
165
165
206
201
197
196
196
194
190
182
176
168
149
127
115
105
98
93
82
76
76
78
80
84
89
98
107
120
129
142
149
156
159
161
163
161
159
161
159
156
156
156
156
154
149
149
151
149
151
149
151
151
151
151
149
147
147
151
154
159
165
168
168
165
165
163
206
201
197
196
196
194
188
180
176
172
159
137
120
107
100
93
84
78
80
82
80
82
84
93
100
110
120
134
144
154
159
163
163
161
161
161
161
159
156
156
159
156
151
149
147
149
151
154
154
154
154
151
151
149
149
151
154
159
165
165
165
165
168
163
204
199
197
196
196
192
188
180
178
176
168
149
129
115
103
93
86
80
80
82
84
84
86
91
93
100
110
127
142
149
156
161
163
161
159
161
161
161
159
159
159
156
151
149
149
151
154
154
154
156
156
154
156
154
151
154
156
159
163
163
165
165
168
163
202
199
197
196
194
192
186
180
180
182
176
163
144
125
110
98
89
82
80
82
84
84
84
84
86
93
103
117
134
144
151
156
159
159
156
159
161
159
156
159
159
159
154
151
151
151
154
154
151
154
156
156
156
154
156
156
156
161
163
163
163
168
168
163
202
201
199
196
192
188
182
180
184
186
182
174
159
139
120
105
93
86
78
80
82
80
78
78
80
84
95
110
125
137
147
151
154
154
154
154
159
156
156
161
163
161
156
156
156
156
154
151
151
154
156
159
156
154
159
159
159
159
163
163
163
163
163
161
202
201
197
196
192
186
180
182
186
190
188
182
170
151
132
115
100
93
84
80
80
74
72
72
74
78
89
103
117
129
142
149
151
151
151
156
159
161
161
163
165
161
159
159
159
156
154
154
151
154
156
159
159
156
161
161
161
161
163
165
165
163
161
159
199
197
194
194
190
182
178
180
188
192
190
186
178
165
149
129
112
100
91
84
78
74
74
76
74
76
84
95
112
125
134
147
151
154
156
161
161
163
163
165
165
163
161
161
161
159
156
156
154
154
154
154
156
161
161
161
159
159
161
163
163
161
156
154
196
194
192
192
186
178
172
178
188
194
192
188
184
176
163
144
127
110
98
89
80
74
74
78
80
78
82
93
107
120
129
144
151
154
156
159
161
161
165
168
168
165
161
161
161
161
159
159
156
151
151
154
156
159
159
159
159
156
159
159
156
156
154
154
194
190
190
190
184
178
174
182
186
192
194
190
186
180
172
159
142
127
107
93
84
78
78
78
80
78
82
91
105
115
127
144
154
156
159
159
161
163
163
165
165
168
163
163
163
161
161
161
159
154
154
154
154
156
156
156
156
156
156
154
154
156
156
159
192
188
190
186
184
180
180
186
188
190
194
190
188
182
178
168
151
139
122
105
93
84
80
80
82
82
84
89
103
112
127
144
154
161
159
161
163
163
163
163
161
165
168
165
165
163
163
161
159
156
154
151
154
154
154
154
154
154
151
154
159
159
159
156
192
188
188
188
186
182
186
186
188
190
192
190
190
184
180
172
163
149
137
120
103
95
89
89
86
86
84
89
100
110
125
139
154
159
161
161
163
165
165
163
159
163
168
168
165
163
165
163
161
159
156
156
154
154
154
151
154
151
151
154
159
159
159
156
192
190
190
190
188
186
186
188
188
188
190
190
190
188
182
176
170
159
147
134
120
107
98
93
89
86
84
89
98
110
122
137
151
159
163
165
165
163
163
163
163
163
168
165
163
165
165
165
163
159
159
156
154
154
156
154
154
151
154
154
159
161
161
156
192
190
192
192
190
186
186
186
188
188
188
190
192
190
184
178
174
168
161
147
134
125
115
103
93
89
84
89
98
110
122
134
147
159
165
165
165
163
165
165
165
165
165
163
165
168
165
163
161
161
159
159
159
159
161
159
154
154
154
156
159
161
161
161
190
188
190
190
188
186
186
186
188
186
186
188
190
190
184
178
176
174
168
161
151
142
129
117
103
93
89
91
100
110
120
129
144
159
165
168
165
165
165
168
168
168
165
163
165
168
168
165
163
161
159
161
163
161
161
161
156
156
156
156
159
161
161
159
182
178
176
176
178
180
182
184
184
182
182
186
188
188
184
176
176
176
174
170
163
154
142
132
115
103
95
93
103
105
115
125
139
154
165
168
165
165
163
168
170
168
165
165
165
170
170
168
168
165
163
163
163
163
163
161
159
159
159
159
161
163
161
159
159
144
134
139
147
163
174
180
182
182
182
182
186
186
184
174
172
176
176
174
172
163
154
144
127
112
105
98
100
105
110
120
137
151
161
165
168
165
163
168
170
170
168
165
168
172
174
170
168
168
165
165
163
163
165
165
161
161
159
159
159
161
161
161
120
107
100
103
115
134
156
174
182
184
184
184
184
186
184
176
172
176
180
178
174
170
161
151
137
122
112
107
103
103
105
117
129
147
156
163
168
168
165
170
172
172
170
170
172
174
174
174
172
172
170
168
163
161
163
163
163
161
159
156
156
161
163
165
93
84
80
82
93
110
134
161
178
184
186
184
184
186
184
180
178
178
178
176
176
174
168
159
144
129
117
112
107
105
105
112
125
142
154
161
163
165
168
170
174
176
174
174
174
176
178
178
178
174
170
168
165
165
163
165
165
161
156
154
159
163
165
168
78
72
70
74
82
98
122
147
172
182
186
184
182
186
186
184
182
180
178
176
176
176
170
161
151
137
127
117
115
110
107
110
122
134
149
156
161
163
168
172
174
178
178
178
176
176
178
178
178
174
170
168
168
168
165
165
165
163
156
154
156
161
165
165
76
72
68
72
84
100
120
142
163
178
184
184
182
186
186
184
182
180
178
176
176
176
172
165
156
144
134
122
117
117
115
115
120
129
144
151
159
163
168
172
176
180
180
180
178
178
180
178
176
174
172
168
168
168
165
163
163
161
156
151
154
156
161
163
80
82
82
86
95
115
132
142
161
176
184
184
184
186
184
182
180
178
178
178
178
178
174
170
161
151
142
132
122
122
120
120
120
125
134
147
154
161
165
172
176
180
178
178
178
180
178
176
174
174
172
170
170
168
170
168
163
161
159
154
154
156
159
161
95
112
127
129
132
132
139
147
159
174
184
186
184
184
182
180
180
180
182
184
182
180
176
172
168
159
151
142
132
125
125
125
125
125
129
139
149
159
163
170
176
180
180
178
178
178
178
176
174
174
174
172
170
168
170
170
165
163
159
156
159
161
161
165
127
147
163
168
154
149
151
154
159
168
180
184
184
182
182
180
180
182
184
184
184
182
178
176
172
165
159
151
142
134
127
125
122
125
127
132
142
154
161
168
174
180
184
180
178
176
176
174
176
172
172
170
170
170
168
168
163
161
156
154
156
161
163
165
161
174
180
180
172
163
156
156
156
161
176
184
184
184
184
184
184
186
188
188
184
182
180
178
176
172
168
161
151
142
134
127
125
125
127
129
139
149
156
165
172
178
182
180
178
176
176
174
174
172
170
168
168
168
165
161
161
161
156
154
159
161
165
165
178
184
188
188
182
170
161
159
159
159
170
182
186
188
190
190
188
188
192
190
186
182
178
180
178
178
174
168
161
154
144
132
127
122
122
125
134
144
154
163
172
174
178
180
180
176
174
174
174
174
170
168
168
165
163
161
161
161
156
154
159
161
163
165
184
186
188
192
188
178
168
161
156
156
165
180
188
192
194
192
192
190
192
190
186
180
178
180
180
178
178
176
170
161
154
142
132
127
125
125
134
142
154
163
170
172
176
178
178
174
172
172
174
172
172
168
165
165
163
161
161
159
159
159
159
161
161
163
188
190
192
194
192
184
174
163
159
159
163
178
188
192
196
194
194
192
194
190
184
178
178
180
180
180
180
178
176
170
163
151
139
132
129
129
134
139
149
161
168
172
176
176
176
176
174
174
174
174
172
168
168
168
165
161
161
159
161
163
161
161
161
159
190
190
192
196
194
190
178
168
159
159
163
174
188
194
196
196
196
196
196
190
182
176
176
178
178
180
182
180
180
176
170
161
149
139
132
132
134
139
147
156
165
170
176
176
176
176
176
176
174
174
170
168
168
168
168
165
165
161
161
163
159
159
161
163
192
192
194
196
196
192
180
172
163
159
163
172
186
194
194
196
197
197
196
190
184
178
176
176
180
182
184
184
184
184
178
170
159
149
139
134
134
137
142
149
161
168
176
180
176
176
178
176
174
174
170
168
165
168
172
170
168
163
165
165
159
159
163
165
194
194
194
194
194
192
184
176
165
159
161
170
186
196
196
196
197
197
194
190
186
182
178
180
182
186
186
186
188
188
184
176
168
159
149
142
137
137
139
147
156
165
174
178
178
180
178
178
174
172
168
163
165
170
172
170
170
168
165
163
159
156
161
168
196
196
197
196
196
192
188
180
168
161
159
168
184
196
199
199
197
196
194
190
190
186
184
182
184
184
186
188
190
190
188
184
176
168
159
151
144
142
142
144
151
161
172
176
176
178
176
176
172
170
168
165
165
170
170
170
172
168
165
163
161
159
156
161
197
197
197
197
197
194
192
186
172
161
159
168
182
196
199
199
199
196
192
190
192
190
186
184
186
184
184
186
190
192
192
190
184
176
168
161
151
147
147
147
149
159
168
176
178
176
176
174
170
165
165
165
165
168
170
170
172
168
165
168
163
161
156
161
199
197
196
196
197
197
194
190
174
161
159
165
180
194
197
199
199
196
192
192
194
192
188
186
188
188
186
188
192
194
196
196
192
184
176
168
159
151
147
147
149
154
163
170
176
176
176
172
168
163
163
165
165
168
170
172
172
170
168
165
163
163
161
163
201
197
196
196
197
199
197
192
178
165
161
165
180
194
199
199
201
197
192
194
194
190
188
188
190
190
190
192
194
197
199
199
197
190
184
176
168
159
149
147
147
154
159
165
172
174
174
174
170
163
163
163
163
168
172
172
172
170
168
165
165
168
165
168
201
197
196
197
197
199
201
194
182
170
165
165
176
190
199
201
201
197
194
192
192
190
188
190
190
190
190
194
196
199
201
202
199
194
190
182
176
165
156
149
149
154
156
161
168
172
174
174
172
168
163
163
163
168
172
172
172
170
168
165
170
170
168
168
202
199
197
197
199
201
201
196
186
174
168
170
174
186
197
202
202
199
196
194
192
190
192
194
194
194
194
194
196
197
199
199
199
196
194
188
182
174
161
154
149
149
151
154
161
168
172
174
174
172
168
168
168
170
170
172
174
174
172
170
170
170
170
170
206
201
201
201
202
202
201
197
192
180
170
168
172
182
196
202
204
201
197
196
194
196
196
196
196
197
197
196
197
197
199
201
199
197
196
194
188
180
170
159
151
149
151
151
156
161
165
170
172
172
170
170
172
172
170
170
174
174
172
174
170
170
170
174
209
204
202
202
202
201
199
199
196
186
172
168
170
180
192
201
202
201
201
197
197
197
199
199
199
199
199
199
197
197
199
199
199
197
196
197
194
186
174
163
156
149
149
149
151
159
161
163
168
170
172
174
176
174
172
172
172
172
174
174
170
168
170
174
211
209
204
202
201
201
199
201
197
190
176
168
168
178
190
199
201
201
199
199
199
202
202
202
202
201
199
199
197
196
196
197
199
197
197
199
197
192
180
170
161
151
147
142
142
149
156
161
165
168
172
176
178
178
174
172
174
174
172
170
170
170
168
170
215
213
207
204
201
201
201
202
201
194
182
170
168
176
186
196
199
199
197
199
201
204
209
209
206
202
201
199
197
196
197
197
197
199
199
201
199
194
186
176
165
156
147
142
137
137
144
154
159
163
165
170
174
176
174
174
170
168
165
163
161
159
156
156
219
217
213
207
204
202
204
207
206
199
188
174
168
174
184
194
201
201
197
197
202
207
210
210
210
207
202
201
199
197
197
197
199
199
201
201
199
196
188
178
172
161
149
142
137
134
137
139
144
151
154
159
159
159
159
159
154
149
144
142
139
139
139
139
220
219
217
211
209
206
207
210
209
202
194
180
172
174
180
190
197
201
197
196
202
209
211
211
211
207
204
202
199
199
197
197
199
199
201
199
197
192
186
178
170
161
149
137
132
125
120
120
122
125
127
127
129
129
129
129
129
129
127
127
125
125
125
125
221
221
219
215
213
211
210
211
211
207
199
186
174
174
178
188
197
201
199
197
204
210
213
211
210
206
206
202
201
199
197
197
197
199
197
194
192
186
180
174
165
151
139
127
117
110
105
100
100
100
100
103
105
107
110
110
110
110
112
112
112
112
112
112
223
221
219
217
217
215
214
213
213
210
204
192
180
174
176
182
196
202
201
199
204
210
210
209
207
206
204
202
201
199
196
194
192
190
186
182
178
172
165
159
149
137
127
115
107
100
95
91
89
89
89
91
91
93
95
95
98
100
103
105
107
107
107
107
224
223
219
219
218
219
218
217
215
213
209
197
184
174
176
178
188
197
201
201
204
207
207
206
204
201
197
196
192
186
182
176
172
170
168
163
159
154
149
144
137
127
117
110
103
95
91
86
86
86
86
86
86
89
89
89
91
93
98
98
103
103
103
107
224
223
220
219
220
220
220
219
217
215
211
202
188
176
174
174
178
186
192
196
199
199
199
196
192
188
184
180
174
170
165
161
159
156
151
147
142
142
139
134
127
117
112
107
103
98
93
89
84
84
82
82
80
80
78
80
86
91
93
95
100
100
103
105
224
221
220
220
221
223
223
221
219
215
211
204
190
176
172
168
163
163
165
168
172
174
176
176
174
172
168
163
161
156
151
149
147
142
137
137
134
134
129
125
117
112
110
105
105
100
95
93
89
84
80
78
78
78
80
80
84
89
84
86
93
95
95
98
224
223
221
221
224
224
224
221
219
215
207
199
186
174
163
151
139
132
129
134
144
151
156
156
156
156
154
151
144
142
139
134
134
132
132
129
125
122
117
115
112
112
110
110
107
103
95
95
91
86
82
78
80
80
82
80
80
82
82
84
84
89
91
93
224
224
223
221
221
220
219
217
213
207
199
190
178
165
149
134
120
110
103
107
120
134
142
144
142
142
139
134
127
122
120
120
120
122
122
117
115
112
110
110
110
110
110
110
107
103
98
98
91
86
84
84
82
82
82
78
76
78
84
82
80
82
84
86
223
220
218
214
213
211
210
207
202
196
190
180
170
156
139
125
110
98
89
86
95
112
125
129
129
129
127
125
117
115
115
110
112
112
115
115
112
110
110
112
112
110
110
110
105
100
100
98
91
86
86
91
86
82
78
78
76
78
80
82
80
78
82
82
213
210
206
202
201
201
199
196
192
186
180
170
161
151
137
120
103
89
78
74
80
93
107
120
125
125
125
120
115
112
115
107
100
105
107
107
105
105
105
107
110
107
105
103
103
100
103
100
93
89
91
91
86
84
86
82
78
76
80
82
78
78
82
82
201
197
196
194
192
190
188
184
182
176
172
163
154
147
132
120
105
89
78
72
74
80
93
105
112
117
117
117
112
112
112
105
98
93
93
95
100
100
100
103
105
103
100
100
100
100
100
100
95
93
95
93
86
86
86
84
82
82
80
78
78
80
82
80
190
188
186
184
182
180
178
174
170
165
161
154
147
134
125
120
107
93
82
72
74
74
82
91
103
105
107
107
107
107
105
98
91
89
89
91
91
93
95
98
98
98
98
95
98
98
98
98
95
93
93
91
86
86
84
82
84
82
78
80
78
78
80
80
182
180
176
170
168
163
163
161
156
151
147
142
137
127
117
115
107
98
86
72
70
70
74
80
89
98
100
103
103
98
95
91
86
84
84
80
80
86
89
91
91
91
93
93
93
93
91
91
91
91
89
91
89
86
82
80
82
78
74
80
78
76
76
78
170
168
161
154
149
147
144
144
142
139
137
129
122
117
110
110
105
98
86
72
66
66
68
72
78
86
91
93
91
89
86
84
80
80
80
76
76
80
86
86
82
82
82
84
86
86
86
86
86
86
86
84
84
84
82
80
78
74
74
76
76
74
72
74
154
149
142
137
134
129
125
125
122
122
120
115
107
103
100
98
98
93
84
74
66
62
62
64
70
76
82
84
82
80
78
80
80
78
80
78
74
78
80
78
78
80
78
78
82
82
82
84
82
82
82
80
80
78
80
78
76
76
74
76
74
70
72
74
134
129
125
122
117
112
110
105
105
105
105
100
95
93
93
93
91
89
82
76
68
62
60
58
62
68
74
78
80
76
74
76
80
78
78
80
78
78
78
76
78
78
80
80
80
84
84
82
82
82
82
80
78
80
80
78
76
78
78
80
74
74
74
72
