P2
# 183 of 608 Angiograms
64 64
255
174
165
156
149
147
139
134
134
132
132
132
137
144
156
176
196
204
204
202
201
201
201
201
201
199
197
199
197
197
196
196
196
194
190
184
174
165
161
149
139
134
132
132
132
134
137
139
144
149
151
154
154
151
149
147
144
139
134
127
122
125
129
134
137
176
165
156
149
147
144
139
137
132
129
127
129
137
149
168
190
202
204
204
202
201
201
201
199
201
201
201
201
199
197
197
196
194
190
188
178
170
163
156
147
139
134
132
129
127
122
122
122
127
132
134
137
139
139
137
137
132
127
125
122
122
127
134
132
178
165
156
151
147
147
142
139
132
127
127
129
134
144
161
182
201
206
206
202
201
202
201
199
199
201
202
201
199
197
196
194
190
186
182
176
170
163
156
149
144
137
129
127
117
110
105
105
107
112
120
125
129
132
132
129
127
127
125
122
120
122
129
127
180
165
156
154
149
149
142
139
132
125
125
127
132
139
156
176
196
204
206
204
202
204
202
201
199
197
196
196
194
188
186
180
178
174
168
163
159
151
147
147
144
137
129
120
112
103
100
100
98
100
103
107
115
117
122
122
122
122
122
120
117
120
122
125
182
165
156
154
149
144
139
137
132
127
122
127
132
137
151
168
188
199
204
204
202
202
199
196
194
190
186
182
178
174
168
163
159
156
151
147
144
139
134
134
134
129
122
117
112
105
103
100
95
98
100
100
105
112
115
117
115
115
115
115
117
117
120
120
186
165
156
151
147
139
137
134
132
129
129
129
132
137
144
156
174
190
196
196
196
192
190
186
182
176
172
168
161
156
151
149
147
144
139
134
132
129
127
127
125
122
117
115
110
107
107
103
95
95
98
98
98
105
110
110
110
110
112
110
112
115
117
120
194
172
159
149
142
137
134
134
134
132
132
129
132
137
142
149
161
172
180
182
180
176
172
170
163
161
154
151
144
142
137
137
134
132
129
127
127
122
122
122
120
117
115
112
107
100
105
105
95
91
93
95
98
100
105
107
107
107
107
107
107
107
112
115
202
180
163
151
139
137
134
134
134
132
129
127
125
125
127
132
139
151
159
161
161
156
151
149
144
142
139
134
132
129
127
127
127
125
120
115
115
115
115
115
115
112
110
105
103
100
107
107
98
89
89
93
98
100
103
105
105
103
105
105
105
105
107
107
206
190
170
151
139
134
132
127
122
120
117
112
110
107
107
110
117
127
137
139
139
137
137
137
134
129
129
127
127
122
122
120
120
117
112
110
107
107
112
112
110
107
107
107
105
107
110
107
100
95
91
91
93
95
100
103
107
103
103
105
105
107
107
112
206
194
170
149
134
127
120
112
110
107
103
95
91
89
89
91
98
110
120
127
127
127
127
127
127
127
127
125
122
120
117
117
117
112
110
107
105
105
105
107
107
105
107
110
110
112
112
107
100
98
93
91
86
89
91
95
98
100
100
103
103
105
107
110
196
184
165
144
127
117
107
103
98
93
86
82
80
80
78
78
84
95
107
115
117
120
120
122
122
125
122
125
120
112
112
112
110
105
107
105
100
100
100
100
100
105
105
107
110
112
112
107
103
98
95
89
84
86
89
93
93
95
100
100
103
103
105
105
180
172
159
139
122
110
100
95
93
86
80
80
76
74
76
76
78
84
95
107
110
110
115
117
117
115
117
120
117
112
110
107
107
103
105
103
98
98
100
100
100
103
103
105
107
112
112
105
103
98
95
91
84
84
89
91
95
100
103
100
98
100
103
98
165
163
154
139
120
105
95
93
89
82
80
78
76
74
72
72
74
78
86
100
107
110
110
112
112
112
110
115
115
110
105
105
105
105
105
103
100
103
103
100
103
103
105
107
105
107
105
103
103
98
95
89
82
82
84
89
95
100
98
93
98
100
95
89
156
156
149
139
122
105
93
91
86
80
78
76
74
74
72
70
70
76
82
93
105
110
107
110
110
112
112
112
112
107
105
105
107
105
103
103
105
103
103
103
105
105
105
103
103
103
103
103
103
100
95
86
84
84
84
84
89
91
89
93
95
95
89
82
147
147
142
137
125
110
95
91
84
78
78
74
70
70
70
70
70
74
80
89
98
105
110
107
110
110
110
107
107
107
105
105
105
105
103
103
103
100
98
100
100
103
103
98
98
98
100
103
100
100
98
89
84
82
82
82
80
80
84
86
89
86
82
78
137
139
137
132
125
115
103
93
82
78
76
72
70
70
70
72
72
74
78
84
93
98
98
100
100
103
103
100
100
103
105
105
103
100
100
100
100
100
98
98
98
98
98
98
98
98
98
98
95
95
98
93
84
78
76
76
74
74
76
80
80
82
78
72
129
132
129
125
120
110
103
95
86
78
76
70
68
68
70
70
72
72
74
80
89
91
91
91
93
93
95
95
95
95
95
95
95
95
95
95
95
95
95
95
93
95
93
91
93
95
95
95
93
93
91
89
82
76
74
72
74
76
74
72
70
70
68
68
115
115
115
112
107
103
100
98
91
82
78
70
66
64
64
66
66
68
70
76
78
78
80
84
86
89
89
89
86
86
86
84
86
86
86
86
84
86
86
89
91
91
89
86
86
89
91
91
91
89
86
84
80
80
76
70
70
72
70
66
66
64
62
62
93
93
95
95
95
95
93
93
93
86
80
74
68
62
62
64
64
64
68
74
78
80
78
82
82
82
84
84
84
84
84
80
80
82
82
82
84
86
84
84
84
84
84
84
82
80
82
86
89
86
80
82
80
76
76
72
70
72
70
68
68
60
62
66
86
86
89
91
89
91
93
91
95
91
84
78
70
64
64
64
62
62
66
72
78
84
82
82
82
80
80
82
82
84
86
86
80
82
80
82
84
84
84
84
84
82
82
82
78
78
80
84
86
82
80
78
80
76
74
74
74
72
68
70
68
62
64
68
86
91
89
91
89
93
95
93
95
91
89
82
74
66
66
64
62
66
70
72
76
82
86
84
84
82
82
84
84
86
84
84
84
82
80
82
84
82
84
84
82
80
82
84
82
80
82
82
82
80
80
82
82
80
76
74
74
68
64
64
66
66
68
70
89
91
89
93
93
95
98
98
95
93
91
86
78
70
66
64
62
66
70
72
74
78
82
84
84
86
89
86
84
84
84
82
82
82
80
80
84
86
84
82
84
82
82
82
82
82
80
76
78
80
80
78
80
80
76
74
74
70
66
70
72
72
74
76
91
91
93
98
95
95
98
100
100
100
95
89
80
76
68
64
64
68
70
70
72
74
80
84
86
86
86
82
84
86
84
82
82
84
84
82
84
82
82
82
82
80
82
82
82
84
80
78
78
78
80
78
78
80
76
76
74
74
72
72
72
76
76
76
91
93
93
98
98
95
95
98
100
103
95
91
84
80
74
66
66
64
68
66
68
72
78
84
84
82
82
82
84
84
86
84
84
89
86
80
82
80
80
82
84
82
82
82
80
82
82
82
82
82
80
80
80
78
74
76
78
76
78
78
76
76
74
74
89
93
95
98
103
100
98
95
98
100
98
95
89
84
80
72
66
66
64
62
68
72
76
82
82
82
84
82
80
82
84
82
89
86
84
82
84
82
84
84
86
84
84
86
80
80
80
80
84
84
82
84
78
76
80
80
80
80
76
76
76
76
76
74
89
93
95
98
100
103
98
93
95
100
103
98
93
86
84
78
70
68
66
66
72
74
74
78
82
82
84
86
84
84
86
86
84
84
86
91
89
86
89
86
84
82
84
86
84
84
84
82
84
84
82
82
78
78
80
80
82
82
78
76
76
80
80
78
91
93
98
100
100
103
100
98
100
105
103
98
95
91
89
80
76
74
70
70
72
74
74
74
78
80
84
86
86
86
86
89
89
89
91
91
86
86
89
84
82
82
86
89
84
86
86
84
86
82
80
80
78
80
78
76
82
86
82
76
80
78
78
76
95
95
98
100
105
103
100
100
103
105
103
100
98
98
93
84
80
78
74
72
68
70
70
74
76
78
82
86
89
89
86
86
89
91
91
89
84
86
84
84
86
86
86
89
86
86
82
84
84
80
80
80
82
82
80
80
82
84
84
76
76
78
78
80
100
98
100
100
103
103
100
100
100
103
103
105
100
100
95
91
84
82
74
72
72
70
68
70
72
76
80
84
89
91
93
89
89
89
91
89
84
86
84
86
89
89
89
91
89
84
82
86
86
84
89
86
86
82
82
84
82
80
80
80
78
78
78
82
100
100
100
103
105
103
100
103
100
100
103
103
100
100
98
95
91
86
76
72
72
72
70
70
70
74
76
80
84
89
93
89
86
86
86
89
86
89
89
91
89
89
89
91
89
84
84
89
89
86
86
84
84
84
82
84
84
80
80
80
80
80
80
82
103
100
105
103
105
105
105
107
105
98
100
103
100
100
95
95
98
91
84
76
74
74
70
68
68
70
74
74
78
82
84
84
84
84
86
89
89
86
89
93
91
89
89
91
86
84
86
89
84
84
84
86
84
84
84
86
84
80
80
80
80
82
82
80
103
103
103
103
103
103
105
107
107
103
100
103
100
98
95
93
95
93
91
82
78
74
74
72
68
74
70
68
72
78
80
84
86
89
91
91
91
91
91
93
93
91
89
89
86
89
93
91
86
86
86
89
86
82
84
86
84
82
82
80
80
84
84
80
103
103
105
105
105
103
100
103
105
105
100
98
98
98
98
95
95
98
95
89
82
78
76
72
66
70
70
70
74
76
78
82
86
91
91
93
95
98
95
95
93
91
89
91
89
93
95
91
89
89
89
86
86
82
82
82
84
84
82
82
80
82
82
84
105
100
103
107
105
103
100
103
100
103
103
105
100
100
100
95
93
98
98
95
91
84
80
74
70
70
72
74
76
76
76
80
84
89
91
91
93
95
93
91
91
89
93
91
91
93
93
91
89
84
86
84
89
86
82
82
84
86
84
82
80
82
86
82
107
103
105
110
110
105
103
105
103
100
105
105
105
100
100
95
95
95
98
100
98
91
82
76
74
72
74
72
74
76
76
78
80
82
89
89
89
89
91
86
91
91
95
93
93
93
89
91
91
89
89
84
89
89
86
89
86
86
82
82
80
82
84
82
107
105
105
107
107
110
107
107
107
103
100
103
105
100
100
98
95
98
100
103
100
95
91
82
76
72
74
74
76
76
74
74
78
82
82
84
82
84
89
89
89
93
98
93
93
93
91
93
93
93
91
91
89
89
86
86
89
91
86
86
84
84
84
82
107
107
105
105
107
107
110
107
105
105
105
107
105
103
103
98
95
98
98
100
100
100
98
91
84
78
74
74
76
74
74
78
80
82
80
78
82
84
84
84
89
93
93
95
98
93
93
89
91
93
91
86
89
86
86
91
93
91
89
84
82
86
84
82
110
110
107
107
107
105
107
107
105
103
103
105
105
103
100
100
100
100
98
95
103
100
100
98
93
86
80
78
78
76
76
80
80
76
80
80
82
80
78
78
82
89
91
95
98
93
91
89
89
91
91
86
86
86
89
89
86
84
84
84
82
82
84
82
107
105
105
107
107
105
105
107
105
103
103
103
105
107
103
103
103
103
98
98
103
100
100
100
98
95
89
84
82
80
80
82
82
78
80
80
80
74
76
74
76
80
84
89
93
93
91
89
86
84
86
86
84
86
86
84
84
84
84
82
82
82
82
80
105
103
105
110
110
107
105
107
105
105
105
103
103
103
105
105
105
100
98
100
100
100
98
100
100
98
93
91
86
82
82
84
84
78
78
78
76
72
74
74
72
74
78
82
86
86
84
84
84
84
84
84
84
84
84
84
84
86
86
86
82
80
82
80
110
107
110
107
110
112
110
110
105
103
100
105
107
105
105
105
103
100
100
100
98
103
98
100
100
98
95
95
95
91
84
84
84
78
74
76
76
74
74
72
72
74
74
76
78
80
78
76
80
84
82
80
80
80
82
80
80
84
84
80
76
78
82
78
112
110
110
110
112
110
110
110
107
103
103
107
110
107
107
105
103
100
103
100
103
100
95
100
100
98
98
98
98
98
93
86
84
82
78
80
78
76
76
74
76
78
76
74
76
80
80
78
76
78
78
78
76
78
76
78
78
80
80
80
80
80
78
76
110
112
115
115
117
115
110
110
110
107
110
107
107
107
105
105
105
103
105
105
105
103
98
103
103
100
100
98
98
103
100
95
86
82
82
82
80
76
78
76
74
78
78
72
74
76
80
76
74
74
78
78
74
76
76
78
80
82
80
82
84
78
78
80
112
115
115
117
117
115
112
110
110
107
110
107
105
107
107
105
103
103
105
105
105
105
103
107
105
98
100
105
107
105
103
103
93
86
82
80
82
78
78
74
74
74
74
74
74
74
74
74
74
74
78
78
76
74
76
78
80
82
80
78
82
78
78
82
112
112
115
115
117
115
112
112
110
107
107
107
105
112
110
105
100
103
105
105
105
105
107
107
105
103
105
107
105
105
107
105
98
93
86
82
82
82
78
76
76
76
74
74
74
74
74
72
68
72
78
80
78
74
76
78
78
80
76
76
78
78
78
80
115
115
115
112
117
115
112
110
107
110
110
110
110
110
105
103
100
105
105
103
103
105
107
105
103
105
103
105
103
103
105
105
100
95
95
89
86
82
82
78
76
76
74
76
78
76
76
74
68
70
78
82
78
74
76
80
76
76
76
76
76
78
78
78
120
117
115
110
110
112
112
112
112
112
110
110
110
110
105
105
107
107
103
98
103
105
105
103
100
103
100
103
100
100
100
100
100
100
100
98
91
86
86
82
80
78
78
78
78
78
78
74
72
72
78
82
76
74
76
74
74
72
76
72
74
78
78
74
117
120
115
110
110
112
112
115
115
115
112
107
110
107
107
107
105
107
105
103
103
105
105
103
105
103
100
103
100
100
100
100
103
103
103
100
98
93
89
86
82
80
82
80
76
80
78
78
76
74
78
78
74
74
74
72
72
74
72
72
76
78
76
74
115
115
112
115
115
115
117
117
115
112
110
107
110
107
107
110
107
110
107
107
105
105
105
103
105
105
103
103
103
103
103
103
105
103
100
103
98
95
93
89
89
84
86
82
82
82
80
80
78
76
82
82
78
76
76
74
76
76
76
78
80
78
78
78
112
110
110
115
117
120
122
120
117
117
112
112
115
107
110
112
112
115
110
105
100
103
103
100
100
103
103
100
100
103
103
103
103
103
98
98
95
93
91
91
91
89
89
86
84
84
82
84
82
80
84
86
80
78
78
80
80
78
78
82
80
76
80
82
115
110
112
115
115
117
117
117
117
120
115
112
112
110
110
110
112
112
107
100
100
105
105
100
98
100
103
103
100
103
100
98
100
103
100
98
95
93
91
93
95
91
93
89
86
89
91
89
86
82
86
84
80
78
80
84
82
78
80
80
80
82
84
86
115
110
110
112
115
117
117
117
117
117
115
112
112
112
110
110
112
107
105
103
105
107
105
98
98
100
105
103
100
103
103
100
98
98
103
98
98
93
91
91
93
95
93
91
89
93
93
95
91
89
86
89
86
89
89
89
86
82
84
86
86
84
84
86
112
112
110
112
117
117
117
120
122
120
115
115
115
112
112
112
110
110
107
107
105
105
103
98
98
100
98
98
100
100
98
98
95
95
98
95
95
95
93
91
93
95
93
91
91
95
98
93
91
91
91
91
93
93
93
95
95
91
89
89
89
89
91
86
112
112
110
112
112
112
115
120
122
120
117
117
115
112
112
110
112
112
107
107
103
103
98
98
98
98
98
95
95
98
93
91
95
95
93
91
93
93
91
91
93
95
93
91
91
95
95
93
93
93
93
95
93
95
93
95
98
95
91
89
91
91
89
89
110
110
110
110
110
112
115
120
120
122
120
122
120
115
112
110
112
110
105
103
100
100
100
98
98
98
100
100
95
98
98
95
98
93
93
93
93
95
93
93
93
95
95
91
91
91
93
98
100
98
95
95
93
93
93
95
95
93
91
89
89
91
89
91
110
110
110
110
107
110
115
117
120
120
122
122
120
117
115
115
112
110
105
103
100
100
100
98
98
100
100
98
100
100
100
98
95
91
91
93
93
95
98
98
95
93
93
91
89
89
95
100
103
98
95
95
93
93
95
95
95
93
93
89
89
91
89
91
112
115
112
112
110
112
115
117
120
120
122
122
120
117
115
112
110
107
105
105
100
98
98
98
95
100
100
98
100
100
98
95
95
91
93
93
93
95
95
98
98
95
91
91
89
93
98
98
98
95
93
93
93
93
98
95
95
93
93
91
86
91
89
86
107
112
115
112
112
115
120
120
120
120
122
120
120
112
110
112
110
107
103
105
100
98
95
95
98
98
103
100
95
98
98
98
93
93
95
93
91
93
93
98
100
98
95
93
91
93
95
93
93
95
89
89
93
95
95
93
93
91
91
89
91
93
93
89
105
107
112
115
115
117
117
115
112
110
117
120
120
112
110
110
110
110
105
105
103
98
95
98
100
100
100
103
95
95
95
95
93
95
93
91
89
93
91
91
95
98
98
95
91
93
93
93
93
93
91
91
93
89
91
93
95
91
91
93
93
91
89
86
107
107
110
115
115
115
112
112
112
115
117
120
117
115
112
110
110
110
110
105
103
98
95
98
103
100
100
100
100
98
95
93
95
95
93
93
91
89
86
91
93
93
95
98
93
93
93
95
95
95
93
93
93
91
98
98
93
89
91
91
89
89
91
86
107
110
110
115
112
110
115
115
110
115
115
117
117
115
112
110
107
107
105
105
103
100
98
100
105
100
98
95
98
98
95
93
93
93
95
95
91
91
91
95
98
93
95
98
93
91
91
95
95
93
93
91
91
91
95
95
91
91
89
89
89
91
93
91
110
110
112
115
110
110
110
110
110
110
112
115
115
112
112
110
107
110
105
100
103
103
103
105
105
105
100
95
98
98
95
95
91
89
91
91
91
89
89
93
93
93
93
93
93
93
93
91
91
91
95
95
91
89
91
93
91
95
93
89
89
91
93
91
112
110
112
112
110
112
110
110
110
107
107
110
110
112
115
107
105
107
105
103
103
105
103
105
105
103
98
98
98
95
100
98
93
91
91
91
89
86
86
91
91
93
93
93
93
93
93
91
91
93
95
93
91
89
86
89
91
91
91
86
86
91
93
91
112
112
115
112
110
110
110
110
105
103
103
105
105
110
112
110
105
105
107
105
103
103
105
105
100
98
95
98
95
95
98
93
93
91
89
89
86
86
86
89
91
93
93
93
95
93
91
89
89
91
93
91
91
91
86
89
91
86
86
86
89
91
93
93
