P2
# 187 of 608 Angiograms
64 64
255
196
165
132
112
98
91
86
82
82
86
86
91
95
100
110
122
149
180
196
199
197
196
194
192
192
190
188
188
190
192
194
194
190
186
188
190
186
184
182
178
176
174
176
174
163
144
120
107
100
100
100
110
129
149
159
161
159
154
154
154
151
149
149
149
199
168
129
105
93
84
82
78
82
86
86
89
95
100
105
117
142
174
196
199
199
196
196
194
192
188
184
186
188
192
194
192
188
186
188
188
184
182
178
176
176
174
176
174
163
151
129
112
103
100
98
95
105
129
147
156
159
154
154
151
149
147
142
142
201
172
129
103
86
82
82
80
82
84
84
86
93
98
100
112
137
168
192
199
199
196
196
196
194
190
186
188
186
190
190
188
188
186
186
184
180
176
176
174
176
176
174
174
165
154
142
122
110
100
95
91
91
103
125
142
151
151
151
147
144
144
142
139
201
176
132
103
91
84
84
82
82
84
84
86
91
98
100
110
129
159
186
197
199
196
196
196
194
192
190
188
188
188
188
186
186
184
182
180
176
174
176
178
176
176
176
174
168
159
149
137
120
105
95
93
86
89
100
117
132
144
149
149
149
149
151
151
201
180
142
110
98
91
89
86
86
86
86
86
89
95
100
107
125
147
178
196
197
196
194
192
192
190
190
192
190
190
190
188
186
182
178
176
174
172
176
178
178
176
176
174
170
161
151
147
137
115
103
95
91
84
91
103
115
127
142
151
154
154
156
159
199
182
154
122
110
100
95
91
89
86
86
86
89
93
100
105
120
139
168
192
197
196
192
190
192
190
190
192
194
194
192
190
186
182
178
174
170
172
172
176
178
178
176
176
174
165
154
149
147
134
117
105
98
93
93
100
105
112
125
142
151
156
159
161
197
184
161
137
120
115
107
98
93
91
86
86
89
93
98
105
117
132
159
186
197
197
192
188
188
190
192
192
196
194
192
188
184
180
176
172
168
168
172
172
176
180
180
178
174
170
161
154
149
147
137
125
115
105
100
103
103
105
112
125
142
154
159
161
194
184
165
149
132
122
112
105
98
95
93
89
91
93
98
105
115
129
149
178
196
199
196
190
188
190
192
194
196
194
188
186
182
180
176
174
170
168
170
172
174
178
180
178
174
172
165
159
154
151
149
144
134
122
112
105
103
105
105
112
125
142
156
161
190
182
172
159
144
129
120
112
105
98
93
91
91
93
98
103
115
125
142
170
192
201
197
196
192
190
192
194
194
190
186
184
180
180
176
174
170
170
170
172
174
178
178
178
176
174
170
163
156
156
156
156
154
144
132
120
110
107
105
105
112
125
142
156
186
180
174
168
156
139
125
115
107
103
95
93
93
95
98
103
110
122
137
161
190
199
199
197
194
192
192
192
192
188
184
180
178
178
176
172
170
170
170
170
176
180
182
180
180
176
172
165
161
159
159
159
159
154
151
142
127
112
107
103
105
112
125
142
182
176
176
176
168
151
134
122
112
107
100
98
98
98
98
103
107
117
129
156
186
201
201
199
196
196
196
194
192
188
184
180
180
176
172
172
172
172
170
172
176
178
180
180
182
178
172
168
163
161
159
156
156
151
151
154
147
132
115
107
105
105
115
127
178
176
176
178
174
165
144
129
120
110
105
103
100
98
100
100
105
115
129
154
184
202
202
201
197
194
194
194
190
190
184
182
180
176
172
172
174
172
172
174
176
178
178
180
180
178
172
170
168
165
161
159
156
154
154
159
154
147
132
117
110
105
107
117
174
172
176
180
180
176
161
142
129
117
110
107
105
100
100
100
105
115
129
151
184
204
206
204
199
194
192
190
188
190
184
180
180
176
172
170
172
174
172
174
174
176
178
180
180
176
174
170
168
168
163
159
159
156
154
159
156
154
144
132
120
110
105
110
170
170
176
180
184
184
176
159
142
129
117
112
110
105
103
105
107
117
132
151
182
204
209
206
199
196
190
188
188
188
184
182
180
176
174
174
172
174
172
174
176
176
176
178
178
176
174
174
172
170
165
159
156
156
156
159
156
154
149
147
132
120
112
110
168
170
178
182
186
188
186
176
156
142
129
120
115
112
110
107
110
117
132
151
182
202
206
204
199
194
190
188
188
186
184
182
180
178
176
176
176
174
174
176
176
174
174
174
174
172
172
174
172
170
168
161
159
156
159
159
156
154
149
149
147
132
120
112
168
170
180
186
188
188
190
188
176
159
144
132
122
117
117
115
115
117
129
149
180
199
201
199
196
192
190
188
188
186
186
184
182
180
182
182
180
178
176
176
174
176
178
174
174
172
170
172
170
168
168
165
161
161
161
161
156
154
151
151
154
147
129
120
170
174
182
188
192
194
194
192
190
176
159
144
134
127
120
117
117
120
129
147
176
192
197
197
194
190
186
186
186
188
186
186
184
184
184
184
182
180
178
176
174
178
180
178
174
174
172
170
168
170
170
168
168
165
163
161
159
154
156
159
159
156
142
125
176
178
188
194
196
197
197
197
194
190
178
159
147
137
127
122
120
122
132
144
168
186
194
194
190
188
186
184
186
186
186
186
186
186
184
184
184
180
178
176
174
176
182
182
178
174
172
170
168
172
174
172
170
170
165
163
159
156
159
163
163
159
151
134
180
182
192
197
199
201
202
202
199
196
190
176
159
147
137
129
127
127
134
142
161
180
190
190
188
186
182
184
186
186
186
188
188
186
184
184
184
182
178
176
176
178
180
182
182
178
176
176
174
172
172
174
174
170
168
163
161
159
161
163
161
159
156
144
182
186
197
202
204
204
206
206
204
201
197
188
172
154
142
134
127
127
132
139
154
174
186
188
186
184
184
184
186
184
186
188
186
186
184
184
186
184
178
176
178
180
180
182
184
180
178
178
176
174
174
176
174
172
170
168
165
163
163
163
163
159
156
154
184
190
202
207
206
207
207
209
207
204
202
197
182
163
149
139
129
127
129
137
147
165
182
186
186
186
186
186
186
188
186
186
186
186
186
186
186
186
182
180
182
182
184
184
186
182
180
180
178
176
178
178
176
172
170
168
168
168
163
163
163
161
159
156
190
192
204
209
207
209
210
209
209
207
206
204
192
172
154
139
132
129
129
132
142
156
176
184
186
188
188
188
192
192
188
186
186
184
184
186
186
184
184
182
184
184
182
184
184
182
178
180
184
180
180
178
176
172
170
170
170
172
170
165
165
165
161
159
192
194
204
209
207
209
211
210
210
209
209
207
199
180
159
142
132
129
127
129
137
149
170
184
186
188
190
190
192
194
192
188
186
182
186
186
184
186
186
188
184
184
182
182
182
180
180
182
186
184
182
178
176
172
172
174
176
176
174
170
170
170
165
163
192
194
202
207
207
207
211
213
211
211
211
209
202
186
163
144
132
127
125
127
132
144
163
182
188
188
192
192
194
196
196
192
188
184
184
184
184
186
188
188
186
184
184
184
182
182
182
184
184
184
182
178
176
174
176
178
180
178
176
174
172
172
170
165
192
192
204
209
207
209
211
214
214
214
211
209
204
194
170
149
134
129
127
127
132
142
156
180
190
192
192
194
196
199
199
196
190
186
182
182
184
188
190
188
186
186
186
184
184
184
184
186
184
184
182
180
178
178
178
180
178
178
178
176
176
172
170
170
194
194
204
209
207
209
211
214
214
213
210
206
204
199
178
156
139
129
125
127
132
139
154
174
190
197
196
197
199
202
201
197
194
188
182
184
186
192
194
192
188
188
188
186
186
186
184
184
184
184
180
180
180
182
184
182
180
180
180
180
180
176
174
174
196
194
206
210
207
209
211
214
213
210
207
206
204
201
188
165
147
134
127
125
129
139
149
165
186
196
197
199
201
204
202
201
197
190
186
186
190
194
194
194
190
190
188
190
190
190
186
184
184
184
182
180
182
184
184
182
182
180
180
182
182
182
180
178
197
196
206
210
207
209
211
213
210
207
206
206
204
201
194
176
156
142
129
127
129
139
147
159
178
194
199
201
201
202
202
201
199
192
188
190
192
192
194
192
190
190
190
190
192
190
188
186
186
184
184
182
182
184
186
184
182
180
180
182
184
184
184
180
199
199
207
209
207
209
211
210
207
206
206
204
202
199
196
186
165
147
137
132
132
139
144
154
170
188
197
202
202
202
201
201
199
194
192
190
192
192
192
192
190
190
192
192
192
192
190
186
184
184
186
184
184
186
186
186
182
180
180
182
184
184
184
184
201
201
207
209
207
210
211
209
207
206
204
204
201
197
196
190
176
156
142
134
134
139
142
149
161
180
196
202
204
202
202
202
199
194
194
192
190
192
192
194
192
192
194
192
192
192
192
188
184
184
188
186
186
188
188
186
184
180
180
184
184
184
186
184
202
202
209
210
209
210
210
209
207
204
202
201
197
196
196
194
184
165
151
142
137
137
139
144
154
170
190
202
206
204
202
202
201
196
192
192
190
194
196
197
196
194
194
192
194
196
192
190
186
186
190
188
186
186
186
188
188
182
182
184
184
186
188
186
202
202
209
211
210
210
209
207
206
204
201
199
196
194
194
194
192
176
159
147
139
137
137
139
149
163
182
197
204
204
202
201
201
197
192
192
194
196
196
197
197
196
196
194
196
197
196
192
190
188
188
188
186
188
188
188
188
184
182
182
182
186
188
190
201
202
210
211
210
209
206
204
202
201
199
196
194
194
196
197
196
186
170
154
144
142
139
144
149
156
172
190
202
204
202
201
201
199
196
196
196
196
196
197
199
197
199
197
197
197
197
196
192
192
192
190
188
188
188
186
186
182
182
182
186
188
190
190
202
204
209
209
207
206
202
201
199
197
196
194
194
196
197
201
199
194
182
163
151
144
144
144
147
151
163
180
196
202
201
201
201
201
199
197
199
197
197
197
199
197
199
199
197
197
197
197
196
194
194
194
190
190
190
188
188
186
184
182
186
188
190
188
197
202
206
207
206
202
199
197
197
197
196
194
194
196
197
201
201
199
192
174
159
147
144
144
147
147
156
170
190
201
202
202
199
199
199
201
201
201
199
199
201
199
199
199
197
197
196
197
197
194
194
196
194
190
190
192
190
188
186
184
186
188
188
188
186
197
202
204
202
199
196
194
194
196
196
196
194
194
197
199
202
202
201
188
170
154
147
144
142
144
149
161
180
196
202
204
202
202
202
202
201
201
201
202
202
201
199
197
197
197
197
199
197
194
192
192
194
192
192
194
192
192
190
186
184
186
188
188
172
186
197
199
199
196
194
192
192
194
196
196
194
192
196
199
201
204
204
199
180
163
151
144
142
142
147
156
170
188
201
206
206
204
204
204
202
202
202
202
202
202
199
197
199
197
199
199
197
194
192
192
196
196
196
196
194
192
188
186
184
188
190
190
159
174
192
197
196
194
194
194
194
192
192
194
196
196
196
197
199
202
206
206
196
176
159
149
142
139
147
154
163
176
194
202
206
206
206
202
202
204
204
204
204
202
199
199
199
199
201
201
197
196
196
196
197
197
196
196
194
190
190
188
188
190
190
190
147
161
182
196
196
196
197
197
196
194
192
194
194
197
196
197
199
202
206
209
204
190
170
154
144
142
149
154
159
168
182
197
204
206
206
206
206
206
206
206
207
204
201
201
201
199
201
201
197
199
201
201
201
199
196
194
188
186
186
188
188
188
186
186
139
149
174
194
197
199
201
201
199
197
197
197
197
199
199
201
201
202
207
209
209
201
184
165
151
149
151
154
159
161
172
188
199
204
204
206
207
207
209
209
209
207
204
202
202
201
201
201
197
201
202
201
199
196
192
186
182
182
182
182
180
176
174
172
139
142
163
190
199
199
201
202
201
199
201
201
201
199
199
201
202
204
207
209
209
209
197
178
163
154
154
156
156
159
163
174
190
201
204
207
210
210
210
210
210
209
206
204
202
202
201
199
197
197
196
196
192
188
182
178
178
176
174
172
165
165
163
161
147
139
161
188
199
201
201
202
201
199
201
202
202
202
202
202
202
204
207
209
210
210
206
194
174
163
161
161
159
156
159
165
178
194
202
209
211
211
211
210
209
209
207
204
202
199
196
192
188
186
184
182
180
176
174
170
168
163
159
154
151
149
147
144
151
144
159
188
199
201
202
202
202
201
202
202
204
204
204
206
206
207
209
210
211
211
210
204
188
172
165
163
159
156
156
161
168
180
196
204
209
209
209
207
207
206
202
199
196
192
186
180
174
168
165
163
161
161
159
156
151
147
142
139
137
132
129
127
156
151
161
186
201
202
202
204
204
206
206
207
206
206
206
206
207
209
211
213
214
214
214
210
202
186
172
163
159
156
159
161
165
170
180
192
201
204
204
202
201
197
192
186
180
176
168
161
154
149
144
144
144
144
144
142
137
134
134
129
127
125
122
117
161
154
163
186
201
206
206
204
207
210
209
209
209
206
206
207
210
213
214
215
215
215
215
213
209
197
178
168
161
159
159
159
163
163
165
172
182
186
188
188
186
180
174
168
163
159
151
144
137
132
129
129
132
132
129
129
127
127
127
122
120
117
115
112
165
156
163
186
201
204
202
206
210
211
210
210
210
207
209
211
214
215
217
217
215
215
215
213
209
201
188
170
161
156
151
149
147
147
147
147
149
154
159
161
161
159
154
151
147
144
137
132
127
122
122
125
125
122
120
120
120
120
117
115
115
112
110
107
172
159
165
184
201
204
202
209
211
210
210
210
211
209
210
214
217
218
218
217
215
215
214
211
207
199
186
168
156
147
137
129
120
112
107
107
107
112
120
132
137
139
139
139
137
134
129
127
122
120
117
115
115
112
112
112
110
110
112
110
107
107
107
105
174
161
165
184
199
202
207
211
213
210
210
211
211
211
211
217
218
218
217
215
213
211
209
204
196
186
172
156
139
127
115
105
98
89
82
78
78
82
91
100
112
120
125
127
127
125
125
122
120
115
115
110
107
107
110
110
105
105
105
105
107
107
103
103
176
161
165
184
199
206
211
214
214
213
211
211
213
213
213
213
213
211
209
206
201
196
188
180
172
163
151
139
125
110
98
86
80
76
70
66
68
74
78
82
89
95
103
107
112
112
112
112
110
110
107
105
103
103
105
103
103
98
95
100
100
103
103
98
176
163
165
184
199
206
211
214
213
211
210
209
207
206
202
199
194
186
180
176
170
163
159
151
147
142
134
127
112
100
89
80
76
70
64
60
66
68
70
74
76
80
84
86
91
93
93
93
93
95
95
95
95
95
98
98
95
93
95
95
95
93
95
93
174
161
163
180
196
206
209
207
204
201
196
190
184
180
176
170
163
156
147
144
139
137
134
132
129
129
125
115
107
95
84
78
74
68
62
58
60
64
66
68
72
72
74
76
78
78
80
80
82
82
82
84
84
89
89
91
91
89
84
82
82
84
86
89
165
159
161
172
184
192
192
188
180
174
165
159
151
147
144
139
137
132
127
122
120
117
117
117
115
115
112
110
103
95
84
78
72
68
64
62
62
60
64
66
70
72
74
74
74
72
72
70
68
68
70
72
74
78
80
82
80
76
72
72
74
72
74
78
144
139
139
147
161
163
161
156
149
139
134
132
129
127
125
122
120
115
112
107
105
105
105
105
105
105
103
100
98
91
82
76
74
70
68
64
60
58
64
66
66
70
70
70
70
68
64
62
64
64
64
66
68
72
74
76
74
68
66
66
70
70
72
72
115
105
105
115
122
127
127
125
122
117
117
117
117
115
112
110
107
103
100
98
98
98
95
95
98
95
93
91
91
86
82
80
76
74
72
70
64
62
66
66
64
62
66
66
66
62
60
58
58
58
60
60
62
64
64
66
62
60
62
60
60
62
66
68
84
76
78
86
98
103
103
100
100
98
98
98
98
98
98
98
95
91
89
89
89
89
86
86
86
89
89
91
91
86
84
82
80
78
74
74
72
66
66
66
66
64
66
66
64
64
64
58
60
57
55
55
57
57
57
57
58
58
58
58
58
57
58
60
68
60
62
72
80
84
86
86
86
89
89
89
89
89
91
93
91
86
82
84
86
86
84
82
84
89
89
89
91
89
89
89
86
82
78
78
74
70
70
70
68
66
66
70
68
70
66
60
62
62
57
55
55
57
55
57
57
58
58
57
57
57
57
55
60
55
58
68
76
78
82
84
84
86
89
89
89
89
93
95
91
84
82
86
91
91
89
89
89
89
89
89
93
93
93
93
91
89
84
84
78
74
76
76
74
72
72
72
70
70
66
64
64
64
60
57
55
55
57
58
62
62
60
58
58
60
60
58
55
52
58
68
78
78
80
84
84
84
86
89
93
93
93
93
86
86
86
89
91
91
93
93
93
91
91
91
93
95
98
98
95
93
91
86
80
82
80
80
80
80
76
74
72
70
70
70
66
64
60
60
58
57
58
60
64
64
64
62
64
64
62
62
57
52
58
72
78
82
82
84
86
86
86
89
93
93
91
89
86
89
89
86
89
93
93
93
93
93
91
91
91
89
93
95
93
93
93
86
82
84
82
82
84
84
80
78
76
74
74
74
70
62
60
64
58
57
60
62
64
64
68
68
66
64
62
64
58
55
60
76
84
86
84
84
84
86
86
89
91
93
89
86
89
91
89
89
91
91
93
95
93
93
91
89
82
84
91
93
93
93
93
89
82
84
84
84
89
89
84
82
82
78
76
74
72
66
64
64
64
58
58
62
64
68
70
68
66
62
62
62
60
57
64
80
86
89
89
89
86
84
86
89
89
86
84
84
89
93
93
91
91
91
91
91
91
93
89
84
82
86
95
95
93
91
91
91
86
84
84
86
93
93
89
86
82
80
80
78
76
70
70
70
68
64
62
64
64
68
68
66
64
64
66
64
62
57
66
82
89
91
93
93
93
89
89
89
84
82
82
86
86
91
93
95
93
93
91
89
89
89
86
84
84
89
93
93
89
86
86
91
89
84
86
89
93
98
93
91
89
84
82
82
78
76
74
72
68
70
68
68
66
64
66
68
66
64
66
66
66
60
68
84
89
91
95
95
98
93
91
84
78
78
78
86
89
91
93
95
95
95
91
91
89
89
86
84
86
91
91
91
89
86
84
86
89
86
86
91
93
95
98
95
91
89
86
84
82
80
76
72
70
74
76
74
70
66
68
70
66
64
68
72
68
66
72
86
93
93
95
98
95
91
89
80
76
74
76
84
91
93
93
93
95
93
89
89
89
91
91
89
89
91
91
86
89
89
86
89
91
89
89
93
95
98
100
98
95
93
91
86
82
82
78
76
78
78
80
78
74
70
70
70
70
72
74
78
