P2
# 189 of 608 Angiograms
64 64
255
156
132
117
107
100
95
95
95
95
93
93
93
95
105
125
151
182
196
197
197
194
192
190
190
194
196
197
196
194
194
192
192
192
190
188
188
188
180
156
132
122
117
127
142
159
168
172
172
174
176
176
176
174
170
168
168
165
161
154
151
151
151
149
149
170
147
129
115
105
100
98
98
93
91
86
89
93
103
117
142
174
194
197
196
194
192
190
190
194
197
197
196
194
192
192
190
190
190
188
190
192
188
176
149
129
122
125
132
147
161
168
170
174
178
178
176
174
170
165
165
163
161
154
151
151
147
142
144
180
161
142
125
115
105
100
95
91
86
84
86
91
100
112
134
163
188
196
196
194
192
192
192
190
196
196
194
192
190
190
190
190
190
188
190
194
192
186
165
142
129
125
129
137
151
165
172
178
180
180
176
172
168
163
161
161
156
154
154
151
147
142
142
182
172
154
134
122
110
103
98
91
86
86
89
91
95
110
127
154
182
196
196
196
194
192
190
190
192
192
192
190
190
188
192
192
188
190
192
194
194
190
180
159
139
129
127
129
142
159
172
180
182
178
174
170
165
161
159
159
156
151
151
151
149
144
142
184
180
163
144
129
117
105
98
91
89
89
91
93
95
105
122
144
176
194
197
197
197
194
190
188
190
190
188
190
190
190
192
190
188
190
192
192
194
194
186
172
151
134
129
127
134
147
163
174
178
174
170
168
163
159
156
161
156
154
151
149
149
149
147
184
186
176
156
139
125
110
98
91
89
89
91
93
93
103
117
139
170
192
197
199
199
196
192
188
190
190
190
192
192
192
192
188
190
188
188
190
194
194
190
180
163
144
129
122
122
129
147
161
165
168
168
163
161
159
156
161
156
154
151
151
149
149
149
184
190
186
168
147
129
115
103
95
91
91
91
93
95
100
115
134
165
190
199
201
199
197
194
190
188
190
192
194
194
192
190
190
190
188
188
190
192
192
192
184
174
154
134
122
112
110
120
132
147
156
161
159
156
156
159
156
154
151
149
149
149
147
144
184
192
192
180
159
139
120
105
100
95
93
95
95
98
100
112
132
161
188
197
199
199
197
196
194
192
192
192
194
194
194
192
190
190
188
188
190
192
194
192
188
180
168
147
125
112
100
98
107
120
134
147
154
154
156
154
151
149
147
144
144
144
142
139
184
190
192
188
172
149
129
112
105
98
93
93
95
100
103
112
132
159
184
196
197
197
197
197
194
194
194
194
194
196
194
192
192
188
186
186
190
192
194
194
192
184
176
159
137
120
105
95
89
98
110
122
137
147
147
147
144
142
139
144
144
144
144
144
184
186
192
192
184
163
142
125
110
103
98
98
100
103
105
112
129
154
180
194
197
199
199
197
196
194
194
194
194
196
192
190
190
186
184
186
190
192
194
194
192
186
178
170
151
132
115
98
80
78
91
100
112
122
134
139
144
142
142
147
149
151
154
151
182
184
190
192
188
178
159
137
122
110
103
100
100
105
105
112
127
149
176
192
197
199
199
196
194
192
192
192
194
194
192
190
190
188
186
188
190
192
192
192
190
184
178
172
165
149
129
110
91
78
82
89
95
103
115
132
139
144
147
151
151
156
156
154
182
184
188
194
192
186
176
159
137
120
112
107
107
105
107
112
122
144
172
190
194
196
196
194
190
190
188
190
194
194
192
190
190
188
188
188
190
192
190
188
186
180
178
172
168
161
147
125
105
89
84
86
89
93
103
115
132
144
151
151
151
159
156
154
182
184
186
192
192
190
186
176
156
134
122
115
110
110
110
112
120
139
168
186
192
194
194
192
190
190
188
190
194
192
190
190
192
190
190
188
190
190
186
184
180
178
176
172
168
165
159
147
125
105
91
86
89
95
100
105
115
134
149
154
154
156
156
156
182
184
182
190
194
192
188
184
174
156
137
125
120
115
112
115
120
137
163
184
192
194
194
196
194
192
190
190
192
192
190
192
194
192
190
190
190
186
184
182
180
176
174
170
168
168
161
156
147
127
110
100
100
100
103
103
105
115
134
151
156
156
156
156
180
184
180
188
192
190
188
188
182
170
151
134
127
122
120
117
117
132
156
180
192
196
196
197
196
194
192
190
190
190
190
190
192
192
192
190
186
182
178
178
176
172
168
163
165
165
163
161
156
149
139
125
112
107
105
103
100
105
115
137
151
154
154
154
180
184
182
186
190
188
188
186
184
180
163
147
132
125
122
117
117
127
147
176
190
196
197
197
196
194
192
190
188
188
188
188
190
190
188
186
182
178
174
174
172
168
161
161
163
165
168
165
163
159
154
147
132
115
107
105
98
98
105
117
139
151
154
156
178
184
182
184
186
188
186
184
184
184
174
156
139
129
122
115
115
122
139
168
188
194
196
197
196
194
194
192
188
188
188
188
188
188
184
180
176
172
172
170
170
165
165
168
170
168
168
168
165
163
159
154
147
134
117
107
100
98
100
107
125
142
151
154
174
182
182
182
184
186
184
184
186
188
182
163
147
132
125
115
112
120
134
159
182
194
196
196
196
194
194
192
188
186
188
188
188
184
180
176
174
170
168
168
168
168
170
172
172
170
170
170
170
168
165
161
156
151
134
117
107
103
103
105
115
129
144
151
174
182
182
178
182
184
186
188
190
192
188
172
151
137
125
117
117
120
132
149
174
192
196
197
196
194
192
192
188
186
188
186
184
180
176
174
172
168
165
163
165
168
168
170
172
172
174
174
172
172
172
168
161
156
149
137
120
112
110
107
110
122
134
149
172
182
184
182
182
186
188
192
194
194
194
180
159
142
129
122
120
122
129
142
165
186
196
196
196
196
194
190
188
188
186
184
182
176
174
174
172
168
165
163
163
168
168
170
172
170
176
174
172
172
174
172
165
161
159
151
137
122
115
112
110
115
125
142
174
182
184
182
184
188
190
192
194
196
196
188
170
149
137
129
125
125
127
137
159
182
194
196
196
196
194
190
188
190
186
182
180
174
172
172
170
168
165
165
165
165
168
170
172
172
176
174
174
174
176
174
170
163
159
156
149
137
125
115
110
110
117
132
174
182
186
184
186
188
192
194
194
196
197
194
178
159
144
134
132
129
127
134
154
176
194
197
199
199
196
190
190
188
186
182
178
172
170
170
168
168
168
168
165
163
165
168
172
174
176
176
176
178
176
176
172
168
163
161
156
149
134
120
110
105
110
122
174
182
188
186
186
188
192
194
196
196
197
196
186
170
154
142
132
129
129
137
151
172
194
201
201
201
197
192
190
184
184
184
178
174
172
172
170
170
170
172
168
163
163
170
172
176
178
176
176
180
178
176
174
172
168
168
163
156
144
127
115
107
107
115
176
180
188
188
188
188
190
192
194
194
196
197
194
180
163
151
137
129
134
139
149
165
186
201
202
201
199
194
190
184
184
184
180
176
176
176
172
170
172
172
168
163
165
170
174
176
178
178
174
178
180
178
174
172
172
170
168
161
151
137
122
112
107
110
178
180
188
190
188
188
188
192
192
194
196
199
197
188
172
159
142
134
137
139
147
159
176
194
199
201
197
194
190
186
186
184
180
178
176
174
172
170
170
172
168
163
168
172
176
176
180
180
178
176
178
180
176
174
172
170
168
165
156
147
129
117
110
107
176
180
190
190
188
186
190
194
194
194
197
197
197
196
182
165
149
137
137
137
144
151
165
184
194
199
196
194
190
186
186
182
180
178
176
172
172
172
174
172
170
165
168
174
176
178
180
182
180
178
180
180
176
176
172
170
168
168
163
154
142
125
115
110
176
180
190
190
188
188
190
194
196
194
194
194
196
197
190
174
154
142
137
137
142
147
159
174
188
194
194
194
190
186
184
182
180
178
176
174
172
172
174
174
172
168
170
174
178
180
180
182
180
178
178
176
176
174
172
170
168
168
165
161
151
137
125
115
176
180
188
188
188
190
192
192
192
192
190
192
194
199
196
180
161
147
139
139
139
142
149
163
182
192
192
192
188
186
182
180
180
178
176
174
172
174
176
180
178
174
174
176
178
180
180
180
176
176
176
176
174
174
174
170
168
165
168
165
161
149
134
122
176
180
190
192
190
190
192
194
192
190
188
190
194
199
197
188
168
149
142
137
134
137
142
154
172
184
188
188
186
182
180
178
180
180
176
174
174
178
182
184
182
180
180
178
176
178
178
176
176
174
172
170
170
170
172
170
168
165
165
165
163
159
149
134
178
180
192
196
194
192
192
194
192
188
188
190
194
199
197
192
178
156
142
132
129
129
134
144
159
178
184
186
184
180
176
178
180
180
178
178
178
182
186
186
186
184
182
180
178
178
178
176
174
172
170
170
168
170
172
172
170
168
165
165
163
163
156
149
180
182
196
199
197
196
194
194
192
190
190
192
194
197
196
196
186
165
147
132
125
127
127
132
144
165
180
180
180
178
178
180
182
182
180
180
180
182
186
188
186
184
182
178
178
178
176
176
174
174
172
170
168
170
170
170
172
170
168
168
163
165
161
156
180
182
196
201
202
201
199
196
196
194
194
192
192
194
196
197
194
176
151
134
125
120
117
125
134
151
174
180
180
180
180
182
184
184
180
182
182
182
184
186
186
184
182
178
178
178
176
178
176
176
172
170
170
170
168
172
174
174
172
172
168
168
163
161
180
182
194
201
202
204
202
201
199
199
196
194
192
192
197
199
197
182
159
137
125
117
115
117
127
142
163
178
180
182
182
182
182
182
182
184
186
186
184
184
186
186
184
180
182
180
180
180
178
178
174
170
172
172
172
172
174
174
174
174
172
168
161
159
180
182
194
202
204
204
206
204
204
202
201
197
196
196
199
202
199
192
170
144
129
120
112
115
122
134
154
172
180
182
184
184
182
182
184
184
184
184
186
184
186
186
186
184
186
186
182
184
182
180
176
174
172
174
174
172
172
172
174
174
172
165
156
151
182
182
192
204
206
207
207
209
209
209
206
202
199
199
201
202
199
197
180
156
137
122
117
117
122
127
142
163
178
182
186
186
184
182
180
182
182
186
186
186
184
184
186
186
188
188
186
186
184
182
180
178
176
174
174
172
170
172
172
172
172
165
156
147
184
184
192
204
209
209
210
210
211
211
210
207
204
202
202
201
199
199
192
168
144
129
120
117
117
125
132
149
172
182
188
188
186
184
182
182
184
186
188
186
186
186
188
188
188
188
186
188
186
184
182
180
178
178
174
174
170
170
172
172
172
170
163
156
186
184
194
206
210
210
211
211
213
214
213
210
207
206
202
199
201
199
196
180
156
137
127
120
117
120
129
139
161
178
186
190
188
186
186
184
184
184
184
186
188
190
190
188
188
186
186
188
186
182
184
182
182
180
176
174
172
170
172
174
174
172
172
168
192
186
194
206
209
210
211
213
215
215
214
211
209
206
201
199
201
199
196
188
170
147
134
125
120
122
125
134
151
172
184
190
190
188
190
186
182
184
186
188
192
192
192
190
190
190
190
188
186
182
184
182
180
180
178
176
174
172
174
176
176
174
174
172
196
190
194
204
207
210
213
214
215
214
213
211
209
204
201
199
199
199
197
194
180
161
142
132
122
125
127
134
144
163
180
190
192
190
190
188
184
184
186
190
194
194
194
192
192
194
192
192
190
186
186
184
180
180
176
174
174
176
176
176
176
174
174
174
199
194
194
206
209
211
214
215
214
213
213
211
207
202
201
199
199
199
199
197
190
174
154
139
132
127
132
137
142
156
172
186
192
190
190
190
190
186
186
192
196
196
194
192
192
192
192
192
190
190
188
184
182
180
176
176
178
180
180
178
176
176
172
170
202
196
196
206
211
213
214
214
213
213
211
209
204
202
201
197
196
199
201
199
196
184
165
149
139
134
137
137
139
149
163
178
188
190
190
190
192
190
188
194
196
194
194
194
192
192
192
190
190
190
190
184
182
178
178
178
180
180
180
180
176
172
170
170
206
201
199
207
213
214
214
214
213
211
210
206
204
202
199
196
196
201
201
199
197
192
178
159
149
142
139
137
139
147
156
168
180
190
192
192
192
190
190
192
194
194
194
192
190
190
192
192
190
192
188
184
180
180
180
182
180
182
180
176
172
170
168
170
207
202
202
209
215
217
214
213
211
210
207
204
202
201
197
196
196
197
199
197
196
196
188
172
159
151
147
142
139
147
154
159
168
182
188
190
188
188
192
194
194
196
194
192
194
194
192
190
190
194
188
182
182
182
182
180
180
180
176
174
174
174
174
174
209
206
204
210
215
215
213
211
210
210
206
202
201
197
197
194
194
196
196
196
196
196
194
182
170
163
156
151
147
149
151
151
156
168
180
186
186
188
190
194
194
196
194
194
196
194
192
192
192
194
188
182
184
182
180
178
180
182
182
180
180
180
178
180
210
207
204
210
213
214
213
211
210
209
204
201
199
197
197
194
194
196
196
194
196
197
197
190
180
172
168
163
156
151
151
149
147
151
165
178
184
186
188
192
194
196
196
194
194
192
192
192
192
194
190
184
182
182
182
182
184
186
186
186
184
182
182
182
213
210
206
209
213
213
210
210
209
206
202
199
197
199
197
196
194
196
196
196
199
201
201
197
190
184
176
172
165
159
156
149
142
137
147
165
176
182
186
188
192
194
196
194
194
194
192
192
192
192
190
188
186
186
186
186
186
186
186
186
186
182
180
178
214
211
207
209
211
210
209
207
204
202
201
199
199
201
199
196
196
196
199
201
201
202
202
201
196
192
184
178
174
165
159
151
139
129
132
147
165
174
180
184
188
192
194
194
196
196
194
192
192
190
188
188
190
190
190
190
190
188
188
190
184
182
182
180
215
210
206
207
207
207
206
204
201
201
201
201
201
201
199
197
197
199
201
202
202
202
202
201
201
196
192
184
178
172
163
154
144
137
134
137
154
165
172
178
182
186
192
194
196
196
192
192
190
190
190
190
190
192
194
194
192
190
190
190
186
184
184
186
213
209
204
204
204
206
204
201
199
201
201
201
201
201
199
197
199
201
202
202
202
202
202
204
204
201
197
190
182
178
170
159
151
147
142
142
149
163
168
172
174
180
188
194
196
196
192
192
188
190
192
194
192
194
196
196
196
194
192
190
188
188
188
190
210
204
199
199
202
202
202
199
199
201
201
201
202
201
201
201
199
199
201
202
202
202
202
206
206
204
201
194
188
182
176
168
159
154
151
149
151
161
165
168
168
172
178
184
190
192
192
192
192
194
196
196
194
194
196
197
196
197
196
192
190
190
192
192
206
201
197
196
197
201
201
199
201
202
201
201
202
201
201
199
197
197
199
199
201
202
202
206
207
206
202
199
192
186
180
174
168
161
156
156
156
161
163
168
170
170
172
174
178
182
186
190
192
196
197
197
194
192
196
201
199
197
197
196
192
194
194
194
202
199
192
190
194
197
199
199
201
201
201
201
201
202
201
197
196
197
197
197
199
201
202
206
207
207
204
201
197
192
186
180
176
170
163
161
159
161
165
168
172
174
172
170
170
174
178
182
188
192
196
196
194
194
196
199
201
199
199
197
196
196
196
194
201
196
186
186
190
196
197
199
201
201
199
199
201
202
201
197
197
197
199
199
199
201
204
207
207
207
204
202
201
197
192
186
182
176
172
168
163
165
168
172
176
176
174
170
168
170
174
176
180
184
186
190
192
192
194
196
197
199
199
197
196
194
194
192
199
190
184
182
188
196
197
199
199
199
199
201
202
202
201
199
197
197
199
201
201
201
206
207
207
207
207
206
204
202
199
194
190
184
180
176
172
172
174
176
178
178
176
172
168
168
170
172
174
176
180
182
184
184
184
184
184
186
186
184
184
182
180
176
196
188
180
178
186
196
197
197
197
199
201
202
202
201
201
199
199
199
201
202
202
204
206
209
209
209
207
207
207
207
206
202
196
192
188
182
180
178
178
182
184
182
180
174
170
165
168
170
170
172
172
172
172
172
172
170
168
165
163
163
161
156
154
147
192
184
178
176
184
196
199
199
197
197
201
201
199
201
199
201
202
202
204
204
206
206
209
211
211
209
209
209
210
210
209
206
202
197
196
192
186
184
184
186
186
184
180
176
172
168
168
165
163
161
159
156
156
156
154
151
147
144
139
137
134
134
129
122
190
184
180
178
186
197
201
202
199
199
201
201
201
201
199
201
202
204
206
206
207
209
211
211
213
211
210
210
210
211
211
209
206
201
199
197
190
188
186
186
186
182
180
176
172
165
161
154
147
137
134
132
132
132
129
127
125
120
117
115
115
112
110
107
190
186
182
182
188
199
204
204
202
202
202
202
202
202
202
202
204
204
206
207
209
210
211
213
213
213
211
210
210
211
211
209
207
202
202
199
192
188
186
184
182
178
174
165
159
151
144
134
125
117
112
110
110
110
110
107
105
105
103
103
100
98
93
89
194
190
186
186
192
201
204
204
204
204
204
204
204
204
206
206
206
206
209
210
211
213
213
213
214
214
213
210
211
211
210
209
206
204
202
196
192
186
180
176
170
163
156
149
144
137
129
122
115
107
103
100
98
98
95
93
95
95
95
93
91
86
82
80
197
196
190
190
194
202
206
206
206
206
206
207
206
206
207
209
207
209
211
213
213
213
214
213
214
213
211
210
210
209
206
204
201
197
194
186
178
172
165
159
151
144
139
137
134
129
122
115
107
100
98
98
95
93
93
91
89
89
86
86
84
80
74
74
201
199
194
190
196
204
204
206
207
207
209
209
207
207
209
210
210
211
214
214
213
214
214
213
213
210
209
206
202
197
192
186
182
178
172
163
156
149
144
139
134
129
127
125
125
122
115
107
103
100
95
93
91
91
89
84
80
80
82
80
80
78
76
76
204
201
196
192
199
204
207
209
210
211
211
211
210
209
210
211
211
211
213
213
211
210
209
206
201
196
190
182
176
168
163
159
154
149
144
137
132
127
125
125
122
120
117
115
117
115
107
103
100
98
93
89
89
86
82
80
76
78
78
76
76
78
80
76
204
201
197
196
201
207
210
210
211
213
213
213
210
210
209
209
207
206
204
201
196
190
182
176
170
161
151
144
139
137
134
132
127
122
120
117
115
115
115
115
115
110
110
112
115
112
105
100
98
95
91
86
84
82
78
72
68
72
76
76
74
74
78
78
204
199
196
197
201
206
207
209
209
210
209
207
204
201
196
192
186
178
172
168
161
154
147
142
137
132
127
122
122
120
117
117
112
107
107
107
105
105
107
107
107
107
107
107
110
107
103
100
98
93
89
84
82
80
76
72
70
70
74
74
72
72
74
74
