P2
# 190 of 608 Angiograms
64 64
255
151
147
144
144
142
139
129
120
112
105
100
100
105
107
107
112
112
110
117
117
122
125
122
122
127
132
134
134
134
137
142
147
151
151
151
149
147
151
149
142
139
142
147
147
144
142
142
144
144
147
149
144
142
147
144
142
142
139
142
144
142
144
147
144
149
147
144
142
134
125
120
112
103
98
95
103
112
115
117
120
120
120
122
125
129
127
122
122
120
122
127
132
134
139
144
149
151
151
149
147
147
151
149
142
139
142
144
144
142
139
144
144
144
149
151
147
144
144
144
147
142
142
142
144
144
144
149
147
142
139
134
127
122
117
112
110
107
103
107
115
125
129
134
134
134
134
134
134
134
132
127
120
115
115
117
127
134
142
147
149
151
151
149
144
149
149
147
144
142
142
144
142
137
137
142
147
144
147
149
149
147
147
147
147
144
142
142
144
144
144
149
147
125
122
120
117
115
112
112
112
115
117
125
132
139
144
147
142
137
139
142
147
147
144
137
129
120
115
112
117
129
139
147
149
151
149
147
144
144
147
149
147
144
144
144
142
137
137
147
151
147
147
147
147
149
147
149
149
147
144
142
144
144
147
149
147
110
110
110
110
110
110
115
122
129
134
139
144
147
151
151
142
137
139
147
151
154
154
149
142
129
117
112
110
120
137
144
149
149
147
142
142
144
142
144
144
147
149
147
139
139
142
149
151
149
147
149
149
144
147
149
154
149
149
147
147
147
149
151
147
110
107
107
110
115
122
132
142
144
147
147
149
151
151
149
144
142
147
151
154
159
156
154
151
144
129
117
107
112
127
139
144
147
144
139
139
142
142
142
144
147
149
144
139
139
142
144
149
151
149
149
147
149
149
151
156
156
154
151
154
151
149
151
149
107
107
115
122
132
144
149
151
154
156
154
154
151
149
149
154
154
154
151
156
159
159
156
156
154
144
125
112
112
120
134
142
147
142
134
134
137
139
142
142
144
144
142
137
139
139
144
147
149
151
149
151
154
151
151
156
159
154
154
156
156
151
151
154
115
122
134
144
151
154
156
154
154
156
156
154
149
149
154
156
156
154
156
159
161
161
159
156
156
151
137
120
112
117
127
134
139
139
137
137
134
132
132
134
137
139
139
139
137
137
137
142
147
149
151
156
154
149
154
159
159
156
159
159
156
154
154
156
137
147
154
156
156
159
156
156
156
159
154
149
147
149
151
151
151
154
159
159
159
161
156
159
159
154
144
127
115
117
125
127
132
134
134
132
125
117
120
122
127
132
134
134
132
127
125
132
139
147
151
154
149
151
154
159
161
161
161
161
159
159
156
156
156
159
163
163
161
159
159
161
161
156
151
147
144
147
151
154
154
159
159
159
159
161
159
161
159
154
147
129
122
122
129
132
132
132
129
127
122
120
120
122
120
120
125
127
127
120
122
127
132
142
149
151
149
156
154
156
159
161
161
159
159
159
156
151
163
163
163
165
165
161
161
161
159
154
154
147
147
144
151
156
156
159
161
159
159
163
161
161
159
154
147
134
127
132
137
137
134
134
132
132
132
132
129
125
122
120
122
127
125
127
132
134
134
142
149
151
156
161
159
156
159
161
161
161
159
159
156
151
165
163
163
163
163
161
161
161
159
156
154
147
144
147
156
161
159
159
161
161
161
163
163
161
156
154
149
134
132
137
144
144
144
144
142
142
144
144
139
134
127
127
129
134
137
137
137
137
139
142
149
154
159
163
161
159
159
161
163
163
163
161
159
156
168
168
165
163
161
161
161
163
161
159
156
149
144
151
159
161
159
159
161
161
159
161
161
159
154
154
147
134
132
142
147
149
149
149
149
149
151
151
149
142
134
132
134
137
144
144
142
137
134
142
149
156
161
163
163
161
159
161
163
161
159
159
161
159
172
172
168
165
161
161
161
161
163
159
154
151
149
156
159
161
161
161
159
156
156
156
159
156
151
154
147
134
137
147
151
151
151
149
151
154
154
154
154
151
144
137
134
139
149
149
147
142
134
139
149
159
161
161
165
163
161
163
161
163
159
159
161
161
176
174
170
168
163
163
161
161
161
156
151
151
156
156
161
163
163
161
159
151
151
156
156
159
154
154
147
134
142
151
156
159
156
156
156
156
156
156
156
156
154
147
139
142
149
154
154
151
147
147
151
159
161
161
163
163
165
165
163
163
159
161
163
163
174
172
170
168
168
165
161
161
156
154
151
154
156
156
161
163
161
161
159
151
154
156
156
156
156
154
149
139
147
156
161
161
163
159
159
159
156
161
161
161
161
154
147
144
144
151
154
154
154
151
154
156
159
161
165
165
168
168
170
168
163
163
165
165
176
172
170
168
170
168
163
161
156
156
154
151
156
159
161
161
161
159
159
151
154
156
156
156
156
151
149
144
151
161
165
165
163
161
159
161
163
168
165
165
161
159
154
147
144
147
151
154
154
156
156
154
156
161
165
165
170
170
170
170
168
165
165
165
176
174
172
170
170
168
161
156
156
159
154
149
154
159
159
159
161
163
161
156
154
156
159
161
159
151
147
149
156
163
170
172
168
163
161
163
165
168
168
165
163
163
161
154
147
149
149
156
159
161
161
156
156
163
165
163
168
172
172
172
170
168
165
165
176
176
176
172
172
170
163
156
156
159
156
151
154
159
161
161
163
165
163
161
159
159
159
163
163
156
149
149
159
168
172
172
168
165
163
163
165
168
168
165
168
165
163
163
156
149
147
154
159
161
161
159
161
163
168
168
168
170
172
174
174
170
168
165
178
180
180
178
176
172
170
163
161
161
159
156
154
156
161
163
168
170
168
163
161
159
161
168
168
161
151
149
156
165
172
170
168
168
165
168
168
165
165
170
170
170
168
168
165
156
151
151
154
154
159
159
161
163
168
170
168
170
174
176
174
170
170
170
182
180
182
180
180
178
176
170
165
163
163
161
151
154
161
165
170
172
170
168
163
163
165
170
168
163
154
151
154
161
168
170
168
168
168
165
165
165
168
170
172
172
172
170
165
161
156
151
151
149
151
156
161
163
170
170
170
170
170
172
172
172
172
172
182
180
180
180
182
180
178
174
170
165
165
161
156
156
163
165
170
172
170
168
165
165
170
170
168
163
156
154
151
156
161
165
165
168
165
165
165
168
170
170
168
170
168
165
161
159
156
154
151
149
149
151
156
159
163
163
163
161
161
161
163
163
165
165
182
180
182
180
182
184
180
176
172
168
165
163
163
163
163
163
165
165
165
163
161
163
163
163
161
156
151
147
147
149
151
154
156
156
156
156
156
154
156
156
156
156
156
156
151
149
147
144
142
139
139
139
142
144
144
144
144
144
142
142
142
142
144
147
184
182
182
184
184
184
180
176
170
168
168
165
168
165
161
159
161
159
159
156
154
151
151
149
149
147
142
134
132
134
137
139
142
144
142
142
139
139
142
142
144
144
142
139
139
137
134
132
132
129
127
129
129
127
127
125
125
127
127
127
125
125
125
129
184
182
184
182
182
180
176
172
168
165
163
161
159
156
154
151
149
144
142
139
137
134
132
134
137
134
127
122
117
120
125
127
127
129
129
129
129
132
132
134
134
134
132
129
129
129
129
127
125
125
125
125
122
117
115
112
110
115
115
115
115
115
115
120
180
178
178
176
174
170
165
163
159
156
154
151
149
147
142
139
134
127
125
122
120
120
120
120
122
122
117
112
107
110
110
115
117
120
120
120
120
120
120
120
120
120
120
120
122
122
122
120
117
117
117
115
115
112
112
107
107
105
105
105
105
107
110
115
170
170
168
165
161
156
154
151
149
144
139
139
137
137
134
129
125
117
115
115
112
110
110
112
115
115
112
110
105
100
100
105
110
112
115
115
117
117
115
112
115
112
110
115
117
117
117
115
115
115
115
115
115
110
110
110
105
103
100
98
95
98
103
107
161
159
159
151
149
147
144
142
137
132
129
129
129
127
127
122
115
112
112
110
105
103
103
105
107
110
107
105
98
95
93
95
105
107
110
112
112
112
115
115
115
107
105
110
115
112
110
112
117
120
115
112
115
112
107
105
103
103
103
100
95
91
93
100
151
149
144
142
139
137
132
129
127
127
127
125
122
120
120
117
112
112
107
103
100
95
98
100
103
103
103
100
95
93
91
91
95
103
107
107
105
105
105
107
107
105
105
110
110
110
105
105
112
115
112
110
115
115
107
105
100
100
103
98
93
93
89
93
137
132
129
125
120
117
115
110
110
110
112
112
112
110
110
107
107
105
103
100
100
100
100
98
98
98
100
100
98
95
91
91
93
95
103
103
103
103
100
100
103
103
100
105
105
103
100
105
107
110
112
112
117
115
107
105
103
98
98
95
91
89
89
93
117
112
105
98
93
89
86
84
86
89
91
93
93
93
93
93
95
98
98
95
98
100
100
95
98
98
98
98
98
98
95
91
93
93
95
98
100
103
100
100
105
95
93
100
103
103
105
107
107
110
110
110
110
110
105
103
100
95
98
95
91
86
89
93
93
89
84
80
78
76
76
76
74
76
76
76
78
76
76
78
78
78
80
82
86
91
93
95
100
100
95
95
95
98
95
91
93
93
93
93
95
95
95
95
95
93
93
95
103
105
107
105
105
103
105
105
103
98
103
100
100
98
98
95
91
89
89
91
80
76
70
70
70
70
72
70
68
64
66
66
66
66
66
68
66
66
66
68
74
78
84
86
89
91
91
91
93
93
93
91
91
93
91
89
89
89
86
89
89
91
91
95
100
103
103
105
103
98
100
103
103
100
103
100
100
103
100
98
98
95
93
95
72
74
72
70
70
68
70
66
64
64
62
60
58
58
58
58
57
57
57
58
60
66
72
76
78
78
80
82
86
86
89
89
91
89
89
86
84
84
80
80
82
84
86
91
95
95
100
103
98
95
100
103
100
100
100
103
105
103
100
100
100
95
93
95
72
74
72
72
70
68
68
60
60
60
58
55
57
57
55
52
52
52
55
53
57
60
66
72
76
76
72
74
76
82
84
86
86
86
84
82
82
80
78
74
76
76
82
86
89
93
93
100
100
98
100
103
103
103
103
105
105
105
103
103
103
95
93
93
72
74
72
68
68
66
62
58
60
58
55
55
57
55
53
48
50
53
53
53
57
58
64
66
72
72
72
70
70
74
76
76
78
80
78
78
78
78
80
76
76
78
80
82
84
89
93
95
95
95
98
103
105
105
103
105
105
103
103
103
98
95
93
93
70
72
70
68
64
62
60
58
57
53
55
57
55
55
55
53
52
53
53
53
57
60
66
66
68
72
72
70
66
68
72
72
70
74
74
74
76
78
80
78
80
82
84
80
80
84
91
91
91
91
93
98
103
107
105
103
103
100
103
98
95
95
93
95
68
68
68
66
60
58
58
58
58
55
55
57
53
52
55
55
52
50
55
53
53
58
60
64
66
70
72
70
68
70
70
70
68
68
68
72
78
82
80
80
82
86
86
82
78
80
89
91
89
91
93
93
100
103
103
98
95
98
100
98
93
93
93
93
66
68
70
64
60
60
60
58
57
57
55
55
53
52
52
53
50
48
53
55
53
55
58
62
66
66
68
68
68
68
68
68
64
62
64
68
74
78
80
82
82
82
84
82
80
78
84
91
93
91
91
93
95
103
100
95
93
98
100
98
93
89
91
91
64
66
66
62
62
58
60
57
55
55
53
53
52
50
50
53
50
48
53
55
53
52
55
60
64
64
66
66
64
66
64
66
66
62
62
66
70
72
76
78
78
80
80
82
82
80
82
86
91
89
91
93
93
98
95
93
91
100
100
95
91
91
91
91
64
68
64
62
60
58
58
60
58
55
55
53
52
50
48
50
52
53
57
57
55
52
53
57
60
60
64
66
64
62
64
68
66
64
66
66
66
70
72
74
76
78
78
80
80
80
82
84
89
93
93
91
89
93
93
93
91
95
98
91
91
93
89
86
68
68
64
64
60
58
58
60
57
55
57
55
52
55
53
52
52
53
55
53
53
52
53
55
60
64
66
66
66
66
66
66
64
66
68
64
66
70
70
72
72
76
78
78
78
78
78
80
84
89
89
86
91
93
93
93
95
95
95
93
91
95
91
84
66
64
62
64
60
58
57
58
58
57
57
57
53
55
57
57
53
55
53
55
55
53
53
58
64
64
68
70
70
70
68
66
66
70
72
68
68
70
70
74
74
72
74
78
80
78
74
80
82
82
84
89
91
91
93
91
93
95
93
93
93
95
93
91
68
66
62
64
62
58
57
58
58
58
60
60
57
58
60
60
60
60
60
60
58
57
60
62
64
64
66
68
70
72
72
72
70
72
72
72
74
72
72
74
76
76
72
72
74
76
76
80
80
82
91
91
91
91
91
89
89
93
93
93
93
91
91
91
72
74
74
70
66
66
64
64
62
62
64
64
64
64
64
66
72
72
68
62
60
60
64
64
60
62
66
70
72
70
70
72
72
72
70
70
74
72
70
72
74
72
72
72
74
74
74
78
78
82
89
91
91
91
89
86
89
89
93
91
86
82
84
91
78
78
78
78
74
72
70
70
70
72
72
72
70
68
68
70
72
72
74
66
62
64
64
62
57
58
58
60
64
66
68
72
72
72
70
68
70
70
70
70
72
70
70
72
74
74
70
72
76
80
86
86
86
89
91
89
91
91
89
86
84
82
82
89
82
78
76
80
80
78
76
74
78
80
78
76
72
70
74
72
68
68
70
68
64
64
64
62
58
58
57
57
60
62
64
66
70
70
68
66
68
70
74
72
68
68
70
70
72
72
68
66
72
76
76
74
78
82
84
82
80
84
84
86
84
82
82
86
80
80
80
80
80
76
78
78
78
78
76
74
74
74
76
74
74
72
72
70
66
66
66
64
60
60
62
58
57
57
58
62
62
66
70
68
66
72
76
72
70
72
70
70
72
70
70
68
70
74
70
68
72
78
78
78
76
80
82
84
80
80
84
89
84
82
82
80
78
76
82
82
78
76
76
76
78
78
76
74
74
74
72
74
72
70
68
66
64
60
64
64
58
57
57
58
62
68
68
64
64
68
68
66
72
72
70
72
74
74
74
70
72
72
72
74
76
76
76
76
74
78
82
82
80
84
86
91
84
82
82
82
78
74
80
86
82
80
78
78
78
78
74
76
74
78
78
74
72
70
68
70
68
64
64
64
64
62
64
62
64
68
66
62
66
68
64
60
68
72
68
68
72
74
74
72
72
72
74
78
74
76
78
76
76
80
82
80
80
84
86
91
84
82
82
82
78
76
82
86
84
80
76
76
78
78
74
74
76
80
80
76
72
72
72
74
72
70
70
66
66
62
66
66
66
68
66
62
64
64
64
66
70
68
64
66
68
68
68
70
72
70
72
74
76
76
80
78
80
84
84
78
82
80
84
89
86
82
80
84
82
80
80
84
82
76
74
76
76
74
72
72
76
78
74
74
74
74
74
76
76
74
76
70
68
66
68
68
68
72
68
66
64
64
64
66
70
68
68
66
64
62
62
64
66
66
68
70
74
78
80
78
78
80
84
82
84
82
80
82
84
82
78
82
84
80
80
80
78
74
74
76
74
76
76
78
78
76
76
74
74
76
74
76
78
80
78
74
74
72
74
72
72
76
74
70
66
68
66
68
72
70
68
64
64
64
62
64
64
66
66
68
70
70
68
72
74
76
78
82
82
80
78
78
84
84
80
84
86
80
82
82
76
76
78
80
76
76
78
80
82
78
78
76
76
78
80
76
80
84
80
76
78
76
74
78
80
78
76
74
68
66
66
72
76
70
70
66
66
66
66
66
66
66
66
70
70
66
64
64
68
74
76
74
78
78
80
78
84
82
80
86
86
82
84
84
80
78
80
80
76
76
78
78
76
76
80
80
78
80
82
80
78
82
80
78
80
76
76
80
82
76
76
76
72
68
70
74
76
74
76
70
68
70
66
68
68
66
64
68
68
68
64
62
64
72
74
74
74
76
76
76
84
80
78
82
84
84
84
84
82
84
84
80
78
76
74
76
76
76
78
82
80
78
76
82
82
84
80
80
80
74
74
78
78
74
74
74
74
74
72
74
74
74
76
72
70
72
70
70
68
68
70
72
68
68
64
62
64
68
72
74
74
74
76
76
84
80
78
84
84
82
82
80
82
84
84
82
76
78
78
78
78
76
74
82
80
78
80
84
82
80
80
80
76
74
72
76
78
74
76
76
74
76
76
76
76
76
80
78
74
76
76
76
78
74
74
78
74
70
68
68
72
70
70
70
72
76
80
82
84
84
84
84
84
84
82
82
82
80
82
82
78
76
80
78
78
76
76
78
78
82
80
80
80
80
82
82
78
74
70
74
74
72
74
78
76
78
74
76
76
80
80
82
82
80
78
78
82
82
78
76
74
74
72
70
72
68
66
68
70
74
80
78
84
86
89
86
86
89
84
84
84
84
84
82
80
76
78
78
76
76
78
80
78
80
78
76
80
82
86
82
80
74
72
74
74
72
76
78
76
76
76
78
78
78
80
82
84
84
82
84
84
82
80
76
74
74
70
70
70
68
64
64
64
70
76
74
89
86
84
84
84
86
84
86
86
86
84
84
82
80
78
76
78
76
76
78
78
78
76
76
80
84
84
80
80
78
76
78
78
76
76
78
76
76
80
82
84
82
82
82
82
84
86
86
84
82
82
80
80
80
76
74
72
70
62
62
66
68
70
72
86
84
82
84
84
82
84
86
84
84
82
80
76
76
76
78
78
76
76
78
78
78
78
78
80
80
78
74
74
78
78
82
82
78
74
76
78
78
80
84
86
89
82
82
80
80
84
86
84
84
84
82
82
82
80
78
74
72
68
64
62
66
68
68
82
86
86
89
89
86
86
89
84
82
80
80
78
78
78
82
82
78
78
80
82
82
80
82
80
78
74
74
76
78
76
78
80
78
76
78
80
80
80
82
82
82
80
84
84
80
82
82
84
86
84
80
80
80
80
80
78
74
70
68
62
62
64
64
86
84
86
89
89
89
89
89
82
78
78
80
82
80
80
80
82
82
82
82
82
80
80
80
78
76
72
74
76
78
78
78
80
76
74
78
78
78
80
80
78
78
80
82
82
80
80
80
84
84
84
82
80
78
80
80
78
76
74
72
66
64
62
60
89
86
86
86
89
86
89
89
84
80
80
80
84
82
82
80
80
84
82
80
82
82
84
80
78
78
78
76
78
78
80
82
80
78
76
78
80
78
78
76
78
78
80
78
78
82
80
82
82
82
84
82
82
78
76
78
80
80
76
74
66
64
64
60
