P2
# 193 of 608 Angiograms
64 64
255
206
202
180
137
105
93
84
80
78
78
76
76
76
78
82
91
103
125
159
184
192
192
192
194
192
192
192
190
190
190
188
188
190
188
186
184
184
184
184
180
178
178
182
182
184
186
186
188
188
186
184
182
178
174
168
165
161
161
163
165
168
168
165
165
207
204
186
142
103
89
80
78
78
74
72
74
74
76
78
86
98
120
149
178
192
190
190
194
194
192
192
190
188
188
188
188
188
184
184
182
184
184
184
182
182
182
182
180
182
186
186
188
188
182
180
178
174
170
163
165
163
161
161
165
168
168
165
168
209
206
194
149
105
84
78
74
76
76
74
76
72
72
74
82
93
112
139
172
186
188
190
194
194
192
194
194
190
188
188
188
188
184
182
184
186
186
186
184
184
184
184
180
182
184
184
186
184
180
178
174
170
168
161
161
161
161
163
165
168
165
165
168
211
209
197
159
110
84
74
72
74
74
76
76
74
70
74
80
91
105
129
163
182
188
190
192
194
192
194
196
196
192
192
190
188
186
184
186
188
188
184
184
186
188
186
182
180
182
182
182
180
178
174
172
170
168
163
161
159
161
165
163
165
165
168
170
213
210
199
168
117
89
76
72
76
74
76
76
74
68
72
80
89
100
120
149
178
188
190
190
192
194
192
194
196
196
194
194
192
190
188
186
188
188
186
186
188
188
186
184
180
178
180
178
178
174
172
170
170
170
163
161
159
161
163
161
163
165
165
165
213
209
199
174
129
98
82
78
78
76
74
74
72
68
70
76
82
93
107
137
172
186
192
192
194
194
192
192
194
196
196
196
192
194
192
190
188
188
186
186
188
188
186
184
180
178
180
178
176
174
172
168
168
170
165
163
163
161
161
161
163
161
161
163
213
207
196
176
144
112
91
82
80
76
72
70
70
70
70
74
76
84
98
122
161
184
192
194
192
194
192
192
196
196
196
196
194
194
196
194
192
190
188
188
188
190
188
184
178
176
180
178
176
174
172
168
168
170
168
165
163
161
161
163
163
161
161
165
210
202
192
176
151
127
105
89
80
76
70
66
66
68
68
72
74
78
89
110
147
178
190
192
192
196
194
194
196
196
194
196
196
197
197
196
194
192
194
194
194
192
190
184
178
176
178
178
176
176
174
170
168
168
168
163
159
163
163
165
163
161
161
165
207
199
188
176
163
139
117
100
84
78
70
66
64
66
66
70
72
74
82
100
134
172
190
194
194
194
194
196
196
194
194
196
199
199
197
194
192
192
194
196
196
196
190
182
176
176
174
174
174
176
176
172
170
168
168
163
161
163
163
165
165
163
163
165
206
194
184
176
172
154
134
112
93
80
74
68
68
70
70
72
70
74
78
95
125
165
190
196
196
194
194
196
196
196
196
197
199
197
196
194
190
190
194
196
196
192
186
180
176
174
174
174
172
174
176
172
170
168
165
163
163
165
168
168
168
168
168
168
206
192
182
178
178
170
149
127
105
89
78
72
70
72
74
72
72
76
80
93
122
163
190
196
196
194
194
194
196
199
197
197
196
197
197
194
190
190
192
192
190
188
184
178
174
174
172
172
172
172
174
172
170
168
165
165
168
170
170
172
172
172
172
172
204
188
178
176
178
180
168
144
120
98
84
76
72
72
72
74
72
76
82
95
122
161
188
194
194
194
194
196
197
199
199
197
197
197
197
196
192
190
188
186
186
182
180
174
174
172
170
172
172
172
172
172
170
168
168
168
168
170
172
172
174
174
172
170
202
184
174
174
180
186
182
165
137
112
93
82
76
74
76
76
74
78
86
100
122
159
188
192
192
192
194
196
199
199
199
199
199
197
196
194
190
190
186
184
182
180
178
174
172
170
170
170
170
170
170
168
170
170
168
170
172
172
174
174
176
176
172
168
199
180
172
174
184
192
192
182
156
129
107
91
82
76
76
76
78
84
91
103
122
159
186
190
192
192
196
197
202
199
197
199
199
196
196
192
190
186
184
182
178
178
178
174
172
172
170
168
168
165
165
168
170
172
172
172
172
174
176
176
176
174
170
165
196
178
172
178
190
197
196
190
176
149
122
103
91
84
78
80
84
86
93
107
125
161
186
190
192
194
197
199
201
197
196
197
197
194
192
188
184
180
180
180
178
176
178
174
172
172
168
165
163
163
165
170
172
172
174
174
176
176
176
178
178
174
168
163
196
176
172
178
196
201
196
194
188
174
144
117
100
91
86
86
84
89
95
110
127
163
186
190
194
196
197
199
199
196
197
197
196
190
186
182
180
180
180
180
180
178
178
174
174
170
165
163
161
163
170
170
172
174
176
174
176
178
178
176
176
172
165
161
194
178
172
178
197
202
196
192
194
188
172
142
115
100
95
93
91
93
100
112
132
165
188
194
196
196
197
199
197
196
197
197
192
184
182
180
182
180
180
180
180
180
178
174
174
170
163
163
163
168
170
172
172
174
176
176
178
178
178
178
176
172
165
161
194
178
174
178
196
202
196
194
196
194
186
165
137
115
100
98
95
98
105
117
137
165
188
194
196
197
197
201
199
197
197
194
188
184
182
182
182
180
180
180
180
178
176
174
172
170
165
163
165
170
172
174
174
176
178
178
178
178
176
176
172
170
163
161
190
180
174
176
194
199
194
194
196
197
192
182
156
129
110
103
98
100
107
122
139
165
188
196
196
197
199
201
201
199
197
190
186
184
182
182
184
184
182
182
180
176
174
172
170
170
168
168
170
172
172
174
176
176
178
178
180
176
176
172
170
168
165
161
178
172
172
176
192
197
192
192
194
194
192
188
172
144
122
107
105
105
112
125
137
161
184
196
197
199
199
199
199
199
192
186
184
182
184
184
186
186
184
184
178
176
174
174
170
170
170
170
170
170
170
174
176
178
178
178
178
176
172
168
168
165
165
161
149
151
163
174
186
196
190
190
192
192
190
192
182
159
132
117
107
110
115
122
134
154
178
194
197
199
201
201
199
194
188
184
182
182
182
184
184
184
184
182
180
176
176
174
172
170
170
172
172
172
172
174
176
176
176
176
176
172
168
168
168
168
163
161
103
110
129
154
176
190
190
190
192
190
190
194
190
172
144
125
112
110
115
120
132
149
172
190
197
199
199
197
194
190
188
184
182
184
184
182
180
182
182
182
182
178
174
172
168
168
168
172
172
174
174
174
174
176
176
176
172
168
165
170
170
165
161
161
78
80
86
112
147
174
186
188
192
192
192
194
194
182
156
132
117
112
112
117
127
142
163
186
197
199
197
196
192
190
188
184
182
184
186
184
182
182
184
184
180
176
172
165
163
165
170
170
172
172
172
174
174
174
174
170
165
165
168
168
165
163
161
156
72
62
60
74
100
137
165
180
188
190
192
194
196
188
168
142
122
115
112
115
122
134
156
180
194
197
196
194
192
188
188
184
182
182
184
184
182
180
182
180
178
174
170
168
165
168
170
172
174
174
174
174
174
174
170
163
163
163
163
163
163
159
156
151
70
58
48
48
62
89
117
147
168
180
188
192
196
194
176
151
132
117
112
117
122
132
149
172
190
192
192
192
190
188
188
186
184
182
184
184
184
180
180
180
178
174
172
170
165
168
170
172
174
174
174
174
172
168
161
159
159
159
159
161
159
156
154
149
78
57
43
39
44
57
76
98
122
147
168
182
190
194
184
161
142
125
117
117
122
129
142
163
184
188
188
188
188
188
188
188
186
184
184
182
184
182
180
178
176
172
172
172
168
168
168
170
172
172
170
170
163
159
156
154
156
159
159
159
159
159
156
149
107
68
47
37
40
50
58
72
91
112
134
159
178
186
186
172
149
134
120
115
120
125
134
154
176
188
188
188
190
190
190
188
186
184
184
182
182
182
182
178
176
174
172
170
170
168
168
168
170
170
168
163
159
156
156
156
156
156
159
156
159
161
159
151
142
91
60
48
45
50
55
64
78
93
112
134
159
176
184
180
161
139
127
115
115
122
129
144
165
184
190
190
192
192
192
192
186
184
184
184
184
182
180
178
176
176
174
172
170
168
165
168
170
170
165
161
156
159
159
159
159
154
156
161
161
163
159
154
170
120
80
64
57
57
58
66
76
86
100
115
134
159
176
178
170
149
132
120
112
117
125
134
151
176
188
190
194
194
192
192
190
186
186
186
186
184
182
180
178
178
174
170
170
168
165
165
170
170
165
161
156
159
161
159
154
154
156
161
163
161
156
151
180
144
107
86
74
68
68
70
78
86
95
107
122
142
165
176
174
156
134
122
112
115
120
127
139
163
184
192
196
197
194
194
192
188
188
188
186
182
182
182
180
180
176
170
168
165
168
168
170
168
163
161
159
159
159
159
154
156
159
163
163
159
151
151
184
159
139
120
105
100
93
91
89
91
95
105
117
132
151
172
176
163
139
122
110
112
117
120
129
149
174
188
196
196
194
194
192
188
188
188
184
182
180
182
182
180
176
172
170
168
168
168
168
165
163
161
159
161
159
159
156
156
163
163
161
156
151
154
184
168
156
151
151
147
139
127
120
115
110
112
117
129
144
163
174
165
142
125
112
110
112
115
122
139
163
184
192
194
192
192
190
188
186
186
184
184
184
184
184
182
178
176
174
172
168
168
168
165
161
159
159
161
159
159
159
159
163
163
161
156
154
154
184
170
165
170
176
180
176
168
154
142
129
125
127
132
142
156
170
168
149
129
115
112
110
107
112
127
149
174
186
190
190
192
188
186
184
186
188
186
184
186
188
186
182
178
176
174
172
168
168
165
161
161
161
161
159
161
159
161
163
161
159
156
156
156
186
172
168
174
184
190
190
186
178
168
154
142
134
137
139
149
163
163
154
134
117
110
105
103
107
117
137
161
180
186
188
188
188
188
184
186
186
186
186
186
188
184
182
180
178
174
172
170
168
165
163
163
161
161
159
163
163
161
161
159
161
159
161
159
188
174
172
176
188
196
194
192
188
180
170
156
144
139
139
144
156
161
156
139
120
110
105
103
105
110
125
147
170
182
186
186
188
190
188
188
186
188
188
188
188
184
182
180
178
176
172
170
170
168
165
163
161
161
163
168
168
165
161
161
163
161
159
161
192
178
172
176
188
196
196
196
194
188
180
168
151
139
137
139
149
156
154
144
127
112
105
100
100
105
117
134
159
178
184
188
190
190
190
188
184
186
188
188
186
182
182
180
178
176
174
172
172
170
168
165
163
163
168
165
168
168
165
163
168
165
161
163
196
182
172
174
188
196
197
197
196
192
186
176
156
137
132
134
147
151
151
151
137
120
110
103
98
100
110
125
147
170
182
188
192
192
192
188
184
184
184
186
186
182
180
180
180
178
174
170
170
172
168
168
165
165
165
168
168
168
165
165
168
165
163
161
197
184
172
174
186
197
197
199
199
196
190
178
159
139
132
134
144
151
154
156
147
129
117
107
98
100
107
117
134
159
176
184
188
190
190
188
186
182
182
182
182
182
178
178
180
180
174
172
172
172
168
168
170
168
168
165
168
168
168
168
170
165
163
161
199
186
174
176
186
197
199
202
201
197
190
180
163
142
137
137
147
156
163
165
161
142
125
112
105
100
105
112
127
144
165
178
182
186
186
186
184
182
180
178
180
180
178
178
180
180
176
176
176
176
172
170
170
170
170
165
165
168
168
168
168
165
165
163
199
188
176
178
186
199
202
206
204
199
190
180
163
144
137
139
149
163
172
176
174
161
137
120
110
103
103
110
120
132
149
168
178
182
182
182
180
178
178
178
178
176
176
178
180
180
178
178
178
176
172
172
172
172
170
168
168
168
165
165
165
163
163
161
201
188
180
178
188
201
206
207
206
201
190
182
163
144
134
137
151
168
178
182
184
176
154
129
117
107
105
110
117
122
134
154
170
178
180
180
178
178
178
176
176
174
174
176
182
182
180
178
176
174
172
170
172
170
168
168
170
170
168
168
165
161
159
159
201
188
182
182
190
202
207
207
206
201
190
182
163
142
134
139
154
168
178
182
186
184
172
144
127
117
110
110
115
120
125
137
156
172
178
178
178
178
180
178
178
176
174
178
182
182
180
176
174
170
170
172
172
172
168
170
170
170
170
170
168
163
159
156
202
190
182
182
192
202
206
204
202
197
190
180
161
142
134
142
156
168
178
184
188
188
182
163
142
125
117
112
115
115
117
125
137
159
174
178
180
178
180
180
178
178
176
178
180
180
178
174
172
170
172
174
176
176
172
172
170
172
172
172
168
165
165
161
202
192
184
182
190
199
201
201
199
197
190
178
159
139
137
144
159
170
178
186
190
190
188
178
159
139
125
117
115
112
110
115
125
139
163
176
180
180
180
182
180
180
180
180
180
180
176
174
172
170
172
174
176
176
174
174
172
172
174
170
168
170
170
165
202
192
184
182
186
196
197
199
199
197
188
176
154
137
137
147
161
174
182
188
192
192
190
188
174
154
134
122
112
107
107
110
117
127
144
163
174
178
180
180
180
180
180
180
182
182
178
176
172
172
172
174
174
178
178
178
176
174
174
170
172
174
172
168
204
194
184
178
184
192
196
197
197
197
188
172
149
132
132
147
163
178
186
188
190
192
190
190
186
168
147
127
115
110
112
112
110
117
127
144
161
172
174
176
176
176
176
178
178
182
178
176
174
174
174
172
174
178
180
182
180
176
172
172
178
176
172
170
202
194
180
172
180
190
194
196
197
197
188
168
144
127
129
147
165
180
186
188
188
190
190
190
188
180
159
137
122
117
117
115
112
112
117
125
142
159
168
168
170
172
174
176
178
180
178
178
178
176
174
172
172
178
184
184
182
178
174
174
178
174
172
170
201
192
176
168
172
190
194
196
197
197
188
165
142
129
134
151
168
182
186
186
184
186
188
190
188
182
170
149
132
125
122
117
110
110
110
112
122
137
154
161
165
165
170
174
176
178
178
178
180
180
178
176
176
180
184
182
182
180
176
174
174
172
170
168
197
186
172
165
172
190
196
197
199
197
188
165
144
137
142
159
172
184
188
188
184
184
186
188
186
182
176
161
142
132
127
117
110
105
103
103
110
120
132
147
159
163
168
170
172
174
178
180
180
180
182
180
178
180
184
182
182
178
176
172
170
168
168
170
192
182
170
165
172
192
196
199
199
196
186
163
144
142
149
163
178
188
190
190
188
188
188
188
184
182
182
172
156
142
129
117
110
107
103
103
103
110
120
129
142
151
159
161
165
170
174
178
180
182
182
184
182
184
186
182
180
176
174
170
170
168
170
172
188
180
170
165
172
192
196
197
197
196
184
163
147
147
154
170
182
190
192
192
190
190
188
184
182
180
184
180
170
154
137
122
112
107
103
103
100
107
112
117
127
137
142
149
156
159
165
172
178
180
182
182
184
184
184
180
178
176
172
172
172
168
168
170
184
180
168
163
172
188
196
196
197
194
182
161
149
149
161
176
186
192
194
192
192
186
180
172
172
178
182
184
176
165
149
134
120
110
105
103
105
107
107
112
117
125
129
134
142
147
151
161
170
176
180
180
180
178
178
178
178
176
176
176
174
172
170
170
184
182
168
161
165
186
194
197
199
194
178
161
149
151
165
180
188
194
194
194
186
172
156
151
156
165
174
178
178
174
161
149
132
120
110
110
115
112
105
110
115
122
125
129
134
137
142
147
156
165
170
172
172
172
172
174
174
174
176
174
174
170
170
172
186
182
168
159
165
186
196
199
196
188
176
161
151
154
170
182
190
194
194
186
172
154
142
134
139
149
163
172
174
174
168
161
149
132
125
120
117
115
112
115
117
117
125
129
127
129
134
139
144
149
156
159
161
163
165
168
170
170
172
172
170
168
170
172
188
184
170
161
165
186
196
196
192
184
172
161
156
159
174
184
192
194
188
176
159
144
134
129
134
144
151
161
168
172
168
163
163
154
142
132
127
125
122
120
120
117
127
129
129
129
134
137
139
139
139
142
147
151
159
161
163
165
168
168
165
163
165
168
190
186
172
161
165
186
194
192
190
180
168
161
161
163
178
190
196
192
180
168
156
147
144
147
149
149
147
151
161
168
168
168
170
170
168
156
142
134
129
129
127
125
132
132
132
129
132
137
139
139
134
132
139
149
151
156
161
161
161
161
161
163
163
163
192
186
172
161
165
186
192
192
188
176
165
159
161
165
182
196
197
190
176
165
161
161
168
170
163
156
149
149
156
163
170
176
180
182
180
176
168
154
144
142
137
137
137
137
137
134
134
134
139
137
129
127
137
149
156
161
163
163
161
163
163
163
165
165
188
182
170
159
165
184
194
194
188
174
163
156
159
168
188
199
196
184
174
168
168
178
184
182
174
165
161
154
159
168
174
182
186
186
184
184
178
172
165
159
154
151
149
147
144
142
139
139
142
137
132
134
144
149
159
163
165
163
163
165
165
161
165
165
186
178
170
159
165
184
194
196
188
174
161
156
161
172
194
202
196
182
174
174
182
192
188
178
176
170
168
163
165
170
174
178
184
184
184
186
184
180
176
172
168
165
161
159
154
149
147
147
144
142
142
144
149
154
156
161
163
161
159
163
168
165
165
163
180
176
168
161
170
184
194
196
190
176
161
159
165
176
197
201
192
180
176
180
188
186
178
174
174
174
174
172
172
170
172
174
178
182
184
186
186
186
182
178
176
174
172
168
163
156
151
149
149
147
147
147
151
156
159
159
161
161
161
165
168
168
165
161
178
176
168
163
172
186
197
197
190
176
163
161
170
182
196
197
186
178
180
182
182
178
174
174
178
180
178
178
176
176
172
172
172
176
178
180
182
182
180
182
180
178
176
172
168
163
154
149
147
144
147
149
151
154
156
161
163
163
161
165
168
165
163
161
180
178
170
170
178
192
201
199
190
174
163
163
172
184
190
188
180
178
180
180
180
178
178
180
182
180
180
180
180
180
176
174
174
174
172
172
172
176
180
182
180
178
174
172
165
161
156
151
142
134
134
134
137
139
147
151
154
156
161
165
165
163
161
161
180
180
172
174
184
199
204
201
190
174
165
165
174
182
182
178
174
174
176
180
182
186
186
182
182
182
182
182
184
184
182
180
178
178
176
174
172
176
180
182
180
176
174
170
165
165
163
156
149
139
134
132
129
132
137
139
144
151
156
161
165
163
161
161
182
182
176
178
190
202
206
201
188
172
168
168
172
174
174
170
168
172
178
184
190
190
190
186
182
182
184
184
184
184
186
186
186
184
182
180
180
180
182
184
184
182
178
174
172
172
170
170
165
161
154
151
149
149
149
151
154
156
159
161
163
161
159
163
