P2
# 194 of 608 Angiograms
64 64
255
151
151
149
147
147
149
149
147
142
142
144
144
144
142
139
137
134
134
129
127
127
127
127
125
122
122
125
127
127
129
132
134
134
134
137
139
137
134
132
120
112
115
122
127
127
127
125
122
120
122
125
127
125
125
129
122
117
115
107
110
117
122
125
127
151
151
149
147
147
147
149
147
142
142
144
147
147
142
137
134
134
134
132
129
129
127
127
129
129
132
132
129
129
134
137
142
142
137
137
139
139
139
134
127
112
115
120
122
125
129
129
127
125
127
127
129
125
125
125
122
122
120
115
110
112
117
122
125
154
154
149
144
147
149
147
144
144
144
147
147
144
139
134
134
137
137
134
132
127
125
127
132
137
137
137
134
134
137
139
147
144
142
134
134
139
139
137
132
115
110
120
122
125
127
132
132
129
127
127
129
127
125
125
125
125
127
125
120
115
115
117
117
151
151
149
149
147
149
147
142
144
147
147
144
142
137
137
137
137
137
132
129
129
125
129
134
134
137
139
139
139
137
142
144
144
144
139
137
139
139
137
132
120
112
117
120
122
125
129
134
132
127
127
132
129
122
120
122
125
127
129
127
127
117
112
110
149
151
151
151
151
149
149
147
147
149
151
147
139
137
134
137
139
139
137
134
132
129
134
134
137
137
142
142
142
139
142
144
144
142
142
142
142
139
137
134
122
115
115
120
122
127
129
132
132
129
132
134
132
125
122
122
125
127
132
134
132
129
122
115
149
149
151
154
156
154
149
147
147
149
149
147
142
139
137
139
142
142
137
137
137
134
137
139
139
142
147
144
144
144
142
139
139
139
139
142
142
139
137
134
129
120
115
117
122
127
134
137
134
132
132
132
134
129
127
127
129
129
134
134
132
134
132
127
151
151
154
156
159
156
151
149
149
151
151
147
144
144
142
142
144
144
139
137
137
134
137
139
139
144
149
149
149
147
144
139
139
142
142
139
139
137
137
137
134
127
120
115
117
125
134
137
137
137
132
134
139
137
132
132
134
137
139
137
137
137
139
139
156
154
154
154
156
156
154
149
149
151
151
147
144
144
142
142
147
144
139
137
134
134
132
137
142
147
151
154
151
151
147
142
139
142
142
137
134
142
139
137
137
134
127
117
115
120
127
134
139
139
137
139
139
142
137
134
134
142
144
142
134
137
144
149
156
154
156
156
156
154
151
147
149
151
151
144
142
139
142
142
144
142
139
137
134
134
134
137
144
147
149
154
151
151
149
144
142
139
137
134
137
142
142
139
137
134
132
127
120
120
125
129
134
137
139
139
142
142
139
134
139
142
144
142
137
139
144
149
156
154
154
159
156
151
149
149
151
154
149
144
142
139
142
139
142
139
139
137
137
137
134
139
147
149
147
147
149
151
151
147
142
142
137
134
139
144
142
139
139
134
134
134
127
125
125
127
129
132
134
139
142
139
137
137
139
139
139
137
139
142
147
149
159
156
154
156
154
149
147
147
154
151
149
151
144
139
139
139
142
142
139
137
134
134
134
137
147
147
147
149
151
151
149
147
139
139
137
139
144
147
142
137
142
139
137
139
137
132
127
125
120
122
125
129
134
137
137
137
134
137
137
137
139
147
147
147
165
161
156
156
151
149
149
151
154
156
151
149
144
139
139
139
139
139
139
139
139
137
134
137
142
144
147
149
154
151
149
144
139
139
144
144
147
147
144
142
147
144
142
142
137
134
132
127
122
120
117
120
122
125
125
129
134
137
139
139
142
147
147
144
165
163
161
156
151
149
149
154
156
156
151
149
144
142
144
139
139
142
142
144
142
144
139
142
147
147
147
149
154
156
154
147
142
144
144
147
147
149
147
144
147
144
147
139
137
137
134
134
132
125
122
122
122
120
117
120
127
134
139
142
144
149
147
149
168
165
163
156
151
151
151
156
156
156
151
149
147
144
142
137
139
144
144
144
142
144
144
144
147
149
149
149
154
159
156
151
147
147
149
151
151
149
149
144
144
144
147
142
137
137
139
139
139
139
137
132
127
125
125
122
122
127
132
137
144
149
151
154
170
168
161
159
156
156
156
159
159
154
151
149
144
142
139
139
139
144
144
144
142
142
142
139
144
149
151
154
156
156
156
154
151
151
154
154
154
149
149
149
144
142
147
142
137
134
137
137
139
142
147
142
137
134
129
125
120
122
127
134
139
147
154
159
168
165
163
159
161
161
161
161
156
156
154
149
144
139
137
142
144
147
144
142
142
144
144
142
147
149
154
156
156
154
154
154
154
151
149
151
147
147
149
149
142
142
144
142
139
134
132
134
139
142
144
142
137
137
139
132
125
122
125
134
139
147
154
159
165
168
168
163
163
165
163
159
156
156
156
154
144
134
137
144
149
147
144
147
147
147
147
147
149
151
154
154
156
151
149
156
156
149
149
151
151
149
147
149
147
144
144
139
142
134
132
134
137
139
139
139
137
139
142
137
129
125
127
134
139
147
154
161
163
168
170
168
165
168
163
156
156
159
156
151
144
139
142
149
149
142
142
149
151
149
149
149
151
151
154
154
156
154
154
159
156
154
154
156
154
154
149
149
147
147
144
144
144
139
134
132
132
137
137
137
139
142
142
142
132
127
129
137
142
149
156
159
165
168
170
170
165
168
165
161
156
159
156
151
144
142
144
147
144
139
142
147
149
151
149
149
151
154
156
156
154
151
154
156
154
156
159
156
154
154
149
147
144
144
147
147
144
139
137
134
132
134
134
134
139
142
142
142
137
127
129
142
147
151
154
159
165
165
170
168
165
168
168
165
159
156
156
149
147
142
144
144
142
139
139
142
147
154
149
147
151
156
156
156
156
154
154
151
154
156
156
154
154
154
147
142
144
147
147
147
139
132
129
132
129
132
132
134
139
142
142
144
139
132
132
142
149
151
154
159
172
168
168
168
170
172
170
165
161
156
159
154
149
147
144
142
139
142
139
142
147
151
151
147
151
154
156
156
159
154
154
151
154
151
154
154
151
154
149
144
147
147
147
144
139
132
134
134
132
129
132
134
142
147
144
142
144
137
134
142
151
154
156
159
174
170
168
170
172
174
172
168
163
163
161
159
154
151
149
147
144
144
147
144
144
149
151
149
147
151
154
156
156
159
156
156
154
151
154
154
154
151
151
149
151
151
149
147
142
137
137
139
137
132
134
137
142
147
147
147
149
144
139
142
149
154
156
159
174
172
174
172
174
176
174
172
170
170
165
163
161
156
154
151
151
151
151
151
149
151
154
154
151
151
156
159
159
159
159
159
159
159
156
151
159
156
154
154
159
159
154
149
147
142
139
139
144
137
137
139
144
149
151
156
159
154
144
144
147
151
151
154
178
176
176
176
178
178
176
174
172
172
170
168
165
161
154
154
154
154
156
156
156
154
154
151
154
156
161
163
161
159
159
161
161
161
161
156
161
163
159
161
163
163
159
154
151
144
142
144
144
144
142
142
144
151
154
159
159
156
149
147
147
147
147
151
178
178
178
178
180
180
176
174
174
174
170
165
163
159
156
156
159
156
159
159
156
156
154
154
156
161
163
163
163
159
161
163
163
165
165
163
163
165
163
165
168
163
161
156
149
144
139
142
144
147
144
142
144
149
154
154
156
156
151
149
147
139
139
147
180
180
180
178
178
176
172
170
165
161
156
151
149
147
144
142
142
142
142
142
142
142
144
149
154
159
159
161
165
163
165
168
168
168
168
165
165
168
168
168
165
163
161
156
149
144
139
142
144
144
144
142
142
147
154
154
151
154
154
151
147
139
137
139
178
178
174
170
163
156
149
139
134
127
125
122
122
122
120
117
117
115
112
112
112
115
122
129
139
144
149
154
159
163
168
170
172
170
168
168
168
168
168
168
165
163
161
159
151
144
147
147
144
144
142
142
142
144
151
151
151
154
154
154
149
147
142
139
163
159
154
144
137
129
122
115
110
105
103
100
100
100
100
100
100
100
98
95
95
98
105
110
120
129
134
142
147
154
159
161
163
165
165
165
165
165
165
165
165
163
161
156
151
149
149
149
149
144
142
137
139
147
149
151
154
151
151
151
151
151
149
147
144
137
132
125
117
110
105
98
91
91
93
93
91
89
89
89
86
84
84
84
86
86
89
95
103
115
125
132
134
137
142
142
144
147
149
149
151
154
156
161
161
159
159
151
151
151
149
151
149
149
144
139
147
151
154
156
151
151
151
154
154
154
156
156
132
127
122
112
105
98
91
86
86
89
89
89
86
86
86
84
78
76
76
78
80
82
82
86
91
100
115
125
129
132
132
134
134
134
132
132
132
132
139
147
156
159
154
151
151
149
147
151
151
151
144
144
154
154
156
154
154
154
156
156
156
156
159
161
127
122
112
103
95
91
89
89
89
86
84
82
80
82
82
80
76
76
74
76
80
80
82
86
89
93
105
115
125
127
129
132
134
132
127
129
127
122
127
137
147
154
154
151
149
147
144
147
149
147
147
151
156
156
154
156
159
156
156
159
161
156
156
156
122
117
112
100
95
91
89
89
86
84
84
82
78
80
80
84
82
80
78
76
78
80
82
86
91
93
100
105
115
122
129
134
134
132
127
129
127
122
120
129
142
154
151
149
149
151
149
144
147
154
154
156
161
159
154
154
159
161
161
161
161
156
154
156
127
122
112
105
100
95
91
89
84
84
86
82
78
80
80
82
80
80
78
76
78
82
80
84
89
89
93
98
107
117
127
132
129
129
127
127
127
122
122
127
137
149
149
151
149
151
149
149
151
154
154
159
163
163
161
159
159
161
163
161
163
165
163
161
134
127
115
107
103
95
95
93
89
89
86
86
82
80
82
80
82
82
80
78
78
78
80
86
86
84
82
86
95
107
122
129
127
127
129
129
129
125
125
125
129
142
149
149
147
149
156
156
154
151
149
159
163
168
165
163
159
161
163
163
168
172
168
165
137
129
120
110
103
95
98
100
95
95
91
89
84
82
82
82
84
84
82
82
82
82
82
86
84
80
76
76
84
95
110
125
129
129
129
129
127
122
122
120
122
129
139
144
144
149
156
156
154
149
147
154
161
165
168
165
163
163
163
165
168
170
170
168
137
129
122
110
100
93
95
100
98
98
95
89
84
82
80
84
84
82
80
80
82
84
84
86
82
78
74
76
80
82
91
103
112
120
122
122
120
120
120
117
117
122
127
132
137
142
147
147
144
142
142
147
151
159
159
156
156
154
154
154
156
156
156
156
137
129
120
107
103
95
95
95
95
95
91
86
86
86
84
86
84
82
82
80
78
82
82
78
78
76
74
76
78
82
80
82
91
98
100
105
107
110
112
115
117
117
117
120
122
125
127
129
129
129
132
137
142
144
144
142
139
137
134
134
137
139
142
142
137
125
115
105
105
98
98
98
98
95
91
89
86
86
82
82
82
82
80
80
78
78
82
80
78
78
78
78
78
82
76
76
82
86
89
93
95
95
98
100
103
105
105
105
107
110
112
115
117
120
122
125
129
132
129
129
129
127
122
122
127
127
129
132
134
120
107
105
103
98
95
98
98
95
91
89
86
80
76
80
84
84
82
84
86
91
93
93
91
86
84
78
78
80
76
74
78
80
82
84
84
84
86
86
86
89
91
91
93
95
95
98
98
100
103
107
112
112
115
115
115
115
112
112
115
122
122
125
125
115
105
100
98
93
93
93
93
93
91
89
86
82
84
84
84
86
89
93
100
105
110
107
103
93
86
80
78
78
78
74
74
72
74
74
76
78
80
80
78
76
74
72
74
76
76
78
78
78
80
84
86
89
91
93
93
95
98
100
105
110
115
115
115
105
100
98
95
91
91
91
89
91
93
93
91
89
91
93
93
93
98
103
107
110
110
107
105
98
89
84
84
80
74
72
70
70
66
66
68
70
70
70
64
64
64
58
57
60
62
62
62
68
70
74
74
76
78
82
82
84
84
84
89
93
98
103
107
103
98
95
95
95
95
95
91
93
98
100
98
93
95
100
98
100
100
100
103
103
105
105
103
93
91
86
84
82
76
74
72
70
66
64
66
68
70
68
68
64
60
52
50
55
58
58
57
62
66
68
68
72
76
76
76
74
74
76
76
82
86
89
107
100
95
95
93
91
93
95
93
93
93
95
95
95
93
93
95
95
93
91
91
93
93
93
93
91
91
89
84
80
80
80
76
72
72
68
66
70
72
70
68
68
60
53
53
58
58
60
58
64
66
68
70
72
76
76
74
72
72
72
68
72
78
82
103
100
98
98
93
91
91
93
86
84
84
84
86
86
89
89
89
91
89
89
86
86
89
89
89
89
89
84
80
80
78
80
80
80
78
74
74
76
76
74
74
72
66
60
60
64
64
64
66
66
68
74
74
76
78
76
76
76
74
72
70
70
70
70
98
98
98
95
95
98
95
91
84
84
84
84
86
84
84
84
84
84
84
86
86
86
84
82
82
84
84
78
74
78
82
84
86
89
84
78
80
82
78
76
78
76
70
66
68
72
72
70
70
74
76
80
84
86
86
82
80
80
80
76
72
72
70
66
95
98
95
93
93
93
91
89
84
86
89
89
86
84
82
80
80
78
80
80
80
80
78
78
78
78
78
74
72
78
82
82
86
86
84
80
80
78
72
74
78
78
72
70
72
76
76
78
78
78
80
84
84
91
93
86
84
84
89
86
80
76
72
66
89
89
86
84
82
80
78
80
84
84
82
84
80
82
82
78
74
74
76
74
74
76
76
76
76
78
76
74
74
78
76
78
80
82
80
78
78
78
74
72
72
74
72
72
72
72
72
76
76
78
80
82
84
91
89
86
84
84
91
91
84
82
78
72
76
76
78
78
76
76
74
76
80
80
80
80
80
78
76
70
70
72
72
70
70
70
70
70
70
70
70
70
72
72
72
72
72
72
72
72
76
78
74
70
68
68
70
70
70
72
72
72
74
74
78
80
82
84
82
82
84
84
86
86
84
86
84
80
70
70
72
72
74
74
74
74
76
76
76
76
76
70
68
64
66
66
64
66
70
70
68
66
64
64
66
72
68
68
72
72
72
70
70
70
72
72
70
70
70
66
70
72
70
72
70
70
74
74
74
74
76
78
76
78
80
82
82
82
82
82
82
76
66
66
68
68
64
66
68
66
66
72
68
66
64
64
66
60
60
64
66
66
66
68
66
60
60
60
64
66
66
66
70
68
68
68
66
68
70
70
72
74
74
72
72
72
72
70
68
66
72
70
68
72
70
72
74
74
76
78
76
80
78
76
74
72
68
68
66
64
64
62
64
66
68
72
68
66
60
62
66
64
60
60
62
62
60
62
60
60
60
62
62
64
62
64
66
66
66
66
64
66
68
68
70
70
72
72
68
66
66
66
68
66
66
66
70
70
70
72
70
74
78
72
76
80
80
80
78
74
70
66
68
68
66
66
64
66
72
70
68
68
66
66
66
66
62
64
62
62
62
64
60
62
64
64
62
62
58
62
64
66
66
64
64
64
68
68
66
64
64
64
66
64
66
66
64
62
60
64
68
68
72
74
72
76
80
74
74
76
78
80
78
74
70
66
66
70
68
66
68
70
70
70
72
68
66
68
68
68
66
68
66
64
62
62
62
64
64
62
64
66
64
62
62
66
66
64
62
64
66
70
68
66
66
64
64
64
68
70
70
66
66
66
66
68
72
74
74
78
80
72
70
70
70
70
70
70
72
70
68
66
68
70
72
70
70
74
74
70
66
68
68
68
66
66
68
64
64
64
64
62
62
62
64
68
64
62
68
70
66
64
64
66
68
68
66
66
64
66
66
64
66
68
66
66
70
68
64
68
70
72
74
76
76
74
72
70
66
64
66
68
76
76
70
70
74
78
76
70
68
70
70
70
72
72
72
72
70
68
68
64
64
66
68
66
62
64
64
64
64
64
66
68
66
60
62
64
68
72
68
68
66
64
66
68
66
66
66
66
70
70
68
68
70
72
72
72
72
72
72
70
64
62
66
66
76
78
76
78
78
78
76
74
72
70
72
74
74
76
76
74
70
74
72
72
72
70
70
70
66
62
62
64
66
66
66
68
68
64
64
66
68
70
74
70
70
68
64
64
64
66
68
68
70
72
70
70
70
70
68
70
70
68
66
68
66
64
66
66
80
80
80
80
80
78
78
76
76
74
72
74
76
74
74
72
68
72
72
74
74
72
72
72
68
64
68
68
66
64
68
72
72
72
70
68
70
72
74
72
70
70
68
62
64
68
70
70
70
68
68
66
68
66
64
68
70
68
64
64
64
62
64
68
80
82
78
76
76
78
80
76
76
74
72
70
70
72
72
70
66
68
66
68
68
72
74
72
68
66
70
70
68
70
72
74
74
78
70
66
70
72
72
70
70
68
68
68
68
72
72
66
66
66
70
68
68
64
64
64
66
64
62
64
64
62
66
68
78
78
76
76
78
82
84
78
72
70
72
70
70
70
68
70
68
70
70
66
64
64
70
70
66
66
70
70
72
76
74
74
76
78
72
72
72
70
70
70
70
70
70
68
68
70
70
66
64
66
68
72
70
64
66
66
66
64
62
62
64
64
66
66
80
80
80
80
80
84
82
78
74
72
76
74
74
68
66
68
68
68
70
70
66
68
70
70
66
70
70
68
74
74
74
74
76
78
72
74
74
74
74
74
72
70
72
68
68
70
70
68
70
72
70
70
66
66
64
64
68
68
70
68
68
64
64
64
80
82
78
80
82
82
78
78
78
80
78
74
74
70
70
70
72
70
72
72
72
74
74
72
72
70
68
70
70
72
74
78
74
72
72
78
78
78
78
76
74
70
72
70
72
70
72
72
72
76
76
68
64
66
66
68
70
66
68
72
72
68
66
64
80
82
80
82
80
78
78
78
76
80
78
76
76
72
70
74
74
74
72
74
74
74
72
74
76
76
72
72
72
78
78
78
76
74
72
76
78
76
76
78
76
70
76
72
74
72
70
70
70
70
72
70
68
72
72
72
76
72
68
72
72
70
72
70
78
80
82
80
80
76
78
80
76
78
80
78
76
72
70
74
74
74
72
70
76
74
70
74
78
80
76
72
72
78
78
76
76
76
78
80
82
78
74
78
76
72
72
74
72
72
74
74
72
70
74
70
72
74
74
72
72
70
70
76
76
76
74
76
76
80
82
78
78
78
76
78
80
84
82
80
74
72
72
76
76
76
76
76
78
74
74
74
74
76
80
76
72
76
78
78
78
80
80
80
84
82
80
84
80
76
74
74
72
76
76
76
76
78
76
74
74
72
72
70
70
70
70
74
74
76
78
78
