P2
# 198 of 608 Angiograms
64 64
255
93
91
89
89
86
84
89
91
89
84
82
76
74
72
72
72
80
84
86
84
80
78
76
74
70
70
72
72
74
74
70
68
72
78
82
82
84
86
84
84
82
82
86
84
84
86
91
93
93
86
84
82
86
89
91
86
86
91
89
89
86
91
91
86
91
89
86
89
86
82
86
91
89
84
82
80
78
72
68
70
72
76
78
76
74
74
70
66
66
64
66
70
70
70
72
68
68
70
78
82
82
84
82
84
86
82
84
84
84
84
86
91
86
84
86
86
89
89
89
89
89
91
91
91
89
91
91
89
86
84
84
86
82
80
86
86
84
82
78
78
78
74
66
66
68
72
72
70
66
74
72
66
66
62
60
66
72
66
68
68
64
68
74
78
80
80
78
80
82
82
82
84
82
80
84
84
84
86
86
84
86
86
86
86
91
93
93
93
93
91
91
89
80
78
78
78
80
80
80
80
76
76
74
72
74
72
74
76
74
74
72
72
70
78
76
72
70
70
64
68
72
70
70
74
72
72
72
76
78
78
76
78
78
80
80
82
80
80
82
84
82
82
84
86
86
86
86
86
89
89
89
89
89
89
86
84
76
74
74
76
78
80
78
72
70
72
70
68
70
74
76
80
78
78
78
80
76
76
74
70
70
70
68
68
72
70
74
76
76
72
74
74
76
76
74
76
80
78
78
82
80
80
82
84
82
80
82
86
91
89
84
84
86
86
89
89
86
86
86
84
76
76
70
70
74
76
74
66
68
70
72
72
74
76
76
78
80
80
80
78
78
76
70
68
70
72
70
66
68
68
70
70
70
70
70
72
72
76
76
76
78
76
76
78
78
80
82
82
82
80
82
84
89
89
86
86
91
89
89
91
86
86
86
84
76
76
74
70
72
74
70
64
64
70
74
74
74
74
74
76
78
78
78
78
76
74
72
70
72
74
76
70
68
68
68
70
66
62
64
68
70
76
78
76
74
76
74
76
76
76
78
78
78
78
80
80
84
89
86
86
89
86
86
86
84
82
84
84
74
76
78
74
72
72
70
66
66
70
74
76
74
74
74
76
78
78
76
78
76
74
72
72
74
76
80
76
68
66
66
70
68
64
66
70
72
76
76
74
74
72
72
72
72
72
74
78
78
74
78
80
82
84
84
84
86
84
82
82
84
84
82
82
74
74
76
74
66
64
68
70
68
70
74
76
74
72
76
74
76
76
76
78
74
72
72
72
76
76
78
78
72
68
70
70
70
72
74
74
74
76
76
72
72
72
70
68
68
72
72
74
76
74
74
76
80
82
82
80
84
80
80
78
80
82
80
78
74
70
72
70
66
66
72
74
72
72
74
72
72
70
74
72
74
76
78
78
76
72
72
76
78
74
76
76
74
72
74
74
74
76
78
76
76
78
76
72
72
76
74
72
70
74
72
70
72
72
74
76
76
80
80
80
80
80
80
78
76
78
80
80
76
76
76
70
70
72
76
74
72
78
78
74
72
74
76
74
76
76
78
80
78
76
74
76
78
76
76
76
76
74
74
74
74
72
74
78
80
80
74
72
74
74
76
74
72
74
72
74
72
72
74
80
78
76
78
78
78
76
80
80
80
78
80
80
76
80
80
74
72
74
74
76
78
80
80
80
76
76
78
76
76
76
74
80
82
80
80
78
78
78
78
80
78
78
76
78
76
74
74
76
80
82
76
74
74
72
70
72
74
76
76
78
76
76
80
84
80
76
76
76
78
80
82
80
80
78
78
80
78
80
82
80
74
72
74
78
80
80
84
89
84
80
80
78
80
74
70
72
78
82
82
82
80
78
82
80
76
76
76
78
76
74
74
78
80
84
78
74
74
72
70
74
76
80
78
78
74
74
76
82
80
78
80
80
80
80
80
76
74
74
74
78
80
82
82
80
78
72
72
74
78
82
84
84
80
80
82
82
80
80
76
78
80
82
84
82
82
82
84
80
74
76
80
78
76
70
72
76
76
78
76
76
76
76
72
74
78
80
80
80
72
72
80
82
80
80
78
78
80
80
78
76
78
80
78
76
82
84
84
82
80
78
74
76
80
82
82
80
76
78
80
80
82
84
82
82
80
82
84
82
84
82
82
82
80
82
84
84
80
76
76
78
76
74
76
80
80
76
76
74
76
76
80
80
74
76
82
80
78
80
76
78
82
84
82
76
76
76
76
76
80
84
82
82
84
80
76
78
80
80
78
80
78
80
80
82
84
80
78
82
80
80
82
84
84
84
82
82
82
86
84
86
86
84
82
80
76
74
74
76
76
74
76
76
78
78
76
80
78
80
84
80
80
78
78
80
84
82
80
78
80
76
74
76
82
84
82
82
82
80
76
74
76
76
76
82
82
80
78
80
82
80
80
82
80
78
82
84
82
84
84
82
80
86
89
89
84
82
82
80
76
74
74
72
76
78
74
74
78
78
74
76
76
82
86
82
82
82
82
84
84
82
78
76
76
76
78
78
82
84
84
84
82
82
76
74
78
72
74
80
80
80
80
82
84
82
80
82
82
82
84
84
82
84
86
84
84
86
91
84
76
78
78
80
78
74
76
74
76
80
76
76
76
80
78
76
78
82
84
84
82
80
78
78
80
80
74
72
76
78
80
82
82
80
86
86
82
82
80
80
80
72
72
76
80
82
80
82
86
84
80
82
86
84
86
84
84
86
89
89
89
89
89
84
80
80
78
80
80
72
74
76
78
78
80
76
76
78
80
78
76
78
78
80
78
78
76
76
78
76
74
74
76
80
80
80
82
82
86
86
82
78
80
82
84
74
70
74
80
82
80
78
84
82
82
82
86
86
89
89
86
89
89
86
89
89
86
86
82
82
78
82
82
74
78
82
82
82
84
82
78
80
78
74
76
76
80
80
76
74
78
76
76
78
76
74
72
74
78
76
84
84
86
86
82
78
80
80
80
74
68
68
76
78
76
78
82
82
82
80
84
89
86
89
84
86
89
91
86
89
86
84
86
82
82
82
80
82
84
82
84
84
82
82
82
82
76
76
76
74
76
76
74
72
72
72
74
76
74
70
70
76
76
74
84
84
82
82
80
78
74
74
72
72
66
62
66
68
68
70
74
76
78
80
82
82
84
86
84
84
89
91
86
89
86
86
86
82
82
84
84
84
82
80
82
82
82
84
82
80
78
80
78
76
74
74
72
70
72
72
74
74
74
72
70
76
76
78
80
78
74
74
74
74
72
70
68
70
66
64
62
62
64
64
66
68
70
72
74
76
78
80
80
82
86
89
89
86
84
89
86
82
80
82
84
86
82
82
86
86
84
84
82
76
74
78
80
80
74
72
76
74
70
70
74
72
72
72
72
78
78
80
70
68
68
68
66
66
68
68
66
64
68
66
62
62
62
64
62
64
64
66
66
68
70
74
74
76
78
82
84
86
89
91
89
84
82
78
80
84
84
82
89
91
86
86
84
78
72
74
76
74
72
74
76
76
74
70
74
74
74
74
72
76
76
80
64
64
64
66
64
66
68
68
66
66
66
68
62
58
62
66
62
62
64
64
64
64
66
68
70
74
74
74
76
80
86
91
91
84
82
76
78
84
86
80
82
89
84
86
84
80
74
78
78
74
72
74
76
76
76
74
74
80
76
70
72
76
76
76
64
66
66
68
66
64
68
68
62
62
64
64
62
60
62
62
60
58
58
58
58
57
60
64
64
66
72
74
76
76
80
86
84
82
78
74
76
84
84
82
82
84
84
84
84
80
76
80
80
72
74
76
76
80
78
80
76
76
72
68
70
76
74
72
64
68
66
68
68
68
70
66
62
62
64
64
62
62
60
62
60
60
62
60
58
57
58
64
68
66
72
76
76
74
76
80
82
80
76
72
72
80
82
84
86
86
86
84
80
78
78
78
78
74
72
76
78
82
78
80
74
74
72
74
70
74
74
74
64
66
64
66
66
66
68
64
64
64
62
62
62
62
62
62
62
60
60
60
58
58
60
64
70
70
74
78
74
74
72
78
80
76
70
68
66
74
80
82
84
86
86
82
78
78
78
78
76
74
72
74
74
78
78
78
74
74
72
74
72
68
72
74
64
64
66
64
62
64
68
66
64
66
60
58
57
60
62
62
58
58
60
66
62
58
62
68
70
68
72
74
72
76
74
76
76
74
70
68
68
72
76
78
78
80
82
78
78
84
82
80
78
74
74
76
78
78
76
76
72
72
74
74
74
70
70
74
62
60
66
66
64
68
70
66
68
68
64
62
58
60
62
62
60
64
66
66
60
60
64
68
70
68
70
72
74
76
72
76
74
74
72
66
66
70
72
74
76
78
80
80
84
89
89
84
78
80
78
78
78
78
80
80
78
76
80
80
76
74
74
74
64
60
64
68
70
70
68
68
70
68
62
62
68
64
62
64
60
62
68
66
62
62
64
66
66
66
70
70
78
78
74
72
74
72
70
70
66
66
66
68
72
78
82
84
82
86
91
86
84
82
84
80
78
78
80
82
80
80
82
82
80
78
74
76
70
64
62
68
66
68
66
70
70
66
62
62
64
64
62
62
60
60
64
66
64
62
58
60
64
68
68
68
78
76
74
76
74
72
70
70
70
70
68
72
78
84
84
84
80
86
91
93
91
89
86
86
80
78
80
82
78
80
80
78
80
78
72
74
70
68
66
66
66
66
66
64
66
66
64
62
66
64
60
60
58
62
64
66
66
64
60
60
62
66
66
68
74
70
74
80
80
76
74
72
72
74
74
78
82
84
84
86
86
89
89
91
91
84
89
86
84
82
80
80
80
78
78
74
72
72
70
70
68
66
62
62
64
68
68
64
64
66
66
66
66
66
66
62
64
66
66
64
68
70
66
64
66
64
64
66
68
70
74
80
80
78
78
80
78
78
80
86
89
89
86
86
86
86
86
89
89
84
84
84
82
80
78
78
78
76
76
74
76
74
74
72
72
70
64
64
68
70
70
68
72
68
68
72
68
70
68
66
72
72
70
68
70
72
70
68
68
66
68
70
72
70
72
78
80
80
80
86
82
84
84
89
95
93
89
86
89
86
84
86
91
86
82
82
82
78
78
76
76
78
78
74
74
74
76
72
76
74
72
74
76
74
74
74
72
72
70
72
72
72
74
78
80
82
84
82
82
82
78
74
72
66
66
66
68
70
74
80
84
82
80
82
82
84
84
86
89
91
91
86
86
89
91
89
89
89
82
80
80
80
80
80
78
78
76
74
72
74
74
72
78
80
82
82
82
78
76
74
76
78
80
80
78
80
82
84
86
91
91
89
89
89
82
78
74
72
70
68
68
70
74
78
82
82
82
84
84
82
82
82
82
84
89
82
82
91
89
86
86
89
84
82
82
78
78
80
80
76
72
72
72
70
74
74
86
86
86
82
84
82
82
82
86
86
82
84
86
89
91
89
91
93
91
91
91
91
84
80
74
70
72
68
70
72
74
76
78
80
82
86
86
84
82
80
78
82
82
82
82
89
91
86
86
86
86
84
84
84
80
78
74
76
74
76
74
72
72
74
89
89
89
84
84
84
84
82
86
82
82
84
86
91
89
89
91
93
91
91
91
89
86
82
78
76
74
72
70
72
76
76
80
78
78
84
84
86
84
80
80
80
80
82
82
89
91
91
89
86
82
84
84
82
78
76
74
74
74
78
80
76
78
78
91
89
86
86
86
89
89
84
86
84
84
86
89
86
86
89
91
91
89
91
91
91
89
86
84
84
80
76
74
76
76
76
76
74
74
80
84
84
84
84
84
82
82
82
84
89
89
89
89
89
84
82
84
84
78
76
76
80
76
78
80
78
80
80
89
89
86
89
89
91
91
89
89
84
86
89
89
86
84
86
89
86
86
86
86
86
84
91
89
86
84
80
74
76
76
74
72
72
76
76
78
82
84
84
82
80
82
80
80
86
86
89
93
91
86
84
84
82
76
76
80
78
76
76
80
82
78
76
89
86
89
86
89
91
91
89
86
86
86
93
93
86
84
82
84
86
84
86
86
86
86
91
89
84
84
82
78
76
74
72
72
72
76
74
74
76
80
80
78
78
78
78
80
84
86
89
89
84
89
84
82
78
74
76
82
80
76
72
74
80
76
76
89
89
91
93
91
89
89
86
86
86
89
93
91
86
82
82
80
84
86
86
89
93
91
93
91
86
84
84
82
78
76
74
72
70
72
72
72
72
74
78
78
76
76
74
78
82
84
86
84
84
84
82
82
82
78
76
80
78
74
72
70
74
76
76
91
91
93
95
91
86
86
84
84
82
86
91
86
86
84
80
78
82
84
84
89
91
89
89
91
93
91
89
86
82
80
78
74
70
70
70
68
70
70
72
74
72
74
72
74
76
80
82
80
82
80
80
84
82
80
78
78
76
74
76
72
70
74
78
93
95
98
95
91
84
82
82
82
80
82
89
86
84
84
82
78
78
78
84
86
89
86
84
91
93
91
91
91
89
84
84
84
80
78
76
72
70
68
70
70
72
72
72
72
72
72
76
76
74
76
78
78
80
80
78
76
76
76
78
78
76
78
80
89
91
93
93
91
86
82
84
86
86
84
84
86
84
82
82
74
72
76
82
84
86
86
82
84
89
86
86
86
86
89
89
86
84
82
78
76
74
72
74
72
74
72
72
72
72
70
74
72
70
72
74
74
76
76
78
78
78
76
80
82
76
78
76
86
89
89
91
91
89
86
84
89
89
86
84
84
82
82
80
72
70
74
80
86
84
84
84
84
84
86
86
84
84
86
86
86
82
82
84
82
82
80
80
76
74
70
68
68
72
70
70
70
68
68
70
70
70
72
74
76
78
78
78
76
76
76
76
84
89
86
86
89
89
91
84
82
84
86
84
80
82
82
82
76
70
76
80
84
86
84
82
82
84
89
89
86
89
86
86
84
84
84
89
86
86
84
84
82
78
74
68
68
72
72
70
70
72
70
68
66
66
66
68
70
72
76
74
72
70
68
70
86
89
86
82
84
84
84
80
80
78
84
82
80
82
82
82
78
78
80
80
84
84
82
82
82
84
86
91
89
89
89
89
89
89
84
86
86
89
84
86
84
78
74
74
74
76
76
76
76
74
72
68
66
64
62
64
64
64
70
74
68
64
64
72
89
89
84
84
84
84
84
84
84
84
84
84
80
80
80
80
78
80
80
80
82
82
78
76
80
84
84
84
86
86
89
86
89
89
84
84
84
86
84
86
86
80
82
84
84
82
80
80
80
76
72
70
68
68
66
66
64
62
66
70
68
66
68
74
91
86
82
86
89
89
89
86
89
86
82
84
82
78
80
80
80
80
82
82
82
80
78
80
80
80
80
80
84
80
82
84
84
86
84
82
80
82
84
86
89
86
84
84
86
84
84
84
82
80
76
74
74
72
70
70
64
64
68
68
70
72
70
76
89
86
84
86
86
89
91
86
84
84
82
80
84
80
82
82
82
80
82
82
82
80
80
80
82
78
76
82
84
84
84
82
82
86
86
84
82
80
82
84
89
89
84
86
89
86
84
82
84
84
82
80
80
76
74
68
68
66
68
70
70
74
76
80
89
89
89
86
86
89
89
84
82
82
84
82
80
80
78
82
82
80
78
82
80
78
76
76
78
78
82
84
84
89
89
84
84
86
89
86
84
84
82
80
84
84
84
82
80
84
84
84
84
86
84
84
84
78
76
68
66
66
66
68
70
74
78
78
86
89
91
86
89
89
86
82
80
80
82
82
82
84
80
78
82
80
80
80
78
78
78
78
80
82
84
84
82
84
84
82
84
86
89
84
82
80
80
80
80
84
84
80
78
82
86
82
82
82
82
84
84
80
78
76
68
68
70
66
66
70
74
76
84
84
84
86
89
89
89
84
80
80
82
84
84
86
82
80
80
82
80
78
78
78
82
84
80
78
78
78
76
82
82
82
84
86
84
80
78
76
78
80
80
84
82
80
82
84
86
84
80
80
82
84
84
82
80
80
76
70
70
64
64
64
70
78
86
84
84
86
82
84
89
89
82
82
82
82
86
91
82
80
80
82
80
80
78
78
82
80
78
74
76
78
80
82
82
86
86
84
82
82
82
82
80
80
80
82
84
80
82
80
82
84
84
80
84
86
84
84
84
82
80
74
70
66
66
66
66
74
86
84
82
82
84
84
82
80
76
78
82
84
86
86
80
82
82
82
82
80
78
78
80
80
78
76
80
82
84
84
82
84
84
84
86
84
86
86
82
82
82
78
84
82
78
76
80
82
84
80
80
82
84
86
84
84
84
78
74
68
66
62
64
70
86
84
84
84
84
84
82
80
78
76
78
80
82
80
82
86
86
82
82
82
82
76
80
84
82
82
82
82
86
86
84
82
82
84
84
82
82
82
82
86
84
84
86
84
78
76
80
78
82
82
78
80
82
82
86
86
84
82
76
70
66
64
64
70
86
86
84
86
86
84
86
84
82
76
76
78
76
76
82
84
82
80
82
82
82
78
82
84
80
84
82
82
89
91
89
84
84
80
78
80
80
80
82
89
86
86
84
82
78
78
82
78
80
80
78
78
80
82
84
84
82
82
82
72
66
62
64
66
86
84
86
86
84
86
86
86
86
80
76
76
78
78
78
80
76
78
80
80
82
78
78
76
78
82
84
84
86
84
82
80
82
80
76
80
80
82
82
82
84
86
84
78
74
78
78
78
78
80
76
74
78
80
78
82
80
82
82
76
70
64
66
66
82
82
84
84
82
84
84
86
84
80
78
78
82
82
80
80
76
78
78
80
80
78
74
76
76
78
82
82
82
82
80
80
82
82
76
80
82
82
82
80
84
84
84
82
80
80
76
78
80
80
78
76
80
80
76
78
78
80
78
76
74
66
66
66
86
82
80
78
80
84
82
86
84
82
84
82
80
84
80
80
72
72
78
80
80
80
76
78
82
80
76
82
82
82
80
80
80
80
78
82
84
78
76
78
82
80
78
80
80
80
80
80
80
82
78
78
78
82
82
80
80
82
80
80
76
70
64
62
84
82
80
80
78
82
82
82
86
86
80
78
80
78
78
80
76
76
80
78
78
80
80
80
82
80
78
84
84
82
82
82
82
80
80
82
82
78
72
76
78
78
74
78
78
78
80
80
80
78
78
80
80
78
80
78
82
84
84
78
78
72
66
62
78
78
82
82
80
78
82
82
82
82
78
80
80
80
78
80
80
82
82
82
80
80
86
86
84
80
80
84
82
80
82
82
82
80
78
78
80
78
76
76
74
74
76
80
76
72
74
76
78
78
80
80
80
78
80
78
80
82
80
76
76
72
68
66
