P2
# 199 of 608 Angiograms
64 64
255
194
188
172
154
134
112
98
93
84
78
74
70
72
76
74
78
80
84
91
100
115
134
156
168
168
165
161
159
154
151
149
151
156
161
161
161
161
161
159
161
163
159
149
144
142
142
142
144
144
144
144
142
139
142
144
144
149
147
149
149
149
144
139
142
192
186
174
159
142
122
103
93
89
82
76
72
70
72
72
76
76
80
86
95
105
122
139
159
165
165
161
156
149
144
147
149
151
156
159
161
163
161
161
159
161
154
147
142
142
139
139
144
147
147
147
147
142
139
144
147
147
144
147
149
149
144
142
142
188
182
174
161
149
132
112
98
91
84
78
70
68
70
68
74
78
82
86
91
98
110
127
144
159
159
159
159
151
144
147
149
149
154
159
163
161
159
159
156
156
149
144
139
142
142
144
147
149
154
151
149
147
142
144
147
149
149
147
149
149
147
144
142
186
180
172
163
161
147
125
105
95
89
78
70
66
68
72
76
80
84
86
89
91
98
110
129
144
156
159
159
154
147
147
147
147
151
159
159
159
156
154
156
154
147
144
142
144
147
147
149
154
156
156
151
149
149
149
154
154
151
149
149
149
149
147
144
186
178
170
163
163
159
142
117
100
91
80
72
68
70
74
78
84
86
86
86
86
91
100
112
132
149
159
159
159
151
147
147
147
149
154
159
159
159
154
156
154
149
142
144
149
149
149
149
156
161
161
159
156
156
156
156
154
154
151
149
149
149
149
147
186
176
165
163
165
168
159
134
110
93
84
76
74
74
78
80
84
89
89
86
84
86
91
100
117
137
154
161
161
156
149
147
149
151
156
159
156
159
156
156
154
149
144
149
147
149
151
151
159
165
163
161
163
161
159
159
156
156
154
151
151
149
149
147
186
174
163
161
168
174
168
149
122
100
89
82
80
80
82
82
84
86
89
89
86
82
84
93
107
125
147
161
163
161
156
149
151
156
159
156
156
159
156
156
159
154
149
149
149
151
151
154
159
161
161
163
163
163
161
159
156
159
159
156
151
149
149
149
186
172
159
159
163
168
168
163
142
115
100
91
89
86
86
86
91
89
86
86
86
84
86
91
100
117
137
159
165
165
161
156
154
154
156
156
156
159
159
159
159
154
156
159
159
156
156
156
159
163
163
163
163
163
161
159
156
159
159
156
154
151
151
154
184
170
159
156
159
161
168
168
159
137
115
100
95
93
91
91
95
91
86
82
82
84
84
89
98
110
132
154
168
170
170
163
159
154
156
154
156
159
161
159
156
151
156
161
159
159
159
159
163
165
168
168
168
163
163
161
161
163
161
159
154
151
151
151
184
168
159
156
159
165
170
172
168
156
137
117
107
100
95
93
93
91
89
84
84
84
86
89
95
107
127
149
168
172
172
172
163
156
154
151
154
156
159
156
154
151
154
159
156
159
159
163
165
163
168
170
170
165
165
161
161
163
163
159
154
154
151
149
182
168
156
151
154
168
172
172
170
163
156
139
122
112
105
100
95
91
91
91
89
91
89
91
98
105
122
144
165
174
174
174
172
163
154
154
156
156
159
159
159
156
156
156
156
156
159
163
165
165
168
168
168
168
165
161
161
159
161
159
156
154
151
151
182
170
154
149
154
163
170
170
168
165
165
156
144
127
115
107
103
98
95
95
91
89
89
91
98
105
120
137
159
174
176
174
172
168
161
156
156
156
156
159
161
159
159
161
159
156
159
165
168
172
172
168
165
165
163
161
161
161
156
156
156
151
149
149
184
170
151
144
149
156
163
165
165
165
168
168
161
147
132
120
112
105
103
98
93
91
91
93
98
105
115
132
151
170
176
176
172
170
165
159
154
154
156
159
159
159
159
159
159
159
163
168
172
174
174
170
163
161
159
159
159
159
159
159
154
151
149
149
182
165
149
142
147
151
159
163
163
165
168
172
168
163
154
139
127
117
112
105
100
95
95
98
98
105
112
122
142
159
172
176
174
170
165
165
161
156
159
161
161
161
163
163
163
163
165
170
174
176
174
170
163
156
156
156
159
156
154
156
154
151
149
149
178
163
149
142
144
149
156
161
161
163
170
172
172
168
165
161
149
137
127
117
110
103
100
98
100
107
115
117
129
147
163
174
174
172
168
165
165
163
159
161
161
159
163
165
165
168
170
172
174
176
174
172
165
159
156
156
156
151
151
154
154
151
151
151
174
165
151
142
144
149
154
156
159
165
170
172
172
170
168
168
165
159
147
132
120
112
107
107
107
107
112
115
122
132
151
165
172
172
172
168
168
168
165
163
163
161
165
165
168
168
170
174
176
176
174
172
165
161
161
159
154
151
154
154
156
154
156
154
176
170
156
147
142
147
149
151
161
165
168
170
170
170
170
170
170
168
163
151
134
122
115
110
107
103
105
110
115
120
134
154
168
170
170
170
168
168
168
168
168
163
163
165
165
165
170
174
176
178
176
172
168
163
163
159
154
151
154
159
159
159
159
159
178
174
163
151
144
144
147
151
163
165
165
168
170
172
172
174
174
172
170
165
154
134
122
115
110
105
100
105
110
112
120
134
154
168
170
172
170
168
168
170
170
168
165
165
165
168
168
172
176
178
178
174
168
163
161
159
154
154
159
161
161
161
163
163
182
176
168
156
149
144
147
154
163
163
163
168
170
170
170
172
174
176
174
172
165
154
134
125
115
107
103
105
105
105
110
120
137
154
168
170
170
168
170
174
174
172
170
170
168
165
165
168
172
176
176
172
170
163
161
159
159
156
156
161
163
163
165
165
186
180
174
163
154
147
147
151
161
163
163
163
165
168
168
168
174
176
174
172
170
165
151
137
125
115
107
105
103
105
107
112
122
134
154
165
170
170
170
174
172
172
172
172
170
165
163
163
165
168
170
170
170
165
159
159
161
161
161
163
163
163
165
165
188
182
178
170
159
149
147
149
159
165
168
165
165
165
165
168
174
174
172
172
172
170
163
149
137
127
117
110
107
107
110
110
112
122
134
151
163
170
170
172
172
172
174
174
172
170
165
161
161
161
161
163
165
163
159
161
163
163
165
163
165
165
165
165
186
184
182
174
163
151
147
144
154
163
168
168
165
165
168
170
174
174
172
174
174
174
172
163
149
137
127
120
112
110
110
107
110
112
122
132
149
161
168
170
170
170
172
174
174
170
168
163
161
159
156
154
159
159
161
163
168
165
165
165
165
165
168
168
182
182
184
180
170
156
147
144
149
161
168
170
170
168
165
168
172
174
174
178
176
174
174
172
163
151
139
129
120
110
110
107
103
103
107
120
132
147
159
165
168
170
170
172
172
170
168
168
163
161
159
154
154
156
159
163
165
165
163
163
165
168
168
170
180
182
184
182
174
161
149
142
144
156
168
172
172
172
168
168
170
174
174
174
174
176
176
176
172
165
154
142
129
117
110
105
100
98
98
103
115
127
142
154
161
163
168
168
168
170
168
165
165
163
161
159
154
156
159
163
163
161
161
161
161
165
168
170
180
184
184
182
178
168
154
147
144
151
165
172
174
174
174
172
174
174
174
172
172
174
174
174
176
174
168
154
142
127
112
105
100
95
95
98
103
110
125
139
151
159
161
165
165
163
163
163
165
168
165
165
161
159
161
163
161
161
161
161
161
163
165
168
180
184
184
182
180
172
159
147
144
147
163
172
174
174
178
176
176
174
174
170
170
172
170
172
176
176
174
165
151
134
120
107
100
95
95
98
100
103
110
122
134
147
156
159
161
159
161
161
163
168
168
168
170
168
165
163
163
163
163
161
161
161
163
168
180
180
182
182
184
178
165
151
142
144
161
172
172
176
180
180
178
176
172
168
170
172
172
172
174
176
178
174
163
147
129
115
105
100
103
103
100
100
103
110
120
132
144
154
156
156
159
161
163
165
165
170
170
172
172
168
163
165
165
165
163
161
163
165
178
178
180
184
186
182
172
156
142
144
159
172
172
174
178
182
180
178
174
172
172
172
172
174
176
174
176
174
170
159
142
127
115
105
105
107
105
103
103
105
110
117
129
142
149
154
156
159
163
163
165
172
172
172
174
174
170
168
165
165
161
163
165
165
180
180
178
184
186
186
178
163
149
147
159
170
172
174
178
180
180
178
176
174
172
174
174
174
176
174
174
174
174
172
159
144
129
117
112
115
112
112
107
107
107
110
115
127
139
147
154
159
161
165
168
170
174
174
176
176
174
170
168
163
159
161
165
163
182
180
180
184
186
188
182
170
156
151
159
168
172
176
178
180
180
180
180
176
176
174
174
178
178
176
176
178
178
178
174
163
149
139
129
129
127
125
120
115
110
107
110
115
125
137
147
154
161
163
168
168
174
176
176
176
174
172
168
163
159
161
163
161
182
182
182
184
188
188
186
174
161
154
156
168
174
178
178
180
178
178
180
180
178
178
178
180
178
180
178
178
180
182
182
178
168
159
151
149
144
139
134
127
120
115
112
110
115
122
132
144
154
161
165
170
172
176
176
174
172
168
168
165
165
163
161
163
186
184
186
186
186
188
188
176
165
156
156
168
176
178
178
178
178
180
180
180
178
178
180
180
180
182
182
182
184
184
186
184
180
172
165
161
159
154
147
137
132
125
117
115
112
117
120
127
139
154
163
168
170
172
172
170
170
168
168
168
165
163
159
161
192
188
186
188
188
190
186
178
168
159
159
165
174
176
176
176
178
180
178
176
178
180
180
180
180
184
186
188
188
188
188
186
184
180
172
170
165
163
156
147
142
137
127
122
120
117
117
117
127
139
151
159
165
170
172
172
172
172
168
165
165
163
161
161
196
192
188
188
190
190
184
178
170
159
156
161
172
174
174
174
178
180
176
178
180
182
182
180
180
184
186
188
192
192
190
186
184
182
176
174
170
168
163
156
149
144
139
134
129
127
122
120
120
127
134
144
151
159
165
168
170
170
168
165
165
163
163
161
197
196
192
190
190
188
182
180
172
161
156
159
168
174
172
174
176
178
176
176
182
184
184
182
182
182
188
192
194
194
192
186
184
182
176
176
174
170
165
161
156
154
149
144
144
142
134
129
122
125
132
134
137
144
151
154
159
159
161
161
161
161
161
159
199
197
196
192
190
186
182
180
172
161
154
156
165
174
174
174
176
178
178
178
180
182
184
184
182
184
190
192
192
194
190
186
184
182
178
176
174
170
165
163
161
159
156
156
151
149
144
139
134
127
129
132
137
139
142
147
149
149
149
149
149
151
151
151
199
197
196
194
192
188
184
182
174
161
151
154
163
172
176
174
178
180
182
182
184
184
186
186
186
188
190
188
192
192
188
184
182
180
178
174
172
168
163
165
165
161
159
159
159
156
154
147
142
137
137
139
142
142
144
144
147
149
149
147
142
142
144
147
197
196
196
196
194
190
186
182
174
161
151
154
161
174
180
178
178
182
184
186
186
188
188
190
188
190
190
190
190
190
188
186
182
178
174
172
170
168
165
168
165
163
159
159
159
159
161
159
149
144
144
144
144
142
144
147
147
149
149
149
144
144
144
147
196
196
197
197
197
194
190
182
174
161
154
151
161
174
180
182
180
182
186
190
188
190
192
194
190
188
188
188
188
190
188
186
180
176
174
172
170
165
163
165
165
163
161
161
161
161
163
163
159
151
149
149
147
147
147
147
149
151
151
149
147
149
144
142
194
196
197
197
199
197
194
186
176
165
154
151
159
172
178
182
182
180
186
190
192
194
194
192
188
188
188
186
186
184
182
182
180
178
176
172
170
165
163
163
163
161
161
163
161
163
163
161
161
159
154
154
151
154
154
151
154
154
154
149
149
151
149
144
196
197
199
201
202
201
197
192
182
168
156
151
156
170
178
180
182
180
184
190
190
192
192
188
188
188
186
184
182
182
180
180
180
176
176
172
170
168
163
163
163
163
163
163
163
163
163
161
161
161
156
156
156
156
159
159
156
156
156
154
154
154
154
151
197
199
201
202
202
202
201
197
188
172
159
151
156
170
176
182
182
182
188
188
188
188
190
188
188
188
188
186
182
180
180
180
180
176
174
172
170
168
163
163
165
168
168
168
165
165
165
165
165
163
161
159
159
159
161
161
161
159
159
156
159
161
161
159
201
201
202
202
202
204
202
199
192
178
161
151
154
168
178
182
184
186
190
190
190
190
192
192
190
190
190
188
182
180
182
180
180
176
172
170
170
170
165
161
165
168
168
165
165
165
168
170
170
165
163
163
163
163
165
170
170
170
168
168
168
170
168
165
201
201
201
202
204
206
204
199
194
182
170
156
156
170
178
184
184
186
188
188
192
192
192
192
190
190
190
188
184
180
182
182
180
176
174
172
172
170
168
163
163
165
165
163
165
168
168
170
172
168
165
163
168
170
172
172
174
176
176
172
174
176
174
170
201
202
202
204
206
207
204
199
197
188
176
165
165
170
180
182
184
186
186
190
192
192
190
188
190
190
190
188
184
182
182
182
180
178
176
174
172
172
170
168
163
163
165
165
165
168
170
170
172
170
168
165
170
174
176
176
178
180
180
178
176
178
174
170
199
202
204
207
209
207
204
199
199
192
182
174
172
172
180
184
184
184
188
190
194
190
188
188
188
190
190
188
184
186
182
182
182
180
176
174
172
170
170
170
165
165
168
168
163
165
170
172
172
170
168
168
172
174
178
178
178
178
178
178
176
174
172
172
199
201
206
209
210
209
204
199
201
196
184
178
174
176
180
182
182
184
188
190
192
192
190
188
188
190
190
190
188
188
184
182
182
180
176
174
172
170
170
170
170
168
170
170
168
168
172
174
172
174
172
168
172
174
178
180
180
178
180
176
174
174
174
172
199
201
206
209
210
210
207
202
202
199
188
182
176
178
182
182
180
180
184
188
192
190
190
190
190
190
188
188
188
184
182
182
178
176
178
178
174
172
170
170
170
170
172
174
172
172
174
176
176
178
178
174
172
174
178
180
180
178
178
178
178
174
172
174
199
201
204
209
211
211
209
202
202
201
192
188
180
178
182
184
184
182
182
186
190
190
190
188
188
188
186
184
182
182
184
184
182
180
182
182
178
174
172
170
170
172
174
174
174
176
176
178
178
180
178
176
174
174
178
182
182
180
178
176
172
170
168
168
197
201
204
207
211
213
211
204
202
201
192
188
184
180
186
186
182
182
186
186
186
188
188
188
188
186
184
182
182
184
186
188
188
186
186
184
180
176
176
172
170
172
174
172
172
176
178
178
180
178
176
176
174
174
178
182
180
176
172
165
161
159
159
156
194
199
202
207
210
213
211
207
204
202
194
188
186
184
190
190
186
184
186
186
184
186
186
186
186
184
184
184
186
186
188
190
190
188
186
184
182
178
180
178
172
170
170
172
174
176
176
176
174
172
172
172
170
170
172
170
165
156
149
144
139
137
137
137
188
192
196
201
206
210
210
210
206
204
192
188
186
188
192
192
192
190
188
188
184
184
186
188
190
188
184
186
188
186
188
190
190
188
186
186
182
180
180
178
172
168
168
168
170
170
170
170
165
163
161
159
154
149
147
142
139
134
129
129
129
129
129
129
186
188
190
194
197
202
207
209
209
204
192
186
184
190
196
196
196
194
192
188
182
184
188
192
192
190
186
186
188
188
188
190
192
190
188
186
180
178
176
170
163
161
159
159
156
154
151
147
144
142
139
137
132
127
125
122
120
122
125
125
122
122
127
127
188
190
194
197
199
199
201
204
206
202
190
182
184
196
201
201
201
197
196
190
188
188
190
192
192
192
188
188
188
188
188
186
184
182
180
176
170
165
161
154
149
147
144
142
139
137
132
127
125
125
122
120
117
117
117
115
112
117
120
117
115
117
120
122
196
199
201
204
206
202
201
202
202
197
186
178
186
199
206
206
204
201
197
194
192
190
192
190
188
186
182
182
178
176
172
168
163
161
156
154
151
144
139
137
137
134
129
129
127
122
120
117
112
112
110
107
110
112
112
110
112
117
115
112
115
115
115
115
199
202
202
207
209
207
202
201
199
192
180
178
188
201
207
207
207
202
197
194
192
190
186
182
178
174
170
165
161
159
156
151
147
142
139
139
132
132
132
129
127
122
122
120
117
115
112
110
107
105
100
103
107
110
107
110
112
112
112
110
107
110
107
107
201
204
206
209
211
210
206
199
194
182
174
178
188
199
206
207
204
201
196
190
184
178
172
168
163
159
156
154
151
147
144
139
137
134
132
127
125
125
125
120
115
115
117
112
110
107
107
105
103
98
100
105
107
110
105
107
110
107
107
105
107
110
105
107
201
207
209
210
211
211
207
197
186
172
168
174
184
194
197
197
194
186
180
174
168
161
156
154
149
147
142
142
139
137
134
132
129
127
122
120
117
117
115
112
110
110
112
112
110
107
105
100
95
93
98
105
107
105
105
105
107
107
105
105
110
110
105
107
194
204
209
210
210
209
204
192
178
165
161
165
170
174
176
174
172
168
163
156
149
147
142
137
132
129
129
127
127
127
125
122
120
115
112
112
112
110
107
107
110
110
110
107
103
100
95
93
91
95
100
100
103
100
98
100
105
105
103
103
105
107
105
105
186
196
202
204
204
201
194
184
170
159
159
154
154
156
156
156
156
151
149
144
142
137
132
125
122
122
120
120
120
120
117
115
110
107
105
107
110
105
105
107
107
105
100
100
98
95
91
89
89
98
103
103
100
95
98
100
103
103
100
95
98
103
105
103
176
178
180
182
182
182
180
172
161
151
144
139
139
142
144
144
144
142
139
137
134
129
122
120
120
122
120
115
112
110
110
110
107
105
105
107
110
107
107
107
105
100
100
95
93
91
89
91
93
98
103
100
93
93
98
103
103
103
98
95
98
100
100
103
154
154
159
163
165
165
165
159
149
139
132
129
132
137
137
137
137
134
129
129
127
122
120
120
120
120
117
110
107
107
107
107
107
105
103
105
105
105
107
105
98
98
95
91
89
84
89
95
98
95
98
95
93
93
98
103
100
100
98
93
98
100
100
100
137
137
144
151
154
156
154
144
137
129
120
117
122
127
129
129
127
125
122
122
120
120
117
115
115
115
112
107
105
100
103
105
105
100
98
103
98
100
103
95
93
93
91
86
80
80
89
91
93
93
91
91
89
91
95
100
98
100
98
91
95
100
98
98
127
127
132
139
144
144
139
132
127
120
112
112
115
117
120
120
117
115
115
117
117
115
115
112
110
105
105
103
98
98
100
103
105
103
98
98
100
100
98
93
93
91
84
82
78
82
86
86
93
91
89
86
86
91
93
98
98
98
93
95
95
95
93
93
