P2
# 200 of 608 Angiograms
64 64
255
156
154
149
142
137
132
125
122
117
122
125
125
127
127
129
125
125
129
134
137
139
142
144
144
144
147
149
147
144
142
139
134
134
134
132
137
139
142
144
144
139
137
139
144
147
147
144
144
144
142
142
139
137
134
134
134
137
139
139
137
137
137
137
134
151
154
149
139
137
134
129
125
117
122
125
125
129
127
129
127
127
129
134
137
139
142
147
149
149
147
149
147
144
142
134
134
134
134
132
134
137
139
144
144
139
134
137
142
147
147
147
144
139
142
139
139
139
137
134
134
139
142
139
137
137
139
134
132
149
151
147
144
137
137
132
125
120
125
127
127
132
132
132
132
132
134
139
139
139
142
147
149
149
149
147
144
144
139
132
132
132
129
129
132
134
142
144
142
139
139
139
142
147
147
144
142
139
142
139
137
139
137
137
137
137
142
139
137
134
137
137
137
147
147
147
147
139
137
129
125
125
132
132
132
134
134
137
137
139
139
139
139
137
139
144
149
149
149
149
147
144
139
129
132
129
132
134
137
142
142
139
139
139
139
142
144
144
144
142
139
139
137
132
132
137
139
139
139
137
139
137
137
137
139
139
139
147
147
147
144
139
134
127
125
129
134
137
137
137
137
142
142
139
137
137
137
137
142
147
147
149
149
149
147
144
137
132
134
132
134
134
137
142
139
137
139
139
139
139
139
139
139
137
134
129
134
132
132
137
139
134
137
139
137
134
134
137
139
139
139
147
147
144
139
134
134
129
125
132
137
139
142
142
142
142
144
142
139
139
139
142
144
144
147
149
149
147
144
142
139
137
139
137
134
134
137
139
139
139
142
144
139
139
137
137
137
137
134
129
134
134
134
134
137
137
139
142
137
137
134
134
134
139
142
147
142
139
137
134
137
134
132
134
134
139
144
144
142
142
144
144
142
142
142
144
144
144
147
149
147
144
142
139
139
142
139
137
134
137
137
139
144
144
144
144
142
142
137
137
139
139
137
134
134
137
134
132
134
137
139
142
142
139
137
134
134
139
142
144
137
137
137
139
137
134
134
134
137
139
142
144
147
147
144
144
147
147
149
149
147
147
144
147
144
142
139
139
139
142
139
134
134
139
142
147
149
149
147
144
144
144
139
139
142
144
144
142
139
137
134
129
134
139
142
142
144
144
142
139
139
142
144
142
137
134
134
137
134
134
132
134
139
144
147
149
151
151
151
151
151
151
149
149
149
144
142
139
139
139
134
137
139
139
137
134
134
139
142
147
151
151
149
144
147
147
144
139
139
139
142
139
139
134
134
137
139
142
144
144
144
147
144
142
139
144
144
147
139
137
134
134
137
139
134
137
142
147
149
151
151
154
156
156
154
151
149
151
149
147
144
142
139
142
137
137
139
137
134
139
139
142
147
149
154
156
151
147
147
151
149
142
142
137
139
139
139
134
134
137
139
139
142
147
147
144
142
142
142
144
144
149
144
139
137
137
139
139
134
139
144
149
149
149
151
154
156
159
154
154
154
154
151
149
147
144
144
144
144
142
142
142
139
142
142
147
147
149
154
159
154
149
147
151
151
144
142
142
142
142
139
139
139
137
137
139
142
144
147
144
142
142
147
144
142
149
147
144
142
142
139
137
129
137
139
147
149
149
149
154
156
156
154
156
154
151
149
149
151
147
147
147
144
144
147
144
142
142
142
147
147
149
154
156
154
149
147
149
147
144
144
147
149
147
142
139
139
137
137
139
139
142
142
142
142
144
149
144
142
149
149
149
149
149
147
137
129
134
142
147
147
147
149
154
154
159
159
156
154
154
151
151
154
154
151
151
151
149
147
142
142
139
144
147
149
149
154
154
151
149
149
151
151
149
149
149
147
144
142
137
137
137
137
139
137
139
142
139
142
144
147
144
142
149
149
151
154
154
151
139
132
137
142
144
147
147
147
149
151
154
156
156
156
159
154
154
156
156
159
156
154
154
149
144
144
142
142
147
149
147
151
154
154
151
154
156
156
154
154
154
149
142
142
139
137
137
134
134
137
137
139
139
142
142
142
142
142
151
151
151
154
151
151
139
134
139
142
147
147
144
142
147
149
151
151
154
154
159
159
159
159
159
163
161
159
154
149
144
144
144
144
147
147
149
154
156
154
156
159
159
159
159
156
154
151
144
144
144
142
137
134
137
137
139
139
139
139
142
142
139
139
149
149
149
149
149
147
139
132
139
142
144
147
144
144
149
154
154
151
154
156
159
161
165
163
163
163
163
161
154
147
144
144
142
147
147
142
147
151
156
156
159
159
156
156
161
156
156
154
149
149
149
147
142
137
137
139
142
142
142
144
149
149
142
142
137
137
134
134
134
134
132
129
129
129
134
137
139
142
144
151
154
156
159
161
161
163
168
168
168
165
165
161
154
147
144
147
142
147
149
142
144
151
154
154
156
156
156
159
161
159
159
156
156
156
156
151
144
142
142
144
147
144
144
149
151
154
149
144
127
125
125
122
122
122
117
112
110
110
112
117
122
125
127
134
142
147
151
156
161
161
165
165
168
168
170
165
159
151
147
147
144
144
144
142
142
147
151
154
154
156
156
159
161
161
161
159
159
156
151
149
144
144
144
147
151
149
149
149
151
151
154
149
120
117
117
117
117
115
105
100
98
98
103
105
107
107
110
115
122
127
134
142
149
156
163
165
165
170
170
170
163
156
151
151
147
144
144
142
142
144
147
149
149
149
154
156
159
163
165
163
159
154
154
151
149
151
149
149
154
154
154
154
151
151
151
151
120
117
117
115
115
112
105
95
93
93
95
98
100
100
103
105
105
110
115
120
127
137
144
154
161
165
170
168
163
159
159
159
154
147
144
142
147
149
147
147
149
151
156
159
161
163
165
168
161
159
159
156
154
151
149
149
154
156
156
154
154
156
156
161
125
120
117
115
110
110
103
93
91
91
91
91
93
95
95
95
93
98
103
107
110
115
122
129
139
151
161
163
161
159
161
163
159
151
147
147
149
149
147
147
147
151
156
161
165
165
165
170
168
161
161
159
151
151
154
154
151
154
154
156
159
161
163
165
127
125
120
115
110
107
103
95
93
89
89
93
95
95
93
93
93
93
95
98
103
105
107
110
117
127
142
154
161
161
163
163
161
159
154
154
149
142
144
149
151
151
154
161
165
168
168
168
168
168
161
156
154
156
156
154
154
156
159
161
163
165
168
168
132
127
122
117
115
107
100
93
95
93
91
93
95
93
93
95
93
91
91
93
98
98
98
100
103
107
122
137
149
156
159
159
156
154
151
151
144
144
144
147
149
151
151
154
156
159
163
163
163
163
159
154
154
151
149
151
151
154
156
161
163
170
172
168
132
127
125
120
112
103
95
95
100
95
93
91
86
84
86
86
82
82
84
84
86
86
89
89
91
93
103
117
129
142
144
147
147
144
144
142
139
139
137
139
139
139
142
142
144
147
151
151
154
151
151
147
144
142
142
142
144
147
147
151
156
159
161
161
129
125
120
115
107
100
93
91
93
93
89
84
80
80
76
76
76
76
76
76
76
76
74
74
76
80
84
98
110
120
129
132
132
132
132
129
129
129
132
132
129
129
129
132
132
137
137
139
139
142
139
137
132
129
129
129
129
129
132
134
134
134
137
139
125
115
112
107
103
98
91
86
86
86
84
82
78
76
70
72
72
72
72
72
70
68
68
68
72
74
76
82
91
105
112
120
122
120
120
117
120
125
127
125
125
122
125
125
127
129
129
129
132
132
129
125
122
120
117
115
120
122
122
120
120
122
122
125
120
112
107
100
98
93
86
84
84
86
84
78
80
78
74
70
66
66
68
68
66
66
68
66
68
72
74
76
82
89
98
105
107
110
110
112
115
117
120
120
117
117
117
115
117
120
122
122
122
122
122
120
120
115
110
107
110
112
112
112
115
117
117
115
120
110
103
98
95
89
84
84
86
84
80
76
78
80
76
74
70
66
62
64
62
64
64
62
62
64
64
68
74
82
86
91
95
98
98
100
103
107
112
115
112
110
110
107
107
110
112
112
115
115
115
115
110
107
103
100
105
105
105
107
112
112
107
107
120
112
103
98
91
86
84
84
84
80
76
72
72
76
80
78
70
66
60
62
64
64
64
60
58
60
62
66
72
74
80
82
86
89
89
91
93
95
100
100
100
100
103
103
105
103
107
107
107
110
110
110
105
103
100
100
100
105
107
105
107
105
103
105
120
120
107
103
95
86
84
84
84
82
76
74
74
76
78
76
70
68
62
64
66
64
62
58
60
62
62
68
72
72
76
78
80
80
82
84
86
86
91
93
95
100
103
103
103
105
107
105
107
107
107
105
100
98
100
98
98
100
105
107
107
105
103
105
120
120
112
107
103
93
89
86
86
84
80
80
78
78
76
76
72
72
70
66
66
64
66
66
64
62
64
70
76
74
76
78
80
80
78
78
82
86
89
91
98
98
100
100
103
105
105
105
107
107
105
105
100
98
100
98
93
100
105
105
103
100
103
103
115
112
110
107
105
98
95
95
95
91
89
84
84
82
78
78
76
70
68
66
66
68
68
70
66
62
66
72
76
76
76
78
78
78
76
74
76
82
84
86
93
100
100
100
100
103
100
103
103
103
103
105
107
105
103
98
95
98
105
103
98
98
98
103
107
105
107
110
105
98
95
100
103
95
93
93
93
91
89
86
82
78
74
70
72
72
70
70
64
64
70
74
78
78
76
78
78
76
76
76
76
78
78
82
86
95
98
98
100
103
103
103
100
100
103
103
103
103
105
98
98
98
100
100
98
98
98
100
110
107
105
107
103
98
95
100
103
100
98
100
98
98
98
95
93
89
86
84
82
80
76
72
68
72
76
78
80
76
76
78
78
76
74
76
78
78
76
76
82
91
98
98
100
103
103
100
100
100
103
103
103
100
100
98
98
100
98
103
103
100
103
103
107
110
105
105
103
98
95
98
105
103
100
100
98
98
98
98
95
95
95
95
91
86
82
78
72
74
78
80
82
80
78
78
78
78
76
78
80
78
76
76
80
86
95
100
100
105
105
100
100
100
100
100
100
98
98
98
98
95
98
103
103
103
105
107
103
105
103
103
103
98
98
98
100
103
100
100
98
98
98
95
98
98
100
103
98
93
89
80
74
74
78
84
86
86
82
80
82
80
78
78
82
84
82
82
82
86
93
98
100
103
103
100
98
98
98
95
98
95
95
98
93
93
95
98
98
100
103
107
98
100
98
98
98
93
93
95
100
98
100
100
95
95
98
95
95
98
98
98
100
98
91
84
78
76
80
89
91
91
86
86
89
89
84
82
84
84
86
89
89
91
93
93
93
98
98
95
95
100
100
100
100
98
98
95
93
93
95
98
98
100
105
105
95
93
93
93
93
93
89
93
95
93
98
100
98
95
93
98
98
95
98
95
95
95
91
84
80
80
82
89
91
91
89
91
93
93
89
89
91
93
93
91
89
91
93
95
93
93
95
93
95
100
98
100
103
103
100
95
93
93
95
98
100
103
103
105
89
89
89
89
91
91
91
91
95
93
95
95
95
95
95
95
95
100
98
98
95
93
89
82
78
78
82
86
91
91
93
93
95
91
89
86
91
95
95
93
91
91
95
98
95
93
95
95
98
98
98
100
100
98
98
95
95
93
98
100
100
100
100
100
86
86
86
84
86
86
89
91
93
93
91
93
91
93
95
93
93
95
95
98
95
93
86
80
76
76
78
82
86
89
93
93
93
91
89
82
89
95
93
91
89
89
93
91
91
93
98
98
95
95
93
98
95
93
95
98
98
98
98
98
98
95
95
98
86
84
84
84
84
82
86
89
89
86
89
93
91
91
93
93
93
95
93
93
93
91
89
78
78
74
74
80
82
86
95
93
93
91
86
84
86
93
93
89
89
86
86
82
84
91
95
98
93
95
93
95
95
95
95
98
98
98
95
95
98
98
100
98
84
86
86
86
84
82
82
84
89
91
93
93
93
95
95
93
89
93
93
91
93
93
89
78
78
74
74
76
78
84
93
95
93
89
82
84
84
89
93
93
91
89
84
82
84
89
93
95
93
93
91
91
89
91
91
91
93
93
93
93
95
95
98
98
82
82
84
82
84
80
82
86
89
91
91
89
89
93
93
91
89
91
91
91
93
95
91
80
76
74
76
76
76
80
89
93
93
91
84
86
86
84
89
91
91
91
89
86
89
89
93
93
93
93
91
89
86
89
91
91
95
93
91
91
89
89
93
95
86
84
82
84
82
80
82
84
86
84
84
84
84
86
89
89
89
91
89
89
93
93
89
82
78
76
78
78
76
80
86
89
89
89
84
82
82
82
84
86
89
89
89
89
89
86
89
93
93
91
89
89
89
89
86
89
93
93
91
89
84
86
89
89
82
82
80
78
76
76
74
76
78
78
76
78
80
82
84
89
91
86
84
86
93
93
89
84
80
78
80
80
78
78
82
86
86
86
80
76
78
80
84
82
84
86
86
86
89
89
89
91
91
86
86
86
89
89
86
86
86
89
89
86
84
84
84
86
80
80
76
74
74
76
74
74
76
76
74
78
80
80
82
84
89
80
82
86
91
91
89
86
82
78
76
76
72
72
76
80
84
82
80
80
80
84
86
84
86
89
86
86
86
89
89
91
89
86
86
89
89
89
89
86
86
84
86
86
86
84
86
93
80
78
76
76
80
78
78
78
76
74
78
80
78
80
80
82
84
78
80
82
84
84
86
86
82
78
70
68
68
68
72
78
80
82
82
82
80
82
84
86
89
86
86
86
86
91
93
91
86
91
89
89
91
91
93
91
89
84
84
91
91
89
91
93
78
78
76
78
84
80
80
80
74
74
78
80
78
80
82
82
82
80
80
80
80
80
84
89
84
78
68
70
68
64
68
72
78
78
78
78
80
82
82
84
86
86
86
86
86
86
86
86
93
91
86
89
89
86
91
91
89
84
86
91
93
91
89
89
80
80
80
80
84
82
78
78
74
76
80
82
82
84
82
80
82
80
80
80
78
78
82
86
84
82
74
74
72
68
64
68
72
74
76
76
78
80
80
80
80
82
82
84
84
82
82
86
89
91
86
86
84
86
89
89
84
84
91
91
89
89
89
86
80
82
80
80
84
80
78
78
78
80
80
82
80
82
82
82
80
82
80
78
78
80
84
82
82
82
80
76
72
68
64
64
68
72
74
74
78
76
76
78
78
80
78
78
82
80
80
84
86
89
86
82
84
86
86
86
86
89
91
89
86
86
86
84
82
82
78
80
86
80
80
82
84
82
80
80
82
84
84
84
82
80
80
78
80
82
84
82
80
82
82
80
74
72
68
64
66
68
70
72
76
76
76
78
80
80
80
80
84
82
80
82
86
86
84
82
80
86
86
84
84
84
82
80
82
84
84
80
82
82
80
78
84
82
82
80
82
82
80
82
84
86
84
82
80
78
82
80
80
84
86
86
82
86
84
80
78
72
66
64
66
66
68
74
76
74
74
76
76
76
78
80
82
80
78
82
82
80
80
82
80
84
86
86
86
86
86
82
82
84
84
86
82
82
78
80
84
82
80
78
78
80
80
82
84
82
84
84
82
82
82
80
80
86
91
89
82
80
78
82
84
76
70
68
68
68
68
72
74
76
76
76
74
76
80
80
76
76
80
82
78
78
80
84
84
84
86
86
86
86
86
84
84
86
86
86
86
84
80
80
84
82
82
84
82
80
84
84
86
82
82
84
84
86
84
82
84
84
86
89
82
80
78
84
89
84
76
72
70
70
70
66
70
74
74
76
76
76
78
82
78
78
82
80
76
78
80
84
84
82
82
80
78
80
82
82
80
84
84
86
86
86
86
86
86
82
78
82
82
80
82
84
84
82
84
84
86
89
84
84
86
82
84
82
86
84
82
82
84
86
82
76
72
70
66
66
66
70
74
80
80
80
78
82
82
82
80
76
76
76
80
80
82
78
76
74
76
76
78
76
78
80
82
86
84
82
82
89
89
84
82
82
82
80
82
84
86
84
89
89
86
91
84
84
84
82
82
82
84
84
86
84
86
84
82
76
72
64
64
66
68
64
70
78
80
80
78
82
82
82
78
76
78
76
76
74
76
78
76
74
78
74
78
78
80
80
82
86
84
84
82
84
86
86
86
84
84
82
82
82
86
86
86
84
89
91
86
84
84
80
80
84
82
84
89
89
84
84
80
80
74
66
66
68
70
68
68
74
78
78
78
82
80
82
82
80
78
76
78
74
76
76
76
76
76
76
82
78
80
82
86
84
86
89
89
84
84
86
86
86
86
84
86
84
86
89
89
89
91
91
86
84
80
80
82
80
82
84
84
86
84
82
78
78
80
74
70
70
68
70
70
70
74
80
82
84
84
82
80
78
76
76
78
76
74
74
76
76
76
80
82
78
78
80
82
80
91
91
91
89
86
86
89
89
89
86
86
86
89
89
89
86
89
91
89
86
84
82
78
80
84
86
84
80
82
80
82
80
82
84
76
70
70
70
72
66
70
76
84
86
84
80
78
80
80
80
76
76
76
76
74
76
76
76
76
78
78
78
78
78
93
89
89
91
86
86
86
84
84
84
84
84
86
84
84
84
84
89
89
89
86
86
84
86
89
91
89
82
82
80
80
82
84
84
80
76
72
68
72
68
68
74
80
84
86
86
82
82
82
84
80
80
78
78
76
76
78
78
78
78
80
82
80
80
89
84
84
89
89
91
93
89
86
86
86
84
84
84
86
86
84
82
84
91
89
89
91
89
91
91
91
89
84
80
80
80
78
78
78
76
74
70
70
66
64
72
76
84
89
89
84
80
80
80
78
80
80
76
72
76
80
80
80
82
80
76
78
74
89
84
89
89
91
95
98
93
89
86
84
84
84
86
91
89
86
86
82
86
91
86
91
91
86
86
93
91
86
80
82
80
78
80
80
78
78
74
72
70
72
76
76
78
84
86
86
84
82
84
82
76
78
76
74
76
80
80
78
80
80
76
78
78
86
91
91
91
91
89
91
93
86
84
82
80
84
86
89
89
89
86
84
84
91
86
89
89
86
86
93
91
89
84
82
82
84
86
86
82
80
78
76
74
76
76
74
76
80
84
86
82
82
86
84
78
80
80
78
76
78
80
76
76
78
80
82
78
86
89
86
84
84
84
86
89
84
84
80
80
84
86
82
84
86
84
84
82
89
89
91
91
86
89
93
89
89
86
82
82
86
89
86
84
84
80
78
76
74
70
74
78
80
82
86
82
82
86
82
80
78
76
78
78
78
80
82
78
76
80
82
80
