P2
# 202 of 608 Angiograms
64 64
255
180
174
165
168
170
172
170
165
163
163
163
161
156
151
149
144
137
139
142
144
149
151
154
154
154
156
161
168
168
163
163
163
161
165
165
165
165
161
154
154
151
151
147
144
142
142
144
147
149
151
154
159
161
165
170
172
170
163
163
161
154
151
151
149
180
176
172
172
172
174
174
172
165
163
163
161
156
151
151
147
142
147
147
147
147
149
154
154
154
156
159
163
163
163
161
161
161
163
163
163
159
156
151
151
149
147
144
142
142
142
142
142
147
151
154
156
161
163
165
165
165
165
163
156
154
154
151
149
182
178
176
176
176
176
176
172
168
165
165
165
159
154
151
147
144
149
149
147
147
149
154
154
151
151
154
156
156
156
156
156
154
151
151
149
149
147
142
139
142
139
139
137
134
134
134
134
137
139
144
147
151
154
154
154
154
154
154
151
149
147
144
142
180
178
176
176
174
174
172
170
165
163
161
159
154
151
147
142
144
144
144
142
142
142
144
142
142
142
144
147
147
147
147
144
142
139
139
137
137
134
132
129
132
132
129
129
127
127
127
125
127
129
132
134
134
137
139
139
142
142
139
137
134
132
129
127
176
174
172
170
168
165
161
159
156
151
147
144
144
142
139
134
134
134
134
132
132
134
134
132
132
132
134
137
139
139
137
134
134
137
134
132
129
129
127
125
125
125
122
122
122
125
120
120
122
122
122
125
125
125
129
132
132
132
132
129
125
122
120
117
163
161
159
156
154
149
144
142
139
137
134
134
134
134
129
125
125
127
127
125
125
129
129
127
122
120
125
129
132
132
129
127
127
129
129
127
125
122
120
120
120
120
120
120
120
120
115
115
115
115
115
117
117
120
125
127
127
127
125
122
120
117
115
110
142
139
139
139
137
137
134
129
127
125
125
125
122
122
117
117
120
120
120
120
120
122
120
117
117
115
115
120
125
125
122
120
117
117
117
117
117
115
112
112
112
112
110
110
112
115
112
110
110
112
110
110
110
112
117
122
120
120
120
115
112
112
110
107
127
129
132
132
129
129
129
127
122
120
117
112
110
110
110
107
110
110
110
110
107
107
110
112
112
112
112
112
115
115
112
115
115
115
112
110
110
110
107
105
105
107
105
103
103
105
105
105
107
105
105
105
107
107
112
112
115
115
115
110
110
110
110
110
125
125
127
127
125
122
122
120
117
115
107
105
103
103
100
100
103
103
103
103
103
105
110
110
110
105
100
105
112
110
107
107
112
112
112
110
107
105
105
103
105
103
100
98
100
103
103
105
105
105
105
107
110
107
110
112
112
112
112
112
115
110
107
107
122
122
122
122
120
117
115
112
112
110
105
100
95
93
91
91
93
95
98
98
100
105
105
110
110
105
100
103
107
107
105
103
103
105
107
105
103
103
105
103
100
100
98
98
100
103
103
103
103
103
105
105
105
105
105
107
107
110
110
110
110
105
103
103
120
117
117
120
117
112
107
105
107
107
100
95
91
86
89
89
91
91
93
98
100
105
105
107
110
107
103
103
105
105
105
100
98
100
103
103
103
100
100
98
98
98
98
95
95
98
98
100
103
103
100
100
103
103
103
103
105
110
110
107
105
105
100
105
110
107
107
110
107
103
100
105
105
100
98
93
91
86
86
91
93
91
93
95
95
100
103
105
105
105
103
100
105
105
103
98
98
98
98
100
100
100
98
95
98
98
98
98
95
95
95
98
100
100
98
98
98
100
103
105
105
107
107
107
107
107
105
107
100
95
98
100
100
100
100
105
100
93
95
95
91
91
91
95
93
93
93
93
95
98
100
103
103
103
103
103
103
103
100
98
100
100
95
98
103
103
100
100
100
98
98
100
98
93
93
100
103
103
98
98
100
103
103
103
103
105
103
100
103
105
105
105
95
93
98
100
100
105
105
103
98
93
98
95
91
89
89
91
95
98
95
93
95
100
100
95
95
98
98
98
95
98
98
98
100
100
98
100
100
98
100
100
100
103
100
100
98
91
93
100
103
100
98
100
98
100
103
100
100
100
98
100
103
100
103
103
98
98
103
103
103
107
105
100
100
98
95
93
89
84
86
89
91
95
95
98
98
103
98
91
91
91
93
91
95
95
93
95
95
100
100
103
98
95
95
98
100
103
103
100
95
91
93
98
100
100
98
100
98
100
103
100
98
93
98
105
105
103
103
100
103
100
103
103
100
100
103
98
98
98
93
91
89
84
86
91
93
93
95
98
98
100
95
91
91
91
93
93
95
95
91
95
100
98
100
98
98
93
91
93
95
98
98
95
93
86
91
95
98
95
98
98
100
98
98
98
98
95
98
103
103
98
100
100
107
105
103
100
100
100
100
95
95
93
91
91
89
84
84
93
98
95
98
98
95
98
95
89
89
91
93
93
91
93
91
93
98
98
95
95
98
93
91
93
95
93
93
95
93
86
91
95
98
100
98
98
95
98
98
98
98
95
95
100
98
95
98
98
107
103
98
95
100
100
95
93
95
93
89
89
89
86
84
91
93
95
95
93
95
95
91
84
84
89
93
95
93
89
91
93
95
98
95
95
98
95
93
93
95
91
89
93
91
91
91
93
95
98
95
93
95
98
98
98
100
98
95
98
98
95
100
98
107
100
98
98
98
95
89
91
95
95
91
86
84
84
84
89
95
95
89
89
91
93
89
84
82
89
93
95
93
89
91
91
91
91
91
91
91
93
95
95
93
91
91
91
89
91
93
93
93
93
91
89
91
91
93
98
98
95
93
93
98
100
98
95
105
103
103
103
98
93
91
93
95
95
91
86
84
82
82
84
89
89
86
86
91
91
91
91
89
91
93
95
95
89
89
89
89
86
89
89
91
93
93
93
95
93
91
86
84
86
91
91
86
86
89
91
91
89
91
95
93
93
93
95
100
98
95
98
103
100
100
95
95
93
91
91
89
89
86
84
84
80
80
86
86
89
91
91
91
91
89
93
91
93
93
95
93
89
86
89
89
89
89
93
91
91
93
93
93
89
86
86
86
86
89
89
84
86
86
86
91
93
91
93
93
93
93
93
95
93
93
93
95
95
91
91
91
91
89
82
84
84
82
82
82
80
78
82
84
86
89
91
93
89
86
86
86
91
93
91
89
89
89
91
91
91
91
93
91
93
93
91
89
89
84
84
84
84
86
91
86
86
84
86
91
93
95
95
93
93
91
93
91
89
89
91
89
89
89
89
89
89
86
84
82
80
78
76
76
74
72
76
84
89
91
91
89
86
89
91
86
91
93
91
89
84
89
89
86
86
86
89
91
91
91
91
89
89
84
82
82
82
84
91
91
89
89
89
91
95
93
95
93
89
86
89
93
91
91
93
78
80
82
84
86
86
84
80
76
70
70
70
68
70
72
74
80
82
82
84
84
82
89
93
91
89
86
86
86
86
86
86
86
84
84
86
89
89
86
89
89
89
86
84
80
82
82
86
91
91
91
89
89
91
93
95
93
86
89
91
91
91
91
91
76
76
78
80
80
80
76
72
70
66
68
68
68
70
72
74
76
78
80
84
84
86
89
86
89
89
84
82
84
86
86
86
84
84
86
86
89
84
86
95
93
89
86
82
78
78
80
82
84
89
89
84
82
84
89
91
91
89
93
93
93
93
91
89
80
74
72
74
74
72
70
70
68
66
64
66
68
68
70
72
72
76
80
82
84
84
82
82
84
89
84
80
80
86
86
84
84
89
89
84
86
84
89
93
91
89
86
80
76
74
78
82
80
80
86
84
80
84
86
89
89
91
93
95
93
91
89
86
80
74
72
72
72
70
68
70
68
64
62
62
62
62
62
66
66
70
74
74
74
74
76
76
78
82
84
82
80
82
84
86
86
91
89
86
84
84
84
84
89
91
82
80
80
78
78
84
82
82
84
86
86
86
89
89
86
91
95
91
89
89
86
86
78
74
70
70
70
66
64
62
62
62
62
58
57
58
58
60
60
62
64
64
64
66
68
68
70
72
76
78
80
82
80
82
84
89
91
91
84
82
82
80
84
86
82
78
78
80
84
86
84
84
84
86
86
89
89
89
89
89
93
93
91
89
89
91
78
74
70
68
64
60
58
57
60
62
60
57
55
57
58
58
58
58
58
60
60
62
62
64
68
68
68
68
72
76
78
78
80
82
84
84
82
82
80
78
80
82
82
82
82
80
82
82
84
84
89
86
84
86
86
86
84
86
89
93
91
91
91
91
72
70
66
60
60
60
58
57
58
62
62
60
57
57
57
58
58
57
57
58
57
60
58
60
62
64
66
64
62
70
74
74
74
74
76
76
76
78
78
78
78
78
78
80
84
82
82
82
84
82
86
84
82
84
86
86
86
84
84
86
89
91
89
86
68
64
62
60
58
58
60
58
58
60
62
60
58
57
57
58
60
60
57
55
57
57
58
60
58
62
62
58
60
64
70
72
70
72
72
72
72
72
70
68
72
76
78
80
80
76
76
80
82
80
80
84
84
86
89
86
84
84
84
82
82
84
86
86
70
66
64
64
62
58
55
55
58
60
62
62
60
58
58
58
58
60
57
57
58
57
58
60
62
64
62
64
62
64
68
72
72
70
70
70
68
70
72
68
70
74
78
82
78
76
76
78
78
78
78
78
80
89
91
86
84
84
84
84
84
80
82
84
70
68
66
64
64
58
57
57
58
58
60
62
62
58
57
57
55
57
57
55
53
57
58
60
62
60
60
64
62
64
68
74
72
70
70
72
66
68
74
70
68
70
74
76
74
76
80
82
80
80
78
78
78
84
86
84
82
84
84
82
84
82
84
84
70
68
68
66
64
60
58
58
58
58
60
62
64
62
58
55
58
58
58
55
53
57
58
60
60
62
66
66
64
66
68
70
68
66
68
70
68
68
70
70
68
70
72
72
70
78
84
84
80
78
78
78
78
82
80
80
80
80
78
78
80
82
82
82
68
68
66
64
64
64
60
58
60
60
62
62
64
62
60
57
60
60
62
57
55
58
57
57
62
64
66
68
68
68
72
66
66
66
68
70
70
70
70
70
72
72
72
72
72
78
84
84
80
76
78
78
76
76
78
80
78
76
74
76
76
78
76
78
66
66
62
62
66
66
64
64
62
62
60
60
64
62
62
57
57
57
60
57
57
60
57
58
66
66
64
64
64
68
68
70
70
72
74
72
74
74
72
70
70
72
74
74
74
78
82
80
78
78
76
76
78
80
80
78
78
74
76
74
74
74
74
78
70
72
66
64
64
68
70
66
64
64
62
62
64
66
64
60
57
58
58
58
62
62
57
60
68
70
68
66
64
70
72
74
74
74
76
74
74
76
74
72
72
72
76
76
76
78
78
78
78
80
80
80
80
80
78
78
80
76
78
76
74
74
78
78
72
74
72
70
68
70
72
68
64
66
68
64
66
66
64
64
64
58
58
58
62
64
62
62
68
68
68
72
72
70
72
76
78
76
76
74
76
80
78
76
78
74
74
78
80
78
80
78
78
82
82
78
78
82
80
78
78
76
74
74
74
72
76
76
74
74
74
74
72
76
76
72
66
68
68
68
64
64
68
64
62
60
60
60
62
68
68
66
68
68
68
70
70
70
74
80
82
82
86
82
82
82
82
82
84
80
76
78
84
84
84
84
82
84
80
76
78
82
82
78
80
78
76
72
72
74
76
76
74
74
76
76
74
74
78
76
70
70
70
70
64
64
66
66
62
66
64
66
68
72
70
68
70
66
68
68
70
76
78
78
80
82
86
86
84
84
89
86
80
82
80
80
84
89
86
84
86
86
82
78
80
80
82
78
80
82
78
72
70
74
74
76
74
72
76
78
74
78
82
78
76
78
74
70
70
72
72
70
70
72
72
74
74
76
74
72
72
68
68
74
74
78
76
76
78
78
84
84
82
84
89
89
82
80
82
84
86
89
86
84
86
86
82
82
84
82
82
82
82
82
78
72
70
70
70
76
80
76
78
78
78
80
84
82
80
80
78
76
76
78
80
82
80
80
82
84
84
82
78
74
70
66
70
72
74
72
76
78
80
82
84
84
82
86
84
84
82
78
84
86
84
82
82
82
84
86
82
84
86
86
86
84
84
82
76
74
74
72
74
76
84
78
78
82
80
80
82
84
82
82
82
80
84
86
84
84
82
84
86
86
86
82
78
78
72
68
70
68
66
70
74
80
84
82
82
86
89
86
84
86
82
82
86
82
80
78
78
80
84
84
84
86
86
86
89
86
86
82
76
76
78
76
76
76
80
78
82
82
82
82
84
84
82
82
82
86
89
91
89
84
86
84
86
86
82
80
80
78
72
70
72
70
70
76
80
86
86
86
86
89
89
84
84
86
86
89
89
84
84
82
80
78
82
82
80
84
84
89
91
89
84
82
76
78
82
80
78
74
82
80
84
82
80
82
82
80
82
84
89
89
86
86
89
89
89
86
84
84
80
82
80
78
74
70
74
74
78
80
84
86
86
89
89
86
84
82
86
89
86
91
93
89
84
82
82
82
80
80
78
82
82
86
91
89
84
80
80
80
82
78
78
78
89
86
86
82
80
80
78
82
86
89
91
91
86
82
86
89
89
86
82
84
86
86
82
80
78
70
68
70
76
78
82
84
89
89
89
84
84
86
91
93
89
84
89
89
86
82
82
82
80
78
80
84
86
86
89
89
84
82
80
80
80
78
76
78
91
91
86
86
84
80
84
89
91
93
95
93
91
86
89
91
89
89
89
89
86
91
89
80
78
72
70
70
72
76
82
84
86
86
86
86
84
86
89
89
86
84
86
86
84
84
82
82
82
80
80
86
91
89
89
89
86
84
82
84
80
78
76
78
91
91
89
89
89
89
91
91
93
95
93
89
93
93
93
93
93
98
93
91
89
89
89
86
80
74
70
72
72
76
78
82
82
80
82
86
89
86
86
86
86
86
86
89
89
84
82
82
80
82
80
86
91
91
89
89
89
86
89
86
82
80
78
82
91
93
93
93
91
91
91
91
91
95
89
89
95
93
91
91
95
98
95
89
86
84
84
86
80
74
72
72
72
74
80
78
76
76
80
84
84
84
84
84
84
86
89
91
91
86
82
80
82
84
84
86
86
89
89
89
89
89
91
86
86
84
78
82
91
91
93
93
89
86
93
91
91
93
91
89
93
95
89
86
91
93
93
86
86
84
86
86
82
76
76
72
74
74
76
78
76
76
78
78
82
80
80
84
82
86
91
89
86
84
84
84
86
84
84
84
86
86
89
91
89
86
89
89
86
80
76
80
91
91
89
91
89
89
91
91
91
89
86
89
89
93
91
86
89
89
89
91
86
86
86
91
89
80
76
76
76
74
72
78
76
74
78
78
78
80
78
78
80
84
82
84
86
86
86
86
89
86
82
82
84
86
86
86
86
84
84
84
84
82
78
78
91
91
86
86
86
89
93
93
86
86
86
86
89
91
89
86
86
86
89
89
89
91
91
91
91
86
80
78
74
72
72
78
78
72
80
80
78
76
74
74
78
80
82
84
82
86
82
84
89
84
84
84
82
82
82
86
89
84
84
80
80
82
82
80
86
86
86
84
86
91
91
91
86
86
86
86
86
86
84
84
89
91
89
89
89
91
91
89
91
89
82
80
78
72
72
76
76
76
80
78
76
76
76
76
80
82
82
82
80
82
80
84
89
82
82
82
82
82
84
86
86
89
86
82
82
86
86
86
89
89
91
91
89
86
86
89
89
91
89
89
89
89
89
86
86
86
89
86
86
86
93
91
89
89
84
82
78
74
76
76
76
76
76
76
74
78
78
78
78
80
80
84
82
82
84
84
84
84
84
84
86
86
86
89
91
91
91
86
86
89
89
89
91
91
91
93
91
86
86
86
86
91
89
89
91
95
93
84
86
86
82
86
89
91
91
91
86
84
84
80
78
76
76
76
76
74
72
74
74
78
76
76
80
78
78
84
84
84
84
82
78
86
89
86
89
89
84
86
91
91
91
89
84
84
86
86
86
91
91
91
91
89
86
86
89
91
89
89
91
98
91
84
84
86
84
86
91
91
86
86
86
84
86
80
78
78
76
76
74
76
74
74
72
76
76
76
76
76
78
80
80
82
84
84
86
91
89
84
84
86
82
84
89
91
93
86
86
89
91
89
91
93
91
91
91
89
86
89
91
91
91
91
91
93
86
82
82
84
84
84
84
89
89
84
84
84
86
82
80
78
76
72
72
74
74
76
72
76
74
72
74
74
78
80
78
82
86
84
86
86
82
82
82
84
84
86
91
91
91
86
84
86
89
86
91
91
91
95
91
89
86
91
91
89
93
91
93
89
82
82
84
86
86
84
84
86
89
84
82
84
86
84
84
80
78
70
70
72
72
72
72
72
70
70
74
76
82
82
78
82
89
84
80
84
86
84
84
89
86
89
91
86
84
86
86
86
86
84
91
89
91
95
89
89
86
91
93
89
93
93
89
84
82
82
89
93
89
89
89
86
86
89
89
84
86
89
86
86
84
78
74
76
74
68
70
70
70
72
72
70
74
80
80
80
84
84
84
84
86
86
84
86
89
89
91
86
82
86
84
86
89
89
91
91
91
89
86
86
86
86
91
89
89
91
91
86
84
86
89
89
84
86
86
89
91
91
89
86
82
86
86
84
84
82
78
76
76
72
70
70
68
70
72
70
68
74
80
78
80
84
86
86
86
86
89
91
93
91
89
86
86
84
80
82
84
84
86
89
89
86
91
91
91
91
89
91
91
91
95
93
91
91
89
84
82
84
89
91
91
93
89
86
82
80
82
86
84
82
78
74
72
72
72
68
66
70
72
74
72
72
80
84
80
84
89
89
89
89
93
95
91
91
89
84
86
86
82
84
86
89
89
86
86
86
93
93
93
91
89
89
89
91
91
91
86
84
84
84
84
82
86
89
89
91
86
84
84
84
84
84
80
78
76
74
72
72
70
68
68
70
74
80
78
76
80
84
82
84
89
89
89
86
89
93
89
89
91
86
86
84
84
86
89
91
93
89
86
86
93
89
89
91
86
91
93
93
89
86
86
86
86
84
89
86
86
84
86
89
86
86
86
84
84
80
76
74
76
76
78
78
76
74
72
74
74
80
82
84
82
84
84
86
84
84
89
89
89
89
86
89
89
91
86
89
84
86
86
89
93
91
91
89
89
89
86
86
89
89
91
91
84
89
89
86
86
89
89
89
89
86
84
86
86
84
82
82
80
78
80
80
78
78
80
78
78
78
74
74
74
80
84
86
86
84
82
84
82
82
86
89
91
91
86
89
84
86
86
91
86
91
91
86
