P2
# 204 of 608 Angiograms
64 64
255
194
196
196
196
192
178
149
120
95
84
80
82
84
86
89
82
76
74
72
74
76
84
100
127
147
156
161
163
165
163
161
159
154
154
154
151
151
151
154
159
165
165
163
159
154
154
149
142
139
137
137
142
142
142
139
139
139
142
147
147
144
142
139
137
192
192
194
194
192
182
159
132
105
86
80
80
82
82
84
80
76
72
70
72
74
80
89
112
137
154
163
165
165
165
163
163
156
151
151
154
154
154
154
156
163
163
163
161
156
154
151
147
144
142
139
142
144
144
144
144
142
139
142
142
144
142
142
139
192
192
190
190
192
186
165
139
117
93
84
80
78
78
78
78
76
74
74
74
76
78
84
98
125
147
161
165
165
168
168
163
159
151
154
156
156
159
159
156
159
161
161
161
156
156
154
151
147
144
142
137
142
147
144
144
144
139
139
144
144
144
139
137
192
190
188
188
190
188
170
144
125
103
86
80
74
74
74
76
80
82
80
78
80
80
80
91
110
134
156
163
168
170
168
163
159
154
154
156
156
159
159
159
159
161
163
163
159
156
156
151
147
142
142
144
144
147
147
147
144
144
142
147
144
142
137
134
194
192
192
192
192
188
170
149
134
112
93
82
74
72
70
72
78
82
84
82
82
82
80
84
100
125
147
163
168
170
168
163
161
159
156
156
154
159
159
159
163
165
163
165
165
161
159
154
147
139
142
147
149
149
149
149
149
147
147
147
144
142
137
137
196
196
194
194
192
184
168
151
142
122
100
82
72
68
66
68
72
82
86
86
82
82
80
84
93
112
137
156
165
170
168
165
163
163
161
159
156
161
161
159
163
165
163
165
165
163
161
156
147
142
144
149
151
151
149
151
151
147
149
144
147
142
137
137
196
196
194
194
190
180
165
154
147
134
107
84
70
64
64
64
68
76
84
89
86
82
82
82
89
100
127
151
163
168
168
165
165
165
163
163
161
161
161
161
165
168
165
165
163
163
161
159
151
144
144
147
149
151
151
151
151
147
147
144
144
144
139
137
194
194
192
192
186
176
161
149
149
144
122
91
72
60
62
64
66
72
82
89
89
86
84
84
86
95
115
139
161
165
168
165
163
163
165
165
165
163
163
165
170
168
165
165
163
161
159
159
156
147
144
147
147
149
151
151
151
147
144
142
142
142
137
137
192
192
190
190
184
172
156
147
149
149
137
105
76
62
60
64
64
70
78
84
86
89
86
86
84
91
105
129
154
165
168
165
163
161
165
168
170
168
165
168
168
168
165
165
163
163
159
159
159
154
147
149
149
149
151
151
154
147
144
142
142
139
137
137
190
192
190
190
182
168
151
144
149
156
147
122
89
70
62
64
64
66
76
82
86
89
89
84
82
89
100
120
144
163
168
165
165
161
163
168
170
170
172
172
170
168
165
163
161
163
161
161
159
154
149
149
147
147
147
149
151
147
142
142
144
139
139
137
190
190
190
188
180
165
147
142
147
156
151
137
107
80
70
68
66
68
72
80
89
91
89
84
84
89
98
112
137
161
168
168
168
168
165
168
170
170
172
172
170
168
168
163
161
163
161
156
154
151
149
149
151
144
144
149
149
147
144
144
142
139
137
134
188
188
188
186
180
161
139
137
144
151
154
144
125
98
80
72
70
68
70
76
93
95
89
86
86
93
98
107
127
151
168
170
172
172
170
170
172
172
174
172
170
168
165
165
163
161
156
151
149
149
147
149
151
144
144
144
144
147
144
139
137
137
132
132
188
186
184
184
178
159
137
129
137
149
154
151
139
120
95
78
72
72
72
76
91
100
91
86
89
95
98
105
120
144
165
172
172
174
172
172
172
174
176
176
174
172
165
165
161
161
156
149
147
147
144
144
149
144
142
142
142
142
137
137
134
132
129
129
188
186
184
184
178
159
137
125
129
144
151
151
149
137
117
95
82
76
78
80
86
95
93
89
91
95
98
105
117
137
163
172
174
174
174
174
174
174
176
178
178
174
168
163
159
159
156
149
147
147
147
144
144
142
142
142
139
137
134
132
132
134
132
129
186
184
184
182
178
159
137
122
125
137
149
154
154
149
137
117
98
86
82
84
84
91
93
93
93
95
98
105
115
134
161
172
176
176
178
176
176
176
176
178
178
174
170
163
159
159
156
151
149
147
144
142
142
142
142
139
137
134
132
132
134
134
132
129
184
182
184
182
178
159
134
120
120
132
144
151
154
154
149
137
122
105
91
86
86
89
93
98
103
100
103
107
117
132
156
170
174
176
178
178
176
178
180
180
178
176
170
165
161
159
156
151
147
147
144
139
139
139
139
134
132
132
134
132
132
129
132
129
182
180
182
180
174
159
134
122
122
129
139
147
149
149
149
147
139
125
112
100
95
95
100
105
107
107
110
115
120
132
149
168
174
176
178
178
176
178
180
180
178
174
172
168
161
159
156
154
151
149
144
139
139
137
134
132
134
132
132
129
127
129
132
129
184
180
178
178
172
159
134
125
122
127
134
139
144
144
147
149
147
142
132
122
112
110
110
112
115
117
120
120
122
129
142
163
174
178
178
176
176
178
180
180
178
176
172
170
163
156
154
156
154
151
144
139
134
129
129
129
132
132
132
125
125
127
129
129
184
180
176
174
168
159
139
127
122
125
132
137
137
144
144
147
144
144
142
137
129
125
117
115
120
122
125
122
122
129
139
154
170
180
180
178
178
178
178
180
182
178
174
172
168
161
154
154
151
149
139
134
132
129
129
127
129
132
129
125
122
125
129
129
184
178
174
170
165
161
144
129
122
125
134
139
139
142
142
139
139
142
144
144
142
137
127
120
120
125
129
127
125
127
134
147
165
174
178
180
180
180
178
180
182
180
176
172
172
168
159
154
149
144
137
137
134
129
127
125
127
132
129
125
125
125
129
129
182
176
172
168
165
163
151
134
125
125
137
142
139
142
139
139
142
142
147
151
149
144
137
127
122
125
127
129
127
125
129
142
156
170
176
178
180
180
182
182
182
180
176
174
172
170
163
154
147
142
132
132
134
129
127
127
129
129
127
125
125
127
132
132
180
176
172
170
168
165
156
139
127
127
139
142
142
142
142
139
142
147
149
154
154
149
144
137
127
122
125
129
127
120
127
134
149
163
174
178
180
180
182
182
182
180
178
174
172
168
163
156
147
142
134
129
129
129
129
132
127
127
127
125
125
127
127
132
180
176
174
172
172
168
161
144
132
129
139
144
144
142
144
142
147
149
151
154
154
151
147
144
137
127
125
127
125
122
125
132
142
156
170
178
182
182
182
182
180
182
180
176
170
168
165
159
151
144
137
132
132
132
132
132
127
129
129
127
127
127
129
134
178
178
176
174
174
172
165
151
137
134
142
147
147
144
149
147
147
151
151
151
154
154
151
149
144
137
127
122
122
122
127
129
137
149
161
174
180
182
184
182
182
184
180
176
170
168
168
163
154
147
142
134
132
132
129
127
127
127
127
127
129
129
132
134
178
178
178
176
176
174
168
156
142
142
144
151
154
149
147
147
149
151
149
149
151
154
154
154
151
144
137
129
125
122
127
129
134
142
154
165
176
182
184
182
182
180
178
174
168
168
170
168
156
149
144
134
129
132
132
127
129
132
125
125
132
129
125
129
178
180
180
178
178
176
172
161
149
144
147
156
159
154
151
149
151
151
151
149
149
154
154
154
156
156
149
139
132
125
129
129
132
137
144
156
168
176
180
180
178
176
174
172
170
170
172
170
163
151
147
139
134
134
137
132
129
129
127
127
132
132
125
125
178
180
180
180
180
176
174
165
154
149
151
159
163
159
156
154
154
156
154
151
149
154
154
156
161
163
159
149
142
132
127
127
132
134
139
147
156
168
172
174
172
172
170
168
170
172
172
170
165
156
149
142
137
137
137
134
129
127
127
127
132
132
127
125
178
180
180
178
180
178
176
170
159
151
154
161
163
161
159
159
159
159
159
159
154
151
154
159
161
163
163
159
151
142
132
127
127
132
134
134
144
156
165
170
168
170
168
170
172
174
172
170
165
161
151
147
142
139
137
137
132
129
129
129
132
129
127
125
176
178
178
178
178
178
178
172
163
156
156
163
165
163
163
161
161
159
161
161
156
154
156
161
159
161
163
163
161
154
142
129
127
129
129
127
132
142
154
161
165
170
168
170
172
170
168
168
165
163
156
149
147
142
139
137
137
129
127
132
132
129
127
125
178
178
178
178
178
178
178
174
168
159
156
163
168
168
168
168
161
161
163
163
161
159
159
161
161
163
165
165
165
163
154
137
127
125
125
122
122
129
139
151
159
163
165
168
170
168
165
165
168
163
161
151
147
144
139
137
137
137
129
134
134
129
129
125
178
178
176
176
176
176
174
174
170
159
156
163
172
172
170
168
163
163
165
163
163
161
161
163
165
168
168
168
168
168
161
147
134
125
122
117
115
120
127
137
149
159
163
165
168
168
165
165
168
165
161
154
147
144
142
139
139
137
134
134
134
129
129
127
178
176
174
176
178
176
178
176
172
161
156
163
172
174
174
168
165
163
163
163
161
161
163
165
170
170
168
168
170
170
163
156
142
129
122
115
115
117
125
125
134
147
159
163
168
165
165
168
168
165
161
154
149
144
144
144
139
134
137
134
134
132
129
127
178
174
172
176
180
180
182
180
174
161
156
161
170
174
172
168
168
168
163
161
159
161
163
168
170
168
168
165
165
163
161
159
149
139
127
117
110
115
117
120
122
132
144
156
163
168
168
168
165
163
159
151
149
147
147
144
139
137
137
137
134
134
134
132
178
172
172
176
182
184
184
182
174
161
154
161
170
170
172
168
168
168
165
161
161
163
165
165
168
165
163
161
161
161
161
161
156
147
134
122
112
110
110
115
120
125
132
142
151
161
165
163
163
161
156
151
149
149
149
147
144
139
137
137
132
137
137
137
176
172
170
176
184
186
188
186
176
163
154
159
168
170
172
170
168
168
168
165
165
165
168
165
165
163
161
159
159
161
163
161
161
154
144
132
120
112
107
110
117
122
127
132
139
149
156
159
159
156
154
149
147
149
149
151
149
144
139
137
134
137
137
137
178
174
174
176
182
186
188
186
178
163
154
156
168
172
170
170
170
168
168
168
168
168
168
165
161
161
159
159
161
161
161
163
165
161
151
142
129
120
112
110
115
120
122
125
129
137
144
151
154
154
151
149
149
149
149
147
149
147
144
139
139
137
134
134
178
176
174
176
180
184
186
186
178
163
154
154
163
170
168
168
168
163
163
168
170
170
165
161
159
159
159
159
161
163
163
165
168
163
156
151
142
132
120
115
112
112
117
122
125
127
134
139
147
151
151
151
151
151
149
147
147
149
149
147
144
139
137
134
178
174
176
178
178
182
184
184
176
163
154
154
163
168
168
168
165
161
161
163
168
165
161
159
156
156
159
161
161
163
165
165
168
163
159
154
149
142
129
117
110
107
110
115
122
127
127
129
134
142
147
149
149
149
149
147
147
149
149
149
147
142
137
137
178
176
176
178
178
180
182
182
176
163
154
151
161
168
168
168
165
161
161
161
161
159
156
154
159
156
159
161
163
165
168
168
168
165
159
154
151
147
142
129
117
110
107
112
117
122
122
122
125
132
137
139
142
142
144
144
149
151
151
149
149
144
137
137
178
178
180
180
178
178
180
180
174
165
154
151
161
168
170
170
165
161
159
156
154
156
154
154
156
154
154
159
163
165
168
165
165
165
159
154
154
151
144
139
129
117
112
112
112
117
120
122
122
125
129
137
137
137
139
142
149
154
156
156
154
149
142
139
178
178
180
180
178
176
176
176
174
168
156
154
163
168
170
170
163
159
156
156
154
156
154
156
156
156
156
161
159
163
165
163
163
161
159
154
154
151
147
142
139
127
117
115
112
115
117
117
117
120
125
129
134
137
139
142
151
154
156
159
156
151
144
139
178
178
178
178
174
172
174
176
174
170
159
156
163
170
170
165
159
156
154
154
154
154
154
156
156
159
159
159
161
163
163
159
161
161
159
151
151
151
151
147
144
142
127
117
117
120
120
115
110
115
120
122
127
134
139
144
149
151
156
156
156
151
149
142
178
178
176
176
172
172
172
174
174
172
163
161
165
168
168
163
156
151
151
154
156
154
154
156
156
159
159
161
163
161
163
159
161
159
156
151
149
154
156
156
154
149
142
125
117
117
117
112
110
110
115
115
117
125
134
142
149
151
156
156
156
151
149
147
176
176
176
176
174
174
172
174
174
172
163
161
165
168
168
161
154
151
149
154
154
151
154
156
156
161
161
161
163
163
161
159
159
156
154
154
154
159
161
161
159
159
151
137
117
112
110
107
107
107
110
110
112
117
125
134
144
149
154
156
154
147
149
149
174
176
178
176
176
176
174
172
174
172
163
163
168
170
165
161
156
154
151
154
154
151
154
156
159
161
161
163
163
163
163
161
156
156
156
159
161
163
163
163
163
161
156
147
125
110
103
98
103
105
107
107
107
112
120
127
137
144
149
149
147
144
147
147
176
178
180
180
178
178
176
172
174
170
163
163
165
168
165
161
156
154
154
156
154
156
154
156
156
161
163
165
165
165
165
163
161
161
161
163
161
163
165
165
168
163
159
156
134
115
103
100
98
98
98
100
103
105
112
120
127
134
139
139
139
139
142
142
182
182
182
182
180
178
178
176
172
170
163
161
163
163
163
161
159
156
154
156
156
156
156
154
154
156
161
165
165
165
163
161
161
159
159
161
161
163
168
168
170
163
161
159
147
125
107
98
93
93
91
91
93
98
105
112
117
122
129
132
134
137
137
137
184
184
186
184
182
182
180
178
174
170
161
159
163
163
161
159
159
159
156
159
161
159
156
154
154
159
161
165
168
163
159
159
159
159
156
159
163
165
165
165
165
165
163
161
154
139
120
103
95
91
86
84
84
89
93
100
105
112
117
122
127
129
127
125
186
186
188
186
186
184
182
178
174
168
156
159
165
163
159
154
159
161
161
159
161
161
159
156
159
161
161
163
163
161
161
163
163
161
156
156
161
161
161
163
163
163
165
163
159
151
134
117
100
91
84
80
82
82
89
91
93
98
105
107
110
112
112
112
182
184
188
186
188
186
182
178
172
168
156
159
165
161
154
154
159
163
163
163
165
163
159
159
161
161
161
161
159
161
163
168
165
163
161
159
159
156
156
161
161
163
163
163
161
159
149
134
117
98
86
80
76
78
82
84
86
89
93
98
100
100
100
100
180
180
184
186
188
184
180
174
170
165
156
161
161
161
154
151
156
159
163
165
165
163
159
161
163
163
161
161
163
165
168
170
170
165
161
159
156
151
154
156
161
161
163
163
163
161
156
149
134
117
98
86
80
76
80
84
84
84
86
93
95
93
93
95
182
182
184
188
186
182
176
174
170
163
156
159
161
161
156
156
159
159
163
165
163
163
163
163
163
163
161
161
165
168
168
172
172
168
161
156
156
154
154
156
161
163
163
163
161
161
159
154
147
137
120
100
91
84
82
84
84
84
86
89
89
86
89
91
184
182
184
186
182
178
174
172
168
161
156
156
161
161
161
161
161
163
165
165
163
163
165
163
163
161
159
161
165
168
168
170
172
168
161
156
154
151
151
154
159
161
161
159
159
159
159
156
151
147
137
122
107
95
89
86
86
86
86
82
80
78
80
84
188
184
184
182
178
176
174
170
168
161
156
159
161
161
165
163
163
165
165
163
163
163
165
163
161
161
163
165
165
168
168
170
170
165
159
151
151
151
154
156
159
159
156
156
159
159
159
159
156
149
147
142
129
115
103
98
95
93
91
86
82
80
80
82
188
184
182
178
176
174
172
172
170
161
159
161
163
163
163
163
163
165
165
161
161
161
163
161
159
159
163
165
165
165
165
168
165
161
156
154
154
156
156
154
156
156
156
159
161
161
159
161
156
154
151
151
144
134
125
115
110
105
100
95
89
86
84
86
184
180
178
174
174
172
172
172
168
161
159
161
163
165
163
163
163
163
161
159
159
159
161
163
161
161
163
165
165
163
165
168
165
161
159
159
156
156
156
154
156
159
159
161
163
161
159
161
156
154
156
156
151
144
142
137
129
122
117
110
103
95
91
89
180
178
174
172
170
170
170
170
163
159
159
161
163
163
163
163
161
159
159
161
159
159
161
163
163
163
165
165
163
163
165
165
165
163
159
161
161
161
159
159
159
161
161
163
163
165
161
161
156
156
156
156
154
147
147
147
147
142
134
127
120
110
100
93
178
176
172
170
170
168
168
165
159
154
159
165
163
163
161
161
159
156
159
159
159
161
163
163
165
165
170
170
168
165
165
165
165
165
163
163
163
165
163
159
159
161
163
165
168
168
163
161
159
159
156
156
156
149
147
151
154
154
151
144
137
127
117
107
174
172
168
170
170
168
165
161
156
151
156
161
159
156
156
154
151
154
159
161
159
163
163
163
163
165
168
170
170
168
168
165
165
165
165
165
165
165
165
163
163
163
165
170
170
168
168
161
159
159
156
154
154
151
149
151
156
156
156
154
149
142
134
125
172
170
170
172
172
168
165
159
154
154
156
156
156
154
151
149
149
156
159
161
163
163
161
161
161
165
168
168
168
168
168
163
165
168
170
168
163
163
168
168
168
168
165
168
170
170
168
161
156
154
154
151
154
154
151
154
159
156
156
156
154
149
147
142
170
172
174
174
172
165
163
159
156
154
154
156
156
154
149
147
151
159
161
163
163
165
163
163
165
168
168
168
165
170
170
168
168
170
168
165
165
165
168
168
168
168
168
172
172
170
168
161
154
156
154
151
151
154
156
156
161
161
159
159
156
154
151
151
168
172
176
174
170
165
161
156
154
151
156
156
156
154
149
151
154
156
159
161
163
163
163
163
165
165
165
165
165
170
172
170
170
168
165
165
163
165
165
165
165
168
170
172
170
168
165
161
156
154
156
156
156
159
159
159
161
161
161
161
159
159
156
156
170
174
174
172
170
165
161
154
149
151
156
159
156
154
154
154
154
154
154
156
161
161
159
159
163
165
165
165
170
172
172
172
170
165
161
159
159
163
163
165
165
165
168
170
168
165
163
161
161
156
156
154
156
156
161
161
161
161
161
159
156
156
159
156
170
170
170
170
168
165
159
151
151
154
159
161
159
154
154
154
151
149
151
154
156
159
159
159
163
165
170
168
170
172
172
172
168
163
161
156
159
161
163
165
168
165
168
168
165
163
159
159
159
159
159
156
156
154
156
159
159
159
159
159
156
159
159
156
