P2
# 205 of 608 Angiograms
64 64
255
176
199
206
207
199
168
127
100
89
84
80
82
91
103
107
103
93
95
89
86
93
107
134
154
159
159
159
161
159
159
156
151
156
159
156
156
159
156
154
156
159
159
156
159
163
165
170
174
176
178
180
178
180
182
180
176
172
168
163
159
149
139
137
132
176
199
207
207
199
174
139
107
93
86
84
86
89
98
107
103
93
93
84
82
86
98
120
144
159
159
159
159
159
156
151
149
156
156
156
154
159
156
151
156
159
156
154
159
163
165
172
176
176
178
178
178
176
180
180
178
174
170
163
159
151
144
139
137
176
201
207
207
197
178
154
120
100
93
89
89
89
91
100
103
95
91
80
74
78
89
107
132
154
159
159
159
159
156
154
151
156
156
156
156
161
159
154
159
161
161
161
165
168
172
176
178
178
180
180
178
174
176
178
178
174
170
161
154
151
147
144
142
178
202
207
206
194
178
165
139
110
100
95
93
91
89
95
100
98
91
76
70
72
80
95
122
147
156
159
159
159
156
154
151
151
154
159
161
163
163
161
159
161
163
163
168
170
174
174
176
178
182
178
178
176
176
176
174
170
163
156
151
149
147
147
144
180
202
207
204
190
178
172
159
129
110
100
95
91
89
95
100
100
91
74
66
64
70
84
110
137
154
159
156
156
154
154
154
154
154
159
159
163
165
168
165
163
163
165
170
172
176
176
174
176
178
176
178
178
176
174
170
165
161
154
154
151
149
149
147
180
201
207
204
188
176
174
172
151
125
105
98
93
91
93
98
98
91
74
64
60
64
76
98
125
147
156
156
154
154
154
154
151
151
156
161
165
170
168
168
165
165
170
172
172
176
178
176
176
178
178
180
178
174
174
168
163
159
156
156
154
151
149
144
182
202
207
202
186
174
174
176
172
147
117
100
95
91
89
95
98
91
74
64
60
64
72
89
112
139
151
159
159
154
154
154
151
151
156
163
165
168
170
170
168
168
172
174
176
178
178
176
176
178
178
178
172
170
170
168
163
159
154
151
151
149
149
147
184
202
207
202
184
174
174
180
184
170
137
110
98
93
86
93
95
91
74
66
64
62
70
82
103
129
147
156
159
156
154
151
151
156
163
165
163
168
170
170
170
170
172
174
176
176
174
172
176
178
176
172
168
168
168
165
165
159
154
151
151
151
151
149
186
204
207
202
182
172
174
182
192
188
161
125
105
98
91
91
93
91
78
68
66
66
70
78
93
120
144
154
156
156
154
154
156
163
165
165
165
168
170
170
170
170
172
174
174
176
172
174
176
174
172
168
163
163
163
165
165
159
154
154
151
151
149
147
186
204
207
201
182
172
172
182
194
197
178
147
115
105
95
93
93
93
82
70
64
66
68
74
86
112
137
151
156
154
156
156
161
168
168
168
170
172
174
172
172
174
176
178
176
174
172
172
170
170
165
165
163
161
159
161
163
161
156
151
149
147
144
144
182
202
207
201
184
174
174
182
188
194
186
165
137
112
100
95
91
95
86
74
68
68
70
74
84
103
132
147
151
154
156
159
165
170
170
172
174
174
174
176
174
174
176
178
174
172
170
165
163
163
163
165
163
159
159
161
161
161
159
151
149
147
142
139
178
199
204
201
188
178
176
180
184
186
184
178
159
134
110
100
93
95
93
78
70
68
72
76
82
100
125
139
149
151
159
163
168
168
172
174
176
176
174
174
174
174
174
174
170
168
165
163
161
161
163
165
163
159
156
161
161
161
159
149
144
142
139
139
172
197
204
202
192
178
174
178
180
182
182
182
172
159
134
112
98
95
93
82
72
68
74
78
84
98
122
137
147
151
161
168
168
170
170
174
176
176
174
174
174
174
174
170
168
165
163
161
161
161
161
161
159
156
156
156
159
159
156
149
144
142
139
137
168
194
204
204
192
178
172
170
174
176
178
180
180
174
159
137
112
98
93
89
78
74
78
82
89
98
117
134
144
151
159
165
165
170
170
172
176
176
174
176
174
172
172
168
163
161
159
159
159
159
159
156
154
154
154
156
156
159
156
149
147
139
137
137
163
190
202
204
192
176
165
161
170
178
178
180
182
182
176
161
137
112
95
89
86
82
82
84
91
100
115
132
144
151
154
161
163
163
168
172
176
176
174
172
170
170
168
165
163
159
159
161
159
159
159
156
154
154
154
154
156
156
156
149
147
139
134
134
159
188
197
199
192
174
156
151
161
174
176
178
184
188
184
176
161
139
112
98
91
89
89
89
95
100
112
129
142
151
151
156
161
161
165
172
176
174
172
170
168
168
168
165
163
159
159
163
163
163
161
159
156
156
154
154
156
159
159
149
144
139
134
134
156
186
194
196
190
172
156
151
156
168
174
174
180
184
186
182
174
161
137
112
100
95
93
93
95
98
110
125
142
151
151
154
156
159
165
170
174
172
170
165
163
165
165
165
163
159
161
163
163
163
161
159
159
156
154
156
156
156
154
147
142
139
139
137
154
182
192
192
190
174
159
151
154
165
172
172
178
182
184
186
182
174
159
134
112
105
100
95
98
100
105
120
137
149
151
149
149
156
163
168
168
168
165
163
163
163
161
163
163
161
161
161
161
159
156
159
159
156
154
154
154
154
149
147
144
142
142
139
149
176
192
194
190
176
163
154
151
161
170
174
178
182
184
184
184
182
172
154
132
112
107
100
98
100
103
115
129
147
151
149
149
156
159
161
161
161
161
161
161
161
161
159
159
159
159
159
159
156
154
159
159
154
151
151
156
154
149
149
147
147
142
139
137
163
188
194
192
182
168
156
151
159
170
176
178
182
184
184
186
186
180
170
149
127
112
105
100
98
103
112
125
139
149
149
149
151
151
151
151
154
156
159
156
159
159
154
151
156
159
156
159
156
156
159
156
156
151
154
156
154
149
151
149
144
142
139
115
142
178
192
192
188
174
159
154
156
170
180
180
180
186
186
188
188
186
178
163
142
120
110
103
98
100
107
122
134
144
144
149
149
147
147
149
151
154
156
159
161
159
151
151
156
159
159
159
159
156
159
159
156
151
154
159
156
151
154
151
142
139
144
86
107
156
188
192
190
178
165
154
156
168
182
182
182
186
190
190
190
186
182
174
156
137
120
110
105
103
107
115
127
139
144
149
149
149
147
149
149
151
156
159
161
161
156
156
159
161
159
156
156
154
156
156
156
154
154
159
156
154
156
151
144
139
142
64
78
117
172
188
192
186
170
159
156
165
182
186
184
186
190
192
192
188
184
178
168
151
132
120
115
110
112
117
122
134
142
147
151
151
149
149
151
151
154
159
161
161
161
159
159
161
156
154
154
154
151
154
154
154
156
156
156
156
159
154
149
144
142
47
52
78
139
182
192
190
178
163
159
163
178
186
184
186
188
192
192
188
184
180
172
163
147
127
117
115
115
117
117
122
137
144
149
151
151
154
156
156
156
159
163
165
161
159
159
156
154
149
154
156
154
156
156
154
156
156
156
159
159
154
149
144
142
36
37
50
93
159
186
190
182
168
161
161
174
184
184
186
188
188
188
186
182
178
174
168
156
137
122
112
112
110
107
117
127
139
149
154
156
156
156
159
156
159
165
168
163
159
159
159
154
151
154
154
154
156
156
151
151
154
156
156
156
151
149
142
144
34
28
35
57
110
168
186
182
170
163
161
172
184
186
188
188
188
188
184
182
178
174
170
161
144
127
112
110
103
100
107
117
129
144
154
156
161
159
159
156
159
165
165
165
161
161
161
154
154
154
151
154
156
154
151
154
156
156
156
156
149
147
147
144
39
29
30
41
70
122
170
178
170
163
161
170
182
186
188
186
186
186
184
182
180
172
170
163
151
129
117
107
100
100
103
110
122
134
147
156
161
159
159
156
156
161
163
163
163
163
163
156
154
154
154
154
151
151
151
154
159
156
156
154
147
147
147
144
48
39
36
41
55
84
129
165
168
165
163
170
182
188
190
186
186
186
184
180
178
172
170
163
154
137
122
110
98
98
103
103
112
125
137
149
159
159
159
156
156
159
159
161
161
163
161
156
156
156
154
151
149
149
149
154
156
159
156
151
147
149
144
147
74
53
47
50
58
74
100
139
163
165
165
170
182
190
188
184
182
184
180
178
176
172
165
159
156
144
129
115
105
100
103
103
103
112
127
139
149
156
156
156
159
161
161
161
159
159
156
156
161
156
154
151
149
147
147
154
156
156
154
151
147
147
149
149
105
78
64
60
62
74
93
120
144
161
165
168
178
186
184
182
182
182
178
176
172
168
156
154
156
151
137
122
112
105
103
100
98
103
115
129
142
149
154
156
159
161
159
156
154
154
151
156
159
154
154
149
147
147
147
151
154
154
151
149
144
144
149
149
149
117
98
84
82
84
98
117
134
149
159
165
174
182
184
182
182
178
174
172
168
159
149
154
156
154
149
134
122
112
105
100
98
100
105
117
132
142
151
154
154
154
154
149
149
147
149
149
154
154
151
151
151
147
147
149
154
151
151
149
147
142
149
149
182
165
144
127
115
110
112
127
139
142
149
159
168
178
182
180
178
178
174
170
163
151
149
154
154
156
156
147
132
122
112
103
100
100
100
110
120
134
144
151
154
154
149
144
142
144
144
147
147
149
151
151
151
151
149
154
156
154
151
149
147
144
149
149
194
190
182
170
156
147
144
142
144
144
147
151
161
172
180
180
180
178
174
170
161
151
151
154
151
159
161
156
147
132
117
107
100
98
98
105
112
122
137
147
154
154
149
147
142
144
147
147
147
147
149
151
151
151
154
156
159
156
151
149
149
147
149
147
197
196
192
188
182
176
165
156
154
151
149
149
154
165
176
182
182
178
174
170
161
154
154
151
154
156
159
159
154
142
127
117
107
98
98
103
110
115
125
137
147
154
154
151
149
147
149
149
149
149
151
151
151
151
154
156
156
156
154
151
149
149
149
144
196
196
197
194
190
188
184
176
165
159
154
149
151
161
172
178
180
174
170
168
161
156
154
151
151
156
156
159
156
151
139
122
112
105
98
103
107
112
117
127
139
149
154
154
151
149
149
154
154
154
154
154
149
151
154
156
159
161
159
154
151
149
147
147
196
196
197
196
194
192
192
190
184
172
161
151
151
161
172
174
174
170
168
168
163
159
154
147
151
156
156
156
159
154
147
134
122
115
105
103
105
107
115
120
129
139
147
149
149
147
149
154
154
154
154
154
154
156
161
161
159
159
156
154
151
151
149
149
196
196
196
196
197
197
199
197
192
184
170
156
154
159
170
172
172
170
170
168
165
161
156
149
151
156
154
156
159
156
154
147
134
122
115
107
105
105
112
117
122
129
137
142
142
142
147
151
154
154
156
159
159
161
163
161
159
159
156
154
151
151
149
151
196
194
194
196
199
201
202
201
197
190
176
159
154
156
168
172
172
170
170
170
168
161
156
154
154
156
156
161
161
159
156
154
147
137
125
117
110
110
112
115
117
120
125
132
139
144
147
149
154
156
156
161
161
163
165
165
161
156
154
154
151
151
149
149
194
192
194
196
197
201
202
201
197
192
178
159
149
151
163
170
170
170
170
170
168
161
159
156
156
156
159
161
163
163
161
159
156
149
137
125
117
115
117
115
115
112
115
122
132
139
147
151
156
154
159
161
163
165
168
165
163
159
154
151
154
151
151
154
194
192
192
194
196
197
197
199
196
188
174
154
142
144
159
168
168
170
170
170
165
163
161
161
159
159
159
163
163
165
163
161
161
159
151
139
125
117
117
117
112
107
112
117
122
132
142
151
156
156
156
161
163
168
168
165
163
161
156
154
156
151
154
156
194
190
188
190
192
194
196
196
192
182
170
151
137
139
151
163
165
165
168
168
168
165
163
163
159
159
161
163
165
165
168
163
163
163
159
151
134
120
117
115
110
105
107
112
117
125
134
144
154
156
156
159
163
165
163
163
163
165
161
154
154
151
151
149
192
188
188
188
188
190
192
190
184
178
172
151
137
137
147
161
165
165
165
168
168
168
165
163
159
156
156
159
163
165
170
168
165
165
163
159
147
127
117
110
110
110
107
112
115
117
127
137
149
156
156
159
161
163
161
163
165
165
161
154
149
149
142
142
190
188
186
184
186
186
186
184
180
178
172
154
142
139
147
161
165
163
163
165
170
172
168
163
159
156
156
159
165
172
172
170
170
168
168
163
156
137
120
107
105
105
110
115
117
115
120
129
142
149
156
156
156
161
163
163
165
165
161
156
151
144
142
142
186
184
182
182
180
180
180
180
180
180
174
159
144
139
144
161
165
165
163
165
170
170
168
163
163
161
161
161
168
172
172
170
170
168
168
168
163
147
127
110
100
100
105
110
115
115
117
122
132
144
149
151
154
159
163
163
168
168
161
159
154
147
142
142
180
178
178
176
174
176
178
180
182
180
174
161
147
142
144
161
165
165
165
168
168
168
165
163
161
161
161
161
165
172
170
168
168
168
170
170
168
159
139
120
103
100
98
100
105
110
112
117
122
129
137
144
147
151
159
163
163
163
161
156
151
147
142
142
176
176
174
172
176
178
178
180
180
178
176
161
147
142
147
161
165
165
165
165
168
165
165
163
163
161
159
163
163
165
165
165
165
165
170
172
170
165
151
132
112
103
95
95
98
100
105
110
115
117
122
129
134
142
147
149
154
154
154
149
147
144
142
142
176
176
174
176
178
176
178
180
180
178
176
161
144
142
147
161
165
165
165
168
170
165
163
163
161
161
161
165
165
163
163
163
163
168
170
172
170
170
165
147
129
110
100
93
93
93
93
98
100
105
107
112
117
125
132
134
137
139
142
139
139
137
137
137
174
176
176
178
176
176
178
178
178
178
174
161
139
139
149
163
165
165
168
170
172
168
163
163
161
161
161
163
165
163
163
165
165
168
170
172
172
172
172
165
144
127
110
98
93
91
93
93
93
93
98
103
105
110
115
120
122
122
125
122
120
117
117
120
174
176
178
176
176
176
178
178
180
178
172
159
137
134
149
161
165
165
168
168
170
168
163
161
159
159
161
163
165
165
165
165
165
165
168
172
176
176
174
172
163
144
125
107
100
95
95
93
91
86
89
98
103
105
105
107
112
112
115
115
112
105
103
100
172
176
178
176
178
176
176
178
180
178
172
159
137
132
144
159
163
163
165
168
170
168
163
159
156
159
159
161
163
165
163
161
161
165
170
172
178
178
176
176
172
163
144
125
110
103
95
91
89
86
84
91
100
103
103
103
107
110
110
110
110
105
103
100
170
174
176
174
176
176
174
176
178
178
172
159
134
132
142
156
163
168
165
168
170
168
161
159
156
159
159
159
159
161
159
156
159
165
170
172
178
180
180
178
176
172
163
144
125
112
103
95
91
89
86
89
95
100
103
103
100
105
105
103
105
107
107
105
170
174
174
174
174
174
174
174
174
174
170
156
137
132
139
156
163
168
168
168
168
163
159
159
159
159
159
159
159
156
159
159
161
165
170
176
180
182
182
180
178
178
174
163
147
129
115
105
100
95
93
91
95
98
103
100
100
100
100
100
98
98
98
100
172
174
174
172
172
172
172
172
172
172
165
154
137
134
144
156
161
163
165
168
163
159
159
159
159
159
156
161
161
159
161
163
165
168
172
178
180
180
182
182
180
182
180
176
168
154
137
120
112
107
103
103
98
95
100
98
95
95
95
98
95
93
91
93
172
172
174
172
170
165
165
170
170
170
163
154
139
139
149
161
161
161
163
163
159
156
159
161
159
156
154
159
163
163
161
165
170
172
172
176
176
178
182
182
184
184
180
180
176
172
163
149
134
122
115
110
105
100
98
95
93
93
95
93
91
89
89
86
170
170
170
168
163
163
165
168
170
165
161
151
142
142
154
165
161
159
161
161
156
156
161
159
156
151
154
161
163
165
165
168
172
170
172
172
172
176
180
184
184
184
182
180
180
178
176
172
161
147
132
122
115
107
103
98
91
91
91
89
84
84
84
82
168
168
168
165
163
163
165
168
165
163
163
151
142
147
159
165
163
159
159
159
154
154
159
156
156
154
159
165
168
165
165
170
172
172
172
172
174
178
178
180
182
182
180
180
180
178
178
178
176
170
156
144
129
117
110
103
93
89
84
80
80
82
82
82
168
168
165
165
163
161
163
168
168
165
163
151
142
149
161
165
168
165
163
161
156
154
159
156
159
161
163
165
168
165
168
172
172
172
172
176
178
180
178
178
178
178
176
180
180
176
178
180
182
178
170
161
149
137
125
115
105
95
86
80
78
76
76
74
168
170
168
165
165
165
168
168
168
165
161
149
147
151
165
170
172
170
168
165
161
161
159
159
163
163
161
161
163
165
168
172
172
170
172
174
176
174
174
174
176
176
176
176
174
174
174
176
176
178
176
170
165
156
144
134
122
107
98
91
86
84
80
74
172
172
170
165
168
168
168
168
170
165
159
147
149
156
168
172
174
172
170
165
165
163
163
161
161
161
159
159
161
163
165
168
168
170
172
174
172
172
170
172
172
172
174
174
172
170
170
172
174
176
176
174
172
170
163
156
147
134
120
105
93
89
84
80
172
172
168
165
165
163
163
163
165
163
154
147
147
159
170
172
174
172
168
168
165
168
165
163
161
161
159
159
161
165
165
168
168
172
174
172
172
170
170
170
172
170
168
168
165
165
165
165
170
172
174
176
174
174
172
170
165
159
147
132
117
105
98
95
170
168
165
163
161
159
156
156
161
161
147
142
144
156
163
170
170
168
168
168
168
168
165
165
163
159
154
154
159
163
165
165
168
172
170
170
170
170
170
170
168
165
163
163
163
163
165
163
165
168
172
172
172
172
172
174
170
168
163
156
147
137
127
122
165
163
161
159
159
156
151
154
156
151
139
137
144
156
161
163
163
161
161
163
165
163
161
159
156
151
149
149
151
159
163
163
165
170
168
170
170
170
170
168
163
161
163
161
156
161
163
161
163
165
168
168
168
170
172
174
172
172
168
163
161
156
154
149
165
161
159
156
156
159
156
156
156
142
132
132
142
149
154
156
156
156
156
156
154
151
151
149
147
147
144
142
144
149
156
161
163
163
163
163
163
163
165
165
161
161
163
159
159
161
163
161
163
163
165
168
165
168
170
172
172
172
168
165
168
165
163
165
161
161
161
159
161
163
161
159
147
132
129
132
137
142
147
149
154
156
154
154
149
147
142
142
142
139
137
134
139
144
151
156
156
159
161
156
159
161
163
163
163
165
163
159
159
156
156
156
159
161
163
165
165
165
165
168
170
170
168
168
168
165
168
168
