P2
# 211 of 608 Angiograms
64 64
255
209
207
197
163
129
112
103
98
100
103
103
110
112
115
112
112
115
122
132
149
172
184
186
186
184
186
186
186
186
184
182
180
178
178
172
170
165
156
151
144
137
127
120
110
105
103
103
105
112
120
137
151
154
156
156
159
159
156
154
149
149
149
151
151
207
207
202
174
139
117
105
100
100
103
103
107
115
122
117
117
120
120
125
142
163
178
184
186
186
186
186
184
184
184
182
182
180
178
174
174
170
168
163
161
156
151
144
134
125
112
107
107
110
115
120
137
149
154
154
154
156
156
154
154
154
154
156
151
207
209
204
184
149
125
107
100
95
95
98
103
115
122
122
117
117
117
120
132
154
174
180
184
186
186
182
182
184
186
184
182
180
178
176
174
174
170
170
165
163
163
159
154
149
134
122
112
110
112
115
122
137
149
151
151
154
156
159
159
156
156
156
151
207
207
206
194
161
132
110
103
93
95
98
100
107
117
120
120
117
115
112
125
144
165
178
182
184
182
182
180
186
188
188
186
184
178
176
176
176
174
172
168
165
163
163
159
156
151
142
129
120
115
115
115
122
137
147
149
151
151
154
154
151
151
154
149
207
207
207
199
170
139
115
105
95
95
98
98
103
115
120
122
122
120
112
120
134
156
172
180
182
182
182
184
188
192
192
190
186
180
176
176
176
174
172
168
165
165
163
161
156
156
149
142
129
125
117
115
117
125
137
147
147
147
149
149
149
149
151
147
209
209
209
202
180
147
122
107
103
95
95
98
100
110
120
122
125
125
120
120
125
144
165
178
182
182
184
188
190
192
194
190
186
182
176
174
174
174
172
168
168
168
165
163
156
154
151
149
142
129
120
115
115
120
129
139
142
142
142
144
147
149
149
147
209
209
209
206
188
159
129
112
105
100
98
98
95
103
117
125
127
125
122
120
122
132
154
174
182
182
184
190
194
194
194
190
186
182
176
174
174
176
172
168
165
165
165
163
159
156
154
151
147
137
125
117
115
117
122
134
139
142
139
142
144
147
144
144
209
209
210
206
194
168
139
122
107
103
100
98
98
100
110
122
127
127
125
120
120
125
142
163
180
182
184
188
192
192
192
186
184
182
176
174
172
174
170
165
161
161
163
161
161
159
156
154
151
142
129
117
115
115
120
129
137
137
137
139
137
139
142
142
211
210
210
207
199
178
149
129
115
107
105
100
100
103
105
117
122
127
127
120
117
120
129
149
172
182
184
188
188
190
190
186
182
182
178
176
174
170
168
165
163
161
161
161
161
161
159
156
154
147
134
122
115
110
112
122
134
134
137
134
134
134
137
142
213
211
210
207
202
186
159
137
122
110
105
103
103
105
103
112
117
125
127
117
117
117
120
134
159
178
186
188
188
188
188
184
184
182
180
176
172
170
165
165
165
161
159
159
161
159
156
156
154
151
139
127
115
112
112
117
127
134
134
134
137
137
137
137
214
211
210
209
204
192
168
144
129
115
110
105
105
103
103
105
115
117
122
117
112
112
115
122
142
165
182
188
186
186
184
182
182
180
178
176
172
170
168
165
165
161
159
159
159
159
156
154
151
151
147
132
120
112
112
112
117
127
134
134
132
134
134
132
213
210
210
209
206
197
176
154
134
122
112
107
103
100
103
103
110
117
120
112
110
110
110
115
127
149
172
184
186
184
182
182
180
178
178
174
170
168
168
168
165
159
159
159
159
159
156
151
151
151
149
139
125
115
112
110
110
115
127
132
134
134
132
125
211
210
210
210
207
199
180
165
147
129
117
110
105
98
100
100
105
115
120
115
110
110
110
112
120
137
156
176
182
182
182
184
182
178
176
172
168
165
165
165
161
156
154
156
159
159
156
154
151
151
149
144
132
120
115
110
107
107
115
125
132
129
125
115
213
211
211
210
207
201
184
174
159
142
125
115
105
93
100
105
103
110
117
117
115
115
115
115
117
127
144
163
178
182
184
184
180
178
174
170
165
163
163
163
156
154
154
154
151
154
156
159
154
151
151
149
142
129
120
112
105
105
110
117
122
122
115
100
213
211
210
209
209
201
184
178
172
156
137
122
107
98
100
105
105
105
115
120
120
120
120
117
117
122
134
149
170
180
184
182
178
174
170
165
163
163
161
161
159
156
156
156
154
154
154
156
156
151
151
149
147
137
129
117
110
105
110
112
117
112
100
93
213
211
210
209
209
201
186
182
180
174
156
134
117
107
105
105
105
103
107
117
122
125
125
120
117
117
125
137
154
172
178
176
172
168
163
163
161
161
161
159
159
159
161
159
156
156
154
156
156
154
154
154
151
139
134
127
115
110
110
110
112
103
93
89
211
211
211
210
209
201
186
182
182
184
178
156
132
120
110
105
103
103
103
112
122
127
127
120
115
117
117
125
139
156
170
170
168
161
159
159
161
161
161
159
161
163
161
159
159
156
156
156
159
159
159
156
151
142
137
134
122
112
110
112
107
100
93
93
211
211
211
211
210
201
186
182
184
192
194
178
154
132
120
112
110
107
105
107
120
129
127
120
115
112
112
117
125
142
159
163
161
156
154
154
159
161
161
159
161
161
159
156
159
159
156
154
156
159
156
156
151
142
137
139
129
120
112
112
110
105
103
107
210
211
213
213
211
201
186
184
188
196
201
197
176
149
132
120
115
112
110
110
117
127
127
120
110
107
107
110
117
129
144
156
156
151
149
154
159
161
159
156
159
159
159
159
161
161
159
156
154
156
156
154
151
144
142
142
139
127
117
112
112
115
115
120
210
211
211
213
211
201
186
184
190
199
207
206
196
172
147
132
122
117
112
112
112
122
125
115
107
105
110
112
115
122
137
149
151
149
151
156
159
161
161
154
159
163
165
163
163
163
161
161
156
154
154
154
151
151
147
147
144
137
127
122
120
122
125
132
211
211
211
211
211
199
184
184
190
201
207
210
207
194
170
147
134
122
117
115
112
117
120
110
105
105
110
115
115
120
129
144
149
151
151
154
159
161
161
159
161
163
168
165
163
163
161
159
154
151
154
151
149
151
149
147
147
142
134
129
129
129
132
139
210
210
211
211
210
199
186
182
188
197
207
211
211
206
192
170
149
134
127
120
117
115
115
110
107
107
112
115
112
115
129
142
149
154
156
156
161
163
163
161
161
161
161
161
159
159
156
154
151
151
151
151
149
151
149
149
149
142
134
132
132
132
137
139
209
210
211
211
210
199
186
180
184
194
202
210
213
210
202
190
172
154
142
129
120
115
110
112
112
112
112
112
115
117
129
142
151
156
156
159
161
163
165
163
161
161
161
161
159
156
154
154
154
154
151
156
154
154
151
151
147
139
134
129
132
134
137
137
209
209
210
211
209
199
186
180
184
190
199
206
210
210
206
199
186
172
159
144
132
125
120
120
120
117
115
117
115
120
127
139
149
154
156
159
159
161
163
163
161
161
161
161
159
156
154
154
156
156
154
159
161
159
156
151
147
139
134
132
132
134
134
134
209
210
210
210
209
199
188
182
182
188
196
202
206
207
206
201
194
184
174
161
149
137
127
125
122
120
122
120
117
120
127
137
147
151
156
159
159
163
165
165
161
159
161
159
156
154
154
154
154
154
154
159
161
159
156
151
144
139
137
134
139
139
137
134
209
211
213
211
209
201
188
180
180
186
194
201
204
204
204
201
194
188
182
176
168
156
144
132
127
120
120
117
120
122
125
134
139
149
156
159
161
165
165
163
163
161
161
159
156
156
156
156
154
154
154
156
156
156
154
149
144
139
137
137
144
142
137
134
210
213
214
211
209
202
190
180
180
184
190
196
199
201
199
196
192
188
184
182
178
172
161
149
134
125
120
120
122
120
125
129
134
144
156
161
161
161
161
161
163
161
159
159
159
159
159
159
156
154
154
156
156
156
154
149
147
142
139
139
142
142
137
134
213
215
214
213
210
202
190
180
180
182
186
192
194
194
194
192
190
186
186
182
180
178
174
163
149
134
125
120
120
117
120
125
132
137
149
159
159
159
161
165
168
165
161
161
161
159
159
159
156
154
156
156
159
154
154
151
147
142
142
147
144
137
132
129
214
215
215
213
210
204
192
180
178
178
182
188
188
188
188
190
188
186
184
180
180
178
176
172
165
149
137
125
122
122
122
122
125
132
142
151
156
159
163
168
170
172
165
161
161
161
156
156
151
154
156
156
154
154
154
149
147
144
142
147
142
134
132
132
217
217
215
211
209
202
194
180
176
174
176
182
186
186
184
186
188
186
182
178
178
176
176
178
172
163
149
137
127
127
127
125
122
127
134
144
151
156
161
165
168
170
165
161
159
159
156
151
149
149
151
151
151
151
149
147
147
147
147
144
137
134
132
132
219
217
215
211
207
199
190
180
170
170
172
178
182
184
182
182
184
182
180
180
176
172
172
176
178
170
161
149
139
132
127
127
127
129
132
139
144
151
159
163
165
168
168
161
159
159
159
151
149
149
149
151
151
151
147
144
144
144
144
139
137
139
137
134
219
217
213
209
202
194
186
174
168
163
168
174
182
184
180
176
176
178
178
176
176
172
174
176
178
174
168
163
151
142
134
132
129
129
132
137
139
144
151
156
163
165
165
161
161
161
161
156
151
151
149
151
149
151
149
147
149
144
139
137
139
142
142
139
217
214
209
202
196
188
178
170
163
159
161
168
176
182
178
172
170
172
174
178
174
174
176
180
178
176
170
168
165
154
144
137
134
127
127
134
139
142
144
149
154
159
159
156
161
163
161
156
151
149
149
151
151
151
151
149
149
142
139
139
142
142
144
144
210
206
201
194
188
180
174
170
161
154
154
159
170
176
178
174
170
172
174
176
174
172
176
178
178
176
174
174
174
168
156
147
139
129
125
129
134
137
137
142
147
154
156
159
159
159
156
151
149
147
149
149
151
151
151
149
147
144
139
139
142
142
147
149
199
196
192
186
180
174
172
170
161
151
147
151
163
174
176
176
174
174
174
176
176
174
176
176
176
174
178
178
176
174
168
159
149
137
129
129
134
134
132
134
139
147
154
159
159
154
151
151
149
147
149
149
151
154
149
147
144
144
142
144
142
147
149
147
188
186
184
180
174
170
170
170
163
151
147
147
156
170
176
178
178
178
176
176
174
174
174
172
174
176
178
178
176
176
172
168
156
144
134
129
127
129
129
132
134
139
144
151
151
151
149
149
149
149
151
154
154
151
147
144
144
147
147
147
144
144
147
147
180
180
178
176
170
168
170
170
163
151
147
147
156
168
174
178
180
178
176
174
172
172
172
172
176
178
182
180
176
174
174
172
165
151
139
132
127
122
120
125
129
132
137
142
147
149
149
149
149
151
151
151
154
151
147
147
147
149
151
151
144
144
144
147
178
178
176
170
170
168
168
170
163
151
147
147
156
168
172
178
178
178
174
172
170
170
172
174
176
178
180
178
174
174
172
172
170
161
147
137
129
122
115
117
122
125
127
132
137
142
142
142
144
147
149
149
154
154
147
147
149
151
154
151
147
147
144
147
176
176
172
170
168
165
168
170
165
154
144
147
156
168
172
176
176
174
174
172
170
170
172
172
172
174
174
172
172
172
172
170
172
170
159
147
139
132
122
117
120
120
120
122
127
132
134
139
142
144
149
154
154
154
149
151
154
159
156
151
149
147
144
149
170
172
170
168
163
161
163
165
165
156
144
144
154
165
172
174
172
172
172
172
172
172
170
168
170
170
172
172
170
168
165
165
170
172
168
156
147
139
132
125
120
117
115
117
120
122
127
132
134
142
151
156
156
154
154
154
156
156
154
149
151
151
149
151
161
168
165
161
159
159
161
163
163
154
144
144
149
161
170
172
170
168
170
172
170
172
170
168
168
168
170
170
168
168
165
165
168
172
170
165
156
149
139
134
127
120
117
117
117
117
117
120
122
132
142
154
156
156
154
154
154
154
151
154
154
151
151
154
151
156
156
156
156
159
159
161
159
151
144
142
144
154
163
168
168
170
170
170
170
168
168
165
165
165
168
165
168
168
168
168
168
168
170
168
163
156
149
139
132
125
120
115
112
112
110
107
110
115
129
142
149
149
151
151
156
154
156
156
154
149
149
154
144
149
151
151
151
154
156
156
154
149
139
137
139
149
159
161
163
161
163
163
163
163
163
163
163
163
161
161
163
163
163
163
161
161
161
161
161
161
154
147
137
129
120
115
112
110
105
105
105
110
115
127
137
144
147
149
151
149
154
159
154
151
151
154
137
144
147
147
147
149
151
151
151
144
132
129
134
144
151
159
159
159
159
161
161
159
161
163
161
159
156
159
159
159
159
161
159
154
151
151
154
154
151
149
144
134
122
115
112
107
105
103
100
105
110
117
125
134
139
144
147
149
151
154
151
154
151
154
134
139
142
144
147
149
151
151
151
139
127
125
129
139
147
154
156
159
159
159
159
159
161
161
159
159
156
159
161
159
159
159
156
151
151
149
149
149
149
149
144
137
127
117
107
105
103
98
98
98
103
107
115
120
125
132
137
144
147
147
147
147
147
147
134
139
142
147
149
149
151
154
149
134
125
120
120
129
142
149
154
156
156
156
156
156
159
159
159
159
159
156
159
159
159
156
149
149
149
149
149
149
147
142
137
134
127
117
105
103
95
91
89
89
91
93
98
100
105
110
117
122
125
125
125
127
127
129
134
137
142
147
151
149
149
149
144
132
120
115
115
122
132
139
144
144
144
147
147
147
147
149
149
149
149
147
144
144
142
142
139
137
137
134
134
132
129
125
122
122
120
112
105
95
86
80
80
78
76
74
74
78
80
84
86
91
93
93
93
95
95
98
134
139
144
147
144
144
144
139
137
125
115
107
110
120
127
129
129
127
127
129
132
134
132
132
132
129
129
127
127
125
122
120
117
117
115
112
112
112
110
107
107
112
112
107
98
86
80
72
70
68
68
66
62
62
62
62
66
68
70
70
70
70
70
72
129
137
142
142
139
139
137
134
129
117
107
100
105
115
122
125
122
117
117
120
120
120
122
120
117
115
115
112
112
112
110
112
112
110
107
105
103
103
103
103
103
105
105
98
91
86
80
70
68
68
66
62
60
60
57
55
53
57
58
62
64
64
64
62
127
132
134
137
134
132
129
127
122
112
103
98
103
112
120
122
120
120
117
117
115
112
112
112
110
107
112
110
110
110
107
110
107
105
103
103
98
98
100
100
100
98
100
95
93
89
82
74
66
68
64
60
60
57
53
50
48
53
55
57
62
60
58
58
122
129
132
129
129
125
120
120
117
107
100
95
100
110
115
117
120
120
120
117
112
110
107
105
105
107
110
110
110
110
107
105
103
103
103
100
95
95
95
95
95
95
100
98
95
93
86
78
68
66
64
62
57
53
52
50
50
50
53
55
57
57
55
53
117
127
132
132
127
120
115
115
112
103
98
98
100
107
117
117
117
117
117
115
115
110
105
103
100
103
105
103
103
103
103
100
98
98
95
91
89
89
91
91
93
95
95
93
95
93
89
82
74
66
64
60
57
53
52
50
50
47
47
48
50
52
52
48
117
127
134
132
127
120
115
112
107
98
95
95
98
105
115
115
115
117
115
115
112
110
105
107
105
100
100
98
100
100
98
91
91
91
89
89
84
84
84
84
86
89
91
93
93
91
91
86
78
74
68
64
58
55
53
53
50
47
48
48
48
48
50
48
120
125
134
134
127
120
112
110
105
95
89
93
98
103
107
112
117
117
115
112
107
103
103
105
103
100
98
95
95
98
95
93
93
91
89
84
82
82
82
84
86
89
89
91
93
93
91
89
82
80
74
68
62
57
55
53
50
50
53
52
52
50
47
47
120
125
129
132
127
122
112
110
100
89
82
91
100
105
107
107
112
112
112
110
103
100
100
98
100
100
100
98
95
98
95
95
93
89
86
82
82
82
80
82
86
86
86
89
91
93
91
91
86
84
82
78
72
66
62
60
57
53
55
57
53
50
48
47
120
125
127
127
127
122
117
112
98
82
82
93
103
107
107
107
110
110
110
107
98
98
95
98
98
98
95
95
93
93
93
95
95
91
84
84
84
82
80
78
82
86
86
89
93
95
98
95
91
89
86
84
82
78
72
66
64
62
58
58
57
52
53
52
117
125
125
127
127
125
120
112
91
80
84
93
105
112
110
110
110
110
110
103
98
95
98
98
95
93
93
91
89
91
91
91
95
93
89
86
82
80
82
86
89
91
91
93
93
95
95
93
91
86
91
91
89
84
82
78
72
68
66
62
58
57
53
55
115
120
125
125
122
120
117
105
89
82
86
93
100
107
110
110
107
103
103
98
95
95
93
93
93
95
95
93
91
93
93
93
93
93
89
84
82
86
91
91
93
93
93
93
93
95
93
93
93
91
95
93
91
89
89
86
80
76
74
70
66
60
57
55
115
120
120
120
120
120
112
100
86
82
86
95
100
105
107
105
103
100
98
98
98
98
95
93
95
98
95
93
93
95
95
93
93
93
89
86
89
91
91
91
93
91
91
95
95
98
95
91
93
93
95
98
91
86
86
86
84
84
80
80
74
68
64
62
115
120
120
120
117
115
105
93
84
84
89
98
100
103
103
100
100
100
100
98
98
100
98
98
103
100
95
95
95
98
93
93
93
91
91
89
93
91
89
93
93
93
95
93
93
95
95
93
93
93
93
93
91
86
84
84
86
84
82
84
82
76
74
72
110
115
117
115
112
107
98
89
84
86
93
98
100
100
100
98
95
98
98
98
98
98
98
98
103
98
95
95
98
95
93
93
91
91
93
91
91
89
89
93
95
93
93
91
91
93
93
95
93
93
93
91
86
86
86
86
86
89
86
86
91
82
84
84
110
110
112
112
110
103
93
86
84
86
93
95
98
98
95
95
95
100
100
100
100
98
95
98
100
98
93
95
98
93
91
93
95
95
95
93
93
89
93
95
93
93
93
91
93
93
93
91
91
93
95
91
84
86
89
89
89
91
91
89
91
86
86
89
107
110
112
112
105
98
89
86
84
89
95
98
100
95
93
93
98
100
100
103
103
100
98
98
98
98
93
93
93
91
93
95
95
95
95
95
93
91
93
93
93
93
91
89
93
93
93
91
91
91
93
93
89
86
86
89
91
91
91
89
86
86
86
89
105
110
110
107
100
91
84
84
86
91
98
100
100
98
95
93
95
98
98
100
103
103
98
95
100
98
93
93
93
91
93
93
93
93
95
93
91
91
93
91
93
93
93
91
93
91
93
89
91
91
93
95
93
84
84
84
91
93
91
89
84
86
86
89
