P2
# 213 of 608 Angiograms
64 64
255
211
219
220
219
217
215
209
194
174
142
122
115
112
105
98
91
91
95
103
110
105
107
110
112
120
134
151
170
174
172
172
170
168
168
163
161
159
163
161
161
163
163
163
161
156
156
159
161
159
156
156
156
156
156
154
151
151
149
147
142
139
134
129
122
210
217
219
219
217
215
209
196
184
159
132
117
112
100
91
86
86
91
93
103
103
100
103
110
115
125
139
161
172
172
172
170
170
168
168
165
165
163
161
163
161
163
163
161
156
156
159
159
159
156
154
156
154
156
156
154
151
151
149
142
139
137
139
132
209
215
218
219
217
214
207
197
188
176
147
125
115
98
89
84
84
89
89
95
98
98
100
105
112
120
129
149
168
174
172
172
172
170
168
168
165
163
163
163
161
161
161
156
156
159
159
159
154
154
151
156
154
156
156
156
151
151
147
144
137
134
142
139
207
215
217
219
218
213
206
196
188
182
165
134
115
98
89
86
84
86
86
89
95
98
98
103
110
117
125
139
159
172
174
170
170
170
168
168
165
165
165
163
161
161
161
156
156
156
156
154
151
154
156
159
159
159
161
159
154
149
144
139
132
134
139
142
206
215
218
219
218
211
202
192
182
182
178
154
125
105
93
89
84
84
86
89
93
98
98
103
107
112
122
132
149
165
172
170
168
168
165
165
165
165
165
163
159
161
161
159
159
156
154
154
151
151
154
156
156
159
161
156
149
147
139
134
134
139
142
142
207
215
219
220
218
210
197
184
178
178
180
172
144
115
100
91
89
84
84
86
91
95
98
103
105
110
120
127
139
156
168
170
165
163
163
163
165
165
163
163
159
161
159
161
156
156
156
156
154
151
151
154
156
156
156
151
149
144
139
137
137
142
142
144
209
217
220
219
215
206
188
178
172
174
176
178
165
137
115
103
93
89
86
89
93
98
103
105
107
110
117
125
134
149
163
168
165
163
163
161
163
168
163
161
159
161
163
163
159
159
156
156
154
154
154
156
156
154
151
151
149
144
142
142
142
144
147
147
210
218
219
217
211
197
180
170
168
168
174
178
176
163
137
117
105
98
93
93
98
98
100
110
110
110
115
122
132
147
159
165
165
163
163
163
165
165
163
159
156
159
165
168
165
163
159
159
159
156
156
154
151
149
149
149
149
142
139
139
144
147
147
144
211
217
215
213
206
192
174
161
156
161
170
178
182
178
165
142
122
110
100
98
100
100
103
107
112
112
112
120
132
144
159
168
168
165
163
165
163
163
161
159
161
159
163
168
165
163
163
159
156
154
154
151
149
147
147
149
147
142
142
142
144
144
142
139
210
213
213
210
201
186
168
154
149
154
163
178
184
184
178
168
147
129
117
110
105
103
105
105
110
112
110
117
132
144
156
168
168
165
161
161
161
161
161
163
163
159
161
165
165
165
161
156
154
154
154
149
147
147
147
147
144
142
144
144
144
142
139
139
206
210
209
206
196
180
161
147
142
147
159
172
182
184
182
180
170
154
139
129
122
115
110
110
107
112
115
120
129
139
151
165
170
170
165
163
163
161
163
165
165
161
161
163
163
163
161
154
154
154
151
149
147
147
149
147
144
147
144
144
142
142
142
142
197
204
202
199
190
176
156
142
139
147
156
168
178
182
182
184
178
172
163
151
139
129
122
117
112
115
120
120
125
132
142
159
170
172
170
165
165
163
165
165
165
163
161
161
161
161
159
154
154
151
149
149
147
147
147
149
149
149
147
144
144
144
144
144
188
194
196
190
182
172
156
137
134
144
156
163
172
180
182
186
182
178
176
172
163
149
137
129
125
120
120
122
125
129
134
147
163
172
172
165
165
163
163
165
165
165
161
161
161
161
156
154
154
151
149
149
151
151
149
149
151
149
149
147
147
147
144
144
176
186
186
182
174
170
156
139
134
142
156
163
168
174
180
184
182
178
178
178
176
172
159
144
134
127
122
122
127
129
132
137
149
165
168
165
165
165
168
168
165
165
163
161
161
161
159
156
154
149
151
151
154
154
151
151
154
151
151
149
149
149
144
147
165
174
176
172
170
168
159
139
134
142
156
163
163
172
178
182
180
178
180
180
180
176
172
161
147
137
129
122
125
125
125
129
139
151
165
170
168
168
168
165
165
165
161
161
159
159
159
159
154
154
154
149
154
154
151
151
154
156
154
154
154
149
147
147
154
165
168
168
168
168
159
142
137
142
156
165
168
170
176
178
180
180
180
180
180
176
176
172
161
147
137
132
127
125
127
127
129
142
154
163
165
165
163
161
159
161
159
159
156
156
159
159
154
151
151
149
151
154
154
154
156
156
156
156
154
149
149
151
144
161
165
168
168
168
159
144
139
144
154
168
170
170
174
176
178
180
180
180
178
174
174
176
170
159
144
139
132
125
125
125
127
132
144
154
161
163
159
156
156
154
154
156
154
154
161
159
156
151
151
154
154
154
151
151
159
159
156
156
154
149
149
151
134
156
165
170
170
168
161
149
147
149
151
168
174
174
172
172
174
176
178
178
174
172
174
174
172
168
156
144
139
129
122
125
127
127
134
144
154
161
159
156
156
154
154
154
154
156
159
159
154
154
154
156
151
154
154
154
159
159
154
151
154
149
149
149
120
147
163
172
172
168
161
151
147
149
151
163
172
172
170
170
172
174
174
172
170
172
174
174
170
172
165
156
147
139
129
125
127
122
127
134
147
154
161
161
159
156
154
151
154
156
159
159
156
154
154
154
149
154
159
156
159
156
151
151
154
149
151
154
95
125
147
161
168
165
156
151
144
147
149
156
163
163
165
165
170
172
170
170
170
170
172
170
172
172
170
165
156
147
139
129
127
125
125
129
134
144
156
161
161
156
154
149
151
154
154
154
154
154
151
147
144
151
156
161
161
154
151
151
151
154
154
154
58
74
103
127
139
144
142
139
134
129
129
132
134
139
144
151
161
165
168
165
165
165
165
168
170
170
170
168
163
154
144
139
132
127
127
129
127
132
142
151
156
154
154
149
149
151
151
151
149
149
149
149
147
151
156
161
161
154
151
149
151
151
154
156
36
41
50
68
78
82
80
78
78
78
80
84
91
98
107
122
139
154
159
161
161
161
163
165
168
170
170
168
165
159
154
147
139
129
127
125
122
125
129
134
144
149
149
149
151
149
151
147
147
147
144
147
147
149
156
159
159
156
154
154
151
149
151
156
26
26
30
35
37
39
39
39
41
47
55
64
74
80
86
95
110
129
147
151
154
156
159
163
165
170
170
170
165
161
161
154
147
137
127
120
117
120
122
127
132
137
144
149
151
149
144
144
144
142
144
144
147
149
154
154
156
156
156
156
156
151
151
154
25
24
26
27
28
30
33
35
33
36
45
55
64
70
74
80
91
110
129
144
149
151
154
159
163
168
170
168
165
165
168
163
154
144
132
125
115
112
115
117
122
127
134
142
149
151
144
144
142
139
142
144
149
149
151
154
154
154
151
154
154
151
151
151
26
26
26
27
28
28
31
34
34
35
41
50
60
66
70
74
80
91
112
129
139
147
149
151
156
161
165
165
165
165
170
168
161
149
137
127
122
115
112
115
117
117
122
132
139
144
144
142
139
139
139
144
144
147
147
149
149
149
147
149
149
147
144
144
33
31
33
33
31
33
35
36
36
37
45
53
62
68
70
72
76
80
95
117
129
137
142
144
147
154
156
159
159
159
161
163
159
149
137
127
122
117
110
110
112
112
115
117
125
132
134
134
134
134
134
137
137
137
137
137
139
139
137
137
134
134
134
137
48
45
45
44
43
43
44
45
45
45
52
58
66
74
74
76
76
76
84
100
117
129
134
137
142
144
149
151
151
151
151
151
149
142
132
122
117
110
103
98
91
91
93
98
103
107
112
112
115
115
117
120
120
120
120
117
117
120
120
120
120
120
117
120
84
78
80
80
78
74
66
62
58
58
64
72
78
80
82
80
78
78
80
91
107
120
127
127
127
129
129
132
132
129
129
129
129
125
120
112
107
100
93
84
78
76
76
80
82
84
86
89
93
95
98
95
95
98
95
95
95
98
100
100
100
98
98
100
125
122
122
122
122
117
103
89
82
80
82
86
91
95
93
89
82
80
80
86
100
115
120
122
122
120
117
117
117
120
117
112
112
115
112
112
105
98
89
80
74
72
72
74
76
74
76
76
78
80
82
82
82
82
84
82
82
82
84
84
84
82
84
84
139
139
139
139
139
139
134
125
110
98
95
95
100
107
105
95
89
82
82
86
98
112
120
122
122
117
115
117
117
117
117
112
110
110
110
110
105
98
93
84
76
70
72
74
72
70
70
70
72
74
76
78
78
80
78
76
76
76
76
76
76
76
78
76
142
139
139
137
137
139
142
134
125
110
100
100
105
115
112
103
95
89
84
91
100
112
120
122
120
115
112
115
117
117
115
112
107
103
103
103
100
95
93
89
80
74
68
72
70
72
68
64
64
66
68
72
74
76
80
78
74
74
78
78
76
78
80
80
137
137
137
137
137
137
137
139
132
120
107
103
107
117
117
110
98
93
91
95
103
112
117
120
117
115
112
110
115
115
110
107
105
103
98
98
93
91
91
89
86
80
74
70
70
70
70
66
66
68
68
70
70
70
76
78
74
74
72
76
78
82
84
82
134
139
137
139
142
139
137
137
134
125
110
103
107
115
120
110
100
95
95
98
105
115
117
117
115
112
110
112
112
110
105
103
105
105
100
95
89
89
93
91
89
86
80
74
72
70
68
66
64
64
64
64
66
64
68
72
74
72
70
70
74
76
76
76
132
137
137
139
142
139
134
137
137
125
112
103
103
110
115
110
100
95
93
95
103
112
120
117
110
105
107
112
112
110
105
105
105
103
98
95
91
91
93
91
89
89
86
80
74
72
68
62
64
62
62
62
60
62
64
68
68
66
66
66
66
68
70
70
127
132
137
139
139
137
137
137
137
125
112
103
100
107
112
107
98
91
86
93
100
105
110
110
105
105
107
107
112
107
100
100
103
98
98
95
93
91
93
89
89
91
89
84
78
72
68
62
60
60
60
60
58
57
60
64
64
64
68
66
62
62
62
62
122
127
129
134
134
134
134
134
132
122
110
103
100
107
110
105
95
86
86
89
93
100
105
107
105
105
105
107
105
100
103
103
100
98
100
100
93
89
91
89
89
91
93
89
82
74
70
66
62
58
58
57
57
58
60
60
62
66
70
66
64
60
58
57
122
127
129
129
132
132
134
134
129
122
110
103
100
105
107
100
91
86
84
86
91
98
103
107
107
105
105
105
103
103
103
100
100
100
103
103
98
93
89
84
89
91
91
91
86
80
74
72
68
60
57
57
55
53
57
58
57
58
62
60
60
60
58
55
125
127
129
129
129
132
132
129
125
120
107
98
98
100
103
98
89
82
80
86
93
98
105
105
107
105
105
107
110
107
107
100
98
100
103
103
103
100
93
91
89
91
91
91
89
84
80
76
72
66
58
58
57
55
53
55
53
53
57
58
58
58
57
57
125
129
132
129
129
129
129
125
120
120
107
95
95
98
103
95
86
80
80
89
95
100
107
105
107
107
105
107
110
107
105
100
100
103
103
103
103
100
98
91
86
89
93
91
89
89
86
80
74
72
64
60
60
58
55
55
53
53
55
57
60
57
53
55
125
127
129
129
129
129
125
120
120
115
103
95
93
95
98
91
82
76
80
91
100
105
110
107
105
105
105
103
103
100
103
103
103
105
103
100
98
98
100
93
89
89
93
91
91
91
91
89
78
74
68
64
64
64
58
57
57
57
55
55
57
55
52
48
122
125
127
127
127
125
120
120
117
112
103
93
89
93
93
91
82
76
82
93
100
105
107
107
105
105
103
100
98
95
98
100
103
100
100
100
98
95
95
91
93
93
95
95
93
95
98
93
86
78
72
68
68
68
62
60
60
60
55
53
55
52
50
55
120
122
120
120
120
125
122
120
117
115
103
89
89
91
93
91
84
80
82
93
100
107
107
107
107
107
105
103
98
98
95
98
100
95
95
95
98
98
91
91
95
95
95
95
93
95
98
95
91
84
82
76
70
68
64
66
64
62
58
57
53
52
53
57
122
122
120
117
117
122
122
120
117
112
103
91
89
91
93
91
89
84
84
91
98
105
107
107
110
105
105
100
95
100
100
103
98
98
95
93
98
95
91
91
93
93
93
93
95
95
93
93
91
91
89
86
80
74
68
68
66
62
58
57
57
58
57
55
120
120
120
117
117
120
122
120
115
112
100
91
89
89
91
93
91
89
86
93
100
103
103
105
105
103
103
98
98
100
103
103
100
100
100
98
98
95
91
91
91
93
95
98
98
95
95
95
93
93
91
86
89
86
82
74
72
68
64
60
58
60
60
62
117
115
115
115
117
117
117
120
115
110
98
86
82
86
91
93
91
89
93
100
103
103
105
105
103
103
103
98
100
103
105
105
103
100
95
98
98
95
93
93
91
93
93
93
93
93
93
95
93
93
93
91
95
93
91
89
84
78
72
66
62
64
66
66
112
115
115
112
117
120
115
117
115
110
95
84
80
84
91
89
89
93
100
105
107
107
107
105
105
100
98
98
100
105
103
103
103
100
98
100
100
98
95
95
93
93
93
95
93
93
91
91
89
89
93
93
93
93
93
91
93
89
84
78
74
72
70
68
115
115
117
117
117
120
115
115
115
107
93
82
82
86
89
89
89
95
103
105
107
105
107
110
107
100
98
98
100
103
100
100
100
100
100
98
98
95
98
98
95
91
93
95
95
93
95
93
89
89
93
95
95
93
91
91
91
93
91
89
86
82
78
74
117
117
117
115
115
117
117
115
112
103
91
82
82
84
89
91
89
95
105
107
110
107
105
107
107
103
100
100
100
100
95
100
98
98
100
95
95
93
93
93
93
93
93
95
98
93
93
93
89
91
93
95
95
93
91
89
93
98
98
95
91
89
84
82
122
122
117
115
115
115
115
112
107
100
89
84
82
84
89
89
86
98
105
107
107
105
103
100
105
103
100
98
100
100
95
98
98
95
98
95
95
93
95
98
98
95
95
98
98
93
89
93
95
93
91
93
93
95
95
91
93
98
100
98
93
91
86
84
120
120
117
115
112
110
107
105
107
98
89
84
82
84
86
84
86
98
103
105
105
105
103
98
100
100
98
95
95
95
91
91
91
91
93
93
93
91
95
98
95
98
95
95
95
91
89
91
93
93
93
91
89
91
93
93
95
95
93
93
91
91
86
86
115
115
112
107
105
103
103
105
105
98
86
84
84
89
86
84
89
95
100
100
100
100
98
100
100
100
100
95
93
95
95
91
93
91
86
89
89
89
95
95
95
95
93
95
93
86
89
89
91
95
93
89
89
89
91
91
95
95
95
91
91
91
86
86
117
115
112
105
105
105
105
107
105
93
84
82
82
84
84
80
89
95
100
103
103
105
103
103
105
107
107
103
98
100
98
95
98
93
89
86
89
91
95
98
95
93
93
93
93
89
89
91
93
93
93
89
86
89
89
91
95
95
93
89
86
89
89
86
115
115
105
100
105
110
110
107
98
84
78
78
78
80
82
86
93
100
103
105
105
107
105
105
105
107
110
107
103
103
100
98
95
95
95
93
95
98
98
95
95
95
95
95
98
91
91
95
95
95
93
89
89
93
91
93
95
95
93
91
91
91
95
93
115
110
98
95
100
105
110
105
91
76
74
80
82
84
89
91
95
103
103
105
110
107
110
107
107
107
107
107
105
105
103
95
95
98
100
98
100
98
95
91
93
95
98
98
95
93
91
93
95
95
95
89
89
93
93
93
93
93
93
93
93
91
91
91
112
105
98
100
105
110
110
100
82
72
72
82
89
91
93
95
100
107
105
105
107
107
110
105
105
105
105
103
98
98
100
98
98
98
98
98
98
95
93
95
95
98
100
98
95
95
93
91
91
95
98
93
91
89
86
89
89
91
91
93
95
93
91
89
112
107
100
105
112
112
107
91
76
68
78
84
93
95
93
98
105
107
105
103
105
105
105
103
100
100
100
98
95
98
103
105
103
98
98
100
103
100
100
100
103
100
100
98
95
98
95
93
93
95
98
95
89
86
86
89
89
95
93
95
95
98
95
89
115
112
107
110
110
107
100
86
78
78
86
93
98
95
93
100
103
100
100
98
98
98
98
95
95
98
98
98
100
103
107
107
105
103
100
105
107
107
105
105
103
95
100
103
103
100
100
100
100
98
98
98
98
91
91
91
93
98
95
93
93
98
95
93
115
115
112
110
105
103
93
84
84
91
95
98
95
91
93
103
100
95
98
98
95
95
93
95
98
105
105
103
103
107
112
110
112
112
110
110
107
110
105
105
105
103
103
103
105
103
100
103
103
100
105
107
103
100
98
98
95
95
91
93
93
93
93
89
115
112
110
107
100
93
89
89
95
98
98
95
91
86
89
95
95
93
91
89
84
86
91
95
100
105
103
105
105
110
110
110
115
115
117
112
107
112
105
103
103
103
103
105
105
105
103
103
100
98
103
103
107
103
98
98
95
93
93
93
95
95
93
91
112
107
103
98
91
89
91
98
103
103
100
95
89
86
84
86
89
89
89
86
82
86
93
98
100
105
103
107
103
110
110
107
107
112
115
112
112
112
107
103
103
100
105
107
107
110
105
103
103
103
100
100
103
100
100
100
98
95
95
95
98
98
98
98
107
100
93
86
84
86
93
98
103
105
98
95
89
82
82
82
84
89
89
89
91
95
98
98
100
103
105
105
105
107
110
107
107
110
110
112
112
110
110
105
100
100
103
105
105
107
105
100
100
100
100
100
100
100
100
100
98
98
95
95
95
95
98
98
105
95
86
82
82
89
95
93
95
98
93
93
89
86
84
84
89
91
91
91
98
100
100
98
98
105
107
110
105
103
105
107
105
105
107
110
110
110
110
112
105
103
105
103
103
107
103
100
100
98
100
100
100
98
100
100
100
100
95
91
98
98
95
95
105
98
91
86
89
93
95
95
95
95
95
95
91
86
86
91
93
93
93
95
100
100
103
100
103
107
110
107
105
105
107
107
105
103
107
105
105
105
107
110
110
103
103
103
100
103
98
98
100
100
95
95
98
100
100
103
95
93
93
89
91
91
93
93
105
98
98
100
103
100
100
103
103
100
100
100
95
93
98
98
98
98
100
103
103
100
103
100
103
103
107
107
105
105
107
105
103
105
105
105
103
100
100
105
105
103
100
100
100
100
98
95
100
98
95
95
100
100
95
98
93
89
91
89
86
84
91
98
