P2
# 215 of 608 Angiograms
64 64
255
144
134
142
149
156
159
161
163
165
165
163
165
174
178
176
174
174
174
174
180
182
182
180
176
176
174
174
174
174
172
165
163
161
161
163
163
165
159
161
163
168
168
163
159
151
147
144
144
147
149
151
156
159
161
163
163
163
161
159
154
151
149
151
156
156
144
139
144
149
156
159
163
165
163
163
165
174
178
178
176
178
178
176
178
176
176
176
174
174
174
174
176
178
174
165
163
163
165
165
165
165
163
165
168
172
168
159
149
139
134
129
132
134
134
134
137
137
139
142
142
147
144
144
139
137
134
132
134
163
156
147
147
147
151
156
161
163
163
163
168
176
180
180
180
182
182
178
174
172
174
174
172
174
174
178
180
180
176
168
161
163
165
165
165
168
170
168
170
168
156
147
137
129
127
127
127
127
125
122
125
127
125
125
125
125
127
127
127
129
125
122
122
168
161
154
149
147
149
156
161
161
159
159
165
176
178
182
184
184
182
176
172
174
174
172
172
176
178
180
178
176
174
168
163
163
165
168
170
172
170
165
161
154
147
137
129
122
117
117
120
120
117
115
112
112
110
110
112
112
115
117
117
115
112
112
115
168
165
159
154
147
149
156
161
163
161
161
165
174
178
180
182
182
180
174
172
174
176
174
170
174
176
176
176
174
172
168
168
163
163
161
161
161
156
151
147
144
137
129
122
112
105
107
112
110
105
103
98
98
98
100
105
105
103
103
103
105
103
105
107
168
165
163
156
149
151
159
165
168
163
163
168
172
172
176
180
180
178
176
174
170
172
170
168
172
178
176
172
172
172
170
168
163
163
159
154
151
147
144
144
137
132
127
117
110
110
107
103
95
93
91
91
91
89
91
98
103
98
100
103
100
103
100
100
168
163
163
156
149
151
159
165
165
163
168
172
174
174
178
180
178
176
174
174
172
168
165
168
170
176
176
174
172
170
168
165
163
156
149
149
147
142
142
137
132
132
129
117
112
112
105
93
89
89
89
89
86
89
91
93
98
95
100
100
98
98
95
100
163
163
163
159
149
147
154
161
168
170
170
176
178
178
180
176
176
174
174
176
174
168
165
165
165
165
165
165
165
165
165
163
156
147
144
147
147
142
134
134
134
132
134
125
117
112
107
95
89
86
89
95
95
95
95
95
100
98
95
98
98
95
93
95
165
165
165
159
149
149
149
159
168
170
174
176
178
178
176
174
174
176
178
176
174
170
163
165
168
161
161
163
163
163
163
156
144
137
137
142
142
134
134
139
142
149
147
142
132
122
112
103
91
89
93
100
105
100
100
105
105
100
98
100
98
95
93
93
165
168
165
161
154
149
149
159
170
174
178
178
180
180
178
178
178
178
180
178
176
172
168
168
168
163
163
161
161
161
156
149
139
129
129
134
139
139
139
144
156
161
161
159
151
142
129
120
110
105
103
105
105
103
98
105
110
112
112
110
107
100
95
95
168
170
170
168
161
154
156
163
172
178
182
182
182
182
184
184
182
178
182
180
178
174
172
168
165
168
168
168
161
159
151
149
134
125
125
129
134
139
144
156
163
161
163
170
161
156
149
139
132
125
122
120
117
115
115
122
129
132
132
127
120
112
105
100
170
172
172
168
168
163
161
165
174
184
186
186
184
186
188
188
186
184
182
180
180
174
172
170
170
170
170
170
161
151
144
142
132
125
122
127
132
144
154
163
163
161
163
165
161
161
156
154
147
142
137
134
132
132
132
134
137
147
147
144
134
125
117
112
174
176
174
172
170
168
165
172
178
186
190
188
184
186
186
186
186
186
186
184
180
174
176
172
174
172
168
165
154
144
139
134
127
122
122
129
142
154
161
165
165
165
165
163
159
161
161
163
159
151
147
144
144
142
139
134
139
147
149
149
149
142
132
125
178
178
178
176
176
174
172
174
180
186
188
188
188
190
188
186
182
184
184
184
180
176
176
174
172
172
168
156
142
137
132
129
127
125
127
137
151
159
163
165
165
165
165
165
159
161
163
168
165
161
159
156
151
149
147
142
142
149
154
156
159
156
149
139
178
178
176
178
180
180
180
176
178
186
188
190
192
190
186
184
182
184
184
184
182
174
174
174
172
168
156
144
134
129
127
127
125
125
132
144
156
163
165
163
163
168
168
165
163
165
170
170
165
163
163
161
161
159
156
151
147
144
149
154
161
168
165
159
178
180
180
182
184
186
184
182
180
184
190
194
190
186
184
182
180
182
184
184
180
176
174
172
168
156
144
134
127
122
127
125
122
127
139
154
163
170
165
165
170
172
170
168
168
170
170
168
165
168
168
163
165
165
163
161
154
151
151
154
161
168
170
170
176
180
182
186
188
190
190
188
186
186
188
192
190
188
186
186
184
182
182
182
182
180
176
170
159
147
139
129
127
127
127
127
127
134
147
159
170
172
170
168
170
172
172
172
172
172
172
172
170
170
170
170
168
168
170
168
165
159
159
159
161
165
168
170
178
184
188
192
194
194
190
190
190
188
188
192
190
192
192
188
184
184
182
184
184
182
178
165
151
142
139
134
134
134
132
125
129
139
151
165
174
178
176
174
174
176
174
174
172
170
170
174
172
170
170
170
170
172
172
172
172
168
163
163
161
163
165
163
180
184
190
194
196
192
188
188
188
188
188
192
190
192
194
188
184
184
182
184
182
180
174
163
149
142
139
134
132
139
134
129
132
142
154
172
178
180
180
180
176
178
178
178
174
174
172
170
170
170
172
165
168
172
174
174
174
170
168
163
161
163
161
159
180
186
188
192
192
192
188
188
190
190
190
188
188
188
186
186
184
184
182
182
178
174
172
161
149
144
142
139
137
139
134
132
134
144
156
172
178
178
180
178
176
176
176
176
174
174
174
170
170
170
172
170
168
168
172
174
174
170
170
168
161
159
154
156
184
188
190
190
194
192
188
190
192
192
190
186
182
180
182
182
182
184
182
176
174
172
168
156
147
144
142
139
137
139
134
129
134
144
156
172
176
176
176
172
174
174
176
174
174
174
178
178
176
174
172
168
165
168
168
174
174
172
172
170
170
163
159
159
188
192
188
188
192
190
188
190
190
192
188
184
180
180
180
182
182
182
176
176
172
172
161
151
147
142
137
134
134
142
134
132
137
147
159
172
174
176
176
174
174
174
178
178
178
178
180
178
174
172
172
170
168
165
163
170
174
174
172
172
170
170
163
163
188
190
190
190
190
188
186
188
190
188
186
184
184
180
180
184
182
176
174
176
174
170
154
147
142
137
137
134
132
139
134
137
142
149
161
172
174
178
178
174
172
176
180
182
178
178
180
178
174
172
170
170
168
165
165
170
172
172
170
170
168
168
168
165
186
188
190
188
186
186
184
186
186
184
186
186
186
184
182
180
176
172
172
176
174
161
147
139
132
134
134
134
132
137
134
139
144
151
165
174
178
178
180
178
178
180
182
182
180
178
180
178
178
174
172
170
165
168
168
170
170
168
168
168
165
165
165
165
186
188
186
184
184
182
182
184
188
184
184
186
182
182
180
178
176
174
174
174
170
156
144
132
127
129
129
129
129
137
137
142
149
159
172
178
178
178
184
184
184
184
182
180
180
178
180
180
178
174
176
168
163
165
168
168
165
165
168
170
168
163
163
168
186
186
186
186
186
182
182
186
188
186
184
180
180
180
184
184
184
186
182
178
170
151
142
132
125
125
127
125
127
134
142
144
156
168
174
176
176
178
184
188
184
184
182
178
176
176
178
182
178
172
170
165
163
165
165
163
163
165
170
172
170
165
163
168
182
180
184
186
188
186
186
190
190
190
188
186
184
186
188
188
188
190
188
178
165
149
139
134
132
129
127
125
127
132
144
151
163
174
178
178
180
182
182
186
184
184
182
176
176
174
174
180
178
172
170
165
161
163
161
161
163
163
165
170
172
168
163
170
178
174
182
186
190
190
192
194
194
194
192
192
192
194
194
194
192
194
190
178
163
144
137
132
127
132
129
127
127
129
144
159
170
180
182
184
186
186
186
186
184
184
184
182
182
178
180
182
180
174
172
168
163
161
161
159
163
161
163
165
168
165
163
170
168
168
176
186
192
196
197
197
197
197
197
197
197
199
199
196
194
194
190
176
156
139
137
129
125
127
125
122
125
132
147
163
178
184
186
186
192
194
192
188
184
186
186
186
182
182
184
184
182
176
174
170
163
161
163
161
163
163
163
161
156
161
168
172
165
165
172
184
194
197
201
199
199
199
199
201
199
201
201
199
196
194
186
170
149
137
132
125
120
122
122
127
125
134
151
170
184
188
190
188
192
194
194
188
186
184
186
186
188
188
188
186
182
178
174
170
163
159
161
163
163
165
165
168
163
163
165
170
163
163
165
176
188
192
197
199
199
199
201
202
201
201
201
199
196
192
180
159
142
134
127
122
117
117
122
127
129
139
159
178
190
194
194
192
190
190
190
190
186
182
182
184
188
186
186
184
180
178
176
170
168
165
168
168
165
168
168
170
168
165
163
168
163
159
156
165
178
184
188
188
190
194
196
199
199
199
199
196
192
182
165
147
137
127
122
125
125
125
125
127
134
144
165
186
196
197
196
196
194
192
190
190
186
182
182
184
186
184
186
182
178
174
176
174
174
172
172
170
168
170
170
168
170
168
170
170
159
147
147
161
172
178
180
184
184
186
186
190
194
194
194
190
184
170
154
139
129
122
122
122
125
125
122
127
137
147
170
188
196
197
197
197
196
194
188
186
186
188
188
188
188
186
184
180
180
178
180
178
178
178
174
172
170
170
172
170
170
172
172
170
149
142
144
159
168
172
176
180
184
184
182
182
182
182
180
178
168
156
144
134
125
120
122
122
122
120
117
127
137
151
174
188
194
197
197
197
196
192
186
184
188
190
192
190
190
186
184
184
182
180
182
178
180
180
178
176
176
174
174
174
172
172
172
170
147
142
144
156
163
165
168
172
180
184
184
182
180
176
170
165
156
149
137
125
122
120
115
115
117
115
120
129
139
151
176
186
194
196
196
194
192
188
186
186
186
188
190
190
186
186
188
186
184
184
184
182
182
180
180
180
178
178
174
174
174
170
168
170
137
137
142
151
159
161
161
165
170
174
176
174
170
163
159
156
151
139
127
120
117
112
112
110
107
115
122
129
137
154
174
180
186
186
188
188
188
188
188
188
188
188
186
190
188
186
188
186
186
186
182
182
182
180
180
180
180
182
178
174
176
176
170
170
134
137
137
149
156
159
159
163
165
165
165
163
161
156
156
156
147
129
120
115
112
112
115
105
105
112
120
127
137
154
168
172
176
176
178
182
186
188
188
186
186
184
186
192
190
188
186
184
184
184
182
180
178
178
180
182
184
184
180
176
176
176
176
174
134
137
139
144
154
159
159
159
163
163
161
159
154
151
154
154
139
122
115
112
107
107
110
107
105
105
112
122
134
149
161
165
168
170
174
176
180
182
184
184
184
186
186
186
182
182
180
180
178
178
178
176
176
178
180
182
184
184
184
180
178
176
178
176
134
139
142
142
149
159
159
156
161
163
159
151
149
151
154
147
129
115
110
105
100
98
98
100
103
100
107
117
129
144
151
156
159
161
168
172
176
178
178
178
180
180
180
178
176
176
176
176
176
176
176
176
176
176
174
176
180
180
180
176
180
178
176
176
134
142
144
142
144
149
154
156
156
154
151
149
149
149
151
139
122
107
103
100
95
91
86
89
93
100
103
115
127
144
147
147
149
154
159
163
168
170
172
172
174
174
174
174
174
176
178
176
176
174
176
178
176
176
174
176
180
178
176
176
182
178
174
174
137
142
144
144
147
147
147
149
147
147
149
149
151
151
144
132
112
103
98
98
98
91
84
82
86
93
100
112
127
144
144
142
142
147
151
156
156
159
159
161
163
163
165
168
170
172
176
174
176
176
174
174
176
176
174
180
182
180
178
180
178
176
174
176
134
134
137
137
139
142
144
142
142
144
149
149
149
144
134
122
110
100
98
95
93
89
86
89
84
86
95
110
125
137
139
134
137
139
144
147
144
147
149
151
151
154
156
159
159
163
165
168
170
170
172
172
174
178
180
180
178
176
176
176
174
174
176
176
132
132
132
127
132
137
139
142
137
139
147
147
142
134
129
115
107
100
93
89
86
84
84
86
86
86
91
103
117
127
127
127
129
134
134
134
134
137
142
144
149
149
149
149
149
151
156
161
163
163
163
165
170
176
180
180
176
174
172
172
168
168
168
170
132
132
134
134
132
137
139
142
137
139
144
142
132
127
125
112
103
93
86
84
82
78
80
82
84
89
95
103
107
112
117
120
120
127
129
129
129
129
134
137
139
142
142
142
139
142
144
149
154
156
156
156
159
165
172
174
170
170
170
165
165
165
165
165
129
134
134
134
134
134
139
137
134
137
142
132
129
132
122
107
95
86
84
84
80
78
80
84
89
93
98
105
110
105
110
115
117
120
125
125
122
122
125
127
129
132
132
129
127
127
129
134
139
142
142
139
142
147
156
161
161
161
159
159
159
159
159
159
127
129
129
127
129
132
137
134
132
134
134
132
129
127
112
98
91
91
86
82
78
82
84
86
91
95
100
112
112
103
103
110
115
117
120
117
120
120
120
122
127
125
122
120
122
125
125
127
129
132
134
134
134
134
139
142
142
139
139
142
144
147
151
156
127
125
129
127
129
129
137
139
137
134
132
129
127
122
107
93
91
91
86
82
80
84
86
84
89
95
105
117
117
103
103
107
110
115
120
120
120
122
125
122
122
122
125
120
122
125
125
122
120
122
122
125
127
127
129
129
129
129
132
134
134
134
139
149
132
125
129
129
132
132
139
144
137
132
132
129
125
115
100
91
93
93
91
86
84
84
86
89
89
98
110
120
120
112
110
105
105
112
117
120
122
122
125
125
125
125
122
120
120
122
120
117
110
107
112
112
115
117
117
117
115
120
127
129
132
129
129
134
129
134
132
129
132
134
139
142
134
132
134
132
122
115
95
93
95
93
93
91
86
86
91
91
93
110
117
117
120
117
110
105
107
115
115
117
120
122
122
122
125
120
117
120
117
117
120
117
107
103
105
110
112
115
112
107
110
112
117
122
122
122
125
127
132
134
132
132
134
132
134
137
132
134
139
132
125
112
98
95
91
91
93
86
89
89
89
91
100
117
117
117
117
120
112
105
112
112
112
112
117
122
120
117
122
125
122
122
120
115
112
110
105
103
103
105
110
110
107
107
112
112
115
120
120
120
117
117
127
132
134
132
134
134
137
137
137
134
134
129
125
115
100
93
91
91
86
86
86
86
89
95
103
117
117
117
117
115
117
115
112
115
112
112
115
120
120
115
117
120
122
122
125
120
117
112
107
105
103
107
112
110
107
110
112
112
112
115
115
115
112
110
129
132
137
137
134
134
134
132
132
134
134
134
127
112
98
89
86
89
84
84
86
84
91
93
105
110
110
112
115
112
117
120
112
115
112
112
115
117
117
117
117
117
117
120
122
122
120
117
115
105
100
107
112
110
107
107
112
115
107
107
107
110
107
110
127
129
134
134
134
134
137
132
129
137
139
137
129
112
95
89
84
84
82
86
89
86
89
93
105
110
110
110
115
120
120
122
117
115
115
115
115
115
117
115
120
122
120
117
112
115
112
112
112
107
100
100
103
107
107
107
110
110
100
103
107
107
107
107
132
132
134
137
139
137
137
134
129
134
139
137
127
107
93
93
91
84
80
82
89
89
91
98
107
112
112
112
122
122
117
120
120
115
110
115
117
120
115
112
115
117
117
110
107
107
107
105
107
107
107
103
100
105
105
105
107
107
103
100
103
107
107
103
134
134
137
129
134
139
142
139
134
134
139
137
125
105
91
95
95
86
80
78
86
91
98
105
117
120
122
122
122
120
115
115
117
110
107
107
112
115
110
110
112
115
112
107
105
105
105
107
105
103
110
107
105
103
103
105
107
105
98
100
100
103
103
103
134
139
137
132
134
137
139
137
137
137
137
137
120
100
95
95
91
86
80
89
95
100
105
117
122
120
122
120
117
117
117
115
112
112
107
105
107
103
103
107
112
112
112
112
107
103
103
107
107
110
107
105
105
103
98
95
98
98
98
98
98
98
100
105
132
139
139
137
137
134
134
137
137
137
137
129
115
98
98
95
91
86
84
91
100
105
115
122
117
122
120
120
120
122
120
117
120
120
112
110
105
100
98
103
107
110
110
110
105
103
107
107
107
107
110
105
105
105
100
98
95
98
98
98
98
103
107
105
127
132
137
134
139
139
137
137
134
132
129
125
112
103
100
95
91
91
89
95
103
110
120
127
122
122
120
122
125
122
117
117
122
125
115
107
103
103
100
100
100
100
100
103
103
100
103
105
103
103
107
112
107
105
98
95
98
98
95
100
100
100
103
103
122
125
127
129
134
139
137
137
129
125
122
120
112
105
98
95
95
93
95
100
107
117
120
125
127
122
117
117
120
120
120
122
120
120
115
105
103
103
103
103
98
98
98
103
95
93
98
103
100
103
103
110
107
103
98
98
93
95
95
103
103
98
95
100
125
122
125
127
129
134
134
137
132
125
122
117
112
100
95
100
105
98
95
105
117
125
122
122
129
127
120
120
120
120
127
125
120
120
115
110
103
103
105
103
100
100
105
105
95
93
98
100
103
107
105
103
103
100
98
98
91
93
93
103
105
103
100
95
132
132
132
129
132
132
132
127
134
127
120
112
103
98
95
98
98
98
103
112
127
129
125
125
125
127
125
122
122
125
132
125
117
117
115
115
105
105
103
100
100
103
100
100
98
95
95
95
98
105
100
100
100
100
105
105
95
98
100
105
107
105
98
95
134
132
129
132
139
137
132
127
125
122
110
103
100
100
95
95
95
103
112
120
129
127
125
125
122
122
125
125
122
127
129
127
120
120
117
112
107
103
98
95
100
100
98
95
100
100
100
98
100
103
103
103
100
103
105
105
105
100
100
105
103
95
95
98
134
132
129
137
142
142
134
129
122
112
100
98
103
98
98
98
100
112
117
117
120
127
127
125
122
125
129
132
127
122
122
122
120
117
112
110
103
105
100
95
93
95
98
100
105
103
107
112
112
107
105
100
98
100
107
100
103
103
103
100
98
95
100
98
137
137
137
142
142
137
132
127
120
105
103
100
98
98
103
103
110
120
122
117
122
122
122
122
122
125
129
127
122
120
120
120
117
112
110
105
103
103
100
98
89
95
98
100
105
100
107
112
112
107
105
100
98
103
110
103
98
100
100
98
98
100
100
98
