P2
# 217 of 608 Angiograms
64 64
255
117
127
134
144
156
163
163
151
122
93
86
107
139
159
168
170
176
178
178
180
180
176
178
178
180
182
182
180
178
172
170
170
165
159
156
159
159
159
156
159
159
161
163
161
163
161
163
168
165
161
159
156
154
149
142
137
134
132
127
125
122
120
120
127
112
120
129
142
159
163
163
156
134
110
107
122
147
165
172
176
180
182
180
180
182
178
176
174
174
178
180
180
176
172
168
170
170
163
161
163
161
156
154
154
154
161
163
163
159
159
159
161
161
165
163
161
161
161
154
149
144
139
137
134
127
125
125
129
110
117
127
142
159
163
163
159
147
127
127
137
154
170
176
178
182
184
180
180
180
178
178
174
174
174
176
180
178
172
168
168
170
168
163
163
161
154
149
149
154
161
165
168
163
161
156
156
161
165
168
165
165
165
168
161
156
151
147
144
142
137
134
132
112
117
127
144
159
163
163
161
151
139
137
144
161
174
178
180
182
186
182
182
182
180
178
176
174
172
170
176
178
174
170
168
168
165
163
161
161
161
154
149
154
163
165
168
165
163
159
159
163
165
168
170
172
170
172
170
163
163
161
161
156
154
149
144
112
120
132
147
161
165
163
165
156
144
137
144
165
178
180
184
184
182
182
182
182
180
180
180
178
172
168
172
176
176
170
170
168
161
161
159
161
165
161
156
154
161
165
168
165
161
161
165
168
168
170
174
172
172
174
170
165
163
168
170
172
168
163
161
117
125
134
151
163
165
168
168
159
147
139
147
165
178
180
186
186
182
182
182
182
180
182
182
182
176
174
174
176
176
170
165
163
161
161
161
165
168
165
161
159
159
163
170
170
170
170
170
170
165
170
170
165
168
170
168
163
163
165
172
176
172
170
170
125
127
139
156
165
170
174
170
161
149
144
147
161
176
180
182
184
184
186
186
184
182
180
178
180
176
176
178
176
172
168
168
165
165
163
165
168
168
170
168
163
159
159
165
170
172
174
174
170
165
168
165
163
163
165
165
163
161
168
174
176
170
170
170
122
129
144
159
163
168
172
168
163
151
142
144
151
170
178
180
182
182
184
184
184
180
174
176
178
178
180
178
174
172
168
170
168
163
165
170
172
172
172
170
165
159
154
159
165
170
172
172
168
165
165
165
163
161
161
163
163
165
170
172
172
170
170
170
125
132
147
156
161
165
170
170
165
159
144
144
147
154
163
172
174
176
178
182
182
180
176
178
180
180
180
176
174
172
172
170
168
163
168
172
172
172
170
170
165
161
151
149
159
165
168
170
163
163
163
161
161
161
163
163
165
168
168
165
163
165
170
170
129
137
149
159
163
170
174
170
168
165
156
147
147
142
144
151
163
172
176
178
182
182
180
180
178
180
178
176
178
176
174
172
170
165
170
176
176
170
168
165
161
161
159
151
159
163
168
168
161
161
159
156
159
161
161
163
168
163
159
159
159
161
170
172
134
142
154
161
165
172
174
172
172
174
168
159
149
142
137
137
147
163
172
176
178
178
180
180
180
178
174
174
176
176
178
178
176
172
174
178
178
172
170
165
161
161
161
161
161
163
165
165
161
161
159
156
154
159
159
163
165
163
165
165
165
168
172
172
137
149
159
165
170
174
176
176
174
180
178
174
163
151
144
139
142
151
163
172
174
176
180
182
180
176
174
174
172
174
178
180
182
178
176
176
178
174
172
170
165
168
170
165
163
161
163
163
161
161
161
156
154
159
159
163
168
172
172
172
170
170
172
172
147
156
165
172
172
172
174
178
178
182
184
182
178
172
163
156
151
156
161
168
170
174
184
186
180
180
178
176
176
174
176
180
180
176
172
176
178
176
172
172
170
170
170
170
165
161
161
161
159
159
161
156
151
156
161
165
174
176
174
172
170
172
174
174
151
163
172
176
178
176
178
180
182
186
186
186
186
184
180
176
172
170
168
165
170
174
180
182
182
182
180
180
176
174
174
176
176
172
168
172
174
174
172
172
174
170
170
172
168
163
161
156
151
154
154
151
149
151
159
165
170
172
174
174
170
170
174
176
159
172
176
178
178
176
178
182
188
192
192
194
194
192
190
186
184
180
176
172
172
174
178
180
182
182
180
180
174
170
170
172
172
170
168
168
170
170
168
168
168
168
168
168
165
161
156
149
147
144
144
142
142
144
151
159
163
168
170
174
176
176
178
178
161
172
178
182
184
180
182
186
190
192
196
197
196
194
194
194
192
190
186
176
174
174
176
180
180
178
178
178
176
172
170
172
168
161
159
156
159
159
161
161
159
159
156
156
156
151
147
142
137
134
134
134
137
137
144
149
154
159
163
165
172
174
176
176
168
174
180
184
186
184
186
190
192
196
197
197
197
196
197
197
194
192
190
186
178
170
172
174
176
178
180
178
172
174
172
163
156
151
151
151
151
149
149
147
144
144
142
142
142
142
137
134
132
127
127
129
127
129
132
139
144
147
151
156
161
163
165
168
172
176
182
182
186
188
188
192
196
197
197
199
197
197
199
197
196
188
190
188
186
178
170
170
174
180
180
176
170
172
163
156
151
147
144
142
142
139
139
137
137
134
132
129
129
132
132
132
129
127
125
122
115
120
125
127
132
134
137
142
144
149
154
161
174
180
184
184
190
190
190
194
197
201
199
201
201
199
199
199
196
190
188
188
192
188
178
170
170
178
178
174
170
163
156
151
147
142
139
137
134
134
137
134
132
127
129
132
127
129
129
132
129
122
117
117
115
117
122
125
127
127
132
132
134
137
139
144
178
182
184
188
190
188
192
197
199
199
199
199
199
201
199
199
194
192
190
184
190
194
188
174
168
172
172
170
165
159
149
147
144
139
134
132
132
132
134
134
129
122
122
129
129
125
127
129
125
122
120
115
115
115
117
117
117
117
122
125
127
127
127
129
178
182
184
188
188
188
192
196
194
197
197
197
197
197
197
196
192
192
190
184
186
192
190
178
170
168
168
170
163
154
149
147
147
137
129
129
127
129
127
129
127
127
125
127
132
132
129
129
129
127
125
117
115
120
117
115
115
120
122
120
117
117
120
120
180
182
182
184
184
186
190
192
192
194
196
194
192
196
197
197
192
192
190
186
188
192
186
180
170
168
170
170
163
159
151
144
144
137
127
129
134
132
129
129
129
129
132
132
134
137
132
127
127
127
125
120
112
115
115
112
115
117
120
117
112
115
112
110
182
184
182
182
182
182
186
190
192
194
194
192
194
197
197
197
196
192
190
188
192
190
182
172
163
165
168
170
165
161
156
147
142
134
129
129
134
134
132
134
134
137
137
139
139
137
137
134
132
132
129
127
115
110
110
107
110
115
117
117
112
117
117
112
182
184
184
182
184
182
184
188
190
192
194
196
194
196
196
197
194
188
188
190
192
184
172
163
161
161
163
165
168
165
163
154
144
134
129
132
137
137
139
144
147
147
149
149
149
149
147
147
144
139
137
132
125
115
110
105
107
115
117
115
115
115
115
117
184
184
184
184
184
184
182
186
190
194
199
197
197
196
197
199
196
192
194
192
186
176
165
159
154
154
161
163
170
170
168
163
154
144
139
142
142
144
149
154
159
159
161
163
163
163
163
161
159
151
147
139
132
127
117
107
107
117
120
117
115
112
112
115
184
186
186
190
190
188
186
190
194
197
201
199
202
202
202
199
196
196
192
186
178
170
163
156
149
149
159
165
172
176
176
174
168
159
156
154
151
154
159
161
165
165
168
170
170
172
172
172
168
161
154
147
137
134
129
120
117
122
125
122
117
115
115
117
184
188
188
190
190
188
192
196
196
199
201
199
201
204
202
197
196
194
188
180
174
170
165
156
154
154
161
172
180
184
186
186
182
174
168
163
161
161
161
165
168
170
172
170
170
170
174
174
172
168
159
147
144
139
134
132
127
127
129
127
122
120
112
115
184
190
190
190
188
190
196
199
201
202
202
201
201
204
202
199
196
192
184
178
172
168
165
159
156
159
170
178
184
190
192
190
188
180
176
172
170
168
170
172
174
174
174
170
168
168
168
170
172
168
156
147
142
142
137
134
137
137
134
134
132
127
120
117
182
186
190
192
192
196
199
201
201
204
204
199
201
202
202
201
196
188
180
174
168
165
165
163
163
168
176
180
186
190
194
192
188
182
180
180
180
180
180
178
176
178
178
174
170
168
165
168
170
161
154
144
139
139
139
142
147
149
149
147
144
137
129
125
182
180
184
190
194
197
197
199
201
206
202
199
199
202
202
201
194
184
178
170
163
163
163
165
168
174
178
180
184
188
190
190
188
184
184
184
188
188
188
186
182
180
184
180
174
170
170
170
165
159
154
144
142
139
139
147
156
161
159
154
154
149
142
134
178
182
184
188
194
196
196
197
201
206
202
201
202
202
204
201
190
178
170
165
163
161
163
168
174
178
180
180
184
186
188
190
190
188
186
184
190
192
194
192
190
184
182
180
178
176
174
172
165
159
156
147
142
139
137
147
159
161
161
159
159
156
154
149
176
182
186
188
194
196
194
196
197
201
201
201
202
202
201
196
182
172
163
159
156
159
165
172
178
182
180
182
184
186
192
190
188
190
186
186
192
192
192
194
196
192
186
182
184
184
182
178
174
168
159
149
142
144
139
147
159
161
159
161
163
163
161
156
174
178
184
188
190
192
192
194
196
197
197
197
199
199
196
186
172
161
154
154
154
161
168
176
186
190
184
182
184
186
192
188
188
190
188
188
192
194
196
194
194
196
190
186
190
190
188
184
180
174
165
156
147
147
147
147
151
156
156
161
163
163
163
163
168
172
178
182
184
188
190
190
192
192
192
192
192
192
186
174
161
149
144
147
154
159
165
178
190
194
188
184
186
186
190
190
190
190
192
192
194
194
196
196
196
194
194
192
192
190
188
186
182
180
174
165
159
154
149
147
147
154
154
154
154
156
161
163
161
165
168
174
178
182
186
188
188
186
188
188
188
184
174
159
142
134
137
139
144
151
163
178
194
197
190
186
182
184
186
190
194
194
192
192
192
192
196
199
196
196
194
192
188
186
186
186
184
184
176
170
170
168
161
154
149
151
154
151
151
154
156
161
159
163
165
168
172
176
180
184
186
184
184
184
180
172
159
139
127
125
125
129
139
144
156
176
190
194
190
182
180
180
182
188
194
196
192
190
190
192
196
196
196
194
192
190
188
184
180
180
182
184
176
172
172
172
170
165
159
156
159
156
156
156
154
159
151
161
161
163
168
172
174
178
180
182
180
178
172
161
142
127
120
117
117
125
132
142
151
168
182
186
184
180
180
176
176
182
188
192
190
190
190
192
192
192
192
192
190
188
188
184
176
178
182
182
176
170
170
172
170
170
168
165
165
165
163
159
151
156
144
151
161
165
168
170
172
172
172
172
172
168
161
147
127
125
120
112
115
120
125
137
147
159
172
176
180
178
176
174
172
176
180
186
186
186
190
190
188
186
188
188
188
186
186
184
176
178
178
178
176
172
174
176
174
176
174
172
170
170
170
168
163
159
142
147
151
161
163
165
165
165
165
165
163
161
149
134
125
122
110
107
107
110
120
127
139
151
161
168
168
170
170
170
172
172
174
178
182
184
188
188
186
184
184
182
182
184
182
178
178
176
174
176
178
176
172
172
174
178
178
176
174
174
172
174
172
168
134
144
147
151
161
163
165
163
161
156
154
151
144
129
122
110
100
103
105
107
107
117
132
144
156
161
161
163
163
163
161
159
161
165
172
174
178
180
180
180
176
174
176
176
176
176
176
178
174
176
180
178
174
170
172
176
180
180
176
174
172
178
176
174
127
139
147
147
154
159
161
163
159
154
151
149
134
122
112
103
98
103
105
105
103
107
120
137
149
156
159
156
156
156
159
154
151
154
159
161
163
168
168
168
165
168
170
170
174
176
178
176
174
178
180
178
176
174
174
176
180
180
178
174
174
180
180
178
125
134
144
147
149
154
156
161
156
151
151
144
127
115
105
103
100
107
110
107
105
107
115
127
142
149
151
151
151
151
151
149
147
149
149
151
151
154
156
156
156
159
161
165
168
172
176
176
176
178
180
180
178
176
178
176
176
178
176
176
176
178
178
178
120
132
139
142
144
151
156
156
154
151
149
134
120
107
103
100
98
100
103
105
107
110
115
122
134
139
142
144
144
142
142
139
142
147
144
139
144
149
149
149
149
156
156
159
163
165
172
174
176
178
178
178
176
176
180
180
176
178
178
178
176
176
178
176
110
122
132
134
139
144
151
154
149
147
142
127
112
105
100
93
91
95
98
100
103
107
115
122
132
134
134
132
134
134
134
134
137
142
144
137
137
139
142
144
144
149
154
159
161
163
170
174
174
174
176
174
172
174
178
176
174
174
172
172
172
174
174
174
100
112
122
127
132
139
144
149
147
139
129
120
105
103
100
91
91
95
93
100
103
100
112
122
132
132
129
132
134
132
129
134
134
134
137
134
134
137
137
144
142
144
147
151
154
156
161
163
163
165
168
168
168
172
174
174
176
176
172
168
165
165
168
168
95
112
120
125
127
134
139
142
139
132
125
115
100
95
93
89
86
91
91
103
105
100
110
125
132
129
127
132
129
129
132
129
127
129
132
132
132
132
137
139
142
144
144
142
142
144
147
147
147
149
154
156
159
161
168
172
176
174
170
165
161
163
161
163
86
107
122
127
129
132
137
134
132
129
122
112
100
98
95
93
91
89
93
100
103
103
112
129
134
132
127
129
129
132
129
125
125
132
132
127
125
125
127
132
137
139
142
139
134
134
137
137
137
137
139
142
144
149
154
161
163
161
161
161
159
159
161
163
78
93
115
125
129
129
132
134
129
125
120
110
103
103
100
95
91
89
91
98
100
105
117
132
134
134
129
129
134
137
132
127
125
127
129
129
122
120
122
127
127
129
134
132
129
125
127
127
127
127
129
132
132
134
137
137
139
139
142
144
149
151
156
159
78
86
105
120
125
127
129
134
134
127
117
105
103
103
103
100
93
91
91
95
103
110
125
137
137
134
132
137
137
139
132
129
127
127
132
132
127
122
125
129
127
132
132
132
132
125
122
120
115
112
117
120
122
125
125
125
122
122
122
127
129
137
144
149
80
84
95
115
125
134
139
139
137
127
112
103
100
98
95
95
95
91
91
95
105
117
129
137
134
129
129
134
139
139
132
129
127
129
132
132
127
125
127
129
129
132
137
134
134
125
122
117
107
105
110
115
117
115
117
120
120
117
117
115
117
122
125
134
84
86
95
110
122
132
134
139
134
122
110
100
95
89
93
95
93
86
86
95
105
122
132
134
134
129
125
132
137
137
127
120
125
129
129
127
127
125
129
129
132
134
137
137
127
122
122
115
105
100
100
110
115
112
115
112
110
110
110
112
115
117
117
120
89
91
95
107
120
129
134
134
129
120
107
98
91
89
91
91
84
86
89
98
105
125
132
132
134
132
127
129
134
129
122
120
127
127
127
125
122
122
125
125
127
129
129
127
120
117
120
115
105
100
93
98
107
112
110
107
110
110
107
105
112
117
115
115
91
93
100
107
117
129
134
132
125
117
107
100
95
91
89
91
89
91
93
95
103
122
132
132
132
129
129
129
129
125
122
125
125
125
127
125
120
117
120
120
125
125
127
122
120
117
117
117
110
103
98
98
100
107
110
110
112
115
112
110
107
112
115
112
89
93
100
105
112
125
132
129
120
112
105
103
95
89
89
89
91
93
93
98
105
122
129
129
129
127
129
127
127
125
122
122
125
122
122
117
115
117
120
120
125
125
120
120
120
117
117
117
112
103
103
103
98
103
110
112
110
115
117
110
107
107
110
110
86
89
93
100
107
120
127
127
117
107
103
100
95
95
91
86
91
93
95
98
107
117
127
127
127
127
127
129
129
125
122
125
125
120
117
117
122
122
120
120
125
122
115
112
117
117
117
112
105
98
103
103
98
105
110
110
105
105
110
105
103
103
105
103
91
91
91
98
103
115
125
122
110
100
98
98
95
98
91
86
86
95
95
100
112
117
120
125
129
132
129
132
129
127
125
129
127
127
125
125
122
122
125
125
120
117
117
115
120
117
112
110
105
103
105
107
107
110
112
110
105
105
107
107
105
98
100
100
91
91
91
95
103
110
122
117
107
95
98
105
98
95
89
89
84
89
100
107
115
120
122
122
127
132
132
129
125
127
125
125
122
120
120
125
120
122
127
127
120
117
115
112
117
117
110
110
107
105
107
110
112
110
110
105
105
107
107
103
103
100
103
103
91
95
95
93
100
107
115
112
105
95
100
105
103
95
91
95
93
93
103
110
115
122
122
117
120
122
122
125
127
125
122
122
122
125
125
125
122
122
122
122
120
120
120
115
117
115
112
110
107
107
110
110
110
110
107
98
103
112
110
105
105
105
103
98
100
95
95
91
95
105
112
110
105
95
98
98
100
95
93
100
100
100
105
110
117
120
117
117
120
122
125
129
129
127
125
129
134
132
125
117
117
117
120
125
120
122
122
122
115
112
110
110
107
112
112
112
112
112
105
98
103
112
112
107
105
103
98
98
107
103
95
95
98
107
112
107
105
100
100
100
98
95
93
98
98
100
105
110
120
125
120
120
120
125
127
127
125
122
125
129
129
125
115
110
110
112
115
115
117
117
115
115
112
110
112
112
110
110
110
115
117
112
105
98
103
105
103
100
100
100
98
98
112
107
103
95
98
100
107
105
100
100
100
98
95
93
91
93
95
105
107
115
122
127
127
125
122
125
122
117
117
122
127
125
122
120
117
112
115
112
110
115
115
112
110
110
112
112
110
112
115
117
112
115
115
110
105
100
103
103
98
103
103
105
105
105
117
117
103
95
95
93
100
100
93
98
98
98
93
91
91
98
98
103
110
115
125
129
129
127
125
125
125
120
117
117
122
122
115
117
120
115
120
117
112
112
115
117
112
110
107
112
112
112
115
117
112
112
112
107
105
98
100
100
98
100
103
100
105
105
117
117
107
98
95
91
93
98
95
95
93
93
93
95
95
98
93
98
110
117
127
134
132
129
129
129
127
122
117
112
115
117
115
115
115
112
115
120
115
112
112
122
117
110
107
107
107
107
110
112
107
105
112
110
100
100
100
98
103
103
98
95
100
105
122
120
110
103
98
93
86
93
91
86
84
86
93
98
98
95
100
103
112
125
132
129
129
132
137
132
127
125
117
107
110
112
115
115
110
103
105
112
112
107
105
112
117
115
112
112
107
110
107
107
112
107
107
107
103
107
100
100
110
105
98
98
105
112
