P2
# 219 of 608 Angiograms
64 64
255
161
161
163
159
163
161
161
165
163
161
159
161
163
165
168
165
156
134
127
129
129
127
127
137
149
170
184
184
184
188
188
184
182
172
151
132
117
110
122
151
170
176
178
176
172
172
168
165
168
170
172
172
168
170
172
172
170
170
172
172
170
174
176
172
163
161
163
163
163
161
159
159
161
156
156
163
168
170
170
165
159
139
129
129
132
129
129
137
149
170
184
188
190
190
184
182
180
174
151
127
98
91
107
137
168
176
178
178
176
172
172
174
174
172
172
168
165
170
174
174
174
172
172
172
172
174
176
170
163
161
161
165
163
156
156
154
159
163
163
163
170
172
170
165
159
144
134
129
132
129
127
139
149
168
184
190
194
190
182
180
178
174
154
127
105
95
105
139
172
180
180
180
178
174
174
178
178
178
176
172
165
165
172
174
178
174
172
170
170
170
168
165
159
163
161
161
159
151
156
154
159
165
165
165
170
172
168
165
159
147
134
132
129
127
129
139
151
168
186
190
190
188
184
180
180
174
161
137
120
112
120
149
172
176
180
180
178
174
176
178
180
182
180
176
170
163
165
172
172
172
168
165
165
163
161
159
159
161
161
161
159
154
154
156
161
168
168
170
170
170
168
163
163
151
137
129
127
125
129
139
151
168
186
190
188
186
186
182
180
176
168
147
129
129
137
154
172
176
178
180
178
174
172
174
178
182
180
176
174
168
163
168
170
170
168
165
165
159
161
159
161
161
161
159
159
154
151
154
161
168
168
170
170
165
165
168
165
156
139
129
127
127
132
142
151
168
186
188
188
184
186
182
180
178
172
159
139
134
142
156
172
178
176
176
174
174
172
174
180
184
184
180
178
172
165
165
165
165
163
165
161
159
159
156
163
163
161
159
151
149
151
154
161
165
163
165
165
163
165
172
170
161
144
134
129
127
134
144
154
168
186
188
186
184
184
186
186
182
176
165
151
142
139
151
170
176
172
172
176
178
174
174
178
180
182
182
178
174
170
163
161
161
163
161
159
159
156
154
163
161
159
156
149
151
151
154
159
163
165
168
163
165
168
172
172
163
149
134
127
127
137
149
156
168
186
188
190
186
184
190
192
186
182
174
161
147
144
149
161
174
174
174
174
176
172
172
174
178
180
180
180
176
174
168
159
154
156
161
161
159
154
149
159
159
156
154
151
156
156
156
159
163
168
168
163
165
168
172
174
168
151
134
125
127
139
149
156
168
186
190
190
188
188
190
192
188
186
180
168
154
151
151
149
163
172
174
172
165
165
165
170
176
180
180
178
178
178
172
165
156
151
151
154
151
147
144
159
156
156
156
159
161
159
156
163
168
168
168
165
165
170
172
174
172
154
137
127
132
142
149
156
170
186
192
194
192
190
190
192
190
190
186
178
163
154
151
147
149
156
156
154
149
142
144
151
163
174
176
176
176
178
176
170
163
156
151
151
149
149
154
161
159
159
159
161
163
163
163
168
168
170
172
170
168
172
176
178
174
159
142
134
137
144
149
159
174
188
194
194
194
190
188
190
190
188
190
188
176
163
154
149
144
144
142
139
137
132
134
142
151
159
170
174
176
178
178
174
170
163
159
156
161
161
163
163
163
161
156
163
165
168
170
168
170
174
172
170
170
176
178
180
178
163
147
142
139
144
151
163
178
190
194
194
192
186
186
188
190
192
192
190
186
178
165
156
151
147
144
142
139
142
142
144
149
156
161
170
176
178
178
172
172
172
165
161
161
163
168
165
163
159
154
163
168
170
174
172
174
174
168
170
172
176
178
178
178
165
149
147
147
149
156
168
182
192
194
194
188
188
186
186
190
194
196
194
190
186
182
172
165
163
159
159
161
163
163
163
161
159
161
165
170
176
176
174
176
178
174
168
165
165
168
168
163
161
161
165
170
174
176
176
178
172
170
172
172
178
178
176
178
168
151
149
151
156
161
172
186
194
196
196
190
188
186
188
192
197
199
196
196
194
190
186
182
180
178
178
176
176
178
178
176
174
170
168
168
172
176
178
178
182
180
172
170
170
170
168
165
165
165
170
174
178
180
178
176
176
174
174
176
180
182
180
176
168
156
154
156
159
168
176
188
190
194
194
192
188
188
192
194
197
199
197
194
192
192
190
188
186
184
182
180
178
176
180
186
184
178
172
172
170
172
176
178
180
180
178
172
172
170
168
172
170
170
174
174
178
182
182
178
178
176
176
178
180
182
180
178
170
159
159
159
165
172
180
188
190
190
192
190
188
192
196
197
201
199
197
196
192
192
192
194
192
184
180
178
178
176
184
190
190
186
180
174
168
170
170
170
170
168
165
161
159
159
170
172
170
170
172
174
180
184
186
184
180
180
178
180
180
180
178
176
170
159
159
163
168
176
182
190
188
190
188
188
190
194
196
199
201
199
197
197
196
194
194
197
196
190
186
184
184
182
186
188
190
188
186
180
172
170
161
156
154
154
151
149
147
142
172
174
174
172
172
176
180
184
186
188
186
182
180
178
180
180
182
178
170
159
159
165
170
178
186
190
188
188
190
190
194
194
194
196
197
197
197
197
196
196
196
196
194
190
190
188
184
184
184
184
184
184
182
178
170
159
151
144
144
139
139
139
137
132
178
178
174
172
172
178
180
182
186
186
186
184
180
180
178
182
182
176
172
161
161
168
174
184
188
192
192
190
190
194
196
196
194
194
196
197
196
196
194
194
197
196
192
188
188
182
178
178
174
174
172
172
170
168
159
151
144
144
139
137
137
134
129
127
178
174
174
174
176
180
180
180
184
184
184
184
182
182
184
186
182
176
172
170
168
172
180
188
190
194
194
192
190
192
194
194
196
196
196
194
192
192
192
192
190
188
186
182
178
174
168
163
161
159
156
154
154
154
154
151
144
142
137
137
139
132
125
122
176
174
176
178
178
182
180
180
180
184
186
186
184
184
186
186
182
182
176
174
174
178
186
190
197
197
197
196
192
194
196
194
196
194
192
190
188
188
184
182
178
178
176
174
168
163
161
156
154
151
149
144
147
151
151
149
144
139
129
129
134
129
120
115
178
176
180
180
176
182
182
180
178
182
186
186
186
188
186
184
184
186
182
178
176
180
186
196
201
201
199
199
196
196
194
194
194
194
192
188
184
180
176
174
170
168
163
163
165
165
159
154
151
149
139
137
144
149
149
147
144
134
129
129
132
129
122
112
180
178
182
180
176
180
182
182
186
186
184
182
184
188
190
188
186
186
182
180
180
182
186
197
201
201
201
199
197
196
194
192
190
192
190
186
178
174
174
168
163
159
159
159
161
161
154
151
154
149
144
142
144
149
147
147
142
134
132
134
134
134
125
110
178
178
178
178
176
180
180
184
188
186
182
182
186
192
190
188
184
182
182
178
174
178
184
196
199
201
202
201
197
196
192
188
186
190
190
182
176
174
170
165
161
161
156
156
156
154
151
151
151
149
149
147
149
151
149
149
147
139
137
139
137
137
129
117
174
174
174
174
176
178
178
180
182
180
180
180
188
188
186
184
180
182
184
176
170
172
180
192
197
197
201
202
199
196
194
188
188
190
186
180
176
172
170
165
161
159
151
151
151
154
159
156
151
149
151
154
151
149
151
154
154
149
147
147
144
139
134
127
163
161
161
165
170
172
172
174
174
174
178
178
182
182
180
180
182
182
182
174
168
168
176
186
196
199
202
202
201
197
196
192
188
186
182
178
174
172
170
163
159
154
151
151
154
156
159
156
159
159
161
163
161
159
159
161
159
156
154
151
151
149
144
142
151
151
154
156
159
161
161
161
161
163
168
172
172
174
174
176
178
182
180
172
172
170
172
180
192
196
199
201
197
194
188
184
182
180
176
174
174
174
170
163
156
151
154
156
159
159
161
165
168
170
172
172
174
174
174
174
174
168
163
163
161
159
156
156
144
144
147
149
151
154
154
151
151
156
161
159
161
165
168
170
172
176
176
172
170
168
168
174
184
188
192
192
188
184
178
176
174
172
170
168
168
172
168
161
154
144
149
156
161
170
176
174
174
176
178
182
184
182
182
180
180
174
165
163
163
163
163
159
139
139
142
144
149
149
147
144
147
151
159
159
156
156
163
165
163
168
168
163
161
161
163
172
176
180
180
180
180
174
168
165
168
168
165
161
165
172
170
161
156
149
151
161
172
180
182
178
176
174
178
184
184
184
180
180
178
174
165
161
159
163
165
163
137
139
144
147
147
147
144
139
139
147
151
156
154
151
156
161
159
159
159
156
149
151
156
168
174
174
176
176
172
165
159
159
161
163
161
163
168
172
174
170
165
165
165
174
182
182
180
178
174
174
176
180
182
178
176
174
174
172
163
156
156
159
161
161
137
134
137
142
144
144
139
132
137
142
147
149
151
154
151
159
161
161
156
149
142
144
149
161
172
174
174
170
163
154
154
154
156
159
161
165
170
174
178
176
172
172
176
180
186
186
182
176
176
178
178
178
180
176
174
174
174
170
156
149
151
154
156
156
134
134
134
139
144
144
134
132
139
142
144
147
149
149
151
154
161
161
151
139
134
134
139
151
165
168
168
161
154
147
142
142
147
151
156
165
170
174
178
180
176
176
180
182
182
180
182
180
182
182
182
178
178
178
178
178
176
172
161
154
156
154
154
154
134
134
134
139
137
139
142
137
137
134
139
144
149
147
151
151
154
154
144
134
127
125
127
139
154
161
159
151
147
139
137
139
144
151
159
165
170
172
174
178
178
178
182
182
178
178
182
184
188
188
188
186
186
186
184
182
178
174
170
163
161
159
154
156
134
129
132
134
129
129
134
134
134
132
134
139
147
149
149
149
149
147
139
129
120
115
117
127
137
147
147
142
137
132
129
137
144
151
159
163
165
170
172
172
172
174
176
176
180
182
184
184
190
194
194
192
192
192
190
184
180
178
178
176
170
163
163
163
129
127
129
132
129
125
127
132
134
134
132
134
139
144
147
144
144
144
137
122
110
105
105
107
122
129
129
129
132
134
132
134
142
151
159
161
163
165
168
168
165
168
170
174
176
178
180
182
186
188
188
188
188
186
184
180
182
186
188
186
178
172
168
170
127
129
127
129
129
127
129
132
134
137
132
132
134
142
139
137
139
142
132
115
107
103
100
95
98
112
120
120
122
127
134
134
139
149
156
161
159
159
161
161
161
161
163
165
170
172
176
178
178
178
178
178
180
180
180
182
184
184
184
184
180
174
170
170
120
125
125
129
129
129
129
134
137
139
134
132
132
139
139
137
139
139
125
110
107
100
93
93
86
86
100
110
115
120
125
132
139
147
151
154
151
151
151
154
156
156
156
159
159
163
165
168
170
170
172
172
172
174
176
178
178
180
180
182
180
174
172
170
122
122
122
127
129
129
132
132
132
132
127
125
125
134
134
132
134
134
120
107
100
91
89
89
80
76
82
93
100
103
110
122
137
147
144
144
144
144
144
147
147
147
147
147
149
151
151
154
154
156
161
163
163
165
168
172
174
174
176
176
174
172
168
165
122
122
122
122
127
129
125
125
122
122
120
122
127
132
134
132
132
132
122
110
98
86
82
82
74
72
74
82
89
91
103
112
127
144
147
142
142
144
142
139
142
144
142
139
139
142
142
142
144
149
154
156
159
159
159
161
163
163
168
168
170
168
165
163
125
122
117
120
125
122
120
117
117
117
120
122
129
132
132
129
132
132
125
112
98
86
82
76
66
64
66
72
84
91
100
112
125
142
147
139
139
142
134
129
139
142
139
132
134
134
132
137
142
147
149
151
154
151
149
151
151
154
154
154
156
156
156
156
120
115
112
110
117
122
117
115
115
115
117
120
125
129
129
127
129
134
129
117
103
89
82
74
62
60
62
66
74
86
100
112
120
137
144
142
139
137
134
134
139
139
139
134
132
129
129
129
137
142
142
142
142
142
139
139
139
139
142
142
142
139
139
139
117
115
117
115
117
120
117
117
120
120
120
122
127
127
129
134
134
134
129
122
110
95
82
70
60
57
57
58
64
76
93
110
117
129
139
142
139
134
134
132
132
137
139
134
132
129
125
125
127
132
132
132
134
137
137
137
134
137
139
139
137
132
129
129
117
115
115
115
115
115
115
117
122
125
125
129
129
132
134
134
137
134
127
127
115
98
82
68
62
58
57
60
64
66
80
100
115
122
132
139
139
139
137
132
132
132
132
129
127
125
122
120
122
125
129
132
129
129
132
132
132
137
134
129
129
129
127
125
105
107
107
112
110
110
112
120
125
125
129
129
132
132
134
137
139
132
129
132
125
105
84
70
64
60
60
62
60
62
68
84
107
120
127
132
134
137
134
129
132
134
132
125
127
122
122
127
127
127
129
127
125
127
129
132
132
132
127
125
129
132
125
125
110
107
103
107
110
105
105
112
125
125
129
125
127
132
134
134
139
134
132
137
132
115
89
72
66
58
60
58
53
55
62
72
93
112
125
132
132
129
132
129
134
139
137
132
129
127
129
134
129
132
134
127
125
122
127
127
122
122
122
122
125
129
127
122
110
110
107
105
105
100
103
112
122
129
127
125
127
129
129
132
137
137
139
137
134
120
95
78
68
60
58
52
52
57
62
64
80
100
120
132
129
129
129
127
132
139
139
137
134
132
132
134
134
134
129
127
129
127
125
125
120
120
117
112
115
120
122
120
110
112
112
110
107
107
105
115
127
127
127
129
132
134
132
129
132
132
137
139
137
122
100
86
74
62
57
53
55
58
64
62
72
93
112
129
132
132
132
127
132
137
142
137
137
137
134
132
132
132
129
129
134
129
125
127
122
122
120
110
110
115
120
120
107
115
115
112
112
112
107
115
127
132
129
129
132
137
137
134
132
132
142
142
132
122
103
93
82
70
58
57
60
58
62
64
70
86
105
125
134
134
129
125
132
134
137
137
134
132
129
127
129
132
132
127
129
125
127
122
120
122
117
110
110
117
120
115
112
115
115
112
110
107
107
110
122
132
137
132
129
137
139
137
132
137
144
139
129
120
103
100
89
80
68
62
62
62
68
64
70
86
98
115
132
132
127
127
132
129
132
134
129
125
127
127
127
129
129
127
127
127
125
122
120
117
112
107
115
117
115
110
115
112
117
112
103
105
110
110
115
127
134
134
132
137
142
142
137
137
139
134
127
115
105
100
91
84
78
70
68
68
74
72
74
86
95
107
122
127
127
129
129
127
129
129
125
127
129
129
125
122
122
125
127
125
122
120
117
117
112
112
117
120
110
112
117
120
120
115
110
110
115
115
112
120
129
132
132
134
134
134
134
134
134
132
125
110
98
95
93
89
86
80
74
72
70
72
78
89
95
103
115
125
132
132
127
129
129
127
125
132
129
129
129
127
125
125
122
117
115
117
122
120
112
117
117
117
112
112
120
122
122
117
112
117
117
115
107
115
125
127
127
127
125
127
134
137
132
129
120
105
100
98
98
93
93
86
80
78
74
76
80
89
91
100
107
122
129
127
127
129
129
127
125
127
127
125
125
125
127
125
117
112
115
117
122
122
117
117
115
117
117
112
122
125
127
117
115
115
117
112
107
112
122
127
127
122
122
125
132
129
129
129
112
105
107
103
100
98
95
93
86
80
78
78
80
89
93
98
103
112
125
127
129
129
127
127
122
122
120
117
115
117
120
120
115
110
107
115
125
122
120
120
120
117
120
112
122
122
127
120
115
112
117
115
112
115
117
122
125
120
122
127
129
127
132
129
112
110
110
105
98
95
100
98
95
84
80
78
82
89
93
93
98
105
117
127
132
129
129
132
127
120
115
112
112
115
117
117
117
112
107
112
120
112
112
117
120
115
117
115
125
120
125
120
115
112
115
120
120
120
115
115
117
122
127
132
132
132
132
125
110
107
105
98
93
95
100
98
98
89
80
80
84
89
91
91
98
103
107
120
127
129
129
127
125
125
117
117
120
110
112
115
110
110
110
115
115
112
110
112
115
115
115
115
122
117
120
120
120
112
110
115
122
120
112
110
117
125
132
137
137
134
132
122
110
105
100
91
91
91
93
98
95
93
89
89
93
100
103
100
100
105
107
115
125
129
132
127
127
127
120
120
115
110
110
112
110
107
107
115
120
112
110
110
110
115
117
117
122
122
120
115
117
115
110
110
117
120
120
122
125
129
134
134
129
132
132
117
107
105
95
86
82
86
86
98
98
98
98
100
98
95
98
103
100
98
100
110
125
125
132
129
127
122
120
117
115
112
112
107
105
103
103
110
115
110
112
110
110
117
117
115
125
125
122
120
120
120
115
112
115
122
125
127
129
129
129
132
132
134
132
112
103
98
95
84
78
82
91
95
100
100
107
107
103
98
93
95
93
93
95
105
117
125
127
122
122
122
122
117
115
117
115
112
107
103
100
105
107
110
112
110
110
115
112
112
125
127
122
122
125
122
120
117
117
120
125
129
134
129
127
129
132
134
127
107
98
100
95
91
84
84
93
100
103
105
115
117
110
98
93
86
86
93
95
105
112
122
122
122
117
117
117
115
117
112
110
112
115
105
100
103
105
110
112
105
110
112
107
105
127
127
127
125
120
117
122
122
122
117
120
127
132
132
129
129
132
132
120
100
91
95
95
91
86
86
95
98
100
105
120
122
120
105
95
86
91
91
93
103
107
112
122
122
117
115
112
112
115
105
107
110
112
110
103
103
105
110
110
105
110
107
107
112
129
127
129
129
125
125
120
127
127
127
122
122
129
134
137
134
134
129
115
98
93
95
93
91
89
89
93
93
95
103
120
122
122
115
103
95
95
93
89
95
103
107
115
122
122
117
117
115
110
110
110
107
107
110
107
105
103
100
105
110
110
107
110
115
127
129
127
127
125
120
120
127
127
129
125
117
125
134
139
139
139
132
112
100
93
98
93
91
91
89
91
93
100
105
117
122
125
122
112
103
95
91
84
89
95
103
107
117
120
122
120
112
112
115
115
115
112
115
110
105
103
100
105
112
103
105
112
115
132
129
127
125
120
115
120
132
132
127
122
120
125
137
142
149
142
129
112
103
95
95
89
89
89
89
93
100
105
110
115
122
129
127
120
110
100
93
89
82
84
98
103
112
120
120
117
112
117
122
120
115
115
112
107
103
100
103
107
105
105
107
107
110
127
132
129
125
120
122
125
129
132
125
125
122
125
137
137
142
137
127
112
103
95
89
84
89
91
93
98
107
107
115
120
127
134
132
127
117
107
98
93
89
84
89
95
105
117
120
122
117
117
122
117
107
107
110
100
100
107
105
107
110
112
112
112
110
