P2
# 220 of 608 Angiograms
64 64
255
103
98
100
105
105
105
103
103
100
100
103
105
103
105
110
105
100
103
105
105
105
103
100
105
107
107
110
103
95
95
100
100
95
95
95
98
103
107
105
100
103
105
98
103
105
100
98
98
98
103
105
105
103
103
103
100
98
100
100
95
98
98
103
100
107
103
105
103
100
100
100
107
110
105
103
105
103
105
110
110
103
103
110
103
98
100
100
100
103
110
105
103
100
95
98
95
93
100
98
98
103
100
103
103
103
103
105
105
107
107
103
95
91
98
105
110
105
100
105
105
100
100
103
100
95
98
103
103
107
107
105
100
100
100
103
107
105
105
103
103
107
107
105
110
110
107
107
103
98
100
100
103
105
110
107
103
100
98
95
98
100
103
103
103
100
95
98
98
103
105
110
103
107
110
107
103
98
100
105
110
103
98
100
100
98
100
107
107
100
95
95
100
107
105
100
100
105
103
105
103
100
100
100
110
107
105
105
110
115
110
107
107
105
100
105
107
110
112
107
105
107
103
98
103
103
100
103
103
100
98
95
100
103
107
105
98
103
110
107
103
105
103
105
105
100
95
98
98
95
95
100
103
98
95
91
91
107
103
100
105
103
103
103
100
100
98
100
107
105
105
105
107
110
112
112
112
110
105
107
110
112
112
110
107
110
112
105
103
100
100
103
103
105
105
100
103
107
112
107
105
105
103
107
110
107
105
107
107
100
95
95
100
103
98
98
98
93
93
95
95
110
107
107
110
107
107
105
100
100
98
100
105
110
112
105
100
107
110
110
107
107
103
105
107
107
103
105
103
107
112
110
107
98
95
103
103
107
103
100
100
105
107
103
105
103
103
100
103
103
105
103
100
95
98
100
105
103
100
100
98
93
91
95
98
112
107
107
110
107
100
98
100
100
103
105
107
110
110
105
103
105
112
107
103
107
103
100
105
103
98
105
103
103
107
110
103
100
98
98
100
107
100
100
103
105
105
103
100
100
105
100
93
95
98
98
93
93
98
103
103
100
100
100
98
95
89
93
98
110
103
103
110
105
95
91
93
98
105
107
107
103
100
103
110
107
110
105
105
112
112
107
105
105
100
103
103
100
103
105
105
105
100
98
103
103
107
103
98
105
107
100
95
98
98
103
103
105
103
98
95
95
98
100
98
98
100
95
95
93
86
93
93
103
95
103
110
105
98
91
91
103
110
110
103
100
100
103
110
112
110
105
107
107
110
110
103
103
105
100
100
100
100
103
105
105
100
105
100
105
112
107
103
103
103
100
103
100
98
105
105
103
100
98
100
100
105
100
98
95
95
93
91
86
89
98
98
105
100
105
110
103
98
98
98
103
105
103
100
100
105
105
105
110
110
107
105
105
107
110
103
100
98
98
100
105
103
103
103
103
103
103
105
112
112
105
103
105
107
107
105
105
105
107
105
100
98
100
103
100
98
95
95
93
93
93
95
95
95
98
93
107
105
103
107
107
105
107
110
107
103
103
100
100
103
103
105
107
112
107
105
107
110
110
105
103
100
100
103
107
107
107
103
105
107
103
110
112
107
103
100
103
105
103
105
105
110
107
107
100
98
100
103
100
95
95
93
98
98
100
100
100
95
93
91
105
105
107
110
107
107
105
105
103
98
100
98
100
100
98
105
105
107
105
107
107
107
105
103
107
105
107
105
107
107
112
107
110
112
105
105
105
103
100
100
98
103
105
105
98
103
107
107
107
100
100
103
103
98
95
100
105
105
100
100
100
95
93
93
107
112
117
110
103
105
105
103
98
95
98
100
100
103
98
98
100
100
105
105
103
103
98
95
110
110
105
105
100
105
107
105
105
103
105
103
103
100
103
100
98
100
105
98
95
98
100
103
107
107
103
105
103
95
95
103
103
100
100
103
98
93
93
93
115
115
112
107
110
105
103
100
103
103
105
107
107
107
100
98
98
98
103
98
95
100
98
105
105
100
100
103
105
105
107
105
105
105
105
103
105
105
105
100
98
100
103
98
98
95
98
100
103
110
103
100
100
95
100
105
100
98
95
100
95
93
93
95
115
112
107
103
105
107
98
98
103
103
100
100
103
105
100
98
105
100
100
103
100
100
105
107
103
100
98
105
103
103
110
107
105
105
105
105
107
107
107
103
95
98
100
103
95
95
98
100
103
112
105
103
103
98
100
105
103
98
98
98
98
100
98
93
105
98
95
93
95
95
91
95
93
93
98
93
95
95
91
95
103
100
100
105
105
105
107
105
105
107
105
107
107
103
107
105
100
105
105
103
107
105
107
105
103
103
105
103
98
100
103
98
105
112
105
105
100
93
98
105
103
100
95
93
93
103
103
93
93
91
89
89
89
91
93
91
86
89
91
91
89
84
80
91
98
93
100
103
105
105
110
103
98
103
98
105
107
105
107
107
100
103
107
100
105
107
110
110
105
103
103
103
100
103
103
103
112
112
103
103
103
98
98
105
105
100
98
98
95
100
100
98
82
82
84
84
86
91
86
84
84
78
78
82
84
78
76
86
95
98
98
100
100
105
110
103
98
105
100
107
107
100
103
103
105
105
105
100
107
105
107
105
98
98
100
100
105
105
107
103
105
105
95
95
95
95
98
105
110
105
100
100
98
95
93
93
84
82
82
84
86
86
84
84
86
78
70
72
80
78
80
86
91
91
91
93
98
105
103
105
107
105
103
110
112
110
105
105
107
105
110
107
105
103
105
103
95
98
100
105
107
110
105
98
100
103
100
98
93
98
103
110
110
107
103
103
103
100
95
91
89
84
84
89
93
91
82
80
84
78
74
72
78
78
84
86
89
91
86
89
95
98
100
105
107
103
100
107
112
112
112
112
105
105
110
105
98
105
110
105
100
95
100
105
107
107
100
100
98
103
103
100
100
100
103
105
105
105
103
98
95
98
103
100
86
86
82
89
89
91
84
82
84
80
76
74
82
82
80
84
82
84
82
84
91
93
91
91
93
93
93
98
103
105
110
115
110
107
105
103
105
105
107
105
105
100
98
95
103
103
100
105
105
105
103
98
95
98
100
100
103
100
100
100
100
105
103
98
86
91
89
89
86
89
86
84
86
82
76
74
80
78
80
80
76
76
76
78
89
86
80
82
86
91
86
86
91
98
103
107
107
107
105
100
100
100
103
110
110
107
105
98
100
100
93
103
100
100
103
103
103
100
100
98
98
95
100
100
105
107
100
93
86
91
93
89
89
91
91
86
89
82
76
80
84
82
78
78
78
80
78
76
82
82
76
78
82
86
86
82
80
84
93
100
103
103
100
100
100
103
105
105
105
105
110
107
105
107
103
103
100
103
107
105
105
103
100
98
103
103
103
100
100
100
100
95
93
100
100
98
98
100
98
93
84
84
82
86
86
84
84
86
84
84
82
78
84
84
78
78
80
84
84
80
76
78
82
89
93
95
98
100
103
103
107
105
105
107
105
103
105
107
105
100
103
107
107
100
103
105
103
98
103
103
103
98
100
98
95
95
103
105
103
103
103
105
103
100
93
91
93
93
93
89
89
91
89
86
86
82
82
86
86
78
80
84
84
74
78
82
82
84
84
86
91
91
98
103
105
103
100
98
95
95
98
100
100
98
100
100
103
98
105
107
100
98
100
95
98
98
98
103
98
98
105
110
110
105
110
112
105
105
100
95
100
100
100
100
95
93
93
95
93
86
82
86
84
84
84
82
78
72
74
82
82
80
82
84
84
84
93
100
103
103
98
91
91
98
100
100
103
100
100
100
95
100
103
100
100
103
103
98
98
100
100
103
103
103
103
105
107
105
105
110
107
105
105
103
100
100
100
103
100
98
98
103
103
98
91
89
89
89
89
82
78
74
80
80
78
82
89
82
76
82
89
95
98
98
95
95
98
103
103
100
107
110
105
95
93
100
103
100
105
105
105
103
103
107
105
103
100
103
105
103
105
103
98
103
110
110
110
107
105
105
98
103
105
103
105
110
107
107
105
98
93
91
89
86
82
84
86
80
78
86
84
82
78
82
91
95
95
93
91
89
91
95
100
103
105
103
98
93
98
98
103
105
107
105
107
107
112
112
110
105
103
98
107
110
107
103
100
100
107
115
112
105
110
107
103
100
105
105
103
107
107
112
110
107
100
95
89
86
84
84
86
84
82
86
86
86
86
89
93
91
86
89
91
86
86
91
93
93
95
98
95
95
95
98
103
100
103
107
110
115
107
110
110
105
98
100
107
107
107
107
100
103
115
112
110
110
110
105
103
100
103
105
105
107
110
115
110
105
105
100
98
95
91
86
84
84
86
86
86
91
93
86
86
86
84
89
89
84
86
91
91
89
91
93
98
100
98
100
105
100
103
105
105
103
105
110
112
107
103
105
100
105
107
103
105
110
115
112
110
107
103
100
105
103
105
110
107
112
112
115
105
105
103
100
103
100
98
93
93
93
93
98
98
100
100
89
86
93
91
89
84
80
86
86
86
89
89
89
95
103
98
100
98
98
103
105
110
107
110
110
110
107
103
103
105
107
107
105
100
100
105
107
105
103
100
100
112
107
112
112
115
122
117
112
110
107
103
103
107
105
103
105
103
103
107
110
103
103
105
93
95
98
93
91
91
84
84
84
84
86
91
93
100
103
95
93
93
98
98
107
112
110
105
103
100
100
103
103
107
105
105
103
100
105
103
103
98
100
100
110
112
107
110
115
110
115
112
107
107
103
105
112
112
105
103
107
107
110
110
107
105
105
103
100
103
103
98
100
100
93
86
86
89
89
93
100
100
100
93
89
91
98
93
95
100
100
103
103
100
103
110
100
110
110
107
105
107
112
107
98
103
105
107
112
112
107
110
110
107
105
105
105
105
98
100
105
110
105
100
105
110
110
105
100
103
107
103
98
100
103
105
103
107
107
105
100
98
98
100
103
103
100
89
86
86
93
91
86
91
95
103
103
100
103
107
100
105
103
100
98
103
110
110
103
100
105
107
110
112
110
105
107
100
100
100
107
100
103
103
100
100
100
93
103
107
107
103
103
110
112
107
100
103
100
105
103
107
110
105
107
110
105
103
100
100
95
89
84
82
84
89
86
86
93
100
105
100
95
98
98
105
103
100
103
105
107
105
100
103
103
105
107
110
107
103
103
100
105
105
100
95
103
103
105
100
95
93
98
103
103
100
100
105
107
105
100
100
103
103
100
100
105
105
110
110
105
107
107
100
93
89
84
80
78
80
80
84
86
93
100
98
95
95
95
105
103
103
107
110
105
105
100
105
105
103
105
107
107
103
100
103
105
103
100
98
98
105
112
105
98
95
98
103
100
100
103
103
105
103
103
103
107
107
110
110
105
105
105
103
98
105
112
105
95
95
89
84
80
82
84
84
84
86
93
95
95
95
93
105
105
107
105
100
100
103
103
105
105
103
103
112
110
103
103
103
98
98
103
103
100
100
105
105
100
100
103
100
98
103
100
103
105
105
105
103
103
105
105
103
105
105
100
100
98
105
107
103
98
98
95
91
84
91
86
80
82
82
89
93
93
89
86
115
110
103
100
98
95
98
107
107
100
98
105
112
112
103
103
107
100
103
100
103
103
105
105
103
100
100
103
103
107
107
100
100
100
103
100
103
103
103
103
103
107
105
100
100
100
105
107
105
100
103
100
93
89
89
84
78
78
78
78
82
82
82
82
112
103
98
100
103
103
100
105
110
107
100
107
115
112
100
95
103
103
103
100
103
103
107
103
98
105
107
110
107
105
100
98
100
103
105
103
107
107
100
103
105
105
105
100
100
105
105
107
107
107
107
103
98
93
89
86
82
80
80
78
76
80
82
80
105
98
100
98
103
105
100
103
110
112
107
107
112
112
103
93
93
103
105
100
95
98
105
100
98
103
105
105
100
100
98
98
100
100
105
107
107
110
103
100
105
107
110
107
107
105
105
110
110
110
110
107
103
100
95
91
91
86
84
84
76
80
84
80
110
107
103
93
95
103
103
98
100
105
107
107
110
112
107
95
91
98
100
93
93
98
100
100
98
95
105
103
98
98
100
105
105
103
110
105
98
98
100
107
107
105
110
107
107
107
107
107
107
105
105
105
105
110
103
95
95
93
86
78
70
78
84
82
105
105
103
98
103
100
98
98
95
100
110
110
110
107
105
95
93
100
100
98
95
95
100
103
105
98
100
107
105
98
100
105
107
105
107
103
98
100
107
112
107
105
107
107
107
103
103
103
103
103
103
105
103
105
100
98
93
91
89
80
76
80
80
82
107
105
107
107
105
98
93
95
100
105
110
107
103
100
103
93
95
100
103
103
100
98
100
100
107
110
103
110
110
100
98
103
103
100
105
100
95
100
105
107
105
105
105
103
105
110
103
100
98
105
103
107
107
98
100
100
100
95
91
91
82
80
80
78
105
105
107
110
105
100
103
105
107
112
105
98
100
100
100
98
98
103
105
105
103
98
103
105
107
107
105
103
103
105
100
103
103
103
103
98
95
103
103
105
107
112
107
100
100
105
100
98
103
105
100
103
103
103
103
103
100
95
93
93
91
86
78
76
103
105
107
107
110
110
107
105
110
107
105
103
100
100
98
103
103
103
107
107
103
100
103
105
105
105
103
100
98
100
100
105
107
110
107
98
105
110
105
105
112
112
105
100
100
103
100
95
100
98
95
95
103
105
105
103
98
95
93
93
93
95
89
82
103
103
107
105
107
103
100
98
100
105
107
110
103
98
103
105
105
100
103
105
103
103
100
100
100
105
105
105
100
103
103
105
107
103
98
105
107
107
110
107
107
103
98
100
105
100
100
98
103
105
98
93
103
110
112
110
103
105
100
95
98
98
98
93
100
103
107
105
103
103
98
95
95
98
100
105
100
100
103
100
107
103
105
107
110
105
100
100
100
100
98
98
100
100
98
100
105
100
103
107
103
103
110
107
100
100
98
100
103
100
103
103
110
110
105
93
100
105
107
103
98
100
100
95
98
98
98
93
95
100
105
105
103
107
103
95
93
95
100
107
103
103
103
103
107
112
110
112
107
105
100
95
98
98
95
95
103
103
103
100
103
103
107
107
105
105
107
107
103
103
105
107
103
103
105
107
112
107
105
103
100
100
100
100
95
93
95
98
95
95
98
95
93
98
100
105
107
112
105
95
93
100
105
107
103
103
100
100
107
105
107
110
103
103
100
98
100
98
95
98
98
98
98
98
98
103
107
107
107
103
103
105
105
98
105
110
107
103
103
105
107
103
103
103
103
103
100
95
95
98
95
95
98
100
100
95
95
100
103
105
110
107
100
98
100
103
103
105
105
100
95
95
100
98
100
105
103
103
100
98
100
105
100
98
95
95
95
98
98
103
105
103
103
103
103
100
100
98
103
107
107
105
105
107
112
103
103
100
98
98
98
98
103
100
100
100
98
98
98
98
98
98
100
105
110
103
100
100
103
100
95
98
98
93
93
98
98
95
95
98
100
103
103
98
95
98
98
103
103
100
98
100
103
103
100
98
95
98
103
100
95
95
100
107
105
103
105
110
107
105
105
100
93
95
95
93
98
98
98
100
95
98
95
98
105
98
100
105
105
103
98
100
103
93
89
93
89
91
98
105
93
91
91
93
95
100
100
100
100
103
107
107
105
98
98
103
105
98
93
98
100
100
100
100
95
95
98
103
103
103
107
110
110
107
103
103
98
98
100
98
98
91
93
95
95
100
100
98
103
103
103
100
100
105
103
98
98
98
95
95
93
93
98
100
95
95
91
91
93
98
100
103
105
103
105
100
98
100
100
100
103
93
93
98
100
105
103
98
95
98
103
107
105
100
105
105
107
105
103
103
100
98
98
98
98
98
93
95
98
100
100
98
107
107
107
107
103
100
103
98
98
100
105
105
105
100
98
98
107
103
95
95
93
98
100
100
98
95
98
103
103
100
100
103
103
100
100
98
100
105
100
95
95
98
103
103
100
98
100
100
100
98
98
103
103
95
95
93
95
95
95
98
98
93
95
95
110
107
105
110
107
105
105
103
103
105
105
110
107
105
100
98
100
103
95
95
93
93
98
95
93
100
100
103
107
98
95
107
107
107
100
100
103
105
103
95
98
98
95
98
98
98
100
100
98
95
98
103
100
95
98
95
100
98
95
98
95
91
98
93
105
105
103
105
103
100
107
103
98
95
100
105
107
103
100
100
103
103
100
98
98
95
95
89
91
100
103
100
100
93
95
107
107
103
98
98
103
105
105
103
100
98
98
103
105
103
103
98
100
100
105
105
103
98
98
98
95
95
91
95
95
95
100
98
98
98
103
105
103
100
107
103
103
95
93
103
103
100
100
100
100
103
100
98
95
93
91
84
91
93
95
98
98
93
95
100
98
95
100
100
98
98
98
103
100
98
98
98
100
103
100
103
103
103
103
105
103
98
100
98
91
95
95
98
98
100
100
100
95
100
100
103
103
103
103
100
100
100
93
98
100
98
105
105
105
105
100
98
95
95
93
89
89
89
91
98
98
93
98
95
91
98
105
110
100
91
93
98
100
100
95
98
95
95
103
107
107
105
105
103
98
95
100
95
93
100
98
98
95
103
100
95
98
107
103
100
100
103
100
98
103
103
95
95
98
98
103
105
105
103
98
93
93
98
98
95
89
95
98
98
98
95
98
95
95
95
103
103
93
95
95
95
95
95
91
93
89
89
95
98
98
95
100
103
98
93
95
95
93
100
100
95
98
100
95
95
103
107
107
100
98
95
93
91
95
95
95
98
100
103
105
103
103
103
95
91
95
100
103
100
98
103
103
98
98
98
98
95
95
98
98
100
95
100
98
98
98
98
98
98
93
91
91
95
95
93
95
100
95
91
93
98
100
98
93
93
95
93
93
98
103
105
107
103
95
91
93
95
95
93
98
98
105
105
105
105
98
105
100
95
98
100
100
100
95
100
98
93
93
93
93
93
95
100
98
100
100
100
98
100
98
93
93
100
95
91
89
95
93
91
89
93
89
89
89
100
100
98
91
89
93
89
89
98
98
100
98
98
98
98
98
98
95
95
98
95
100
98
103
103
98
100
98
98
98
95
98
98
95
93
91
91
91
91
91
93
93
93
98
98
95
93
95
103
100
93
89
98
95
89
89
95
95
91
91
93
91
86
91
100
98
98
93
93
91
89
86
91
95
100
95
93
103
105
100
95
93
95
93
89
93
98
103
103
93
91
95
98
98
95
93
98
95
91
91
93
95
95
91
91
95
93
95
100
98
98
95
100
98
93
89
91
93
91
91
95
98
95
98
98
95
91
95
98
98
98
95
98
98
98
95
93
