P2
# 223 of 608 Angiograms
64 64
255
165
163
159
151
156
156
154
154
156
156
154
159
161
168
168
168
170
170
168
165
165
161
154
156
159
161
161
163
165
170
168
163
159
151
151
154
159
161
161
161
159
154
151
151
154
151
151
154
156
159
154
147
144
149
149
156
156
156
159
163
163
163
161
161
165
163
159
149
151
154
154
156
159
159
159
159
161
163
165
170
168
168
165
163
161
156
151
156
163
168
168
165
165
168
168
163
161
156
159
156
163
168
163
159
156
156
154
151
151
154
154
154
156
154
154
147
147
151
151
156
154
154
159
161
161
161
163
159
163
161
159
151
151
154
151
154
154
154
154
154
161
165
168
170
165
165
168
165
163
159
159
161
165
168
170
168
165
165
161
163
161
159
159
161
165
168
161
156
156
156
154
151
151
151
151
154
161
156
156
154
151
151
156
156
159
161
163
165
163
163
163
163
165
159
156
156
151
149
149
151
151
149
151
159
161
163
165
165
165
168
170
165
163
163
163
163
163
165
168
170
168
163
156
159
161
159
161
163
163
165
163
159
154
154
151
154
156
156
154
156
163
161
156
156
154
151
151
159
161
165
163
163
163
163
163
161
163
159
156
154
147
144
142
147
149
147
149
154
156
161
168
172
172
168
165
163
168
168
168
168
163
161
161
163
163
163
159
163
161
156
156
161
163
163
161
156
154
156
154
161
159
156
159
161
165
161
161
159
156
154
156
159
161
161
165
163
163
165
161
159
163
156
154
149
144
142
147
149
147
144
149
154
161
165
172
176
170
165
163
163
170
170
172
174
168
163
159
159
161
163
163
163
163
154
154
159
159
156
154
151
154
154
159
161
156
156
161
163
163
163
161
159
156
156
156
159
159
163
168
168
168
165
161
159
161
154
147
147
144
147
147
144
139
142
149
159
161
161
163
163
163
163
163
170
168
165
170
172
168
163
161
161
163
161
161
161
159
149
149
151
151
149
151
149
151
156
159
159
156
161
163
165
163
161
156
156
154
154
159
156
161
165
165
168
168
168
163
161
159
151
144
144
147
144
142
139
142
149
159
161
159
159
159
159
161
161
165
170
168
165
168
168
165
163
161
161
163
163
163
163
154
147
144
151
149
149
149
151
149
151
154
154
156
159
159
159
159
156
154
156
156
156
156
154
154
163
163
159
161
163
163
161
154
149
149
147
147
147
147
147
149
156
161
161
156
156
156
159
161
161
165
170
170
168
165
163
163
161
163
165
165
163
161
161
154
147
144
147
149
149
149
144
142
139
142
142
147
149
154
156
156
156
156
156
151
147
147
147
149
154
159
161
163
163
161
159
151
149
147
147
147
151
151
151
151
154
156
159
156
161
161
163
161
161
165
170
170
168
165
163
165
165
165
165
163
161
159
156
149
142
139
137
137
137
137
132
129
129
129
132
137
142
147
147
147
147
144
142
137
134
132
132
132
139
147
151
154
156
156
156
149
147
147
149
151
154
151
144
147
151
151
156
161
161
161
165
161
159
163
168
168
168
168
168
170
168
165
161
163
161
159
149
142
137
132
127
125
122
120
120
117
120
122
127
129
134
137
134
134
132
127
122
120
120
120
120
120
122
127
134
137
142
147
151
149
149
151
154
156
156
151
147
147
151
151
154
161
161
163
168
165
163
163
168
168
170
172
174
170
170
168
165
163
159
151
147
139
134
127
125
122
120
120
115
110
112
112
117
120
125
127
125
122
120
117
115
115
115
115
112
112
115
115
117
120
125
134
139
151
147
149
154
154
154
154
149
151
154
154
154
161
163
168
168
168
168
165
165
165
168
174
174
168
168
168
165
159
151
147
144
137
132
129
127
125
125
120
112
107
105
105
107
110
112
117
120
117
112
112
110
110
105
103
103
103
105
107
110
110
115
120
122
154
149
151
156
151
149
149
151
156
159
159
159
163
168
170
170
170
165
165
163
165
170
176
174
168
168
165
159
151
149
147
139
132
132
129
127
129
125
122
115
107
105
107
110
107
107
107
112
112
115
115
110
105
105
103
98
98
103
105
103
107
110
112
112
156
154
154
159
156
151
149
151
159
161
163
168
168
170
168
170
168
161
161
163
168
172
176
174
172
165
159
149
147
147
142
134
132
134
132
129
129
129
125
120
112
112
112
110
105
105
98
100
107
112
112
107
105
105
98
98
100
105
103
100
103
107
107
105
154
149
147
151
156
156
154
156
156
161
161
165
168
170
170
168
168
163
163
165
168
172
176
172
163
156
149
144
144
142
132
132
134
132
134
134
137
139
137
132
125
122
120
117
110
105
95
95
100
107
107
105
103
103
93
89
98
98
95
93
95
100
107
107
147
142
142
149
154
161
163
161
161
163
163
165
168
168
170
172
170
168
172
174
172
172
170
161
154
147
144
142
142
137
129
134
134
134
137
144
149
154
151
147
139
134
129
127
120
112
105
98
98
103
105
107
105
100
93
91
98
95
89
93
98
95
100
103
142
142
147
147
151
156
163
161
161
163
165
163
168
168
170
174
174
172
172
170
168
168
159
149
144
139
139
139
142
137
132
132
134
137
144
149
156
161
159
156
149
144
142
139
137
129
117
110
103
105
107
107
105
100
98
95
95
91
84
89
95
95
103
100
144
147
149
147
149
151
156
156
156
159
163
165
170
170
168
170
172
170
168
165
161
154
147
142
137
134
137
137
137
137
132
132
137
144
151
159
161
159
156
156
156
151
149
151
149
144
137
125
115
112
115
112
107
105
103
98
93
89
86
89
95
98
103
100
149
151
151
149
149
144
142
142
144
151
161
163
165
165
165
168
168
165
161
156
149
142
137
134
134
134
139
137
134
134
137
139
144
151
159
163
161
156
159
161
159
159
161
156
154
151
144
137
129
122
120
117
112
110
107
103
93
86
84
91
95
98
103
105
151
151
154
151
149
144
137
132
139
149
159
161
159
159
161
163
161
159
156
149
139
132
129
129
132
134
134
134
129
132
134
142
147
156
159
163
163
161
161
163
165
165
161
154
149
151
149
144
139
134
127
120
115
110
107
103
95
91
91
98
103
103
103
100
154
151
154
154
151
149
147
144
147
156
159
154
159
156
159
159
159
156
151
139
132
125
125
125
127
132
134
132
129
129
134
142
149
156
159
161
165
165
163
161
165
161
156
154
151
151
151
147
144
142
139
132
122
115
105
105
103
103
103
105
107
103
100
100
151
151
154
154
154
151
154
156
156
156
159
159
159
161
163
159
159
154
142
132
125
122
127
127
125
125
125
127
129
134
137
142
149
156
156
161
163
163
161
161
161
159
156
154
151
154
151
147
151
151
149
142
132
122
115
107
107
112
112
110
110
110
105
103
139
144
149
154
156
154
156
156
161
165
168
168
168
168
168
163
156
147
137
127
120
120
120
120
120
117
122
122
122
129
137
142
147
154
156
159
161
159
161
165
161
161
159
154
156
159
154
154
154
156
156
149
142
134
125
120
117
117
112
112
112
112
112
107
134
144
149
156
156
159
156
161
165
168
170
170
174
174
172
163
151
142
129
122
117
115
112
117
115
117
122
117
120
125
134
142
147
154
159
161
161
163
163
165
168
163
159
159
159
161
159
159
154
156
159
149
147
137
134
132
125
122
120
120
117
112
110
112
142
151
154
159
159
161
159
161
163
165
170
176
176
174
170
159
144
134
122
117
112
110
110
115
117
117
120
120
122
125
134
144
151
156
159
163
163
168
168
165
165
165
161
159
159
163
161
159
154
156
156
151
151
144
142
142
139
132
129
127
125
120
115
112
154
156
159
159
161
161
163
161
163
170
172
174
174
172
165
149
137
125
115
107
105
105
105
110
115
115
117
120
125
129
139
147
151
156
159
161
163
168
165
165
165
165
163
161
159
159
161
163
156
156
151
151
151
149
147
149
147
142
137
134
129
129
125
120
159
156
161
163
161
159
163
163
163
168
168
168
168
168
154
137
125
112
105
103
103
100
103
107
112
112
115
120
127
139
147
149
149
156
156
161
163
165
165
170
170
168
163
161
156
154
156
159
154
151
149
149
154
151
151
149
147
147
144
142
139
137
137
134
156
156
159
163
161
163
165
163
165
168
170
168
168
156
139
125
112
103
98
100
103
103
103
107
105
107
117
129
139
147
154
156
154
156
159
161
165
163
163
165
165
168
163
159
154
151
151
151
151
147
147
147
151
156
156
151
151
151
151
147
147
142
139
139
156
156
159
163
168
165
165
168
172
172
174
170
161
144
129
115
103
95
95
98
100
103
105
103
103
110
125
137
147
149
154
156
156
159
159
159
163
163
163
163
163
165
161
156
151
151
151
147
144
147
149
149
147
149
154
156
156
159
154
149
147
147
149
149
161
159
161
165
168
165
168
174
176
174
172
165
149
134
120
107
103
95
93
100
98
98
105
105
107
117
134
147
154
154
149
154
163
161
159
159
159
161
161
161
161
161
156
156
154
151
149
149
149
151
149
147
144
147
151
156
156
159
154
154
154
156
156
156
168
165
165
168
165
168
168
176
178
176
172
161
139
125
115
107
105
100
95
95
95
95
103
110
112
127
144
147
154
159
154
156
163
165
165
161
159
159
156
151
151
151
154
154
149
147
147
149
151
151
149
144
144
149
151
154
156
156
154
159
161
156
159
161
170
170
170
170
170
170
165
172
178
178
170
149
129
117
110
100
103
103
98
95
95
98
105
110
117
137
151
149
149
156
156
161
163
165
163
161
156
154
154
151
154
154
154
151
149
144
147
144
147
149
147
149
149
147
151
154
154
156
156
159
163
163
163
163
176
176
172
172
170
170
163
168
172
174
163
139
125
115
110
107
103
100
98
95
98
105
107
115
129
147
159
154
149
154
159
161
163
163
165
163
156
149
156
156
156
159
156
156
154
151
149
149
149
149
151
151
147
147
149
151
149
154
156
159
163
163
161
165
182
180
176
176
176
172
165
168
174
172
154
134
122
112
110
105
98
93
93
95
105
110
115
127
139
151
159
154
154
159
159
163
163
161
163
163
156
154
156
161
161
159
159
161
156
151
151
151
151
154
149
147
151
149
151
156
151
154
156
159
159
159
159
163
178
178
178
180
182
180
174
174
172
165
149
132
117
107
105
100
95
91
95
105
112
115
122
134
144
154
156
156
159
159
163
163
161
161
159
159
156
156
161
163
159
161
159
156
154
151
151
154
151
149
149
151
149
151
154
156
156
154
156
156
154
154
156
159
176
178
178
180
182
184
182
180
174
159
142
129
115
105
100
93
93
98
105
110
115
122
134
142
149
151
154
159
159
161
159
161
161
163
163
159
156
159
163
163
161
159
156
154
151
151
151
151
151
149
151
154
154
154
159
159
156
156
159
154
154
156
159
156
178
178
178
178
184
186
186
182
170
149
137
122
112
105
100
95
98
100
107
110
115
129
142
154
154
154
156
154
151
156
154
156
156
159
161
159
159
159
163
163
161
161
156
149
151
151
154
156
154
154
154
151
154
154
156
159
156
156
156
154
151
156
159
154
182
182
178
176
180
182
182
180
161
142
129
117
110
103
100
95
98
105
107
110
120
137
151
161
161
159
161
154
151
156
156
154
151
151
159
159
156
161
161
161
163
163
163
156
154
151
154
156
159
156
154
149
149
151
156
154
154
151
149
154
151
154
159
154
182
182
180
178
180
182
182
174
151
134
125
117
107
103
100
98
100
105
107
115
127
147
161
161
161
161
159
149
147
156
156
149
147
144
149
151
156
161
161
161
165
163
165
163
161
156
154
154
159
156
151
147
147
149
154
154
154
149
144
147
149
151
154
154
176
176
178
180
182
182
178
163
144
132
125
117
112
105
100
100
107
107
115
122
137
156
168
165
163
161
156
147
147
151
159
154
147
147
149
154
161
161
163
163
163
165
165
165
163
163
161
156
151
154
151
149
151
149
151
151
147
142
142
142
147
149
149
151
174
176
178
178
178
178
172
156
139
132
125
122
120
110
103
105
110
112
120
129
149
163
170
170
165
161
154
147
147
149
156
156
149
147
147
154
161
163
163
165
163
168
165
163
161
161
159
156
151
154
154
154
154
149
147
144
142
142
144
139
142
147
147
151
174
176
178
178
178
174
165
154
139
129
127
127
125
117
105
107
112
117
125
142
159
168
170
172
165
159
149
147
147
149
154
154
147
144
147
149
156
161
163
161
159
163
165
163
159
156
156
156
156
154
154
156
154
149
147
144
139
142
147
139
139
144
149
151
178
178
176
176
174
170
161
149
137
129
129
127
120
112
110
110
115
120
132
154
165
170
168
168
163
154
154
156
154
149
149
144
144
147
149
149
147
151
151
156
159
156
156
161
156
151
154
154
154
156
151
149
151
151
149
147
142
142
142
137
139
142
144
147
182
180
176
174
172
165
156
144
134
129
129
120
110
112
117
112
115
125
144
163
168
168
168
165
159
154
156
156
156
151
144
142
144
147
147
144
147
151
151
154
161
159
159
161
154
151
151
151
154
156
154
154
156
156
154
147
142
137
134
134
137
142
142
147
178
178
176
172
168
163
151
139
134
129
127
120
112
112
112
115
120
134
156
168
170
170
168
161
159
156
159
159
156
151
144
142
142
142
144
149
154
156
156
154
156
159
159
159
156
156
156
159
161
156
154
156
156
154
154
147
144
139
134
134
134
134
137
142
178
178
174
170
168
156
147
139
132
127
127
125
122
117
117
122
132
149
165
172
172
168
163
156
161
159
159
161
156
156
154
149
142
142
147
149
156
156
156
154
154
159
156
156
159
159
161
163
163
156
154
154
154
156
154
149
147
142
137
134
132
129
134
137
174
178
176
172
163
154
147
139
129
125
129
129
125
127
127
134
142
156
165
172
170
165
159
161
161
161
159
159
156
161
159
154
147
144
149
149
154
154
156
156
156
159
154
154
159
161
161
163
161
156
156
156
154
156
154
154
147
144
139
134
134
137
137
137
178
180
176
168
156
151
149
139
132
132
129
132
129
129
137
144
151
156
163
165
165
163
159
163
163
159
156
159
156
161
161
159
154
147
144
149
156
156
154
154
151
154
151
151
154
156
159
161
159
156
161
156
154
156
154
151
147
144
139
139
139
139
139
142
182
180
174
163
149
151
149
142
134
125
127
127
132
134
142
149
156
159
161
161
163
161
163
168
165
159
156
159
161
161
161
163
163
156
151
149
154
156
154
149
154
156
154
151
151
156
156
156
156
156
159
156
156
156
156
149
149
151
142
137
139
142
142
144
184
182
172
159
149
149
147
142
129
120
122
125
129
139
147
154
161
163
159
161
165
168
170
172
165
159
159
161
163
163
163
168
168
165
156
151
151
151
151
149
154
156
154
151
154
154
154
154
154
159
156
156
151
151
154
149
149
151
144
137
142
142
142
144
186
182
170
156
147
144
144
137
122
115
117
122
134
144
154
163
165
163
161
163
165
168
172
172
163
159
159
163
165
168
170
172
170
168
161
154
149
147
147
144
149
151
154
151
151
154
151
151
156
156
156
149
149
149
151
151
149
149
144
142
144
144
144
147
182
178
168
154
144
139
139
132
120
115
120
129
144
156
168
170
170
165
161
163
165
165
168
165
156
156
161
168
170
172
174
174
170
168
163
156
151
147
144
144
147
149
149
149
151
149
149
149
151
154
154
149
149
147
149
151
149
149
147
139
147
147
144
147
178
170
161
151
147
144
142
132
127
127
134
144
159
172
176
176
174
174
168
163
163
165
163
159
151
161
168
170
168
170
172
172
172
170
165
159
156
154
151
149
149
149
149
149
149
151
147
149
151
154
154
149
149
151
149
149
151
149
147
137
139
142
142
144
172
163
156
151
151
149
147
139
137
142
149
163
176
180
182
180
178
178
174
168
163
168
168
165
165
170
170
172
170
172
174
174
172
168
163
159
159
159
154
151
149
147
149
149
149
154
151
149
154
154
154
151
154
156
151
151
147
147
147
144
142
137
139
142
165
159
151
147
151
154
151
147
147
151
165
176
180
182
182
182
182
182
180
174
168
168
168
170
174
176
174
174
174
178
180
176
172
168
168
165
161
159
154
154
154
147
147
149
154
154
156
156
156
156
154
149
149
151
154
151
149
147
144
144
142
137
137
137
156
154
147
144
144
151
154
151
154
165
176
180
182
184
184
182
182
184
184
178
172
168
163
165
170
174
176
178
178
176
176
174
174
170
170
165
161
161
161
161
156
147
144
149
151
151
161
161
161
156
149
147
149
149
151
151
151
147
144
142
142
137
137
137
154
149
147
144
144
149
154
156
163
176
180
184
186
184
182
184
184
186
186
180
176
170
163
159
161
170
174
172
172
172
170
170
172
172
170
165
159
159
161
161
154
151
147
147
149
151
159
161
159
154
149
149
151
149
147
149
147
149
149
142
142
142
134
137
151
149
147
142
147
149
154
161
172
182
186
188
190
186
184
188
184
184
182
180
176
172
168
163
154
161
168
168
172
172
168
163
165
165
168
163
159
159
161
159
154
151
151
149
147
149
151
154
151
149
144
144
151
147
144
147
147
149
147
144
142
137
137
139
151
149
149
147
147
151
151
159
172
178
184
188
188
186
188
188
184
180
180
180
174
172
170
170
163
159
163
170
172
172
170
161
159
159
161
161
156
159
156
159
159
154
149
149
151
149
144
144
147
147
147
142
144
147
147
149
151
149
144
142
137
134
137
137
149
147
144
144
144
144
144
151
165
176
178
182
184
186
186
188
184
182
180
176
172
172
170
172
170
163
161
163
170
170
168
163
163
159
156
161
156
159
159
161
156
151
149
149
147
144
139
142
144
142
142
137
142
147
151
154
154
147
139
137
137
134
132
134
137
132
132
137
139
139
137
144
159
174
178
178
180
182
184
184
182
176
174
172
170
170
170
168
168
170
163
163
165
168
165
163
163
159
161
163
163
161
159
156
154
154
149
144
147
142
137
137
137
137
142
139
142
149
151
151
151
147
142
142
137
137
137
139
120
117
117
120
127
127
132
137
149
165
174
178
178
178
180
178
174
172
174
174
170
168
168
170
174
170
163
163
163
161
161
163
163
163
168
168
168
163
156
154
154
154
151
149
147
144
139
137
134
139
144
142
142
147
149
151
151
144
144
147
142
142
139
139
98
100
103
107
112
117
122
129
142
151
163
170
172
172
170
170
168
170
172
172
170
168
170
172
170
163
161
161
163
161
163
170
172
170
170
170
168
165
161
156
156
154
151
149
147
149
147
142
139
142
147
144
144
147
149
151
149
144
142
144
144
144
142
137
