P2
# 224 of 608 Angiograms
64 64
255
103
103
105
110
112
105
103
105
103
100
95
98
103
110
107
107
107
110
112
112
117
120
122
122
120
122
127
137
142
147
151
154
151
154
159
159
159
159
149
154
154
154
154
149
149
149
151
156
154
159
159
161
159
154
156
159
156
151
149
149
149
149
151
149
98
105
110
107
107
107
105
100
103
100
95
91
98
105
107
105
103
105
110
110
110
112
120
122
120
117
117
127
129
134
139
147
151
149
151
156
161
159
149
154
156
154
154
151
144
149
151
156
154
159
161
163
159
154
156
156
151
147
149
149
151
154
154
154
100
103
105
103
107
112
107
103
98
98
98
95
98
105
110
112
107
103
105
110
105
107
112
117
117
110
110
117
122
122
127
134
142
147
149
149
154
156
154
159
161
151
149
149
144
144
151
151
151
159
163
163
161
159
156
151
149
144
147
149
151
149
154
156
100
93
95
100
103
110
110
107
98
93
95
98
100
103
103
107
110
107
105
107
103
100
107
112
117
105
107
110
117
122
120
122
129
134
137
142
147
151
154
161
161
156
151
144
144
144
149
154
154
159
163
163
163
161
163
154
149
151
154
154
151
151
156
159
95
93
95
98
105
107
103
98
95
98
95
98
98
100
100
100
105
105
107
103
103
100
105
112
115
107
105
107
112
117
117
117
120
125
127
132
137
144
149
154
154
151
151
147
142
144
151
159
156
159
161
163
161
165
165
161
156
156
159
159
154
154
159
156
93
95
100
105
103
105
105
103
98
95
98
98
93
93
95
98
100
103
100
98
103
105
107
110
110
107
105
107
107
112
110
107
107
115
117
120
125
132
139
142
144
149
151
149
142
147
151
159
161
163
163
165
161
159
156
154
151
154
156
154
156
156
156
156
98
98
103
103
103
100
105
107
98
93
95
95
95
93
91
95
93
98
98
100
98
100
105
103
105
103
107
103
100
103
105
105
107
110
110
112
117
120
127
132
137
142
147
149
147
144
154
156
159
161
161
163
161
154
154
151
149
154
156
151
154
156
159
156
103
103
103
103
105
100
103
100
95
91
93
89
95
98
93
91
93
95
100
100
98
100
105
100
100
100
98
100
103
100
100
98
100
105
105
110
115
115
117
122
125
129
134
142
142
144
151
156
154
154
156
159
159
156
154
151
149
154
156
154
154
156
156
149
105
107
100
103
107
105
107
100
98
95
93
93
98
98
95
93
98
100
103
100
98
103
98
95
100
103
98
100
105
100
103
98
95
100
105
107
110
110
110
115
120
120
120
127
137
144
147
151
154
154
156
151
156
159
159
156
151
154
156
156
161
159
151
149
103
105
105
103
103
107
107
107
105
95
95
98
100
100
100
95
93
95
98
98
105
103
93
95
103
103
100
95
98
100
100
98
93
95
103
100
103
103
103
110
112
115
112
117
127
134
142
147
154
156
156
149
147
151
151
151
149
156
156
159
163
159
151
154
100
103
103
103
103
105
107
103
103
100
100
100
100
98
95
93
95
98
95
95
98
100
93
91
95
98
95
95
95
93
98
95
89
91
98
95
95
98
98
100
103
105
105
112
125
129
132
137
142
147
147
142
137
142
147
149
149
156
156
159
159
154
151
151
103
103
103
100
100
105
105
95
93
95
100
103
103
98
91
91
98
100
98
91
91
95
95
89
89
93
98
95
93
93
95
93
93
95
100
98
100
100
100
100
100
103
107
115
120
122
125
129
132
137
139
137
134
142
144
147
149
151
156
159
156
151
149
147
110
107
103
98
95
103
105
98
93
93
98
100
98
95
89
91
98
95
89
86
89
98
93
91
93
91
95
98
93
91
91
93
95
95
98
98
98
100
100
100
103
110
112
120
117
115
117
120
122
127
132
137
137
144
142
144
147
151
151
154
156
154
149
147
107
100
100
105
100
103
100
100
100
98
98
103
103
98
95
95
95
91
93
91
89
95
93
93
89
86
89
91
95
95
98
98
93
93
93
91
91
95
95
98
100
107
110
112
112
112
112
115
120
122
122
127
134
137
139
144
144
149
151
151
151
149
147
147
100
98
98
103
100
100
95
103
107
103
98
105
107
100
98
100
103
95
98
95
93
91
93
95
93
95
95
93
98
98
100
103
98
95
93
93
93
95
95
98
98
98
93
95
103
110
117
115
117
122
122
122
127
127
134
142
144
149
154
156
154
151
154
151
100
95
100
103
103
98
100
110
107
100
100
103
100
100
103
103
105
100
98
100
100
100
100
105
105
100
95
89
91
95
98
105
103
100
105
100
98
98
98
98
95
95
93
91
95
103
112
115
112
115
120
122
122
125
132
137
144
147
151
154
154
154
156
154
100
98
98
98
100
103
105
107
105
103
103
107
105
103
107
103
103
103
103
107
103
103
103
107
105
103
100
93
91
93
95
100
105
105
103
100
103
103
103
100
98
98
95
95
100
98
110
110
107
107
112
117
117
120
125
129
134
142
147
149
149
151
156
156
95
95
93
91
93
95
100
103
103
105
105
105
110
107
110
107
103
105
107
107
105
105
107
107
105
100
100
95
95
100
98
95
100
103
98
100
100
100
98
93
91
95
98
100
103
103
107
105
103
103
110
112
117
115
120
122
127
132
137
142
147
149
151
154
91
91
91
84
82
86
95
103
100
103
103
105
110
105
103
105
105
103
105
105
103
100
103
105
105
100
98
95
98
105
103
95
100
105
103
103
100
98
95
93
91
93
100
100
100
100
98
100
98
105
112
117
117
117
120
117
122
125
127
132
137
144
147
147
82
80
86
86
82
86
91
93
100
103
100
105
110
110
103
100
110
107
103
100
98
103
105
105
103
107
105
98
98
103
103
100
107
105
100
105
105
103
98
95
93
95
100
98
98
98
98
98
103
110
112
115
115
117
117
115
122
120
125
127
127
134
142
144
89
86
89
89
84
86
89
91
91
89
89
93
105
107
107
105
107
107
103
105
105
103
103
103
103
105
107
103
98
100
98
103
105
103
100
105
105
105
100
103
105
105
107
103
103
103
103
103
107
110
115
115
117
120
117
115
120
122
125
122
125
125
132
134
91
95
93
86
86
89
86
82
82
82
84
86
98
105
107
110
107
105
105
103
105
100
100
100
103
103
107
105
103
98
98
103
107
105
103
103
100
100
98
100
105
107
110
107
103
105
107
105
105
105
110
117
120
122
120
117
117
122
120
120
122
120
125
127
86
98
91
84
82
82
82
80
84
84
82
84
93
103
105
105
107
107
107
105
105
100
100
100
98
98
100
103
103
98
100
103
103
103
100
100
98
100
100
103
100
103
103
103
103
100
103
103
98
100
107
110
112
112
112
112
115
115
117
120
120
117
117
117
86
91
84
82
82
78
78
82
89
86
82
84
89
93
95
95
100
103
103
100
100
103
100
98
95
95
95
98
98
98
103
105
103
107
103
105
105
103
105
103
103
105
103
103
98
98
98
98
95
103
107
112
110
110
107
107
112
112
117
117
115
112
110
107
91
89
84
84
82
80
84
86
89
91
93
91
86
86
91
93
93
91
93
93
93
98
98
95
95
98
98
95
100
103
105
103
107
110
105
103
105
107
110
107
107
107
103
98
93
98
103
100
103
103
105
112
110
107
105
105
110
112
115
115
110
107
112
115
95
91
89
89
89
86
84
86
86
89
89
86
89
91
89
91
89
89
91
93
93
95
95
93
91
93
98
98
98
103
100
100
105
110
107
103
105
105
105
105
105
103
95
95
95
98
103
98
103
98
103
105
110
110
107
107
107
107
107
105
107
105
105
107
103
95
93
91
91
89
84
82
82
84
84
82
89
91
89
91
89
84
86
91
91
89
89
86
89
91
93
95
95
100
93
98
103
105
105
105
105
103
103
103
103
98
98
100
100
103
105
103
100
98
100
105
112
112
107
110
105
105
105
103
110
110
103
100
105
103
103
103
98
91
86
89
89
89
86
89
86
86
84
91
89
84
84
86
82
82
84
84
89
91
89
91
91
91
93
95
103
110
107
103
100
105
103
100
100
98
100
103
107
103
103
100
98
98
98
100
105
107
107
110
105
105
107
103
107
105
100
103
110
105
105
105
100
93
95
91
91
91
93
93
91
91
89
86
89
86
84
86
82
78
80
84
86
91
86
89
91
93
91
95
100
103
105
103
100
103
103
103
103
98
95
105
105
98
91
95
100
100
98
98
103
105
107
105
103
105
103
100
100
100
98
98
110
103
107
110
103
95
98
100
95
95
98
103
103
100
98
93
89
91
89
86
82
80
82
82
86
84
82
86
89
91
91
98
100
105
105
105
107
100
100
105
105
98
93
100
103
98
93
91
100
103
95
98
103
105
105
107
107
103
103
98
95
98
103
103
110
107
115
117
107
100
103
107
103
98
105
105
110
110
107
103
93
93
89
84
89
86
86
84
86
84
82
84
82
86
91
95
100
103
103
105
105
103
103
103
100
98
95
100
103
100
95
95
100
95
93
93
100
105
105
107
110
107
105
100
95
93
98
107
110
112
112
112
107
105
105
107
103
98
105
105
110
117
112
105
98
91
89
86
91
91
84
86
91
89
89
89
84
86
93
93
95
95
95
98
100
105
112
103
98
98
95
103
105
105
98
95
98
93
95
93
98
103
105
110
110
107
103
103
100
95
100
107
107
112
112
110
110
107
103
107
105
103
105
107
112
117
112
110
105
100
91
86
86
91
89
89
91
86
89
89
84
86
91
89
95
91
86
89
91
98
100
98
95
98
100
100
107
107
100
100
103
103
100
100
100
105
107
107
105
100
103
107
105
103
103
107
107
115
117
112
110
110
103
107
107
103
105
107
112
112
115
112
107
105
100
93
91
93
93
91
89
84
86
84
82
84
86
84
86
84
80
82
89
86
91
95
98
95
93
95
98
103
100
100
103
100
98
100
105
100
100
103
103
100
100
105
107
105
105
107
112
115
112
112
110
105
105
107
112
110
112
110
107
107
112
115
110
107
105
103
103
100
95
95
93
89
84
82
80
80
82
82
84
82
78
80
84
86
89
89
93
93
93
89
91
98
100
100
100
103
98
98
105
103
103
100
98
103
107
110
110
103
103
105
110
112
110
103
107
105
103
107
107
107
105
103
100
107
110
107
115
117
110
112
115
110
103
98
100
95
93
93
89
86
84
84
89
91
86
86
89
84
86
84
86
93
91
89
89
95
103
98
95
100
100
98
98
95
98
100
100
103
110
112
110
103
107
107
110
115
107
100
103
105
103
103
105
105
105
98
95
105
107
110
115
115
110
107
110
107
103
105
107
107
100
98
95
93
93
93
95
95
86
86
91
84
84
86
86
93
93
86
84
91
95
98
100
103
103
98
95
95
95
103
103
103
110
112
110
105
110
107
115
110
103
100
105
103
100
103
105
107
110
107
103
105
105
110
107
110
110
105
105
105
100
107
107
105
100
98
100
100
100
95
95
93
89
86
89
84
86
91
91
95
91
84
80
89
93
95
100
100
100
103
103
100
95
103
107
107
110
112
110
107
112
112
110
105
103
103
105
103
98
95
100
100
103
107
105
110
112
112
107
107
115
110
110
107
105
105
103
103
103
98
98
98
100
100
95
93
93
91
93
93
89
89
91
91
86
80
82
89
89
91
93
98
95
100
98
100
98
100
103
103
105
107
110
112
112
112
107
105
103
107
107
100
103
98
95
98
98
103
105
110
112
115
105
107
112
110
112
107
105
105
105
105
98
98
95
98
100
103
105
100
98
100
105
103
89
86
86
84
86
82
80
86
82
84
91
91
93
91
91
98
98
95
93
95
100
103
107
110
112
115
105
107
105
110
105
98
103
98
95
98
98
100
103
107
110
107
107
110
112
110
105
110
112
112
112
105
100
100
100
100
105
105
107
107
107
105
105
103
98
91
89
89
86
84
80
82
80
84
89
84
86
86
86
89
93
95
93
93
98
100
103
105
110
115
105
112
110
110
105
98
103
98
103
103
95
95
98
103
107
107
110
115
115
110
105
107
107
112
115
110
110
105
105
103
107
107
103
103
107
105
103
100
98
95
93
91
89
84
80
82
82
80
78
82
89
86
86
84
80
86
93
98
98
98
100
98
103
110
107
115
110
105
103
100
103
100
105
105
98
100
100
103
107
110
110
110
117
105
105
107
107
110
107
105
105
110
103
100
103
107
107
103
100
107
103
100
100
100
103
100
95
91
86
84
84
84
80
82
89
89
91
89
84
78
86
93
93
91
91
95
98
100
112
110
110
105
100
103
100
103
107
103
98
107
112
110
112
115
110
110
112
107
105
107
107
107
107
103
100
105
103
103
107
107
107
103
98
107
105
105
107
105
105
103
100
98
91
91
86
89
89
84
84
89
91
86
86
82
82
84
86
86
84
84
84
84
117
115
107
107
100
100
103
107
110
103
103
105
105
105
105
107
110
110
110
107
107
110
110
110
107
103
103
107
100
105
112
112
107
107
100
103
105
103
103
103
103
98
100
95
93
93
89
89
93
91
86
91
86
82
82
82
80
78
80
78
78
80
78
80
115
112
103
103
103
103
103
110
103
98
100
100
103
103
105
105
103
105
103
100
103
105
107
110
107
103
103
103
98
100
107
107
105
107
103
100
100
100
95
100
100
100
103
100
95
95
89
84
86
86
86
86
82
80
82
80
80
82
80
76
74
72
74
78
110
110
110
105
103
103
100
100
103
98
95
100
98
100
105
103
100
103
98
100
105
107
103
105
103
98
100
105
103
105
107
110
107
105
105
100
98
95
95
98
100
98
98
93
93
100
95
95
91
89
82
80
84
86
84
82
86
84
84
78
72
70
74
78
103
107
107
103
105
105
103
103
100
95
93
95
95
98
103
107
103
103
98
103
110
110
103
103
103
100
103
105
103
107
110
105
103
100
103
100
95
93
93
98
103
98
98
98
98
103
103
100
95
93
82
78
82
84
82
82
86
84
84
80
76
72
74
74
105
105
105
103
105
105
103
103
103
98
98
98
93
95
103
103
100
103
105
105
107
107
105
100
98
100
100
100
103
110
107
103
100
100
100
98
103
105
103
103
105
107
105
100
100
100
100
98
95
95
93
86
86
86
80
80
84
82
82
84
76
76
78
76
107
103
103
105
107
107
103
100
107
105
103
103
100
100
105
107
100
103
105
100
100
110
107
100
95
98
98
98
98
105
107
103
100
103
100
98
105
110
103
100
103
103
100
98
103
105
103
100
100
105
107
100
91
91
86
82
82
82
82
78
74
76
78
74
100
100
103
103
100
103
105
107
107
107
103
95
98
100
103
105
100
103
100
95
98
105
110
100
100
100
95
100
100
100
107
112
107
107
103
100
103
105
98
100
95
95
95
100
103
107
105
103
100
103
103
107
100
95
95
89
84
86
89
84
80
76
74
74
100
100
105
100
103
105
105
105
105
103
95
95
98
98
100
98
95
98
103
100
95
100
103
103
105
103
98
98
100
105
110
115
110
107
105
107
103
103
98
103
103
103
105
107
105
105
103
103
100
103
105
107
105
100
98
93
89
89
91
95
95
86
82
82
103
100
105
105
98
98
103
103
100
98
98
98
100
98
100
100
95
100
105
103
100
100
98
107
107
105
103
100
103
107
112
112
103
107
107
110
105
100
103
107
107
103
105
112
112
107
107
105
100
98
105
105
100
100
98
98
93
95
103
100
98
95
91
86
103
103
100
107
103
100
100
98
98
98
98
103
103
98
103
107
103
103
100
98
103
103
103
103
103
103
100
100
103
105
110
112
103
107
107
105
103
98
105
110
107
103
103
110
112
110
112
110
103
100
103
103
98
98
103
100
98
98
103
103
100
98
95
98
105
103
100
105
105
103
100
98
95
100
100
98
103
103
100
105
105
105
100
98
100
103
107
100
98
98
98
98
103
103
103
105
107
105
112
112
103
103
107
103
100
103
105
110
110
110
107
107
105
105
105
100
103
98
103
100
100
103
103
100
100
95
98
100
105
105
103
100
100
98
98
95
95
98
98
95
100
100
98
98
103
103
98
100
105
103
98
103
105
103
98
100
105
103
100
100
105
107
110
110
105
107
107
100
100
103
105
105
103
105
107
107
110
105
100
100
103
103
100
103
107
105
103
98
95
95
98
98
100
100
100
100
100
100
103
100
100
98
98
98
98
100
98
98
105
103
98
103
105
103
95
95
105
105
105
107
105
107
105
103
103
103
103
105
107
110
107
100
100
105
98
95
98
103
110
107
105
100
103
103
107
107
105
107
107
110
105
100
98
98
103
100
95
95
100
98
98
103
103
98
98
98
100
100
100
100
98
98
105
110
110
107
105
107
100
93
95
105
110
105
100
107
107
103
103
103
105
110
110
110
110
105
98
98
100
98
100
105
105
103
98
103
105
103
105
107
105
107
103
107
105
103
98
103
105
107
98
95
98
98
103
103
98
95
98
98
98
100
100
98
93
103
110
115
110
105
103
103
103
100
98
98
105
105
100
105
107
103
103
107
107
107
107
107
110
107
105
100
100
105
103
100
100
95
98
103
103
100
100
98
98
100
103
100
100
100
95
93
98
103
98
95
98
103
105
100
98
95
98
100
98
100
103
98
98
107
107
107
100
98
100
98
103
100
103
103
103
107
105
103
100
98
103
107
107
105
110
112
110
105
105
103
100
105
110
100
95
95
100
100
103
100
100
103
103
103
100
95
93
98
93
93
95
95
105
100
100
107
103
98
98
98
91
95
98
103
105
100
105
110
107
100
98
100
100
95
100
98
103
107
107
107
100
93
95
98
107
112
110
107
107
107
107
105
103
103
103
103
103
95
95
95
93
93
100
103
103
107
105
100
100
100
98
100
100
98
100
100
107
103
107
105
103
100
100
100
95
91
95
95
95
100
105
107
103
98
100
103
105
100
93
93
98
105
105
103
98
93
103
103
105
107
105
103
105
98
107
103
100
103
105
100
93
93
93
95
95
95
98
105
105
110
105
103
105
98
103
107
107
105
110
105
103
100
103
100
98
100
107
103
100
95
91
89
95
95
98
100
105
107
100
100
100
98
98
93
98
103
105
105
100
98
103
103
103
107
103
98
103
103
105
105
103
103
100
95
91
91
95
98
100
100
100
105
110
107
105
103
105
100
105
110
115
112
110
105
105
100
103
103
98
95
98
103
105
105
95
95
103
100
100
98
100
105
107
105
100
98
103
100
100
105
103
100
100
103
107
105
103
103
100
98
98
103
107
103
95
98
98
98
98
98
98
100
100
105
107
107
112
110
105
105
105
103
107
112
110
105
105
110
