P2
# 225 of 608 Angiograms
64 64
255
98
95
86
86
89
95
95
95
98
100
100
98
98
100
103
98
95
103
100
100
98
98
105
107
103
103
105
103
100
100
103
107
107
105
107
105
107
110
107
103
110
112
107
98
98
98
95
93
93
91
95
103
98
98
100
100
95
95
105
112
112
115
115
112
91
93
86
82
86
95
98
98
103
100
98
93
100
105
103
100
105
107
103
98
95
100
107
110
105
105
110
110
103
98
100
107
107
100
100
107
110
107
103
103
107
105
103
98
98
98
95
93
93
91
98
103
95
93
95
95
93
95
98
107
110
112
110
107
84
89
86
80
86
95
100
103
100
100
93
91
98
103
103
103
105
110
112
103
98
105
107
115
107
105
110
110
107
103
103
105
107
103
100
107
107
105
105
107
112
107
103
100
98
98
95
91
91
95
100
98
95
95
95
98
95
95
98
105
105
110
107
107
86
89
91
89
91
98
100
103
98
100
98
98
98
100
98
100
103
105
110
107
103
107
107
107
107
112
112
110
112
105
103
105
110
107
105
105
100
103
98
107
115
110
103
103
100
98
100
93
95
100
105
98
95
95
98
100
103
100
103
105
107
112
110
110
93
93
95
93
91
95
98
105
105
103
103
100
105
105
103
105
105
105
107
105
105
107
107
103
107
117
117
115
115
110
105
107
105
105
110
107
103
105
103
105
115
110
103
105
98
91
98
100
100
105
105
103
100
100
103
105
107
105
107
110
110
115
117
120
100
100
100
95
93
100
105
105
110
105
100
105
110
112
112
115
110
110
112
107
112
110
105
105
110
117
117
115
115
112
107
107
107
110
112
110
105
110
112
112
110
110
103
100
98
93
98
103
105
107
110
107
105
107
107
115
117
115
112
112
115
115
122
122
103
105
100
98
103
110
115
115
115
112
105
107
110
110
115
117
117
115
112
115
120
117
120
117
117
120
120
120
120
117
115
115
117
117
115
115
112
112
112
115
112
110
110
105
103
103
103
107
110
110
110
112
112
112
112
115
115
115
117
112
115
115
120
120
105
103
98
95
103
112
117
117
115
112
110
115
112
115
117
117
117
117
117
117
120
120
120
120
122
125
125
125
122
120
120
120
120
125
117
120
122
117
117
117
112
110
110
110
110
110
107
112
115
117
117
115
112
112
115
115
115
117
115
112
112
112
115
117
105
100
103
103
105
110
112
112
112
117
120
115
112
117
117
117
120
120
125
120
120
120
120
120
125
125
122
125
122
120
117
120
127
127
127
122
127
122
120
117
107
110
110
112
112
112
112
117
112
115
117
115
110
112
110
112
115
112
112
115
115
117
117
120
110
103
103
107
110
112
115
115
120
125
125
120
115
115
112
112
120
122
125
122
120
125
125
120
120
120
117
120
122
122
122
122
127
127
129
125
125
122
120
117
112
112
117
117
117
117
117
120
120
120
117
115
112
112
112
112
115
115
115
120
122
125
122
117
110
103
103
105
105
110
115
117
125
122
122
117
117
120
122
122
125
122
127
125
125
127
127
125
120
120
122
120
125
122
122
125
127
132
127
125
125
122
122
117
115
117
122
125
120
120
120
122
122
122
115
110
115
115
110
110
115
115
115
115
117
122
125
120
112
107
103
103
103
107
115
122
125
122
122
122
120
125
129
127
125
125
122
120
122
125
120
122
122
122
120
122
129
127
125
127
129
132
125
125
127
122
122
122
122
122
125
122
122
125
122
122
120
120
112
110
112
110
110
107
112
115
110
115
115
120
122
120
107
103
98
107
105
107
117
120
122
120
125
127
125
125
127
125
122
120
117
117
117
117
122
125
127
125
117
120
125
125
125
129
127
125
125
129
127
122
127
129
127
122
122
122
120
122
127
122
122
120
110
107
107
110
110
110
117
117
112
115
120
120
120
120
107
100
100
110
110
110
112
120
120
120
122
122
120
122
122
125
120
120
120
115
115
117
122
122
127
127
122
120
120
120
120
127
129
129
129
132
127
127
129
129
127
120
122
122
120
120
132
127
125
115
110
110
110
115
117
117
122
120
115
117
122
117
117
122
110
105
107
117
110
107
112
117
122
125
122
120
117
120
125
122
122
122
125
122
122
125
122
120
129
129
127
120
117
125
122
122
125
132
132
132
129
125
125
129
127
122
122
125
125
127
129
132
129
115
110
110
115
117
115
117
120
120
117
120
117
115
112
117
115
107
110
120
120
115
115
120
122
127
127
125
125
125
125
125
125
122
125
122
122
122
117
120
127
127
122
117
117
125
125
125
127
129
137
132
122
115
117
125
122
125
125
127
127
129
132
134
132
115
107
110
115
117
110
110
115
120
122
117
112
112
117
115
112
107
110
122
122
120
117
120
122
125
125
125
127
122
122
122
120
120
120
117
115
117
117
120
122
122
125
122
120
120
125
127
127
129
129
127
125
120
120
122
117
122
129
132
122
125
132
134
129
115
112
115
115
117
112
107
110
115
117
117
115
117
120
115
112
105
110
122
122
125
117
117
122
122
125
122
122
120
122
120
117
117
112
110
112
112
115
120
125
122
122
120
125
125
125
122
125
129
127
127
127
122
120
122
122
125
127
122
120
122
129
129
122
117
120
120
115
115
115
112
112
112
110
112
115
117
117
115
115
110
112
122
125
122
120
117
122
127
127
125
122
120
120
115
115
115
110
110
115
115
115
120
127
125
120
117
122
125
125
120
122
127
125
127
125
117
117
122
125
127
127
120
120
122
125
127
122
122
120
117
115
120
117
112
112
110
107
110
117
115
110
112
115
110
110
117
122
122
120
122
120
122
125
125
125
122
122
117
110
112
110
110
115
115
115
115
122
122
120
120
122
125
125
120
122
127
125
125
120
117
117
125
127
129
127
122
122
122
122
127
125
120
110
107
112
115
115
112
112
115
110
112
117
117
115
115
112
110
107
112
120
125
125
117
112
112
115
117
117
120
122
115
105
107
107
107
110
112
115
115
117
120
117
120
122
125
120
117
117
120
120
115
112
112
112
117
120
122
120
122
125
125
122
122
120
115
107
105
105
110
112
110
112
115
112
112
115
117
117
120
105
105
105
110
120
120
115
105
103
110
112
107
105
107
105
98
95
105
110
105
103
107
110
110
112
115
117
120
122
120
115
107
112
112
110
103
107
107
107
112
117
117
122
117
120
125
122
117
115
110
105
105
110
110
107
110
115
117
117
112
115
122
125
122
100
103
103
110
117
112
105
98
98
105
103
100
100
98
91
91
93
98
105
107
103
100
103
103
107
107
112
115
115
115
112
107
110
107
107
105
105
105
112
115
120
120
122
115
117
125
125
117
110
105
107
112
115
107
105
110
120
122
120
117
117
122
122
122
103
103
103
105
107
103
100
95
98
100
95
93
93
91
86
89
93
93
93
98
98
93
93
98
103
103
105
110
110
107
105
105
105
103
107
110
105
105
115
115
115
120
117
115
120
127
125
120
110
112
115
115
110
105
105
110
120
122
120
122
117
117
117
117
110
100
98
100
100
95
95
93
93
93
91
89
89
89
84
86
89
86
86
86
86
82
82
82
86
89
95
98
98
98
98
100
105
103
103
110
105
105
112
115
115
117
117
115
120
127
122
115
115
117
112
110
107
107
110
110
115
120
122
122
122
115
112
117
110
100
98
98
95
91
93
89
89
89
89
89
84
86
84
82
82
82
82
84
80
76
76
76
78
82
84
89
86
86
91
91
98
103
103
107
103
103
105
115
117
117
115
112
115
120
120
112
112
112
112
107
107
110
112
110
110
120
122
125
125
120
117
122
100
95
91
91
93
86
86
84
78
78
80
82
80
80
80
78
76
76
78
82
78
72
72
74
76
78
80
82
82
82
84
86
91
98
98
98
98
100
100
107
117
117
112
112
112
115
117
120
115
115
117
112
112
112
115
112
107
120
125
125
127
125
122
122
86
84
82
82
82
84
80
74
70
72
72
76
78
80
82
78
74
74
78
84
82
78
78
78
78
76
78
78
76
76
82
86
89
98
95
93
91
95
98
103
110
110
110
112
115
117
120
120
117
112
115
115
117
115
117
115
110
120
122
122
125
127
122
120
74
74
76
78
78
80
78
76
70
72
72
74
78
80
84
82
76
72
78
82
80
80
86
84
80
76
78
76
76
76
82
86
86
95
98
95
91
93
100
105
105
107
107
107
110
115
117
117
115
110
112
115
120
122
120
115
112
117
120
125
125
125
122
117
72
68
72
76
78
78
74
76
76
74
72
70
74
80
82
84
78
74
80
80
78
82
84
78
78
74
74
76
78
84
86
86
86
89
98
95
91
103
107
103
107
110
110
110
110
110
110
110
112
112
112
112
115
117
112
107
107
110
120
127
129
127
125
122
72
68
68
72
76
76
76
76
80
76
74
74
78
84
89
89
82
80
80
82
84
84
84
82
82
80
78
82
89
93
95
93
91
91
95
93
98
107
107
107
107
110
107
107
107
103
103
110
112
115
110
110
110
112
105
105
103
107
117
122
127
127
127
127
76
74
68
70
72
72
74
76
76
78
78
82
89
93
93
93
95
95
95
93
93
91
91
91
89
89
91
93
98
100
103
100
98
98
95
95
103
107
107
110
110
110
110
107
105
105
103
105
110
107
105
105
110
112
110
110
103
107
115
125
125
122
122
117
76
74
72
70
72
76
80
80
78
80
86
95
100
105
110
112
115
115
112
105
103
100
100
103
105
107
107
105
105
105
103
103
100
100
103
107
110
112
112
107
115
117
117
112
107
105
100
103
105
100
98
98
105
115
115
112
110
107
115
117
120
122
125
115
76
72
70
74
80
86
89
89
89
93
100
105
115
115
117
122
125
117
115
110
110
110
110
112
117
117
115
112
110
110
112
115
117
112
112
112
120
117
115
112
120
120
120
117
112
105
95
100
105
103
100
98
98
107
112
112
112
115
117
117
120
122
120
117
80
74
78
84
89
98
103
103
100
100
107
117
120
122
122
127
127
122
115
115
115
112
110
115
117
117
115
112
117
120
117
122
120
122
120
120
122
117
112
115
117
120
120
115
112
110
103
103
105
105
105
95
93
98
107
110
112
110
112
117
120
115
117
122
80
82
89
93
98
107
110
110
112
110
115
120
122
125
125
125
125
122
120
117
117
112
110
115
115
112
117
117
117
115
122
125
125
125
122
122
125
120
117
115
117
120
120
115
112
112
110
105
107
105
100
95
95
93
100
105
103
100
107
115
117
110
112
117
89
95
98
100
103
105
103
107
112
117
120
122
125
125
125
125
125
122
117
117
120
117
115
115
117
112
112
110
112
112
122
120
125
125
127
127
125
117
115
115
117
117
117
117
117
115
112
107
107
103
100
95
91
91
98
98
98
98
107
115
115
110
112
117
105
105
105
107
105
105
103
107
112
110
117
120
120
117
120
120
122
120
115
115
115
115
115
115
120
117
112
107
105
110
117
120
127
127
127
125
120
112
110
115
115
117
115
115
117
117
115
110
105
103
100
93
89
91
93
93
95
95
103
112
115
112
112
112
107
107
110
112
112
110
107
107
110
110
112
115
115
115
117
117
117
117
115
112
115
115
117
117
115
110
110
110
107
110
115
117
122
125
122
120
112
107
110
115
115
117
115
115
117
115
112
115
105
105
98
89
86
91
91
93
95
95
95
100
107
105
105
103
107
107
115
115
117
120
110
103
107
117
117
117
117
115
112
110
112
117
117
110
110
115
115
112
107
105
107
110
110
112
117
120
117
120
117
117
115
112
112
117
117
112
115
117
117
112
117
117
115
110
100
93
93
98
98
95
95
91
89
86
91
93
93
93
107
107
110
110
115
120
117
105
107
112
112
112
115
122
117
115
115
115
117
115
110
110
112
107
107
110
115
112
112
115
117
117
120
122
122
120
122
122
122
122
120
115
117
122
120
120
122
122
120
120
112
103
100
100
95
89
91
84
80
82
86
91
93
93
110
110
110
112
115
115
117
110
107
107
115
112
112
120
115
117
112
115
115
115
110
112
112
110
112
115
117
115
107
112
115
112
117
120
125
122
125
125
129
127
125
117
120
125
125
127
125
122
120
122
120
112
103
103
93
89
86
80
78
82
86
89
95
98
110
112
112
115
115
117
120
110
103
110
117
117
115
120
120
115
112
117
115
112
112
115
112
112
110
115
120
120
110
112
115
115
117
122
125
125
127
122
125
125
122
122
120
122
127
129
129
122
120
117
120
120
110
107
98
93
91
86
82
80
82
89
95
95
112
115
115
117
120
120
117
107
105
115
120
117
115
117
122
117
117
115
112
112
107
107
115
117
112
117
120
120
112
112
115
112
115
125
125
125
127
125
125
122
122
127
127
125
127
129
127
125
122
122
120
120
112
112
107
98
93
89
84
80
82
91
95
95
117
117
117
120
120
117
115
110
112
115
120
117
115
112
122
122
117
112
112
112
103
110
115
120
117
120
120
117
117
115
115
115
117
125
122
117
125
122
120
122
117
125
129
125
125
125
125
125
127
127
122
117
112
110
110
107
100
93
89
89
89
98
103
103
110
112
115
117
120
115
112
112
117
120
117
117
115
107
112
120
117
110
107
107
105
112
112
110
115
115
117
117
115
115
112
117
117
120
117
117
122
122
120
122
125
125
127
125
120
120
122
127
127
127
122
117
112
107
105
107
105
100
93
91
98
105
110
112
105
110
117
117
117
115
110
112
117
122
117
115
110
107
107
115
117
112
105
107
107
112
110
110
112
112
115
117
117
112
112
117
122
122
122
125
125
122
122
122
122
125
125
120
115
115
115
122
125
125
122
117
112
105
105
110
110
105
100
98
98
107
115
117
103
107
115
112
115
117
110
107
115
117
117
117
117
110
107
112
115
112
112
117
112
112
112
115
112
110
112
112
115
112
110
117
122
125
125
122
122
120
120
117
120
125
122
117
117
115
112
117
117
120
120
120
112
105
105
110
110
105
105
100
100
105
112
120
105
110
112
117
117
112
110
112
112
115
115
117
120
115
112
112
112
107
115
120
117
115
112
117
115
112
110
112
115
110
107
112
117
122
120
120
120
115
117
120
122
122
120
117
120
115
117
122
122
117
117
117
110
103
105
105
107
105
100
103
105
103
105
110
112
112
112
120
117
115
115
117
117
115
112
112
115
115
115
110
110
110
120
117
117
115
115
117
115
110
112
115
110
105
103
110
115
115
117
122
120
120
120
120
125
122
115
117
117
115
120
120
120
120
120
117
105
103
103
103
105
105
103
107
110
105
103
105
115
115
115
120
122
122
117
117
120
117
115
112
112
112
110
110
107
112
120
117
117
117
115
110
112
112
115
115
112
115
110
110
112
112
115
120
120
117
120
120
125
120
115
115
120
115
122
122
115
117
122
115
105
107
110
110
110
107
107
115
115
110
103
103
115
117
117
120
125
127
122
115
112
115
112
115
115
110
107
107
103
103
107
112
115
115
112
107
110
112
112
112
110
120
117
107
110
107
110
117
122
122
117
117
122
120
120
115
115
117
120
122
117
117
120
110
107
105
110
112
107
110
112
115
115
112
107
103
115
115
115
115
122
125
125
120
115
115
115
112
107
110
107
103
100
95
103
110
112
112
107
105
107
110
112
112
110
115
120
107
110
110
112
122
122
122
122
120
117
120
122
120
115
112
117
117
120
117
112
107
105
107
115
117
115
115
112
115
115
117
112
107
115
117
112
110
117
122
122
120
117
115
115
115
110
110
105
105
105
98
100
107
107
110
107
100
100
107
110
112
110
112
115
107
110
112
120
125
122
117
120
117
115
115
120
117
112
115
120
122
120
112
110
103
103
107
110
115
120
122
117
117
117
122
117
112
115
117
117
117
120
120
120
122
117
112
112
112
112
107
105
103
105
103
105
105
107
107
107
103
100
103
105
110
110
112
115
107
110
115
117
120
120
115
115
117
117
115
117
115
112
115
122
122
115
112
112
107
107
107
112
115
122
125
125
120
115
120
117
112
112
117
120
117
115
120
120
120
117
115
110
107
110
107
107
103
110
110
105
103
103
103
103
103
103
103
107
110
107
112
112
107
107
115
117
115
107
107
110
115
117
115
112
110
112
115
120
115
117
112
115
115
115
112
112
117
125
127
127
127
120
117
115
110
117
117
122
120
120
125
125
117
117
115
112
110
110
110
110
110
120
122
112
105
103
103
105
103
105
110
112
112
110
112
110
107
110
112
115
110
100
107
110
115
112
112
112
110
112
112
115
115
117
112
110
115
117
117
117
120
122
129
129
129
125
117
112
110
122
120
120
120
122
125
125
120
120
117
115
110
110
115
115
115
117
120
117
112
105
105
103
103
110
110
112
110
110
107
110
112
110
110
115
112
105
110
112
117
117
115
117
115
115
115
115
115
110
110
110
112
117
120
122
122
125
127
125
125
125
112
107
107
125
120
122
117
120
125
120
112
112
112
112
112
110
115
115
117
117
117
117
115
110
107
100
100
110
112
112
110
107
110
110
107
103
112
120
115
110
107
110
110
112
117
117
120
120
115
112
112
115
110
112
115
122
125
120
120
125
125
120
125
127
120
115
112
122
122
122
120
120
122
117
115
115
115
112
115
115
115
112
117
117
115
117
117
112
107
100
105
107
110
115
115
112
112
110
107
105
112
115
112
112
107
105
107
115
117
117
115
115
112
112
112
115
120
117
115
125
125
120
122
125
125
125
129
129
127
125
120
120
122
120
125
122
122
122
120
122
120
115
112
117
117
115
112
115
115
115
117
112
110
107
107
105
105
107
110
110
110
110
112
112
110
107
112
115
107
105
112
122
120
120
117
117
117
115
115
117
115
115
115
120
125
120
115
120
125
129
132
132
127
122
125
122
122
117
127
127
120
120
125
127
125
120
115
115
117
117
112
112
112
112
117
115
115
115
112
110
105
100
103
107
107
107
107
110
110
107
112
112
110
112
120
125
127
125
125
125
125
120
117
115
115
115
117
120
125
122
117
120
122
127
132
132
132
129
127
122
125
122
127
129
125
120
122
125
122
115
112
112
117
117
117
115
112
117
115
112
115
115
115
115
110
103
100
103
105
107
110
110
110
110
107
110
115
120
125
129
132
125
122
125
125
117
117
120
120
117
122
125
129
122
117
122
122
127
137
134
134
132
129
125
125
125
127
125
120
115
117
120
120
115
112
112
115
115
115
115
115
117
112
107
112
112
112
115
112
103
98
100
103
105
107
112
112
110
103
107
117
122
125
132
129
120
117
117
120
112
112
120
120
117
120
125
129
125
122
122
125
132
137
132
137
134
129
