P2
# 226 of 608 Angiograms
64 64
255
182
182
180
176
176
176
176
174
172
170
174
178
178
178
180
178
174
172
170
172
174
174
174
174
174
170
168
168
168
168
170
174
174
165
147
134
132
132
134
142
149
151
154
163
168
170
176
176
174
165
156
144
134
129
134
144
149
154
156
156
154
149
144
137
184
182
180
176
176
174
174
174
174
172
174
178
182
180
180
178
174
172
172
172
174
176
178
176
172
168
170
170
170
170
174
174
174
165
147
132
129
129
137
142
147
151
156
163
165
168
174
174
172
165
154
142
134
129
137
147
154
156
156
156
154
154
151
144
184
182
178
178
176
174
172
172
174
174
176
180
180
182
178
178
176
174
172
170
172
174
174
172
170
170
170
170
172
172
174
174
174
165
149
132
125
129
139
139
144
149
156
165
170
170
172
172
170
163
151
139
129
127
139
151
156
154
156
156
154
156
156
154
186
182
178
178
178
176
174
172
174
174
178
180
180
180
180
178
176
174
172
172
172
172
172
170
168
172
172
170
172
174
176
176
176
165
149
132
129
132
134
134
142
147
154
170
172
170
172
172
168
163
151
134
122
127
144
154
156
159
156
159
159
159
159
161
186
182
178
178
180
176
174
172
172
176
180
182
180
182
182
178
174
174
170
170
172
172
172
170
170
168
168
165
168
174
176
178
176
168
149
132
127
127
132
137
139
144
151
165
170
170
172
172
170
163
154
134
122
127
144
159
161
161
159
159
161
161
161
159
186
182
178
178
180
176
174
172
174
178
180
182
180
180
182
180
176
174
172
170
170
174
176
174
174
170
165
165
165
170
174
178
176
168
149
132
127
129
137
139
139
144
151
163
165
168
172
174
172
168
156
137
125
129
144
156
159
156
156
156
156
161
161
161
182
182
180
180
178
176
174
172
176
178
180
180
180
180
182
180
178
176
174
172
174
174
178
178
174
172
165
163
165
170
176
176
174
168
151
132
129
132
139
142
142
144
151
163
168
172
172
174
174
172
163
142
129
132
144
156
156
151
151
151
154
159
163
163
180
180
182
180
176
172
172
172
176
178
180
180
180
182
184
182
178
174
174
174
174
174
178
180
178
174
172
170
174
178
180
182
176
170
151
134
127
132
139
144
147
149
154
165
172
174
172
176
178
174
168
147
134
137
144
159
156
154
151
149
156
156
159
163
178
180
178
176
172
170
170
170
178
182
182
180
180
182
182
180
176
176
176
176
174
176
180
182
182
178
176
178
180
180
182
180
176
168
154
134
129
132
139
142
147
149
159
170
176
174
174
176
176
176
170
151
137
139
144
156
159
156
156
156
156
154
156
161
180
178
176
176
176
174
172
172
178
182
182
184
180
182
180
178
176
178
178
178
176
178
182
182
184
178
178
182
182
180
180
178
176
170
156
139
132
137
139
137
144
151
159
170
176
178
178
176
176
174
168
154
137
132
142
151
154
159
161
159
159
156
156
161
180
178
176
178
176
174
174
176
180
182
182
184
182
182
180
178
178
180
180
176
176
180
184
186
182
178
178
182
184
182
180
178
176
170
159
144
137
137
142
142
142
154
161
170
176
176
176
176
176
174
168
159
142
129
137
149
151
159
163
161
161
163
163
161
180
178
176
176
174
174
176
180
182
180
180
182
182
182
182
180
178
180
180
180
180
182
184
186
182
182
184
184
186
184
182
178
176
170
161
151
142
142
144
144
144
154
161
170
176
174
174
178
178
172
168
161
147
134
132
142
149
154
159
161
161
161
161
161
180
180
178
178
174
176
178
182
182
182
180
180
180
182
182
182
178
180
182
182
182
182
182
184
184
186
186
186
188
188
186
178
176
172
165
154
147
147
147
149
149
151
159
170
180
176
174
176
176
172
168
163
151
134
129
134
144
149
151
156
159
156
159
161
178
180
178
178
174
176
178
180
182
182
182
180
178
182
182
182
180
180
184
182
182
182
182
182
184
186
186
190
192
190
188
182
176
172
168
156
147
147
151
154
154
151
154
168
178
178
174
172
170
170
168
165
159
139
127
127
134
147
147
154
156
154
156
161
178
178
178
178
176
176
176
178
180
180
180
180
180
182
182
182
184
184
184
184
182
180
180
182
184
184
184
190
192
190
190
184
178
174
170
159
147
142
151
154
151
151
151
163
174
176
172
172
170
168
168
168
161
147
129
125
127
142
151
154
151
151
154
156
180
180
178
178
176
174
176
176
176
178
180
180
182
182
182
182
184
184
184
184
184
180
178
180
184
184
182
184
188
190
190
186
182
176
172
159
149
139
147
151
154
151
151
159
170
174
174
174
172
170
170
170
163
154
134
127
129
142
154
154
154
151
154
156
182
180
180
180
176
172
174
176
176
178
176
178
178
178
178
178
180
180
180
180
180
180
180
182
188
188
186
186
188
190
192
186
184
180
174
161
151
147
144
149
149
147
147
154
168
176
176
174
174
172
170
165
165
156
137
129
132
144
156
161
159
159
161
165
180
182
182
178
176
174
174
176
178
180
178
174
174
176
176
178
178
176
174
176
180
182
182
182
188
190
188
188
192
192
190
188
186
182
174
163
154
149
144
144
144
147
147
151
161
170
174
174
176
172
170
170
168
154
139
132
137
149
159
163
163
163
163
163
178
180
178
176
178
176
176
176
178
180
178
176
174
178
180
180
180
176
176
176
178
180
182
186
186
188
188
186
190
188
188
186
184
176
168
161
156
149
142
139
139
142
142
144
151
161
170
172
174
172
168
165
156
147
137
134
139
149
161
163
165
163
161
159
174
176
174
174
178
178
174
176
178
176
176
178
180
182
182
182
180
180
178
178
180
180
182
186
184
184
186
186
184
180
174
170
165
163
159
151
147
137
125
117
115
117
120
127
132
142
149
154
156
156
149
142
134
129
132
134
139
149
159
163
168
165
163
159
172
174
178
178
178
178
176
176
176
176
176
178
180
180
180
180
180
180
180
180
182
182
182
182
182
182
182
178
170
161
156
149
147
144
142
134
125
107
82
62
58
68
84
98
107
112
120
125
127
125
120
115
112
112
120
127
134
147
156
161
163
163
159
154
170
174
176
178
178
178
176
174
174
174
174
178
180
180
180
180
182
180
178
180
180
180
178
178
176
176
170
159
149
142
137
137
134
132
127
120
107
78
50
34
30
40
53
70
84
93
95
95
95
95
95
95
100
103
107
115
125
132
139
149
149
149
144
144
168
170
176
180
180
176
174
172
174
174
178
180
180
180
182
182
182
182
178
178
174
174
172
172
170
159
149
139
132
127
127
127
127
125
122
117
100
68
41
27
22
30
45
60
70
74
78
78
78
80
82
89
98
105
110
112
115
122
127
127
129
129
129
129
172
170
174
178
178
176
174
174
176
176
178
178
178
180
182
182
182
182
178
174
172
170
168
159
149
139
132
127
122
122
120
120
120
122
125
120
105
76
48
35
30
36
47
57
68
72
76
74
78
82
82
86
98
103
107
107
110
115
117
117
117
115
122
125
172
172
172
174
176
174
174
176
176
176
178
176
174
176
180
182
184
180
176
172
170
161
149
137
132
125
120
117
117
117
117
120
122
129
129
127
120
103
72
53
47
50
55
62
68
74
76
76
80
82
82
91
98
107
110
107
107
112
112
112
112
117
120
117
172
168
170
170
170
172
172
172
172
172
172
172
172
172
178
180
182
176
172
165
156
139
129
125
120
115
112
112
115
117
120
125
132
137
139
139
134
127
107
86
76
70
68
70
76
80
82
82
86
89
93
95
95
105
107
110
110
112
110
112
112
115
115
115
172
170
168
170
170
170
168
168
165
163
163
165
165
170
172
176
174
170
161
149
134
125
120
112
107
110
115
112
117
125
129
137
149
154
156
149
144
137
132
120
105
95
93
91
91
93
95
100
105
105
103
98
98
103
103
105
107
112
112
110
110
110
115
115
174
174
172
170
168
165
165
165
163
159
156
159
161
161
165
168
163
154
142
129
122
115
110
107
110
115
117
120
127
134
139
151
163
168
165
159
151
144
134
132
127
117
110
105
105
110
112
115
117
117
115
110
105
105
105
105
103
107
112
110
105
107
110
110
176
176
174
170
170
168
168
165
163
156
154
154
154
154
154
154
147
134
122
117
110
107
103
105
110
115
122
127
134
142
154
163
170
172
168
161
154
147
137
132
129
127
125
122
125
127
132
132
132
132
127
120
115
112
110
107
107
110
112
107
107
105
110
110
178
178
176
174
172
170
168
165
165
163
161
159
156
154
149
139
127
117
112
107
105
100
100
103
107
115
125
134
142
154
161
168
172
172
168
161
156
149
139
134
134
132
132
134
137
144
151
151
151
149
144
137
129
122
117
115
115
120
120
112
110
112
112
112
182
178
176
174
174
170
168
168
168
170
170
165
161
151
139
125
115
110
105
103
100
95
100
105
110
122
134
142
154
159
163
170
172
170
163
159
156
149
142
137
134
132
137
142
147
154
159
161
161
161
156
154
147
142
137
129
127
127
127
122
117
117
117
117
184
180
174
176
176
170
168
170
174
174
174
170
161
142
125
112
105
100
95
95
95
95
103
107
117
129
139
149
159
161
168
172
170
165
163
161
156
151
142
137
134
134
137
137
144
151
159
163
165
170
165
159
156
154
154
149
144
144
137
134
134
132
127
125
186
180
176
176
176
172
170
172
174
174
174
165
147
127
112
103
98
95
89
91
93
98
105
112
122
129
142
151
161
165
170
170
165
161
161
163
159
151
142
137
132
134
134
134
137
149
159
168
170
170
165
161
156
154
156
156
151
147
142
134
134
132
127
127
184
180
178
176
174
172
170
174
176
176
170
149
129
115
100
93
91
89
84
86
93
100
105
115
125
129
144
151
161
168
168
163
161
159
156
159
159
151
142
137
132
132
132
134
134
144
159
168
170
168
161
156
154
151
151
154
154
149
147
137
132
137
132
127
186
184
182
180
176
172
174
178
178
170
151
132
115
100
93
93
91
89
86
89
93
93
100
110
120
132
144
156
161
161
161
161
159
154
154
154
156
151
142
139
132
125
127
129
132
142
154
161
165
163
159
154
151
151
149
151
151
149
147
142
139
139
134
132
184
184
182
180
178
176
174
176
170
151
132
115
100
98
93
93
93
91
89
93
91
89
95
105
117
134
151
159
159
156
159
159
156
154
154
154
156
151
142
134
129
122
125
125
129
139
151
156
156
159
159
154
151
151
151
149
151
151
149
147
142
137
134
134
180
180
176
174
174
174
174
168
151
132
115
100
95
95
93
89
89
91
91
93
95
95
103
112
125
144
154
159
156
154
156
159
159
159
159
159
154
149
139
134
127
122
125
125
127
137
147
154
159
159
159
156
151
151
156
151
151
156
151
149
149
142
139
134
180
178
176
174
170
172
165
149
129
112
98
91
89
84
82
84
84
86
91
95
100
107
112
122
134
149
154
159
156
154
156
159
161
159
159
156
154
151
142
134
129
125
127
127
127
132
144
154
154
151
156
156
156
154
159
154
151
156
151
149
149
149
144
139
182
184
182
178
172
168
147
127
110
95
89
86
82
82
78
82
86
91
95
100
107
112
120
132
144
149
154
159
156
154
154
159
161
159
156
154
154
156
147
139
129
127
122
120
122
129
142
149
151
149
154
159
159
156
156
154
151
154
151
149
151
149
144
142
182
184
184
178
168
149
129
112
98
86
86
86
84
86
86
89
93
95
98
103
112
117
132
144
149
154
156
159
161
156
154
154
159
161
156
154
156
159
151
142
129
125
122
117
122
129
139
151
154
151
151
156
156
154
151
149
149
147
149
149
149
147
142
142
182
182
178
168
149
132
115
98
91
86
86
89
91
93
91
91
93
98
100
107
117
129
142
149
151
154
154
161
163
159
156
156
156
159
156
159
159
159
154
144
129
122
120
120
122
129
137
151
156
154
151
154
151
151
149
147
147
147
147
147
147
147
144
144
180
176
168
149
132
115
100
91
91
91
86
86
89
91
91
93
95
100
105
115
129
142
151
154
149
147
151
156
159
156
156
159
156
156
151
154
154
154
151
139
129
122
120
115
122
127
137
147
154
156
156
154
151
149
147
144
139
142
147
147
149
149
149
147
176
163
142
127
110
100
93
86
86
86
82
84
86
91
89
95
103
107
115
127
139
151
156
154
147
147
154
156
154
151
154
156
156
156
156
156
151
151
149
137
129
122
117
115
120
125
137
144
149
156
156
156
149
142
144
144
142
137
144
147
147
147
147
147
151
134
120
107
100
95
91
86
86
86
84
84
89
91
91
103
112
117
127
137
151
161
156
154
149
149
154
151
149
149
151
151
154
154
156
159
154
151
149
139
132
125
117
115
115
122
134
142
147
151
156
156
151
144
144
144
144
139
137
137
139
142
142
144
127
112
105
100
95
93
91
89
89
91
93
93
91
93
98
112
120
129
139
154
161
159
151
151
156
154
149
151
151
149
149
149
151
151
154
156
156
151
151
144
134
127
122
117
117
120
134
144
149
151
156
156
154
149
142
144
142
137
137
137
134
132
137
139
110
103
100
95
93
91
91
91
89
91
95
98
98
100
110
125
132
144
154
159
159
151
151
154
159
151
151
154
154
151
142
142
147
151
151
156
161
156
154
149
137
129
125
122
120
120
132
142
147
149
154
156
156
149
139
139
142
142
137
137
132
129
134
137
100
98
98
98
93
89
89
89
91
95
100
103
107
112
127
139
149
156
159
159
151
149
154
159
159
156
161
161
159
151
139
139
144
149
151
156
163
163
159
154
142
132
127
122
127
125
132
139
142
147
149
149
151
144
139
137
144
144
137
132
132
132
134
137
93
95
100
98
95
91
89
91
98
103
105
110
120
134
147
156
161
163
161
154
147
151
156
159
161
161
163
163
161
154
144
139
144
149
154
156
159
161
159
154
144
137
132
127
129
129
137
142
144
147
149
147
144
142
139
137
142
142
137
132
129
129
134
139
91
93
98
100
100
95
95
100
105
110
115
122
137
151
163
165
165
168
161
154
151
151
156
161
163
163
161
163
163
156
151
144
147
149
151
151
154
156
156
151
147
142
137
132
132
137
144
144
144
149
149
149
142
142
139
137
139
137
132
129
127
127
137
137
91
93
100
105
103
100
103
107
115
120
127
139
154
168
174
168
165
163
161
154
151
154
159
161
161
161
159
161
161
156
154
149
149
151
154
154
154
156
154
151
149
144
139
137
137
139
147
149
147
151
147
147
142
142
142
137
134
132
127
125
127
132
142
139
93
95
100
107
105
105
112
120
125
132
144
156
170
176
176
168
161
159
156
154
154
159
161
161
159
159
163
161
159
161
161
154
149
151
154
154
151
156
154
154
151
147
139
137
137
139
147
149
149
151
151
149
147
147
147
137
129
129
125
120
127
134
142
137
100
98
100
105
110
117
122
129
137
147
159
170
174
178
174
165
159
154
156
154
156
161
163
165
161
156
161
159
159
161
163
156
151
154
154
154
151
151
156
156
154
147
139
137
137
142
149
151
151
154
151
154
151
154
147
137
132
134
127
125
129
132
132
132
105
105
105
112
117
122
132
142
151
163
174
176
176
176
172
163
154
149
154
156
161
165
165
168
163
154
159
156
156
156
161
156
149
154
154
154
154
156
156
151
151
147
144
139
139
142
151
156
156
156
154
154
151
147
137
134
132
134
132
129
129
129
125
120
105
107
115
120
125
134
144
156
168
174
178
178
178
176
170
163
149
147
154
159
165
165
168
168
163
154
156
159
159
159
161
154
147
147
149
151
156
156
154
151
151
147
147
144
139
144
151
154
149
154
156
151
147
139
134
132
129
132
129
129
127
127
117
110
112
117
125
129
139
149
163
172
174
174
174
176
174
172
168
163
154
149
156
163
168
165
168
168
161
154
159
161
159
161
163
154
151
154
151
151
154
151
154
156
154
151
147
142
144
147
149
151
154
154
154
149
144
134
132
132
129
125
127
129
127
125
115
110
122
129
137
147
156
170
178
178
176
176
176
172
170
165
165
165
156
151
156
161
168
168
168
163
161
154
159
161
163
163
161
156
154
154
151
149
151
154
154
154
154
151
149
142
139
142
144
147
149
149
149
147
142
134
134
137
129
122
125
127
132
125
115
110
134
144
154
165
174
180
180
180
180
180
176
172
165
161
163
163
161
154
154
156
163
165
163
161
159
156
159
161
165
159
156
159
159
151
149
149
151
149
147
151
156
154
149
144
144
147
147
147
149
151
151
147
144
137
132
139
134
127
125
129
132
127
120
115
149
161
170
178
184
182
184
182
180
178
174
168
165
161
159
161
163
159
154
154
156
161
159
159
156
154
154
156
161
154
151
156
156
151
151
154
151
144
147
154
154
149
147
142
147
151
151
147
147
151
154
149
147
144
137
139
137
137
134
137
132
127
125
122
168
176
182
186
188
186
184
182
182
174
170
170
168
161
163
168
168
163
156
149
149
154
154
154
151
154
154
156
156
151
154
156
151
151
154
154
154
144
149
154
151
147
147
142
144
147
147
149
147
149
154
149
149
147
144
142
137
137
137
134
134
132
127
125
180
186
190
192
190
186
184
182
176
170
168
165
163
161
165
168
168
168
163
154
151
151
149
151
151
156
156
156
154
154
156
156
147
149
151
154
151
147
149
151
149
147
147
144
142
142
142
144
144
147
147
147
144
142
144
144
137
134
134
134
137
137
132
127
188
190
192
192
188
184
182
178
172
165
165
163
159
161
161
165
170
172
168
159
154
149
149
151
154
154
154
156
156
154
156
154
149
149
151
151
149
149
149
151
149
144
147
147
144
139
137
139
142
139
142
142
137
137
142
142
134
134
134
137
137
134
132
127
192
190
188
188
184
180
178
176
170
163
163
159
159
161
163
165
170
174
168
163
156
149
151
151
154
154
156
156
156
154
154
151
147
147
149
147
147
147
149
149
147
144
144
144
144
139
134
134
139
139
139
137
134
137
139
139
134
134
132
132
132
129
125
129
190
188
184
180
180
180
178
174
170
163
163
159
159
163
168
170
172
172
165
165
159
149
151
154
151
149
149
154
156
159
154
149
147
147
147
147
147
149
151
149
142
142
144
147
144
139
134
134
142
142
139
137
134
134
139
139
137
134
132
129
127
134
134
134
186
186
180
178
176
174
176
174
170
165
163
161
161
163
168
170
172
170
168
168
163
154
151
149
147
147
147
149
154
159
154
149
149
151
149
147
151
156
154
149
147
147
147
144
142
139
137
139
147
147
142
142
137
134
137
142
139
134
129
127
129
139
139
134
