P2
# 231 of 608 Angiograms
64 64
255
98
98
103
103
98
98
103
110
110
107
103
103
100
105
112
110
105
103
103
107
112
110
107
112
120
112
107
103
107
110
112
107
103
105
105
105
98
95
95
100
100
98
91
95
98
98
95
95
103
107
103
103
110
105
103
100
100
105
103
107
112
110
105
107
93
95
100
100
95
95
103
107
107
105
100
100
103
105
112
112
112
105
103
107
110
110
103
110
115
107
105
107
107
107
110
103
103
105
103
100
98
100
98
98
98
95
89
98
98
100
103
100
103
105
105
105
107
105
105
103
105
105
110
112
115
115
107
107
98
95
98
103
98
95
100
105
103
100
103
103
103
107
112
112
112
107
103
103
105
107
105
110
112
107
105
105
103
103
103
103
105
100
98
93
93
98
98
98
100
93
89
93
98
105
107
105
107
110
110
110
112
112
112
112
115
112
117
125
125
122
117
115
100
98
100
105
103
100
100
105
105
105
107
107
105
107
110
107
112
107
105
103
107
117
115
115
110
110
110
105
103
105
105
103
105
103
95
93
98
100
100
100
105
100
95
98
103
110
115
115
115
117
120
117
120
122
117
115
112
115
127
127
125
125
125
127
103
103
105
107
103
103
105
110
112
110
110
110
112
112
112
115
117
112
107
105
110
117
117
115
115
115
112
110
110
112
112
112
110
105
103
100
103
107
110
110
110
110
107
105
107
107
112
112
112
117
122
115
117
122
120
117
112
120
132
129
125
125
127
127
110
110
110
105
105
107
110
115
117
115
115
117
120
117
112
120
122
120
115
112
115
122
120
117
117
122
120
117
115
115
115
117
117
112
110
110
112
120
120
117
112
112
115
112
112
112
115
110
110
112
112
112
115
117
117
112
112
122
129
127
125
125
127
127
117
115
115
115
115
112
112
117
120
120
122
122
122
120
125
125
125
122
120
115
122
127
125
122
125
125
129
125
122
120
117
115
115
120
117
115
117
122
122
120
115
110
110
115
115
117
120
117
115
112
112
120
120
117
115
110
110
117
122
125
125
122
117
122
122
117
122
122
117
112
110
117
120
120
125
125
122
117
122
125
127
127
125
120
125
129
127
125
125
125
127
127
125
122
120
117
115
115
115
112
112
115
117
122
120
112
107
110
112
117
120
120
117
117
120
122
125
120
117
117
115
112
117
125
127
129
125
125
120
117
122
127
125
117
112
115
120
122
125
125
122
120
120
125
129
129
129
127
122
125
122
127
125
122
127
127
122
122
122
120
120
115
115
110
110
115
120
122
120
112
107
107
110
115
112
112
115
122
120
125
127
127
122
117
117
120
120
122
129
134
127
127
122
120
125
125
125
125
120
115
117
117
117
117
120
122
122
129
132
129
127
129
122
117
122
125
122
122
127
129
125
125
122
120
120
117
115
115
115
115
117
120
120
112
105
105
110
115
115
112
112
120
115
117
122
122
122
120
120
122
122
120
125
129
127
132
129
129
129
127
129
127
127
125
117
112
112
117
120
117
125
127
127
122
120
120
120
117
122
127
127
129
129
132
127
122
122
120
117
115
117
120
122
117
117
122
117
115
115
112
115
120
120
120
117
120
115
117
120
122
120
120
117
122
127
122
122
125
132
137
127
132
129
129
132
132
132
129
125
120
112
112
112
115
120
122
120
117
115
115
115
115
120
125
120
125
129
132
129
127
122
117
117
117
122
122
122
120
115
117
112
110
115
117
117
122
122
120
117
117
115
115
115
117
120
120
122
127
127
122
125
129
137
139
127
129
129
132
129
127
127
125
122
125
122
115
115
120
120
120
120
120
120
117
117
117
120
122
115
120
125
127
127
127
125
120
122
125
129
129
127
125
120
112
110
103
112
120
120
120
115
115
115
117
120
117
115
120
122
122
125
125
122
122
129
129
132
139
127
132
137
134
129
127
129
129
127
122
125
120
120
125
125
125
127
127
127
127
125
122
122
127
122
120
122
127
127
127
129
125
125
127
132
132
134
132
125
117
112
110
117
120
120
115
110
112
117
117
117
117
120
120
120
120
120
122
120
122
132
129
132
134
127
129
134
134
134
134
132
129
127
122
125
125
125
125
125
127
132
129
129
127
125
125
127
125
125
125
127
122
125
127
125
122
127
129
134
137
139
134
129
120
117
115
115
115
115
115
115
115
112
115
120
120
117
115
117
120
120
122
125
125
129
127
129
134
122
122
125
127
132
134
132
129
132
127
125
129
127
125
125
125
122
127
125
125
127
129
132
127
122
125
125
117
120
120
117
122
127
127
132
132
132
132
127
125
122
115
115
117
115
115
112
112
115
117
117
122
120
120
122
120
115
117
120
120
120
120
120
125
120
120
117
120
127
134
132
127
129
127
125
125
127
122
125
125
125
127
125
125
125
127
127
125
122
125
127
120
117
120
112
120
129
125
125
127
127
129
125
120
117
117
120
120
115
112
115
115
115
117
117
120
120
122
120
112
112
117
110
112
112
112
115
120
122
122
117
120
125
132
125
122
125
125
122
122
122
120
127
129
127
127
129
129
129
127
120
122
122
122
127
122
122
120
117
120
127
122
120
125
127
125
120
117
115
120
120
120
117
117
120
115
110
112
115
112
112
110
110
112
115
112
105
107
112
115
120
127
117
120
120
120
125
125
122
122
125
122
122
125
125
122
125
132
129
127
129
129
127
122
122
125
122
115
117
120
122
122
122
120
120
115
120
127
127
120
117
112
117
117
115
115
117
120
120
115
107
110
115
110
107
103
107
112
115
112
107
112
117
120
125
127
115
115
117
122
120
117
117
122
122
120
122
127
127
122
120
125
125
125
127
122
122
125
122
122
117
110
107
115
115
115
117
117
115
112
117
125
127
120
117
112
115
110
107
110
112
117
120
115
112
115
112
115
110
107
112
115
117
115
117
120
120
125
127
127
110
107
107
107
107
107
107
110
112
115
115
115
112
115
115
117
117
117
117
117
120
120
120
117
112
105
100
107
112
115
117
120
115
107
115
120
122
117
112
112
110
110
115
117
112
112
117
117
112
120
117
117
115
112
120
122
120
120
125
122
122
127
129
129
105
100
98
95
91
89
89
89
93
98
98
100
98
95
93
95
95
98
98
98
98
100
100
103
103
98
95
105
107
115
117
120
115
110
115
120
120
117
115
112
110
115
117
117
112
112
117
117
117
120
122
122
122
117
122
120
117
122
122
120
122
129
129
127
100
95
91
86
80
74
74
76
80
80
82
82
82
80
76
72
72
76
76
78
78
82
86
91
93
93
93
98
105
112
115
117
120
115
120
125
125
122
115
110
110
112
115
110
110
112
115
115
120
122
122
122
122
112
120
120
120
122
127
127
125
127
127
127
89
86
84
78
70
64
68
68
68
68
68
70
72
72
70
62
62
72
72
72
74
70
72
80
82
84
86
86
93
98
105
112
120
122
120
117
120
115
110
107
105
105
110
105
103
103
110
115
120
120
122
122
117
117
120
117
120
127
129
127
127
125
127
125
84
78
74
72
68
64
68
66
64
68
66
60
64
70
68
60
60
66
68
66
66
68
70
78
74
74
76
82
84
91
95
103
107
110
112
110
110
105
105
103
103
107
112
112
105
105
110
115
120
120
120
122
122
125
127
122
122
129
132
134
132
127
127
129
76
70
70
74
72
66
68
72
70
68
64
64
68
74
68
64
58
62
68
66
64
70
76
76
76
74
74
80
82
84
93
98
95
95
100
105
103
100
100
103
105
110
112
117
115
112
112
117
120
120
122
127
125
125
127
120
127
129
134
134
134
132
127
129
70
68
64
68
68
70
70
70
72
62
62
68
74
72
66
64
58
62
70
66
64
68
74
74
74
76
78
80
84
91
93
93
91
93
98
105
107
110
107
107
107
110
112
115
112
110
110
112
122
117
122
129
127
127
125
117
125
127
129
129
129
129
127
125
66
64
60
66
70
72
72
72
70
62
64
70
70
70
66
64
66
64
68
66
66
70
72
72
72
76
80
82
89
91
95
103
98
98
98
103
107
107
107
110
105
103
100
105
105
103
103
107
112
117
122
125
122
122
122
120
122
125
129
125
122
125
127
125
60
60
62
66
70
70
68
68
66
62
66
72
74
74
72
70
70
68
66
70
74
70
72
76
74
78
84
86
86
89
95
105
105
100
100
103
107
112
115
110
105
105
103
103
100
93
95
103
107
112
120
122
120
120
120
120
120
125
127
127
129
125
127
129
60
64
66
66
70
70
70
72
72
74
78
82
82
80
78
74
74
68
70
74
72
70
74
76
80
86
95
95
93
91
95
100
98
100
105
107
112
117
117
110
107
105
103
103
98
91
93
95
103
112
120
117
120
122
117
120
122
127
127
129
129
132
132
132
64
70
70
68
72
76
82
84
86
89
91
95
100
103
98
91
84
82
82
84
84
84
86
89
95
103
107
107
107
107
107
105
105
110
110
110
112
117
120
110
110
103
98
95
93
95
98
95
98
103
112
117
120
120
115
120
122
122
122
125
127
132
139
137
70
78
82
82
86
93
95
100
103
107
107
110
112
117
117
115
110
107
105
105
103
103
105
107
110
115
117
120
117
117
122
120
115
112
112
112
112
117
120
112
110
100
98
91
89
93
95
93
93
93
100
110
112
112
115
120
117
115
115
120
122
127
129
132
78
86
93
98
103
107
107
110
115
117
112
117
122
125
127
122
122
122
117
112
112
112
112
120
122
122
122
122
122
125
127
129
125
120
115
115
120
120
122
117
112
100
95
91
86
89
89
86
82
84
89
103
110
110
112
115
112
112
115
115
117
122
122
117
98
103
107
110
112
115
120
115
115
117
117
120
120
122
125
122
122
120
122
120
122
120
122
127
129
127
129
129
125
127
132
129
127
125
122
120
122
120
122
117
112
103
93
91
89
89
84
84
91
86
86
95
103
105
112
117
115
115
115
112
112
115
112
110
112
115
110
110
112
117
120
115
117
122
120
117
115
120
120
120
117
115
122
122
122
125
127
127
134
132
127
122
127
132
132
125
122
125
127
122
120
117
117
117
115
112
100
91
93
93
86
82
91
89
89
93
98
103
110
112
110
107
107
105
105
105
105
103
112
115
115
115
117
120
125
120
117
117
120
117
115
115
115
117
122
117
120
120
125
127
127
127
127
132
127
125
129
132
129
125
125
127
132
127
125
120
117
122
120
117
110
103
98
93
89
84
86
89
89
91
98
98
103
103
100
100
100
103
103
103
103
100
115
117
117
120
122
122
120
117
117
117
120
122
120
117
112
110
117
120
117
120
127
127
122
120
120
122
125
122
127
127
125
125
122
125
127
125
122
122
115
120
122
120
117
110
105
98
93
86
84
86
91
93
100
100
95
98
98
95
98
100
98
95
98
98
115
115
112
115
122
122
120
117
120
125
122
120
122
117
110
110
112
115
112
117
127
129
125
120
117
115
117
117
120
125
122
117
117
122
122
122
122
125
122
125
125
122
120
115
107
105
98
93
89
91
95
100
100
100
95
100
98
95
95
98
93
98
98
93
117
112
112
112
117
122
122
125
125
122
117
117
117
117
112
115
115
112
110
117
122
125
125
117
120
122
122
115
120
125
122
117
120
125
120
122
127
127
127
127
122
122
120
117
110
110
105
98
95
98
103
105
103
103
100
98
95
95
93
93
93
95
95
93
117
120
117
117
117
122
122
125
125
117
115
112
112
117
117
117
120
117
115
117
120
122
125
120
122
129
127
122
125
127
125
120
122
122
120
127
129
129
129
129
127
122
120
112
107
110
110
100
98
100
107
107
107
107
100
98
100
100
95
95
95
95
93
95
115
122
120
117
120
120
115
120
117
115
112
115
115
115
117
120
120
117
122
122
122
122
127
117
120
127
125
125
127
127
122
120
120
122
122
132
137
134
132
129
129
127
117
112
110
112
110
103
100
103
105
107
107
107
105
105
107
105
100
95
93
95
95
95
107
117
122
122
120
115
115
115
115
115
115
117
117
115
117
120
120
117
120
117
115
115
122
120
120
120
122
127
127
120
117
120
120
117
125
129
132
132
125
127
129
127
120
112
110
115
110
107
100
100
105
112
110
110
115
117
117
110
105
100
100
100
100
98
110
115
120
125
122
117
120
120
115
115
117
115
112
112
112
112
115
110
110
115
115
117
120
122
117
117
129
129
127
117
117
122
125
122
122
125
125
122
120
122
125
125
120
112
107
107
110
110
103
98
103
122
125
125
122
125
125
120
112
107
107
107
107
105
117
115
120
122
122
120
122
115
110
115
120
117
112
110
107
110
112
110
107
115
117
120
122
117
120
117
129
127
125
125
120
122
127
122
122
120
117
120
122
120
122
120
117
117
112
110
110
107
103
100
103
117
122
125
125
125
127
127
122
120
122
122
122
120
122
117
115
117
120
122
115
110
107
110
117
120
117
112
105
107
112
117
117
115
115
117
120
122
122
122
129
122
122
125
120
125
132
127
122
127
125
120
125
122
117
115
112
110
110
112
112
112
105
103
105
112
117
122
122
120
122
122
117
122
127
129
129
129
122
120
115
117
117
117
115
112
112
115
120
122
120
115
107
105
110
115
117
117
115
117
117
120
120
120
120
122
122
117
115
125
127
125
125
125
122
122
125
122
120
115
110
103
103
110
112
117
112
107
105
110
112
120
122
122
122
117
120
127
127
127
129
134
122
120
117
117
115
115
115
112
115
120
120
120
120
117
115
110
110
115
122
122
120
117
117
120
117
112
115
117
115
110
115
122
122
122
125
125
125
122
120
122
125
117
105
103
100
110
112
112
110
112
105
105
112
115
122
127
125
122
127
129
127
125
125
129
117
117
122
117
115
110
112
115
122
122
122
120
122
120
115
115
112
117
125
122
122
115
112
120
117
117
117
120
112
112
112
115
117
120
120
122
122
125
125
120
122
115
103
103
103
107
110
107
107
107
103
100
107
112
115
120
125
127
129
129
125
125
122
120
115
122
122
115
107
107
112
117
122
125
125
122
120
120
117
112
115
120
122
117
115
112
107
117
117
120
122
122
115
110
112
115
115
115
115
120
125
127
127
127
122
112
103
105
107
107
110
110
112
112
107
100
103
110
112
122
129
132
132
129
129
129
127
125
112
115
117
110
105
107
107
112
117
117
120
120
117
115
112
112
115
117
120
112
110
110
105
112
117
120
120
120
112
112
117
117
112
107
112
117
117
120
120
120
115
107
103
105
107
105
107
115
117
110
112
107
103
103
110
122
129
129
127
129
132
134
129
127
112
112
115
112
110
110
107
107
110
110
112
120
117
112
115
120
120
115
117
115
110
110
107
112
115
115
115
115
115
112
117
117
110
110
112
112
110
117
117
115
112
107
103
105
110
112
115
115
120
115
115
112
110
105
107
117
120
122
122
127
134
137
132
127
117
112
115
110
107
107
107
105
105
105
110
120
117
110
115
120
120
115
117
115
115
112
110
112
117
120
122
120
120
117
115
117
115
115
117
112
115
120
115
110
110
107
107
110
112
112
115
117
120
117
115
120
117
107
107
110
117
120
120
125
134
137
132
125
120
120
115
112
112
112
107
103
100
107
110
115
112
112
117
115
117
122
117
115
117
117
117
117
120
125
122
120
120
117
115
112
112
115
120
117
115
115
112
107
107
107
107
112
115
117
122
129
125
117
115
122
122
112
103
107
112
117
120
127
132
134
129
127
115
120
120
120
112
107
105
103
103
107
112
112
110
112
115
112
115
117
115
117
115
117
120
122
122
120
120
120
120
117
112
112
115
115
117
115
112
112
112
110
110
110
112
117
117
122
132
132
127
122
120
120
122
115
103
110
115
117
117
129
132
134
134
132
110
112
115
115
110
107
115
110
107
110
115
112
112
112
110
110
112
117
120
125
117
112
115
122
125
122
120
120
117
117
112
122
122
117
120
117
115
117
117
115
115
115
117
117
120
129
129
132
127
127
122
120
120
115
110
112
110
110
115
125
127
129
132
134
117
110
112
112
112
117
117
117
115
115
112
110
112
107
107
115
115
115
117
112
110
105
110
122
125
125
122
117
122
120
112
122
120
117
117
117
112
110
112
112
115
117
117
120
120
125
129
129
127
127
125
120
117
115
115
112
107
107
112
117
125
122
125
132
117
115
117
117
117
117
117
120
115
112
107
107
107
107
105
117
117
115
115
110
110
107
110
120
125
125
122
120
120
117
117
120
117
120
120
117
112
107
105
107
112
117
120
125
120
122
125
129
129
132
127
125
120
115
110
107
105
107
115
117
122
122
125
127
122
117
120
117
115
115
117
117
115
112
112
112
110
112
110
117
117
115
115
115
112
107
110
120
122
120
120
120
117
115
117
120
120
120
122
120
115
107
105
110
112
115
120
127
122
120
122
129
127
127
127
129
122
117
112
112
107
105
112
122
125
122
125
127
117
117
122
125
122
122
120
117
115
115
115
115
110
110
110
107
110
110
107
105
105
105
110
120
120
120
117
112
112
117
122
120
120
117
117
117
117
112
110
115
115
112
117
120
125
122
120
129
127
125
129
129
125
120
122
117
107
103
105
115
120
122
122
127
120
122
122
127
127
120
117
117
115
115
120
115
112
107
105
107
105
103
100
103
105
103
107
117
122
117
115
107
107
115
120
120
125
117
117
120
122
117
115
117
120
115
120
122
117
115
125
129
129
127
127
127
125
117
122
120
110
103
103
112
117
120
122
127
120
120
122
125
125
120
117
117
117
115
115
115
115
110
103
103
100
103
105
107
110
105
105
112
120
120
115
110
107
112
120
120
122
120
120
120
120
120
117
117
120
117
122
127
117
115
125
129
129
125
122
125
125
122
122
120
115
107
105
112
115
120
122
125
117
120
117
122
125
120
120
120
120
115
115
112
110
110
103
98
95
105
107
105
103
103
103
107
112
117
115
115
112
117
122
125
122
120
120
122
117
117
120
117
122
120
125
125
120
117
127
132
129
127
127
125
129
129
122
120
117
112
110
112
115
120
122
125
120
117
117
120
120
120
120
122
120
115
110
112
115
112
107
98
95
100
103
103
103
103
103
110
112
107
107
115
117
122
122
122
122
122
122
120
117
117
115
117
120
122
127
127
120
117
127
127
125
125
127
129
132
127
122
120
115
110
105
107
112
117
122
120
122
120
117
120
115
115
120
122
122
115
110
112
112
110
107
103
100
98
98
98
100
100
103
110
112
105
110
117
122
125
125
122
122
122
117
115
117
112
112
115
117
122
129
132
129
125
127
127
122
122
127
127
129
125
122
117
117
115
107
107
110
115
120
115
