P2
# 233 of 608 Angiograms
64 64
255
98
95
98
105
105
100
100
103
105
105
107
103
98
100
107
107
110
107
103
103
103
103
105
107
115
115
110
112
107
103
103
103
100
103
95
89
89
91
95
95
95
98
98
93
89
93
93
93
100
103
100
95
98
95
95
100
100
107
107
98
98
98
95
98
95
95
100
105
105
105
105
107
103
103
105
105
105
100
107
110
112
107
103
103
107
107
105
105
110
110
105
107
107
105
107
107
110
105
93
86
84
84
89
91
95
95
93
93
91
91
93
95
100
100
100
98
95
98
98
98
100
107
107
105
105
105
105
103
95
95
100
105
105
105
105
112
107
107
110
112
112
107
110
110
110
112
110
107
105
103
107
110
107
105
100
105
110
115
112
110
115
110
95
89
84
84
89
91
95
98
95
98
98
95
98
103
100
98
100
100
98
103
100
100
107
110
112
115
115
107
107
107
95
98
105
115
112
110
107
110
110
110
117
122
117
107
110
110
112
112
115
112
105
105
110
110
107
107
105
105
112
117
112
110
112
107
100
95
91
93
95
95
98
98
98
105
105
105
107
107
107
105
105
103
105
107
107
110
112
112
115
120
117
112
112
117
100
103
112
115
112
107
107
107
110
115
120
122
117
115
117
117
117
120
120
115
112
115
115
112
110
112
115
117
117
117
117
115
112
107
100
98
100
100
100
98
98
95
107
110
107
107
112
115
112
110
105
100
105
107
110
112
112
115
117
122
117
115
115
117
105
107
112
112
112
115
115
112
110
115
120
120
122
122
127
129
129
125
127
127
125
125
122
120
117
120
122
120
117
117
122
120
115
110
100
100
105
110
103
100
98
105
110
107
105
105
110
112
110
110
107
105
105
110
115
112
110
115
112
115
120
120
120
120
107
107
112
117
117
122
125
122
115
117
125
122
122
125
129
132
132
129
132
132
132
129
129
127
125
125
125
122
120
120
122
120
115
107
103
100
107
110
105
105
105
107
107
105
107
110
115
115
112
110
107
110
107
112
115
107
107
110
112
117
122
125
127
122
112
112
115
117
122
127
132
127
120
117
122
127
127
125
127
132
129
127
129
132
134
134
132
132
129
127
125
122
125
127
129
125
115
110
107
105
105
105
105
107
105
105
103
100
105
110
112
115
110
105
107
105
107
117
120
115
112
112
120
125
125
125
125
125
115
115
117
117
125
125
125
127
122
117
122
125
127
125
125
129
132
127
132
132
134
134
129
129
129
132
127
125
129
132
129
127
120
117
117
115
110
110
110
112
110
105
98
98
105
110
107
107
110
105
103
105
112
115
120
120
117
120
122
127
127
125
127
127
122
117
115
115
122
122
127
127
122
117
122
125
125
122
120
122
127
125
129
132
132
129
125
125
129
129
125
125
129
129
127
122
117
120
122
122
115
112
115
115
115
110
100
100
105
103
105
105
105
105
103
107
115
117
120
125
125
122
122
122
125
132
132
127
127
125
120
117
122
127
125
125
122
112
112
117
122
120
117
117
125
129
127
127
125
122
127
122
125
125
125
125
122
125
125
120
120
122
122
122
115
110
110
112
107
105
103
100
100
103
103
105
105
107
105
112
115
120
122
127
129
125
122
122
122
127
129
127
125
129
122
117
122
125
122
122
125
115
115
112
115
120
122
125
127
129
129
125
122
122
125
125
125
122
125
127
125
125
125
120
120
122
120
122
120
115
110
115
110
105
100
98
103
105
105
100
100
110
110
110
112
115
120
125
127
125
125
125
120
122
129
134
125
125
122
122
125
125
122
125
127
120
117
117
115
115
120
127
127
122
127
125
127
127
122
125
125
127
127
129
129
127
127
122
120
120
117
122
125
122
115
117
115
110
103
98
100
100
103
105
107
112
112
112
110
112
115
117
117
120
122
122
125
125
129
134
125
122
125
127
129
132
127
125
125
122
120
120
115
112
115
122
127
125
129
129
125
127
125
127
129
125
129
129
125
129
125
122
125
117
120
127
129
127
122
117
115
112
110
105
100
98
100
107
112
115
115
107
110
112
115
117
112
107
107
115
122
122
127
134
125
127
129
129
129
129
120
120
125
125
125
122
117
117
122
125
125
127
129
129
129
125
127
127
129
127
125
122
120
117
120
120
125
122
125
127
129
129
125
120
117
110
110
112
107
105
103
103
110
110
110
107
107
112
120
125
115
107
105
110
120
122
127
129
127
127
129
129
129
120
115
120
122
125
127
122
122
127
127
125
122
125
127
127
122
125
127
125
129
129
125
125
120
115
117
127
127
122
127
129
129
127
122
122
115
112
112
115
112
110
107
105
107
107
105
107
112
117
125
125
117
110
107
115
117
120
120
125
125
122
122
122
122
117
112
120
125
122
115
112
120
127
127
125
125
122
122
127
125
129
129
125
122
125
125
122
120
122
122
127
127
120
125
129
127
122
120
117
112
112
117
117
112
112
112
110
107
107
105
112
115
120
122
117
115
107
112
112
107
110
117
122
122
120
120
122
125
117
112
117
120
115
112
115
117
122
125
127
125
125
125
125
127
127
127
127
127
122
120
122
127
127
127
127
129
125
127
129
125
122
120
120
117
117
120
117
112
115
115
107
110
110
107
110
115
115
115
117
115
105
107
110
110
112
120
122
117
115
117
122
122
120
115
115
117
112
112
115
117
122
122
129
125
122
127
127
127
122
122
127
122
117
115
122
127
127
125
122
127
129
132
132
127
125
120
117
117
117
120
112
112
112
112
110
110
110
107
110
115
120
120
120
112
105
107
112
112
117
120
120
117
112
107
115
115
112
115
112
110
107
110
112
115
117
117
122
127
122
122
122
122
122
117
112
112
112
115
120
125
125
120
117
120
125
132
132
132
125
117
112
117
120
115
112
107
107
115
117
120
117
117
120
122
125
120
117
110
107
112
117
115
122
125
117
112
107
103
105
105
103
100
105
107
110
110
110
115
117
115
115
120
120
117
115
117
115
110
107
110
110
117
115
122
120
115
115
117
120
122
125
125
115
115
117
120
122
117
115
112
110
112
115
122
127
125
122
125
122
115
117
112
110
112
112
115
125
127
122
107
103
103
103
100
98
98
100
107
110
112
112
112
112
112
112
117
117
112
112
112
110
115
107
110
112
117
112
117
120
120
122
117
117
120
120
117
115
120
117
115
120
120
115
115
115
115
120
120
125
125
125
125
117
112
115
117
117
115
112
120
125
125
125
105
105
107
107
105
105
103
100
110
112
115
117
115
112
112
117
122
120
115
112
110
107
112
112
112
110
112
112
115
117
125
122
112
117
125
122
117
117
115
112
110
112
112
112
115
115
117
120
125
132
127
125
122
120
117
120
122
125
125
125
127
127
127
127
112
112
110
112
110
107
107
100
105
115
117
117
117
115
115
120
122
117
110
110
105
107
105
107
110
107
107
112
115
115
120
117
117
122
125
125
120
115
112
115
107
105
105
110
112
115
117
120
125
129
129
122
117
120
122
122
122
127
132
132
134
134
132
137
117
115
115
110
112
112
110
105
105
107
112
115
117
112
112
115
115
120
115
110
110
107
105
107
107
107
107
115
112
112
115
117
117
122
120
120
115
112
115
117
112
110
107
110
112
112
120
120
122
122
122
125
120
122
125
125
127
132
134
134
137
134
134
132
115
120
120
112
117
117
115
110
110
112
115
115
115
110
107
110
115
120
117
115
110
105
110
112
110
112
112
112
112
115
120
117
120
120
120
120
115
115
115
112
110
112
110
117
115
115
115
120
127
122
120
122
127
122
127
127
127
132
127
127
134
137
134
129
117
122
122
117
120
122
122
122
120
120
122
120
120
117
110
107
112
117
117
115
112
110
112
115
110
115
115
120
122
125
122
117
112
117
127
125
120
120
117
115
112
112
110
117
115
115
117
120
129
129
125
125
129
127
129
125
127
132
127
122
127
132
129
129
115
122
122
122
122
125
122
125
122
120
122
122
122
120
115
110
110
115
120
125
120
117
117
117
115
115
120
122
125
125
122
122
120
122
127
122
117
120
122
117
115
115
115
117
110
110
115
117
129
132
127
127
127
127
125
120
125
134
129
125
125
125
125
127
105
117
120
122
127
127
122
120
122
122
117
117
125
122
117
112
107
110
120
127
120
117
120
122
117
117
122
127
127
122
125
125
127
125
120
115
117
122
122
122
117
115
117
117
105
105
110
110
122
127
127
127
129
125
120
117
125
132
129
129
129
125
122
125
103
105
115
117
125
125
122
117
122
122
117
120
127
125
117
110
110
110
115
117
115
115
117
117
112
115
120
122
122
117
120
127
129
125
120
115
117
120
122
117
112
115
117
112
105
107
110
110
115
122
127
132
129
125
120
122
122
132
132
129
127
132
125
122
95
103
110
117
125
127
129
127
122
120
120
122
129
127
120
115
117
120
117
117
117
117
117
112
112
112
115
120
120
117
122
122
122
122
120
122
122
117
115
115
112
115
115
110
107
107
107
112
115
117
125
129
127
122
125
125
125
132
132
127
127
137
134
129
95
103
110
120
125
127
132
129
125
122
117
120
125
127
122
122
122
125
120
117
117
117
112
115
115
115
112
112
115
125
129
125
120
122
120
125
125
117
107
107
115
120
122
120
117
110
105
110
117
120
125
129
125
120
125
127
129
134
129
127
132
139
142
139
93
98
105
115
122
125
127
122
120
120
115
115
122
127
127
122
120
120
115
115
120
120
112
112
110
107
107
110
115
120
125
120
120
125
125
122
125
122
117
117
115
120
122
120
117
110
107
115
125
125
125
127
125
117
125
129
129
132
127
127
132
139
142
139
91
93
100
110
115
125
127
122
117
122
115
112
115
117
117
115
112
110
110
107
112
112
107
107
103
103
100
103
105
105
105
107
112
115
117
120
120
117
117
117
117
115
112
110
107
107
112
117
125
127
129
127
122
117
125
129
132
132
129
132
134
137
137
134
98
93
98
105
110
122
129
117
110
112
112
110
103
100
98
93
93
91
93
95
98
95
95
93
93
93
91
89
89
89
89
91
95
98
103
105
107
110
112
112
112
110
112
112
107
110
112
117
122
125
125
122
120
122
127
132
132
132
132
132
134
139
139
137
100
98
100
103
105
112
122
112
107
105
103
98
91
84
80
78
74
74
76
80
78
78
76
76
76
78
80
78
78
80
82
84
86
91
91
91
93
100
105
107
103
103
107
110
107
105
107
112
115
117
120
122
125
125
127
132
132
132
132
132
132
137
142
137
98
98
98
100
103
105
107
105
100
98
93
86
84
78
72
72
70
68
68
70
70
68
68
72
74
74
78
76
76
76
80
82
78
84
84
84
86
95
98
93
91
95
100
100
98
95
98
103
107
110
115
122
125
125
125
127
134
134
134
129
129
137
137
137
98
93
93
98
98
95
93
91
86
82
78
76
72
70
68
66
64
62
64
66
64
62
64
70
66
70
74
76
78
78
82
80
76
82
82
82
84
93
93
89
86
91
95
95
91
89
93
93
98
107
112
120
122
122
125
127
132
132
134
132
127
134
139
137
98
91
89
89
89
84
80
76
74
70
68
62
60
58
57
57
62
62
68
66
62
64
72
68
66
70
74
76
76
76
80
78
82
84
82
82
86
91
93
91
89
89
91
93
89
84
91
91
91
98
107
115
117
120
125
127
129
129
132
134
129
132
134
134
98
84
82
82
78
74
68
66
68
64
62
60
64
60
60
58
60
66
70
70
66
74
76
72
70
74
76
76
72
74
80
78
80
86
84
89
93
98
95
93
91
91
91
91
91
86
91
89
91
95
100
107
112
117
122
127
129
129
129
129
127
127
132
132
89
80
74
76
74
68
62
64
66
64
66
68
64
60
64
62
64
68
68
68
74
80
84
82
78
78
80
78
76
78
80
80
84
91
93
98
100
103
103
98
95
95
95
95
98
95
95
98
95
93
98
103
107
112
117
122
127
127
129
129
129
129
134
132
82
72
66
72
70
60
57
62
58
60
64
66
64
66
64
66
68
70
74
80
86
93
91
89
84
84
86
86
86
86
86
91
95
100
107
112
112
112
112
112
112
110
105
105
103
103
100
98
98
95
93
95
100
100
105
112
120
125
127
129
132
134
134
132
78
66
66
70
66
60
58
60
58
58
60
64
68
68
68
72
76
82
89
95
100
103
105
100
98
98
98
98
95
98
100
103
110
115
115
120
122
120
115
112
117
117
112
107
107
105
103
98
93
91
89
93
95
98
100
105
112
117
122
129
134
137
134
129
72
64
62
66
62
58
57
55
57
62
64
68
70
72
76
80
89
98
105
105
110
117
117
115
107
110
110
110
110
107
110
115
120
120
117
120
122
125
120
115
115
117
112
112
107
103
107
100
91
86
84
89
93
98
100
103
105
110
115
122
129
132
129
127
68
62
64
64
62
60
57
55
58
66
72
74
78
82
86
93
100
107
112
115
120
122
125
125
120
117
120
122
120
115
112
120
125
122
117
120
125
127
125
122
117
115
112
110
105
103
105
103
98
91
89
89
93
91
93
98
98
100
105
110
117
125
125
125
66
64
66
62
60
62
60
58
62
70
74
82
91
98
100
105
110
117
117
112
117
122
125
127
127
120
122
122
122
117
110
115
120
117
117
122
125
122
122
125
120
117
112
107
110
110
110
105
100
93
89
89
91
89
91
91
89
93
95
100
105
112
115
115
62
60
60
55
53
60
64
62
68
76
84
93
100
105
112
112
120
120
117
115
112
117
122
122
125
120
125
127
122
115
112
120
120
117
117
115
117
120
122
125
125
122
112
105
105
107
112
105
103
98
91
89
86
86
86
86
89
91
93
95
100
103
107
107
62
62
66
60
55
58
64
68
78
86
93
98
103
107
117
122
127
125
125
125
117
112
115
120
122
122
122
122
120
115
115
120
117
120
120
117
117
120
125
125
125
122
110
105
105
107
107
105
105
105
98
93
89
86
86
89
89
89
91
93
98
100
95
95
64
62
64
64
64
60
66
76
89
93
91
95
100
107
120
125
125
122
127
127
120
107
110
117
122
122
117
117
117
112
115
117
115
117
117
122
120
122
127
125
122
112
105
110
107
103
100
105
112
115
107
98
93
89
89
93
95
91
89
89
93
95
93
91
64
64
62
68
68
64
74
89
95
98
95
98
98
107
120
125
120
117
120
122
122
110
112
117
122
125
120
117
120
115
115
112
117
115
117
117
120
122
122
120
115
105
105
112
112
105
105
115
120
120
115
110
100
93
93
91
93
98
91
89
93
91
91
91
66
66
66
68
68
76
89
93
95
98
98
100
100
105
115
120
117
115
115
117
122
117
117
117
122
125
122
122
122
117
112
110
112
115
120
120
122
117
117
117
110
105
107
110
115
112
115
117
120
120
117
115
110
100
95
95
93
98
98
95
95
95
93
91
70
70
72
76
86
98
100
95
93
98
98
103
105
105
110
120
117
115
117
117
115
115
115
117
125
127
125
120
117
115
112
115
117
117
117
117
120
115
115
117
115
112
112
115
120
117
120
117
115
120
122
120
115
107
98
98
100
100
103
98
95
100
93
89
82
82
91
98
105
110
105
100
91
95
98
98
95
98
107
115
117
120
120
120
117
117
115
120
125
125
122
120
120
122
117
117
117
117
115
117
117
117
112
115
115
115
117
117
122
127
127
127
125
122
122
120
115
112
105
103
105
103
105
107
103
100
95
91
100
100
105
110
112
112
112
103
93
91
93
95
91
93
103
115
120
120
120
115
117
122
120
125
125
122
122
120
122
127
122
117
115
117
120
117
117
120
112
112
110
110
115
117
117
125
134
137
137
127
122
117
117
112
107
105
105
105
110
112
112
107
103
98
110
110
115
122
120
117
117
110
100
93
89
95
95
91
100
112
117
117
117
112
115
117
120
125
125
122
122
120
122
122
117
115
110
120
125
122
120
122
115
117
112
112
120
122
120
125
132
137
139
132
125
125
120
115
110
103
105
110
115
120
120
117
115
115
115
117
122
122
117
120
120
120
107
98
93
93
93
93
103
110
115
117
115
115
112
112
117
125
125
120
120
122
125
120
117
115
112
120
122
125
125
120
120
117
115
115
125
125
127
129
134
134
137
132
129
129
125
122
115
105
103
112
117
117
117
120
127
132
120
122
127
127
125
122
125
122
115
105
98
93
93
98
103
107
115
120
117
117
112
115
115
120
122
120
117
120
125
122
117
115
115
120
122
125
125
117
120
112
115
117
122
122
127
132
129
129
132
129
129
129
125
125
120
110
100
110
115
115
117
125
129
129
125
125
125
122
125
129
127
122
115
112
103
95
91
93
98
103
110
120
120
115
115
115
115
120
125
120
115
115
117
120
120
120
115
112
115
117
117
117
115
112
115
120
125
125
129
129
127
129
132
132
129
134
125
125
122
115
107
110
112
115
120
127
127
125
127
122
122
120
120
127
129
122
120
117
107
98
89
84
91
95
103
107
115
112
112
112
112
125
127
122
115
117
115
115
122
122
117
107
112
112
115
120
117
117
117
120
120
122
129
127
125
129
134
132
132
132
125
125
125
117
110
107
110
112
115
125
127
127
127
125
125
125
122
125
122
120
125
122
112
103
93
86
84
86
91
98
105
112
107
105
112
122
127
122
120
120
117
120
122
125
125
117
117
120
122
122
117
120
120
122
120
125
125
117
125
132
134
134
134
132
127
125
122
120
110
103
105
112
112
117
125
127
120
122
122
125
127
127
125
122
122
122
117
103
95
91
82
78
82
93
100
107
110
110
112
120
125
122
127
129
120
125
129
134
129
122
120
120
122
120
120
117
117
122
125
127
125
120
127
132
134
134
132
132
134
129
122
115
112
110
107
112
117
120
122
127
117
120
117
122
122
125
125
125
125
122
120
110
100
95
89
82
82
86
95
100
107
110
112
122
127
122
127
125
125
127
127
129
125
122
122
125
122
120
117
115
115
120
125
127
122
117
125
132
134
137
132
132
132
129
125
115
115
110
107
112
117
122
125
120
117
117
115
120
120
120
122
125
127
122
122
117
105
100
93
89
86
84
89
95
103
105
110
117
127
127
127
125
127
127
125
125
125
125
120
120
122
122
117
117
120
117
125
127
122
120
127
134
137
137
134
132
132
134
127
122
117
112
110
107
115
120
120
117
120
112
112
115
117
120
120
129
132
127
125
120
110
105
100
91
89
86
86
93
100
103
110
115
120
125
127
125
125
125
125
129
125
122
122
117
120
120
120
125
122
120
127
127
127
127
129
134
129
132
134
137
139
139
129
127
122
117
112
107
107
117
120
115
