P2
# 238 of 608 Angiograms
64 64
255
117
117
117
117
122
125
125
127
127
127
129
129
127
129
134
142
139
137
129
122
120
122
125
127
125
122
120
125
125
127
127
125
125
125
122
115
112
117
122
120
117
117
120
117
120
122
125
125
125
120
120
117
107
107
115
112
107
98
95
98
98
100
103
100
112
117
122
122
122
127
127
132
132
132
129
125
125
129
132
134
134
129
129
127
125
125
127
132
127
125
122
125
125
122
120
120
125
127
125
117
112
117
117
115
115
115
115
117
120
125
125
122
127
117
117
120
112
107
112
112
107
98
95
93
98
93
93
98
110
117
120
120
122
127
129
132
129
132
129
125
127
127
129
129
132
132
132
132
127
127
129
132
127
122
120
122
127
127
120
120
127
127
125
120
112
112
112
112
112
112
112
117
122
127
127
125
125
115
115
117
115
107
115
112
105
98
95
100
100
98
95
100
107
117
125
127
127
127
127
122
122
129
132
127
125
125
129
132
132
134
134
129
127
127
132
132
132
129
125
127
129
127
122
122
127
125
122
117
115
112
115
120
117
112
112
120
122
125
127
127
122
117
112
115
112
103
110
107
105
103
103
105
103
103
100
98
105
115
122
127
129
129
127
125
125
129
134
132
122
122
127
132
134
134
134
127
127
132
132
132
132
129
129
129
127
127
125
122
125
125
120
120
115
112
120
122
120
117
115
115
120
122
125
127
122
117
115
112
110
107
107
110
107
105
110
110
107
100
95
95
98
105
115
122
129
132
129
127
129
137
137
134
125
125
129
134
132
137
132
125
125
132
132
127
132
132
129
129
127
127
122
125
127
127
120
117
112
115
117
122
125
120
120
117
115
117
120
122
122
120
120
115
110
107
110
110
110
107
107
110
105
100
91
93
86
93
103
112
120
125
125
127
132
139
139
134
129
129
132
129
129
132
125
120
120
122
132
129
129
127
129
132
129
125
120
127
129
129
125
117
117
120
125
127
127
120
122
127
122
120
115
117
117
117
117
120
117
110
110
110
110
105
107
105
103
100
91
91
80
80
89
98
107
115
117
125
132
134
132
134
134
132
127
129
129
127
122
122
125
120
125
127
132
129
129
129
125
125
120
127
129
129
127
115
112
115
120
125
127
120
122
129
125
122
112
110
112
112
112
115
112
115
115
110
110
105
107
107
105
98
93
89
74
76
80
86
93
103
107
115
120
127
127
132
129
127
132
134
129
127
125
127
122
122
122
125
129
129
129
129
125
122
122
125
127
129
127
120
117
120
125
127
127
122
122
127
127
127
120
112
112
115
115
115
112
110
107
110
115
107
105
115
110
98
93
89
72
68
76
82
86
91
95
103
107
112
117
120
125
125
132
132
129
127
127
127
127
125
122
120
127
129
129
132
125
125
129
129
129
132
129
125
122
127
127
127
129
127
127
129
127
127
122
117
112
110
112
115
117
117
112
112
112
105
100
110
110
98
91
89
72
66
70
80
84
89
89
89
95
98
105
110
112
120
127
129
129
127
129
132
132
129
122
120
127
129
129
127
125
127
129
129
132
127
127
129
125
122
125
129
129
129
129
132
129
125
117
117
120
115
115
117
115
120
117
110
107
107
107
107
105
98
93
91
68
70
70
76
84
89
89
89
93
93
91
98
105
107
115
122
127
127
127
129
132
129
125
122
122
129
132
125
122
127
132
129
129
125
125
129
127
122
127
132
132
134
132
134
132
127
120
112
115
117
115
117
120
117
117
112
107
112
110
110
105
98
98
98
72
74
70
70
74
80
82
86
91
91
89
93
98
103
105
107
115
120
122
127
129
132
127
122
122
127
127
120
120
127
134
134
129
125
127
127
122
120
129
132
132
134
132
132
129
127
122
110
110
112
115
117
120
117
117
112
107
107
107
110
110
100
98
100
78
80
80
76
74
74
76
80
89
89
86
91
95
98
98
95
98
105
115
122
129
132
129
132
129
127
122
122
120
122
129
134
132
125
127
122
117
122
129
127
129
129
129
129
132
125
117
110
115
117
112
120
122
117
117
115
112
112
110
110
110
100
100
100
93
91
89
82
76
76
74
78
86
91
89
91
98
95
91
89
91
93
100
107
117
125
127
129
129
125
127
129
125
125
122
127
125
122
125
125
125
129
127
127
132
132
127
125
127
120
117
120
120
115
107
117
117
112
115
112
110
110
112
112
107
103
98
103
105
100
95
89
80
78
76
80
84
86
89
89
91
91
91
86
86
91
93
98
105
112
117
120
122
122
125
132
132
125
120
120
125
125
125
125
127
127
125
127
132
132
125
125
122
117
117
122
122
115
110
115
115
115
115
115
112
112
112
117
112
105
100
105
115
110
105
98
91
84
80
78
82
86
86
89
93
91
84
84
86
89
95
95
98
100
103
107
112
112
117
122
125
125
122
122
125
122
125
125
120
120
120
122
122
127
129
132
122
120
120
122
125
122
117
117
120
115
115
115
112
112
110
117
117
110
103
103
117
115
110
105
100
98
93
89
86
86
89
89
93
89
80
84
91
91
91
89
86
86
93
100
100
95
100
105
112
117
122
120
120
117
115
120
115
112
115
117
117
125
132
134
125
122
120
120
125
122
125
127
122
120
115
110
110
107
110
115
117
112
107
103
125
125
117
110
107
110
105
103
103
103
95
93
93
86
86
89
95
91
89
86
89
89
91
95
98
98
95
98
100
107
115
117
120
120
117
120
117
110
110
117
117
122
132
132
125
122
117
122
125
129
127
127
122
120
115
112
115
112
112
115
115
112
112
103
127
127
122
117
112
112
107
105
107
110
105
100
95
91
95
98
100
100
100
93
93
91
91
91
91
89
91
91
93
100
105
107
110
115
115
122
120
112
112
117
120
125
132
134
129
122
115
120
127
132
132
127
127
127
125
122
117
112
112
115
117
115
112
107
127
125
122
120
117
115
112
107
110
110
110
110
105
105
110
115
112
107
105
103
93
89
86
89
80
82
89
89
91
95
98
98
105
112
115
122
120
112
112
115
120
125
129
134
129
125
120
120
129
132
129
127
127
127
127
122
120
117
115
117
115
110
107
107
129
129
127
125
122
120
112
105
107
112
115
117
117
115
112
115
117
115
115
110
100
93
89
89
80
84
91
91
91
95
95
93
100
105
112
117
115
115
110
115
125
127
132
134
129
125
122
122
127
134
129
127
129
122
122
120
120
117
117
120
120
115
110
107
127
132
134
129
127
125
120
110
105
112
115
122
122
117
112
105
103
107
117
120
110
100
93
91
89
86
93
91
91
93
93
95
100
105
103
107
110
112
112
115
120
127
134
132
127
127
125
122
125
132
129
132
132
125
122
127
125
117
120
120
117
117
115
110
122
125
132
132
127
125
125
117
110
110
112
120
122
120
115
105
103
103
112
120
117
112
105
98
95
95
93
93
98
98
93
93
98
95
98
100
98
103
110
115
122
125
129
122
117
120
120
122
125
127
132
132
129
129
125
127
125
122
122
120
120
117
112
115
122
122
125
127
127
125
125
122
115
110
110
115
120
120
115
107
100
100
107
115
122
122
120
115
110
103
95
95
95
93
98
95
93
89
89
89
89
98
107
115
120
125
125
117
117
125
127
129
129
129
129
129
132
132
132
125
125
122
122
125
127
122
112
120
125
122
122
125
127
129
127
122
117
112
112
115
117
120
112
107
105
105
107
115
120
122
122
125
122
117
107
98
91
89
93
91
93
86
84
82
89
95
103
107
117
127
129
127
127
129
132
137
139
137
132
129
132
132
125
120
122
122
127
129
132
125
115
120
125
125
125
127
127
129
127
125
117
112
112
112
117
120
115
110
107
107
112
112
117
122
125
125
122
125
120
110
100
95
93
93
93
89
86
89
89
93
100
103
107
122
134
139
139
134
137
137
139
139
134
129
132
129
127
122
122
127
129
132
129
127
122
122
127
129
129
132
132
127
127
127
120
117
117
115
117
122
117
112
112
112
115
115
117
120
125
120
127
129
127
122
112
110
107
100
95
89
84
86
84
89
95
98
105
112
125
134
134
132
134
134
132
134
132
129
132
132
132
132
127
127
132
134
132
132
127
125
132
129
129
134
134
127
127
129
122
120
117
117
120
125
115
117
122
122
125
125
120
120
122
122
125
132
132
127
122
117
115
107
95
91
84
84
80
84
93
93
100
105
110
122
129
132
134
134
132
132
127
129
132
129
132
134
129
129
132
134
134
132
127
125
129
129
129
132
134
127
127
127
125
117
112
112
110
110
107
107
110
112
115
115
112
112
110
112
115
120
120
122
122
120
115
107
98
93
86
84
82
84
86
91
98
98
100
110
117
127
132
139
137
134
132
134
134
129
127
129
129
132
134
129
132
137
129
127
132
134
134
137
134
127
122
120
120
115
110
105
98
93
91
91
91
91
89
86
86
89
91
93
95
95
100
105
107
110
110
107
103
98
91
82
80
82
86
93
98
100
100
105
112
120
127
137
142
139
137
137
137
132
127
132
134
132
132
134
137
139
132
122
129
132
134
132
127
120
115
110
107
105
95
86
78
74
72
72
74
76
76
76
74
74
76
78
80
84
89
95
98
98
100
103
100
100
98
86
80
80
86
95
98
103
105
110
107
115
120
127
134
137
137
134
134
132
129
134
132
134
139
142
144
139
125
107
134
134
129
122
115
107
103
98
95
86
78
68
64
62
62
66
66
68
68
66
72
70
70
72
76
80
84
93
93
91
95
98
100
105
103
98
89
82
84
86
89
95
105
103
103
107
110
117
127
132
137
137
132
132
129
132
129
137
142
142
137
127
107
93
134
122
115
103
95
91
86
84
80
78
66
58
58
62
62
62
60
60
62
62
68
64
66
70
72
76
82
93
95
93
95
95
100
107
107
103
95
89
86
82
82
84
93
98
100
105
103
107
120
129
134
134
134
134
129
132
137
134
134
129
125
107
91
84
117
105
95
86
80
78
78
78
76
66
62
58
57
57
62
62
62
62
62
66
68
62
62
68
72
76
86
93
98
95
95
98
107
115
117
103
95
91
93
84
80
80
84
89
93
98
100
105
112
122
132
134
132
132
132
134
134
129
122
115
100
89
84
84
105
93
84
80
80
76
70
68
68
60
62
58
55
53
57
62
64
64
64
64
66
64
66
72
80
84
89
91
100
100
100
107
117
125
122
112
98
98
95
89
80
78
80
84
86
91
95
100
105
112
122
127
125
125
125
125
122
115
105
98
86
82
84
82
91
82
82
80
74
72
66
64
64
58
62
58
55
55
60
66
68
68
68
66
68
68
72
80
86
91
93
98
103
107
107
115
127
129
120
112
107
105
100
91
86
82
82
82
82
82
86
89
93
100
112
120
122
120
120
115
107
103
95
86
80
82
80
82
80
78
78
74
68
68
68
66
64
64
64
60
58
62
66
74
76
78
76
70
72
76
82
91
103
103
107
107
110
112
115
120
125
122
115
112
112
110
100
91
89
86
82
76
72
72
76
80
86
91
103
110
115
112
105
100
95
93
89
78
80
84
82
80
70
70
72
72
66
64
66
64
66
68
68
68
68
68
74
76
78
84
86
84
84
91
98
100
105
112
115
110
110
115
122
122
122
117
112
112
115
110
107
98
93
89
84
76
70
72
74
76
80
82
93
103
105
100
93
91
91
91
86
78
78
78
74
78
68
64
66
68
66
64
68
68
70
74
78
84
86
86
86
89
91
93
93
95
98
100
100
98
103
112
115
107
110
117
127
122
120
110
107
110
115
117
115
103
98
91
86
80
76
78
74
76
74
76
82
91
93
89
84
84
84
86
91
84
80
78
76
78
66
64
66
66
68
72
76
78
82
89
98
105
110
110
107
105
105
112
107
103
105
110
110
107
107
110
112
107
110
120
122
120
120
112
115
117
120
117
115
107
100
98
95
91
86
82
76
74
74
76
78
84
86
80
76
80
82
82
89
89
82
82
82
84
62
68
70
70
74
80
84
91
103
110
120
122
115
110
110
110
110
115
107
100
103
112
115
112
110
112
110
110
110
112
112
115
115
115
122
120
117
117
117
112
115
112
107
103
95
86
80
78
76
76
74
74
80
80
80
78
78
82
84
86
86
89
91
89
64
68
70
72
80
91
105
115
122
129
129
120
115
107
105
107
107
110
107
105
110
112
110
110
112
110
107
110
110
110
112
112
110
110
115
115
115
117
115
110
117
117
112
112
105
95
86
82
78
76
72
70
78
84
86
84
84
86
84
80
86
91
91
86
64
70
72
80
95
115
125
129
134
132
125
120
115
107
105
105
107
117
117
117
117
115
115
112
110
110
112
117
117
115
115
112
115
112
115
117
115
112
110
103
110
117
112
117
115
105
93
84
76
74
76
78
84
89
93
91
86
86
84
84
91
93
93
93
70
74
78
93
120
132
134
137
139
139
129
125
115
105
107
107
115
120
120
122
122
120
115
120
122
120
117
117
120
117
120
122
120
117
117
120
117
112
110
107
112
117
120
122
120
115
105
93
84
82
84
86
91
86
86
86
86
89
86
89
93
91
93
95
74
76
91
120
134
137
139
139
139
139
137
129
117
110
110
112
112
120
127
125
125
122
117
122
125
120
115
115
117
117
122
125
125
120
120
120
120
115
117
115
112
115
117
120
125
120
115
103
98
93
91
89
89
89
86
89
95
100
98
93
95
98
103
105
76
89
115
134
139
142
142
142
142
134
132
129
117
112
110
110
112
117
127
129
127
122
120
125
127
120
115
117
120
117
125
127
125
125
125
122
125
122
122
120
115
117
117
120
125
125
120
112
105
103
98
95
91
86
91
95
107
115
115
112
112
115
115
115
82
107
129
137
137
139
142
144
137
132
129
127
122
115
107
103
112
117
122
129
129
122
120
125
125
122
122
122
120
122
125
125
125
129
129
125
125
125
125
122
117
117
122
120
120
120
122
117
107
103
98
95
93
91
95
103
115
127
129
129
129
129
127
122
95
122
137
137
132
137
142
139
137
132
132
129
122
117
110
105
107
115
120
125
125
122
120
125
127
127
125
120
120
125
125
122
127
132
129
127
125
125
125
127
120
120
125
125
122
127
129
125
115
103
100
95
93
93
95
103
117
127
134
142
139
137
129
127
110
127
134
134
134
142
144
139
139
137
132
127
125
117
112
107
107
115
122
122
125
120
120
122
125
127
129
122
122
122
117
122
127
132
127
125
127
127
127
125
122
120
122
122
122
125
129
129
127
112
105
98
93
86
89
100
110
120
129
137
139
139
132
129
127
127
129
134
132
134
137
137
137
134
129
127
129
120
112
110
110
115
122
125
125
120
120
125
125
129
127
122
122
120
117
117
127
134
127
122
129
132
125
122
122
120
120
122
122
125
125
129
132
120
110
98
91
86
86
93
105
112
122
134
137
142
137
134
137
137
134
134
129
129
134
137
132
129
127
129
132
120
110
107
110
112
122
125
125
125
125
125
122
125
125
122
122
120
115
115
120
129
127
127
132
134
127
122
125
120
117
120
125
127
127
129
129
125
112
100
93
91
86
89
98
107
117
132
139
142
139
137
142
142
139
132
129
132
132
134
127
129
129
127
129
117
107
107
112
115
120
120
120
125
125
122
120
125
125
127
127
122
117
120
125
125
125
125
127
132
129
129
129
122
117
122
122
127
132
137
127
122
117
105
95
91
91
89
95
103
115
129
134
137
137
137
139
144
142
132
127
129
129
132
132
129
129
127
122
115
110
112
112
115
120
120
117
122
122
117
117
122
125
132
132
125
120
122
125
120
120
120
120
127
127
127
129
127
122
125
125
125
132
132
129
127
122
110
100
95
95
91
93
100
115
127
129
129
132
134
134
137
142
134
127
127
125
127
129
127
125
122
117
115
112
115
115
115
120
117
120
127
125
117
117
122
129
134
129
127
122
120
122
120
120
117
115
122
125
122
127
125
125
125
127
129
127
134
137
132
125
112
105
95
91
91
93
100
112
122
127
127
127
129
132
134
134
132
129
127
125
125
125
125
125
122
117
115
110
112
115
120
122
122
125
127
125
117
120
125
132
134
129
127
122
122
122
120
125
125
117
120
117
115
122
125
129
132
137
134
127
132
137
137
127
115
107
98
91
91
93
100
107
122
129
134
127
122
134
134
134
134
132
127
127
127
122
117
117
122
122
115
110
110
117
117
122
125
122
125
125
117
122
127
134
132
127
125
122
120
120
117
125
122
120
115
115
115
117
127
137
137
139
132
127
129
134
142
134
117
107
95
91
89
89
95
105
120
129
132
127
117
137
134
137
139
134
129
129
127
120
112
112
115
117
110
112
112
117
117
120
125
122
125
122
120
125
127
127
129
125
117
120
120
117
120
122
117
120
115
117
120
125
134
137
137
137
132
127
125
129
137
134
120
107
98
89
86
84
93
107
120
127
129
125
115
134
134
142
137
132
127
134
129
122
115
110
112
107
105
110
112
115
115
120
120
120
125
120
115
122
125
125
127
125
120
117
115
117
120
120
120
117
120
125
127
129
139
139
139
134
132
132
132
134
134
134
122
107
100
89
86
86
95
105
117
127
129
127
120
132
134
139
134
129
127
134
132
125
120
112
110
103
105
110
117
120
122
122
122
117
120
120
120
125
125
122
120
122
122
122
120
122
122
122
122
120
122
125
125
129
139
144
142
134
137
139
137
134
132
134
122
107
100
93
89
86
93
100
115
127
132
129
127
129
132
137
134
129
125
129
129
125
122
115
110
103
107
112
117
120
125
122
120
122
117
115
120
125
122
120
115
120
122
125
127
125
129
125
125
129
127
125
127
129
142
149
144
137
137
129
125
127
129
132
125
107
103
98
86
84
91
100
115
120
120
122
122
127
129
134
134
129
125
129
127
122
117
115
112
110
115
112
112
117
125
120
117
122
125
120
117
117
117
117
117
120
120
120
127
125
132
129
127
129
129
125
129
132
142
144
142
134
137
134
129
125
129
132
122
107
103
98
86
80
89
103
112
117
117
117
115
127
132
129
132
127
122
125
120
115
110
110
112
112
117
115
112
115
122
120
117
120
125
120
115
117
115
110
115
120
115
115
117
120
125
127
127
134
134
127
129
137
142
142
139
137
139
134
134
134
132
132
120
105
98
95
86
82
86
100
110
115
112
112
110
129
127
127
129
125
120
122
120
115
110
105
110
115
117
117
117
115
117
115
115
122
125
117
112
117
117
110
115
117
117
112
117
120
122
125
129
129
134
134
137
139
139
137
134
139
139
134
137
142
134
127
117
103
95
91
89
86
91
100
107
110
107
105
107
