P2
# 240 of 608 Angiograms
64 64
255
86
91
91
98
100
105
112
117
125
129
134
134
132
134
134
134
137
132
129
134
132
129
129
132
137
137
134
132
134
132
129
129
129
132
125
127
129
125
125
122
125
125
122
115
112
112
120
117
120
115
107
107
110
115
117
115
110
107
105
107
110
110
107
110
89
91
84
89
93
95
98
105
110
120
132
134
129
134
139
137
137
132
129
129
129
127
132
134
134
134
129
127
129
132
129
127
125
129
125
122
120
120
122
120
120
122
122
120
115
115
122
122
117
115
110
110
110
110
115
115
110
105
105
115
112
112
110
105
86
89
89
91
95
95
93
95
98
105
115
127
129
129
132
134
134
132
127
129
129
125
129
129
132
129
129
127
125
125
127
129
129
132
125
120
117
120
122
122
122
120
120
115
120
122
122
125
122
120
115
112
107
110
112
117
115
107
107
112
117
112
110
103
84
91
86
93
95
91
93
93
93
98
103
112
120
122
125
125
132
129
127
129
132
129
125
127
134
132
129
125
125
127
125
127
129
127
127
122
120
120
120
122
125
117
115
115
120
125
125
125
129
127
120
112
105
105
112
122
115
112
105
110
115
112
107
98
84
89
84
91
95
91
89
86
86
93
98
103
107
112
117
120
125
132
132
134
137
134
129
129
132
129
127
125
129
129
129
127
122
125
127
125
117
115
120
120
117
117
117
120
122
125
125
125
132
129
122
117
107
105
112
122
120
112
110
110
112
112
105
100
84
89
86
89
89
86
84
84
82
91
98
98
98
105
112
112
117
125
129
134
139
134
129
129
129
129
127
129
129
127
127
127
122
122
129
127
117
112
117
117
120
125
127
127
127
127
122
125
127
125
120
122
115
107
112
120
117
112
107
105
112
110
105
100
95
93
89
86
86
86
84
82
86
93
98
91
89
95
103
112
110
112
120
122
127
127
129
132
134
129
127
125
117
117
122
125
122
122
127
127
120
117
122
122
122
125
125
122
122
125
120
120
120
120
122
125
122
112
112
117
117
115
112
110
110
107
105
95
95
95
98
98
95
93
91
91
91
93
93
91
91
91
95
100
105
105
110
110
112
115
120
125
129
127
125
117
112
115
120
127
127
127
125
122
120
117
122
127
125
120
120
115
115
122
120
120
122
120
122
125
125
117
112
112
112
115
112
112
107
110
105
98
98
103
103
100
103
100
95
93
91
91
93
95
95
93
95
103
100
98
98
100
105
105
105
107
115
122
122
117
115
112
115
120
125
127
122
117
117
117
122
127
125
120
120
115
115
122
120
122
125
120
120
122
120
115
115
110
110
105
107
107
107
110
107
100
103
107
105
105
107
105
103
95
91
91
95
100
103
103
100
103
100
100
95
93
95
98
100
103
105
110
117
115
115
115
112
115
120
122
120
120
122
122
117
122
122
122
120
117
120
125
120
122
125
127
122
120
115
110
105
107
107
103
105
105
107
107
105
100
98
100
110
115
112
105
103
98
95
93
98
103
105
105
105
107
105
105
98
93
95
95
95
95
95
100
105
112
115
112
115
115
120
122
122
125
125
122
120
122
127
129
120
120
125
125
120
117
120
120
120
117
115
110
107
107
110
110
110
110
107
107
105
98
98
98
110
117
117
110
103
93
91
93
98
105
110
115
115
112
110
107
98
98
100
98
93
91
89
93
95
93
100
107
112
120
125
129
125
120
117
112
120
122
129
129
122
125
127
125
122
115
112
110
110
112
115
115
115
117
117
115
112
112
107
107
105
98
98
100
112
120
122
115
107
98
93
98
105
107
117
120
117
120
117
110
100
98
95
89
91
89
89
93
89
86
93
100
105
117
129
132
129
125
120
112
115
120
120
122
127
129
127
125
122
117
112
110
107
110
115
112
112
117
117
117
112
115
112
110
105
100
100
105
110
120
125
120
115
107
103
105
105
110
120
122
127
129
127
122
112
103
98
93
91
89
89
93
89
93
95
98
98
107
125
129
129
129
125
120
115
117
117
125
125
129
127
125
125
117
117
120
115
110
112
112
107
115
115
110
110
112
112
110
107
100
105
105
107
117
122
122
120
117
110
107
105
110
120
127
132
132
134
129
125
120
110
100
95
91
93
91
91
95
91
89
89
98
112
125
127
127
125
122
125
122
122
129
125
129
125
122
125
117
117
122
115
107
107
105
105
112
112
107
110
112
110
105
103
100
110
107
107
112
115
117
117
122
125
117
115
117
122
127
127
127
127
129
129
125
122
115
105
100
95
93
91
91
89
82
86
93
100
112
122
120
122
125
125
125
125
127
125
127
125
122
122
117
112
115
115
107
105
105
112
115
110
107
107
110
107
103
100
100
110
117
110
105
107
112
112
122
129
127
117
120
120
117
117
117
120
120
120
122
127
125
117
107
100
95
93
91
86
82
86
91
95
100
112
117
120
120
120
125
122
125
129
129
127
122
122
117
112
112
115
115
110
112
112
117
115
110
105
105
105
107
103
95
112
115
112
105
107
107
115
120
122
120
117
115
107
110
117
122
120
115
120
125
125
125
125
120
105
98
91
84
84
86
86
91
93
95
100
112
115
112
115
120
127
129
129
129
127
125
120
115
115
115
117
117
115
112
112
117
117
110
110
112
115
110
103
91
115
112
110
107
105
107
115
117
115
107
105
105
103
115
125
125
125
127
129
125
122
125
127
127
120
105
98
91
89
91
93
91
91
93
95
103
107
107
112
122
129
132
132
129
129
127
122
117
117
115
117
122
122
120
120
120
117
112
117
120
112
107
105
98
117
115
112
107
107
105
110
112
105
98
98
100
110
122
127
129
132
134
134
129
122
125
129
129
127
115
105
98
93
93
91
91
93
89
93
98
98
103
107
120
129
134
132
129
132
129
127
127
125
122
122
125
127
125
122
117
117
120
120
117
115
110
110
105
120
120
117
112
112
107
107
110
107
100
103
110
117
127
122
125
132
134
134
132
127
122
127
129
129
120
110
105
100
95
95
95
93
91
93
95
98
95
103
115
125
134
132
132
132
134
129
129
129
129
129
129
129
129
125
125
127
125
122
117
117
117
115
110
125
125
125
117
110
105
103
105
110
107
115
117
122
129
129
129
132
134
139
132
127
125
125
125
125
122
112
107
107
105
105
103
95
89
93
93
95
93
95
107
120
127
134
139
137
134
132
132
132
129
132
129
127
129
132
132
129
125
125
120
120
122
120
115
122
120
117
120
115
107
103
105
110
112
120
122
127
132
132
134
134
139
139
132
127
125
122
125
125
120
115
112
112
115
115
110
103
93
95
95
91
93
95
100
110
125
132
137
134
134
132
125
120
125
127
129
129
134
137
137
129
122
120
120
120
122
120
115
120
117
120
120
120
115
112
112
110
115
122
122
127
129
129
132
132
134
134
134
129
127
125
122
120
115
115
120
122
122
122
115
107
100
95
93
95
93
93
98
103
117
129
134
137
137
132
129
125
127
132
132
134
139
139
137
132
129
122
122
125
122
117
117
125
122
125
125
122
120
117
112
110
112
117
122
125
125
122
127
132
132
137
137
134
129
127
125
115
110
117
120
127
129
129
127
117
105
91
89
98
93
91
93
100
110
125
134
137
134
132
134
132
132
134
137
139
139
137
134
132
129
129
127
129
125
115
115
127
127
129
127
127
120
117
115
112
110
117
122
127
127
122
127
132
132
132
139
137
134
127
122
115
112
115
125
132
134
132
129
127
115
98
95
98
98
91
91
100
105
115
129
134
134
134
137
137
137
139
142
142
139
139
137
134
127
127
129
132
127
120
115
132
134
137
129
122
117
117
122
117
112
115
122
125
127
125
127
129
132
132
134
137
134
122
117
115
115
120
127
132
132
132
132
132
120
107
100
100
93
86
91
95
103
107
122
132
137
132
132
137
139
144
142
142
142
142
139
137
132
129
132
129
127
122
115
134
134
137
137
125
120
122
127
122
115
117
117
120
125
122
122
127
129
132
134
134
129
122
117
120
125
127
129
127
125
127
132
132
122
115
110
105
95
86
86
93
98
105
112
125
129
129
129
134
142
147
142
137
142
144
142
137
134
132
132
129
125
122
117
132
134
139
137
132
127
129
127
120
117
122
122
122
125
122
125
129
132
134
134
132
120
117
122
122
122
127
129
127
129
134
134
132
125
120
117
112
100
91
89
93
98
105
110
117
125
132
132
134
142
142
139
132
139
142
139
134
137
134
132
134
132
127
122
132
134
137
137
134
132
132
129
122
120
125
129
129
127
125
129
132
134
134
132
125
120
120
117
117
122
125
127
127
129
134
139
137
127
122
117
112
103
93
89
86
89
103
110
112
122
132
132
137
139
144
139
134
134
134
132
134
137
134
134
134
132
125
115
134
134
139
137
134
132
134
134
127
125
127
129
129
127
127
129
129
132
129
127
125
122
120
117
117
122
122
127
127
132
134
137
134
127
120
117
110
103
93
91
89
84
93
105
110
115
127
134
139
142
144
142
139
134
134
132
134
134
134
134
129
122
112
100
137
137
144
142
134
129
129
134
134
129
122
120
122
122
120
120
120
117
112
110
107
105
103
105
105
110
115
120
122
125
125
125
125
120
117
115
110
103
89
91
91
86
91
98
105
112
120
132
139
139
142
142
137
137
137
132
127
125
125
120
115
107
98
89
132
137
142
139
134
127
127
127
127
120
112
110
112
115
112
112
110
105
100
95
89
84
84
86
89
91
93
95
98
100
103
103
103
100
100
103
105
103
93
91
91
86
84
89
98
107
115
127
132
137
137
137
134
134
129
122
117
115
112
110
103
95
91
84
129
132
139
137
134
129
129
125
117
107
100
91
89
89
91
91
91
89
84
78
74
72
74
76
74
74
74
78
80
84
86
86
84
86
89
93
103
105
100
93
93
89
86
89
89
100
110
117
125
127
129
129
127
125
120
117
115
115
110
103
95
95
91
80
127
132
137
134
132
127
125
115
100
91
84
76
74
72
74
74
72
72
70
68
62
60
64
68
70
70
64
70
74
78
82
84
82
84
91
91
103
107
107
100
95
89
86
84
84
91
100
110
115
120
125
125
120
120
120
120
115
110
100
95
95
98
91
84
132
132
132
129
122
115
107
95
89
80
74
70
64
62
64
66
64
68
64
66
60
58
58
66
72
72
68
70
74
78
84
84
84
89
89
91
100
107
112
105
98
95
89
89
89
89
93
100
105
107
110
110
110
112
112
110
107
100
91
91
95
95
91
89
137
132
127
115
107
98
91
86
78
72
68
60
58
58
58
64
64
68
64
64
62
60
58
58
68
70
70
72
72
78
86
89
86
95
95
95
100
110
115
110
103
95
95
93
93
86
89
93
98
100
98
98
100
103
107
105
105
98
91
93
95
93
91
93
132
122
110
98
93
86
82
76
72
68
58
53
55
55
58
66
66
68
64
64
66
64
57
55
62
66
66
70
74
78
84
91
91
95
98
103
105
110
120
115
107
100
98
98
91
86
84
91
95
93
93
98
100
105
105
103
103
98
95
93
93
95
91
89
115
103
93
86
80
76
74
72
68
58
55
55
57
55
60
66
64
68
68
70
70
68
62
58
66
68
70
76
82
84
89
98
105
107
105
103
103
107
115
115
110
103
100
95
89
84
82
84
93
95
93
95
98
98
103
105
103
98
98
95
98
98
95
93
93
84
80
78
74
70
70
66
62
60
62
60
58
57
62
64
68
72
74
74
74
76
72
72
76
78
84
89
89
93
105
115
120
115
112
107
105
103
105
110
110
105
103
93
91
91
86
82
86
98
98
98
98
98
103
105
100
93
93
95
98
100
100
103
74
72
72
72
66
64
66
66
64
66
66
60
58
60
64
70
76
80
86
91
91
89
86
86
91
95
98
98
100
107
115
117
122
117
112
112
110
105
107
112
117
112
107
95
95
98
95
91
93
100
103
103
103
100
98
98
95
89
91
91
91
98
100
103
66
64
64
64
58
62
66
68
66
66
64
62
64
68
72
78
89
98
105
107
105
105
103
105
110
115
115
115
112
112
115
117
122
120
117
115
110
107
110
112
117
112
107
100
98
100
100
95
95
100
107
107
107
103
98
98
98
95
95
95
95
98
103
105
62
62
62
62
62
64
66
66
68
70
68
70
72
74
80
91
103
112
117
117
115
117
117
117
120
122
122
120
117
115
117
120
122
120
120
117
115
112
112
115
112
110
110
110
110
107
105
98
93
95
107
112
115
110
107
110
110
112
112
112
115
115
112
112
60
62
62
64
64
66
70
72
76
78
78
78
80
84
93
103
112
112
120
120
117
120
117
120
117
120
125
125
122
122
122
125
122
120
115
112
117
120
115
112
112
112
115
115
107
103
105
103
93
95
103
112
117
115
120
125
127
129
129
129
127
122
120
120
58
62
62
64
64
70
78
82
86
95
98
98
98
98
103
110
112
112
115
122
120
117
115
112
115
112
117
125
125
127
122
125
125
122
120
117
120
122
120
115
115
112
110
115
107
103
103
100
95
95
98
110
122
122
129
134
132
137
137
132
127
122
122
125
55
60
62
66
66
76
84
95
107
115
115
110
105
107
107
115
120
120
120
125
127
127
125
122
120
117
117
122
127
127
127
125
129
125
122
120
122
122
117
115
112
110
112
112
107
105
103
103
98
93
93
107
120
127
137
137
134
137
139
132
127
125
125
127
57
58
68
66
70
82
93
105
120
129
125
117
117
112
107
110
120
125
122
129
129
129
129
127
122
122
122
122
125
127
127
129
129
125
122
117
120
120
115
115
120
125
122
117
110
105
100
103
100
100
98
105
120
132
139
139
134
137
142
132
127
125
125
125
60
62
64
68
76
89
105
120
129
132
127
125
122
115
105
107
115
122
125
132
134
129
129
125
122
122
122
122
125
129
127
127
132
129
125
120
117
117
115
117
122
127
134
122
112
103
100
103
100
98
100
107
122
132
137
134
129
134
137
134
127
125
125
127
60
64
70
74
84
100
120
132
139
134
129
129
125
117
110
107
112
117
125
132
134
127
125
125
125
127
125
120
122
125
125
125
129
129
125
120
122
122
120
120
122
125
129
125
110
107
100
98
93
93
103
110
117
122
125
125
129
127
132
134
129
129
132
129
66
72
76
84
100
122
132
139
142
134
127
125
122
120
117
115
112
117
127
132
132
125
122
125
129
129
127
125
127
125
122
122
125
129
127
125
125
125
122
120
117
120
125
122
112
105
100
95
91
93
103
107
110
115
120
120
120
117
125
132
134
134
134
134
80
82
91
105
125
132
137
137
132
127
125
117
117
115
115
115
110
117
129
134
132
127
127
129
132
132
127
127
129
125
122
122
122
129
125
122
125
127
122
120
117
122
122
120
112
110
98
95
95
98
103
105
107
115
120
117
120
122
122
129
134
137
134
134
103
105
117
129
137
139
137
134
129
127
122
120
112
110
110
107
112
120
132
132
132
129
129
132
132
127
127
125
127
127
120
120
120
127
122
122
125
127
127
125
125
122
120
117
115
110
98
93
95
98
100
103
110
117
122
122
125
125
122
127
134
132
129
129
125
129
134
139
144
144
139
137
129
122
120
122
120
112
112
110
112
120
132
127
127
129
129
132
129
129
129
122
122
127
125
115
117
120
122
127
129
127
127
129
127
122
125
117
110
103
100
98
95
103
100
105
112
120
122
127
132
127
122
125
132
134
134
129
134
137
139
147
144
137
139
139
129
122
115
115
115
110
110
107
112
115
125
129
129
127
127
132
127
129
125
122
125
125
127
120
120
125
127
127
129
129
127
127
127
129
129
125
115
105
98
95
91
98
100
105
110
120
125
129
132
129
120
120
129
137
137
132
137
139
147
147
139
134
139
142
132
122
112
112
115
112
110
110
115
120
125
127
127
125
125
127
125
125
122
125
125
125
125
122
127
134
134
127
127
127
127
122
125
132
129
125
120
110
98
93
91
91
100
103
107
115
125
127
127
129
120
117
125
132
137
134
142
142
144
142
137
134
139
142
134
122
115
115
115
110
107
115
115
120
125
125
125
125
125
127
129
122
122
125
127
125
125
125
129
132
129
125
122
125
125
120
120
125
127
127
122
112
100
95
98
91
95
103
107
115
117
120
120
125
122
115
125
129
134
139
142
142
137
134
137
137
137
142
139
129
122
120
112
105
105
112
112
120
125
127
125
122
125
127
129
125
127
125
125
125
127
129
129
127
122
122
122
125
122
120
120
125
132
132
125
117
107
100
100
93
93
103
112
115
110
117
120
120
122
122
127
129
132
134
139
139
139
137
139
139
139
139
137
134
127
120
112
105
103
110
115
122
125
122
122
122
125
127
127
129
129
125
125
125
127
127
125
122
122
122
125
129
127
125
122
127
132
134
127
120
107
103
100
98
100
105
115
117
110
110
110
115
120
127
127
125
127
132
139
139
142
142
139
137
139
137
134
129
120
120
115
107
105
112
117
125
125
125
122
127
132
129
129
127
127
122
125
127
125
127
125
120
125
125
127
129
129
127
122
127
132
134
127
122
107
103
103
103
103
107
115
120
115
110
107
112
117
125
122
120
122
125
139
139
144
142
139
137
134
132
134
129
122
120
117
110
112
120
120
122
125
129
125
125
127
127
132
127
125
120
125
127
125
129
125
125
125
125
122
125
132
127
127
132
139
137
125
117
107
103
103
103
105
112
120
120
117
115
112
110
115
115
117
120
122
120
142
139
144
142
142
139
134
129
127
122
122
120
115
110
117
122
117
122
125
127
125
125
125
127
129
127
125
117
125
127
125
127
125
127
125
125
127
129
132
129
132
134
139
137
122
115
105
103
100
98
107
115
120
125
122
122
120
112
112
115
115
115
112
115
137
139
142
139
139
139
134
125
122
120
120
115
110
110
117
122
127
129
125
122
125
127
125
125
125
122
122
120
120
125
125
127
125
125
129
129
129
129
132
132
132
137
139
139
125
112
107
100
93
93
105
115
120
127
127
127
122
117
115
115
110
110
112
107
134
134
137
139
137
137
134
132
129
125
120
107
110
107
115
127
132
129
125
122
122
120
120
120
120
117
120
117
115
120
127
127
125
127
129
127
125
127
127
132
132
139
139
139
127
115
107
103
98
98
107
115
122
129
132
129
122
120
125
115
110
112
110
105
137
137
137
134
132
132
134
134
132
125
117
110
107
110
115
125
127
125
125
125
125
120
117
120
120
117
115
117
122
125
129
127
127
127
129
129
132
132
132
134
134
142
139
137
129
120
115
107
105
105
107
117
125
132
132
125
122
120
122
125
115
112
107
105
