P2
# 241 of 608 Angiograms
64 64
255
147
151
154
151
151
149
149
154
159
156
156
154
151
149
147
147
149
151
154
154
151
151
151
149
147
149
147
139
142
142
142
139
132
132
132
129
125
127
129
129
129
129
132
132
127
127
129
134
137
132
122
115
105
98
95
100
112
120
125
127
132
132
132
132
154
151
151
151
151
151
147
151
159
159
156
151
154
154
149
147
149
154
151
147
144
144
149
147
142
142
142
142
142
139
142
142
134
134
134
132
129
127
129
134
134
132
134
134
132
129
129
132
137
134
125
112
100
91
93
95
107
120
127
129
129
132
132
134
149
147
151
154
151
149
147
147
151
154
154
154
154
154
151
149
149
151
147
144
142
139
142
142
137
137
137
137
137
137
139
137
137
134
134
134
132
127
132
134
137
137
137
132
129
132
129
129
134
134
125
112
98
89
89
89
100
117
125
129
127
129
132
134
147
149
154
156
154
151
149
147
147
149
151
156
156
156
151
151
151
149
144
144
139
139
142
142
137
134
134
137
139
139
139
137
137
137
137
134
132
129
127
134
139
134
129
129
129
129
129
129
132
134
125
112
100
91
91
93
95
117
125
129
129
129
127
127
151
154
156
156
154
154
154
149
149
154
151
154
156
156
151
151
151
149
142
139
139
137
134
137
139
137
134
134
137
139
142
137
139
139
139
137
134
132
127
134
137
132
127
129
132
129
129
132
132
134
125
115
103
93
95
98
98
115
127
134
132
129
127
125
151
154
154
154
151
151
151
149
151
156
154
149
151
151
154
147
147
149
144
139
137
132
134
132
137
142
137
129
132
134
137
139
139
139
139
132
132
129
125
129
134
134
132
132
129
127
125
125
129
129
125
112
103
98
95
98
103
117
129
137
137
139
137
129
154
154
154
156
151
149
151
151
154
159
156
151
151
151
154
151
149
147
147
139
134
132
129
127
137
142
137
134
132
132
134
139
139
137
137
132
132
129
125
129
134
134
132
132
132
127
120
115
120
125
120
112
103
98
93
98
103
120
132
134
137
142
137
129
154
154
156
161
154
151
151
151
156
161
156
154
154
151
154
151
144
144
144
142
139
137
132
132
137
139
137
139
134
132
137
139
137
134
137
132
132
129
127
129
134
132
129
132
129
125
120
112
112
117
115
107
100
95
95
98
105
122
132
132
134
134
132
127
151
154
156
156
151
149
149
151
154
159
159
154
154
154
151
149
147
144
144
142
139
137
132
132
134
137
142
139
132
129
137
139
137
139
137
129
129
134
132
132
132
129
129
129
125
125
122
117
120
115
112
103
95
93
93
98
107
122
134
134
132
134
134
129
149
151
151
151
149
144
147
149
151
151
149
147
147
147
147
147
147
144
142
139
137
134
127
127
129
134
137
134
127
132
137
139
139
139
134
129
132
134
134
132
132
132
129
127
125
117
115
115
112
110
103
95
91
89
91
98
110
125
134
134
134
132
129
127
151
149
151
151
149
142
144
147
147
147
144
144
142
142
144
142
142
137
134
134
137
132
127
125
125
125
127
127
127
134
139
144
139
134
134
132
134
134
132
132
132
132
127
122
115
107
103
100
100
98
93
91
93
89
95
105
112
120
129
129
132
129
125
125
151
154
149
151
151
147
144
147
147
147
144
142
144
144
142
144
144
137
137
134
132
129
129
129
127
125
122
127
127
132
142
144
139
132
132
134
139
134
137
137
132
125
120
110
100
93
91
89
91
93
91
95
98
98
105
112
112
115
122
127
127
127
129
125
149
151
149
149
149
147
144
147
144
144
144
144
144
144
147
144
144
144
142
134
132
132
132
134
127
125
125
127
129
132
139
142
139
134
134
134
134
134
134
132
122
115
110
98
91
86
86
91
93
95
100
103
105
105
112
117
117
115
117
122
122
127
129
125
144
147
144
149
151
149
144
144
147
149
147
144
142
142
142
139
142
144
142
139
137
137
134
132
125
125
127
127
129
137
137
137
137
139
139
137
134
132
129
122
115
107
95
89
86
89
95
105
112
112
110
112
110
107
107
110
112
110
107
107
110
115
117
117
139
142
147
151
154
154
154
149
151
154
147
139
134
142
139
134
134
134
134
137
139
142
137
134
125
122
129
129
137
137
134
129
129
129
129
129
127
122
117
112
105
98
89
89
91
100
110
115
112
112
112
115
110
105
103
103
103
103
103
100
100
103
103
100
134
137
142
147
149
154
156
154
154
149
144
137
134
139
134
132
132
129
127
132
132
134
134
134
127
122
129
132
132
129
125
122
120
117
115
115
115
112
107
100
98
91
91
91
100
107
112
115
115
110
107
103
98
93
91
91
91
91
93
91
91
93
93
93
142
139
139
142
147
151
151
149
149
147
144
139
139
137
137
134
134
132
129
129
127
129
134
134
129
127
129
129
127
120
122
117
120
117
112
107
105
103
95
91
91
89
91
98
103
105
105
105
103
100
95
93
86
80
80
80
84
82
80
82
84
84
86
86
147
142
142
147
154
154
149
142
144
144
147
144
142
142
142
137
137
132
127
125
125
132
137
134
132
127
125
125
125
125
125
122
117
117
117
110
105
98
89
84
82
82
84
93
98
100
95
93
93
93
91
86
78
76
72
74
78
74
74
80
80
78
80
80
144
144
147
149
154
156
149
142
142
144
144
144
144
144
144
139
134
129
127
125
127
132
137
137
129
125
117
117
125
127
127
127
127
120
112
112
105
93
84
78
76
78
82
86
91
89
86
91
93
89
86
82
76
76
76
74
72
70
76
80
76
74
78
78
149
154
154
154
156
159
151
147
144
147
144
144
144
147
147
139
137
132
127
125
127
132
132
132
129
122
120
117
127
127
132
132
129
122
112
110
103
91
82
74
66
68
78
86
89
84
80
86
89
86
80
76
76
78
76
72
72
74
76
74
72
78
84
86
147
149
154
156
159
161
154
149
147
149
144
144
147
147
147
142
142
137
129
125
125
127
129
129
127
127
125
125
129
132
137
134
129
120
110
105
100
89
84
76
66
66
76
80
84
82
82
86
86
86
84
76
80
80
76
76
76
74
78
78
80
82
89
91
149
151
151
154
156
156
154
151
149
149
147
142
147
144
144
144
139
137
132
127
125
125
125
129
129
125
127
125
125
132
137
132
125
115
105
100
95
86
84
80
70
68
74
78
80
84
86
84
80
82
84
78
78
78
78
78
78
82
86
84
84
84
86
91
151
151
151
154
156
156
156
154
154
149
147
144
147
147
147
142
139
134
134
129
127
125
125
132
132
127
129
127
127
132
132
125
117
110
100
98
91
84
82
80
74
76
80
82
84
89
89
84
80
84
86
86
86
86
89
91
91
91
91
91
91
98
100
105
151
154
149
154
161
159
159
159
154
149
147
149
151
151
149
144
142
137
137
132
132
127
129
134
137
134
137
134
127
127
125
117
115
107
98
91
86
82
82
80
80
86
91
95
98
100
100
98
93
93
93
95
95
98
98
100
103
103
105
103
105
107
112
120
151
151
151
154
161
161
161
161
159
151
151
154
154
154
154
151
147
142
139
134
134
132
134
137
137
139
147
139
129
129
122
112
110
103
100
95
89
84
84
91
98
103
107
110
115
115
115
112
110
107
107
107
110
112
112
115
117
117
117
117
117
120
125
127
151
154
154
156
161
163
163
163
161
156
151
156
156
154
151
154
151
149
142
134
132
134
134
134
134
142
147
142
134
132
120
112
103
98
98
95
91
91
93
103
107
115
117
120
125
122
125
125
122
120
115
110
112
115
115
115
120
125
122
122
122
125
127
129
151
154
159
161
161
163
163
163
161
156
149
151
154
156
151
149
149
149
142
142
137
134
134
134
139
139
142
139
137
125
115
105
98
93
93
95
95
95
103
110
115
117
120
122
122
122
125
127
125
122
120
117
115
115
117
117
117
125
127
122
125
127
125
125
149
154
159
159
159
161
163
161
159
156
149
149
151
151
149
147
149
147
144
144
144
137
134
137
139
139
142
139
129
117
105
100
93
86
89
95
98
103
112
115
117
115
117
120
120
127
127
129
129
127
125
125
120
117
122
125
117
122
127
125
127
125
125
127
147
151
156
159
156
156
161
161
159
156
149
149
151
151
149
147
147
147
147
142
139
134
137
139
142
144
139
132
122
107
100
95
86
82
86
95
100
107
112
117
120
117
120
120
122
127
129
134
134
129
125
122
117
115
117
117
117
120
125
129
129
127
127
132
149
154
154
156
156
156
159
161
161
156
151
149
149
151
156
151
149
149
149
147
142
137
134
137
142
144
134
127
115
103
95
91
86
82
86
95
105
110
112
117
120
122
120
120
127
129
132
132
129
127
125
120
117
112
112
112
117
120
122
125
129
129
129
129
154
154
154
156
156
154
159
156
156
156
154
149
149
151
154
151
151
151
149
149
149
144
142
144
144
139
132
120
110
100
95
91
84
80
89
98
107
115
120
122
122
125
122
127
132
129
129
127
120
122
125
122
120
117
117
117
117
117
120
127
129
129
125
127
149
154
154
159
156
159
156
156
156
159
156
151
151
151
151
149
149
151
154
154
154
151
147
144
144
134
125
112
103
98
91
89
82
86
93
98
107
115
125
125
125
120
122
122
127
127
127
125
122
125
125
125
125
122
122
120
117
120
127
129
129
125
122
127
154
154
156
159
156
159
156
159
156
156
154
154
154
156
154
149
149
151
154
156
159
154
149
144
139
132
117
105
98
93
91
89
89
89
95
98
103
110
120
125
129
127
125
122
122
122
122
122
125
125
129
125
127
125
122
117
117
125
129
127
125
125
122
127
154
151
154
154
156
159
156
159
156
156
154
151
154
156
159
154
151
154
154
161
161
156
149
144
137
127
110
98
95
89
86
89
89
86
93
98
100
103
115
120
127
129
129
129
129
125
122
120
120
125
129
125
127
125
122
122
122
127
127
125
122
125
120
125
151
151
151
151
159
159
159
163
161
161
156
151
151
154
156
156
154
159
161
161
159
159
149
142
132
117
105
95
91
82
80
80
84
84
91
100
105
107
112
117
122
127
129
132
129
127
125
125
122
122
132
132
129
129
129
129
127
129
125
120
125
129
122
120
151
156
156
154
159
159
161
165
165
159
156
156
151
149
149
154
156
161
163
159
161
156
147
134
125
112
100
93
86
80
80
78
80
84
91
105
110
112
107
115
120
129
132
134
134
129
127
127
122
125
132
134
129
129
129
125
127
129
129
122
122
122
115
117
156
156
159
156
154
156
161
163
163
159
159
159
159
154
151
156
161
161
161
159
159
154
142
129
115
107
95
86
82
78
84
82
78
82
93
107
115
117
115
112
117
129
129
129
132
129
125
125
120
122
127
129
129
129
125
122
127
132
127
127
129
122
115
112
159
161
159
159
154
156
161
161
163
165
163
159
156
156
159
161
161
159
159
159
156
149
137
122
110
103
91
84
80
76
84
82
82
86
95
107
115
115
120
122
120
125
125
122
125
129
125
122
117
117
125
125
127
129
127
122
127
134
132
129
132
125
115
107
161
163
161
159
156
159
163
165
165
163
161
156
151
154
156
161
161
161
159
156
154
144
132
117
103
98
86
82
78
76
82
82
84
91
95
107
115
115
117
122
125
122
125
122
122
125
122
122
120
117
120
120
120
122
125
129
129
129
129
127
127
120
112
110
159
159
156
156
154
156
161
163
163
163
161
156
156
156
156
161
163
159
159
156
149
142
129
110
100
95
84
80
76
78
82
82
84
89
95
107
122
120
120
127
127
122
120
122
125
122
117
115
115
117
117
120
117
117
117
120
122
125
122
120
117
110
112
112
161
156
156
159
156
156
161
165
161
163
161
159
156
159
163
161
161
159
156
151
147
137
120
105
98
95
84
80
76
78
78
82
86
89
98
110
125
125
125
127
129
125
125
127
125
117
110
107
112
115
115
122
122
117
115
117
120
122
117
112
110
105
107
115
159
156
161
161
159
159
165
168
165
165
163
159
159
161
161
165
163
161
156
149
142
129
115
103
98
91
84
80
78
78
78
82
89
95
103
112
120
122
127
129
129
127
125
122
120
115
107
105
105
110
110
115
117
115
115
117
120
117
117
115
110
105
105
110
156
154
159
161
161
159
168
170
165
165
161
156
159
161
161
168
165
163
154
147
134
122
107
100
93
86
84
82
80
78
80
84
86
98
107
112
120
120
122
127
127
125
127
125
120
115
110
105
110
107
110
110
115
112
110
112
115
112
112
115
112
107
105
107
156
154
161
156
161
161
165
170
165
163
159
159
163
163
163
165
163
156
149
139
127
115
103
95
86
84
84
84
84
82
82
82
89
98
107
110
120
117
117
125
127
127
127
127
122
112
112
110
110
112
110
110
115
110
103
110
112
110
110
112
112
107
103
107
159
161
161
156
161
161
163
165
163
161
159
161
163
161
161
161
159
151
144
134
122
105
98
89
84
84
84
89
84
82
80
84
89
98
107
110
115
117
117
122
127
127
125
125
120
115
112
112
110
115
107
110
112
110
105
103
103
103
103
103
107
103
105
110
161
163
159
154
159
163
163
163
159
159
161
163
163
163
159
159
159
149
139
127
112
98
91
86
86
89
89
84
84
82
78
84
91
98
110
112
117
120
122
127
129
129
125
122
115
110
112
115
112
107
105
105
105
105
105
100
98
98
93
98
107
105
105
112
161
163
159
156
154
159
159
161
165
163
163
161
161
163
156
154
154
142
132
117
100
93
86
84
84
89
91
89
86
86
89
91
95
103
112
120
122
127
125
125
127
127
125
122
115
107
110
110
110
103
98
100
100
95
100
98
95
98
100
100
107
107
107
110
161
161
159
156
156
156
154
156
159
161
163
161
161
156
151
147
144
134
122
105
95
89
82
86
86
86
91
91
89
89
93
100
105
112
122
125
127
127
127
129
125
122
125
122
120
112
107
107
107
103
100
103
98
98
100
100
98
100
103
105
107
107
110
115
163
163
163
156
156
156
151
156
159
159
161
161
156
154
149
144
137
125
110
98
91
89
84
82
84
86
89
86
84
93
98
105
115
120
127
127
127
132
134
129
125
129
132
125
120
115
107
103
105
103
103
103
95
100
105
103
98
103
105
110
107
110
112
112
163
165
163
161
154
156
156
161
161
161
163
161
156
154
147
139
127
115
103
93
89
86
84
80
80
84
89
86
89
98
105
112
120
125
129
129
129
132
132
125
125
129
129
122
117
115
112
103
100
103
100
103
103
103
107
103
100
98
100
105
107
107
115
110
161
165
165
161
156
156
159
161
163
161
161
161
156
149
142
132
120
107
100
93
84
86
89
84
82
86
86
86
95
105
112
120
127
129
129
129
127
129
127
122
122
127
127
120
117
112
115
110
105
107
100
100
103
107
110
112
110
103
98
105
107
112
120
110
163
163
163
163
159
159
159
161
163
159
159
161
151
144
134
125
112
100
93
86
80
82
84
80
82
86
86
95
107
112
120
129
134
134
127
125
125
125
125
117
117
122
127
122
115
112
115
110
105
107
105
103
103
110
115
115
115
115
105
107
112
122
122
112
161
161
161
163
163
163
161
161
156
149
151
151
144
137
125
115
103
93
86
80
82
80
78
78
82
89
98
107
117
122
127
134
134
134
125
122
120
117
120
117
117
122
122
122
120
115
110
105
105
105
107
105
110
117
125
125
125
122
117
115
115
122
125
117
163
161
161
163
165
165
163
161
154
149
149
142
134
125
112
100
91
86
82
78
80
80
80
82
89
98
110
120
125
127
129
134
137
132
122
122
117
115
117
115
117
120
122
122
120
115
110
112
112
107
107
105
115
117
125
125
122
125
120
117
117
117
125
122
154
159
165
170
168
165
161
159
151
147
139
132
122
110
98
91
86
84
82
80
78
82
86
91
98
107
120
127
127
129
134
134
134
129
120
122
122
117
117
120
120
120
125
122
117
112
115
117
120
115
107
110
115
120
125
122
120
120
120
120
120
122
122
120
151
161
165
165
168
165
156
154
147
137
129
122
107
98
91
86
84
80
80
80
84
89
91
95
107
120
129
137
139
139
139
137
134
129
122
117
117
122
122
120
120
117
117
117
117
120
120
120
120
117
112
117
125
122
125
122
115
112
120
125
127
122
120
120
154
163
165
165
165
163
156
149
134
127
122
107
98
91
86
86
86
84
82
84
89
95
95
105
120
132
139
142
144
144
144
139
137
129
122
112
112
117
117
117
120
120
112
112
115
120
120
120
120
117
112
115
122
125
125
122
117
117
125
127
127
120
117
122
159
163
165
165
163
161
149
137
127
120
110
100
91
86
86
91
86
86
80
86
91
95
103
117
129
139
142
147
144
144
142
139
134
129
122
112
107
107
110
112
115
110
110
115
112
120
125
122
120
115
112
112
115
120
120
120
120
122
125
127
127
120
120
122
159
159
159
159
156
147
137
127
120
110
98
98
86
86
93
91
89
89
89
91
93
100
115
129
137
142
144
149
144
139
137
134
132
127
122
117
105
103
105
105
112
115
115
117
117
122
125
122
120
117
110
105
107
115
117
117
120
122
125
127
122
117
117
117
156
154
151
149
147
137
127
117
110
100
93
93
86
89
89
91
93
89
91
95
103
115
127
137
142
144
147
147
147
139
134
132
132
125
117
117
107
105
112
105
107
115
117
115
120
122
125
120
122
117
112
110
112
117
115
112
117
120
125
125
122
120
120
120
149
147
144
144
134
127
115
110
103
95
93
93
89
89
89
91
95
95
98
105
117
129
139
139
144
147
147
147
144
137
134
134
129
122
120
117
110
105
117
112
110
112
115
112
117
117
117
120
125
122
115
115
117
117
117
112
115
120
122
120
125
125
122
115
144
139
139
137
125
115
110
105
100
95
93
91
89
89
93
95
95
100
107
120
132
142
147
147
147
147
144
144
142
134
137
132
127
122
122
117
112
110
117
117
112
110
112
110
112
112
112
112
117
117
117
115
117
120
117
115
112
117
117
117
120
120
117
115
139
139
137
127
115
110
103
95
93
98
95
91
91
93
98
105
105
110
120
132
142
147
151
151
149
147
142
139
137
134
134
129
125
122
122
117
115
107
115
120
120
115
110
105
105
105
105
105
107
110
110
110
110
112
117
112
112
117
117
120
117
115
120
120
139
139
127
117
107
100
93
86
89
91
91
95
95
100
103
107
110
120
132
142
144
149
151
154
149
144
139
134
134
129
125
122
125
125
122
115
112
110
110
120
122
115
107
98
95
100
103
100
103
107
105
103
107
110
112
110
110
117
117
120
115
112
115
117
