P2
# 242 of 608 Angiograms
64 64
255
112
115
117
120
122
115
112
110
105
103
103
105
117
120
120
122
125
127
127
127
125
122
122
122
127
134
134
134
132
129
127
129
132
134
134
129
127
127
125
127
125
127
127
129
120
120
122
122
125
122
122
117
107
105
100
105
110
112
107
112
115
112
105
100
110
112
117
122
122
112
112
110
107
103
107
112
120
125
125
127
127
127
122
122
127
127
127
127
132
134
137
137
134
134
132
132
129
132
134
134
127
127
122
125
125
125
127
125
117
117
122
127
129
127
117
120
117
110
110
112
112
110
105
107
107
107
107
110
98
105
107
115
117
112
117
115
112
105
107
112
120
127
125
127
127
125
122
122
125
127
127
127
127
132
139
139
137
134
129
127
125
125
129
132
132
127
122
120
127
127
127
122
122
125
125
129
129
125
117
117
117
117
117
120
120
115
110
110
112
115
117
112
93
93
98
105
112
115
117
117
115
110
107
110
112
122
125
125
132
129
127
127
129
127
129
129
127
134
139
137
132
127
127
129
127
122
125
129
132
125
120
120
125
125
122
125
127
127
122
127
125
122
120
117
122
122
125
127
125
120
120
122
122
117
115
110
95
98
98
98
100
105
110
112
112
105
107
107
110
112
120
122
127
127
125
129
132
129
129
125
127
129
132
129
127
125
125
127
132
125
127
132
129
127
122
122
120
120
120
127
127
125
117
127
129
129
122
125
129
129
127
129
127
122
122
122
120
117
115
110
98
103
100
95
93
93
98
103
107
105
107
105
110
112
112
117
122
125
129
129
134
127
127
125
125
127
122
127
129
129
127
125
132
129
132
137
129
127
125
125
125
125
127
129
129
125
122
127
129
129
125
122
127
134
132
127
129
125
127
122
117
115
115
115
95
93
91
93
91
89
89
93
100
105
107
110
115
115
115
120
122
127
129
127
129
127
129
125
125
125
122
129
134
132
127
127
132
134
134
134
134
132
129
127
129
132
132
134
132
122
125
127
129
129
127
125
129
137
132
127
129
132
134
129
122
120
117
115
95
86
89
86
82
84
86
89
91
98
107
112
112
110
117
120
122
127
125
125
122
125
129
125
122
125
125
129
134
127
125
125
129
132
129
129
134
137
127
129
129
134
134
134
129
122
125
129
134
132
127
129
134
134
129
129
132
132
129
129
127
122
122
117
93
89
91
91
86
89
93
91
89
91
95
105
107
112
115
120
125
122
120
122
132
129
122
122
122
125
127
127
132
129
125
125
129
129
125
127
132
134
132
132
129
132
137
134
132
127
122
127
132
132
129
132
134
132
129
132
132
127
125
129
127
125
120
115
89
91
95
93
91
89
91
93
89
89
91
91
100
105
112
117
117
120
120
122
125
125
127
125
127
129
129
127
132
134
132
129
129
132
129
129
129
132
134
132
129
127
132
132
132
125
125
127
129
129
129
132
132
132
132
132
129
127
127
129
129
127
127
120
91
89
98
93
93
91
89
91
93
86
86
84
89
98
103
112
115
122
122
125
122
125
129
127
134
134
129
127
129
129
132
127
127
129
129
129
127
129
132
132
129
127
129
129
129
125
125
129
134
132
125
127
129
129
132
129
125
125
127
132
134
127
127
125
95
93
103
100
95
93
89
89
91
89
86
84
86
93
98
103
112
120
122
122
125
122
125
122
127
129
129
132
129
125
127
125
127
129
127
127
129
129
132
127
125
127
125
122
122
120
125
132
137
134
127
125
127
129
129
125
122
122
122
127
127
125
122
125
95
98
103
107
100
93
89
89
89
89
91
84
89
89
93
98
103
112
120
122
127
125
122
120
122
127
129
134
132
132
129
129
134
134
134
132
134
134
129
127
127
125
120
122
122
127
132
134
134
132
129
125
120
122
125
122
122
120
122
122
125
125
122
117
98
98
100
107
105
100
93
91
91
91
93
95
93
86
91
95
95
100
115
125
129
125
125
125
127
127
127
132
134
137
132
134
139
139
134
132
129
127
125
127
129
127
129
127
127
127
129
134
134
129
125
120
115
120
120
122
120
122
122
120
125
122
122
117
107
105
105
107
105
105
103
95
93
93
93
100
95
86
86
91
89
93
100
117
125
127
129
132
129
127
127
125
125
129
132
134
134
134
132
129
129
125
127
132
137
134
134
129
120
120
125
132
132
129
125
115
115
120
120
122
122
122
117
120
125
120
122
122
115
110
107
110
110
110
110
107
103
95
95
95
93
86
82
84
89
89
91
103
117
125
129
132
125
127
127
127
127
127
125
125
127
127
127
129
129
129
129
134
134
134
129
132
125
122
122
127
129
127
125
117
120
122
122
122
122
122
117
117
120
117
120
125
120
110
105
107
110
110
112
115
112
105
95
91
91
86
84
86
91
91
91
93
105
117
127
132
129
129
132
129
129
132
125
117
122
125
125
127
127
129
129
132
132
132
132
134
129
125
127
127
132
129
125
117
120
125
122
122
122
127
120
117
117
112
115
120
122
112
107
103
105
110
117
117
120
110
98
91
86
86
89
91
98
98
95
93
93
105
117
127
127
129
129
129
132
134
132
120
120
125
125
125
125
127
129
132
132
134
134
134
132
132
132
127
127
127
127
117
122
125
127
125
125
127
125
120
115
112
112
120
122
112
105
103
105
107
112
115
112
107
100
93
89
86
86
98
103
103
98
95
98
95
103
117
122
127
127
132
134
137
134
127
122
129
134
129
129
129
132
129
129
132
132
132
127
132
129
127
129
127
127
125
127
129
129
125
125
129
127
125
120
115
115
117
117
112
105
107
105
103
107
107
107
105
100
100
93
89
89
98
103
105
100
98
95
91
93
103
115
125
129
134
139
137
139
132
127
134
134
132
132
132
129
129
129
127
127
129
132
134
132
127
127
127
127
132
134
132
132
127
127
127
127
129
120
120
115
120
112
105
98
103
107
112
112
110
110
107
100
103
100
95
95
98
103
105
98
98
95
91
84
91
103
115
127
134
142
142
137
132
137
134
134
137
134
129
127
129
129
132
127
129
134
134
127
122
125
129
129
132
134
127
127
127
127
129
129
129
125
120
117
117
105
100
93
95
103
112
112
112
107
105
103
105
110
100
95
93
98
103
100
95
93
91
86
91
98
107
117
132
139
142
137
139
142
139
139
142
139
132
129
134
134
134
132
129
129
127
127
129
132
129
127
129
129
127
127
129
129
129
127
129
125
120
117
120
105
103
103
100
103
110
112
115
105
98
100
105
107
105
98
93
95
100
103
98
98
95
91
89
93
100
112
125
139
139
139
142
147
147
147
149
142
137
134
134
129
132
132
129
127
125
127
127
129
129
129
125
125
127
127
127
129
122
125
127
125
120
115
120
107
107
107
105
107
115
120
115
107
103
103
105
107
107
105
100
105
105
100
98
98
95
91
89
93
100
107
120
134
139
142
142
147
147
147
142
137
137
137
134
127
125
127
127
125
122
125
122
127
129
129
127
125
122
125
127
125
117
117
125
127
122
122
127
110
112
112
110
110
112
117
115
112
107
105
110
110
112
112
107
100
100
98
98
98
93
91
93
98
105
105
115
127
137
139
137
144
147
144
142
137
137
139
139
132
127
122
122
127
125
122
120
125
127
127
125
125
122
127
132
127
117
120
127
125
122
127
134
120
117
115
112
105
107
110
115
117
117
112
112
112
115
117
110
105
103
100
100
95
95
98
100
103
98
100
110
120
129
132
134
144
147
142
137
134
134
134
137
132
129
127
125
132
129
125
120
125
127
127
127
125
125
127
129
125
122
127
132
127
127
129
132
125
122
120
112
105
103
107
112
112
115
115
117
112
115
120
117
110
105
103
100
100
100
100
105
105
100
93
103
115
122
127
132
137
144
142
134
134
137
134
132
129
129
129
125
129
132
127
125
120
120
122
120
122
125
125
125
125
127
132
129
129
127
127
129
120
115
117
115
107
100
105
112
117
117
112
115
115
115
115
117
112
107
98
98
100
103
98
100
100
100
95
98
107
120
127
132
134
137
139
134
137
134
137
134
129
127
127
125
127
129
132
129
122
120
125
125
127
129
129
129
129
129
129
127
125
125
127
125
117
115
117
115
107
105
103
115
120
120
122
122
122
122
120
115
112
105
100
98
100
98
95
95
98
98
100
100
100
110
125
129
134
134
132
132
134
134
134
134
129
129
127
122
122
125
132
132
122
120
127
127
127
129
132
134
134
132
129
125
125
125
122
129
122
122
117
115
110
105
107
115
120
120
127
129
129
127
120
112
115
107
107
107
103
95
93
93
95
100
103
105
98
103
117
127
129
129
132
132
132
129
129
127
125
127
125
120
122
122
125
125
122
122
127
127
122
122
127
129
129
129
129
125
120
122
122
129
122
125
122
122
115
107
107
110
117
125
129
132
132
127
122
117
117
112
105
103
98
93
91
89
93
100
103
107
100
98
105
120
129
129
129
127
127
125
122
117
115
122
122
122
122
122
122
122
120
127
125
127
122
125
127
129
129
132
127
125
125
125
129
129
122
122
127
125
117
110
105
105
112
120
127
127
122
117
115
115
115
107
100
95
91
86
82
82
84
91
91
93
93
95
98
105
117
122
120
117
112
112
112
112
110
117
122
122
125
127
125
115
115
122
122
122
125
127
132
134
134
137
129
125
122
125
129
127
125
122
125
120
115
107
100
100
103
107
110
107
107
105
105
105
98
93
89
80
80
80
78
74
76
76
74
76
80
82
86
89
98
100
100
100
100
103
103
105
107
112
117
120
125
125
117
110
112
117
117
117
120
125
132
137
139
137
129
122
117
115
117
117
122
120
120
117
110
100
93
89
89
91
93
91
89
89
89
89
86
78
72
72
72
72
72
72
72
70
66
66
70
72
70
72
80
89
93
93
98
103
98
98
105
115
120
125
125
122
112
112
112
112
110
112
117
120
127
134
139
132
122
117
110
105
110
110
117
115
112
103
95
86
80
80
82
80
78
78
78
80
80
80
74
70
64
64
64
64
64
66
66
68
66
62
60
60
64
66
70
80
89
91
93
100
103
98
110
120
125
125
122
115
110
107
105
103
103
105
110
112
117
122
122
120
115
110
103
100
105
103
112
105
95
86
80
78
76
76
78
74
70
70
70
72
76
74
72
72
66
60
62
62
64
70
68
66
62
55
55
57
58
64
70
78
86
91
91
98
100
105
115
122
129
125
120
115
112
110
105
105
103
103
100
100
107
112
117
115
110
103
100
98
100
98
98
89
78
72
72
72
74
76
76
74
68
68
68
74
76
74
72
74
68
66
64
60
60
66
68
68
60
50
52
58
58
64
72
78
86
89
93
98
103
110
117
127
129
127
125
120
115
110
105
103
100
95
91
93
100
103
107
110
105
100
98
95
93
95
78
72
66
68
68
68
72
76
76
72
70
70
70
72
72
76
74
70
68
70
70
62
62
64
64
66
62
55
55
66
68
68
74
84
84
89
95
105
110
112
117
125
129
129
127
120
112
103
98
93
89
84
89
93
98
100
105
107
100
95
89
89
89
95
66
62
62
66
70
66
72
76
76
70
72
76
78
76
74
78
78
76
72
74
76
76
74
70
68
66
64
57
57
66
74
74
78
84
91
100
107
112
115
112
115
120
129
129
129
122
112
103
98
93
86
84
86
91
93
95
105
107
100
93
91
89
89
89
58
60
60
62
66
68
74
74
72
74
80
84
78
76
74
78
78
80
82
86
86
86
82
78
74
70
70
68
66
68
76
78
82
91
103
112
115
120
120
115
115
117
125
132
132
127
120
107
100
98
93
91
89
86
91
91
95
103
100
95
91
86
84
89
60
58
58
58
64
72
72
76
76
78
82
82
80
78
80
82
89
95
98
100
100
98
93
89
84
82
80
80
80
78
80
84
93
100
110
120
122
122
122
122
117
115
122
129
132
132
127
117
110
105
100
98
95
93
93
95
98
98
103
105
95
93
91
95
62
58
57
57
62
68
74
80
80
80
86
84
84
86
93
100
107
115
122
125
122
117
110
105
103
105
103
98
93
93
93
93
95
100
107
117
125
125
122
122
117
117
122
129
134
132
125
125
122
115
107
105
105
98
100
103
105
105
105
107
103
98
98
107
60
57
52
55
66
74
84
86
89
93
100
103
105
107
110
117
127
129
134
137
134
132
127
125
120
120
117
107
103
95
98
100
98
98
105
112
125
127
127
125
122
122
125
129
132
127
125
120
125
122
120
115
112
107
105
105
110
110
110
110
110
107
107
112
58
55
50
58
70
80
89
93
100
107
115
115
115
120
125
129
132
132
137
139
137
134
132
125
117
117
117
110
103
98
103
103
93
95
103
107
117
122
125
125
122
117
129
129
129
127
125
120
125
125
120
122
122
120
120
122
122
122
125
125
125
122
122
122
62
57
57
66
76
89
98
107
115
122
127
129
132
137
137
134
132
134
137
134
137
134
127
125
117
117
115
107
105
103
105
103
98
95
95
105
112
117
120
122
120
120
129
132
134
134
129
125
125
125
120
122
125
122
125
129
134
134
137
139
137
132
129
129
62
60
64
74
89
98
110
120
125
127
129
132
139
142
144
139
134
137
134
132
134
129
125
122
120
120
115
107
105
107
105
100
98
95
93
98
107
117
122
129
125
125
129
134
137
137
127
125
125
122
117
120
122
120
122
129
132
139
142
137
137
137
137
134
62
66
76
89
100
110
122
127
122
125
127
129
137
139
142
139
137
134
134
134
134
129
127
127
122
117
115
112
110
105
103
95
89
91
93
95
103
112
125
125
122
122
125
129
137
134
125
127
127
120
117
122
122
122
125
127
127
134
139
132
132
137
139
134
72
80
89
98
105
117
127
127
125
125
129
127
134
139
139
137
137
132
132
134
132
129
129
129
125
117
120
120
112
107
98
93
86
91
93
91
98
107
122
125
125
122
127
129
132
129
127
132
125
117
117
117
115
117
120
122
125
129
134
132
132
137
134
129
84
91
98
103
112
125
129
132
132
132
132
129
129
132
134
137
139
142
137
134
132
129
129
129
122
115
112
112
112
107
100
93
89
89
91
93
93
100
117
127
127
122
127
127
125
127
129
129
122
117
117
117
115
115
117
117
125
132
132
129
129
129
129
125
98
103
107
115
120
127
134
137
134
134
134
134
134
134
134
134
129
134
139
132
129
127
129
125
122
115
110
110
112
110
107
98
93
89
86
89
93
100
115
125
122
120
122
125
122
127
132
129
122
117
120
122
120
120
120
117
122
127
127
129
134
132
129
129
117
117
120
120
120
129
137
137
134
137
134
134
137
134
132
129
125
127
132
132
127
129
129
122
125
117
112
107
112
115
112
107
98
93
86
89
93
98
110
120
122
122
125
127
125
127
129
127
120
117
117
120
120
120
120
117
120
125
129
132
132
134
132
137
127
122
120
122
122
129
134
137
134
137
134
134
137
134
132
127
122
122
132
129
129
129
132
127
125
115
110
105
112
115
110
110
103
93
89
89
91
95
107
117
120
122
125
127
125
125
127
125
120
117
117
120
117
120
117
115
117
120
127
132
132
132
137
134
127
122
120
122
122
127
137
139
137
142
144
137
134
134
129
127
125
125
127
132
129
134
137
132
125
117
105
105
110
115
110
110
103
91
89
89
91
93
105
112
117
122
125
127
129
134
129
125
122
122
120
120
115
115
115
117
120
120
122
129
132
129
127
129
129
122
120
122
120
127
134
137
137
144
144
137
132
134
129
129
129
122
122
127
127
127
132
137
127
115
107
103
110
112
107
112
105
93
91
89
84
89
100
110
117
127
127
125
129
137
129
125
122
125
127
117
115
117
115
120
125
125
127
129
132
125
127
127
129
125
120
120
120
127
132
132
139
142
142
134
129
132
132
134
132
125
125
129
127
129
134
134
125
115
112
105
107
112
112
112
105
98
91
86
82
86
98
105
117
127
129
129
134
134
127
122
120
120
125
115
112
117
117
117
120
125
127
129
132
132
129
129
127
125
117
117
122
127
137
137
137
139
139
139
132
134
132
132
134
127
132
132
125
127
129
134
125
117
112
105
110
115
115
110
103
98
91
86
86
89
98
105
117
127
129
134
137
132
125
117
112
117
120
117
115
115
117
122
122
127
129
129
132
132
129
129
127
122
117
117
122
129
134
132
134
137
137
139
134
134
129
132
137
129
134
137
132
127
127
129
125
117
110
107
110
115
112
110
100
93
89
89
91
89
95
105
115
125
127
129
127
122
120
112
110
115
115
117
117
112
120
122
122
129
132
129
132
129
132
125
125
120
115
115
125
132
129
129
132
132
134
134
134
134
134
134
139
134
129
134
137
134
129
127
125
120
110
107
110
115
115
115
100
93
89
86
86
89
95
105
112
125
129
127
120
115
117
115
112
115
115
120
120
112
120
115
120
127
132
134
132
129
127
120
125
125
117
117
122
132
127
125
129
132
132
134
139
137
134
132
132
132
132
134
142
142
137
129
127
120
115
115
115
115
112
115
105
93
91
89
84
84
95
105
115
125
127
127
120
117
120
120
115
115
120
122
122
115
112
110
117
122
127
132
132
127
125
125
132
127
120
120
120
127
129
127
132
134
132
132
134
132
134
139
139
137
137
142
147
142
142
132
125
120
112
115
112
115
115
115
112
100
95
91
84
82
95
103
120
125
129
129
122
120
120
120
120
120
120
125
125
122
117
112
115
120
122
125
129
127
125
129
127
129
125
122
122
127
127
129
132
137
137
134
134
129
132
139
144
139
132
139
142
139
137
129
125
120
112
112
112
117
120
117
115
105
98
91
84
84
95
103
120
127
132
132
127
125
122
120
120
122
125
125
125
127
117
115
117
117
120
122
127
127
125
127
122
129
129
125
125
129
132
134
134
139
139
139
137
132
132
132
137
137
132
137
139
137
132
127
122
122
117
112
107
110
117
115
112
105
98
91
86
86
95
103
112
122
127
127
127
127
122
117
120
125
122
122
125
125
115
112
115
112
115
120
127
127
129
129
122
125
125
120
117
125
132
134
134
142
144
139
139
134
134
134
137
139
137
139
137
134
129
122
122
127
120
112
110
105
110
110
107
103
98
91
84
89
95
98
105
112
120
125
125
120
120
117
120
125
122
122
122
120
115
115
117
115
115
117
125
127
127
129
122
127
125
122
117
120
127
129
129
137
142
139
137
134
134
134
137
137
134
137
134
132
127
127
129
125
120
115
110
110
110
105
105
103
95
86
86
91
93
98
103
105
110
115
115
115
115
115
117
122
125
125
125
120
117
120
125
122
117
117
122
127
127
132
