P2
# 243 of 608 Angiograms
64 64
255
174
176
176
178
176
176
176
178
176
176
176
178
176
172
172
170
174
176
172
168
168
168
168
165
165
165
168
163
159
156
161
159
156
156
159
159
156
156
159
156
159
159
161
159
154
151
151
156
156
156
147
134
129
134
142
149
144
139
139
137
132
132
134
134
178
180
178
178
180
178
176
176
178
176
176
176
174
172
172
172
174
176
172
168
168
170
165
163
165
170
172
168
159
156
159
163
159
159
156
156
154
154
154
154
151
156
156
156
159
156
156
154
156
156
151
142
132
134
134
144
144
139
139
137
132
134
134
134
178
180
182
182
184
180
178
176
176
174
174
174
174
174
174
174
174
174
172
168
168
170
165
163
163
172
172
168
161
156
156
159
161
161
159
159
154
151
151
151
156
156
156
159
163
161
159
154
154
156
154
149
139
134
134
134
137
139
137
132
129
134
134
139
180
180
184
184
184
182
180
178
176
176
174
174
174
174
174
172
172
172
172
168
168
170
168
168
168
168
168
168
163
159
156
156
159
161
161
161
159
154
154
154
156
156
156
161
161
161
156
151
154
154
154
154
147
142
132
127
125
132
134
129
132
137
139
139
182
182
184
182
182
182
180
178
176
174
172
172
174
174
174
172
170
172
174
170
165
168
170
170
170
170
170
168
163
161
161
159
163
163
165
165
163
161
159
156
154
154
161
163
163
161
156
151
151
154
154
154
151
144
129
117
110
120
129
132
134
139
142
139
182
182
184
182
180
178
176
176
176
174
172
170
170
172
174
172
174
174
174
172
170
170
168
170
172
172
168
165
163
161
161
163
163
163
165
163
161
161
163
156
154
156
161
163
161
161
156
151
149
154
159
156
151
147
129
112
103
107
122
129
134
137
142
137
184
184
182
178
178
174
174
176
176
172
170
168
168
172
174
172
172
172
174
176
172
168
168
170
170
165
165
163
161
159
161
165
165
161
161
163
161
161
161
159
151
156
159
159
156
159
156
151
151
156
161
156
151
147
132
115
103
103
110
122
129
134
142
139
182
182
180
180
176
172
172
174
172
172
170
168
170
170
170
168
168
170
172
172
168
165
165
168
165
161
163
163
161
156
161
165
165
165
163
161
163
159
159
159
154
154
156
156
156
159
154
149
151
156
156
156
151
144
132
122
107
105
105
117
127
127
132
134
180
180
180
180
176
174
172
174
170
172
170
170
170
168
165
165
168
165
168
165
163
165
165
165
165
163
163
163
161
159
161
165
168
168
165
163
161
161
161
159
156
154
159
156
159
156
156
154
156
154
154
154
149
142
132
127
115
107
105
112
125
127
129
134
178
180
180
180
178
174
170
174
172
172
170
165
165
165
165
165
163
163
163
163
163
163
165
165
165
163
161
159
161
163
163
163
168
168
168
165
165
165
161
159
156
159
159
159
161
156
159
161
156
154
154
151
147
139
134
129
120
107
105
115
122
129
134
137
174
176
180
180
176
172
170
172
170
168
165
161
159
163
163
161
159
159
161
163
165
163
161
161
163
165
161
159
163
163
161
163
165
165
168
168
168
163
161
159
161
161
163
161
159
159
159
161
156
154
151
147
144
139
132
127
117
110
110
120
122
129
134
134
174
174
174
176
172
170
172
168
168
165
163
159
156
159
159
156
156
159
159
161
161
163
163
163
165
165
165
161
165
165
163
161
163
165
168
168
165
163
163
161
161
161
163
161
159
159
156
159
156
151
149
147
139
134
127
120
112
110
115
120
122
132
137
134
174
172
170
170
168
170
168
163
163
163
159
154
154
156
161
156
156
159
161
161
161
161
163
165
165
163
161
161
161
163
165
163
165
163
165
165
161
163
165
165
163
161
161
159
156
156
156
159
161
156
149
142
134
129
120
110
100
107
112
122
127
132
134
132
172
174
170
168
165
168
165
163
161
159
151
149
154
159
161
161
161
159
159
161
159
156
161
163
161
159
159
161
161
161
165
163
165
165
165
163
163
170
168
163
159
165
161
156
154
154
154
156
156
154
144
137
129
120
110
105
105
110
107
117
125
129
132
129
168
170
172
168
165
165
168
161
159
156
149
151
156
159
159
159
159
159
156
159
159
154
159
159
159
156
156
161
161
159
165
165
163
165
168
165
168
170
165
163
159
159
151
144
139
137
137
139
142
142
134
125
120
110
105
103
105
105
107
115
115
120
122
122
168
170
168
165
165
168
170
161
159
151
149
154
156
156
156
156
156
156
156
154
154
151
151
154
154
151
151
154
159
159
163
163
163
168
168
165
168
168
165
165
161
149
137
125
112
100
100
100
107
107
107
105
100
93
95
93
98
100
103
105
107
110
115
115
165
168
168
163
165
165
165
159
156
149
151
154
154
154
156
151
151
151
154
151
154
151
149
151
151
151
151
151
151
156
161
163
170
172
168
168
165
165
165
161
149
137
120
98
80
70
68
68
70
72
74
74
74
76
78
82
89
93
93
95
100
103
103
103
161
165
165
163
163
165
163
161
156
154
156
161
159
154
151
151
154
154
154
151
149
151
149
149
151
151
149
149
149
151
156
163
168
168
165
165
163
161
159
151
139
122
103
78
57
48
50
53
53
55
60
62
68
68
72
80
89
91
93
93
95
93
91
93
163
163
165
163
163
163
163
163
161
159
163
163
159
151
149
149
149
154
154
151
149
151
149
151
154
151
149
151
151
149
154
159
163
163
163
161
159
156
149
139
129
115
91
66
48
41
47
48
50
55
58
64
70
70
72
80
89
91
93
98
95
91
86
89
161
159
161
163
163
163
163
163
165
165
161
159
154
149
149
147
147
149
154
156
151
149
149
149
154
154
154
156
156
156
156
154
154
154
151
151
149
144
137
127
125
110
98
76
60
53
57
60
64
68
70
74
76
78
76
78
84
84
86
95
95
93
89
89
159
156
156
159
161
159
161
163
165
163
159
159
154
151
149
144
142
147
151
151
149
151
147
147
154
159
156
159
161
159
156
151
149
147
144
142
137
129
125
125
117
112
107
98
84
80
82
89
91
93
95
95
93
89
84
80
86
82
86
93
91
89
91
89
159
154
154
154
154
154
156
161
163
163
161
156
151
149
149
147
144
147
149
147
149
151
149
147
156
156
156
156
161
159
156
149
147
142
139
132
127
122
117
117
112
115
115
112
107
107
112
115
120
122
122
120
112
110
100
93
91
91
93
91
89
93
93
91
161
156
154
151
149
151
154
161
165
163
161
154
149
147
147
144
142
147
151
151
149
151
149
149
156
156
159
161
161
159
154
147
139
134
125
122
120
117
120
115
112
115
117
122
127
132
134
137
139
142
139
139
134
127
117
110
103
100
100
98
95
98
98
98
165
161
156
151
147
147
151
154
159
159
154
149
147
147
147
147
147
151
156
154
154
151
151
156
159
159
161
163
159
154
147
139
129
117
112
112
115
115
115
112
112
115
120
129
137
144
147
147
149
154
154
149
144
139
129
122
117
115
112
107
107
107
107
103
168
168
161
154
144
142
147
151
154
151
151
147
147
147
147
149
151
151
156
159
156
154
154
161
159
161
161
156
154
147
139
129
117
105
107
110
112
112
112
112
112
115
125
137
144
154
156
154
156
161
156
151
144
144
139
127
127
127
127
122
117
115
115
112
170
170
165
154
144
142
142
147
149
151
154
151
149
147
147
151
154
156
156
159
161
159
156
159
161
159
154
149
144
137
127
117
105
103
105
110
112
107
110
115
117
125
132
142
147
154
156
156
159
159
156
154
147
144
139
134
129
137
139
129
127
125
122
122
168
165
161
154
144
142
144
149
149
149
147
149
151
154
154
154
154
159
163
163
161
159
159
161
159
151
144
139
134
125
117
107
105
103
103
107
107
110
110
115
122
129
139
144
149
151
154
156
159
154
151
154
149
142
137
132
134
134
129
127
127
127
127
129
165
161
159
149
142
144
144
149
151
149
147
147
151
156
156
156
154
159
165
165
165
163
159
159
151
144
139
132
122
115
107
103
100
100
103
103
107
110
110
117
127
134
142
149
151
151
149
147
147
149
149
149
149
142
139
137
134
129
127
127
129
129
129
127
161
159
154
149
142
144
144
151
154
154
151
151
154
159
159
159
156
159
161
159
161
159
156
151
144
137
129
120
115
107
105
95
95
95
95
98
105
112
112
122
129
134
142
154
151
149
149
144
144
142
142
147
147
137
137
139
139
137
134
137
132
132
132
125
163
156
154
151
144
144
149
154
156
154
154
154
156
159
161
163
163
161
159
159
156
154
151
144
137
129
120
110
105
103
98
93
93
89
89
93
100
110
117
127
132
134
142
149
154
149
149
147
147
147
144
147
144
137
137
139
137
132
132
139
137
132
134
127
168
161
159
154
149
149
154
154
154
154
151
149
151
156
161
163
165
165
159
159
154
149
144
137
127
117
107
100
98
93
93
91
89
86
86
89
100
112
122
132
132
134
139
147
151
149
142
144
147
147
147
144
144
139
134
134
134
134
132
139
137
132
134
129
172
161
156
154
151
154
154
151
156
154
149
149
154
156
161
163
165
165
161
156
149
142
134
127
117
105
95
93
91
89
89
89
86
91
91
89
98
112
125
134
132
134
139
142
142
139
139
139
144
147
144
139
137
142
139
137
134
134
134
137
132
132
134
129
170
161
156
154
159
156
154
156
159
156
149
154
156
159
159
161
163
159
156
149
142
132
127
115
105
98
91
91
86
89
91
86
86
91
93
91
100
117
129
137
139
139
139
139
137
137
134
137
139
142
139
137
134
139
139
137
134
134
137
134
132
137
134
129
168
163
159
159
159
156
159
156
159
161
156
156
154
151
154
156
159
154
147
139
132
125
115
103
100
98
95
91
91
93
91
86
86
89
89
95
110
125
134
139
142
142
144
139
134
134
137
137
137
137
137
137
137
139
137
134
132
132
134
132
132
134
129
129
165
165
163
161
161
159
159
159
163
163
161
159
151
149
149
156
154
144
134
127
120
112
103
95
95
95
93
93
91
93
93
89
91
91
93
105
120
129
139
144
144
144
142
142
139
137
137
134
134
134
134
134
137
137
134
134
134
132
137
134
134
132
127
127
163
163
165
165
165
163
165
165
168
165
163
159
149
147
147
149
142
132
122
115
107
100
93
89
89
91
91
93
93
93
95
93
93
95
103
115
125
134
142
149
149
147
139
139
142
144
142
137
132
129
132
132
134
134
134
134
132
129
134
137
132
127
127
127
165
168
170
172
174
170
168
168
168
168
165
156
147
144
142
137
127
117
110
103
93
89
84
84
86
89
89
89
91
93
98
98
95
103
110
120
125
132
139
144
147
144
142
142
142
144
144
134
129
125
122
117
120
125
127
125
125
125
129
134
129
127
125
129
165
170
172
176
178
176
170
168
168
165
163
154
144
139
132
122
112
107
98
86
82
78
78
76
78
82
86
86
89
93
98
98
100
107
117
120
122
129
132
139
144
147
149
144
139
142
137
127
120
120
115
112
112
117
117
117
117
120
125
127
129
127
127
129
168
172
174
176
178
178
174
172
170
163
159
149
139
132
120
110
103
95
84
82
78
74
78
78
74
74
78
82
86
93
95
98
107
115
125
129
129
132
132
137
142
147
147
142
137
132
127
125
125
125
120
115
112
115
115
112
112
120
125
122
125
125
125
125
168
172
174
176
178
180
174
170
168
161
151
139
129
117
107
100
93
84
82
80
76
74
76
78
76
74
78
80
86
93
98
107
117
120
129
137
139
137
134
137
142
144
144
139
132
125
122
127
129
129
127
120
115
117
120
120
120
120
122
122
125
125
127
129
174
174
174
174
176
176
172
165
161
151
137
127
115
103
98
93
89
84
80
78
78
80
76
78
78
80
84
84
91
98
112
120
122
129
139
142
142
139
134
142
142
139
142
139
129
127
129
137
134
132
132
129
125
122
122
122
122
117
115
120
122
127
132
132
174
174
172
172
174
168
163
156
147
134
125
110
98
95
95
91
89
84
78
76
80
82
82
82
84
86
91
93
103
115
127
132
134
139
144
144
144
139
137
137
134
137
139
137
132
132
134
142
139
137
134
132
129
129
127
122
122
122
120
120
117
122
125
127
172
174
174
172
165
159
151
144
134
120
105
95
91
86
89
95
91
84
82
80
80
80
84
89
93
95
103
112
125
134
139
144
147
149
147
144
142
137
134
137
134
137
137
134
134
134
134
137
137
134
132
127
127
129
129
125
125
125
120
115
115
115
117
122
174
172
170
165
159
151
139
129
117
103
95
91
86
89
91
91
91
86
84
86
84
89
93
98
103
112
122
132
137
139
142
149
149
149
144
142
139
137
137
134
137
137
137
132
132
137
137
137
134
129
125
122
125
127
129
129
125
125
120
117
120
112
115
117
172
168
163
156
144
134
125
115
103
95
91
89
89
93
93
95
93
91
86
91
93
98
103
110
122
132
139
144
144
144
147
149
151
151
149
144
142
142
139
137
134
132
137
137
137
137
142
139
134
129
127
127
129
127
127
127
125
122
122
122
125
120
117
120
163
159
151
139
129
120
110
105
98
98
93
89
84
86
93
95
98
95
93
91
95
103
115
129
137
147
151
156
156
156
154
154
156
159
156
151
144
144
142
142
137
134
139
142
142
139
142
139
132
125
129
134
134
132
132
129
127
125
127
125
122
122
122
122
159
149
137
127
117
110
105
98
95
98
98
95
91
86
86
86
89
93
98
98
105
115
129
142
151
156
161
161
161
159
156
156
156
156
156
154
147
142
137
139
139
137
142
142
142
144
142
134
134
125
125
129
132
132
132
127
125
125
129
122
120
122
122
120
149
137
127
115
107
103
98
95
93
95
98
100
100
95
89
91
93
98
100
105
117
132
147
156
161
168
168
165
161
159
151
154
154
156
156
154
149
142
139
142
139
139
142
142
144
144
142
132
134
129
120
120
125
129
127
127
129
129
129
120
117
120
120
122
137
125
115
107
103
98
95
93
93
95
98
98
100
105
105
103
100
105
112
122
132
147
156
163
170
172
170
168
163
156
149
149
154
156
159
156
154
144
139
147
142
137
142
144
144
144
139
134
134
129
122
117
117
122
129
132
137
132
129
122
122
122
122
125
127
117
107
103
98
95
91
91
95
100
100
100
105
112
115
110
112
120
127
134
144
154
163
168
170
170
168
165
163
161
151
147
149
154
159
159
156
154
144
147
142
137
142
144
147
142
137
134
129
127
125
117
120
127
129
132
134
129
127
127
125
125
122
122
120
115
105
100
95
95
93
95
98
98
103
107
112
117
122
125
125
132
137
144
151
156
163
168
168
170
170
165
163
161
154
147
149
156
161
159
156
156
154
147
142
142
142
149
149
139
137
137
134
134
132
125
125
125
125
127
127
122
122
125
122
122
125
127
117
110
103
95
93
98
100
103
105
110
112
115
125
132
134
142
142
142
144
151
156
156
161
165
168
172
170
168
163
161
156
154
149
156
159
159
154
156
156
151
147
144
147
151
147
142
142
142
142
142
137
134
125
120
117
122
122
122
127
122
117
117
122
129
110
105
103
100
95
95
105
107
112
117
122
129
137
142
147
151
151
151
149
154
156
156
159
168
170
170
172
168
165
161
159
156
154
156
154
156
159
159
156
156
151
151
151
149
144
147
151
147
142
137
137
134
122
115
115
117
122
129
132
127
122
120
120
125
105
107
105
103
103
103
107
115
122
129
134
142
144
151
156
159
159
156
156
156
156
159
159
168
172
172
174
168
165
163
163
159
151
149
154
161
161
159
161
159
156
151
154
151
144
144
151
147
139
132
134
129
120
112
112
117
125
129
129
122
122
125
125
122
105
105
107
107
107
110
115
122
132
139
142
149
159
163
163
161
161
156
156
156
154
154
154
163
170
172
170
165
165
165
163
159
151
151
156
159
156
156
159
161
159
156
151
151
147
142
144
144
137
132
129
122
112
112
115
120
125
125
127
125
122
127
127
125
103
105
112
115
112
115
122
129
139
147
154
161
163
168
170
168
161
156
156
154
156
154
147
154
163
165
163
165
165
163
159
154
151
154
159
159
156
159
159
163
159
156
149
149
144
149
149
144
134
129
127
117
107
110
112
120
122
120
122
125
127
129
129
125
105
110
117
120
122
125
132
142
151
159
163
168
172
174
172
172
165
161
161
159
159
159
151
149
156
163
163
163
161
156
154
151
151
151
151
151
154
159
161
161
159
154
149
147
144
147
147
142
134
129
127
117
112
112
112
120
122
117
120
122
127
134
129
127
112
117
125
125
129
134
147
154
161
168
170
174
176
178
178
172
165
165
163
163
161
161
159
156
159
161
161
159
156
151
149
154
151
149
149
151
151
156
156
156
154
154
154
147
142
144
142
139
137
129
125
122
117
115
117
122
125
120
120
122
129
129
125
120
117
125
127
132
139
151
159
161
165
168
170
174
174
176
178
172
165
165
165
165
163
161
159
161
161
159
159
159
154
149
149
154
154
151
154
154
151
149
147
144
147
147
147
142
137
137
139
134
134
127
120
125
122
120
117
120
125
122
120
122
122
125
122
117
125
129
132
142
154
161
163
165
165
168
172
172
176
178
176
172
168
163
163
163
159
156
154
156
161
159
159
156
154
154
154
156
156
156
156
156
156
151
144
137
137
137
137
137
134
139
139
134
132
127
122
125
125
122
117
115
122
127
125
120
117
120
120
115
132
132
139
154
163
168
170
170
168
170
172
172
172
174
174
174
172
165
163
163
156
151
154
154
161
159
159
159
161
161
159
159
156
154
154
154
156
154
147
139
137
137
134
132
134
134
137
134
132
125
125
125
127
122
120
115
122
127
127
120
120
120
117
112
132
137
151
159
163
168
168
168
170
172
172
174
172
172
174
172
170
165
163
161
159
156
154
156
159
161
159
159
161
161
161
156
156
156
154
151
151
151
149
147
142
137
132
129
132
132
132
134
125
122
125
125
122
122
122
120
120
125
129
122
122
120
115
105
137
144
156
156
161
165
165
168
172
170
172
174
174
170
170
168
168
165
161
159
163
159
156
159
161
163
163
161
161
161
159
156
159
161
159
154
151
149
147
151
144
139
134
129
129
129
129
127
122
120
120
122
117
117
120
120
120
122
127
122
122
117
115
110
142
147
156
156
159
165
165
168
172
168
172
172
170
165
163
163
165
161
156
156
161
161
163
165
165
165
163
163
165
163
161
163
165
163
161
156
154
149
144
149
147
142
134
127
125
122
122
120
120
115
110
112
117
117
120
120
125
120
120
120
117
120
117
112
