P2
# 245 of 608 Angiograms
64 64
255
103
107
107
95
93
93
95
100
103
100
105
110
110
107
110
112
112
117
112
112
112
107
103
100
103
98
103
107
107
103
98
95
93
95
103
105
105
103
100
107
107
105
105
105
107
115
115
117
117
112
110
115
112
112
120
122
127
127
125
122
122
125
125
127
103
110
110
100
98
98
98
98
100
103
103
107
105
105
107
105
105
105
110
115
112
107
103
103
105
103
103
103
100
95
93
93
91
91
95
100
103
100
100
103
105
105
105
103
100
105
112
117
115
107
107
115
115
115
115
117
120
125
125
122
115
115
120
122
105
105
105
105
103
100
98
93
95
103
103
105
107
110
107
100
105
103
105
110
110
107
105
103
103
105
103
100
95
91
91
91
91
89
86
93
98
100
95
98
105
107
107
103
95
98
105
105
107
110
112
115
117
117
110
115
117
117
117
120
120
120
120
125
110
107
103
105
107
107
103
98
93
98
100
112
117
115
107
105
105
107
107
110
110
107
103
100
95
95
98
95
91
93
95
93
91
89
84
91
93
98
95
103
110
105
103
103
93
93
100
105
107
112
105
110
117
120
117
120
120
120
122
125
129
129
132
137
112
112
107
110
115
112
107
105
100
100
105
115
120
117
107
107
110
107
107
110
107
105
103
98
93
91
95
95
93
93
98
95
93
93
93
98
98
98
100
105
105
105
103
105
103
100
105
110
110
115
112
112
120
122
125
127
125
127
129
132
137
142
142
139
117
112
112
115
112
107
110
107
100
103
107
112
120
120
115
110
112
110
107
107
103
98
100
100
93
95
95
93
100
98
98
98
98
100
103
105
103
105
107
107
107
107
107
110
107
112
117
115
112
117
117
120
125
127
129
134
129
132
129
132
142
144
144
139
117
117
112
115
110
110
110
107
105
103
107
112
117
112
112
115
112
110
105
103
103
105
103
100
93
93
95
103
105
100
93
95
100
105
105
110
112
112
115
112
112
112
112
115
112
117
122
117
112
115
117
120
127
127
127
129
132
134
132
132
137
142
144
142
117
115
115
115
115
112
115
112
110
107
112
112
115
107
110
117
117
115
110
110
110
112
110
105
100
103
107
110
107
105
100
103
105
105
107
105
112
112
110
117
115
115
117
117
115
117
120
117
115
117
120
122
129
125
120
129
139
137
137
134
134
134
139
139
117
117
117
122
120
117
122
125
120
115
115
115
112
112
117
122
122
117
115
117
117
117
117
115
110
105
105
105
105
105
107
107
107
107
107
103
110
107
103
110
117
117
117
115
115
115
117
122
120
122
120
122
125
122
125
129
134
134
132
129
134
139
142
142
117
120
120
127
129
125
125
132
129
125
122
120
115
115
120
120
125
122
117
122
125
122
117
117
110
105
100
100
105
107
107
107
112
110
107
103
105
105
100
107
115
122
120
117
117
112
117
122
122
122
122
122
122
117
122
129
132
134
129
129
134
139
144
144
117
122
125
129
132
127
127
134
134
127
125
122
117
115
112
115
120
112
110
117
125
125
120
115
107
105
100
103
105
103
105
115
115
107
110
112
110
105
105
110
115
117
120
122
122
117
117
120
117
115
117
125
125
120
122
129
132
132
129
134
134
134
142
142
120
127
129
132
132
127
127
129
129
129
125
125
122
117
110
112
117
110
105
112
117
117
117
117
112
105
103
103
98
98
98
110
115
110
115
117
115
110
105
110
117
120
120
120
122
125
122
120
117
117
122
127
127
127
129
132
132
132
132
134
132
132
139
142
127
129
129
129
127
132
132
127
122
125
125
125
125
120
115
112
117
110
103
110
110
115
115
117
112
105
105
105
103
100
98
103
107
112
120
122
117
115
110
112
115
117
120
117
120
125
127
127
125
122
127
127
132
129
134
137
134
134
134
137
134
137
137
142
132
132
132
129
125
129
129
127
125
125
127
125
127
127
125
122
125
122
117
115
115
117
120
120
115
110
107
105
105
103
103
103
107
117
122
122
120
120
112
115
115
115
117
117
117
125
129
129
127
122
122
125
129
132
129
134
132
132
137
142
139
139
139
142
132
132
137
134
132
127
125
127
129
129
132
132
125
125
127
127
129
129
129
122
122
122
122
122
115
112
110
110
107
100
98
103
110
117
117
117
115
117
115
115
117
117
117
120
122
125
129
132
129
125
120
127
129
132
134
137
134
134
137
139
139
139
142
147
134
139
139
139
139
132
129
134
129
129
137
134
129
125
129
132
129
134
134
127
127
127
125
122
117
120
122
115
107
103
103
103
110
112
112
112
112
115
117
117
120
120
120
127
125
122
125
127
129
127
127
129
132
132
137
139
139
139
139
144
144
142
142
142
137
139
142
139
137
132
132
129
125
127
137
134
127
127
127
127
127
132
132
127
125
120
120
120
120
127
127
120
112
107
105
105
107
110
110
110
112
117
120
120
120
122
125
122
122
122
122
122
127
127
129
129
134
134
137
137
137
139
142
144
142
142
139
137
137
134
137
137
132
129
129
129
127
127
137
134
127
127
129
125
127
125
125
122
120
120
117
122
122
125
127
122
120
117
112
105
105
105
107
107
112
112
115
120
125
125
125
122
125
125
125
122
122
122
125
127
134
137
134
132
129
129
134
137
144
142
137
132
134
134
137
134
125
122
125
127
127
125
129
132
127
129
132
127
122
115
117
122
120
120
120
122
125
127
129
125
122
120
117
112
105
103
103
107
107
110
110
117
122
122
122
125
127
125
125
125
125
122
125
125
129
129
125
125
122
125
125
132
137
139
134
129
134
134
132
125
117
117
120
122
122
120
120
122
125
127
127
122
112
117
122
122
120
115
120
127
127
127
132
125
120
122
120
117
112
105
103
105
105
107
103
107
115
120
120
120
122
120
117
120
122
122
120
127
127
122
120
120
122
125
125
129
137
139
137
132
129
125
115
110
105
103
103
105
107
105
105
110
112
117
117
115
115
120
122
122
120
117
120
125
125
125
132
127
122
127
122
120
117
112
112
110
105
105
100
100
105
112
117
117
115
110
105
112
120
125
127
132
132
127
122
122
127
129
127
129
132
134
134
127
112
105
98
93
89
84
86
86
89
89
89
91
93
95
98
103
105
105
105
103
103
105
110
115
120
122
122
127
125
122
120
120
115
110
112
112
103
103
105
103
100
103
110
117
117
110
105
110
120
122
129
134
132
129
127
129
129
132
129
125
127
125
125
125
91
86
80
76
74
74
76
76
76
74
74
78
78
80
82
82
84
84
86
86
86
86
91
98
103
105
112
115
117
115
112
112
105
100
107
105
107
110
110
110
107
107
110
115
117
110
107
110
115
120
125
132
132
129
129
134
134
132
129
129
120
117
117
122
78
72
68
68
68
68
68
70
74
68
68
72
74
76
78
72
66
68
68
70
72
76
78
82
86
91
95
100
105
105
105
105
103
100
105
110
115
115
117
122
122
117
115
117
115
107
105
110
112
115
120
127
129
132
132
129
132
129
129
129
122
120
122
127
74
70
68
70
68
64
60
64
68
70
70
72
74
74
70
62
64
62
60
60
62
68
74
76
76
78
78
82
86
91
93
95
100
100
103
105
107
107
110
120
122
120
120
120
117
112
112
115
120
120
115
120
122
129
134
127
127
132
129
129
125
127
132
132
72
68
70
70
70
66
64
66
70
74
72
68
68
68
64
60
64
64
64
62
64
62
68
72
74
78
78
72
78
82
84
89
93
93
91
91
91
95
103
107
115
115
117
120
122
120
120
120
122
122
120
117
120
127
134
129
132
134
127
129
129
132
137
137
66
64
68
68
68
66
64
68
66
70
70
70
68
66
68
66
62
66
70
66
60
62
64
70
74
78
78
74
76
82
80
82
84
82
80
82
86
89
93
98
107
115
112
115
120
120
120
117
122
127
132
129
125
125
132
132
132
129
122
127
132
137
134
137
64
66
72
70
70
68
68
70
70
70
72
70
68
72
76
72
64
66
68
64
58
60
62
66
70
74
70
72
76
80
80
78
80
80
74
76
80
89
93
91
100
110
112
115
117
117
117
120
125
129
134
129
129
132
129
132
129
125
125
129
134
137
134
132
66
70
72
72
66
68
74
74
70
72
74
70
72
74
74
76
72
70
70
68
66
66
66
70
74
76
72
76
80
78
78
78
76
76
74
76
80
89
98
95
107
112
115
112
112
115
120
125
125
127
127
127
132
132
129
127
127
125
127
132
134
132
129
127
70
76
76
70
68
72
76
76
76
76
76
78
82
84
82
80
80
78
76
72
72
74
74
76
78
78
76
78
80
78
82
82
78
78
78
82
86
89
100
105
117
120
120
112
107
112
122
125
125
127
129
132
134
137
134
127
127
132
132
134
132
132
137
134
74
82
84
84
82
80
78
80
82
84
86
91
95
95
95
93
89
84
80
76
80
78
78
82
84
84
82
82
82
84
86
93
91
89
89
89
89
95
103
110
122
122
120
112
107
115
120
117
117
117
122
127
129
134
134
129
129
134
129
127
129
132
137
137
84
93
95
98
98
100
98
95
95
98
103
107
107
105
100
100
100
93
86
82
84
84
86
91
93
93
91
93
98
95
93
93
93
93
98
100
100
100
105
112
120
122
122
115
112
117
120
110
110
110
110
117
122
125
127
127
127
132
132
127
129
132
137
132
95
100
103
105
110
115
112
110
112
117
120
117
112
110
105
107
110
107
103
98
98
98
103
107
107
105
100
103
103
105
105
105
103
100
100
103
105
103
110
115
122
127
129
122
117
122
115
107
107
105
107
107
112
117
120
115
115
120
125
125
125
127
129
127
112
115
112
112
115
115
117
112
117
127
122
120
117
112
112
112
110
110
105
107
110
110
112
115
117
115
110
105
100
105
112
112
107
107
107
105
110
110
112
117
127
132
134
125
120
117
107
103
98
95
100
103
105
110
112
110
110
115
115
115
117
120
120
115
120
122
120
110
112
115
115
115
122
129
122
115
117
115
115
117
115
110
112
117
120
120
120
122
122
117
112
103
103
110
112
110
107
107
107
107
112
112
112
117
125
129
125
120
117
107
105
103
98
89
91
98
103
103
105
110
117
115
115
110
112
110
110
103
122
122
125
120
115
117
120
125
127
127
120
115
120
122
120
122
122
120
122
127
125
122
117
125
127
117
115
110
112
115
112
112
115
115
110
110
115
115
110
117
122
125
122
117
112
107
103
100
100
91
89
95
100
98
100
107
117
112
110
107
105
103
98
95
122
127
127
120
115
112
112
117
125
122
120
117
120
122
120
117
117
120
125
122
125
120
115
125
127
122
115
117
122
125
120
117
122
120
115
110
112
112
112
117
120
122
117
115
115
115
112
105
103
100
95
95
98
98
98
103
107
107
105
100
98
95
93
91
122
122
120
115
117
117
122
117
117
120
117
115
115
117
115
117
122
127
125
115
122
125
122
122
125
122
120
122
125
125
120
117
117
117
112
112
110
110
110
115
120
120
115
117
122
122
120
115
107
105
105
103
98
98
98
98
103
107
105
98
91
93
89
89
127
122
120
117
120
120
120
120
117
115
112
110
107
110
115
120
125
129
127
120
120
122
125
127
127
125
125
122
122
122
122
115
112
112
112
110
110
112
115
115
115
115
120
125
129
127
125
122
117
112
112
110
100
98
100
98
98
100
103
95
91
91
89
89
125
122
122
122
117
112
117
117
110
110
115
115
107
107
110
120
125
125
125
120
117
115
115
117
120
122
122
120
122
125
125
120
112
110
115
115
112
112
117
122
122
125
127
125
127
127
127
127
122
122
120
115
107
100
103
105
100
98
100
93
86
86
86
86
127
122
117
117
112
112
117
120
115
112
112
115
112
105
107
120
125
125
122
120
117
115
115
115
112
117
117
115
115
122
125
117
115
115
117
115
112
112
112
122
127
127
127
122
122
122
125
125
122
127
127
122
117
112
110
110
103
98
95
95
89
86
86
86
122
122
122
120
115
117
117
117
117
112
107
115
115
112
115
120
120
127
125
125
122
117
117
115
117
115
112
117
117
120
117
115
120
120
112
112
112
110
110
115
122
122
122
122
120
122
125
127
125
129
132
129
127
127
122
115
107
100
95
95
93
91
91
86
115
120
127
122
120
120
120
117
117
112
110
115
115
115
115
117
120
125
125
125
120
117
120
115
117
112
112
117
125
122
117
115
115
112
110
110
107
107
110
112
120
120
117
120
127
127
129
129
129
132
134
134
134
137
134
129
120
115
107
103
100
100
98
95
115
115
120
122
122
120
117
115
115
112
115
115
112
112
112
115
122
122
125
120
117
117
122
115
112
112
115
115
117
120
115
115
112
110
110
105
103
103
105
110
120
122
122
125
127
127
134
134
129
132
134
139
137
137
137
134
129
125
122
117
115
115
112
107
129
125
120
122
122
120
117
115
115
115
115
110
110
110
110
112
117
120
117
112
115
115
120
115
110
112
115
115
112
112
112
110
112
112
103
95
95
95
98
110
125
127
122
120
120
125
132
129
129
132
132
134
134
134
134
132
129
132
132
132
132
129
122
122
134
129
125
127
125
122
117
117
120
120
112
107
110
110
110
112
115
120
122
115
112
112
117
115
110
112
117
115
112
110
110
110
110
105
100
98
98
100
100
107
125
125
122
120
117
122
127
127
129
129
129
134
134
134
134
134
134
137
137
137
139
134
127
127
127
122
122
127
125
120
120
120
122
115
110
110
115
115
115
112
110
115
120
120
115
112
115
115
110
112
120
120
117
117
115
107
107
105
105
103
98
100
103
105
122
120
115
112
117
120
122
127
129
125
127
132
134
134
134
132
134
137
142
142
139
134
127
127
120
120
122
122
120
122
122
120
122
117
110
110
112
117
115
112
107
112
117
117
115
115
120
115
107
110
117
117
117
120
120
110
105
105
105
103
103
98
100
107
120
122
117
117
122
122
125
127
127
125
125
129
127
132
139
137
137
139
137
142
139
137
134
132
122
122
122
115
115
120
125
122
122
122
117
112
112
117
115
115
105
107
117
120
112
115
117
110
110
112
117
115
115
115
115
112
110
107
107
105
100
98
105
107
115
127
127
127
125
125
125
125
127
127
125
120
120
125
132
134
134
134
134
144
142
137
137
134
120
120
117
117
112
117
127
129
127
122
117
115
117
120
120
112
105
105
112
117
112
115
115
115
112
115
117
117
117
112
110
112
115
112
107
103
100
100
100
103
107
120
127
127
125
122
122
122
120
122
122
120
120
122
127
127
127
129
137
142
139
139
139
137
117
115
115
117
117
117
122
125
122
120
117
117
120
122
117
110
103
103
107
110
115
117
120
120
117
115
112
115
115
112
115
112
115
112
107
103
103
107
103
98
103
110
117
120
117
117
120
122
125
120
120
120
122
122
125
127
129
134
137
139
137
137
134
134
120
115
110
115
112
112
112
112
120
122
122
122
125
122
115
107
98
100
103
105
110
115
115
120
122
117
110
107
115
115
115
110
110
110
107
105
110
110
105
100
100
103
112
115
112
115
120
125
129
129
125
125
127
127
129
129
132
132
132
139
139
134
132
132
115
110
110
112
112
110
112
115
125
125
122
125
125
125
115
107
103
103
105
105
110
112
107
112
120
120
112
110
110
107
107
105
105
105
107
107
107
107
107
107
103
100
105
112
115
115
122
127
127
129
129
122
122
127
127
127
127
127
129
134
134
132
129
129
115
115
115
115
117
112
115
120
125
127
125
117
120
120
112
107
107
100
98
105
112
112
110
110
117
120
115
115
110
110
105
105
107
110
100
100
105
107
110
112
110
105
110
115
115
120
125
132
127
127
125
120
122
125
125
125
120
122
129
129
129
127
127
127
115
115
120
122
125
122
120
117
120
122
120
115
117
117
112
110
110
110
100
105
112
110
112
110
115
117
112
112
107
107
105
105
110
110
107
105
110
110
110
112
110
107
112
112
112
115
122
125
125
125
122
125
127
129
129
127
120
122
125
125
125
122
129
129
120
117
120
122
129
125
120
120
120
117
115
115
117
107
112
115
110
115
110
105
107
110
107
107
115
117
112
107
107
107
103
110
110
110
112
112
117
115
115
117
112
110
110
112
112
117
122
122
122
125
125
127
125
132
132
132
122
117
122
127
127
127
127
125
117
115
112
117
125
122
125
120
117
115
112
112
115
110
110
112
110
115
112
105
103
107
103
107
117
117
112
107
100
100
105
112
112
117
115
117
117
117
120
120
115
110
110
112
115
117
122
127
125
127
129
127
125
129
134
132
122
120
122
129
132
127
129
127
115
117
117
117
122
127
125
112
110
112
110
107
115
112
105
107
107
112
112
107
107
105
105
110
112
115
110
105
103
100
105
115
120
120
117
122
122
122
122
122
115
112
110
112
112
112
122
127
127
127
129
127
127
132
129
129
125
120
120
120
120
120
125
125
115
112
115
117
120
125
117
110
107
110
110
110
115
110
105
107
110
115
112
112
115
112
112
112
112
112
112
107
105
105
107
112
117
120
122
127
125
125
127
122
117
112
110
110
110
110
115
125
129
129
129
129
129
132
127
132
129
120
117
115
110
115
117
125
115
115
120
125
122
120
115
117
112
112
112
115
112
110
110
112
115
115
115
112
115
115
112
112
110
105
105
105
100
105
107
110
112
115
122
127
125
122
125
122
120
117
110
110
105
105
107
115
122
125
125
125
127
127
127
129
129
117
112
115
115
117
125
127
120
115
120
120
117
115
110
115
117
112
112
110
107
110
112
115
112
112
115
110
112
110
107
112
105
103
103
100
98
103
107
107
110
115
122
125
125
122
122
120
117
117
110
105
105
103
105
110
115
122
117
117
120
120
122
127
127
120
115
117
120
122
120
120
115
117
122
122
117
117
110
110
117
120
115
112
107
110
112
115
112
115
115
112
112
107
107
107
103
100
100
98
98
107
107
107
110
115
125
122
125
125
117
117
115
112
112
112
110
107
107
112
115
122
117
117
120
117
120
122
125
122
120
117
120
120
115
117
115
120
122
120
117
117
115
112
115
117
117
112
107
103
107
110
112
117
120
117
115
107
105
110
107
105
98
93
98
107
112
115
115
115
120
120
122
122
120
120
115
112
115
115
115
112
112
115
117
117
117
120
117
120
122
122
122
125
127
122
117
120
120
120
120
117
120
117
117
112
112
112
112
115
115
110
107
103
110
112
107
112
117
120
115
110
105
110
115
112
107
95
95
105
110
120
122
117
117
125
122
127
127
122
120
115
115
117
115
112
112
115
117
120
117
117
117
120
122
122
120
125
127
122
117
120
117
122
