P2
# 246 of 608 Angiograms
64 64
255
172
174
176
172
170
170
172
172
172
174
176
176
174
172
170
170
168
168
170
172
176
176
174
172
165
170
170
163
161
161
159
159
159
159
159
161
159
154
156
144
125
105
93
84
78
76
80
86
100
112
125
132
132
129
125
117
115
112
100
91
82
72
66
68
172
172
176
176
172
170
172
170
170
170
170
172
172
170
170
168
168
168
168
170
172
174
172
170
168
168
168
163
163
159
156
154
156
154
159
159
156
151
151
139
117
100
93
86
80
82
86
91
107
125
137
144
144
134
125
117
117
117
110
98
86
76
72
76
174
176
176
176
176
172
174
174
172
170
170
170
168
168
168
170
170
170
170
170
172
172
172
170
163
161
163
163
163
161
156
156
159
156
154
154
151
151
147
132
115
98
93
86
82
89
91
98
115
134
147
154
154
144
129
120
117
117
115
103
93
82
76
76
174
172
172
172
176
174
176
178
176
172
172
168
165
165
168
170
172
172
172
170
172
172
172
174
170
165
165
168
165
161
159
156
159
156
151
149
149
151
144
127
110
98
93
86
89
91
93
100
117
139
154
159
159
151
139
127
125
122
115
103
98
89
80
78
174
172
172
174
174
176
178
180
178
176
174
172
170
170
170
168
172
172
170
170
170
170
170
174
172
172
172
172
168
163
163
163
163
161
154
151
151
149
139
122
110
98
91
91
93
93
93
100
120
142
159
161
161
159
149
137
127
122
115
105
100
89
84
82
176
176
176
178
176
178
180
180
180
178
176
172
170
170
172
170
170
172
168
168
170
168
170
174
172
172
172
172
168
165
165
168
170
168
161
156
154
144
134
122
107
95
89
91
95
95
95
100
122
144
156
159
161
163
159
147
132
120
112
105
100
89
84
80
176
178
178
178
180
180
180
180
182
180
178
174
170
172
174
170
168
170
168
170
170
163
168
170
170
168
170
170
168
165
165
168
170
170
165
161
154
144
132
120
105
91
89
91
89
95
98
100
122
144
156
161
163
165
163
156
142
127
112
105
98
89
82
78
178
180
176
178
182
182
180
180
182
182
180
176
172
172
172
172
168
168
170
170
165
163
165
168
165
163
168
172
172
170
170
170
172
172
170
165
156
144
129
117
105
89
89
91
93
95
98
103
122
142
156
163
163
165
165
161
149
137
120
105
98
86
80
84
182
182
176
176
180
180
180
180
180
182
180
178
174
172
170
172
172
174
172
170
168
163
163
165
165
161
168
174
174
174
174
172
174
174
170
165
156
144
129
115
105
91
89
93
98
100
100
100
120
139
156
161
165
165
168
165
154
144
129
112
100
89
78
84
182
182
178
178
178
180
182
182
184
180
178
176
172
172
172
172
174
176
174
170
170
170
168
168
165
161
168
172
172
170
170
172
174
172
170
165
159
142
127
112
105
93
91
95
103
100
98
100
117
137
154
159
159
163
165
163
154
149
137
122
107
95
86
84
180
182
180
180
178
180
180
182
184
180
176
176
172
174
176
176
174
172
172
168
168
170
172
170
165
163
165
170
170
170
170
172
174
172
170
165
159
144
129
112
103
93
93
98
103
100
95
98
115
134
149
151
154
156
156
156
151
149
142
132
115
100
93
86
182
184
184
182
182
178
180
182
182
182
180
176
176
176
176
174
172
172
170
168
165
168
168
165
163
163
168
168
170
172
174
176
174
172
168
168
161
147
129
112
100
91
93
100
100
98
95
98
112
132
149
151
156
159
159
156
154
147
144
139
122
105
93
91
180
182
182
184
184
182
182
180
180
180
180
178
176
174
174
174
172
170
170
168
168
165
163
163
161
163
165
170
172
174
176
176
174
170
163
163
163
149
129
112
98
91
93
98
98
95
91
95
110
129
149
159
163
165
165
161
159
154
149
144
134
112
95
93
182
184
186
188
188
186
182
180
180
180
178
176
174
174
172
172
172
172
168
168
170
168
163
163
163
163
163
170
174
176
178
174
172
168
161
163
163
151
132
115
98
95
93
93
93
95
93
98
110
129
149
161
165
165
163
161
163
161
156
151
142
122
103
91
180
182
182
184
182
182
180
178
180
176
174
178
176
174
172
174
172
172
172
170
170
165
163
161
161
163
168
170
174
176
176
172
170
168
168
165
163
154
134
115
100
100
98
98
95
100
100
105
115
132
149
161
163
165
168
168
168
165
163
156
149
134
112
100
180
180
178
180
180
180
176
176
176
172
174
176
176
176
176
178
176
172
170
168
168
163
161
163
165
168
170
172
174
172
172
170
165
165
170
170
168
159
137
117
103
100
98
95
95
103
107
112
120
134
149
161
165
170
172
172
168
163
161
156
154
142
125
112
180
182
180
180
180
178
174
176
174
172
172
176
176
178
178
178
176
170
170
168
168
163
163
168
170
170
174
174
172
172
172
168
163
163
165
170
170
161
142
120
105
98
93
93
93
105
112
115
122
134
147
159
170
172
170
168
168
163
159
156
151
144
134
125
180
180
182
178
178
178
176
174
174
172
172
178
180
180
178
176
174
170
170
170
170
168
168
170
174
176
176
174
172
174
172
168
163
163
168
170
170
163
144
122
105
98
95
95
93
105
110
117
122
129
139
154
165
172
168
168
170
168
161
156
147
147
139
132
176
178
180
180
182
178
176
174
172
172
174
176
180
182
180
176
174
170
172
172
170
170
165
165
172
174
176
172
172
174
176
170
168
168
170
170
170
163
147
127
107
98
100
98
95
107
115
120
125
129
134
142
154
165
170
170
170
170
161
151
144
142
139
132
176
176
178
180
180
178
176
172
172
172
174
178
180
182
180
178
176
176
176
174
172
168
165
161
168
172
174
172
172
174
176
172
165
170
170
168
168
165
151
132
112
98
98
100
100
107
115
122
129
132
132
132
142
156
165
170
170
170
161
151
144
139
134
129
178
178
176
178
178
176
172
172
174
174
174
178
182
182
178
176
180
178
178
174
174
170
165
165
170
174
174
174
172
174
176
174
168
170
170
168
165
163
154
137
115
100
98
100
100
105
112
122
129
134
134
125
129
142
159
168
172
170
161
154
144
134
129
125
180
178
176
176
176
174
174
172
174
176
176
178
178
182
178
176
180
180
178
174
174
172
168
168
172
176
176
174
172
172
172
172
172
172
170
168
168
165
156
139
120
105
105
103
105
105
110
117
129
142
142
127
125
134
151
163
170
165
161
151
144
134
129
122
180
178
176
176
178
174
172
172
174
176
176
176
178
182
180
180
178
178
176
176
174
172
170
170
174
178
176
174
172
170
172
172
174
172
168
165
168
163
156
142
122
110
107
110
107
107
112
117
129
144
144
132
125
132
142
156
163
161
159
151
144
137
129
125
178
178
178
178
178
174
172
170
170
172
174
176
182
182
182
180
180
178
176
176
174
172
174
174
174
176
174
176
174
172
172
174
174
170
170
170
168
163
156
144
127
115
112
110
112
115
115
120
127
139
144
137
129
132
137
151
156
159
156
149
144
137
127
127
178
178
178
178
176
176
172
170
170
172
174
178
182
184
182
184
182
180
178
176
172
176
176
176
174
174
176
176
176
172
172
172
172
172
172
170
168
163
156
144
129
117
115
115
117
120
120
117
122
132
139
137
129
127
132
149
154
154
154
147
142
134
129
132
178
178
178
178
178
176
174
172
174
176
176
178
184
186
182
182
182
182
180
176
172
176
178
178
176
176
178
178
178
174
174
174
172
170
170
170
168
163
154
142
127
117
112
112
112
117
117
115
117
122
127
129
127
122
132
149
156
154
154
147
137
134
134
134
180
178
176
178
178
178
176
176
176
176
182
182
182
182
180
182
182
182
182
178
174
178
180
178
178
180
178
176
178
174
172
170
168
165
165
165
165
159
147
134
125
112
107
112
110
112
110
107
103
103
103
110
120
125
134
149
161
156
149
147
137
134
134
134
184
184
180
180
182
182
180
178
178
178
180
180
180
178
178
182
184
184
182
180
178
180
182
182
180
180
178
176
174
170
168
161
156
149
149
149
149
144
134
122
105
95
95
98
98
98
93
89
82
80
82
93
107
122
134
144
154
151
147
147
139
139
139
137
186
188
184
184
186
186
186
184
184
180
178
176
178
178
180
182
182
180
178
180
182
186
186
184
182
182
178
174
170
163
156
149
142
137
137
134
134
125
112
86
68
64
68
78
82
80
76
70
68
64
68
78
91
110
122
132
137
137
139
139
139
139
137
137
186
188
186
186
186
190
190
188
184
178
174
174
178
182
182
182
180
176
180
182
184
186
186
186
184
180
174
168
161
151
144
134
129
132
129
127
125
115
86
58
40
34
39
50
58
60
64
60
58
60
66
74
82
95
105
112
115
120
120
122
127
129
129
129
188
190
190
188
190
190
190
186
182
176
176
176
180
182
180
182
180
178
180
184
186
186
184
182
178
172
163
154
147
137
129
125
127
127
127
127
125
105
68
45
29
22
26
35
43
52
57
60
62
62
68
76
82
89
95
95
95
98
98
100
105
110
112
112
186
188
188
188
190
188
186
184
178
176
176
176
178
180
180
178
176
176
178
182
182
180
178
174
165
156
147
139
134
129
122
122
122
125
127
129
125
107
76
50
33
25
26
34
41
50
52
57
64
68
76
82
86
84
84
84
82
84
86
89
93
98
98
98
186
188
188
190
188
188
184
182
176
176
172
172
172
172
172
172
170
170
172
174
174
172
168
161
149
139
132
132
127
122
120
120
120
122
129
132
132
122
98
66
47
37
36
40
47
53
57
64
68
78
89
93
89
84
84
82
74
72
78
80
86
91
93
95
182
188
190
188
186
186
184
180
176
172
170
168
168
165
165
168
168
170
168
163
161
159
149
139
129
125
127
125
120
120
120
117
122
129
139
142
142
139
129
107
82
64
57
57
60
66
68
72
78
84
98
107
100
91
84
80
72
72
74
78
82
86
91
93
182
186
188
184
184
184
182
178
174
170
168
168
163
159
161
165
168
165
159
147
139
132
127
117
115
117
120
117
117
117
117
122
129
142
149
151
156
156
151
144
129
105
89
80
78
76
76
80
82
91
103
112
110
103
93
84
78
76
74
74
76
80
86
91
182
182
182
182
182
180
176
174
172
170
172
170
165
163
163
163
161
154
139
129
122
115
105
105
107
110
117
117
117
120
125
134
144
151
156
156
159
161
163
161
149
132
120
107
98
91
89
89
91
100
107
112
115
112
105
95
89
82
78
76
78
74
78
86
184
180
176
176
176
172
170
168
172
172
176
172
170
165
161
159
151
137
125
115
105
103
100
98
100
107
115
120
122
129
139
149
156
163
163
165
161
161
165
165
161
144
132
122
117
112
110
105
105
107
115
120
120
117
115
105
98
93
89
84
84
82
80
82
178
174
174
172
168
163
165
170
174
178
176
172
170
165
156
149
137
120
110
103
100
98
95
98
103
107
117
122
129
142
151
161
165
168
168
168
168
165
168
168
165
151
137
129
122
122
122
120
120
120
125
129
129
127
125
117
110
105
100
93
86
82
78
80
176
174
170
165
161
163
170
174
178
178
176
172
165
154
144
129
117
107
100
98
95
93
95
100
103
107
115
125
137
151
159
168
170
170
170
168
168
168
168
168
168
156
142
134
127
125
125
122
122
125
129
137
142
142
134
132
127
120
115
107
103
93
86
84
168
165
163
161
163
168
174
178
178
176
170
163
149
137
122
110
103
100
95
91
91
89
95
100
103
105
115
127
142
149
159
168
172
172
170
163
163
165
168
172
170
159
144
137
129
125
122
117
117
127
132
144
147
149
147
139
132
132
129
125
122
112
103
95
159
159
163
168
165
168
176
180
176
170
159
144
129
120
107
100
98
98
95
91
91
93
95
100
103
105
115
132
142
142
151
163
174
172
168
163
163
168
170
172
170
161
144
134
125
115
120
120
117
127
132
144
144
144
144
144
139
134
137
137
134
129
120
110
151
154
161
165
165
168
172
174
168
154
137
127
117
107
95
91
93
95
93
91
91
93
95
95
95
103
115
134
144
147
149
156
165
168
165
165
165
170
172
170
170
159
147
132
117
115
122
122
112
122
129
137
142
142
147
144
142
139
139
137
137
132
127
120
151
151
154
161
163
168
165
163
149
132
120
112
103
91
86
91
91
93
91
86
89
93
89
91
95
105
125
137
147
151
156
159
161
163
161
163
165
168
170
170
168
159
144
129
117
112
117
122
117
117
127
134
139
144
144
139
137
139
137
134
134
129
129
127
161
159
156
161
163
161
154
139
125
112
103
93
86
84
82
86
91
89
86
84
84
86
86
91
100
115
132
144
151
156
159
156
159
159
161
163
163
165
165
170
165
156
142
127
115
110
115
120
120
120
127
134
139
147
142
139
139
134
134
137
132
129
129
132
168
165
163
161
159
147
132
117
105
95
91
84
82
78
76
78
82
86
86
82
82
86
91
98
110
127
142
154
156
156
156
159
161
159
161
163
163
165
165
168
165
156
142
127
117
112
117
122
120
120
125
134
144
147
144
139
137
134
137
137
132
134
137
134
170
163
161
156
144
127
112
100
95
91
89
82
78
80
78
78
80
84
86
84
86
93
98
105
122
142
154
159
161
161
161
161
161
159
159
161
161
163
168
170
165
154
142
127
120
112
115
122
120
115
122
137
147
142
142
137
134
134
134
134
134
134
134
129
170
163
154
139
120
105
98
93
91
89
84
84
82
82
82
80
80
86
89
86
95
98
105
120
142
154
163
163
165
165
161
161
159
159
159
161
163
163
168
165
165
156
142
129
122
115
112
115
115
112
120
139
144
144
142
139
137
134
134
134
134
129
132
127
165
154
137
117
103
93
89
86
86
84
80
82
86
84
82
84
86
89
91
95
100
107
117
139
154
161
165
165
165
165
168
165
163
163
161
161
163
165
168
165
165
156
142
129
122
120
112
110
112
115
120
139
147
142
147
142
137
129
129
132
127
127
129
127
144
132
112
98
91
84
84
82
86
84
82
80
82
82
80
84
89
95
98
105
112
122
142
154
156
159
161
163
163
168
170
170
165
163
159
161
165
170
170
168
165
154
142
129
122
117
112
112
112
112
120
139
147
144
144
142
134
127
129
127
129
129
127
129
120
107
98
89
84
76
82
82
82
84
82
82
82
84
86
86
93
98
105
115
127
144
159
161
159
159
159
159
161
168
172
170
165
163
159
161
168
170
170
165
159
151
142
129
122
117
115
115
115
117
122
137
144
144
139
134
132
127
132
132
132
132
129
129
100
93
86
84
84
76
78
80
80
82
82
82
84
86
89
93
98
105
117
132
147
161
168
170
165
163
161
159
165
170
172
168
163
163
161
161
163
168
168
161
156
151
142
129
122
117
117
117
115
117
122
137
144
144
137
137
134
132
137
137
132
127
132
134
86
84
80
78
82
78
76
78
80
82
86
86
86
91
95
100
110
125
137
151
163
170
170
170
170
170
163
163
168
170
170
168
165
163
159
161
163
165
161
159
156
151
144
132
125
115
112
112
115
117
122
137
147
149
144
139
137
139
139
139
137
134
134
134
91
84
80
78
76
72
74
76
78
82
91
91
95
103
110
120
132
142
151
163
168
170
172
170
170
172
170
165
168
170
170
168
168
165
163
161
161
161
161
161
159
154
149
137
125
117
110
110
115
117
125
137
147
149
144
139
137
139
139
139
142
142
137
132
91
89
86
82
78
76
76
78
84
86
93
100
107
120
132
142
149
156
163
168
168
170
170
170
168
168
165
165
165
163
165
168
170
165
165
163
161
159
156
159
154
151
151
144
129
120
112
110
112
117
127
137
147
149
147
139
134
137
137
137
137
139
134
134
91
89
86
84
80
82
84
86
89
95
103
112
127
142
151
154
156
163
168
170
170
168
168
163
161
161
161
163
161
161
163
165
168
165
165
163
161
156
154
156
154
149
149
144
129
122
112
115
120
120
129
139
147
149
147
144
137
134
134
134
132
129
132
137
93
89
84
82
82
82
89
93
100
110
120
132
144
154
159
159
154
159
163
168
168
165
165
161
159
151
156
159
156
156
161
161
163
163
163
161
159
156
154
156
154
151
147
139
132
120
110
115
120
120
129
144
149
151
147
142
139
132
134
132
129
134
137
134
98
95
89
84
84
89
93
100
112
125
137
147
151
156
159
159
151
151
156
159
161
163
161
161
156
154
159
159
159
156
159
161
159
156
159
159
159
156
156
156
154
151
144
137
129
120
112
115
117
122
129
144
149
149
144
139
139
134
137
137
134
137
137
134
98
98
95
95
95
98
103
112
127
137
147
151
149
149
156
156
149
149
151
154
159
163
161
161
156
156
156
159
163
161
159
156
151
154
156
154
154
156
156
156
154
151
147
142
132
120
115
115
117
122
127
139
144
144
139
142
142
137
139
139
137
134
134
132
93
95
100
103
105
107
117
127
137
144
151
149
144
147
151
149
147
144
147
154
159
163
163
161
156
154
156
159
161
159
156
151
149
151
154
154
151
151
151
154
154
151
144
139
129
120
115
117
117
115
122
134
137
137
139
142
139
137
137
134
132
127
129
129
93
103
107
112
122
129
137
142
144
147
149
147
137
139
147
147
144
144
144
149
156
159
159
159
156
156
159
163
161
159
154
149
151
149
149
144
142
147
149
149
151
147
139
137
129
120
117
115
115
110
112
120
127
129
132
132
134
137
139
132
127
122
125
129
107
115
125
137
147
149
149
149
149
149
147
144
137
137
142
144
142
142
142
144
151
156
156
159
161
159
159
159
156
151
147
144
149
147
142
139
142
142
142
144
144
144
139
137
127
120
117
112
110
107
110
112
115
117
125
127
127
132
134
132
129
127
127
132
125
137
151
161
163
163
159
154
154
149
147
142
137
139
139
139
137
137
139
144
151
154
156
159
161
159
159
154
151
151
151
147
147
144
144
142
142
139
137
132
134
139
139
137
127
120
115
107
103
107
110
110
107
110
115
122
122
125
129
129
127
127
129
134
147
156
168
174
174
168
163
159
154
151
147
144
139
137
139
134
132
129
129
137
147
149
154
159
159
156
156
151
149
154
154
149
144
144
144
142
137
137
134
132
134
137
137
134
127
122
115
107
103
110
112
112
110
110
112
115
117
122
122
122
122
122
127
129
161
170
174
176
176
170
163
159
159
156
151
147
142
139
137
134
132
127
127
132
142
149
156
159
161
156
154
151
147
147
147
149
147
144
139
137
134
134
132
129
132
137
137
134
127
120
112
110
110
110
117
120
115
110
112
117
122
122
117
117
117
117
122
125
