P2
# 248 of 608 Angiograms
64 64
255
125
129
127
122
125
122
120
125
120
117
115
110
112
117
112
112
115
107
105
107
105
107
112
110
110
110
120
117
115
112
117
115
117
115
112
110
117
125
125
125
120
117
120
127
132
129
127
125
129
134
134
134
134
129
127
127
122
122
122
125
122
120
120
127
129
132
132
125
122
125
125
127
125
122
122
117
115
120
115
112
107
110
110
112
110
112
112
110
112
115
117
117
112
107
115
117
110
110
112
112
122
125
127
127
122
117
115
120
127
129
127
127
132
134
129
132
132
129
129
127
129
127
122
125
127
125
120
122
127
129
127
122
120
125
127
129
127
125
122
120
120
120
115
115
110
115
115
117
112
107
112
110
110
115
120
117
112
107
112
112
110
112
112
115
122
125
125
122
122
117
112
122
122
127
129
129
134
132
132
132
132
129
129
129
132
132
125
125
129
132
127
125
120
122
122
125
122
125
122
122
125
122
117
120
122
120
117
112
105
112
120
115
110
112
117
112
115
117
122
115
112
112
115
112
110
115
112
112
117
127
125
120
122
120
117
120
125
127
129
134
137
134
132
132
134
134
129
129
132
129
125
125
132
129
127
125
120
120
122
117
125
127
122
122
117
120
117
117
112
112
110
100
103
112
117
115
112
115
115
112
112
120
122
115
112
115
120
115
115
115
115
110
115
127
127
125
127
127
120
122
122
125
127
134
137
137
132
132
132
132
132
129
132
129
129
129
132
127
127
127
115
117
122
120
122
122
122
125
120
122
120
115
112
112
110
103
107
112
115
115
115
115
112
112
115
117
115
112
115
115
122
122
120
120
120
112
115
127
132
127
129
137
127
127
127
122
122
127
129
129
129
132
134
134
134
132
129
132
134
132
129
125
127
129
122
122
122
125
127
122
125
125
125
122
122
115
115
115
112
112
107
110
115
115
112
112
115
115
115
117
115
117
117
115
120
120
120
120
120
117
115
125
129
132
134
134
129
127
129
125
117
125
125
127
134
134
134
137
134
129
127
127
122
120
120
122
125
125
125
125
122
122
127
127
122
125
125
125
127
120
117
112
110
110
107
110
112
112
112
115
112
115
117
117
120
122
115
110
115
115
115
112
117
120
120
125
137
137
139
134
132
132
132
132
125
122
120
117
127
129
129
132
129
125
122
117
117
115
110
110
112
115
125
129
127
125
129
132
127
127
127
129
132
122
117
117
112
107
107
112
110
110
112
115
112
112
115
120
125
120
112
107
112
115
115
117
120
120
120
129
134
132
132
129
129
129
129
132
132
129
125
117
122
125
122
120
122
120
117
115
115
110
100
100
103
115
127
125
125
125
132
132
127
125
127
127
127
120
120
120
117
107
110
112
110
107
107
115
117
117
117
120
117
117
115
115
115
117
115
117
120
115
120
127
127
127
127
125
125
129
129
132
129
132
134
127
122
122
120
117
117
120
120
120
117
115
105
98
98
115
125
125
125
122
127
132
129
129
125
125
125
120
122
122
117
110
112
112
115
110
105
110
112
115
117
120
115
120
122
117
115
117
117
112
117
117
122
127
122
120
122
122
120
122
127
125
125
132
132
127
122
122
125
117
122
122
122
125
122
120
112
103
98
110
129
132
129
127
125
129
127
122
120
120
122
117
117
120
117
110
115
120
120
112
110
105
110
110
112
117
120
120
122
122
115
112
112
112
115
120
125
127
125
125
122
122
122
122
127
122
125
129
129
127
125
127
122
122
127
127
122
127
125
125
120
112
107
112
125
129
129
127
125
125
122
117
115
117
117
110
112
115
115
112
117
117
115
112
107
107
110
103
107
112
115
120
125
125
120
115
110
117
120
122
125
129
132
132
127
127
132
129
127
127
129
129
127
127
129
127
127
125
129
125
122
129
127
125
122
120
117
117
120
120
122
122
120
122
117
115
110
110
112
110
112
112
107
107
107
112
107
105
107
110
107
103
105
112
112
122
125
122
120
117
122
122
122
122
127
129
134
132
127
132
137
129
125
122
125
125
127
129
127
129
127
125
129
125
125
129
137
132
122
122
120
120
115
112
112
117
120
117
112
115
115
112
112
115
110
107
107
107
110
110
110
110
110
112
112
107
105
112
117
117
125
125
120
117
120
120
122
125
125
127
129
127
132
132
134
129
129
122
125
125
127
127
127
129
127
127
134
129
125
127
134
137
132
129
127
122
110
107
105
107
112
110
107
117
112
117
122
115
107
105
107
112
115
115
117
115
115
117
117
112
105
115
117
117
122
127
127
125
122
122
125
127
127
122
127
132
134
134
129
125
125
122
127
125
125
127
127
129
129
127
134
137
127
127
134
139
137
134
132
125
105
105
98
98
107
105
105
107
107
112
117
117
107
107
107
110
112
117
115
115
112
117
120
115
110
115
117
120
120
125
129
127
127
129
129
127
122
122
127
127
127
127
127
122
122
125
127
129
127
129
127
132
132
127
132
137
129
125
132
137
134
129
127
125
105
105
103
100
105
110
107
105
103
110
117
117
115
112
110
110
110
117
115
112
110
110
112
110
110
117
122
122
122
122
129
127
125
127
127
129
125
120
127
127
127
125
127
127
132
132
129
134
129
129
127
134
129
127
134
137
132
127
127
134
129
125
122
122
112
115
115
110
107
112
110
107
107
107
112
117
117
112
110
107
112
115
117
112
107
107
115
110
115
120
122
122
120
122
125
127
127
122
125
129
127
129
129
129
129
125
127
132
137
132
132
137
134
129
125
127
127
127
134
134
127
125
129
129
129
125
120
122
112
110
115
110
107
112
112
115
112
110
110
115
117
107
110
115
117
120
120
115
112
115
120
117
120
125
129
125
122
127
127
129
132
127
125
127
132
134
129
129
132
125
125
132
134
134
134
134
134
132
127
127
127
127
132
134
129
132
129
132
127
122
122
122
115
112
110
112
115
120
120
120
117
117
120
117
117
103
103
112
112
115
115
117
115
117
122
122
120
125
129
132
129
129
125
129
129
132
132
132
132
132
127
129
129
127
120
129
134
134
132
134
132
127
125
127
127
129
129
129
129
137
134
134
132
127
125
125
107
112
112
110
112
117
122
125
122
122
127
125
120
110
105
107
115
120
120
120
122
115
120
120
120
122
127
129
129
129
127
129
129
134
132
129
132
132
127
134
134
129
122
127
132
134
137
134
132
129
125
127
132
134
129
132
132
134
137
134
132
132
132
132
105
110
110
107
112
112
115
120
122
122
129
127
125
117
110
110
115
117
117
112
112
112
110
117
122
120
125
125
125
125
125
127
129
134
137
134
129
127
127
134
134
127
125
125
129
134
134
134
134
132
127
127
132
132
129
132
132
132
137
134
129
129
134
132
100
105
107
110
115
117
117
120
120
120
122
122
122
120
117
112
112
115
115
110
110
105
103
105
115
120
122
125
120
122
127
129
127
129
132
132
134
127
127
134
127
125
125
122
122
127
132
134
132
127
127
125
129
129
129
132
129
132
132
132
132
129
127
132
98
105
105
110
115
122
125
127
122
120
125
125
120
115
112
115
112
117
120
115
112
105
100
100
105
112
122
127
122
122
127
127
132
132
132
129
132
129
127
132
127
125
125
125
125
129
134
132
129
122
125
125
127
127
129
132
134
132
132
129
129
129
125
125
100
103
103
110
115
120
120
125
125
125
127
127
122
120
115
112
110
115
120
112
105
105
103
103
103
110
122
127
125
125
127
127
129
132
134
132
129
129
127
132
132
129
132
132
134
134
137
132
129
127
125
125
125
127
127
132
134
129
127
129
129
125
125
127
100
100
105
107
112
120
122
125
132
132
129
125
125
122
117
115
112
115
117
110
107
105
105
112
112
115
122
125
125
127
127
125
129
127
125
125
127
129
134
132
137
137
132
132
134
129
129
129
127
132
129
129
127
127
132
129
129
129
132
134
134
132
127
129
100
100
103
105
105
115
125
125
129
127
122
120
122
120
117
117
115
112
115
112
107
103
105
112
117
117
120
122
122
125
125
127
132
125
125
129
134
134
134
129
137
137
134
134
132
129
132
132
125
127
132
129
129
129
132
129
127
127
129
132
134
132
129
127
100
95
95
100
103
105
115
122
122
120
120
117
117
117
120
115
110
107
107
103
95
95
98
103
112
115
117
122
125
122
125
125
127
129
129
129
134
134
132
129
137
134
132
129
129
127
134
134
129
129
132
127
129
129
132
132
125
125
125
129
134
132
129
127
95
91
89
93
95
98
103
105
103
103
105
107
107
107
105
103
98
95
91
86
82
82
84
93
98
107
112
117
120
120
120
120
125
127
125
125
129
134
132
132
134
134
132
129
132
132
134
134
132
132
132
129
132
132
132
132
125
117
120
122
129
137
132
127
91
86
82
86
86
84
82
80
80
82
89
93
93
91
86
80
74
72
74
74
74
74
74
80
89
95
103
107
110
110
112
117
122
125
122
125
129
129
127
125
129
132
137
134
139
137
137
134
132
132
129
132
137
137
132
129
125
117
125
125
132
137
129
125
84
80
76
74
74
70
66
64
66
72
74
78
80
76
72
64
60
64
70
72
72
70
72
76
80
86
89
95
98
100
103
110
115
117
115
117
122
120
117
117
122
129
134
137
139
139
137
134
134
132
132
129
134
134
132
127
125
125
129
132
134
132
127
122
78
70
68
68
66
60
60
60
62
68
68
68
68
66
66
62
55
60
64
70
68
66
74
74
76
82
82
84
89
91
93
98
105
107
107
107
110
112
110
105
112
125
132
134
132
132
132
129
129
129
127
127
132
134
132
127
127
129
132
134
134
132
127
125
72
68
66
62
60
57
53
55
58
64
64
66
70
68
64
62
60
64
68
68
66
68
70
70
70
76
76
80
82
84
86
89
95
103
105
105
105
110
105
98
105
117
125
129
129
129
129
127
127
132
132
129
134
137
137
132
129
129
134
137
134
134
129
125
66
60
57
58
60
58
55
52
55
60
64
68
70
68
64
60
62
66
64
64
60
64
64
64
68
72
76
80
84
84
86
86
91
98
107
107
105
105
110
105
107
112
117
122
125
129
132
129
127
134
134
132
134
137
134
134
132
132
134
134
132
129
127
122
62
60
53
52
53
55
55
53
55
60
64
70
68
72
72
66
60
60
60
64
60
58
60
64
64
68
74
80
86
86
91
91
91
100
107
110
105
103
115
115
115
112
112
117
117
125
132
129
127
129
129
129
134
132
129
134
134
132
129
132
132
132
127
125
62
60
53
50
50
50
52
55
60
62
62
72
72
68
74
74
74
72
72
68
66
60
62
64
66
72
74
80
89
93
93
93
95
103
105
107
105
105
112
115
120
117
115
115
117
122
127
127
125
127
127
127
129
134
129
129
132
129
127
132
134
134
132
127
62
58
53
53
50
48
53
57
60
64
64
70
74
74
80
82
84
84
80
74
72
70
70
70
72
78
84
91
95
100
103
105
107
107
112
112
112
110
112
120
122
117
117
115
117
117
112
110
112
117
120
120
120
129
132
129
132
129
132
132
129
129
127
129
64
64
57
57
57
55
58
62
68
72
74
72
78
84
91
98
100
95
91
84
82
80
78
80
86
95
100
103
103
105
110
110
112
115
120
122
117
117
117
125
129
127
120
112
110
112
110
110
107
110
112
115
115
120
125
129
127
127
129
132
129
129
127
125
64
68
68
66
64
64
68
72
76
80
80
80
84
95
107
110
107
103
95
91
91
91
86
89
98
105
110
115
115
112
112
120
120
122
125
125
117
117
117
127
132
132
122
110
107
110
112
107
103
103
110
112
110
115
120
122
122
120
122
127
127
122
117
117
66
72
72
74
76
78
82
82
82
80
80
84
95
105
112
107
112
107
103
100
103
98
91
91
100
107
115
115
117
117
117
122
125
127
125
117
117
117
120
125
127
127
122
110
100
105
105
100
95
95
103
110
107
110
110
112
115
117
117
117
120
112
107
103
66
72
78
86
86
86
89
91
91
86
89
93
103
105
110
112
112
110
107
110
112
105
98
98
105
107
110
110
110
115
117
117
122
125
117
120
122
122
122
125
125
125
117
112
107
107
103
95
93
93
98
100
100
103
105
110
112
110
112
110
107
105
100
98
68
80
91
93
93
91
95
95
95
95
93
100
103
103
107
112
107
107
112
120
117
107
105
107
105
107
105
105
103
112
117
117
122
125
122
120
120
120
122
125
127
125
120
115
112
110
100
91
89
91
95
100
95
95
98
105
110
107
105
100
95
91
89
86
78
91
100
105
105
103
100
91
91
93
93
98
98
98
100
107
107
107
112
122
120
110
107
110
105
105
105
103
107
112
115
110
120
125
125
122
117
115
120
127
129
132
127
122
117
112
105
98
91
86
91
98
93
95
98
98
98
98
95
93
91
86
84
80
93
103
107
112
112
105
103
95
98
93
95
95
95
93
93
100
107
107
117
125
117
112
110
112
107
105
105
100
105
107
110
115
122
127
127
127
120
117
122
127
129
132
132
127
125
120
112
105
100
91
89
93
91
89
93
93
93
91
89
89
84
86
84
82
105
110
110
112
110
107
107
100
98
95
98
98
95
93
95
103
112
120
125
120
115
110
112
110
110
110
107
100
103
107
112
120
129
132
129
125
122
122
122
125
125
127
132
132
129
127
120
110
107
103
95
95
91
91
93
91
89
82
84
86
84
89
82
82
110
110
112
110
107
112
110
105
98
98
98
95
91
86
98
105
117
120
122
120
120
122
120
120
117
115
107
100
105
112
117
122
132
132
132
127
127
125
122
125
125
125
129
129
129
134
127
120
115
110
105
103
95
95
93
93
86
82
84
89
86
84
80
82
112
112
115
120
112
115
117
107
100
95
98
91
86
84
89
100
110
115
122
122
125
125
125
125
117
110
107
103
107
112
117
125
129
132
134
132
129
127
127
129
132
134
132
132
134
132
132
127
120
117
112
107
100
98
98
100
98
91
91
91
89
84
82
86
112
110
120
122
117
115
120
115
107
98
98
95
89
86
86
93
103
107
117
127
129
129
127
127
120
110
107
105
110
110
115
122
132
132
134
134
132
129
132
132
134
137
132
132
134
132
127
125
122
125
122
117
112
110
107
105
103
100
98
93
91
86
82
89
117
115
120
122
117
117
115
117
112
105
100
95
91
86
86
89
98
107
115
129
132
132
132
127
122
115
112
110
112
112
115
122
129
134
134
137
134
134
134
134
137
137
129
132
134
134
127
127
127
129
125
122
122
122
120
120
117
112
105
100
95
91
84
91
117
117
117
122
120
120
117
117
115
110
100
93
91
89
89
89
95
105
112
127
132
132
129
129
127
120
117
115
112
110
110
117
127
134
137
137
134
134
129
132
134
139
129
129
129
132
129
129
132
132
129
125
125
127
127
125
125
122
117
110
103
98
95
98
120
120
120
120
117
117
120
120
115
110
105
93
93
91
89
89
93
103
110
122
129
132
134
129
127
122
122
120
115
112
110
115
122
134
137
134
129
132
127
129
134
137
127
125
127
127
129
129
127
129
134
129
127
127
127
129
127
125
125
120
115
110
107
110
117
112
117
112
115
112
112
120
117
112
107
95
93
93
93
93
93
100
110
120
127
132
132
125
125
125
125
127
115
110
107
112
122
129
137
132
132
129
125
129
134
132
127
125
125
127
127
127
129
132
129
127
122
122
127
132
132
129
127
129
125
122
122
122
112
107
115
120
120
115
110
117
125
122
107
100
95
95
95
95
95
100
103
117
125
132
127
125
127
125
125
125
115
112
110
120
127
129
134
132
134
129
132
134
132
127
127
125
127
129
125
127
132
134
132
125
125
127
132
132
134
129
129
127
127
125
122
125
107
107
120
125
120
112
110
115
120
117
110
103
98
95
98
103
103
100
98
110
122
127
129
127
132
132
127
125
120
117
117
122
125
127
129
134
134
134
134
137
134
129
129
129
132
129
122
127
134
134
129
125
129
132
132
129
132
127
125
127
125
129
129
127
105
105
120
127
122
112
110
110
115
115
115
107
100
93
98
107
105
105
100
103
115
125
129
129
132
137
134
127
122
120
120
117
120
125
127
134
137
137
137
134
132
134
134
132
137
129
127
132
134
134
129
127
127
132
132
127
129
127
125
127
132
134
129
125
112
110
117
122
122
115
112
112
115
115
115
112
105
95
98
105
100
103
103
100
105
117
125
127
129
129
132
132
125
122
117
115
120
122
127
134
134
134
132
129
129
129
129
129
132
129
129
129
127
132
129
129
125
132
129
127
132
132
129
129
132
129
122
122
115
112
115
115
120
120
115
112
110
112
110
110
107
105
103
100
100
103
105
103
100
107
120
125
125
129
129
134
132
125
122
120
122
125
127
134
129
132
129
127
129
127
127
132
129
129
132
127
122
127
127
127
122
127
127
125
129
132
129
127
127
127
122
127
110
107
112
112
115
120
120
115
110
107
110
110
107
107
103
103
103
103
105
100
100
103
115
120
125
129
127
129
132
129
125
120
122
122
127
129
132
132
127
129
132
127
127
127
125
127
134
127
122
125
127
125
120
125
127
129
127
125
127
129
125
122
122
125
115
112
112
112
112
115
117
117
115
110
107
107
110
110
107
100
100
100
105
103
107
105
115
122
127
129
129
132
129
129
132
127
122
122
127
125
125
127
129
132
134
129
122
122
125
127
127
127
125
125
122
122
122
129
134
132
122
125
129
127
122
120
125
122
120
115
110
110
115
120
122
120
115
112
115
115
115
115
112
107
103
100
103
103
107
105
115
122
127
127
127
129
129
129
132
132
125
125
125
120
120
120
122
129
132
125
115
122
129
129
127
125
122
120
117
117
125
127
129
132
125
125
125
122
117
117
120
120
120
117
112
110
115
120
120
120
117
115
115
120
117
117
117
112
107
107
105
100
105
107
115
122
127
129
127
127
129
132
134
132
122
120
117
117
120
120
120
122
125
122
115
117
125
127
125
120
115
117
120
120
122
120
122
125
125
117
117
122
117
120
120
117
117
122
115
110
110
120
120
112
117
117
115
112
110
110
112
110
110
110
105
107
107
107
115
117
122
127
129
127
127
127
132
129
122
120
115
115
117
117
117
117
122
122
120
125
122
127
125
117
117
115
115
122
117
115
120
120
125
120
115
117
115
117
115
112
117
120
115
110
110
120
120
115
117
117
115
112
110
107
115
115
112
107
107
107
105
107
117
117
122
125
127
127
120
122
127
125
117
117
112
115
115
112
115
117
122
122
125
127
129
127
125
115
117
117
115
120
120
117
120
125
129
122
120
120
115
115
115
115
