P2
# 251 of 608 Angiograms
64 64
255
134
137
142
139
134
132
129
127
127
129
127
125
127
127
127
120
120
125
122
117
115
112
110
112
107
105
105
105
105
103
105
112
117
117
112
105
103
105
107
107
112
115
112
110
110
110
112
117
125
129
132
134
137
134
129
127
134
132
122
107
95
89
84
84
132
134
137
132
132
129
132
132
129
129
127
129
127
125
127
122
127
127
125
122
117
112
107
110
107
103
103
103
107
107
107
115
120
120
115
112
105
105
103
103
103
103
105
110
110
110
110
112
120
125
129
134
134
132
132
129
132
134
125
112
100
95
93
89
125
125
125
127
129
125
122
125
125
125
127
129
127
127
125
122
122
122
122
120
117
110
107
107
107
103
98
100
103
105
107
112
117
120
120
117
107
100
95
95
100
98
105
105
105
107
110
112
115
120
125
132
132
132
132
129
132
134
127
120
110
103
98
86
120
115
115
117
120
117
117
120
120
122
125
125
122
125
120
120
120
120
117
117
112
107
110
110
112
100
95
95
95
100
105
110
115
120
120
117
110
103
95
93
95
98
98
98
98
103
107
112
117
122
125
127
134
134
134
132
132
134
129
125
120
110
98
89
115
105
105
107
110
110
110
112
117
122
122
122
117
122
122
117
115
117
117
115
105
105
107
110
112
105
95
95
95
98
103
107
112
112
115
115
112
107
103
98
93
89
89
91
98
105
112
115
120
125
127
129
134
139
142
134
129
132
129
125
125
120
105
91
115
103
103
107
105
107
107
112
117
120
120
120
115
122
122
117
115
117
120
112
105
105
107
107
105
105
100
98
98
103
103
103
105
107
110
110
117
117
110
103
93
86
86
91
100
112
117
120
120
122
125
132
134
137
142
139
134
134
134
127
127
129
115
100
120
110
105
105
105
107
112
115
117
117
120
115
115
117
120
120
115
115
117
110
110
110
107
110
105
105
95
95
103
105
107
100
100
107
112
115
117
122
117
103
91
82
82
89
100
112
120
122
122
127
127
127
129
132
137
142
137
137
132
127
132
134
127
110
122
117
112
110
110
110
112
115
117
122
122
115
120
117
117
120
112
112
112
105
107
105
105
110
107
103
95
98
100
105
110
107
103
107
115
122
125
127
120
105
93
82
82
89
100
107
117
122
125
129
129
125
125
129
134
144
139
134
129
129
134
134
132
122
125
120
117
115
115
117
120
120
120
122
120
115
115
117
117
120
117
112
107
107
107
103
98
100
103
98
98
98
98
100
105
107
105
110
122
125
127
127
120
110
95
86
86
91
100
112
120
127
129
129
132
125
122
127
134
139
139
137
134
137
142
139
137
129
125
122
120
120
120
122
122
122
122
122
117
107
105
110
112
115
112
107
105
103
105
100
98
100
100
98
100
98
100
103
107
107
110
115
120
122
125
127
122
115
98
84
86
91
105
117
127
129
132
134
134
125
125
129
132
139
142
139
139
142
147
144
142
137
120
120
117
115
117
120
122
122
120
120
115
112
107
107
107
107
105
107
105
103
105
103
98
100
100
100
103
98
100
103
110
110
110
115
122
122
122
125
122
117
100
91
89
91
105
125
129
129
129
132
129
129
132
132
129
134
137
139
137
144
147
147
139
139
117
115
115
115
115
115
117
117
117
120
112
110
112
110
105
103
100
105
105
105
107
103
103
103
105
107
105
100
100
103
107
110
112
120
127
127
120
120
115
112
100
91
86
86
103
125
127
127
127
129
125
127
132
132
129
132
134
137
142
142
139
137
134
134
122
120
117
120
117
115
117
117
117
115
115
117
122
115
107
105
100
100
103
103
103
100
100
98
103
110
103
100
103
103
107
115
117
122
127
122
122
122
115
110
98
86
80
86
103
122
127
129
129
127
125
125
129
132
129
129
134
137
137
134
134
134
137
134
120
122
122
120
122
125
122
120
117
115
117
125
125
117
112
107
103
100
100
98
100
103
100
93
98
107
103
98
103
110
112
115
117
120
122
120
125
127
120
110
95
89
86
89
103
122
125
127
129
122
122
125
127
129
129
129
134
139
137
134
132
132
129
127
125
122
117
115
120
122
122
117
115
117
120
122
120
117
115
107
100
98
95
98
103
107
100
98
98
105
103
100
103
110
112
120
115
115
122
125
127
125
117
107
91
84
89
93
105
117
120
122
120
122
122
125
129
132
134
134
134
137
134
132
129
127
122
117
125
122
115
110
115
117
120
117
112
117
125
120
117
117
117
110
103
95
100
103
100
103
103
100
98
98
95
100
103
107
117
122
120
122
127
129
127
122
115
98
91
84
89
98
110
115
115
112
120
122
125
129
129
129
129
129
129
127
122
120
117
110
105
103
127
127
120
115
115
117
120
115
112
117
120
120
117
115
117
115
105
98
103
105
100
100
103
103
95
93
93
98
105
110
120
125
127
127
125
127
122
120
105
95
91
89
95
105
112
115
117
117
125
125
127
129
125
120
117
115
115
115
112
110
105
103
98
93
132
129
125
115
112
112
117
120
112
112
112
115
117
117
117
112
105
100
107
107
110
107
103
98
93
91
98
98
100
110
117
125
132
127
120
120
120
110
103
93
89
93
103
110
115
115
120
122
125
125
125
125
117
112
110
107
107
105
103
100
98
95
86
82
132
129
125
117
112
112
117
120
117
117
110
107
112
115
112
107
105
103
110
112
110
110
100
95
95
98
98
93
103
110
117
125
129
125
122
117
110
105
98
91
89
100
110
112
117
120
122
120
120
117
115
112
107
100
95
93
91
91
91
89
89
84
82
82
129
129
122
115
112
112
117
115
115
115
112
112
112
110
105
100
100
105
105
107
107
107
100
95
98
103
100
98
107
110
115
122
127
122
120
110
103
98
93
93
98
110
112
112
117
120
120
115
110
107
103
98
93
91
86
84
86
86
84
82
82
80
82
82
132
129
117
112
115
115
115
112
110
112
115
117
112
107
107
107
107
107
103
100
105
105
100
100
98
100
105
105
110
110
110
117
120
120
112
103
93
91
91
98
105
112
117
115
117
117
112
105
100
95
89
86
89
82
80
80
82
82
82
80
82
80
80
78
134
129
117
110
107
107
110
110
110
110
112
115
112
112
115
112
107
107
105
100
100
103
103
103
98
100
105
110
112
115
112
115
112
112
105
98
86
84
93
100
107
117
120
112
110
107
100
95
89
84
78
80
76
70
76
80
82
84
84
82
80
80
80
76
132
127
117
110
107
110
110
110
112
110
112
112
112
110
112
112
105
105
105
103
100
107
107
98
95
103
110
115
115
117
117
110
105
100
98
93
86
86
95
103
112
117
117
107
103
98
91
86
84
80
76
74
70
68
74
78
84
80
84
82
80
82
80
78
127
125
120
115
115
112
112
112
115
115
117
115
110
110
112
112
110
107
107
107
105
105
107
100
95
105
112
117
115
117
117
103
93
93
91
89
91
91
98
105
110
110
105
98
91
84
82
80
78
78
80
76
74
74
76
76
82
82
82
80
80
80
78
78
127
125
122
117
122
122
117
115
115
120
117
117
110
112
115
115
110
107
105
110
110
112
112
105
105
110
117
120
115
117
110
95
84
86
89
86
91
93
95
95
98
95
91
89
82
78
80
78
76
76
76
78
80
78
74
76
80
84
80
84
89
84
84
86
132
129
125
122
125
127
127
120
120
120
115
117
112
112
110
107
107
107
107
112
110
115
112
110
110
112
117
120
115
110
100
86
82
84
84
84
84
89
86
82
84
84
84
86
80
76
76
76
74
78
76
80
84
84
80
82
82
80
82
89
91
91
91
89
132
132
127
125
132
129
129
125
120
120
122
122
117
115
110
103
103
107
107
112
110
110
112
110
110
117
117
112
110
105
91
80
76
80
86
84
80
78
76
80
82
80
78
78
78
72
74
74
72
76
80
86
91
93
89
89
93
95
95
100
103
107
107
103
127
129
122
122
127
129
132
127
122
120
122
122
120
120
112
105
107
107
105
105
105
105
105
110
112
115
110
110
107
95
84
80
74
78
84
84
78
72
72
76
80
76
74
76
78
76
74
78
78
78
86
95
100
100
103
107
110
112
112
115
120
122
122
122
129
129
120
122
127
127
132
127
125
125
127
127
125
120
115
107
110
105
103
98
103
105
103
107
110
110
110
110
103
89
82
82
76
74
74
76
74
70
74
76
78
76
76
80
78
78
80
82
82
86
95
103
107
115
117
120
122
122
120
122
122
122
120
120
129
129
125
127
129
132
127
127
129
132
132
129
127
122
115
105
105
103
98
93
103
105
105
107
107
107
112
107
93
86
84
82
76
70
68
72
76
72
74
74
76
80
78
84
80
78
84
84
89
93
98
107
115
120
125
122
125
125
122
120
117
115
117
117
129
129
127
125
125
125
127
129
129
127
127
129
129
122
112
105
100
100
98
95
98
100
103
105
103
103
103
98
86
84
82
76
72
74
74
74
74
74
72
72
78
80
80
80
80
84
89
93
98
103
107
115
120
125
129
125
122
122
117
115
117
120
120
120
129
127
125
122
120
120
125
127
127
122
120
127
132
122
110
105
103
103
100
98
100
105
100
103
100
98
98
86
80
74
72
70
72
72
72
76
74
76
80
82
82
84
84
82
86
91
98
103
107
112
115
112
120
129
129
125
120
120
117
110
115
125
122
120
127
127
127
122
120
120
125
127
129
129
122
127
127
117
107
100
103
103
103
105
100
103
107
105
103
98
95
82
72
66
70
68
68
66
68
76
76
82
84
86
91
93
93
93
95
100
107
112
115
120
117
117
122
127
127
125
120
120
120
115
120
125
125
122
127
127
127
122
120
122
122
125
127
129
127
127
122
115
105
105
105
105
107
110
105
103
105
105
103
98
93
80
68
60
62
62
62
68
72
78
80
82
80
89
98
100
100
100
103
107
117
122
115
120
120
120
120
122
125
122
120
120
120
115
117
122
125
122
127
129
127
122
122
120
122
122
122
125
122
122
120
115
105
103
103
105
107
110
105
103
105
110
103
98
89
76
66
62
60
60
62
66
76
82
84
84
89
98
105
105
107
110
110
107
120
122
112
115
115
115
115
117
122
122
122
120
117
112
115
120
120
120
129
127
125
125
125
125
127
122
122
127
125
125
120
117
110
103
100
105
107
107
103
103
98
98
98
89
86
74
66
66
62
62
66
74
84
91
95
95
98
103
112
115
115
112
110
107
117
117
115
117
115
115
110
107
115
117
120
117
115
110
112
120
125
125
134
134
132
129
129
127
127
125
122
122
125
120
120
117
115
107
103
103
103
100
103
103
98
91
86
84
84
74
70
66
68
70
78
89
95
100
105
105
103
107
112
112
115
112
112
110
117
115
115
117
117
115
107
105
112
110
117
112
107
107
110
115
122
127
137
139
137
137
134
129
125
122
122
117
117
120
120
115
115
110
105
103
100
98
98
103
100
95
91
86
86
76
72
72
72
76
86
95
103
107
112
110
105
110
110
107
107
110
110
110
115
112
112
112
115
115
110
110
110
107
112
100
103
105
103
112
115
120
139
139
134
137
132
132
129
125
122
115
112
117
115
112
112
112
107
100
95
98
103
103
100
98
93
89
84
78
76
76
78
82
95
105
110
112
112
110
110
110
110
110
107
112
112
110
112
115
110
110
110
110
110
110
112
112
110
100
95
100
105
110
110
110
139
137
139
134
129
129
129
125
120
115
115
120
120
115
112
112
105
98
95
95
103
98
98
100
89
82
86
84
84
84
86
93
105
110
112
110
107
107
107
110
107
110
110
110
110
112
117
117
112
110
107
107
110
112
112
112
107
100
95
93
100
105
110
110
139
139
139
132
132
127
127
122
117
110
110
115
117
117
112
110
105
103
100
98
98
98
100
98
89
86
91
91
89
91
95
103
107
112
115
112
112
112
107
107
110
112
115
115
115
117
120
122
112
110
112
112
110
110
107
107
103
98
98
100
98
100
105
107
137
137
134
132
127
127
122
117
117
110
107
112
117
110
110
112
115
112
107
105
105
103
107
98
93
93
91
89
89
93
100
105
107
112
115
117
117
115
107
105
107
112
115
117
115
120
120
120
112
110
115
120
115
107
105
103
103
100
98
100
93
93
103
105
137
139
137
129
127
129
120
120
117
115
115
112
110
105
107
107
110
110
110
110
107
105
105
98
93
91
91
91
91
95
103
110
115
120
120
117
117
117
112
110
107
110
115
122
122
120
117
115
112
110
112
112
110
107
103
103
105
100
98
95
93
93
98
105
139
139
137
132
129
129
122
120
115
115
115
115
110
107
105
105
112
115
112
112
112
110
103
95
91
86
89
93
91
95
105
115
120
122
120
117
120
117
117
115
117
115
117
127
122
117
120
120
117
117
115
112
112
110
105
105
103
103
98
93
93
95
100
103
142
139
134
132
129
125
120
117
112
112
112
115
112
107
107
107
117
120
115
110
107
107
100
93
89
84
84
86
89
98
110
117
120
122
120
117
117
120
120
120
120
117
120
127
125
125
127
125
122
125
120
115
115
115
115
110
105
100
100
95
100
105
105
103
142
137
134
132
127
122
122
117
115
110
110
117
112
105
105
110
120
122
120
110
105
107
98
91
86
84
84
82
89
98
110
115
122
120
122
120
117
117
122
125
125
120
122
129
132
127
129
125
120
125
125
115
112
117
120
115
110
110
107
103
105
103
105
107
142
132
129
129
125
120
112
115
115
110
107
117
112
107
110
115
122
127
125
120
112
110
98
86
84
84
84
82
89
98
110
115
122
120
120
117
120
120
120
127
125
122
127
129
132
129
129
122
120
120
125
120
117
120
120
117
112
112
115
112
110
105
105
107
144
129
132
129
120
117
110
112
112
105
107
115
112
115
115
117
120
125
122
117
112
110
98
86
82
82
82
84
89
95
107
115
122
117
115
117
120
122
122
125
125
122
129
129
132
129
129
125
120
120
122
117
120
120
120
120
112
110
112
112
112
112
112
115
142
129
134
132
122
120
115
110
110
110
105
112
120
117
115
112
115
120
120
117
112
110
98
84
80
84
78
78
89
95
107
117
122
122
117
115
117
122
125
122
125
132
132
129
132
129
129
125
122
117
120
120
122
120
120
122
115
107
107
112
117
117
117
120
139
127
132
132
127
122
120
115
112
105
105
112
122
120
115
115
117
117
120
115
107
105
95
82
76
80
80
80
86
93
103
115
122
125
125
117
112
115
122
125
125
125
125
127
127
132
129
127
127
120
122
125
125
115
120
122
115
107
107
112
120
120
122
122
137
132
134
129
127
125
120
115
110
110
110
117
120
117
115
112
117
122
120
107
107
100
91
84
78
76
78
82
80
86
98
110
122
122
122
117
107
110
112
120
117
120
125
129
127
127
125
125
125
125
125
125
122
112
115
120
120
110
107
112
120
120
120
120
137
134
129
127
127
125
120
115
110
112
117
120
115
110
110
110
115
117
115
105
105
95
86
80
74
70
72
78
74
80
93
105
117
120
120
115
110
110
112
115
115
117
122
125
122
122
125
125
125
125
125
122
120
115
115
115
115
105
107
115
117
120
120
120
134
127
125
127
127
122
120
115
115
115
112
115
107
105
107
115
112
112
112
103
100
91
80
76
70
66
68
76
78
78
86
100
115
120
120
112
110
110
117
117
120
125
122
115
112
117
122
127
125
127
127
125
117
115
110
105
107
105
110
115
117
122
120
122
127
122
122
125
132
127
120
112
115
117
112
112
110
107
110
112
112
115
110
103
98
89
78
74
74
72
70
70
74
76
84
98
112
120
122
112
107
110
115
117
122
125
120
112
112
120
122
122
120
122
129
132
129
122
115
107
107
107
107
112
117
125
125
125
125
122
120
125
132
127
120
115
115
117
117
117
117
112
112
110
107
107
105
100
95
91
78
72
68
70
72
72
74
78
80
91
107
117
122
117
110
110
110
117
120
125
122
120
120
120
127
125
122
122
127
137
134
127
120
112
107
105
107
112
120
122
120
122
125
122
120
125
129
129
125
122
117
122
120
120
117
112
107
105
100
103
100
100
95
89
78
70
66
68
74
74
76
80
80
89
105
115
120
120
115
110
107
115
120
125
127
122
120
125
127
129
129
125
127
132
132
132
125
115
110
110
112
117
117
122
122
120
122
120
122
122
127
129
127
125
120
125
122
122
117
115
107
100
100
98
100
100
93
86
78
74
68
66
68
70
72
78
80
89
103
112
115
120
117
112
110
112
120
125
125
125
125
127
127
127
129
127
129
137
134
137
129
117
115
112
112
120
117
125
125
127
115
120
122
120
120
127
127
125
120
122
122
120
115
115
107
100
103
103
100
103
93
84
76
76
72
68
66
68
68
72
78
91
103
110
112
120
117
107
107
112
117
117
122
122
125
125
125
127
127
129
139
139
134
132
127
120
117
112
110
115
117
122
122
125
122
125
125
117
120
125
125
125
122
125
122
120
115
117
107
100
105
110
107
103
93
84
82
78
72
68
66
64
68
74
76
95
103
112
115
117
112
105
107
115
120
117
122
122
117
125
127
125
125
134
139
134
129
127
127
122
117
112
110
112
120
120
115
117
125
127
125
120
122
125
125
127
127
129
129
125
117
117
107
98
100
105
100
98
89
84
82
78
70
70
72
66
66
72
74
95
105
112
117
120
112
107
112
115
122
120
122
122
122
122
125
122
125
134
134
127
127
127
125
122
117
112
112
110
115
117
115
115
122
120
120
122
125
129
129
129
127
127
127
125
120
115
105
100
100
100
98
93
86
82
78
76
70
66
74
72
68
74
78
93
107
112
115
117
115
110
115
117
122
122
127
125
122
122
122
120
127
132
134
129
127
125
122
117
115
112
112
112
110
112
112
120
120
120
120
125
125
127
127
127
127
127
125
120
115
112
103
100
98
98
100
93
82
80
76
74
72
72
72
74
72
74
80
93
107
115
122
120
110
115
120
120
125
125
129
125
125
125
125
122
127
132
134
129
122
120
115
112
112
107
107
107
110
117
112
115
117
120
125
127
125
122
120
120
122
122
120
112
110
105
103
103
100
95
98
91
80
76
72
72
72
76
74
72
70
70
78
91
103
115
125
122
110
112
117
122
125
125
127
125
127
129
132
129
132
132
132
127
120
112
105
110
115
110
107
110
112
112
110
110
115
115
122
127
127
120
115
112
120
120
112
105
105
105
105
100
103
100
100
89
78
74
74
72
68
70
72
70
68
66
76
91
100
112
122
117
112
112
120
125
132
132
129
122
127
134
134
134
134
134
129
125
115
105
107
112
115
107
107
112
117
115
110
110
