P2
# 252 of 608 Angiograms
64 64
255
117
117
120
115
110
110
112
110
103
100
100
95
89
86
89
86
84
89
91
89
89
91
98
95
98
100
107
115
122
127
127
125
122
117
120
122
122
115
117
125
127
122
112
110
112
112
110
110
107
110
112
110
110
105
103
103
103
93
95
103
105
100
100
103
120
125
125
120
117
120
122
120
117
115
110
105
100
98
95
93
84
84
86
84
82
84
86
89
89
91
95
105
110
112
117
120
122
125
125
129
129
122
117
120
122
120
115
112
112
112
112
112
107
110
115
120
115
107
105
105
103
95
95
103
103
103
100
98
122
127
125
125
125
125
129
129
127
125
122
117
112
110
105
98
89
86
89
89
82
84
80
80
82
84
91
95
105
107
112
117
117
120
125
127
127
125
122
115
117
115
115
112
112
112
110
112
110
110
115
117
110
107
105
100
103
95
98
103
98
95
98
105
120
125
127
127
125
122
132
134
129
132
132
127
125
122
115
105
98
95
93
91
84
82
80
80
80
86
89
91
98
103
107
112
110
110
115
122
125
125
117
110
110
110
110
115
112
115
115
120
115
110
110
115
105
107
107
103
103
103
103
103
98
95
100
103
115
120
125
129
127
127
134
134
129
134
134
134
134
129
125
117
115
107
98
91
84
82
80
80
82
91
93
91
95
98
98
98
98
103
105
110
115
117
112
105
110
107
105
110
107
110
115
120
117
107
107
115
112
110
112
110
107
110
110
105
100
100
103
103
112
115
120
125
122
129
134
134
129
132
134
137
137
139
132
125
122
117
110
100
89
84
82
82
86
93
95
93
91
93
95
93
91
93
98
103
103
103
107
105
107
105
105
105
105
107
115
117
112
103
103
115
115
105
110
110
107
105
110
110
107
103
105
103
112
115
120
117
120
129
132
127
125
127
132
134
137
144
139
132
125
120
117
115
103
93
89
84
86
93
98
93
89
91
91
91
86
86
89
91
91
91
95
103
103
103
103
105
103
107
110
112
107
95
103
115
115
105
107
110
105
105
110
115
110
105
100
103
120
117
117
117
120
125
122
120
122
127
132
134
137
142
142
139
134
132
127
122
117
103
95
93
93
98
100
100
93
95
95
89
86
84
84
86
89
86
89
93
95
95
98
98
103
112
115
112
107
103
110
120
117
110
107
105
107
110
107
110
112
105
100
100
125
122
120
117
115
117
122
120
122
129
132
134
139
139
139
139
137
132
125
125
122
112
100
98
100
100
105
107
105
103
100
95
91
84
84
86
84
84
84
86
89
89
89
84
93
107
122
117
110
110
115
120
117
115
107
105
110
115
107
107
115
110
105
98
117
120
122
120
117
117
120
120
122
127
132
134
137
137
137
134
132
125
125
127
125
120
110
103
103
103
112
115
115
112
107
100
93
91
91
86
86
84
82
84
86
86
89
89
89
98
110
117
115
112
112
117
120
120
110
110
115
117
115
110
115
115
110
105
115
115
120
125
122
125
125
120
122
127
129
132
134
134
134
129
129
125
129
129
127
122
117
110
107
105
107
115
122
122
115
105
95
91
93
89
84
84
86
86
89
86
89
93
93
93
100
110
112
115
117
122
122
122
115
112
117
127
122
115
112
117
117
112
112
117
122
125
125
125
120
125
125
129
129
129
132
132
129
127
132
129
132
134
129
125
122
117
110
105
103
107
112
115
110
105
100
98
95
91
86
86
89
89
86
91
91
95
98
98
98
103
107
115
122
127
127
122
120
115
117
125
120
115
112
117
120
120
115
122
125
127
125
122
120
125
125
125
125
125
125
125
129
129
129
129
127
127
127
125
120
120
117
110
103
103
105
105
107
110
110
110
107
105
103
103
100
93
89
91
91
93
98
98
98
100
105
110
117
122
125
127
122
122
120
120
120
117
120
122
122
125
117
125
127
129
127
125
125
122
122
120
120
117
120
122
127
125
122
122
120
125
125
122
117
120
120
110
103
103
107
110
110
112
115
117
115
115
115
115
107
103
93
89
89
89
91
93
93
100
100
107
112
115
120
122
125
122
120
122
122
117
117
122
125
127
112
122
125
125
122
122
125
125
120
120
122
122
122
127
127
127
125
122
120
127
125
125
120
120
117
107
100
103
112
115
115
115
120
122
127
129
127
125
120
112
103
95
91
93
95
98
95
95
93
100
110
112
117
125
122
125
125
125
120
117
120
122
125
129
105
115
122
125
125
122
122
120
120
120
120
125
127
127
127
132
129
125
122
127
120
125
122
120
117
107
95
103
112
117
120
117
120
125
127
132
132
132
132
125
117
107
103
105
110
103
95
89
86
95
105
107
115
125
125
125
127
120
115
117
125
129
125
127
103
110
120
127
127
122
122
122
120
120
122
125
127
127
122
125
127
125
127
122
122
127
127
125
125
117
105
105
112
120
120
122
125
129
129
132
134
139
137
132
125
120
115
115
115
105
100
93
91
93
98
100
107
117
125
125
125
117
117
125
129
127
125
125
105
110
117
122
122
122
122
122
120
120
125
125
129
127
125
127
127
127
127
125
127
127
125
127
125
122
117
112
115
122
122
122
127
129
129
127
129
137
139
137
129
127
127
120
112
110
107
100
98
95
98
103
107
112
112
115
117
115
120
127
127
125
127
127
110
115
120
122
120
120
117
120
120
122
122
127
129
125
120
127
129
127
125
125
125
125
125
125
122
122
125
122
117
122
122
125
129
132
132
129
125
129
137
134
129
127
127
120
112
115
110
105
100
100
98
100
105
110
105
107
112
117
122
127
122
129
129
127
110
115
120
122
125
122
120
122
122
122
125
129
125
120
117
125
125
125
125
125
127
127
122
122
122
122
125
125
122
120
117
125
127
127
132
132
132
129
132
129
129
129
125
120
115
120
120
110
103
103
98
100
100
105
103
105
112
115
122
127
125
127
127
125
107
115
120
120
122
125
120
120
120
125
129
132
125
117
120
122
120
122
125
127
132
127
122
122
125
125
125
122
125
125
125
125
125
122
122
129
134
132
132
137
134
134
132
125
125
125
125
117
107
105
103
103
107
107
107
107
112
115
122
132
134
129
129
129
105
112
117
117
122
125
122
120
120
120
122
132
132
125
125
122
122
125
127
132
132
125
127
129
127
122
125
125
122
125
122
122
125
120
117
122
129
132
134
137
137
139
139
134
132
129
127
125
117
107
107
105
110
110
107
107
110
115
122
129
132
129
129
132
103
105
110
115
125
127
125
125
125
125
125
129
129
127
127
127
127
127
127
132
134
127
127
132
132
129
129
125
122
125
122
120
122
120
112
117
132
132
139
144
144
139
144
139
134
134
137
134
129
120
112
112
117
112
110
105
103
110
120
125
127
129
134
134
105
105
107
112
125
129
127
129
127
129
129
125
127
125
129
132
132
129
125
129
132
129
127
132
132
132
129
125
122
122
120
122
122
115
110
117
132
132
134
137
144
139
142
142
139
137
137
139
139
134
125
122
122
120
112
107
110
112
115
117
122
132
139
137
112
112
110
112
120
129
129
127
125
125
125
125
125
122
127
129
132
129
127
132
134
132
129
132
129
129
125
125
122
117
115
120
117
112
107
117
132
137
139
134
139
139
137
142
142
142
142
142
142
139
137
129
127
122
115
110
110
112
110
115
117
127
139
139
122
115
115
112
112
122
127
127
127
127
120
120
122
122
125
127
129
127
129
134
137
132
129
129
127
125
127
120
120
112
112
115
117
115
110
117
127
132
137
137
139
144
142
144
142
144
147
147
144
144
142
137
127
120
115
115
112
112
115
115
117
125
134
134
127
122
117
115
112
115
125
129
129
129
125
122
125
125
122
127
127
125
129
134
132
132
127
129
132
127
127
117
117
112
115
117
120
115
110
120
127
132
137
137
139
144
144
147
142
139
144
149
147
149
142
142
139
125
112
112
112
103
105
107
115
120
129
129
127
122
117
112
110
112
122
129
127
127
127
127
127
127
127
127
125
127
129
132
137
134
132
129
129
132
127
122
117
117
115
122
120
110
107
120
132
137
137
137
139
139
142
142
139
142
147
147
144
144
142
139
142
134
122
120
112
103
103
105
110
120
127
127
122
117
117
115
112
120
122
125
125
125
127
132
129
127
125
122
125
125
127
127
134
137
134
132
129
132
132
127
122
120
115
117
117
112
112
117
132
137
142
142
139
137
142
139
144
147
147
144
142
139
139
139
142
139
129
125
115
105
103
103
105
115
122
122
122
122
122
120
120
115
117
122
122
122
125
127
129
127
120
122
127
122
122
127
129
134
134
132
127
127
129
127
122
117
117
110
112
112
112
115
127
134
142
142
139
134
137
139
142
142
144
147
139
134
134
139
144
142
137
127
115
110
107
107
107
110
112
105
132
127
125
120
120
117
117
120
120
120
122
125
127
125
125
125
117
117
122
132
132
134
132
127
129
132
129
122
120
120
120
112
105
110
115
117
125
129
132
132
129
129
134
139
139
139
139
139
137
137
137
139
144
147
142
132
117
110
107
98
100
98
93
78
129
125
127
122
117
117
120
120
117
117
125
117
122
122
125
127
125
120
120
122
127
127
125
122
122
122
122
117
117
122
125
115
105
107
115
120
122
122
120
117
117
122
125
134
134
132
132
134
139
142
139
139
144
149
147
134
117
110
107
95
91
91
78
70
129
122
120
122
117
120
122
122
117
120
122
120
125
122
122
127
127
122
120
120
120
115
107
103
103
103
103
105
107
112
117
107
105
103
105
110
110
110
107
107
112
122
122
125
129
132
129
129
134
137
139
139
142
147
142
134
117
107
100
95
89
78
68
58
134
125
117
115
115
120
122
125
120
117
120
120
120
120
117
117
117
117
117
112
103
95
89
84
80
80
80
82
84
89
89
89
86
86
93
95
98
100
100
105
115
122
125
122
120
122
120
120
125
127
129
132
137
137
134
125
112
100
95
89
82
72
62
53
137
132
120
115
117
120
122
125
125
122
122
117
115
107
103
98
91
89
86
84
80
74
70
68
66
66
68
68
70
72
74
74
76
82
84
86
91
98
98
105
117
127
125
120
120
117
110
110
115
117
120
122
125
127
125
117
110
100
91
84
76
68
62
53
139
134
125
117
117
117
120
127
127
122
122
115
103
93
84
76
74
74
70
68
62
62
62
60
62
62
60
58
60
62
64
70
74
80
82
89
86
93
103
110
122
129
129
127
122
117
107
110
112
110
107
107
110
112
112
112
107
100
91
86
76
70
64
57
139
139
129
117
115
112
120
125
125
122
112
98
86
78
72
70
66
66
64
58
57
60
58
58
60
58
58
57
57
57
58
66
74
80
82
84
86
95
105
115
129
134
134
132
127
120
110
105
105
100
95
95
95
95
100
103
100
95
91
86
78
70
66
58
137
139
132
122
115
107
112
122
115
105
95
86
78
72
70
66
62
60
60
57
60
62
60
57
55
57
62
60
60
58
58
64
74
80
82
86
93
100
110
125
137
139
139
137
132
122
110
100
98
95
93
93
91
91
95
98
95
95
91
89
80
72
66
60
142
142
137
129
115
107
110
110
98
91
84
78
70
64
64
64
60
60
60
60
60
60
60
58
55
58
62
66
66
60
60
64
72
82
86
93
98
110
122
137
142
134
137
139
134
125
112
95
91
93
91
89
91
89
93
98
95
98
98
95
84
72
66
64
142
142
139
127
112
107
105
93
84
80
76
74
72
64
62
60
62
66
64
60
58
55
60
64
62
66
68
70
70
64
66
70
80
86
93
100
112
120
132
139
142
137
137
139
134
127
115
105
95
93
91
91
91
93
95
98
98
100
103
103
86
76
68
68
139
139
134
122
110
100
89
76
72
70
70
72
68
64
64
62
66
66
64
64
60
60
66
68
70
74
74
74
76
76
80
89
95
103
110
115
122
129
132
137
137
137
137
137
134
129
122
112
107
105
103
100
98
100
98
100
103
105
107
110
89
80
76
72
139
137
127
112
95
82
70
64
64
68
66
68
60
58
62
60
62
62
66
68
70
72
76
78
80
84
86
86
89
95
105
112
117
117
117
122
122
127
129
132
134
134
134
134
134
129
127
122
120
117
115
112
107
107
107
105
105
105
107
105
98
84
80
76
134
127
110
93
76
66
58
55
57
62
68
66
64
58
55
57
62
64
70
76
80
89
95
98
98
95
95
98
107
115
122
129
129
127
122
122
120
122
129
132
132
132
132
127
129
132
127
125
125
127
127
127
125
120
117
112
110
112
112
110
105
93
86
84
120
103
84
72
64
55
55
53
53
60
66
66
62
57
53
62
66
70
80
86
100
112
122
120
112
107
107
110
115
122
129
132
129
127
127
127
125
122
129
129
129
129
125
120
125
129
127
127
127
127
134
132
134
129
125
122
122
125
129
125
115
105
95
91
91
76
68
62
55
50
55
52
53
60
62
64
58
58
64
70
76
84
95
107
117
127
134
127
125
117
115
112
115
122
132
129
125
127
129
127
129
127
127
129
125
122
122
120
125
125
127
127
127
132
134
132
134
139
134
129
127
134
134
132
122
107
100
95
72
64
58
55
52
50
53
53
55
57
57
60
62
66
78
89
98
107
115
120
129
129
129
127
125
120
120
117
115
122
127
120
122
127
129
129
132
134
129
132
125
117
122
125
127
132
134
134
134
137
137
134
139
144
139
134
132
134
137
132
125
110
100
100
66
58
53
53
52
50
50
55
55
55
57
62
68
80
98
112
120
122
122
129
137
132
129
129
127
122
122
120
120
122
125
117
117
125
132
132
132
132
134
134
132
127
125
127
132
134
137
134
137
137
137
142
144
149
142
132
134
139
134
134
127
115
100
98
64
55
55
53
52
53
52
53
57
60
60
66
78
98
112
125
132
127
125
132
134
132
132
132
132
129
125
125
122
120
120
117
115
122
132
129
127
132
139
139
137
137
132
129
132
137
137
137
134
139
137
139
142
144
142
137
139
137
129
132
129
117
105
95
68
60
55
55
52
52
50
55
57
58
64
76
93
112
122
129
132
127
127
129
132
134
132
132
134
132
129
129
129
120
117
117
120
120
129
129
129
134
139
139
137
139
139
137
137
139
139
139
137
142
142
139
144
144
139
139
142
139
134
134
132
117
105
98
66
64
58
55
53
53
52
57
58
60
72
86
105
120
127
134
134
132
132
134
132
132
129
134
137
132
127
127
129
125
120
120
117
117
125
127
129
134
137
137
132
139
139
137
142
144
142
142
142
142
142
139
142
144
139
137
139
139
137
134
134
117
103
98
68
62
62
55
55
57
58
64
66
70
84
105
117
125
132
134
134
129
129
132
134
137
134
137
132
129
125
125
127
125
120
117
117
117
120
120
127
134
139
137
134
139
134
132
137
139
139
139
139
137
139
142
139
142
142
137
134
132
134
132
132
115
100
95
64
64
66
64
62
62
66
68
72
82
100
117
122
122
127
132
129
127
129
132
139
139
134
132
127
125
122
122
127
129
122
125
125
122
125
127
134
137
134
139
139
139
134
129
132
134
134
137
137
137
144
144
144
144
137
137
132
129
132
132
129
115
100
89
66
68
72
72
72
72
74
78
84
98
115
125
125
125
125
129
132
134
132
134
142
139
134
129
129
127
122
120
127
132
127
127
129
127
129
132
132
134
134
134
139
139
137
137
134
132
132
137
134
134
139
144
144
139
134
137
134
132
132
132
127
112
100
86
74
76
80
86
91
93
93
95
103
112
122
127
129
125
125
129
134
134
132
134
134
132
127
129
129
132
129
125
129
134
129
129
132
132
132
132
137
137
139
139
139
139
139
139
139
134
132
134
134
134
137
139
139
142
139
134
132
129
132
132
125
110
95
86
84
89
98
105
115
120
120
117
115
117
125
132
134
127
125
132
139
134
132
132
132
132
125
125
127
129
132
129
129
134
134
139
139
139
134
139
139
139
142
139
139
139
137
137
142
134
127
125
132
139
134
132
139
142
134
129
129
129
134
132
122
105
93
89
95
107
115
120
122
127
127
129
125
125
127
129
129
129
125
132
137
134
127
129
129
134
132
129
127
129
127
125
127
132
137
139
137
132
137
139
142
142
139
137
134
134
137
137
139
137
125
125
132
137
132
127
129
132
125
120
122
129
132
127
115
103
91
86
110
120
120
122
125
125
129
129
132
134
132
132
134
132
132
134
137
132
127
132
132
132
129
129
125
122
117
120
125
127
132
137
134
134
134
137
137
137
139
137
134
134
134
129
129
132
129
129
134
134
129
129
127
125
122
122
122
125
125
120
112
100
93
86
120
125
122
125
125
125
125
122
129
132
129
129
132
134
134
139
134
129
127
129
129
129
125
122
127
120
112
115
125
120
127
132
134
137
134
132
132
132
134
137
132
132
137
129
127
129
129
125
127
129
129
129
127
125
125
125
122
122
117
115
107
98
89
84
120
122
122
125
125
125
125
122
125
127
127
132
127
129
132
137
132
132
127
127
125
129
129
127
129
122
120
122
125
120
127
132
137
142
137
132
134
134
134
137
134
132
134
132
125
125
125
122
120
122
122
127
129
120
117
117
120
117
117
112
105
98
84
80
117
122
122
125
125
125
125
127
125
127
129
132
127
127
129
134
134
132
127
125
120
127
127
129
129
127
127
129
127
122
129
132
137
137
134
129
132
134
129
132
134
139
134
129
125
117
117
120
117
120
122
122
122
115
112
107
110
115
117
112
103
93
84
80
115
122
125
122
122
125
122
120
122
125
127
125
127
125
125
127
127
127
122
120
122
127
125
129
129
132
129
129
132
129
129
132
134
132
129
129
129
132
129
127
134
137
129
127
122
115
115
117
117
117
117
115
112
112
110
103
100
107
110
107
95
89
84
82
122
122
127
122
117
120
122
120
117
122
125
120
122
120
117
122
122
120
120
120
120
120
125
125
127
129
127
129
137
132
129
132
129
125
122
120
120
127
127
127
132
132
127
122
117
112
110
112
115
107
105
103
103
107
107
103
100
100
105
98
89
86
84
82
125
127
127
122
115
117
120
117
112
120
122
120
120
117
120
120
115
115
120
122
117
117
122
122
125
122
120
122
127
127
127
125
125
122
120
115
112
117
122
127
127
125
117
112
107
107
112
115
107
100
100
103
105
105
103
100
98
98
95
86
86
84
80
84
125
134
132
122
112
112
115
112
117
120
122
120
120
115
115
110
110
115
117
115
115
115
115
112
112
110
110
115
120
120
117
117
120
117
112
110
107
112
117
120
117
115
112
110
105
105
110
112
105
98
98
103
105
107
100
100
100
95
91
84
82
84
84
89
