P2
# 262 of 608 Angiograms
64 64
255
100
104
104
104
100
100
102
104
102
104
108
104
102
100
102
102
100
98
98
100
102
100
93
89
86
87
95
96
96
96
98
96
84
74
71
68
69
71
72
71
72
76
79
84
87
95
102
100
104
104
104
104
102
98
98
100
100
98
102
102
100
100
102
104
100
100
100
102
100
98
98
100
100
100
102
100
98
98
98
98
98
98
96
96
96
95
91
89
87
89
95
98
100
100
100
93
84
74
71
66
68
69
72
72
72
76
79
86
91
98
102
108
106
104
102
104
102
98
100
98
98
100
106
102
98
98
104
102
100
102
100
100
98
98
100
96
98
98
96
96
96
93
93
95
95
95
96
96
95
95
93
89
87
89
96
96
100
100
96
89
82
74
72
66
68
69
72
72
76
76
81
87
95
100
104
108
110
108
106
106
102
102
98
100
100
100
106
106
100
102
100
96
102
102
100
98
96
95
95
93
95
96
95
95
93
89
91
89
89
89
91
91
91
89
89
86
86
89
93
95
98
100
96
87
81
74
71
68
69
71
74
76
77
77
82
89
96
102
106
110
112
110
108
106
100
100
100
100
100
100
102
106
102
100
98
96
100
98
96
95
95
91
91
91
93
93
89
91
91
89
87
86
82
84
86
86
86
86
86
84
84
91
96
98
100
100
93
86
79
74
71
69
69
69
72
77
79
79
84
91
102
106
106
110
110
110
104
102
100
104
100
98
100
100
98
100
100
104
102
98
98
96
95
95
93
93
93
91
93
89
87
87
87
91
89
84
82
84
82
86
84
82
81
81
86
95
100
102
98
95
89
82
77
74
72
71
71
71
74
77
79
79
86
96
102
104
104
108
108
104
102
104
102
100
95
96
100
100
98
98
100
102
104
100
96
91
89
93
91
93
93
95
96
93
91
91
91
91
89
84
84
87
86
86
86
84
84
84
89
96
100
96
95
93
87
81
76
74
72
72
72
72
74
79
79
82
89
98
104
108
108
108
106
104
104
104
100
98
96
96
98
98
98
98
102
102
102
102
87
86
87
91
91
93
93
95
96
96
96
95
93
89
86
87
87
89
86
86
87
87
89
89
93
96
102
98
95
93
86
79
77
74
74
76
74
74
74
79
81
86
93
100
108
110
108
108
104
108
106
104
98
98
98
98
98
96
98
98
100
98
98
102
82
84
87
91
91
93
96
96
95
96
98
96
93
91
93
95
93
89
89
89
91
91
95
93
95
98
98
98
95
91
84
77
76
76
76
79
79
76
76
79
84
89
95
102
108
106
102
104
106
108
104
102
100
102
102
100
100
96
98
98
98
98
98
102
79
84
89
91
93
96
96
95
95
96
98
96
95
95
96
98
98
96
95
95
95
96
95
93
98
96
95
95
93
89
82
79
79
77
76
77
79
81
81
82
87
93
96
104
108
104
102
106
106
106
104
104
102
102
102
100
98
98
98
96
100
98
98
98
81
84
87
93
95
95
96
93
95
96
96
96
96
96
95
98
100
98
98
96
98
96
95
95
96
95
93
93
89
87
81
82
79
77
77
76
77
81
82
82
87
93
98
104
108
108
104
106
106
104
104
104
104
104
100
102
100
98
96
95
96
96
96
95
82
86
91
95
96
95
96
96
96
95
98
98
96
98
96
96
102
100
100
98
98
102
96
95
95
96
100
95
91
86
82
81
77
77
76
74
76
77
81
86
91
95
100
104
110
112
108
106
106
104
100
104
104
104
102
104
104
98
96
96
98
96
96
100
86
91
96
98
95
93
95
95
93
93
98
98
96
95
95
96
100
96
96
96
100
98
95
95
93
95
98
96
91
84
81
77
77
81
76
74
74
79
82
87
91
96
104
106
108
110
108
108
106
104
104
106
104
102
100
102
102
98
96
98
98
96
98
100
89
96
98
98
93
91
95
95
98
96
98
98
95
95
95
96
96
98
98
100
100
95
93
91
91
96
95
91
87
81
79
77
77
81
76
74
76
79
84
89
93
98
106
106
104
106
110
108
106
108
106
104
104
104
102
100
100
98
96
102
100
95
96
96
93
96
98
95
91
93
96
96
100
100
98
95
95
95
95
96
98
102
100
96
96
95
91
89
91
95
91
89
84
79
77
76
76
77
76
76
74
77
86
91
95
98
102
106
104
104
104
104
106
108
104
104
104
104
98
98
98
96
98
98
96
95
96
95
93
96
95
96
96
95
95
95
98
98
96
93
93
91
93
96
96
98
98
96
93
95
93
91
91
93
89
87
82
81
79
77
72
76
79
77
76
79
84
91
95
98
100
106
104
106
106
104
102
102
102
100
100
102
98
95
95
95
96
96
96
96
98
96
95
95
95
96
96
96
96
96
95
93
93
93
91
93
96
96
100
100
98
98
96
95
95
93
93
95
91
86
81
79
76
77
72
76
79
77
77
81
86
93
95
96
98
104
104
104
102
102
104
102
100
98
98
98
98
98
95
96
96
95
96
96
100
104
95
93
95
95
93
98
96
93
93
95
91
93
95
96
100
100
96
100
98
96
96
95
96
95
95
95
95
86
79
74
76
77
77
74
74
77
77
84
89
96
98
96
98
102
104
102
102
104
100
100
100
100
98
98
100
98
96
98
98
95
96
96
102
102
98
95
95
96
95
93
93
91
93
96
93
95
96
95
96
95
93
95
95
96
96
96
98
96
95
91
89
82
77
76
74
72
72
72
76
76
81
86
91
96
96
96
98
102
100
102
104
100
98
100
98
98
100
98
98
96
96
96
98
96
95
93
98
100
96
96
96
96
95
93
95
95
91
93
95
95
96
93
95
93
93
96
98
96
95
95
95
96
93
91
89
81
76
76
77
72
69
72
76
76
82
87
95
95
96
98
98
100
104
104
102
104
100
102
98
100
104
100
96
96
96
96
96
96
95
95
95
98
95
93
95
95
95
93
95
95
91
95
96
95
93
91
93
93
95
96
96
98
98
95
95
95
95
89
86
79
77
74
71
69
69
74
76
79
86
91
96
96
95
96
98
100
102
104
102
102
100
100
100
102
104
102
98
96
95
96
96
95
95
93
93
95
93
93
91
91
91
91
95
93
93
95
95
96
98
95
91
89
95
96
96
96
96
95
93
93
87
84
81
76
74
72
72
71
71
76
79
82
89
95
95
96
98
96
96
100
104
106
106
102
100
100
102
104
104
102
98
96
95
95
95
93
95
93
95
95
91
89
89
89
93
91
93
89
93
95
91
98
100
95
91
91
93
95
95
96
91
89
89
89
84
81
77
76
72
69
69
69
74
74
79
86
91
95
96
98
96
98
98
100
104
104
102
102
98
98
100
102
104
100
96
95
95
95
93
93
95
95
96
96
91
89
89
89
93
91
89
89
91
93
89
95
98
96
95
93
95
95
93
91
89
87
87
86
82
81
79
74
72
68
66
69
69
72
81
89
95
96
98
98
100
96
96
98
100
104
102
100
102
102
100
100
98
96
95
91
93
95
95
95
95
95
95
95
91
91
93
93
95
91
89
89
89
91
89
93
95
96
93
93
95
93
91
91
87
89
86
84
81
79
77
76
72
69
68
69
72
76
81
91
96
100
98
102
102
100
98
98
100
104
102
100
102
100
100
100
100
100
96
93
93
96
93
96
98
95
93
95
93
95
93
95
93
91
91
89
89
93
93
91
93
95
93
95
93
93
87
84
84
84
84
82
81
81
79
76
76
72
69
72
74
74
81
93
96
100
98
104
104
98
98
100
98
102
102
102
100
100
98
100
102
98
95
95
93
93
96
98
98
96
96
96
91
93
91
93
95
93
91
89
89
91
93
93
93
93
95
93
91
87
84
82
81
82
82
82
82
84
82
77
77
71
69
71
71
74
81
91
95
98
102
104
102
100
98
100
100
100
104
104
100
100
96
96
96
95
95
95
93
93
96
100
100
96
95
95
84
89
93
95
93
91
91
91
89
91
93
93
93
95
93
91
87
82
81
79
77
82
84
86
89
89
87
82
77
69
69
69
68
72
79
87
95
98
104
104
106
104
102
102
100
100
102
100
98
98
96
95
95
93
91
93
91
93
96
96
100
96
95
93
89
89
89
93
93
91
91
89
91
91
93
93
93
91
86
84
84
79
76
77
79
81
86
89
93
93
91
86
77
72
71
71
69
72
77
87
96
98
102
104
106
106
104
102
98
98
100
100
98
98
96
96
95
93
91
91
93
96
95
96
96
96
98
95
89
87
87
89
93
95
91
91
91
91
93
93
93
87
84
81
79
77
76
77
81
86
84
91
98
96
95
87
79
74
72
69
69
71
77
86
95
100
102
104
108
104
100
100
100
100
98
98
98
96
98
98
96
93
91
91
93
93
93
95
95
95
96
95
89
89
87
87
95
93
89
89
91
87
89
91
91
86
81
77
72
72
72
74
81
86
87
93
98
96
93
87
81
76
71
68
68
69
74
82
91
96
100
102
104
100
98
100
100
100
98
98
96
96
98
98
95
91
93
91
91
91
91
91
93
95
96
96
91
89
86
87
91
89
87
87
89
87
89
93
89
82
77
74
69
72
74
77
81
87
93
93
98
98
91
87
81
76
69
69
68
69
74
79
87
96
100
102
102
100
98
96
100
100
100
98
96
98
98
96
96
95
91
95
91
91
93
91
93
98
98
98
87
84
84
84
87
87
87
87
89
89
91
93
89
82
76
74
69
71
72
76
81
86
89
95
95
93
91
89
82
76
71
68
66
69
71
77
86
93
98
104
104
100
100
100
100
100
102
98
96
96
96
98
96
95
95
93
93
91
91
93
95
93
95
96
89
86
86
86
87
87
89
89
87
87
91
91
87
84
76
71
68
68
69
72
79
82
84
89
93
89
87
86
81
76
74
69
69
71
71
76
82
93
96
102
102
98
100
100
100
104
102
98
95
95
95
96
96
95
95
91
95
93
89
91
93
93
91
96
87
86
87
89
93
91
93
91
87
87
89
87
86
86
77
69
69
66
66
69
76
81
81
86
89
87
87
82
81
77
71
68
66
68
68
74
81
91
96
100
100
95
96
98
98
102
104
100
96
96
96
96
96
93
93
89
91
89
89
91
93
95
96
96
89
86
86
89
87
87
89
93
89
89
91
89
91
87
82
74
69
68
68
71
76
79
81
84
84
86
86
84
82
79
72
69
68
65
66
71
77
87
95
96
96
95
96
98
96
100
102
102
98
98
96
95
93
93
93
95
93
89
91
91
93
95
98
96
87
86
86
86
87
89
91
93
91
89
91
93
95
89
86
81
76
71
71
74
77
79
81
82
82
84
86
87
82
79
74
71
68
63
66
69
77
86
93
95
96
93
93
95
98
98
98
100
98
96
96
98
93
93
93
96
95
93
95
91
93
95
96
95
84
87
86
86
87
89
89
87
91
89
89
91
93
91
91
87
81
76
74
74
76
81
82
82
82
82
87
87
84
81
76
71
69
66
65
72
76
84
89
93
93
95
93
95
96
96
98
100
98
95
96
96
93
96
95
93
89
95
95
93
93
95
95
96
82
87
87
87
86
86
86
87
87
89
87
87
95
95
93
93
89
81
79
81
81
81
84
86
84
86
91
91
87
81
77
71
71
69
68
72
74
81
86
91
91
93
93
95
96
98
96
100
98
95
96
96
95
93
93
93
93
93
95
89
93
93
95
96
84
87
89
87
89
87
86
89
89
87
86
89
91
93
93
95
93
89
86
86
86
87
87
89
86
91
91
89
89
86
79
74
72
71
71
72
74
81
86
89
91
95
95
96
96
96
98
98
95
95
96
96
93
91
93
93
93
95
91
89
89
93
93
95
91
87
89
89
87
87
91
91
89
87
87
91
91
95
95
98
96
93
89
87
89
89
89
91
91
89
91
89
89
89
86
79
76
74
74
72
76
81
87
87
89
91
93
93
93
93
96
96
93
96
96
93
93
93
95
93
95
95
91
91
91
95
96
95
87
87
89
91
89
89
91
89
87
86
87
91
93
93
95
96
98
96
93
89
91
93
95
95
96
93
93
89
91
91
87
84
81
77
76
72
76
81
82
86
91
91
93
95
93
91
95
93
95
98
93
91
93
96
96
95
93
95
91
87
93
95
96
98
89
89
89
91
87
91
91
87
84
87
87
89
91
95
95
95
98
96
95
91
95
95
93
95
96
93
93
89
89
89
89
86
79
81
76
76
79
79
82
87
93
93
96
96
95
93
95
95
95
95
93
93
95
98
96
95
91
91
89
89
96
98
100
98
89
89
89
89
91
89
89
87
87
89
87
89
91
96
98
96
100
100
96
95
95
91
91
93
93
93
93
91
89
89
91
86
81
77
79
77
79
79
84
87
91
95
98
96
95
89
93
96
96
96
93
91
95
96
96
96
93
95
93
93
96
98
100
98
89
89
87
89
89
91
89
87
89
87
93
91
91
98
98
96
98
100
96
98
96
95
93
96
89
91
95
95
95
95
95
87
82
77
79
77
79
81
86
91
95
96
102
100
93
89
91
91
95
98
96
91
93
93
93
95
96
95
96
95
93
98
98
98
93
93
86
86
89
91
91
89
87
86
91
95
96
96
96
96
100
100
100
102
98
96
95
93
93
93
95
96
96
95
96
93
86
82
79
77
79
82
87
91
93
96
100
95
93
91
91
93
95
98
96
93
91
91
91
93
95
95
93
95
93
96
96
98
95
93
89
89
89
91
89
89
89
89
89
95
95
96
100
98
102
100
96
102
98
95
93
91
93
93
91
89
98
96
95
96
91
84
81
77
79
82
86
91
96
100
98
95
93
93
93
95
96
100
95
93
93
93
95
95
93
91
91
91
93
93
95
100
96
96
91
91
91
91
89
91
87
89
93
93
91
93
98
98
100
100
98
100
98
95
95
95
95
91
93
93
96
96
95
95
93
87
84
81
81
79
81
87
95
98
100
98
93
91
96
98
98
98
95
91
93
93
93
95
95
91
91
93
95
95
95
98
98
96
95
95
91
89
89
89
89
91
95
95
93
93
96
100
104
102
104
104
100
96
98
96
93
91
93
96
95
95
95
95
95
89
86
84
81
79
84
86
91
95
100
98
95
93
95
98
98
98
95
96
95
89
93
95
96
96
93
95
95
93
95
100
96
95
91
95
91
89
89
91
91
91
95
93
91
95
98
98
102
100
104
102
100
98
96
96
96
95
93
93
93
93
93
95
95
93
87
86
81
82
84
87
89
93
96
98
100
102
96
95
96
95
95
96
96
91
95
95
96
96
96
96
96
95
95
98
91
89
91
91
89
91
91
91
91
91
91
89
93
91
95
98
98
98
102
104
100
98
95
93
95
96
96
95
95
93
93
96
96
96
89
86
82
81
81
86
87
95
96
100
102
102
98
95
95
95
93
95
96
91
95
93
93
95
95
95
93
91
93
98
89
89
91
91
91
91
91
87
86
87
87
89
91
89
89
96
98
100
100
102
100
98
95
93
95
95
98
100
96
93
95
96
95
95
87
86
81
77
76
82
87
96
96
98
98
102
96
95
96
95
93
93
93
91
93
93
95
95
95
96
95
91
95
98
87
89
89
91
93
93
91
87
86
86
84
86
89
93
93
93
95
98
102
102
100
98
96
96
95
95
95
98
100
96
95
96
95
93
91
87
81
76
74
84
89
95
98
98
98
100
96
93
96
95
93
91
95
93
95
93
93
95
95
93
96
93
96
102
86
86
86
89
89
89
89
87
87
87
87
86
89
91
95
95
96
96
96
98
100
98
96
93
96
96
95
98
100
98
96
95
96
95
91
86
77
77
76
82
87
93
95
98
98
100
98
95
95
91
89
91
95
95
96
93
93
95
93
91
95
95
96
98
86
84
84
86
86
84
86
87
86
87
89
91
91
91
93
96
93
96
98
98
100
98
95
93
95
93
93
95
96
98
95
93
95
91
91
84
77
74
76
81
86
91
96
98
100
98
96
95
91
87
91
91
91
91
91
91
89
93
96
95
96
100
96
98
86
84
86
87
86
84
86
84
86
87
87
91
91
89
91
93
93
95
95
93
95
91
91
91
91
93
93
93
95
93
91
93
93
93
93
84
77
76
76
81
86
87
91
95
96
95
93
93
89
87
86
87
89
89
89
93
91
93
93
96
96
96
100
100
82
84
87
87
84
82
86
84
86
87
87
89
89
89
89
91
91
89
89
91
91
89
91
89
89
89
89
89
89
91
89
91
93
95
91
84
77
76
76
77
82
87
89
95
96
93
93
91
89
87
87
87
87
87
89
91
91
91
91
91
93
95
98
96
84
86
86
86
84
86
87
86
87
87
87
86
86
87
87
91
91
91
91
95
93
89
89
91
87
86
89
87
89
91
91
95
91
93
91
84
76
76
77
77
81
84
91
93
95
95
93
93
91
87
89
87
89
89
89
91
89
89
87
93
93
93
93
93
87
86
87
86
86
87
87
86
86
87
89
87
87
87
86
89
91
91
95
93
95
95
91
89
89
89
87
87
89
89
91
93
89
89
87
84
77
76
76
76
77
82
89
93
95
95
95
96
93
89
86
86
87
89
91
87
87
86
87
91
93
93
91
91
89
87
87
89
89
89
86
86
84
89
87
87
91
89
86
89
91
91
93
93
93
95
91
91
87
87
89
89
89
87
87
91
91
91
87
84
77
76
74
72
74
81
91
91
93
96
98
96
93
87
86
86
89
89
93
91
89
87
87
91
93
93
91
93
86
91
89
89
87
86
86
84
84
87
87
86
86
87
87
87
91
91
95
95
95
93
93
91
87
86
86
89
91
89
89
91
89
89
87
82
77
76
74
71
72
81
89
93
93
96
96
95
91
87
89
87
87
87
93
93
89
87
87
87
89
95
93
91
84
86
87
86
86
84
82
84
84
84
84
82
87
86
86
84
86
91
93
93
93
93
91
89
86
86
86
89
89
89
91
91
89
87
89
84
77
76
72
69
72
81
87
91
93
93
95
98
91
87
84
87
89
87
89
89
91
87
86
87
89
96
95
91
86
84
86
86
89
84
86
86
84
82
84
82
84
84
84
86
86
89
91
93
93
91
86
87
86
87
87
89
89
87
87
89
93
91
91
84
77
76
72
71
74
82
87
91
95
95
96
96
93
89
84
86
87
89
89
87
89
89
91
89
89
95
93
89
89
86
84
84
89
89
87
87
82
82
82
81
84
82
86
87
89
87
89
87
89
89
86
87
89
89
89
89
87
86
87
91
91
93
87
84
76
76
72
69
76
81
89
91
95
98
98
96
93
89
87
84
89
91
89
89
87
89
91
86
87
93
93
91
