P2
# 265 of 608 Angiograms
64 64
255
113
115
121
121
121
119
119
117
117
115
115
119
123
123
125
127
129
127
117
108
104
108
110
112
115
117
113
106
100
95
95
100
108
113
115
117
117
117
117
123
125
125
125
125
123
121
119
119
123
129
131
131
127
129
135
141
144
148
152
152
150
148
144
141
113
113
121
123
121
119
121
121
119
115
110
112
115
117
117
121
125
123
115
106
100
104
108
110
117
119
117
113
108
104
104
112
119
121
125
127
127
125
125
129
133
133
133
131
131
129
127
127
129
133
135
135
133
133
135
141
146
150
154
154
150
146
142
141
115
115
117
119
123
125
125
121
117
113
108
106
110
113
115
119
123
125
117
110
108
104
104
110
115
115
113
110
108
108
112
121
125
131
135
135
133
131
133
135
135
137
137
135
135
135
133
131
133
135
137
135
131
131
133
137
144
150
152
150
146
142
141
139
117
119
121
123
127
127
123
117
113
113
108
110
113
119
127
129
129
129
125
115
113
112
110
112
113
112
108
106
106
110
117
125
131
137
139
137
133
133
135
135
135
139
141
139
141
137
135
133
131
133
133
133
127
127
129
133
139
146
146
144
144
142
141
137
115
121
121
123
125
121
117
113
115
117
119
119
125
135
137
137
137
137
127
119
117
113
113
113
113
112
106
102
106
112
121
129
135
137
139
139
135
133
131
131
137
139
139
141
142
139
139
137
135
135
133
129
125
125
129
131
137
142
144
142
142
142
139
135
110
119
121
121
121
119
117
117
121
125
127
133
139
144
146
142
141
135
127
119
117
115
117
121
119
115
106
100
100
110
123
133
137
139
137
137
135
135
131
131
135
141
141
142
141
139
139
142
141
137
133
127
125
125
129
131
135
142
142
142
144
142
139
135
95
110
115
119
121
121
125
127
133
135
141
144
148
150
150
146
139
131
123
117
115
117
121
127
127
117
108
100
98
108
123
135
137
139
137
135
135
135
133
133
135
139
141
142
142
139
142
144
146
141
135
129
125
125
127
129
135
141
142
144
146
144
141
135
81
93
110
119
123
129
133
139
144
146
150
152
152
152
150
144
137
125
117
113
115
117
125
129
127
119
112
102
104
110
123
133
137
137
135
135
135
135
137
135
137
137
139
141
142
141
141
142
144
141
135
131
129
127
123
125
133
139
142
144
146
144
141
137
71
84
96
113
125
135
141
146
150
152
152
154
154
152
148
144
135
121
113
112
113
119
127
129
129
121
117
112
112
117
123
133
133
135
137
137
131
131
135
135
137
137
141
141
141
141
142
142
141
141
137
133
131
127
123
123
129
137
142
144
146
142
139
137
68
74
87
104
123
137
146
150
152
150
150
154
158
156
150
142
131
117
110
108
113
121
129
131
129
123
121
121
121
123
127
131
133
133
135
135
133
133
133
133
135
137
139
141
139
139
139
139
142
141
137
135
133
127
123
123
129
135
141
142
142
141
137
137
66
72
86
100
117
137
148
154
156
156
154
158
158
158
154
142
129
117
112
108
113
123
131
133
131
129
127
129
129
129
129
131
131
131
131
129
131
131
131
131
131
133
137
139
137
137
137
139
141
141
135
135
133
129
125
123
129
133
139
141
141
141
139
139
66
74
84
96
110
131
144
154
156
156
156
158
156
156
152
141
127
117
112
113
119
127
133
135
135
133
133
133
133
131
129
129
129
129
127
125
129
129
129
127
127
129
133
135
135
135
133
135
137
137
133
129
133
129
125
127
131
131
135
135
137
139
139
139
66
76
82
93
104
119
139
148
156
156
158
156
154
152
144
135
123
117
119
121
125
131
137
139
135
131
129
133
133
133
131
131
131
129
125
123
125
129
129
127
127
127
127
133
133
133
131
131
129
129
131
129
131
129
127
131
133
133
133
135
139
142
142
141
66
74
81
89
100
110
125
139
150
154
152
154
152
146
137
127
123
121
125
127
131
137
139
139
135
129
129
133
131
131
133
135
135
135
131
123
125
125
127
127
129
127
127
129
131
131
131
131
127
125
125
127
129
129
131
133
137
137
135
139
142
146
146
146
68
74
77
86
96
104
112
127
141
148
150
148
146
139
127
123
121
125
129
131
137
139
139
141
139
135
131
133
131
133
133
133
133
133
129
127
123
123
125
129
131
129
127
125
127
127
127
125
125
123
125
125
127
131
131
135
139
141
141
141
144
148
148
146
68
72
77
86
95
100
104
113
129
139
142
141
131
123
117
115
117
123
129
135
139
139
141
141
142
139
135
135
133
131
131
131
133
133
131
129
123
123
125
127
129
127
127
125
127
125
123
121
121
121
125
127
129
131
133
137
139
142
142
144
144
146
148
150
69
72
76
84
91
95
96
100
110
117
123
121
113
110
104
104
110
115
125
131
137
139
137
137
137
137
135
131
133
131
131
133
133
133
131
127
123
123
123
125
129
127
125
125
123
125
125
125
123
121
123
123
127
131
133
135
139
141
142
142
142
144
148
150
71
72
74
79
86
86
84
84
87
91
95
95
95
95
93
95
98
108
112
119
127
131
131
129
131
131
129
129
135
135
133
133
133
129
127
127
125
123
121
125
129
129
127
127
127
127
125
123
123
125
123
123
123
129
133
135
137
141
142
142
144
144
146
150
71
76
72
74
74
74
72
71
71
72
76
77
81
79
79
81
86
93
100
106
112
117
121
121
125
127
127
129
133
137
137
137
135
129
127
127
123
119
121
127
129
127
129
127
127
127
123
123
125
123
119
123
125
129
131
135
137
139
142
141
144
144
146
152
72
71
66
66
65
63
60
59
59
60
63
69
74
77
77
76
77
82
87
93
96
98
106
110
113
119
123
127
131
137
139
137
135
131
129
125
119
117
123
127
131
133
133
131
131
131
125
123
121
121
119
121
125
127
131
135
137
139
142
142
144
146
148
154
71
63
60
59
58
55
54
54
54
54
58
65
69
72
74
74
72
72
77
81
84
87
91
93
102
108
115
121
127
133
137
137
135
133
133
129
123
123
123
127
129
133
137
137
135
135
131
127
123
121
121
121
125
125
125
131
135
137
141
144
142
144
150
156
65
60
56
54
51
51
49
51
51
51
54
62
68
71
69
68
66
68
69
74
76
79
81
82
86
93
102
110
121
129
135
137
135
135
133
133
127
125
123
127
129
135
137
135
137
139
137
133
127
123
121
123
127
127
127
127
133
137
139
142
142
144
148
154
63
56
51
52
52
51
49
47
50
50
51
58
68
69
72
68
66
68
66
68
71
74
74
74
76
79
86
96
108
119
129
135
135
137
137
135
131
131
129
131
135
135
133
135
139
141
139
135
133
129
127
125
127
127
127
125
129
135
141
144
144
142
146
152
59
52
52
52
51
46
46
46
49
50
51
58
69
69
72
71
72
71
68
63
65
69
68
68
71
72
77
84
93
108
119
129
135
141
142
139
135
131
131
133
135
135
133
137
139
137
139
135
135
135
133
129
127
127
127
125
127
131
141
144
144
142
146
148
54
51
52
50
49
49
49
47
46
47
52
59
68
71
72
74
76
72
69
65
63
66
69
71
68
66
68
77
86
96
108
121
131
139
141
141
137
133
131
133
133
133
133
133
137
137
139
139
139
141
137
131
129
129
127
127
129
133
141
142
146
146
148
144
54
52
51
51
50
49
47
46
49
49
52
60
69
76
79
82
81
79
76
72
72
72
72
69
68
66
63
69
77
86
93
106
123
135
139
142
139
135
131
133
133
133
135
135
137
139
139
139
139
139
139
135
129
129
129
129
129
135
139
141
144
146
142
137
56
54
51
51
49
49
47
46
47
51
54
62
68
76
82
84
86
82
84
81
77
74
72
72
71
68
65
65
71
77
86
95
110
127
139
144
141
137
133
129
131
133
135
135
137
139
139
142
141
139
142
141
135
129
131
129
131
133
137
139
137
135
131
125
59
54
54
52
50
47
46
47
47
50
55
62
69
77
82
87
89
87
89
87
82
81
77
77
76
71
68
66
66
72
79
89
100
115
131
141
142
139
135
131
135
137
135
137
135
137
139
144
142
141
146
144
139
131
131
127
129
131
131
129
127
123
119
117
59
55
55
54
51
49
49
50
47
49
55
63
76
86
93
93
93
93
93
87
86
84
82
82
81
76
72
69
69
69
74
82
93
106
119
133
139
137
137
135
133
135
135
137
137
135
137
144
144
144
148
146
139
131
127
125
125
125
123
117
115
112
110
110
58
55
56
54
52
51
50
51
50
51
59
71
87
104
113
113
110
104
98
91
89
86
82
84
86
81
77
72
69
68
71
77
86
96
108
121
131
135
137
135
133
133
135
137
139
137
137
141
146
148
150
146
139
129
123
119
117
115
110
108
106
108
108
110
63
59
58
56
56
54
54
54
52
55
65
86
112
129
135
135
129
119
110
100
93
87
82
86
87
87
81
77
74
74
72
72
81
89
100
110
121
131
135
135
131
133
133
137
139
137
137
139
144
148
146
142
133
123
115
110
106
102
100
98
100
104
106
110
72
63
60
59
56
55
56
56
56
65
81
112
135
152
154
152
144
137
125
110
98
93
86
87
89
87
86
81
79
77
74
71
77
84
93
102
112
123
131
133
133
133
135
139
139
135
135
137
141
144
141
135
125
113
106
100
98
96
95
96
98
100
106
112
79
74
69
66
63
62
60
60
66
81
106
133
154
163
165
161
154
146
139
127
110
98
91
87
91
87
89
84
84
79
74
71
74
79
87
95
102
112
123
133
135
135
137
137
137
137
137
137
135
135
129
121
112
106
100
96
95
93
93
95
98
102
110
115
86
84
79
76
74
72
72
76
82
100
121
146
163
168
168
167
159
152
144
137
127
112
100
93
93
91
91
91
86
81
74
74
74
76
82
89
95
104
113
125
131
137
137
137
137
137
135
131
127
121
115
106
104
102
98
93
91
91
91
96
98
106
115
127
87
86
86
84
82
82
84
86
98
112
133
152
167
173
172
168
161
154
146
142
137
125
112
104
96
95
93
93
86
82
76
72
72
74
81
84
89
95
104
113
125
135
137
137
137
133
129
123
117
113
104
100
100
98
96
91
89
87
89
96
102
113
127
139
87
86
87
87
89
87
87
95
104
117
139
158
168
172
172
167
159
152
146
142
137
129
121
113
104
93
91
91
86
81
74
71
69
71
74
79
82
87
91
102
115
125
129
131
131
127
121
115
112
108
100
100
96
96
95
93
91
91
93
102
113
129
142
152
87
87
87
86
89
89
91
95
104
117
137
154
163
167
165
159
154
148
142
137
129
125
121
115
106
96
91
86
82
77
68
65
65
66
69
72
76
79
84
91
100
110
113
117
119
117
115
113
110
106
102
100
98
100
98
98
96
98
104
115
129
142
152
159
89
89
86
84
86
87
89
93
98
110
127
142
152
156
154
148
142
139
133
121
117
113
112
112
106
98
89
84
81
74
66
62
62
63
63
66
68
71
74
79
86
95
100
106
108
110
112
112
108
106
104
100
102
104
104
104
104
110
119
131
142
150
158
163
84
84
81
81
81
81
82
86
93
102
119
133
141
142
142
139
133
129
121
115
108
104
106
108
104
98
91
82
77
71
65
60
59
59
62
62
62
63
66
71
74
81
86
91
98
102
104
104
104
102
100
104
108
110
112
112
115
125
135
144
150
156
159
163
76
74
72
71
71
71
74
79
87
98
113
125
131
135
133
129
123
119
115
108
102
100
100
102
100
95
89
82
74
69
63
56
56
60
62
60
59
59
60
63
66
69
72
76
84
89
95
98
98
100
100
104
108
113
117
123
131
139
144
152
154
158
161
163
69
69
68
65
66
68
69
76
82
95
110
119
125
127
123
119
115
115
112
106
98
96
96
96
95
89
89
82
72
68
65
58
56
58
62
59
58
58
59
60
62
63
66
68
71
76
82
89
93
95
95
102
110
119
127
133
141
146
150
152
156
158
159
161
66
65
66
63
65
69
71
72
82
93
106
117
123
123
121
115
112
112
108
100
95
95
96
96
93
89
89
86
79
71
68
62
60
60
62
60
59
58
58
60
59
62
62
62
60
65
72
81
87
93
95
102
115
127
133
141
148
150
150
152
154
156
158
159
66
66
66
65
63
68
69
71
82
93
104
113
119
119
119
112
110
108
104
98
95
95
96
98
95
93
93
89
84
79
72
65
60
59
59
60
60
59
58
58
59
58
58
58
56
60
65
74
82
89
96
110
119
129
139
146
150
152
152
154
154
154
158
158
63
65
66
65
62
65
71
74
82
93
104
112
115
117
113
110
108
108
104
98
95
95
98
98
95
95
93
95
91
86
77
68
60
58
59
60
60
59
56
58
58
54
54
54
55
58
62
69
79
89
98
110
123
131
139
146
150
152
154
158
158
158
156
156
62
62
63
63
63
66
71
74
82
93
106
112
113
112
110
110
112
108
102
96
91
95
100
100
98
96
95
95
93
87
84
74
65
60
60
60
60
55
52
58
56
54
56
56
56
56
62
66
76
86
93
106
123
131
137
142
144
148
152
156
159
159
158
154
62
63
66
65
63
66
69
77
86
96
108
110
112
112
113
113
113
108
102
96
93
93
98
102
102
100
95
91
93
91
86
81
72
63
60
59
58
54
52
55
56
59
60
62
59
59
62
63
69
81
89
100
115
125
133
139
141
142
144
150
156
159
158
152
62
68
69
66
65
66
71
81
89
98
106
110
110
112
113
117
115
110
104
96
91
91
96
102
104
102
98
93
96
96
91
86
79
69
63
60
60
59
58
58
60
60
62
63
60
59
63
63
71
79
86
95
106
115
121
127
133
135
135
139
146
156
156
150
63
65
66
71
72
74
77
84
93
100
104
108
110
112
112
115
113
110
106
98
91
91
96
104
110
110
106
104
104
104
102
96
89
81
71
68
68
68
65
62
63
65
66
63
63
63
63
68
74
79
82
87
95
102
108
112
115
117
119
125
135
146
152
148
60
65
71
72
76
74
79
86
96
102
106
110
112
112
112
112
112
113
110
104
96
93
96
106
112
113
113
113
113
113
115
112
104
95
86
81
76
72
69
68
66
68
69
68
68
68
71
74
77
81
84
86
89
93
95
98
102
104
106
110
121
137
144
146
62
65
72
74
74
74
81
87
100
106
110
113
113
113
115
117
119
117
115
110
104
98
102
112
119
125
125
125
125
125
125
121
115
110
100
95
87
81
76
72
71
71
69
74
71
72
76
77
79
81
82
84
86
87
87
87
91
93
96
100
112
129
141
144
63
65
71
74
74
76
82
93
104
112
115
117
119
119
121
123
127
127
125
119
112
108
112
121
129
135
141
141
139
137
133
129
123
115
112
110
102
91
84
79
74
72
72
74
74
79
79
79
82
82
81
82
84
84
84
84
87
91
93
96
104
117
129
141
65
66
71
72
74
79
89
104
113
119
125
127
127
131
129
133
135
137
137
133
125
119
119
125
137
142
146
146
142
139
135
131
125
121
115
115
115
104
91
84
79
77
77
76
77
81
81
82
84
86
84
84
84
84
82
89
89
91
91
95
100
108
117
127
65
68
72
74
81
89
100
113
125
131
135
137
141
144
146
146
146
146
144
142
137
127
121
129
139
142
142
144
144
141
133
127
125
121
117
119
123
115
102
91
86
84
84
82
82
82
84
84
86
87
87
84
84
84
86
91
95
95
95
96
98
100
104
113
68
72
74
79
89
100
113
129
139
144
146
148
150
152
156
158
158
156
152
148
142
133
127
131
139
142
142
144
142
139
135
129
127
123
121
123
125
123
113
102
95
93
93
91
89
87
87
89
87
87
87
87
87
87
89
91
95
96
95
93
93
96
98
102
71
72
76
84
96
108
127
142
150
156
156
156
156
159
163
163
161
156
154
148
142
133
129
131
135
142
144
142
142
139
135
131
127
123
119
121
125
123
117
108
104
106
106
104
98
96
95
95
95
89
89
91
91
93
93
93
95
96
95
93
93
93
96
102
71
72
76
84
96
113
135
150
158
159
161
159
159
163
163
165
163
156
152
146
141
133
129
129
133
139
142
142
141
135
133
129
127
123
117
117
121
123
119
112
110
108
112
112
110
106
100
96
93
95
93
95
96
96
95
96
96
100
98
98
96
95
95
98
69
72
74
81
95
113
137
152
159
159
159
161
159
161
161
165
161
156
150
144
139
133
131
131
133
137
141
141
135
135
131
129
129
125
117
117
117
119
119
113
110
112
113
113
113
110
108
104
98
98
98
98
98
96
98
100
102
100
100
102
98
96
95
98
62
65
71
74
86
110
135
152
158
159
163
163
163
161
161
163
159
154
150
142
137
135
133
129
129
133
135
135
133
131
129
129
129
125
121
117
113
115
115
113
110
110
112
112
113
113
113
112
110
110
108
104
102
100
102
104
106
104
106
104
102
98
96
98
56
58
60
66
77
98
129
146
154
158
161
163
163
159
161
161
156
152
148
141
137
135
133
129
127
129
131
131
127
127
129
129
127
127
125
119
115
113
113
110
106
106
112
110
110
113
113
115
117
115
113
110
108
106
108
108
110
108
110
110
108
104
102
102
54
52
52
58
65
84
113
137
148
156
158
161
163
158
158
158
154
152
146
139
135
137
135
131
123
127
129
125
123
125
127
127
127
129
127
121
115
113
112
106
104
104
108
108
108
112
113
115
121
119
119
119
117
115
115
113
113
113
115
115
113
112
106
102
52
49
47
51
59
72
93
119
139
150
156
159
161
158
156
152
150
148
142
137
137
137
135
131
127
127
129
127
125
123
123
129
133
133
127
119
113
113
113
110
104
106
108
106
106
110
110
113
115
119
123
129
131
131
129
125
123
123
121
119
117
115
112
110
49
45
44
46
55
63
77
100
121
139
150
156
159
158
152
150
150
146
141
133
135
137
137
135
131
131
133
133
129
127
129
133
135
133
127
117
112
110
115
112
110
108
108
108
108
112
108
108
113
117
123
133
137
135
137
135
133
133
131
129
127
125
121
117
49
44
44
44
51
58
66
82
104
125
141
152
156
156
152
152
146
142
139
135
135
135
137
135
135
135
137
135
133
133
133
135
135
133
127
115
110
110
115
117
115
112
110
110
110
110
110
106
108
113
121
131
139
141
144
146
146
146
144
139
137
135
133
131
49
46
42
46
51
55
59
71
87
110
129
144
152
156
154
150
146
142
141
139
139
139
135
137
137
139
141
137
137
133
133
137
135
131
127
117
110
108
113
119
117
113
110
108
108
106
106
106
104
110
113
125
135
142
148
150
150
152
152
150
148
146
142
139
