P2
# 267 of 608 Angiograms
64 64
255
58
59
60
62
62
65
71
79
91
106
121
135
142
148
146
142
139
144
152
159
161
159
156
154
150
141
133
129
127
123
129
139
148
154
150
146
142
144
142
141
137
137
139
142
148
154
156
152
148
142
139
137
137
139
139
139
135
131
135
137
135
141
146
152
52
52
51
51
52
54
58
62
69
82
98
117
133
142
148
146
139
142
148
154
158
156
154
150
144
135
129
127
127
127
133
142
150
152
148
144
144
148
148
141
135
135
135
141
148
152
154
152
150
144
141
135
135
139
141
141
137
135
137
139
139
144
148
152
47
47
47
47
46
47
50
54
59
66
77
95
115
129
139
142
142
142
144
148
146
146
144
139
131
123
119
119
123
127
135
144
150
148
144
142
144
148
148
142
137
137
135
139
144
150
150
148
146
146
142
137
133
135
139
141
137
137
139
139
142
148
152
154
45
44
45
45
46
46
49
50
52
58
66
74
91
110
125
133
135
133
131
129
129
127
123
117
112
104
104
106
113
121
133
142
146
142
139
141
142
144
148
142
137
139
137
137
141
146
148
146
146
146
144
141
135
135
137
137
137
141
142
139
144
152
154
152
46
46
46
46
45
44
46
47
50
52
56
63
72
86
102
112
113
112
106
106
102
102
98
93
87
84
84
91
98
108
121
135
139
137
133
139
144
146
146
141
139
141
139
141
141
142
146
146
146
144
146
144
139
135
133
129
133
139
141
141
148
156
156
154
45
45
44
45
45
44
44
45
44
47
51
55
62
68
74
82
86
86
84
82
82
82
81
76
72
71
72
77
84
93
104
113
119
123
129
135
142
148
144
142
141
142
146
148
144
144
146
148
150
148
148
148
144
139
135
131
135
139
141
142
150
154
154
156
46
43
42
41
44
43
43
42
42
46
47
50
54
56
58
60
65
68
72
72
71
71
68
63
58
56
62
68
74
82
89
98
104
106
115
127
135
144
146
144
144
146
150
154
152
152
152
152
152
152
152
152
148
144
141
135
137
141
141
142
148
150
152
154
45
42
42
43
44
41
42
41
41
43
44
46
50
50
50
52
55
59
62
65
65
62
59
55
51
51
55
59
66
71
76
81
86
89
98
112
123
133
142
144
142
146
152
156
158
156
156
154
152
154
154
156
152
150
146
142
139
139
137
141
146
146
150
152
42
42
42
43
41
42
43
42
42
42
43
44
46
46
45
45
47
51
55
58
58
58
55
49
51
55
56
56
63
66
68
69
71
76
82
95
108
119
127
137
142
146
152
158
159
158
158
156
156
156
158
158
156
152
152
148
142
137
137
139
142
144
150
154
42
43
42
44
41
42
42
42
42
41
41
44
45
45
42
40
43
46
50
52
55
56
54
51
51
52
54
59
63
65
63
60
60
65
71
82
95
104
112
123
135
142
152
158
158
159
159
158
158
159
158
156
156
156
158
154
148
142
137
137
139
142
148
154
44
43
42
44
44
42
42
42
42
42
41
41
43
43
41
41
42
42
46
51
55
58
56
55
55
55
58
65
66
66
63
59
58
59
65
74
84
91
100
110
121
135
146
154
158
161
161
159
158
159
158
159
159
159
158
156
154
150
144
139
139
142
144
152
43
41
41
43
44
43
43
42
42
41
42
41
42
41
40
40
42
42
45
50
54
56
58
59
59
59
65
71
74
71
68
63
60
59
63
69
77
86
91
98
108
121
139
148
158
161
163
159
158
159
159
159
161
161
159
156
154
150
150
146
144
144
142
146
42
41
41
43
45
42
44
43
43
43
42
42
43
41
40
40
42
42
45
47
52
56
58
62
63
65
69
76
77
74
74
69
65
65
65
68
72
81
87
91
96
108
123
137
150
158
161
159
158
158
159
159
161
159
159
156
154
152
152
152
152
150
148
146
43
42
43
42
42
41
43
43
43
45
43
42
42
42
41
41
44
44
44
45
49
55
59
60
65
69
76
82
84
81
77
74
71
69
69
68
72
79
84
87
91
98
110
123
137
148
154
158
156
156
159
161
161
161
161
158
154
154
152
156
158
158
154
150
46
45
44
44
43
44
45
44
44
45
43
42
42
43
41
41
43
44
44
45
47
55
60
65
71
77
82
87
87
82
81
79
76
74
71
69
74
79
81
84
87
93
98
110
123
135
144
150
154
156
159
163
163
163
161
159
156
154
154
159
163
163
161
158
51
50
47
45
45
46
46
46
45
45
45
42
42
43
42
42
42
42
43
44
49
56
65
76
84
89
93
96
95
91
86
84
82
79
74
74
77
79
77
79
84
89
93
98
108
119
131
141
148
156
161
163
163
163
163
161
156
152
156
161
165
167
165
161
56
52
50
47
47
49
49
49
46
46
49
46
44
44
42
41
40
40
41
44
51
60
77
91
98
102
104
106
104
100
95
91
89
87
82
79
79
82
81
77
81
86
89
93
98
106
117
131
141
152
159
163
163
165
163
161
156
154
156
163
167
170
167
161
59
56
55
54
52
54
55
54
50
47
47
47
46
44
42
40
41
40
41
43
54
69
96
108
115
119
123
121
117
108
102
98
96
93
87
87
84
84
84
79
79
82
86
87
91
98
106
117
127
142
154
163
165
167
165
161
156
154
158
165
167
168
167
163
62
60
59
59
56
58
59
58
52
51
50
47
47
45
43
42
41
40
41
44
58
82
110
125
131
135
139
137
133
125
115
108
102
100
96
95
89
87
86
82
81
81
84
86
86
93
98
106
117
129
142
156
163
165
165
161
158
154
161
167
168
167
167
165
66
68
68
68
66
68
68
65
56
52
50
50
47
45
44
43
42
41
42
45
60
91
119
137
141
144
144
146
146
141
131
121
112
106
100
96
96
91
86
81
77
81
82
84
82
87
96
100
106
117
129
142
154
159
159
159
156
158
163
167
167
167
167
165
71
74
76
77
79
77
76
71
62
55
50
51
50
47
45
43
43
41
43
49
66
96
129
144
150
148
146
146
150
150
142
133
121
112
108
102
96
93
87
84
81
81
81
81
84
86
91
95
102
110
115
125
139
146
152
156
156
158
165
167
165
167
168
165
76
81
82
86
86
87
84
76
66
60
55
54
50
47
46
44
45
45
47
54
72
106
139
154
154
148
146
144
150
150
146
137
129
121
113
110
102
96
91
89
86
82
81
81
84
87
87
89
95
102
108
115
121
129
137
144
150
156
163
167
165
167
168
165
79
82
89
93
87
89
86
77
69
63
59
56
54
49
49
47
47
49
52
62
84
117
146
158
156
150
144
144
146
148
144
139
131
129
125
117
110
102
95
91
87
84
82
84
86
87
86
86
89
96
100
106
110
115
123
131
139
150
159
163
165
167
170
170
82
84
91
95
91
89
82
74
66
63
62
58
56
52
51
51
51
54
59
71
96
129
152
159
158
154
144
141
142
144
142
139
129
131
133
127
119
112
102
95
89
86
86
87
87
86
84
86
87
91
95
98
102
106
112
117
127
141
150
156
161
165
167
170
87
87
91
98
96
89
79
71
66
65
63
63
59
56
54
56
56
59
65
79
108
139
156
159
154
150
146
139
139
141
141
137
131
137
139
135
127
119
108
98
93
89
87
86
87
87
84
86
86
91
95
93
95
98
104
108
115
129
137
142
150
156
159
165
86
87
91
98
96
89
76
69
66
62
62
63
59
56
56
58
59
63
69
84
117
142
156
156
154
150
146
139
137
139
139
137
137
141
144
142
135
127
115
104
96
93
87
86
87
89
87
87
89
93
95
93
93
95
98
104
112
121
125
131
137
142
148
152
82
86
93
100
100
89
74
68
63
60
59
56
56
55
58
59
62
66
72
87
121
146
156
156
156
152
146
141
139
141
141
137
137
142
148
150
146
137
129
113
104
96
91
89
91
91
93
93
95
96
96
96
98
98
98
102
108
115
119
121
123
129
131
131
77
84
95
104
102
86
71
65
60
59
58
59
56
56
59
60
63
68
76
93
123
144
154
158
156
152
146
144
141
141
142
139
139
142
146
152
150
146
137
125
113
104
96
93
93
93
93
96
100
100
100
98
100
98
102
104
106
112
113
113
113
113
112
112
77
87
100
110
102
81
69
65
60
58
58
58
58
56
60
62
62
68
77
95
121
142
150
154
152
148
144
146
144
142
142
137
139
141
144
148
152
150
142
137
125
113
106
100
98
96
98
102
102
100
102
98
102
102
102
104
106
110
110
110
110
106
100
93
81
93
108
112
102
81
69
65
62
59
58
59
60
62
63
65
66
71
77
95
123
139
146
148
146
141
141
146
146
146
146
141
139
139
141
144
146
146
142
141
135
127
117
110
108
106
106
108
106
102
100
102
104
104
102
106
106
108
110
108
102
96
89
81
89
100
115
115
100
81
72
68
66
65
63
62
63
65
68
71
72
76
84
102
127
139
144
146
141
137
137
142
146
146
148
144
139
139
141
141
144
144
142
141
139
139
131
123
119
115
112
108
106
108
108
110
108
106
108
108
110
108
106
100
96
87
79
72
100
113
123
121
102
86
79
74
71
69
68
65
66
69
71
71
76
81
91
110
131
142
144
144
141
139
139
139
141
142
144
144
141
139
137
139
142
144
144
142
146
148
144
139
133
125
119
115
113
113
115
113
112
113
112
110
108
104
100
93
86
77
71
68
117
129
131
123
102
89
81
77
74
71
69
66
69
71
72
74
79
86
98
117
137
144
142
141
141
141
141
141
137
137
139
141
141
141
139
139
141
142
144
146
150
152
152
148
144
139
131
127
123
123
121
119
117
115
110
108
104
96
91
86
81
72
66
65
135
142
137
125
106
93
86
81
77
76
72
71
71
72
76
77
81
89
102
125
142
148
142
141
139
144
144
142
142
139
137
137
137
139
137
137
139
141
144
148
150
152
154
152
150
148
142
141
139
135
131
125
121
117
108
102
95
89
84
81
77
69
68
66
154
158
146
127
110
96
87
84
81
77
77
76
74
76
77
77
84
93
110
131
144
148
142
139
139
146
150
148
146
144
141
139
137
139
137
135
137
142
146
150
150
150
150
150
148
148
148
148
144
141
137
131
125
117
108
98
89
84
84
79
76
69
66
65
172
170
150
127
110
98
91
86
81
77
77
79
76
79
82
81
87
98
119
139
146
148
144
141
139
144
154
154
150
148
142
139
137
137
137
135
137
144
148
152
150
146
146
146
148
148
150
150
148
142
137
131
127
119
110
100
91
87
86
81
76
71
68
71
183
173
148
123
110
100
95
87
81
79
79
79
77
82
86
84
89
108
129
142
148
146
142
139
139
141
148
154
156
152
144
139
135
133
131
133
137
144
150
150
150
146
144
142
144
146
146
148
144
139
131
129
129
121
115
104
98
93
89
86
81
76
74
77
185
172
146
121
108
98
95
86
79
81
82
82
81
81
86
87
98
119
135
144
148
148
142
135
135
137
142
148
150
148
141
133
129
125
125
125
133
141
146
146
144
144
142
139
141
142
142
141
135
133
131
127
129
127
121
113
106
100
98
96
91
89
87
89
183
168
144
119
102
93
86
82
81
81
79
81
82
84
86
91
104
125
137
142
144
142
137
131
129
129
133
137
137
135
127
121
115
112
112
115
123
133
139
141
139
139
139
137
135
135
135
131
131
131
129
127
127
127
123
121
115
112
112
110
112
112
112
113
178
161
137
115
95
84
82
81
79
81
76
77
77
77
84
91
104
125
133
137
135
131
127
121
115
115
117
121
119
119
113
106
100
100
102
108
113
121
129
131
129
131
131
131
129
131
131
127
125
123
125
127
127
127
123
121
121
123
125
131
133
135
139
139
172
152
129
110
93
84
79
77
76
74
72
72
72
72
77
87
102
117
125
127
125
121
115
108
104
104
108
106
106
102
98
93
87
86
91
96
106
112
117
115
117
119
123
123
123
123
125
125
123
121
123
125
127
129
129
131
135
139
142
146
150
154
158
159
159
141
119
102
91
82
76
72
66
63
63
63
65
68
72
81
98
110
115
117
115
108
104
98
96
98
98
98
96
95
91
84
79
77
82
89
96
102
104
106
108
112
115
119
119
117
119
121
125
123
121
123
127
131
137
142
148
152
156
158
159
165
167
167
142
129
112
95
86
77
69
63
59
56
56
56
58
60
68
79
93
104
108
108
106
100
98
93
87
87
89
91
89
87
86
79
76
71
76
84
91
93
96
98
104
108
110
112
113
112
113
117
123
123
123
129
133
141
148
156
159
161
161
161
163
167
168
167
131
119
102
87
81
68
62
56
52
49
49
50
54
56
63
76
89
98
106
102
100
96
95
91
84
82
87
89
89
86
82
77
72
68
71
79
89
91
93
96
102
106
104
106
106
106
108
112
119
123
127
133
141
148
156
163
168
165
163
163
163
165
167
167
119
108
95
84
74
63
55
50
45
43
42
43
45
50
56
69
84
95
100
100
98
98
93
89
81
81
86
87
87
82
81
76
72
68
68
77
89
89
93
98
104
104
102
102
100
102
108
112
117
125
131
137
144
152
158
167
168
167
163
161
161
161
163
165
110
102
91
79
68
58
51
45
41
39
38
41
40
43
49
60
74
87
95
96
96
98
95
87
81
81
84
86
82
81
82
76
72
71
71
81
87
89
96
102
106
106
102
100
98
102
108
112
117
125
133
139
144
150
156
163
167
165
163
159
158
158
159
159
104
98
87
74
63
55
46
41
39
37
37
37
37
39
42
51
65
77
87
91
95
96
93
87
86
84
86
86
86
82
81
76
72
74
72
82
89
95
98
102
106
106
102
102
106
108
110
113
119
127
133
139
142
146
152
158
163
163
161
159
156
154
154
156
100
98
87
74
62
52
42
39
39
39
37
36
36
38
40
46
55
68
79
87
93
93
91
91
87
87
89
91
87
84
79
77
74
74
76
84
93
96
100
104
108
108
110
112
112
113
113
117
123
131
137
139
142
142
148
154
159
163
163
159
156
152
152
154
98
96
87
74
63
51
41
39
40
39
37
35
36
39
43
45
50
58
71
84
89
89
91
91
89
86
89
93
89
86
82
81
82
81
82
87
95
102
106
108
110
115
117
117
117
119
121
123
127
135
139
142
146
146
146
150
154
158
159
159
159
156
152
154
104
100
87
76
66
52
43
41
42
39
36
35
37
40
43
45
46
52
65
81
89
93
93
89
87
91
95
93
89
89
87
87
91
91
91
95
100
108
113
115
117
121
125
125
125
125
127
131
135
141
144
148
150
150
150
148
150
154
156
156
159
159
154
152
108
100
87
76
66
54
46
41
39
37
37
37
36
38
40
43
44
50
60
76
87
93
93
89
91
96
96
93
93
91
95
100
104
104
102
104
110
115
117
121
123
127
131
131
131
133
137
139
139
142
144
150
152
152
150
150
150
150
152
154
158
158
152
152
108
102
89
77
68
56
49
43
40
39
39
39
38
38
41
42
44
49
58
71
87
93
93
95
96
102
102
104
104
106
110
115
115
113
110
112
115
117
119
123
125
129
133
135
137
141
142
139
139
141
146
150
152
152
154
152
150
148
150
156
158
158
154
150
106
102
89
79
69
60
52
47
42
39
39
39
37
40
43
44
44
49
56
69
86
91
95
98
102
106
110
113
115
119
125
127
129
125
119
117
119
119
123
127
127
131
137
141
144
146
144
142
141
139
142
148
152
152
152
150
146
144
150
156
159
158
156
154
108
102
89
79
69
65
59
50
45
41
38
39
38
41
43
45
45
50
58
69
86
95
98
104
110
117
123
127
131
133
135
137
137
135
129
127
125
127
127
131
129
137
142
146
148
148
146
142
141
139
141
144
146
150
148
146
144
144
152
159
161
159
158
154
106
100
89
82
72
69
66
58
50
44
42
40
40
42
44
47
49
55
63
76
86
96
106
110
117
125
131
135
137
139
141
141
139
139
137
135
133
133
131
131
133
139
148
152
152
154
150
144
139
135
137
141
144
146
146
146
146
148
154
161
161
158
158
158
104
100
93
84
77
72
72
69
62
52
45
44
45
49
51
55
58
62
71
77
86
96
106
113
121
131
137
137
139
144
146
144
142
141
139
137
137
135
135
133
133
141
150
154
156
154
152
146
142
139
137
141
142
144
146
146
148
154
158
163
163
161
158
158
110
104
98
93
84
81
81
81
76
66
58
55
55
56
59
60
65
69
76
81
87
95
106
113
123
135
137
141
144
144
148
148
144
142
141
139
137
139
139
131
129
139
150
158
158
156
156
152
146
142
141
139
141
142
146
148
154
158
161
163
165
161
159
158
115
108
100
96
95
89
89
87
86
81
71
65
62
60
62
65
68
74
77
82
87
95
106
113
123
133
139
142
146
148
148
148
146
144
142
139
137
137
133
129
129
135
148
158
159
159
159
158
152
148
146
144
142
144
148
154
158
159
163
163
165
161
159
156
117
108
98
95
93
91
93
89
89
87
81
74
69
65
65
66
68
72
76
81
86
93
106
113
123
131
137
144
146
148
150
150
150
148
142
139
137
133
129
123
123
131
142
154
159
161
163
159
154
150
148
146
148
152
156
158
158
161
161
163
163
161
158
154
119
106
98
96
93
93
95
95
93
91
87
81
72
71
69
69
72
76
76
81
82
93
106
113
123
131
139
144
148
150
154
154
150
146
141
139
135
131
125
121
119
125
133
146
156
159
159
159
156
152
152
152
156
159
159
159
159
161
161
161
163
163
158
152
121
106
98
96
95
95
96
96
96
95
91
87
79
74
76
76
76
76
77
81
82
91
104
113
121
131
139
146
150
154
154
152
150
148
142
141
137
131
127
123
121
123
127
137
148
156
158
159
158
152
154
156
161
163
161
161
161
161
163
165
165
161
158
152
123
108
98
93
93
93
91
95
96
95
93
91
84
79
76
74
74
76
81
84
81
89
98
110
117
127
141
148
154
156
154
152
152
150
142
141
139
135
129
125
121
123
123
129
135
146
156
158
154
154
156
156
159
161
163
161
163
161
161
161
161
161
158
156
125
108
96
89
84
87
86
91
95
93
95
95
89
84
79
76
74
76
81
82
81
86
96
104
113
123
141
150
156
154
154
150
152
150
144
142
141
141
135
129
123
117
119
119
127
135
144
152
152
154
154
156
158
159
163
165
163
159
161
161
161
161
158
156
123
108
95
87
82
89
91
93
95
95
95
98
95
89
86
82
79
77
81
82
82
84
93
100
110
123
139
150
154
154
152
150
150
148
146
141
142
142
139
131
125
119
117
115
117
127
135
144
150
152
152
152
154
158
161
165
165
161
161
159
161
158
156
154
