P2
# 270 of 608 Angiograms
64 64
255
93
89
91
89
87
93
93
95
98
102
104
102
106
106
108
108
110
113
115
108
102
91
82
81
77
77
77
79
77
74
72
79
87
98
106
115
117
119
119
115
119
117
113
117
113
113
112
113
112
104
104
104
102
102
104
102
106
110
106
104
104
104
106
106
87
91
89
91
93
96
98
100
102
102
104
110
108
108
106
108
113
115
113
108
96
86
81
79
76
76
74
74
72
74
76
82
93
102
108
117
123
121
119
117
119
119
117
117
119
115
113
112
112
104
100
100
102
102
100
102
106
104
106
106
106
106
104
104
86
86
89
95
98
100
104
102
102
102
106
108
108
106
104
110
113
113
110
100
89
82
77
76
74
71
69
68
66
71
79
87
96
104
110
119
121
119
119
115
117
117
119
119
115
115
113
110
110
108
100
98
100
100
98
100
102
102
106
106
106
108
108
110
89
89
95
98
102
106
108
106
108
108
106
106
106
106
106
110
112
110
102
93
86
79
74
72
69
66
68
66
66
72
81
91
98
106
113
121
121
119
119
117
117
115
117
117
117
113
112
112
110
108
102
96
96
98
100
100
102
102
106
106
108
108
110
112
93
93
98
102
102
104
106
106
106
108
104
106
108
104
104
108
108
104
95
87
81
74
72
69
66
68
69
68
71
74
82
93
100
108
115
125
123
117
119
119
117
115
117
117
115
113
112
110
108
106
100
98
98
100
100
100
100
100
102
104
106
104
104
110
95
96
102
102
100
102
104
104
104
106
106
104
102
100
102
108
102
95
89
84
77
74
69
68
68
69
71
69
71
76
84
95
102
112
117
121
117
117
115
117
117
119
119
119
113
112
112
112
108
106
102
98
98
96
98
98
98
96
96
102
104
102
102
108
98
100
102
100
98
100
100
102
102
102
100
96
96
98
104
102
96
87
86
82
76
71
66
68
69
69
69
69
71
74
87
98
108
113
115
117
115
113
117
119
119
119
117
117
115
112
112
112
110
108
102
100
98
96
96
100
100
96
95
100
104
102
102
106
98
100
98
98
98
100
102
104
100
98
98
96
96
100
100
96
89
82
82
81
74
69
63
66
69
66
68
66
69
76
89
104
110
113
115
113
115
117
121
119
117
117
115
115
113
113
113
113
113
108
102
102
100
98
98
98
96
98
96
100
106
100
100
104
98
96
95
96
96
96
100
104
102
100
100
100
102
104
98
91
84
81
79
79
76
71
66
66
68
65
65
66
69
77
91
106
110
115
117
113
113
117
119
119
119
117
115
113
110
112
110
110
110
106
102
100
100
100
98
95
96
96
96
100
102
102
102
102
98
95
95
98
98
98
98
102
104
102
102
106
104
104
96
89
82
81
82
81
77
74
71
66
66
65
65
66
71
77
91
108
112
117
115
117
113
115
115
113
115
113
113
113
112
108
108
108
110
108
104
102
102
100
100
100
100
98
98
100
100
98
100
100
95
91
95
96
98
102
104
104
108
106
106
108
108
102
95
87
79
82
86
84
79
76
74
66
66
65
66
68
69
77
93
110
113
115
117
115
115
115
115
115
115
113
115
113
110
106
106
106
108
106
106
102
100
98
98
98
98
96
98
98
100
95
95
96
91
93
95
98
98
102
106
106
106
104
106
110
108
100
95
86
81
81
82
82
79
76
74
68
65
63
65
63
71
77
91
108
113
115
119
117
117
115
115
115
115
115
115
113
112
110
106
106
104
102
104
100
96
96
95
98
96
95
95
95
98
98
98
98
86
91
96
100
98
98
102
108
106
104
106
106
104
100
93
84
81
82
82
82
86
79
76
68
66
65
66
66
71
76
91
106
112
115
115
115
117
117
117
113
113
113
113
113
113
108
106
106
102
100
100
100
98
96
96
95
96
96
95
93
96
98
96
98
84
93
96
100
98
98
98
104
104
104
106
102
100
98
91
82
82
81
81
82
86
84
77
69
66
66
68
69
71
77
93
106
112
117
115
115
117
121
119
117
113
113
113
115
110
108
102
100
102
102
102
100
98
96
95
96
93
95
93
93
95
96
96
93
87
95
98
96
100
100
102
102
108
104
104
100
100
96
91
82
79
79
79
81
81
81
81
74
69
66
68
69
72
81
96
106
113
115
117
115
119
119
119
117
117
113
113
113
108
104
102
98
100
98
102
102
100
96
96
96
96
95
95
93
91
91
93
89
91
93
96
95
98
100
100
102
106
104
102
100
100
98
93
82
77
81
81
81
82
84
82
81
74
71
71
72
74
84
96
108
113
115
115
117
119
119
119
117
115
113
113
112
110
104
100
100
98
96
98
102
104
98
95
96
98
95
95
93
89
91
89
87
93
95
96
93
96
100
102
104
104
102
106
106
104
100
95
84
77
81
79
79
82
84
86
84
79
74
72
74
76
84
96
108
115
117
119
121
121
115
117
113
113
113
110
106
108
106
104
102
100
96
100
104
106
98
95
96
96
93
93
93
91
87
86
84
98
100
98
96
98
98
98
102
102
104
106
104
104
102
95
84
79
79
79
77
81
82
86
86
81
79
76
77
77
84
95
108
115
119
119
115
119
115
115
112
112
110
108
108
110
110
106
100
102
102
100
104
104
98
96
95
95
95
93
91
89
89
87
84
102
100
98
96
96
96
98
104
102
100
104
100
102
104
98
89
82
79
77
76
79
82
87
86
82
79
79
77
77
84
95
106
113
119
117
117
117
117
113
110
112
112
110
110
108
112
110
102
104
104
100
102
98
98
96
95
96
96
96
91
91
87
86
86
98
96
98
98
96
95
98
104
102
102
102
102
104
106
100
95
87
82
77
76
77
84
86
84
81
79
76
74
72
82
93
106
112
117
117
117
115
113
112
110
113
113
110
110
108
110
108
108
106
102
100
98
98
98
96
96
96
93
91
91
86
86
84
86
96
98
98
96
96
96
96
102
100
98
98
102
104
106
106
100
93
84
79
76
79
81
84
84
81
77
74
69
71
79
91
102
112
115
117
117
117
112
112
113
113
115
113
110
108
106
104
104
104
102
98
100
98
98
98
96
95
89
89
89
86
89
89
86
95
96
96
95
96
98
96
102
104
100
100
102
104
102
102
102
98
89
82
81
79
77
77
82
77
76
71
68
69
76
86
98
106
113
117
115
115
112
113
115
115
112
112
110
110
110
108
106
106
104
104
104
98
100
96
95
93
89
87
87
87
87
89
86
96
98
96
96
98
100
98
102
106
102
104
102
104
106
102
102
100
95
87
81
76
77
77
79
76
74
69
66
66
72
82
93
100
106
112
113
113
112
113
117
117
113
115
112
108
108
112
108
106
104
104
104
100
98
96
93
91
89
86
89
87
87
89
87
98
98
98
98
98
100
98
100
104
102
102
102
106
108
100
96
96
96
95
86
79
79
81
79
76
74
68
65
66
68
76
87
96
100
104
110
113
115
115
117
115
115
115
113
110
106
108
108
106
106
104
102
98
95
95
93
89
86
87
86
84
82
84
86
98
98
100
100
100
98
95
98
100
100
102
104
106
104
100
96
95
96
98
93
87
84
84
84
79
74
68
65
65
68
72
81
91
96
100
104
110
113
112
110
112
112
110
112
113
108
108
108
106
104
102
100
96
96
95
91
89
87
87
89
86
84
84
84
96
98
100
98
98
96
98
100
100
100
102
100
104
100
98
96
98
100
100
96
95
91
91
91
86
79
71
65
65
63
68
76
82
91
98
102
106
110
112
110
110
110
110
112
110
108
108
104
104
104
100
98
95
95
91
89
91
89
91
89
87
86
86
84
96
96
95
95
95
98
102
98
96
102
104
102
102
100
100
100
102
102
102
102
98
96
98
98
93
86
76
68
66
63
66
76
79
86
95
100
104
108
110
110
108
108
106
106
108
106
106
106
102
104
102
100
95
91
87
89
89
87
86
87
87
84
82
82
98
93
96
91
95
98
100
100
100
102
100
100
98
98
100
98
102
102
104
104
102
104
102
102
98
91
82
76
69
66
71
76
79
84
95
100
104
102
102
102
102
100
102
104
106
106
102
100
100
100
100
100
98
93
91
86
89
87
84
87
89
87
84
82
96
95
95
96
98
96
98
98
100
100
100
100
93
95
100
96
100
98
102
104
102
104
104
102
98
95
87
81
74
71
74
77
81
84
95
100
102
102
100
98
98
100
102
100
100
98
98
98
100
98
100
102
100
95
89
89
89
86
82
86
93
89
87
82
98
96
96
98
98
100
100
102
100
98
100
102
95
93
95
96
102
100
102
104
106
102
102
100
98
96
87
82
79
76
76
81
82
87
95
98
100
102
102
98
96
96
96
93
91
93
96
98
100
98
100
100
98
95
89
89
89
87
84
84
87
89
89
87
96
95
95
100
98
102
100
100
100
100
96
98
93
95
96
100
102
102
104
102
106
102
102
102
98
95
84
84
81
79
81
84
86
89
96
98
102
106
100
100
96
96
93
87
86
87
91
95
98
96
96
98
96
91
87
87
89
87
89
86
84
86
86
87
96
96
96
102
100
102
100
98
98
100
96
95
95
98
100
102
104
106
106
106
106
104
102
106
102
95
84
81
79
81
84
84
86
89
98
102
104
104
102
102
102
96
93
91
89
87
91
93
91
93
95
95
91
91
91
89
89
86
87
86
86
84
84
86
95
98
100
102
102
102
100
100
98
100
93
93
95
96
96
100
104
106
106
108
108
104
106
106
104
96
86
82
79
81
81
82
84
91
98
104
110
110
106
104
106
104
100
95
91
89
87
89
89
89
91
93
91
91
93
91
89
87
87
87
87
84
82
84
95
98
96
98
100
102
100
100
100
96
95
95
95
98
98
98
104
108
108
108
106
108
108
110
106
96
87
79
76
77
79
81
86
93
102
106
110
112
108
108
108
108
104
98
93
91
86
84
81
84
86
89
91
93
93
91
89
87
89
93
93
87
87
84
96
98
98
98
100
100
100
100
100
100
96
95
93
96
100
98
104
106
108
106
108
110
112
112
106
96
87
79
76
79
79
77
87
96
102
106
108
112
113
112
110
108
104
104
96
93
87
84
82
82
82
86
89
95
95
95
91
93
89
89
89
87
87
86
96
95
96
96
98
100
100
100
98
96
91
89
91
96
100
102
104
106
108
108
110
112
112
110
108
96
86
79
76
76
77
79
87
96
100
104
106
110
112
112
113
110
108
106
102
96
89
84
79
79
79
82
87
93
96
95
93
91
87
87
87
87
87
86
95
96
96
96
98
96
100
100
98
95
91
89
93
96
102
104
104
106
108
108
108
110
113
110
106
96
87
79
74
76
77
79
86
96
104
108
108
106
110
112
113
113
112
106
102
100
91
86
82
79
79
81
86
93
96
93
91
89
87
89
86
87
86
84
96
98
100
96
98
93
95
98
100
96
89
89
93
98
104
104
106
110
110
108
108
108
113
108
106
96
87
77
72
74
76
77
82
95
106
112
110
106
108
112
113
110
108
104
104
100
93
86
82
79
77
77
84
89
93
93
87
87
89
91
89
87
86
87
95
95
100
98
96
95
95
100
98
96
89
91
95
98
104
102
106
108
110
110
108
112
110
108
106
96
87
79
76
74
76
76
79
91
106
110
108
106
104
110
112
106
106
104
102
100
91
86
81
79
77
72
81
86
93
91
89
87
89
87
89
89
86
86
96
95
98
98
96
100
100
100
96
96
93
91
95
98
104
106
108
106
110
110
108
112
108
110
108
98
87
79
76
76
74
72
77
89
102
108
108
108
106
110
110
106
104
100
102
100
91
87
81
79
76
74
79
84
89
91
95
95
89
87
86
86
86
86
98
98
96
98
98
98
102
98
95
96
95
93
96
100
106
110
112
108
112
112
110
110
110
110
104
96
86
79
77
74
72
74
77
87
100
106
108
106
106
106
106
108
102
102
102
96
91
87
82
76
74
72
77
82
87
91
93
95
93
87
86
86
86
87
95
98
96
98
98
98
98
98
96
96
96
93
96
102
108
110
110
108
110
112
112
110
106
104
102
93
82
81
76
74
71
72
77
87
98
104
102
106
106
104
104
108
104
100
95
95
93
89
82
76
71
72
76
82
86
89
87
89
89
87
89
87
87
86
95
98
96
96
98
96
96
98
96
98
98
98
98
102
106
104
108
106
108
110
110
106
106
104
98
87
82
79
76
74
72
72
77
86
96
102
104
104
104
104
106
106
102
98
96
96
91
89
84
77
74
76
76
81
86
89
89
87
87
93
89
86
87
86
95
96
96
95
95
96
96
96
95
96
98
100
98
96
100
100
102
104
104
104
106
108
108
100
93
84
81
76
72
71
72
74
77
84
96
102
106
104
102
104
106
102
100
98
96
98
93
91
86
81
77
74
79
81
87
91
91
87
89
93
93
91
87
87
95
95
93
91
95
95
98
98
95
96
100
96
96
98
102
100
102
102
108
106
104
108
104
98
91
81
76
72
72
71
71
72
76
84
95
102
102
100
106
106
104
100
96
96
98
98
95
87
86
79
76
74
79
84
89
93
91
91
95
93
93
95
93
89
95
95
93
95
95
96
96
98
95
95
98
98
98
98
100
100
100
102
106
106
106
106
102
98
87
79
76
74
72
69
71
72
74
84
95
100
102
104
106
104
102
98
93
95
96
96
91
86
82
77
79
77
81
87
91
89
89
93
93
89
91
93
91
91
95
91
96
96
96
98
96
95
95
96
96
96
98
98
102
100
100
96
98
102
104
104
100
95
87
79
76
72
71
69
72
72
76
84
95
102
102
108
108
104
98
98
91
93
95
91
89
84
81
77
77
79
84
89
95
93
91
95
89
89
89
91
89
87
93
93
95
98
96
96
96
96
95
95
96
96
96
100
98
98
98
100
98
100
102
102
100
93
84
77
76
72
72
69
69
69
76
84
95
100
102
102
104
102
96
95
91
95
93
93
91
87
81
77
74
76
84
87
95
95
91
93
93
91
87
89
87
84
93
96
95
98
96
96
95
95
95
95
100
98
100
102
98
98
100
102
100
98
102
102
100
93
84
76
74
72
69
71
68
68
74
82
91
95
100
98
102
102
100
96
95
95
93
91
89
86
82
79
77
77
84
89
96
95
95
93
89
91
91
87
86
81
93
91
95
98
96
95
93
93
93
96
96
98
100
102
102
100
102
100
98
100
102
100
98
93
82
74
72
71
69
68
69
69
72
79
87
93
96
98
102
104
102
98
98
96
93
89
87
87
84
81
81
82
87
91
91
91
93
89
87
89
91
87
82
79
93
98
96
95
96
95
95
91
93
95
96
100
100
100
106
100
98
96
98
98
102
104
98
91
82
76
71
71
69
66
66
68
69
76
87
95
95
96
98
102
100
96
96
96
95
89
87
87
86
84
82
84
84
91
87
86
89
87
86
87
86
82
79
77
93
96
95
95
96
95
93
91
95
96
96
98
100
102
104
100
98
96
96
98
102
102
100
91
81
74
66
65
68
66
66
69
71
76
86
93
91
95
98
100
98
96
96
95
95
95
91
87
86
84
82
82
86
86
86
86
86
86
87
86
82
77
77
79
91
93
91
93
95
95
93
95
98
95
95
96
100
102
104
100
98
98
100
102
100
98
98
89
81
74
66
62
63
65
65
66
69
76
82
89
91
95
96
96
96
96
98
95
93
93
93
91
89
84
84
86
86
86
86
84
86
86
84
84
82
77
79
81
91
87
91
95
93
93
95
98
98
95
95
96
98
98
102
100
98
96
100
104
102
100
102
93
82
74
68
65
63
62
66
66
69
76
81
86
93
95
96
95
96
96
96
95
93
91
93
95
93
91
86
87
84
84
84
84
84
84
82
81
81
77
81
86
91
89
91
93
93
91
93
96
98
96
95
93
96
100
98
98
96
102
100
100
104
106
100
95
81
74
68
63
62
62
62
68
72
72
76
82
89
93
93
96
96
95
95
96
93
91
91
95
95
93
89
86
87
84
84
84
82
81
82
81
81
81
86
87
91
89
93
91
93
93
91
98
96
96
96
93
96
98
98
102
100
100
104
102
104
104
102
95
82
76
66
63
62
65
62
66
71
71
72
77
82
86
89
91
93
91
93
95
95
93
93
95
95
93
91
89
87
87
87
87
86
81
82
84
86
89
91
89
93
93
95
95
93
89
91
95
93
93
93
95
96
96
104
104
102
100
102
100
106
102
100
96
86
77
68
63
60
62
63
66
68
69
74
76
77
82
84
86
89
87
91
93
95
96
96
96
95
93
91
91
91
93
89
89
87
87
86
86
89
95
95
91
95
95
96
98
91
91
91
93
95
93
93
96
98
100
102
102
104
102
100
102
102
102
98
96
89
79
69
62
58
58
58
62
66
69
71
71
76
81
84
84
86
86
87
87
91
91
91
95
95
89
91
93
93
91
89
87
87
87
87
87
89
95
96
93
95
95
95
95
91
89
93
93
95
96
95
96
96
100
100
98
104
104
102
104
100
100
98
96
93
81
69
60
55
56
59
60
65
68
69
71
79
81
82
81
81
81
84
86
86
89
89
93
93
91
93
93
91
91
91
89
91
89
91
89
86
89
93
93
91
95
95
96
91
89
93
93
93
95
95
96
98
102
98
100
102
100
98
100
102
100
98
96
95
84
69
60
56
56
62
63
66
66
68
71
77
77
82
82
81
79
79
82
84
86
89
89
89
89
95
93
91
91
91
89
89
91
89
91
89
91
93
93
95
91
95
93
93
91
93
93
93
95
95
96
98
98
100
100
102
102
98
98
102
100
100
98
95
86
71
60
56
58
62
66
66
68
68
69
74
77
84
86
84
82
79
77
79
81
84
86
87
89
93
91
89
91
89
87
89
91
91
93
93
93
95
93
93
93
91
89
89
91
93
91
93
95
96
98
98
100
102
100
98
100
96
98
102
102
98
98
95
89
74
65
58
60
63
66
68
66
66
69
76
82
89
91
89
89
84
79
77
77
81
84
87
89
91
93
93
93
93
91
91
91
93
93
93
89
93
93
95
95
91
91
93
95
95
96
95
95
96
100
102
106
102
98
98
98
95
100
102
100
98
98
96
89
77
68
63
62
65
65
68
68
69
72
77
86
95
96
96
95
89
81
79
77
76
81
82
86
87
91
91
93
95
91
91
93
93
93
95
89
87
93
93
95
95
95
93
95
95
98
98
98
100
100
104
104
100
100
104
100
100
102
104
98
98
98
96
91
81
71
66
62
62
62
66
68
69
74
79
86
95
95
95
96
91
87
81
77
76
79
81
84
89
89
89
89
91
91
91
95
93
93
93
91
91
91
