P2
# 271 of 608 Angiograms
64 64
255
62
60
62
60
59
58
58
58
56
55
60
65
66
69
66
66
69
72
72
74
77
82
87
93
100
110
113
113
117
119
119
119
121
123
125
131
139
148
152
154
152
154
152
150
150
146
142
142
142
139
133
135
135
131
129
133
133
135
137
135
135
137
135
133
63
60
62
59
58
56
56
59
60
62
65
68
71
71
71
68
69
69
72
72
77
81
86
87
91
98
104
108
112
113
115
119
121
123
123
127
129
133
137
146
152
150
152
152
152
148
142
141
139
137
133
131
133
129
131
133
135
135
135
135
133
137
135
131
69
68
65
63
63
63
65
66
69
69
71
72
74
74
72
72
71
71
74
74
77
81
86
87
86
91
95
96
100
100
104
110
119
121
127
129
125
123
121
129
139
148
150
154
152
148
141
141
139
137
133
131
131
131
131
135
135
135
135
133
133
131
133
131
76
76
74
74
76
76
81
82
86
84
82
84
82
79
77
76
74
74
76
77
79
84
89
89
87
87
93
93
91
91
93
96
108
117
123
127
125
117
110
112
123
135
146
150
150
146
142
141
139
135
129
131
135
135
135
133
133
133
133
135
133
131
131
133
82
86
84
84
86
91
95
98
102
100
95
93
91
89
86
82
81
79
79
81
82
86
89
91
89
89
93
91
84
82
86
89
96
108
117
123
125
121
113
108
110
119
133
142
146
144
142
142
139
133
127
127
133
137
139
135
131
131
133
135
133
131
129
131
91
96
98
100
98
102
108
110
112
110
108
104
102
102
98
95
91
91
91
91
93
91
91
91
93
93
95
91
86
81
82
84
89
95
106
115
121
125
123
119
113
113
121
129
137
139
139
137
133
127
125
123
129
135
139
137
135
133
133
135
133
131
125
129
110
113
115
113
110
112
113
117
117
117
115
113
113
112
112
108
106
106
108
108
108
106
104
100
102
102
98
95
89
84
84
82
84
87
95
102
110
119
125
127
125
119
119
123
125
129
129
129
123
117
113
112
115
121
127
133
133
133
137
137
135
129
125
125
127
127
127
123
119
119
125
127
127
125
123
119
117
117
117
113
113
113
115
117
119
117
115
113
113
110
106
100
95
86
82
81
82
82
87
93
98
106
115
123
125
127
125
123
123
123
123
119
115
110
104
100
104
108
113
121
127
131
133
133
133
129
125
123
133
133
131
129
127
129
133
137
137
133
129
127
123
123
121
119
117
117
119
123
125
125
121
121
121
119
115
110
104
95
86
82
82
82
84
86
91
96
102
110
117
125
127
125
125
127
125
121
115
110
104
100
98
98
102
106
115
123
125
125
127
127
123
121
139
139
137
137
135
137
139
141
139
135
129
133
133
133
131
127
123
123
127
131
131
131
131
129
129
127
123
117
113
104
95
87
84
82
86
84
86
91
95
98
104
112
117
119
121
123
127
125
121
117
113
108
104
100
100
100
106
110
112
113
113
115
113
112
144
146
146
146
144
144
142
141
139
133
129
131
135
139
137
135
133
131
133
135
137
139
141
141
137
133
127
123
119
113
106
96
89
86
82
82
82
86
91
93
95
98
102
106
110
113
121
123
123
125
125
117
112
108
106
106
106
106
108
108
110
108
108
106
152
152
152
154
154
150
144
141
135
133
127
129
135
137
137
137
139
139
137
139
144
148
150
150
144
139
135
129
123
119
115
108
100
93
86
82
82
86
87
87
89
89
87
89
89
96
106
112
119
125
131
125
119
117
115
115
112
110
112
115
115
113
112
108
156
156
156
158
158
154
148
142
139
135
129
125
129
133
137
139
137
137
141
142
150
154
159
158
154
146
141
135
129
123
121
115
108
102
95
87
86
86
86
86
82
81
81
81
82
86
91
96
108
117
125
127
123
119
119
117
113
110
113
119
125
127
127
123
158
158
156
156
158
152
146
144
141
139
135
131
129
131
133
137
137
139
142
144
152
158
159
158
156
152
146
141
135
129
123
119
113
108
102
96
93
89
87
87
84
81
81
79
79
84
86
89
96
104
112
115
117
115
117
115
112
110
113
119
127
133
137
137
159
158
154
152
152
150
146
141
139
139
139
135
131
129
131
133
137
139
141
142
150
156
158
156
154
152
150
144
141
135
127
121
117
112
106
102
98
95
91
89
87
84
81
79
76
81
86
84
87
95
100
102
102
106
110
112
113
112
108
110
121
133
141
142
158
154
152
152
152
148
142
139
141
139
141
137
133
133
127
129
135
139
139
142
148
152
154
152
152
156
156
152
144
139
131
125
119
115
110
106
102
100
96
95
93
91
86
82
79
79
82
82
82
86
91
93
93
93
96
100
106
106
102
96
106
125
139
144
156
150
150
152
150
146
141
137
139
141
142
139
133
133
129
127
135
141
141
144
148
150
150
150
150
154
158
158
150
142
137
131
125
121
115
113
108
106
104
102
98
96
93
91
87
86
86
82
82
81
81
82
81
79
82
86
89
91
87
82
86
110
133
142
154
152
152
150
148
148
141
135
139
139
139
135
135
135
131
129
137
141
144
148
148
148
150
148
150
152
158
159
158
152
142
135
131
125
123
121
119
115
113
110
106
104
104
102
100
96
89
86
82
81
81
81
77
76
72
72
76
77
74
71
76
95
119
133
152
152
152
152
152
148
142
135
135
137
137
137
137
133
131
131
141
144
146
150
150
150
150
148
148
150
154
158
159
158
150
142
137
133
131
129
125
123
121
117
113
112
112
108
104
100
96
89
84
79
79
77
76
72
72
72
72
72
68
65
71
82
102
119
154
152
148
152
150
148
141
129
129
135
137
137
135
133
129
131
142
148
148
148
150
154
152
150
150
148
150
156
159
161
158
152
146
142
141
141
139
133
129
125
121
119
117
112
110
104
100
96
87
82
77
74
74
71
71
72
72
71
69
68
72
79
89
104
156
152
150
152
152
146
139
127
127
133
137
135
135
133
133
133
142
148
146
146
148
154
154
156
152
146
146
152
158
163
161
159
156
152
150
150
148
144
139
133
129
127
123
119
113
110
104
100
96
89
82
77
77
76
74
76
74
74
72
72
72
79
82
91
154
154
152
152
148
144
137
127
129
135
137
137
135
133
133
137
144
146
148
146
148
150
154
156
154
148
146
148
156
161
163
163
161
161
161
159
159
156
150
142
137
133
131
127
121
117
112
106
102
96
91
87
86
82
79
79
79
77
74
72
74
81
82
82
154
152
150
148
146
142
135
129
135
141
142
142
141
137
137
142
144
146
148
148
150
152
156
156
154
150
150
150
152
159
165
167
165
163
163
163
165
165
161
152
142
139
137
133
129
125
117
112
106
100
96
95
93
91
89
84
84
81
77
74
76
81
86
84
154
152
146
146
144
139
135
135
139
142
144
144
144
142
142
144
146
146
148
150
152
154
156
156
154
156
156
154
152
156
163
167
168
167
165
167
170
172
170
163
156
148
142
141
137
129
125
117
108
100
100
100
100
96
95
93
89
84
81
79
79
84
86
86
152
148
146
142
139
137
133
137
139
142
142
146
146
146
144
144
144
146
150
152
154
154
154
154
154
158
158
156
154
154
159
165
168
168
167
168
172
173
172
168
163
159
154
148
144
139
131
123
113
108
104
106
106
104
102
100
95
91
87
82
86
87
87
87
152
148
148
144
142
141
139
139
139
142
144
146
146
146
146
144
142
144
150
152
154
154
152
152
152
156
158
158
156
156
158
161
165
165
165
168
170
172
170
170
167
163
161
156
150
146
139
131
123
119
113
112
110
108
106
104
102
96
93
91
89
89
91
95
154
150
148
146
146
142
141
141
139
141
144
146
146
146
144
142
141
142
144
146
148
146
146
146
148
150
150
150
152
152
154
156
156
158
159
161
163
167
168
168
167
165
163
159
154
150
148
141
135
129
123
119
113
110
108
106
104
98
95
95
93
96
100
100
154
150
148
148
146
142
141
137
137
137
139
142
142
141
139
137
135
137
139
137
135
133
131
129
131
133
133
135
135
135
137
137
137
139
141
146
152
158
163
165
165
163
159
156
154
152
152
150
144
137
131
127
123
119
115
112
108
102
95
95
96
100
102
104
150
148
148
144
141
139
135
133
131
129
131
129
129
125
125
123
123
125
127
123
119
113
110
110
110
112
113
117
119
121
125
129
129
125
125
129
135
141
146
152
154
156
154
152
152
154
156
154
150
144
137
131
129
127
123
117
113
106
98
96
98
104
106
112
137
137
135
131
129
125
123
119
117
115
115
112
112
112
113
112
113
113
113
112
108
102
98
98
100
104
108
112
115
119
121
127
127
121
121
123
129
129
131
133
135
137
141
144
150
154
156
156
152
146
141
137
137
137
135
127
119
112
104
100
104
108
112
113
117
113
112
108
106
104
104
106
106
104
102
102
102
104
106
108
112
112
110
110
108
102
98
98
100
108
112
115
119
121
123
127
127
125
123
123
127
129
127
125
121
117
119
125
135
142
148
152
150
148
144
142
141
142
139
133
125
117
112
110
112
115
117
119
100
98
96
95
96
98
98
100
100
102
100
98
100
102
104
110
113
112
113
112
110
106
104
104
106
113
119
123
125
127
129
129
129
129
127
129
129
129
127
125
117
108
104
108
113
121
133
141
144
144
142
142
142
142
141
137
129
123
119
117
119
123
125
129
87
89
91
89
91
93
91
95
96
100
100
100
100
104
110
113
115
115
115
117
117
115
115
115
117
123
129
133
135
139
137
137
137
135
135
135
135
135
133
129
117
104
96
98
102
108
115
123
131
137
139
139
141
141
141
137
129
123
121
121
125
131
135
139
87
91
93
93
93
93
93
96
98
102
102
104
104
108
115
117
119
121
123
123
123
125
125
129
133
139
142
146
148
150
150
150
150
148
148
146
142
141
137
133
125
110
98
98
102
104
110
112
117
123
127
131
135
137
135
133
129
123
121
125
131
137
141
142
96
96
96
98
98
102
102
100
100
100
104
108
112
115
119
125
127
131
133
135
137
139
141
144
146
152
152
154
156
159
161
161
161
161
159
158
156
152
146
142
137
123
108
102
102
104
108
110
110
110
113
119
125
129
131
129
129
123
121
129
137
141
144
150
102
102
104
104
104
104
106
108
104
104
110
115
119
123
131
135
139
142
144
146
154
158
156
154
152
154
156
158
161
163
165
165
165
167
167
167
165
163
159
158
152
139
123
110
106
108
106
104
104
104
104
106
112
119
125
127
127
125
127
133
139
146
150
156
108
110
110
110
110
112
113
112
110
112
117
119
125
129
137
142
148
150
154
158
159
159
158
154
152
152
154
156
158
159
163
167
167
168
170
170
168
167
167
167
163
154
139
123
115
110
104
102
102
98
98
100
100
106
112
117
121
125
127
133
141
148
152
156
115
117
117
117
117
117
119
117
115
119
119
121
127
133
141
146
150
152
152
156
159
158
156
154
152
148
148
150
152
156
159
163
167
168
168
170
167
167
168
170
168
163
152
139
127
119
112
106
104
98
98
98
96
98
102
106
113
117
125
131
137
144
150
152
121
123
125
125
123
123
121
123
117
117
117
121
123
129
139
144
146
146
148
152
154
154
154
152
148
146
144
144
146
150
154
158
161
163
165
167
165
163
167
170
172
165
156
144
137
133
127
119
110
104
100
98
96
96
98
102
104
108
115
123
131
137
142
144
123
123
125
125
121
121
121
121
121
117
119
121
121
123
129
139
141
141
141
142
146
148
148
146
144
144
142
141
141
146
150
152
156
158
158
159
161
161
165
167
168
163
154
144
141
141
139
133
125
117
110
104
102
102
102
102
100
100
100
110
117
125
129
131
127
125
121
123
121
119
117
119
119
121
121
121
119
119
121
127
133
133
135
137
141
141
141
141
141
139
137
135
135
139
142
146
148
150
152
152
156
158
161
163
163
158
150
142
142
144
142
141
139
131
123
115
112
108
106
104
100
96
95
100
108
113
115
117
123
121
121
123
123
121
121
119
119
121
123
119
117
119
121
121
125
129
133
133
137
137
135
135
135
135
133
131
131
133
137
139
139
141
142
144
148
152
154
154
154
148
142
141
142
144
144
146
146
141
133
125
119
113
113
110
108
102
98
98
104
110
110
110
121
121
123
121
123
123
123
121
121
121
125
123
123
123
123
121
123
129
133
133
133
135
133
131
133
135
135
133
133
135
137
135
133
133
135
139
141
144
146
148
146
142
137
135
139
142
144
146
144
142
137
133
125
121
117
113
110
106
104
102
106
110
110
110
125
125
123
121
123
121
123
125
123
121
125
127
125
125
127
127
127
131
135
135
133
133
131
131
129
133
137
139
137
135
135
135
129
127
129
133
137
139
141
144
144
139
133
133
135
137
141
142
142
141
137
135
131
127
123
117
113
110
108
110
112
113
113
112
121
125
123
123
125
123
121
123
121
121
127
129
131
131
129
129
129
133
135
137
135
133
131
131
131
133
137
137
141
139
137
135
133
129
127
133
133
135
137
139
139
137
133
133
135
135
139
141
139
139
137
137
133
129
125
119
117
115
115
119
121
119
121
119
108
115
121
123
123
121
121
119
119
123
127
129
129
131
133
133
131
135
137
139
139
137
133
129
133
133
137
139
142
142
141
137
135
133
131
133
135
133
133
133
135
137
135
137
137
135
135
137
137
139
139
137
133
129
123
121
123
123
125
129
131
131
129
129
89
104
115
121
121
121
121
121
123
125
129
131
131
129
131
131
133
137
139
139
139
137
133
131
133
133
139
141
144
142
146
142
139
137
133
133
135
133
133
131
131
133
137
139
139
137
137
137
137
141
139
137
133
127
121
125
127
131
133
135
137
137
137
139
74
86
104
115
119
119
119
121
125
129
133
133
133
131
131
133
137
141
141
141
139
137
135
135
135
133
141
142
144
148
148
144
142
141
135
135
133
131
129
129
127
133
137
139
141
139
141
139
137
139
137
137
131
123
119
127
135
139
139
139
137
139
139
141
68
74
86
104
113
117
119
121
123
127
129
133
135
133
131
135
141
142
142
139
139
139
139
139
137
137
142
144
146
146
148
146
142
139
135
135
131
129
127
129
129
133
139
141
141
141
141
137
135
133
135
135
133
127
125
133
139
142
142
141
139
141
141
142
68
71
77
91
106
115
119
123
121
125
129
133
137
135
135
139
139
139
139
137
139
141
141
139
139
139
144
144
142
146
148
146
144
137
133
131
127
127
125
129
131
137
139
141
141
139
137
133
131
133
135
133
133
129
131
137
141
141
142
142
141
139
141
142
69
69
71
79
95
108
117
123
125
127
129
131
137
137
139
141
139
135
137
137
139
139
139
139
141
139
142
142
142
144
146
146
144
139
131
131
127
125
125
129
135
139
139
139
139
137
133
133
131
131
133
129
131
133
135
139
142
141
141
141
139
139
141
141
71
69
68
72
81
96
113
121
125
129
129
129
133
135
137
139
139
135
135
135
135
139
139
139
141
141
139
141
142
144
146
146
142
139
135
135
129
127
127
129
133
139
139
137
137
133
133
133
133
133
133
135
133
137
137
139
141
141
139
139
139
139
139
141
69
71
69
69
74
86
100
115
123
129
129
131
133
135
135
139
141
139
139
137
139
141
139
141
141
141
139
139
141
142
144
144
142
139
137
137
129
125
127
131
133
135
137
141
139
133
131
131
131
133
133
133
137
137
137
141
142
139
137
137
139
141
141
141
66
69
72
69
69
76
86
102
117
125
127
131
133
133
137
139
142
142
142
141
141
141
139
141
141
141
137
137
137
141
141
141
142
139
137
135
127
121
125
133
135
133
135
137
137
131
131
129
129
131
133
131
135
135
137
141
142
139
135
135
137
137
139
139
66
66
68
68
68
71
77
89
104
113
123
129
131
131
133
137
141
141
142
141
141
141
141
141
142
141
137
137
139
139
139
139
139
137
135
131
123
123
127
133
135
133
133
135
133
133
133
131
129
131
133
131
131
135
139
142
142
139
135
135
135
137
139
139
68
68
68
69
68
71
74
76
86
102
115
125
129
133
135
135
137
139
141
142
141
142
141
141
141
139
139
139
137
135
137
137
135
131
131
127
123
125
127
129
131
133
135
133
135
135
133
131
131
133
135
133
135
137
139
144
142
139
135
131
133
135
135
137
71
71
71
71
69
71
74
72
74
87
104
117
127
133
135
135
135
137
139
141
141
139
139
137
137
135
137
137
135
135
135
137
133
131
127
123
121
123
125
127
129
131
131
133
135
135
135
135
133
135
135
135
137
139
141
141
139
135
133
131
133
133
133
135
77
74
72
72
72
76
77
76
71
74
89
106
119
125
131
133
135
135
137
141
142
139
135
133
133
133
135
137
137
137
137
137
133
129
125
123
123
123
123
123
129
131
131
133
139
137
135
133
137
135
135
139
141
142
142
141
135
133
131
131
131
129
131
131
86
81
77
76
77
77
77
76
72
71
79
93
108
117
123
125
131
133
137
141
142
141
137
135
133
129
131
135
137
137
137
137
131
127
121
121
121
123
123
125
127
131
135
133
139
139
137
135
135
135
137
139
142
144
142
139
133
131
131
133
133
129
129
131
93
86
82
81
81
82
79
74
72
74
77
86
95
108
117
123
125
131
135
139
141
139
137
133
129
127
129
131
135
137
139
135
129
123
119
121
121
121
123
127
127
129
133
133
137
139
139
133
131
131
137
139
142
144
142
137
131
129
131
131
131
129
127
127
104
93
87
82
82
82
79
76
76
74
77
81
86
95
108
117
123
127
133
137
137
135
133
129
127
127
127
129
135
137
135
131
125
125
123
123
123
123
125
129
129
129
129
133
137
139
137
135
131
131
135
139
142
142
141
137
135
133
133
131
127
127
125
127
117
106
96
89
86
82
79
76
76
77
79
79
81
82
91
104
115
123
129
133
133
133
131
127
127
127
127
129
131
133
131
125
123
125
127
123
123
125
127
129
131
131
131
133
139
139
137
135
131
129
133
139
141
139
139
137
133
133
131
129
125
127
127
127
127
117
106
98
91
87
82
77
79
82
81
77
79
79
82
91
104
115
121
127
129
131
131
129
129
127
129
127
127
131
129
127
127
129
127
125
123
123
127
133
133
133
133
133
137
137
137
133
129
125
133
137
137
139
139
135
131
129
129
129
129
129
129
129
133
127
117
108
100
95
91
87
84
82
82
79
79
81
82
84
89
102
113
119
123
125
125
127
127
127
127
127
127
129
129
129
129
127
125
123
125
125
127
131
133
135
135
135
135
133
135
131
129
125
133
137
137
139
139
133
127
125
125
127
129
131
131
129
