P2
# 277 of 608 Angiograms
64 64
255
137
135
125
113
108
108
110
117
127
137
141
131
113
98
100
110
121
129
131
133
131
131
131
129
127
125
121
119
117
117
123
129
133
141
142
141
135
131
123
123
127
137
144
148
148
146
144
139
133
117
98
79
68
66
66
66
68
74
89
115
135
146
150
152
125
123
115
108
102
104
110
115
123
129
133
127
115
102
106
117
129
135
137
141
139
139
139
135
133
133
131
131
131
131
131
135
139
146
148
144
139
133
125
127
131
139
144
148
150
150
148
146
141
129
110
93
76
69
66
63
62
66
77
98
117
131
137
139
117
119
113
106
102
106
112
117
121
123
127
121
110
102
108
119
129
137
139
139
139
139
139
137
135
135
137
137
137
135
133
135
139
142
144
142
139
131
125
129
133
139
146
148
150
152
152
152
146
139
123
108
91
76
69
65
62
60
66
82
100
113
121
125
121
121
117
112
108
112
117
119
121
123
121
113
104
102
112
123
127
135
137
139
137
133
135
137
135
133
137
141
141
139
135
131
133
135
139
141
137
131
125
131
135
142
146
148
150
152
154
156
150
144
135
125
110
89
76
68
63
62
62
72
87
106
115
119
133
125
121
117
115
117
121
125
127
123
115
106
98
104
115
125
129
131
133
135
135
131
131
135
135
133
135
141
141
137
135
131
129
127
131
133
131
127
125
131
135
142
150
152
150
150
154
158
154
146
141
133
123
104
86
74
68
63
65
74
87
104
115
119
139
129
119
115
115
121
127
131
133
125
113
98
95
102
115
129
131
127
127
129
131
131
131
133
133
129
133
139
139
137
133
131
129
125
125
127
125
123
127
131
137
144
150
152
150
150
152
154
152
144
142
139
133
121
102
86
79
74
76
82
95
110
115
119
144
131
119
115
115
121
129
137
137
127
112
98
96
104
117
131
131
127
125
127
127
131
129
131
131
129
131
135
137
135
131
127
127
127
123
125
127
125
127
131
137
144
150
152
150
148
152
154
152
144
142
142
139
133
121
104
95
89
91
98
106
115
119
123
146
129
117
115
112
119
127
137
139
131
119
108
104
110
119
133
133
127
123
123
121
123
127
129
131
131
129
133
137
137
133
131
131
131
125
125
125
123
123
131
137
144
150
152
150
150
152
154
154
148
146
146
144
142
137
127
115
112
113
115
121
125
129
133
146
129
117
115
115
119
127
135
137
133
125
115
113
117
125
131
131
129
127
123
119
121
123
127
131
131
129
131
135
137
131
133
133
133
127
125
121
121
119
127
135
142
148
150
148
150
150
154
152
148
148
148
144
146
146
141
133
133
133
133
135
137
141
144
141
127
119
117
119
125
131
135
135
135
129
125
123
127
131
133
131
131
129
129
127
121
119
123
127
131
131
131
135
131
131
131
133
131
129
127
123
123
119
121
131
139
142
146
146
146
148
152
150
152
152
146
146
146
150
144
142
142
141
141
144
148
150
150
135
123
117
119
123
129
137
137
133
129
127
131
133
133
133
135
135
135
131
131
125
121
121
121
127
127
129
133
131
131
129
131
129
129
127
125
121
123
117
117
125
133
139
141
142
142
144
148
150
152
152
148
146
144
144
141
141
142
144
148
152
156
156
154
127
119
113
115
121
129
137
133
131
123
127
135
135
131
133
135
139
137
133
129
125
121
121
119
125
127
127
129
129
129
129
129
129
127
127
125
119
117
117
117
121
125
131
137
141
139
142
146
150
154
152
146
144
142
141
137
141
144
150
154
158
158
158
156
112
106
106
108
115
125
129
131
129
127
127
133
137
133
135
137
139
139
133
129
127
127
125
125
127
127
131
131
127
131
129
129
131
129
127
125
123
119
121
121
117
119
123
131
139
139
142
146
148
150
150
146
142
139
139
141
148
152
156
158
156
156
154
152
91
87
89
96
104
110
113
115
115
117
123
127
133
137
139
139
141
141
135
131
129
129
127
129
131
131
133
131
131
129
131
127
131
131
129
127
123
121
123
123
121
121
125
133
137
141
144
148
148
148
146
144
142
141
142
148
154
159
163
161
156
152
146
139
76
76
81
84
89
93
96
100
104
104
110
117
123
135
141
142
142
141
137
133
131
129
127
129
131
135
135
133
131
127
131
133
133
131
133
133
127
121
121
123
127
127
127
133
137
141
146
150
152
150
150
146
146
146
146
150
156
161
161
158
152
142
131
125
66
68
72
81
82
84
86
89
89
89
95
100
110
121
133
141
142
144
139
137
131
129
129
127
131
133
133
133
131
129
131
131
131
133
137
135
131
127
125
125
125
123
127
133
137
142
146
150
152
154
154
152
150
148
148
148
154
156
156
150
139
127
117
112
60
66
69
76
77
77
77
77
77
81
82
86
93
106
117
129
135
139
139
137
135
131
127
127
129
133
133
133
129
129
129
127
131
133
139
139
135
131
127
125
123
123
129
131
133
139
142
146
152
156
158
158
156
152
150
144
142
142
141
133
125
113
106
102
58
66
71
74
76
74
72
71
72
79
81
81
86
95
102
113
125
131
135
137
131
127
125
127
129
131
133
129
127
127
125
125
129
133
139
139
137
129
123
123
125
125
129
131
133
139
141
146
150
156
159
163
158
154
146
139
131
123
121
117
112
106
100
98
60
69
74
76
76
77
76
74
76
77
77
77
81
87
95
100
110
117
125
133
131
129
127
127
127
127
129
129
129
127
127
127
133
137
141
139
137
129
121
123
125
127
129
129
133
139
142
148
154
156
159
161
158
148
135
125
115
108
104
102
100
96
96
95
62
69
76
76
77
79
79
77
79
77
74
74
81
82
89
95
98
108
117
127
131
133
133
129
127
125
129
129
131
129
129
129
131
137
142
142
139
131
127
129
129
129
131
133
137
141
146
152
156
158
156
156
150
137
119
110
104
98
95
95
95
93
91
93
60
71
76
81
81
81
81
81
77
77
74
72
79
82
84
87
91
96
106
117
129
133
135
131
127
125
129
131
131
127
127
131
131
135
141
141
139
133
131
129
127
131
135
137
139
144
148
152
156
156
152
146
137
119
106
100
95
91
89
91
93
93
95
98
62
72
77
81
82
82
81
81
82
81
79
76
79
79
82
84
86
89
95
108
119
131
137
137
133
131
129
129
133
129
131
133
133
135
139
139
139
137
133
129
127
131
135
137
141
144
144
150
150
146
141
131
119
108
98
95
95
93
93
95
96
100
106
110
65
74
79
84
86
86
82
81
82
82
79
77
77
79
81
84
84
86
89
96
110
121
133
139
139
133
129
133
133
133
135
137
137
135
137
137
139
137
135
131
131
129
133
139
139
142
142
141
139
133
125
119
112
102
95
96
100
100
102
106
110
113
119
125
69
79
84
87
86
84
84
79
77
79
79
79
79
81
82
84
84
84
84
91
100
112
125
137
139
133
129
131
135
137
139
141
141
137
135
137
137
139
137
133
133
131
135
139
137
137
135
131
127
119
113
110
108
102
100
106
108
108
112
119
123
127
133
139
77
89
96
95
91
86
84
81
79
79
77
79
81
82
82
84
82
84
82
87
95
104
113
127
137
137
133
133
135
137
141
141
139
137
137
139
137
137
137
133
133
133
133
131
129
127
125
121
117
112
108
108
108
108
108
113
115
119
125
131
135
141
144
148
89
106
112
108
102
95
89
87
84
81
76
76
81
82
82
84
84
84
86
87
93
98
106
113
127
137
137
133
135
137
139
139
137
137
139
137
137
135
133
131
127
125
119
117
115
113
112
112
110
108
108
104
104
108
113
121
129
135
139
146
148
152
154
154
110
127
133
129
119
112
104
95
91
87
82
79
81
81
82
82
81
82
84
87
89
93
98
104
115
125
135
133
137
137
137
141
141
142
141
137
137
133
131
125
119
113
108
102
100
100
104
104
106
106
108
104
108
112
121
133
142
146
152
158
158
158
156
158
127
144
152
146
137
129
117
110
104
98
91
84
79
79
81
79
79
81
82
86
89
93
95
98
108
115
129
137
137
137
139
142
142
142
141
137
137
131
127
117
110
102
95
93
95
95
96
98
100
102
106
108
113
121
133
144
154
156
159
163
161
159
159
159
141
158
161
158
148
141
133
127
119
112
104
91
84
81
81
79
79
82
81
84
89
95
93
95
100
110
119
133
139
139
139
139
141
141
139
137
133
125
117
106
98
93
87
91
95
95
95
98
100
102
108
113
121
133
146
156
161
161
161
163
165
161
159
161
154
163
165
163
154
148
144
141
135
127
117
104
91
84
81
81
84
86
82
82
87
89
89
91
95
104
113
125
133
137
135
133
135
133
131
127
123
113
106
98
93
89
86
91
95
98
100
100
102
106
113
123
135
146
158
163
163
161
161
161
161
159
159
163
159
165
165
163
156
150
148
148
148
139
129
119
100
89
84
81
82
86
82
84
82
86
87
89
89
95
104
115
125
129
129
127
127
125
121
117
112
106
98
95
91
87
87
91
98
104
106
106
108
113
125
139
146
154
163
165
163
163
161
159
158
158
159
161
163
167
163
161
158
152
148
152
152
150
141
129
112
95
87
84
86
84
84
84
81
84
86
87
87
87
93
104
113
121
121
119
113
110
106
104
104
100
96
93
93
93
93
95
104
112
113
113
117
127
142
152
156
159
165
168
167
167
165
161
158
152
156
159
163
165
165
161
158
152
150
152
152
152
150
141
121
100
89
86
87
86
84
84
81
79
84
86
86
87
87
89
98
104
104
104
100
96
95
95
98
100
93
93
96
98
98
102
110
115
119
125
133
142
152
156
158
159
167
168
168
167
167
163
158
152
152
158
161
163
163
158
154
150
148
148
148
150
150
141
123
104
91
84
84
82
82
84
81
79
79
81
81
81
81
81
84
87
87
89
89
89
91
93
95
96
95
96
100
102
102
108
115
121
131
139
146
152
158
159
161
163
167
168
167
167
167
163
159
154
152
154
156
159
158
152
146
142
139
139
137
139
137
129
115
102
89
79
77
77
77
77
76
74
76
77
77
76
72
69
71
74
77
81
84
87
93
96
96
96
98
102
104
106
108
115
123
133
141
150
156
158
159
163
165
165
165
165
163
165
163
163
161
159
156
156
148
150
148
142
137
129
125
123
123
123
119
113
102
95
82
76
74
74
72
69
69
68
68
68
71
69
66
63
63
63
68
72
79
86
95
96
98
100
106
110
112
113
119
125
135
144
148
156
159
159
161
167
170
168
168
165
163
161
165
165
163
161
159
158
135
137
137
131
123
113
110
108
106
106
104
100
93
84
79
77
76
69
66
65
66
65
62
62
62
62
59
59
59
59
59
65
72
84
91
96
102
106
112
117
121
125
129
135
141
148
154
158
161
163
165
168
170
167
167
165
161
161
165
168
165
163
163
161
125
127
125
119
112
104
98
98
100
100
98
93
87
79
77
79
77
71
66
65
65
63
59
59
59
60
56
55
55
55
56
59
66
76
84
95
104
110
119
127
133
135
139
139
144
152
156
161
165
163
165
170
170
165
165
163
161
161
165
165
165
165
165
165
117
119
115
113
106
98
96
95
93
93
93
89
84
82
81
81
77
72
71
68
63
63
60
58
58
59
56
55
52
54
55
58
59
68
77
87
102
115
127
137
141
141
141
142
148
154
158
163
163
159
163
168
168
165
163
163
163
163
163
163
165
163
165
167
113
113
113
112
100
95
91
93
93
91
93
87
84
86
84
81
79
74
69
68
63
62
60
60
58
58
58
56
52
54
54
56
56
63
71
81
96
113
129
139
142
142
141
144
150
154
158
163
163
161
163
165
167
165
161
161
161
163
163
163
161
163
165
163
110
110
108
106
96
91
89
91
89
91
91
89
89
86
86
82
82
77
71
69
66
63
62
62
60
60
56
54
52
52
56
58
59
62
68
76
87
106
123
135
141
142
142
146
150
152
156
161
163
161
159
161
163
161
161
161
161
163
163
161
161
163
163
163
102
110
108
102
95
91
91
91
87
87
89
93
89
86
87
86
84
82
76
71
66
65
66
62
59
59
56
55
55
58
62
62
62
66
69
71
81
91
110
127
137
142
144
148
150
150
150
154
158
159
158
158
158
159
161
161
161
163
165
163
163
163
163
167
104
108
106
98
93
93
93
95
91
89
91
96
96
95
93
87
87
86
86
77
72
69
68
65
63
62
62
62
62
65
66
66
68
69
69
71
74
82
95
110
125
137
142
144
144
142
139
141
148
150
148
148
152
154
158
161
161
163
163
165
165
163
163
165
108
108
102
96
91
91
96
100
98
96
96
100
102
100
96
91
89
89
87
86
79
76
71
69
69
69
68
68
65
65
65
68
68
68
71
71
71
74
84
93
108
121
133
137
137
131
125
125
133
139
139
141
142
146
150
152
154
156
158
158
159
158
158
156
110
110
106
98
91
95
100
102
102
100
98
104
108
108
102
95
93
91
91
91
87
82
76
74
74
72
72
72
71
69
68
68
66
68
69
69
69
68
76
82
91
102
113
119
121
113
108
110
119
129
133
135
137
141
141
141
141
139
141
141
144
144
144
141
115
112
108
100
96
100
104
106
106
104
104
108
112
115
110
100
95
93
98
102
100
96
87
81
79
77
77
76
72
74
71
69
68
69
72
74
72
71
72
81
87
91
96
100
96
91
87
93
102
119
129
133
133
135
135
133
129
127
125
127
129
129
129
123
119
117
112
104
100
104
110
112
113
112
112
115
121
121
117
110
102
104
108
110
110
106
100
93
89
86
81
79
76
74
72
69
71
74
77
76
76
77
74
81
89
91
91
89
86
82
77
82
91
104
117
127
129
127
127
123
117
113
112
113
117
117
113
106
123
121
115
110
106
108
113
117
123
123
125
127
131
131
127
119
113
112
115
117
117
113
110
104
96
93
87
84
82
77
76
76
76
77
79
79
79
81
81
82
89
87
89
91
87
82
74
76
87
93
100
112
119
121
117
112
108
102
102
104
102
100
98
91
129
127
121
119
113
115
119
125
131
133
135
139
142
144
142
135
125
119
117
119
117
115
113
110
108
102
96
89
86
82
79
76
77
79
79
81
82
82
81
84
87
86
89
91
89
86
81
81
86
89
91
96
104
106
106
102
98
96
95
93
89
86
84
79
137
135
131
127
123
123
127
135
139
142
144
146
148
150
146
141
131
125
119
121
119
115
115
113
115
113
108
100
91
89
86
81
81
82
81
84
86
84
84
86
89
87
89
93
95
95
89
87
87
89
87
89
91
95
95
93
89
86
86
84
82
77
72
71
146
142
141
139
135
133
135
141
146
146
146
148
150
148
144
141
135
127
123
123
119
113
113
117
119
119
115
108
100
95
93
91
86
87
89
93
91
89
91
91
89
93
95
96
98
98
95
91
93
93
91
89
89
91
93
89
87
86
86
84
79
74
72
71
156
154
150
144
141
137
137
141
142
142
144
144
144
142
139
137
133
127
121
121
119
112
113
117
119
123
123
119
110
104
104
104
100
98
96
96
95
95
98
98
96
96
95
96
100
100
95
93
95
95
93
93
93
95
93
91
87
89
86
84
79
77
77
77
165
161
156
150
144
137
137
139
139
139
139
139
139
137
135
133
133
129
121
117
117
113
110
113
115
121
121
121
119
119
121
119
112
106
104
100
98
98
100
104
104
102
98
98
100
100
98
98
95
96
98
98
96
98
96
93
91
91
89
86
79
81
82
81
167
165
159
152
146
141
135
133
139
137
137
137
135
133
133
133
131
129
121
117
115
112
106
108
113
117
121
123
125
131
135
131
125
119
113
112
110
108
108
108
108
106
102
102
100
100
102
100
98
98
98
102
102
100
100
98
96
95
91
91
87
86
86
86
168
165
161
154
148
142
135
129
135
137
139
137
133
131
131
133
133
129
119
113
113
113
110
110
112
115
119
125
129
139
142
141
137
131
127
125
123
121
119
115
113
110
108
108
108
106
106
106
104
102
102
102
100
102
104
104
102
102
100
98
95
91
91
91
170
165
161
158
150
142
135
127
129
137
139
137
133
133
131
133
133
129
121
113
113
113
112
110
112
113
119
123
131
141
144
144
142
141
139
137
139
135
131
123
117
113
112
112
112
112
110
108
106
106
104
106
106
106
110
108
108
106
106
106
104
98
96
95
167
163
161
158
150
142
135
127
127
135
141
137
131
133
133
131
131
129
123
115
113
113
112
113
112
115
119
123
129
137
142
146
144
144
144
144
144
144
142
135
129
123
119
119
119
115
113
112
112
112
112
112
112
113
113
112
112
110
112
113
110
106
104
102
161
161
159
156
150
142
135
125
125
133
137
135
131
131
131
127
131
133
127
119
115
115
115
115
113
117
119
123
125
131
139
142
144
144
146
148
150
148
148
144
137
133
129
127
125
123
119
117
117
117
117
115
113
115
117
117
113
112
110
115
112
106
108
104
154
158
156
154
148
144
137
127
123
131
137
135
131
131
131
133
133
135
131
125
121
121
119
115
115
117
119
125
125
127
131
139
142
144
141
144
148
148
150
148
142
139
137
137
135
129
125
123
121
121
121
117
115
115
121
119
115
115
113
113
110
108
108
104
141
152
154
152
148
144
137
127
123
125
133
133
131
133
135
137
137
139
135
129
127
129
127
121
119
119
125
129
129
125
127
133
139
141
141
141
144
148
150
148
142
141
141
141
139
137
131
129
127
127
123
119
115
117
119
117
117
117
115
115
115
115
113
112
129
142
152
154
152
144
137
127
121
123
127
129
133
133
137
139
139
139
135
133
131
129
131
127
121
123
129
131
129
129
129
129
133
139
139
137
141
146
146
142
139
137
137
139
141
137
135
131
133
129
127
123
119
121
123
125
125
123
121
121
121
121
119
115
115
133
144
152
154
146
137
125
123
125
129
131
131
133
139
137
139
139
137
137
133
133
135
135
127
125
129
131
131
131
129
125
125
131
133
133
137
141
141
137
135
133
133
135
137
135
133
131
137
133
129
127
127
131
131
131
129
127
127
127
127
125
123
119
108
121
137
148
150
148
139
129
127
127
131
133
131
133
137
137
139
139
141
141
135
131
133
133
131
127
127
129
129
127
123
121
119
121
127
131
135
137
137
135
133
129
127
129
135
135
131
131
131
133
133
129
127
131
133
131
131
131
131
133
133
131
129
123
104
112
129
144
150
148
144
135
129
127
131
135
135
135
135
137
139
141
141
141
137
131
127
129
125
123
125
127
125
123
121
119
117
117
115
123
127
131
133
133
129
127
125
125
129
133
131
129
127
125
125
125
127
127
129
133
131
131
133
133
131
135
131
125
