P2
# 278 of 608 Angiograms
64 64
255
96
96
98
98
98
98
100
104
104
102
104
100
100
100
96
100
100
96
93
86
82
84
84
86
86
86
84
82
84
84
86
86
86
89
89
93
96
98
102
104
110
117
119
121
121
121
121
121
121
119
119
115
112
112
110
104
102
98
93
89
89
86
87
86
98
98
98
98
102
102
100
102
106
102
102
100
100
100
96
98
95
89
87
79
79
82
84
87
87
86
84
81
84
84
82
86
87
91
91
93
98
100
100
104
112
119
119
119
119
119
119
123
121
119
115
115
113
113
110
108
104
104
100
93
89
89
91
87
98
100
102
100
100
102
102
100
100
102
100
100
100
98
96
95
87
86
82
81
81
84
87
89
87
86
86
82
82
82
84
87
86
91
93
93
96
102
104
108
113
117
119
119
121
117
119
119
119
119
115
113
113
113
110
108
108
102
102
98
95
96
93
89
100
98
100
102
102
102
102
95
96
96
95
95
96
96
93
89
86
82
81
81
84
89
91
93
89
84
86
84
84
87
86
86
86
87
89
91
93
100
106
108
113
113
117
119
121
117
117
117
119
117
115
113
113
112
108
104
106
102
102
100
102
98
95
93
100
98
98
100
100
98
96
93
93
91
91
91
93
91
89
89
86
82
82
86
89
91
93
91
87
82
84
84
86
86
89
87
84
84
87
89
95
100
108
112
115
117
119
119
119
117
117
119
119
119
115
115
113
110
106
104
102
104
102
100
100
102
96
96
102
98
96
96
95
93
91
89
87
87
91
91
91
89
89
87
86
87
89
91
93
96
93
91
86
82
86
84
86
86
86
87
84
84
86
89
96
104
112
113
115
115
119
119
117
117
117
119
119
119
117
113
110
108
106
106
104
102
104
102
102
104
100
98
98
95
93
91
87
86
87
84
82
87
91
91
91
89
89
89
89
93
96
96
95
96
95
89
86
84
82
81
84
84
82
84
82
82
86
89
95
104
110
113
113
117
119
123
119
117
117
119
119
117
115
112
110
110
110
108
104
100
102
100
98
102
104
104
95
91
89
86
84
86
84
82
84
87
91
93
93
93
95
95
95
98
100
100
102
98
95
89
86
81
81
84
86
86
84
84
82
84
89
91
95
106
112
112
113
119
121
125
125
119
117
117
117
115
115
110
108
108
108
108
108
102
98
100
102
100
102
104
89
86
84
82
84
82
84
87
89
93
91
93
95
98
98
100
102
102
104
104
104
98
93
87
84
81
79
82
82
82
84
81
81
82
87
93
98
106
108
110
112
117
121
123
121
119
119
119
119
119
115
112
108
108
106
106
106
104
98
98
100
98
100
100
86
84
84
82
84
82
86
87
95
96
93
91
95
96
98
100
102
104
106
104
104
96
87
82
81
81
82
84
84
86
84
82
82
86
89
95
102
106
110
112
113
115
119
125
125
119
121
119
123
121
117
112
108
106
104
104
104
102
98
100
102
100
100
102
81
81
82
82
81
84
89
91
95
96
93
93
96
96
98
102
104
104
104
102
96
89
82
79
77
77
81
84
86
87
82
82
84
87
91
96
104
110
113
113
113
117
121
123
125
121
119
119
121
121
117
112
108
106
104
104
104
102
98
98
98
100
100
100
81
86
84
86
87
89
93
93
96
98
95
95
93
91
93
100
100
102
102
98
93
86
81
76
72
76
79
86
86
86
84
84
89
93
98
102
110
110
112
113
115
117
119
121
121
121
121
123
125
121
115
112
110
108
104
104
104
102
100
100
98
98
98
95
84
87
89
91
95
95
93
93
95
95
93
91
87
86
91
96
98
100
98
96
91
82
77
79
77
77
81
82
86
84
86
89
91
98
102
108
112
110
113
115
115
113
117
121
119
119
121
123
123
119
115
112
110
110
106
104
104
100
100
102
102
100
96
95
89
93
95
98
95
96
96
95
93
96
96
89
86
87
93
96
96
95
91
87
84
77
72
74
77
79
81
84
82
84
87
91
95
100
106
110
110
112
113
113
117
119
119
121
123
121
119
121
119
115
113
112
110
110
108
106
104
104
102
102
102
102
98
98
93
93
96
96
95
98
96
93
93
96
96
93
87
89
95
95
95
93
89
84
79
74
71
74
76
77
79
84
82
84
87
93
98
104
106
108
110
110
110
112
115
119
117
121
123
121
121
121
115
113
112
112
112
108
106
108
106
104
98
100
102
100
96
95
95
93
95
98
100
98
95
95
95
96
95
95
91
93
95
98
93
87
82
81
76
69
71
71
71
72
76
82
86
87
93
96
100
102
108
110
112
113
113
112
113
113
117
121
123
121
117
117
115
115
115
113
112
110
106
106
106
104
102
100
100
98
93
95
98
95
95
98
96
96
96
95
95
95
96
96
98
96
93
93
87
82
77
74
72
69
71
69
72
74
76
81
84
87
93
96
100
108
112
110
110
112
113
113
113
115
117
117
123
119
117
113
112
112
112
110
108
106
106
108
108
106
106
102
98
96
95
93
96
95
95
95
95
95
96
96
98
98
98
98
100
100
93
89
84
77
74
74
68
63
68
68
69
74
77
81
86
91
93
98
106
112
113
112
110
112
113
113
113
117
117
121
121
119
117
113
112
110
108
110
108
106
106
106
110
106
100
98
98
96
95
96
95
93
93
95
96
96
98
104
102
100
98
100
102
100
93
86
81
74
74
72
69
65
66
68
71
74
77
82
87
89
91
102
110
113
115
108
110
112
113
112
112
115
117
121
123
121
119
113
110
110
112
110
110
112
106
106
108
106
104
100
96
95
95
93
96
96
91
95
96
96
96
100
96
96
98
100
100
95
89
84
79
74
74
72
72
69
66
66
71
74
79
82
89
91
93
102
110
115
113
108
112
113
117
115
113
115
117
121
119
119
119
115
113
113
112
110
108
108
104
106
108
108
106
102
98
96
95
93
93
95
95
96
98
98
98
100
98
96
98
100
96
91
87
81
76
72
69
74
76
74
69
68
69
71
76
82
87
91
95
104
112
113
115
112
113
115
119
115
113
115
117
121
119
119
121
117
117
113
112
110
108
106
106
106
106
106
104
98
96
95
93
91
93
95
95
95
95
96
95
98
98
98
98
96
95
89
84
76
72
72
71
72
72
74
71
68
68
74
74
79
86
89
95
106
110
113
112
115
117
117
117
112
113
113
117
121
119
119
121
121
119
117
112
108
106
108
108
106
104
100
102
100
96
96
95
91
93
93
96
96
95
96
96
98
98
98
100
96
95
89
81
72
71
71
71
71
72
74
72
69
69
74
77
81
84
89
93
104
110
113
112
113
117
117
113
112
112
115
117
119
119
121
117
119
119
117
113
110
108
106
106
106
104
102
102
100
98
96
93
91
95
96
96
96
93
96
98
98
98
96
96
96
93
89
81
74
72
71
68
69
72
77
77
74
72
74
77
82
84
87
93
102
110
115
113
112
113
115
115
112
115
113
115
117
119
121
119
117
119
119
112
110
108
104
104
104
106
102
102
102
96
96
95
89
95
96
98
96
91
93
96
96
98
96
98
100
95
91
82
77
74
69
69
71
71
79
84
77
74
74
76
82
87
89
93
102
112
115
115
113
110
113
115
112
113
112
113
115
117
119
121
117
117
117
113
112
108
106
104
102
104
100
100
100
96
96
93
89
93
95
96
98
95
96
98
98
98
96
100
100
96
95
84
76
71
69
69
69
72
81
86
79
74
74
77
84
86
86
93
102
112
113
113
112
110
112
112
113
115
117
117
115
115
117
117
115
117
117
113
110
110
108
106
106
104
100
100
98
93
93
93
89
96
96
98
98
98
96
96
96
96
96
98
100
98
95
86
77
71
69
69
69
72
79
81
79
76
74
79
84
87
87
95
104
110
113
113
112
110
112
110
113
117
117
115
113
115
117
115
115
115
113
113
112
108
108
106
102
102
102
104
98
91
91
95
89
95
96
102
98
98
98
96
96
96
98
100
102
98
95
87
77
71
68
69
69
72
76
81
79
79
79
79
86
86
89
95
102
110
112
112
112
112
113
112
115
115
115
115
113
113
113
115
117
113
112
112
113
108
108
106
104
102
100
100
95
91
91
91
89
96
98
98
102
96
95
93
98
98
100
100
100
98
93
87
81
72
69
68
71
74
74
79
79
77
77
79
86
87
87
93
100
108
110
110
110
112
113
112
113
115
115
112
110
110
110
112
112
110
108
110
112
108
106
104
106
104
98
96
95
91
87
87
87
95
96
98
100
98
98
98
98
96
98
98
102
96
96
89
84
79
77
74
71
69
71
72
74
77
76
77
81
84
87
91
100
106
108
110
110
110
112
113
113
112
112
112
108
108
110
112
108
104
106
110
108
106
104
106
106
104
98
95
91
87
87
87
87
93
96
95
100
98
98
98
96
98
96
98
102
96
93
91
87
84
81
74
69
69
71
72
74
74
74
72
74
81
86
89
98
102
106
108
108
110
112
112
113
110
110
108
108
110
113
112
108
104
104
110
108
106
108
108
108
104
98
93
87
84
87
89
91
91
96
95
95
96
98
98
96
100
98
98
95
91
93
91
89
89
84
81
72
68
69
71
71
71
71
69
69
72
81
86
91
96
100
104
108
108
108
108
110
108
108
108
108
112
113
113
108
110
106
104
106
110
110
108
106
104
96
91
89
89
89
91
91
91
95
95
93
96
100
96
96
100
98
98
95
91
91
91
95
93
89
86
79
74
71
71
72
74
69
65
63
68
74
79
86
87
93
98
102
102
102
104
108
110
108
110
110
113
115
115
112
110
110
108
106
110
110
106
102
102
95
91
89
86
91
91
91
93
93
95
95
96
98
96
96
98
96
93
91
89
91
93
93
91
89
87
84
81
79
77
76
74
69
66
63
66
69
72
77
81
84
89
95
95
96
100
106
108
110
110
113
115
115
115
113
112
110
108
104
106
108
104
100
98
93
89
89
87
89
89
89
93
95
95
95
96
95
95
95
93
89
87
93
93
93
96
95
95
93
93
89
86
84
84
82
77
74
68
62
62
68
71
74
76
81
84
86
91
93
98
100
106
108
110
112
110
110
112
113
110
110
110
106
104
104
104
100
95
91
89
91
91
91
87
86
95
93
96
95
95
95
95
93
89
87
86
89
91
95
98
98
98
96
93
91
89
91
89
89
89
82
74
66
65
69
72
72
74
77
79
82
87
89
91
96
98
102
104
106
106
108
110
110
110
106
106
104
102
102
102
96
91
93
93
91
93
89
89
89
95
95
96
96
96
96
95
91
87
86
84
89
93
96
100
102
98
96
95
93
95
96
93
95
95
93
82
76
72
72
74
72
76
76
76
79
84
86
87
89
95
98
100
98
100
106
108
108
112
108
104
104
102
102
98
95
93
93
93
91
93
93
89
89
91
95
98
98
100
102
96
89
84
87
87
91
95
100
98
98
96
95
95
93
98
98
98
98
102
96
86
81
79
79
79
79
79
76
76
79
82
86
87
87
89
93
95
93
95
102
104
110
113
110
106
106
102
100
96
93
93
93
91
91
91
91
91
87
95
96
98
98
104
100
96
87
84
89
89
91
96
96
93
95
93
93
93
96
98
98
98
102
104
98
89
81
81
82
82
82
84
81
77
79
81
84
86
89
89
86
89
91
91
95
100
106
110
110
106
106
100
98
95
93
96
96
93
93
91
89
87
87
95
96
98
100
100
100
93
87
89
89
87
93
96
95
93
95
96
96
96
98
100
98
98
96
100
98
91
84
84
87
86
86
87
84
82
82
84
89
91
93
91
89
87
87
91
93
95
100
104
102
102
106
102
96
95
95
95
96
93
91
91
91
87
87
98
98
98
102
98
98
93
89
89
89
91
95
98
96
95
95
95
98
100
100
100
102
100
100
100
98
89
84
86
89
93
91
91
91
87
87
89
93
98
96
95
91
89
84
84
87
91
93
95
100
102
104
102
96
95
93
93
93
91
89
89
91
91
93
96
96
100
98
96
98
91
87
87
86
93
98
98
95
96
95
95
98
100
102
102
102
104
102
104
98
91
84
87
89
89
91
93
95
95
93
93
96
100
100
96
95
91
87
86
86
86
86
89
95
96
98
98
96
96
95
93
89
89
91
89
89
95
95
96
96
102
100
98
96
91
86
82
84
91
98
96
95
95
98
100
102
104
102
104
106
104
106
104
98
91
84
87
89
89
87
89
93
96
96
93
95
102
104
102
100
96
91
91
87
86
86
87
89
91
93
96
98
100
100
98
96
93
91
93
91
93
93
98
100
102
104
104
98
89
87
82
82
91
95
93
96
98
100
102
102
106
106
108
106
106
106
102
98
89
86
82
86
87
91
91
95
96
95
93
93
100
104
104
100
98
96
93
91
87
86
84
86
87
89
93
98
100
102
100
102
98
93
95
93
91
93
100
100
102
98
100
96
89
86
86
82
89
93
93
96
100
102
102
104
104
104
102
104
106
104
100
98
91
87
84
82
86
91
91
96
98
96
95
95
102
104
104
104
102
102
96
95
89
86
84
84
84
87
91
95
98
100
100
100
100
96
95
93
91
93
95
96
100
98
96
96
89
86
82
81
84
87
89
95
96
96
100
104
104
102
106
106
104
102
100
98
93
86
82
84
84
87
87
95
98
96
96
98
100
100
102
106
108
106
102
98
93
87
84
82
81
84
89
95
98
100
100
98
98
96
95
93
91
91
96
96
100
102
100
100
91
87
84
81
77
81
82
86
91
95
98
100
100
100
100
100
102
98
96
95
91
82
79
81
81
86
91
93
98
96
98
98
100
100
102
104
106
108
104
104
96
89
84
82
79
79
84
91
98
98
98
96
96
96
93
91
93
91
98
98
100
104
102
98
93
89
84
81
77
76
79
82
86
93
96
96
98
96
95
96
98
98
93
91
84
77
76
81
82
86
87
91
95
96
98
98
98
100
102
104
106
106
104
106
100
93
86
81
76
76
82
87
96
100
100
96
98
98
95
95
93
91
95
98
102
102
98
95
91
89
87
86
81
79
79
82
84
87
91
93
95
95
95
93
95
96
91
87
81
72
72
76
79
84
84
89
93
96
102
98
98
100
100
100
100
100
104
102
102
95
84
79
74
76
81
86
95
100
100
98
98
98
96
93
91
91
93
96
98
98
96
98
95
91
89
87
84
82
84
89
89
86
93
96
96
93
95
91
91
95
91
87
76
68
68
71
76
81
84
87
93
100
102
98
96
96
100
102
102
104
104
100
102
95
82
79
72
72
77
82
89
95
96
96
96
95
95
91
96
93
91
93
95
95
93
96
96
93
87
86
87
87
87
89
91
93
96
96
96
95
96
95
95
98
93
86
74
66
63
66
71
76
82
87
91
96
102
98
93
95
96
96
96
100
102
100
100
95
81
77
71
72
76
81
86
93
95
96
96
96
95
95
98
93
93
93
95
93
93
93
95
95
91
89
89
93
95
93
93
96
100
98
98
100
100
98
100
102
95
86
76
68
65
66
71
74
82
86
89
95
98
98
95
93
93
95
100
100
98
98
98
93
81
76
74
72
74
79
84
89
91
95
95
95
96
95
96
93
93
95
93
93
93
93
89
93
91
89
89
91
95
96
95
96
102
104
100
102
102
102
104
100
95
86
77
71
65
66
71
76
81
86
91
95
98
96
96
95
93
95
100
96
95
95
95
89
81
77
74
72
74
79
82
87
89
89
91
95
93
91
91
91
93
95
91
93
93
95
91
87
87
89
91
91
95
98
98
98
102
102
100
102
104
106
102
100
95
86
79
72
71
69
76
77
82
86
89
95
98
98
96
95
95
95
96
95
91
89
93
86
79
77
74
71
76
79
84
86
86
87
91
91
89
89
87
89
93
89
89
91
95
95
93
86
82
84
89
91
93
95
98
98
102
102
100
102
106
106
104
102
95
86
79
72
72
72
77
79
82
84
89
93
98
98
98
96
93
96
95
95
93
89
87
84
77
74
71
69
72
77
86
86
86
87
87
89
87
89
89
87
91
87
91
95
93
89
91
84
82
84
91
93
96
98
100
100
100
104
100
102
102
106
106
102
93
84
77
74
74
77
79
81
84
84
89
95
98
100
98
95
95
96
95
96
93
93
89
81
76
72
71
72
74
81
86
87
87
89
89
91
91
89
87
87
87
89
89
96
93
91
89
84
84
87
91
96
98
100
98
96
98
100
100
100
102
106
104
98
89
82
77
77
76
76
77
81
84
87
91
95
100
98
98
96
96
95
93
95
95
93
89
81
76
74
72
74
77
82
86
86
87
89
91
89
91
91
87
84
86
89
93
95
91
91
89
82
81
86
91
96
98
96
95
95
95
98
102
98
98
106
102
98
87
81
77
76
76
72
76
81
86
89
91
93
96
100
100
98
96
95
91
93
91
93
89
79
74
71
71
74
79
84
84
86
89
93
95
93
91
89
84
84
86
87
89
87
87
89
89
82
81
84
86
91
93
95
95
95
98
100
98
96
96
100
102
96
86
77
74
72
71
74
79
79
82
86
89
93
96
100
100
98
96
96
95
93
93
93
89
81
74
72
71
74
79
84
86
87
91
93
95
95
89
84
84
82
86
89
86
86
89
91
87
84
84
86
89
93
96
95
95
96
100
102
98
98
100
100
100
96
86
77
69
69
74
76
79
81
79
84
87
91
96
100
98
96
98
96
96
96
93
93
91
86
77
74
72
76
81
86
86
86
91
93
93
89
84
84
81
76
84
87
84
87
91
91
91
86
84
84
89
93
98
96
95
96
98
100
100
100
102
104
102
96
86
74
68
68
72
76
77
81
81
84
86
87
95
98
96
96
96
95
93
93
95
96
93
87
81
76
74
76
81
82
84
87
91
91
91
84
84
82
76
72
86
86
87
91
91
91
91
86
86
86
89
93
96
95
96
96
98
102
102
106
106
108
106
98
86
76
71
69
69
74
76
79
81
84
87
89
91
96
98
96
96
93
93
93
93
95
96
89
84
79
72
77
84
86
86
89
91
89
87
84
82
77
72
72
86
87
89
91
89
91
91
84
86
89
93
93
95
95
96
98
100
102
104
104
108
108
106
98
87
77
69
68
68
72
74
76
79
84
89
91
95
96
100
100
98
96
93
93
91
95
96
93
89
82
76
77
84
84
84
87
87
87
84
81
79
76
77
77
87
89
89
93
95
95
93
87
86
86
91
91
91
93
96
98
100
100
100
100
106
108
106
100
89
79
69
68
69
69
71
74
79
81
86
91
95
95
96
98
98
96
93
93
95
93
95
95
91
87
84
82
82
82
82
84
86
86
81
81
79
76
76
81
