P2
# 279 of 608 Angiograms
64 64
255
82
76
72
71
69
66
65
65
66
63
63
65
66
68
72
79
82
87
95
104
112
117
123
127
131
133
137
137
137
137
133
131
125
119
119
119
117
115
117
113
117
117
117
117
117
119
117
117
121
119
117
119
117
121
127
129
127
127
127
127
127
133
139
141
72
66
65
65
63
63
63
59
60
62
62
60
62
62
66
71
74
77
82
89
95
102
110
113
119
123
127
131
133
135
133
133
125
117
115
117
117
117
115
115
115
117
117
117
121
119
117
117
117
112
112
110
112
115
123
125
127
129
127
129
131
131
137
139
66
62
60
59
58
58
59
58
58
58
59
59
58
59
65
68
69
69
74
79
84
87
93
96
102
108
113
117
121
123
125
123
119
117
117
117
117
113
115
113
115
117
121
123
125
123
119
117
113
110
106
100
104
110
119
123
125
127
125
131
133
131
135
137
60
59
58
55
55
55
55
56
56
56
59
58
58
58
62
65
66
68
66
69
74
79
81
82
84
89
95
100
104
108
110
110
110
110
110
112
110
112
112
112
112
115
121
121
123
123
119
115
112
106
98
95
98
106
117
123
125
129
131
133
135
131
133
137
59
55
55
52
51
51
52
55
54
56
59
60
63
62
60
62
62
66
68
68
69
72
72
74
77
81
81
84
86
89
91
93
93
95
98
100
102
104
104
106
108
112
115
119
119
117
115
110
104
98
95
89
95
106
115
121
125
129
131
131
133
131
135
135
56
54
54
51
50
49
51
55
55
58
60
63
65
68
65
63
66
65
66
66
68
69
66
71
71
72
74
76
79
81
82
81
82
86
89
91
95
93
93
95
98
104
108
108
108
104
102
96
93
89
86
87
93
104
113
117
119
123
127
129
129
129
131
131
55
56
55
52
50
52
55
59
58
60
62
62
65
68
66
63
65
65
68
66
68
68
68
69
68
66
66
69
72
72
74
77
79
82
82
84
84
84
84
86
87
91
93
93
91
89
89
87
82
82
84
86
89
100
106
110
112
113
115
117
119
121
123
123
58
60
58
58
56
58
59
62
66
66
65
63
66
71
69
68
68
68
68
68
69
69
65
66
66
66
68
69
71
71
71
72
77
79
77
79
79
77
79
81
79
79
79
79
81
82
82
79
79
77
79
81
82
89
95
96
100
100
102
104
104
106
108
108
60
60
62
62
62
63
65
69
72
74
72
71
71
72
76
74
72
72
71
71
72
72
66
68
69
66
66
69
69
69
71
69
76
74
74
77
76
72
74
76
76
76
76
74
74
76
76
76
77
77
76
76
77
79
82
86
86
89
91
91
89
91
91
93
66
69
71
69
69
71
74
79
84
87
86
84
82
81
79
79
79
81
77
76
77
74
71
72
72
69
68
68
69
71
76
71
74
74
76
74
72
74
74
76
72
72
72
72
72
72
74
76
77
77
76
74
74
76
76
79
79
81
82
82
86
84
81
79
76
79
79
79
79
82
87
95
98
98
100
98
96
93
91
87
86
87
86
84
82
82
77
76
72
71
72
71
71
72
76
72
74
74
74
74
71
69
71
71
68
72
72
72
71
71
74
76
74
74
76
74
74
72
72
76
77
77
77
79
82
82
77
79
89
91
93
91
89
93
100
110
115
119
117
115
113
108
106
102
98
96
93
91
91
89
84
79
77
76
74
76
74
72
76
72
74
74
74
72
68
68
66
69
69
72
72
69
68
68
71
72
71
69
71
71
72
74
74
76
74
76
76
76
81
79
74
76
104
104
102
100
96
104
115
129
135
139
137
131
127
123
121
119
113
108
102
100
98
95
89
84
81
81
81
79
76
72
76
76
74
74
74
72
69
69
68
68
68
69
69
68
66
65
68
71
71
69
68
69
71
72
72
76
76
79
77
77
77
76
74
72
113
110
108
104
102
112
125
137
144
144
144
139
135
135
135
135
129
123
117
112
108
102
100
93
89
87
86
82
79
79
77
77
76
76
76
74
71
71
71
69
68
68
68
66
66
69
76
74
71
69
69
71
69
69
72
72
77
81
79
81
81
77
74
71
117
115
112
108
110
117
131
141
146
150
144
139
135
137
141
142
142
139
135
127
121
117
112
108
102
96
93
89
86
82
81
79
77
77
81
76
72
72
74
72
69
69
71
71
71
72
76
76
72
69
68
69
69
69
74
77
79
79
82
84
82
81
77
74
119
113
113
113
115
121
131
139
146
150
146
141
135
137
139
144
148
148
144
141
135
131
127
121
113
108
104
98
93
89
87
84
82
84
82
79
77
74
74
74
72
74
72
76
74
74
72
76
76
74
69
68
69
71
76
79
82
82
86
89
86
82
82
79
113
113
115
115
117
123
129
137
142
150
146
142
135
133
139
142
150
152
148
144
144
142
139
135
131
125
117
112
108
102
98
95
91
89
89
89
84
81
77
77
76
76
74
77
77
79
79
79
77
77
72
72
74
76
79
81
84
86
89
89
86
87
87
82
112
115
115
113
117
121
129
133
139
146
144
141
137
133
135
139
144
150
148
146
146
146
146
144
144
139
133
127
123
117
113
110
104
100
98
98
96
91
87
84
84
81
81
84
84
82
82
84
81
81
79
79
81
81
81
84
87
91
89
89
91
91
89
89
112
115
113
113
115
119
123
129
135
142
141
141
141
139
135
139
141
144
148
148
148
148
148
148
146
146
141
135
133
131
127
121
117
113
112
110
106
102
102
100
100
98
98
98
100
100
95
91
89
87
87
86
87
87
87
91
95
93
93
95
96
96
96
96
112
113
115
115
117
117
119
123
127
135
139
139
139
139
137
139
139
139
142
144
146
150
150
148
146
142
139
137
135
135
135
131
127
125
121
117
113
112
113
117
119
119
119
115
115
113
112
110
106
104
104
104
102
100
98
102
104
106
104
104
104
106
108
106
121
121
121
121
121
117
117
117
121
127
131
133
137
141
142
141
141
139
141
144
146
150
150
148
144
141
137
137
139
135
135
131
129
129
127
125
121
119
119
123
125
127
127
125
125
125
125
123
119
115
115
115
115
117
115
117
117
117
117
117
117
115
115
112
129
129
131
129
127
123
121
117
115
119
125
129
133
139
144
146
146
144
142
142
142
146
148
146
142
141
139
137
137
137
135
129
129
129
129
127
125
123
125
127
125
125
127
129
131
131
131
131
129
127
125
125
125
125
123
123
121
123
125
121
123
119
113
112
137
139
139
139
135
129
125
115
112
112
119
123
131
139
146
148
148
148
144
142
142
142
142
142
141
137
137
135
135
135
133
129
129
131
129
127
123
119
125
125
123
125
129
133
137
137
137
133
133
131
127
129
125
127
123
123
123
123
123
119
117
113
110
106
144
144
142
142
141
133
125
115
106
110
113
121
131
135
144
148
148
148
146
141
141
141
141
141
137
133
133
135
133
133
133
133
133
135
133
127
121
121
121
121
121
125
129
137
139
135
135
131
129
129
127
125
127
123
123
125
121
119
117
112
106
102
100
100
142
142
144
144
144
139
127
117
108
106
115
125
135
135
142
146
146
148
146
144
142
141
141
139
137
133
133
133
133
131
131
133
135
135
131
127
125
121
121
121
125
127
131
135
135
133
133
133
131
133
133
127
127
125
123
121
119
115
110
102
95
93
95
98
144
144
146
146
148
141
129
121
113
113
123
133
139
141
142
146
146
146
146
148
148
144
142
141
141
141
137
135
137
137
135
135
137
133
129
127
125
127
125
123
125
129
129
135
133
131
131
135
137
137
137
131
129
127
123
117
112
106
98
95
89
91
96
102
146
146
146
148
148
139
135
127
123
123
131
139
144
146
148
148
144
142
142
146
150
148
148
144
144
142
141
137
141
137
137
135
135
131
129
129
127
129
129
125
125
129
131
135
135
133
133
135
139
137
135
131
129
123
115
110
102
96
95
93
91
95
102
106
144
142
144
146
144
137
137
133
131
133
137
144
148
150
150
152
148
142
144
146
150
152
152
148
146
144
141
141
139
137
137
135
135
133
131
129
129
131
127
127
127
131
133
135
137
133
131
133
137
135
131
129
123
113
104
98
95
95
96
96
98
100
104
108
142
141
141
141
141
139
139
139
137
139
142
150
154
152
154
154
150
142
142
144
150
154
150
148
148
144
142
141
139
141
142
139
139
139
137
137
135
133
129
129
129
131
131
133
135
131
131
133
135
131
129
121
110
98
93
93
95
95
95
96
100
104
108
110
139
141
141
141
142
142
141
142
141
142
146
152
156
154
154
154
148
139
141
144
148
152
150
148
146
144
142
139
139
141
142
142
142
141
142
141
139
133
129
129
133
133
133
133
133
129
131
131
127
123
117
108
96
91
89
91
93
96
96
98
102
108
112
112
139
139
141
141
144
144
144
141
141
142
148
154
158
156
152
152
144
137
139
144
146
148
148
148
144
142
144
142
139
141
142
144
142
142
142
142
141
135
131
131
135
135
133
131
127
127
127
121
115
110
104
95
91
87
87
91
96
100
100
104
110
112
113
115
139
141
141
141
142
144
146
144
142
144
148
156
158
158
156
150
141
135
139
144
148
148
144
146
146
146
144
144
142
141
142
144
144
146
144
146
144
137
131
131
133
133
131
125
123
121
115
108
102
100
96
91
91
91
89
91
98
102
106
110
113
115
119
123
141
139
141
142
142
142
146
144
142
142
148
156
161
159
154
146
139
135
139
144
148
148
144
144
146
146
144
141
144
142
144
144
146
146
146
144
142
137
129
129
129
131
127
121
113
108
102
96
95
96
95
91
93
95
96
100
104
110
112
113
117
121
123
127
141
141
144
146
146
144
146
144
142
142
150
156
159
156
152
146
141
135
137
146
150
148
146
148
150
148
146
144
144
146
146
146
146
146
146
142
139
135
129
127
125
125
117
110
102
95
93
89
89
93
95
96
96
100
102
108
108
112
115
119
123
125
127
127
142
142
146
148
148
146
146
146
142
144
150
154
156
154
152
146
141
135
137
144
148
148
152
150
150
148
148
148
146
146
148
144
144
148
146
141
135
133
125
121
117
110
104
98
93
86
84
84
87
95
96
98
100
104
108
108
112
117
121
125
129
129
127
125
142
142
144
148
150
148
148
144
139
144
150
154
156
156
152
144
139
137
137
144
150
150
152
150
148
150
148
152
144
144
144
142
142
144
142
137
133
127
117
110
102
100
96
91
87
82
81
86
89
93
100
102
102
108
113
117
119
123
125
129
131
131
129
125
144
142
144
148
148
148
144
142
141
144
150
156
154
154
150
142
139
135
139
146
150
152
152
150
148
150
152
152
146
142
141
141
142
139
135
133
127
117
106
98
95
93
95
91
84
84
87
89
91
96
100
102
104
112
119
123
125
127
127
129
129
129
127
127
142
144
144
146
146
146
144
142
142
144
150
152
150
148
148
142
139
137
139
144
150
154
154
154
152
152
152
150
146
141
141
139
139
135
131
123
115
108
98
93
91
89
91
89
89
91
93
91
96
100
102
102
108
115
125
127
127
127
123
125
127
127
127
127
141
142
142
144
144
142
141
139
139
139
142
146
146
146
144
141
135
133
137
141
146
148
146
148
150
150
150
148
146
141
139
137
135
131
121
113
108
102
96
91
89
87
86
89
91
95
95
95
98
100
106
110
115
119
127
127
125
125
123
121
121
121
123
125
141
139
139
141
142
139
135
131
131
129
131
133
135
137
135
133
127
123
125
131
135
135
135
137
139
141
142
144
142
139
137
133
127
119
110
106
98
96
93
89
87
89
87
87
93
98
96
96
100
104
112
115
119
121
123
123
121
123
119
117
117
121
125
123
131
127
127
127
129
125
119
117
115
115
113
113
117
119
115
115
110
104
108
112
112
113
115
115
119
125
129
131
133
131
125
121
115
108
104
98
93
91
86
86
89
91
91
93
98
104
106
106
108
113
117
119
121
119
121
121
119
117
117
115
115
119
123
127
113
110
110
106
106
106
102
102
102
102
100
100
102
104
102
98
95
91
91
95
96
100
102
102
106
106
110
112
115
113
112
110
106
104
102
98
93
91
89
89
93
96
98
106
112
115
117
119
117
119
119
119
121
117
119
119
121
117
115
115
113
115
119
123
100
100
98
96
95
93
89
89
91
93
95
95
95
93
95
93
89
84
82
87
91
91
95
96
96
98
100
100
100
102
102
102
102
104
102
100
95
95
96
98
102
104
108
115
121
125
123
125
125
121
115
115
119
119
121
121
119
117
117
117
113
113
117
117
93
93
89
86
89
86
84
84
87
91
91
91
93
89
89
93
89
81
79
81
87
89
91
93
93
93
93
93
95
96
96
96
98
100
98
98
98
98
102
110
110
112
117
125
131
131
129
127
129
125
117
115
119
121
121
121
117
117
117
117
115
113
115
115
89
89
87
86
86
86
84
82
82
86
87
89
89
89
91
89
87
84
79
81
86
89
91
91
95
95
93
93
95
96
95
93
95
96
100
102
104
108
112
115
115
117
123
131
133
133
133
131
129
125
121
117
117
119
121
121
119
119
117
119
115
112
115
117
89
91
87
86
82
81
81
81
86
87
86
86
86
87
87
87
87
87
82
84
87
89
89
91
93
93
98
100
98
96
93
93
91
98
106
112
113
113
115
119
119
119
125
133
137
135
133
129
127
125
121
117
119
121
119
119
119
115
115
117
115
112
115
119
89
91
89
84
81
81
76
76
82
86
84
81
84
87
89
87
91
89
89
87
86
89
93
95
93
95
100
100
95
95
95
95
98
108
117
121
119
119
121
123
121
121
127
131
135
135
133
129
129
127
121
117
115
119
119
119
119
117
113
115
115
113
115
117
91
89
87
86
82
76
76
77
81
87
87
82
87
87
89
91
93
91
91
91
89
91
98
96
95
91
96
95
96
96
98
104
110
117
123
127
125
123
123
125
123
123
127
129
133
133
131
125
127
127
121
117
115
117
119
119
117
117
115
112
112
112
112
115
93
93
89
87
84
81
79
79
82
87
87
87
89
89
91
91
96
95
95
96
96
96
100
96
95
95
96
100
100
102
108
112
119
123
127
127
125
127
127
127
127
125
129
131
131
131
129
125
125
125
119
115
113
115
112
110
110
112
112
112
110
108
110
113
96
95
95
93
89
86
82
82
84
87
91
89
91
93
95
95
98
102
104
104
100
102
102
102
100
100
104
106
108
110
115
117
123
125
127
125
127
127
125
127
129
125
129
131
129
129
129
125
121
121
119
115
112
110
110
110
106
104
104
106
106
104
108
110
100
98
93
93
93
93
87
86
86
89
95
96
96
96
98
100
104
110
112
113
113
115
117
115
113
113
115
117
119
121
119
119
123
129
129
127
125
125
125
127
131
127
127
129
129
129
127
125
121
121
117
112
108
106
106
106
106
102
100
98
100
102
104
106
98
96
96
96
98
98
95
89
89
93
102
104
104
104
104
108
113
119
125
127
127
127
127
129
131
131
129
125
125
125
123
123
125
129
127
129
127
125
125
127
127
127
127
129
131
127
125
123
121
117
113
112
110
104
106
102
100
98
96
95
91
93
96
102
98
96
100
102
102
102
98
93
95
98
104
110
110
110
112
117
125
129
133
133
131
129
129
135
137
141
139
137
133
129
125
123
127
127
127
129
131
129
131
129
129
129
129
129
129
125
123
125
119
113
108
108
110
106
106
102
104
100
96
89
89
87
91
95
104
102
104
106
110
110
108
100
98
104
113
115
113
115
119
125
135
139
142
141
139
135
135
137
137
142
141
139
133
133
131
125
125
129
127
127
129
129
131
133
133
135
133
131
129
125
125
123
117
112
108
108
108
104
106
106
104
98
93
87
86
84
89
91
113
115
115
117
115
115
113
108
104
112
119
121
121
121
127
135
142
148
150
152
148
144
139
139
141
144
141
141
135
133
131
127
125
129
129
129
129
129
131
133
133
135
133
133
131
127
123
119
113
110
110
108
110
110
112
110
108
100
96
91
89
87
89
87
119
123
127
125
125
123
119
112
112
117
123
125
125
127
133
139
148
154
154
154
152
150
144
141
141
141
141
139
137
135
131
125
129
129
131
129
129
131
133
135
135
133
133
131
127
123
121
117
110
108
108
112
113
115
115
115
113
106
102
98
93
91
91
87
127
131
135
135
135
133
127
119
115
119
127
131
131
133
137
142
152
158
156
154
154
154
148
142
141
142
139
137
133
135
131
129
127
127
131
127
125
129
131
133
133
131
131
127
123
119
119
115
110
110
110
115
119
117
117
117
119
115
108
102
100
96
95
89
131
139
142
144
142
139
131
125
121
125
133
137
139
141
141
144
154
158
156
156
154
154
152
146
144
142
141
137
133
135
133
131
129
129
133
131
129
131
133
133
131
133
129
125
123
121
121
115
112
112
112
115
119
119
121
121
121
123
117
110
106
100
96
91
131
141
146
146
142
137
133
127
125
131
135
139
141
142
142
146
154
156
156
154
154
154
152
148
144
142
141
137
135
135
135
135
135
133
131
133
133
133
135
135
135
133
129
125
125
123
123
117
113
113
113
117
121
125
125
123
125
125
123
117
112
106
102
96
121
135
142
146
141
135
133
129
129
133
137
142
142
142
144
148
154
152
152
150
150
150
148
148
144
142
142
139
135
131
133
135
135
137
135
133
137
137
137
137
137
137
129
125
127
125
121
119
119
117
117
119
125
129
131
129
127
125
125
123
117
112
108
108
110
125
137
139
137
135
131
131
131
133
139
144
144
144
146
146
150
150
148
148
148
148
148
148
146
144
142
141
137
131
131
131
133
135
135
133
133
137
139
137
137
137
131
127
129
127
123
121
123
123
123
123
129
133
133
133
129
127
123
125
123
121
119
119
93
108
123
129
133
133
137
135
131
133
139
144
146
144
144
144
144
146
146
148
150
150
148
148
148
146
144
141
137
131
127
129
133
133
133
133
133
133
137
137
139
137
131
127
129
129
127
125
125
125
125
127
131
133
133
131
129
127
123
125
127
127
129
129
87
95
110
117
125
131
135
133
129
135
137
144
146
144
146
146
142
144
146
148
150
150
148
150
152
146
144
141
137
131
123
123
129
135
135
133
129
129
133
137
139
139
133
127
127
129
131
129
129
129
127
131
133
133
133
129
129
129
129
129
131
133
133
135
84
91
98
106
113
119
121
123
127
131
137
142
144
144
146
148
148
144
144
146
150
150
148
152
152
148
144
141
137
135
127
125
127
131
135
135
129
127
131
137
141
139
133
131
129
131
135
135
133
131
133
131
131
133
133
131
131
133
135
139
139
137
137
137
