P2
# 280 of 608 Angiograms
64 64
255
100
102
104
104
102
104
102
102
100
98
96
98
100
106
108
108
108
102
98
87
77
74
69
65
69
68
68
71
69
74
79
84
95
104
104
104
104
102
102
106
108
106
108
106
106
106
102
104
102
102
104
102
102
98
104
104
106
106
106
104
104
104
106
106
102
104
104
106
104
104
106
102
98
100
102
100
104
108
108
106
102
100
98
87
79
76
71
68
69
69
69
71
69
74
81
89
100
104
106
104
102
106
104
104
104
104
108
106
104
106
102
100
104
100
102
102
102
102
102
100
100
102
104
104
104
106
104
104
100
102
106
102
104
102
104
104
100
102
106
104
106
106
102
102
102
100
95
87
79
72
71
69
68
69
68
71
72
77
84
93
102
106
104
102
106
106
108
108
106
106
108
110
106
104
102
104
106
104
102
104
104
106
102
102
102
102
106
104
104
106
106
102
102
100
104
104
104
102
102
104
104
104
104
104
104
104
102
104
104
98
93
86
79
74
74
69
68
66
68
72
76
82
86
95
104
104
102
104
104
106
110
112
112
108
108
108
108
104
102
104
104
104
104
106
104
102
102
100
102
104
106
104
102
104
104
104
98
96
100
104
102
102
102
104
106
104
102
104
104
104
108
108
104
96
91
86
79
76
72
69
68
68
71
72
79
84
86
96
102
102
104
106
104
104
104
108
106
106
108
108
106
104
104
102
100
100
104
104
106
104
102
100
102
106
108
106
98
104
104
104
96
95
100
104
100
102
100
102
102
104
104
104
104
102
106
108
100
93
87
82
76
72
69
71
69
69
72
72
77
82
86
98
100
102
106
108
104
102
106
106
104
104
108
106
106
104
104
102
102
102
102
102
104
102
100
102
102
104
104
100
100
102
106
106
100
95
102
104
102
102
100
104
104
102
102
104
104
102
104
104
96
91
86
81
74
72
71
71
71
69
72
74
79
84
87
96
102
104
110
108
106
104
104
106
110
110
110
108
106
106
106
106
100
98
100
104
104
104
104
104
102
102
102
102
104
104
110
108
96
98
104
102
100
98
98
100
100
98
100
104
106
102
104
102
93
87
84
76
72
72
72
72
74
72
72
77
81
84
87
95
100
100
102
106
106
106
104
104
104
108
108
108
108
108
110
106
100
96
100
102
102
106
102
102
102
100
102
104
104
102
106
106
98
98
102
104
100
100
102
100
104
102
104
104
106
106
104
102
93
87
81
74
74
71
71
74
72
72
74
79
82
82
86
91
95
100
100
102
106
106
104
102
104
106
104
104
104
104
106
104
100
96
100
102
100
102
98
102
102
102
100
102
102
100
98
102
102
100
98
100
98
98
100
100
104
106
108
108
108
108
106
104
95
86
79
76
76
74
71
71
71
72
76
81
82
86
87
89
93
96
96
98
106
106
104
108
108
106
104
106
104
104
108
106
102
100
102
102
100
100
98
98
100
104
100
102
106
100
100
102
100
98
95
96
100
98
104
102
106
110
110
112
110
110
108
102
93
84
77
76
72
72
72
72
76
76
79
82
87
91
91
89
93
95
95
96
104
104
106
106
108
106
104
106
108
104
108
108
104
102
104
102
98
96
96
100
102
100
100
102
104
102
100
102
96
96
95
98
100
102
104
104
108
106
110
112
112
112
106
95
89
82
77
72
71
71
74
77
79
79
81
87
95
96
93
89
91
91
91
96
102
104
104
106
104
104
102
104
106
102
106
102
106
104
102
100
98
98
96
98
98
98
96
100
100
100
102
106
98
96
95
98
98
102
104
108
106
106
110
108
110
104
95
87
82
79
76
72
72
72
74
77
79
81
87
96
100
96
91
89
86
87
91
96
100
106
106
104
106
102
104
104
102
104
102
98
102
102
100
98
96
96
96
98
98
100
98
100
102
100
98
104
100
98
96
98
98
100
102
106
108
106
106
104
102
95
87
81
76
74
74
69
72
72
76
77
82
89
91
96
98
93
87
89
86
87
91
96
100
106
108
106
102
100
102
102
102
102
98
98
100
100
98
95
95
93
98
98
96
100
98
102
102
102
100
100
100
98
96
98
100
100
102
104
104
104
98
95
91
84
82
81
76
76
72
72
74
76
77
82
89
93
91
95
95
91
89
89
89
89
93
98
98
102
104
104
102
98
100
102
102
102
98
98
102
100
98
95
95
95
96
96
98
100
98
98
100
98
100
104
98
100
98
98
100
100
102
102
100
95
89
84
79
77
77
77
74
72
71
71
71
74
79
82
87
89
89
95
93
89
87
89
91
91
93
96
100
102
102
100
100
100
100
102
100
98
98
100
104
100
96
96
95
96
95
95
98
96
98
100
98
100
104
104
100
100
100
96
95
96
98
96
91
84
81
77
74
76
77
76
71
69
69
69
72
76
77
81
86
86
89
93
89
91
89
87
93
93
96
98
100
104
104
102
100
102
102
104
104
100
102
98
100
100
98
96
96
95
96
96
96
100
98
98
100
100
104
102
98
100
100
98
98
100
98
89
81
79
74
71
72
74
76
74
69
66
66
68
71
77
74
79
84
86
89
91
91
89
87
87
93
96
98
100
102
104
106
102
104
106
104
102
106
102
100
98
95
95
96
96
96
95
98
102
100
102
100
98
100
98
100
102
98
100
100
100
98
98
93
81
74
68
66
66
71
74
77
79
74
68
66
65
68
72
74
77
81
86
89
91
93
91
91
95
96
96
102
100
104
108
108
104
108
106
102
104
104
102
102
96
95
95
95
98
96
96
100
98
100
100
102
104
102
100
100
100
100
102
96
98
96
95
86
74
68
66
63
66
71
76
82
84
79
71
69
68
69
68
71
77
79
84
91
95
95
95
96
98
100
100
100
104
106
110
108
106
108
108
108
106
100
98
100
95
95
96
96
98
98
98
100
100
100
100
104
106
104
100
100
104
100
102
100
100
96
93
81
69
63
62
60
62
69
76
84
82
79
71
69
65
66
68
68
74
77
82
89
96
96
98
100
98
100
104
102
106
108
106
106
104
110
108
104
104
100
98
100
98
96
96
96
100
100
100
98
102
104
100
100
104
104
102
102
102
98
98
98
98
98
95
82
71
63
59
58
59
65
72
81
82
79
71
66
62
59
65
68
72
76
79
87
93
96
98
100
100
102
104
104
106
108
106
104
106
106
104
104
102
100
98
98
96
95
95
95
98
98
98
100
100
100
102
98
98
100
100
102
100
96
95
96
98
98
96
84
74
65
59
59
60
63
66
72
74
74
68
65
58
58
60
63
69
74
77
84
89
91
96
98
98
96
100
102
104
108
104
102
102
104
104
104
100
98
96
98
96
95
95
95
98
93
93
96
100
100
102
100
100
98
100
100
100
95
95
98
96
98
95
86
76
68
62
58
63
66
65
69
71
69
66
62
58
54
56
60
65
71
74
79
84
86
91
95
95
95
98
102
104
104
106
104
104
106
104
102
100
102
98
98
98
95
93
95
96
95
93
95
96
98
100
102
102
100
100
102
102
96
98
100
100
96
93
87
77
72
66
62
65
68
69
72
69
66
65
62
56
54
55
58
62
68
69
72
76
81
84
87
91
93
93
96
98
100
106
108
104
106
106
104
102
104
100
96
96
96
95
95
96
95
95
98
98
98
102
100
100
98
98
100
100
98
98
98
100
98
95
89
81
76
72
69
69
69
68
71
69
72
68
63
58
55
55
58
60
65
65
68
74
79
81
82
86
87
89
95
96
95
100
106
106
106
106
108
106
100
98
96
96
96
93
93
96
100
96
96
98
100
102
100
98
96
95
102
104
100
96
98
100
102
100
95
86
82
81
77
76
74
74
74
74
76
72
66
62
58
58
60
59
62
62
66
76
81
81
81
81
84
86
89
91
91
95
98
100
102
102
104
102
98
98
100
95
95
93
93
96
100
98
100
102
102
96
96
95
95
96
102
104
102
95
98
100
100
96
93
87
87
84
84
84
82
82
82
84
86
82
74
66
63
62
60
58
58
62
68
76
81
82
81
81
81
82
86
86
89
89
95
96
98
98
98
96
96
100
98
96
95
93
93
95
96
96
98
100
98
96
98
95
96
102
102
100
98
95
100
102
98
95
91
86
91
87
91
95
93
89
89
91
93
87
82
74
66
65
62
62
63
65
71
77
82
86
86
84
84
82
84
84
86
87
87
93
93
96
98
95
95
98
98
98
96
95
93
96
96
96
96
98
98
95
96
98
98
100
102
102
96
96
100
102
102
96
89
89
91
93
96
98
96
96
95
93
91
89
86
81
74
69
66
66
66
68
74
79
86
89
93
91
87
86
84
82
84
86
81
84
91
95
96
98
100
100
100
100
96
96
96
96
95
95
96
98
98
95
98
100
98
100
102
108
95
98
100
98
100
96
95
93
93
95
98
100
102
102
102
98
95
93
91
86
79
76
72
69
69
69
74
82
87
93
96
96
93
89
86
84
89
86
82
84
86
91
95
96
98
96
96
98
98
100
98
95
93
96
96
95
98
100
100
100
95
100
104
104
95
95
96
98
96
95
89
91
89
91
96
100
100
100
102
102
96
95
95
91
84
77
74
74
74
74
76
82
89
95
98
100
98
95
93
91
89
86
84
82
84
86
93
95
96
95
95
96
96
98
98
96
95
96
98
96
96
98
96
95
96
100
100
100
95
96
98
100
100
96
93
89
86
91
98
100
96
95
96
98
96
95
98
96
86
79
76
76
79
77
77
81
89
95
98
100
102
100
96
98
95
89
87
84
82
86
89
89
91
93
95
96
96
96
100
100
96
93
98
95
96
95
95
95
93
96
98
100
95
96
98
98
96
98
96
91
87
89
95
102
98
96
96
96
95
91
93
93
86
82
76
74
76
76
77
82
86
95
98
100
100
102
98
100
96
91
89
87
84
86
84
82
86
91
95
96
95
95
96
98
95
93
96
96
96
96
96
95
91
93
98
100
95
96
96
100
100
98
96
93
89
89
95
95
93
95
95
93
91
91
93
89
87
82
76
76
76
77
77
77
84
86
95
98
98
104
102
102
98
95
93
91
87
86
82
82
84
89
95
96
95
93
95
96
95
95
95
98
93
95
98
100
93
93
98
102
95
96
96
98
98
98
95
93
87
87
89
91
89
87
89
87
89
91
95
93
87
81
76
76
77
79
81
79
82
86
91
98
102
104
104
106
100
98
96
93
89
86
82
81
82
87
93
87
93
93
95
95
95
96
98
98
98
96
100
100
98
98
102
102
96
96
93
96
96
96
96
95
89
87
89
89
87
87
87
87
87
91
95
96
91
84
77
76
76
74
79
77
81
86
89
96
102
102
102
102
104
100
98
93
89
86
81
81
79
82
86
87
91
95
96
96
96
96
96
93
93
95
95
96
102
100
102
104
96
96
93
95
98
98
102
96
93
87
86
84
86
87
89
89
95
95
95
96
95
89
81
77
74
74
77
77
81
86
89
96
100
102
102
102
102
102
104
96
89
87
82
81
79
81
84
87
91
95
95
96
98
96
96
93
93
91
95
98
98
98
102
102
96
95
95
95
96
98
100
98
96
87
84
84
87
89
91
93
93
98
100
96
96
91
84
79
76
77
74
76
79
84
91
96
96
100
102
106
104
100
102
98
93
91
82
77
77
79
81
84
87
91
91
93
96
96
98
96
91
91
95
95
98
98
96
100
95
93
93
95
98
100
100
96
96
89
82
84
89
95
96
100
96
96
104
102
98
91
86
81
76
79
79
79
81
84
91
95
96
98
100
104
102
100
102
100
96
91
86
81
77
77
79
79
81
84
86
91
91
91
95
95
91
93
93
96
100
98
98
98
95
93
95
95
98
98
98
100
96
93
86
89
96
98
100
100
98
98
102
104
98
91
86
81
81
79
79
81
82
84
89
95
96
96
98
100
102
100
100
98
96
91
89
84
81
79
76
77
79
82
86
91
93
93
93
93
91
93
95
98
102
102
102
98
93
95
96
96
98
98
95
96
95
91
91
95
98
102
102
104
102
98
102
98
95
87
87
84
84
81
81
81
82
82
87
95
96
95
96
98
102
102
102
102
100
95
93
86
79
77
79
79
79
82
87
89
95
98
93
93
95
96
95
96
100
100
98
100
91
93
95
96
100
98
95
91
91
91
95
95
96
100
102
102
100
104
98
96
91
89
87
87
87
82
81
79
82
82
86
93
96
96
98
100
102
102
100
102
100
95
93
86
79
77
81
81
81
84
89
93
98
95
95
95
96
95
93
96
102
98
100
100
93
91
93
93
96
96
93
89
87
91
96
100
98
100
100
104
104
104
98
93
89
86
84
87
87
82
79
79
84
82
84
91
96
96
100
100
100
98
98
100
96
98
95
84
79
76
76
77
81
84
91
95
96
95
95
98
96
95
96
100
100
100
104
102
95
95
95
93
95
91
87
87
87
91
96
100
102
102
98
100
104
104
100
95
87
86
82
86
84
82
77
79
79
79
81
89
96
98
98
98
96
96
98
100
98
98
95
84
79
76
74
74
81
86
93
98
96
93
95
96
98
98
100
102
100
102
104
98
93
96
96
93
93
89
87
87
89
95
100
100
100
100
102
102
100
102
98
96
89
84
82
84
84
81
77
74
72
74
81
89
95
96
98
98
100
98
98
100
100
96
93
86
81
76
74
74
77
86
95
98
98
96
95
96
98
98
98
98
100
102
102
100
95
95
95
95
93
91
89
89
91
98
102
102
102
104
104
104
104
102
100
96
91
84
81
82
82
81
76
72
69
72
81
87
93
96
96
98
102
100
98
96
98
98
95
89
84
79
76
76
76
84
95
96
98
98
96
96
96
100
102
100
98
100
100
100
98
95
93
95
93
89
87
91
95
100
102
104
102
100
104
106
104
104
100
96
89
86
84
84
81
79
74
72
69
71
79
86
93
95
96
100
96
100
102
100
98
96
96
91
84
81
81
77
77
84
91
95
96
96
96
95
98
102
100
100
98
104
102
102
96
95
96
93
91
89
89
95
100
104
100
102
104
104
104
104
102
100
98
95
91
89
86
87
82
79
74
76
72
72
77
84
91
93
98
98
96
98
98
100
100
98
96
91
87
84
82
81
81
82
87
93
95
98
98
96
98
104
100
98
100
102
104
104
96
95
93
89
91
91
93
95
100
102
100
98
102
102
102
104
104
98
98
96
93
91
89
87
86
81
76
76
74
72
74
81
86
93
100
104
98
96
96
100
98
95
95
91
93
89
84
82
79
79
82
89
93
98
98
95
96
100
100
100
100
100
104
102
93
89
93
93
91
93
96
98
98
98
98
98
98
102
106
106
102
100
100
95
93
93
89
86
84
84
76
76
71
69
71
77
81
89
98
102
100
96
95
96
96
96
96
93
95
87
84
81
77
79
81
86
91
95
96
96
96
100
102
100
100
102
100
98
91
91
91
95
95
95
96
96
98
100
100
100
98
102
104
102
100
98
98
93
95
95
93
89
86
84
79
76
71
69
69
74
79
86
95
98
98
96
95
95
96
93
96
98
95
91
84
81
79
81
82
86
89
95
93
93
95
98
100
98
100
102
98
95
96
96
91
93
95
95
95
98
98
100
102
102
102
100
100
100
100
102
96
96
98
96
96
95
87
81
77
74
71
69
65
71
77
86
93
96
100
98
93
93
95
95
95
98
100
95
89
82
79
86
86
84
87
93
91
95
95
95
95
96
98
98
95
89
96
96
91
93
96
93
96
98
98
98
102
104
104
102
100
100
98
102
96
95
96
102
100
95
91
84
77
72
69
68
65
68
76
82
91
96
98
100
96
93
91
93
98
96
98
98
91
89
84
86
86
84
86
87
89
89
93
95
96
95
96
95
89
87
98
95
95
93
95
95
96
98
100
100
100
106
108
104
100
98
98
100
98
96
100
102
96
96
93
87
77
72
71
66
68
71
72
79
89
96
98
104
100
95
91
91
96
96
96
98
93
93
89
87
86
86
86
86
84
86
91
95
93
89
89
87
87
84
95
96
95
91
91
96
96
96
96
98
100
106
108
104
100
100
98
100
100
102
104
104
98
98
98
89
77
74
68
68
68
71
71
77
86
95
100
100
102
100
96
95
95
96
96
100
98
93
91
89
91
87
86
84
84
84
87
89
87
86
84
84
84
87
96
95
93
91
93
96
96
96
98
96
100
100
102
104
104
100
100
98
102
102
104
102
98
100
98
89
77
72
69
68
69
71
72
79
87
95
98
100
102
100
100
96
96
98
100
100
96
95
93
91
89
89
86
82
82
84
84
86
86
84
84
87
87
93
91
93
95
93
93
95
91
96
96
95
100
102
102
104
102
98
98
98
100
102
102
100
100
104
98
87
79
74
69
69
68
69
72
81
91
93
95
96
98
96
98
95
96
100
102
98
98
96
95
93
93
95
91
86
84
86
86
86
84
82
82
87
91
93
96
93
91
93
93
93
93
98
100
102
102
102
104
106
100
100
98
96
98
100
100
102
100
102
98
87
79
76
69
69
69
68
72
79
87
93
95
96
96
96
98
98
96
96
96
98
98
100
96
93
96
96
95
91
89
87
87
86
86
84
84
89
93
96
96
93
93
96
95
95
95
100
104
104
100
102
104
102
100
100
98
100
98
96
96
98
100
100
95
86
76
72
71
69
68
69
71
76
87
93
96
96
98
96
98
102
100
98
98
98
98
100
98
95
96
98
95
93
95
93
93
89
91
89
91
95
98
102
95
93
96
96
95
95
95
96
102
104
100
100
102
102
100
98
96
96
96
98
100
100
102
100
91
82
72
71
68
68
68
69
71
77
87
96
98
98
96
98
100
100
100
100
100
100
98
96
100
98
98
95
93
93
96
96
95
93
98
95
96
98
100
98
93
91
95
96
95
95
93
95
98
102
102
100
102
102
102
98
96
95
96
98
100
102
102
95
89
81
72
69
69
68
68
68
71
79
89
98
98
98
96
98
98
96
95
96
100
96
102
100
98
102
100
96
95
96
96
96
98
98
100
102
100
102
100
98
91
89
91
93
95
91
91
93
96
102
104
102
104
104
102
98
96
98
96
98
96
98
98
93
89
79
74
69
66
66
66
68
71
81
89
96
98
102
100
98
98
98
98
98
98
95
96
98
98
100
102
100
100
98
96
98
96
98
100
104
104
102
100
98
89
89
89
91
91
89
91
91
93
98
100
98
100
102
100
98
96
96
95
95
95
96
98
93
89
81
74
66
65
63
68
66
71
79
87
96
98
100
102
100
96
96
98
100
100
98
100
96
98
100
100
102
100
102
98
96
98
98
102
104
102
98
98
96
