P2
# 284 of 608 Angiograms
64 64
255
93
95
93
93
87
84
82
77
79
81
81
82
81
77
77
81
87
93
96
100
102
100
100
95
93
93
95
98
104
102
106
108
110
108
106
98
82
69
60
54
52
54
59
63
66
72
82
95
104
106
108
110
110
108
108
106
106
106
110
113
115
117
115
115
95
93
91
91
89
86
84
81
81
81
81
76
76
77
81
89
95
98
100
102
100
100
104
100
96
96
100
100
102
106
106
110
110
108
104
91
72
62
54
49
49
52
58
65
69
79
89
102
108
108
106
110
112
110
108
106
108
108
110
112
115
117
115
113
98
93
91
93
91
89
87
82
82
84
82
77
77
81
89
96
98
96
98
102
104
102
104
100
100
100
102
100
104
108
108
112
110
106
98
82
65
58
51
50
50
54
60
66
76
87
98
108
110
108
110
112
113
110
108
106
108
108
110
113
113
113
113
110
96
95
91
93
95
91
91
87
86
89
87
87
86
89
93
95
98
100
100
100
102
104
102
102
106
104
104
104
108
110
110
110
108
102
91
74
62
54
51
51
51
55
63
71
81
93
104
113
110
110
113
112
112
112
108
106
108
110
113
113
113
112
110
108
93
95
91
95
93
89
93
93
91
89
89
89
89
91
93
95
100
100
100
102
104
102
102
104
108
106
106
108
104
108
108
106
106
100
86
71
59
50
47
50
52
58
66
76
84
96
106
113
112
113
115
115
115
110
106
104
104
110
115
113
110
112
108
104
91
91
91
93
95
93
91
91
93
89
89
87
91
89
93
98
100
98
100
102
104
104
104
104
104
102
104
108
104
104
102
100
100
96
86
71
58
49
47
51
54
62
71
79
89
98
108
113
113
112
113
113
110
106
104
104
108
110
115
113
112
113
106
100
87
91
91
95
95
91
89
91
93
89
86
89
91
89
93
96
96
96
102
100
100
102
104
104
102
100
106
106
100
100
98
95
96
93
86
72
59
50
47
52
58
63
72
82
89
98
108
113
113
113
113
112
108
104
104
106
110
113
115
113
110
108
102
98
89
91
89
91
91
89
87
89
91
91
87
87
87
89
93
93
96
98
98
100
100
100
100
102
98
100
104
100
96
95
95
95
95
89
87
76
60
52
50
54
56
63
71
82
91
100
110
115
113
112
112
112
110
104
104
108
112
110
112
112
108
104
96
93
89
93
93
91
89
89
89
89
89
93
89
87
87
89
93
93
96
98
96
96
96
98
98
96
98
96
98
96
96
95
91
95
95
91
89
77
60
55
54
56
56
62
71
84
93
102
108
112
112
108
108
108
108
104
104
110
112
110
112
108
104
100
93
91
87
87
89
89
93
89
91
91
89
89
89
87
87
89
93
96
96
96
96
96
96
96
98
95
96
96
95
95
98
96
93
95
96
95
93
82
62
55
56
56
56
62
71
84
95
104
108
108
108
108
110
106
108
104
104
110
112
112
110
106
100
95
91
87
87
87
89
89
89
89
91
89
93
91
89
87
87
87
91
95
96
98
96
98
100
98
96
95
95
95
95
96
98
96
96
96
95
96
96
84
63
55
56
59
59
62
71
84
96
106
108
106
104
108
112
108
106
104
106
110
110
112
110
104
96
93
87
86
87
89
89
87
93
91
86
87
91
93
95
93
91
87
89
93
96
100
96
98
100
98
100
96
95
95
98
98
96
96
96
100
102
102
100
86
66
56
54
58
59
63
74
86
98
108
108
108
104
104
108
104
102
102
104
106
108
110
108
100
95
89
82
82
91
91
91
87
93
89
87
87
89
91
93
93
93
91
89
91
96
98
98
102
98
98
96
95
96
96
96
98
95
100
100
102
104
104
102
86
68
56
52
55
58
65
74
87
96
106
108
106
104
106
106
102
100
98
100
104
106
106
104
96
87
82
77
82
89
93
91
89
89
91
89
86
87
89
89
87
91
91
91
93
95
95
95
98
98
96
95
95
95
96
95
96
100
100
100
102
104
104
98
87
69
58
52
54
60
68
77
87
95
100
104
106
108
108
108
102
98
96
102
106
104
104
96
89
81
81
76
77
87
89
91
89
91
89
86
82
86
87
89
89
93
91
91
93
95
96
95
95
96
98
98
98
98
98
98
98
102
104
102
104
104
100
95
82
66
60
58
56
63
71
79
86
91
96
102
104
106
104
104
102
100
98
100
104
102
96
91
82
76
76
77
81
87
91
89
87
87
91
89
86
89
89
87
89
91
91
91
95
98
96
95
95
98
100
102
102
98
96
96
98
98
102
102
100
102
98
93
77
65
60
59
60
66
74
82
87
87
93
96
98
98
100
98
98
100
102
100
98
96
93
87
79
72
72
77
82
87
87
87
87
87
91
91
87
89
89
89
91
89
87
89
93
93
96
95
95
98
100
102
102
98
96
96
98
98
102
102
102
100
98
89
74
66
63
63
65
68
74
81
86
87
91
89
89
93
96
95
95
95
96
96
98
93
91
89
81
76
77
77
82
86
87
87
87
87
89
91
89
87
87
87
91
89
86
87
89
91
95
96
96
96
100
104
102
98
100
102
104
102
106
108
106
100
96
86
72
69
68
69
71
74
77
81
84
87
86
86
87
89
93
91
91
91
93
93
91
93
93
91
82
79
79
81
82
84
86
87
86
87
87
91
87
87
87
89
93
89
87
87
87
91
93
95
95
98
98
98
98
102
102
102
102
102
108
108
104
100
93
81
71
72
74
76
79
84
87
89
87
86
86
84
86
86
86
84
81
81
86
89
91
93
93
89
82
79
79
81
79
87
86
87
89
91
91
91
87
87
87
91
91
89
86
86
87
93
95
98
98
98
98
98
100
100
102
104
102
106
108
106
102
96
86
76
74
76
76
81
89
95
96
95
95
93
89
86
86
84
82
79
74
74
79
84
87
87
87
87
82
79
77
79
77
89
89
89
89
89
91
93
89
89
89
89
87
87
86
87
93
95
95
98
96
98
98
98
102
104
104
104
108
106
104
102
96
89
82
74
72
76
79
89
96
100
104
100
96
96
93
89
86
81
79
74
71
71
76
81
84
84
82
86
82
79
79
76
74
91
91
93
91
91
91
89
91
89
87
87
86
87
87
89
89
93
96
96
98
100
102
100
102
108
106
104
102
104
104
98
91
84
79
77
79
81
84
91
100
104
110
106
102
102
100
93
89
84
79
72
71
71
76
77
77
79
79
81
81
79
79
77
77
93
93
93
93
95
93
89
91
87
84
84
86
87
86
87
89
95
98
98
98
100
102
104
104
106
104
102
102
102
100
93
84
79
77
79
82
84
87
95
102
106
108
110
110
106
104
100
93
84
77
72
71
74
76
77
76
76
74
76
77
76
77
77
76
91
93
95
91
95
95
89
87
86
84
84
86
84
84
89
93
95
95
98
102
106
106
106
104
104
100
102
102
104
95
86
79
77
79
82
82
86
89
96
104
104
108
113
112
108
108
104
96
86
76
71
71
76
76
77
77
74
74
72
71
72
74
74
74
87
89
89
87
91
89
89
89
84
82
84
84
84
87
93
95
95
96
98
102
106
106
104
104
104
102
102
102
98
91
81
77
76
77
84
84
86
91
100
106
106
112
113
110
110
110
106
98
86
77
72
74
77
77
79
77
72
71
69
68
71
69
71
71
86
86
87
86
87
87
87
87
86
82
84
84
87
93
91
93
93
93
98
102
104
104
104
104
102
102
100
100
96
87
79
74
72
79
84
86
87
91
100
106
110
112
112
110
112
110
104
96
86
79
74
77
84
82
79
74
71
69
69
69
69
68
68
69
84
86
89
86
86
86
87
86
86
86
87
87
89
91
95
91
93
96
100
100
104
104
102
106
106
104
104
104
96
86
79
76
72
77
82
84
87
95
102
106
110
108
108
108
112
108
100
91
84
79
74
81
87
86
84
79
72
71
74
72
69
68
66
69
84
86
86
86
84
84
84
84
84
87
89
87
89
87
89
91
93
98
100
102
104
104
104
104
106
104
106
102
95
84
77
77
74
74
77
84
89
96
104
108
104
106
108
110
108
104
95
87
79
81
79
86
87
86
84
82
77
74
76
72
71
69
68
71
86
86
86
86
86
86
86
86
84
86
89
87
87
89
93
95
96
96
102
102
104
104
102
104
104
104
106
102
91
82
79
76
74
76
77
82
89
96
102
104
104
106
104
104
102
98
93
86
79
77
82
86
87
87
87
84
84
79
77
74
72
69
69
68
86
86
86
86
87
84
86
86
82
86
87
89
91
91
93
95
96
95
100
102
104
104
102
104
104
106
104
98
86
79
76
71
72
76
77
82
89
96
100
104
104
104
104
104
102
98
91
82
79
79
82
86
87
87
86
87
86
86
79
76
72
71
69
66
84
82
82
84
84
84
86
86
87
87
89
91
93
91
93
93
95
96
102
104
106
108
106
104
100
102
100
91
81
76
71
69
71
74
79
84
91
100
102
104
106
106
104
104
100
96
87
79
76
77
82
86
89
84
84
86
86
87
84
79
72
72
69
65
82
76
76
82
84
84
87
87
87
89
91
91
91
89
95
96
95
98
102
104
102
104
102
102
100
98
95
84
76
71
69
71
72
76
81
86
95
104
104
106
108
108
104
102
96
91
86
79
77
79
82
86
87
84
84
87
87
87
84
81
76
74
69
66
79
72
72
77
81
86
89
87
87
89
89
91
93
93
96
98
96
98
100
102
104
104
100
102
98
95
86
77
74
72
71
74
79
82
82
89
100
104
106
108
108
108
102
98
93
89
86
79
79
77
79
82
84
84
86
87
89
87
86
82
81
77
71
68
76
74
72
77
82
87
89
89
91
91
91
93
93
93
95
93
96
98
98
98
100
104
106
104
96
87
77
74
72
72
72
76
79
81
84
93
102
106
106
108
108
106
104
98
93
89
84
77
77
77
79
82
81
84
86
87
87
86
82
84
84
79
72
68
72
74
76
79
86
87
86
89
93
95
93
96
96
95
96
96
95
98
96
98
100
100
102
98
87
81
76
74
74
72
72
74
79
84
89
95
102
106
108
106
104
106
102
102
95
87
84
81
79
76
79
82
84
81
84
84
86
86
84
84
86
79
72
71
68
72
77
86
91
89
89
89
93
95
95
96
96
96
96
100
96
95
96
100
102
102
98
91
82
76
74
74
71
72
74
77
82
86
91
98
106
106
106
104
106
104
102
100
93
86
82
81
79
77
79
81
84
82
82
84
84
84
84
84
86
79
72
69
71
76
82
87
89
89
91
91
93
93
95
93
93
95
98
98
95
96
96
98
100
100
93
84
79
74
71
71
69
71
74
77
86
91
96
100
104
106
110
108
106
104
100
96
91
86
82
77
77
77
82
81
84
81
82
84
84
82
86
87
86
77
72
69
77
79
84
87
89
93
93
91
95
95
93
91
93
93
96
96
96
98
98
98
102
96
87
79
76
72
69
71
71
72
76
81
87
95
100
100
106
106
108
108
106
100
98
96
89
84
77
74
77
79
79
79
79
81
82
84
82
84
84
84
81
76
69
68
79
81
86
93
93
91
91
91
95
96
95
95
93
95
98
98
98
100
100
100
96
89
81
72
74
71
71
72
72
76
77
84
91
98
102
104
106
108
108
106
104
102
98
95
89
81
76
74
79
81
82
84
81
81
82
81
82
82
81
81
76
74
69
69
82
87
91
95
95
91
91
93
95
95
95
93
95
98
98
96
98
100
98
95
89
84
74
71
71
71
68
69
72
77
81
87
95
104
106
106
108
108
108
106
102
100
98
93
89
79
76
76
79
82
84
87
81
81
81
82
82
82
81
76
71
72
72
69
87
89
95
95
95
93
91
95
96
95
95
95
98
98
96
95
98
98
96
95
89
81
71
69
72
72
69
69
72
77
84
91
100
106
106
106
108
108
104
102
102
100
96
93
87
81
76
74
82
86
84
86
86
84
84
81
82
81
76
69
68
71
68
69
89
95
95
95
95
91
91
93
96
96
95
93
98
98
100
100
100
100
100
95
87
77
68
66
71
69
68
72
76
79
86
95
104
104
106
106
108
106
102
100
100
95
93
89
86
84
76
74
81
86
86
86
87
89
87
81
82
79
71
66
68
66
65
68
93
96
95
95
93
93
93
95
96
98
95
96
98
100
98
100
98
100
100
93
82
74
68
66
69
68
66
71
77
82
87
100
106
106
106
106
106
104
98
98
96
93
89
87
87
86
81
76
81
89
89
86
87
87
84
82
79
74
69
69
69
68
68
71
93
95
93
93
93
95
93
93
95
95
95
96
96
98
98
98
96
98
98
87
79
72
66
66
68
66
68
72
79
84
93
104
106
108
110
110
108
106
98
95
95
96
91
91
91
87
82
81
82
86
87
86
84
84
84
81
76
72
69
68
69
69
69
72
91
93
93
95
93
95
91
91
95
95
95
96
95
98
98
98
98
100
95
82
76
72
68
66
68
69
71
74
77
86
98
108
112
110
108
108
104
100
96
93
93
95
91
89
87
86
82
79
81
84
84
84
84
79
79
77
74
72
68
66
69
69
71
76
91
91
93
93
95
95
93
91
93
91
93
95
95
93
93
96
98
100
93
79
72
72
69
68
71
72
71
76
79
89
98
108
113
113
108
106
102
98
96
93
93
91
91
89
87
86
86
81
82
84
84
84
86
84
81
76
72
69
66
66
71
72
74
79
91
91
91
89
93
93
93
91
91
93
91
93
95
95
96
96
98
96
89
77
71
69
68
68
66
69
74
76
82
91
98
106
112
112
108
104
100
98
96
95
91
89
91
91
87
87
87
81
77
81
82
84
86
87
84
77
69
66
66
68
72
74
76
79
93
91
89
89
89
91
91
91
95
95
91
95
96
96
96
96
96
91
84
72
66
65
63
66
66
66
72
76
82
89
98
106
110
110
106
100
98
96
93
91
89
89
91
93
87
87
87
82
79
81
82
84
86
86
84
79
71
69
69
69
74
76
79
81
93
93
89
87
89
93
89
91
93
95
93
96
96
98
95
93
91
84
74
66
65
62
60
65
68
69
74
77
81
87
96
104
108
106
102
96
96
96
91
89
91
87
89
87
87
84
86
86
82
79
81
84
84
82
82
77
71
69
69
71
74
79
81
84
91
91
91
89
89
91
91
87
89
91
93
96
98
95
93
91
84
76
66
63
66
66
68
66
66
69
72
76
82
87
95
98
102
100
98
95
95
96
95
95
95
89
87
84
81
84
86
87
82
77
79
82
84
82
81
79
72
69
68
71
74
77
79
81
87
89
93
91
89
89
89
91
93
91
93
96
96
93
89
86
79
69
65
63
65
66
66
66
69
71
72
77
82
86
91
93
96
96
96
95
95
96
96
95
96
91
89
86
82
82
86
86
82
79
79
81
84
84
84
81
77
74
71
71
74
77
81
81
87
87
91
87
89
91
89
87
89
91
93
95
93
89
86
82
76
69
65
63
65
65
65
65
68
71
74
77
82
86
86
89
89
91
93
91
95
95
91
91
91
93
89
86
84
84
84
86
82
81
81
84
84
86
84
81
79
77
74
69
76
74
74
76
89
89
89
89
87
87
89
87
87
89
91
91
93
89
82
82
74
71
65
63
63
63
68
66
68
72
76
79
84
87
87
87
87
93
89
91
93
93
93
91
89
89
89
84
86
84
86
86
84
84
82
82
84
86
86
84
81
79
77
74
76
72
71
69
89
89
91
89
87
87
87
89
87
87
91
89
89
84
81
77
74
71
66
68
65
66
66
68
69
72
76
81
86
91
89
89
87
91
86
86
89
89
89
87
89
87
89
87
87
87
87
86
86
84
82
82
81
84
86
82
84
84
81
76
76
77
74
69
93
89
89
87
87
89
89
91
91
89
89
89
86
82
81
79
74
69
68
68
68
65
68
68
71
72
77
82
91
95
95
95
91
87
84
84
87
89
87
86
86
87
91
89
91
89
89
86
84
84
86
84
84
87
86
82
84
86
84
81
77
79
76
74
89
91
89
87
89
87
91
93
93
91
87
86
82
81
79
77
71
68
68
71
68
68
69
68
72
74
79
87
96
100
102
98
93
89
84
84
84
84
84
86
86
87
89
87
87
89
87
86
86
82
81
82
86
86
84
84
87
87
84
84
79
82
81
79
91
91
89
89
91
91
91
89
89
87
87
86
81
79
76
72
69
66
65
69
69
68
66
68
72
77
84
95
100
106
106
100
95
93
89
84
86
86
84
81
86
87
89
91
91
91
89
87
89
86
84
87
87
87
84
86
86
89
87
86
82
82
84
82
89
91
89
87
87
87
91
93
89
87
87
86
81
79
74
71
68
65
63
69
69
66
66
68
72
79
89
98
104
104
100
100
96
95
89
86
84
86
84
86
84
86
89
91
91
91
91
91
89
89
86
87
87
89
87
86
87
89
87
86
84
81
81
79
91
93
91
89
89
89
93
91
91
91
86
82
77
76
74
72
68
65
66
66
68
66
68
71
74
82
93
104
106
102
102
100
98
95
89
86
84
84
86
87
86
84
89
91
91
91
91
93
89
87
86
87
89
91
93
93
91
87
87
87
86
84
81
81
91
96
96
89
89
91
91
89
87
89
84
79
76
74
76
72
68
65
65
65
65
65
66
69
74
82
95
102
106
104
104
102
100
96
93
89
86
86
86
86
84
84
86
87
91
91
91
91
91
89
87
87
93
95
95
95
93
87
86
87
89
89
84
84
91
93
95
89
87
89
89
87
86
86
82
76
72
74
74
72
68
66
66
66
65
65
66
69
74
82
95
104
108
108
104
104
100
96
96
91
89
86
87
86
84
82
84
86
89
87
93
93
93
93
91
89
95
96
95
95
91
91
89
87
89
89
86
84
91
89
93
89
89
89
89
87
86
84
79
72
72
76
76
72
69
69
69
68
66
65
68
71
76
82
95
104
110
110
106
104
102
96
95
95
91
89
87
86
82
82
81
82
86
87
89
91
93
91
91
93
93
95
95
95
93
93
91
87
87
87
87
86
89
89
89
87
89
89
91
87
87
82
76
71
72
77
77
74
71
69
66
66
65
68
71
71
74
84
96
104
108
108
104
100
100
98
93
89
91
87
86
86
86
84
86
81
84
87
89
89
87
89
89
91
95
93
95
95
91
93
93
89
87
87
86
84
93
91
87
87
91
91
91
89
84
79
74
71
74
81
79
74
71
71
68
68
66
68
69
72
76
84
96
102
108
108
104
100
98
95
89
89
93
87
87
91
86
86
86
82
84
86
89
87
86
87
89
93
95
95
95
95
91
89
91
93
87
87
86
86
