P2
# 286 of 608 Angiograms
64 64
255
74
77
76
81
86
86
89
91
91
93
93
89
87
84
84
82
79
79
77
82
79
79
84
87
91
93
93
93
93
93
93
96
100
104
104
96
87
81
76
71
66
62
60
62
63
65
69
74
81
87
96
106
110
113
113
115
115
115
113
113
110
106
104
106
72
76
76
79
84
86
86
86
89
91
89
84
82
81
82
82
81
81
81
84
84
86
89
95
98
96
93
89
95
95
98
100
102
104
98
87
79
74
72
69
63
60
62
63
65
68
72
79
87
95
104
108
113
115
113
112
112
112
112
110
106
104
104
106
76
76
74
77
84
84
84
89
86
87
86
82
82
84
81
82
84
87
87
87
91
91
95
98
98
95
93
91
95
100
102
104
104
98
89
79
74
74
72
68
62
60
63
66
68
71
77
86
95
102
106
110
113
113
113
115
113
113
112
110
106
102
104
106
79
77
79
77
81
81
82
86
86
84
82
82
79
82
82
86
91
93
91
91
89
91
93
93
93
91
89
93
98
102
102
102
98
87
77
69
69
68
68
65
60
63
66
71
74
77
86
96
104
108
112
110
108
110
110
113
115
115
112
108
104
104
104
102
86
81
79
76
77
81
81
82
84
81
76
76
77
82
86
91
96
96
98
93
89
87
89
87
89
89
93
100
100
102
102
98
91
79
68
65
65
63
62
63
63
66
71
74
77
86
96
106
110
112
112
110
108
110
112
115
113
113
108
104
102
104
102
100
87
86
82
79
77
77
81
81
79
77
74
74
81
87
93
95
96
98
98
95
93
91
89
91
93
95
96
102
104
102
98
93
81
68
60
56
58
60
62
62
63
68
74
77
84
95
106
112
113
112
112
112
110
112
112
113
115
112
106
102
104
104
100
100
89
89
86
81
76
74
79
77
76
76
76
79
84
89
93
95
96
98
100
96
95
95
95
96
96
96
96
100
100
96
93
86
69
60
58
54
55
58
60
62
65
71
77
82
95
106
112
113
113
113
112
112
110
112
110
112
113
113
106
102
106
106
102
104
95
91
89
86
81
77
76
76
76
79
81
84
87
87
93
100
100
96
96
96
96
98
100
102
102
102
98
100
98
96
91
77
63
55
52
52
54
54
62
65
69
74
82
95
106
110
112
115
113
110
110
112
112
112
110
110
112
108
104
102
104
106
104
106
95
93
93
87
84
81
77
77
79
82
84
89
89
93
96
96
98
98
100
100
100
100
98
102
102
102
102
102
100
93
81
68
56
50
50
50
51
54
62
68
74
79
93
104
110
112
113
112
108
110
110
115
115
113
112
110
108
104
104
104
104
106
104
106
93
93
91
87
87
86
82
82
84
87
86
91
95
95
95
96
96
96
100
98
98
98
98
100
100
100
102
100
96
87
74
59
51
47
49
49
50
56
62
71
79
89
104
108
112
112
113
112
106
108
110
115
113
110
112
112
106
100
102
106
108
106
108
106
91
91
91
89
91
89
87
87
91
93
87
89
93
93
96
98
95
100
100
98
100
98
96
98
100
98
100
96
93
79
65
55
47
45
49
49
51
58
66
76
86
96
108
112
113
113
112
108
110
113
112
115
113
112
112
110
106
100
102
108
110
106
106
106
91
91
91
89
91
91
87
87
89
93
91
89
91
91
95
95
95
98
100
96
98
100
100
104
102
98
98
95
87
76
62
52
46
47
49
47
52
60
71
79
91
102
108
112
113
113
112
110
113
112
112
113
113
110
112
108
106
104
104
104
110
104
106
108
93
93
91
89
87
91
89
91
91
91
91
93
95
93
93
95
96
98
96
100
102
102
102
100
102
102
96
91
86
74
63
52
47
45
47
49
54
65
74
84
95
106
113
112
113
113
112
113
115
112
113
117
112
112
110
108
104
102
104
108
110
110
108
108
91
91
93
89
89
89
89
91
91
93
89
91
95
96
95
96
96
98
96
100
104
104
100
100
98
98
95
91
86
74
63
54
47
46
47
50
55
68
77
89
98
112
117
113
115
117
115
113
115
113
113
115
112
108
106
104
100
102
106
110
106
106
108
104
89
93
95
91
89
91
93
93
95
93
93
91
95
96
96
96
96
100
98
98
104
102
98
98
96
95
91
91
86
77
65
55
49
46
49
51
58
69
81
91
102
113
115
113
113
113
115
113
113
113
113
113
110
108
104
102
104
104
102
106
104
102
104
100
89
89
89
89
89
91
95
96
95
95
93
93
93
96
95
98
98
98
102
98
100
96
96
96
93
91
91
91
87
81
68
56
50
50
52
55
62
71
84
93
108
115
115
113
113
113
112
113
113
115
112
110
108
104
102
102
104
104
100
102
104
106
104
100
93
93
89
86
89
91
91
93
91
91
91
91
91
95
93
95
96
98
100
100
96
95
93
93
91
91
89
89
91
86
71
59
52
50
52
56
60
71
82
96
110
115
115
115
112
112
110
112
112
112
110
110
108
102
102
102
104
102
98
100
102
106
106
100
95
96
93
91
91
91
91
93
93
95
93
91
91
93
96
95
95
100
98
98
93
91
93
93
91
91
91
91
93
91
79
63
55
52
52
54
59
69
82
100
108
112
112
113
115
112
110
110
110
110
110
108
106
102
102
102
104
100
98
100
102
106
104
100
91
93
91
91
89
93
96
93
93
91
87
91
93
95
95
93
95
95
95
93
91
95
96
89
91
91
93
93
93
93
84
68
58
54
54
54
59
71
82
96
106
110
112
113
113
112
112
112
110
112
112
110
106
102
100
98
98
96
95
96
102
106
102
98
87
91
89
91
89
91
91
93
93
89
87
91
93
93
93
95
95
93
93
93
93
98
96
91
93
95
96
95
96
95
86
72
59
54
52
54
62
72
81
89
100
106
112
112
112
112
112
110
108
110
110
110
106
98
95
96
96
93
93
98
104
106
100
98
91
91
87
89
89
89
89
91
93
87
89
91
91
91
95
96
93
91
91
93
96
98
96
93
93
96
98
95
98
95
87
72
60
54
54
56
65
74
81
84
89
96
102
108
112
110
110
110
108
106
106
106
102
95
95
98
93
89
93
100
104
106
100
100
93
91
89
89
89
89
89
89
89
87
86
89
93
93
93
91
93
93
95
96
96
100
98
95
95
95
96
96
96
93
86
72
62
56
55
59
66
76
82
82
84
87
93
96
100
102
104
104
104
104
102
102
98
91
95
98
95
89
95
102
104
104
100
95
93
93
87
89
89
89
87
91
87
86
84
87
91
91
91
93
93
95
96
100
98
100
100
98
93
93
95
98
95
91
82
72
65
58
59
62
71
77
81
81
82
84
86
89
91
93
95
96
100
100
98
98
93
95
98
100
98
95
96
100
104
104
98
93
93
91
89
89
89
87
86
87
89
87
86
87
87
91
93
95
98
96
95
98
96
98
98
96
95
93
95
96
95
89
79
71
66
62
60
68
77
81
82
79
81
81
82
86
86
87
89
91
95
96
96
96
95
95
100
102
102
98
96
100
98
95
93
91
93
93
93
89
91
89
86
86
84
84
87
87
91
93
93
93
96
95
95
95
95
98
96
98
96
95
95
96
95
86
74
66
62
65
66
74
82
84
82
81
82
81
81
82
82
81
82
84
87
91
93
95
95
96
100
104
100
98
95
96
93
89
89
89
93
91
93
91
91
89
87
86
82
86
86
87
87
89
89
89
93
93
96
95
95
98
96
100
96
96
96
95
91
82
71
65
62
65
72
82
89
89
87
86
84
82
81
81
82
81
79
79
81
84
87
89
91
95
96
100
100
100
96
95
95
91
89
87
91
91
91
91
91
86
86
86
82
87
89
95
93
89
87
89
91
91
95
93
95
98
96
100
96
96
96
93
91
79
68
65
63
69
79
89
96
98
93
89
86
84
82
82
79
79
79
77
76
81
81
82
84
91
95
96
100
100
100
102
98
93
89
91
91
91
91
89
91
87
87
87
86
89
93
98
95
91
95
91
91
91
91
91
93
98
100
98
95
93
95
95
87
76
66
60
65
76
86
95
102
104
100
96
93
91
87
86
84
82
76
74
77
77
76
77
77
82
89
93
98
98
98
102
100
96
89
91
89
87
86
86
84
84
86
86
87
93
93
93
91
89
93
91
91
93
93
95
93
96
98
96
93
89
89
89
81
72
69
63
68
79
91
98
104
106
104
102
100
98
93
91
91
86
76
74
77
77
72
72
76
79
81
87
95
98
98
102
102
96
89
89
87
87
82
84
81
84
87
89
93
95
91
91
89
87
91
91
93
93
93
95
95
96
96
93
93
91
87
82
77
71
68
66
71
82
95
102
104
106
104
106
108
102
98
96
95
87
81
77
81
82
77
76
77
81
79
81
87
93
95
96
100
95
89
89
86
82
81
81
79
87
89
93
93
95
93
91
91
89
87
91
91
93
95
96
96
95
93
91
91
91
86
79
76
71
68
69
76
84
98
106
106
106
108
108
106
102
102
102
96
91
86
84
84
82
76
76
77
79
79
79
81
86
87
91
96
93
89
89
82
86
84
81
86
89
93
91
91
93
91
91
89
86
89
91
91
93
98
96
93
93
91
89
91
89
84
76
72
71
71
69
77
87
100
106
110
112
110
108
104
108
106
104
102
96
93
89
87
84
79
77
79
81
79
79
79
81
82
86
93
93
91
93
82
82
84
84
86
87
89
89
89
91
87
87
91
89
93
93
91
93
96
95
91
93
91
91
91
89
81
72
71
71
68
71
81
89
100
106
110
110
108
110
108
106
106
106
102
98
95
93
95
89
87
86
86
84
81
79
77
76
77
82
87
91
93
93
81
82
87
84
84
87
86
89
89
89
87
89
91
91
95
93
91
91
93
95
93
93
93
93
93
87
76
68
69
69
69
74
79
89
100
104
106
104
106
106
104
106
106
104
100
95
95
96
96
93
91
93
93
91
84
82
79
79
79
81
86
89
89
91
82
84
89
86
87
86
86
86
87
89
89
91
93
93
95
93
93
95
95
96
98
95
96
95
89
82
74
69
68
68
71
74
81
91
98
102
102
104
104
104
104
104
106
102
96
93
96
96
95
93
96
96
96
96
91
86
81
79
79
79
82
86
89
91
84
84
87
89
89
87
89
91
91
95
95
93
95
93
93
93
98
100
98
98
98
98
100
98
89
79
71
68
65
68
69
74
82
93
100
104
102
102
104
104
104
106
100
98
93
91
98
98
91
91
98
100
98
100
96
93
86
81
77
79
79
84
87
89
81
84
87
89
87
87
91
91
93
95
95
95
95
96
96
95
98
98
96
98
100
100
100
98
87
76
68
66
63
65
69
76
86
95
100
104
106
106
102
102
104
102
100
95
91
89
96
96
91
91
100
104
104
102
100
95
91
84
81
77
77
81
84
89
82
84
84
86
87
89
91
93
93
93
95
95
95
96
100
98
100
98
95
98
98
98
98
93
84
72
65
63
65
65
71
77
89
96
102
100
104
104
104
102
102
100
98
95
91
95
95
95
91
96
102
104
104
102
100
98
95
89
82
81
81
81
84
89
81
84
84
86
89
93
95
93
95
95
95
95
95
95
98
100
102
100
100
100
98
98
96
87
79
69
65
65
65
66
74
82
91
98
100
100
104
102
104
102
102
104
98
93
91
93
96
95
96
100
100
102
100
100
102
102
98
91
84
79
81
84
86
86
76
81
84
87
93
98
100
96
95
95
95
93
93
95
100
102
100
98
102
98
98
96
89
82
74
69
65
63
63
69
77
84
95
100
100
104
104
102
104
100
102
104
98
93
91
91
91
93
96
102
98
96
98
100
102
104
102
95
86
79
82
82
86
86
76
79
84
91
91
96
98
95
96
95
96
95
96
96
98
102
96
96
98
96
96
93
84
77
72
66
65
65
66
71
77
84
95
100
104
104
100
100
102
100
104
104
98
93
91
91
91
91
96
98
98
98
104
104
102
104
104
98
87
81
82
84
84
86
76
81
84
89
93
96
98
96
100
98
96
100
98
98
95
100
96
96
96
95
93
86
81
76
69
65
63
65
68
71
77
84
93
98
104
100
102
100
102
104
104
102
96
91
89
87
87
91
98
102
104
102
102
102
102
102
104
98
89
81
82
81
81
81
79
84
89
95
96
95
100
102
102
96
96
98
95
96
96
96
95
98
98
95
89
82
77
71
66
63
63
65
68
72
77
86
93
96
102
100
102
102
102
104
102
104
96
93
95
91
89
89
96
104
104
102
102
104
102
102
100
98
89
81
82
79
77
81
81
87
93
96
100
96
98
102
104
100
100
98
96
96
96
95
95
98
95
91
82
77
72
68
65
62
62
63
66
74
81
87
95
96
98
100
98
100
100
98
98
100
96
95
95
93
89
89
95
104
102
102
104
106
106
104
100
96
86
77
79
77
79
82
87
95
96
100
100
98
98
98
102
100
102
98
96
96
95
95
96
96
91
84
79
72
66
66
63
63
66
68
69
76
82
87
93
96
98
96
102
100
96
98
98
96
95
96
95
93
91
89
95
102
100
98
102
106
106
102
96
91
81
77
76
76
79
81
95
98
100
100
100
100
98
98
100
98
98
96
95
95
93
95
96
95
87
81
72
68
65
65
65
65
66
69
74
81
86
91
93
96
96
96
100
100
98
100
98
95
93
95
95
91
91
89
95
100
98
98
104
104
102
98
91
86
79
77
76
77
79
79
98
98
100
100
104
102
100
98
98
98
100
100
96
96
95
96
98
93
84
76
66
63
65
63
65
66
68
74
79
84
89
95
95
95
96
98
102
102
100
102
100
96
95
98
93
89
91
89
95
98
100
98
98
100
100
95
87
81
77
77
76
76
77
77
95
98
96
96
100
98
96
96
98
98
98
96
96
96
96
96
95
87
79
69
63
62
62
63
63
68
71
74
79
87
95
96
96
95
96
98
98
102
102
104
102
96
95
98
95
93
93
93
96
98
98
100
102
102
98
91
84
77
76
77
77
79
77
79
96
98
96
98
100
100
96
95
95
96
96
95
95
95
95
95
89
82
74
68
63
62
62
62
62
65
72
77
81
91
96
95
95
95
96
98
98
102
102
102
102
96
91
95
95
95
95
96
102
104
102
102
104
102
96
87
79
76
74
76
76
79
81
77
100
98
98
98
100
96
93
95
93
95
95
98
100
98
95
93
86
79
71
65
63
63
62
58
63
68
74
79
84
93
95
91
93
93
95
96
98
102
102
106
102
98
93
93
93
93
96
100
102
106
104
102
104
102
91
84
76
76
76
76
77
81
79
76
98
96
100
100
100
96
96
96
96
96
95
95
96
96
96
91
84
74
66
62
63
62
60
59
63
68
77
82
89
95
93
91
93
95
96
98
95
98
102
104
102
98
95
93
96
95
95
96
100
102
104
104
100
98
89
82
79
76
77
79
81
84
84
79
100
96
98
100
98
96
96
96
98
98
95
93
93
98
95
91
79
69
63
63
62
60
60
60
63
69
79
84
93
95
91
93
95
96
98
98
98
100
104
104
104
102
95
93
95
93
93
96
102
102
104
102
100
93
84
82
79
79
79
82
84
87
84
79
100
102
98
98
98
96
95
96
98
98
96
96
95
96
93
86
77
68
65
65
59
58
59
62
66
71
79
87
95
93
89
93
96
100
96
98
100
100
100
100
104
102
96
96
95
91
91
96
102
104
106
104
96
91
81
79
77
77
82
87
87
86
81
81
98
100
98
96
98
95
95
95
95
95
95
95
95
95
91
82
76
68
65
60
59
60
58
62
66
72
81
89
93
96
95
93
98
98
95
95
98
96
96
100
104
102
98
93
93
93
91
96
100
106
108
102
95
89
77
76
77
81
86
87
86
84
81
82
96
100
98
96
96
95
95
95
93
95
93
93
95
96
91
82
74
68
62
58
59
58
56
60
68
76
81
89
93
98
96
98
100
102
96
96
98
98
98
100
98
102
96
95
95
93
93
95
100
106
108
102
95
87
79
77
81
86
86
87
84
84
81
79
96
98
96
95
95
95
96
96
95
96
96
93
95
95
89
81
72
66
62
59
60
56
56
63
68
76
81
89
93
95
95
96
100
98
96
100
102
100
102
98
98
100
102
100
95
87
87
95
100
104
104
100
95
87
81
79
84
84
86
86
87
84
79
79
96
95
93
95
96
98
96
95
93
95
96
98
95
95
87
76
69
63
59
58
58
58
62
63
68
76
81
87
95
95
95
95
96
98
98
100
100
102
102
102
100
104
102
100
98
91
87
95
98
102
100
100
95
86
82
81
81
82
86
89
91
82
77
77
93
91
93
93
96
98
96
93
95
95
98
96
93
91
84
72
65
59
56
56
58
60
63
65
68
76
81
86
95
93
93
93
93
95
98
100
98
100
100
104
102
102
104
100
98
95
93
98
102
102
102
98
93
86
81
76
79
82
84
86
87
82
79
77
93
91
91
93
93
93
96
95
95
96
98
95
91
87
77
66
58
58
58
56
56
58
60
65
69
77
82
82
91
93
91
95
95
95
98
98
98
102
102
104
100
104
108
106
102
98
96
102
106
106
104
98
91
84
81
77
79
84
82
82
81
77
74
72
93
93
93
93
91
95
95
95
95
96
96
93
91
82
72
60
54
55
56
59
58
59
59
63
72
79
79
82
87
91
91
91
95
96
96
100
102
102
102
102
102
106
108
106
102
102
100
100
104
108
106
100
93
87
84
84
82
84
82
79
74
71
69
69
95
93
93
93
91
91
91
93
93
91
95
91
86
77
66
59
55
55
55
59
56
58
60
65
72
77
79
81
86
91
91
91
93
96
100
102
104
102
102
104
104
104
106
108
106
104
104
102
104
104
102
100
96
91
87
82
82
81
81
77
69
69
66
65
95
91
93
96
95
95
96
93
89
89
91
87
81
72
65
59
56
55
56
59
59
58
62
66
71
76
77
77
82
86
86
91
95
98
102
102
100
100
102
104
104
104
106
108
106
102
102
100
100
104
102
100
95
95
91
84
79
76
77
76
72
69
65
63
93
91
87
93
96
93
96
93
87
87
89
86
77
71
65
59
56
56
58
60
60
59
62
66
72
77
81
81
81
82
84
87
91
95
100
100
100
100
106
104
102
104
106
106
108
106
104
96
96
100
100
98
96
95
91
86
84
77
76
76
72
71
69
69
91
91
89
91
95
95
95
93
89
89
87
81
74
71
63
59
56
58
59
59
58
60
65
69
76
81
82
86
82
79
79
82
87
91
96
100
102
102
104
100
100
102
104
104
108
106
104
96
96
98
98
96
95
95
93
87
86
82
79
74
72
72
74
72
