P2
# 288 of 608 Angiograms
64 64
255
95
95
96
95
96
98
98
98
98
100
102
102
106
108
108
108
108
110
108
110
110
108
106
108
104
96
93
86
79
72
69
66
66
68
69
74
76
76
76
77
81
86
93
98
102
102
102
102
102
102
102
100
102
106
106
106
104
102
100
100
100
100
98
100
91
89
89
89
95
98
98
100
102
104
102
106
108
106
106
108
112
108
106
108
104
106
108
108
100
93
89
82
77
72
69
68
66
65
66
69
74
76
76
82
86
91
96
98
100
100
102
102
104
104
102
102
104
106
106
106
104
100
104
104
102
100
98
100
87
87
87
89
95
96
100
100
98
104
106
108
108
106
108
110
113
110
108
110
108
108
106
102
96
93
86
79
74
71
69
68
68
68
69
72
72
74
77
87
91
98
102
102
100
102
104
104
102
102
102
104
104
108
108
112
108
102
104
104
102
100
96
98
89
93
93
93
95
95
100
96
98
102
106
110
110
110
110
110
112
112
110
108
106
106
100
96
95
87
82
77
74
72
69
65
66
69
69
69
72
76
82
89
98
102
102
102
100
100
102
102
100
100
102
106
104
106
108
110
106
106
104
100
100
98
98
100
93
93
89
91
93
95
98
98
100
102
102
108
108
110
108
108
106
110
106
102
98
95
93
89
84
81
77
76
72
72
69
66
63
66
69
69
71
79
87
93
100
100
102
104
100
100
102
102
102
104
104
104
102
108
106
104
106
106
100
98
98
98
102
102
95
93
89
87
93
98
98
102
102
100
104
108
108
110
108
108
106
104
98
95
91
87
84
81
74
71
71
72
71
72
72
71
68
68
68
66
72
84
91
96
98
98
102
100
98
100
104
104
102
102
102
104
106
110
106
104
102
102
98
96
98
102
102
102
96
96
95
91
95
98
96
100
100
104
104
106
106
108
106
106
102
95
86
81
79
77
74
71
66
69
71
72
72
72
74
74
74
72
71
72
81
87
91
93
96
100
102
102
100
100
100
102
102
98
100
102
106
108
104
102
100
102
100
96
98
98
98
98
100
98
98
96
96
96
96
98
98
104
104
102
104
108
106
102
93
84
74
69
66
65
65
63
63
66
66
69
66
71
72
74
76
76
77
82
84
89
91
91
95
100
100
102
100
102
100
100
102
98
100
104
104
106
104
104
104
104
102
96
96
96
98
98
104
98
96
98
96
96
102
102
100
98
100
104
104
104
100
93
82
71
65
62
56
55
56
58
59
60
62
66
66
69
74
74
76
79
86
89
91
93
93
95
96
100
100
100
98
100
100
98
100
100
98
98
104
106
108
106
104
102
100
102
98
98
98
96
104
100
98
98
96
100
98
100
100
102
102
106
102
100
95
86
74
63
58
54
51
49
50
52
56
56
59
62
65
68
74
77
79
86
89
91
91
93
95
96
96
100
100
100
98
96
93
95
100
100
98
96
100
106
106
104
102
104
100
100
98
98
96
95
104
102
102
98
96
98
96
98
98
100
100
104
102
96
93
82
71
59
52
47
45
46
44
46
51
54
55
58
65
65
69
76
82
87
89
91
93
95
96
95
96
96
98
100
98
96
95
96
96
100
100
98
96
100
102
102
102
100
102
100
100
96
95
93
106
102
102
100
96
96
95
93
93
96
100
102
100
93
89
81
71
59
52
46
45
43
41
43
47
50
54
58
62
63
68
74
86
89
89
93
93
93
95
93
96
98
100
104
100
98
96
96
98
96
98
96
98
98
100
100
102
102
102
100
98
96
93
89
102
104
106
104
100
93
93
93
93
96
96
95
95
93
89
82
74
63
56
50
45
45
44
45
47
47
51
55
60
65
69
76
84
87
87
91
91
91
93
95
98
100
100
100
102
98
96
98
96
95
95
96
96
98
100
100
102
102
100
98
96
96
91
86
104
104
104
104
100
93
91
89
89
91
93
96
96
95
91
87
82
71
62
56
50
49
49
46
47
47
50
55
60
66
71
77
79
82
84
86
84
84
89
96
98
98
98
100
104
100
96
96
95
93
93
96
96
98
100
98
98
102
98
98
96
93
86
82
106
106
108
102
98
91
87
87
89
91
91
96
93
95
95
93
91
81
71
63
56
52
51
50
47
50
52
55
62
68
72
74
76
77
76
79
81
82
86
93
96
96
96
98
100
96
95
93
95
95
95
95
96
96
98
96
100
102
98
100
96
93
86
84
108
106
106
100
93
87
87
89
91
93
96
98
95
93
96
98
95
91
84
72
62
56
56
52
51
52
55
58
65
68
72
71
76
77
76
76
81
82
82
87
93
93
93
98
100
96
95
93
95
96
96
95
96
98
96
98
98
98
96
96
96
93
87
87
104
100
100
95
87
87
91
95
95
95
96
100
98
100
100
102
98
95
91
81
69
59
55
54
54
56
58
60
66
71
76
74
77
81
77
77
81
82
84
86
87
87
87
91
95
95
96
95
93
95
93
95
96
96
98
98
98
98
96
96
95
93
86
89
104
102
96
89
86
87
93
96
96
95
96
96
98
98
98
102
98
96
96
87
74
63
56
59
59
59
60
65
68
74
77
77
79
82
82
79
81
82
82
81
82
81
81
87
91
96
96
100
96
96
95
93
95
96
102
102
100
98
102
98
95
91
91
95
102
102
95
87
87
89
93
100
100
96
98
98
96
100
98
100
100
96
96
91
77
66
60
62
60
60
63
68
71
79
82
82
84
87
86
86
82
82
79
79
79
79
81
84
89
93
96
98
98
96
96
95
93
98
100
98
100
100
102
100
95
91
95
98
102
100
93
87
89
93
96
102
100
96
100
102
98
98
100
98
98
96
95
91
79
69
65
65
63
63
66
71
74
82
84
87
91
93
93
91
87
86
82
82
81
76
77
82
84
89
91
96
96
96
98
95
95
96
96
96
100
102
102
100
95
91
95
98
102
100
95
87
93
98
96
100
102
98
100
100
98
100
98
98
98
96
96
95
84
72
66
63
63
65
68
69
77
86
89
89
93
95
96
98
95
93
89
86
82
76
76
81
81
82
86
91
93
96
96
95
95
93
95
93
96
100
100
96
93
91
95
96
102
98
93
89
95
96
96
102
104
100
100
100
98
100
98
98
98
96
96
96
86
72
66
65
63
69
71
76
84
91
95
91
95
96
102
104
104
98
98
93
86
82
82
81
81
79
81
87
93
95
95
95
95
95
95
93
96
98
96
95
91
93
98
98
102
98
93
91
96
98
98
104
104
102
102
102
100
98
96
96
98
98
98
95
86
74
68
68
66
71
76
82
91
93
93
95
96
98
106
106
106
102
102
98
91
86
84
79
77
76
79
84
89
95
98
100
100
98
96
96
95
91
93
95
93
91
96
98
102
96
95
93
96
98
100
104
102
102
100
98
98
96
96
98
100
100
102
96
86
72
65
65
68
72
81
91
98
100
98
96
98
100
106
108
106
106
106
102
96
89
86
81
77
76
79
82
87
93
96
100
102
100
98
98
95
95
93
91
93
96
98
102
100
96
93
95
95
96
95
95
96
96
96
95
93
91
93
96
100
104
104
95
84
72
66
65
68
74
87
96
102
102
98
93
95
100
104
108
106
108
108
104
100
95
87
82
79
76
77
77
82
91
95
98
100
98
100
100
95
95
93
93
96
98
95
96
98
95
89
91
93
91
91
91
93
93
91
91
89
91
91
93
98
102
104
93
82
71
65
65
69
76
89
98
102
100
96
89
91
98
104
106
104
102
104
102
102
98
95
87
81
77
76
77
81
87
93
96
98
96
102
102
98
93
91
96
96
96
95
96
95
93
91
89
89
87
87
89
89
89
89
89
93
95
95
95
95
102
104
91
82
68
63
66
69
77
91
98
100
96
93
89
89
98
102
104
102
98
102
104
104
102
96
91
84
81
79
79
81
87
91
96
98
96
100
100
98
95
91
93
93
96
100
98
95
95
89
86
86
89
89
89
89
89
89
91
96
100
98
95
95
100
98
91
79
66
63
66
69
81
93
100
96
95
91
89
89
98
104
104
104
98
100
102
102
100
96
95
87
81
77
74
77
84
89
96
100
98
100
95
93
93
89
91
93
95
100
98
96
96
91
91
91
89
91
93
95
96
95
93
95
98
98
96
95
96
98
89
77
66
63
65
72
84
93
96
96
93
91
87
89
96
102
104
104
104
102
102
100
98
98
98
91
82
76
76
77
81
89
98
98
96
96
93
93
91
89
93
95
95
98
98
98
100
95
96
96
98
98
98
98
98
93
91
91
96
96
96
98
98
96
87
74
65
63
69
77
86
91
96
96
93
89
86
89
93
100
102
108
106
104
100
96
100
100
102
93
84
79
76
76
77
89
98
100
96
95
91
91
93
96
100
98
95
98
98
100
100
96
98
96
98
102
102
102
98
91
91
91
95
100
98
96
96
93
86
72
62
63
72
79
86
91
95
95
91
89
87
91
93
98
100
102
104
104
100
96
98
102
102
95
86
81
76
72
76
87
98
100
95
93
93
95
96
102
104
100
95
98
100
102
104
100
100
100
102
104
100
100
98
96
98
96
96
95
96
95
95
91
84
69
63
65
74
81
86
93
96
95
93
89
86
93
95
96
98
98
102
100
98
100
102
102
98
96
87
76
72
74
76
82
93
96
93
93
93
96
96
102
106
102
96
95
95
102
102
104
102
102
102
100
98
98
95
98
98
100
100
100
98
96
96
89
82
71
65
68
76
82
87
95
96
93
93
93
89
89
93
96
96
98
98
98
100
102
98
98
98
96
89
76
74
74
72
79
89
95
91
93
95
98
98
98
102
102
96
95
96
102
104
100
98
100
100
96
96
98
98
100
98
100
100
96
96
98
95
89
82
71
68
72
77
84
87
95
95
93
91
91
87
89
91
95
98
98
96
100
100
102
100
98
98
96
89
77
74
71
72
79
87
91
91
91
93
100
98
95
98
100
95
96
98
104
102
100
98
96
96
96
96
100
100
98
98
96
98
96
95
96
93
87
79
69
69
74
79
86
89
95
96
96
91
89
87
89
91
95
96
100
100
102
102
100
102
102
102
95
89
76
72
71
72
79
86
91
91
89
91
96
96
96
96
96
96
96
95
102
98
96
95
98
96
98
102
100
100
100
100
100
95
98
100
96
89
84
77
68
68
74
81
86
89
96
96
95
93
91
95
91
91
93
95
100
100
100
98
98
102
100
98
91
87
77
76
76
77
81
86
89
89
86
93
96
95
96
95
93
91
95
93
100
98
98
98
96
96
100
102
102
100
102
102
100
100
98
102
96
86
81
76
72
71
74
81
87
93
98
96
95
89
91
89
89
93
95
95
95
96
98
98
96
100
100
95
89
84
79
79
76
79
82
91
91
89
87
93
96
96
98
96
91
91
95
91
98
96
98
98
96
98
102
106
104
102
102
100
98
96
98
100
95
86
79
74
76
76
79
84
89
93
96
95
95
91
89
91
91
93
95
93
95
96
95
98
100
100
100
95
87
84
81
77
77
81
87
91
91
91
91
96
100
98
98
96
95
95
98
93
96
96
96
100
100
98
100
104
100
100
100
100
96
96
100
98
91
82
76
72
72
74
79
86
93
95
96
95
91
91
87
93
95
96
96
95
93
95
95
95
98
100
100
95
89
82
77
74
77
82
87
93
93
93
98
102
104
102
102
100
98
98
98
95
95
95
95
96
96
98
100
102
100
100
104
100
98
98
100
95
86
77
72
74
74
74
81
87
93
98
100
96
93
93
89
91
96
100
100
96
95
96
96
96
96
96
96
93
87
77
74
74
77
82
87
93
93
96
98
104
102
104
104
100
102
102
98
95
91
93
95
95
96
98
96
100
102
104
102
100
100
96
96
89
82
72
72
74
72
74
79
86
93
96
98
95
93
96
93
95
95
98
98
98
96
95
96
96
96
95
93
89
84
76
71
74
79
81
86
89
89
96
98
102
102
102
102
102
102
102
104
96
91
93
98
98
98
102
100
100
98
102
108
102
96
96
95
87
77
71
71
71
71
74
81
89
95
96
93
95
95
95
91
93
93
98
98
96
95
96
96
96
95
93
95
89
82
76
72
71
74
77
84
86
91
95
100
100
98
100
102
102
102
98
102
96
93
96
100
100
100
102
98
100
104
104
102
100
96
95
93
86
76
71
68
65
66
72
81
89
95
98
95
93
93
91
93
91
93
98
96
96
98
98
96
96
96
95
95
89
82
76
71
72
74
79
84
87
91
95
98
96
98
98
100
100
100
100
98
96
95
98
102
102
100
102
98
98
100
100
96
95
96
93
89
82
77
71
69
63
66
72
81
89
95
96
93
93
93
93
93
91
91
96
93
96
96
95
95
96
96
96
93
89
84
77
72
72
74
77
84
89
91
93
95
96
98
98
100
98
98
100
100
95
96
98
104
104
102
104
100
102
100
98
98
96
96
93
87
81
76
69
68
65
69
74
82
91
93
93
91
93
95
95
95
91
89
95
95
91
95
93
95
93
93
96
93
91
87
77
74
71
71
74
82
86
93
98
98
96
98
100
100
98
96
100
100
95
98
102
104
100
100
98
102
104
100
96
96
100
100
95
89
79
71
68
65
63
71
76
84
93
95
93
91
93
95
95
96
91
91
91
95
93
93
93
96
95
93
91
91
91
89
79
72
69
69
72
82
86
95
96
96
95
96
98
98
98
96
96
96
93
100
104
102
102
100
100
100
100
100
100
100
100
96
95
89
76
68
66
66
66
71
76
86
93
95
95
93
96
96
98
95
93
91
91
95
95
91
95
95
93
91
95
93
91
89
81
77
72
69
76
82
89
95
98
96
95
95
95
96
96
96
96
96
91
102
106
106
104
102
104
104
102
98
100
98
100
95
91
82
72
68
68
68
68
71
77
86
93
95
95
95
95
95
95
95
91
91
93
93
96
95
93
91
91
93
91
87
89
87
81
74
69
68
72
81
91
93
95
95
93
98
98
98
98
98
100
96
93
100
100
106
106
104
102
100
100
100
104
102
100
95
86
77
71
65
63
66
69
72
79
86
91
93
95
96
95
93
95
93
89
93
91
93
96
95
93
91
91
89
91
89
87
86
82
74
69
66
69
79
89
91
95
98
98
98
98
98
96
100
100
93
93
98
100
104
104
104
102
100
100
100
102
104
96
89
81
76
71
66
65
66
69
74
81
86
89
91
93
95
95
95
95
91
89
91
93
93
95
95
93
91
93
89
91
89
89
87
84
76
69
66
71
76
86
91
96
96
95
95
98
96
96
98
96
95
91
100
100
100
104
104
104
102
102
96
100
100
91
84
76
69
68
63
63
65
69
74
81
86
89
91
91
95
93
91
93
93
93
89
89
91
95
95
93
93
93
91
93
87
89
87
86
77
71
69
72
76
81
87
93
95
96
96
96
98
96
93
91
91
89
100
98
102
102
102
102
100
104
102
98
95
87
79
72
66
63
60
62
62
69
76
82
87
89
93
91
93
91
93
93
95
93
91
89
89
93
91
89
91
89
91
91
89
89
87
84
77
72
69
74
77
79
82
86
91
95
96
93
91
89
87
86
87
84
102
100
104
104
102
98
98
100
102
98
93
82
76
69
63
59
62
63
66
74
79
82
91
91
95
95
93
93
93
95
93
89
87
87
87
89
87
87
93
91
93
89
91
89
89
84
79
77
77
77
79
81
82
86
87
89
89
89
87
86
86
84
84
81
100
102
102
102
102
100
98
98
100
95
84
76
71
68
63
62
65
66
72
77
81
86
93
93
93
93
91
95
95
96
93
89
93
93
89
89
89
89
91
91
95
91
95
93
89
84
84
82
82
81
79
77
79
81
84
84
84
84
84
81
81
82
82
82
104
102
102
102
102
102
98
98
96
89
79
69
69
66
66
65
65
68
74
79
84
91
93
91
93
93
93
95
95
95
91
93
91
91
93
89
87
93
93
93
93
91
93
93
87
86
84
84
86
84
81
77
79
79
77
81
79
81
77
81
82
86
87
89
102
102
104
104
102
106
102
98
95
84
72
66
66
66
66
63
65
71
74
81
87
93
93
93
95
93
91
93
93
91
91
91
91
91
93
89
87
91
93
93
91
91
93
91
87
86
84
86
87
87
84
84
84
81
76
77
82
84
81
82
86
93
95
95
100
98
100
102
102
102
100
96
91
79
69
65
65
65
65
65
68
74
79
84
89
93
91
93
95
96
91
93
93
89
87
89
87
91
93
91
89
91
95
93
89
91
91
91
87
87
87
87
87
89
89
89
89
86
82
82
86
89
89
89
95
100
100
98
98
102
104
102
100
100
100
98
89
76
68
65
63
65
66
63
69
76
81
87
95
98
96
93
95
96
93
91
95
91
91
91
89
91
95
95
95
93
91
93
95
91
93
91
89
87
87
86
86
89
93
93
93
91
87
87
91
91
93
95
98
98
98
95
100
104
104
102
98
98
100
98
86
76
66
65
62
62
66
68
69
74
82
91
96
96
96
96
96
98
96
95
95
91
93
91
91
91
91
95
96
95
96
91
91
89
89
89
87
86
86
86
84
91
93
95
93
93
93
91
95
93
95
95
96
95
96
93
102
102
104
104
100
100
102
96
84
74
65
66
63
63
65
69
69
74
84
95
96
96
96
100
98
96
96
96
95
95
93
95
95
91
95
95
89
91
95
93
91
91
89
89
87
82
84
86
89
91
93
93
95
95
95
93
95
96
98
95
93
96
96
95
104
106
104
104
102
100
100
93
82
74
66
63
62
63
65
66
69
76
86
95
98
100
100
102
100
98
95
95
95
95
95
98
95
93
95
91
89
91
93
95
93
91
91
91
87
82
86
89
91
93
93
93
95
96
96
95
96
100
102
100
98
100
96
91
104
110
108
106
106
102
98
91
79
72
66
63
62
59
62
66
71
77
86
96
102
98
96
100
100
95
95
93
95
98
95
96
95
95
91
91
86
89
89
91
93
89
91
91
87
82
86
91
93
89
89
93
96
96
96
96
93
100
102
98
100
102
96
91
102
106
106
106
108
102
98
87
76
69
66
62
60
60
60
66
72
77
86
96
102
98
96
98
98
98
96
96
96
102
98
95
93
91
93
91
89
87
89
93
91
93
89
91
87
86
86
89
91
87
87
95
96
95
95
93
95
98
98
96
96
100
98
89
104
102
106
106
106
102
96
86
72
68
65
62
60
60
62
65
72
77
87
95
98
100
98
100
102
100
98
100
96
98
96
95
91
91
89
91
87
89
91
91
93
93
89
87
87
82
86
87
86
87
91
93
93
91
95
93
95
96
98
98
96
98
96
91
