P2
# 289 of 608 Angiograms
64 64
255
113
121
123
119
108
91
77
69
63
62
60
58
56
56
59
55
56
58
58
56
54
52
56
56
60
71
82
93
102
106
106
96
84
74
68
65
63
60
65
68
69
69
68
68
66
66
62
63
60
59
59
60
63
68
81
95
106
104
96
91
86
82
79
72
113
119
123
115
98
84
72
66
59
60
59
58
56
56
59
58
60
59
58
56
52
52
56
60
68
81
91
104
115
119
119
112
104
91
79
69
62
62
62
66
69
72
71
71
68
65
62
62
59
56
56
59
60
60
66
74
84
87
84
81
77
74
71
68
113
115
117
106
89
77
69
63
62
62
59
58
58
59
58
58
58
62
58
55
54
52
58
65
76
87
100
113
123
129
125
119
110
106
96
79
69
65
63
66
69
69
69
72
72
66
66
63
59
58
55
55
54
50
51
60
69
74
74
72
72
71
68
65
112
113
110
96
81
72
66
62
60
60
55
58
56
59
58
56
56
58
56
56
55
55
62
72
87
98
108
119
127
131
129
123
115
112
108
95
81
71
68
69
72
74
72
76
74
69
65
62
59
58
55
54
49
45
46
51
60
66
68
69
66
69
68
68
110
108
100
86
74
66
60
56
58
56
54
52
56
58
55
55
55
55
59
58
58
60
71
84
96
110
117
123
127
129
129
123
119
115
112
106
93
79
72
71
76
76
72
76
76
71
65
62
58
55
54
50
45
42
42
46
54
62
68
68
66
68
69
68
106
100
86
72
66
63
58
55
54
54
54
54
54
54
55
56
55
55
58
60
62
68
82
95
106
113
125
127
127
125
123
123
121
119
119
113
102
89
77
72
74
77
76
77
77
76
68
62
59
54
51
47
43
43
39
42
49
56
63
66
68
68
68
66
93
82
71
62
60
56
54
52
54
52
55
55
54
55
56
55
56
56
60
62
66
77
91
104
110
121
127
127
127
125
123
123
119
121
119
117
108
95
86
79
76
79
79
77
77
74
71
63
59
55
50
47
43
42
40
40
47
54
62
65
66
68
66
68
77
68
60
58
55
54
51
51
56
54
54
54
55
56
56
56
56
59
62
63
71
82
98
108
115
125
129
129
125
125
121
121
121
121
119
119
113
100
91
84
77
79
79
76
74
71
69
63
58
55
49
49
46
43
39
40
45
52
59
63
66
69
71
74
66
59
58
56
54
52
52
52
55
54
52
52
54
56
58
59
62
62
63
66
76
86
100
108
119
125
129
127
125
123
121
119
123
121
119
121
117
106
95
87
79
81
79
72
71
69
68
62
56
54
49
46
46
45
42
43
45
50
58
60
68
72
77
82
60
58
56
56
56
55
55
56
59
55
55
55
58
56
56
60
60
60
65
71
79
89
100
110
117
123
125
123
125
127
125
121
123
121
121
121
119
112
98
89
86
84
79
72
69
68
65
62
58
52
50
47
46
46
45
43
46
51
58
65
74
79
87
95
59
58
56
56
58
58
59
58
56
58
58
58
58
60
59
60
62
65
72
79
86
93
102
108
113
121
121
123
127
127
127
121
125
125
123
123
123
115
104
93
86
82
77
74
69
66
66
65
60
58
52
50
47
47
46
46
50
54
62
74
82
89
98
106
58
59
58
58
59
59
62
58
56
56
58
58
59
62
62
63
66
71
79
86
93
98
102
102
106
113
117
119
123
123
125
125
125
125
127
125
125
117
106
96
87
81
77
72
68
65
65
65
59
58
55
54
52
51
49
51
54
63
76
86
96
102
112
117
59
60
63
59
58
59
59
59
59
60
62
59
59
63
65
65
69
79
86
95
102
104
102
100
102
104
110
115
121
123
123
125
131
127
125
123
125
119
108
98
91
84
77
69
68
66
65
60
59
60
60
59
59
56
55
58
63
77
91
102
112
119
127
135
62
63
63
60
59
60
59
63
62
62
62
59
60
65
66
69
77
84
95
104
108
106
106
102
100
100
104
108
119
125
125
125
129
125
121
123
127
121
110
102
95
84
76
69
66
68
65
60
60
62
65
65
66
66
66
72
84
98
110
123
131
137
142
142
59
59
60
60
60
60
62
63
62
62
60
60
60
65
68
76
82
93
102
112
117
113
112
106
104
106
106
108
113
121
125
129
129
127
127
125
127
121
112
104
96
86
76
69
66
65
63
60
62
65
68
69
72
77
86
95
108
123
131
137
144
146
146
148
59
59
60
59
62
65
66
65
62
62
62
63
62
66
74
81
89
102
112
117
117
115
113
108
110
110
108
110
112
115
121
127
129
127
127
125
123
121
115
106
98
86
76
69
65
63
65
63
63
66
69
72
79
89
96
108
123
137
144
148
150
150
148
148
60
60
62
60
60
63
63
62
63
60
60
65
68
72
79
89
100
112
115
121
119
117
113
110
110
112
112
110
110
112
119
121
125
125
125
127
125
123
119
110
98
84
76
69
63
62
63
63
63
68
69
74
82
95
104
117
135
146
150
152
154
152
150
148
59
59
60
60
59
60
62
60
62
62
62
69
74
79
91
102
113
119
121
123
123
117
112
110
112
115
117
113
112
110
113
121
121
123
119
123
127
127
123
113
96
82
76
69
65
63
62
63
65
68
71
74
84
96
108
123
142
152
154
154
154
156
152
148
56
56
59
56
58
59
62
62
60
63
68
74
81
89
106
117
119
121
121
121
119
112
110
112
115
121
121
117
113
108
110
115
119
121
117
121
127
127
127
113
95
81
74
69
66
65
66
66
65
69
72
72
84
98
112
129
146
154
154
154
156
152
150
148
55
56
58
55
56
60
63
65
65
68
74
81
91
106
119
123
123
123
123
119
113
110
112
113
119
123
123
121
115
106
102
110
117
121
119
123
125
129
131
112
91
79
74
72
71
69
68
68
69
72
72
74
82
93
108
131
146
154
154
154
154
152
150
146
55
59
58
58
60
62
63
63
68
74
79
91
108
119
127
127
121
121
119
115
110
106
108
115
123
127
123
123
115
102
95
104
115
121
121
127
129
131
129
112
93
82
76
74
69
71
71
68
71
74
76
77
84
93
110
131
148
154
154
156
154
154
148
144
56
59
59
59
59
63
63
68
76
82
93
108
121
127
127
125
123
119
115
115
113
112
113
121
131
131
125
121
113
102
98
108
117
125
129
133
137
137
129
108
91
84
79
77
72
69
71
69
71
79
81
81
87
96
110
131
148
150
154
156
152
150
146
141
58
58
60
60
62
65
69
76
86
96
112
123
125
125
127
127
125
119
117
113
112
113
117
125
133
131
127
123
113
108
110
117
125
129
131
135
141
139
127
106
89
82
77
77
76
72
72
71
71
79
81
82
93
100
112
135
148
150
148
150
148
144
137
129
58
58
60
63
68
69
76
86
98
112
123
127
129
131
127
125
125
119
115
112
113
117
117
125
129
131
127
119
113
112
117
125
129
131
135
139
141
139
123
106
89
82
81
79
77
76
74
72
76
79
81
86
96
104
113
133
144
146
142
139
133
127
117
110
58
60
63
68
71
76
86
98
113
123
129
129
129
131
127
125
123
119
115
113
112
112
119
125
127
129
123
117
113
113
119
125
133
137
137
141
142
137
121
106
87
82
79
79
79
81
79
77
79
82
82
86
96
106
117
129
135
135
129
121
113
106
100
96
62
63
68
71
76
84
96
110
119
127
131
131
131
131
131
127
123
117
115
112
110
113
119
123
125
127
121
115
113
112
121
129
137
137
139
144
144
133
115
100
87
82
81
81
79
79
81
79
82
82
84
86
95
106
115
123
125
121
113
108
102
98
95
91
60
65
69
76
82
89
100
112
121
127
129
127
127
129
129
127
121
119
113
110
108
113
121
125
125
123
119
115
108
108
119
129
137
137
141
144
141
129
110
96
86
84
86
82
79
77
76
81
84
81
84
86
89
100
110
113
113
110
106
104
102
98
93
87
60
63
69
77
82
87
96
106
115
119
121
123
121
121
119
117
115
113
112
108
106
112
117
123
121
117
113
110
104
106
117
127
133
137
137
137
133
123
104
95
87
89
87
84
81
77
74
76
79
77
76
81
86
93
100
104
104
102
102
102
96
95
95
91
63
66
74
77
79
82
87
93
98
102
104
108
110
110
108
106
106
106
104
102
102
104
110
113
112
112
113
110
106
108
117
125
127
131
131
129
127
113
102
93
89
86
82
79
74
71
71
69
69
69
71
74
82
93
96
100
98
100
102
98
95
93
95
95
68
71
76
77
76
77
82
84
86
87
87
89
91
93
89
91
89
89
89
91
93
95
98
102
108
112
113
112
110
112
119
121
121
121
123
121
115
108
96
87
84
81
77
72
69
68
65
63
62
65
65
71
81
91
95
98
98
100
104
100
98
96
96
100
69
72
71
72
72
72
76
77
77
77
77
79
79
77
76
76
76
76
74
72
77
79
84
89
96
102
106
108
110
112
119
117
115
115
115
115
108
98
87
81
76
74
69
66
63
62
60
58
59
62
63
69
81
95
96
96
98
100
106
106
106
104
106
110
69
71
68
68
69
69
71
72
72
71
71
74
74
69
68
66
65
63
65
65
68
69
71
76
81
89
95
98
104
110
117
121
119
113
110
108
100
87
77
71
68
66
65
62
60
58
58
56
56
60
65
71
84
95
98
100
104
108
112
115
115
115
117
121
72
69
66
68
66
66
66
68
68
71
69
66
66
68
66
63
60
60
62
63
65
65
68
71
74
79
84
87
93
102
108
112
112
110
104
98
87
79
69
63
63
62
59
56
58
58
58
56
55
58
63
71
86
96
104
110
113
117
125
131
131
133
131
131
71
71
66
65
66
65
63
66
65
68
65
63
62
63
63
60
56
58
60
62
62
65
66
68
71
74
77
79
82
89
98
100
100
98
96
89
82
72
66
62
60
60
59
56
58
58
56
55
54
55
60
72
87
102
112
119
125
133
141
144
144
144
142
137
68
69
66
63
65
66
66
68
63
65
65
63
65
63
63
63
59
59
58
60
63
66
66
66
66
71
76
76
74
79
87
93
93
89
89
86
77
71
65
60
60
62
59
58
56
55
52
50
51
52
58
68
86
104
117
129
137
142
144
148
148
148
146
142
66
65
66
63
63
63
65
65
66
65
66
65
66
63
62
63
59
59
60
62
65
65
62
65
66
71
72
71
71
74
79
86
86
86
87
84
77
69
65
62
62
60
58
58
55
54
49
49
50
49
54
63
81
96
112
127
135
139
144
146
148
148
148
144
65
65
66
63
63
65
63
65
65
66
66
65
65
62
60
60
58
59
60
63
66
65
60
62
68
72
72
74
71
72
77
79
82
82
82
81
77
71
66
63
63
62
60
60
56
54
51
51
50
49
55
59
69
81
95
106
117
125
133
135
139
141
142
142
66
65
65
63
63
68
68
65
65
66
68
66
66
66
65
63
62
62
63
66
66
66
65
66
69
72
77
77
76
72
74
77
79
81
81
81
77
71
68
63
66
69
66
62
59
55
54
52
52
52
56
56
59
65
72
82
93
98
108
112
117
123
129
133
68
66
65
62
65
69
69
69
69
68
69
72
69
69
69
68
65
65
66
66
69
68
68
71
72
74
79
77
74
74
74
74
76
77
77
81
79
72
66
65
69
76
74
69
63
59
56
55
51
52
52
54
56
58
60
66
74
79
84
87
95
102
112
119
69
68
66
66
66
69
69
74
74
72
76
77
74
74
76
71
69
69
69
68
69
71
71
69
76
76
76
76
74
74
74
74
76
79
82
86
86
76
71
69
74
79
79
77
69
62
58
54
51
52
51
51
55
55
55
58
65
69
76
77
81
84
93
102
72
69
69
69
69
69
72
76
77
77
79
77
77
77
79
79
76
74
76
76
74
74
74
74
77
79
79
77
76
77
79
81
81
84
87
93
89
79
72
74
77
81
82
81
74
66
60
55
52
54
55
56
55
52
54
55
60
63
68
69
71
74
79
86
77
74
74
77
77
77
77
79
79
82
82
84
86
84
84
84
84
82
84
86
86
86
84
84
84
84
84
84
84
84
86
87
87
89
93
96
89
81
76
77
81
84
84
84
81
71
65
58
55
56
58
56
56
54
55
55
59
60
62
63
63
63
69
76
84
82
84
86
86
86
86
87
87
87
89
93
95
98
98
98
95
95
95
96
96
93
93
93
93
91
91
91
89
87
89
91
93
95
96
96
87
79
76
77
79
84
91
89
86
77
69
62
58
60
58
59
59
58
58
58
59
60
58
60
60
60
62
68
91
93
96
96
96
96
96
96
98
100
102
104
108
112
110
106
104
102
102
104
104
100
100
100
98
98
98
98
96
93
93
95
96
96
98
96
86
81
79
82
84
89
93
96
93
86
76
69
65
63
63
63
60
60
60
62
60
60
62
65
62
59
60
63
96
100
102
106
104
102
102
106
108
110
113
113
113
113
113
112
110
110
110
110
110
108
106
106
102
102
104
108
104
100
98
100
102
104
100
96
86
79
81
86
87
91
95
93
95
93
84
77
76
74
72
72
69
65
65
66
65
66
66
66
66
65
63
66
100
100
102
106
106
104
108
112
112
110
115
115
115
117
117
113
112
112
110
113
115
112
108
108
104
106
104
104
104
104
102
98
102
106
98
95
86
82
82
87
89
91
93
93
95
96
93
89
84
82
81
79
76
72
72
69
69
69
71
69
71
71
71
74
98
100
104
104
106
108
112
113
113
112
113
115
115
115
115
112
112
108
106
112
113
113
112
112
108
110
108
110
110
108
106
100
104
104
98
93
86
82
84
86
86
87
91
91
91
93
96
96
95
91
87
84
81
79
79
76
72
74
74
74
74
74
72
76
100
104
106
104
106
108
110
113
113
113
112
115
115
113
115
112
108
104
106
112
113
115
115
113
110
112
112
112
113
110
104
100
102
102
96
87
82
84
82
86
86
86
89
89
89
91
96
98
100
100
96
93
91
91
87
84
79
79
81
81
79
74
76
76
102
110
110
108
110
108
108
112
117
113
112
113
115
113
112
110
108
104
110
113
117
117
113
112
112
110
113
113
115
110
102
102
100
98
91
84
82
81
84
84
82
84
87
86
86
87
95
102
106
108
104
98
96
93
89
91
87
86
84
86
81
77
77
77
106
108
108
112
110
104
106
110
115
115
110
110
115
112
112
112
108
110
112
113
117
117
117
113
112
113
119
119
117
110
100
100
100
93
84
81
77
76
81
79
84
86
86
84
86
86
93
102
112
115
110
102
96
91
89
91
89
89
89
86
86
84
82
81
106
108
110
113
110
106
108
110
112
112
112
112
113
113
113
112
110
112
115
115
117
117
117
112
110
113
119
123
115
106
98
98
95
86
77
76
77
77
79
81
84
87
86
87
87
89
93
102
113
113
112
102
96
91
91
95
95
95
93
93
91
89
87
87
104
106
110
112
112
106
106
108
112
108
108
110
113
115
112
110
110
112
113
119
117
117
117
112
112
113
115
121
112
104
102
100
91
81
72
72
76
79
76
77
82
86
87
86
87
91
95
106
115
117
112
102
96
95
91
91
93
96
95
95
96
96
93
89
104
104
106
110
108
106
106
106
106
108
110
112
113
112
112
110
108
110
112
117
115
115
113
113
113
106
110
113
110
108
104
100
89
77
71
71
76
76
76
77
82
86
84
84
87
93
100
112
119
119
113
106
98
96
91
91
93
95
95
96
98
98
100
96
102
102
106
112
108
104
104
106
106
106
108
110
108
108
112
110
106
108
112
117
117
112
110
110
110
102
104
110
112
110
106
95
86
77
71
69
74
76
79
81
82
84
84
86
87
95
104
115
121
121
117
110
102
96
93
91
91
91
95
96
96
100
104
102
100
100
104
110
106
104
104
108
106
104
102
104
104
108
110
110
108
108
113
115
115
115
112
108
104
102
100
106
108
106
98
87
81
76
71
72
74
76
81
82
82
84
87
87
87
95
108
119
125
123
119
112
104
96
91
91
93
91
93
95
93
98
104
104
100
100
102
106
108
104
108
108
104
102
102
106
104
106
108
106
106
108
113
117
117
115
113
110
106
102
98
102
102
98
89
81
77
72
71
74
74
77
81
82
84
86
89
89
89
100
113
123
127
127
121
113
104
98
89
89
93
91
91
91
91
95
100
102
98
98
102
104
108
108
108
108
106
100
100
106
104
106
108
104
106
112
115
119
121
117
112
106
104
100
100
98
95
87
81
77
74
71
69
68
74
81
82
81
84
87
91
91
95
104
115
125
125
127
121
115
108
100
93
91
93
91
89
91
93
95
98
102
96
96
98
102
102
104
106
104
102
98
98
100
102
104
106
104
106
110
113
113
115
112
108
104
102
100
96
93
87
81
76
74
74
71
69
69
74
82
82
81
84
89
93
95
100
110
123
129
129
127
123
119
112
104
98
93
95
95
91
95
95
93
96
100
91
95
96
95
96
98
98
96
96
95
95
95
95
100
102
100
100
104
108
106
106
106
102
98
95
91
87
82
76
71
71
72
76
72
69
69
72
81
84
81
86
91
96
100
106
113
127
131
129
127
123
119
115
108
100
96
98
98
93
93
93
93
96
102
86
89
93
91
87
87
87
87
87
89
89
89
91
91
91
91
91
95
100
102
100
98
98
93
87
82
77
72
66
63
65
69
72
72
72
71
72
81
84
84
89
93
98
102
110
121
129
133
127
123
125
121
119
113
106
102
98
96
95
96
95
96
100
102
82
86
86
84
81
81
82
84
82
84
86
86
86
86
86
84
87
91
96
96
100
98
95
89
82
76
68
65
60
59
60
65
68
71
74
76
76
81
82
84
89
93
98
104
115
123
129
129
125
123
125
121
117
115
110
106
102
100
100
100
96
98
102
104
89
86
84
84
86
82
84
84
84
89
89
89
87
87
81
82
86
91
96
95
100
100
96
89
79
69
63
60
59
59
59
60
66
69
72
72
76
77
81
84
89
93
98
110
119
121
123
123
123
121
119
117
115
112
112
110
108
108
104
102
96
100
106
106
93
89
87
86
86
87
87
89
89
91
91
91
89
91
86
86
87
93
98
98
100
102
96
87
77
69
63
59
56
56
55
59
63
66
69
69
72
77
81
84
89
93
102
113
119
119
119
121
121
117
115
113
112
110
110
112
113
112
110
104
98
100
104
106
95
91
89
87
89
91
91
95
96
95
95
96
96
93
89
89
91
96
102
102
100
98
89
82
76
71
65
59
56
55
52
56
62
66
69
68
71
77
82
87
89
96
106
113
119
119
119
119
117
115
112
112
110
104
110
113
115
113
112
104
100
102
104
110
