P2
# 291 of 608 Angiograms
64 64
255
112
113
115
115
117
115
112
108
98
81
68
60
55
54
52
50
47
49
50
47
50
55
54
54
60
68
74
81
82
81
81
87
100
112
112
110
102
91
84
77
76
71
69
69
66
65
60
60
63
62
62
62
62
55
49
45
42
38
39
41
45
55
62
65
110
113
112
110
110
110
106
100
84
69
59
55
55
52
51
54
50
51
52
52
52
58
58
58
63
74
79
82
82
82
91
106
123
131
133
129
123
117
112
104
95
81
76
72
69
66
63
60
63
60
60
59
60
54
47
42
39
37
38
38
41
47
58
65
104
108
108
106
104
102
96
87
71
60
56
55
56
56
55
55
55
54
55
56
56
59
62
63
69
77
79
81
84
89
110
127
137
142
142
137
133
133
131
127
117
102
84
76
72
68
65
62
60
59
60
60
59
52
47
42
37
37
36
38
38
45
55
65
102
106
106
104
98
96
89
77
65
58
55
55
55
58
59
58
58
56
55
55
58
62
65
69
76
79
82
84
89
104
127
142
146
148
146
141
139
139
139
137
133
119
98
81
74
69
66
63
62
62
62
59
55
51
47
43
37
37
39
39
39
44
54
65
106
108
106
102
96
93
82
69
62
59
59
55
58
60
59
59
59
58
55
58
62
68
72
76
81
81
84
89
98
123
146
152
152
152
146
144
142
142
144
142
141
131
110
87
76
71
69
69
66
63
60
56
54
49
46
44
40
38
38
40
40
45
52
65
110
112
108
102
96
89
77
66
63
60
59
58
58
60
58
59
59
58
60
62
66
72
76
79
81
82
87
95
112
139
156
158
150
146
146
148
144
142
142
142
142
137
117
93
79
72
71
69
66
65
58
56
55
51
46
45
42
40
39
40
41
45
54
65
119
119
112
102
95
84
76
68
65
62
59
60
60
58
58
58
60
62
62
65
71
76
77
81
82
86
91
104
125
148
158
156
148
142
141
141
141
141
142
144
146
141
121
95
77
71
72
69
68
65
60
58
56
56
52
49
46
43
41
42
42
46
56
69
125
119
110
98
89
81
72
66
65
60
59
63
63
63
62
62
62
59
63
69
76
79
77
79
81
86
95
113
139
152
158
156
152
144
142
137
135
142
144
146
146
141
125
98
79
72
71
68
66
63
58
55
56
58
55
54
51
49
49
47
47
52
65
86
117
112
100
89
84
76
69
63
65
60
58
62
63
63
62
60
60
63
68
72
77
77
76
76
79
89
108
131
146
152
156
156
152
146
141
133
135
142
144
146
148
144
131
108
86
77
74
69
66
59
56
55
55
54
55
56
56
54
54
55
56
66
86
115
104
96
87
82
79
72
68
65
63
63
62
62
62
62
60
59
60
66
71
72
74
77
76
77
84
102
123
144
150
152
154
154
154
146
137
131
135
142
146
148
148
144
135
117
93
82
79
71
65
58
55
55
52
51
54
56
59
59
60
63
69
89
117
142
89
82
79
76
71
68
63
65
63
63
63
62
60
58
60
60
62
69
77
77
77
74
74
86
98
121
141
148
150
150
152
150
154
144
135
135
137
141
146
144
144
139
135
125
104
87
81
71
65
59
54
51
49
51
55
56
59
62
63
71
84
115
144
159
74
72
68
66
65
63
60
59
62
60
62
62
62
59
65
63
68
72
79
81
77
74
81
96
117
139
148
148
150
152
152
150
150
142
137
139
141
141
144
141
135
135
135
127
112
95
82
74
65
58
56
52
51
51
52
54
58
62
68
76
95
131
156
167
63
60
58
56
55
55
55
56
59
63
62
60
60
60
66
69
74
76
79
81
81
82
91
112
133
148
150
152
148
150
150
150
146
141
139
142
144
144
139
131
127
129
131
129
117
102
86
74
65
58
55
54
54
52
50
51
55
60
68
77
102
139
159
168
54
52
50
49
50
51
54
58
60
62
60
58
59
63
68
74
77
79
77
79
84
91
108
129
144
148
150
150
150
148
148
146
144
141
141
142
146
139
129
125
125
129
129
127
123
106
87
74
65
59
55
55
54
52
50
51
55
59
66
77
102
142
161
170
49
50
52
49
50
52
55
59
59
60
62
63
65
68
72
79
81
77
79
82
89
106
123
139
144
148
148
150
150
148
146
144
142
139
139
141
139
131
123
125
129
129
127
131
129
112
87
74
68
62
56
55
51
52
52
52
55
59
65
76
102
139
159
168
51
51
52
52
52
54
59
62
62
63
63
66
69
71
74
76
76
76
79
91
106
125
137
141
144
148
150
148
148
148
146
144
141
135
135
137
137
127
125
127
129
127
129
135
135
115
87
77
69
66
59
56
52
52
52
50
55
58
65
74
100
137
159
165
52
55
55
55
54
58
62
65
63
66
69
69
71
74
74
74
74
79
91
108
125
137
139
141
144
146
148
148
146
146
146
142
141
135
133
133
131
125
131
133
133
131
135
139
135
117
93
81
74
68
62
58
55
54
52
54
56
58
63
74
98
135
158
163
52
56
58
58
59
63
66
66
69
72
74
74
71
68
65
68
74
87
106
127
137
141
141
142
144
144
142
144
144
142
142
141
141
133
133
131
133
135
137
137
137
139
142
142
139
119
95
82
74
69
63
62
58
54
54
54
56
58
63
74
100
135
158
163
54
58
62
65
66
68
69
71
74
76
76
69
69
62
66
74
86
102
119
133
139
141
141
141
142
144
144
142
144
142
142
141
139
135
131
131
137
142
141
139
137
141
144
146
137
115
96
86
77
72
66
63
59
55
52
52
56
58
65
77
104
137
158
165
60
65
68
69
72
76
76
72
72
76
76
71
71
69
76
89
102
115
127
133
137
139
139
139
141
142
144
142
144
142
141
139
139
137
137
135
137
144
142
139
137
141
144
144
135
115
96
87
82
77
71
66
63
58
56
54
56
58
65
82
108
141
156
161
71
74
76
76
74
76
76
72
68
72
72
71
74
81
93
106
119
121
125
131
131
133
135
141
139
141
142
142
141
139
137
137
139
137
141
141
139
144
142
139
137
137
141
141
129
108
93
86
84
81
74
71
66
62
56
52
56
59
68
84
113
141
150
154
81
81
82
79
76
72
74
71
68
69
74
77
84
100
115
121
123
121
125
127
125
123
129
135
139
139
139
137
139
135
131
135
137
141
141
141
141
142
141
137
135
133
139
135
121
102
91
87
87
81
76
72
68
62
59
56
59
62
69
87
117
131
137
139
84
84
82
81
79
72
71
69
72
76
81
87
100
119
129
131
131
125
125
127
127
125
129
129
133
137
139
139
139
141
137
135
141
142
141
142
142
142
139
135
135
137
137
133
115
98
87
87
89
82
76
71
68
63
62
62
59
62
71
87
113
119
121
123
81
81
79
74
74
71
71
71
76
81
89
104
121
131
135
137
135
127
125
125
131
131
131
127
127
133
137
141
141
142
141
139
141
137
139
139
141
142
139
135
135
139
139
131
113
96
87
86
86
81
74
69
66
65
62
60
60
62
69
87
104
110
112
113
81
77
72
71
71
71
72
76
82
93
108
121
129
135
141
139
135
127
123
125
131
133
135
129
125
127
135
141
137
139
141
139
139
137
139
139
141
142
141
135
133
139
137
129
110
95
89
89
84
79
74
69
65
62
58
56
55
58
68
87
98
102
102
106
76
76
72
71
76
76
77
82
95
110
123
131
131
133
137
137
131
123
121
125
131
137
139
131
125
125
133
137
133
135
135
135
137
137
137
137
141
144
142
139
133
135
133
121
108
93
87
86
81
74
71
65
58
55
54
51
51
52
65
84
95
100
102
104
74
72
72
76
79
82
86
95
106
121
129
129
131
133
135
133
127
117
117
125
131
137
133
125
121
121
131
135
135
133
131
133
135
135
137
137
139
142
142
139
135
133
127
117
102
89
84
77
71
66
62
55
52
51
49
45
46
50
63
81
91
96
98
102
72
74
76
81
86
89
95
102
113
121
125
127
127
131
131
127
121
115
115
125
131
131
125
121
119
117
125
131
131
129
129
131
133
137
135
139
141
141
139
137
133
129
121
110
93
81
72
69
65
60
56
51
49
46
43
42
42
46
56
72
87
95
96
100
69
76
79
84
89
95
96
102
112
115
119
121
123
127
127
121
117
115
115
125
129
127
121
115
112
117
121
125
129
131
131
129
131
135
135
137
139
139
137
133
127
119
110
98
81
71
66
62
60
58
54
49
44
42
40
41
39
42
49
59
74
86
91
96
71
76
77
81
86
87
89
95
102
106
110
113
115
117
117
115
112
110
112
121
125
121
117
112
110
113
121
125
125
125
127
127
127
129
131
129
129
129
127
123
113
106
98
87
76
66
63
59
56
56
52
46
42
41
40
40
39
38
45
50
58
69
79
87
69
74
77
74
76
76
77
81
84
87
89
95
98
98
100
102
104
108
110
119
121
117
115
112
113
113
121
127
123
121
123
123
123
123
121
119
115
113
112
108
104
98
93
84
72
66
62
58
56
55
51
45
42
40
38
39
38
38
41
46
51
55
63
71
69
72
74
71
71
69
72
74
76
77
79
81
81
82
84
87
93
100
108
112
117
115
112
110
112
113
119
123
119
115
113
112
112
112
110
106
102
102
102
100
98
93
93
86
72
65
60
58
60
58
51
49
43
41
40
39
38
41
44
46
47
51
54
60
71
69
72
71
71
69
69
71
72
76
74
72
74
76
76
77
82
89
96
104
108
112
110
108
106
110
112
113
110
106
102
100
98
98
98
96
96
96
96
96
95
91
89
86
74
65
58
60
60
58
54
51
47
43
42
42
41
42
45
45
47
50
50
52
69
69
71
68
65
65
66
65
68
71
71
71
72
72
71
71
76
82
86
91
95
100
102
104
104
104
106
104
100
96
93
93
93
93
95
93
93
95
98
98
96
91
91
86
74
65
59
60
62
62
58
55
51
46
44
42
42
45
47
50
49
47
49
50
71
66
66
65
65
65
63
63
68
71
68
68
68
68
66
69
72
77
84
87
89
87
87
93
96
100
100
100
96
91
89
89
91
89
87
87
89
91
98
100
98
95
95
87
76
66
63
65
68
68
66
60
56
50
49
45
45
47
47
50
47
47
45
47
71
66
65
63
63
63
66
63
66
68
68
68
66
68
68
68
69
74
77
81
82
84
84
84
89
95
96
95
93
91
89
87
89
91
87
86
89
95
98
96
98
98
98
91
79
72
71
72
72
74
71
66
60
56
54
52
50
50
49
47
46
46
45
47
72
68
62
62
63
65
63
60
63
66
65
66
65
65
65
66
69
72
77
77
81
82
77
77
81
87
89
91
93
89
91
87
87
89
87
91
95
98
98
102
104
106
104
98
86
79
77
79
81
79
74
71
68
63
60
59
58
56
52
50
47
45
45
47
71
66
63
60
62
65
62
59
63
63
62
63
63
62
63
69
69
72
72
76
77
77
72
72
76
79
84
87
89
91
93
91
89
87
91
96
100
106
108
113
117
115
113
106
95
86
84
84
82
81
77
76
74
71
68
66
66
63
58
54
49
45
46
47
69
66
66
62
60
62
62
60
63
62
59
60
62
63
68
69
71
72
71
74
76
76
72
71
71
74
77
79
86
89
93
93
93
95
100
108
112
119
123
129
131
129
121
110
95
87
86
86
84
84
81
77
77
77
77
79
77
72
66
60
54
49
49
49
72
71
68
66
63
65
66
65
63
60
62
65
63
65
68
69
72
74
74
79
77
77
74
69
69
74
77
79
82
89
93
98
100
106
110
115
123
129
131
131
133
129
123
106
93
87
86
84
84
86
81
77
79
81
86
93
95
91
86
76
66
62
58
55
72
72
71
71
69
68
68
68
66
65
65
68
68
66
66
68
72
76
79
81
79
76
72
69
69
77
82
84
89
95
100
102
108
113
119
123
129
133
131
131
129
127
119
102
89
86
87
84
84
84
81
79
79
82
91
104
115
117
112
104
93
82
72
68
74
74
74
71
71
72
74
76
74
72
69
68
68
69
69
69
72
77
77
79
79
79
76
74
77
82
87
93
96
102
104
110
115
121
125
127
129
131
133
129
129
125
115
96
84
82
86
86
84
82
79
81
81
84
95
112
129
139
137
131
127
117
104
93
82
82
82
82
84
86
86
87
87
86
82
81
79
79
79
79
79
81
82
84
87
89
86
84
82
89
96
100
104
106
110
115
125
129
133
135
133
131
129
129
129
123
108
93
81
82
82
84
84
82
81
79
79
84
95
115
139
148
152
154
150
144
135
123
96
95
96
96
98
100
102
102
102
102
98
93
89
87
89
89
89
89
91
91
93
93
91
89
91
96
98
106
110
112
115
121
129
135
139
139
137
129
123
123
125
117
102
89
81
81
82
84
86
84
82
79
77
82
93
117
142
150
156
159
159
158
154
144
108
106
106
106
108
110
112
113
115
115
112
106
102
100
100
100
95
95
95
96
100
100
98
96
98
100
102
108
113
115
119
125
133
139
137
139
139
129
123
119
119
108
93
86
81
79
84
86
86
82
81
79
77
82
96
119
142
152
154
161
163
165
159
152
119
117
115
115
115
115
113
115
121
123
119
112
106
106
106
106
102
98
98
102
104
106
110
108
108
108
108
113
121
121
123
127
137
139
139
139
135
129
123
119
110
96
86
82
79
81
84
84
86
82
77
79
79
84
100
121
142
154
156
161
165
163
159
152
119
119
117
117
113
115
117
115
119
121
123
115
106
104
110
112
106
104
102
106
108
113
113
112
112
112
113
119
125
127
127
131
139
139
139
137
133
129
123
113
100
87
81
76
76
79
81
84
86
81
79
79
81
87
104
125
144
156
158
161
163
163
159
154
121
119
117
117
115
117
117
119
119
119
121
115
106
104
110
113
108
106
106
110
115
117
119
117
112
112
113
119
125
125
127
133
137
139
139
137
133
127
123
110
93
79
72
68
69
76
82
86
82
79
81
81
84
91
106
131
146
156
158
159
159
161
159
154
117
117
117
119
117
119
117
117
119
119
117
113
106
100
108
112
108
104
106
112
119
123
119
115
110
110
112
117
123
129
131
133
133
137
139
135
131
127
121
104
86
72
65
62
63
69
77
81
79
79
81
81
87
93
112
137
150
156
159
161
159
159
158
156
117
115
115
117
119
119
115
115
119
119
117
113
108
102
106
110
108
104
108
115
119
119
117
115
113
110
112
115
123
127
129
131
131
133
137
137
135
127
113
96
79
68
60
60
59
63
69
76
76
77
79
82
87
98
117
141
150
154
156
158
158
156
154
152
119
117
117
115
117
117
117
117
119
121
119
115
108
100
102
102
102
102
110
115
119
121
117
119
117
113
112
113
121
127
127
129
131
133
135
137
131
121
106
86
72
65
60
59
59
59
62
65
65
69
74
81
89
104
121
141
148
150
152
152
152
150
150
148
113
115
113
113
115
115
115
115
115
117
119
115
110
104
102
100
98
100
108
115
119
121
121
121
119
115
110
113
121
125
127
127
129
131
135
133
125
112
96
81
69
63
62
60
59
58
56
56
58
62
69
77
87
110
125
135
142
146
144
146
144
144
144
142
113
113
113
115
117
115
112
113
115
117
119
117
108
108
102
98
98
98
102
113
119
119
117
119
119
117
112
112
117
125
125
129
131
131
131
125
115
98
84
76
66
62
63
62
62
58
54
50
54
59
65
77
89
108
121
129
139
141
142
142
141
139
139
139
112
113
113
115
113
113
113
115
115
117
119
115
108
104
98
96
96
91
96
108
117
121
119
119
121
119
113
113
117
121
125
129
129
129
123
115
102
86
77
71
66
65
65
62
63
60
55
50
51
59
63
77
91
108
119
123
131
135
137
135
135
133
133
137
110
112
112
110
110
112
113
117
115
115
115
115
108
102
98
95
91
91
89
100
115
119
119
119
123
119
117
119
121
121
123
125
123
121
112
98
86
77
71
66
69
69
68
69
69
62
55
51
54
59
65
79
95
110
115
119
121
127
131
133
133
133
133
135
106
106
108
108
106
108
113
117
117
113
115
115
108
102
98
95
89
89
91
95
108
117
119
123
123
119
117
121
125
125
121
121
117
110
98
87
79
76
69
65
66
69
72
72
71
63
55
52
56
60
69
82
98
110
112
113
115
115
121
125
127
127
131
131
102
104
104
104
104
106
112
115
115
115
115
115
110
102
100
96
91
87
87
89
102
113
119
125
127
123
121
121
125
123
119
113
108
98
87
77
76
74
71
71
69
71
74
74
69
63
56
55
58
63
74
86
100
106
108
108
108
108
112
117
123
125
127
131
104
104
104
102
102
102
110
113
112
115
113
113
108
104
102
96
87
86
84
87
98
108
117
125
127
125
121
121
123
123
117
108
98
87
76
71
69
71
72
72
74
76
77
76
71
66
63
60
63
69
79
91
102
106
104
104
104
104
106
110
112
117
123
127
104
104
104
100
100
98
104
112
108
110
112
110
104
104
104
96
91
86
86
87
93
102
112
123
127
125
123
121
121
119
112
100
87
77
69
69
68
69
72
74
76
79
77
76
72
72
71
71
71
77
87
98
102
100
100
100
102
102
102
102
102
106
113
119
102
102
104
98
98
98
104
110
108
108
112
110
104
102
104
96
91
87
84
84
87
96
108
119
125
123
117
115
117
113
102
87
77
71
68
69
68
69
69
74
77
77
76
72
71
72
76
77
81
87
96
102
100
96
98
98
102
100
100
98
98
96
100
106
100
100
100
100
102
102
106
108
108
108
108
106
100
98
96
93
87
84
82
84
84
87
98
112
121
125
119
113
113
106
93
77
71
65
66
69
69
71
69
74
77
76
72
71
72
76
79
86
91
98
104
106
102
98
98
100
100
100
100
98
98
95
96
96
93
93
96
100
104
104
106
104
104
104
104
100
93
87
87
86
81
79
79
81
81
82
91
104
115
119
117
113
106
95
82
74
68
63
66
69
71
69
71
72
74
74
74
74
76
81
87
98
104
110
112
113
108
102
102
98
96
96
98
96
96
91
89
91
86
86
87
89
95
96
98
98
98
96
95
89
84
81
81
81
77
77
74
74
74
81
84
96
110
115
113
106
96
86
79
72
68
65
66
68
72
72
72
74
74
74
72
72
81
87
100
110
115
119
117
117
113
106
104
100
98
98
95
93
93
91
89
86
82
81
79
79
81
82
84
86
86
86
84
81
79
77
77
81
81
81
77
74
72
77
82
87
102
112
108
100
87
81
76
72
69
65
68
68
72
74
74
76
74
71
74
79
87
96
108
119
123
125
123
119
117
110
104
102
100
98
96
91
87
91
89
87
