P2
# 293 of 608 Angiograms
64 64
255
108
104
102
106
117
129
133
135
131
125
117
100
86
76
69
63
62
62
60
62
63
63
63
63
58
56
58
62
69
81
86
87
87
87
86
93
100
104
100
91
82
74
72
71
68
68
69
68
71
69
66
63
60
58
58
55
51
50
49
46
43
44
49
55
108
108
108
113
123
131
135
131
125
119
106
89
77
69
65
60
59
58
58
60
62
63
63
63
60
58
60
66
76
84
86
86
89
89
96
104
112
113
112
106
98
91
82
76
69
66
68
69
71
71
66
63
65
63
60
56
52
51
46
42
41
42
43
49
115
115
117
119
127
129
129
125
119
108
91
76
65
62
58
58
56
54
56
59
62
62
63
63
62
62
66
72
82
87
87
87
89
96
110
115
115
115
115
113
110
106
98
87
77
68
66
71
71
71
68
63
63
59
59
58
55
52
44
41
39
40
41
43
115
119
123
123
125
125
123
117
108
93
77
62
58
58
56
58
56
52
55
60
60
63
62
60
63
66
72
79
86
87
86
86
98
108
117
117
117
117
115
113
112
112
110
102
87
74
69
69
68
68
68
62
63
62
59
58
54
50
44
40
39
40
38
41
117
119
119
121
119
115
110
100
91
79
63
56
55
54
55
55
55
56
56
59
59
63
62
62
68
72
79
84
86
87
87
93
106
113
119
119
119
117
113
112
115
117
113
110
98
82
72
71
69
66
68
63
65
65
62
59
52
49
46
42
40
40
38
41
112
112
112
112
106
100
95
89
79
66
58
56
55
51
51
52
56
54
55
59
62
62
65
68
72
81
87
89
89
87
89
100
110
115
119
117
117
113
112
113
117
117
112
112
104
87
76
68
68
68
66
65
65
63
60
60
55
50
47
46
43
40
40
41
100
102
100
100
98
95
89
82
68
59
55
54
51
51
50
52
54
55
59
60
65
63
69
76
81
86
89
93
93
89
95
106
113
117
119
115
115
112
112
115
117
119
119
113
106
89
76
69
69
66
63
63
65
65
62
59
56
54
51
49
45
41
40
43
93
95
93
93
96
91
84
72
62
56
55
52
52
54
55
56
55
56
59
60
65
68
74
81
86
89
91
93
93
93
100
108
112
115
115
113
113
112
110
115
117
121
121
117
110
93
77
69
69
65
62
63
66
63
62
58
58
58
55
52
49
45
45
49
89
91
93
93
91
86
76
65
59
59
58
56
54
56
58
60
60
60
63
66
71
74
81
87
86
87
89
89
91
96
104
108
110
112
115
112
112
113
112
115
121
123
121
123
113
96
81
69
66
66
63
63
63
65
63
62
58
58
56
55
54
52
52
55
87
93
95
91
82
76
69
63
58
55
56
59
58
60
62
63
63
65
68
72
79
82
86
89
86
81
82
84
86
100
108
110
108
108
112
112
112
113
113
115
123
123
121
123
117
102
84
74
69
68
65
59
60
63
63
60
62
60
62
63
62
62
63
63
89
91
89
81
77
74
68
66
65
62
60
58
59
63
65
65
66
68
72
81
84
87
91
93
91
82
82
84
87
100
108
110
112
110
110
112
112
113
112
115
117
119
119
121
119
106
89
76
72
72
69
63
60
62
63
63
63
65
69
69
68
69
71
76
91
87
82
79
76
74
72
69
69
66
63
63
60
63
65
63
65
71
79
84
89
95
95
93
89
84
86
89
93
98
106
108
110
112
112
112
113
115
113
117
119
119
119
121
119
110
96
81
72
71
68
65
62
60
65
66
66
69
72
74
76
77
82
93
84
79
77
76
72
69
68
66
66
66
68
66
65
66
69
68
71
76
82
86
93
98
96
91
89
89
93
96
95
100
104
104
106
112
115
115
115
113
113
117
119
121
121
119
117
110
102
86
76
69
68
66
63
60
66
66
69
71
76
79
81
82
91
106
76
71
71
71
68
63
60
59
60
63
65
65
65
68
66
69
77
82
84
87
91
93
93
89
91
98
102
100
100
104
106
104
104
106
113
115
115
115
113
117
119
121
123
121
117
112
106
91
79
72
68
65
63
62
69
69
74
76
76
76
79
87
96
115
68
65
63
63
65
65
62
59
60
65
63
63
65
68
69
76
82
82
86
89
91
91
91
91
98
108
106
100
104
110
108
104
100
102
108
112
113
115
115
115
119
123
121
119
115
112
106
98
84
72
71
65
62
66
71
76
77
79
77
79
81
89
100
123
65
63
62
59
63
63
59
60
62
63
66
65
65
69
74
81
86
86
87
91
89
91
93
100
108
110
110
106
106
110
110
106
102
102
106
112
115
115
117
117
121
123
121
119
115
112
110
102
84
72
69
68
68
69
72
74
79
77
76
79
82
89
102
127
60
62
60
59
63
60
60
62
65
65
65
66
71
74
81
86
87
87
91
91
91
91
100
110
112
112
108
108
112
115
113
110
106
104
104
112
117
115
115
117
121
125
121
117
113
112
110
100
84
71
68
69
71
72
71
74
74
76
81
82
82
87
102
129
56
58
63
60
62
62
62
63
65
66
66
66
72
77
82
86
89
91
93
93
93
100
108
112
113
110
106
110
113
117
119
115
110
106
106
113
115
113
117
117
121
123
119
115
113
113
110
96
82
72
74
72
71
72
72
74
74
76
79
82
82
86
100
131
59
56
58
60
60
60
63
66
65
65
68
71
76
82
86
89
91
93
93
95
100
106
112
112
112
108
102
106
112
115
119
117
113
112
110
113
113
113
113
115
117
117
119
117
113
112
110
93
81
74
76
74
72
72
72
79
77
76
79
84
86
87
106
135
55
56
58
58
59
60
62
65
65
69
74
76
81
86
87
89
91
93
95
100
108
113
117
115
112
106
106
104
112
117
119
115
112
113
112
112
110
110
106
108
112
112
112
113
113
113
106
89
81
76
72
74
76
74
74
79
81
79
81
84
84
89
110
137
54
54
55
56
59
60
62
63
68
76
77
79
87
93
96
96
96
96
102
108
112
117
119
115
112
108
108
110
117
117
117
115
112
113
113
115
112
104
96
100
108
108
106
113
113
112
102
86
77
76
74
71
72
74
72
76
79
81
82
86
86
93
115
139
52
54
56
59
62
63
63
65
69
76
79
84
91
96
98
98
98
102
108
113
115
117
119
117
112
108
108
113
119
119
113
110
108
110
112
113
112
104
98
104
110
110
112
115
115
110
96
84
76
76
76
76
74
74
72
79
79
82
86
86
87
98
123
141
56
58
58
63
66
63
68
69
69
74
82
89
95
98
100
100
102
110
115
117
113
115
119
117
112
108
112
117
121
123
117
112
106
108
113
113
115
112
110
113
115
117
121
123
121
108
95
84
77
77
79
77
77
77
76
79
81
86
89
84
87
106
127
142
59
62
60
66
66
65
68
71
71
77
86
91
98
100
100
106
112
117
119
119
117
119
119
115
110
113
113
121
125
123
115
112
110
110
113
115
117
117
119
121
125
127
127
125
123
108
95
86
81
81
82
81
82
81
81
84
84
89
91
84
91
113
133
141
59
60
59
63
63
63
66
71
74
81
87
93
96
100
108
115
119
123
121
121
115
117
117
113
112
112
117
125
127
121
117
115
112
108
113
119
123
125
123
125
129
129
129
125
121
106
95
87
82
81
79
82
84
84
86
82
86
93
91
86
96
119
131
137
58
58
56
59
60
63
65
68
74
79
86
91
98
106
115
119
117
117
119
119
117
115
110
106
108
113
119
123
121
119
121
115
108
108
117
125
127
125
121
125
129
131
129
127
119
108
96
86
84
82
77
79
86
86
84
82
84
87
89
86
100
115
121
125
56
58
55
54
56
60
63
65
69
74
81
89
98
106
110
113
115
115
117
117
113
110
106
100
106
115
119
121
119
123
119
112
106
112
119
125
129
125
121
125
125
129
127
125
121
110
96
87
87
86
81
82
82
82
82
79
81
84
81
86
102
112
113
113
56
55
55
55
58
59
60
63
66
71
77
87
93
96
100
102
106
108
108
108
106
104
102
100
102
110
117
121
123
121
117
110
110
113
117
121
123
123
119
123
127
125
123
123
119
108
95
86
86
82
81
82
82
79
76
74
72
74
77
86
104
112
110
110
56
56
56
59
59
59
60
62
66
69
76
82
87
87
87
87
91
93
93
93
91
91
91
95
98
104
112
115
119
117
115
108
108
110
113
117
119
117
117
119
121
119
119
119
115
102
91
86
84
82
79
79
76
71
66
65
65
69
77
89
108
113
113
115
58
59
60
59
60
60
62
66
68
71
76
77
79
81
79
79
79
81
79
79
77
79
81
84
89
95
102
108
110
110
110
106
106
110
110
113
117
115
115
115
115
115
117
115
104
95
86
81
81
81
76
72
68
63
59
59
62
66
74
91
110
117
121
121
59
59
60
60
60
63
65
66
69
69
72
74
74
74
74
76
72
72
72
71
69
69
72
72
77
82
91
98
100
104
106
104
106
108
112
113
119
119
117
115
112
110
108
104
91
82
76
74
76
74
69
68
63
58
52
54
58
62
69
89
104
113
121
123
60
60
62
66
68
69
69
69
69
69
74
74
71
71
72
72
69
68
66
66
66
62
63
68
71
74
81
84
89
93
98
100
104
110
115
119
121
117
113
112
108
102
98
91
82
74
71
71
71
71
66
63
56
54
52
50
51
54
62
76
91
102
108
113
63
63
69
69
69
71
69
72
69
71
74
74
69
72
72
72
68
66
65
65
63
59
60
65
66
69
74
77
79
84
87
91
96
104
112
115
113
110
104
102
98
96
93
87
82
72
69
68
68
68
65
58
54
49
49
49
49
47
54
63
72
82
91
96
68
68
71
71
69
69
69
72
71
72
72
72
69
71
71
69
63
66
66
66
62
62
60
62
65
66
71
74
74
77
81
86
89
95
102
108
106
104
100
98
95
93
91
89
84
71
66
65
66
68
62
56
52
49
49
47
49
46
47
55
60
65
72
79
72
71
72
71
71
72
72
76
74
76
69
68
69
69
69
68
66
68
66
63
60
59
60
63
65
68
72
74
76
76
79
81
84
86
93
100
100
100
96
96
95
95
93
91
84
69
66
65
69
69
62
55
52
52
50
46
49
49
50
54
58
59
60
68
74
72
72
72
74
76
76
76
76
77
77
74
74
72
71
66
66
66
66
63
62
62
65
63
68
74
76
76
74
77
81
82
82
82
89
96
98
98
96
95
93
91
93
91
82
69
66
66
69
71
66
59
54
55
52
51
51
52
52
55
56
58
58
58
72
72
72
74
72
77
79
79
82
82
82
82
81
76
74
68
68
71
69
66
63
63
65
66
74
76
76
77
79
84
84
84
84
82
91
95
95
95
95
93
93
91
95
91
79
69
68
69
72
74
69
62
59
58
55
54
54
54
54
56
58
55
55
56
76
77
76
77
79
81
82
84
86
86
84
84
82
82
77
76
72
72
74
72
69
66
65
71
76
76
77
82
87
87
87
87
84
82
89
93
87
87
91
93
95
98
102
93
77
72
72
74
77
79
74
66
60
59
58
58
56
58
56
55
58
54
54
55
82
84
86
87
87
89
91
87
87
87
84
84
82
87
82
79
79
77
76
77
77
72
71
77
76
77
82
86
86
86
86
87
86
82
84
89
89
87
91
91
96
100
100
89
81
76
77
79
82
82
81
74
66
62
59
59
60
63
59
59
56
55
52
54
93
91
93
93
95
95
96
93
93
91
89
87
89
91
89
87
87
86
84
84
84
81
79
82
82
86
89
91
91
89
87
86
86
84
87
89
91
91
91
91
95
98
95
86
81
79
79
84
86
84
81
82
76
69
66
66
65
62
59
58
56
55
54
52
100
102
104
104
104
104
102
96
96
96
95
93
93
93
93
93
91
93
91
89
87
82
82
87
91
95
96
98
98
96
91
89
89
87
87
91
95
96
91
89
95
95
87
81
81
79
81
86
87
84
81
82
84
79
74
74
71
66
62
56
56
56
58
58
104
102
106
106
106
106
106
102
96
98
98
96
96
98
96
96
93
93
95
93
87
84
87
95
96
98
98
98
95
96
95
93
91
89
87
91
95
96
95
91
91
89
82
79
82
81
81
84
86
84
82
84
86
84
84
84
79
72
69
63
59
62
62
62
102
106
106
106
102
106
106
102
102
100
100
100
100
98
96
93
93
93
95
93
89
86
89
95
98
96
100
100
98
98
100
98
95
95
91
91
95
96
95
93
91
84
81
79
81
82
82
86
84
82
84
86
87
89
93
96
93
84
81
76
69
68
66
63
100
102
104
104
102
102
102
104
106
106
108
106
106
102
100
98
95
96
96
93
91
87
91
93
96
100
100
104
100
100
100
98
96
93
91
89
91
93
95
93
91
84
79
77
79
81
82
86
82
82
84
86
89
93
98
106
110
104
98
93
86
81
76
72
100
98
100
100
100
102
98
100
102
104
106
106
102
104
104
104
100
102
100
96
89
89
96
100
104
102
100
102
100
100
102
98
98
93
91
89
93
93
93
95
89
82
77
74
76
77
79
81
79
81
82
86
87
95
104
113
119
121
115
113
110
104
98
89
96
96
98
100
100
100
96
96
100
100
100
104
104
104
104
104
104
102
98
93
89
96
100
102
106
104
102
104
100
102
102
100
100
98
93
87
89
93
93
95
87
79
76
76
77
79
81
82
81
79
82
82
84
93
108
123
129
129
129
129
127
123
117
110
96
96
100
98
100
102
100
95
96
98
96
100
104
102
100
104
106
102
100
96
96
100
104
102
104
102
102
104
104
102
102
104
102
98
95
89
87
93
95
93
86
79
76
76
77
77
77
79
81
82
82
81
84
95
112
125
131
131
131
133
135
131
127
121
91
95
96
98
98
98
96
93
95
96
96
96
98
96
96
100
104
100
100
98
98
100
102
104
104
104
102
104
104
104
106
110
104
102
93
89
91
93
93
89
82
76
71
71
72
74
74
77
79
84
81
77
84
93
110
123
129
131
133
133
135
133
129
125
91
93
96
98
100
98
96
98
95
96
95
96
100
96
98
98
98
98
98
98
96
100
104
100
104
102
104
104
100
104
108
110
102
100
95
95
95
95
91
84
77
76
74
71
69
71
72
77
81
82
79
76
79
89
108
117
125
131
131
131
129
131
127
125
89
93
98
100
100
98
98
96
95
96
100
100
98
98
96
98
98
98
100
100
100
100
102
102
102
104
106
106
104
108
108
108
106
102
98
96
96
96
87
77
72
74
71
69
69
71
69
74
77
76
74
72
79
89
104
112
119
125
129
129
129
129
129
125
91
95
98
102
102
98
98
96
95
93
100
102
98
100
100
100
102
106
106
104
100
102
104
108
106
102
104
108
106
108
110
110
108
106
102
100
96
91
79
69
69
71
74
72
71
69
69
72
77
76
74
76
81
93
102
106
110
113
121
127
129
127
131
129
91
98
100
102
100
95
95
95
96
95
100
98
98
100
104
106
104
108
108
108
100
100
104
108
108
104
106
108
110
112
112
112
112
108
104
98
93
82
74
69
68
69
74
74
72
74
74
79
81
79
77
79
87
96
100
100
100
104
112
119
125
127
129
127
96
102
102
102
98
93
91
95
95
95
98
96
98
102
104
104
104
108
108
108
102
100
104
108
108
106
110
113
113
112
112
112
113
110
102
95
86
77
72
69
68
68
72
72
74
76
81
84
86
84
84
87
95
100
98
95
91
95
104
110
117
123
125
125
98
100
100
98
96
95
93
95
95
98
98
98
104
106
108
104
106
108
106
106
104
106
110
112
112
110
112
115
113
110
110
112
112
110
98
87
79
76
72
69
66
68
74
76
76
77
81
86
91
89
89
95
104
106
98
93
86
87
91
98
108
115
117
119
98
98
98
100
96
95
95
93
95
96
98
102
106
110
108
106
108
110
110
106
106
112
113
113
112
110
113
113
112
108
110
112
112
104
91
82
76
74
71
69
66
69
74
76
76
79
82
86
93
93
95
104
110
106
102
95
89
84
86
89
96
104
106
108
96
98
98
100
96
95
96
93
95
98
100
104
106
112
110
108
110
110
112
108
108
113
115
113
108
110
112
115
113
110
106
104
104
93
84
77
74
72
71
69
68
69
74
74
77
81
82
84
87
93
104
115
117
112
104
95
86
82
82
82
87
95
98
98
91
93
95
96
98
96
93
93
95
98
100
104
104
110
110
113
115
113
113
110
112
113
113
113
110
110
110
112
110
106
102
96
91
84
81
76
72
74
72
71
69
71
77
77
79
82
82
86
89
100
113
125
127
121
110
96
86
81
77
77
84
89
93
95
82
87
91
91
93
93
91
89
93
96
98
100
102
108
110
112
113
112
110
108
106
110
112
110
108
106
106
106
104
100
93
86
81
77
76
72
71
72
72
72
72
72
77
77
82
87
84
86
93
110
123
133
135
127
119
106
89
79
74
74
79
86
89
91
82
82
87
89
87
86
84
86
89
93
95
98
96
102
106
108
110
110
106
100
100
104
106
102
102
100
100
98
95
87
79
76
76
76
72
71
71
72
74
76
76
76
77
79
86
86
84
87
104
119
129
133
135
133
125
112
95
82
74
72
76
82
87
91
76
79
82
86
84
84
86
84
84
91
93
93
93
98
100
100
102
100
96
95
96
100
102
102
100
98
93
86
81
76
71
69
69
69
72
71
69
72
76
76
76
76
79
82
84
84
87
98
113
125
131
131
135
133
127
119
104
89
79
74
74
82
89
89
76
81
84
82
82
82
84
84
84
91
91
89
95
100
98
93
95
96
95
95
95
98
104
104
104
96
86
77
72
68
66
66
66
71
72
72
69
68
74
77
77
77
81
82
86
87
95
108
121
129
131
131
133
133
127
123
113
100
89
81
79
82
89
87
81
81
81
82
82
86
87
87
87
91
96
91
95
100
100
98
96
95
91
93
98
104
108
112
108
98
81
72
68
65
63
63
66
69
69
74
74
68
72
76
77
76
81
84
86
93
106
117
129
131
129
131
133
129
123
121
121
112
102
91
86
86
86
87
84
82
84
86
91
93
95
95
93
93
95
93
95
98
102
102
100
98
96
96
102
108
113
115
108
95
81
71
66
66
63
59
62
65
68
76
77
72
72
77
79
79
82
84
89
104
115
127
131
129
133
133
131
127
125
123
121
117
112
102
95
91
91
89
81
82
87
95
98
98
100
98
100
96
96
98
98
102
106
106
106
102
100
102
106
110
110
108
100
87
77
68
65
65
65
60
60
63
68
76
77
72
76
79
81
81
82
87
98
112
121
129
129
133
133
131
129
127
123
121
119
117
115
110
104
98
96
93
