P2
# 299 of 608 Angiograms
64 64
255
100
100
102
102
100
98
102
100
100
102
104
98
95
91
86
82
82
82
84
86
89
89
93
93
89
89
89
87
87
89
87
89
89
87
87
95
95
95
95
91
93
93
89
87
87
91
87
87
86
81
81
82
81
81
77
74
79
84
79
79
79
76
74
69
100
102
104
104
102
102
102
102
102
102
104
96
93
87
86
81
82
84
86
89
87
89
93
96
95
93
93
89
86
86
87
87
87
86
87
93
93
95
93
87
87
87
89
89
87
87
89
89
84
79
79
79
79
81
77
76
77
81
81
82
79
79
77
74
96
100
102
102
100
98
104
102
102
104
102
96
89
86
86
84
84
84
84
86
86
87
89
93
91
91
91
91
89
89
89
89
86
87
89
91
95
95
91
87
87
84
89
91
89
86
86
86
82
79
81
81
79
81
79
79
82
81
82
86
82
81
81
79
98
100
100
102
100
98
100
104
104
104
100
93
87
86
84
81
82
89
86
82
84
87
87
87
91
93
91
93
93
86
86
87
86
89
89
93
91
91
87
89
89
86
89
93
91
86
87
86
82
82
84
84
81
82
84
82
86
86
86
87
89
86
84
82
96
100
100
106
104
100
100
102
104
100
95
89
86
86
84
82
86
87
86
86
87
87
91
89
87
91
93
95
95
89
87
87
87
89
91
91
91
89
89
87
89
87
91
91
89
86
86
87
87
87
89
87
84
86
86
87
89
89
91
91
91
91
91
86
98
100
100
102
102
102
102
102
100
96
93
87
84
86
82
81
84
86
89
87
89
87
89
93
89
91
93
91
93
89
87
89
87
87
91
91
89
86
87
86
87
89
89
89
87
84
81
82
84
87
87
87
87
89
93
93
91
96
98
96
98
100
100
95
100
98
100
102
100
102
100
100
98
95
91
87
82
84
84
82
86
86
87
89
91
89
91
93
91
89
89
89
89
89
86
87
89
93
91
93
89
86
87
87
87
91
91
91
87
86
84
82
84
87
89
86
89
93
93
91
93
100
102
104
104
104
104
102
98
96
96
98
98
98
95
95
91
91
91
84
84
87
87
84
89
91
91
91
91
87
91
93
95
91
86
87
86
84
82
86
87
91
93
93
89
84
82
84
87
87
89
91
89
89
89
89
89
89
91
87
87
91
93
93
95
98
102
102
106
102
102
102
98
98
95
96
98
95
91
89
89
89
87
87
87
87
86
87
91
91
89
93
89
86
87
91
95
93
89
89
86
81
81
84
87
89
89
87
89
87
81
82
82
87
89
91
91
93
93
91
95
91
91
89
89
93
93
96
98
96
98
100
102
102
104
102
95
96
98
100
100
95
89
89
89
87
82
84
86
84
84
87
91
91
89
87
86
87
89
89
91
93
91
89
82
79
84
84
84
89
91
86
89
89
86
84
87
91
91
91
93
96
96
93
93
93
89
87
91
95
98
100
100
100
104
104
104
104
102
98
95
96
100
100
98
95
91
87
87
86
82
84
86
84
87
91
91
89
87
86
87
87
93
93
91
87
87
86
84
81
81
79
81
86
89
84
87
91
87
87
93
93
93
93
96
98
96
93
95
93
91
93
96
95
98
102
102
100
104
102
102
104
98
93
98
98
95
95
93
91
93
91
86
82
86
89
87
87
91
93
91
89
87
87
87
87
91
93
87
86
87
84
82
82
79
76
79
84
86
86
87
93
89
91
95
96
95
98
100
98
95
95
98
98
98
100
98
96
100
100
102
98
104
102
98
95
93
86
98
96
95
91
89
89
89
89
86
81
87
89
89
89
89
91
91
87
84
87
86
86
87
89
86
84
86
84
81
84
79
82
86
86
87
89
89
93
93
95
93
98
98
100
102
100
100
100
98
98
100
98
100
98
100
102
102
100
98
98
95
91
84
81
98
95
93
91
89
86
89
87
84
86
89
91
91
91
87
87
89
86
86
87
87
87
87
89
86
87
87
82
81
84
82
87
89
87
87
93
93
95
98
98
98
100
100
104
104
104
104
104
100
96
100
98
102
102
102
102
102
98
95
91
87
82
77
76
93
91
91
89
87
82
86
87
89
91
93
93
96
91
89
91
89
86
86
89
89
87
87
87
87
87
87
86
82
82
84
87
87
89
93
95
95
100
102
102
100
100
106
106
108
106
104
106
102
100
98
104
106
102
102
100
96
93
89
86
82
82
79
76
89
93
93
91
91
87
84
84
87
91
91
93
91
89
86
87
89
87
86
89
86
84
87
86
86
86
86
87
86
82
86
87
89
91
96
96
98
100
100
102
104
102
104
102
104
102
100
100
102
98
98
100
102
98
95
93
91
86
84
82
82
79
76
72
87
87
87
89
93
91
91
89
87
89
91
89
89
87
86
89
86
84
84
87
86
84
86
84
84
82
82
86
89
84
84
86
89
93
96
98
104
102
98
98
104
108
106
100
102
102
98
98
100
100
98
96
96
93
87
86
84
82
81
82
79
76
74
74
91
89
87
86
89
93
95
89
89
87
89
89
87
86
87
91
87
86
84
84
82
82
82
84
82
84
86
91
93
87
86
87
87
93
96
102
104
100
100
100
102
104
100
98
104
102
100
100
102
104
98
95
89
86
81
79
77
77
79
79
77
77
72
69
91
87
87
87
91
95
93
93
91
91
89
89
86
84
87
87
84
84
84
81
82
82
86
86
87
89
93
93
93
91
87
91
89
93
100
98
104
102
108
108
108
106
102
102
102
102
100
102
104
102
96
89
84
84
81
77
79
79
79
79
81
76
71
66
89
86
87
89
91
93
93
89
93
91
89
89
84
84
89
89
89
86
86
84
86
86
87
89
93
93
98
95
91
91
87
89
87
89
96
100
102
104
108
106
106
104
102
104
102
100
104
104
100
95
87
84
81
77
77
77
77
76
76
76
76
72
69
68
87
86
86
91
91
91
91
93
91
91
87
89
87
89
93
93
89
86
87
91
91
89
87
87
93
93
95
91
93
91
91
87
86
89
93
98
104
106
102
100
102
100
98
98
100
98
100
96
87
81
81
79
79
79
79
76
76
72
71
74
72
74
72
69
86
87
89
91
87
86
89
89
89
91
86
89
87
89
91
89
87
86
89
93
89
89
91
93
93
95
91
91
95
93
89
89
87
89
93
98
102
104
100
100
100
98
98
96
95
95
91
84
76
72
74
76
77
81
77
72
74
72
74
76
74
77
74
69
87
89
87
87
87
84
87
91
89
91
87
87
87
91
93
91
86
84
89
95
87
89
93
95
96
93
91
96
96
93
89
89
86
86
91
96
100
102
102
98
95
96
98
95
91
87
81
76
71
71
72
74
77
79
76
72
72
74
76
76
79
76
76
71
84
84
86
86
89
87
89
87
87
91
87
86
87
89
89
91
87
86
91
96
93
87
89
93
95
95
91
96
93
93
93
87
84
89
91
95
100
104
102
98
95
91
95
93
87
82
76
74
69
71
72
72
72
74
74
76
74
74
76
76
79
79
72
68
87
84
86
87
87
87
86
86
82
86
87
84
84
86
89
89
91
91
93
95
96
93
91
93
93
91
93
96
93
91
93
91
86
89
93
98
102
102
100
96
91
89
89
87
81
77
74
71
71
69
71
72
69
71
76
74
74
72
76
76
74
74
69
69
86
86
86
84
84
82
86
84
82
89
89
89
89
89
87
89
91
95
93
93
96
93
89
91
93
96
96
96
96
96
98
95
91
91
95
96
98
98
96
89
86
84
82
79
76
71
71
68
68
68
68
71
71
71
72
72
72
72
76
76
71
68
65
68
86
84
86
86
84
84
87
87
87
91
91
93
89
89
87
91
93
93
93
93
95
91
89
91
96
98
95
98
96
100
102
102
96
93
95
93
93
95
87
82
81
79
77
76
72
71
68
66
63
68
68
69
71
71
72
72
72
74
76
76
72
68
68
68
84
86
87
87
86
86
87
89
87
93
95
91
93
91
89
93
96
95
95
96
98
93
95
95
95
96
96
98
102
104
106
104
100
93
95
91
87
86
82
77
76
76
76
74
71
68
66
66
63
63
69
71
69
71
72
74
74
74
76
76
79
76
76
76
82
86
86
86
86
87
87
87
87
89
93
95
93
93
91
91
95
96
96
96
98
100
98
96
96
100
100
100
104
104
104
104
102
95
91
87
84
84
79
76
79
76
72
71
69
71
66
69
66
68
71
71
74
76
77
77
77
79
81
84
84
82
84
84
86
84
86
86
87
89
87
89
91
91
96
98
95
96
93
91
95
98
96
96
100
104
104
100
98
100
100
98
104
108
108
104
98
89
87
84
81
82
77
79
77
76
71
69
69
69
71
71
69
71
76
82
84
86
89
89
89
91
91
89
87
87
87
89
87
86
86
84
87
87
87
87
87
95
98
98
95
95
96
95
95
96
96
96
98
104
102
98
98
102
100
98
106
106
104
98
89
86
84
81
77
79
81
82
77
76
69
69
65
68
68
71
74
79
84
86
91
93
98
95
95
95
93
95
95
93
95
93
87
86
82
84
86
87
89
89
91
96
98
96
95
98
98
98
96
96
96
96
96
98
98
98
98
104
104
104
104
102
98
91
87
84
82
81
76
77
81
84
81
76
71
68
68
71
71
74
82
87
91
93
95
98
98
96
93
95
95
95
98
98
95
95
89
89
86
84
86
89
91
93
93
95
98
98
98
98
100
96
98
96
95
95
95
96
100
100
102
106
106
106
100
96
91
86
86
84
81
77
74
77
79
84
81
76
71
68
66
71
72
79
87
93
96
96
98
102
102
96
93
95
100
96
96
98
95
93
93
89
87
86
89
89
86
91
96
96
102
104
100
96
96
96
98
98
96
96
96
98
100
100
102
104
106
106
96
91
87
86
86
79
76
76
74
79
81
82
79
76
74
72
71
72
76
84
91
100
102
100
98
98
96
96
95
95
96
95
95
96
96
96
91
89
89
91
91
91
91
93
95
96
98
100
100
96
98
98
96
98
100
104
102
100
100
102
102
104
106
98
91
86
84
86
82
81
77
77
77
81
81
82
82
82
81
79
77
77
82
86
93
100
98
96
95
95
95
96
95
95
93
95
96
96
96
96
91
91
91
93
96
95
95
96
96
98
95
95
95
95
100
100
98
98
100
100
100
102
100
98
96
98
96
93
87
86
86
84
81
82
77
79
82
81
84
84
84
84
84
84
79
81
84
87
95
100
98
96
95
96
96
98
96
96
93
93
95
95
96
95
93
95
93
93
98
96
100
98
100
96
91
95
95
96
95
96
93
98
102
100
98
100
98
95
93
91
89
86
84
86
86
82
81
81
81
82
84
84
86
91
91
87
86
87
82
81
82
87
93
96
96
96
100
98
100
100
96
98
95
93
93
95
96
95
91
93
93
96
98
98
102
98
98
96
95
96
96
95
96
96
95
95
96
96
96
95
91
91
91
87
82
81
82
84
86
84
86
84
86
87
91
93
95
96
96
91
87
86
82
84
82
87
93
95
96
95
98
98
98
96
96
96
95
91
95
96
95
95
91
93
100
102
98
96
98
100
100
98
98
98
98
98
93
93
93
93
91
89
87
87
87
86
84
84
81
81
81
82
82
87
87
87
91
95
96
98
102
102
100
96
89
87
86
84
84
86
93
95
98
98
102
96
93
98
96
95
91
89
95
95
95
93
91
91
100
102
100
98
98
102
98
98
102
98
96
96
91
86
89
87
84
86
86
84
81
81
81
79
81
81
82
81
84
87
89
93
98
100
100
106
106
106
104
100
95
89
87
82
86
86
91
93
96
100
98
96
91
93
96
95
93
91
91
93
96
96
95
96
96
100
102
102
100
102
100
100
98
95
93
91
86
86
86
84
84
86
84
82
76
77
77
81
82
82
84
86
86
86
89
96
100
102
102
104
104
106
108
104
96
93
89
86
87
87
89
91
96
98
100
98
95
95
95
95
93
93
93
93
95
95
96
100
100
100
100
100
100
100
98
96
93
89
86
82
81
81
81
81
82
82
84
82
79
81
82
82
84
87
91
91
89
89
91
98
100
104
100
100
100
102
106
106
98
95
89
87
89
87
91
91
96
96
100
98
96
95
95
96
95
93
95
91
95
95
98
98
98
98
100
100
98
96
93
91
87
84
81
81
77
79
77
79
82
79
86
84
84
84
87
91
93
96
96
96
95
93
93
98
98
102
100
98
102
102
104
104
100
95
91
89
89
89
93
93
96
96
98
98
95
93
95
95
93
93
93
95
95
93
98
98
95
95
98
98
96
91
87
86
82
81
77
81
77
79
79
82
84
82
86
89
89
93
95
96
98
100
98
98
96
93
95
98
96
98
100
104
106
104
102
102
100
95
91
87
86
87
93
93
98
96
98
98
96
93
96
95
93
91
93
95
95
95
96
93
89
91
93
93
89
86
82
82
82
81
77
79
79
79
81
82
86
87
93
96
96
98
98
96
100
100
98
102
96
95
95
96
98
98
102
102
104
104
100
104
100
96
91
87
86
87
91
89
95
98
100
96
98
96
98
98
95
95
93
93
96
93
93
91
86
86
86
86
84
81
77
79
81
77
76
77
81
82
82
84
89
91
96
100
100
98
98
96
96
98
98
98
98
95
96
100
100
102
102
104
104
104
104
108
102
98
93
86
82
86
89
89
93
96
98
96
95
96
98
95
95
96
95
95
95
91
89
84
81
81
82
84
82
79
76
77
77
77
76
79
82
87
87
89
95
91
95
96
98
100
96
98
96
96
98
96
98
96
98
98
96
96
100
104
104
104
102
106
104
100
93
87
82
84
86
87
91
93
95
93
93
96
95
93
91
95
96
96
95
91
81
81
81
79
79
82
81
77
74
74
76
77
79
81
87
89
91
93
95
91
93
95
93
96
96
98
100
98
96
95
100
98
96
98
98
98
98
100
104
102
102
108
106
102
95
87
87
86
84
84
89
91
95
95
93
95
93
95
95
98
100
96
93
91
77
77
79
79
81
84
81
81
81
81
81
82
84
86
89
93
95
96
95
93
95
93
95
98
96
98
100
98
91
93
96
102
96
96
98
95
100
100
102
102
102
104
104
98
93
91
87
86
84
82
89
91
91
91
95
95
93
93
95
98
96
98
96
93
74
77
79
79
79
82
81
82
84
87
86
86
89
89
93
95
96
96
95
93
91
91
89
89
89
93
95
93
91
93
98
98
96
96
95
95
98
100
98
100
96
100
102
96
95
95
89
86
81
79
84
87
87
87
93
95
93
93
95
95
96
93
93
95
72
76
76
79
79
81
82
82
86
87
89
91
93
93
98
98
96
96
89
93
91
87
84
84
84
87
89
91
91
93
93
95
95
96
95
98
98
100
102
100
100
100
98
96
95
95
91
87
82
81
81
82
84
86
89
93
95
95
96
96
93
95
95
93
72
76
76
77
79
81
81
84
87
89
89
95
98
95
98
96
95
95
93
95
89
87
84
81
81
84
86
87
91
91
91
91
96
96
95
95
98
102
104
100
100
100
96
95
91
91
93
89
84
82
79
81
82
84
87
91
95
98
98
96
96
98
93
95
72
76
77
77
82
82
82
87
93
95
95
96
98
96
98
93
91
89
91
89
86
84
81
79
79
82
87
86
86
89
87
93
96
95
95
98
98
104
104
100
100
100
98
96
95
93
93
91
87
81
79
81
82
82
86
87
93
93
93
93
96
93
91
91
71
74
77
82
86
87
91
95
98
98
98
98
100
98
98
95
91
91
89
84
81
79
79
79
79
77
82
86
86
86
89
91
95
93
96
100
100
98
104
102
104
100
98
98
98
98
96
96
91
86
81
81
82
81
84
84
87
91
95
96
96
95
91
91
74
76
81
84
89
95
96
100
102
104
102
102
104
102
98
95
91
91
86
79
81
79
79
79
82
81
81
82
86
87
84
91
93
91
95
98
100
96
96
98
102
100
96
96
98
100
98
100
95
87
82
79
77
79
79
82
87
87
93
96
95
96
95
93
77
79
84
91
96
98
102
102
104
104
102
104
104
98
95
91
91
91
86
86
86
84
82
82
82
82
79
77
82
86
84
91
87
89
93
95
96
96
95
95
96
98
98
96
98
98
100
100
98
91
84
79
81
79
76
77
81
86
89
95
91
95
96
96
79
84
91
98
98
100
102
102
100
102
102
100
100
96
93
91
89
87
89
89
87
86
84
84
84
87
84
77
82
87
87
89
89
89
93
91
93
96
96
96
96
96
98
98
98
96
100
100
96
93
87
84
84
81
76
77
79
82
87
91
93
93
96
95
86
93
98
98
100
102
104
102
102
102
100
102
100
96
91
87
87
87
87
91
91
89
86
86
87
95
91
84
82
89
89
86
91
93
91
93
93
100
102
98
96
96
100
98
96
95
96
96
98
95
89
84
81
81
76
76
76
79
86
87
93
96
98
96
93
96
98
98
100
104
102
100
102
104
104
100
95
93
89
86
89
93
89
91
91
87
87
89
89
93
93
87
87
86
86
86
91
91
93
91
91
96
98
98
96
96
98
95
95
96
100
96
96
96
91
84
82
77
72
72
72
76
79
84
89
95
96
98
96
96
98
100
98
100
102
104
104
100
100
100
96
91
87
87
91
93
89
86
86
89
91
89
89
93
91
89
87
87
86
86
87
89
91
91
93
93
95
95
96
93
93
93
91
95
96
98
96
96
93
86
84
81
79
76
72
76
77
82
86
91
95
96
98
98
100
98
96
96
96
96
96
95
96
96
93
89
87
89
91
89
87
86
86
87
89
89
91
93
91
87
87
91
86
84
87
89
91
93
95
93
91
91
93
91
89
91
89
93
98
95
93
93
93
89
91
86
82
79
77
74
76
81
82
91
95
95
98
100
96
96
95
96
98
95
95
93
91
93
93
91
89
89
89
91
89
89
93
93
93
91
89
89
91
91
93
91
89
86
89
93
95
95
89
87
89
89
87
87
91
91
87
91
98
96
93
95
98
93
91
87
84
79
76
71
72
79
81
89
93
95
96
100
100
98
95
96
96
93
91
87
86
87
93
91
89
93
93
91
91
93
91
93
91
93
93
89
91
93
93
89
89
87
89
91
95
93
87
86
91
87
86
91
89
87
89
91
93
95
95
93
95
89
87
91
87
84
77
72
72
74
79
86
89
93
98
98
96
96
95
95
93
89
89
86
86
87
93
89
91
91
93
91
93
91
89
87
93
93
91
91
89
89
93
91
91
91
89
87
89
91
91
89
91
91
91
91
87
89
91
93
93
95
93
91
93
91
91
91
91
89
81
76
74
71
71
81
87
91
