P2
# 300 of 608 Angiograms
64 64
255
144
142
142
144
142
144
144
144
142
142
142
144
146
150
150
152
154
154
158
158
156
154
150
142
137
137
137
135
139
141
139
137
135
135
135
133
129
127
129
129
129
129
125
121
119
113
110
108
110
110
110
106
104
104
102
104
104
106
104
106
108
110
112
110
144
144
141
141
142
142
142
142
144
142
144
144
144
148
152
152
152
154
156
156
154
150
142
137
135
137
135
135
137
137
135
133
133
129
127
125
123
121
123
125
125
123
125
121
117
112
110
112
110
112
108
104
104
106
102
106
108
104
104
102
106
108
112
110
142
144
142
141
137
137
139
141
142
144
144
141
144
146
148
148
150
150
152
152
148
142
137
137
135
133
133
133
133
133
131
129
125
121
117
119
119
119
117
123
123
123
125
123
119
115
113
113
110
112
110
108
108
108
112
112
110
106
108
106
110
112
113
112
144
142
139
137
139
139
137
139
142
144
146
142
144
144
146
144
146
148
146
144
141
135
135
135
133
129
129
129
129
129
127
123
119
115
113
113
117
119
119
123
125
127
127
125
123
121
121
117
115
113
112
112
110
112
115
113
112
108
108
108
108
113
113
113
142
139
137
137
141
141
141
144
146
146
146
144
144
144
146
146
144
144
139
137
135
133
135
135
133
129
127
131
129
127
123
117
115
117
113
115
117
121
123
129
131
131
131
129
123
125
125
123
121
119
119
115
115
115
115
115
113
110
108
112
112
110
113
115
142
141
139
139
144
142
144
144
146
146
144
144
144
142
144
142
141
135
131
133
133
131
133
133
133
131
129
129
125
121
117
113
113
115
117
119
121
125
127
131
133
135
135
133
129
127
123
121
121
125
123
121
119
117
119
123
121
115
113
113
113
112
115
117
142
142
141
142
144
142
142
142
144
144
144
144
141
141
141
137
131
129
127
129
131
133
135
133
133
133
131
129
123
117
115
115
117
119
121
123
123
125
129
131
133
135
133
131
127
121
117
117
117
119
121
119
119
121
121
121
121
117
115
115
113
115
115
119
142
142
139
139
137
139
141
142
142
141
142
141
139
139
137
133
129
129
129
131
133
137
137
135
135
135
131
129
127
121
121
123
127
129
129
129
127
129
131
131
133
129
125
119
113
108
104
102
104
106
110
113
115
117
117
117
117
115
113
115
115
117
117
121
139
139
139
137
135
137
141
141
141
141
141
142
141
139
137
131
131
133
137
139
141
139
137
139
137
139
133
133
129
127
129
133
133
133
131
129
131
131
127
123
117
113
108
104
102
100
96
95
93
95
96
98
104
106
108
108
110
113
113
115
117
119
121
121
133
135
135
135
137
139
139
137
139
142
144
144
142
139
139
135
137
139
142
142
142
141
137
135
135
139
137
135
135
135
135
139
139
137
133
131
129
121
115
110
104
102
98
98
100
95
95
93
91
93
89
91
95
93
93
96
100
104
110
112
117
119
119
119
135
135
135
133
137
137
135
137
139
139
141
142
142
141
139
139
141
141
139
137
137
133
133
131
131
135
135
139
139
139
139
142
144
139
133
125
117
112
106
102
98
96
96
96
95
93
96
98
98
96
93
91
93
93
91
91
91
95
98
100
106
110
113
115
131
131
129
129
127
125
123
123
127
131
135
137
141
139
139
139
137
131
125
121
121
119
117
117
119
123
129
133
139
141
141
142
142
137
127
115
106
102
98
93
93
95
98
95
95
100
104
108
112
108
104
100
96
95
93
91
91
91
93
95
98
100
104
108
113
113
110
108
106
106
102
100
104
108
115
121
127
131
133
129
121
113
108
106
102
100
98
100
102
104
110
117
123
127
131
133
131
121
110
102
98
95
91
87
91
96
100
102
106
112
113
117
117
115
115
113
108
106
100
100
98
95
93
93
93
93
95
96
87
86
81
77
77
74
74
74
76
82
87
95
102
110
115
112
104
100
98
98
95
91
91
93
95
95
96
98
102
106
110
112
106
96
93
91
87
87
87
87
95
98
102
108
112
113
113
117
117
119
121
121
119
117
113
110
106
102
98
96
93
89
93
91
72
71
68
65
63
60
59
59
58
60
63
66
72
77
84
87
87
89
91
93
93
93
95
93
93
93
93
93
93
91
91
86
82
82
79
77
79
79
81
86
89
95
98
102
102
102
104
108
110
112
113
113
117
117
117
113
112
112
106
102
98
95
93
91
66
65
62
59
56
54
51
51
51
47
46
47
49
49
51
56
60
66
72
79
84
87
89
91
91
93
91
93
91
89
82
76
69
69
69
72
76
79
79
82
86
87
86
86
86
86
87
89
91
91
93
98
102
104
104
108
108
110
108
102
100
98
96
93
65
62
62
59
58
55
52
50
47
43
43
42
42
39
39
39
41
44
50
55
65
72
79
86
89
93
93
93
91
86
77
72
69
69
74
76
79
84
84
82
84
86
84
82
81
77
76
79
81
81
81
84
84
87
93
98
102
102
102
100
96
96
95
93
66
63
65
63
59
58
56
51
44
43
42
40
38
35
35
34
33
32
36
40
45
52
62
72
81
86
87
91
87
81
76
71
71
72
77
81
84
87
89
86
87
87
86
82
81
76
76
74
79
79
76
74
74
77
81
84
89
91
95
93
93
91
89
89
66
66
65
63
60
58
54
51
47
44
42
37
33
31
31
31
29
30
34
36
38
41
45
54
63
71
77
79
81
77
74
69
74
77
84
87
89
91
95
93
95
93
91
86
84
79
77
76
77
77
72
74
72
74
76
79
81
86
87
93
89
89
89
93
68
66
66
65
63
58
54
49
47
45
40
34
31
29
29
28
29
32
34
36
36
38
41
45
51
58
66
74
76
76
72
74
79
87
93
96
98
98
100
102
104
102
100
95
91
87
81
79
79
77
77
79
77
77
77
77
81
84
89
96
96
93
95
100
71
69
68
68
66
62
56
52
51
46
40
35
32
31
30
29
31
33
34
34
38
37
39
42
46
52
58
65
71
74
76
81
89
96
100
102
104
110
115
115
115
115
112
108
104
100
96
91
87
84
84
86
84
82
79
81
86
87
91
98
102
102
106
112
76
74
72
72
72
66
62
58
54
46
40
35
34
32
32
33
35
35
36
35
36
37
39
42
44
47
52
56
62
68
79
87
96
100
104
110
115
121
125
125
125
123
123
123
121
119
115
112
108
104
100
98
95
93
87
87
87
91
95
100
104
110
113
115
81
81
81
82
81
74
65
60
55
49
40
36
34
34
34
33
34
36
36
35
37
36
38
40
43
46
49
52
55
59
69
82
95
102
106
113
117
121
121
121
121
121
123
125
125
125
125
125
123
121
117
113
110
106
98
96
91
91
96
102
108
112
115
119
79
81
84
87
86
81
72
65
59
50
42
39
37
38
39
38
36
37
36
35
36
35
37
39
40
43
46
47
50
54
58
69
84
95
100
106
106
108
108
110
112
113
117
117
117
121
123
123
129
127
125
123
121
119
113
106
100
96
98
102
110
113
117
119
74
76
82
87
87
86
81
74
66
56
47
44
44
45
45
43
42
41
40
38
37
38
40
38
40
42
43
43
45
47
51
56
68
82
95
100
100
102
100
96
96
98
102
100
102
106
112
119
123
123
123
123
121
121
117
112
106
102
98
100
108
113
115
117
69
72
81
87
89
87
86
81
77
69
56
52
54
56
55
50
45
43
43
40
40
41
41
40
40
40
41
44
41
44
46
51
56
68
82
95
98
100
98
93
91
93
96
95
93
91
95
100
108
113
117
117
117
115
115
113
108
102
96
100
104
110
112
113
72
76
82
89
93
95
95
93
89
84
72
63
60
60
63
58
50
44
43
40
40
41
41
41
42
44
45
45
42
44
45
47
50
58
69
84
93
95
95
91
93
93
93
89
87
86
84
87
93
98
104
106
108
110
110
110
106
98
95
96
100
106
108
112
77
81
89
95
100
104
106
102
96
91
86
76
69
65
63
62
54
47
45
44
42
42
43
43
44
44
43
45
46
45
44
46
46
51
59
72
82
89
87
87
87
89
86
84
84
86
84
84
84
87
89
91
93
96
100
102
98
95
93
95
100
104
108
108
82
91
96
100
106
112
110
108
104
96
93
89
84
76
69
65
59
58
59
56
50
45
44
45
46
45
44
44
44
45
45
45
46
50
56
68
77
84
84
84
86
84
82
84
84
82
82
82
81
81
81
82
86
87
89
89
89
89
87
87
95
102
106
106
95
98
102
110
113
117
113
110
108
104
100
96
93
89
82
76
72
71
69
66
62
54
50
47
46
46
46
45
44
45
45
45
46
50
56
66
72
79
82
84
86
84
82
81
81
81
79
77
77
77
79
79
79
84
84
82
81
79
79
82
89
96
102
102
102
106
112
119
121
121
121
115
112
110
108
104
102
98
96
91
86
82
79
74
69
63
56
52
49
46
45
44
44
42
44
45
45
50
54
62
69
72
76
79
81
81
79
77
76
76
76
74
74
74
74
74
76
76
77
76
72
71
69
72
76
81
87
89
113
119
127
131
133
133
131
127
121
121
119
115
113
110
106
102
98
93
91
87
77
71
63
60
55
49
45
45
42
41
42
44
44
47
52
59
65
66
68
71
72
71
71
69
69
69
69
69
68
66
65
63
63
66
66
65
62
62
62
62
63
66
69
72
129
137
142
148
148
148
144
141
137
137
137
135
133
131
123
117
110
104
100
98
93
82
72
68
65
58
50
47
44
41
40
44
47
49
52
58
65
65
68
68
66
65
66
66
65
63
63
65
65
63
60
60
60
60
59
58
55
56
56
58
58
58
62
63
142
150
158
161
163
158
152
146
144
146
148
150
150
148
142
135
127
121
115
110
104
95
87
77
72
69
60
51
47
45
45
46
50
52
56
60
65
65
65
66
62
63
66
63
60
59
58
62
65
66
63
60
60
62
60
54
54
54
55
58
56
55
59
60
152
158
161
161
161
158
150
146
146
146
152
152
156
158
156
152
146
139
135
127
119
112
100
91
82
74
69
62
55
51
50
51
54
59
59
62
65
65
65
68
66
66
65
60
60
60
58
60
62
65
65
66
65
62
58
55
55
56
56
58
55
58
59
60
152
154
156
158
158
154
146
142
144
146
148
152
154
158
158
156
156
154
150
144
137
131
123
115
100
87
77
72
68
60
59
60
62
63
59
59
65
65
66
69
68
65
68
65
63
65
63
63
65
63
65
69
65
60
56
56
58
58
56
56
59
59
62
62
148
148
150
152
152
148
142
141
142
146
146
148
150
152
152
158
159
159
159
156
152
148
142
135
125
113
102
89
82
72
71
69
68
66
65
65
66
66
68
71
72
69
71
68
68
69
69
68
66
65
66
68
66
60
60
59
59
58
59
62
63
63
63
65
148
148
148
146
146
144
139
141
142
142
144
148
150
148
148
154
161
161
159
158
154
152
146
141
135
129
121
113
102
91
84
81
76
71
71
71
72
71
71
72
76
76
72
72
71
72
72
72
72
72
71
71
68
63
63
62
62
60
63
66
69
71
69
69
150
148
146
144
146
144
139
139
139
139
141
146
150
150
146
152
159
159
159
158
152
148
146
139
135
135
129
125
117
110
102
93
87
82
81
79
82
82
77
77
81
82
81
81
81
81
79
79
77
77
74
71
68
68
69
68
66
66
71
72
76
76
74
72
150
148
146
146
146
142
139
135
135
135
137
142
148
146
146
152
158
159
159
156
150
148
144
139
135
135
131
127
125
121
113
106
102
98
100
98
100
95
91
87
87
87
87
87
89
89
91
87
82
82
77
74
72
72
72
69
71
74
79
79
82
84
82
77
148
148
150
148
146
141
135
131
131
131
131
137
144
146
146
152
156
159
158
152
148
148
144
139
135
135
135
131
131
127
121
115
110
108
110
112
113
112
110
106
102
96
95
95
95
96
96
91
86
84
82
81
81
77
74
68
71
76
81
84
87
89
86
82
146
146
146
146
142
137
133
129
131
127
129
133
142
146
150
154
154
154
154
148
148
146
142
139
137
139
135
135
133
131
127
121
112
110
112
112
117
123
125
123
119
113
108
106
102
98
98
91
86
84
84
84
84
79
74
71
72
76
81
82
87
87
86
81
146
142
144
144
142
137
133
127
129
127
127
133
142
146
150
152
154
152
150
146
146
146
144
139
137
137
137
133
133
135
131
123
113
112
112
113
123
129
133
135
135
127
121
115
112
104
100
95
89
87
87
87
86
81
76
74
76
79
84
86
86
86
84
79
146
144
144
144
142
141
135
127
129
125
125
129
141
146
148
150
150
150
146
142
142
144
144
141
139
135
135
137
135
137
133
123
113
108
108
113
121
131
133
137
139
133
131
125
123
113
106
102
98
95
95
93
89
86
81
79
77
79
82
82
86
84
82
79
146
146
146
144
144
141
137
129
131
127
127
129
137
144
146
150
152
148
148
144
142
144
142
142
142
141
141
142
139
137
131
119
108
96
96
106
121
129
133
135
137
135
133
131
129
123
113
110
112
110
106
100
96
91
84
81
81
81
84
87
86
84
82
81
148
148
148
146
144
144
137
131
131
127
125
129
133
141
146
148
150
148
146
146
146
146
144
142
142
142
146
144
142
137
127
112
98
89
89
102
121
131
137
139
142
141
137
137
135
127
117
115
115
117
115
112
108
98
91
86
84
86
87
87
87
84
82
79
144
146
148
148
148
144
137
133
131
131
131
131
133
137
144
148
146
146
146
146
144
144
142
141
141
139
141
144
142
135
123
110
96
86
87
100
121
131
137
142
146
146
146
144
141
131
121
115
117
119
117
115
115
110
98
91
93
95
95
93
91
87
84
81
144
146
148
150
150
144
137
135
135
137
137
135
135
135
141
148
146
146
146
146
142
139
141
141
139
139
142
144
142
135
125
108
95
87
89
100
119
131
137
144
146
150
150
148
139
131
123
117
117
121
119
119
117
113
102
95
96
104
100
100
98
93
89
87
146
148
148
146
148
148
139
139
139
139
139
137
133
135
135
142
146
146
148
146
139
135
139
144
142
141
144
146
141
133
125
108
96
93
96
104
117
129
137
142
148
152
150
146
141
135
123
119
115
117
117
119
117
112
104
96
100
108
110
106
104
102
98
93
144
148
150
148
150
148
142
142
144
144
141
139
135
135
133
137
144
146
148
144
137
135
141
146
144
142
146
146
141
131
123
106
98
96
100
112
121
131
137
139
144
148
148
144
141
135
127
121
117
117
115
115
112
106
102
96
102
108
112
110
108
108
106
104
141
144
146
146
146
146
144
144
148
152
146
141
137
135
129
133
139
142
144
141
135
137
142
146
144
141
146
142
139
131
123
110
102
100
106
115
123
133
135
135
137
142
144
141
137
131
127
123
121
117
112
108
104
102
98
96
102
108
112
112
112
112
112
108
137
139
141
142
142
148
146
146
150
154
150
142
137
137
131
127
131
137
139
135
131
137
141
146
144
142
144
142
139
133
123
110
108
106
112
119
125
133
133
133
135
137
139
139
135
129
125
121
123
117
108
102
100
100
98
98
100
108
113
113
113
113
113
117
135
139
141
142
144
146
146
146
152
154
150
144
141
137
133
127
127
127
129
127
127
127
129
139
142
141
142
142
139
133
123
112
110
112
115
121
125
131
135
133
133
133
137
135
129
125
119
121
117
115
106
100
96
102
102
102
104
110
115
113
115
115
115
117
133
139
141
142
142
144
144
148
152
156
152
148
144
139
133
127
121
117
115
112
112
112
115
127
139
139
141
142
139
135
127
115
113
115
117
123
125
129
137
135
133
131
131
129
123
119
115
115
115
113
108
104
108
110
110
112
113
117
119
117
115
115
117
117
131
135
137
139
139
139
141
146
152
156
152
150
146
141
133
127
119
113
106
98
95
102
108
115
133
137
139
141
137
133
125
119
113
113
115
115
119
127
133
135
133
129
127
125
117
112
110
113
115
115
110
112
113
113
113
117
119
123
125
121
115
115
115
117
127
131
131
135
137
139
141
142
148
154
154
150
150
144
137
127
119
112
102
96
91
91
98
112
129
133
133
131
131
129
125
121
119
119
119
117
119
125
131
135
133
131
129
123
113
110
112
113
117
117
119
119
117
117
117
115
119
125
127
123
119
115
115
117
129
129
129
133
137
139
137
139
144
152
156
152
152
150
141
131
121
108
104
104
96
89
95
113
129
129
129
127
129
129
127
125
127
127
127
125
125
127
133
137
139
137
133
125
117
112
113
117
121
125
123
121
121
119
117
119
121
123
129
121
117
115
117
119
129
129
131
133
135
137
137
137
137
142
150
152
152
150
146
135
125
112
106
110
100
95
102
119
131
133
131
131
131
135
135
135
133
133
131
127
127
131
135
137
141
141
137
131
125
119
117
119
125
127
125
119
121
121
117
121
125
123
125
121
117
115
115
117
131
131
133
133
135
135
137
135
131
135
142
144
146
150
146
141
131
119
112
108
100
100
110
127
135
135
135
133
135
135
139
139
139
137
133
129
129
133
137
135
137
139
139
133
131
127
125
125
125
127
123
119
123
119
117
119
121
121
119
119
119
115
113
115
133
133
133
135
133
133
133
129
125
129
135
139
141
144
144
142
135
125
117
112
108
108
119
133
137
135
135
133
131
137
137
139
137
137
135
131
129
135
141
139
137
139
137
135
135
135
129
125
123
125
123
121
121
117
115
119
121
121
117
117
119
115
113
117
131
129
129
129
129
129
127
125
123
127
131
137
141
142
144
142
137
127
119
115
113
117
125
133
137
137
135
135
133
133
135
137
137
139
135
131
131
135
139
137
135
135
131
133
135
139
133
127
121
121
119
117
113
110
110
113
115
117
117
121
119
115
113
115
127
125
125
127
127
125
123
121
127
129
129
137
142
141
142
141
135
125
117
113
115
121
125
131
133
137
135
133
133
131
133
133
135
135
133
129
131
133
135
133
133
133
129
131
137
139
133
133
127
123
115
112
112
108
106
108
110
113
117
121
119
115
113
115
127
125
123
121
121
119
117
123
129
131
129
131
137
141
141
139
131
119
113
115
121
125
125
129
131
133
133
129
131
131
131
133
137
135
127
121
127
131
135
133
131
131
131
131
135
135
135
133
129
123
113
110
112
108
108
108
108
113
119
121
117
113
112
112
125
123
117
112
112
113
119
127
133
129
125
127
131
135
135
133
123
112
113
117
125
125
121
127
129
129
129
131
131
129
131
135
137
131
125
121
123
125
127
127
127
127
129
133
135
135
135
133
129
121
115
112
110
110
110
112
108
113
119
121
117
112
108
110
