P2
# 301 of 608 Angiograms
64 64
255
100
102
102
104
104
106
108
108
106
104
106
102
102
104
102
104
112
113
108
106
108
110
110
113
113
112
110
110
112
112
112
112
115
113
112
110
110
112
110
102
96
91
89
89
89
89
86
84
86
87
89
91
87
84
82
84
84
86
89
89
87
82
81
82
102
102
100
104
104
110
112
108
106
106
104
102
102
106
106
104
108
110
110
108
112
110
110
110
113
112
110
110
110
110
110
113
115
115
112
108
106
106
104
102
93
91
87
86
87
87
87
82
84
84
89
89
87
86
84
84
84
84
87
89
87
86
86
84
102
100
100
104
104
108
110
108
108
104
106
104
106
104
104
104
106
106
108
108
110
108
110
110
112
108
108
108
106
108
110
112
113
112
112
106
106
108
104
102
91
89
87
87
89
91
87
87
84
86
86
87
89
86
84
84
84
86
87
89
89
87
86
82
100
100
102
104
104
108
112
110
104
102
104
102
102
102
98
100
102
104
106
110
108
110
110
112
110
106
106
108
106
108
108
110
108
108
110
108
106
106
106
102
93
89
87
89
91
91
89
89
87
84
84
87
89
87
84
84
82
86
86
86
87
86
86
82
104
102
104
106
104
108
110
106
100
96
98
100
100
98
96
100
102
102
106
110
108
112
110
108
106
104
108
112
110
112
106
106
110
110
110
108
106
106
104
100
95
91
89
91
91
91
89
93
91
86
87
89
89
87
86
86
86
89
84
86
87
87
86
82
100
100
104
106
106
108
106
102
98
95
96
96
96
96
96
98
100
102
106
110
110
110
112
106
104
106
106
110
108
106
106
110
112
110
110
108
106
106
106
100
95
93
95
89
86
89
91
89
91
91
93
93
91
86
86
89
89
89
87
87
86
84
81
77
102
102
104
106
106
108
104
98
98
96
96
95
93
98
98
100
102
102
106
110
108
112
112
106
108
106
104
106
106
106
104
106
108
110
112
112
110
106
102
100
95
91
91
87
87
91
91
93
95
95
95
95
91
84
87
91
89
91
89
86
82
82
79
76
98
100
102
106
108
106
100
96
98
96
96
95
93
96
98
100
106
108
104
108
108
110
108
108
108
106
104
106
104
106
106
108
110
112
112
112
110
106
102
100
95
89
89
87
91
91
93
91
91
93
93
93
91
87
91
93
93
89
84
81
79
81
77
74
96
98
100
104
104
102
98
96
98
95
95
96
96
96
98
102
102
106
108
108
108
106
108
106
104
106
104
104
104
104
104
108
110
112
110
108
106
104
102
98
95
91
86
89
91
91
93
93
95
95
93
93
91
89
91
91
93
86
81
79
79
79
76
76
96
96
96
100
102
100
100
96
96
95
95
98
98
98
98
100
102
106
106
104
106
110
110
102
106
106
104
102
104
100
100
104
106
106
108
106
102
98
96
95
91
89
84
89
89
93
93
91
96
96
96
95
89
89
91
91
87
79
77
77
77
81
76
76
98
98
96
100
100
102
100
98
100
93
93
95
98
98
100
100
104
106
106
104
106
110
106
104
104
104
104
102
100
98
100
104
106
104
108
106
98
93
95
89
86
87
89
91
93
95
91
91
91
93
96
93
89
89
89
84
77
74
76
79
77
79
76
76
96
96
98
96
98
102
98
100
96
91
95
98
98
98
104
104
104
106
108
108
108
106
104
100
102
106
104
102
100
98
100
104
102
100
104
104
98
93
89
89
91
93
95
95
93
95
95
93
95
96
96
89
86
84
79
76
74
74
74
76
77
77
77
74
93
95
95
95
95
98
98
98
96
93
98
96
96
102
106
102
100
104
106
108
110
108
102
100
102
104
104
100
98
100
102
102
100
100
102
100
96
91
89
89
93
93
96
95
95
95
95
95
95
96
95
87
81
76
72
71
71
72
76
77
77
77
82
79
91
93
95
95
93
96
96
98
96
98
100
95
95
98
100
98
98
100
102
104
106
108
102
100
100
102
104
104
100
98
98
98
100
102
98
95
91
89
86
89
89
91
95
93
93
95
96
96
96
95
89
81
74
69
69
71
71
72
76
79
77
79
79
77
95
93
95
95
96
95
96
98
98
96
95
95
95
96
96
98
98
104
106
104
102
106
102
100
98
102
102
102
102
100
102
102
102
104
96
91
87
87
87
89
87
87
87
89
93
93
95
95
91
87
79
72
68
66
69
74
72
74
72
76
79
81
79
81
98
96
96
95
98
98
96
102
100
96
96
98
100
96
95
96
100
104
106
104
106
108
102
100
104
106
104
106
106
104
104
104
104
102
95
89
86
86
86
87
87
87
87
89
93
91
87
86
82
76
69
71
66
68
71
76
74
74
74
76
76
77
81
81
98
96
96
96
96
98
100
102
102
98
96
96
96
96
98
95
98
102
102
106
104
108
104
102
102
102
102
104
104
106
106
102
98
96
91
89
87
84
84
86
87
89
93
89
89
86
82
81
76
69
66
68
66
66
71
72
74
74
74
77
77
76
81
82
96
96
96
96
96
98
102
100
100
96
96
98
96
96
96
96
98
102
102
104
104
104
102
100
100
100
104
104
106
106
104
98
96
91
86
89
89
87
89
91
89
91
91
87
86
84
82
77
71
69
66
65
63
68
71
71
72
74
74
79
79
77
79
81
96
96
96
96
95
98
98
96
98
100
98
98
95
96
96
93
96
98
102
104
104
102
98
98
102
106
104
102
100
104
104
98
96
91
87
87
91
91
87
91
93
91
86
84
81
81
77
72
69
66
63
62
62
65
69
69
72
72
76
77
79
79
79
81
96
96
96
98
98
98
96
95
96
95
96
95
95
96
96
93
95
96
98
100
98
102
100
98
98
102
102
98
98
100
98
95
95
89
87
87
91
91
91
91
87
86
82
81
79
76
74
71
66
63
59
58
56
62
68
71
71
72
76
76
79
82
86
87
96
98
98
100
100
100
96
93
91
95
98
96
95
95
93
91
95
96
100
98
100
104
104
100
96
98
100
98
98
96
91
87
89
87
87
91
89
93
91
89
86
82
77
76
77
76
76
68
62
60
59
58
56
60
68
71
72
74
81
84
84
87
91
93
96
98
98
98
102
102
98
95
91
96
96
96
95
96
95
95
95
96
95
96
100
100
102
96
100
100
98
98
95
93
91
89
91
91
87
87
87
91
89
86
82
79
76
74
76
79
76
71
63
60
59
59
58
59
68
72
74
81
86
87
91
95
98
98
98
100
98
96
100
102
100
96
95
96
93
95
95
98
98
98
98
98
95
95
96
96
100
100
100
100
96
96
91
87
89
89
91
93
91
95
91
89
87
82
79
74
76
77
77
77
74
74
71
63
62
58
59
62
69
74
79
87
91
91
93
95
98
100
102
98
98
96
100
104
102
96
96
96
95
95
93
96
98
100
100
100
98
96
93
98
104
104
104
98
98
95
89
89
89
89
93
91
91
95
93
87
84
79
74
72
76
79
77
76
74
79
76
69
66
63
63
66
72
76
81
91
95
95
95
96
96
98
100
98
98
98
100
102
98
95
95
96
98
96
96
96
100
100
100
100
100
102
98
98
102
104
102
96
96
95
93
89
87
91
96
95
95
93
91
86
81
76
74
72
74
76
74
76
76
77
79
72
69
68
66
71
76
77
82
89
95
96
98
98
98
100
100
98
100
100
98
100
98
95
95
96
100
100
98
96
102
102
104
106
100
100
100
100
100
100
100
95
91
93
95
91
89
95
96
95
95
93
87
82
76
71
72
74
72
71
72
74
74
77
76
76
77
74
72
74
77
81
84
87
91
95
98
100
100
100
98
96
96
98
98
98
98
96
96
95
95
98
100
100
100
98
100
102
100
100
100
100
100
104
96
91
91
93
89
89
93
96
98
96
95
89
84
79
72
69
68
72
74
71
72
69
69
72
77
82
86
82
81
79
79
86
87
89
91
93
98
102
98
98
95
91
95
96
100
98
98
98
98
98
98
100
102
100
98
95
96
100
102
100
100
100
100
98
93
93
91
91
87
91
93
95
93
93
91
87
81
77
74
71
72
77
76
69
71
71
72
76
84
87
89
89
84
84
81
84
87
91
91
93
93
96
98
96
91
91
89
95
98
93
95
96
96
98
102
100
102
102
100
102
98
100
102
102
102
100
96
95
93
91
95
95
91
93
95
95
91
91
89
81
77
76
74
74
74
76
72
69
71
74
79
84
89
91
95
95
93
91
89
89
89
91
93
93
93
95
98
96
95
96
95
95
95
95
95
95
96
98
98
98
102
102
100
102
100
102
104
104
102
98
93
91
89
91
95
91
91
91
93
91
89
87
82
77
74
74
74
76
76
74
72
71
74
79
84
89
93
91
93
98
100
96
93
91
87
89
91
93
91
93
96
98
95
95
93
93
89
93
98
98
96
100
98
100
98
102
104
102
100
102
104
102
98
93
91
93
89
91
93
89
87
87
89
86
82
81
77
77
74
71
71
72
74
76
74
77
81
86
91
91
96
93
96
100
104
98
95
93
91
95
95
93
89
89
93
95
96
95
91
86
89
95
96
96
96
100
98
102
98
100
100
100
104
102
100
96
93
93
91
93
91
89
91
89
89
87
82
79
77
74
74
76
72
71
72
74
76
77
79
84
89
91
95
95
96
98
98
102
106
100
95
91
93
95
93
89
84
89
91
93
98
96
95
91
96
98
98
100
100
100
98
100
98
102
100
100
102
100
98
96
95
95
93
95
95
91
89
87
86
81
77
77
72
72
71
71
69
69
74
76
77
82
87
91
93
93
96
96
96
95
96
98
102
98
98
93
95
95
91
87
84
86
93
91
95
93
93
95
98
100
100
102
100
100
98
100
98
100
100
98
98
96
95
95
93
95
95
93
91
86
84
82
77
76
72
74
74
71
71
68
71
72
77
79
82
89
93
96
93
91
96
95
93
93
96
102
100
100
100
95
95
95
91
89
86
87
91
86
91
91
91
95
98
102
102
100
100
100
102
102
100
104
104
100
96
95
96
96
95
93
91
89
86
82
79
76
72
72
74
76
74
71
69
72
76
79
82
84
89
91
91
96
93
95
98
98
98
100
102
104
102
100
98
96
98
96
95
91
89
87
84
79
91
91
91
95
98
98
100
102
98
100
102
98
102
102
102
100
96
93
93
93
91
89
87
84
81
79
76
74
72
72
74
72
72
76
77
77
79
84
87
91
91
91
89
93
96
100
96
96
98
98
104
106
104
100
98
98
100
100
102
98
91
87
86
84
93
95
93
95
98
96
100
104
98
98
98
98
100
98
98
100
98
98
95
91
87
82
79
77
76
76
74
71
72
72
72
74
77
81
81
79
81
84
89
95
93
93
95
93
96
100
98
96
98
100
102
104
104
104
100
102
100
104
104
102
98
93
91
87
93
93
95
96
100
100
100
104
102
98
100
98
100
100
100
100
98
96
93
87
82
76
77
76
76
74
74
72
71
72
76
79
82
84
84
84
82
86
91
95
93
95
95
95
95
95
98
96
100
98
98
100
104
106
104
102
102
104
104
100
102
98
96
93
95
95
96
96
102
104
100
102
100
102
100
98
98
98
98
96
95
89
86
81
77
71
74
76
77
74
76
76
77
77
81
84
87
89
89
89
86
86
93
93
93
95
95
95
96
98
96
96
96
98
98
98
104
106
104
102
102
104
102
102
104
102
98
96
95
95
98
98
102
102
102
102
104
100
102
102
98
96
96
93
89
84
81
77
76
74
74
72
72
74
74
77
79
81
86
89
87
93
95
93
91
89
93
93
95
96
98
100
100
98
96
95
96
98
96
96
102
108
104
106
104
100
102
104
102
102
102
100
95
95
100
98
102
102
104
104
102
100
98
98
98
96
93
87
82
79
77
74
77
74
74
74
76
76
79
79
81
84
87
89
89
91
96
96
96
96
96
95
93
95
96
96
98
96
98
96
93
96
98
96
98
100
102
104
104
98
98
100
102
100
100
96
100
98
98
102
102
100
102
102
100
98
98
98
98
95
91
87
79
77
77
76
76
76
76
77
77
77
79
81
84
86
89
87
93
95
95
96
96
98
100
96
93
93
98
96
96
96
98
95
95
96
98
98
96
100
102
104
100
98
98
98
102
102
98
95
96
98
100
102
104
102
100
100
98
98
100
98
93
87
86
84
77
76
76
76
79
79
79
77
81
81
84
86
87
89
91
89
95
96
95
95
96
98
100
98
98
100
100
98
100
96
95
93
93
98
100
102
102
104
106
102
98
98
100
98
100
104
98
98
96
96
102
102
104
104
100
100
96
96
96
93
86
82
82
81
74
77
77
76
82
81
82
81
79
82
87
87
86
87
89
93
95
96
96
93
96
98
100
98
98
98
96
96
98
98
95
91
93
96
102
100
104
104
100
98
96
98
98
96
98
98
98
98
95
98
100
100
102
102
100
98
95
93
91
86
81
79
84
79
77
76
77
76
82
81
81
82
79
84
89
89
87
89
93
96
96
93
95
95
98
96
98
96
95
96
95
96
98
96
95
95
96
100
102
104
102
102
102
100
98
96
100
98
98
96
96
102
98
98
98
98
98
98
96
93
89
87
86
82
82
81
81
81
82
77
79
79
81
81
81
82
82
87
89
89
91
93
96
98
96
91
93
96
100
96
95
96
96
96
96
96
96
98
98
96
96
98
100
100
102
104
102
102
102
100
102
100
98
98
100
104
102
98
96
98
96
93
89
87
86
84
77
79
81
79
82
82
81
81
82
81
81
82
82
82
84
87
89
91
93
95
98
98
96
93
95
96
98
98
96
96
98
96
98
100
95
96
98
96
96
98
100
100
100
102
102
100
100
102
100
98
100
102
104
108
98
98
100
96
91
86
84
79
81
79
77
79
77
77
81
84
79
84
86
86
84
82
81
82
87
89
89
93
95
98
98
100
100
100
98
98
96
96
95
98
98
95
95
98
98
98
96
96
98
104
106
102
100
102
98
100
98
98
102
100
100
102
104
106
100
98
98
91
86
82
77
72
74
79
77
77
79
79
84
84
82
82
84
86
86
86
87
93
91
89
89
95
98
100
104
102
100
98
96
100
100
96
96
96
95
95
98
100
102
98
98
102
100
104
104
102
106
104
100
102
102
102
104
102
100
102
106
104
98
96
91
86
81
81
77
71
69
77
81
81
81
79
81
82
82
81
86
86
86
87
89
91
91
91
93
98
98
96
98
100
98
95
95
98
100
96
95
91
91
95
98
100
100
96
96
100
100
102
104
102
102
98
98
106
106
104
102
100
100
102
106
104
96
91
84
79
76
76
76
76
77
76
79
81
77
77
79
77
82
84
87
89
91
91
89
87
91
93
96
100
98
98
98
96
96
95
95
98
98
96
91
89
91
95
102
104
100
96
96
102
100
102
102
100
100
98
100
102
104
104
104
102
98
98
100
102
91
84
79
76
76
77
76
76
79
79
77
77
74
77
79
81
86
89
87
86
89
89
87
89
93
91
95
98
100
102
98
96
98
100
100
100
100
96
93
93
95
98
104
104
104
104
102
104
102
102
100
98
102
104
102
100
100
104
102
100
98
100
100
100
84
81
76
74
76
76
72
72
76
74
74
74
76
79
79
86
89
91
91
95
91
89
86
86
91
91
93
96
96
102
100
102
100
98
98
102
100
96
96
98
98
100
102
100
102
102
104
102
104
100
104
100
102
100
98
100
98
98
100
98
96
100
100
96
79
76
74
71
76
76
72
72
74
72
74
76
79
81
84
89
91
89
95
96
95
91
89
91
89
91
95
96
95
98
100
100
102
96
100
104
102
100
100
102
100
102
104
102
100
98
100
102
102
102
102
100
100
102
100
95
96
96
96
98
96
96
98
98
74
74
72
71
76
76
72
72
76
71
74
79
82
87
93
96
89
87
93
96
98
96
95
96
93
91
93
95
96
96
98
98
102
100
96
100
96
98
100
100
98
100
100
102
100
98
98
100
100
98
100
100
100
100
98
95
96
96
93
95
95
95
98
98
74
72
74
72
72
74
69
69
71
72
77
84
89
93
95
96
91
91
95
96
96
98
98
98
93
93
93
95
95
93
96
98
98
96
98
100
98
95
96
98
98
98
96
98
100
100
100
102
100
98
98
96
98
95
89
93
93
93
91
91
95
98
96
98
71
71
71
71
69
71
71
69
72
77
84
91
93
95
98
98
96
93
95
98
98
95
95
93
91
91
93
95
93
93
98
98
96
95
95
96
98
95
96
96
96
96
95
95
98
100
102
104
100
96
98
95
93
93
91
93
91
93
91
91
93
98
98
98
72
72
71
68
66
71
71
71
76
82
89
93
96
98
98
98
98
96
96
96
91
89
93
93
93
91
91
93
93
96
98
98
98
98
96
100
98
96
95
96
93
91
89
93
93
95
95
93
95
95
95
95
95
93
91
93
91
93
95
95
95
93
93
93
72
72
71
69
68
68
69
72
79
87
95
95
96
100
100
100
98
98
96
95
96
93
95
95
95
93
91
91
93
93
96
102
102
98
96
98
98
100
98
98
95
93
93
95
93
91
93
93
93
93
91
91
91
91
89
89
89
91
93
91
91
87
89
91
71
71
71
71
68
65
68
76
84
93
96
96
98
100
100
100
100
96
95
95
98
95
91
91
93
93
91
93
96
95
96
102
102
98
102
104
100
96
95
95
96
95
91
91
91
91
91
93
89
87
87
87
89
87
89
86
89
87
87
89
91
93
91
93
71
71
71
69
68
65
69
77
86
93
95
100
100
102
102
102
98
98
93
96
96
93
93
95
93
93
95
96
96
95
96
102
104
104
108
106
100
96
95
95
95
95
93
91
86
87
89
89
87
86
84
86
86
84
86
86
87
91
89
89
89
91
91
91
68
69
71
69
71
68
71
79
87
93
96
100
100
102
100
98
100
96
96
98
98
96
95
93
93
93
95
96
95
95
100
100
102
106
106
104
102
102
95
91
91
93
89
89
86
86
84
82
81
77
79
81
81
81
82
86
86
89
89
91
89
96
96
93
68
71
74
71
72
71
74
81
87
95
98
100
102
100
98
100
100
98
98
98
96
95
95
89
91
95
91
95
96
96
98
98
98
106
106
104
100
100
95
93
91
91
89
82
82
81
82
82
76
77
79
79
79
79
82
86
87
89
93
91
91
95
96
93
71
72
74
74
76
77
79
84
87
95
98
96
96
98
98
98
102
100
100
98
95
95
91
89
93
93
93
95
95
96
98
100
100
106
108
104
100
98
96
95
93
91
86
79
79
79
81
81
77
79
81
79
77
79
81
82
87
87
91
93
93
91
91
87
