P2
# 302 of 608 Angiograms
64 64
255
185
188
191
191
191
191
192
192
194
194
192
188
185
182
178
173
170
172
172
173
172
170
172
175
177
175
177
177
178
177
172
172
170
168
163
158
154
150
148
148
150
154
158
161
161
159
159
161
165
165
165
163
165
163
158
156
152
144
131
112
95
84
84
86
185
188
191
192
192
192
192
192
194
194
192
189
185
183
180
177
173
172
172
172
172
168
172
175
175
177
177
178
180
177
173
172
170
167
161
156
152
146
148
148
150
154
158
163
161
159
159
159
163
165
163
161
161
158
154
152
142
129
110
89
79
74
76
79
185
186
188
191
192
192
192
194
192
194
194
191
185
182
182
180
178
175
175
173
173
172
172
175
177
178
178
178
180
178
177
173
168
165
159
154
150
148
152
152
154
154
158
163
161
163
163
161
163
161
159
158
156
152
148
139
123
106
89
77
69
71
74
77
183
185
186
188
189
191
192
194
195
194
192
191
185
183
182
182
180
180
177
175
173
173
173
178
180
180
180
180
180
180
178
175
168
161
156
152
148
148
152
154
156
158
159
163
163
161
163
161
159
158
156
150
146
139
127
115
100
89
81
72
69
72
79
84
178
178
182
186
188
188
191
192
194
194
192
189
186
183
180
180
180
180
180
177
175
175
177
178
178
180
182
180
182
180
178
175
168
159
154
152
150
150
154
154
156
159
161
163
165
163
161
158
156
152
148
137
129
117
108
98
91
86
82
77
81
86
91
98
177
177
180
185
186
188
189
191
192
192
189
189
188
185
183
182
178
182
182
178
175
175
177
178
180
180
180
180
182
180
177
173
167
159
156
154
154
154
150
148
152
159
161
163
163
161
156
152
150
142
131
121
112
104
98
95
89
89
91
93
98
104
108
113
175
177
178
182
185
186
189
189
189
189
188
186
185
185
183
182
180
180
182
180
178
177
178
180
180
180
180
180
180
178
177
170
163
159
156
156
156
156
152
148
150
154
158
159
158
156
154
148
139
127
115
108
102
98
95
95
95
100
106
108
113
117
119
123
175
175
177
178
182
183
185
186
185
185
185
186
185
185
183
183
183
182
182
183
180
178
178
180
182
178
182
180
180
177
173
168
161
158
154
152
152
152
154
152
154
156
154
154
154
154
146
135
123
113
104
98
96
93
96
100
104
112
117
119
123
121
123
127
168
168
170
172
175
177
180
180
182
180
182
182
183
183
183
183
183
182
182
185
183
182
178
178
178
177
178
178
177
175
172
165
161
156
150
150
150
150
152
152
154
154
152
150
150
144
133
123
112
100
93
89
89
93
95
100
108
115
117
117
115
119
121
125
152
150
148
150
154
156
158
159
161
163
165
170
175
178
180
180
182
182
183
185
183
182
178
175
170
167
167
167
165
165
163
158
154
152
148
146
144
150
152
150
150
148
144
142
137
125
117
110
96
84
81
79
82
84
87
91
98
100
100
102
106
112
115
117
115
113
112
113
112
112
110
108
110
113
121
131
146
158
167
173
178
180
182
183
182
177
168
159
152
146
142
141
141
141
141
141
142
144
142
142
142
144
144
144
139
135
129
121
112
104
98
87
77
72
69
68
71
74
76
77
79
81
81
82
86
95
102
104
89
89
87
86
86
84
77
72
69
71
76
82
93
106
127
144
161
172
177
175
170
161
150
142
135
127
123
119
117
113
112
113
117
121
125
123
127
129
131
127
117
110
100
93
86
82
77
69
68
65
62
62
62
66
68
69
69
69
69
71
72
79
86
95
76
76
77
74
72
69
65
59
56
54
54
54
56
63
77
96
115
137
148
152
148
142
135
129
125
119
115
108
104
100
98
96
96
98
98
100
102
104
100
93
87
77
71
68
65
63
63
65
65
65
62
62
62
62
65
66
63
63
62
63
66
72
81
89
69
71
72
72
68
63
59
55
54
50
47
45
44
47
51
59
72
87
100
113
121
123
125
123
121
115
112
104
98
96
93
91
87
86
84
87
89
84
79
74
66
62
59
58
62
62
62
65
68
68
62
63
63
65
63
60
62
60
63
66
69
72
79
87
62
66
68
68
66
63
59
55
52
49
45
43
40
41
42
43
45
46
54
68
84
96
108
115
115
112
110
104
98
93
87
84
84
84
84
82
77
69
66
63
59
56
58
62
65
68
69
69
71
71
69
66
68
68
68
66
66
68
71
72
72
77
84
93
60
63
66
66
66
66
62
58
55
49
44
42
41
38
34
33
31
31
32
37
45
58
76
96
106
108
108
104
100
93
86
86
84
86
84
79
74
66
60
58
58
59
63
68
72
77
79
82
84
84
84
84
84
84
84
82
82
84
84
81
81
86
93
100
63
65
66
68
68
68
66
60
56
50
43
41
36
33
29
26
24
25
25
26
29
35
46
66
89
102
110
106
100
96
93
89
87
86
81
76
72
71
68
66
66
66
72
82
86
91
93
98
100
104
106
110
112
112
108
106
106
104
100
93
91
96
100
108
65
66
66
66
66
65
65
60
55
50
43
37
33
31
28
24
23
23
24
24
24
27
30
41
62
86
100
104
104
100
96
95
93
87
81
76
76
76
76
77
82
87
96
106
108
108
112
113
119
121
123
123
123
123
121
119
119
117
112
106
102
100
106
113
65
66
69
68
66
65
62
60
55
49
41
35
32
28
25
24
24
23
24
25
24
26
26
29
40
60
84
95
100
100
98
96
96
95
86
86
87
91
96
102
113
121
125
129
129
125
123
125
127
125
127
127
127
127
123
123
121
121
117
110
104
102
108
115
63
65
68
68
66
65
62
60
52
45
40
33
29
25
23
24
24
25
24
23
23
24
24
27
30
41
59
79
89
93
91
95
93
93
91
91
98
108
115
125
135
137
137
137
133
133
131
131
131
127
127
125
127
125
123
123
123
123
121
113
104
102
106
115
65
63
65
66
66
66
66
62
54
44
39
30
26
24
22
24
24
24
25
24
23
24
23
26
29
35
44
60
77
84
86
89
89
89
91
93
102
113
125
135
141
141
137
131
131
133
135
133
131
129
127
127
123
123
123
125
121
119
121
115
104
98
104
115
65
65
66
65
66
65
66
63
55
46
40
31
26
24
24
24
25
26
25
25
26
26
25
26
28
33
40
47
59
76
82
86
87
86
86
89
98
108
121
131
135
133
129
127
129
131
133
131
131
129
125
125
123
125
125
123
121
121
123
115
106
102
106
117
65
65
63
65
66
68
68
65
60
54
44
34
28
26
26
24
25
28
26
26
27
26
26
27
29
33
37
42
49
62
74
81
82
82
84
86
93
100
106
115
121
123
125
125
127
129
129
129
129
129
127
127
127
127
125
127
125
121
121
117
110
106
110
119
65
63
65
66
68
72
72
71
68
65
55
42
34
30
29
28
26
29
29
27
28
29
29
28
29
33
37
40
43
50
60
72
77
79
82
82
86
91
96
100
102
108
112
117
123
127
127
127
127
127
129
131
131
127
127
127
125
119
121
119
112
110
113
121
66
63
65
69
72
76
76
76
77
77
72
56
44
40
37
33
31
30
29
28
29
29
26
26
29
33
37
38
40
44
51
62
74
77
79
82
84
84
87
89
89
91
95
104
112
119
121
125
125
125
127
129
129
129
127
127
125
121
121
119
115
115
119
123
66
68
71
76
79
81
82
84
86
86
82
74
59
50
45
42
37
36
35
32
30
28
27
28
30
34
38
37
40
41
44
51
63
76
79
81
82
81
82
82
81
81
84
91
96
102
110
115
119
123
125
127
127
127
125
125
123
121
119
119
119
119
121
125
72
74
79
82
86
87
91
93
96
95
93
89
79
63
52
46
43
40
38
37
34
31
30
32
35
37
36
35
39
41
42
46
55
69
76
76
77
77
77
76
72
74
77
81
82
87
95
102
110
115
121
125
125
125
123
121
119
119
117
115
119
119
121
127
84
91
95
96
100
104
110
110
108
108
102
102
95
81
65
55
49
45
42
40
39
36
35
36
38
37
36
36
40
40
42
45
51
62
74
76
76
76
76
74
71
74
76
76
77
81
84
89
96
106
113
117
119
121
121
119
119
119
115
115
115
117
121
127
106
112
115
117
121
125
127
127
123
117
117
115
110
100
84
69
58
50
47
45
44
42
41
40
39
35
37
36
38
40
41
42
49
59
71
74
74
71
71
72
74
71
71
76
74
77
81
84
86
91
96
100
110
113
115
115
119
119
119
117
117
121
123
129
131
135
137
141
142
142
144
141
137
133
129
127
125
119
106
89
72
59
54
50
47
46
45
43
41
37
38
37
39
41
41
42
46
56
65
72
72
71
71
72
77
74
74
74
72
74
79
79
77
79
82
87
95
96
102
110
113
117
119
121
121
125
129
133
142
142
146
148
148
150
148
142
139
139
137
135
135
133
123
110
91
74
63
55
54
51
50
46
44
41
39
38
38
40
43
44
47
55
63
69
72
72
71
72
74
71
71
69
69
71
72
76
74
76
77
79
82
84
86
95
102
108
113
119
123
127
129
129
142
142
148
148
148
150
144
139
135
137
141
139
139
137
133
125
110
95
79
68
62
58
56
51
46
43
40
38
40
43
44
46
51
55
63
65
68
68
68
68
68
66
62
59
60
63
65
66
68
71
71
72
72
72
74
77
82
95
102
110
115
119
121
123
141
144
148
148
148
148
142
137
137
137
142
144
144
141
137
131
123
115
100
87
77
69
63
59
51
46
43
41
42
43
44
49
55
59
62
66
65
65
60
62
63
59
56
56
56
58
58
60
62
65
65
63
65
65
66
69
69
74
82
91
98
102
106
108
144
146
150
150
150
146
139
135
137
137
142
144
146
144
139
133
129
123
119
110
98
87
77
72
62
54
47
44
44
44
46
52
56
62
62
63
63
60
60
60
59
58
56
55
55
58
56
55
56
58
55
54
59
60
62
65
65
68
69
74
81
87
91
93
150
148
152
152
150
144
139
137
139
139
141
144
150
146
142
137
133
129
131
127
119
108
96
89
79
66
56
51
46
47
50
54
58
63
65
65
65
62
59
60
56
55
56
55
55
56
56
54
54
52
51
52
59
56
55
58
62
62
65
66
69
72
77
82
154
150
152
150
148
144
141
141
139
139
142
148
150
150
148
142
141
139
137
137
135
127
117
110
98
86
74
66
60
58
56
58
60
65
66
66
68
66
63
62
59
56
54
52
52
54
52
52
50
49
50
55
58
59
56
55
59
63
63
63
66
68
68
71
152
152
148
152
150
144
139
141
137
139
144
150
152
154
154
152
146
146
144
144
142
139
133
127
117
110
98
93
86
79
74
69
68
68
69
69
69
68
65
63
62
58
54
50
50
51
55
54
52
52
55
56
58
56
56
55
60
65
62
63
65
63
62
62
152
152
150
152
148
142
137
137
137
139
146
152
156
158
156
154
150
148
148
150
150
146
142
137
133
127
121
117
112
108
98
89
86
86
84
81
76
71
69
68
65
60
56
55
52
54
55
55
55
56
59
59
59
58
59
56
62
60
62
69
68
62
62
59
150
150
150
150
148
142
139
135
135
141
150
156
159
158
158
152
150
148
150
150
148
146
144
139
137
137
135
133
129
127
123
117
113
112
102
96
89
87
81
76
71
66
63
62
60
62
63
62
60
60
62
62
63
60
58
62
65
66
65
66
66
65
63
60
148
150
148
148
146
144
141
135
135
141
152
159
163
161
159
156
154
152
150
146
146
146
146
141
141
142
146
146
142
137
135
135
133
133
127
117
112
106
98
89
81
74
72
74
76
76
74
69
68
66
65
66
68
66
63
66
69
71
68
69
69
68
65
62
146
148
146
146
144
141
139
139
137
144
156
159
163
161
159
158
158
154
152
148
146
144
146
146
148
152
154
152
146
142
141
141
142
144
142
137
129
121
110
98
89
79
76
81
86
86
81
77
74
72
71
69
69
69
68
66
72
74
74
74
72
69
69
66
146
146
144
146
144
137
137
141
142
148
156
161
165
165
163
161
158
154
152
150
148
146
150
152
152
152
152
152
148
142
141
141
142
146
146
144
139
133
121
108
93
84
84
89
96
93
87
82
81
81
81
77
71
66
65
66
71
76
79
74
72
71
69
66
146
146
148
148
142
137
137
141
144
148
156
161
167
167
165
161
158
154
150
148
146
146
150
154
152
148
148
146
144
141
139
137
139
144
146
146
142
133
123
113
102
95
95
98
102
96
93
87
86
84
82
84
76
68
63
66
71
72
72
71
72
72
68
66
150
148
148
148
142
137
135
137
142
148
152
159
165
167
165
159
158
154
150
148
146
146
152
156
154
148
144
142
141
139
135
131
135
142
146
142
139
125
115
113
112
112
113
112
108
100
98
95
91
84
84
82
79
72
68
68
71
71
69
71
72
72
68
68
148
150
150
146
141
135
131
133
139
142
150
156
161
163
161
159
159
158
148
144
146
148
154
159
158
152
144
141
137
131
129
129
131
141
142
137
131
117
112
115
121
131
131
123
115
110
104
100
98
93
86
86
81
74
69
71
71
71
69
68
68
71
66
65
144
144
146
141
137
135
135
137
139
139
142
150
156
159
159
161
161
156
146
144
148
154
159
159
159
152
142
135
129
121
121
123
129
133
135
131
123
115
115
123
131
139
137
129
123
119
113
108
104
98
95
89
86
77
74
76
74
74
72
68
69
69
66
68
137
141
139
135
133
135
137
139
141
141
139
142
150
158
159
163
159
152
146
146
152
158
161
161
158
148
141
131
117
108
110
113
121
127
129
127
125
121
121
129
137
139
135
127
123
123
123
119
115
106
100
95
87
81
79
77
77
77
77
72
72
71
69
71
131
133
133
131
131
133
135
137
139
139
137
137
142
152
158
158
152
148
146
148
156
163
165
161
156
146
139
125
108
98
91
100
115
125
129
129
133
127
127
133
137
135
129
123
119
123
127
129
125
117
112
102
95
87
84
84
84
82
81
76
72
71
69
71
131
129
127
127
129
129
131
133
135
131
127
129
135
142
148
150
146
142
142
148
159
167
168
165
156
142
137
119
102
89
86
96
115
127
133
133
131
127
129
135
135
133
125
125
119
121
123
127
127
125
121
110
104
98
93
93
93
91
84
81
79
76
72
74
127
125
125
123
125
129
131
131
129
127
125
125
125
131
137
139
139
137
137
148
159
167
172
168
158
141
131
115
98
91
93
106
125
133
135
131
127
125
129
135
135
131
123
121
117
119
123
123
125
127
125
117
112
108
104
100
98
96
91
86
84
82
76
74
125
125
127
129
125
127
129
131
129
125
121
123
121
123
121
121
121
121
127
139
154
165
170
170
158
141
129
113
102
98
104
117
133
135
137
129
125
123
129
129
133
129
123
119
119
119
123
123
123
125
125
123
117
112
112
112
112
106
100
93
86
86
81
77
123
123
127
129
127
125
125
129
129
125
123
115
112
110
108
106
100
100
104
121
141
159
167
167
158
142
127
113
106
104
108
127
137
137
133
129
125
125
129
131
131
127
125
123
121
121
125
123
121
121
127
121
117
115
113
115
117
113
112
106
95
87
84
79
121
123
123
125
123
121
121
123
125
127
119
110
108
104
102
96
91
86
87
102
123
148
159
161
156
141
127
117
110
106
115
127
137
133
133
131
127
129
131
135
131
123
125
129
125
125
125
127
123
121
119
115
112
115
115
119
121
117
117
115
106
96
87
86
119
123
125
123
117
117
117
117
121
125
119
110
106
102
96
93
87
86
84
93
113
142
154
154
152
142
129
119
113
112
119
127
135
137
141
139
135
135
135
133
131
125
125
127
129
127
125
123
119
115
112
106
106
113
117
119
121
121
117
119
113
104
95
89
119
123
127
125
119
115
113
117
119
119
115
112
108
102
95
91
89
89
89
98
117
142
150
150
148
142
135
125
119
117
121
129
135
142
146
144
141
137
135
133
129
125
125
127
129
127
123
117
112
106
100
98
102
110
117
117
115
119
117
115
112
108
100
95
123
127
127
125
125
117
112
115
119
115
115
113
110
104
96
95
96
98
100
110
129
144
148
148
148
146
137
129
123
121
125
131
137
144
146
144
141
139
133
127
125
123
127
131
131
125
115
108
100
96
96
96
104
110
117
115
112
113
110
110
108
106
102
102
127
129
125
125
127
117
112
113
119
119
117
117
113
106
100
102
106
110
112
119
133
144
148
148
152
148
141
135
129
127
129
133
139
142
144
139
137
137
129
125
127
127
131
129
125
113
106
98
93
93
96
100
108
112
117
113
113
113
108
106
104
106
106
106
129
127
125
125
123
117
115
119
125
125
121
121
117
110
106
106
110
113
115
117
133
142
148
150
152
150
144
137
133
131
133
139
141
141
139
135
133
129
125
123
123
125
125
123
117
110
100
95
96
98
100
104
110
113
115
112
115
113
110
110
106
106
106
104
125
123
121
121
119
117
117
123
127
127
123
117
117
113
108
110
113
115
115
119
129
139
144
148
152
150
144
141
135
133
131
131
131
131
131
127
123
121
121
117
121
121
119
117
112
108
106
106
106
108
110
113
117
117
117
117
117
117
113
110
110
110
108
102
119
117
115
113
113
117
121
127
127
125
121
117
115
113
110
112
113
115
115
117
127
135
141
142
146
148
142
139
133
129
127
123
123
123
123
119
115
119
121
123
119
117
113
113
113
112
113
115
117
113
115
117
121
123
119
119
119
119
117
113
112
112
108
104
115
112
110
108
112
119
125
127
123
121
117
113
112
113
112
113
115
115
113
112
119
131
135
139
141
142
141
135
129
123
117
113
115
119
119
115
112
115
123
125
125
119
115
113
113
115
117
121
121
113
112
115
119
123
123
119
117
117
117
115
113
112
108
106
113
108
102
102
112
121
125
125
125
117
113
110
112
110
108
110
113
110
108
108
115
127
135
139
137
139
133
127
123
119
117
117
119
121
121
119
115
117
125
129
127
123
119
115
113
115
121
125
121
117
119
121
123
125
121
115
117
113
113
115
113
110
108
104
112
106
102
108
115
121
125
125
123
117
110
110
110
104
102
106
110
112
110
108
110
121
133
142
137
133
127
123
121
121
123
123
121
121
121
119
117
121
129
131
129
125
121
117
113
113
121
121
117
113
117
119
121
123
121
115
115
108
108
112
112
112
112
106
112
108
110
113
115
115
119
123
123
117
113
110
104
100
100
106
112
112
110
106
108
117
131
137
133
131
127
125
125
125
123
123
117
117
119
119
117
123
127
127
127
123
121
117
115
117
119
117
115
113
113
117
119
119
117
115
112
108
110
110
108
115
115
110
