P2
# 303 of 608 Angiograms
64 64
255
108
106
106
108
110
112
112
115
117
115
115
112
108
104
104
106
102
100
102
106
108
110
112
113
113
113
112
112
112
115
115
115
117
113
113
112
113
115
113
113
112
110
106
102
100
96
95
93
93
93
89
89
93
91
93
93
91
95
95
93
93
91
89
87
110
110
110
113
113
112
112
113
115
117
115
113
108
104
104
104
100
100
104
106
108
108
106
108
108
110
106
104
108
110
112
112
117
115
112
112
112
115
112
110
108
110
110
104
98
95
93
91
91
95
93
93
91
91
93
93
93
95
95
93
91
91
93
89
115
113
113
113
113
113
112
110
113
113
113
113
110
104
102
104
106
106
106
110
110
106
106
106
104
104
100
98
100
106
110
113
115
115
113
112
110
113
108
108
110
110
106
100
95
93
91
93
93
96
95
93
93
93
91
93
93
91
93
93
91
93
93
93
117
117
119
115
113
113
110
108
110
112
113
113
110
110
106
106
108
110
110
112
110
108
104
102
104
102
96
96
98
98
106
112
117
117
113
112
112
110
110
108
108
106
98
95
93
91
89
96
95
91
95
93
91
95
93
91
93
93
91
93
91
95
91
95
117
121
123
119
117
115
112
110
112
112
112
113
115
112
108
110
110
112
112
113
112
108
106
104
104
102
96
95
95
96
102
110
113
115
113
112
113
110
112
110
106
104
98
93
91
91
93
96
98
93
93
96
96
98
95
95
95
95
89
89
91
95
93
91
119
123
121
119
117
119
119
119
119
115
115
117
119
115
113
113
112
112
112
113
113
108
106
102
104
104
98
96
95
96
102
108
112
112
110
110
106
106
108
106
102
102
102
96
95
93
93
95
95
95
95
98
98
100
98
96
95
91
87
87
89
93
91
91
121
121
119
123
121
121
119
119
121
119
117
115
117
117
113
113
113
113
113
113
113
110
108
106
108
108
102
98
96
96
104
108
110
108
106
104
104
104
106
104
100
100
100
100
96
93
95
93
95
95
93
96
98
96
96
96
93
93
87
87
89
91
93
95
121
123
123
123
125
119
117
117
117
115
115
115
115
112
112
113
110
110
112
108
115
115
112
108
108
108
104
98
95
95
102
108
106
104
108
106
104
104
102
100
100
98
100
98
96
95
96
95
96
96
98
96
96
95
95
93
89
89
87
87
89
91
95
95
121
123
119
121
121
119
113
115
117
115
117
117
115
115
113
112
110
110
112
112
113
115
112
110
110
108
104
98
93
93
100
106
108
104
104
104
102
102
98
96
96
93
95
96
96
96
95
95
95
95
95
96
96
95
91
91
91
89
86
91
91
91
95
96
121
123
121
119
117
115
115
117
117
115
115
113
113
113
112
110
108
110
110
110
110
112
110
106
106
104
100
96
93
91
98
104
106
104
106
108
104
102
96
96
95
93
89
93
95
96
93
95
93
93
93
93
93
91
93
91
91
91
89
91
93
91
96
98
119
119
119
117
117
113
115
117
117
115
115
113
112
112
108
106
106
104
108
110
112
115
112
104
102
102
100
95
89
91
96
108
106
102
104
106
104
102
96
95
93
91
93
95
96
96
91
91
91
93
93
93
93
89
91
93
91
93
91
89
93
95
96
100
117
117
115
115
113
113
117
117
119
115
113
112
112
110
110
108
106
106
108
112
112
112
108
102
100
98
95
89
86
89
96
104
104
104
102
104
106
100
95
93
93
93
95
96
96
95
91
89
93
93
91
91
89
91
93
93
96
93
89
91
95
96
102
100
117
115
115
115
112
112
115
117
117
115
112
110
110
110
112
110
110
110
108
112
110
106
102
98
95
91
91
87
87
89
96
100
102
104
104
102
100
98
93
93
93
95
98
98
96
93
93
91
89
93
91
89
89
95
95
95
93
91
91
93
96
96
102
102
117
117
115
112
112
113
115
115
115
113
110
108
112
112
110
110
113
112
112
112
110
106
98
95
87
86
87
84
86
89
96
102
106
104
104
102
100
98
95
95
96
96
98
98
96
95
89
87
89
91
93
91
91
95
96
93
93
93
95
93
95
96
100
100
117
115
112
113
113
113
113
113
115
113
108
108
112
113
113
112
112
112
112
112
110
104
96
87
84
86
84
82
86
89
98
104
108
108
106
104
100
98
96
96
98
98
96
96
93
93
89
87
89
91
91
89
89
95
95
93
95
93
96
96
96
96
98
100
113
112
112
115
113
115
115
112
112
112
110
112
112
113
113
113
112
113
112
113
110
102
93
87
87
87
82
84
86
89
98
106
108
108
106
104
100
98
98
100
100
100
96
96
93
91
91
89
89
91
91
89
91
96
96
95
95
96
98
95
95
96
96
96
112
110
113
115
115
113
112
110
110
112
112
110
112
113
113
115
113
113
115
115
108
98
89
86
86
82
81
81
84
89
100
108
110
110
106
104
102
102
98
100
100
96
95
95
93
89
91
91
91
89
91
91
93
98
98
96
96
98
95
95
96
95
95
91
110
113
119
119
115
112
112
112
108
112
113
110
112
113
113
115
112
113
113
112
106
96
89
84
77
77
76
76
84
89
100
108
110
110
106
104
102
102
100
98
100
96
96
95
95
91
91
91
91
93
95
95
96
96
96
100
98
96
98
96
96
93
89
87
113
115
117
119
115
112
110
110
108
113
113
112
112
113
113
113
115
113
113
110
106
93
86
79
76
76
74
74
81
87
100
108
104
108
106
102
100
104
104
104
104
102
98
95
96
93
95
91
93
96
98
98
100
98
100
96
96
95
96
96
95
91
87
87
113
113
115
115
112
108
108
108
108
110
112
112
113
113
113
115
115
113
113
112
104
93
82
79
77
74
74
76
79
86
98
106
104
104
104
100
104
104
104
104
102
100
98
98
95
93
93
95
96
96
95
95
98
98
100
96
95
95
95
91
89
86
84
82
115
115
113
113
108
106
108
110
112
112
108
110
112
112
115
117
113
112
112
112
102
91
81
76
72
72
74
74
79
87
100
104
102
102
102
102
104
104
104
104
102
102
102
102
98
95
95
93
93
95
93
93
96
98
98
96
95
95
91
89
86
81
79
79
115
113
112
112
108
108
110
112
113
112
110
112
112
112
113
112
110
110
112
110
100
89
82
76
76
76
76
77
81
87
98
102
100
102
100
102
102
104
104
104
106
106
106
104
100
98
98
98
96
96
95
95
96
98
98
96
89
89
87
86
84
82
79
77
113
113
110
110
108
108
106
110
113
112
110
112
110
108
110
110
108
110
112
108
100
91
84
79
77
76
79
81
84
89
98
100
102
102
100
102
104
106
106
104
108
110
108
102
102
98
96
98
100
96
95
96
98
96
93
89
87
86
87
82
81
82
81
79
113
113
112
108
108
106
108
110
112
110
108
110
108
106
104
108
112
112
110
106
100
96
89
82
79
77
76
79
84
87
96
100
104
102
104
106
106
108
106
106
108
108
106
104
100
98
98
100
100
98
96
98
98
95
89
89
86
84
86
84
82
82
82
82
113
112
112
110
108
106
108
108
108
110
110
110
108
106
108
110
110
110
112
104
104
100
93
87
84
82
81
77
79
84
91
98
104
108
108
108
106
106
108
108
106
106
104
104
100
100
98
98
102
98
96
95
95
93
91
87
84
82
86
86
82
82
79
81
113
112
110
108
108
106
108
110
112
112
108
108
110
110
110
112
112
110
112
108
108
102
98
93
87
86
81
79
81
82
86
93
100
106
110
108
108
102
102
106
104
102
100
102
102
100
98
98
102
100
96
93
89
93
87
87
87
86
82
81
79
79
81
82
113
110
108
104
106
108
110
113
113
112
110
110
110
108
110
113
112
110
110
106
106
104
100
96
93
86
81
81
82
81
84
89
96
104
106
106
108
104
104
104
100
102
102
100
100
96
98
98
102
98
95
87
87
84
82
86
86
82
79
79
79
82
81
82
112
110
106
106
106
110
110
112
113
113
110
110
108
110
110
115
115
113
110
106
106
106
104
100
96
89
84
86
84
82
84
91
95
100
104
106
104
102
104
102
102
104
104
102
102
100
100
100
100
95
89
86
84
84
79
81
82
79
77
77
82
86
82
82
112
110
110
110
110
110
112
110
115
115
110
112
110
112
115
115
113
113
112
108
108
110
108
106
100
91
89
87
86
84
86
89
95
98
102
104
108
104
102
104
106
108
106
104
102
102
98
96
96
91
86
86
84
84
81
81
77
79
77
81
86
86
86
86
112
110
110
110
110
112
115
113
112
112
110
110
110
112
113
115
113
112
112
113
113
112
108
106
102
93
89
89
89
87
86
89
95
100
102
106
106
106
104
106
106
106
104
102
102
100
98
96
91
91
86
82
81
81
77
81
77
79
81
84
86
87
87
89
110
108
110
110
108
113
117
119
117
115
115
113
113
112
113
113
113
112
112
113
113
112
108
106
106
98
96
95
91
91
89
93
96
98
100
102
104
106
106
106
106
106
106
104
102
98
96
93
87
87
82
81
81
81
79
81
81
84
86
87
89
89
91
95
112
112
110
112
112
115
119
119
117
115
115
115
115
112
113
112
112
112
112
112
110
112
110
108
106
102
100
100
96
93
93
96
100
102
102
102
100
102
102
102
106
108
110
104
100
96
95
91
89
86
86
82
82
79
79
79
82
87
89
93
95
93
95
96
112
112
112
112
113
113
115
115
115
115
115
115
115
113
113
112
112
112
112
113
112
108
108
108
108
104
102
102
102
98
98
100
104
106
108
104
102
106
108
106
106
104
106
100
96
93
91
89
87
84
84
82
84
81
81
81
86
93
95
95
96
96
98
100
113
113
112
113
115
110
112
113
113
115
113
113
113
113
112
112
112
110
113
113
112
108
110
108
106
108
106
106
104
100
100
102
106
108
110
106
104
110
108
106
106
102
102
98
95
91
89
89
87
84
81
82
84
82
82
84
89
91
95
95
95
98
100
98
113
112
112
112
113
112
112
115
113
113
112
112
112
115
113
115
115
112
113
113
112
110
112
110
108
110
106
106
104
102
98
102
106
110
110
106
110
112
110
108
106
104
100
95
91
87
87
87
86
82
82
86
84
86
86
89
91
95
96
93
91
93
96
98
113
112
113
113
113
113
112
110
106
110
112
113
113
115
115
115
113
113
112
113
113
113
110
112
110
110
108
108
102
102
104
104
106
108
106
108
112
112
112
106
102
102
96
91
89
89
89
86
82
82
84
86
86
86
89
91
96
98
98
96
93
95
98
100
113
110
113
117
115
113
112
110
110
113
112
112
112
115
115
113
113
112
112
113
113
112
112
110
112
106
104
104
100
100
104
102
100
100
102
106
108
110
110
106
104
98
95
91
87
84
89
86
84
84
86
89
93
95
98
98
100
98
98
96
95
95
96
98
115
112
115
115
115
113
110
110
112
110
108
110
110
113
113
113
113
112
112
113
113
113
115
113
110
108
106
102
102
104
106
100
98
96
98
106
110
110
108
104
100
95
91
87
87
86
89
89
86
87
89
95
96
98
100
102
96
100
98
100
100
95
98
100
117
115
115
117
117
117
115
112
113
112
110
110
113
115
113
113
113
115
113
115
115
115
115
113
112
108
108
104
102
102
100
96
91
93
96
104
108
106
104
100
95
91
89
87
86
86
87
89
89
89
91
96
98
100
100
102
100
100
100
102
104
100
100
100
119
119
117
117
121
119
115
112
113
117
113
110
110
113
115
117
115
113
113
117
119
115
115
113
112
106
108
104
100
98
96
93
91
93
98
102
106
104
100
96
91
89
87
86
84
86
89
89
89
91
96
100
102
104
104
104
100
98
100
104
106
106
102
102
119
117
117
119
121
119
115
113
115
115
113
113
112
113
117
117
117
113
115
115
117
113
113
112
110
108
106
102
100
98
95
89
89
91
95
100
102
102
98
93
87
87
82
86
86
89
91
93
91
96
102
104
106
106
106
106
100
102
104
102
104
106
106
104
119
117
119
121
117
119
119
115
115
115
119
115
113
113
115
117
117
113
113
115
117
117
115
115
115
112
106
104
102
98
95
87
87
89
89
98
98
98
95
89
86
84
84
87
89
89
93
96
98
102
106
106
106
106
104
104
102
102
104
106
104
106
100
100
117
119
121
117
117
117
119
115
115
115
117
115
117
117
117
117
117
117
113
115
117
117
115
113
113
112
108
104
100
98
93
87
87
87
89
95
96
95
91
89
87
84
89
91
89
91
93
98
102
106
106
106
102
106
106
104
104
102
104
104
108
106
100
100
121
119
119
119
121
119
117
117
117
115
115
115
117
119
121
119
117
119
115
115
117
115
112
112
113
112
106
102
98
95
89
87
84
84
87
91
95
91
89
93
91
91
93
93
96
98
96
100
102
104
104
104
104
102
106
104
102
102
100
104
108
104
102
100
117
119
119
119
121
119
117
117
115
117
117
115
117
119
121
119
115
117
115
115
113
115
112
112
112
110
102
100
95
89
86
84
81
84
84
87
91
95
95
96
98
95
95
98
98
100
102
104
102
102
98
104
104
106
110
104
102
102
100
104
106
102
100
100
119
119
117
119
119
121
121
121
117
117
117
115
115
117
119
117
117
117
117
115
115
115
112
106
108
106
98
95
93
87
82
79
79
81
84
84
89
95
96
95
98
96
98
100
102
102
104
100
100
102
100
106
104
106
108
104
104
102
102
102
100
100
102
104
117
119
119
119
121
123
123
121
117
117
117
115
115
115
115
117
119
121
119
115
117
115
110
106
106
100
96
95
89
82
81
76
76
79
81
84
89
91
95
95
98
100
98
98
100
100
104
98
98
100
102
106
106
102
104
102
100
100
102
102
98
102
102
102
117
115
119
123
123
125
123
119
115
117
117
117
117
115
117
119
119
119
117
115
115
113
110
108
104
100
96
91
87
81
79
74
76
77
79
84
87
91
95
96
96
98
100
102
102
102
100
100
100
100
104
106
102
102
102
102
98
95
98
98
100
100
100
100
117
119
121
123
125
121
117
115
113
115
117
117
115
113
113
115
117
115
113
110
112
112
110
108
102
98
95
89
82
77
77
76
74
77
79
81
86
91
96
100
98
100
104
104
106
102
100
102
100
100
102
100
102
102
102
102
98
98
96
98
102
102
100
98
119
119
123
121
117
115
113
112
110
108
108
106
104
102
102
104
108
110
110
110
112
112
110
106
100
98
95
84
77
76
76
76
77
77
76
79
84
93
100
104
102
106
106
106
104
104
100
100
98
100
100
100
102
100
100
102
100
102
102
104
102
102
104
93
123
121
121
117
113
112
106
104
102
100
98
98
98
95
93
96
100
102
106
108
108
108
108
102
100
98
93
82
76
74
76
79
79
79
79
79
84
95
102
106
106
104
106
106
104
104
102
100
102
104
106
104
104
106
104
102
100
102
106
104
98
100
100
96
115
115
113
110
106
102
98
95
95
96
95
96
93
89
89
91
93
96
102
104
106
106
108
102
98
98
93
84
77
77
77
79
77
81
82
82
84
96
104
108
108
106
104
104
106
106
104
106
108
108
110
108
106
106
106
102
106
106
106
104
98
96
96
98
110
106
102
100
100
96
95
95
96
98
98
96
91
89
86
89
91
95
102
106
104
108
108
104
98
100
95
87
79
77
76
76
77
77
81
84
87
96
102
106
106
106
106
106
108
112
112
110
110
112
113
110
108
106
102
102
104
104
106
106
100
98
98
98
102
100
98
96
100
100
98
102
100
100
102
96
91
86
82
89
93
96
98
102
100
106
108
106
102
102
96
89
81
77
76
77
79
79
79
84
93
98
104
108
110
112
112
112
117
117
117
115
113
112
112
110
108
106
102
104
104
104
106
106
100
98
96
98
96
96
96
96
98
100
96
102
104
100
100
98
91
87
86
87
91
95
96
102
104
104
108
106
104
102
96
89
84
81
77
77
79
77
81
87
93
98
106
110
110
112
112
115
117
115
117
117
115
113
110
110
108
106
106
106
104
106
106
102
100
100
98
98
91
93
98
102
104
100
98
102
104
108
106
102
96
89
87
91
91
93
93
98
102
106
108
106
106
102
96
89
84
81
79
79
76
76
81
89
93
102
110
115
115
117
117
113
113
115
117
115
115
115
112
108
108
108
104
106
102
104
104
104
102
102
98
96
93
95
102
102
102
102
102
106
108
112
112
110
104
96
93
93
93
93
95
96
100
108
112
112
110
102
95
89
84
81
79
79
77
81
84
89
96
108
113
117
121
121
119
117
113
113
115
115
115
115
113
108
110
106
102
104
104
102
104
108
104
102
102
98
95
98
102
102
102
106
108
113
113
113
115
113
108
104
100
100
100
95
91
95
98
108
112
110
108
104
95
87
86
82
79
79
79
79
82
87
100
112
117
123
123
125
123
121
117
117
115
113
113
115
113
115
112
108
104
104
104
102
104
108
104
104
104
102
96
98
98
98
102
108
113
119
119
117
119
117
115
110
108
106
106
100
95
93
96
106
112
112
108
104
95
87
82
82
77
77
81
82
84
91
102
113
121
125
125
125
125
121
119
123
119
117
115
115
115
115
113
112
106
106
102
104
108
106
102
102
100
102
95
95
100
102
106
112
117
123
121
119
121
117
119
117
115
112
110
104
98
95
96
106
112
112
108
102
91
82
81
81
79
77
79
81
86
95
106
117
127
127
131
129
127
123
119
121
121
119
115
113
113
113
113
112
108
108
104
104
106
106
106
102
102
102
95
98
102
108
112
115
121
121
121
121
121
121
121
121
119
115
112
108
100
95
98
104
112
112
106
98
87
81
76
77
77
76
77
82
87
96
112
123
129
131
131
129
123
121
119
121
119
115
115
113
112
108
112
112
112
108
106
104
104
104
104
106
104
102
98
100
106
110
113
115
117
117
123
121
121
121
117
117
119
119
112
110
102
96
100
106
112
110
102
93
84
81
77
74
76
77
81
82
89
98
113
125
129
129
129
127
121
121
119
121
119
115
113
113
110
112
112
110
113
112
108
108
108
106
102
106
102
102
100
108
110
112
113
113
115
117
123
121
121
121
117
115
115
117
113
112
108
102
102
106
110
106
96
86
81
79
79
74
74
79
79
84
91
100
115
125
127
127
125
127
127
123
119
121
121
117
113
115
112
112
113
112
113
110
108
108
110
108
108
106
102
102
108
112
113
112
112
112
117
119
123
121
119
121
119
115
113
117
117
115
112
108
106
106
106
100
89
82
81
77
77
77
77
79
81
84
91
102
119
125
125
123
125
127
129
127
123
123
123
121
119
115
112
113
112
112
112
112
106
108
108
106
108
104
100
100
