P2
# 305 of 608 Angiograms
64 64
255
74
77
82
86
89
89
89
87
89
91
93
91
86
89
87
89
87
91
95
95
96
98
98
98
98
100
102
102
104
102
102
102
100
100
104
108
104
102
100
100
98
100
98
98
96
98
98
96
98
100
100
98
95
95
96
95
93
93
93
95
95
96
96
95
72
77
82
86
86
86
84
86
87
87
89
89
86
87
87
87
87
87
93
95
96
98
95
95
96
96
98
100
98
98
100
100
100
100
102
104
102
100
100
98
96
100
96
96
96
98
98
96
98
100
100
100
98
96
95
93
93
93
93
95
93
95
91
91
74
77
81
84
87
86
84
84
84
86
84
84
84
86
87
87
89
87
91
91
95
96
95
95
96
98
98
98
96
98
98
100
102
102
100
100
100
100
100
98
98
100
98
96
98
98
98
98
98
100
98
100
98
96
95
93
93
93
95
95
93
93
91
89
72
77
79
84
87
87
84
84
84
86
84
84
84
86
87
89
89
89
93
93
91
95
95
96
96
98
96
100
100
100
98
100
102
100
100
100
100
98
96
98
98
100
100
98
98
98
100
98
98
98
98
98
96
95
93
95
95
93
95
95
91
91
91
91
71
76
81
84
87
86
86
86
86
87
86
86
89
87
86
87
87
91
89
91
91
95
95
96
96
96
96
100
98
96
98
100
98
98
98
98
98
96
98
96
100
100
102
98
96
98
96
96
96
95
95
95
95
91
91
93
93
93
91
93
91
91
91
91
69
76
81
86
87
87
86
84
86
86
87
87
89
87
84
86
87
89
89
91
91
93
93
95
95
96
96
96
96
96
100
98
98
96
98
98
98
98
96
96
98
98
98
96
95
96
95
93
93
93
95
98
95
93
93
93
91
89
87
91
93
95
95
91
69
76
82
84
86
86
86
86
86
86
89
89
87
86
86
84
84
86
87
89
89
91
91
93
93
96
95
93
93
96
98
96
96
95
95
96
98
96
95
95
98
96
95
93
96
95
93
93
91
91
95
95
95
95
91
89
87
87
87
87
95
93
93
89
71
76
84
82
89
86
86
86
86
84
86
86
82
82
82
82
84
84
86
86
87
89
89
95
93
93
93
96
96
96
98
95
93
93
96
98
96
95
93
95
95
93
93
93
93
93
93
93
93
91
93
93
93
91
89
87
89
89
89
89
93
91
89
87
72
76
84
82
82
84
86
87
84
86
86
84
81
79
79
81
82
84
86
86
89
87
86
91
91
89
91
96
96
96
96
98
96
100
100
98
95
93
89
91
91
93
95
95
93
93
91
93
91
91
93
91
91
89
87
87
87
87
89
89
89
91
89
89
72
76
82
84
84
82
84
86
84
84
82
84
81
79
79
79
82
82
84
86
87
86
86
89
89
86
91
95
95
96
93
95
98
100
100
95
95
93
89
89
91
93
96
93
91
91
93
93
91
87
89
87
89
87
87
86
86
91
91
91
91
95
93
91
69
76
77
79
81
82
84
86
87
84
82
81
81
77
77
79
82
82
82
82
82
86
86
86
86
87
91
95
96
96
93
93
98
98
98
95
95
93
91
93
95
96
96
93
91
89
89
91
91
91
87
89
89
91
91
87
87
91
91
93
93
93
93
91
71
77
77
77
79
82
86
86
86
84
82
82
81
77
76
77
79
82
86
84
84
84
86
86
86
87
91
93
95
95
93
96
100
100
98
98
93
93
93
95
95
95
96
93
95
89
89
91
91
89
89
91
91
89
91
87
86
91
93
93
93
91
91
89
72
76
79
81
82
86
86
84
82
79
79
79
81
76
76
77
79
82
84
86
86
84
84
84
82
86
87
89
95
95
96
98
98
98
98
98
96
93
91
95
95
95
95
91
91
91
91
95
95
91
91
93
91
89
89
86
89
93
93
93
93
91
91
86
74
77
79
81
81
84
86
81
77
76
79
79
79
76
77
79
79
81
84
89
87
86
84
82
86
86
87
91
93
95
98
98
96
96
100
96
95
93
95
96
95
93
93
91
93
95
93
93
95
91
89
91
91
91
89
89
93
95
95
93
93
91
87
86
71
74
79
81
82
82
82
81
74
76
79
81
76
76
77
79
82
84
86
87
87
86
82
84
86
86
87
89
91
95
96
96
95
96
96
96
95
95
95
95
91
93
93
93
93
93
95
95
93
89
89
91
91
91
91
93
95
96
95
95
89
87
87
87
68
71
79
82
82
81
79
79
77
79
77
79
77
76
76
79
82
86
86
87
89
86
82
84
86
86
86
89
93
95
96
95
96
98
96
98
98
98
96
93
91
91
91
91
91
93
95
95
93
91
93
91
91
93
93
93
95
95
93
93
91
89
89
87
66
71
79
81
79
79
79
79
81
81
79
77
79
77
79
82
86
84
86
86
86
86
86
86
84
86
86
89
93
96
96
96
96
100
98
98
96
98
98
96
95
93
89
93
93
93
91
93
91
89
91
93
91
93
95
95
93
91
95
93
93
91
89
89
66
71
76
77
79
79
77
79
82
77
76
79
79
81
82
86
89
84
82
82
84
87
86
86
86
87
89
91
93
95
96
95
100
98
100
98
95
96
96
96
96
93
93
93
93
93
89
93
93
91
91
89
89
95
96
95
95
95
95
95
93
93
89
89
68
72
74
76
77
77
77
79
79
76
76
77
79
82
81
81
84
82
79
81
86
84
84
86
87
87
91
91
93
96
95
95
100
96
95
98
96
96
96
96
96
95
93
93
93
91
91
93
91
93
91
93
93
96
96
98
96
96
93
91
91
93
89
91
68
72
76
79
74
74
77
79
79
77
77
77
81
81
82
82
81
81
81
84
86
82
82
84
87
89
89
89
93
98
98
95
96
96
95
95
96
96
96
96
96
95
95
95
95
93
91
91
91
93
93
93
93
95
95
96
98
96
95
93
93
95
93
95
66
72
76
77
76
76
76
77
76
76
76
76
77
79
79
81
81
79
81
82
84
84
82
82
86
89
87
89
93
98
100
100
96
96
96
96
98
98
98
96
96
96
96
96
96
95
93
93
93
95
95
93
93
95
98
96
98
98
96
95
95
96
95
96
66
69
72
74
76
76
74
76
74
72
76
77
77
79
77
81
81
79
79
84
82
82
82
84
87
87
86
91
95
96
100
98
98
96
98
98
98
98
100
98
98
98
96
95
93
95
95
95
93
95
95
95
95
96
98
96
98
96
96
96
96
96
96
96
66
66
69
71
71
71
71
74
74
74
76
77
77
77
77
81
79
81
81
82
81
82
84
86
84
84
87
93
96
96
100
98
98
98
100
98
96
96
100
102
98
98
96
95
96
95
95
96
95
93
96
100
98
100
98
96
96
95
95
96
98
98
98
98
63
65
68
69
69
71
71
71
74
72
74
76
77
77
77
79
79
81
82
82
82
84
86
86
86
82
86
89
93
96
100
100
100
96
98
100
98
100
100
102
98
98
98
96
96
95
95
96
95
95
95
98
98
98
96
96
100
98
96
95
98
100
102
102
65
68
68
69
68
69
71
72
74
71
72
74
76
76
76
77
81
81
82
84
84
82
82
84
86
84
84
87
91
96
100
102
102
100
100
100
100
100
100
102
100
98
95
96
96
95
93
95
95
95
95
95
96
98
96
98
100
100
100
98
98
96
96
102
63
68
68
69
69
69
69
72
72
72
72
74
76
77
79
79
84
84
82
84
82
82
82
84
82
84
84
89
95
98
102
104
104
102
100
100
98
100
98
102
102
95
96
98
96
95
96
96
95
95
93
95
96
96
96
98
100
100
100
96
96
98
100
104
63
63
65
65
68
69
69
71
71
74
72
72
76
79
79
81
84
84
84
82
82
82
84
86
86
84
84
89
95
100
102
104
106
106
104
104
98
96
96
98
98
96
96
98
98
98
98
96
95
96
96
96
96
96
98
100
98
98
96
95
98
100
102
104
62
66
68
69
69
71
71
74
72
72
74
76
81
81
81
81
82
86
84
82
82
84
86
86
89
86
89
89
96
100
102
104
104
104
102
102
102
98
100
100
100
98
98
98
98
98
100
98
98
100
102
98
96
98
100
96
98
96
100
98
100
102
104
104
63
66
66
69
71
72
72
71
74
76
76
76
81
82
82
86
84
84
84
81
81
86
87
86
86
84
86
89
95
98
104
108
106
106
104
102
102
100
100
100
102
98
98
98
96
98
100
98
98
102
104
102
100
100
102
96
96
98
100
98
98
100
106
106
65
68
69
71
74
74
72
72
71
72
76
77
81
84
86
87
84
86
86
81
81
82
86
86
86
87
89
91
95
98
104
106
108
108
106
104
102
100
100
102
102
98
100
100
100
100
98
98
98
100
102
102
102
102
100
98
98
100
104
100
98
100
106
106
63
68
72
72
72
74
74
74
69
72
74
77
81
84
86
84
84
86
84
82
86
86
84
86
87
91
93
93
96
100
106
106
106
106
106
104
104
104
104
102
100
98
96
98
98
102
100
98
98
102
104
102
102
102
102
98
100
102
104
100
102
102
104
104
63
68
69
71
71
76
76
72
71
74
74
81
81
82
84
82
82
87
84
84
87
89
86
87
89
91
93
91
96
104
108
106
110
108
104
104
104
104
104
102
102
100
96
98
100
98
102
98
98
100
102
100
104
100
100
100
102
104
102
104
104
104
104
102
63
65
66
69
72
76
74
71
71
74
74
79
82
82
82
84
84
86
84
86
86
89
87
87
91
93
93
93
98
100
104
106
108
108
104
104
104
106
106
102
102
98
95
98
100
96
100
96
98
100
100
102
102
98
100
100
104
102
102
104
106
104
104
102
63
65
68
68
71
74
72
71
74
76
76
76
79
81
82
82
84
86
86
87
87
89
89
91
93
96
95
98
100
100
102
108
106
106
104
104
104
102
104
104
102
96
95
98
102
98
98
98
98
100
104
108
106
100
100
100
102
100
102
106
106
108
104
100
62
65
68
69
71
72
72
72
74
74
76
76
79
81
81
82
84
86
84
84
87
89
87
91
96
96
93
96
100
102
108
106
104
104
106
106
104
104
106
104
100
98
98
98
100
100
98
100
100
106
106
106
104
100
100
100
100
100
102
102
104
106
104
100
62
66
68
69
71
72
72
74
76
74
76
77
79
79
81
84
86
87
87
87
87
89
91
91
93
93
95
96
96
102
108
106
100
100
106
110
108
108
102
102
98
96
100
98
96
98
98
102
104
106
102
102
102
100
100
100
98
100
102
104
106
106
104
102
60
65
66
68
69
71
72
74
77
76
74
76
77
77
82
84
86
87
87
87
87
86
87
87
91
93
96
98
102
106
108
108
104
104
104
110
110
108
104
100
98
100
104
102
98
98
96
100
106
104
102
102
102
102
102
100
98
100
102
102
106
102
102
100
60
63
66
69
69
72
72
77
79
79
76
76
77
81
82
82
82
82
84
89
87
86
87
87
89
93
96
100
106
112
112
108
108
108
104
106
108
108
104
100
100
100
102
102
100
98
96
100
100
102
104
100
100
104
102
102
96
98
102
102
104
102
102
100
60
63
66
68
69
72
74
79
79
79
76
74
76
76
79
84
86
84
87
87
86
86
87
87
93
96
98
102
106
112
113
108
106
106
106
106
108
108
106
102
100
100
98
102
100
100
100
98
100
104
104
102
102
104
102
100
95
96
104
102
104
104
104
100
62
63
68
68
69
72
76
77
79
77
76
74
76
76
77
82
86
86
86
86
86
89
87
91
95
95
100
102
108
113
112
108
104
104
106
106
106
104
104
102
102
100
100
100
98
98
100
100
102
106
104
102
102
102
102
100
96
96
102
102
100
100
100
102
63
66
69
71
72
76
76
77
79
77
76
72
74
76
79
81
86
84
86
87
89
93
93
93
95
96
100
106
112
113
112
108
108
108
106
102
102
102
104
102
102
102
100
102
100
100
98
100
102
104
102
102
100
102
102
100
98
100
104
104
100
98
96
102
60
65
68
69
74
74
76
77
77
77
79
76
74
76
77
82
84
84
87
87
87
91
95
95
96
98
102
108
112
113
112
108
110
110
108
104
102
104
102
102
102
102
100
102
102
100
100
98
100
100
104
102
100
98
100
98
98
98
102
102
104
100
96
98
59
63
68
69
72
77
79
79
77
76
76
74
72
74
79
82
86
87
89
87
89
93
93
95
96
102
104
110
112
112
110
110
110
108
104
104
104
104
102
100
100
102
102
104
102
102
102
98
98
98
96
96
98
96
95
96
96
98
100
98
100
98
98
96
60
62
66
69
72
76
81
81
79
76
77
77
76
77
79
82
87
87
87
89
93
95
93
95
96
100
106
110
112
113
112
110
108
106
104
104
106
106
106
104
104
102
102
104
102
100
98
96
98
96
95
93
95
96
98
100
98
98
98
96
96
95
96
93
60
65
69
71
72
72
77
79
77
76
76
76
76
76
79
84
86
91
91
91
93
93
93
95
96
100
104
106
110
113
112
108
110
110
108
106
108
110
108
106
108
106
100
102
100
98
100
96
96
95
95
95
95
96
98
98
98
100
98
95
95
95
95
95
59
66
69
71
72
76
77
81
79
77
79
79
77
79
82
86
89
87
89
87
93
93
93
91
95
98
100
104
106
108
110
110
110
112
112
108
110
110
104
104
106
104
102
102
100
98
100
96
95
95
95
95
96
98
96
96
98
98
96
95
95
95
95
93
60
66
69
69
71
74
77
77
79
79
79
79
81
84
84
86
86
89
89
89
89
91
91
89
91
96
100
104
108
108
108
108
108
108
113
110
108
110
106
106
106
104
104
104
102
98
96
96
91
96
95
96
96
95
95
96
98
95
93
91
91
91
93
89
60
66
72
72
72
74
77
81
82
82
81
82
81
84
86
86
86
89
91
91
87
89
89
87
89
95
98
104
108
108
108
110
110
110
110
108
110
108
106
106
106
106
106
104
98
96
93
93
91
93
95
96
95
95
96
93
95
95
95
95
91
93
93
93
62
68
71
72
74
76
81
81
81
81
81
82
82
84
86
87
89
89
91
87
86
89
89
89
87
95
98
104
108
108
108
110
115
112
108
106
108
108
104
104
104
106
108
104
100
98
98
95
93
93
96
100
96
95
96
96
95
96
95
93
93
93
95
96
63
68
72
74
76
79
81
81
82
81
82
82
81
82
86
87
86
86
89
87
84
86
87
87
91
96
100
102
106
110
112
112
112
112
106
106
106
104
104
104
104
102
106
104
102
100
98
96
95
95
95
96
96
98
96
96
96
96
96
96
96
98
96
95
66
71
71
74
76
79
79
84
82
81
79
82
82
84
86
84
86
87
89
89
87
87
89
87
87
96
100
104
108
112
110
112
112
110
108
108
104
102
102
104
102
102
106
104
102
100
98
96
93
95
96
96
96
98
98
96
102
98
98
98
98
98
98
95
66
71
74
76
74
76
79
81
81
81
81
84
86
86
84
82
84
86
87
87
89
87
87
87
89
95
100
104
110
112
110
110
112
108
104
106
108
104
104
104
104
104
106
106
104
104
102
100
96
96
96
98
98
100
96
98
100
98
96
96
96
98
96
98
65
69
74
72
72
74
77
76
76
77
84
87
86
84
84
82
86
86
87
87
87
86
86
87
91
95
100
104
108
108
108
106
108
106
102
104
106
106
106
106
108
104
106
104
100
102
100
98
98
96
96
98
100
98
95
98
98
96
96
96
96
98
96
98
63
71
72
72
76
76
76
76
74
77
82
84
84
84
82
86
87
87
86
84
86
87
87
89
91
95
100
104
108
108
108
106
106
106
104
104
108
106
106
106
106
106
102
104
102
100
96
95
96
98
95
98
98
96
96
95
98
93
95
96
96
98
98
96
66
71
74
76
76
74
76
76
76
77
81
82
84
84
82
86
86
87
86
84
84
89
89
91
95
96
100
106
110
110
110
104
104
106
106
106
106
106
104
104
104
104
102
102
102
100
98
95
96
96
95
96
98
98
95
95
95
95
96
96
93
96
96
96
66
69
74
76
77
74
76
76
76
77
81
81
81
82
86
87
86
84
84
84
86
89
89
93
95
96
98
106
112
110
108
106
104
104
106
104
102
102
104
106
104
102
108
104
104
102
100
100
96
96
95
95
95
93
95
95
95
96
95
93
93
93
93
95
65
69
74
74
76
77
79
81
82
81
81
79
81
82
86
87
84
82
86
86
87
87
89
91
95
96
100
106
110
110
108
106
104
104
106
104
102
104
106
106
104
102
102
102
102
100
98
98
96
96
95
95
93
93
95
95
95
95
95
95
95
93
93
93
68
72
74
74
74
77
77
79
82
81
81
79
81
82
84
82
82
82
84
86
87
87
87
89
95
96
100
104
106
108
106
108
104
102
104
102
100
102
106
106
102
100
98
100
100
98
98
98
96
95
91
91
95
96
95
95
95
95
95
95
95
96
96
93
69
72
74
74
74
77
79
77
79
81
77
79
82
82
84
84
84
82
84
86
89
87
86
89
95
98
102
104
108
110
108
106
104
104
106
104
98
100
106
104
104
100
98
98
100
100
100
100
96
93
91
91
91
95
89
91
93
93
93
95
95
95
96
93
69
72
72
74
74
76
77
77
77
77
79
82
82
82
82
84
82
86
87
87
89
87
86
89
93
100
102
102
106
108
108
106
104
104
104
104
102
100
104
104
104
102
100
102
98
98
98
98
96
95
93
93
95
95
87
87
89
91
93
95
95
95
95
95
71
72
74
74
74
77
79
77
77
79
79
81
81
81
81
84
84
86
86
86
84
86
89
91
91
98
102
104
106
106
106
108
106
106
104
106
106
106
102
102
100
102
102
102
102
98
100
98
96
95
95
96
96
95
93
89
89
91
93
95
95
95
95
95
69
69
74
77
77
77
77
76
77
76
76
77
79
82
81
82
84
86
86
84
84
84
87
89
95
96
100
106
108
106
106
104
106
106
106
106
106
106
104
100
100
100
100
100
100
98
100
96
96
96
98
100
100
96
93
91
93
95
93
95
96
96
93
95
66
69
71
74
74
77
77
74
74
74
76
76
77
81
82
81
82
84
87
86
87
86
87
87
91
96
100
104
108
110
110
104
102
104
102
106
108
106
104
102
100
98
98
100
100
98
98
95
93
95
98
98
98
100
98
95
93
95
93
96
96
95
93
93
66
71
71
71
74
77
77
76
76
74
74
76
79
81
81
81
81
82
86
87
89
86
86
89
91
95
102
102
106
108
108
106
102
104
102
102
106
104
102
104
102
98
98
100
100
100
98
96
93
95
95
98
98
98
96
93
93
95
95
95
95
95
95
91
