P2
# 310 of 608 Angiograms
64 64
255
189
192
194
191
185
177
168
163
161
161
159
159
161
163
158
156
154
152
152
152
152
152
156
158
161
163
163
163
163
165
165
165
167
170
173
175
175
177
177
177
177
178
178
175
168
163
158
154
152
148
146
146
146
146
144
142
142
142
142
142
144
144
146
142
186
188
188
186
180
172
165
161
161
158
158
156
158
158
154
150
148
146
146
144
144
144
148
152
152
154
154
152
152
150
150
148
150
154
156
158
156
156
156
154
154
156
156
154
152
148
142
141
139
135
133
133
133
133
127
125
123
123
127
131
135
137
139
133
175
175
175
173
167
159
154
150
148
144
142
141
141
139
135
133
131
131
129
127
125
125
125
127
129
131
133
131
129
125
127
127
131
133
135
137
139
139
137
135
133
133
133
131
129
125
121
119
121
119
117
115
115
113
110
106
104
104
108
110
115
119
123
117
161
163
161
159
154
146
141
137
133
129
127
123
121
119
117
117
113
110
106
102
100
96
96
96
100
108
110
108
106
104
106
108
110
113
115
119
121
121
121
121
121
119
121
119
115
113
112
110
112
112
112
110
108
106
104
100
96
95
95
98
102
106
108
98
152
154
154
152
144
137
131
129
125
121
119
115
113
110
106
102
100
98
95
89
82
79
77
81
87
93
98
98
98
96
95
96
96
100
102
104
106
106
108
106
106
106
108
108
104
104
102
100
100
104
104
98
100
102
100
95
89
87
89
93
96
98
95
84
142
144
146
144
139
131
125
121
117
115
112
110
104
98
96
93
91
89
84
79
76
72
71
74
79
84
89
95
96
91
93
95
95
96
96
98
100
100
100
100
98
98
96
95
95
95
93
93
93
95
93
91
91
95
93
86
84
84
86
87
89
89
86
76
135
137
139
135
131
123
119
113
112
108
106
100
95
91
89
87
86
81
77
76
72
71
71
72
76
79
84
89
93
95
93
91
93
93
93
93
95
96
96
93
91
89
89
89
87
87
84
82
84
86
87
87
87
91
87
81
81
81
81
81
82
84
79
69
125
127
127
123
119
112
110
106
102
98
96
95
89
87
86
84
81
79
77
74
72
71
69
69
72
77
81
86
89
93
91
91
89
89
89
91
93
95
93
89
91
87
86
82
82
81
81
77
77
81
82
84
87
89
84
81
81
81
81
81
79
81
76
63
113
113
113
112
108
102
100
96
95
93
93
89
87
86
84
84
81
81
81
77
72
69
69
69
71
72
77
79
86
87
87
89
91
91
89
91
93
91
89
91
89
87
87
84
82
81
81
77
77
79
81
82
86
87
84
81
82
82
81
79
81
81
69
59
106
106
106
102
98
93
89
86
86
87
87
84
84
82
82
82
84
82
79
76
74
69
66
69
72
71
74
77
81
84
86
86
87
89
87
87
87
87
86
87
86
84
84
82
82
81
77
77
77
81
81
82
86
86
86
86
84
84
82
81
79
76
66
56
100
100
98
95
89
84
82
82
82
84
82
81
82
81
79
81
82
79
76
74
71
69
69
72
76
76
77
79
81
81
82
82
86
86
87
87
86
84
82
82
81
77
79
79
77
79
77
79
81
82
84
84
87
89
87
86
84
81
77
79
79
74
62
54
95
95
95
91
84
77
77
77
79
81
79
82
81
81
81
77
76
74
74
71
71
69
71
76
79
81
81
81
82
82
82
84
86
86
86
86
84
81
81
79
79
77
77
76
76
77
77
79
81
86
86
84
86
87
89
86
82
79
79
79
79
71
59
51
87
89
89
87
79
74
77
76
77
79
77
79
81
81
79
76
74
71
71
68
69
71
72
77
81
84
86
86
86
82
81
84
84
82
84
82
82
81
77
76
77
77
79
76
74
79
79
79
81
84
84
84
84
87
86
84
82
81
79
77
74
65
55
50
86
89
87
84
77
76
79
77
77
77
77
79
76
77
76
76
74
74
71
68
68
69
72
79
82
87
89
87
86
86
84
84
82
81
81
77
77
77
77
76
76
77
76
72
72
77
77
81
77
79
81
81
82
84
82
82
82
79
79
76
69
60
52
47
86
87
86
82
76
76
76
76
76
76
76
76
74
74
76
76
74
72
71
71
69
72
76
79
84
86
91
91
91
91
86
82
81
81
81
82
81
77
76
74
74
71
69
69
71
76
77
79
79
77
77
79
81
84
82
81
79
81
79
74
65
55
49
46
84
82
82
79
76
76
76
76
76
76
74
72
72
72
76
77
76
74
72
72
71
74
77
81
84
89
89
91
91
91
87
86
82
84
84
84
81
77
74
72
71
69
69
66
69
72
76
77
79
76
76
79
84
82
81
77
76
76
72
68
59
50
44
42
84
82
79
76
74
72
74
76
74
72
74
74
74
76
74
77
76
74
72
72
72
74
79
82
86
86
91
89
89
89
87
86
84
86
84
84
81
79
74
69
69
69
66
68
71
71
72
74
74
72
72
77
79
79
76
72
71
68
66
62
55
45
40
38
82
82
77
74
72
72
76
77
76
76
79
77
76
76
74
76
72
71
71
71
72
76
82
84
89
91
89
87
89
89
87
86
87
87
86
84
82
77
72
68
68
71
68
68
69
72
72
72
71
69
69
72
72
72
71
68
66
63
60
56
51
43
41
38
82
82
77
74
74
72
76
77
77
77
77
79
79
74
74
74
72
72
71
72
74
79
84
86
89
95
93
89
91
91
89
87
89
87
86
84
81
76
69
68
66
69
68
68
72
72
72
72
69
66
66
66
68
69
66
65
62
60
58
55
50
42
39
38
81
81
76
74
71
74
77
79
77
81
77
77
77
77
76
72
72
74
74
74
76
81
84
86
89
91
91
93
91
89
87
86
87
86
87
86
81
72
68
68
68
69
71
69
71
69
69
69
66
63
62
62
62
62
62
60
59
59
59
55
47
42
39
39
79
77
76
76
72
76
81
82
79
81
77
77
77
76
76
76
72
76
76
76
77
79
81
82
87
87
87
89
89
87
87
87
84
86
89
86
84
76
71
69
71
71
69
71
69
71
69
68
65
62
62
62
62
62
63
63
63
60
59
55
46
44
42
42
79
77
76
76
76
76
81
82
82
81
81
79
77
77
77
76
74
76
76
77
79
79
79
82
87
87
86
87
87
89
89
89
86
87
89
87
87
79
72
71
71
74
72
71
72
74
72
69
65
60
63
65
65
65
65
66
68
65
60
54
47
46
45
44
82
77
74
76
79
77
81
82
82
82
79
81
81
81
79
76
79
77
77
77
77
79
79
81
84
86
86
89
89
87
89
87
86
87
89
91
87
82
76
72
69
72
76
76
74
74
72
71
66
63
66
69
68
68
68
66
69
69
65
55
49
47
46
45
81
77
77
76
77
79
81
84
86
84
82
82
81
79
82
82
79
76
76
77
79
82
81
79
81
82
84
84
89
87
87
87
86
87
87
91
89
84
81
77
74
76
76
77
76
74
71
71
68
68
69
74
76
76
72
69
71
71
65
54
49
46
45
44
87
81
79
79
79
79
81
84
86
86
82
82
84
79
82
82
81
76
76
77
81
79
81
84
82
82
84
87
89
89
89
87
84
86
87
89
89
87
86
86
86
84
82
82
81
77
76
72
71
72
72
76
79
82
79
76
72
71
63
54
47
44
44
41
86
82
79
77
79
79
82
86
86
82
84
84
84
86
86
82
81
79
77
77
76
77
82
84
84
84
84
89
87
84
87
89
89
86
86
89
91
91
89
91
89
87
89
87
86
82
79
76
76
77
77
79
81
82
84
81
79
72
62
51
46
44
42
42
84
79
79
81
81
81
84
84
84
82
84
84
82
86
87
82
82
79
76
77
77
77
79
81
84
86
86
87
84
86
89
91
91
91
89
91
89
91
91
91
91
91
93
91
89
87
81
79
79
81
81
82
84
86
82
81
81
72
60
51
46
45
42
43
82
77
77
81
82
84
81
81
82
86
86
86
84
82
86
84
82
79
76
76
79
79
81
82
86
87
87
87
86
87
89
89
93
93
91
89
87
87
87
89
89
91
91
91
89
86
84
82
82
84
86
87
89
89
84
82
81
71
59
50
45
44
42
42
82
79
76
76
79
82
79
81
82
86
84
86
87
84
84
82
81
79
77
76
79
82
81
84
87
89
87
86
86
87
87
87
89
91
89
91
89
86
87
87
86
86
87
89
89
87
84
84
86
87
91
93
93
93
89
86
81
71
58
49
44
41
42
42
84
79
76
77
81
82
81
81
82
84
84
84
84
86
84
79
79
81
77
81
82
82
86
86
87
87
89
89
87
87
86
84
87
91
91
91
89
86
86
86
87
87
87
87
86
86
84
84
89
89
91
95
96
95
95
91
82
71
58
49
44
42
42
41
84
81
77
79
82
82
84
82
82
82
86
82
84
84
82
79
77
79
79
79
82
84
87
89
89
89
91
91
91
91
87
86
87
91
93
91
86
82
84
86
87
87
87
87
86
87
86
87
89
89
91
93
96
95
96
93
84
71
59
50
44
42
43
43
84
81
79
81
84
84
86
86
82
82
84
86
84
82
81
81
79
81
79
77
82
84
86
87
91
93
91
91
91
93
93
89
87
93
93
89
86
84
84
86
86
86
86
86
82
84
86
87
87
86
89
93
93
98
95
91
84
69
58
49
44
43
45
46
82
81
77
79
84
84
86
87
84
82
84
84
82
81
81
79
81
79
77
79
84
86
87
91
91
95
93
89
89
95
93
91
87
89
91
87
82
82
84
84
86
87
86
84
82
84
87
87
87
87
89
93
93
96
96
91
82
68
55
46
45
43
43
46
86
84
81
82
84
84
86
86
82
82
84
84
81
77
79
77
77
79
77
82
86
82
86
91
95
93
93
91
95
91
89
89
89
84
87
86
84
82
82
82
84
86
84
84
82
84
86
86
86
89
91
93
91
95
95
87
79
63
55
47
45
43
44
47
87
84
84
84
86
84
86
87
86
84
81
81
79
77
76
76
76
79
79
82
86
86
89
93
93
95
93
93
95
93
91
89
87
87
86
82
82
84
84
82
82
86
86
84
86
86
89
86
84
87
91
93
93
95
93
86
74
62
55
49
46
45
46
50
87
87
84
84
86
84
86
87
86
82
79
77
76
76
76
76
77
79
77
81
87
87
89
91
91
93
93
91
89
91
89
87
87
86
82
82
82
86
84
82
82
82
84
86
86
87
89
87
86
87
89
95
95
96
91
82
71
59
54
47
46
49
50
54
86
86
84
86
87
87
87
86
86
81
79
77
74
72
74
76
79
79
79
82
86
87
89
89
91
93
93
89
91
89
87
86
86
84
82
81
82
82
82
84
82
81
82
82
86
89
89
86
86
87
89
95
95
93
89
81
66
56
52
49
49
51
51
58
84
82
84
86
84
84
86
84
82
79
79
77
74
74
77
79
79
79
81
82
86
86
89
91
87
89
87
89
91
87
86
86
87
84
81
84
86
84
84
82
84
82
79
84
84
87
89
89
89
89
89
91
95
91
86
76
62
56
54
50
50
52
54
60
82
81
82
84
82
82
82
82
79
79
76
76
77
77
79
79
79
77
79
82
86
86
86
87
89
89
87
89
91
89
87
84
84
84
84
87
87
84
84
81
81
81
81
82
82
84
84
87
87
87
86
87
89
87
81
68
59
55
51
47
47
52
56
63
81
81
79
82
81
81
82
81
77
77
76
77
77
77
79
81
77
81
79
81
84
86
86
87
93
91
87
87
87
89
89
87
87
86
84
84
86
84
82
81
81
79
79
81
81
81
82
84
84
82
82
84
84
82
74
63
56
52
49
47
49
51
56
63
77
81
81
81
79
81
81
77
76
76
74
76
76
76
76
79
79
79
77
81
84
82
86
89
93
89
86
86
86
86
87
87
87
87
82
81
79
77
76
76
77
76
74
72
72
74
77
77
79
81
79
79
79
79
71
59
52
49
46
45
46
50
55
62
77
77
81
81
81
77
76
72
76
76
74
72
77
77
77
77
79
79
81
81
81
82
84
87
91
89
86
86
87
86
84
84
84
82
79
76
72
72
72
72
74
71
68
68
68
69
72
72
74
74
74
72
76
76
68
56
51
47
43
44
46
49
55
62
76
76
77
79
76
74
76
74
74
76
74
74
77
77
79
77
77
81
84
84
82
84
86
86
87
89
87
87
89
86
84
82
81
77
74
71
71
72
71
71
68
65
65
66
69
68
69
69
69
69
69
71
74
71
65
55
49
46
45
44
45
49
56
63
71
71
72
76
79
77
77
71
72
74
74
74
74
74
77
81
79
79
81
82
84
84
84
86
89
91
89
87
86
84
82
81
77
74
72
71
69
72
68
69
68
65
66
66
66
66
66
66
66
66
68
69
68
69
60
54
47
46
44
44
45
50
58
65
68
68
71
74
77
77
77
74
71
74
72
71
72
74
77
79
77
79
77
79
82
81
81
84
87
89
87
87
86
84
81
76
72
69
69
69
69
71
69
69
68
66
66
66
62
62
62
65
65
66
66
66
66
65
56
50
46
45
44
45
46
52
59
63
71
69
71
72
76
76
76
74
72
72
71
71
74
77
77
74
74
76
76
76
77
81
79
81
82
84
86
89
91
84
79
74
69
69
71
76
71
71
69
68
68
66
68
65
65
63
62
63
62
63
62
62
62
59
52
47
44
44
43
44
46
54
59
60
69
72
74
74
72
72
74
74
72
72
71
72
71
74
74
71
72
74
72
74
74
77
76
77
77
82
86
86
84
82
81
74
68
68
72
74
76
74
74
71
68
65
65
65
63
63
62
60
60
59
59
58
58
55
50
46
45
43
42
42
46
52
56
59
69
69
72
71
69
71
72
72
69
71
71
71
72
71
69
71
71
69
69
71
74
76
74
74
76
82
84
82
82
81
79
76
71
68
69
71
71
74
72
69
65
63
63
65
62
59
60
59
59
56
58
56
54
52
47
44
42
42
41
42
45
52
55
58
69
69
69
69
68
66
68
68
68
69
69
71
69
68
69
71
71
66
66
66
69
72
71
72
74
77
81
81
82
84
82
77
72
71
69
71
71
72
69
68
68
63
59
62
60
58
58
56
58
58
56
52
51
49
44
42
41
40
40
41
46
54
55
56
68
68
68
66
66
65
66
65
66
69
68
69
68
66
65
66
66
63
65
63
65
68
69
69
69
72
77
82
81
81
81
79
74
69
68
69
72
72
69
68
66
62
58
59
58
55
55
54
54
56
54
52
50
45
40
41
41
39
40
41
46
52
55
54
66
65
65
65
65
63
63
65
66
69
65
65
69
68
65
65
66
63
59
60
63
65
66
69
71
71
74
76
79
77
79
79
76
69
66
65
68
68
68
66
65
58
58
59
56
56
56
55
54
55
52
51
47
42
39
39
39
39
40
42
46
52
55
50
63
63
62
63
62
62
63
63
66
66
65
63
66
65
63
62
62
63
62
60
59
60
62
65
68
69
71
72
74
76
77
77
76
69
66
65
65
65
63
63
60
56
56
56
55
55
55
54
52
54
52
51
45
41
37
37
38
38
39
41
45
50
51
49
65
63
63
65
63
63
63
65
65
65
65
63
65
63
62
60
59
60
62
60
58
58
62
65
63
68
69
72
72
76
76
74
72
69
65
63
63
63
62
60
58
55
55
58
58
56
55
54
54
52
52
51
44
40
36
35
36
34
38
41
46
49
47
46
65
65
65
65
66
65
63
63
63
63
63
63
62
62
63
62
60
62
60
60
58
56
60
62
63
68
69
69
74
72
71
71
71
66
63
62
60
59
58
56
55
54
54
55
56
55
54
52
52
54
54
51
42
37
35
35
35
33
37
42
47
49
47
45
62
63
65
65
65
63
63
63
62
60
63
66
63
62
62
62
60
62
62
60
59
58
59
62
63
68
71
69
69
69
69
69
69
66
59
58
56
55
54
54
54
55
54
52
52
54
52
52
52
52
54
47
41
38
35
35
35
35
38
42
47
47
47
45
60
60
63
63
65
62
62
62
62
60
63
65
65
65
63
60
60
62
62
62
59
59
59
62
62
65
69
68
68
68
66
66
65
65
59
55
54
52
52
52
52
54
52
51
52
52
54
52
54
54
51
45
40
38
37
35
35
36
37
42
46
46
45
43
60
60
62
63
63
62
59
58
62
60
60
62
62
62
60
59
62
62
59
59
58
56
58
60
62
65
65
63
66
66
66
65
63
62
58
55
55
52
50
52
50
52
51
51
52
54
55
52
51
52
49
42
38
37
35
35
34
35
37
43
47
49
46
44
58
58
60
60
63
62
60
59
59
62
60
62
59
58
58
58
59
58
58
56
56
56
58
58
59
63
60
63
66
68
68
63
62
59
54
52
51
50
49
52
50
50
49
49
51
52
51
51
51
50
45
41
39
36
33
33
30
34
39
44
49
47
45
43
58
58
58
60
60
59
59
58
59
62
62
59
58
56
56
56
56
56
55
56
56
56
58
59
59
62
62
63
65
66
65
60
59
56
54
51
52
49
47
50
50
49
50
50
50
50
50
51
50
49
44
39
37
36
31
32
32
36
40
45
47
46
43
42
58
56
58
58
58
56
58
58
58
59
59
60
58
56
56
54
54
54
56
58
56
55
56
58
58
59
60
62
62
63
62
60
59
56
52
50
50
47
46
47
50
51
51
50
50
50
49
49
49
47
42
37
34
34
33
33
33
36
40
44
46
45
43
42
55
55
56
56
55
56
58
59
58
56
56
58
59
56
56
52
51
54
55
55
56
55
56
56
56
58
60
62
60
59
59
59
56
55
51
50
49
46
46
46
50
51
50
47
49
49
49
50
49
45
41
36
34
32
32
32
34
36
40
43
44
43
42
41
55
54
56
56
54
54
55
58
59
59
56
55
56
56
56
52
51
52
54
52
55
54
56
55
54
56
59
59
58
59
58
56
55
54
50
47
49
46
46
47
46
49
47
47
49
50
47
49
46
44
39
34
32
31
31
30
33
36
40
41
41
41
42
41
55
52
51
52
52
52
52
55
56
56
59
56
54
54
54
51
50
51
52
52
54
52
54
52
54
54
55
55
55
54
54
54
54
51
49
47
47
45
45
47
47
46
46
47
49
49
47
46
46
43
37
33
32
30
30
29
32
36
39
40
41
42
44
42
54
51
50
51
51
52
52
51
52
54
55
55
52
50
50
52
51
50
50
52
50
51
51
50
50
50
51
50
50
49
50
52
50
49
47
45
46
46
45
46
46
46
45
45
46
49
49
46
46
39
34
32
31
30
31
30
31
35
39
39
38
40
43
40
