P2
# 318 of 608 Angiograms
64 64
255
185
188
191
188
180
173
173
173
177
177
177
177
175
170
165
158
152
146
144
141
139
141
142
148
152
158
163
170
173
173
173
175
182
186
188
189
189
188
186
186
191
194
196
198
199
199
200
200
200
199
194
186
178
173
168
161
158
154
150
146
144
146
142
137
185
189
192
191
185
175
172
172
172
173
173
173
172
167
159
156
150
144
142
139
137
139
142
144
150
158
165
170
173
172
172
175
182
186
189
189
188
189
189
189
192
195
198
199
200
200
202
202
200
200
196
188
178
175
172
167
161
156
152
148
146
144
142
135
186
189
192
191
185
177
172
168
167
167
168
170
170
165
161
156
150
146
144
141
139
139
142
144
152
158
167
172
173
173
175
177
182
186
189
189
188
189
189
189
192
196
198
199
199
200
200
202
202
200
198
191
180
177
173
168
165
161
154
148
146
144
141
135
186
188
189
189
185
177
170
167
165
165
165
168
168
167
163
158
152
148
144
142
141
141
142
146
152
161
170
173
175
177
177
180
183
186
188
188
189
189
189
192
194
196
196
196
198
198
199
200
200
202
199
194
183
177
175
170
167
163
156
148
144
141
139
133
185
186
188
188
185
178
172
167
163
161
163
165
167
167
163
158
154
150
146
144
144
144
146
150
156
165
170
173
175
178
180
182
183
185
185
188
189
189
189
192
194
195
194
192
194
196
198
199
200
202
200
195
186
180
177
172
168
163
156
146
141
139
137
131
183
185
186
186
185
182
175
168
165
163
165
165
167
168
165
159
156
154
150
148
148
148
150
156
161
168
172
173
177
182
183
185
185
185
186
188
188
188
189
192
192
192
191
189
191
195
196
198
199
200
199
195
188
182
177
173
168
163
156
144
141
139
135
131
182
185
186
186
186
182
175
170
167
165
163
165
168
170
167
161
158
154
154
154
152
152
154
159
167
172
173
175
178
183
186
186
188
188
188
188
188
186
188
191
191
189
188
189
189
192
196
198
198
199
198
195
189
180
175
172
168
161
154
144
141
139
133
129
182
185
186
186
185
182
175
170
170
168
168
168
172
173
170
165
161
158
158
158
158
158
158
163
172
175
177
178
182
186
189
189
189
188
188
188
186
186
188
189
188
186
186
188
189
191
194
195
195
196
195
192
188
178
173
172
170
161
154
142
139
137
131
127
182
185
185
185
183
178
173
170
170
170
168
170
172
172
170
168
165
163
163
163
161
161
163
168
173
177
180
182
185
189
191
191
189
188
189
188
186
186
188
188
186
186
186
185
186
188
189
191
191
192
192
191
186
178
175
172
170
163
154
144
139
135
131
125
185
186
185
185
180
175
170
170
170
170
170
170
170
170
170
170
168
168
167
167
165
165
167
172
177
178
182
185
188
192
192
189
188
188
188
186
186
188
186
185
183
183
185
183
182
182
185
188
189
189
191
191
188
180
177
173
170
165
156
144
141
135
131
127
185
186
186
183
178
173
170
168
168
168
168
170
170
170
172
172
172
170
170
168
168
168
170
173
177
180
183
186
191
192
191
188
186
186
186
185
185
185
183
183
183
183
183
180
178
178
182
185
188
189
191
192
189
183
178
173
172
165
156
146
142
137
131
129
185
186
185
182
177
172
170
168
167
168
168
172
172
173
175
177
175
173
172
170
170
170
172
175
177
180
183
186
189
189
188
185
185
183
183
183
182
182
183
183
185
183
182
178
175
177
180
183
188
188
189
191
189
183
180
175
173
167
158
150
142
139
133
129
185
186
183
180
175
170
168
167
167
168
172
173
175
177
178
180
178
175
173
172
170
172
172
175
177
178
182
185
186
186
183
182
182
182
180
180
182
182
183
185
185
185
183
178
177
177
180
183
186
189
191
191
188
183
180
177
173
170
161
152
146
141
133
129
185
185
185
180
172
168
168
168
170
170
172
173
175
178
180
183
182
178
175
172
170
170
170
173
175
177
178
182
183
182
178
177
178
178
178
180
182
183
183
185
185
185
185
180
178
178
182
183
186
189
192
189
188
183
180
177
175
170
163
154
148
141
133
129
183
183
185
178
172
167
168
170
172
172
172
172
175
178
180
183
183
180
175
170
168
167
167
170
173
175
175
178
178
177
175
175
175
175
177
178
182
183
185
186
186
186
185
183
182
182
183
185
186
189
189
189
188
185
180
177
175
170
163
154
148
141
133
129
182
183
182
177
170
167
168
168
172
173
172
172
173
177
178
182
183
182
173
168
167
165
165
167
168
170
172
173
175
175
173
173
173
173
173
177
182
185
185
188
189
186
185
185
183
185
186
186
188
189
191
191
191
186
182
178
175
168
163
156
150
141
131
125
180
180
178
175
170
167
167
168
170
172
170
170
172
173
177
178
180
180
173
167
165
161
158
161
165
168
168
172
172
172
172
172
173
173
173
177
182
185
186
188
189
186
185
185
185
186
188
188
189
192
194
195
194
191
185
180
175
170
163
154
148
141
131
125
177
177
175
172
168
167
165
167
168
168
168
168
170
172
175
177
178
177
170
165
159
156
154
158
163
167
168
172
172
170
170
172
173
173
175
177
182
185
186
188
186
185
185
183
185
188
189
191
192
195
198
198
198
195
188
180
175
170
165
156
148
141
135
129
175
175
172
168
168
165
163
163
165
167
168
170
168
170
172
173
175
173
167
159
154
152
152
158
163
168
170
172
170
168
168
170
172
175
175
177
180
183
185
185
185
183
183
182
185
188
189
192
194
196
199
200
200
198
192
183
175
170
165
158
150
142
137
135
175
172
167
165
165
163
163
163
163
167
167
167
167
168
170
172
172
168
163
154
150
150
154
159
167
168
170
170
168
168
170
172
173
175
175
175
177
182
183
183
183
182
182
182
183
188
189
192
195
198
200
202
200
199
194
182
175
170
165
158
152
144
139
137
173
168
163
163
161
163
165
165
165
165
163
161
161
163
167
168
168
165
163
156
152
152
154
161
168
170
168
168
170
170
172
173
173
175
173
173
173
178
182
183
183
183
182
182
183
186
189
192
195
198
199
200
200
199
194
182
173
170
165
159
154
148
142
141
172
167
163
159
159
161
165
165
163
161
158
156
158
161
165
167
167
165
163
156
152
150
154
161
168
170
167
168
170
173
175
175
175
173
173
170
172
175
180
183
183
183
182
182
182
185
188
192
195
196
198
199
199
196
189
180
173
170
167
159
154
148
144
142
172
167
163
158
156
158
165
165
161
158
154
152
156
161
165
167
167
165
163
158
152
152
156
163
168
168
167
168
172
175
177
177
177
175
173
172
172
175
177
180
182
182
182
180
180
183
188
191
194
196
196
198
198
195
186
178
173
172
167
161
156
150
148
144
170
165
158
152
152
158
163
165
163
158
156
156
159
163
165
167
165
163
163
159
154
154
158
163
168
168
167
168
173
175
177
177
178
177
175
175
175
177
177
177
180
180
180
178
178
183
188
189
192
195
195
196
196
192
183
178
173
172
167
161
158
152
150
146
165
158
150
146
150
159
165
167
165
161
159
161
165
167
165
163
163
163
163
161
158
156
159
163
167
168
168
172
175
175
177
178
180
180
178
178
178
178
177
177
177
177
177
177
178
183
186
189
191
192
194
194
192
188
182
178
175
173
167
163
158
152
150
146
156
150
144
144
152
163
170
172
170
165
163
165
168
168
165
163
163
163
163
161
159
158
159
163
167
170
172
175
177
177
177
180
180
182
182
183
183
182
180
178
177
175
177
177
180
183
186
188
189
191
189
189
188
183
180
178
175
173
168
163
156
152
148
144
150
146
144
148
156
165
172
175
172
165
163
167
167
167
163
161
161
163
165
165
163
161
161
163
167
172
177
178
178
178
178
180
182
182
185
185
183
185
185
180
178
175
177
178
182
185
186
188
186
186
186
185
183
182
180
178
177
173
168
163
156
150
146
142
148
144
144
150
159
167
172
173
170
165
163
163
165
163
163
161
163
165
165
163
165
163
161
163
167
173
178
182
182
180
180
180
182
183
185
185
186
186
188
185
182
178
178
180
183
185
186
186
185
183
183
182
180
180
182
180
178
175
168
161
156
148
144
141
150
148
148
154
161
167
170
170
167
161
158
159
161
163
165
167
168
167
167
165
165
165
163
163
168
175
178
182
182
180
182
182
180
182
183
185
186
189
189
189
185
182
180
182
183
185
186
185
182
178
178
178
180
180
182
182
178
175
170
163
158
148
142
137
152
150
152
156
161
165
167
167
163
158
154
158
163
168
172
173
172
168
167
165
165
163
161
161
167
173
177
178
178
180
180
180
178
178
182
183
185
189
191
191
188
182
182
182
183
183
183
180
177
173
175
175
177
178
180
180
180
177
170
163
156
146
142
137
156
154
154
156
161
163
163
161
159
156
154
159
167
173
178
178
175
172
168
167
165
163
161
158
161
168
172
173
173
175
175
173
175
177
180
182
185
189
191
191
188
182
180
180
180
178
178
173
172
172
172
173
173
173
177
178
177
175
170
163
154
144
141
137
158
156
154
154
154
156
156
158
158
156
158
163
172
178
183
183
178
173
170
168
167
161
161
159
159
163
167
167
168
168
168
168
170
173
178
182
185
188
189
189
186
182
180
178
175
172
172
170
168
170
170
173
173
173
175
173
172
172
167
161
152
144
141
137
158
154
150
148
148
152
156
158
159
161
163
170
175
182
186
185
178
175
172
170
167
161
161
161
159
159
161
161
161
163
163
165
168
172
177
180
183
186
188
186
185
182
178
175
172
168
167
165
167
170
172
173
173
173
172
170
168
168
163
158
150
142
139
137
152
148
146
144
144
150
156
163
165
168
170
173
178
185
188
185
178
177
173
170
168
165
163
161
159
159
161
161
159
158
159
161
165
170
173
177
182
183
183
183
182
180
177
175
172
168
167
167
165
168
170
173
172
170
168
167
167
165
161
156
148
141
139
137
148
146
144
144
146
154
159
167
170
173
173
175
178
186
186
183
178
177
173
172
168
167
165
165
161
161
159
161
158
154
156
159
163
168
172
173
177
178
180
180
180
178
177
175
172
168
168
167
167
168
170
172
170
168
165
163
163
161
158
152
144
141
137
139
144
146
148
150
152
159
163
170
175
178
177
177
180
185
185
182
180
178
175
173
170
167
165
167
165
163
161
159
156
154
156
158
161
168
172
173
173
175
177
177
177
178
177
175
172
168
168
168
167
167
168
167
167
165
161
161
161
158
158
152
144
141
139
139
146
150
156
158
161
165
168
173
180
182
178
177
178
182
183
182
180
180
177
173
170
167
167
165
165
165
161
158
156
154
156
159
163
167
172
172
173
175
175
175
177
177
177
173
168
167
167
167
165
165
165
163
163
161
159
159
158
156
156
154
148
141
141
139
154
158
161
165
167
167
168
175
178
180
177
175
177
180
182
180
182
182
178
175
172
168
167
165
167
168
165
161
159
158
158
159
163
167
170
170
172
173
175
177
177
177
175
173
170
165
163
163
161
161
159
159
158
159
158
158
158
156
156
156
150
142
141
139
158
163
167
168
168
167
168
173
175
175
173
173
175
178
178
180
180
182
178
177
173
172
170
168
170
170
168
165
161
161
159
161
163
165
167
168
170
172
175
177
177
175
175
173
170
165
161
159
158
158
156
156
154
156
158
159
158
158
158
158
154
146
144
141
163
167
168
170
168
167
168
170
172
173
173
175
177
177
177
180
180
180
180
178
175
173
173
172
172
172
172
170
167
163
163
161
163
165
167
167
170
172
175
177
177
175
175
173
170
163
159
158
158
156
154
152
154
158
158
158
159
159
159
161
159
152
146
144
167
167
167
168
167
167
168
168
170
172
173
175
177
177
178
180
180
180
180
177
173
173
173
173
173
175
175
173
172
168
167
163
163
167
168
168
170
172
175
177
177
177
175
173
170
163
161
159
158
154
154
154
156
158
158
156
158
161
163
165
165
159
150
144
167
167
167
167
165
163
165
167
167
168
175
177
177
177
177
180
182
182
180
175
172
173
173
172
170
173
177
177
175
172
170
167
167
168
170
172
170
173
177
177
177
177
175
172
167
163
163
159
158
154
154
156
156
156
158
156
156
159
163
167
168
163
154
148
167
165
165
165
161
161
161
163
163
168
175
177
178
177
177
178
180
180
178
173
172
172
172
168
168
172
177
178
178
175
173
170
170
172
173
173
173
175
175
175
173
173
172
170
168
165
163
159
158
154
156
158
156
154
156
156
156
161
165
168
168
165
159
152
163
161
161
161
159
159
159
161
163
168
173
177
177
177
175
177
180
180
177
173
172
170
170
168
167
172
175
180
180
178
175
173
173
175
177
175
173
173
172
172
172
172
170
170
167
165
165
161
158
156
154
156
154
154
154
156
159
163
167
168
170
167
163
158
158
158
158
158
158
158
158
159
163
168
172
175
178
177
173
173
177
177
175
173
172
172
170
168
167
168
175
178
182
180
178
177
175
175
177
175
172
170
168
170
170
170
172
168
165
165
167
163
159
156
152
152
152
154
156
158
163
165
168
170
170
168
163
159
154
154
154
156
156
154
156
159
165
168
172
177
178
177
175
175
175
177
177
173
173
172
170
167
165
168
173
178
182
183
180
180
178
178
177
173
172
168
168
168
168
170
168
167
165
165
167
163
159
156
152
152
150
152
156
159
163
167
168
170
170
170
167
161
148
150
154
154
154
154
156
159
165
170
175
178
178
177
177
177
177
177
177
175
173
170
168
167
165
167
172
178
182
185
183
182
180
178
178
173
168
167
168
167
168
168
168
167
165
167
167
165
159
156
152
150
150
150
156
161
163
165
168
170
170
172
168
165
144
148
152
154
152
154
156
161
167
172
177
180
180
178
180
182
182
180
177
175
172
170
168
167
165
167
170
178
183
186
186
185
183
180
178
175
168
167
165
167
167
165
165
165
163
165
165
163
161
156
152
150
150
152
158
163
165
165
167
168
170
172
172
168
146
150
154
154
154
154
156
161
168
177
180
183
183
185
185
185
183
182
178
175
172
168
168
167
165
167
170
177
183
185
186
185
183
183
182
177
170
165
163
163
165
165
165
163
161
161
161
161
161
156
152
150
152
156
161
165
167
167
167
170
172
172
173
173
150
154
156
158
158
158
158
163
172
178
183
186
188
188
188
186
185
183
182
177
173
172
170
167
165
167
168
173
180
185
186
185
185
183
182
177
170
165
163
161
163
163
159
158
156
156
158
159
159
156
154
154
158
161
163
165
165
167
167
168
170
173
175
177
154
156
159
161
161
159
161
167
173
178
185
189
191
191
189
188
185
185
182
180
177
173
172
167
165
167
168
170
177
182
185
185
185
185
182
178
170
165
163
161
159
158
156
154
152
152
156
159
158
156
158
158
161
163
163
165
167
167
168
170
170
175
175
180
156
158
161
163
163
163
163
167
173
178
185
191
192
192
189
189
186
185
183
180
178
175
173
170
167
165
167
167
172
178
182
183
183
183
182
177
172
167
163
159
158
156
152
154
152
154
158
158
159
159
158
161
163
163
163
167
168
168
170
172
172
175
175
178
159
158
161
165
167
165
165
167
172
177
183
189
194
192
191
189
188
186
183
180
178
177
175
172
168
167
165
163
168
173
178
180
180
182
180
177
172
168
165
158
156
152
152
152
154
154
158
159
159
161
161
161
165
163
161
165
167
168
170
172
173
175
175
177
159
159
163
167
167
165
167
165
167
175
182
189
194
192
191
189
188
186
185
182
180
178
177
173
172
170
168
167
170
172
173
177
178
178
178
175
172
168
165
159
154
152
152
150
152
156
158
159
161
163
163
161
163
165
161
161
165
168
170
172
172
173
173
175
159
161
165
167
167
165
167
163
167
173
182
189
194
192
191
189
188
188
186
186
183
182
178
177
175
173
172
172
172
172
173
173
177
177
175
173
170
168
167
159
156
154
152
150
152
154
159
161
161
163
165
163
165
165
163
161
163
165
168
170
172
173
175
175
158
161
165
167
167
165
167
165
165
173
182
189
194
192
191
191
189
189
189
188
188
185
182
180
178
178
177
175
173
172
172
172
175
175
173
172
170
168
167
161
159
156
154
152
152
154
159
163
161
163
165
163
163
165
163
163
163
167
168
168
170
173
173
173
159
163
167
167
167
165
167
167
167
172
180
189
192
192
192
192
192
192
191
191
189
188
185
182
180
180
178
178
175
172
170
172
172
172
170
170
168
167
167
163
161
159
158
156
154
156
159
161
159
159
161
161
161
161
165
165
167
168
168
170
170
172
172
172
159
165
167
167
167
165
168
168
167
172
178
188
192
194
194
192
194
194
194
191
189
188
185
183
182
182
180
177
173
170
170
168
168
168
167
167
165
165
165
165
163
163
159
158
156
158
158
158
156
156
158
159
159
161
165
165
167
167
167
168
168
170
170
170
163
167
168
168
168
167
168
168
168
172
178
188
191
194
194
195
195
195
194
191
189
188
185
183
183
182
178
175
172
168
167
167
165
163
163
161
161
163
165
167
167
165
159
158
158
158
156
156
154
154
156
158
158
161
165
167
167
168
167
167
168
170
168
168
165
167
170
172
168
167
167
168
170
173
178
186
189
194
195
196
196
196
194
189
189
188
185
183
182
178
177
173
170
167
165
163
161
161
161
159
161
165
167
167
167
163
158
156
156
156
154
154
152
152
152
158
159
161
165
167
168
168
167
165
168
168
167
167
167
168
170
172
168
165
165
167
170
173
178
185
189
192
194
195
195
195
194
189
189
186
183
182
180
177
173
172
168
165
163
161
161
159
158
159
161
163
165
165
163
159
156
156
154
152
152
152
150
148
148
154
158
161
165
167
168
167
163
163
168
168
167
167
167
168
170
170
167
163
163
165
168
172
178
183
188
192
194
194
194
194
194
191
188
185
182
178
177
173
172
168
167
163
161
159
158
156
156
158
159
161
163
161
159
156
152
152
152
152
152
150
146
144
146
152
158
161
165
167
168
167
163
163
168
168
168
168
168
167
168
167
165
163
161
163
168
172
177
182
186
191
192
192
192
194
194
191
188
185
180
177
173
172
170
168
165
163
159
158
154
154
152
154
158
159
159
158
156
154
150
152
152
152
150
148
144
142
144
150
156
159
163
167
167
167
163
165
168
170
168
170
167
167
167
165
163
161
159
163
168
173
177
182
185
191
194
194
194
194
192
189
188
185
178
172
170
168
170
167
165
163
158
156
154
152
150
152
154
156
156
156
154
150
150
148
150
150
148
146
144
142
144
148
154
159
165
167
167
168
167
167
168
168
170
172
