P2
# 325 of 608 Angiograms
64 64
255
115
113
117
115
113
115
115
117
121
123
123
123
123
123
125
131
133
133
131
129
129
127
125
127
129
131
129
127
129
129
129
127
127
123
119
117
117
119
121
121
119
119
121
123
125
127
129
133
133
129
125
123
125
129
127
123
123
123
123
123
121
119
119
125
113
112
113
119
117
115
117
119
123
125
123
121
123
123
125
129
131
129
127
125
123
123
125
127
127
127
125
125
127
129
127
129
127
123
119
117
115
117
119
119
121
123
121
121
121
123
125
129
131
129
123
123
125
125
125
125
123
123
121
121
121
121
123
125
112
113
115
117
115
113
115
117
123
123
119
117
119
121
123
123
127
125
123
121
119
119
121
123
123
121
121
123
125
125
127
127
123
119
115
113
115
117
115
117
119
119
119
117
115
117
121
125
127
125
123
123
123
121
121
123
123
121
119
119
123
125
125
127
110
112
113
113
112
113
115
119
121
117
117
113
115
117
119
121
121
121
119
117
117
117
117
117
115
113
113
117
119
121
123
121
119
117
113
112
112
113
113
113
115
115
117
117
113
113
115
119
119
119
119
117
117
117
119
121
119
117
117
117
121
121
123
127
108
110
110
110
112
115
117
117
115
115
113
115
115
113
115
117
115
115
113
113
113
113
112
112
110
108
108
110
113
115
117
117
115
115
113
112
112
110
110
112
115
115
115
115
112
110
112
112
112
112
113
113
112
113
115
115
113
113
115
115
117
121
123
125
108
106
108
106
106
112
113
115
115
113
113
113
113
113
113
113
113
110
108
110
110
110
110
110
106
104
102
104
110
110
112
112
110
110
110
112
113
113
112
112
113
113
115
113
110
108
106
108
106
108
108
110
108
106
108
108
108
110
112
112
115
115
115
119
106
104
104
104
104
110
113
115
113
113
112
113
115
113
112
112
112
110
108
108
110
110
110
110
106
104
102
104
108
108
108
108
108
108
108
108
112
112
112
112
110
112
113
113
112
108
104
104
102
102
106
106
102
100
98
100
102
106
108
108
110
110
110
113
100
100
100
102
106
110
112
110
110
112
110
113
115
112
112
110
110
110
110
110
112
112
112
110
106
102
102
106
106
110
106
108
104
104
106
106
110
115
115
113
112
112
112
110
110
106
106
104
102
100
102
102
102
98
96
98
100
102
108
108
110
110
106
106
100
102
104
106
106
112
112
112
113
112
110
113
113
113
113
110
112
112
113
113
113
113
112
112
108
102
102
108
112
110
108
106
104
104
106
108
112
115
115
113
113
112
108
106
110
110
106
104
100
100
102
102
102
102
96
98
100
100
104
108
108
108
104
104
104
106
106
106
106
112
113
112
110
110
110
112
113
113
112
110
113
115
115
113
112
112
112
110
108
104
104
110
112
112
110
108
110
110
110
112
115
117
113
112
115
113
110
110
112
112
108
104
100
100
100
102
102
100
98
100
98
102
102
108
106
102
102
102
104
104
104
104
106
110
112
112
108
112
110
110
112
113
113
112
115
113
112
117
117
113
110
112
110
106
104
110
112
113
110
112
113
115
115
117
119
117
115
115
115
113
110
110
110
112
112
108
106
106
106
104
104
102
100
100
102
104
104
106
104
102
98
100
102
104
102
104
106
110
112
112
112
112
110
108
108
110
113
115
117
115
115
117
117
115
112
112
113
110
106
110
112
113
113
115
115
117
119
119
119
119
115
113
113
112
112
112
113
113
113
113
112
112
110
108
104
102
102
102
104
106
106
104
102
102
96
98
102
104
104
104
106
106
110
113
112
110
110
108
108
112
112
113
115
115
117
115
117
115
113
113
113
110
108
110
110
112
117
119
117
117
117
117
119
119
115
117
117
115
115
113
115
115
119
117
115
115
113
110
106
108
108
108
108
106
106
104
100
100
98
98
108
106
108
106
106
108
108
110
113
113
110
108
108
113
113
110
112
115
119
117
117
115
113
112
110
112
113
115
113
112
115
117
113
115
113
115
119
121
117
117
117
115
115
113
115
121
121
121
117
117
117
112
113
112
112
110
110
106
106
106
100
98
98
100
106
110
110
106
110
110
108
110
113
112
112
110
110
112
112
110
112
115
117
117
119
115
113
112
110
112
113
117
117
113
115
113
112
113
115
115
115
121
119
117
117
115
113
115
121
125
127
125
121
119
117
115
115
115
112
110
108
108
108
106
104
100
100
100
104
110
112
112
113
112
110
110
112
113
112
110
110
112
112
113
113
115
117
115
115
115
113
112
112
113
113
115
117
115
115
115
113
115
117
115
115
115
117
115
117
117
117
119
123
129
129
127
123
121
117
117
115
113
112
108
108
110
108
108
104
102
102
104
104
108
112
113
113
112
112
110
112
117
115
113
112
112
112
113
115
117
115
117
113
113
112
108
112
112
113
113
113
113
115
115
115
115
115
117
117
115
115
113
115
119
119
119
123
129
129
127
125
123
119
115
117
115
110
108
108
108
106
104
102
104
104
108
106
110
112
113
113
113
112
110
112
115
117
115
113
110
110
112
113
113
115
113
112
110
108
110
112
112
112
112
112
113
115
113
112
112
113
113
113
113
113
115
119
119
121
121
125
127
127
129
127
121
119
117
117
115
110
108
108
108
104
100
100
102
104
110
110
112
113
113
113
115
112
110
110
113
113
115
113
110
112
113
112
112
113
113
108
106
106
108
112
113
110
112
112
113
113
113
112
113
113
112
112
112
112
117
119
119
121
123
127
127
127
129
129
123
119
115
115
113
112
108
106
102
98
96
95
96
102
106
110
112
115
115
113
115
115
112
110
112
115
117
113
112
113
113
113
113
113
113
108
108
106
108
110
112
110
112
112
113
112
112
112
113
113
110
108
112
112
115
119
119
123
123
127
127
129
129
129
125
121
115
112
112
108
106
102
98
95
91
91
93
100
106
112
112
113
115
115
115
115
113
115
115
115
115
112
112
113
115
115
113
112
113
110
110
108
106
108
110
110
112
113
115
113
113
113
113
113
113
113
112
110
113
117
119
121
123
125
125
127
129
127
123
121
115
112
110
106
102
98
91
89
91
89
91
95
104
110
110
110
112
113
115
112
113
115
113
117
117
113
113
113
115
115
112
110
112
113
110
108
106
106
108
110
110
113
115
115
113
115
117
115
113
115
112
113
115
117
119
119
121
123
121
125
125
125
123
117
113
108
106
104
96
91
87
87
87
91
89
93
102
110
112
110
110
115
113
113
115
119
117
121
121
115
115
115
115
113
112
110
110
112
108
110
106
102
104
108
112
115
117
117
115
117
115
115
113
115
115
117
117
117
119
121
123
121
121
123
123
121
117
113
110
106
102
100
93
86
84
86
87
89
89
95
104
112
112
110
112
113
112
112
115
117
121
121
121
117
113
113
115
113
113
112
110
108
108
108
106
104
104
108
112
113
117
115
113
113
115
115
115
119
119
119
119
119
119
123
125
123
123
123
121
115
112
108
106
104
102
96
91
86
82
82
86
91
93
96
104
112
112
112
112
112
113
113
117
117
119
121
121
117
113
113
115
115
115
115
112
112
112
108
108
110
108
110
113
115
115
115
115
115
115
113
117
119
119
121
121
119
121
123
125
125
123
121
117
113
110
108
104
102
100
95
91
87
87
87
91
93
96
98
104
108
106
110
112
113
115
115
113
117
119
119
117
113
112
112
113
113
113
113
113
113
115
113
112
112
113
113
113
115
115
115
117
117
117
117
119
119
121
123
121
119
121
123
123
125
125
119
115
112
108
104
106
102
100
95
93
93
91
93
95
96
96
100
104
104
104
110
112
112
113
113
112
115
117
115
112
113
112
113
112
113
112
110
112
113
115
113
113
113
113
115
117
117
117
115
117
117
119
119
121
119
123
125
123
121
121
123
123
119
119
115
113
110
108
104
104
102
98
98
93
93
91
91
93
95
98
104
106
106
108
112
112
112
113
113
110
112
113
115
113
113
113
115
112
113
112
112
112
112
113
113
113
115
115
115
117
119
119
117
117
117
121
123
123
121
121
125
123
123
121
121
123
119
115
115
113
112
108
106
102
102
100
98
96
93
89
89
91
95
100
106
108
110
108
108
112
113
113
113
110
110
113
113
115
113
113
113
113
113
112
112
110
110
115
117
117
115
115
117
119
119
121
117
119
119
121
125
123
123
123
125
125
125
123
121
121
119
117
115
113
112
110
108
104
102
102
100
96
95
93
89
89
96
102
104
108
110
110
110
110
112
112
113
110
112
110
110
112
112
110
112
113
113
113
112
110
112
117
121
119
115
113
115
117
117
119
121
121
123
123
123
125
123
123
123
123
123
121
121
117
115
117
115
113
112
110
106
106
108
104
100
96
95
95
93
91
96
104
106
110
108
110
110
110
112
113
112
110
110
110
108
108
108
108
110
113
113
115
113
112
113
117
119
117
117
113
112
113
115
117
121
121
123
123
123
123
125
125
125
125
125
121
119
119
119
119
113
113
113
110
108
108
108
102
96
95
93
91
93
95
96
102
108
112
110
110
108
110
112
112
108
110
113
112
110
106
106
110
112
113
113
113
113
113
113
117
119
115
115
112
113
115
113
115
117
121
121
123
125
123
125
123
123
125
125
121
121
121
119
115
113
112
113
112
110
106
104
100
98
95
95
91
91
93
96
100
108
110
110
108
106
108
110
108
106
110
110
110
108
108
108
108
110
113
113
112
112
110
112
115
117
113
112
112
112
113
115
115
113
119
121
123
125
125
125
123
121
125
125
123
123
121
117
113
115
113
113
115
112
108
104
102
98
95
93
93
93
96
95
100
108
112
110
106
108
110
110
108
110
110
106
106
106
106
106
108
110
113
112
110
110
112
115
115
115
115
113
112
113
113
115
117
117
117
117
121
123
125
125
125
125
125
123
123
121
119
115
113
113
115
115
117
113
110
106
102
95
93
95
95
96
96
96
102
106
110
112
110
110
112
110
108
110
108
104
102
106
108
110
110
110
112
110
108
112
113
113
113
113
113
113
113
115
115
115
115
117
117
119
119
121
123
123
123
123
123
119
117
119
117
115
115
117
117
119
119
115
110
104
98
95
93
93
96
96
96
98
102
106
106
112
108
108
110
108
108
108
106
102
102
108
110
112
112
112
113
110
106
110
113
112
112
112
110
110
112
115
117
117
117
115
119
119
117
117
119
119
121
123
121
119
117
119
119
117
117
117
115
119
119
117
112
106
98
95
95
93
95
96
95
98
104
108
106
112
108
110
112
108
106
104
102
102
106
110
112
112
112
110
112
108
104
106
110
112
108
108
108
108
108
113
115
115
115
113
115
117
117
117
117
115
117
117
117
115
115
117
121
119
119
119
117
119
119
115
112
106
100
96
96
95
93
93
93
98
104
108
108
112
110
112
110
106
104
102
102
102
108
110
112
108
110
110
110
108
106
106
108
108
108
110
110
110
112
113
115
113
115
113
113
119
119
119
115
113
113
112
112
113
119
119
121
119
121
119
117
119
119
113
112
108
100
98
98
95
91
93
96
98
104
108
108
110
110
110
110
108
108
104
104
106
110
110
112
112
110
112
112
110
108
110
110
112
110
112
112
113
115
117
117
119
119
117
117
117
119
121
119
115
113
112
113
115
119
119
119
121
123
121
119
119
115
113
112
108
102
100
98
95
91
93
98
100
102
104
108
110
108
108
106
108
108
104
106
112
113
112
110
110
110
113
112
110
110
110
108
110
112
113
113
113
115
115
115
119
121
119
117
117
119
119
119
115
113
113
115
117
119
121
119
119
121
121
119
117
115
115
112
108
104
100
96
95
95
93
96
98
100
102
104
110
106
106
106
104
106
106
108
110
112
108
106
108
110
112
110
110
108
110
110
112
113
115
115
113
113
115
117
121
119
115
115
117
117
119
119
119
115
115
119
121
119
121
121
121
123
119
117
115
113
113
112
104
102
100
95
95
95
95
95
95
96
100
102
108
108
106
104
102
108
106
108
108
108
108
104
106
108
108
110
110
108
108
110
113
113
113
119
113
113
117
119
121
119
117
115
117
115
119
119
117
117
119
121
123
123
123
123
123
121
119
115
115
113
112
110
104
102
100
95
91
93
95
95
93
95
96
100
108
108
108
108
104
106
104
104
106
108
108
108
108
106
106
108
110
106
108
112
115
117
115
119
115
117
119
119
121
125
119
115
115
115
117
119
119
117
121
123
121
121
123
127
127
123
121
117
115
112
108
106
104
102
96
95
95
93
93
93
93
95
96
98
108
108
108
106
106
106
106
106
106
108
106
104
108
106
104
106
106
106
108
112
115
117
117
117
117
119
121
121
123
125
123
119
115
117
115
115
117
119
121
121
119
123
123
127
127
125
121
117
117
112
108
104
100
100
96
95
93
93
91
91
93
95
98
98
108
108
108
106
108
108
108
106
106
110
106
106
108
106
106
106
106
106
110
110
113
117
117
117
119
121
119
121
123
123
121
119
117
117
115
115
117
119
121
121
121
121
123
127
131
129
123
119
117
112
108
104
102
98
96
95
91
93
93
93
93
96
96
98
108
108
108
108
110
108
108
106
108
110
110
108
106
104
104
106
102
104
108
110
110
117
115
115
119
121
119
121
121
121
121
117
115
117
119
117
115
117
121
121
121
119
121
125
129
129
125
121
115
112
108
106
104
98
96
96
95
93
93
95
95
96
96
95
110
110
110
112
110
110
108
106
108
110
110
106
102
104
104
104
104
106
104
106
110
117
115
117
119
121
121
119
119
123
121
121
119
117
119
117
115
117
119
119
119
119
119
121
125
127
123
117
117
113
110
108
106
102
98
98
96
95
93
96
98
96
96
95
108
110
110
110
110
112
110
110
108
110
108
104
104
106
106
104
104
106
104
106
110
115
117
117
121
119
117
119
119
121
123
121
121
117
117
117
115
117
121
121
119
119
119
119
121
123
119
115
115
113
112
110
108
104
100
96
98
98
95
98
98
98
96
96
110
110
110
110
110
112
112
110
108
110
108
106
104
104
106
104
106
106
104
104
110
113
113
115
117
119
115
117
119
119
121
119
117
115
115
115
117
117
121
121
117
117
117
117
117
119
117
117
115
113
112
112
108
104
100
96
98
96
96
98
98
98
98
95
113
113
112
108
110
110
112
110
110
112
110
106
104
104
102
102
106
106
104
108
110
112
112
115
117
119
117
117
117
119
123
121
115
115
115
115
117
117
117
119
117
117
117
117
115
115
115
115
113
113
113
115
110
102
102
98
96
98
100
104
104
102
98
96
113
113
112
110
110
110
110
108
108
110
108
106
104
104
102
100
102
102
102
108
110
112
112
113
117
117
115
115
115
117
121
119
117
115
117
119
117
117
117
117
117
117
119
117
117
115
115
113
113
115
113
113
108
100
98
98
96
100
104
106
108
106
102
100
113
115
115
113
113
113
112
108
108
108
106
106
104
102
102
100
100
100
102
106
110
112
110
112
117
113
115
115
115
113
115
115
115
115
115
119
117
115
115
119
119
117
119
119
115
115
113
112
113
115
113
113
108
100
98
100
100
102
104
106
108
106
104
102
115
115
115
115
113
112
110
108
106
108
106
106
102
100
100
100
100
98
98
106
108
108
110
112
115
113
115
117
115
113
113
115
117
117
117
117
115
112
115
119
117
119
117
117
115
115
115
113
115
113
113
113
108
100
98
98
98
102
108
108
108
108
108
106
113
113
112
113
113
110
106
106
104
108
106
104
102
96
96
98
98
100
102
106
108
108
110
113
117
117
115
117
115
113
113
115
115
113
115
113
115
113
115
115
117
115
113
113
113
115
117
115
113
113
113
113
110
104
100
98
100
104
106
104
106
110
112
108
113
112
110
112
112
108
106
106
104
106
106
102
100
100
98
98
100
102
102
108
108
110
112
113
117
115
113
117
117
113
110
113
115
113
115
113
112
112
115
117
119
115
115
113
113
115
115
117
115
115
115
113
115
110
106
104
102
102
102
104
104
108
110
110
112
110
108
108
106
106
108
106
104
104
104
102
100
102
104
104
104
104
104
106
108
112
113
115
117
113
115
121
121
117
113
113
113
113
115
115
112
112
115
117
119
115
115
115
113
113
117
121
121
117
115
113
113
113
110
108
106
104
104
104
108
108
108
108
110
108
104
106
104
104
106
104
102
102
102
102
102
104
104
106
106
108
104
108
110
113
115
117
119
117
119
123
121
119
119
117
115
115
117
117
115
113
113
113
115
115
115
117
119
117
117
121
121
119
117
113
112
112
112
113
112
108
106
108
110
112
108
106
108
106
104
104
100
104
106
104
104
104
102
102
104
106
104
106
106
106
108
110
112
115
117
117
119
119
121
125
123
121
119
119
119
119
115
117
115
112
110
112
113
115
117
121
123
121
117
119
117
117
115
113
110
112
112
112
112
112
110
112
110
110
108
106
106
106
104
100
98
102
104
104
106
104
104
104
104
104
108
108
108
108
110
113
112
113
119
119
119
121
121
125
123
123
123
121
121
121
119
117
115
113
112
113
115
117
123
125
125
125
121
121
117
119
117
113
110
112
113
115
115
112
112
112
110
108
108
108
102
102
100
100
100
104
104
104
106
106
104
104
102
104
110
110
108
110
112
115
115
115
121
123
121
121
123
125
123
123
125
125
125
125
125
125
121
117
115
117
117
121
125
125
127
127
123
123
119
117
115
113
113
113
113
115
115
113
112
112
110
106
108
106
104
102
104
100
100
104
104
108
108
106
106
108
108
110
112
112
112
113
115
119
117
119
123
125
127
125
123
125
125
125
127
129
127
125
129
129
125
119
119
119
119
121
125
127
127
125
123
123
121
115
113
113
113
115
117
115
117
115
112
112
112
106
106
106
102
102
106
102
102
104
104
108
110
110
112
112
113
113
113
113
112
113
117
121
121
123
123
125
125
123
121
123
125
127
131
131
127
127
131
129
123
117
117
119
119
121
129
129
129
125
123
121
119
115
110
112
113
113
117
119
119
117
115
113
113
110
108
108
102
106
108
106
106
108
106
110
113
113
113
117
119
117
117
119
117
113
117
117
119
123
125
127
127
125
123
125
127
127
129
129
129
129
129
125
123
119
117
121
123
125
127
129
125
125
119
117
117
115
112
112
113
115
117
121
123
117
115
113
113
110
106
108
108
110
112
112
112
112
112
112
113
115
117
123
123
119
117
119
119
117
117
117
121
125
127
127
129
129
127
125
127
125
127
127
129
131
131
127
123
119
117
119
125
125
125
125
121
121
117
117
117
113
112
113
113
115
117
121
123
117
115
112
112
108
106
106
