P2
# 330 of 608 Angiograms
64 64
255
131
133
133
135
135
135
133
129
129
129
129
129
129
129
131
131
129
133
137
140
142
144
144
150
154
155
154
154
152
154
155
157
159
159
161
159
157
155
154
148
148
150
154
152
150
154
159
168
173
178
180
183
184
184
184
184
183
183
187
190
193
196
197
197
139
139
139
137
135
137
135
133
133
131
131
129
129
127
131
133
131
131
135
139
140
142
144
150
154
155
155
157
155
155
157
157
159
161
159
159
159
157
152
148
144
150
154
154
152
154
157
164
168
171
176
178
181
183
184
184
183
184
187
192
195
195
195
195
144
144
142
139
137
139
139
137
131
133
135
131
131
131
131
131
133
135
135
139
140
144
146
148
152
154
154
155
155
157
157
157
159
159
161
161
161
157
154
152
148
152
154
155
157
157
157
163
166
166
170
173
178
181
184
186
186
187
190
193
195
195
193
192
146
146
144
142
140
140
137
135
133
133
135
135
135
137
139
139
137
137
139
142
142
146
146
148
148
148
152
154
157
157
155
155
157
159
161
163
163
157
154
154
150
154
157
159
161
161
159
163
164
166
166
168
173
178
181
186
189
190
190
193
195
193
190
189
148
148
144
142
142
139
137
137
137
137
133
135
140
139
140
142
140
140
142
144
146
148
146
148
146
144
150
154
157
155
155
154
154
157
159
163
163
159
155
152
152
155
157
161
164
163
161
161
164
166
168
168
171
176
181
184
187
190
190
192
193
192
189
187
148
150
144
142
140
139
137
135
135
137
137
135
137
139
142
144
144
142
144
144
144
150
146
146
146
146
148
152
154
155
154
152
152
154
155
159
161
157
155
152
154
154
155
159
164
164
163
163
164
166
170
171
175
178
181
183
186
189
189
187
189
190
189
186
146
148
144
144
142
140
139
135
133
137
139
137
137
140
142
144
144
146
146
146
144
146
148
146
144
144
148
148
150
152
148
150
150
152
155
157
159
159
155
154
154
154
155
157
163
163
163
161
163
170
173
176
178
180
181
180
183
184
186
186
189
192
189
187
144
144
146
144
142
142
140
137
135
139
140
140
139
142
146
146
148
150
150
146
144
144
144
140
140
140
142
144
146
148
148
146
150
152
155
157
161
161
161
159
157
154
155
155
159
161
159
159
163
170
173
178
181
183
183
180
180
183
186
187
190
190
189
186
142
142
144
144
140
140
139
139
139
140
142
142
142
146
148
150
148
150
152
146
144
144
142
137
137
139
140
140
140
144
146
144
146
152
154
157
159
161
163
164
161
157
157
157
159
161
159
159
161
168
173
180
184
184
181
180
178
181
184
189
189
189
187
186
140
140
146
144
140
139
140
140
140
142
142
144
146
146
148
150
146
148
148
144
144
146
142
137
139
139
139
140
139
140
142
142
144
148
150
154
157
161
163
164
163
161
161
159
161
161
161
161
161
166
173
180
183
186
184
181
180
180
184
187
190
190
189
186
137
140
144
146
142
140
142
142
142
144
144
146
148
148
150
150
148
150
150
146
142
144
144
137
137
139
139
139
139
139
139
139
140
142
146
150
154
157
161
164
164
164
161
159
161
161
163
161
161
166
173
180
184
186
184
183
183
183
184
187
190
192
190
189
137
140
140
140
140
144
146
144
144
146
146
146
150
152
152
150
150
150
152
148
144
146
144
140
139
140
137
137
135
137
137
139
142
144
146
148
152
155
159
163
163
161
161
161
163
161
161
161
163
166
171
178
184
186
186
186
187
187
186
187
190
190
192
190
139
140
139
139
139
144
148
148
146
148
148
148
150
152
152
152
150
146
148
148
146
146
144
144
142
139
139
137
137
137
140
142
144
144
148
148
152
155
159
161
161
161
161
159
159
159
159
159
159
164
168
175
181
186
187
187
187
187
186
187
187
187
187
189
137
140
142
142
140
142
146
148
148
150
152
150
150
152
152
152
150
144
146
146
146
146
142
140
139
139
137
133
139
140
142
146
144
144
146
150
154
157
161
159
159
161
159
157
159
159
155
159
161
163
164
170
176
180
184
186
186
187
186
187
187
184
184
187
137
139
139
142
142
139
142
146
148
150
150
152
152
150
148
146
146
148
146
146
144
144
142
140
135
135
135
137
139
140
142
144
144
144
146
148
155
159
161
159
159
159
159
159
159
157
155
155
159
159
163
166
170
175
180
181
184
184
187
189
187
186
184
186
135
135
135
137
137
137
139
144
150
148
148
152
152
150
146
144
142
146
148
148
146
142
142
142
137
137
137
139
140
140
144
142
142
142
144
148
154
157
161
161
161
161
159
161
157
157
155
154
154
155
157
161
166
170
173
178
181
183
186
189
189
187
187
187
129
131
131
133
133
135
140
140
146
148
150
154
154
152
146
146
144
146
148
146
146
142
140
142
140
139
139
142
144
146
144
142
142
144
144
150
152
155
159
163
161
161
159
157
155
155
154
154
154
154
155
157
161
166
170
173
178
181
183
186
189
189
190
189
129
131
129
127
131
131
137
139
140
146
148
152
154
150
148
146
146
148
148
148
144
142
140
142
142
142
140
144
148
146
144
144
142
144
146
148
152
157
159
163
161
159
157
155
154
155
154
154
154
152
154
154
155
159
164
170
173
178
181
184
186
187
189
189
129
129
129
127
127
127
131
133
137
142
146
150
150
148
148
148
148
146
146
146
146
144
144
144
144
142
142
146
146
146
146
146
146
148
148
150
152
157
157
157
157
157
155
154
152
152
155
157
155
152
150
150
152
155
159
164
170
175
180
184
186
184
187
189
133
129
127
127
127
125
127
131
133
137
142
146
146
144
146
148
146
146
148
146
148
146
146
146
146
142
144
146
146
146
146
148
150
152
152
152
154
155
155
152
152
152
152
150
152
152
154
157
159
155
150
150
150
154
157
159
164
171
178
181
184
183
184
186
129
127
127
127
127
125
125
127
133
137
140
142
142
142
142
146
146
146
146
146
146
148
150
152
150
148
148
148
148
146
148
150
152
152
154
154
155
154
154
150
146
148
150
150
152
154
155
159
159
157
154
152
150
154
155
157
161
168
176
181
184
184
183
183
129
129
129
129
131
129
127
129
133
137
139
137
140
139
139
142
146
146
146
146
146
150
152
150
150
154
152
150
150
148
150
152
154
154
155
155
155
154
152
148
148
148
148
150
152
154
155
159
159
157
157
154
152
154
154
155
159
166
175
178
183
184
181
181
127
127
131
133
131
131
129
131
137
139
137
135
137
137
139
140
142
144
144
148
150
152
150
150
150
152
152
152
150
150
152
155
155
155
154
155
155
155
154
152
150
152
152
154
154
154
155
161
159
157
159
157
155
154
150
154
159
164
170
176
180
181
181
181
127
131
131
135
133
135
131
135
139
140
139
135
135
133
133
139
142
142
142
144
148
148
150
152
148
150
152
150
152
152
154
155
157
154
152
155
155
157
155
155
155
155
157
159
155
155
157
159
159
159
161
159
157
155
152
152
159
163
166
173
178
180
181
180
131
135
137
139
135
135
135
137
140
142
142
139
137
135
135
139
140
140
139
142
146
150
150
150
150
150
150
150
152
154
155
155
154
152
150
152
152
154
154
155
157
157
159
159
157
155
155
159
159
161
161
157
157
155
154
154
157
161
164
168
175
176
178
178
133
135
137
139
137
135
133
137
140
144
146
142
140
140
142
144
142
142
142
144
146
148
148
146
148
148
148
148
150
152
154
154
152
152
152
152
152
152
154
157
157
157
161
159
159
157
154
155
159
159
163
161
159
159
157
157
159
161
163
164
170
175
176
176
133
133
135
137
135
133
135
133
137
144
146
146
146
150
150
148
146
144
146
148
148
148
146
146
148
148
150
148
150
152
154
152
154
154
154
154
152
154
157
159
157
157
159
159
157
154
154
154
154
157
161
164
164
161
159
159
161
161
163
164
166
171
173
176
133
133
135
137
133
131
129
131
135
142
146
148
152
152
150
152
148
146
148
152
154
154
150
148
148
148
148
148
148
148
152
154
155
155
154
154
155
157
159
159
159
157
159
157
155
152
150
152
150
154
157
161
161
161
159
157
159
163
164
164
164
166
171
173
131
133
133
135
133
131
129
131
135
140
146
148
150
152
152
152
152
148
150
154
154
154
152
152
150
148
146
148
148
148
148
152
154
154
152
155
157
159
159
159
159
157
159
155
155
155
152
150
146
150
154
155
159
159
159
157
159
163
163
164
166
166
170
173
131
133
133
133
133
129
129
131
135
139
146
148
148
150
152
154
154
152
152
154
154
154
152
152
150
150
144
144
146
146
146
148
152
152
152
154
155
157
159
159
159
157
161
159
157
157
155
150
146
150
155
157
155
155
157
155
161
163
164
166
166
170
171
173
129
133
131
131
131
131
129
131
135
139
144
146
150
148
148
148
150
150
152
152
152
150
148
148
148
150
146
142
142
144
142
142
146
146
150
154
157
157
155
157
159
159
161
161
157
157
155
150
148
152
157
157
154
154
154
157
161
164
166
170
171
171
171
173
129
133
131
131
131
135
133
133
137
140
142
146
146
146
146
150
148
146
148
148
146
144
142
144
146
148
148
144
142
142
142
140
142
146
152
155
157
155
157
159
157
159
159
159
159
157
154
150
148
152
157
155
157
155
154
157
161
164
170
171
173
173
173
173
131
129
133
135
137
139
137
139
139
139
142
144
144
144
144
148
146
144
146
144
140
140
142
142
142
148
148
144
142
142
142
140
142
146
152
155
155
157
159
161
161
157
155
154
155
155
154
150
150
152
155
155
155
154
154
157
161
164
168
171
173
171
173
175
131
133
135
135
137
137
139
140
140
140
140
140
142
144
144
144
146
146
146
144
142
144
144
144
146
146
146
144
142
142
144
142
144
148
152
155
157
161
161
163
161
157
154
152
154
155
155
152
150
152
155
155
152
152
154
155
159
164
168
170
171
171
173
175
133
137
137
137
135
137
137
140
142
142
142
144
144
144
144
146
148
148
146
146
148
146
146
148
150
150
150
146
144
146
146
148
146
150
154
157
163
164
161
163
163
159
155
154
152
152
155
152
152
154
157
157
152
152
154
157
159
161
166
170
171
171
171
175
133
137
135
133
135
139
142
142
142
142
144
146
146
144
144
146
148
148
146
148
148
148
150
152
152
154
152
152
150
148
148
146
148
152
154
163
168
166
166
166
164
163
159
155
154
154
155
155
155
157
159
159
157
155
157
157
159
163
166
170
171
173
173
171
137
137
135
135
137
140
142
142
142
144
144
148
148
146
146
148
148
150
150
146
148
150
152
154
155
157
155
155
155
152
148
150
150
152
157
166
168
170
171
171
168
166
163
161
157
155
157
159
159
159
161
163
161
161
159
161
164
166
166
168
168
170
171
170
139
137
137
137
139
140
142
142
142
144
146
148
146
146
148
150
152
152
152
150
152
152
155
155
159
159
157
157
155
155
154
152
154
155
163
168
170
173
175
175
173
170
168
164
161
159
163
163
163
163
164
166
166
166
168
168
170
170
171
171
173
173
173
173
140
140
142
142
142
142
142
142
144
144
146
148
148
148
150
150
154
154
155
154
154
155
155
159
161
163
163
163
161
159
157
155
157
161
164
168
171
176
176
176
175
171
170
170
164
163
164
164
166
166
164
168
170
173
175
175
176
176
178
178
178
176
175
175
144
146
148
148
144
142
142
144
144
142
144
146
150
152
152
154
155
157
159
157
155
157
157
159
163
163
164
164
161
159
159
159
161
163
166
170
171
175
175
176
176
171
171
171
168
166
164
166
166
166
163
166
171
173
178
178
180
180
181
183
184
183
181
180
148
148
148
146
144
144
144
144
140
142
142
146
152
154
154
155
157
157
159
159
155
155
157
161
163
164
166
163
161
157
159
161
163
164
168
170
171
173
175
175
176
173
171
171
170
168
166
166
164
164
161
164
171
176
180
178
180
183
184
186
187
187
186
184
146
148
150
150
146
148
146
144
140
142
140
146
152
152
154
155
155
155
159
159
155
154
157
159
159
163
164
161
159
161
161
163
164
168
168
170
173
175
175
175
175
173
170
168
168
168
168
166
164
164
163
166
175
178
180
178
181
184
187
189
189
189
187
184
144
148
148
148
144
146
144
144
140
139
142
144
148
152
152
152
154
155
157
159
157
155
155
157
157
159
164
163
163
163
161
164
168
168
168
168
171
175
176
176
175
171
170
166
164
166
168
168
166
164
164
168
176
178
180
181
183
186
189
189
189
187
187
187
146
144
144
144
142
142
144
144
142
142
144
146
146
148
150
148
152
155
155
157
155
155
152
152
155
159
163
164
163
161
161
164
168
166
164
166
171
176
180
178
175
173
171
168
166
166
164
168
168
168
166
171
175
178
183
184
184
186
187
187
189
187
186
187
142
140
142
142
140
142
144
144
144
144
142
144
144
146
148
150
152
155
155
157
157
155
150
148
152
157
161
164
163
163
163
164
164
164
164
166
171
176
180
180
178
175
171
170
166
163
161
163
166
168
168
173
173
176
180
183
184
184
186
186
187
186
186
187
140
140
142
142
140
140
142
142
144
144
140
140
144
146
148
152
152
155
157
157
157
154
150
146
148
154
159
163
166
164
164
163
163
163
164
166
171
176
178
180
178
175
171
168
166
164
163
163
164
166
170
173
173
173
178
181
183
184
184
184
186
184
187
184
140
140
142
140
139
140
142
144
142
142
142
142
144
148
150
150
152
154
155
155
154
154
150
148
146
150
155
161
163
163
163
159
163
164
164
166
171
175
175
176
176
175
171
168
168
168
164
164
164
166
168
170
173
173
176
178
181
183
183
184
186
187
186
184
142
139
142
140
140
140
142
144
144
144
142
144
146
148
150
152
154
154
154
152
152
150
152
150
148
150
155
157
163
163
161
159
163
164
166
168
171
175
173
173
175
173
170
170
171
171
170
166
166
166
170
170
173
171
173
176
178
181
184
184
186
187
187
186
142
140
140
142
142
140
142
142
144
144
142
144
144
146
150
152
152
154
154
152
154
150
152
154
150
152
155
157
159
159
159
161
163
163
166
170
171
173
173
171
173
175
173
173
175
175
171
170
168
168
170
171
171
173
175
175
176
178
183
184
186
187
187
186
148
146
144
144
144
142
142
144
144
146
146
146
144
146
148
152
155
157
155
154
154
154
154
155
155
155
157
159
159
157
159
163
164
164
166
168
170
173
173
171
173
175
175
175
178
178
175
173
171
168
168
168
168
170
171
173
175
175
178
183
184
186
186
184
148
148
148
146
144
146
146
146
148
148
148
148
148
152
150
152
155
157
157
157
157
157
157
157
159
161
163
163
163
163
163
163
164
166
168
170
170
170
171
173
173
173
175
176
176
176
176
173
173
168
166
166
166
168
170
171
173
175
178
181
183
184
183
183
148
148
150
150
148
148
148
148
148
150
150
152
150
152
152
152
154
155
157
155
159
159
157
159
163
164
164
166
166
166
164
164
166
168
170
170
168
170
171
173
173
173
173
175
176
176
176
173
173
171
168
166
166
166
168
168
170
175
178
178
180
183
181
180
152
150
148
152
152
148
150
150
150
150
152
152
154
154
152
154
154
154
154
155
159
161
161
163
166
166
168
170
170
170
168
166
168
171
170
170
168
170
171
173
171
171
173
175
176
178
176
175
175
173
171
171
168
168
168
168
170
175
178
180
183
183
180
180
152
148
148
152
152
150
154
154
154
155
154
154
154
154
154
157
155
155
152
155
159
159
161
164
168
168
168
170
171
173
171
170
171
171
170
171
170
170
170
173
173
171
173
173
175
176
176
176
176
176
175
173
170
170
170
171
173
176
176
180
181
183
183
181
148
146
150
150
150
150
152
154
154
155
154
154
155
157
157
157
155
155
154
154
157
159
163
166
168
170
170
170
171
173
173
173
175
173
171
171
168
168
171
173
173
173
170
173
175
176
175
175
176
178
176
175
171
173
175
175
175
176
176
178
180
184
184
183
152
152
152
150
150
152
152
152
155
157
157
157
159
159
161
159
157
157
155
154
155
159
163
164
166
168
168
170
171
173
173
175
176
175
171
168
166
170
171
171
173
171
171
173
175
176
176
175
175
178
175
173
173
175
175
175
175
178
178
180
181
184
184
183
154
154
152
152
150
152
154
155
157
157
159
159
161
161
163
159
159
157
157
155
157
159
163
164
164
166
168
168
171
171
175
176
178
176
173
171
170
170
171
171
173
171
171
171
173
175
175
175
173
175
176
175
175
175
175
175
176
178
178
181
183
183
183
181
154
155
152
152
152
152
154
155
157
159
161
161
157
159
163
161
159
161
161
157
159
159
161
164
166
166
170
170
171
173
175
176
180
176
173
170
170
170
170
170
170
170
170
168
170
171
171
173
173
173
175
175
175
173
173
175
176
176
178
183
183
183
181
180
154
154
154
152
154
154
154
155
155
155
159
159
157
161
163
161
159
161
161
161
161
161
161
163
164
164
168
171
173
173
175
176
176
175
173
171
170
170
166
164
163
163
164
164
164
164
168
168
171
173
173
175
175
175
175
176
178
180
181
183
184
186
183
183
152
152
152
154
155
152
152
155
157
157
157
157
155
157
161
161
163
163
159
163
164
164
164
163
163
163
164
170
171
173
175
175
176
173
173
170
166
164
161
157
157
157
159
163
163
161
164
166
168
171
173
175
176
178
180
183
183
184
184
186
187
187
187
187
152
152
154
154
154
152
152
155
157
159
155
150
140
148
159
161
163
163
161
164
166
166
166
164
164
161
163
166
170
171
173
173
173
171
168
164
161
159
157
157
157
155
157
159
163
163
163
164
166
170
173
178
180
181
184
187
189
189
190
190
192
190
190
190
152
150
150
150
150
152
154
155
154
155
150
137
127
139
157
161
163
163
164
166
168
168
168
164
163
161
161
166
168
170
170
170
168
164
163
161
159
159
159
159
161
161
161
161
161
161
161
164
168
171
175
180
183
184
186
189
190
190
190
192
193
192
190
192
150
148
148
150
152
152
154
157
154
150
139
125
127
144
157
161
161
164
164
166
170
168
166
166
163
159
159
161
166
166
168
166
164
163
161
161
159
159
161
163
164
166
166
164
163
163
163
164
168
171
176
180
184
186
186
189
190
190
190
193
195
193
192
192
146
148
148
148
150
152
152
154
150
139
129
125
140
154
159
163
161
163
164
164
166
166
166
163
161
157
154
157
161
164
166
164
161
159
161
163
164
164
166
166
166
168
168
168
166
164
164
164
168
170
176
180
181
184
186
189
190
192
192
195
193
193
193
192
