P2
# 331 of 608 Angiograms
64 64
255
112
106
108
108
106
108
112
112
104
84
76
78
79
78
81
83
93
99
108
117
119
119
123
117
115
119
119
119
119
117
115
117
114
115
115
119
123
121
121
119
117
115
115
117
115
115
117
117
115
115
117
115
114
115
117
117
114
114
115
114
115
115
115
117
108
106
106
104
108
110
114
112
106
86
78
79
74
79
81
83
91
100
108
115
117
117
121
119
115
117
119
119
115
117
121
119
119
115
117
121
121
121
119
117
115
119
119
119
115
117
117
117
119
119
119
117
115
115
115
112
114
115
114
114
115
115
117
115
106
106
108
108
108
110
112
115
108
88
79
79
79
83
86
86
91
99
108
115
119
119
117
117
117
117
119
119
115
115
117
117
119
115
117
117
119
119
117
119
115
117
117
119
115
115
115
121
123
121
121
121
115
115
115
110
114
117
117
114
115
115
115
117
106
106
108
108
108
108
112
115
112
88
79
78
79
81
86
86
91
99
108
117
121
119
119
119
119
119
119
119
117
117
117
117
117
115
117
117
117
117
117
119
119
121
121
121
117
117
117
123
121
119
121
117
115
114
114
114
115
114
117
115
112
114
114
117
110
108
114
110
110
112
115
117
110
88
81
79
79
79
83
84
91
99
108
119
121
119
121
119
115
119
119
119
117
117
117
119
119
117
115
119
115
115
115
119
121
121
121
121
117
119
119
117
119
117
117
115
115
115
112
112
115
114
119
119
115
115
112
114
108
112
115
112
114
114
115
115
110
88
81
83
79
79
81
84
90
99
110
119
119
117
119
121
119
119
119
119
117
115
119
115
117
119
114
117
115
115
117
117
119
117
119
119
119
121
117
117
119
117
115
117
117
115
115
114
112
112
117
117
115
112
110
110
110
112
112
110
112
114
115
117
108
88
79
81
79
79
83
84
90
97
112
119
117
115
119
123
123
117
117
115
117
117
117
115
117
115
117
117
115
117
117
117
119
117
119
119
121
125
121
119
117
115
117
117
117
115
117
117
115
115
117
115
115
112
112
114
112
110
112
110
112
114
117
115
108
90
81
83
81
83
83
86
91
99
112
115
117
117
119
117
119
119
117
117
119
117
117
117
117
119
117
117
117
117
115
117
117
117
117
117
117
121
119
121
117
114
115
119
117
115
117
115
115
115
117
115
119
115
114
115
110
108
110
108
112
117
119
114
108
91
83
83
86
84
83
83
91
99
112
117
121
119
117
119
117
115
117
115
117
117
117
115
117
121
121
117
115
117
117
115
115
117
117
119
117
121
119
117
115
114
117
117
119
114
115
115
117
115
115
115
119
115
110
114
112
114
112
110
112
112
114
115
110
91
83
79
81
83
83
84
90
99
110
117
121
119
117
119
119
119
117
117
114
117
117
121
121
121
119
117
115
119
119
117
117
119
123
123
119
121
121
119
115
115
117
117
115
114
114
115
119
117
114
115
115
115
115
115
112
114
115
114
110
112
117
117
108
93
83
79
79
83
84
86
88
99
110
117
119
121
117
121
119
119
117
115
115
115
115
121
121
121
119
117
117
117
115
114
114
117
117
117
119
121
119
119
115
114
114
115
114
114
115
117
119
115
115
115
114
115
115
115
114
117
114
115
114
114
115
117
108
93
81
79
79
79
81
88
91
99
110
119
121
123
121
123
121
121
119
114
117
117
119
119
117
121
121
121
121
117
112
110
114
115
114
115
119
117
119
119
115
112
112
112
112
114
115
114
114
114
117
119
117
115
115
119
112
114
115
115
115
114
114
112
108
93
83
81
81
83
84
86
93
100
110
119
125
123
123
121
121
121
117
117
117
117
117
117
114
117
119
119
117
115
114
115
117
117
115
115
117
115
117
119
115
114
114
112
114
115
115
112
114
114
114
115
117
115
115
117
110
108
115
115
114
110
114
117
108
93
83
84
81
81
83
83
93
100
112
119
125
125
119
117
119
119
119
119
115
117
117
117
117
117
121
117
115
115
117
117
117
117
117
115
115
115
117
117
114
114
114
119
114
115
114
114
114
115
114
114
117
117
117
114
110
110
115
117
114
114
115
114
106
93
81
83
83
81
79
81
93
100
112
117
119
121
115
115
115
117
119
119
115
115
115
117
121
119
117
119
117
119
121
121
119
117
119
115
115
115
115
117
115
114
115
114
112
114
114
112
115
115
117
117
117
117
119
115
114
115
117
115
114
114
117
114
106
93
81
83
83
81
81
84
95
100
110
115
117
119
119
114
114
117
117
115
114
114
114
115
119
121
119
117
117
117
119
121
117
117
119
114
114
115
119
119
117
115
114
114
114
114
112
114
117
117
119
117
117
115
115
117
112
117
117
115
115
114
117
117
108
93
83
83
79
81
81
86
95
100
112
117
119
121
115
119
119
119
117
114
114
114
115
115
115
117
119
115
115
117
121
121
121
119
119
115
114
117
121
119
117
115
114
115
115
114
114
114
115
117
117
117
117
119
117
119
114
117
115
115
115
115
117
115
110
95
81
81
81
79
81
86
93
100
112
119
121
119
119
119
117
117
115
114
114
114
115
114
114
117
119
119
119
119
119
121
119
115
115
115
115
117
115
117
119
115
114
115
114
115
117
117
117
117
117
117
117
117
119
119
115
121
121
117
115
119
119
117
112
97
83
81
81
79
81
86
93
102
114
123
121
117
117
119
119
115
114
114
115
114
115
115
115
117
117
123
117
119
121
119
119
119
117
115
117
119
117
117
117
114
114
112
114
115
117
117
117
117
115
115
114
115
115
117
115
117
119
119
117
117
121
121
112
95
83
79
81
79
81
86
95
104
115
125
125
121
119
119
119
119
115
117
117
114
114
114
114
114
117
123
121
119
115
115
119
115
114
115
117
119
117
114
115
114
115
114
114
114
114
117
115
114
115
117
115
117
119
117
115
115
119
117
117
115
117
121
114
97
83
79
79
81
81
88
95
102
115
123
125
123
123
123
121
121
117
119
115
115
112
114
114
115
115
121
121
119
114
114
115
112
112
117
121
119
117
119
115
115
117
115
114
117
115
117
114
114
114
119
119
115
117
119
115
117
119
115
115
112
115
117
114
95
84
79
79
83
84
88
97
104
114
121
121
123
121
119
123
123
121
121
119
115
117
115
115
114
112
115
117
117
115
114
115
119
117
117
119
123
117
119
115
115
117
115
114
114
117
115
115
112
115
121
119
119
119
119
117
119
119
114
114
115
117
119
112
97
84
79
78
81
84
90
99
106
115
121
117
119
119
117
121
125
123
119
115
115
115
115
115
114
114
114
117
119
117
115
117
117
119
123
121
119
117
115
112
112
117
114
114
117
119
114
117
117
117
121
121
119
119
119
119
119
119
117
117
117
121
125
114
99
86
81
78
78
83
91
100
108
114
119
119
121
119
117
121
123
121
117
115
112
114
112
114
117
119
115
117
119
115
114
115
115
115
119
121
121
119
115
112
112
115
114
115
121
119
114
115
117
119
117
119
123
123
119
117
119
117
117
121
119
121
123
115
99
88
83
81
81
83
91
99
108
114
117
119
123
121
123
125
123
119
117
117
114
114
112
114
119
117
117
115
119
117
115
117
117
115
121
121
119
115
114
112
114
115
115
117
117
115
117
117
119
119
117
121
125
123
119
117
117
119
119
119
119
121
121
115
99
86
84
83
81
83
90
95
106
114
119
121
119
123
125
125
123
119
115
115
114
114
115
114
117
117
117
115
117
117
117
121
119
117
119
117
112
112
115
114
115
119
117
115
117
115
119
117
119
119
117
117
121
119
117
115
117
119
117
119
119
121
123
115
100
84
83
83
79
84
90
95
104
114
119
123
121
123
125
123
123
117
115
117
117
117
115
115
115
114
114
115
117
115
117
121
117
119
115
117
114
112
115
117
119
117
114
115
114
115
115
115
115
117
117
115
117
115
115
121
117
119
123
121
121
121
121
114
100
86
83
83
79
81
90
97
104
114
119
123
125
121
121
123
119
119
119
115
115
115
114
115
117
117
114
115
117
115
115
117
117
115
115
114
117
114
114
114
117
115
115
115
115
115
115
117
115
117
119
115
115
117
117
123
117
117
119
121
119
117
117
114
100
88
84
83
76
79
90
97
104
114
121
125
123
119
119
117
117
115
119
117
115
115
117
114
114
117
117
114
115
115
115
115
117
114
114
112
115
114
110
112
115
114
115
114
112
115
115
119
117
117
117
117
115
117
119
121
119
119
119
117
115
115
117
114
100
88
83
79
78
79
90
95
104
112
121
119
117
117
117
119
117
117
115
115
115
117
117
115
114
114
119
115
114
117
115
114
115
114
114
110
110
112
114
112
115
114
112
114
114
117
121
119
117
117
119
117
117
117
121
117
119
119
119
119
119
119
117
114
100
90
83
81
76
79
88
95
102
110
117
119
117
115
115
115
117
117
112
114
115
115
115
112
112
114
115
114
115
115
114
115
117
115
115
115
114
114
114
112
110
110
112
114
114
115
119
117
117
119
115
115
117
119
121
115
117
117
121
123
121
121
123
114
99
88
83
83
79
81
90
95
102
110
115
112
117
114
114
114
115
115
114
115
115
117
114
110
108
112
114
114
115
112
112
115
114
114
114
114
114
114
115
114
114
112
114
114
114
114
115
115
117
117
115
117
119
121
121
117
119
121
119
119
119
121
121
114
99
86
84
83
81
83
88
95
104
112
117
115
115
114
115
119
114
114
119
117
114
114
115
114
112
114
115
115
114
112
115
112
112
114
114
115
114
112
114
115
114
115
117
115
114
114
115
115
115
115
115
115
117
121
119
115
117
121
117
119
119
119
119
112
99
86
83
83
79
81
88
93
100
112
115
115
115
114
114
115
112
114
117
115
110
114
115
114
114
115
114
115
114
112
115
114
114
114
114
115
115
114
112
114
114
115
115
112
112
115
117
119
115
115
115
114
117
119
117
114
114
117
115
119
119
117
115
112
97
86
83
81
79
81
88
91
99
108
115
114
115
114
114
114
114
114
112
115
112
110
112
110
112
114
112
114
114
112
115
114
114
112
114
117
117
112
112
110
112
112
114
114
114
114
115
117
114
117
115
115
117
119
117
114
115
115
119
115
115
115
115
112
97
86
79
79
79
81
86
91
99
106
114
114
115
115
114
112
112
110
108
110
112
110
112
114
112
112
115
114
112
114
117
115
115
114
115
117
115
114
114
112
112
112
115
114
112
114
117
117
117
117
115
117
119
119
119
112
114
115
115
112
112
114
115
112
97
84
79
79
79
79
83
91
97
106
114
114
110
112
112
112
114
112
110
110
110
108
110
114
112
110
114
114
115
115
114
114
117
117
114
114
114
115
115
112
110
108
114
112
110
115
115
115
115
117
119
119
119
117
117
110
110
112
114
114
114
114
114
108
97
84
79
79
79
78
83
90
95
104
112
110
112
114
112
112
112
112
115
115
112
108
110
114
112
112
114
115
115
112
114
114
117
117
119
117
115
115
115
110
112
112
112
112
114
115
115
114
117
117
121
121
117
117
117
108
108
110
112
112
110
112
108
106
95
83
79
78
76
78
84
90
93
104
110
112
115
115
115
114
112
115
115
115
110
106
110
114
112
112
112
112
112
112
114
115
115
117
121
119
117
115
117
115
115
114
115
114
115
117
115
117
119
119
119
115
115
117
117
108
110
112
108
110
110
110
108
104
95
83
78
78
76
78
84
90
95
104
108
112
117
119
117
114
114
112
114
115
110
110
108
112
114
114
112
108
110
114
115
115
117
115
117
117
117
115
117
117
115
112
117
119
119
117
115
115
119
119
121
115
119
121
119
106
108
108
110
112
108
106
106
104
95
83
81
78
76
78
86
91
99
104
112
110
115
117
117
115
115
112
112
112
110
112
106
110
114
108
110
110
110
114
117
114
112
115
119
115
115
117
119
115
112
114
119
123
121
119
117
117
117
119
117
119
123
125
123
110
106
110
108
108
108
106
108
104
95
83
81
79
76
78
88
93
99
104
112
110
112
114
112
114
112
112
110
110
112
110
108
112
110
108
110
110
110
114
115
114
114
117
121
119
117
119
119
117
115
119
119
121
123
119
121
123
121
119
117
121
121
123
121
108
106
110
108
106
108
108
110
106
95
83
79
78
73
78
86
90
99
104
112
112
108
108
108
110
110
108
112
110
110
108
108
110
106
108
110
108
110
117
115
114
114
117
117
119
119
121
117
117
114
115
121
119
121
117
119
121
119
119
119
121
119
121
123
108
104
108
108
106
108
108
108
104
95
84
81
81
79
81
86
88
95
104
112
114
110
108
108
108
106
110
112
110
110
108
110
110
106
106
108
110
114
115
114
115
117
117
117
121
121
121
121
119
115
115
119
119
119
119
117
121
121
121
121
121
119
121
125
106
108
114
112
112
112
108
110
108
97
84
81
79
79
84
86
90
93
102
114
115
112
110
110
110
108
110
112
114
112
110
112
110
108
110
110
112
117
115
112
114
115
121
121
119
119
119
119
119
117
117
115
115
121
121
117
121
123
123
123
121
121
119
121
110
114
115
112
108
114
108
108
106
99
84
81
81
79
81
86
88
95
102
110
110
112
110
110
108
108
110
115
112
110
112
115
114
112
112
112
110
114
112
112
112
114
119
121
117
115
115
115
115
112
114
114
115
119
119
121
121
119
119
119
117
115
119
117
106
114
112
108
108
108
108
110
106
99
84
83
83
79
79
86
91
95
104
112
112
112
112
110
108
108
110
110
110
112
112
112
112
108
106
108
108
110
108
112
117
115
115
115
117
115
115
114
112
114
114
115
115
115
117
117
115
117
121
119
119
117
117
115
108
112
108
110
108
108
108
108
108
99
86
83
81
83
81
88
91
95
102
110
115
114
110
112
110
108
110
106
114
112
110
110
106
106
102
104
106
110
112
114
115
117
112
114
114
114
115
115
112
115
115
114
112
114
115
117
114
115
119
119
115
117
117
115
108
108
112
110
108
108
110
112
110
97
86
83
81
78
79
88
93
97
102
106
114
114
112
114
112
108
110
112
110
106
104
106
106
106
100
102
108
110
112
112
112
110
112
110
112
112
114
114
112
114
117
117
115
114
117
121
115
115
115
115
117
117
117
117
106
108
112
110
108
110
110
112
108
97
88
81
79
78
79
86
93
97
102
108
112
115
112
110
108
108
110
110
108
106
104
104
106
106
104
104
108
108
108
112
114
108
108
110
112
112
112
112
114
117
117
117
117
117
119
121
119
117
115
115
117
117
119
117
108
110
112
110
108
108
108
110
108
99
90
81
79
76
79
86
93
99
104
110
114
115
112
110
110
108
106
108
112
108
102
104
104
104
104
106
106
110
108
110
110
110
108
110
110
110
112
110
114
114
114
115
117
119
119
117
119
119
114
115
117
117
119
117
108
110
112
112
112
108
108
110
106
99
90
79
74
76
81
88
91
99
106
110
114
112
112
112
112
110
110
110
108
108
106
108
112
108
106
108
110
112
108
108
108
106
108
110
108
108
110
110
112
115
115
115
115
117
119
117
115
117
115
117
115
115
117
117
110
106
110
110
110
110
108
112
106
97
86
78
76
78
81
86
93
99
104
110
110
110
110
110
108
108
110
108
110
110
110
110
112
106
108
108
106
110
110
108
106
106
106
108
108
110
112
112
114
114
114
114
115
115
117
115
114
117
117
117
117
117
115
115
108
106
108
112
108
110
108
110
106
95
83
78
78
79
81
86
91
97
104
112
110
108
106
108
110
110
112
114
108
112
110
108
106
106
108
108
108
108
108
106
108
108
112
114
108
112
114
110
112
115
114
114
114
115
117
114
112
115
115
114
115
115
114
115
106
108
108
110
112
112
110
108
106
95
84
83
83
79
79
86
93
99
104
115
114
115
112
112
110
108
112
110
106
108
106
108
104
102
104
106
106
106
106
106
112
110
114
112
108
110
112
108
110
114
112
114
115
115
117
117
112
114
115
114
114
114
115
115
108
108
110
112
110
110
112
110
106
97
84
81
83
81
81
86
95
99
104
114
115
115
114
112
112
108
108
106
106
106
106
108
106
106
108
106
104
108
104
108
110
110
108
106
110
108
106
108
108
110
110
112
117
115
115
114
114
115
114
112
112
114
114
112
108
108
108
108
110
108
108
112
108
97
84
79
78
73
78
84
93
97
104
112
115
114
112
112
112
110
112
110
108
106
108
110
110
108
106
106
108
106
106
106
108
106
106
108
112
112
108
106
104
108
110
112
112
112
114
115
115
119
117
114
114
114
112
110
114
112
106
108
108
108
112
112
110
99
84
81
79
76
78
84
93
97
104
112
117
114
114
112
112
112
114
110
112
112
110
110
108
108
110
108
108
106
108
108
106
106
110
110
108
112
112
108
108
108
110
114
112
114
117
119
117
119
119
115
115
112
112
114
112
110
106
112
108
112
112
112
112
100
86
78
79
78
79
84
93
99
102
110
114
114
115
114
110
112
114
110
112
114
114
112
110
108
114
108
108
108
110
108
108
106
108
110
108
112
110
110
110
112
112
114
112
114
115
117
119
121
117
114
112
112
115
112
110
110
110
114
110
112
110
112
112
102
84
78
79
79
79
86
90
97
102
110
115
114
115
114
110
110
110
110
110
114
114
114
112
110
112
110
112
112
110
108
108
108
110
108
108
114
114
106
108
112
110
112
114
112
114
114
117
119
114
112
112
108
114
112
112
112
114
112
112
112
110
112
108
100
86
81
79
76
78
86
88
93
100
110
115
114
114
115
114
112
110
108
110
112
110
115
112
110
110
110
110
112
110
108
110
108
108
108
108
110
108
106
104
106
108
108
110
110
112
110
117
119
114
110
110
112
114
114
115
114
114
110
112
114
110
110
108
99
86
81
79
76
78
84
88
93
102
110
112
112
115
115
115
114
112
110
110
114
112
115
110
108
108
110
110
110
110
110
110
106
108
108
106
106
106
106
106
106
108
110
108
108
106
108
114
115
114
112
110
114
115
114
112
112
110
112
114
114
110
112
108
99
86
81
79
78
78
84
88
95
102
110
110
114
115
114
114
114
112
112
108
114
115
112
110
110
110
110
108
108
106
110
106
106
108
108
106
108
110
110
106
106
110
110
108
106
106
108
110
114
114
114
114
112
112
112
110
110
112
112
110
110
110
110
106
99
86
83
81
78
78
84
91
93
100
110
114
115
112
112
114
115
112
112
112
112
112
110
112
112
110
108
110
110
106
110
108
110
106
106
108
112
110
108
108
110
108
108
110
108
110
110
108
110
112
112
112
110
110
108
