P2
# 332 of 608 Angiograms
64 64
255
135
133
133
135
137
139
137
135
135
133
133
133
135
137
139
139
139
144
148
152
154
152
152
154
155
154
157
159
159
163
163
163
163
164
164
164
166
168
170
171
170
168
164
164
164
166
166
164
163
163
161
161
161
161
163
161
159
157
159
163
163
164
164
164
135
133
131
133
133
133
131
131
129
125
129
131
131
135
137
139
139
140
144
150
150
148
148
152
152
152
155
157
159
161
164
164
164
166
166
166
168
170
170
171
173
170
170
168
170
171
170
170
170
168
170
168
168
166
166
164
163
163
164
170
171
173
171
171
131
131
129
129
129
127
127
127
125
125
127
127
127
133
133
133
135
139
140
144
144
144
148
148
150
154
157
157
159
163
164
164
164
166
166
168
170
170
171
173
171
171
171
168
170
171
173
173
173
176
176
175
173
171
170
168
168
168
171
176
180
180
180
178
123
123
125
123
119
117
119
119
121
125
127
127
129
131
133
135
133
135
137
139
140
142
146
148
150
154
157
159
159
163
161
163
164
164
166
168
170
170
171
170
170
170
168
166
166
170
171
175
176
180
180
178
176
175
173
171
170
173
176
180
181
183
183
183
125
123
121
117
112
110
110
110
112
115
119
121
125
129
133
137
137
137
137
140
140
144
144
146
150
154
155
157
157
159
157
157
161
164
164
166
166
166
168
168
168
166
164
163
163
166
170
175
176
180
180
180
178
178
176
175
175
175
178
181
183
184
186
184
142
137
133
127
121
115
112
110
108
108
110
112
114
117
123
127
131
133
137
139
140
144
148
150
152
155
159
159
159
159
155
155
159
163
163
164
163
163
163
163
161
157
155
155
159
163
168
171
171
173
176
176
176
178
178
178
178
176
178
181
184
186
186
184
154
150
148
144
140
135
127
123
119
119
115
112
112
114
112
115
119
125
127
129
135
139
142
144
150
154
157
161
161
159
159
159
159
163
164
164
163
163
161
157
155
150
148
146
152
157
161
163
164
166
168
171
173
173
173
173
175
175
176
180
183
184
184
184
157
155
154
152
150
148
146
146
142
139
133
129
127
125
123
123
125
127
129
129
133
137
137
139
140
146
150
154
154
154
154
154
157
161
163
164
166
164
163
157
152
146
146
146
148
154
155
157
159
157
159
161
163
163
164
164
166
166
170
173
176
180
181
183
166
163
159
157
155
154
154
152
152
148
144
142
140
139
139
139
139
139
139
140
140
142
142
142
142
144
148
150
152
150
148
148
152
154
155
157
157
157
155
152
148
148
148
148
148
150
152
155
157
157
157
157
157
157
159
157
157
159
163
166
170
171
175
175
178
178
175
171
170
166
164
161
157
155
152
148
148
148
146
146
150
152
150
152
150
152
155
157
155
155
155
155
155
154
154
150
148
150
150
148
148
146
144
142
140
142
142
142
140
139
140
144
148
150
152
154
154
155
155
154
154
154
157
161
164
166
168
168
187
186
184
184
183
180
178
175
175
171
166
163
161
157
154
152
154
154
154
152
152
155
161
163
163
163
164
164
166
166
164
161
159
157
155
152
150
146
144
142
142
142
142
140
137
133
133
135
139
140
142
144
144
146
146
146
146
146
148
152
154
155
157
159
192
192
189
189
187
186
186
186
184
181
180
178
176
173
168
166
163
163
159
157
157
159
159
159
161
161
161
163
166
168
170
170
170
171
168
164
161
157
155
155
157
157
154
150
144
140
140
139
139
139
139
140
140
140
142
142
142
140
139
139
140
139
140
142
196
193
193
192
192
192
192
192
190
187
186
184
183
181
176
173
173
173
171
170
170
168
166
163
163
163
163
163
163
164
164
166
168
170
168
166
164
164
166
168
168
168
166
164
163
161
159
155
155
152
150
150
150
152
152
152
150
146
144
142
140
135
135
137
196
195
193
192
193
193
195
195
195
193
192
190
189
187
184
180
178
178
176
176
176
176
175
173
171
171
171
170
168
168
166
164
166
168
166
164
164
166
168
170
170
170
168
168
168
168
168
166
163
161
157
159
161
161
163
163
161
161
159
159
154
150
148
150
199
197
195
193
193
195
196
196
196
196
196
196
195
193
190
186
184
183
183
183
180
178
176
176
175
173
175
173
171
171
170
170
171
171
173
171
171
173
173
175
175
175
175
175
173
171
170
170
168
166
163
161
159
161
164
163
159
161
163
163
161
159
159
161
199
197
196
196
197
197
199
199
200
200
201
201
200
197
195
192
190
187
186
184
183
181
180
180
178
176
176
176
173
171
170
171
173
173
173
175
178
180
181
183
183
186
186
186
186
183
181
178
175
173
171
166
164
163
164
163
161
159
159
161
163
161
161
163
197
199
200
200
200
200
200
200
201
203
203
204
203
200
197
195
192
192
189
187
186
184
183
181
181
180
178
178
173
170
168
171
173
173
176
180
181
183
186
189
190
190
192
193
192
190
190
190
187
184
181
178
175
173
170
170
166
168
168
168
168
166
164
166
200
200
201
203
203
201
200
200
201
201
203
203
204
203
200
197
195
193
192
189
187
186
184
183
183
183
181
178
173
170
168
170
173
175
180
183
186
187
189
190
190
190
192
193
193
193
193
193
192
189
187
184
181
180
178
176
178
178
176
176
175
173
171
175
200
201
204
205
205
204
203
201
201
203
203
204
205
204
203
200
197
195
193
190
189
187
186
186
184
183
181
178
175
170
168
170
173
178
183
186
189
190
190
190
190
190
192
192
190
193
193
193
193
192
190
190
187
186
184
184
184
184
183
180
180
178
178
180
200
201
204
206
207
206
204
201
201
203
203
204
205
205
204
203
200
197
195
192
189
187
186
184
183
183
180
176
173
170
168
170
175
180
184
189
190
190
190
190
190
189
190
190
192
193
193
195
195
193
192
192
192
190
189
189
189
189
189
186
183
181
183
184
197
200
204
205
207
207
204
203
201
203
203
204
204
205
205
204
203
201
196
192
189
187
186
186
184
181
178
175
173
171
170
171
176
180
184
189
190
189
189
187
190
190
192
192
193
193
195
196
195
193
193
193
193
193
192
192
192
192
190
189
187
186
186
187
196
199
201
204
206
206
205
203
203
204
204
205
205
205
205
204
204
203
200
195
189
187
186
186
183
180
176
175
173
171
171
173
176
180
184
189
190
187
187
189
190
190
192
192
192
193
195
195
195
193
195
195
195
195
193
195
195
193
192
190
190
190
189
190
195
197
199
201
204
204
203
203
204
203
204
205
206
205
205
204
204
204
201
196
190
187
186
186
184
180
176
173
173
173
173
175
178
181
186
189
189
189
189
190
190
192
192
193
193
195
195
195
193
192
193
193
195
195
193
193
195
195
192
193
193
193
193
193
193
196
197
200
203
205
204
203
203
203
204
205
205
203
203
203
203
201
200
197
192
189
189
187
184
181
180
178
176
176
176
178
181
184
187
190
190
192
193
193
193
193
193
195
196
195
195
195
192
192
193
193
195
195
195
193
193
193
192
193
195
196
196
195
189
193
196
199
201
205
205
203
204
203
204
204
203
201
201
201
203
201
199
196
195
192
189
187
186
183
181
180
180
181
181
183
186
190
192
193
195
196
197
197
197
196
195
196
196
196
196
195
193
192
192
192
193
195
195
193
193
193
193
195
196
196
196
196
184
189
192
196
200
204
204
204
204
203
201
201
201
200
200
199
200
199
197
196
195
193
192
190
187
184
183
181
183
184
186
189
190
193
195
197
199
200
200
200
199
197
196
196
197
197
197
197
196
193
192
190
192
195
195
195
195
193
195
195
196
196
196
196
181
184
189
192
197
201
203
203
201
200
199
199
199
196
197
197
197
196
196
196
195
193
193
192
189
186
184
184
186
187
190
192
193
195
197
200
201
203
201
200
199
197
197
197
196
197
197
199
197
196
192
192
192
192
193
193
192
192
193
193
195
195
195
195
178
180
184
189
195
197
199
200
199
199
199
197
196
196
196
195
195
193
195
195
195
193
193
193
192
189
189
189
189
192
193
195
195
196
199
201
201
201
201
201
199
197
197
197
196
196
199
199
199
197
195
192
192
192
192
192
190
190
192
192
195
195
195
192
180
178
181
186
190
193
196
196
196
197
199
196
195
195
193
192
190
190
192
192
193
193
195
193
192
190
192
192
195
196
196
195
195
196
199
199
200
200
201
201
197
196
196
196
195
196
197
199
199
197
196
193
192
192
192
190
189
187
189
192
193
192
192
189
181
180
181
184
189
190
193
193
193
193
195
193
192
190
189
189
189
190
192
192
193
193
193
193
192
193
195
196
199
199
197
197
197
197
197
199
199
199
200
199
196
195
193
193
193
196
197
197
197
197
196
193
190
190
190
189
187
187
189
190
190
190
189
186
183
181
183
184
186
189
190
192
192
190
190
190
190
189
187
187
187
192
195
195
193
193
192
192
193
195
197
200
201
201
200
199
197
197
199
199
197
197
197
196
195
193
192
192
193
196
197
197
199
197
196
193
192
190
190
189
187
187
187
189
190
189
187
184
186
186
184
184
186
187
189
187
189
189
187
187
187
187
187
187
190
193
196
196
193
190
190
192
193
197
201
204
205
205
203
201
199
199
199
197
196
197
196
196
195
193
192
192
195
196
196
197
197
196
195
193
192
190
190
189
187
189
189
190
189
187
187
186
190
189
189
187
187
187
187
186
186
186
186
186
187
187
187
190
193
196
196
195
192
187
189
192
196
201
203
205
206
207
205
203
201
200
199
199
197
199
199
197
196
193
192
193
195
195
195
195
195
193
192
193
192
190
189
189
189
189
190
189
189
187
187
189
190
192
192
193
192
192
189
187
186
184
186
187
189
190
192
193
196
196
193
190
189
187
189
193
199
203
204
205
205
206
205
204
203
201
200
200
199
199
199
199
197
195
192
193
195
193
195
193
193
192
190
190
190
190
190
190
190
189
187
187
187
187
189
190
190
190
192
193
195
195
193
190
187
187
187
189
190
193
195
195
196
193
190
187
187
189
192
196
199
203
205
204
204
204
204
203
204
203
203
201
200
201
201
200
199
196
195
193
193
193
193
192
192
192
190
189
189
189
190
192
190
189
187
186
186
187
187
189
190
190
192
193
196
197
197
195
193
190
190
190
193
195
195
195
192
189
187
187
189
192
195
197
199
201
204
205
204
204
204
204
205
204
204
204
203
203
203
203
200
197
196
193
193
192
190
189
189
190
189
189
189
189
190
192
190
189
187
187
187
187
187
190
192
192
193
195
197
197
199
197
196
193
192
192
193
195
196
193
189
187
187
189
193
196
197
199
200
201
203
204
204
203
203
204
204
204
204
204
204
204
203
203
201
199
197
195
193
192
190
187
186
189
189
187
187
189
190
190
190
187
189
189
189
189
190
192
195
193
193
196
197
199
199
199
199
197
195
193
193
193
193
190
189
187
190
192
196
197
199
199
200
201
203
204
203
201
203
203
204
204
204
204
204
204
204
203
201
200
199
197
195
192
190
187
186
187
187
187
189
190
193
192
190
190
190
192
190
192
192
193
197
195
193
196
197
199
200
199
199
197
196
193
192
190
192
190
189
190
192
195
197
199
199
199
201
201
203
203
201
201
201
203
204
204
203
204
205
205
205
204
203
201
200
199
196
193
190
187
187
187
187
189
190
193
193
193
193
193
193
192
190
192
193
195
197
197
195
195
196
199
201
200
199
197
197
195
192
189
189
190
192
193
195
196
199
199
199
200
200
200
201
201
201
200
200
200
203
203
203
204
205
204
204
204
204
203
201
200
197
195
192
190
189
189
189
190
192
193
193
193
193
195
193
193
193
193
195
196
200
199
197
195
195
196
199
199
197
197
199
196
193
190
189
192
195
196
197
199
199
199
200
200
201
201
201
201
201
199
197
199
200
201
203
204
204
203
204
203
203
203
201
200
197
195
192
192
192
190
192
193
193
195
195
195
195
195
195
195
195
193
195
196
199
199
197
196
195
195
195
196
196
196
196
193
192
190
192
195
197
199
199
200
200
199
201
203
203
201
200
199
199
199
197
197
199
200
201
203
204
203
203
203
203
203
201
200
199
195
193
192
192
192
193
195
195
197
197
197
196
195
195
195
195
192
193
195
199
200
197
196
196
195
192
192
193
193
192
190
192
192
195
197
199
199
199
200
200
200
201
203
201
201
199
197
197
197
197
197
197
197
199
201
201
201
203
201
201
201
203
200
197
195
193
193
193
192
193
195
196
199
200
199
197
195
193
193
195
193
195
195
199
199
197
197
195
193
190
189
190
190
189
190
192
195
197
200
200
199
199
200
200
200
203
203
201
200
199
199
199
197
197
196
196
196
199
200
201
201
201
200
200
201
203
201
199
195
193
193
192
192
193
195
197
199
200
199
197
195
193
193
195
195
195
196
199
199
199
197
196
195
192
189
189
189
189
190
193
196
197
200
200
199
199
199
199
200
201
201
201
200
199
199
200
200
200
197
196
196
197
199
200
200
200
200
199
200
203
201
199
196
192
190
192
193
193
195
197
200
200
199
197
196
193
192
193
193
195
196
199
199
199
197
196
195
193
190
187
187
189
190
193
196
199
201
201
200
197
197
199
199
200
200
200
199
199
200
201
203
201
199
197
196
196
196
199
200
199
199
200
201
203
203
200
197
193
190
190
193
193
195
197
199
199
197
197
195
193
193
193
195
195
195
199
199
199
197
196
195
195
193
190
189
189
192
195
196
200
201
201
200
197
197
197
197
199
200
199
199
199
200
203
204
203
201
199
196
196
196
197
199
200
200
201
201
204
203
201
199
193
190
189
190
192
193
195
197
197
196
196
195
193
193
195
196
195
195
197
197
199
197
196
196
196
193
192
190
192
193
196
199
200
201
201
200
197
196
195
195
196
199
199
199
200
201
203
203
201
201
199
197
196
196
197
199
200
201
201
201
203
203
201
200
195
190
189
190
190
192
193
196
196
196
195
195
193
195
196
196
196
196
196
197
197
196
197
197
197
196
195
193
193
195
197
200
203
203
203
201
199
196
195
195
196
197
197
199
199
200
201
201
201
200
197
197
197
196
196
197
199
200
200
201
203
203
201
200
195
189
187
189
190
192
192
195
196
195
195
195
195
195
196
197
199
196
197
197
197
197
199
199
199
197
197
196
196
197
200
201
204
205
205
204
201
197
196
196
196
196
197
197
197
197
199
199
199
199
199
199
199
197
196
197
199
200
201
201
201
201
200
199
196
189
186
189
192
192
193
195
195
195
193
193
193
195
195
196
196
196
197
197
197
199
200
200
199
199
197
197
197
200
203
205
206
207
207
206
204
201
199
197
197
197
197
197
197
197
197
196
197
197
197
199
197
197
196
196
199
200
200
200
200
201
200
199
197
193
189
189
190
192
192
193
192
192
193
193
195
195
193
193
193
195
197
199
200
200
200
199
200
200
199
199
200
203
205
206
209
210
210
209
207
205
203
200
199
199
199
199
199
197
197
197
196
196
196
197
196
195
195
195
197
199
200
200
200
201
200
200
197
196
193
190
190
190
190
192
192
192
192
193
195
195
192
192
192
193
199
199
201
200
200
199
200
200
200
201
204
205
206
209
210
211
211
211
210
209
206
204
201
200
201
201
200
197
197
197
197
196
196
196
196
195
195
196
196
199
200
200
201
201
201
201
200
197
196
193
192
190
190
192
193
193
193
193
193
193
193
192
192
193
199
200
200
200
199
199
199
200
201
204
205
206
207
210
211
212
213
213
212
211
209
206
205
204
203
201
200
199
196
197
197
197
197
197
197
196
196
197
197
199
200
200
201
203
203
201
201
200
197
195
193
192
193
195
195
196
195
195
195
195
193
193
193
196
200
200
201
200
200
200
200
201
204
205
206
207
209
211
212
213
214
213
213
212
210
209
206
205
204
201
200
199
196
197
199
199
200
199
199
199
199
200
201
203
203
203
204
205
205
204
204
204
201
199
196
196
197
199
200
200
199
199
197
197
196
196
196
196
200
200
201
201
201
203
203
203
205
206
206
207
209
211
213
213
214
214
214
213
210
209
206
206
205
204
201
199
196
197
199
199
200
200
200
200
200
201
203
204
205
206
207
207
207
206
205
204
204
201
199
199
200
201
203
203
203
201
200
200
199
199
199
199
200
200
201
203
203
203
203
204
205
206
207
207
209
211
213
213
213
214
213
212
210
207
206
207
207
206
204
201
199
199
199
200
200
200
201
201
200
203
204
205
206
207
209
210
210
209
207
206
205
203
201
201
201
201
203
205
206
205
204
203
204
204
203
203
203
201
201
203
203
203
204
204
205
206
207
207
209
211
212
212
212
212
212
212
210
207
206
207
209
209
207
206
203
200
200
200
200
199
200
200
201
204
205
206
207
210
211
211
211
211
209
207
206
205
201
201
201
201
203
206
206
207
206
206
205
205
204
204
206
204
203
204
204
204
204
204
204
204
205
206
207
209
211
212
211
210
211
211
211
209
207
209
210
210
209
209
206
204
201
201
200
200
200
200
203
204
206
206
209
211
212
212
212
212
210
209
206
205
203
201
201
201
204
206
207
209
209
207
206
206
206
206
212
209
205
205
204
203
203
201
203
203
204
204
205
206
209
210
210
210
211
211
211
211
210
210
210
210
211
211
209
206
205
201
199
199
200
201
203
204
206
207
210
211
213
213
213
213
211
209
206
204
203
201
201
203
204
205
207
209
209
207
206
206
206
206
215
212
210
207
205
204
203
203
201
201
201
201
203
204
206
209
209
209
211
212
212
212
212
212
212
212
213
213
213
211
207
204
201
199
200
201
203
204
207
209
210
211
213
213
214
213
212
210
207
204
203
201
203
203
204
205
207
209
209
209
207
206
206
206
217
215
213
210
207
206
205
203
201
200
200
200
201
201
204
206
207
209
210
212
213
212
212
213
214
215
215
215
215
214
211
207
204
201
201
201
203
204
207
210
211
212
213
214
214
214
212
210
206
204
201
201
204
204
205
206
207
210
210
210
209
209
207
209
217
216
214
212
210
209
209
206
204
201
199
199
200
200
201
203
205
207
209
210
212
213
214
215
215
216
216
217
217
216
214
211
207
205
203
203
203
205
207
211
212
214
215
215
214
214
212
211
207
204
203
203
204
206
206
207
207
210
211
212
212
211
211
211
218
217
216
214
213
212
211
210
206
203
201
200
199
199
200
200
203
205
207
209
210
212
214
215
216
217
217
217
218
217
215
213
210
207
206
205
205
206
209
211
212
213
215
215
214
214
212
211
209
206
205
205
206
207
207
209
207
210
212
213
213
212
212
212
