P2
# 337 of 608 Angiograms
64 64
255
176
175
176
178
180
180
178
176
173
170
166
164
166
168
168
168
168
168
168
168
166
164
164
163
163
163
161
161
159
155
154
155
161
166
170
176
181
184
183
183
181
178
171
168
166
164
163
157
152
148
144
146
148
150
152
155
157
157
159
159
155
157
159
157
187
187
190
190
190
190
187
187
187
184
178
175
175
178
176
175
175
175
175
176
175
173
170
170
170
168
168
170
166
164
163
164
168
173
178
184
187
189
189
187
187
186
181
178
173
170
166
163
159
154
154
154
157
159
163
164
168
168
168
166
163
163
164
163
196
197
197
199
199
197
195
193
193
192
187
181
178
180
178
180
180
180
180
180
175
171
171
171
175
175
175
175
173
170
168
170
175
180
183
187
189
190
190
190
189
189
187
184
180
178
171
170
166
164
164
166
166
166
170
171
173
175
176
175
171
171
171
170
199
200
200
201
200
200
197
196
196
195
189
183
180
178
176
176
178
178
178
176
173
170
170
173
178
178
180
178
176
171
173
175
178
181
186
187
190
192
190
190
190
190
189
186
184
183
178
176
176
176
176
176
175
175
176
176
178
178
180
180
178
178
180
180
199
199
199
201
201
201
199
196
195
192
189
183
178
175
173
175
175
175
175
173
171
168
171
175
176
180
183
183
180
175
173
178
180
181
186
186
189
190
190
192
190
190
189
187
186
184
181
181
183
183
180
178
178
178
180
181
180
180
181
183
184
184
186
186
195
195
196
197
197
197
195
193
190
189
184
178
173
170
168
171
173
173
173
171
170
170
171
175
176
180
183
184
183
176
176
180
183
184
184
186
186
189
192
192
189
189
187
187
184
184
184
184
186
186
181
178
176
180
183
181
180
180
181
186
189
190
190
189
190
192
192
193
193
192
190
187
184
181
176
173
170
168
168
168
170
170
170
171
171
170
171
175
178
180
184
184
183
180
181
184
187
186
184
184
184
186
187
189
187
187
186
186
184
183
184
186
186
184
180
175
176
180
181
183
181
180
181
187
189
189
190
192
189
190
190
190
190
187
183
180
176
173
168
164
164
164
163
166
168
170
168
170
170
170
170
173
178
180
181
183
183
183
184
189
189
187
186
186
184
183
184
184
184
183
183
184
183
181
181
186
186
183
176
175
176
180
181
181
180
180
181
186
187
189
192
190
187
190
190
189
186
181
176
173
168
161
155
155
159
161
159
161
164
166
168
168
170
168
168
171
176
180
178
180
181
183
183
186
187
187
186
184
183
181
183
183
181
183
181
183
183
180
180
183
184
181
176
176
178
180
178
176
176
178
181
184
186
189
189
187
181
187
187
184
180
176
173
166
161
155
155
157
159
157
154
157
159
161
163
166
166
166
166
170
173
175
176
176
176
178
180
181
183
183
183
181
181
178
178
181
183
181
181
181
181
180
180
181
181
178
175
173
176
178
178
178
175
176
181
183
186
186
186
184
171
178
180
180
176
175
168
163
159
155
159
159
159
159
155
157
155
155
157
161
161
161
163
168
170
171
171
171
171
173
175
176
178
178
178
178
175
173
173
175
178
181
181
180
178
178
180
180
178
176
175
175
176
178
180
178
175
176
180
183
184
184
184
184
166
171
178
178
176
173
166
161
157
159
159
161
159
159
157
159
157
155
155
157
157
155
159
163
168
168
166
166
166
170
171
173
171
171
170
168
168
166
166
170
173
176
178
176
175
175
175
173
173
175
173
175
176
176
176
176
176
178
180
181
184
184
184
184
170
171
175
176
175
171
166
161
159
161
161
161
159
161
161
161
163
161
159
159
159
159
161
161
164
166
163
159
161
164
166
168
166
166
166
164
163
161
163
166
170
171
173
171
171
170
168
171
171
171
170
170
171
171
171
171
175
176
180
180
181
180
180
180
171
171
173
173
173
170
168
163
161
161
161
161
163
163
164
164
164
166
166
168
168
168
166
164
164
164
163
163
164
166
166
164
164
166
166
168
166
164
163
163
164
168
168
166
166
166
168
170
170
168
166
166
166
166
164
164
168
171
173
175
175
176
176
176
173
171
171
171
170
168
166
163
161
161
159
161
164
168
170
171
171
173
171
173
173
173
171
168
166
164
164
168
170
170
171
170
166
166
168
168
168
168
166
166
166
166
164
164
161
164
164
168
170
166
163
159
159
159
159
157
159
164
168
170
170
170
170
171
168
168
168
168
166
166
164
161
161
159
161
166
170
173
175
178
178
178
178
180
178
176
176
173
168
164
166
170
173
173
173
171
168
166
166
170
171
173
173
170
168
164
163
161
163
164
164
166
168
166
163
157
155
155
154
154
154
155
161
163
163
163
163
163
164
164
164
166
166
164
164
163
161
163
164
170
173
176
180
181
180
181
181
181
181
178
176
175
171
168
164
168
173
175
176
176
171
171
171
173
175
175
175
173
168
164
161
163
164
166
164
168
170
168
164
159
157
155
155
152
154
154
157
159
159
159
163
163
163
163
164
166
168
166
166
164
164
166
168
170
173
176
180
180
181
181
181
183
183
180
176
173
173
171
166
168
173
176
176
178
175
175
176
176
176
176
175
171
168
164
163
164
164
166
168
170
170
168
164
163
161
157
154
155
155
155
159
159
159
159
163
163
163
164
166
170
170
171
171
170
168
168
168
170
171
175
176
176
180
180
183
183
181
178
175
175
175
173
168
170
175
178
180
180
178
178
178
178
180
178
175
171
168
166
164
166
164
164
166
168
171
170
166
164
164
163
157
157
157
157
159
159
161
161
161
161
159
161
164
170
170
173
175
175
173
170
170
171
173
176
178
176
178
180
183
184
181
176
171
171
173
171
170
173
178
180
180
180
180
178
176
178
180
180
178
173
170
166
168
168
168
168
166
168
170
170
170
164
164
166
163
161
161
163
163
161
159
157
159
159
157
161
164
168
171
175
178
178
176
175
173
173
173
175
178
176
176
180
183
183
178
175
168
168
170
170
171
175
176
178
178
178
178
176
175
175
176
178
178
175
171
170
170
171
171
171
168
166
168
170
168
168
166
164
164
163
166
166
166
164
161
157
157
157
159
161
166
170
173
176
178
176
176
178
176
175
175
173
175
176
178
178
180
180
176
173
168
168
170
170
173
176
176
176
178
180
180
178
175
175
175
176
176
175
173
171
173
173
175
175
173
168
166
166
166
166
164
164
164
163
166
168
168
168
166
161
159
157
157
159
164
168
171
175
176
178
178
180
176
175
173
173
173
173
175
176
176
176
175
173
170
170
170
173
176
178
178
178
178
180
180
180
175
175
176
178
178
176
173
173
173
175
175
175
173
171
168
164
163
164
163
164
166
164
166
170
170
170
170
166
163
161
155
159
164
166
170
171
175
176
178
178
176
173
173
173
170
170
171
175
176
176
175
175
171
171
173
175
176
180
181
178
178
180
178
178
178
178
180
181
180
178
176
176
175
173
173
173
171
170
168
168
164
163
163
163
164
164
164
170
173
173
171
168
163
161
154
159
164
164
168
171
173
173
173
175
175
175
171
171
170
168
171
175
173
171
175
175
171
171
173
175
176
178
181
181
178
180
178
178
178
180
183
183
180
176
178
178
175
173
175
175
173
170
166
166
161
159
159
159
163
163
163
166
171
171
170
164
163
161
155
159
163
164
166
170
173
173
171
173
173
173
171
170
168
168
171
173
173
173
175
173
170
171
175
175
175
176
180
180
178
178
176
176
180
181
183
181
180
178
180
178
176
176
175
176
173
168
164
163
159
159
159
159
159
163
163
163
166
166
164
164
164
163
157
161
163
164
166
166
170
170
170
170
170
170
170
168
166
170
171
173
173
173
171
170
168
170
175
176
176
176
178
176
176
175
173
175
178
180
180
181
180
176
178
180
178
178
176
173
170
166
163
161
159
161
159
159
159
161
163
161
164
163
163
164
168
166
161
164
166
166
166
166
166
168
168
166
164
164
164
166
166
166
170
171
170
170
170
168
166
168
173
175
176
175
173
171
171
171
171
173
173
176
178
178
178
178
178
178
178
176
173
170
166
163
161
159
159
163
161
161
163
163
163
161
161
163
163
164
164
164
163
166
168
168
166
164
164
163
163
161
157
155
159
163
166
168
168
170
168
166
166
166
166
168
171
173
175
173
170
170
166
164
164
168
170
171
173
175
175
176
178
178
176
175
171
166
163
159
159
157
159
163
164
166
163
163
161
161
159
163
163
163
163
163
164
170
171
168
168
166
164
161
161
157
154
152
154
157
163
166
166
166
164
163
164
164
166
164
168
171
171
170
166
164
163
161
161
163
164
168
168
170
171
175
176
178
175
173
170
164
163
157
159
161
161
163
163
163
163
163
159
159
161
163
163
163
163
164
168
170
171
171
168
168
164
163
157
155
152
150
152
154
157
163
164
161
161
159
163
163
163
163
164
168
168
166
164
163
161
159
159
159
163
164
164
164
166
170
173
175
173
171
168
164
163
159
161
163
163
163
161
161
161
163
161
164
166
166
164
164
164
164
168
170
171
171
170
166
163
161
155
152
148
146
146
150
154
157
159
157
157
161
161
159
157
159
161
163
164
163
161
159
157
157
157
157
157
163
164
163
163
166
168
168
168
168
164
164
163
159
159
161
161
159
157
159
161
163
164
166
166
164
164
164
164
164
171
171
170
168
168
166
163
157
154
152
148
144
146
150
152
155
154
155
157
161
161
159
157
157
159
161
161
157
157
155
154
155
157
157
155
161
164
163
163
164
166
166
163
164
163
163
163
159
157
154
155
159
161
157
159
161
164
166
164
163
163
164
164
163
170
171
166
166
164
163
159
155
154
150
148
146
148
148
152
152
152
157
161
161
161
159
157
157
159
161
157
152
150
150
150
154
157
157
155
157
161
163
163
163
163
163
163
161
159
161
161
157
155
152
154
155
159
157
159
161
164
164
163
163
163
163
161
159
168
164
164
163
161
159
155
154
152
150
148
150
148
148
150
154
155
159
161
161
163
163
163
164
163
159
155
152
150
146
148
152
155
157
155
157
161
161
161
161
159
161
159
159
161
161
157
155
154
152
154
155
159
161
159
159
161
164
163
161
163
163
159
157
166
164
161
159
157
155
155
154
154
152
150
150
152
152
154
157
161
161
163
164
164
166
168
168
166
163
155
154
150
148
148
152
155
155
155
157
157
161
159
159
161
163
161
163
164
164
161
157
154
152
157
159
163
161
159
161
161
159
161
159
159
161
159
161
168
163
161
157
155
154
152
152
155
155
155
154
154
154
157
161
164
164
166
166
166
170
170
170
170
164
159
155
152
150
152
152
155
157
154
154
159
161
159
161
163
164
164
164
164
168
164
161
155
154
159
163
164
163
161
161
157
155
159
159
157
159
159
159
166
164
161
157
155
155
154
154
155
155
155
154
150
154
161
164
166
166
164
166
168
166
168
170
168
164
161
157
154
152
154
150
152
154
152
154
157
159
161
163
166
164
164
164
166
170
166
163
157
155
159
163
164
164
161
159
155
154
157
159
161
161
161
155
168
164
161
157
155
155
152
152
150
150
152
150
150
155
164
166
166
166
166
166
166
164
164
166
164
164
161
159
155
154
154
152
152
150
152
154
155
157
161
164
166
164
164
166
168
168
164
163
157
157
159
163
166
163
161
159
155
154
157
161
163
161
157
155
166
163
159
157
155
152
150
150
146
146
148
148
150
155
164
166
166
164
163
164
163
159
161
163
163
163
161
159
159
157
155
154
152
152
152
152
155
157
163
164
164
164
166
166
168
166
166
161
155
155
155
157
163
163
159
159
157
155
157
163
163
163
157
157
166
163
157
155
154
150
148
146
146
144
146
148
150
154
161
163
163
164
163
159
161
159
159
161
161
159
157
157
155
155
155
154
154
152
152
152
154
157
164
164
163
164
166
166
166
166
164
159
155
154
152
155
161
161
161
157
155
157
159
161
159
163
159
157
164
161
157
157
155
154
148
144
144
146
142
142
148
152
155
159
161
163
163
159
161
161
159
161
161
161
157
155
154
152
152
152
150
152
152
150
152
155
161
163
163
164
166
168
166
166
163
157
154
154
154
157
163
163
163
161
159
159
159
159
161
159
161
159
163
159
155
155
155
154
150
146
146
148
146
142
144
148
152
157
161
161
163
163
161
161
161
161
163
163
163
157
152
150
148
146
148
150
150
150
152
155
159
159
164
166
166
164
164
164
159
155
154
154
155
161
164
168
166
164
164
163
164
163
161
159
159
161
163
159
155
157
155
152
152
152
154
154
150
148
144
144
148
155
159
159
163
164
163
161
164
163
163
163
163
157
154
150
148
144
144
148
150
152
152
155
159
161
163
164
163
161
163
163
159
155
155
155
157
161
166
168
166
164
166
164
166
163
163
159
157
159
163
161
159
157
157
154
154
155
157
159
155
154
150
148
150
154
157
161
163
164
164
163
163
164
164
164
161
161
157
154
148
144
144
148
152
154
155
157
161
161
161
164
164
161
163
163
159
155
155
155
157
161
164
168
166
164
164
163
164
163
161
159
159
159
163
164
161
159
155
154
155
157
161
163
157
155
155
154
155
155
159
161
161
161
159
159
161
164
166
166
164
161
157
155
154
148
148
150
152
154
157
159
161
164
166
166
164
164
163
161
159
155
157
155
155
159
164
166
166
166
163
161
161
161
161
161
161
163
166
164
163
163
161
159
157
159
163
163
161
161
163
163
163
163
161
161
161
157
154
154
157
161
163
164
164
161
157
155
155
152
150
148
150
152
157
161
163
168
171
170
168
166
163
161
157
154
155
154
155
159
164
164
164
164
161
161
161
159
161
161
161
163
170
170
170
168
166
164
163
163
161
161
164
164
166
168
166
164
164
164
163
157
154
154
155
159
159
159
161
159
157
154
152
150
150
152
150
152
157
159
164
166
168
168
166
163
159
155
152
152
152
154
157
161
163
163
164
164
163
163
163
163
161
161
161
161
175
175
173
171
170
166
166
166
166
166
166
168
168
170
168
164
166
166
166
161
159
157
157
155
157
157
161
157
157
152
148
148
148
150
152
154
155
159
161
161
161
161
161
155
154
150
148
146
146
152
155
161
163
163
163
163
164
166
164
164
161
161
161
163
176
178
176
173
171
168
168
173
175
175
173
175
175
171
170
168
170
171
173
170
168
166
164
161
159
159
159
157
155
150
146
146
144
144
148
150
152
154
157
157
159
161
157
155
152
150
150
148
146
150
155
159
161
164
166
166
166
166
166
163
163
161
161
161
176
176
176
173
171
170
173
176
180
180
180
181
180
176
173
171
173
176
176
176
175
173
173
170
164
161
161
157
154
152
146
146
144
142
144
146
148
150
155
155
157
157
157
155
154
152
150
150
148
148
154
155
159
161
163
163
164
164
164
163
163
161
157
155
178
176
176
175
173
175
176
180
181
184
186
186
184
183
180
178
178
178
178
176
176
176
176
175
171
168
164
159
157
154
150
148
148
146
146
146
146
150
154
154
155
159
159
155
152
152
154
154
152
152
155
157
159
161
163
164
164
164
163
161
159
157
157
155
181
180
180
178
178
178
181
184
184
184
184
186
184
184
183
183
183
183
181
180
176
176
178
178
175
173
168
164
159
157
157
155
154
152
150
152
150
152
152
154
155
161
163
159
155
155
155
157
157
157
159
161
163
163
166
168
168
164
161
159
157
155
157
157
184
183
181
183
183
183
184
186
184
183
183
186
187
187
184
184
186
184
183
181
178
178
180
181
178
175
171
168
164
161
159
159
155
152
152
154
154
155
155
157
159
163
166
164
163
163
164
164
164
164
164
166
164
166
170
170
170
166
164
163
161
159
157
157
187
186
184
184
183
183
184
186
184
183
180
184
186
186
184
183
184
183
181
181
180
180
183
184
183
178
175
171
168
166
164
163
159
154
152
154
157
157
159
161
161
164
166
168
168
170
171
171
170
170
170
170
168
168
168
170
171
170
166
163
163
161
159
157
189
187
186
184
183
181
183
186
186
184
181
183
183
183
181
183
181
181
181
181
181
183
184
184
183
180
176
173
171
168
168
166
163
159
155
155
159
159
161
161
161
164
170
171
175
175
176
175
173
171
171
171
170
168
170
173
173
171
170
166
164
164
163
161
189
187
184
184
184
183
184
186
187
184
181
183
184
183
180
180
180
180
180
178
180
183
186
184
181
178
175
171
171
168
168
170
166
164
161
159
159
161
161
161
163
168
171
175
176
175
175
176
175
173
175
175
171
171
173
175
175
173
171
171
170
166
166
164
187
184
183
183
183
183
184
186
186
184
183
186
184
183
178
176
176
180
178
176
178
180
183
181
178
175
173
171
168
168
168
170
168
168
166
163
161
159
159
161
164
168
171
176
175
175
176
175
176
173
173
171
170
170
173
175
175
175
175
175
173
170
170
166
187
184
184
186
184
183
183
184
184
186
184
183
183
181
178
176
176
178
180
178
176
178
180
178
176
175
175
173
168
166
166
166
166
168
168
168
164
161
157
163
166
170
173
173
175
176
178
176
176
175
171
171
170
170
173
175
173
176
178
180
176
173
171
168
187
186
186
187
186
183
184
187
186
186
184
183
181
180
178
176
175
176
178
178
176
178
176
173
173
175
175
173
170
168
166
164
164
168
170
170
168
164
163
164
168
170
171
171
171
175
175
176
175
173
171
171
171
173
175
176
176
178
180
180
176
175
171
168
189
186
189
187
187
184
184
187
190
189
187
184
180
178
178
176
173
175
175
176
175
173
171
170
168
170
173
171
170
168
166
166
164
170
171
171
170
166
166
166
166
166
166
166
166
168
171
171
171
170
173
175
176
176
175
176
178
180
178
176
173
173
170
166
187
186
187
187
187
186
184
187
190
190
187
184
180
175
175
175
173
171
173
173
170
170
170
168
166
166
171
171
168
164
163
164
164
168
173
171
170
168
168
168
164
163
163
161
163
164
168
170
171
171
173
176
180
176
173
173
176
178
176
173
171
173
168
164
187
186
186
187
187
186
186
187
189
187
186
183
178
176
173
171
171
171
170
168
168
168
168
166
164
166
170
170
168
164
164
163
163
166
168
170
168
166
164
163
161
159
161
159
163
163
168
171
173
173
173
176
176
173
170
170
173
175
173
171
171
170
166
166
187
184
184
187
186
186
189
189
189
186
183
181
178
176
173
171
170
168
166
164
166
164
164
164
163
164
168
170
171
168
166
166
164
166
166
166
164
164
163
161
159
159
159
159
161
163
164
170
170
168
170
171
171
170
170
170
170
171
171
168
168
166
164
164
