P2
# 341 of 608 Angiograms
64 64
255
181
176
175
176
176
176
176
178
180
178
176
175
175
171
170
168
166
164
163
161
161
159
155
152
154
155
159
164
166
164
163
163
164
166
168
168
170
170
166
163
159
157
152
150
148
152
155
155
163
166
168
168
166
168
170
170
168
164
161
159
159
157
154
154
187
184
184
186
186
186
186
187
186
184
183
183
181
180
178
175
171
168
168
168
166
166
163
161
163
164
170
173
173
171
168
168
170
173
175
173
173
175
173
170
164
163
161
161
159
163
164
168
171
175
173
173
173
176
176
176
175
171
168
163
161
159
159
157
192
187
189
189
190
190
192
192
192
190
187
187
186
184
183
183
181
181
183
183
183
181
178
178
176
176
176
178
176
175
173
175
176
180
181
178
176
178
176
175
173
168
168
170
170
171
173
176
181
186
186
186
186
189
187
186
183
181
178
171
170
168
164
164
192
190
189
189
190
193
195
195
195
193
193
190
189
187
189
189
190
190
193
195
195
193
192
190
187
184
181
180
180
176
178
180
183
186
186
183
180
180
180
178
178
176
176
176
178
176
178
183
189
192
193
195
195
195
193
190
189
187
186
183
180
176
173
170
190
190
189
189
189
192
195
197
196
196
196
196
195
193
193
193
193
196
199
200
200
199
196
195
192
187
183
180
180
180
181
184
187
189
187
184
180
180
181
181
183
183
181
180
178
178
181
186
190
195
196
197
200
199
197
195
192
190
190
187
186
184
181
178
189
189
187
187
187
190
193
193
193
195
196
197
195
193
192
192
196
199
200
201
203
201
199
196
195
192
184
178
178
178
181
184
186
187
186
183
176
176
180
183
184
184
184
180
178
181
184
187
190
195
196
196
199
200
197
196
195
192
190
190
189
187
186
183
184
186
186
186
186
187
190
189
190
192
195
195
195
192
189
190
196
199
200
200
201
201
199
196
195
192
184
176
175
176
178
183
184
184
183
178
175
176
180
183
184
186
184
181
181
183
184
186
189
192
195
195
196
197
197
196
195
192
190
189
189
189
189
189
180
180
180
181
181
183
184
186
187
189
190
192
192
189
186
187
190
195
197
199
199
197
193
192
190
184
178
173
173
173
176
178
181
181
178
175
175
176
180
181
186
186
186
183
183
181
183
186
187
190
192
193
193
195
195
193
192
190
187
187
189
190
192
192
176
176
176
178
178
181
184
187
187
190
190
190
189
183
181
183
186
187
189
190
190
187
186
183
181
175
168
166
166
168
171
175
176
176
176
176
176
178
180
183
189
189
186
183
181
181
183
186
186
189
190
192
192
192
190
189
189
187
187
186
187
189
192
193
175
175
175
176
178
184
187
189
190
190
190
190
186
180
176
178
181
181
183
183
181
178
175
171
170
163
159
161
159
163
166
168
170
171
173
175
178
178
180
184
186
187
186
184
183
183
183
184
184
186
187
187
189
187
187
187
187
187
186
183
184
187
190
192
176
176
178
181
186
189
190
192
192
192
192
190
184
180
175
175
180
181
178
175
171
166
163
161
157
154
154
157
159
157
159
163
163
166
170
170
175
178
178
181
181
183
183
183
183
181
181
183
183
183
183
183
183
184
184
184
184
184
181
181
181
186
189
189
176
178
183
189
190
193
196
196
193
192
192
187
184
181
175
173
175
176
171
166
163
159
155
154
152
152
154
155
157
157
157
157
157
159
163
166
168
173
175
176
178
178
176
178
178
178
178
176
176
176
176
175
176
178
178
180
180
181
180
180
180
183
186
186
178
181
186
192
196
199
199
199
193
192
189
184
183
180
175
170
168
168
168
163
157
155
152
152
154
154
152
152
155
159
159
157
152
154
157
161
164
166
171
175
175
173
173
173
175
175
173
170
168
168
168
168
170
171
171
173
176
176
176
176
176
180
180
178
178
181
186
192
196
199
199
196
193
189
184
181
178
176
175
168
164
164
166
163
159
154
154
155
157
157
155
155
157
159
159
155
152
152
154
157
161
163
168
170
170
168
170
171
173
173
170
168
164
164
163
161
164
164
164
168
170
173
173
171
171
171
171
171
175
180
184
189
192
193
193
193
190
186
181
176
173
175
175
170
168
168
168
164
161
159
157
159
161
159
159
161
159
159
161
159
154
152
155
159
163
163
164
168
166
166
164
166
170
170
170
168
168
166
163
161
163
164
164
168
168
170
173
170
166
164
166
168
170
173
178
186
187
190
190
190
187
184
178
175
175
178
176
170
170
170
168
166
163
159
161
163
163
161
166
166
164
164
163
161
159
159
161
163
164
164
166
168
166
164
164
164
166
168
170
173
171
170
168
166
168
168
168
168
168
168
170
168
164
161
163
166
164
166
171
175
178
181
184
184
184
181
178
176
176
178
173
170
168
168
168
166
163
159
161
163
164
166
168
168
168
168
168
166
166
166
168
168
168
168
166
166
168
168
168
168
168
170
173
173
173
171
171
173
173
173
171
171
168
166
166
166
166
164
164
166
157
161
163
166
170
171
173
173
176
178
176
175
175
173
168
166
166
166
166
166
164
161
161
163
164
168
171
173
173
171
171
171
171
175
175
173
173
173
173
171
170
170
171
173
173
175
175
176
175
173
175
176
176
175
175
170
168
164
164
166
170
170
170
168
159
157
159
161
161
161
163
163
164
166
168
168
168
166
166
164
163
164
166
168
164
164
166
166
168
170
173
175
176
178
176
176
178
180
180
178
176
178
176
175
171
170
171
175
178
178
176
176
173
171
175
176
176
176
173
168
164
163
164
168
171
173
173
171
157
155
155
155
154
150
148
146
146
148
152
157
159
163
163
163
163
164
166
168
168
171
171
171
171
171
173
176
178
178
178
180
183
183
181
178
178
180
180
176
175
171
171
175
180
181
181
178
175
173
173
175
176
173
170
166
163
157
163
168
170
171
171
170
152
152
150
148
144
139
135
135
139
140
144
150
155
159
161
161
161
164
168
171
173
175
176
175
175
173
173
175
175
176
178
180
183
184
181
178
180
178
178
176
175
175
176
178
180
183
184
181
180
178
176
175
173
171
168
168
164
159
161
166
168
170
171
171
142
142
140
137
135
131
129
129
133
137
140
146
154
157
159
161
161
164
171
175
175
176
176
175
173
171
173
173
173
175
175
176
180
183
180
178
176
176
173
175
176
176
178
180
180
181
184
184
183
180
180
178
176
173
170
168
166
164
163
164
166
168
170
168
133
131
131
131
127
125
127
127
129
135
140
142
150
154
157
161
161
163
171
175
176
178
178
178
175
175
173
175
173
173
175
176
178
176
176
175
173
173
173
175
176
178
178
180
178
180
183
183
183
180
178
180
180
178
175
171
170
168
166
166
166
168
168
166
125
123
123
123
123
123
127
127
129
135
139
142
148
150
154
157
159
164
170
176
180
181
181
178
175
175
173
175
173
175
175
178
176
173
175
171
170
171
171
173
175
178
180
176
176
180
183
183
181
178
176
178
181
181
178
175
171
171
170
170
168
164
164
166
123
119
119
121
121
123
125
129
131
137
139
142
146
148
150
154
159
164
170
175
178
180
183
180
175
173
171
171
173
175
175
176
176
175
176
175
171
171
173
175
176
180
181
178
176
181
181
181
178
176
176
178
180
181
178
175
173
173
173
173
170
164
161
163
123
119
121
119
121
125
129
131
135
137
139
140
142
146
148
154
161
164
168
173
176
178
180
180
176
175
171
170
170
173
175
176
178
176
175
176
173
173
173
175
178
181
183
180
178
181
181
180
176
176
178
180
180
181
180
176
175
175
173
173
171
168
163
159
123
123
121
121
123
125
133
133
135
139
139
139
140
144
148
154
161
164
166
170
173
176
176
176
173
173
170
170
168
173
176
176
176
176
176
175
173
173
173
176
178
180
183
181
181
180
180
176
176
180
181
181
181
181
180
176
176
176
175
175
173
170
164
161
127
125
123
125
125
131
135
137
135
139
139
139
140
144
146
152
159
163
166
168
170
171
171
171
170
168
170
168
170
173
175
176
178
176
176
175
171
171
173
175
178
178
181
183
181
178
178
176
178
181
183
183
183
183
181
180
180
180
176
178
176
171
166
161
131
129
125
127
131
135
137
137
139
142
142
142
142
146
148
152
159
163
164
166
168
170
168
166
166
166
166
166
168
171
173
175
176
175
173
171
171
171
171
173
176
176
178
181
178
176
175
176
178
181
181
181
180
180
180
180
181
181
178
176
176
171
164
159
135
133
133
133
137
139
140
142
142
146
146
148
148
150
150
155
161
164
164
164
164
164
163
161
161
161
161
163
164
170
170
170
171
171
170
166
166
168
170
171
176
176
176
178
175
171
171
171
175
178
180
178
176
178
178
181
180
180
178
176
175
171
164
159
140
139
139
140
142
144
144
146
148
148
150
150
148
150
154
157
163
166
166
164
163
161
159
157
157
157
157
159
163
164
168
168
166
168
166
163
163
166
170
171
175
176
176
175
173
170
166
166
170
173
176
175
173
176
178
180
178
176
176
173
171
170
164
161
140
142
142
142
144
144
146
148
148
146
148
148
150
154
159
163
164
168
164
163
163
161
161
157
155
154
157
157
159
163
164
164
166
166
164
163
163
161
164
170
171
173
173
173
168
164
164
164
166
170
173
171
171
175
176
178
176
173
170
170
168
168
166
161
142
142
142
142
142
144
146
148
148
146
148
152
155
161
164
164
164
166
163
157
157
159
159
155
154
152
154
155
157
161
163
163
163
163
163
161
161
159
161
164
166
166
166
166
164
163
163
163
163
164
166
168
170
171
173
175
175
173
168
166
166
166
166
161
142
144
142
142
142
142
142
148
148
148
152
159
163
166
168
168
166
166
163
157
157
155
154
154
150
150
152
154
155
157
161
161
161
164
163
159
159
154
157
161
163
163
163
163
163
163
163
161
157
159
161
164
168
170
168
170
170
168
166
164
163
166
164
159
144
146
146
146
144
142
144
146
148
154
157
164
170
171
168
166
166
166
163
157
155
154
152
152
148
146
146
150
152
154
157
159
163
163
161
159
157
155
155
157
159
159
157
157
159
159
161
159
157
157
159
163
164
166
164
163
163
163
164
163
163
164
164
157
142
144
146
144
144
148
150
150
152
159
164
168
171
171
170
166
164
163
161
159
154
152
150
148
144
140
144
148
150
154
159
161
159
159
159
159
159
159
159
159
157
154
152
152
155
157
159
159
161
159
159
161
163
163
161
159
161
163
163
161
161
164
163
157
140
142
144
144
146
148
152
154
159
164
168
170
171
171
170
166
163
161
161
157
154
150
150
146
142
140
146
148
152
157
163
163
163
161
161
161
163
164
164
161
157
154
152
152
154
157
161
161
159
159
159
161
161
159
161
161
161
163
163
164
161
161
161
155
140
140
144
146
148
150
154
161
166
170
171
175
173
171
170
164
161
159
159
157
154
150
150
148
148
148
150
152
157
161
164
164
164
164
164
164
166
166
168
164
159
154
154
150
152
155
159
159
161
161
161
163
161
159
161
163
161
164
166
164
163
163
161
157
142
144
146
150
152
157
161
166
168
171
173
175
173
173
170
166
163
161
159
159
155
150
150
152
152
152
154
157
161
164
166
166
166
168
168
166
166
164
164
164
161
157
152
148
150
154
159
159
161
161
163
164
164
161
163
164
163
164
166
163
166
168
164
157
144
146
152
157
161
164
168
170
171
175
176
176
175
173
168
168
163
161
161
159
154
150
150
152
154
154
157
159
161
164
166
166
170
173
170
168
168
164
163
164
163
159
155
150
148
152
155
157
157
157
159
161
163
164
166
164
163
163
163
164
166
168
164
159
154
155
159
163
164
168
171
173
175
176
178
178
175
171
168
168
163
161
159
155
152
150
150
154
152
154
157
161
161
163
166
166
171
171
168
168
166
161
161
161
159
157
155
154
152
152
155
155
154
155
157
159
164
168
166
164
163
164
166
168
170
168
164
161
161
163
164
164
166
168
170
171
175
178
178
176
171
168
166
166
163
161
155
154
152
150
150
154
154
154
157
161
163
163
164
164
168
168
164
163
161
157
159
159
155
154
154
154
155
155
155
155
154
155
159
163
166
166
164
164
164
166
170
171
171
166
163
161
164
166
166
166
164
166
170
171
171
175
173
171
168
166
166
168
164
161
155
155
154
150
152
154
152
154
157
161
163
161
161
163
164
163
159
159
159
159
157
157
155
152
152
152
152
150
152
152
152
155
159
161
164
166
163
163
164
168
170
170
168
163
159
155
166
166
164
166
164
163
166
168
170
170
168
168
166
164
164
166
164
163
159
157
155
154
154
152
152
154
157
157
159
159
161
161
161
159
157
159
161
159
159
155
154
152
152
152
148
146
148
148
152
154
157
159
161
163
164
164
164
166
166
166
163
159
157
154
168
164
164
166
164
163
161
163
163
164
163
164
166
164
164
164
163
163
163
161
159
155
154
152
154
154
157
155
155
154
154
157
159
159
161
159
161
161
159
157
155
154
152
150
148
144
144
146
150
154
155
157
159
161
163
164
163
163
163
161
161
157
155
155
168
166
164
164
164
161
159
159
161
161
161
163
166
164
164
164
164
163
161
161
159
157
155
154
154
154
154
155
155
154
152
155
159
159
161
163
163
163
161
161
161
157
154
150
148
148
144
144
150
152
154
155
155
159
161
164
161
159
161
161
159
155
154
157
170
166
164
164
164
164
164
163
161
161
159
161
161
164
164
164
164
163
161
157
155
154
155
155
154
154
154
155
157
159
155
157
161
159
159
161
163
164
164
164
164
161
155
150
148
146
144
146
150
154
155
154
157
159
163
164
164
161
161
161
157
152
152
154
171
168
168
170
171
171
170
168
168
168
166
164
164
166
166
166
166
163
161
157
154
154
155
155
157
157
155
157
161
161
159
159
159
159
159
157
159
164
166
164
166
161
157
154
152
150
148
150
152
154
154
155
161
166
170
170
168
166
164
161
155
150
150
152
171
170
173
175
176
176
175
171
173
175
175
171
171
171
170
168
168
166
164
163
159
155
155
155
159
161
161
163
164
164
164
164
163
159
157
157
157
161
164
164
166
163
157
154
154
152
150
150
150
152
154
157
163
168
171
170
168
168
164
159
152
146
148
150
170
170
173
176
178
178
175
173
175
178
176
176
175
176
175
173
173
173
171
168
164
161
159
161
163
164
166
168
168
166
166
166
166
164
163
161
161
161
161
164
163
161
157
155
152
150
146
146
148
150
154
157
161
164
168
168
168
164
161
155
148
142
146
150
166
168
170
171
175
176
173
175
175
175
175
175
176
176
176
176
176
178
176
173
171
166
166
168
171
173
173
170
170
171
171
171
171
170
168
168
166
164
163
163
161
161
157
155
152
146
142
142
144
150
154
155
157
163
166
168
166
163
157
154
150
148
150
154
164
166
166
166
168
170
171
171
173
175
176
176
178
178
180
180
178
178
178
176
175
173
173
178
180
180
178
175
173
173
175
175
175
175
175
175
173
173
171
168
164
161
155
154
150
146
144
144
144
146
148
152
155
159
164
166
164
161
157
154
152
152
150
155
164
161
161
163
166
168
170
173
176
178
178
178
178
180
181
181
180
178
176
178
176
178
180
183
186
186
183
181
178
178
178
178
178
178
178
178
178
178
176
175
170
164
157
154
152
148
146
144
146
148
146
148
152
157
161
164
164
163
161
157
154
152
154
155
164
161
159
163
166
168
171
175
178
180
180
181
184
184
184
184
183
181
181
181
180
180
183
186
190
189
186
184
183
183
181
181
181
181
181
180
178
178
176
176
173
166
161
157
155
154
150
150
150
150
148
148
152
155
157
161
163
163
161
159
157
155
155
155
164
163
163
163
168
168
171
176
180
181
183
186
187
189
187
187
184
183
183
184
181
181
184
189
189
187
187
186
184
184
184
183
183
184
184
181
180
178
178
178
175
171
166
163
161
161
155
152
152
150
150
152
155
155
155
159
159
159
161
161
163
163
161
161
166
166
164
164
166
168
170
176
180
183
184
187
189
190
190
189
186
184
184
183
181
181
184
187
187
187
187
187
184
186
189
186
184
183
184
183
180
181
181
181
178
175
171
168
164
164
164
159
154
152
154
157
159
159
159
161
161
161
163
164
166
168
168
166
166
168
168
168
168
170
170
175
180
184
186
186
187
190
190
187
186
186
186
184
181
181
183
183
184
186
186
184
183
184
186
186
183
181
183
184
183
181
183
183
181
178
175
173
170
168
166
163
159
157
157
159
161
161
163
166
166
168
170
171
171
171
171
170
170
170
170
170
171
173
170
173
180
184
186
183
184
187
189
186
181
183
187
186
183
181
181
183
184
186
187
184
181
184
184
183
181
181
184
183
181
181
184
184
181
178
176
175
171
171
168
164
163
161
159
157
159
163
166
170
171
171
175
176
176
175
175
173
175
173
171
173
175
173
170
173
178
183
186
186
184
186
187
186
183
184
186
184
184
183
183
183
184
184
187
184
181
183
183
181
183
181
181
180
180
181
183
183
180
176
176
175
173
171
170
166
163
163
163
161
161
164
166
173
175
176
178
178
178
178
175
173
176
176
173
175
176
171
170
171
175
180
186
189
190
190
189
186
186
187
187
187
186
184
183
183
186
184
186
186
183
181
181
183
183
183
183
180
180
180
180
180
178
176
175
175
171
170
168
168
164
164
166
164
164
163
164
171
175
176
178
178
178
176
175
173
178
176
173
173
173
171
170
171
173
178
184
189
192
192
189
186
187
190
190
189
186
184
186
187
186
186
184
184
181
180
180
181
183
183
183
180
180
178
176
176
175
176
175
173
171
170
168
166
164
168
168
168
164
164
164
170
171
175
176
176
175
175
173
175
183
178
173
170
170
170
170
171
173
176
184
190
190
192
190
190
190
190
190
190
187
187
187
189
189
186
183
181
180
180
180
178
180
180
178
178
176
175
173
173
173
175
173
171
170
170
170
170
168
170
171
171
168
166
166
168
170
171
175
175
173
173
175
175
186
181
175
171
170
170
171
173
175
180
186
190
192
192
193
193
193
190
190
189
189
187
189
189
189
184
181
180
180
178
178
176
175
175
173
171
171
170
170
171
171
171
171
173
171
168
168
170
171
173
173
173
171
168
168
168
168
168
168
168
170
170
171
171
187
184
180
173
173
173
176
178
180
181
184
189
192
193
196
195
193
192
190
190
190
189
190
190
189
183
180
180
180
176
175
173
173
173
171
170
166
166
166
168
170
170
170
171
168
164
166
170
173
178
178
175
173
170
166
164
164
164
164
164
166
170
170
173
