P2
# 348 of 608 Angiograms
64 64
255
73
76
74
73
71
74
73
76
78
78
76
78
78
78
76
78
78
78
79
82
82
87
86
84
87
89
93
93
94
96
96
100
100
100
100
96
100
105
105
107
105
105
105
103
103
103
103
103
110
112
110
109
110
110
107
109
107
105
107
107
105
101
101
101
71
70
71
71
71
73
71
74
76
76
74
74
76
74
78
76
78
79
81
84
87
89
87
87
86
89
89
93
98
96
98
101
100
98
98
98
101
105
103
107
105
103
105
103
103
100
100
101
109
112
112
110
110
114
109
109
109
105
101
101
103
103
101
100
71
68
68
68
70
71
71
73
74
76
74
74
76
73
76
76
76
78
81
84
84
84
89
89
91
93
91
94
98
98
98
98
101
101
100
100
100
103
103
105
105
103
107
105
103
98
100
105
105
107
109
109
110
112
110
110
110
105
103
103
103
105
101
100
71
68
70
68
68
70
74
73
73
76
78
76
79
76
74
78
78
76
79
81
84
84
87
89
89
91
91
93
94
94
94
96
100
101
101
100
103
103
103
103
107
107
105
103
101
101
101
107
105
107
109
109
107
110
109
109
107
105
105
105
103
103
101
101
73
71
70
68
67
68
73
73
73
73
76
74
76
78
74
76
78
78
81
82
82
86
86
87
91
91
89
91
94
93
93
94
98
100
100
105
103
101
101
103
105
107
103
103
101
101
101
103
107
110
110
107
105
107
107
109
107
107
107
105
105
103
101
101
73
73
71
70
71
71
71
73
71
73
73
74
79
78
74
76
76
78
79
82
84
86
86
87
89
89
91
93
93
94
96
98
96
98
101
105
101
100
103
105
105
105
101
103
103
100
101
103
105
105
107
105
107
105
105
107
107
107
107
107
105
101
103
101
74
73
71
71
71
71
71
70
70
73
74
73
76
76
71
73
74
78
82
82
82
84
86
89
89
91
91
93
94
93
98
101
98
94
100
103
101
100
103
103
105
105
101
101
100
98
101
101
101
103
103
107
105
103
105
107
109
107
107
107
107
103
105
101
71
70
70
71
71
68
70
67
68
73
70
68
73
74
73
74
78
79
82
81
84
86
84
89
91
89
89
87
91
93
98
100
100
98
98
101
100
100
101
103
103
100
98
96
96
96
101
103
105
105
105
107
105
103
107
107
109
107
109
109
105
107
107
105
68
68
70
71
71
70
67
68
68
70
68
70
71
71
73
76
79
81
81
84
81
81
82
87
89
89
89
89
89
93
94
93
94
96
94
98
98
101
103
103
98
98
96
96
96
98
101
103
103
103
103
103
107
107
107
105
105
103
107
109
107
105
105
103
71
70
71
73
71
70
68
67
67
70
71
71
70
68
70
73
74
79
82
81
79
81
86
86
87
87
86
86
91
93
93
91
93
93
91
94
98
100
101
98
94
94
94
94
94
98
101
101
100
101
103
103
105
109
107
105
103
103
107
109
107
103
103
101
71
71
70
73
73
71
71
68
68
70
70
68
70
70
70
68
71
76
79
79
81
82
86
86
86
86
86
87
91
89
87
89
89
91
93
93
94
96
100
100
94
94
94
93
94
98
101
100
98
100
101
103
105
107
105
105
105
103
105
101
103
103
103
101
70
70
71
73
73
71
73
71
70
70
70
70
70
70
67
68
71
74
74
78
79
82
84
82
82
82
86
87
87
89
89
91
91
93
94
91
91
93
94
96
94
94
91
91
91
96
101
100
101
101
103
103
103
101
103
103
103
101
103
101
101
100
103
101
70
70
73
73
74
71
71
71
74
71
71
71
70
70
70
68
71
71
73
76
78
81
84
82
82
82
84
84
84
87
87
89
89
91
93
89
91
93
93
93
94
93
94
93
93
96
101
103
105
103
103
105
105
103
105
105
103
100
98
100
101
101
101
100
68
71
73
74
74
73
71
71
73
71
67
68
71
71
70
67
68
68
71
78
78
79
81
81
81
81
82
86
84
87
87
87
89
91
91
89
87
89
91
91
91
91
94
94
93
96
101
103
103
101
101
105
107
103
105
107
103
101
101
100
101
101
101
100
71
73
76
76
74
74
71
73
73
73
68
68
73
71
68
67
68
68
70
74
74
78
79
79
81
84
84
87
86
86
87
87
89
93
89
89
89
87
89
91
91
91
91
93
94
96
101
101
101
103
101
103
103
105
107
107
103
101
103
101
101
103
103
100
74
73
74
74
73
73
73
73
73
71
71
70
71
70
67
67
68
68
70
73
73
76
78
78
79
82
86
86
86
86
89
89
89
91
89
91
93
84
86
89
91
93
91
93
94
96
98
100
100
101
100
101
105
107
109
105
103
103
103
101
103
101
100
96
70
70
71
74
71
71
74
74
71
71
71
68
68
71
67
68
68
68
68
70
71
74
78
78
76
79
81
82
82
86
89
89
89
91
93
93
91
86
87
87
89
91
89
89
94
100
98
98
98
98
98
100
105
107
105
103
101
103
101
100
101
103
101
100
70
70
71
73
71
73
71
73
73
74
73
70
71
74
71
70
70
66
66
70
73
73
74
74
76
78
78
82
84
84
86
87
87
89
91
89
87
86
86
87
91
93
93
93
98
100
100
98
98
98
98
98
101
103
101
101
101
101
100
101
100
98
96
96
71
71
73
73
71
74
74
70
74
76
70
70
71
70
71
71
70
68
67
68
71
73
73
74
78
82
78
81
81
82
84
84
86
87
89
86
86
86
87
89
93
94
94
96
96
96
94
94
94
94
96
96
100
100
100
100
100
101
101
101
98
96
96
94
71
73
76
74
71
71
73
70
74
71
70
71
73
70
70
68
68
68
68
68
71
71
73
73
76
81
81
79
81
81
82
86
84
84
84
86
84
84
86
89
91
94
96
94
94
94
94
94
93
94
96
96
100
101
101
100
100
101
100
100
96
96
96
94
76
73
74
74
71
71
73
74
71
68
67
71
73
70
68
68
67
68
68
71
71
70
71
71
74
78
79
78
79
81
81
81
81
86
84
86
86
87
86
89
91
93
96
96
94
98
96
96
94
93
96
96
96
98
100
101
101
101
98
98
96
94
94
94
76
74
73
73
73
71
73
73
71
73
70
71
76
71
67
68
68
68
70
71
70
68
70
70
71
74
74
76
76
76
79
78
82
81
82
84
86
87
87
89
91
91
93
93
91
94
94
94
94
96
98
100
94
93
96
96
96
98
98
98
96
94
96
98
74
74
71
70
71
74
71
68
70
73
73
70
70
68
68
68
68
70
67
70
68
70
70
70
70
73
74
74
74
74
76
79
81
78
81
82
84
87
87
89
91
87
89
89
91
94
94
93
93
96
96
98
94
94
96
96
94
96
96
98
98
98
96
96
76
74
74
73
74
76
73
70
71
73
71
74
73
70
68
67
67
68
70
70
70
70
68
71
70
70
73
74
74
73
73
74
78
76
81
82
84
86
86
89
89
89
87
87
87
94
96
96
93
94
96
94
98
98
96
98
98
98
98
98
98
98
100
98
76
74
73
71
73
71
73
73
73
74
70
71
71
71
70
68
68
70
71
70
70
70
66
70
71
70
70
68
70
70
70
71
74
76
78
82
82
82
84
87
89
87
89
89
89
94
98
96
94
93
93
96
98
100
100
98
98
98
100
100
98
100
100
101
71
70
73
71
73
71
73
71
71
70
70
71
71
70
71
70
68
68
67
67
66
68
68
68
70
71
71
71
70
71
71
71
73
74
74
78
79
81
86
87
91
89
89
91
89
94
96
96
98
94
93
96
100
101
100
98
98
98
96
100
98
98
98
103
71
70
73
73
73
73
74
71
71
70
71
70
71
68
70
68
71
70
67
67
64
68
68
67
66
68
70
71
71
73
74
73
71
71
74
79
82
84
84
86
87
89
89
89
91
96
94
96
96
98
96
94
96
98
98
96
96
96
96
98
96
94
96
100
73
71
70
70
70
73
73
71
73
74
74
73
70
68
68
71
71
73
68
70
68
70
67
67
66
68
70
71
71
73
73
71
70
70
76
79
84
87
87
86
86
86
87
91
93
94
94
94
96
98
96
93
98
96
93
94
94
98
96
100
96
94
96
98
73
71
67
71
71
71
71
70
74
74
74
71
70
70
71
70
70
70
68
70
68
68
68
67
67
67
70
68
71
74
71
70
70
71
74
78
81
84
86
86
87
89
87
91
89
89
91
91
91
93
93
93
96
96
94
93
96
96
96
98
96
96
96
96
73
70
67
70
73
73
70
70
74
74
71
73
74
73
71
70
68
68
70
70
71
68
66
64
68
68
71
71
73
73
71
71
71
71
74
78
79
81
81
84
86
89
89
87
89
87
84
84
89
93
93
91
93
94
94
93
94
93
94
96
94
94
96
96
71
70
68
70
71
73
71
70
71
73
71
76
76
76
74
71
68
68
70
70
70
70
68
66
68
70
73
74
73
73
74
73
71
71
74
74
76
79
78
79
82
84
86
86
89
91
86
86
89
93
91
94
94
96
96
94
96
93
94
96
94
96
96
94
74
73
71
73
70
71
74
73
71
70
71
76
74
78
76
74
73
71
70
70
70
70
70
68
70
73
74
74
74
74
73
73
73
71
74
76
73
76
78
76
81
82
82
82
87
89
89
87
87
91
91
89
93
94
96
91
94
94
94
96
96
94
94
91
74
73
70
74
73
74
78
74
73
76
76
78
78
79
76
78
78
76
73
71
74
74
71
70
70
74
78
74
74
73
73
74
76
74
74
78
74
74
74
76
78
81
81
82
84
86
86
89
89
89
91
91
91
93
91
89
93
93
94
96
94
94
96
93
76
74
74
74
76
74
76
74
74
78
79
78
76
74
78
81
79
76
74
74
76
73
71
68
68
73
74
71
71
71
71
73
78
79
78
76
74
74
76
76
76
78
79
81
82
84
84
86
87
89
91
91
89
91
89
91
94
94
93
96
96
94
96
96
78
78
78
76
76
78
78
74
74
74
78
79
76
78
79
78
76
76
76
76
73
73
73
68
68
70
70
71
71
71
71
71
76
79
78
74
74
73
76
74
74
74
76
79
82
82
81
82
86
87
87
89
91
89
87
93
93
94
94
98
98
94
93
93
76
78
76
76
73
74
78
76
74
74
78
79
78
79
78
76
76
74
76
76
76
74
74
70
68
68
68
70
71
73
71
73
78
79
79
76
74
74
73
74
74
76
74
76
81
82
81
82
81
86
86
89
91
89
86
89
91
94
96
96
94
93
93
94
79
76
76
79
76
76
78
76
74
78
79
79
79
78
76
74
74
73
73
73
74
73
71
71
70
70
67
70
71
73
73
73
73
76
74
76
76
78
76
74
74
74
73
76
79
81
79
82
81
82
84
84
87
87
87
87
89
91
94
96
94
94
93
94
76
76
76
81
81
78
76
78
76
78
78
79
79
78
74
74
76
76
73
74
73
70
73
74
71
70
70
70
70
71
71
73
74
73
73
74
78
78
78
74
74
76
78
78
76
76
78
78
81
81
84
82
84
86
86
87
91
93
93
94
94
93
93
93
79
79
78
78
76
76
76
78
78
74
74
78
78
79
76
76
76
76
74
78
73
71
70
73
70
71
73
71
68
70
71
73
74
73
74
74
76
76
78
78
74
74
78
79
78
74
74
78
79
81
84
84
86
86
86
87
91
93
93
93
94
93
94
94
79
81
78
76
78
76
78
78
78
74
73
76
76
78
76
74
74
76
76
78
78
73
71
70
71
73
71
73
70
71
73
73
74
74
76
74
78
78
79
78
78
78
76
76
76
76
76
76
79
81
84
87
86
86
84
89
94
94
94
93
96
93
94
93
79
79
81
78
78
76
78
79
76
78
74
78
78
74
74
76
73
74
74
73
73
71
71
71
70
71
70
70
70
73
74
73
73
71
74
76
78
76
79
79
78
76
74
73
73
76
78
74
76
79
82
84
84
82
86
89
94
93
89
91
94
93
91
93
79
81
79
78
76
74
76
78
79
79
76
74
76
73
74
73
71
71
74
73
71
71
71
70
68
68
68
71
71
73
74
73
73
71
71
74
76
79
79
76
78
76
74
76
74
76
76
74
76
79
79
82
82
81
84
87
91
91
89
89
91
89
89
93
79
79
79
78
76
74
78
76
74
74
76
74
74
73
74
73
73
71
74
71
74
71
71
68
67
68
70
70
68
68
71
74
76
73
71
71
76
78
76
74
74
74
73
73
74
74
76
73
73
74
74
76
78
81
84
84
86
89
89
87
87
86
91
93
78
76
74
76
74
74
71
73
76
73
71
73
73
73
73
74
73
73
71
71
71
71
70
68
68
71
71
70
66
66
67
71
74
71
71
68
70
71
73
73
71
73
71
73
73
74
73
76
74
73
70
73
74
76
81
82
82
84
86
87
87
89
91
91
73
74
74
74
73
73
71
71
71
71
70
70
71
70
70
73
73
73
68
70
71
68
68
70
71
68
68
67
64
64
64
66
70
70
70
70
70
68
71
73
71
73
74
73
73
73
70
73
74
73
71
71
74
74
76
79
81
81
81
84
86
86
91
89
73
73
71
71
70
70
71
71
67
71
73
71
71
70
70
71
74
71
67
68
67
68
68
68
68
70
68
67
67
67
66
68
70
68
67
70
68
67
67
68
70
71
73
73
71
71
71
73
73
73
73
71
73
71
74
78
78
78
79
81
84
84
87
89
71
68
70
68
70
71
70
70
71
74
73
73
71
70
68
71
73
70
68
70
68
68
67
70
70
68
68
70
68
68
66
67
67
70
64
64
66
67
68
66
70
73
73
71
71
70
70
71
74
73
73
71
70
70
71
74
76
78
78
79
81
81
86
87
67
68
68
68
70
71
68
68
71
74
71
70
71
68
67
68
71
70
66
67
68
68
67
68
66
67
67
66
66
68
66
67
67
68
67
64
66
67
68
68
68
71
68
70
70
71
70
70
71
71
71
71
70
70
70
71
73
73
74
78
81
84
84
84
66
68
68
68
70
68
67
70
70
71
71
71
71
70
67
66
67
68
64
66
67
67
68
67
67
67
66
63
63
66
66
66
64
66
67
66
67
67
68
67
67
68
67
68
70
71
70
70
68
67
68
70
71
70
70
71
70
70
74
76
79
81
81
82
67
67
68
70
70
68
70
70
67
67
70
71
67
68
67
66
66
68
66
64
67
68
68
68
67
66
64
64
61
64
66
64
64
66
64
63
64
66
63
64
66
67
67
67
70
70
68
68
68
68
67
68
68
68
68
68
68
71
71
73
78
76
79
81
68
66
67
66
68
70
68
67
64
64
70
68
66
64
67
67
68
66
67
64
67
66
67
67
66
61
64
67
63
63
63
61
61
63
63
63
64
66
64
64
67
64
64
63
66
64
66
67
70
68
66
67
68
70
68
68
67
68
67
71
76
78
79
79
66
64
67
66
67
68
64
64
66
60
64
66
66
64
64
67
67
64
67
64
64
64
64
64
63
63
66
67
66
63
61
60
61
63
66
63
61
63
64
64
66
64
66
64
64
63
64
64
68
68
67
67
68
67
67
64
63
67
70
73
73
74
76
78
63
59
61
63
64
66
64
64
64
60
60
63
63
64
66
67
64
63
61
66
64
66
64
63
63
64
66
64
64
63
63
61
63
63
66
64
61
60
64
64
63
63
64
64
64
63
66
64
64
64
66
67
67
68
68
67
64
64
68
70
70
70
70
73
64
61
63
61
60
59
63
67
63
59
60
63
61
61
63
63
60
64
64
66
64
64
66
64
64
63
63
66
63
64
64
63
64
64
64
63
60
59
60
63
63
63
63
61
63
64
63
63
64
61
63
67
66
67
66
67
64
66
68
67
66
67
67
70
64
63
63
61
60
59
63
63
63
61
61
63
63
63
63
63
63
64
66
67
66
64
66
66
67
63
64
64
63
66
66
64
63
64
63
61
59
59
61
63
64
64
64
63
63
64
60
61
64
63
64
68
64
66
66
67
66
67
67
66
63
66
64
67
64
63
64
64
61
61
59
59
61
63
63
61
63
64
61
61
63
63
66
67
64
64
64
64
67
64
64
63
64
64
64
64
64
67
66
63
61
61
63
63
61
63
64
63
61
60
57
61
61
63
64
67
64
64
64
67
68
67
68
64
63
66
66
66
60
60
60
61
64
60
57
60
59
61
63
64
64
64
63
64
66
66
67
68
66
66
64
63
64
66
64
63
64
64
64
66
67
67
66
66
66
64
64
63
60
61
63
63
60
61
60
63
63
66
64
66
66
63
64
67
68
68
66
66
66
66
67
66
59
59
60
61
63
61
59
61
61
64
64
64
64
64
66
68
68
68
71
71
68
66
66
66
66
66
66
66
67
66
64
67
67
66
67
70
68
67
67
67
66
66
66
66
66
66
64
64
66
66
66
66
67
67
67
70
68
70
67
68
66
64
66
67
57
60
61
61
60
60
63
64
64
64
67
68
68
68
67
70
71
71
71
73
71
68
68
67
67
67
66
66
68
66
66
68
70
68
67
68
68
68
70
70
70
68
67
68
70
67
67
67
68
67
67
68
68
68
67
70
70
68
68
71
68
64
64
66
59
61
64
63
63
64
66
67
67
70
70
70
71
71
73
74
76
74
73
74
71
68
70
71
71
68
70
68
68
66
67
68
67
67
68
68
66
66
68
68
68
68
68
68
68
66
68
70
70
68
67
70
68
70
68
67
67
70
71
71
68
68
68
66
63
64
66
66
67
67
68
68
70
73
73
74
73
74
74
74
74
73
73
76
76
74
74
74
73
68
70
70
68
68
70
70
68
67
70
68
70
68
68
68
71
71
70
68
67
68
67
67
68
70
68
70
70
70
70
68
68
71
74
73
68
70
71
71
68
71
71
70
68
68
70
71
73
71
71
76
74
76
74
74
73
71
71
73
76
74
74
74
76
71
68
70
71
74
73
73
73
71
70
71
71
70
71
71
71
70
71
70
70
70
70
67
68
68
66
68
71
71
71
68
68
71
71
71
70
73
74
74
71
71
70
70
70
71
73
74
76
73
74
76
74
73
73
73
74
71
71
71
73
73
76
76
76
74
73
70
71
74
73
74
73
73
71
71
73
73
73
73
73
71
73
73
73
73
70
66
68
70
67
67
71
70
68
68
68
67
67
68
70
71
74
74
70
68
68
68
70
71
71
71
73
74
74
74
71
70
71
73
71
71
71
71
71
73
73
71
73
71
71
70
68
71
70
71
71
71
71
70
68
71
73
71
71
73
74
73
71
70
68
70
71
70
70
67
68
70
70
66
66
68
68
68
70
70
74
76
