P2
# 349 of 608 Angiograms
64 64
255
91
94
94
96
98
103
107
112
114
118
120
120
116
114
114
116
116
112
110
107
107
101
103
105
107
110
112
112
110
105
105
110
114
116
116
120
116
112
103
91
84
76
66
66
70
71
71
71
74
79
86
87
87
91
93
87
84
81
81
82
84
91
94
98
93
94
93
96
98
103
109
112
116
121
121
121
120
114
110
110
112
110
110
109
105
101
105
109
110
110
109
109
107
105
109
114
116
118
120
118
116
114
109
98
86
78
67
61
66
68
71
73
73
78
84
89
91
91
91
87
82
81
78
81
82
89
96
98
93
94
93
96
100
107
110
114
120
121
123
120
120
114
109
109
110
112
110
107
105
103
105
109
109
107
107
107
105
107
110
116
118
118
118
116
116
114
112
105
91
82
73
61
61
68
70
71
73
78
82
87
89
93
91
89
82
81
78
76
82
89
96
94
91
91
94
98
103
110
114
118
121
121
121
120
116
114
109
109
110
112
109
107
107
105
105
105
105
107
107
109
109
110
112
116
118
116
116
116
112
114
110
107
96
86
79
66
59
64
68
68
73
78
81
87
91
91
93
89
84
79
78
78
84
87
94
93
91
93
96
101
105
112
116
120
121
120
118
116
112
110
110
109
110
110
109
109
109
107
107
105
103
105
107
110
112
112
112
114
118
120
118
116
114
114
110
107
100
89
82
71
60
60
67
71
74
78
79
87
93
93
93
91
84
79
81
79
84
87
91
91
89
94
96
101
107
110
114
120
120
116
114
112
114
112
109
105
107
109
109
110
109
107
107
105
101
103
109
114
112
112
112
116
120
118
118
116
114
112
110
109
101
93
84
73
64
59
66
68
71
74
79
86
91
94
94
93
84
79
81
79
81
87
89
89
89
96
98
101
105
109
112
116
116
116
114
110
112
114
110
105
103
110
110
112
110
107
105
101
100
101
109
112
112
112
112
116
120
120
120
118
114
112
109
109
105
94
84
78
70
61
63
68
71
73
78
82
89
93
94
91
84
79
78
78
82
87
87
87
93
96
100
103
107
109
112
116
118
118
116
114
114
112
110
105
101
107
112
110
110
107
103
100
98
101
107
110
109
110
114
116
121
120
120
118
112
110
109
107
105
94
86
81
73
64
61
67
70
71
76
79
86
93
93
91
86
81
78
78
86
87
87
87
94
94
100
105
109
109
112
116
120
120
118
114
112
112
109
105
101
103
109
110
107
107
103
101
101
103
107
110
109
110
114
116
118
120
118
112
109
110
109
107
105
98
89
82
76
68
63
64
67
70
74
76
82
93
93
89
86
81
79
81
87
89
91
91
94
98
101
107
109
109
114
116
120
120
118
116
118
114
107
103
100
101
105
107
109
107
101
101
103
105
107
109
110
110
114
112
116
118
114
110
109
110
109
107
107
100
93
86
79
71
64
61
66
68
73
74
81
89
93
87
84
82
81
81
89
93
93
94
96
100
103
107
110
110
112
118
118
118
114
114
116
114
107
100
100
100
105
109
107
107
105
105
107
109
110
110
109
110
110
110
114
116
112
112
110
109
105
103
105
103
96
87
81
76
67
63
64
68
68
73
78
84
87
84
81
81
79
81
87
94
96
96
96
100
100
103
109
109
110
112
114
116
114
112
114
112
105
101
101
103
107
110
109
107
107
107
107
109
110
109
107
109
107
107
110
114
110
110
107
105
101
101
105
105
98
89
79
78
70
64
64
67
67
70
74
79
82
79
79
81
81
82
87
93
100
98
98
100
100
103
107
109
110
112
112
116
114
112
110
107
101
98
101
103
109
109
109
105
105
107
107
107
109
107
107
109
105
105
109
112
110
109
105
103
101
105
109
107
98
87
79
76
73
66
60
63
66
68
73
76
76
81
79
82
82
82
89
94
100
100
96
98
98
101
105
107
112
114
114
114
112
110
105
100
100
98
100
103
107
107
109
105
105
103
105
107
107
109
110
112
109
109
110
110
107
107
105
103
103
107
109
105
98
89
82
79
74
68
57
59
63
68
71
73
76
78
79
81
82
84
93
96
101
103
94
96
100
103
105
109
114
114
114
110
109
105
100
98
98
101
101
105
107
107
105
105
103
101
103
109
107
107
107
109
107
107
109
107
103
103
103
101
103
107
107
103
98
89
82
79
76
71
60
57
61
66
68
71
73
76
76
79
82
89
96
100
101
105
93
94
98
103
105
109
114
114
112
109
107
101
100
98
98
101
105
105
107
107
103
105
103
103
107
110
107
107
105
105
103
105
107
105
103
100
98
100
101
101
105
103
98
87
81
79
78
73
63
56
59
64
68
68
70
73
79
81
86
94
101
103
105
109
94
96
101
105
107
109
114
114
110
110
103
96
98
101
103
105
109
107
105
105
105
107
107
105
107
110
109
109
107
105
103
105
107
105
101
98
94
96
100
103
105
103
96
87
81
79
81
76
66
56
56
63
70
73
68
68
76
82
91
100
107
109
107
107
94
100
101
107
110
110
114
116
114
112
105
100
100
107
110
110
112
110
109
107
109
105
105
105
107
109
109
107
105
107
107
107
107
105
100
96
94
96
100
101
101
103
96
87
79
78
78
78
68
59
56
61
68
73
70
68
73
79
93
105
112
112
109
109
94
98
101
107
110
112
112
116
116
114
107
103
109
112
114
112
112
110
110
109
109
105
107
107
109
109
109
107
105
105
105
107
107
103
94
94
93
98
100
103
103
101
94
87
79
78
78
74
70
63
57
60
67
71
67
68
73
79
96
109
112
112
110
110
94
96
100
105
107
109
110
114
116
114
110
110
114
118
116
114
110
109
109
109
107
107
107
107
107
107
109
109
109
107
103
105
105
100
94
94
93
96
100
103
101
100
93
86
79
79
79
74
71
66
60
60
66
67
64
68
74
81
96
110
116
112
109
109
91
96
98
105
107
107
109
114
116
116
114
112
114
118
116
116
114
112
110
110
107
107
107
107
107
107
109
107
110
110
107
109
105
101
98
94
94
94
96
98
101
100
94
86
79
79
76
76
74
70
63
60
64
67
67
70
76
82
100
110
114
112
110
109
93
96
100
103
107
109
110
112
116
116
120
114
114
118
120
118
118
114
110
110
110
107
105
103
107
107
105
107
110
112
109
109
105
101
96
93
93
96
98
100
101
101
94
84
81
81
76
76
74
73
67
60
63
68
70
73
76
84
101
110
112
112
109
109
96
98
103
103
103
107
112
114
116
118
121
116
114
116
118
118
120
116
114
110
107
107
109
105
107
107
107
105
109
112
110
109
103
98
96
96
96
96
98
101
100
100
93
84
81
81
78
76
73
74
71
64
63
68
73
76
78
86
100
110
110
110
112
110
96
100
105
105
105
110
112
116
116
116
120
120
116
116
114
116
118
120
118
114
112
112
112
110
109
109
109
107
109
112
109
105
103
100
98
96
96
100
100
100
98
98
93
82
81
79
76
74
76
79
76
68
61
67
73
76
78
86
98
109
110
110
112
112
98
100
103
107
109
112
110
116
116
114
120
120
118
116
114
114
116
116
118
116
116
116
116
112
110
110
110
110
109
110
109
105
100
100
100
96
96
98
98
100
100
96
93
82
78
76
76
76
79
79
79
73
66
64
71
74
76
86
98
107
110
112
114
112
100
101
105
109
110
112
110
112
114
116
118
120
123
120
116
116
116
116
116
118
116
120
121
118
114
112
110
112
112
110
109
103
100
98
98
96
93
96
98
98
96
96
91
84
76
76
74
76
79
81
81
78
67
64
71
78
78
86
94
103
109
110
112
112
100
101
107
109
112
112
110
112
116
116
116
120
121
121
118
116
114
116
118
121
118
120
121
121
116
114
114
114
114
110
107
101
98
98
96
94
93
94
100
98
96
93
91
84
78
76
74
74
74
76
79
79
68
63
70
76
78
84
91
98
107
110
114
112
101
101
107
107
109
110
116
114
116
116
116
118
120
121
118
116
116
118
120
123
121
121
123
121
118
116
116
114
112
109
107
100
100
96
96
96
98
98
98
98
98
98
93
86
81
78
76
74
73
73
76
78
70
63
66
71
76
84
89
94
101
109
114
112
100
101
103
107
107
109
112
112
112
114
114
116
116
118
118
118
120
120
121
125
123
123
125
121
121
120
118
114
112
110
107
103
100
96
96
98
96
96
94
94
94
96
94
87
79
74
76
74
74
76
76
78
71
63
63
67
73
84
89
93
98
105
109
110
101
101
101
103
105
109
109
110
110
112
112
110
112
112
116
118
121
121
120
121
123
125
125
120
121
120
116
114
114
112
110
105
101
100
96
98
98
96
91
96
94
94
93
89
78
74
76
76
76
76
78
78
71
63
59
66
71
84
87
91
94
101
107
107
100
101
101
103
105
109
109
107
107
110
110
112
109
109
114
116
120
123
121
123
121
125
123
121
121
120
116
116
114
114
114
109
103
101
98
96
96
96
94
94
96
94
91
87
79
76
76
78
76
76
81
76
71
63
56
63
73
86
89
91
93
98
105
110
98
98
100
101
103
103
107
107
105
107
109
110
110
112
114
112
116
121
121
121
121
121
123
120
118
116
118
116
114
114
112
112
107
105
101
98
94
91
96
94
96
94
93
89
81
78
78
76
78
79
81
78
71
64
57
61
74
86
89
87
89
94
103
110
98
101
103
101
100
103
105
105
103
107
107
105
110
110
110
109
112
118
123
123
121
120
120
120
118
116
116
116
114
114
114
114
109
107
103
100
100
96
96
98
98
98
94
91
86
81
78
78
79
81
81
78
71
66
61
64
74
84
87
87
87
94
100
110
101
101
100
98
101
103
105
105
103
105
105
107
109
109
109
107
109
114
120
123
121
120
121
120
118
118
116
116
116
116
118
116
109
107
103
101
101
100
96
96
98
98
93
91
89
86
81
79
82
81
79
76
71
68
61
66
78
84
82
86
87
94
100
109
100
100
98
96
98
103
105
101
101
103
105
107
110
107
107
105
109
110
116
120
120
120
121
121
118
118
118
116
116
116
116
112
109
107
103
103
101
101
94
93
96
98
93
91
91
91
86
84
86
84
81
73
70
70
66
66
79
82
82
82
89
94
101
107
101
101
100
98
100
101
103
100
103
103
107
107
107
103
107
109
110
110
112
114
118
120
120
120
121
120
118
118
116
116
112
112
110
107
103
101
100
101
98
96
96
98
94
94
96
96
93
87
86
84
81
73
70
73
67
66
81
87
82
79
89
94
100
105
103
105
101
98
101
100
100
101
105
103
107
105
103
105
107
109
109
109
110
110
114
120
118
120
120
120
121
120
118
116
114
116
112
109
101
98
100
101
100
96
96
98
100
100
100
101
100
94
87
81
79
71
70
68
67
67
81
89
84
76
84
93
96
101
105
105
103
98
100
100
101
105
103
103
105
105
105
107
107
105
105
105
109
109
112
116
118
118
121
121
121
121
120
120
118
114
109
105
100
98
101
101
101
98
100
101
101
103
105
105
105
100
91
81
78
71
68
68
67
68
82
87
86
79
84
91
93
96
110
107
105
101
101
101
101
103
103
105
105
105
109
107
107
105
105
103
105
109
112
114
116
120
121
121
125
123
121
120
116
109
105
105
100
100
101
103
101
100
101
105
105
105
109
107
105
103
93
82
76
68
67
68
68
68
78
89
86
81
82
89
89
93
112
109
105
101
101
101
101
105
107
107
109
107
109
107
107
107
105
103
101
107
110
114
114
118
120
121
123
123
121
118
114
107
107
105
101
98
98
101
103
103
103
107
107
107
107
109
107
105
96
86
78
70
68
68
67
67
74
89
86
82
84
87
89
89
112
110
107
103
103
105
107
107
107
109
110
110
110
109
107
109
109
110
107
105
110
116
118
118
118
120
121
120
120
118
112
107
107
107
100
98
98
103
103
103
103
105
105
107
105
109
107
107
101
89
78
71
73
73
70
67
71
86
87
86
87
89
91
89
114
116
112
109
109
110
110
109
107
109
107
110
110
109
110
112
112
112
110
109
112
118
116
118
120
118
116
116
118
114
110
107
107
107
100
98
100
100
101
101
103
103
103
105
105
105
107
110
107
93
82
74
76
74
73
70
71
84
89
89
91
89
91
89
114
116
114
112
110
114
114
110
110
107
107
109
110
109
110
110
110
110
110
109
112
116
118
118
118
114
114
116
116
112
112
110
109
105
101
98
98
98
98
100
105
103
103
103
101
105
112
114
110
100
84
79
78
74
74
71
71
84
89
93
91
93
93
91
118
116
112
112
112
112
114
114
110
109
107
105
107
109
110
110
112
110
109
107
109
112
114
116
118
116
112
116
116
110
110
109
107
105
103
101
100
96
94
100
101
101
100
103
103
109
114
116
114
103
89
82
79
78
81
78
73
82
91
96
96
93
91
91
118
114
112
110
110
112
114
112
110
109
109
105
109
110
109
112
112
110
105
103
109
110
112
114
114
116
112
114
114
109
110
107
105
105
103
101
100
98
98
100
100
100
101
105
107
110
116
121
118
109
94
86
84
82
82
79
76
84
93
96
100
96
91
89
118
116
114
109
110
112
114
110
112
110
110
109
112
114
112
114
112
109
107
107
109
109
110
112
112
114
116
114
110
112
110
107
105
105
103
101
98
98
100
100
101
101
107
109
109
114
120
123
120
110
100
89
84
82
86
82
78
86
94
98
101
100
94
93
118
118
118
116
114
114
114
112
112
116
112
110
112
114
110
114
112
110
109
107
109
109
109
112
112
110
112
112
114
116
112
107
109
107
103
100
96
98
100
101
103
107
109
112
112
118
121
125
121
112
101
93
84
81
86
84
79
89
98
101
105
105
98
94
118
121
121
121
120
118
116
116
116
118
116
112
114
112
109
109
110
110
110
109
110
110
107
110
109
109
109
110
110
112
107
107
109
105
101
96
94
98
101
103
107
109
110
112
116
120
121
125
121
110
101
93
86
84
86
86
79
87
100
105
109
107
100
94
120
121
123
123
120
120
116
116
116
114
116
116
114
110
110
112
110
110
110
110
110
110
110
109
109
105
103
107
110
109
105
103
103
100
96
94
98
101
103
107
109
109
112
114
118
121
121
121
118
109
101
93
86
84
86
86
79
86
100
107
110
110
103
94
121
125
125
123
121
120
118
114
116
116
118
118
116
112
110
114
114
114
110
109
110
109
105
103
105
103
101
105
107
107
105
101
100
98
96
100
101
103
107
107
107
109
110
112
118
121
121
118
114
105
98
91
86
86
89
87
78
84
98
105
112
114
105
94
121
125
125
125
125
121
120
118
118
120
120
118
118
114
114
116
116
116
112
110
110
107
105
103
101
101
103
100
103
103
100
101
101
101
103
105
105
105
107
109
109
109
109
110
114
120
120
118
110
103
98
93
87
87
89
86
78
84
96
105
114
116
109
98
121
123
125
125
123
121
121
118
116
118
121
121
118
116
118
118
116
114
112
110
109
105
107
103
103
105
103
98
100
101
100
103
105
105
109
109
107
107
110
110
112
109
110
112
112
116
116
114
109
100
98
91
87
91
93
87
78
86
98
105
114
116
114
105
121
123
125
125
123
123
121
120
118
120
121
123
121
118
120
120
118
114
114
112
109
105
107
105
103
105
101
100
101
101
103
107
107
109
114
112
110
110
110
114
114
109
110
114
112
114
114
112
105
100
96
91
87
93
93
87
79
86
100
105
114
120
116
109
118
120
121
123
121
121
121
120
121
123
123
125
123
121
120
120
120
116
114
114
110
107
107
107
105
103
101
103
105
107
107
107
107
110
114
114
114
114
118
116
114
110
110
110
110
112
110
109
101
101
96
89
87
94
93
89
81
86
100
109
116
121
120
110
116
118
118
121
121
121
121
120
120
123
127
125
125
123
121
121
120
118
118
118
112
110
109
107
101
101
101
107
109
107
105
109
109
110
114
116
116
118
118
118
116
114
112
109
109
109
109
107
100
98
94
87
87
94
94
89
81
87
103
112
120
125
121
114
112
114
116
116
114
114
116
118
121
123
127
125
123
123
123
125
123
121
121
118
116
114
114
110
105
101
105
107
107
107
107
109
109
110
112
114
116
116
116
118
118
120
114
109
107
107
107
103
100
98
94
87
89
93
93
87
79
87
105
116
123
125
121
112
112
114
110
114
114
114
114
118
123
127
127
125
123
123
123
125
123
123
121
121
118
118
116
114
110
107
109
105
103
105
109
110
109
112
114
116
114
116
118
118
121
121
118
114
109
107
107
103
98
96
93
89
89
91
91
87
79
89
109
120
123
123
121
116
110
112
112
114
114
114
116
118
121
125
127
127
127
125
123
123
123
125
125
125
123
120
118
116
110
109
109
105
105
105
107
109
110
110
112
112
112
114
116
120
120
120
118
116
112
110
109
103
96
93
89
86
87
89
89
87
79
91
112
123
125
121
120
116
110
114
116
116
116
114
116
120
120
125
125
125
129
127
125
125
125
123
127
129
129
127
125
120
114
110
110
109
105
105
107
110
110
109
109
110
110
114
118
118
121
120
118
116
112
112
109
101
96
91
86
82
87
89
89
87
81
94
116
125
123
121
121
118
112
114
116
114
114
116
116
118
121
123
123
123
123
123
125
125
125
125
131
133
133
133
131
127
120
114
114
112
109
107
109
109
110
110
110
109
110
112
118
120
121
118
116
116
114
114
109
100
93
89
87
84
89
91
89
86
84
101
118
125
125
125
121
120
110
112
114
110
114
118
120
118
118
118
116
118
118
120
123
125
125
129
131
133
134
134
133
129
123
116
116
116
112
110
112
110
110
112
110
109
110
112
116
118
121
118
118
118
118
114
109
96
93
89
84
81
86
91
91
87
86
105
121
127
127
127
125
121
107
109
110
110
112
114
116
116
116
114
112
116
116
116
121
125
127
127
131
134
136
136
134
131
125
118
114
116
114
112
112
112
112
112
109
109
112
114
114
116
118
118
118
116
116
114
107
94
93
87
82
79
84
89
93
87
87
109
125
127
127
127
127
123
109
107
109
109
112
114
114
114
114
116
114
114
112
112
118
121
123
125
129
134
136
136
136
131
125
120
114
112
110
110
112
112
112
112
110
110
114
114
112
114
116
116
116
114
116
112
103
94
91
84
81
82
84
87
89
86
91
112
125
129
131
129
129
127
107
109
110
110
112
109
110
110
110
112
114
112
109
110
114
116
120
121
125
131
134
134
134
131
127
121
116
110
109
109
112
112
112
110
110
110
112
114
112
112
112
112
112
114
112
110
103
94
89
82
81
82
84
87
89
84
93
116
127
131
133
131
129
129
