P2
# 353 of 608 Angiograms
64 64
255
82
81
79
81
82
82
84
84
86
84
82
81
79
81
81
82
79
79
81
84
82
84
82
81
78
76
74
79
78
76
78
76
74
73
74
76
78
78
79
79
81
84
81
78
78
78
78
76
78
78
81
84
82
82
78
76
76
73
68
66
67
67
71
78
81
81
81
82
82
82
84
86
86
84
82
81
82
82
82
84
82
79
81
81
81
84
82
82
78
78
74
78
78
78
79
78
78
74
76
74
76
79
76
79
82
84
81
79
78
78
81
78
78
76
79
84
84
81
82
79
76
73
68
64
67
68
71
73
81
81
82
81
82
81
82
84
86
86
81
81
82
82
82
82
81
79
79
81
84
82
82
82
76
76
78
78
76
79
81
81
81
78
76
74
78
78
76
79
81
81
79
81
78
79
81
78
78
76
78
81
82
84
82
79
79
74
68
66
66
66
73
74
76
81
82
81
82
82
82
84
86
86
82
84
82
81
81
81
81
81
81
81
79
81
82
82
79
78
79
78
78
79
84
82
79
79
74
74
78
79
78
78
76
76
76
82
81
79
79
79
81
81
79
79
79
79
78
79
79
74
68
66
64
66
73
78
78
81
82
84
82
79
84
82
86
86
84
86
82
84
82
81
81
79
79
81
79
82
84
82
81
78
76
79
81
79
79
78
78
81
79
76
78
79
78
78
78
76
78
82
82
81
79
81
82
81
82
81
82
79
76
79
81
76
68
66
66
64
70
76
79
81
84
86
86
82
82
82
84
84
86
82
84
84
82
81
81
78
81
82
81
81
82
81
81
78
76
78
78
78
79
78
79
81
81
76
76
76
79
79
79
79
79
79
82
81
78
79
78
78
79
81
82
82
82
81
81
76
68
67
66
64
68
73
78
79
82
86
86
86
84
84
84
84
82
82
84
81
82
81
79
78
81
84
81
79
78
79
79
79
76
73
73
73
78
78
76
78
79
76
76
79
78
78
79
79
79
79
81
81
78
79
78
79
79
79
81
81
81
81
78
74
71
70
66
64
68
71
79
82
84
84
84
84
82
86
84
82
81
82
86
84
84
82
81
81
84
82
81
79
81
79
78
78
79
76
74
76
79
79
76
78
78
76
78
79
78
78
76
76
76
78
78
78
81
81
79
79
79
82
82
78
79
79
78
76
73
68
67
64
67
71
81
81
81
82
82
84
86
87
84
84
82
81
82
84
82
82
81
84
84
81
82
81
81
81
79
78
79
79
78
76
81
79
79
79
79
76
78
78
79
79
74
79
79
78
76
78
81
79
76
81
82
84
82
79
78
78
79
79
76
70
67
66
67
71
78
81
82
82
84
82
84
86
84
87
84
81
86
87
82
82
82
84
82
81
82
81
84
84
82
78
78
81
81
79
79
82
81
78
78
78
79
78
78
81
78
78
79
81
79
79
81
76
78
81
82
84
81
79
79
79
79
81
76
70
66
64
64
68
78
81
81
81
82
84
84
82
86
87
84
82
84
87
86
84
81
82
81
79
81
84
82
84
81
79
79
81
81
79
76
79
81
81
76
79
81
79
79
81
81
78
79
79
78
79
79
78
76
79
79
79
81
79
79
79
78
81
78
73
68
66
64
67
76
79
79
81
79
82
82
84
86
84
84
84
86
86
86
82
82
84
79
81
82
81
82
81
81
79
81
79
76
79
78
79
82
84
81
79
81
78
79
82
81
79
81
81
78
78
78
74
73
74
79
78
79
81
82
82
81
81
79
76
68
64
64
67
74
78
81
81
82
82
82
84
86
84
81
84
86
84
84
84
84
82
84
81
81
79
82
79
79
79
81
82
78
78
78
78
81
81
82
78
78
79
81
81
81
81
81
82
78
76
74
73
74
78
81
76
79
81
79
81
81
82
82
76
70
67
64
66
78
76
79
81
82
81
82
84
84
82
81
81
79
81
82
86
86
86
82
79
79
79
79
78
79
81
81
79
81
82
79
76
79
81
81
78
79
78
79
79
82
82
82
84
81
78
76
79
78
79
79
79
81
81
81
81
82
81
81
78
71
68
64
64
79
78
81
82
81
79
84
86
82
82
81
84
84
84
81
81
84
86
82
81
79
81
81
79
79
78
79
78
81
79
78
79
79
79
81
81
81
78
79
79
81
81
79
79
81
81
78
76
76
78
78
78
82
82
84
86
84
82
81
78
73
66
66
66
79
79
81
82
82
81
82
86
82
79
81
84
82
82
82
82
84
84
82
81
81
81
78
79
79
79
79
78
79
76
76
79
78
78
79
81
79
79
79
79
81
81
79
79
78
78
79
81
78
76
78
76
78
81
84
86
84
82
84
78
74
64
63
66
81
79
82
82
82
81
81
84
82
79
84
86
86
86
84
84
84
82
82
81
82
82
81
81
84
81
81
79
78
78
79
78
78
79
81
81
81
79
78
79
81
79
76
78
78
74
81
79
79
78
78
78
74
79
84
82
79
78
79
76
74
66
63
64
79
79
82
86
86
86
84
82
82
84
86
84
87
84
84
84
82
79
82
82
84
81
82
79
82
81
78
78
79
79
79
78
78
79
81
81
81
78
79
79
79
78
76
78
74
76
79
81
79
76
78
78
78
79
79
79
79
78
79
78
76
67
64
64
79
81
79
81
86
84
84
84
82
87
84
81
86
84
84
84
82
82
82
84
82
81
82
82
82
79
79
79
82
82
82
79
79
76
79
81
79
78
81
79
79
78
79
78
74
78
76
79
81
78
78
79
79
81
78
79
79
79
78
78
78
67
63
61
81
81
81
81
84
82
82
82
82
84
84
84
86
84
81
81
81
79
81
81
81
79
82
84
84
81
79
81
82
81
84
81
78
76
79
81
79
76
81
81
78
76
76
73
74
76
76
78
81
79
79
81
79
79
78
79
81
81
78
79
78
68
64
61
81
81
82
82
84
82
81
81
81
82
84
86
84
84
84
82
82
84
82
81
82
81
81
82
82
79
81
81
81
84
82
78
79
78
79
79
79
81
81
78
78
78
78
76
78
79
76
76
78
81
81
81
79
78
78
78
81
79
78
81
76
70
67
64
81
82
82
82
81
81
81
82
81
81
81
82
84
82
84
84
82
82
82
84
84
82
82
82
84
84
82
79
81
82
81
79
81
78
76
78
81
81
79
79
79
79
81
79
76
78
74
74
74
78
82
81
79
76
78
74
76
76
76
79
76
70
67
63
81
81
81
82
81
81
81
81
82
82
79
81
84
84
84
86
82
84
84
82
81
82
79
79
81
81
81
78
81
82
81
81
82
81
81
81
79
78
78
79
78
78
78
76
76
74
76
76
78
78
79
81
78
76
76
74
78
79
76
79
78
71
67
63
79
82
82
82
82
79
81
81
82
84
82
81
82
84
84
84
84
84
86
84
81
79
82
82
82
79
79
81
82
81
79
82
84
81
81
82
79
78
78
78
76
74
78
78
78
76
79
79
78
81
78
78
81
81
78
78
76
76
76
79
78
73
67
64
76
82
84
84
82
79
81
79
82
84
81
81
81
81
82
82
82
82
84
84
81
81
86
84
82
78
79
81
82
81
81
82
84
81
76
78
76
78
78
78
78
74
78
79
78
78
79
78
79
81
76
78
81
74
71
73
76
76
78
76
78
74
68
68
81
81
81
81
81
82
82
81
81
84
82
82
81
82
82
81
82
86
86
86
82
82
82
82
82
79
78
81
82
81
81
81
82
79
78
78
79
78
79
81
78
76
78
79
78
79
78
76
78
79
74
79
78
76
74
74
78
79
79
76
76
76
70
68
81
81
79
81
82
81
82
82
81
81
81
82
81
81
82
84
86
86
84
86
84
82
81
81
81
79
79
81
79
79
82
82
82
79
79
81
79
74
78
78
78
78
78
79
76
76
76
76
74
78
76
78
79
78
76
76
76
79
78
76
73
76
73
67
81
82
81
84
82
82
84
86
84
82
82
82
82
82
84
84
86
84
86
86
82
81
79
81
79
79
79
81
82
81
84
82
79
78
78
79
78
73
74
74
78
82
81
78
78
76
78
78
74
74
73
78
79
74
76
81
79
78
79
81
78
76
73
68
79
81
82
82
82
82
84
87
87
86
84
84
84
84
86
86
84
82
82
82
81
79
78
81
79
81
81
82
82
84
84
82
78
76
78
79
78
74
74
76
79
82
82
81
79
78
76
76
74
74
74
78
78
76
76
78
76
79
81
81
79
73
68
63
81
81
84
84
82
84
84
84
86
84
82
81
82
84
87
86
82
84
82
81
84
82
79
79
81
82
79
81
82
84
84
82
84
81
81
81
79
78
81
82
81
79
79
81
79
76
73
74
74
78
78
76
78
79
76
78
79
81
82
82
78
71
63
55
79
82
84
86
84
82
81
82
84
86
82
82
84
81
82
84
84
84
84
82
82
79
78
81
81
79
78
81
86
86
81
81
82
82
78
76
78
79
82
82
81
79
78
78
79
76
76
76
76
78
78
78
78
76
78
76
78
78
79
78
78
70
57
49
81
82
82
86
86
86
82
81
82
84
82
86
84
82
84
84
84
84
82
84
81
81
81
82
82
82
79
82
86
86
82
81
78
79
76
78
79
81
81
81
79
79
79
78
78
79
76
74
74
78
76
76
78
78
76
78
78
78
76
78
79
70
56
45
79
81
82
84
82
82
82
78
81
82
86
86
86
84
82
82
82
82
81
84
87
84
84
86
86
82
81
82
82
82
82
82
79
79
81
81
82
81
81
81
81
81
84
79
78
78
74
73
71
71
74
76
78
76
79
81
78
79
76
76
78
70
59
48
81
84
82
84
82
81
78
78
81
84
84
86
84
84
84
84
82
81
82
86
82
81
82
84
82
82
81
81
79
81
81
82
82
84
81
79
79
79
79
79
78
78
79
79
76
76
73
73
71
71
73
76
76
74
78
81
76
78
78
76
76
73
63
50
84
84
82
82
81
82
82
82
79
81
84
84
82
86
87
84
82
82
84
84
81
81
81
81
81
81
81
81
82
86
86
82
82
82
82
82
81
78
78
76
74
73
76
78
76
78
76
74
73
74
76
78
78
79
81
81
76
76
76
78
78
74
66
52
82
86
84
82
82
82
79
81
79
79
81
81
82
84
86
84
82
82
84
84
81
79
82
82
81
81
81
82
82
82
82
81
79
82
84
84
82
81
78
76
74
74
76
78
78
76
76
79
79
78
79
79
79
81
79
76
78
78
78
79
78
74
70
57
81
82
82
81
81
81
82
84
82
81
79
82
82
84
84
84
82
82
84
84
82
79
81
82
81
81
82
79
78
81
84
82
81
78
82
79
81
81
81
78
78
79
79
74
76
79
78
76
81
79
82
79
79
79
78
76
78
78
76
76
76
76
71
60
82
82
81
84
84
82
82
81
81
79
79
81
84
86
82
84
84
82
81
82
81
81
79
79
81
82
82
81
79
82
82
81
81
78
81
81
78
79
81
79
79
81
78
76
78
79
79
78
79
79
81
78
79
79
78
78
76
78
78
78
76
78
73
67
79
79
79
82
82
79
79
81
79
79
81
82
86
87
84
84
82
78
78
81
79
81
81
81
81
81
81
79
81
81
81
81
82
81
79
79
78
79
81
81
78
78
76
81
81
78
79
81
79
79
76
79
78
76
78
79
79
78
79
78
78
78
74
71
79
78
79
78
79
79
79
81
79
82
79
82
84
84
82
84
84
81
82
84
82
82
82
82
82
81
82
79
79
81
79
81
79
79
79
78
78
78
79
79
78
78
78
79
81
78
79
79
78
76
73
78
76
74
78
78
79
76
78
76
78
81
78
76
81
81
79
78
81
79
79
79
81
82
81
84
84
82
79
81
86
86
82
82
82
84
81
82
81
81
82
81
79
79
78
76
76
78
81
79
81
78
79
81
79
76
78
81
78
76
76
78
78
76
74
78
78
78
79
79
78
76
76
76
74
76
78
81
79
79
79
79
79
81
82
79
79
82
82
84
84
82
82
84
86
84
82
81
81
82
79
82
79
82
81
81
78
78
78
76
76
78
81
81
79
78
79
78
78
74
76
79
78
76
76
78
78
76
74
76
76
76
78
74
74
78
76
76
76
76
76
78
82
82
82
81
82
79
79
81
78
79
81
81
82
82
84
86
84
82
82
81
81
79
79
82
81
81
81
81
78
79
78
78
79
79
81
81
79
79
79
76
78
76
79
81
79
79
79
78
78
78
78
78
76
74
74
74
73
78
74
76
76
74
76
76
81
81
82
84
82
82
78
78
81
79
81
84
84
84
84
84
84
82
82
82
81
79
79
82
82
81
81
79
81
78
76
76
78
79
79
81
81
81
79
78
79
79
79
81
81
79
78
76
78
78
79
79
78
76
76
76
73
76
78
76
76
76
78
76
82
81
81
82
82
84
82
81
82
81
82
84
84
84
82
82
86
84
84
82
78
79
79
79
79
78
79
78
76
78
74
76
76
79
79
79
78
76
79
79
79
81
79
81
82
81
79
76
78
79
79
76
78
79
76
76
76
74
79
78
76
76
76
74
81
79
79
82
84
87
84
82
81
82
82
87
86
82
81
82
82
82
84
82
82
81
79
81
79
78
78
79
74
76
81
78
78
79
79
79
78
76
76
79
81
79
79
81
79
78
78
78
78
76
78
76
78
78
78
79
78
78
76
76
78
78
76
76
82
82
81
82
84
84
84
81
79
81
84
86
89
84
82
84
81
81
82
82
84
82
79
84
82
81
79
78
76
78
81
81
78
78
78
79
81
81
78
78
79
79
79
81
79
78
76
78
78
74
76
76
79
79
78
78
78
78
76
76
81
78
76
78
81
82
79
81
81
81
82
81
79
82
82
84
87
86
84
82
79
78
81
82
79
78
79
81
78
78
78
79
79
81
82
81
79
78
79
82
84
82
76
79
81
79
81
79
78
79
76
78
78
74
78
78
79
79
78
78
76
73
73
76
79
76
74
76
82
79
79
81
81
79
82
79
81
84
82
82
86
86
82
79
81
82
81
82
79
76
79
78
74
76
76
79
82
81
79
79
79
74
78
81
84
82
79
81
82
84
79
79
79
78
76
78
79
79
79
79
78
78
78
76
78
74
74
73
74
74
76
74
81
79
79
82
81
81
82
81
82
84
82
84
84
84
81
79
82
81
82
84
79
78
76
78
79
79
78
81
82
82
78
76
76
78
76
81
84
81
81
79
79
81
81
82
82
81
78
76
76
78
78
76
78
78
78
74
78
78
73
74
74
76
78
79
79
81
79
82
82
81
81
81
82
82
84
82
84
84
82
81
79
81
82
82
79
78
76
76
79
79
78
79
81
79
81
79
76
78
79
78
81
81
82
81
79
81
81
79
81
81
76
76
76
74
76
78
79
79
78
78
78
74
71
76
76
76
78
78
82
82
81
81
79
79
79
82
84
81
82
82
84
84
84
79
78
81
81
81
82
82
79
79
79
81
78
79
79
82
81
79
78
78
81
78
81
81
82
82
82
81
82
81
81
78
76
78
78
76
74
74
79
78
74
78
78
73
74
78
78
76
76
74
81
82
81
79
78
84
81
84
84
82
82
84
86
86
82
81
76
79
81
84
81
79
81
82
81
79
78
78
78
78
79
79
76
78
82
82
79
81
81
81
81
81
82
81
79
78
76
78
79
78
78
76
76
76
73
78
78
76
76
74
74
74
76
76
79
81
79
79
81
81
81
82
84
82
82
84
84
81
82
81
79
81
81
81
79
79
81
81
82
79
79
82
78
76
78
81
78
76
81
81
81
82
82
81
81
81
82
81
81
81
78
78
79
78
78
79
76
76
73
74
79
76
74
74
74
76
78
78
79
82
81
81
82
84
82
81
84
82
82
84
84
81
82
81
81
81
82
84
81
81
82
82
81
79
81
82
81
78
79
81
79
78
78
76
81
81
79
81
79
81
81
81
81
81
78
78
78
78
79
78
78
74
71
76
78
76
73
73
71
73
71
76
79
81
81
79
84
86
82
82
84
82
84
86
84
84
82
81
82
82
86
86
81
79
81
81
81
81
81
81
82
81
79
81
78
79
79
78
81
79
76
76
78
81
81
79
78
81
79
78
76
78
81
78
76
76
74
73
74
73
71
74
74
76
76
78
81
81
78
78
81
81
81
81
81
81
82
84
86
84
82
82
84
84
87
82
79
79
79
81
81
79
79
78
79
79
79
79
78
79
79
79
81
81
76
74
78
78
79
78
78
79
81
76
74
78
82
81
78
78
79
73
73
73
73
74
76
79
79
76
81
79
78
78
81
81
82
82
81
84
81
84
86
84
86
84
84
84
81
82
81
79
78
81
79
79
78
79
81
79
81
81
81
78
78
79
81
81
82
76
78
79
81
76
78
76
76
74
76
76
79
79
78
76
78
76
76
76
74
74
74
78
76
76
79
79
78
81
81
82
82
81
82
82
81
81
84
84
87
86
84
82
81
81
81
79
79
79
82
82
79
76
78
79
79
78
81
79
78
78
81
76
78
79
76
79
79
78
78
74
76
78
76
76
78
78
79
76
74
76
74
74
76
74
74
78
74
76
81
79
79
81
84
86
79
79
82
81
82
82
84
86
87
82
82
84
82
79
79
79
78
78
81
81
79
76
79
78
79
79
78
79
74
78
78
76
79
78
78
79
81
81
78
78
79
79
78
78
78
79
79
74
74
74
74
74
76
76
74
76
76
78
81
79
79
79
82
82
79
81
79
82
82
84
86
87
86
86
86
87
81
79
81
79
78
78
81
81
79
76
78
78
81
81
79
79
74
76
78
79
79
78
79
79
81
82
79
79
81
81
79
78
79
79
79
76
76
74
71
74
74
74
74
74
76
76
81
81
79
78
79
79
79
81
79
81
82
84
86
84
86
87
86
84
82
84
79
79
79
78
78
78
79
76
78
81
81
81
81
79
76
78
79
78
78
79
76
76
79
82
81
79
81
81
79
81
81
81
78
76
74
73
74
74
71
71
73
74
78
78
81
79
76
78
79
79
81
81
81
82
86
86
84
84
86
86
84
82
86
82
79
79
78
79
76
74
78
79
78
79
81
79
79
79
78
78
79
79
76
76
76
74
76
78
81
79
81
81
81
81
78
79
78
78
76
74
76
76
74
73
74
74
78
78
79
81
76
78
81
81
78
78
81
81
82
84
84
86
84
84
82
82
84
82
82
81
79
79
78
76
76
79
81
78
79
79
79
78
74
78
79
78
78
78
76
76
76
76
78
81
81
82
82
78
76
76
79
79
79
78
74
74
76
74
76
78
78
76
