P2
# 357 of 608 Angiograms
64 64
255
100
100
98
98
98
96
94
96
98
96
100
100
100
100
100
98
91
78
73
73
71
78
81
84
84
78
73
74
76
76
74
76
76
70
70
70
71
73
78
81
82
87
87
91
93
93
91
87
87
86
84
81
79
79
78
76
76
78
78
79
79
78
79
79
100
101
101
101
101
98
96
98
96
98
100
100
100
103
101
94
86
73
70
70
71
78
82
86
86
84
79
79
78
78
74
76
74
71
70
68
67
68
73
74
79
84
87
94
96
93
93
87
86
86
82
79
78
78
78
76
76
76
76
78
78
79
79
78
101
107
105
101
100
98
96
98
103
105
105
103
101
101
101
93
79
70
71
70
71
78
84
89
91
89
84
81
81
79
79
74
74
73
71
68
67
68
70
73
76
81
86
91
93
91
94
91
87
84
82
79
73
73
74
76
79
78
74
76
76
76
78
81
103
109
103
103
101
101
98
100
105
105
107
105
101
101
100
91
76
70
71
68
70
81
89
93
94
91
86
84
84
79
79
76
74
74
73
71
71
68
70
71
76
81
84
86
89
93
93
93
86
84
81
78
76
76
76
78
76
76
74
76
76
76
79
82
103
105
103
103
101
101
98
100
103
103
105
101
100
98
94
89
74
70
70
67
74
86
94
94
94
89
86
84
84
81
78
76
74
76
74
73
67
67
68
70
73
78
82
84
87
89
87
87
86
86
82
78
74
76
74
73
74
73
71
71
76
78
81
82
101
100
101
101
103
100
100
100
101
101
101
101
98
96
93
87
73
70
70
70
78
91
96
96
94
89
86
84
84
79
81
76
74
73
74
71
70
70
71
73
71
74
81
82
87
86
84
84
84
84
81
79
76
78
74
70
68
70
70
71
76
79
81
78
101
100
100
100
100
100
101
101
101
101
98
98
98
94
93
87
74
71
71
74
82
93
96
94
94
91
89
86
84
79
78
78
74
74
73
70
73
70
71
71
71
74
79
84
86
81
81
79
79
82
82
81
79
78
74
71
70
70
71
73
76
81
81
78
101
98
98
98
98
101
98
94
98
100
98
94
96
94
91
84
78
76
74
78
86
94
98
94
94
93
87
86
84
79
79
78
76
76
73
71
71
71
71
70
70
74
81
84
81
81
84
81
79
78
81
81
81
76
73
73
71
71
76
74
76
81
81
78
101
96
96
96
96
96
96
93
98
98
98
96
94
91
87
81
78
79
76
78
86
96
98
96
94
91
86
84
82
78
81
78
76
74
73
71
73
73
73
71
73
76
81
84
82
82
82
82
82
79
79
81
81
76
74
74
76
78
78
76
79
82
81
78
100
96
94
94
94
94
94
96
101
101
98
96
91
87
86
78
78
79
79
78
86
94
96
96
94
91
86
82
82
81
79
79
78
74
76
73
73
74
74
74
76
78
81
84
82
78
81
82
82
81
76
76
78
74
76
78
79
81
79
78
81
79
79
78
101
100
96
94
94
94
96
98
98
100
98
91
89
89
84
76
73
76
81
79
86
94
94
93
93
89
84
81
79
81
79
81
79
78
78
76
76
78
76
74
78
81
81
84
86
82
79
79
78
79
74
76
73
71
73
76
78
79
78
76
76
78
78
78
103
101
100
98
98
98
100
100
98
98
94
87
87
86
82
76
73
74
79
82
89
96
98
94
91
89
84
81
81
81
84
86
82
79
78
76
76
79
76
76
76
81
81
84
86
86
82
81
81
79
78
74
71
68
70
71
76
76
78
76
78
76
74
73
105
103
100
98
96
101
101
98
96
94
93
87
87
82
79
76
74
76
76
84
93
100
100
96
91
87
82
79
81
82
84
86
84
84
81
78
76
79
78
76
73
79
82
84
84
82
82
79
79
81
76
73
71
68
68
70
71
74
79
79
76
74
71
73
109
107
101
98
98
100
101
98
94
91
93
91
89
81
78
74
76
74
76
86
96
98
96
96
93
86
79
76
79
82
86
84
84
86
82
78
76
78
78
78
76
79
82
82
82
79
78
76
76
79
78
73
71
70
70
70
70
71
76
76
73
73
73
76
110
105
100
98
98
100
100
96
94
89
89
93
91
86
79
73
76
78
76
86
98
98
96
94
91
86
76
74
79
86
87
87
84
84
81
79
76
78
74
74
78
78
81
82
82
82
79
78
78
79
78
74
71
71
71
71
70
68
70
71
71
73
74
78
110
105
101
96
96
98
96
94
93
87
89
94
93
87
78
73
74
76
76
89
94
94
93
94
93
87
79
76
81
87
86
84
82
82
81
76
73
76
76
74
74
78
82
84
84
84
81
81
81
81
78
74
71
70
68
71
71
71
70
68
70
70
71
73
109
103
103
100
100
98
96
94
89
86
91
94
94
86
76
71
71
73
78
87
91
91
93
96
93
87
82
81
82
84
82
82
84
82
81
78
76
76
74
74
74
78
82
86
84
84
84
84
84
81
78
74
73
71
73
73
74
73
70
68
71
70
71
73
107
103
103
101
100
98
94
91
89
86
89
91
91
82
73
71
71
71
78
87
93
93
94
93
93
87
82
79
82
84
84
81
82
79
76
76
78
78
79
78
78
76
82
84
86
86
86
84
82
79
79
78
74
76
74
73
73
73
71
70
70
68
71
73
109
105
101
98
98
98
94
91
91
91
89
89
87
79
68
70
68
71
81
91
94
96
98
96
91
84
82
81
82
82
84
82
81
79
74
76
76
76
79
78
78
76
81
82
86
86
86
84
82
81
81
79
76
76
74
74
74
74
71
70
70
71
73
74
105
101
100
100
101
96
94
94
91
93
93
87
86
76
68
67
68
73
82
94
94
96
98
96
93
89
86
86
82
81
81
82
79
79
74
74
76
78
81
78
78
78
81
82
84
86
84
84
82
82
79
79
76
74
76
79
78
76
73
73
73
73
74
74
103
101
100
98
100
98
96
94
93
91
91
87
86
74
68
70
70
76
86
94
96
96
96
96
94
91
89
87
84
84
84
82
82
79
76
73
76
78
76
76
78
81
82
84
84
84
84
84
81
82
81
81
78
78
78
79
76
76
74
74
74
74
74
76
100
98
100
100
100
96
94
93
94
91
89
89
86
76
71
71
73
76
87
94
94
94
96
98
96
93
89
89
87
87
87
84
81
81
78
76
74
74
76
78
79
82
81
84
86
84
84
82
82
82
79
78
76
76
78
78
76
73
74
76
76
76
76
76
101
100
100
98
98
96
93
93
93
93
91
91
86
78
74
74
73
79
87
93
94
94
96
96
96
91
91
89
87
91
86
84
82
79
76
79
79
79
79
84
82
79
82
84
86
86
86
81
79
79
76
78
78
78
74
74
74
74
76
78
74
74
74
73
101
103
101
96
96
96
96
96
96
94
93
93
87
81
78
76
76
79
87
93
93
93
94
94
93
91
89
89
89
91
87
86
82
81
79
82
82
81
79
84
84
81
79
82
81
79
82
81
82
82
78
81
79
79
74
73
73
73
71
73
71
73
74
73
103
101
100
96
98
100
98
98
100
100
98
94
89
81
78
78
78
79
87
91
91
93
91
89
89
89
89
91
93
91
91
87
86
82
81
84
82
82
82
84
84
84
79
81
79
78
79
79
79
81
79
76
76
76
73
73
74
70
67
66
67
68
73
73
100
101
98
98
98
101
100
100
100
100
101
100
91
82
79
79
76
81
89
89
91
93
91
89
89
86
86
93
94
93
93
91
87
84
82
81
82
82
84
86
84
84
82
82
79
79
79
81
81
78
76
73
73
74
73
73
74
70
66
64
67
68
70
70
103
101
98
96
100
100
101
100
101
101
105
103
91
82
82
78
78
84
91
93
91
93
91
91
86
84
87
91
91
93
96
94
89
86
82
82
82
86
87
84
81
82
82
81
79
79
81
81
79
78
76
76
73
76
76
73
74
70
66
63
67
67
66
67
101
101
98
96
98
100
100
98
103
105
109
103
91
86
82
76
76
84
91
93
91
91
87
86
81
82
87
89
91
91
94
93
89
87
84
81
84
89
87
82
82
82
81
81
81
79
79
81
81
79
76
74
74
73
74
73
73
68
63
61
66
66
66
67
100
100
96
98
98
100
98
100
103
105
109
101
93
89
86
78
76
86
91
89
87
89
87
84
79
82
84
89
91
91
93
93
91
87
87
84
87
93
89
84
82
84
79
78
79
78
81
82
82
79
74
74
73
73
73
74
71
68
64
64
63
64
66
66
101
98
100
98
100
98
94
96
100
103
105
101
93
91
87
81
82
89
93
89
87
87
86
84
81
86
87
91
94
94
93
93
93
87
89
87
87
91
89
82
82
82
78
78
79
79
82
79
81
79
74
74
71
70
68
68
71
68
67
64
59
61
63
63
101
96
100
100
100
101
98
98
103
105
107
101
94
93
86
82
84
91
94
93
89
84
82
86
87
89
87
89
94
93
93
93
93
86
86
87
86
91
91
87
84
82
79
81
79
81
82
78
81
81
76
73
71
71
68
71
70
66
64
63
60
60
63
63
100
98
98
101
101
103
101
103
103
101
105
101
94
91
84
82
86
91
94
91
86
81
81
82
86
87
89
91
91
93
93
94
91
86
89
89
89
91
89
87
86
84
81
84
81
81
81
78
76
79
78
74
73
73
71
71
68
67
68
63
60
61
61
64
98
101
100
101
105
107
103
105
107
103
101
100
91
89
82
81
87
91
91
89
82
79
81
84
86
89
87
91
91
89
87
91
89
86
89
91
91
89
89
89
87
86
84
84
82
81
82
78
76
78
78
74
73
68
71
71
68
68
68
67
64
64
63
63
96
100
101
101
103
107
105
107
109
109
107
100
89
84
81
82
91
93
89
86
81
79
81
82
86
87
87
91
89
87
86
87
87
86
87
91
93
93
93
93
89
86
87
86
86
84
81
79
76
79
78
73
71
70
70
70
71
71
70
67
66
64
61
64
96
98
98
98
101
103
103
107
109
109
107
98
87
82
82
82
89
94
89
87
82
79
79
82
87
89
87
89
86
87
89
91
87
87
86
91
94
94
96
94
91
87
89
86
87
84
81
81
78
81
79
74
74
71
68
71
71
71
71
67
68
67
64
68
96
93
94
98
100
101
103
107
110
109
103
96
87
82
82
84
91
94
91
87
84
84
82
82
87
87
89
87
86
91
94
94
93
87
84
93
94
94
96
94
93
89
87
86
86
84
82
82
79
79
79
79
78
76
71
73
71
71
71
67
64
67
68
71
96
96
96
100
100
101
101
107
109
107
103
94
87
84
81
86
91
93
87
84
84
82
79
82
87
86
86
87
87
91
93
94
91
87
87
91
93
93
94
94
94
91
87
89
86
87
87
87
81
78
79
81
79
78
74
73
74
74
71
68
68
70
71
73
100
100
100
100
101
101
103
109
105
107
101
93
86
82
81
87
91
89
84
81
81
82
79
82
84
84
82
82
86
89
94
94
89
86
89
93
94
94
94
94
94
93
93
93
91
87
87
87
84
81
82
82
79
78
74
74
76
76
71
73
71
73
71
71
101
98
96
101
101
105
103
105
107
107
100
89
84
81
82
89
91
86
86
81
81
79
78
81
82
82
81
82
82
86
89
91
86
86
89
93
94
94
94
93
93
91
91
93
94
89
87
86
86
84
86
82
78
78
78
76
76
73
71
73
78
74
71
71
103
98
98
101
101
105
109
107
107
107
98
87
81
78
81
89
87
86
86
84
81
79
81
82
81
81
82
82
84
86
87
86
86
87
87
91
94
96
94
91
89
89
89
91
94
91
89
84
82
84
87
84
81
81
79
78
76
73
73
71
76
74
70
68
103
101
100
100
101
107
107
107
107
105
94
86
81
81
84
89
87
86
86
86
81
79
82
81
81
81
81
84
84
86
84
82
82
86
87
91
93
94
96
93
91
87
86
91
93
91
91
84
81
84
87
86
84
82
78
76
76
76
74
73
76
73
68
67
107
103
103
101
103
105
101
101
103
100
91
86
86
84
86
87
87
87
86
84
82
81
81
82
81
79
81
84
89
84
81
79
81
86
87
94
94
94
94
93
89
87
89
91
91
91
89
86
86
89
86
84
84
84
81
78
76
76
76
74
76
71
67
66
107
109
109
105
105
103
101
101
101
98
86
82
84
87
87
89
91
91
89
84
81
79
78
82
78
78
79
84
89
86
81
81
82
87
87
94
98
96
94
94
89
89
89
89
91
87
87
87
87
87
86
82
82
81
79
79
78
76
74
74
78
73
68
68
105
107
109
107
107
103
100
101
101
94
82
82
84
86
91
93
93
93
91
86
81
81
81
82
78
78
81
81
82
84
82
82
86
87
91
94
98
96
94
94
91
89
84
84
86
89
86
84
86
84
84
81
79
78
79
76
78
78
76
76
79
78
74
73
105
107
107
107
105
103
101
103
101
91
79
81
81
82
93
96
98
94
91
87
81
84
81
79
76
76
79
81
82
82
81
84
89
91
89
93
93
93
93
93
93
89
87
86
86
87
86
82
81
79
79
78
79
79
78
76
78
78
79
78
81
79
78
74
107
107
107
107
105
105
107
103
98
87
79
81
81
82
89
94
98
94
91
87
82
82
79
79
76
76
78
78
79
82
86
89
93
94
93
89
87
87
91
91
91
91
91
91
91
87
82
81
81
79
79
79
79
78
76
76
78
81
82
81
81
79
79
78
109
110
109
107
105
105
107
105
96
87
81
84
82
82
87
93
94
93
89
86
89
84
79
78
78
79
79
79
79
82
87
89
93
93
91
89
86
89
93
91
87
93
94
87
89
86
81
81
81
79
76
79
79
78
76
76
78
79
81
82
82
79
82
81
112
110
109
107
107
107
107
105
96
87
82
82
82
84
86
91
91
91
89
86
86
79
78
79
79
82
81
79
81
84
84
87
93
93
89
87
87
89
93
93
89
89
93
87
89
86
79
81
82
81
79
76
79
78
76
78
78
79
81
79
82
79
79
79
110
107
107
109
110
110
110
107
96
87
82
82
82
87
89
91
87
87
86
87
81
78
79
81
82
82
79
79
79
82
84
89
94
93
93
89
89
89
89
93
89
84
86
87
87
84
81
82
81
81
79
78
76
74
74
78
78
78
79
82
79
79
81
78
110
109
107
109
112
112
112
109
96
87
86
84
87
91
93
89
87
86
87
87
82
79
81
82
84
81
79
79
81
84
89
93
94
93
94
93
91
89
91
91
87
87
87
87
89
84
81
81
81
82
81
81
81
78
76
78
78
76
78
79
76
78
76
76
107
109
110
110
114
116
112
105
94
87
87
86
87
93
94
91
89
86
84
87
84
82
84
86
82
79
81
86
87
91
93
93
94
91
89
89
93
93
91
89
89
87
89
91
89
86
84
86
84
86
84
86
86
81
78
78
76
78
78
76
76
78
78
76
105
109
112
112
112
112
109
101
91
87
87
84
86
91
94
94
91
87
84
86
87
89
87
86
82
81
82
87
89
93
93
93
93
91
89
87
91
93
93
89
89
89
87
89
89
87
87
87
87
87
87
89
87
82
82
79
79
81
79
78
78
76
76
76
109
112
114
114
110
110
107
98
89
86
86
82
86
93
96
98
96
93
87
87
89
89
89
87
86
86
89
91
89
93
94
96
96
91
89
89
89
89
91
86
86
89
91
91
87
87
89
89
91
93
89
87
86
84
84
79
79
79
81
81
78
78
76
78
109
110
114
112
110
107
103
94
87
82
82
82
86
94
100
101
98
96
94
93
93
91
91
89
89
87
89
93
94
96
96
98
96
93
94
94
94
93
87
86
86
89
91
89
89
89
91
89
91
91
89
91
87
86
84
82
81
79
81
81
79
82
81
78
107
109
107
107
107
105
100
93
87
86
82
82
87
94
100
103
101
100
101
98
96
93
91
89
91
87
91
94
98
100
101
101
98
96
98
100
100
96
91
91
89
89
89
89
87
89
93
93
94
93
93
89
86
84
81
81
79
79
81
81
81
79
79
76
107
109
107
107
105
103
98
93
87
89
86
86
91
96
101
101
103
101
103
101
96
94
94
93
93
91
93
96
98
100
100
98
98
100
100
103
103
98
94
89
87
89
93
91
87
89
93
93
91
87
89
86
82
81
79
78
78
81
82
81
82
81
79
76
107
110
110
107
103
100
96
91
89
89
89
89
94
98
100
103
103
105
107
105
96
94
96
96
94
93
93
93
96
98
100
100
100
100
100
101
103
98
96
91
86
89
89
89
91
91
89
91
91
89
87
82
79
79
79
81
79
82
79
79
78
79
82
79
107
107
109
103
100
98
96
89
87
89
91
93
96
96
100
103
105
107
107
103
100
98
96
93
93
93
93
94
96
98
100
101
101
100
100
101
100
94
93
89
84
86
87
91
93
91
86
87
87
86
84
79
78
81
79
81
82
84
79
78
76
81
82
82
107
109
107
103
98
98
96
89
89
89
91
96
100
101
98
98
101
107
109
105
103
100
96
94
91
91
94
96
96
96
98
103
101
100
98
100
98
94
89
87
84
84
87
89
91
86
84
84
87
87
87
84
79
82
82
84
86
84
84
82
82
82
84
82
105
109
107
103
100
98
96
89
87
87
91
96
105
105
103
101
98
101
105
109
105
101
96
91
91
93
98
98
96
96
96
100
100
100
100
96
96
94
89
87
86
84
86
91
89
86
86
89
91
89
89
86
82
84
84
84
86
86
86
86
87
87
87
86
107
107
109
105
101
100
96
89
87
89
89
98
105
105
101
100
100
103
103
107
105
103
98
93
94
98
98
96
98
96
94
98
98
101
101
100
98
96
91
84
82
81
84
87
86
89
91
91
91
89
89
87
86
86
87
84
84
86
87
89
87
86
87
87
105
103
109
105
103
103
98
87
86
86
89
96
101
103
103
103
103
101
101
103
105
101
100
96
98
101
100
98
96
94
96
98
98
100
101
98
98
96
89
86
82
81
84
86
86
86
93
91
93
93
91
87
87
87
87
87
84
82
86
89
89
89
86
86
103
103
109
105
103
101
94
86
86
86
87
94
100
103
103
103
105
103
100
101
101
101
100
98
98
100
101
101
100
100
100
101
100
98
96
93
93
93
89
86
81
81
84
84
86
87
89
93
94
93
89
87
87
91
87
87
86
84
84
84
89
89
86
82
103
101
105
103
103
100
93
87
86
87
87
94
100
101
103
105
107
101
100
96
100
98
98
100
100
103
105
103
101
101
100
101
101
100
96
94
91
94
91
87
84
84
84
87
89
89
93
94
94
93
89
87
87
86
87
87
89
87
86
84
86
87
87
86
