P2
# 359 of 608 Angiograms
64 64
255
68
68
66
63
60
61
61
64
68
71
73
71
70
68
71
74
74
73
68
68
70
71
74
76
73
73
73
68
70
70
71
74
71
71
68
70
71
73
78
78
74
73
76
76
73
73
74
74
73
74
76
74
73
73
73
71
73
71
71
71
70
71
70
67
70
70
67
61
60
59
60
61
67
68
71
71
71
71
74
76
73
70
70
68
68
70
73
73
73
73
71
70
73
71
71
73
70
70
73
73
74
74
78
78
73
74
74
76
74
74
73
71
73
76
74
73
73
74
74
71
71
70
71
68
71
71
70
67
73
67
67
63
61
57
60
63
66
68
70
73
74
74
73
73
71
70
68
68
68
70
73
73
71
70
71
71
74
73
71
71
70
71
71
73
73
74
76
74
76
78
74
73
74
78
74
71
70
76
76
74
74
78
78
74
71
73
74
71
71
71
70
67
74
68
67
66
60
56
56
61
66
68
71
71
74
76
73
71
73
71
68
67
68
71
73
73
68
68
73
76
74
73
73
73
73
74
73
70
71
74
73
74
78
78
76
71
73
78
79
74
76
74
73
76
78
76
74
73
73
73
74
73
71
73
71
71
74
70
67
64
61
59
59
63
68
68
70
71
74
74
74
70
70
71
68
67
68
71
71
70
67
68
71
71
71
73
71
73
73
73
71
71
73
74
73
73
74
76
78
74
73
76
79
78
78
74
71
73
76
76
74
74
76
74
73
70
71
74
74
73
74
73
68
64
63
61
61
63
66
68
73
74
73
71
71
70
73
71
68
66
66
70
73
71
68
68
70
68
68
74
76
74
76
73
70
70
71
76
73
71
73
74
78
78
78
76
74
74
73
68
67
70
74
78
74
73
78
76
73
73
73
73
74
74
71
73
70
64
63
61
61
63
63
68
71
73
71
71
71
73
71
68
70
67
64
68
73
70
68
70
71
71
71
74
76
74
76
74
74
71
71
73
71
70
71
73
73
74
76
73
71
71
71
68
70
71
74
78
74
74
78
74
74
74
76
76
76
78
71
70
71
66
64
60
59
63
64
66
68
71
70
68
67
71
71
68
70
70
67
67
71
70
68
71
76
74
74
78
74
73
73
73
76
74
71
73
71
70
71
74
71
70
73
71
73
74
74
71
71
74
76
78
76
73
71
76
74
74
76
76
76
76
70
70
68
68
66
61
60
61
61
64
67
70
70
74
70
73
73
71
70
66
64
66
67
68
70
74
79
76
73
73
71
70
73
76
76
73
73
73
70
70
70
74
76
73
71
73
74
74
74
73
73
76
76
76
73
71
71
74
76
74
74
74
76
74
70
68
68
66
63
60
59
59
60
63
66
68
70
70
70
71
71
73
70
66
66
63
64
66
68
76
76
74
73
71
71
71
71
74
76
74
73
71
70
71
70
73
74
73
74
73
71
71
73
73
73
74
74
70
71
71
73
76
76
78
76
76
79
76
68
67
67
64
61
60
57
60
60
63
64
68
73
74
71
71
71
70
70
67
67
61
63
67
71
71
74
76
74
71
73
73
73
73
71
73
71
71
70
71
68
68
71
74
73
73
70
71
73
71
71
71
71
70
73
73
73
74
76
74
74
76
76
74
68
67
67
66
61
61
59
60
59
63
67
70
74
74
73
71
68
68
68
67
66
63
63
68
71
71
73
74
73
71
71
73
73
73
70
71
71
73
71
71
70
71
71
71
73
73
73
68
70
70
73
71
70
71
73
71
70
71
71
71
71
74
74
71
71
67
67
66
64
63
60
59
60
61
67
70
71
73
73
70
70
73
70
67
63
66
64
64
67
66
68
74
76
74
73
74
74
71
73
73
73
71
71
70
70
73
76
73
71
70
71
68
70
70
71
71
70
68
66
67
68
71
71
68
68
70
71
68
70
66
67
68
67
63
61
59
59
59
68
73
74
74
74
73
74
74
71
71
68
67
64
66
67
64
66
70
71
76
74
71
73
71
71
73
73
70
70
70
70
70
74
74
71
70
73
71
70
71
73
71
71
68
66
66
67
68
68
67
66
66
71
68
70
70
70
71
71
66
61
59
57
59
70
76
76
74
74
74
76
78
73
70
70
68
68
68
67
66
66
68
71
73
73
71
73
73
71
71
73
71
70
73
71
71
73
76
73
73
71
70
70
71
71
70
71
70
70
67
66
68
67
66
64
66
68
68
73
73
73
71
70
67
63
60
59
61
66
74
76
76
76
78
74
76
74
71
73
73
71
70
68
68
68
71
73
71
73
73
76
78
76
73
71
71
73
76
74
73
73
76
74
78
73
70
71
71
71
70
68
71
70
70
70
70
68
68
68
70
68
67
74
74
73
70
68
68
64
61
61
64
64
73
74
76
76
78
74
76
76
74
76
73
73
73
73
71
73
74
74
71
73
73
74
79
79
76
74
73
74
76
74
74
74
74
74
74
73
73
74
73
73
73
71
70
71
70
71
67
70
71
70
71
70
68
71
76
73
71
73
70
64
63
64
66
66
70
73
76
78
79
79
79
76
78
76
74
73
74
78
76
71
70
73
73
74
73
73
78
79
76
76
78
79
79
78
74
74
74
74
71
73
73
73
73
74
78
76
73
73
70
68
67
71
71
68
68
71
74
71
74
71
71
70
67
64
61
61
63
64
68
71
74
76
78
78
76
71
73
73
73
74
78
79
79
74
71
76
76
73
74
74
76
79
78
78
76
76
74
74
74
74
76
74
74
71
73
74
74
76
76
73
73
71
70
68
70
68
68
68
68
73
74
74
76
76
73
68
68
63
61
63
61
63
67
73
76
71
71
76
74
70
68
73
78
79
81
78
81
76
74
79
78
74
74
76
74
74
78
79
76
76
76
74
74
71
73
73
71
70
68
73
78
78
78
74
74
71
74
73
68
68
70
73
73
73
73
71
71
74
74
73
68
63
61
61
61
63
67
71
73
73
74
74
71
71
70
74
76
78
79
79
79
78
78
76
74
76
76
73
70
73
78
79
76
76
74
73
74
76
73
68
68
73
71
76
78
78
79
76
74
73
74
74
70
73
74
76
74
71
71
70
73
73
74
70
68
63
64
61
60
63
66
70
71
74
76
74
71
71
71
74
78
79
79
78
79
78
81
79
78
76
73
70
70
70
74
78
74
73
74
73
74
74
71
68
71
74
74
76
76
78
78
76
76
76
74
71
71
74
76
74
73
71
70
73
74
76
73
70
67
66
63
59
59
61
67
71
74
76
78
76
71
71
74
79
79
79
78
79
79
78
81
79
78
76
71
68
68
68
73
76
74
73
74
73
68
68
68
71
73
74
74
74
74
78
78
76
76
74
73
71
73
73
74
71
71
73
71
74
78
76
78
73
70
66
63
60
60
61
66
70
76
76
74
76
71
71
76
78
79
81
79
79
78
78
76
74
76
76
71
70
68
70
71
74
73
71
71
71
70
70
70
70
71
73
73
74
74
76
76
73
76
76
74
73
73
73
73
71
70
74
76
76
74
76
78
76
71
70
66
60
59
60
63
67
73
71
76
73
71
71
78
79
81
82
78
78
76
74
74
78
76
71
68
73
71
73
73
73
73
74
71
68
68
68
71
71
73
73
70
70
71
73
73
73
74
78
74
71
74
74
73
71
70
71
71
76
74
76
78
76
71
70
68
60
57
57
60
63
67
71
74
76
76
74
74
79
82
79
76
76
76
74
73
74
74
70
67
68
70
68
70
70
73
71
68
70
70
67
70
70
70
70
68
67
70
73
74
70
73
76
74
73
73
74
73
70
71
68
68
78
76
79
79
76
73
70
67
63
59
59
61
64
68
73
76
76
74
71
74
78
79
76
76
78
74
76
74
76
76
73
70
70
68
67
68
67
70
67
68
70
68
68
67
66
70
73
71
68
70
71
73
70
71
73
73
76
73
71
71
70
71
71
70
74
76
78
76
76
74
71
68
64
60
60
61
64
68
73
76
79
76
74
74
78
78
76
76
78
74
76
78
78
74
76
71
68
68
68
67
67
66
63
68
70
68
67
67
67
68
70
70
70
68
70
68
71
73
71
71
76
74
70
70
70
70
73
71
74
74
74
74
74
78
74
68
63
60
61
60
64
70
76
78
79
78
73
73
79
79
76
78
76
76
76
74
74
76
73
70
71
71
67
64
66
66
67
70
73
71
68
70
70
70
70
70
70
68
68
70
71
71
71
73
74
71
70
70
73
71
71
70
74
73
76
76
74
78
78
70
64
61
59
57
61
68
73
76
78
73
71
74
76
76
79
79
79
74
74
74
74
73
71
70
70
68
67
67
70
70
70
70
73
73
68
68
68
73
74
70
68
68
64
66
70
70
70
71
73
71
73
70
68
70
67
71
74
73
78
74
76
81
78
71
66
61
57
57
60
67
71
78
79
74
70
71
73
73
74
76
74
71
71
70
73
73
71
73
68
67
68
73
74
74
71
71
70
70
67
64
67
71
73
71
70
71
68
68
68
67
68
68
71
73
71
68
68
68
70
68
73
73
76
74
73
78
76
71
67
61
56
57
61
67
71
79
79
76
70
70
71
71
71
71
70
70
68
67
70
73
71
73
71
71
71
71
73
71
70
71
71
67
66
64
64
68
70
73
73
71
67
68
68
66
67
70
73
71
70
71
67
67
66
64
73
74
76
78
78
76
76
71
66
63
57
56
60
64
70
76
78
76
71
70
68
68
68
70
67
67
68
68
70
70
76
76
73
71
71
70
70
70
70
71
71
71
70
67
66
68
70
73
71
70
68
66
68
67
67
70
71
71
71
68
66
68
68
66
76
74
74
76
78
78
74
70
66
64
60
59
59
61
68
73
74
73
70
68
68
68
68
68
67
68
68
68
68
68
73
74
74
74
70
70
71
70
68
70
68
73
71
68
67
68
68
68
70
70
67
67
67
68
67
70
71
68
68
66
64
67
66
64
76
76
78
78
76
76
76
71
68
67
61
59
59
60
67
71
73
71
70
70
70
71
71
73
73
71
67
68
68
68
70
71
71
73
70
71
73
71
70
71
71
71
71
68
67
66
64
64
66
67
68
67
66
68
68
68
68
68
68
64
64
63
63
66
74
74
74
74
76
76
76
71
70
67
63
59
57
60
67
71
73
73
73
73
76
76
76
73
71
68
67
67
68
68
70
70
68
70
71
68
71
70
70
71
74
71
70
67
67
63
64
63
63
64
64
66
67
68
67
67
67
68
67
64
63
63
67
68
73
73
71
76
74
74
73
71
68
67
61
57
57
61
66
71
74
71
70
71
78
76
74
71
70
67
67
67
70
68
68
70
68
66
70
70
71
71
70
70
70
70
70
67
66
66
66
64
63
66
67
67
67
66
67
67
67
67
66
66
66
67
67
66
74
73
76
79
76
73
71
74
71
67
61
59
59
60
63
71
74
73
71
71
73
74
73
70
70
68
66
68
71
70
68
68
67
67
66
67
68
68
68
67
66
66
67
66
64
63
66
67
67
68
68
68
67
64
68
67
68
67
64
64
67
68
67
68
76
74
76
78
74
71
70
73
71
67
61
57
59
59
60
67
71
71
70
70
70
71
68
67
68
68
68
70
67
68
68
68
66
63
63
64
67
67
66
66
64
64
63
66
64
61
66
66
67
68
66
66
64
66
66
67
67
68
67
67
70
70
70
73
74
74
74
71
73
74
70
68
71
66
61
57
59
56
59
66
67
67
68
70
66
64
66
66
66
67
70
68
66
66
67
67
66
63
64
64
63
61
61
63
63
64
63
64
67
64
64
66
67
67
66
66
67
67
66
66
67
68
68
68
70
71
73
76
74
76
74
70
73
76
73
70
70
67
61
56
55
55
59
66
68
68
67
67
66
66
66
66
63
66
68
67
66
64
63
63
66
64
63
64
60
60
60
61
64
64
66
66
66
64
66
64
66
64
66
67
70
68
68
68
68
70
71
74
76
74
76
79
74
73
70
70
74
74
74
71
68
66
60
57
56
55
59
63
66
70
68
70
70
70
67
67
66
67
67
67
64
64
63
64
67
67
64
63
61
63
61
63
63
64
66
66
64
64
67
70
71
68
68
70
68
70
71
71
71
71
74
76
78
79
81
81
74
74
73
73
74
73
73
71
71
67
61
59
56
56
57
60
63
68
68
70
71
70
68
68
68
68
67
68
67
66
64
66
67
67
64
64
64
64
64
67
66
66
67
68
68
68
71
73
73
70
73
74
70
73
76
73
74
74
74
74
74
81
84
86
74
74
74
71
76
74
73
73
71
67
60
56
51
54
59
59
63
66
68
68
68
68
70
70
68
68
71
71
70
68
68
68
70
71
70
68
68
70
70
70
70
70
70
73
73
73
74
74
73
74
76
76
74
78
79
76
78
79
78
76
76
79
81
82
71
73
76
74
73
71
73
71
71
66
60
56
52
52
59
63
67
68
68
68
68
73
74
74
73
73
73
74
74
73
73
73
74
74
73
71
73
76
78
78
78
78
78
79
79
76
76
78
79
78
76
78
78
79
79
79
79
81
82
79
78
79
79
78
73
76
76
76
74
71
70
71
71
67
64
57
55
55
57
63
68
68
68
70
74
79
79
79
78
78
76
79
79
78
76
78
76
78
76
74
76
79
82
81
81
79
79
81
81
79
81
82
82
81
81
81
84
84
81
82
81
79
81
84
81
79
78
76
76
78
78
76
76
73
71
74
74
71
68
63
57
55
57
64
67
70
71
74
79
82
84
82
81
81
79
81
82
82
82
78
79
81
81
79
78
81
82
84
84
82
81
81
81
81
81
82
82
84
82
84
82
86
86
84
84
81
81
82
82
79
78
74
78
79
78
78
78
79
79
79
79
76
71
67
61
59
61
66
67
73
76
79
81
84
86
84
82
81
82
81
82
82
84
81
81
82
82
81
81
82
82
82
84
87
84
82
81
81
82
82
81
84
82
82
86
87
86
87
84
82
81
84
86
82
78
76
82
82
81
82
84
84
86
82
82
79
76
73
67
60
60
64
68
73
79
79
81
84
86
82
82
84
82
86
84
82
82
81
79
81
79
81
82
82
79
79
82
81
79
84
81
79
79
81
79
82
79
81
82
86
86
84
84
82
81
82
84
84
82
79
82
82
84
84
82
81
84
81
81
81
79
74
71
64
64
64
67
71
78
82
84
86
82
84
86
82
81
86
84
81
79
81
79
81
79
79
81
81
82
81
78
76
78
79
78
76
76
76
79
82
79
81
82
84
84
86
86
84
82
82
82
84
84
82
84
84
86
84
81
81
86
82
82
82
82
78
71
64
61
60
66
71
76
81
82
81
81
84
86
84
82
86
86
82
76
76
78
78
78
79
79
79
82
84
79
78
78
78
78
78
76
76
81
81
81
82
79
81
81
82
86
84
81
81
82
86
86
87
84
82
82
82
82
82
81
81
82
82
82
76
71
61
59
57
63
71
79
82
79
76
78
82
82
82
84
87
86
81
76
74
78
79
76
79
78
79
81
81
79
78
79
79
79
79
81
82
86
86
84
82
81
81
79
79
82
81
82
84
82
82
82
86
84
82
81
84
81
81
81
79
82
86
82
76
70
61
56
56
60
70
78
81
81
78
79
86
86
86
84
84
82
79
78
74
76
78
78
79
78
78
81
79
81
79
79
82
81
81
84
87
91
91
89
86
82
82
81
78
81
84
84
84
82
81
82
82
82
81
82
82
79
79
82
78
81
86
82
76
70
61
55
52
59
68
73
79
82
81
81
82
82
82
79
79
81
81
78
76
78
78
79
81
81
81
82
82
84
84
84
84
84
84
87
89
89
89
91
86
86
84
84
84
84
86
86
84
84
81
82
82
78
78
81
79
78
81
82
81
81
82
84
78
70
60
54
54
60
66
71
76
79
81
81
81
81
82
79
79
81
79
79
78
76
79
81
82
81
81
82
84
86
87
86
82
87
87
89
89
89
91
91
86
84
86
87
87
87
87
89
87
86
86
86
86
76
78
79
76
78
79
81
81
79
82
84
79
70
60
54
54
60
66
71
74
78
82
82
82
81
81
81
79
78
78
76
78
79
81
82
86
82
84
86
86
87
89
89
86
89
89
89
89
89
91
89
87
89
89
91
91
91
91
91
89
89
87
84
86
74
76
79
76
76
78
76
78
79
81
82
81
71
60
55
55
59
63
68
74
79
81
79
81
79
79
79
78
76
74
74
76
81
84
84
86
84
82
84
86
84
86
84
82
84
86
84
86
89
89
87
86
86
86
86
87
87
89
91
91
91
91
89
87
73
70
74
74
76
78
74
76
76
76
78
78
70
60
56
54
56
60
67
73
78
76
73
76
76
74
74
76
74
74
74
81
84
82
84
84
82
79
82
84
82
79
79
81
82
84
84
86
87
87
86
86
81
82
86
84
82
86
87
91
89
87
91
87
70
67
70
70
70
73
74
74
76
74
78
74
68
60
56
54
54
57
63
70
73
74
73
73
73
74
74
74
74
76
78
79
84
84
82
81
79
79
84
82
79
78
76
78
79
79
84
86
86
84
82
84
81
81
82
82
79
84
86
87
89
89
91
89
70
66
67
67
67
68
74
74
73
71
78
73
67
60
56
55
52
54
60
66
70
73
71
73
74
74
74
74
76
76
76
79
84
84
82
78
81
78
76
78
79
81
78
78
76
78
79
82
84
84
81
79
78
74
74
76
76
78
81
84
86
86
87
89
67
66
66
66
64
66
68
71
71
73
78
74
68
61
56
52
51
55
59
66
67
68
71
70
70
70
71
70
74
74
74
78
79
79
79
76
76
74
74
73
78
79
78
78
79
79
78
79
84
84
79
76
73
70
70
73
76
74
74
78
81
84
84
86
63
64
66
64
61
61
64
66
68
70
74
73
68
61
54
49
50
52
56
63
68
67
67
68
70
68
68
70
71
73
74
76
76
73
73
73
74
71
71
71
73
74
74
76
78
74
74
76
79
78
74
73
71
70
70
70
73
73
74
73
73
76
78
78
63
63
63
64
63
63
63
60
64
67
68
68
66
60
54
48
48
50
52
59
64
67
68
70
71
68
68
67
66
70
73
74
71
73
73
71
70
70
70
70
71
71
73
74
71
70
70
71
73
71
68
67
68
68
68
67
67
71
73
71
70
68
71
71
64
63
61
63
66
64
64
60
60
60
61
64
63
59
52
48
46
48
50
57
61
66
67
66
66
67
67
64
63
64
68
70
71
70
70
68
67
68
68
68
70
68
67
70
67
67
67
70
71
71
67
67
67
66
64
64
67
68
68
68
68
68
70
73
