P2
# 364 of 608 Angiograms
64 64
255
104
104
102
100
102
100
104
106
104
100
96
96
96
95
95
95
93
87
86
86
86
87
91
96
100
102
102
102
102
104
102
104
106
106
106
108
108
104
102
100
98
98
96
96
98
98
95
95
93
93
91
93
87
86
86
87
89
93
98
98
98
98
98
95
102
102
100
96
98
100
100
102
102
100
96
95
98
95
96
98
95
91
86
86
87
89
91
96
102
102
102
102
104
104
108
110
106
108
106
104
104
100
98
96
96
96
96
98
100
98
96
98
98
95
89
87
84
86
87
89
87
93
100
100
98
100
95
93
98
98
98
95
95
96
96
100
102
98
95
93
96
96
98
100
100
96
93
89
89
93
95
98
100
102
104
102
104
108
108
108
106
106
104
102
98
96
100
96
96
98
100
102
102
102
98
98
96
93
89
86
86
89
89
89
89
93
98
98
100
96
95
93
95
96
98
98
96
96
95
96
102
98
96
95
98
100
100
102
104
100
96
95
93
93
95
96
102
106
106
108
108
110
108
108
104
102
100
98
98
98
100
96
95
98
102
102
100
100
100
95
95
91
89
87
86
87
87
86
87
93
98
96
100
96
95
95
91
93
96
98
100
100
96
98
100
100
100
100
104
104
106
104
102
102
100
100
98
96
96
98
104
108
108
108
108
108
108
106
102
100
98
98
95
96
100
95
93
95
98
100
100
98
98
95
95
93
91
89
86
87
87
84
86
95
96
95
96
98
98
95
93
91
96
98
100
102
100
100
100
104
104
104
106
104
106
106
106
104
104
104
104
100
98
100
106
108
108
110
108
110
110
110
106
102
100
98
95
96
96
95
93
93
96
100
98
98
98
96
98
96
91
87
87
86
89
87
87
95
95
93
95
96
95
95
95
95
98
100
102
104
104
104
102
102
104
106
106
106
102
106
110
108
108
106
108
106
102
100
104
108
110
110
110
110
110
106
104
100
98
96
95
96
96
96
96
96
95
96
98
96
98
98
96
98
91
86
87
87
89
87
89
95
96
95
93
96
93
95
96
98
98
104
104
104
104
106
106
102
102
106
106
104
102
106
110
110
108
106
108
110
104
106
106
110
110
112
112
108
108
106
104
100
98
96
96
95
93
93
96
93
93
93
96
95
98
100
98
96
93
87
84
84
86
87
93
96
98
95
95
95
96
95
96
100
100
102
102
102
102
104
106
102
104
108
106
104
106
106
106
108
108
106
112
112
110
106
106
112
113
112
112
110
104
102
100
98
98
98
96
93
91
93
93
91
95
93
95
95
96
98
98
93
93
89
86
86
87
91
96
102
100
96
96
96
96
91
98
98
98
102
102
102
104
104
104
102
102
110
106
106
106
104
106
104
104
108
112
112
108
104
104
112
112
110
112
108
102
98
96
93
93
96
93
89
89
95
93
93
93
93
95
95
93
95
95
93
93
87
86
87
89
93
98
100
100
98
96
95
96
93
100
102
98
100
102
102
104
106
104
100
102
110
108
106
104
106
108
104
104
108
112
112
110
106
104
108
108
110
108
102
96
98
95
93
91
91
91
91
91
95
93
93
93
91
91
93
93
89
93
96
91
87
87
91
91
95
98
102
98
98
96
95
96
93
102
102
102
104
106
108
106
106
102
104
106
108
108
108
106
108
108
108
108
106
112
113
112
108
104
104
104
102
100
96
96
98
98
96
93
93
91
87
89
91
91
89
91
91
93
93
93
91
93
96
91
89
91
93
91
95
100
98
98
96
95
93
96
93
100
102
102
106
108
108
106
106
104
106
106
110
110
108
110
108
106
106
108
108
112
112
112
108
104
100
98
98
98
95
95
96
96
96
95
95
93
91
89
89
89
87
91
91
93
91
95
93
95
96
91
91
91
91
91
98
102
102
102
96
93
93
95
96
100
100
104
104
104
108
106
104
104
106
106
108
110
106
106
108
108
106
108
110
110
112
110
106
104
102
102
102
100
95
96
98
98
95
96
96
93
93
91
89
91
91
91
93
95
93
95
93
93
95
89
91
91
89
93
100
104
102
100
98
96
93
95
96
100
102
102
100
102
106
104
102
106
108
110
113
110
108
112
112
108
104
106
110
112
110
106
104
100
100
100
104
102
98
96
98
98
96
96
96
95
93
91
91
91
95
91
93
93
93
91
91
95
95
91
93
93
93
96
100
102
100
98
98
98
96
96
98
98
100
104
106
108
110
106
104
108
112
112
113
112
110
112
112
110
110
110
110
110
108
106
104
102
100
98
102
100
100
100
98
98
100
96
93
91
93
91
87
89
91
95
93
93
93
93
93
95
91
89
89
91
93
96
98
102
102
100
98
96
93
95
98
100
102
106
108
108
110
108
108
110
112
112
112
113
112
112
110
108
110
112
113
110
106
108
106
102
98
98
104
100
100
100
100
98
100
96
93
93
93
89
89
91
95
93
91
93
93
93
91
93
91
87
89
91
93
96
98
100
102
100
100
98
95
95
96
102
106
106
106
108
106
106
110
112
112
113
115
115
113
110
110
108
108
112
115
113
112
110
110
104
100
100
100
100
102
98
98
95
95
93
93
93
93
95
93
93
93
91
91
91
91
91
89
91
91
86
89
91
93
98
100
100
100
98
98
96
95
93
93
102
106
106
108
106
106
108
112
113
112
115
115
115
113
110
110
112
108
110
113
115
115
112
110
106
102
98
100
102
100
98
96
95
93
93
93
93
93
96
98
96
95
91
91
91
91
89
91
89
89
86
87
89
91
98
102
100
96
95
96
96
95
95
95
104
104
108
106
104
106
106
110
113
115
115
117
115
113
113
112
115
113
112
113
117
117
115
112
108
104
98
100
100
98
98
98
96
95
95
93
93
93
93
93
93
95
93
89
91
89
91
95
89
84
82
84
89
91
98
100
98
98
96
98
96
96
96
96
106
104
108
106
104
106
110
110
112
113
112
112
112
112
112
112
113
115
115
115
119
121
119
115
112
106
100
100
100
98
96
98
96
93
91
91
91
93
95
95
96
96
93
91
91
93
93
93
87
82
79
82
86
91
96
98
96
96
95
93
95
95
95
96
102
104
106
106
108
110
113
112
110
113
112
113
112
112
112
113
113
115
115
117
121
121
121
117
113
110
106
104
98
96
100
96
96
93
91
91
91
93
95
96
96
95
93
89
89
93
91
89
87
84
81
82
82
87
96
96
96
96
95
91
89
91
91
91
98
104
106
104
108
110
110
110
113
113
112
113
113
112
113
113
115
117
115
115
119
121
121
119
113
110
104
100
98
96
98
96
96
95
93
93
93
93
96
95
93
91
93
86
89
87
86
86
84
82
84
86
82
87
91
93
91
91
91
86
87
86
86
87
93
98
106
106
112
112
112
110
117
115
112
112
115
115
115
115
115
115
115
117
119
121
123
117
112
110
106
102
100
96
96
98
98
98
96
96
96
95
96
93
93
91
91
87
89
86
86
86
82
79
81
84
86
89
89
89
89
91
91
87
84
84
81
84
96
100
106
110
113
113
112
112
117
117
115
112
115
117
117
115
115
115
117
119
121
121
121
119
115
108
104
104
102
98
98
98
96
98
98
100
98
95
96
93
91
89
87
86
87
86
86
82
77
77
79
84
86
91
91
89
89
91
89
89
81
81
79
82
102
102
106
108
113
110
112
115
115
115
113
113
115
119
117
113
112
113
117
121
123
121
119
117
115
110
108
106
102
102
100
98
95
98
98
98
98
95
95
91
91
86
87
86
87
87
86
81
79
77
79
81
82
89
91
89
87
87
87
87
79
77
79
82
104
106
106
106
110
112
113
113
113
115
113
112
115
117
115
112
113
113
119
121
121
119
117
115
113
110
108
106
100
100
100
98
96
98
98
98
98
95
93
93
89
89
87
84
86
86
84
81
77
77
79
81
84
89
91
89
87
86
82
82
79
79
79
84
108
112
112
110
112
112
113
115
113
113
115
112
113
115
113
110
110
113
117
117
117
115
113
113
112
106
104
102
102
100
98
96
96
96
96
96
98
96
95
93
89
91
87
84
82
86
84
79
76
76
77
79
86
87
89
87
86
84
81
79
81
81
81
84
112
113
113
113
115
115
112
115
115
113
113
112
112
115
115
110
110
112
115
115
115
113
112
110
106
100
102
102
100
96
96
96
95
93
93
93
95
95
91
91
87
87
87
84
84
84
84
77
76
76
74
79
86
86
86
84
87
91
86
84
84
84
81
82
113
115
115
115
117
113
115
117
117
117
117
113
112
115
113
112
110
110
112
113
113
112
110
106
98
95
98
98
95
91
89
89
91
91
91
93
91
93
91
89
86
87
87
84
84
82
82
77
79
76
76
79
84
87
86
86
86
87
89
86
84
87
84
82
113
115
117
115
113
113
117
119
119
119
119
117
115
115
117
113
110
108
106
110
112
112
110
102
95
91
91
93
95
91
89
87
89
89
91
87
87
89
91
89
87
87
87
86
86
82
81
79
77
76
76
79
84
87
86
86
86
87
93
89
86
89
87
87
110
113
115
113
112
117
119
119
119
121
117
117
115
115
117
115
112
106
106
108
108
108
106
100
93
89
91
89
95
93
91
87
84
89
91
87
91
91
89
89
87
86
86
86
86
86
82
79
76
77
79
81
84
86
86
87
87
87
93
93
89
91
91
91
110
113
115
115
115
117
119
119
119
117
115
115
115
115
115
115
112
108
106
106
104
104
104
98
91
91
93
91
91
91
91
89
87
86
89
91
93
93
89
91
89
87
87
84
87
87
84
79
76
77
81
82
84
84
87
87
89
91
95
96
98
98
98
96
110
113
115
115
115
117
117
117
115
113
115
115
112
113
115
113
113
110
108
108
106
104
102
96
91
93
91
91
91
91
89
91
91
91
91
91
91
91
91
91
91
87
86
84
87
86
82
81
79
81
81
82
86
87
89
93
89
93
96
96
98
102
102
98
112
113
113
112
112
112
112
115
115
113
112
115
113
113
115
117
115
112
110
106
106
104
100
96
93
91
87
87
87
89
89
89
91
95
93
93
91
93
93
93
93
91
91
89
89
86
82
81
84
84
81
84
86
89
93
95
93
93
96
96
100
102
104
104
108
110
108
112
110
110
108
110
112
112
113
115
115
113
117
115
117
113
112
108
106
104
100
95
91
89
84
87
89
91
89
89
89
93
95
95
95
95
95
96
95
93
91
93
91
89
82
81
86
84
81
84
86
87
93
95
93
93
93
96
100
102
106
108
108
108
106
106
106
104
104
104
106
110
113
113
113
113
115
117
117
115
112
108
104
104
102
95
87
84
84
89
91
93
93
93
91
89
98
98
98
96
95
96
98
96
93
95
93
91
82
79
82
82
84
86
86
89
93
91
91
95
91
93
100
102
106
106
104
106
104
104
102
100
100
100
102
104
110
113
113
112
117
117
115
115
115
110
106
102
100
93
86
82
86
89
93
93
95
93
93
93
96
98
96
96
95
96
96
96
93
95
95
93
84
79
81
82
84
87
91
93
91
91
91
95
95
95
98
100
102
104
96
98
100
102
104
102
102
100
100
102
108
112
112
115
113
115
117
115
113
108
106
102
100
93
86
86
87
93
93
89
91
91
93
95
98
100
96
95
95
96
98
96
91
95
95
93
84
79
81
79
82
87
89
93
93
91
93
95
96
95
98
98
98
100
96
98
100
100
104
108
106
102
100
100
108
112
112
117
115
115
119
117
112
108
104
102
96
95
91
91
93
95
95
91
91
95
96
95
96
98
98
96
96
96
96
95
93
96
96
91
84
81
79
77
82
89
89
93
93
93
95
96
96
96
98
100
102
100
95
98
100
100
106
108
104
102
100
100
108
115
117
115
115
119
119
115
112
110
104
102
96
95
96
96
95
93
95
95
93
95
95
95
91
95
96
96
98
100
98
96
96
98
98
89
82
81
81
79
84
89
91
96
95
93
95
95
98
100
102
104
106
104
96
98
100
102
106
106
102
100
102
102
108
113
115
113
115
117
115
112
108
108
106
102
98
96
98
100
96
95
95
95
95
95
91
87
87
93
96
100
102
100
98
98
98
96
96
89
82
82
82
81
84
89
91
98
95
93
96
98
100
102
104
106
106
104
102
102
102
104
104
104
104
100
102
104
108
110
112
112
112
112
112
110
106
100
102
100
98
96
96
98
100
98
96
98
96
95
91
89
91
93
95
96
98
100
100
96
100
100
96
87
84
82
81
79
84
87
91
100
100
98
98
100
100
102
106
110
110
106
106
104
104
106
106
106
102
102
102
104
106
104
106
108
106
108
108
106
104
102
102
100
96
96
96
98
98
100
98
100
98
96
93
93
89
93
93
93
96
100
98
96
100
98
95
87
82
81
81
79
84
87
93
98
98
98
100
102
102
104
108
110
112
106
110
104
106
104
106
104
102
100
100
102
104
104
102
104
102
100
102
106
102
100
100
98
96
98
98
100
100
102
100
100
98
98
96
93
91
89
89
93
95
98
98
98
98
98
95
87
86
84
79
82
87
89
95
98
98
100
100
102
104
104
106
110
110
108
112
108
104
104
106
104
104
104
102
104
108
104
102
104
102
102
106
106
104
100
100
96
95
98
98
100
102
98
98
98
98
98
100
96
93
89
89
91
93
95
98
98
98
100
95
86
86
84
82
87
91
91
96
96
98
100
102
102
102
104
106
108
110
110
110
108
102
102
106
106
104
102
102
104
106
104
104
102
104
104
104
104
104
102
100
95
96
96
96
98
102
102
98
98
98
98
100
98
95
91
93
91
93
95
95
96
96
96
91
86
86
84
84
91
95
95
96
96
96
98
102
100
102
104
102
104
108
106
108
106
104
102
106
106
102
104
104
102
104
102
102
102
104
104
106
106
104
102
98
98
98
95
93
98
100
100
98
98
100
98
96
98
100
95
95
93
95
95
93
93
91
93
87
84
86
82
82
91
95
96
95
96
96
98
100
100
100
98
96
96
100
104
108
106
102
104
104
104
104
102
104
106
106
106
104
104
106
106
108
110
108
104
100
95
96
96
96
98
98
100
100
100
100
100
96
96
102
96
95
93
95
96
95
91
91
91
87
84
82
79
81
89
95
96
96
96
98
98
100
100
100
98
95
95
96
100
106
106
104
104
106
102
102
106
106
108
106
108
108
106
106
110
108
110
106
104
100
95
95
98
98
96
96
100
100
100
102
102
100
96
98
98
96
96
95
93
93
93
89
87
82
82
81
81
84
89
95
95
96
95
96
96
100
100
104
104
100
96
96
98
102
106
108
106
106
104
106
106
102
106
108
108
108
106
108
108
110
106
106
104
98
95
93
95
96
95
96
102
100
100
100
102
100
96
98
100
100
95
91
91
93
93
91
87
84
79
79
81
86
91
95
96
98
98
98
95
98
104
106
106
104
100
98
95
104
108
108
106
106
106
104
104
102
104
112
110
108
108
106
108
110
108
106
106
100
95
96
96
100
100
98
100
100
100
98
100
98
96
98
98
98
95
91
93
95
95
93
89
87
84
82
82
89
93
96
98
98
98
104
98
100
106
108
106
104
100
96
93
104
106
106
106
108
106
108
106
104
104
108
106
108
110
110
110
108
112
112
108
106
100
96
96
100
102
98
100
100
98
98
100
98
98
98
98
98
96
95
95
95
96
96
91
86
86
84
82
89
96
98
102
100
100
98
98
104
110
112
110
106
100
93
93
104
106
106
106
106
106
108
110
106
102
102
102
106
106
108
110
108
112
112
110
108
100
96
98
100
102
100
98
96
95
96
98
102
98
96
96
96
96
95
96
96
96
95
87
84
84
82
84
91
98
100
104
102
100
102
102
106
108
112
110
102
96
91
96
102
106
108
104
106
108
110
110
108
106
102
102
106
102
104
108
110
112
110
106
104
100
98
98
98
98
98
102
98
96
95
96
100
100
98
98
95
95
93
96
95
93
93
87
82
84
86
86
93
98
102
104
98
95
96
98
100
100
102
100
96
93
93
102
102
100
104
108
108
108
108
108
108
110
104
102
104
102
102
108
112
112
108
106
106
102
98
96
98
96
100
102
100
96
98
96
96
96
98
98
96
95
93
96
93
93
93
87
86
86
87
89
95
100
102
102
95
86
82
84
87
91
93
93
93
95
102
112
100
100
102
104
106
106
104
106
106
108
108
106
104
102
102
108
110
108
104
104
106
104
102
98
98
96
98
102
100
98
98
96
96
96
96
95
93
93
95
96
96
95
91
86
87
87
86
91
96
102
102
100
96
87
84
84
87
91
95
98
102
108
112
113
102
102
102
104
110
104
102
104
104
106
106
108
104
102
106
110
108
106
102
104
102
102
102
102
100
100
100
104
102
96
96
98
96
98
95
91
93
95
93
95
96
93
89
86
86
86
86
93
98
104
106
104
102
100
98
98
100
104
108
108
113
117
117
117
102
102
102
106
106
104
104
106
104
108
110
108
106
106
104
108
104
106
104
104
98
100
102
102
102
102
102
100
96
95
93
95
95
95
95
95
95
93
93
96
96
96
93
87
82
82
86
95
102
104
110
110
110
112
112
112
112
115
117
119
123
123
119
117
96
98
100
104
106
106
104
104
104
110
110
108
108
108
106
106
100
104
104
102
98
98
98
100
100
102
102
96
93
95
95
93
93
91
96
96
96
93
95
96
96
96
95
89
82
84
87
96
104
106
108
108
110
112
112
112
113
117
119
123
127
125
121
117
96
98
98
102
104
104
106
106
106
108
110
110
108
110
108
106
102
104
104
102
100
96
98
102
100
102
98
96
93
93
93
91
91
91
95
96
98
96
96
98
96
93
91
89
87
87
91
100
106
106
106
108
110
112
112
110
112
115
119
123
125
125
121
117
98
96
96
98
102
102
104
104
106
108
110
112
106
110
108
106
100
100
100
100
96
96
100
100
98
98
98
96
96
96
93
93
93
91
91
93
93
95
96
95
96
93
89
86
87
87
93
102
104
106
108
108
110
113
115
113
113
113
117
123
123
123
119
117
98
96
95
95
96
98
102
100
106
106
106
108
106
108
108
106
102
100
100
95
93
96
98
100
96
93
93
96
96
96
95
93
91
91
93
95
93
95
96
96
98
95
91
87
87
87
93
104
108
108
110
108
110
113
115
115
113
112
115
119
121
121
117
115
100
98
98
96
96
96
98
102
104
108
102
104
108
108
108
104
104
102
98
93
95
93
96
98
98
96
96
96
95
95
98
98
96
95
95
91
93
93
95
96
98
96
91
89
87
86
93
104
110
106
108
108
108
113
115
115
112
112
112
113
117
119
121
121
