P2
# 366 of 608 Angiograms
64 64
255
91
89
87
87
89
93
91
89
95
95
91
91
93
93
93
96
98
98
95
93
91
91
91
89
91
91
86
86
95
95
96
96
96
96
100
98
96
100
108
110
112
110
108
110
104
100
100
98
100
102
104
102
102
100
96
100
102
104
100
98
102
102
102
100
89
87
89
87
87
87
87
91
91
93
91
91
93
96
96
96
100
96
95
95
95
96
96
93
93
91
86
87
93
96
96
95
93
93
95
96
96
100
106
108
110
108
108
108
102
100
102
102
102
100
100
102
102
100
96
98
100
102
100
102
100
100
100
98
86
86
87
86
87
87
86
87
89
89
93
93
95
96
96
100
104
98
98
98
100
100
98
95
95
91
89
91
93
93
91
91
87
93
93
93
93
96
102
106
110
108
106
104
104
98
100
102
98
98
100
100
98
98
100
100
100
100
102
108
102
100
100
98
82
84
86
84
89
87
84
84
87
91
91
91
95
98
100
102
100
98
102
104
102
102
102
96
96
95
95
95
91
91
91
87
86
91
89
89
91
95
100
106
110
110
112
106
102
96
98
98
98
96
96
100
102
100
100
100
100
102
102
104
102
102
98
98
84
84
86
84
82
84
87
86
87
91
89
93
95
98
100
102
102
102
108
106
104
102
102
100
96
96
93
93
89
86
86
87
86
91
87
87
91
96
102
108
112
112
110
104
102
98
95
95
98
98
100
102
102
100
100
100
102
104
104
104
104
104
96
95
82
84
81
77
77
84
87
84
91
91
91
95
95
98
100
100
104
104
108
108
104
102
98
100
100
96
95
93
89
87
87
84
86
89
87
87
93
96
102
106
112
110
108
102
100
96
96
95
100
100
100
104
106
104
100
102
106
104
104
106
104
102
98
95
82
81
76
77
77
81
84
84
87
93
91
95
95
95
96
100
104
106
108
106
102
102
102
102
102
96
93
93
91
86
84
84
84
87
89
89
91
95
100
102
108
110
110
104
98
98
96
100
104
104
102
102
104
104
104
106
106
104
102
104
104
102
98
95
82
81
79
82
81
81
86
86
89
91
91
95
95
96
98
98
102
108
106
104
104
102
104
102
100
96
93
93
91
89
86
82
84
86
89
91
93
96
100
102
102
106
106
104
100
98
96
98
102
104
102
100
98
100
104
104
104
104
106
104
104
102
98
96
84
82
82
84
84
84
87
87
89
89
89
93
95
98
100
98
98
104
104
104
104
102
100
102
100
98
95
93
91
89
87
82
86
87
91
91
93
95
98
100
102
104
104
104
100
98
96
98
102
104
100
98
100
102
106
106
106
104
102
104
104
98
98
100
86
87
87
86
86
87
86
87
91
91
87
91
95
95
93
93
96
102
104
104
104
102
100
102
100
98
95
93
91
89
89
87
91
89
87
93
96
95
98
100
102
106
106
104
100
96
98
100
102
104
100
98
100
102
104
106
106
102
102
102
100
98
98
100
86
87
89
87
87
89
89
87
93
89
87
91
93
91
91
91
95
100
102
104
104
104
102
102
98
100
96
93
91
91
91
93
91
91
91
93
96
96
100
102
102
106
108
104
100
96
96
100
98
98
100
98
98
102
102
108
102
102
104
102
100
100
98
98
87
89
91
93
93
91
93
89
89
89
87
89
89
91
93
93
96
98
102
104
102
104
104
102
100
98
95
91
93
91
91
93
91
93
95
96
96
96
98
102
102
106
106
104
104
102
98
100
100
102
100
98
98
100
100
104
102
102
102
102
102
102
100
96
89
89
93
93
91
93
93
91
91
91
87
87
91
95
93
93
95
96
100
104
104
104
102
98
98
98
96
95
91
91
93
95
98
95
95
98
98
98
102
104
104
104
102
102
102
100
100
102
104
104
104
102
102
102
102
102
104
102
100
98
100
100
102
96
91
89
89
91
91
89
87
91
91
89
87
89
89
93
89
91
95
98
96
100
104
102
102
100
100
100
100
96
95
95
93
98
100
93
93
96
98
100
100
102
106
104
102
106
104
102
102
104
104
104
102
102
102
100
98
100
102
104
98
98
98
98
102
96
91
89
91
89
91
91
89
91
89
91
93
91
91
91
89
91
95
96
98
102
104
102
102
104
102
102
102
98
96
96
98
100
98
93
96
98
98
98
98
100
106
108
106
108
108
106
108
106
104
104
106
104
102
100
96
100
98
98
96
96
98
100
100
96
91
91
95
96
96
95
93
89
91
93
93
95
95
95
95
96
98
98
102
104
106
106
106
104
102
102
102
100
102
102
100
98
95
98
100
100
100
98
98
102
104
108
108
108
106
108
112
110
106
104
104
104
102
98
98
100
100
98
96
95
96
96
98
95
95
93
93
93
93
95
95
91
93
91
93
95
96
96
98
98
96
100
102
102
100
104
106
104
102
100
102
104
104
102
102
100
96
100
102
102
100
98
100
102
104
110
110
108
108
112
110
110
108
104
102
102
100
96
98
98
98
95
95
95
95
95
93
93
93
91
91
87
89
93
95
100
95
93
95
96
96
98
100
98
98
100
102
100
100
100
102
102
102
102
102
102
104
104
102
98
100
98
100
104
98
100
102
104
106
108
108
108
108
112
110
108
108
106
102
100
98
98
96
95
95
95
96
96
95
96
95
91
89
89
89
89
89
91
95
96
91
93
95
96
98
98
102
102
102
106
102
100
102
100
100
102
104
102
100
100
102
102
100
98
100
102
102
104
100
102
104
104
104
108
108
110
112
115
110
106
110
108
102
98
95
98
98
98
95
96
98
98
96
96
96
89
87
89
89
89
91
91
95
96
93
95
96
98
98
98
100
102
104
106
102
102
106
106
102
102
102
100
98
100
102
100
96
100
102
102
102
104
104
102
104
104
108
108
112
113
113
113
110
106
106
102
98
95
95
96
96
96
96
96
98
100
98
96
96
89
86
84
87
89
93
95
98
100
100
98
96
95
95
98
100
104
106
106
106
104
104
104
104
102
100
102
102
102
102
100
96
100
104
104
100
104
106
106
100
102
106
108
110
112
110
108
110
106
100
98
96
93
95
98
98
96
96
98
100
100
96
96
96
91
84
82
87
87
91
96
98
102
102
100
98
95
95
98
102
108
106
104
104
104
100
102
104
104
102
100
100
104
102
100
100
100
104
104
106
104
106
106
102
104
102
104
108
110
108
108
108
104
98
96
96
95
95
96
96
98
98
98
102
102
98
98
96
89
87
87
91
89
93
96
96
96
100
100
98
96
96
98
102
106
106
102
100
104
102
100
102
102
100
98
100
102
102
100
100
102
102
106
108
106
106
106
106
104
108
108
106
108
108
104
106
104
100
98
96
98
96
96
98
98
100
96
100
104
102
100
96
87
87
89
89
91
96
96
96
100
104
100
98
98
98
98
102
106
104
102
102
100
102
102
100
102
102
102
102
102
100
102
102
102
102
110
110
108
108
106
106
106
106
106
106
110
108
104
102
102
102
100
96
95
96
98
98
98
98
100
98
100
102
100
95
84
86
87
87
93
95
95
100
104
100
98
95
95
96
96
100
104
104
106
106
104
102
102
102
102
104
102
104
104
104
102
102
104
108
112
112
112
110
108
106
102
104
104
104
108
110
110
106
104
100
100
100
98
98
102
102
102
100
100
102
102
100
98
93
81
86
87
89
93
95
95
98
102
98
100
95
95
96
96
98
102
106
106
104
108
106
106
106
106
106
104
106
106
108
106
106
110
115
117
117
115
113
112
110
106
108
106
104
106
110
108
110
106
102
100
102
100
100
102
102
102
104
102
100
104
102
100
93
82
89
86
87
93
93
93
96
98
100
98
96
96
96
98
98
98
102
102
102
110
110
108
108
108
108
110
110
110
110
110
112
113
117
121
119
117
115
113
113
108
106
106
104
106
110
108
110
106
104
102
102
104
104
104
98
100
104
106
104
100
100
98
91
84
93
87
87
93
95
96
95
98
98
102
98
96
96
96
98
98
100
104
106
108
112
110
110
110
112
113
115
115
115
115
117
117
117
119
121
121
119
115
113
108
110
110
110
106
110
106
104
102
100
100
100
102
106
104
102
100
104
106
106
102
102
98
91
86
89
89
87
93
95
96
98
100
100
102
102
98
98
98
98
100
98
100
106
106
110
110
110
112
113
115
117
119
117
119
121
119
119
119
123
123
121
117
112
110
113
113
112
112
110
106
106
104
104
104
100
104
104
104
104
102
104
106
108
106
104
100
91
89
87
87
87
93
96
98
98
95
95
96
100
102
98
98
98
100
100
102
104
108
108
112
113
115
117
115
117
119
119
121
123
119
121
121
125
127
123
117
112
112
113
113
112
110
110
106
104
106
108
106
104
102
104
106
106
102
104
102
106
108
106
102
93
91
87
86
87
93
95
95
96
96
95
96
100
102
100
98
98
100
98
102
106
108
110
112
115
117
115
117
117
117
121
121
119
121
123
123
125
125
123
119
112
112
112
112
113
113
110
104
104
106
108
106
104
104
106
106
106
104
102
100
106
108
106
102
91
89
91
89
89
91
95
95
93
93
95
95
96
98
98
96
100
98
98
102
108
112
112
113
117
117
115
117
115
119
123
125
121
121
121
125
129
125
121
119
113
113
112
113
112
110
108
106
106
104
106
104
104
104
108
108
106
104
104
102
104
106
104
98
89
87
91
91
93
91
96
95
93
93
93
95
95
98
98
95
98
102
102
104
110
112
110
115
117
115
115
117
119
121
125
127
123
121
123
125
123
125
123
119
115
113
113
112
110
108
108
108
104
102
100
98
100
104
106
106
106
104
104
102
104
106
102
93
87
87
93
93
93
93
95
98
96
98
95
96
98
98
96
96
95
98
102
106
108
110
113
117
117
113
113
119
123
121
123
125
121
121
121
119
121
123
123
119
115
113
112
110
108
108
108
110
106
104
100
102
100
104
106
104
106
106
104
108
106
104
98
87
86
86
91
95
93
95
96
98
96
96
95
95
95
98
96
96
96
98
102
106
106
108
112
117
117
115
113
119
119
117
117
119
119
119
119
117
119
121
119
117
112
108
108
110
112
110
110
110
106
106
104
100
104
106
106
104
102
106
106
104
102
98
91
87
84
86
89
93
96
100
100
98
98
102
100
98
100
102
100
98
98
100
104
106
106
108
110
113
117
117
115
115
115
113
117
119
117
119
119
115
117
119
115
113
110
106
110
110
112
112
108
106
106
102
104
102
104
108
104
102
100
102
100
100
96
93
89
86
82
87
93
96
102
102
102
100
102
104
104
104
104
106
106
106
106
106
106
106
104
104
108
110
112
113
113
115
115
115
113
113
115
117
119
115
117
115
115
112
106
106
110
112
112
112
106
104
104
100
100
98
100
102
98
100
100
96
95
96
95
93
89
86
84
84
95
96
100
104
104
104
108
110
108
106
104
108
106
106
110
110
108
110
110
106
108
110
112
112
112
112
113
113
112
113
115
115
115
113
113
112
110
110
108
108
108
108
110
112
108
104
98
98
100
102
100
100
100
100
96
93
96
95
93
91
87
86
82
79
96
96
100
106
106
110
112
115
113
110
110
110
106
106
110
110
108
112
113
113
110
110
112
110
106
108
108
110
110
112
113
113
112
113
112
112
112
108
104
104
102
104
106
108
104
98
96
98
100
98
98
100
100
102
98
98
93
95
93
89
84
81
79
77
102
100
106
110
112
113
113
115
115
113
110
110
108
108
112
112
112
110
113
115
110
110
112
112
110
110
112
108
108
110
112
108
108
110
112
110
108
104
100
98
100
102
104
104
100
95
93
95
95
96
95
96
100
98
95
93
93
96
95
86
81
77
77
76
100
102
106
110
112
115
115
113
115
113
106
110
110
112
110
110
112
110
113
115
112
110
113
113
115
113
112
108
110
112
112
108
106
108
106
106
106
102
96
96
98
100
100
100
98
93
93
93
93
95
93
93
93
93
93
93
91
93
91
82
79
76
76
74
100
102
106
110
112
119
117
112
112
110
106
108
110
113
113
113
113
112
112
112
113
113
115
117
115
113
110
112
112
108
108
106
108
106
104
102
102
96
93
93
93
95
95
95
95
91
89
91
91
91
93
93
89
93
93
91
91
89
89
82
77
76
76
74
100
104
106
112
112
115
113
112
110
110
108
110
112
112
115
115
113
113
115
113
113
115
115
113
113
112
113
115
112
110
110
112
110
108
104
102
100
93
91
95
95
91
87
87
89
91
89
89
91
89
91
93
93
95
93
91
89
91
89
82
74
72
74
76
100
104
108
110
113
113
112
115
113
112
112
113
112
112
113
112
113
115
115
113
113
113
110
110
108
108
110
110
112
112
113
113
112
110
108
102
98
93
89
93
93
87
87
87
89
91
89
89
91
89
89
93
93
96
95
91
89
91
91
82
72
69
72
77
100
104
108
110
112
112
113
115
112
112
110
113
113
112
112
112
112
110
110
110
112
108
108
104
106
108
106
108
112
113
113
115
113
110
108
102
96
91
89
89
91
87
87
91
91
91
89
91
89
91
93
95
96
98
96
93
93
91
87
81
76
74
74
76
104
106
106
108
108
110
115
117
113
110
106
108
108
108
108
108
106
102
104
106
108
106
104
100
104
104
104
108
110
112
113
112
110
110
106
100
96
95
91
89
93
89
89
93
91
91
93
91
93
93
93
95
96
96
96
96
93
91
89
84
81
77
76
79
106
104
102
108
110
112
112
112
113
112
108
106
104
104
102
102
102
100
102
102
102
102
100
100
102
102
104
106
106
110
113
112
112
112
106
102
98
96
96
95
91
89
89
93
95
91
93
93
93
89
91
95
96
96
96
96
96
96
93
86
84
81
79
82
102
102
102
106
108
110
112
108
110
108
106
104
100
102
98
98
100
102
102
100
100
100
100
100
100
102
104
104
104
106
108
110
112
112
108
104
100
96
98
96
93
93
91
93
95
91
91
95
89
86
89
93
96
96
95
98
98
98
93
86
82
81
82
86
100
104
102
100
100
104
108
108
106
104
102
104
102
98
96
98
100
100
98
100
102
102
100
100
98
102
102
102
102
100
106
110
110
110
106
102
98
98
96
96
98
96
96
98
93
95
93
93
93
89
89
93
96
96
96
96
96
96
91
86
87
87
86
91
104
102
102
102
100
102
104
104
102
102
98
100
98
98
98
96
98
98
100
100
100
100
96
96
96
98
102
106
102
104
106
110
110
110
106
102
98
96
96
98
100
98
98
98
93
95
95
93
93
89
91
93
95
95
96
96
95
93
87
86
87
86
87
93
104
102
102
104
104
102
100
102
102
100
98
98
102
102
100
98
98
102
100
98
98
98
96
96
98
96
100
104
104
104
106
110
110
108
104
102
98
98
93
96
98
98
98
96
95
95
98
96
93
89
89
93
95
95
96
98
96
91
87
82
84
82
86
93
106
104
102
102
104
100
100
100
102
102
100
104
106
104
102
102
102
102
102
100
98
96
98
100
98
102
102
100
102
104
106
110
110
108
106
102
96
96
93
93
96
95
96
98
98
98
98
96
95
93
91
93
93
93
95
96
96
93
82
79
82
86
87
95
108
106
106
100
100
100
102
100
102
102
100
102
104
102
102
104
106
102
104
102
100
100
102
102
100
102
104
102
104
108
110
108
106
106
108
102
96
96
95
93
93
93
96
96
96
96
96
95
95
95
89
93
93
93
95
96
96
91
82
82
82
82
89
93
108
104
102
100
98
98
96
98
100
98
102
104
104
102
102
104
104
106
104
104
102
102
102
104
104
100
104
106
110
110
110
110
106
102
104
100
96
96
91
89
91
93
96
98
98
98
96
95
96
95
91
93
93
93
95
93
93
87
82
82
82
81
87
89
106
104
98
96
96
95
95
98
100
100
104
106
108
106
104
108
106
104
106
104
106
106
106
104
106
104
102
104
108
110
112
112
110
106
106
98
95
91
91
89
89
93
95
95
98
100
100
96
96
96
89
93
96
93
93
89
91
86
79
77
77
81
87
91
104
100
98
96
93
93
98
100
100
102
102
106
112
108
108
110
106
104
108
108
106
106
106
106
108
104
104
102
104
110
110
112
110
110
104
98
93
91
89
93
93
95
96
95
100
100
98
96
98
98
93
95
93
95
96
93
95
84
76
77
79
82
86
91
98
100
100
96
95
96
96
100
102
102
104
108
110
108
106
106
106
108
108
108
106
108
106
110
104
100
102
104
108
110
110
110
110
108
102
96
93
93
91
93
95
96
96
96
96
98
95
96
96
95
91
91
93
96
96
93
93
84
79
79
79
82
86
91
96
100
98
98
100
100
100
102
106
104
106
108
110
106
102
106
108
108
108
106
104
108
106
108
104
104
104
108
110
112
110
108
108
106
100
96
93
91
91
91
95
96
98
96
96
100
96
98
96
96
93
91
93
96
96
93
93
84
81
81
81
82
87
91
98
100
98
100
100
102
102
104
106
104
104
104
102
104
104
106
106
106
104
106
104
106
106
106
102
102
106
106
108
108
106
106
108
104
100
95
91
91
93
93
95
95
96
98
98
102
100
102
96
95
95
91
95
96
98
93
91
86
81
82
82
84
91
89
96
96
98
98
100
102
102
102
100
100
100
100
100
100
102
102
106
108
106
106
106
106
106
104
104
104
106
108
108
106
104
104
104
100
95
91
93
93
96
98
98
98
98
98
100
104
100
98
98
93
93
95
96
98
98
95
91
86
84
84
82
86
93
89
98
96
96
98
102
102
98
96
96
98
100
100
98
100
96
98
104
106
106
108
108
106
106
104
106
110
110
106
106
106
104
102
102
96
93
91
95
96
98
100
98
100
100
100
102
98
96
95
95
95
95
98
96
96
95
93
87
82
81
84
84
87
89
87
93
95
98
98
98
100
95
93
93
98
100
100
100
98
98
98
104
106
108
110
112
108
106
106
106
108
108
104
104
102
104
102
100
96
95
95
95
98
100
98
96
98
100
102
102
100
96
95
95
96
96
96
96
95
93
93
87
81
79
82
82
87
87
87
91
96
100
98
98
98
96
93
95
96
98
98
100
102
104
100
100
104
108
110
110
108
108
108
110
108
108
106
102
100
100
100
100
98
98
100
98
100
100
98
98
102
102
104
102
100
96
96
95
96
95
95
93
93
93
91
86
81
77
77
79
82
84
86
91
95
98
96
96
96
96
96
96
96
96
96
98
104
102
102
100
100
106
108
106
108
106
106
106
106
108
104
104
100
98
98
96
96
96
98
100
100
100
98
98
102
102
102
98
96
95
95
95
96
96
96
95
96
95
89
82
81
76
76
81
81
81
82
