P2
# 367 of 608 Angiograms
64 64
255
135
137
142
142
139
137
131
127
121
117
113
110
110
110
110
110
112
112
112
108
104
108
106
106
104
100
100
98
98
95
95
96
100
100
98
95
93
89
91
91
91
89
89
91
91
91
91
93
91
93
89
89
86
86
87
87
91
91
87
82
84
84
86
87
135
139
142
142
141
137
133
129
121
117
113
112
110
112
112
112
115
113
110
106
104
108
108
108
104
100
96
96
96
96
98
98
96
100
96
91
93
89
91
91
91
91
91
93
91
91
95
93
91
89
89
89
87
86
86
86
87
87
87
82
86
87
89
87
137
141
142
142
142
139
133
129
125
119
117
115
112
112
112
112
115
112
108
106
106
104
104
104
100
96
96
98
96
98
98
98
96
96
95
93
91
91
91
91
91
91
91
93
91
91
91
89
91
89
91
89
87
86
86
82
84
86
86
87
89
89
87
87
139
141
142
144
142
141
135
131
127
123
117
115
113
112
112
112
113
110
106
106
106
104
102
100
98
96
95
95
96
96
100
100
98
93
95
93
91
91
89
91
89
91
95
95
93
91
89
89
89
89
87
87
89
89
93
89
86
84
82
86
87
89
87
86
139
141
144
146
144
142
137
133
129
123
117
115
113
112
112
112
112
110
106
104
106
104
102
98
95
95
91
93
93
95
98
100
100
96
93
91
91
91
87
89
91
93
95
93
91
89
89
87
86
84
86
89
87
89
93
87
86
86
86
87
86
87
89
87
139
141
146
144
144
141
139
133
129
123
117
115
113
112
112
112
110
110
106
106
104
102
98
95
91
91
91
93
93
96
100
96
95
95
95
93
91
93
91
91
89
89
91
89
87
87
87
86
86
87
87
87
84
86
89
89
91
91
93
91
87
86
84
86
139
141
144
144
141
141
139
133
129
123
119
115
113
112
112
110
110
110
108
106
100
96
98
96
93
93
93
95
98
98
96
95
93
95
95
93
91
91
93
91
89
87
89
89
89
89
89
87
87
91
87
87
86
87
89
91
91
87
91
89
89
86
87
89
139
142
144
141
141
141
139
133
129
123
119
119
115
113
113
110
108
108
106
100
96
96
98
98
98
96
95
98
102
100
98
95
93
96
95
93
91
91
91
91
89
87
89
91
93
93
89
87
87
89
91
91
87
86
89
87
87
87
89
91
87
87
87
89
139
142
141
141
142
141
137
131
131
125
119
119
115
115
113
112
108
106
102
100
100
96
96
98
96
95
96
96
100
100
96
96
95
95
93
91
87
87
87
91
89
87
91
91
91
95
91
87
86
86
89
87
89
86
87
89
89
91
89
89
89
89
91
87
139
141
139
142
142
141
133
129
129
125
121
119
115
115
113
112
106
106
102
98
98
98
100
98
95
96
100
98
98
98
96
95
93
95
93
91
87
87
91
89
95
93
93
91
91
91
93
87
89
87
89
89
86
86
86
89
89
87
91
89
89
89
86
82
137
141
141
139
141
139
131
129
127
125
119
117
117
113
110
108
102
104
102
100
102
102
102
100
98
96
96
95
96
98
98
95
95
91
93
91
87
87
89
91
93
93
89
93
89
89
89
89
93
89
89
89
89
89
89
89
89
86
86
87
87
86
82
81
135
141
142
139
139
137
131
127
125
125
121
117
115
113
112
108
104
106
104
100
104
102
100
98
98
96
98
96
96
95
96
95
95
93
95
91
91
87
89
89
87
91
89
89
89
89
91
93
91
89
87
87
89
89
87
87
87
86
86
87
86
84
82
82
133
137
141
137
139
135
129
127
129
125
121
117
117
115
115
112
106
108
104
102
104
102
100
100
96
93
96
100
100
98
98
100
95
95
96
96
89
86
89
89
87
91
91
89
89
87
89
91
91
91
87
86
86
86
86
87
86
82
84
84
84
82
84
82
137
137
137
139
137
135
133
133
129
125
121
119
117
117
117
113
108
106
102
104
106
102
100
98
95
95
98
102
104
102
100
96
93
93
93
95
87
84
87
89
89
91
87
87
91
89
89
91
95
93
87
84
84
86
84
87
84
84
82
84
86
86
81
81
135
135
135
137
137
137
135
131
127
125
123
121
119
117
117
115
108
106
102
104
104
102
100
102
100
100
102
102
102
100
98
95
93
91
93
93
87
86
84
86
89
91
91
91
91
89
87
87
91
91
89
82
84
86
82
86
86
81
81
87
84
82
82
82
133
133
135
137
137
137
133
129
125
125
125
123
119
119
117
115
110
106
104
104
106
102
104
104
102
104
102
98
100
96
95
93
93
89
89
91
89
87
87
84
86
91
95
93
91
89
87
89
87
89
87
82
82
84
82
84
87
82
84
86
84
84
82
82
131
131
133
135
133
131
129
127
123
125
125
123
119
119
115
115
110
106
102
104
106
106
108
104
102
102
104
98
96
93
93
93
91
86
84
86
87
87
89
87
87
87
93
93
93
91
87
87
86
86
86
84
84
86
84
82
84
81
82
84
82
82
79
82
129
129
131
135
131
127
127
125
125
127
125
125
123
119
117
115
112
108
102
102
102
106
104
102
102
100
100
96
95
93
91
91
87
84
86
86
86
87
91
87
84
87
89
89
91
89
87
82
82
84
86
87
87
86
82
81
81
82
82
84
82
82
81
82
127
125
129
133
131
127
129
127
125
127
127
125
121
121
119
117
110
108
104
104
98
100
100
100
100
98
98
96
95
91
93
89
86
87
89
89
87
89
89
89
87
91
91
89
89
87
84
81
82
82
84
86
84
82
82
81
82
82
81
81
82
82
81
81
127
125
127
131
129
127
129
125
125
129
127
125
121
121
119
117
110
108
104
102
104
104
98
100
100
100
98
95
93
91
89
89
89
91
91
89
87
87
87
89
89
86
86
86
86
82
82
79
79
82
82
84
82
81
81
84
82
82
81
77
79
81
77
79
125
125
127
129
129
129
125
125
125
127
127
123
121
121
119
117
110
108
106
104
102
100
100
100
100
102
96
93
93
89
89
89
89
89
89
87
87
86
86
86
86
84
82
84
84
84
82
79
81
82
82
84
81
81
81
84
86
84
81
77
79
82
82
82
125
127
129
127
125
123
121
123
125
125
123
121
121
121
119
117
110
110
106
106
104
100
98
96
96
96
95
93
89
86
87
87
87
87
87
87
87
87
89
87
86
84
84
82
81
81
82
79
79
82
82
82
81
79
79
82
82
81
81
77
77
82
86
84
129
129
127
125
123
125
121
125
125
123
121
119
119
117
119
115
112
110
110
110
106
102
96
96
95
95
95
93
89
86
87
89
89
89
87
87
86
86
84
86
84
86
84
79
79
79
84
84
82
82
81
79
81
81
81
81
81
84
84
82
79
82
87
86
129
127
123
123
121
121
123
125
125
123
117
117
113
113
115
113
112
108
106
108
106
104
100
96
93
93
91
89
87
86
86
89
89
91
86
86
86
84
81
82
82
82
81
74
81
84
86
86
84
82
81
79
79
82
82
81
84
86
86
82
82
84
86
86
127
123
123
123
119
119
121
121
125
121
117
117
115
115
113
112
108
104
104
102
102
100
96
91
89
89
89
89
89
91
87
87
89
91
87
87
86
86
84
82
81
81
77
76
79
84
82
82
82
82
81
81
81
82
84
84
82
84
84
84
82
86
87
86
123
123
119
121
121
121
119
121
123
121
117
115
115
113
113
110
106
104
102
100
98
96
93
89
86
84
87
89
89
91
89
89
89
89
89
87
86
84
84
82
77
77
79
77
79
79
81
81
82
82
82
82
82
86
84
87
84
84
84
82
86
87
87
86
119
119
119
117
119
121
121
121
121
123
117
115
115
112
113
110
104
102
100
98
96
96
89
89
82
84
87
89
89
91
91
91
89
91
87
84
86
87
84
81
76
76
79
82
81
81
82
82
81
84
86
84
84
86
87
87
86
84
84
84
86
86
86
86
121
119
121
119
117
121
123
121
121
121
115
117
115
112
110
108
104
102
100
98
96
95
89
87
84
84
86
87
89
89
91
91
91
89
84
86
86
86
84
81
76
77
79
84
84
79
82
84
82
84
86
86
84
82
84
86
84
82
82
86
82
82
82
84
125
123
123
123
123
123
121
119
119
119
117
115
113
112
110
108
106
100
102
98
93
91
91
87
84
82
82
86
86
89
91
87
87
86
86
84
84
82
79
77
77
79
81
82
84
82
82
81
82
86
87
87
84
79
82
86
86
82
84
87
82
86
84
84
125
123
127
125
121
123
121
121
121
119
117
113
113
112
110
108
104
102
100
98
93
93
91
87
84
84
84
87
89
89
89
87
86
84
86
84
82
82
79
81
77
79
82
82
82
86
86
82
84
87
86
86
84
79
79
84
84
82
84
87
87
86
86
86
125
127
129
125
121
123
125
125
123
119
115
113
113
113
110
108
106
104
100
98
93
93
91
87
84
82
84
84
86
87
87
89
86
84
84
82
82
81
77
77
81
81
79
84
86
84
86
84
84
86
84
84
82
81
81
82
82
84
84
87
87
82
84
84
125
125
127
125
125
125
125
125
121
115
113
113
113
115
110
108
106
104
100
98
96
93
89
87
84
84
84
86
87
87
87
86
82
81
82
84
81
79
77
79
81
82
81
86
86
84
84
87
84
82
82
81
82
84
84
82
84
86
82
86
87
81
81
81
125
127
127
127
127
131
127
123
117
112
112
112
113
115
112
108
104
104
100
98
98
95
89
87
86
84
86
86
87
86
87
86
82
81
77
81
81
79
82
81
82
82
81
84
86
86
86
86
84
86
86
86
82
84
87
86
86
84
82
86
87
82
79
77
119
127
131
131
131
127
125
119
113
112
115
113
113
113
110
106
104
104
102
102
100
95
89
87
86
84
87
86
84
82
87
86
82
81
77
76
77
81
82
82
84
86
84
84
84
84
84
82
86
89
87
87
86
86
87
87
87
86
87
89
86
84
81
84
119
125
129
129
129
125
123
117
115
113
115
117
113
113
108
104
104
106
104
102
102
95
91
89
89
89
91
87
86
87
86
86
84
81
81
77
81
81
81
84
86
86
84
82
84
82
82
84
89
91
89
91
87
86
86
86
86
87
86
89
86
82
82
84
119
125
127
129
127
123
121
119
117
117
113
115
117
113
108
106
108
106
104
102
100
96
91
91
91
89
87
89
89
87
87
86
82
79
81
81
84
86
82
84
82
86
86
82
79
81
81
84
91
95
91
91
89
87
89
86
87
86
84
86
84
82
82
81
123
127
129
127
125
123
123
121
119
117
115
115
115
112
110
108
108
104
104
100
98
96
95
93
89
89
87
91
89
87
86
84
84
82
81
84
86
86
84
86
86
87
86
82
81
84
86
86
93
91
91
89
89
87
89
86
86
84
82
81
79
81
84
84
123
125
127
125
125
125
123
119
117
115
113
113
112
110
110
104
104
104
104
98
95
95
93
89
91
89
91
91
87
86
84
82
84
82
82
86
86
86
86
86
86
87
84
82
84
86
86
89
91
93
95
93
91
87
87
84
82
82
82
82
77
81
86
86
123
123
123
125
125
125
121
117
117
117
115
115
112
108
108
104
102
104
104
96
93
91
93
89
87
91
93
91
87
86
84
84
84
84
82
86
87
87
86
87
86
84
82
84
86
89
89
91
95
91
93
95
91
86
86
86
86
82
82
82
81
84
84
86
119
121
121
121
121
121
119
115
117
119
117
113
112
110
106
106
102
104
102
95
95
93
91
93
93
91
93
89
89
87
84
86
84
86
86
89
87
87
87
84
82
84
87
89
91
93
91
95
95
93
93
93
87
84
86
86
82
82
82
82
82
84
86
86
117
121
119
121
123
123
121
117
117
113
115
113
112
112
108
108
104
102
100
96
96
95
95
93
93
93
93
89
89
86
86
86
86
82
86
87
86
89
87
82
81
86
89
91
93
93
91
93
89
87
87
89
84
82
87
86
84
84
86
86
82
84
86
84
117
119
119
121
121
123
121
119
117
115
113
113
113
112
108
106
104
98
96
96
96
96
96
95
93
95
95
89
87
86
84
86
84
82
86
87
86
86
86
82
84
87
91
93
93
91
93
91
87
86
86
84
79
81
84
82
84
86
86
86
84
84
86
86
115
115
119
123
121
121
119
119
117
115
115
113
113
112
110
106
104
96
96
98
96
96
95
96
96
95
95
91
89
87
87
87
87
84
86
87
89
86
82
84
89
89
91
91
91
89
87
86
87
84
84
81
77
79
84
84
86
86
84
84
84
86
84
86
115
117
121
125
121
119
117
119
119
117
113
113
113
113
112
106
102
95
95
95
96
95
93
95
93
96
96
91
87
87
89
89
89
86
87
89
87
86
86
87
89
91
91
91
91
91
86
84
86
82
79
81
79
79
86
87
86
86
84
84
84
82
84
86
115
117
123
123
121
117
117
119
119
117
115
113
113
113
112
104
98
95
93
91
95
95
93
95
95
93
93
89
86
87
89
89
87
87
86
87
87
87
89
95
91
89
91
91
87
89
86
86
86
82
79
84
82
81
82
84
82
84
82
84
84
86
87
86
113
119
119
121
119
117
117
119
117
115
115
115
117
115
112
104
95
93
93
93
93
95
89
89
93
91
91
89
87
89
89
89
87
86
87
89
89
87
91
93
89
87
93
91
87
87
86
86
87
82
82
86
86
82
82
86
86
84
86
86
87
87
91
86
113
115
115
115
117
115
119
117
113
113
113
112
115
113
112
104
96
93
93
91
93
91
89
87
89
91
87
86
87
93
89
89
87
86
87
93
91
93
91
91
87
91
91
91
89
89
87
86
87
84
84
87
86
84
84
87
87
86
84
87
87
84
87
86
112
112
112
112
115
112
113
113
113
112
113
113
113
110
108
102
96
93
91
89
89
87
87
89
89
91
89
89
87
89
89
89
87
87
89
91
93
91
91
91
89
93
95
93
93
91
87
86
84
84
81
84
87
87
86
84
84
86
84
87
89
86
86
86
112
112
110
112
115
113
113
113
117
113
112
113
113
110
104
100
98
93
91
91
93
91
91
93
93
93
89
87
87
87
86
84
89
91
93
95
93
93
93
93
93
89
93
95
93
91
87
84
84
84
84
87
84
84
84
86
84
82
87
89
93
87
82
82
113
115
113
113
115
115
113
113
113
113
113
112
112
108
104
102
95
93
93
91
93
93
91
93
93
91
89
89
89
89
86
86
87
91
93
95
93
93
95
95
89
91
91
89
91
89
86
84
84
84
84
84
84
84
84
87
86
81
82
89
93
87
86
82
112
113
117
115
112
112
110
110
108
110
113
113
110
106
102
98
93
91
93
89
91
91
93
95
93
91
91
91
93
93
87
87
91
91
93
93
93
95
96
95
89
89
89
87
87
87
84
84
84
86
82
84
86
86
84
86
84
81
82
86
86
86
86
86
112
113
113
115
112
112
110
110
108
108
110
112
108
106
100
95
93
95
91
91
91
91
93
91
89
89
91
93
93
91
89
91
91
91
93
91
95
95
95
95
89
89
86
86
87
89
87
86
87
86
82
84
84
86
86
86
84
79
81
84
84
84
86
86
113
115
115
119
113
113
112
112
112
110
108
110
108
104
100
96
95
95
93
91
91
93
93
91
89
86
86
89
91
89
87
89
91
91
95
93
95
93
93
93
87
89
91
86
87
87
87
87
84
86
87
84
82
82
84
82
82
81
81
84
86
86
84
84
115
115
117
121
115
117
117
115
113
110
110
110
112
108
104
100
98
98
95
91
89
93
93
93
89
84
87
91
87
86
89
91
89
93
91
91
91
91
91
89
87
87
87
86
87
87
82
84
84
87
89
89
84
82
82
84
82
79
81
84
84
86
82
84
113
117
117
121
117
117
117
117
113
110
110
110
112
110
108
104
102
102
96
91
95
95
91
91
87
86
91
93
91
87
87
89
89
89
89
91
89
89
91
89
86
86
86
86
86
84
84
86
86
87
89
86
84
82
82
86
82
81
84
86
87
87
82
84
113
117
121
123
121
119
117
115
115
112
110
110
108
106
106
102
102
102
98
91
93
93
93
93
89
91
89
91
95
93
89
91
91
93
93
91
89
89
89
87
86
84
86
86
86
82
81
86
86
86
86
86
87
82
82
84
82
84
84
84
86
86
84
82
112
115
121
121
121
119
117
117
117
113
112
110
108
106
104
102
102
102
100
93
89
91
93
93
95
96
95
93
93
89
91
93
95
95
95
89
89
87
87
87
87
86
86
86
87
82
81
86
86
82
82
82
84
87
84
82
87
84
86
82
82
86
86
84
110
115
119
121
119
117
117
115
115
115
113
113
110
108
104
106
102
102
98
95
91
91
91
93
96
96
95
93
91
89
91
95
95
95
93
91
89
89
89
87
89
87
87
87
87
86
84
84
86
86
86
84
84
84
84
86
89
84
82
82
84
84
84
82
112
113
121
119
117
117
117
115
113
112
112
115
112
106
104
104
100
98
96
95
93
89
91
91
95
93
95
96
93
91
93
93
93
93
93
93
91
91
91
87
87
86
87
89
87
86
86
84
82
87
89
84
82
84
86
86
84
81
81
82
84
86
82
86
113
115
119
119
117
117
117
115
112
110
108
112
108
106
104
100
95
96
95
95
95
91
93
93
93
93
96
96
95
95
93
93
91
93
93
89
89
91
87
87
89
89
87
89
84
86
87
86
86
89
89
86
86
84
86
86
82
82
84
82
82
86
84
86
115
117
117
117
115
117
119
117
113
110
108
108
108
102
102
102
98
96
93
93
93
95
95
96
98
96
96
96
96
96
95
93
95
93
91
91
89
87
89
89
89
87
87
86
82
86
86
86
87
89
84
86
86
82
84
82
81
82
84
82
84
82
81
84
117
117
117
119
117
117
117
115
113
110
112
110
108
102
100
98
96
93
89
91
93
91
95
96
96
96
96
96
96
95
91
95
93
91
91
91
87
87
91
89
89
89
89
86
84
86
86
82
86
87
86
86
87
84
84
81
82
86
84
84
81
81
86
86
117
121
119
121
119
117
113
110
112
110
108
108
106
100
98
95
95
95
91
91
93
91
95
96
98
98
95
95
93
91
89
91
91
91
87
89
86
87
91
91
93
91
93
89
86
84
86
86
84
84
86
86
86
87
86
82
84
84
84
84
81
84
84
86
113
115
117
119
117
113
113
110
108
106
106
106
104
100
96
93
93
95
91
93
95
95
93
93
93
95
95
93
91
89
89
89
89
87
84
87
87
91
91
91
91
91
89
89
86
82
84
86
84
84
86
87
86
87
89
86
84
84
82
82
84
84
87
86
