P2
# 368 of 608 Angiograms
64 64
255
186
191
192
192
196
202
203
205
209
213
217
218
217
217
217
215
214
212
210
209
209
207
205
203
200
196
195
198
199
199
200
202
203
204
205
205
208
208
207
204
204
203
200
199
198
195
194
196
198
198
198
196
196
196
198
199
199
199
198
196
195
194
194
195
186
189
191
191
194
199
203
205
210
214
217
218
217
215
214
213
213
210
209
209
209
208
207
204
200
196
194
196
196
196
198
199
202
204
205
207
209
208
204
203
203
200
199
199
198
195
194
194
195
196
196
195
192
192
194
195
196
196
195
194
194
192
192
194
189
191
191
191
194
199
204
208
212
216
217
216
214
213
212
212
211
209
209
209
210
208
207
205
202
196
194
195
194
192
195
198
202
204
205
207
208
207
204
203
200
199
198
199
198
195
192
191
192
192
192
189
188
188
191
191
191
192
192
192
192
191
191
192
189
191
191
192
198
200
205
210
214
216
215
214
212
212
210
210
210
209
209
210
211
209
208
205
202
196
194
194
194
192
196
199
203
204
207
207
205
204
203
200
199
196
196
198
198
194
189
185
183
183
183
183
182
183
186
186
185
186
188
191
191
192
194
192
189
191
194
196
200
203
207
211
214
216
214
214
213
213
211
209
208
208
207
209
209
208
207
203
200
196
194
194
196
196
199
199
202
203
204
204
203
202
199
198
196
195
196
198
196
189
183
178
175
177
178
178
178
178
178
180
180
182
186
189
191
191
191
191
189
192
198
202
204
205
209
211
214
214
214
214
214
213
211
208
207
207
207
208
207
205
202
200
198
195
195
196
199
199
199
199
200
200
200
200
199
198
196
195
194
195
196
195
191
183
178
172
172
172
173
173
173
173
173
173
173
178
185
188
188
188
188
188
189
195
199
204
207
208
210
212
214
215
216
215
214
213
211
208
205
204
205
204
203
200
199
198
196
196
196
198
200
200
199
199
198
198
198
196
195
194
192
194
194
194
194
191
185
178
173
168
167
167
168
170
170
170
168
170
173
178
183
185
186
188
186
186
192
195
202
205
208
210
213
214
215
217
217
215
214
213
210
208
205
203
202
200
199
199
198
196
196
196
196
198
200
200
199
198
196
196
196
194
192
189
191
192
194
192
189
185
180
175
172
167
167
165
165
167
168
168
167
170
172
178
182
185
188
188
186
186
192
196
202
207
210
212
214
215
216
217
218
216
213
211
209
207
204
200
199
199
199
199
199
196
195
195
196
198
199
199
196
196
195
196
195
191
188
186
188
191
191
188
183
180
177
173
172
167
165
163
163
165
167
165
167
170
173
180
183
185
188
186
185
185
192
199
204
209
212
214
215
216
216
217
217
215
212
209
207
204
202
199
199
199
200
200
200
198
196
194
195
196
196
196
195
195
195
195
194
188
185
183
185
186
186
183
180
177
175
173
170
165
165
163
161
161
165
165
167
170
175
180
183
185
188
185
185
183
195
202
207
210
211
214
215
217
216
215
215
213
211
207
205
203
200
199
199
200
200
202
202
200
196
195
195
195
195
194
192
192
192
192
191
188
183
182
183
183
182
180
177
177
173
172
170
165
165
161
159
161
161
163
165
170
175
180
182
185
185
185
185
183
196
203
209
210
211
213
215
217
215
214
213
211
207
205
204
202
199
199
199
199
199
199
200
199
196
195
195
194
192
191
189
189
189
189
188
185
182
180
182
182
178
177
175
175
173
170
168
165
165
161
159
159
161
161
165
172
177
180
183
183
183
185
183
183
196
204
209
211
211
213
215
215
214
212
209
207
205
204
204
202
199
199
198
198
198
198
198
196
195
194
192
191
189
188
188
188
186
186
186
182
180
180
180
178
177
177
175
175
172
168
167
165
163
163
161
161
163
165
170
175
178
182
185
185
185
185
183
183
196
204
210
212
212
212
213
213
211
208
205
204
204
203
203
200
199
198
196
196
196
194
194
192
191
189
191
191
189
189
189
186
185
185
183
180
180
180
180
178
177
177
175
173
170
165
165
163
163
163
163
165
167
170
175
178
180
183
185
186
185
185
183
183
195
203
210
212
212
211
211
210
208
204
203
202
203
202
200
199
198
196
196
196
196
195
191
191
188
185
186
189
189
188
188
186
185
183
182
180
178
178
178
180
178
177
175
172
168
165
165
163
163
163
165
167
168
173
175
180
182
185
185
185
183
183
182
183
194
203
209
211
211
210
209
208
205
203
202
203
203
202
200
198
196
195
196
196
195
195
192
189
185
182
183
185
186
186
185
185
185
182
182
180
178
177
177
180
178
177
175
170
167
165
163
163
161
163
165
168
170
172
175
178
183
185
186
183
183
182
180
182
194
202
205
209
210
209
207
207
205
203
203
204
204
202
200
196
195
195
196
198
195
195
192
188
185
182
183
183
183
182
182
183
185
183
180
180
177
175
177
177
175
173
173
170
167
165
165
163
161
163
167
170
170
172
175
178
182
185
185
183
180
182
180
182
194
200
203
205
207
208
207
207
205
205
204
204
204
203
202
199
196
196
198
198
196
195
192
188
185
183
183
183
182
180
178
182
185
183
180
178
177
175
175
175
173
172
170
168
165
163
163
163
161
163
165
168
170
172
172
175
180
183
183
180
178
178
178
178
192
198
200
202
204
208
208
207
205
205
205
205
205
204
203
202
199
198
198
198
196
194
192
191
188
188
188
185
182
180
178
180
182
182
178
175
175
173
173
172
170
170
167
165
161
161
161
161
161
163
163
163
165
167
168
170
175
178
178
178
175
175
175
175
189
194
198
199
202
207
208
207
205
205
207
207
207
205
204
203
200
198
196
198
198
195
194
191
191
189
189
188
185
182
178
178
178
177
175
173
172
172
170
168
168
167
165
163
159
159
158
159
161
163
161
161
161
161
163
167
170
175
177
177
177
175
175
175
186
191
196
198
202
205
208
207
207
208
207
207
207
207
207
205
202
198
196
196
195
195
195
195
192
189
188
186
185
182
180
177
175
173
170
170
167
167
167
168
167
163
161
161
159
159
159
161
163
165
163
163
161
161
161
163
167
172
175
177
178
178
175
173
185
189
194
198
200
204
208
208
209
209
209
208
208
209
209
207
203
198
195
195
195
196
195
195
194
192
188
186
185
182
178
175
172
170
168
167
165
165
167
168
167
163
163
163
161
163
163
163
165
167
163
163
163
161
159
161
165
168
172
173
177
177
173
168
183
188
194
196
202
204
205
208
209
209
209
209
211
211
210
207
202
198
196
196
198
196
195
196
195
194
189
186
183
180
177
175
170
168
168
165
165
165
167
168
168
167
167
165
163
165
167
165
165
167
165
161
163
161
161
161
165
167
170
172
173
173
170
165
182
188
194
198
202
204
204
207
209
209
209
210
211
211
209
205
200
199
198
198
198
196
195
196
196
194
191
186
182
177
175
175
172
172
168
167
167
165
167
168
168
170
170
168
165
165
167
165
165
167
165
161
163
165
165
165
167
168
168
168
170
170
165
161
182
188
194
199
202
203
204
207
208
210
209
210
211
210
209
205
200
199
199
198
198
196
195
194
192
192
191
188
182
177
175
175
173
172
170
167
167
167
167
167
170
172
170
168
165
165
168
167
167
167
165
163
165
168
170
172
168
167
167
165
165
163
158
154
182
188
195
199
200
203
205
207
208
209
210
210
210
209
208
203
199
198
198
196
196
196
194
192
189
189
188
186
182
177
175
175
173
173
170
168
167
167
168
167
168
168
168
167
165
163
165
167
168
168
165
163
165
168
170
172
170
168
165
165
161
156
148
141
182
188
194
199
200
203
207
208
208
210
210
211
210
208
205
200
196
195
194
194
195
195
194
191
191
189
188
185
182
177
173
173
175
173
173
170
168
168
168
170
168
168
167
165
163
163
165
168
170
168
165
163
163
165
167
167
167
165
165
161
156
148
141
131
180
186
192
198
199
204
208
208
209
210
210
210
208
205
202
198
195
192
192
192
194
195
194
192
191
191
188
185
182
177
173
173
173
175
175
173
170
168
168
170
168
167
163
161
163
165
168
170
170
170
165
161
161
163
163
163
163
165
161
158
152
144
135
129
180
185
191
195
199
204
208
208
208
209
209
208
205
202
199
196
194
192
192
192
192
194
194
194
192
189
188
185
180
175
172
170
173
175
175
173
170
168
170
168
167
163
163
165
165
167
170
170
173
170
165
161
163
161
161
161
163
161
159
154
150
142
135
131
180
183
188
194
198
203
207
207
208
208
207
204
202
200
198
196
194
192
192
191
191
192
194
194
191
189
189
186
180
175
170
172
175
175
173
170
167
167
167
167
163
161
163
165
167
170
170
168
170
168
165
163
161
159
161
163
163
161
159
156
150
144
141
137
182
185
188
192
196
200
203
204
205
205
203
202
200
200
198
195
194
191
189
189
189
192
194
194
191
189
188
185
178
175
172
175
177
177
172
168
165
165
165
165
161
159
163
165
167
168
172
172
168
168
167
165
163
161
163
163
163
161
159
159
156
150
144
142
183
186
191
192
195
199
200
202
203
203
203
202
200
199
198
195
192
191
189
188
189
192
192
192
191
188
185
182
177
175
175
178
180
178
173
168
165
165
165
161
161
163
165
165
167
168
170
172
170
168
167
165
163
163
165
168
167
165
163
161
161
158
154
150
185
188
191
194
196
199
200
202
203
203
204
203
200
198
198
195
192
191
189
189
189
191
191
189
188
183
180
178
175
175
177
178
180
178
175
172
167
165
161
158
159
161
163
165
167
168
172
170
172
172
168
167
165
165
168
168
170
168
165
167
165
163
161
158
186
191
194
195
198
202
203
204
204
204
204
203
200
198
196
194
192
192
191
189
188
189
188
185
182
180
178
177
177
177
178
178
180
178
175
170
165
161
158
158
159
161
163
165
168
170
170
170
173
173
173
172
168
170
170
172
172
168
167
168
168
167
165
163
188
192
194
198
200
203
205
207
205
205
204
203
199
198
196
194
194
192
191
189
188
185
185
182
178
178
178
177
177
178
178
178
178
177
172
165
161
158
158
158
159
163
165
167
168
168
167
170
173
175
175
177
175
173
173
173
170
168
168
168
168
168
168
167
189
192
195
198
202
205
205
207
205
205
204
203
200
199
198
196
194
192
189
186
185
183
180
180
178
178
178
177
178
178
178
177
175
173
167
161
158
156
156
158
161
163
165
167
168
167
167
170
173
173
175
177
175
173
173
172
168
167
167
167
168
168
167
167
189
192
194
196
202
204
204
204
204
204
204
203
200
200
199
198
196
194
189
186
183
183
180
180
180
178
177
178
180
178
175
173
172
170
165
161
158
156
156
158
163
165
165
168
168
168
170
172
172
173
173
173
172
170
168
167
167
163
163
165
165
165
165
163
189
191
192
195
200
202
203
203
203
203
202
202
200
200
199
196
195
194
192
188
186
183
182
182
182
180
180
178
178
175
173
172
172
170
167
163
159
158
156
159
163
167
168
170
173
173
173
172
170
172
172
168
168
167
165
165
163
161
159
161
163
163
161
161
188
189
191
194
199
199
200
202
202
202
200
199
199
198
196
195
192
192
192
191
186
185
183
183
183
180
182
180
178
173
170
170
170
168
167
165
161
159
158
159
163
168
170
173
175
177
175
173
168
170
167
165
165
163
163
161
161
159
159
163
163
159
158
156
188
189
191
195
198
198
198
199
200
199
198
198
196
196
195
192
192
192
192
192
188
185
183
183
183
182
182
182
177
172
170
168
170
170
168
168
165
161
161
161
165
168
172
175
177
177
177
172
168
167
165
163
163
163
161
159
159
159
161
165
161
158
156
154
185
188
191
195
196
196
196
199
199
198
198
196
196
195
194
192
192
192
192
191
188
185
183
183
182
182
182
180
177
170
168
170
170
170
172
170
168
167
165
167
168
172
173
175
177
177
175
172
168
165
165
163
163
163
163
163
161
161
163
165
163
159
156
154
183
185
189
195
196
196
198
200
199
198
196
196
195
195
194
192
192
191
189
189
186
185
183
182
180
180
180
178
177
170
168
170
172
172
173
172
168
168
170
170
172
173
175
175
175
173
172
172
168
165
167
167
167
165
165
167
165
163
165
167
163
161
158
156
182
183
188
194
196
198
199
200
199
196
195
195
195
195
194
192
191
188
188
188
186
185
185
183
178
177
177
177
175
170
168
170
172
172
172
172
170
172
172
170
172
175
177
175
173
172
172
170
168
165
167
168
168
168
167
167
167
165
167
167
165
163
159
158
182
183
188
192
196
198
200
200
199
196
195
194
192
192
191
191
189
186
188
188
186
186
186
186
180
175
175
175
173
172
170
170
173
173
173
172
173
173
172
170
172
175
175
175
175
173
172
170
167
167
168
168
170
168
167
163
163
163
165
167
165
165
161
159
178
182
186
191
195
198
199
200
200
196
194
192
191
191
191
191
191
189
188
188
188
188
189
188
182
175
173
175
173
173
172
172
173
173
175
173
172
173
172
170
172
172
173
172
173
173
172
170
167
167
168
168
170
168
165
161
159
161
167
168
168
168
167
167
173
178
183
189
194
196
199
200
199
196
194
189
189
189
191
194
192
191
189
189
189
188
188
188
182
175
172
172
175
175
173
173
173
173
173
173
173
172
170
170
170
172
172
172
172
173
172
170
163
165
168
167
167
167
167
161
159
163
167
170
172
173
172
173
170
173
178
185
191
196
200
202
199
198
195
191
189
189
191
194
194
191
189
189
189
188
188
186
182
175
172
170
173
175
175
175
177
175
175
173
172
170
170
170
172
170
170
172
172
172
170
167
163
165
168
168
168
168
167
165
165
167
172
177
178
180
180
178
168
173
178
183
188
195
200
203
202
199
196
194
191
191
191
192
194
192
189
189
188
186
186
185
180
175
172
170
172
173
175
175
177
177
175
173
172
170
170
170
172
170
170
170
170
170
168
165
161
163
165
170
170
170
170
170
170
173
177
180
180
182
183
183
170
173
178
183
186
195
200
202
202
202
199
195
192
191
191
192
195
194
192
191
189
186
185
183
180
173
172
170
168
172
173
173
175
177
175
173
172
170
168
170
170
167
168
168
168
168
167
161
161
159
163
167
170
172
172
172
175
178
180
180
182
182
183
183
168
173
178
182
186
195
200
200
202
203
202
198
194
192
191
194
195
195
194
192
189
186
185
182
178
172
167
167
167
168
172
172
173
175
175
173
172
172
172
170
168
168
170
170
168
167
165
161
159
158
159
163
168
172
172
175
178
180
182
182
183
182
182
180
165
170
177
182
188
196
200
202
204
204
202
198
195
194
192
195
196
195
192
192
191
188
185
182
177
170
165
165
167
170
170
172
173
175
175
177
175
175
173
172
170
172
172
172
170
168
165
163
159
158
159
163
167
172
173
177
180
182
183
183
182
182
180
177
163
168
175
182
189
198
202
204
204
204
202
198
196
194
194
195
196
196
194
192
192
189
186
182
177
172
167
167
170
172
173
173
175
177
178
180
180
180
180
177
173
173
175
173
172
168
167
165
161
158
159
163
167
170
175
180
182
185
185
185
185
180
177
175
165
168
177
185
192
198
203
205
204
204
202
199
196
194
194
194
196
198
196
194
192
189
186
182
178
173
170
172
173
175
175
175
177
180
182
183
185
183
182
180
177
175
175
173
173
172
168
167
163
161
163
165
168
172
178
180
185
185
185
186
186
180
175
173
165
170
178
188
195
199
202
204
205
204
203
199
196
194
194
195
196
198
196
194
189
185
183
182
178
175
173
173
175
175
177
178
180
183
186
188
188
186
183
182
178
177
175
173
173
173
170
168
165
165
167
168
170
175
178
182
185
185
183
183
186
180
175
173
167
172
182
189
196
199
202
205
205
205
203
200
198
195
195
195
196
196
195
191
185
183
183
182
178
175
173
175
177
178
180
180
182
186
191
191
191
188
185
182
178
177
175
173
173
173
172
170
168
168
170
170
172
175
182
185
185
186
185
185
185
182
177
173
167
173
182
189
196
200
202
205
207
207
204
202
199
198
196
196
196
195
192
186
183
182
182
180
177
173
175
178
180
182
180
180
183
189
192
192
192
189
185
182
177
175
173
173
172
172
172
172
172
173
175
175
177
180
185
186
188
188
186
186
185
183
180
177
168
175
182
188
195
198
200
204
207
207
204
202
200
199
198
198
196
195
191
186
183
183
182
180
175
173
177
178
180
180
180
180
183
188
191
191
189
186
183
178
175
172
172
172
170
170
172
173
175
180
182
180
180
183
186
189
191
191
191
189
186
183
182
180
168
175
180
186
192
198
200
205
207
205
204
202
200
200
200
198
196
194
191
186
186
186
183
180
177
175
177
180
178
177
177
178
182
185
188
186
185
183
180
175
172
170
170
170
168
170
172
175
178
182
185
185
185
186
189
191
192
194
194
191
189
186
185
183
168
175
180
185
192
198
202
205
207
207
204
203
200
200
199
198
195
194
191
188
188
188
186
182
178
178
178
180
178
177
175
177
180
182
182
182
180
180
177
172
167
167
168
170
168
172
175
178
182
185
186
186
186
188
189
192
194
195
196
195
192
191
188
185
170
175
180
186
194
199
204
207
208
207
204
203
202
200
198
195
194
192
189
186
186
188
186
185
182
182
180
180
178
175
173
175
178
178
178
178
178
177
173
168
165
165
168
170
172
177
178
180
183
185
186
186
188
188
189
192
194
195
196
196
194
192
189
186
173
178
183
189
195
203
207
208
208
208
208
204
202
199
196
194
192
191
188
186
186
186
188
186
185
185
183
182
178
173
172
173
177
178
178
177
175
175
170
168
165
167
170
172
175
180
182
182
185
185
183
185
186
186
189
192
195
198
198
196
194
192
189
188
177
182
186
194
199
204
208
209
209
210
209
207
202
198
196
194
192
191
189
188
188
189
189
188
186
183
183
180
177
172
168
172
175
177
177
175
173
172
170
170
168
170
173
175
177
182
183
185
185
185
183
183
186
188
191
194
196
198
196
194
192
191
188
186
180
186
191
196
202
205
208
209
209
210
209
208
204
199
196
194
191
192
191
189
191
191
191
188
185
183
182
180
175
168
168
170
172
173
173
173
172
170
172
173
173
175
175
177
180
183
186
188
188
188
186
186
189
192
195
196
198
196
195
192
191
189
186
183
182
188
194
198
200
205
208
209
209
209
209
207
204
202
198
195
192
191
191
192
192
192
192
188
185
183
182
178
173
168
167
168
170
172
172
172
172
172
173
175
177
178
178
180
182
186
188
189
189
189
191
192
195
198
199
200
199
196
195
194
191
188
182
180
