P2
# 370 of 608 Angiograms
64 64
255
97
97
97
97
99
101
101
95
95
93
93
92
92
92
90
90
90
86
86
85
85
83
83
86
88
88
85
85
85
90
93
88
88
88
86
88
92
97
97
99
97
95
97
97
95
97
97
95
97
97
99
99
97
97
99
101
101
99
95
97
101
99
104
102
99
95
97
101
101
99
97
97
97
92
92
93
90
93
93
90
90
86
88
88
86
85
83
86
90
90
86
86
88
90
90
92
92
92
90
86
88
92
95
95
95
97
97
93
97
95
97
97
97
97
101
99
95
97
97
97
99
101
97
97
99
101
102
102
95
97
97
101
99
99
99
97
97
97
95
95
92
92
93
93
93
88
88
88
88
83
83
88
83
86
86
90
90
90
90
92
93
92
88
86
92
95
95
95
93
95
95
99
101
99
97
97
97
99
101
102
99
97
97
95
95
97
97
99
101
101
102
104
99
99
99
99
99
101
102
97
95
97
99
95
93
93
93
92
92
92
90
90
90
88
88
90
90
90
92
92
90
90
90
88
88
86
88
92
95
93
99
95
93
90
93
99
99
99
97
93
93
97
101
99
99
97
93
93
93
95
97
99
104
101
102
102
97
97
93
95
99
102
102
101
97
101
99
95
92
92
97
93
92
95
93
88
88
92
93
90
88
93
95
93
92
92
92
90
86
88
88
92
93
93
95
95
95
93
95
97
97
97
93
92
93
97
97
93
95
95
93
95
99
97
97
97
102
99
101
101
95
93
93
95
101
102
102
102
101
101
99
97
95
95
97
93
92
93
90
90
88
92
97
92
90
93
95
93
92
95
93
90
88
92
93
93
95
92
92
93
97
101
97
95
99
97
92
95
97
95
93
93
97
95
95
99
99
97
95
93
99
99
99
101
93
92
97
99
101
101
101
99
102
102
97
93
93
99
93
93
95
93
92
92
90
93
95
88
92
95
95
92
88
92
92
90
86
90
93
93
92
90
93
95
95
95
95
97
99
95
95
97
97
93
90
97
97
93
97
97
99
99
99
95
97
97
99
101
92
92
97
99
101
101
101
101
102
102
99
95
97
97
95
93
93
93
93
92
92
95
95
93
93
92
92
92
88
88
88
90
88
92
92
93
92
90
92
95
97
95
97
95
93
93
93
95
95
95
95
95
93
95
97
97
93
95
97
93
93
95
101
101
92
93
97
101
102
101
97
101
101
101
97
97
95
93
97
97
95
92
92
93
92
93
95
93
93
93
93
92
90
88
88
95
93
90
90
95
92
92
90
95
95
95
95
93
95
95
95
95
97
95
95
95
92
97
99
95
92
93
99
93
92
97
99
101
88
93
93
97
99
101
99
102
102
101
99
99
95
95
93
95
97
95
95
95
95
95
93
92
90
92
95
95
93
90
86
93
93
92
93
93
93
93
93
93
93
93
95
95
95
97
97
97
95
97
95
93
95
99
95
93
95
97
99
95
95
97
97
101
88
95
93
93
101
102
99
99
99
97
97
99
97
95
93
95
97
99
97
97
99
95
95
95
95
93
95
99
97
92
88
90
90
92
92
90
92
92
93
95
97
97
99
97
97
99
101
101
93
95
95
95
95
97
93
92
99
102
101
95
95
97
97
99
93
95
93
93
101
99
99
97
97
97
97
99
97
95
97
95
99
101
97
97
97
95
97
95
92
95
93
93
93
92
92
92
92
93
93
92
90
93
92
93
101
97
99
97
99
97
99
99
95
95
93
93
93
97
95
95
99
99
95
97
95
95
97
95
90
90
90
95
97
97
97
95
95
95
95
95
95
95
95
95
97
101
99
99
99
99
95
93
95
97
99
97
93
95
92
90
92
92
90
93
93
93
92
93
99
97
95
97
97
95
95
97
97
99
97
95
99
97
95
95
95
95
99
99
95
97
97
97
90
88
88
93
99
99
97
95
97
95
93
93
95
97
101
101
101
104
101
99
97
97
95
97
93
92
97
97
95
97
93
93
92
90
92
95
92
95
93
97
95
92
92
93
95
93
93
99
101
104
101
99
97
95
95
95
97
99
101
95
97
97
93
95
88
86
88
92
97
95
97
99
95
93
93
95
99
101
101
102
106
104
104
102
97
99
97
99
97
95
97
99
95
97
95
95
92
92
93
97
93
93
97
97
93
92
93
95
95
93
95
95
95
99
99
99
99
95
93
95
99
99
99
95
99
97
97
99
86
88
88
92
93
95
95
95
92
92
90
93
95
101
101
102
104
106
104
101
97
99
101
99
99
99
99
99
95
95
97
93
92
92
93
97
95
97
99
97
92
93
97
97
95
92
93
95
95
93
95
97
99
97
93
93
101
99
99
101
99
101
101
101
92
90
88
90
93
97
95
93
92
92
93
95
97
101
101
108
108
106
104
101
99
99
101
99
97
97
101
95
97
95
97
95
93
92
92
95
99
97
97
97
92
93
95
93
95
93
92
93
95
93
93
93
95
95
93
95
99
97
97
101
102
101
101
101
92
88
88
90
90
92
93
93
93
95
97
99
101
101
101
106
110
106
104
101
97
97
99
97
97
99
99
95
97
95
99
97
95
93
93
97
97
95
93
95
92
93
99
95
95
93
95
92
95
97
99
97
99
99
95
95
97
95
97
99
102
101
106
102
92
86
88
88
90
90
90
93
92
95
99
102
99
102
104
106
106
106
104
101
99
95
97
95
93
97
99
99
97
97
97
95
93
92
95
97
99
95
95
99
95
99
102
101
99
97
97
93
95
97
97
99
99
97
99
99
97
97
99
97
99
102
104
104
92
86
88
88
92
92
88
93
92
95
97
102
102
106
104
102
104
104
101
95
95
99
101
95
92
95
99
97
95
97
95
95
93
92
95
97
101
99
99
102
101
101
101
101
101
95
99
95
99
99
95
99
101
97
99
95
95
93
97
97
97
101
101
99
90
85
86
90
95
90
88
95
97
101
102
104
102
102
106
108
108
104
99
93
93
99
97
93
95
95
95
95
97
97
97
95
95
97
97
99
101
101
99
101
102
102
102
102
102
102
99
101
102
102
99
101
101
101
99
95
95
93
95
99
99
101
101
101
85
86
88
90
93
95
93
97
99
102
102
99
99
97
102
104
102
99
93
90
93
93
95
97
99
97
97
99
101
101
101
99
97
97
102
102
102
102
101
104
104
102
99
104
104
101
102
104
102
102
102
99
102
102
101
102
101
95
99
99
99
99
102
102
88
86
88
86
92
97
95
97
99
101
99
99
99
97
99
101
97
93
93
95
92
95
95
95
95
95
97
97
97
101
102
99
101
101
102
106
108
108
106
110
108
104
102
102
102
106
104
106
101
99
99
101
102
101
99
101
104
99
99
99
97
99
104
102
86
85
90
90
95
97
97
99
102
95
97
101
99
95
95
99
93
92
95
97
95
97
99
97
95
93
95
93
95
97
101
101
99
102
102
106
110
110
108
110
110
106
104
104
102
104
108
104
102
99
99
101
101
101
99
97
101
101
101
101
97
97
101
102
88
88
90
92
95
97
101
101
104
97
93
97
99
95
95
95
92
90
93
95
95
101
102
101
97
95
97
95
93
95
97
97
99
104
104
104
108
112
108
108
110
106
104
104
104
104
104
102
102
104
102
101
102
106
102
99
97
102
104
102
101
99
101
101
90
90
93
95
99
102
102
101
101
99
93
95
93
93
90
90
92
92
95
95
95
99
102
101
99
99
101
101
99
99
101
102
102
104
108
104
106
112
110
108
110
110
108
106
110
104
104
101
102
106
104
102
104
104
106
101
97
101
102
101
99
101
101
102
95
92
92
95
99
101
101
101
99
99
95
92
92
88
86
93
95
92
95
97
99
102
101
101
101
101
102
102
102
101
102
102
102
106
106
104
104
110
110
108
108
108
108
110
108
102
101
102
104
104
102
106
106
106
104
106
101
102
102
101
99
102
102
102
95
95
92
93
93
97
97
93
93
95
93
93
92
85
86
93
93
92
93
97
97
101
102
102
101
101
102
101
102
99
99
102
106
108
110
108
108
110
110
110
106
104
106
108
108
106
102
106
104
106
102
102
106
106
106
106
104
102
104
104
104
104
108
110
97
95
95
93
93
97
97
93
93
95
93
88
90
86
86
88
92
92
93
97
101
99
102
102
95
101
102
99
99
102
102
104
106
108
106
108
110
112
108
108
108
106
106
110
110
108
102
102
101
101
104
104
104
106
106
106
102
101
102
106
104
104
108
108
93
93
95
95
95
95
97
97
93
93
90
85
86
88
88
86
88
92
95
102
104
102
101
101
101
99
99
101
104
102
102
106
108
108
104
106
112
112
110
108
110
114
110
110
108
106
106
102
99
97
99
102
104
102
102
104
106
104
106
104
104
106
106
108
93
93
93
93
95
93
97
95
93
93
92
88
88
90
90
90
92
95
101
106
104
102
102
104
106
102
101
102
106
104
106
104
106
106
104
108
112
116
114
117
116
114
112
110
112
106
106
108
104
101
101
99
104
99
99
104
106
106
106
104
106
106
102
102
93
92
92
90
92
90
93
93
93
93
92
90
90
93
92
93
97
99
101
104
102
97
101
106
108
106
104
106
108
108
110
104
104
106
110
112
114
116
117
119
117
114
114
114
110
108
106
108
106
104
104
102
104
106
102
102
101
102
106
104
106
104
102
102
97
97
92
90
92
95
93
92
92
88
88
90
92
97
95
97
101
101
99
101
102
97
101
102
104
106
102
106
106
106
108
112
110
110
114
116
116
117
117
117
117
117
117
116
108
108
110
108
104
104
106
104
104
102
102
102
99
101
104
102
104
102
102
104
95
95
92
90
92
97
95
90
88
88
90
90
93
97
99
99
101
101
101
101
101
101
101
101
102
104
101
102
106
104
102
106
108
110
110
114
114
114
114
112
110
116
116
114
110
108
108
108
104
102
104
106
102
101
102
104
102
102
104
104
106
102
102
102
93
92
92
86
88
95
93
93
90
90
92
92
93
95
99
97
99
99
101
102
102
102
108
104
104
104
102
104
104
104
102
104
108
112
114
112
114
114
114
114
112
116
114
116
110
110
108
108
106
104
106
106
106
104
102
104
102
102
102
104
102
102
106
102
95
92
92
88
90
93
95
92
92
92
93
95
92
93
95
99
101
101
101
101
99
102
104
101
104
102
102
102
102
104
106
110
110
110
116
114
116
117
116
116
116
114
114
114
112
110
108
108
110
108
108
108
106
106
108
108
104
102
99
102
102
102
104
102
90
92
93
93
93
97
97
92
93
90
92
93
92
93
95
97
97
99
99
97
97
101
102
104
102
101
99
101
102
102
104
110
112
112
112
116
117
117
117
116
116
116
114
112
108
114
112
106
106
108
110
106
104
106
106
104
106
102
102
102
104
104
102
99
90
93
93
95
97
99
99
93
92
90
92
93
93
97
95
93
95
97
97
97
101
102
97
102
101
104
102
102
102
102
108
112
116
117
116
117
114
114
116
114
116
117
114
114
112
112
110
106
106
110
112
108
104
106
106
104
104
102
104
101
101
102
104
99
90
95
97
95
97
99
102
97
93
93
93
93
95
99
95
93
99
99
97
97
101
101
97
99
102
102
102
101
101
102
106
114
116
117
119
119
112
114
116
117
114
116
114
112
112
110
112
110
112
112
110
110
106
106
106
102
102
106
102
101
101
99
101
99
86
95
97
95
99
102
101
95
95
93
93
97
95
93
95
97
97
95
97
101
102
101
99
99
102
101
102
102
102
102
106
108
114
114
114
116
114
114
116
114
112
114
116
112
112
112
114
116
116
112
110
112
110
108
106
106
106
106
104
102
101
99
101
102
88
93
93
97
99
99
101
99
97
95
95
97
97
97
95
95
97
97
97
99
101
99
99
101
101
102
102
102
101
104
108
110
112
112
112
114
116
112
112
116
114
114
117
116
112
112
112
112
108
110
110
110
112
112
106
106
108
106
102
102
99
102
102
104
92
93
95
97
99
99
97
97
97
97
97
97
99
97
93
97
99
97
99
99
101
104
104
101
102
104
102
102
101
106
112
112
112
114
112
112
114
110
114
117
114
117
117
114
114
112
114
110
106
112
108
108
108
108
106
108
106
106
104
102
99
101
102
102
93
95
97
97
99
99
95
97
97
95
95
93
93
92
95
97
97
95
99
99
99
101
106
104
108
108
104
101
99
102
108
110
110
112
112
114
112
112
116
117
116
116
112
112
116
114
114
114
110
112
110
110
106
108
106
106
108
104
102
104
101
99
101
101
93
95
95
97
104
102
99
95
97
95
97
92
92
95
99
99
99
101
99
99
101
102
104
108
106
110
106
101
99
102
106
112
112
112
110
110
112
112
117
119
117
114
112
110
114
116
114
114
112
110
108
112
108
108
108
108
110
106
104
101
99
99
99
99
99
99
101
102
106
104
101
99
97
99
97
95
95
99
102
104
99
101
99
97
99
99
102
104
104
104
101
95
99
104
104
110
112
108
106
110
110
114
116
119
117
114
114
114
116
116
114
112
112
110
110
112
112
108
110
110
106
104
102
104
102
101
101
99
97
97
99
101
104
104
104
102
101
101
101
99
99
102
106
106
102
99
99
99
97
97
101
101
104
104
102
101
101
99
101
106
110
110
106
110
114
116
116
116
114
116
116
112
116
114
112
112
112
110
110
106
110
108
108
106
102
106
104
106
102
101
102
101
95
101
99
102
101
101
104
104
101
97
97
101
104
108
106
106
106
104
102
102
102
101
102
102
104
104
101
102
101
97
104
108
112
110
110
108
110
112
117
117
112
114
116
110
110
108
108
110
114
112
108
108
108
106
106
104
102
102
104
104
102
102
102
101
97
101
102
99
97
101
102
102
97
95
97
99
102
106
102
102
104
102
101
102
102
102
104
104
104
102
101
102
102
101
102
106
110
110
114
110
114
114
114
119
121
117
114
110
110
112
110
108
112
114
112
106
108
106
106
104
104
102
104
106
104
104
99
99
99
102
104
104
101
102
104
102
97
95
95
97
97
99
101
99
104
102
101
101
99
101
101
104
104
104
101
99
99
104
106
108
112
112
112
114
112
116
114
117
117
112
112
110
112
112
110
110
110
110
112
108
108
106
106
110
110
104
104
106
102
104
101
97
102
106
106
106
104
102
104
106
101
101
99
95
97
93
97
101
106
102
101
102
101
101
104
108
106
104
99
99
101
104
108
110
108
110
112
112
114
114
116
114
114
110
112
112
112
110
108
112
112
110
108
104
104
106
108
110
110
104
104
101
101
102
101
97
104
106
104
104
104
104
104
104
102
102
99
92
93
92
97
101
106
102
101
102
99
101
101
106
108
104
102
101
106
112
110
106
106
108
110
110
112
114
116
114
112
110
112
112
112
110
110
112
112
110
108
108
106
104
106
108
106
104
104
102
102
104
104
101
102
101
101
102
104
108
106
108
104
102
102
95
90
90
95
101
106
104
101
101
101
101
102
104
104
106
104
104
104
108
106
106
104
106
108
110
112
114
116
114
114
108
106
110
112
112
110
110
110
112
110
108
108
106
106
108
106
106
104
102
104
106
104
104
99
101
102
106
106
108
104
108
104
99
97
93
88
90
95
97
101
101
101
102
104
104
106
104
106
104
104
104
102
104
106
106
106
106
110
112
110
112
116
112
110
110
110
112
114
114
110
110
108
106
106
108
108
108
108
106
108
108
104
101
104
104
104
106
99
101
101
104
108
108
104
106
106
101
97
97
92
92
95
93
99
99
102
102
102
102
108
106
106
104
104
106
104
102
106
108
110
110
112
116
114
114
114
112
110
112
112
114
112
110
112
114
110
106
108
106
104
108
112
106
108
108
102
104
104
104
104
106
99
101
101
104
108
106
106
106
104
101
97
97
92
90
88
90
95
99
102
101
104
104
106
108
110
104
101
102
108
104
106
106
108
110
108
114
114
112
110
112
110
110
112
112
112
112
112
110
110
108
108
106
108
106
110
108
108
104
102
106
106
106
106
106
101
101
101
102
102
102
106
106
101
97
95
95
93
88
85
90
93
97
102
102
104
106
108
110
110
106
99
99
102
106
106
106
110
110
108
106
112
112
110
112
110
110
108
110
110
110
110
110
108
106
104
106
108
108
106
110
110
104
104
104
106
106
106
110
99
99
101
101
102
104
104
102
99
99
97
95
92
85
85
92
97
97
102
108
106
104
104
108
110
106
102
95
99
102
104
108
112
114
114
110
110
112
108
108
108
106
108
110
110
108
104
110
110
108
108
106
106
106
106
108
108
106
106
102
106
108
104
108
101
99
101
99
99
101
102
101
99
97
97
95
93
90
86
90
97
97
99
106
108
106
106
110
110
106
102
97
99
104
104
108
108
112
110
114
114
112
110
110
106
106
108
108
108
106
106
108
110
110
106
104
108
108
108
104
106
106
106
106
106
110
106
110
99
99
101
99
99
97
99
99
97
97
99
99
95
90
88
88
92
97
99
102
104
106
108
106
106
104
106
101
101
102
104
106
108
112
112
112
114
112
114
110
108
108
110
108
106
108
108
108
106
108
106
106
106
110
108
108
106
106
108
106
104
106
104
106
99
97
99
101
99
97
99
99
97
97
102
101
95
93
93
90
90
93
99
101
106
106
104
106
104
106
104
101
101
104
104
108
110
108
106
110
110
114
114
114
110
110
110
108
110
110
112
112
110
108
110
108
108
106
110
108
104
106
108
106
110
110
102
101
99
102
99
102
102
99
95
97
99
97
101
99
93
97
95
88
90
92
92
95
101
102
104
106
106
104
106
104
102
102
102
108
112
108
108
108
110
114
114
114
110
112
112
114
114
114
114
110
110
110
108
106
106
106
106
104
104
108
108
112
112
110
106
102
99
101
97
99
102
101
97
97
99
97
101
101
97
95
92
86
88
90
88
92
95
101
104
108
106
104
106
104
106
104
104
104
106
108
110
110
110
110
110
108
112
114
114
114
112
114
110
112
112
112
110
104
102
104
106
106
104
106
102
108
112
110
104
102
97
99
95
97
99
97
97
99
101
101
95
97
93
93
90
88
85
86
92
90
93
101
102
106
104
104
104
104
108
106
104
101
101
106
108
108
110
108
110
112
112
114
110
112
114
116
114
112
110
108
108
106
108
106
106
106
106
106
102
104
106
102
102
104
93
92
92
93
97
97
97
101
99
97
93
95
93
92
90
90
85
85
88
88
95
102
104
104
102
104
106
104
104
106
108
106
104
110
110
110
112
106
110
110
112
114
110
112
116
116
114
112
110
106
108
106
106
106
110
106
106
106
104
106
106
106
106
102
