P2
# 379 of 608 Angiograms
64 64
255
100
102
100
100
95
93
91
91
89
87
87
86
87
87
87
86
86
87
87
87
89
91
95
93
93
95
96
96
98
96
93
95
95
91
93
89
84
84
87
91
91
91
89
89
89
89
87
86
82
77
79
84
86
89
91
91
91
91
91
91
87
89
95
96
102
102
102
98
96
95
95
93
91
89
86
87
87
89
89
87
86
86
87
87
89
93
95
96
96
98
96
96
96
98
96
96
93
89
89
86
86
86
87
91
91
91
89
91
89
86
86
82
79
79
79
84
86
87
89
89
91
91
91
91
93
95
95
96
104
104
104
100
102
98
98
95
93
89
87
86
87
87
89
89
89
87
87
89
91
96
96
96
98
98
95
95
95
95
93
93
91
89
91
87
86
86
87
91
91
91
93
91
89
87
87
84
79
81
79
82
84
86
87
91
89
89
89
93
96
96
96
96
100
106
106
102
102
102
98
95
91
87
89
87
87
87
87
87
86
87
84
87
91
96
98
98
96
98
96
95
93
95
91
89
91
91
91
89
86
86
86
89
91
93
95
93
91
89
87
86
82
79
79
82
84
87
89
89
89
89
87
93
96
98
96
96
102
106
108
104
100
102
100
96
91
89
87
86
87
91
89
87
84
82
84
86
89
95
96
96
95
96
98
96
96
95
93
91
91
89
91
91
91
87
89
89
87
91
93
93
95
93
89
89
82
79
79
82
84
86
89
87
89
91
91
89
95
96
96
96
104
104
106
104
100
98
96
95
91
91
89
86
89
89
89
89
87
86
87
87
91
91
93
98
96
96
96
96
95
91
89
89
89
93
93
93
95
91
91
93
89
93
95
95
96
95
91
89
84
81
81
82
86
87
87
86
87
91
91
91
93
95
93
96
106
106
106
102
102
95
96
95
93
89
89
89
91
91
91
91
89
89
89
91
95
93
95
96
96
95
96
95
93
91
93
91
93
95
93
91
95
95
93
95
93
96
96
96
98
96
93
89
84
86
84
84
82
84
86
86
89
91
89
93
95
96
95
96
106
106
108
106
102
96
96
96
93
87
89
89
91
89
91
93
91
91
89
89
91
93
95
96
98
96
98
96
95
93
95
95
95
96
96
93
91
91
93
95
96
98
96
96
96
98
93
89
82
81
84
87
86
86
86
87
86
87
87
95
96
96
98
98
106
104
104
104
98
95
93
91
91
87
87
91
89
87
89
91
89
89
91
91
93
95
93
98
100
96
96
95
93
95
96
95
93
96
98
96
91
93
95
93
95
96
96
96
96
96
95
89
86
84
84
86
86
86
87
86
82
86
89
95
98
98
95
96
106
108
104
102
98
95
91
91
89
91
91
93
91
87
86
87
89
89
89
93
95
93
93
95
98
96
95
95
91
95
95
93
93
95
95
95
96
96
95
93
95
96
95
93
93
93
93
89
87
86
86
86
86
87
86
86
84
87
93
95
96
95
93
95
108
106
102
100
98
93
91
89
89
93
93
91
89
86
91
91
87
89
93
96
95
91
93
95
96
95
93
95
95
93
96
93
95
95
95
96
96
98
95
98
96
93
95
93
93
93
89
87
86
84
82
84
86
87
86
86
87
86
87
91
91
91
93
91
106
102
100
100
95
89
89
89
91
91
87
86
87
89
91
91
89
93
95
95
95
91
91
93
95
93
93
93
93
93
96
96
96
93
95
96
95
95
93
95
96
93
95
95
93
91
89
87
86
82
81
81
84
82
84
87
91
87
86
89
89
91
91
89
104
102
100
95
91
89
89
89
89
89
87
86
89
93
91
91
87
91
93
93
93
91
89
91
91
93
93
91
95
95
93
93
93
93
93
95
95
93
93
93
93
93
95
95
91
91
93
89
86
86
86
86
86
84
84
84
86
86
86
87
91
91
89
89
102
100
98
95
91
91
91
89
86
87
87
87
87
87
89
89
86
89
91
89
91
89
89
91
93
91
93
93
96
100
96
91
93
93
93
93
91
91
91
91
91
93
95
93
93
93
91
86
86
86
86
89
87
86
84
81
81
82
84
86
87
89
89
87
95
96
95
93
91
91
91
91
87
87
91
91
91
87
89
87
84
87
91
91
91
91
93
93
93
93
93
95
96
98
96
93
93
91
89
89
89
89
87
87
89
93
93
95
95
95
91
87
87
84
86
87
86
84
79
77
76
79
82
82
84
86
86
84
86
87
89
89
91
89
91
91
89
89
87
89
89
89
87
89
87
87
89
93
95
95
95
98
98
100
96
93
95
96
95
95
93
91
87
91
91
89
89
87
89
93
95
95
96
95
91
89
87
87
84
84
84
81
79
76
76
76
77
79
79
82
84
86
81
84
86
86
87
87
89
87
91
84
87
89
91
89
89
87
87
89
93
95
95
96
95
96
98
100
98
93
98
96
95
96
95
91
89
93
91
91
91
91
89
91
95
96
93
91
89
89
91
87
84
82
84
81
76
76
76
72
74
79
79
82
86
87
76
79
82
86
86
87
87
89
91
87
87
89
87
89
89
87
87
91
93
93
93
93
95
96
96
98
96
96
95
95
96
95
95
91
91
91
91
91
93
93
89
91
93
95
95
93
87
89
87
86
86
81
79
77
76
77
76
72
76
77
81
84
87
91
71
74
79
81
82
84
87
89
87
87
87
91
91
89
87
89
91
89
91
93
91
93
95
95
96
96
95
95
95
95
95
95
91
87
91
93
91
89
93
89
91
95
91
93
89
89
89
87
87
86
82
77
76
74
76
79
77
77
76
77
82
86
89
93
69
71
72
76
79
82
84
86
86
87
86
89
91
89
87
87
93
95
95
95
93
95
95
96
96
95
96
95
93
91
91
93
93
91
91
89
89
91
91
89
89
91
89
89
91
87
86
84
82
81
79
76
74
74
77
76
76
76
77
77
82
87
91
93
68
68
71
72
76
77
79
81
86
87
87
89
89
91
89
87
91
96
96
95
93
96
98
96
98
96
93
93
93
93
91
91
95
91
91
89
87
89
89
89
87
89
89
89
89
86
82
81
81
77
76
74
72
74
76
76
76
74
76
81
86
87
89
93
68
69
72
72
74
76
76
79
84
86
91
93
91
89
89
93
93
95
95
95
96
96
98
95
98
98
95
95
95
93
93
95
93
93
91
93
89
87
86
87
87
87
89
89
87
84
82
81
76
77
74
74
74
76
77
77
77
77
79
81
86
87
89
93
72
71
69
69
74
74
74
77
81
84
87
91
95
93
93
93
91
91
93
95
96
98
98
98
98
95
95
96
96
95
95
93
91
91
91
91
89
86
84
84
87
87
87
86
86
82
81
77
76
71
71
74
74
74
76
79
77
79
77
81
86
91
91
91
71
69
69
69
72
72
72
74
77
81
84
89
93
91
91
93
91
89
93
91
93
95
96
96
96
95
95
96
98
98
93
95
91
91
91
89
89
86
84
84
86
84
86
84
82
82
82
79
72
69
72
77
74
74
77
76
74
79
81
82
86
91
95
93
69
66
68
69
69
69
71
69
72
77
81
84
89
91
93
91
95
95
93
93
93
96
98
95
95
95
98
100
100
96
95
93
95
93
91
89
87
86
84
84
84
84
84
84
82
82
79
79
76
72
74
74
77
79
81
79
76
79
81
82
89
93
95
95
69
71
71
68
66
65
66
66
71
72
76
81
86
89
93
93
95
96
93
95
93
96
98
96
95
96
98
100
100
98
95
93
89
89
87
87
87
86
84
86
86
84
84
81
82
81
81
79
81
79
76
74
76
81
79
77
77
79
81
84
91
93
93
96
72
71
69
68
66
65
65
65
66
69
72
76
81
86
89
91
95
93
93
95
96
95
96
96
98
98
100
100
98
96
93
87
86
86
86
86
87
86
84
86
84
82
82
79
81
81
81
77
79
81
79
77
77
79
79
79
77
81
82
84
87
93
96
96
72
71
69
66
63
66
65
65
65
68
69
72
76
79
86
89
91
91
91
91
93
93
95
95
95
96
95
93
95
95
91
89
87
84
84
86
86
87
84
86
84
84
84
82
82
81
81
79
82
86
81
81
79
79
82
82
81
84
84
84
87
93
102
100
69
68
68
66
65
66
66
63
62
63
68
69
74
77
81
84
89
91
93
93
95
93
96
93
91
91
89
89
91
95
91
87
86
84
84
86
86
86
84
82
82
84
86
82
82
82
82
82
86
84
79
79
79
82
84
82
81
84
84
86
89
93
96
98
68
68
69
66
66
65
66
65
63
60
65
69
72
74
77
79
84
91
93
95
95
96
96
95
91
89
87
91
93
93
91
86
82
82
84
84
81
84
82
81
82
81
82
82
81
84
84
84
84
82
81
82
81
82
82
81
84
86
84
87
89
91
95
95
66
69
68
68
68
66
66
66
63
60
65
65
66
69
72
77
81
87
91
93
95
95
93
93
95
89
91
89
91
93
87
87
84
82
86
86
81
82
82
81
79
82
82
82
84
86
84
82
86
86
86
86
86
84
82
84
86
87
86
84
87
93
96
95
69
69
68
68
68
68
65
62
62
62
63
60
62
65
68
71
76
81
87
91
93
93
91
95
93
91
93
93
93
89
87
87
86
84
84
86
84
82
82
84
82
84
86
87
89
86
84
81
84
86
87
89
87
84
84
86
86
87
87
87
89
93
95
96
69
69
68
66
69
66
66
63
62
62
62
60
62
63
66
68
72
76
82
89
91
95
95
93
93
93
91
89
91
87
87
89
87
84
84
86
86
84
82
82
86
89
91
91
91
89
86
84
82
82
86
86
87
87
89
86
89
89
89
86
89
91
95
96
68
66
68
66
68
65
68
65
60
59
60
60
62
63
63
66
68
72
77
84
89
91
91
93
95
93
89
87
87
86
86
87
84
87
86
87
86
84
86
86
91
93
95
91
93
93
87
87
86
86
86
84
87
87
89
89
91
89
89
86
87
93
95
98
66
66
66
66
68
68
65
62
58
60
60
60
62
63
63
63
66
68
72
77
84
87
87
89
91
91
87
86
87
86
86
86
87
87
87
86
87
87
87
89
93
95
93
89
91
91
89
89
87
87
87
86
86
87
91
91
91
91
87
86
91
96
100
98
65
63
65
65
65
65
62
59
59
59
63
62
60
62
59
63
63
66
69
74
76
81
84
87
89
87
87
87
89
89
87
89
89
89
87
87
89
91
91
91
93
93
91
93
91
89
87
89
89
87
87
89
87
87
87
91
91
93
93
91
93
98
100
100
69
63
65
68
66
62
62
60
60
62
65
62
60
62
60
62
62
63
65
68
71
76
79
82
84
84
89
89
93
93
91
89
89
87
89
89
91
91
91
93
93
95
93
93
93
89
87
87
89
91
93
91
91
87
86
87
91
93
91
91
93
95
98
100
68
63
63
65
65
62
62
63
63
65
65
60
63
63
62
60
62
62
63
63
68
71
76
79
81
84
87
91
95
93
93
91
91
89
91
93
93
93
91
93
95
95
95
93
89
89
87
86
89
93
93
87
89
87
87
89
87
89
91
87
91
95
96
100
69
65
63
65
65
63
62
65
65
63
62
62
62
63
65
60
60
60
63
62
65
68
72
76
81
84
89
91
89
89
91
91
93
93
95
93
91
93
93
95
96
96
95
91
91
89
86
86
89
91
87
84
86
87
87
87
86
87
87
86
91
95
98
98
68
65
66
68
65
63
63
65
66
65
65
63
62
62
65
62
59
60
62
63
65
66
69
72
77
81
86
87
89
89
91
93
96
95
95
96
91
95
91
93
96
95
93
91
91
91
86
87
89
87
86
84
84
86
87
87
87
87
87
87
91
95
98
102
66
65
66
66
66
66
66
65
66
65
66
63
63
62
62
63
62
63
60
62
62
62
68
71
76
77
82
84
87
91
93
96
96
95
93
95
95
95
91
93
93
93
93
93
91
89
89
89
89
86
87
89
89
87
86
87
89
87
87
89
91
93
96
100
65
65
66
68
69
69
68
68
65
65
65
63
62
63
65
65
62
63
60
63
62
62
65
69
74
76
79
86
86
89
95
96
100
98
96
98
96
96
93
95
95
93
91
91
91
87
89
89
89
91
91
89
86
87
86
87
87
89
89
89
89
93
96
100
66
63
63
68
68
66
69
68
65
65
63
63
60
63
63
63
63
63
62
60
63
62
63
66
71
71
79
82
86
87
91
96
98
100
100
100
98
95
93
95
95
96
93
91
91
89
91
89
93
91
91
87
87
87
89
89
91
93
89
89
91
93
96
100
63
62
63
66
66
65
66
63
65
65
62
63
63
65
66
65
65
65
63
66
63
60
65
65
68
71
77
79
84
86
89
95
96
98
96
95
96
95
93
95
95
93
93
93
93
91
93
93
93
89
91
89
89
87
86
87
91
87
89
91
93
93
98
100
66
65
68
68
66
66
63
63
65
66
63
65
62
63
66
66
65
65
65
65
62
63
66
66
66
68
74
76
79
82
87
91
93
93
93
95
95
95
95
96
95
91
91
89
93
93
93
91
91
89
89
89
91
91
87
87
87
91
89
93
95
91
95
98
66
65
66
68
69
68
65
68
68
68
68
65
63
65
66
68
68
66
66
63
65
66
68
65
66
66
69
74
77
79
84
86
87
89
91
93
95
98
96
96
95
93
93
91
91
89
87
89
93
91
91
91
91
91
89
89
87
87
89
93
95
93
95
98
66
65
65
68
69
66
68
71
68
66
68
66
65
62
65
66
66
66
63
63
66
69
66
65
63
63
66
71
77
79
82
86
89
91
91
93
95
96
95
96
95
93
93
91
93
89
86
87
89
89
89
91
87
89
89
87
84
87
87
95
91
91
93
96
68
68
68
68
65
66
68
71
69
66
68
66
65
66
66
66
66
65
66
66
65
68
66
63
60
59
62
66
74
81
81
84
87
87
91
95
95
93
93
96
96
96
93
93
89
89
86
87
89
89
89
89
87
91
93
93
89
89
91
95
93
91
95
95
65
69
68
68
65
66
66
68
68
68
66
66
66
65
68
68
66
66
68
68
65
65
66
62
60
62
62
65
69
77
81
84
82
82
84
87
91
91
93
96
96
95
91
89
87
87
89
89
89
93
91
91
89
95
93
95
93
91
93
95
96
93
93
93
63
68
68
66
68
69
66
65
65
65
63
66
65
63
65
66
66
66
66
65
65
66
65
63
62
62
62
62
66
71
77
81
81
81
81
81
82
87
91
95
96
93
93
91
89
87
89
91
91
91
93
93
95
93
95
95
95
93
93
93
95
95
91
91
65
68
69
69
68
69
68
65
65
65
65
66
65
65
65
65
65
66
66
63
63
68
68
66
62
62
62
62
65
68
71
76
79
79
79
79
79
82
89
91
95
95
95
95
91
89
91
93
89
93
95
96
96
93
95
95
95
93
93
93
91
93
93
93
62
66
68
66
66
68
68
66
68
66
65
65
68
68
68
68
66
68
66
62
63
66
66
65
62
63
62
62
63
65
68
71
74
76
74
76
76
81
86
91
95
98
95
95
95
95
93
91
91
95
95
93
93
91
93
95
96
95
93
93
91
91
93
95
63
65
66
66
68
66
69
69
68
68
66
65
66
66
69
69
65
68
68
65
65
66
66
65
63
63
63
62
62
62
63
66
71
74
77
77
77
79
84
86
91
96
96
93
95
96
95
95
95
93
93
93
93
93
91
93
96
93
93
91
91
93
95
96
65
63
62
63
65
66
66
65
68
68
65
65
68
66
71
68
66
66
66
66
65
66
65
66
65
63
63
63
63
62
62
62
66
71
76
79
79
76
81
82
84
91
95
96
95
95
95
95
98
100
95
95
93
93
93
93
93
93
95
91
91
91
93
95
63
63
63
63
65
66
66
65
65
66
65
65
65
63
66
65
63
63
65
63
62
66
66
65
65
65
63
63
65
65
65
65
65
66
71
76
79
77
77
79
81
84
89
93
93
95
98
96
98
98
96
95
93
93
95
93
93
93
95
93
91
93
95
93
65
68
65
65
65
65
65
65
66
63
63
62
65
63
63
66
63
63
65
66
65
66
66
66
66
66
65
65
65
65
66
63
65
66
69
72
77
77
76
74
77
79
82
87
91
95
102
100
100
100
98
95
98
96
93
93
93
96
93
91
93
95
93
95
66
65
65
63
66
68
65
66
68
65
66
65
63
66
66
65
65
68
68
65
63
63
63
65
68
68
65
63
65
65
65
65
62
62
65
69
72
74
74
74
76
74
77
82
87
91
95
96
98
100
98
100
100
96
96
95
95
96
95
93
95
93
95
95
63
63
65
65
65
65
66
65
66
68
65
63
63
65
66
62
66
68
66
66
63
63
62
63
68
68
65
63
62
60
63
63
62
60
62
65
68
71
71
71
71
71
76
79
81
84
89
95
98
98
98
102
96
96
95
93
93
95
96
95
95
95
96
96
66
66
66
68
62
65
66
63
66
66
65
66
65
66
66
63
63
65
65
66
65
65
62
62
63
65
66
65
62
63
63
62
63
63
65
63
65
66
69
69
66
71
76
76
77
79
82
89
95
100
100
98
95
95
93
95
95
95
96
96
95
95
98
96
66
68
68
66
66
65
63
63
66
65
65
65
66
66
65
63
63
65
63
66
68
65
63
62
63
62
62
66
63
65
63
62
63
62
63
62
60
63
66
69
68
71
71
71
74
76
79
84
89
96
98
98
98
95
96
96
96
96
95
98
96
98
98
96
66
71
68
68
69
68
65
62
65
63
65
66
66
65
63
63
66
63
63
65
65
63
63
65
63
62
62
62
62
63
63
62
63
65
63
63
63
60
65
66
71
74
72
76
74
74
79
84
87
89
95
98
98
98
98
96
96
96
93
98
98
98
98
96
66
66
66
68
66
66
66
65
66
65
66
68
65
66
66
65
66
63
62
62
63
63
60
63
62
62
62
62
60
63
62
62
63
65
60
60
63
60
62
66
69
72
76
76
74
76
77
84
86
86
91
96
98
98
98
98
98
98
96
95
95
95
98
98
66
66
68
65
65
68
68
65
66
68
69
68
66
65
65
63
65
62
62
62
63
63
60
62
60
60
60
60
60
60
62
62
59
59
58
59
63
63
65
68
68
71
72
71
71
74
74
79
84
86
87
91
96
96
96
98
95
96
95
95
96
95
96
96
66
68
68
65
66
66
68
65
63
66
68
68
66
65
66
66
68
65
66
63
62
62
62
62
60
60
60
60
59
59
59
59
60
58
58
62
62
63
62
63
68
68
69
69
69
72
74
77
79
84
84
89
95
98
96
98
96
95
93
95
102
100
96
96
