P2
# 399 of 608 Angiograms
64 64
255
98
98
100
102
98
100
102
100
102
102
102
102
104
106
102
102
106
104
108
106
108
110
110
106
104
106
108
110
112
112
113
115
113
113
115
115
115
119
119
119
121
119
121
121
123
121
121
119
119
117
117
113
115
115
115
115
115
115
115
113
113
113
113
110
104
100
98
102
100
102
106
102
100
106
102
102
104
104
102
106
106
108
108
108
110
110
112
110
108
106
106
110
110
108
112
112
112
113
115
115
117
117
115
115
117
121
121
121
123
121
119
119
117
115
113
113
115
115
117
115
115
115
115
113
115
112
112
110
102
102
100
104
104
106
104
106
106
106
104
102
102
102
104
104
106
108
108
110
108
110
112
108
108
106
106
110
110
108
112
113
110
112
115
117
113
113
113
113
115
117
117
119
121
121
117
117
117
115
113
115
115
115
115
115
113
115
113
115
115
113
113
113
100
102
102
102
104
106
104
106
106
106
104
100
102
102
108
104
102
104
108
108
108
112
112
110
110
106
110
112
110
108
110
110
110
110
113
115
113
112
112
113
113
115
117
113
117
117
115
115
115
115
115
115
115
117
117
115
113
115
113
113
113
117
117
113
102
102
102
106
108
106
102
104
104
102
104
102
102
106
104
104
100
106
108
108
110
110
113
112
110
110
110
112
110
110
110
108
110
110
113
115
115
113
115
113
112
113
115
115
115
113
113
112
113
110
112
113
113
115
117
113
112
112
112
110
113
117
115
113
106
102
104
108
110
102
96
100
104
106
108
108
106
108
104
104
104
108
112
112
110
112
113
113
112
112
110
112
112
110
106
106
106
108
112
112
112
112
113
113
113
113
115
113
112
113
112
112
112
110
112
110
110
113
113
112
112
110
110
110
112
115
117
113
104
100
102
104
106
100
102
104
104
106
108
106
108
104
102
104
106
108
112
112
112
112
113
112
110
110
110
112
110
108
106
108
110
112
110
110
110
112
112
112
113
115
117
115
112
110
110
110
113
113
113
113
113
113
108
108
112
112
112
110
112
113
115
112
104
100
102
102
106
104
106
108
106
104
104
102
104
104
104
104
108
110
112
112
112
112
112
113
112
108
112
112
106
106
108
110
110
110
110
110
112
113
112
113
117
117
115
117
113
115
112
110
113
115
115
115
117
117
112
108
112
113
112
112
113
115
115
112
104
106
104
104
106
106
106
104
104
104
104
102
104
106
104
106
108
110
110
110
112
115
112
110
112
112
112
112
108
110
108
110
108
112
112
112
112
113
115
113
117
115
113
117
115
115
113
108
112
112
113
113
113
115
115
112
113
112
108
112
112
112
113
112
104
106
106
104
104
106
106
102
104
104
108
104
104
108
106
104
108
110
108
108
113
113
113
112
113
112
110
108
110
112
110
108
110
110
110
112
108
112
115
115
115
112
113
115
115
115
112
110
112
115
113
113
115
115
113
113
112
112
110
110
110
108
110
112
106
106
104
106
106
108
104
102
108
106
104
106
106
108
106
104
106
110
108
108
110
112
113
113
113
112
112
110
112
112
110
106
110
110
108
108
112
112
112
112
112
113
113
113
112
108
110
113
115
115
112
115
117
117
113
113
113
112
112
112
110
106
108
112
106
104
102
104
108
108
108
104
106
104
104
104
104
106
104
104
106
106
106
108
110
112
113
113
113
110
110
110
110
112
110
106
108
108
108
110
110
110
110
110
112
113
112
112
112
110
113
113
113
113
115
115
115
115
112
113
113
115
113
112
112
110
112
112
108
106
106
104
106
106
106
106
106
104
106
106
102
102
104
108
112
108
104
104
108
110
112
113
112
110
110
110
112
113
112
112
112
110
108
108
110
106
106
110
110
110
112
112
113
113
115
113
113
113
115
115
115
113
113
115
113
113
113
113
110
112
113
112
108
106
106
104
104
106
106
106
106
106
106
102
102
106
104
108
108
112
108
104
108
110
110
110
112
112
112
110
110
112
112
115
112
110
108
110
110
110
108
110
110
112
112
113
115
113
115
115
115
113
115
117
115
115
115
112
112
113
113
113
112
112
113
113
106
108
108
104
106
108
108
104
106
106
102
102
106
108
106
110
110
110
112
108
108
108
108
110
112
113
110
112
113
113
110
110
113
112
112
110
110
110
110
110
108
108
110
112
112
113
115
115
117
113
115
115
112
117
115
115
113
112
110
112
110
110
112
115
102
104
106
104
106
110
108
106
104
104
104
102
104
108
108
108
110
108
110
108
106
108
110
112
112
110
110
112
112
110
108
108
113
113
113
113
110
108
110
108
104
106
110
110
110
108
112
113
113
113
113
115
113
115
115
115
115
115
113
112
112
113
110
112
106
106
104
104
106
110
106
106
104
104
104
102
104
106
108
110
106
108
108
110
106
108
113
113
113
110
110
110
110
110
106
108
110
110
112
112
110
108
112
110
108
108
112
110
112
110
112
112
112
112
112
115
117
115
115
115
113
113
115
113
112
113
112
112
102
104
106
106
106
108
108
106
102
102
102
100
104
108
108
106
106
106
108
108
106
108
110
110
112
110
108
108
112
108
106
108
112
110
112
112
112
108
112
110
106
108
112
112
112
112
112
112
110
108
112
113
112
113
113
112
110
110
112
112
112
113
115
112
104
102
104
104
106
108
108
106
102
100
100
98
102
106
106
108
106
106
108
106
106
110
112
110
110
110
110
106
106
110
110
110
112
113
112
112
113
112
113
112
110
110
110
108
110
110
110
112
112
108
113
112
110
113
112
110
112
113
112
112
112
112
112
110
106
104
104
102
102
106
106
106
106
102
102
100
102
106
108
108
108
106
108
106
106
110
112
112
112
112
108
108
108
110
112
113
113
112
110
110
112
113
113
112
110
112
110
108
108
108
108
112
112
110
112
110
110
110
110
110
110
110
110
112
112
112
110
112
102
102
102
100
100
104
100
102
102
102
100
102
106
108
106
106
108
106
106
110
106
108
110
112
112
112
108
104
108
112
113
113
113
113
112
110
110
113
112
110
108
112
108
108
110
110
112
113
113
108
108
108
110
112
112
110
110
110
110
113
113
112
112
113
100
98
98
102
104
102
102
102
98
104
102
104
106
106
106
108
104
104
104
106
106
108
113
113
112
112
110
106
108
113
115
113
112
110
110
110
110
113
113
112
108
110
108
108
106
104
106
110
108
108
110
110
112
112
112
112
108
112
110
112
115
113
112
112
104
100
100
104
104
102
100
100
96
102
104
106
108
106
104
104
102
102
104
104
106
108
110
112
112
113
110
106
106
112
113
112
112
110
112
112
110
112
112
110
110
110
110
108
106
108
104
104
106
106
108
108
108
108
110
110
108
112
112
112
112
112
110
110
102
102
100
102
100
98
96
96
96
100
104
106
106
106
106
104
104
104
104
108
108
106
106
108
110
112
112
106
106
110
113
110
110
112
110
108
108
113
112
112
112
112
110
108
110
108
102
102
106
108
108
110
112
112
112
112
110
112
112
112
113
115
112
110
104
98
98
96
96
96
95
95
96
96
100
102
104
104
106
106
106
102
102
106
108
106
106
108
110
112
112
108
106
110
110
108
108
110
112
113
112
113
112
112
108
110
110
110
110
110
106
102
104
104
106
108
110
112
113
113
113
113
113
113
113
115
115
110
102
98
98
98
96
95
98
96
98
98
102
106
106
106
106
106
106
106
104
106
108
108
108
110
112
112
110
108
108
108
110
110
110
110
112
113
113
113
110
110
108
108
110
108
106
106
108
104
106
104
106
106
108
108
112
113
112
112
113
113
113
113
112
110
98
96
96
98
96
96
98
96
98
102
102
108
110
110
106
106
104
104
108
110
108
106
108
106
108
108
108
108
104
106
110
108
106
110
110
110
110
110
110
108
108
106
106
106
108
110
112
108
104
104
106
110
110
112
112
113
110
112
113
115
113
110
110
110
96
96
98
100
98
96
98
95
96
102
106
108
108
110
108
106
100
102
106
106
108
106
108
106
110
110
108
108
108
108
108
108
110
110
110
110
108
108
110
110
110
106
108
110
110
112
110
108
104
106
108
110
112
112
110
112
110
112
113
113
112
112
112
110
100
96
96
96
95
96
98
95
96
104
108
110
106
110
110
110
104
102
104
106
106
106
106
106
108
110
110
108
108
108
108
110
110
110
110
108
108
110
112
113
110
108
108
112
112
110
106
106
102
106
108
112
112
112
112
110
108
110
112
113
113
115
112
112
98
98
96
95
95
96
96
95
96
102
108
110
106
108
110
110
106
106
106
108
108
110
108
106
106
106
108
108
106
106
108
108
108
110
110
108
108
108
110
110
108
108
108
112
110
106
104
104
104
106
110
113
112
108
110
110
110
110
113
115
113
115
112
110
96
98
98
98
96
98
98
98
98
100
108
112
110
108
108
106
106
106
102
104
108
110
106
106
108
108
108
106
104
108
108
110
110
112
110
110
108
106
110
112
110
110
110
110
108
104
106
106
106
108
108
110
108
108
110
112
112
110
110
110
112
112
110
110
100
96
98
98
98
100
98
96
100
102
104
108
106
106
108
108
108
106
104
104
106
108
106
106
106
108
108
108
106
110
110
106
108
112
110
112
110
108
110
113
110
110
113
112
106
106
108
106
106
106
110
106
108
108
110
113
112
110
106
106
110
110
110
110
104
100
98
98
98
98
98
98
100
102
106
108
108
106
108
104
108
112
110
110
108
108
108
104
108
112
108
108
108
110
108
104
106
110
108
108
110
110
112
115
112
110
110
108
108
110
106
104
104
108
108
106
106
110
110
110
112
112
104
106
110
110
104
106
104
102
98
98
100
102
100
98
100
102
106
106
110
108
106
106
108
110
110
110
108
106
104
104
108
110
108
108
106
108
110
108
108
110
110
110
112
110
110
112
110
110
112
112
113
113
112
108
108
110
110
108
108
110
108
108
110
108
104
104
108
106
106
108
102
104
100
98
100
102
100
96
100
102
104
108
108
106
106
108
108
108
106
106
106
104
104
106
106
110
110
108
108
110
110
108
108
110
110
110
112
112
110
110
112
110
112
113
113
113
112
108
110
110
110
108
108
110
108
110
108
104
104
106
108
106
106
108
102
98
96
100
98
96
98
98
100
100
100
106
104
106
110
108
108
108
104
104
106
106
106
108
106
110
112
112
110
110
110
110
110
110
108
110
113
112
110
110
112
113
113
112
112
112
110
112
112
112
112
110
106
108
108
106
102
102
104
106
110
108
106
106
100
96
96
98
98
98
98
98
100
102
104
104
102
104
104
104
106
104
102
102
104
108
108
106
108
110
110
110
110
110
110
110
108
108
110
112
113
115
113
112
113
113
115
112
112
112
110
113
112
108
108
106
104
104
104
102
102
102
104
104
108
104
104
106
100
100
96
96
98
98
98
98
100
106
102
98
102
102
102
102
106
104
104
104
104
108
108
104
108
112
112
108
110
110
110
108
108
110
110
112
112
110
112
113
115
113
112
110
112
110
108
110
108
106
106
104
102
102
102
104
104
102
102
104
110
104
104
106
96
98
98
98
100
102
102
100
100
106
102
102
104
100
102
106
104
106
106
102
104
108
106
108
112
112
110
106
108
108
108
108
108
108
110
108
110
108
108
112
113
112
112
110
110
108
106
106
106
104
104
102
104
102
102
102
102
100
102
104
106
104
102
104
96
95
98
104
102
102
100
98
98
102
98
100
104
104
102
104
102
104
106
106
106
108
106
108
110
112
110
106
108
108
110
110
108
106
108
106
112
110
108
110
110
112
113
112
108
108
106
104
106
106
102
102
104
102
98
100
100
100
100
104
106
106
102
104
100
96
98
104
102
102
100
100
100
102
100
106
106
104
104
104
102
104
106
106
106
106
106
110
110
110
108
108
108
108
112
108
110
110
108
110
113
115
113
113
113
112
113
112
110
108
104
102
104
106
104
102
100
96
98
100
100
102
102
102
104
106
102
102
100
98
100
100
100
102
100
100
100
102
102
104
104
104
102
104
106
104
108
108
106
110
110
112
112
112
110
108
106
110
113
112
110
110
110
113
113
113
115
115
112
110
112
112
108
104
104
104
102
102
106
100
100
98
102
102
102
104
104
104
102
104
104
102
98
96
98
96
100
100
102
100
102
100
104
102
102
102
106
104
106
108
110
108
108
110
110
110
112
115
112
108
108
110
108
108
110
112
112
113
113
113
115
113
112
110
112
108
104
102
100
106
108
108
108
104
104
104
102
100
100
104
104
102
102
106
104
102
98
100
98
98
100
104
100
100
102
102
106
100
102
104
104
106
108
106
106
108
112
113
112
113
113
113
110
110
110
110
108
106
108
110
110
112
113
113
113
113
110
108
110
110
108
106
104
108
108
104
104
104
106
104
100
96
100
100
102
102
102
104
102
102
100
102
98
96
98
100
102
102
102
100
102
100
102
106
104
106
108
108
106
106
110
110
110
113
112
112
112
112
112
112
108
108
106
110
108
108
112
108
110
110
108
108
108
110
104
106
108
108
104
100
100
102
102
100
98
98
102
100
100
98
98
102
102
100
102
98
100
102
98
98
100
104
100
98
102
104
106
108
106
108
108
110
110
110
112
108
108
110
112
110
110
112
113
112
112
108
108
106
106
106
110
108
106
112
108
106
108
108
104
106
106
106
102
102
100
100
102
102
100
100
100
102
102
98
98
102
102
98
104
98
102
102
102
102
104
102
100
102
102
102
104
106
108
112
112
110
110
110
110
108
106
106
108
108
106
108
110
110
110
110
108
108
108
106
106
106
104
110
112
106
106
108
106
106
108
110
108
106
102
102
106
102
104
100
100
102
102
100
102
102
104
102
104
106
108
106
102
102
104
104
104
104
106
104
108
108
108
110
108
108
110
108
106
106
110
108
106
104
104
106
108
104
102
106
106
108
108
104
104
104
104
108
110
106
106
108
108
108
110
108
108
108
104
104
108
104
104
102
98
104
102
104
102
102
104
106
100
106
106
106
104
104
106
108
106
104
106
106
106
108
108
110
106
104
108
108
108
108
110
106
104
106
106
106
108
108
104
104
102
102
108
108
108
106
102
108
108
108
102
106
108
108
110
108
110
110
108
104
104
104
104
100
100
102
106
108
108
104
102
102
102
104
104
104
102
102
106
104
104
106
106
104
104
106
106
106
104
106
106
106
108
106
108
108
104
102
104
104
108
110
106
106
104
104
106
110
108
108
104
106
110
106
100
104
108
104
108
110
110
110
108
106
104
104
104
102
102
106
108
106
106
104
104
102
104
100
102
104
104
106
106
102
104
104
106
106
104
106
110
104
104
106
106
106
104
104
106
106
102
102
104
106
108
110
104
104
108
106
108
108
108
108
106
106
110
108
104
106
106
104
104
108
110
108
106
106
104
104
102
106
106
108
106
106
102
100
100
100
102
100
100
104
106
106
106
108
104
102
104
106
106
108
108
102
106
108
106
104
102
106
104
104
104
100
102
106
106
110
106
106
106
106
106
106
110
110
110
106
106
106
104
100
104
104
104
106
108
108
110
104
104
104
102
104
106
102
106
108
104
100
98
100
104
102
102
106
106
106
110
108
104
102
106
106
106
108
108
108
110
108
106
102
100
104
102
106
108
104
106
108
106
108
108
106
102
102
104
106
110
110
112
110
106
104
106
104
104
102
104
106
102
104
108
106
104
100
102
102
104
104
104
108
106
102
100
102
104
104
106
104
102
104
106
106
102
104
104
102
104
106
108
108
108
106
106
102
102
102
100
104
106
104
106
108
106
104
102
104
102
100
104
106
106
110
108
108
102
100
106
104
106
106
106
106
102
104
106
108
106
100
98
98
98
100
100
106
106
102
100
100
102
106
106
104
104
102
106
110
108
104
100
102
104
106
106
104
102
102
104
102
102
102
100
106
106
104
104
104
104
102
106
104
102
104
106
104
106
108
106
102
102
102
104
102
104
106
104
106
106
108
106
106
104
100
100
96
96
100
104
106
106
104
100
100
100
104
104
106
106
104
106
106
110
104
104
104
104
104
104
102
100
100
100
100
102
102
100
106
108
102
102
104
104
104
104
104
104
108
108
108
108
106
104
102
104
102
102
102
104
102
106
106
106
108
106
102
104
102
102
102
102
102
106
104
106
104
100
104
100
102
102
104
104
104
106
104
106
106
106
106
100
100
102
102
104
102
100
104
102
102
102
106
106
102
102
106
106
104
102
104
108
112
112
108
106
104
104
104
104
98
98
100
104
106
108
106
106
108
108
106
104
102
102
104
104
106
104
102
104
106
104
106
100
100
102
102
102
104
108
106
104
104
106
102
104
100
100
102
102
98
102
102
104
102
102
106
106
104
104
104
106
106
104
104
108
112
112
104
102
102
102
104
108
102
102
104
104
106
110
108
106
108
106
102
104
106
102
100
102
108
104
102
100
102
104
104
98
98
100
104
104
104
108
106
104
102
102
104
106
102
100
102
104
102
104
102
102
102
104
106
106
106
104
106
108
106
104
106
106
110
110
108
104
100
98
106
108
102
106
106
104
104
106
106
106
106
102
102
104
102
98
100
102
102
102
104
100
100
102
104
95
96
100
102
104
102
100
102
102
100
102
104
106
100
100
104
106
108
106
106
104
102
104
108
108
106
104
106
108
106
106
106
108
108
108
108
106
102
104
106
106
106
102
106
106
104
106
108
106
106
102
104
106
100
98
102
102
102
104
104
102
104
104
104
96
96
96
96
100
98
98
102
106
104
104
102
102
102
100
104
108
108
106
104
104
104
106
106
110
108
104
104
106
108
108
108
110
110
104
110
110
106
108
108
108
106
104
104
108
108
106
106
108
108
104
104
104
102
98
102
102
106
106
108
106
102
104
100
96
95
96
98
98
98
98
104
106
102
106
102
100
102
102
106
106
106
106
106
108
106
108
106
106
108
108
106
110
110
112
112
108
108
108
108
108
106
106
108
106
106
106
108
108
108
108
106
106
108
104
104
102
102
100
106
106
106
106
106
106
106
106
102
96
96
95
96
96
96
98
100
102
98
100
100
100
102
104
104
106
104
104
102
108
108
110
108
108
110
112
110
112
112
110
110
108
106
108
106
106
106
106
106
108
108
108
108
110
108
106
102
102
106
106
108
104
102
104
104
104
104
102
104
108
106
102
106
100
100
96
96
93
96
98
98
100
98
98
100
100
104
108
106
106
106
104
104
106
106
112
110
106
110
112
106
106
110
110
112
110
108
104
106
106
106
104
108
110
110
110
108
108
106
104
102
102
102
102
106
102
102
102
102
102
102
102
102
106
110
106
106
