P2
# 406 of 608 Angiograms
64 64
255
91
93
95
96
93
95
96
96
98
100
98
91
81
76
72
69
65
65
69
76
84
96
110
112
106
100
100
102
100
98
100
100
102
104
106
106
108
106
102
102
106
110
108
102
100
102
106
104
102
100
100
102
102
98
100
104
106
102
102
102
102
100
102
100
91
89
93
93
93
91
93
98
98
102
98
91
81
74
71
69
69
65
69
77
84
96
108
108
104
102
102
102
100
98
100
102
102
102
102
102
106
102
98
102
104
106
106
102
100
102
104
106
102
102
102
104
102
100
102
104
104
102
106
102
100
100
104
100
95
93
95
93
91
89
95
96
96
100
98
89
81
71
68
68
71
71
71
77
84
95
102
104
106
100
98
98
98
100
98
100
100
104
100
102
106
104
102
100
100
102
108
106
106
104
104
104
102
104
104
104
106
104
104
102
104
106
106
102
100
102
102
100
93
95
96
95
93
93
93
95
95
96
95
87
79
69
68
68
71
71
72
76
84
96
100
102
102
102
98
96
100
98
100
96
96
102
104
104
104
104
102
104
102
102
106
106
108
102
102
104
104
100
102
104
106
104
102
102
104
102
104
100
100
100
102
102
89
89
93
95
95
91
93
93
93
95
93
86
77
69
66
69
69
66
69
74
86
98
98
102
104
104
104
98
98
98
98
96
96
100
102
100
100
102
100
104
102
98
98
102
104
106
104
104
106
102
100
100
104
104
104
102
100
98
100
98
100
100
102
102
89
91
93
95
95
95
93
95
98
96
91
86
77
68
65
69
69
65
68
76
86
98
100
104
104
102
102
100
98
100
98
98
100
100
102
100
102
100
102
102
102
98
96
98
102
102
102
106
106
104
100
102
102
100
102
102
102
100
100
98
96
98
102
102
93
93
95
93
96
95
93
95
96
93
87
84
76
66
63
66
66
66
69
76
87
96
102
104
102
102
100
98
96
98
102
102
104
104
102
102
102
102
102
102
102
96
93
95
100
102
106
106
106
104
102
102
100
100
102
102
104
104
104
100
96
98
102
100
95
91
89
93
95
95
95
95
96
93
87
82
76
65
65
65
66
66
71
76
87
95
98
96
96
98
102
98
96
95
98
102
104
102
106
104
102
102
100
102
98
95
89
95
100
100
106
104
102
104
102
104
104
104
102
102
100
102
106
100
98
100
100
98
95
91
91
91
91
93
95
96
95
95
89
81
74
65
62
63
65
66
69
76
87
95
96
96
96
100
102
100
95
93
95
98
102
102
102
98
98
96
98
98
96
96
91
95
96
98
100
102
98
104
110
104
100
100
102
106
100
100
102
100
100
100
98
98
93
93
93
93
93
95
93
96
98
95
89
81
72
63
62
66
65
65
68
77
86
91
96
98
98
98
98
96
95
95
96
96
100
98
98
93
93
93
95
96
96
93
95
93
95
96
98
96
100
104
104
102
102
98
100
104
102
100
100
100
100
98
98
100
93
96
95
91
93
95
95
96
95
95
89
79
69
63
62
66
65
66
69
81
87
91
95
98
100
96
96
96
95
96
95
95
98
96
96
93
93
95
91
93
93
91
93
93
93
95
96
96
98
102
102
100
100
100
102
104
102
100
100
102
98
98
100
98
93
95
96
95
95
95
95
95
96
95
87
77
68
65
62
65
63
65
69
82
89
95
93
96
98
96
96
95
96
95
93
91
95
95
96
95
93
93
89
87
87
86
91
95
95
91
93
93
93
98
100
102
102
104
104
104
100
100
100
100
102
98
98
102
95
96
100
100
95
91
91
91
95
93
84
77
69
68
65
63
65
65
72
86
91
96
93
95
98
98
100
98
96
95
95
95
95
95
95
93
91
89
87
86
82
86
87
91
93
93
95
91
91
95
98
104
106
106
102
104
104
100
104
100
98
96
100
102
95
95
96
98
96
93
93
91
89
87
82
77
71
66
68
66
65
68
74
89
95
96
98
96
96
100
100
96
96
95
95
96
96
95
91
91
89
87
86
87
86
87
89
89
91
87
91
93
93
95
98
104
106
104
100
100
102
102
102
102
100
100
102
98
93
93
93
93
96
93
95
95
89
86
81
76
71
66
66
65
68
69
77
91
96
100
100
100
100
100
98
95
93
95
95
96
96
96
91
91
89
89
89
93
93
89
89
91
93
91
91
95
93
93
96
104
106
106
102
100
98
98
102
104
102
102
100
98
95
96
95
93
93
89
89
89
87
86
79
74
69
66
66
63
65
69
77
91
96
98
102
102
102
98
96
95
96
100
98
96
93
93
91
89
89
93
95
96
95
91
89
89
91
96
93
96
95
95
96
102
104
106
104
102
102
102
102
102
102
100
98
98
98
98
96
93
89
86
87
87
84
84
77
71
68
65
65
65
68
69
77
89
95
98
98
98
98
98
96
91
96
98
95
95
95
91
91
91
93
96
98
98
96
93
93
93
95
96
95
93
95
95
96
102
102
104
104
106
108
106
100
100
98
100
102
98
96
95
96
95
91
87
89
89
87
82
76
71
66
63
63
65
68
69
76
86
93
98
100
98
100
96
93
91
95
95
95
91
93
93
91
91
96
98
98
98
100
98
96
96
96
95
93
95
95
96
96
102
102
102
104
108
106
104
104
102
100
104
102
98
95
96
95
93
89
87
91
89
87
82
76
69
65
63
66
68
66
69
74
86
91
93
95
98
96
91
89
95
95
93
93
93
89
91
93
91
95
96
95
100
102
100
98
100
98
96
95
93
95
96
96
100
106
104
106
108
108
106
104
102
102
102
102
100
95
93
89
87
86
86
87
89
87
84
76
68
66
63
65
63
65
68
72
86
95
93
95
100
96
91
91
93
91
91
91
93
91
91
93
91
91
93
93
95
96
96
100
102
98
96
96
96
96
96
95
98
102
102
108
108
106
104
102
106
104
100
100
100
91
91
89
87
87
86
87
89
87
82
74
65
63
62
62
60
63
65
72
86
93
95
95
96
95
91
91
91
91
91
89
87
87
91
93
89
91
95
96
96
96
100
98
100
98
96
98
98
95
93
96
98
102
102
104
106
108
104
102
108
104
100
100
98
91
89
89
87
87
82
86
87
86
79
69
65
60
56
56
58
59
63
71
84
93
96
95
93
93
96
91
91
91
91
93
95
91
89
91
91
95
95
96
98
98
102
100
98
98
98
98
96
96
96
98
98
98
100
104
104
106
102
104
106
100
98
98
100
89
89
87
86
84
82
84
86
82
76
69
63
55
56
56
56
58
62
72
84
93
96
93
95
95
96
93
91
91
93
91
95
93
91
91
89
91
96
98
98
100
102
102
96
96
96
98
96
96
98
100
100
100
100
102
106
106
102
104
104
104
102
98
102
91
87
84
84
82
86
81
81
81
72
69
60
56
58
56
58
58
62
74
86
95
95
91
93
93
95
93
91
91
95
91
91
93
93
91
89
87
93
98
102
104
104
104
102
98
98
98
96
96
96
98
98
100
98
102
106
104
104
106
102
104
104
98
102
87
87
86
86
87
86
82
82
81
74
68
60
60
59
56
56
58
62
76
87
95
96
93
95
96
95
93
89
91
89
87
89
89
91
91
89
89
93
96
100
104
104
104
100
98
98
98
93
95
96
100
102
102
102
102
106
108
108
106
104
106
104
100
102
87
86
82
86
86
86
82
82
81
72
66
63
60
59
59
59
62
66
76
86
93
95
93
96
96
93
93
91
89
86
89
91
87
87
87
89
89
93
93
95
100
100
100
100
100
98
100
95
93
98
102
102
100
102
104
106
108
108
104
106
104
106
100
98
87
86
86
84
82
84
82
82
82
72
63
63
62
59
56
56
62
69
76
87
95
95
93
95
95
93
93
91
91
91
91
93
87
87
86
86
86
87
89
89
95
96
100
102
98
98
98
96
96
98
100
100
102
104
104
108
106
110
108
110
102
102
102
98
86
86
81
82
86
84
82
82
81
71
62
59
58
59
60
60
65
71
77
91
95
91
91
95
95
95
93
91
91
91
89
89
91
86
86
86
84
86
86
89
93
96
100
100
100
98
100
100
98
102
98
98
102
104
106
104
106
108
108
108
106
106
104
100
84
82
79
81
86
84
82
82
79
72
65
59
59
60
60
60
66
71
79
93
93
89
91
93
91
93
91
91
93
89
89
89
87
87
87
87
86
86
86
86
89
95
98
96
96
98
100
100
98
98
100
100
102
108
108
104
104
106
108
106
106
104
102
100
82
79
77
81
82
84
84
81
77
72
66
65
62
60
62
65
68
71
81
93
95
93
93
95
91
89
87
91
91
93
93
91
89
87
87
87
89
84
86
87
87
89
93
96
98
96
96
96
96
98
100
102
104
110
106
108
108
110
112
106
104
100
102
100
81
77
81
81
82
84
82
81
79
72
66
63
63
60
65
68
69
72
81
91
95
93
95
91
89
87
89
89
91
96
95
93
91
91
89
87
84
86
87
87
87
89
96
95
95
96
96
95
98
98
102
102
106
110
108
106
108
112
108
106
102
98
100
100
81
79
84
86
84
84
86
82
81
72
65
63
62
60
65
66
69
72
81
89
89
91
91
89
89
87
89
91
91
93
95
93
91
89
91
87
86
86
84
86
87
91
95
95
95
96
98
96
98
102
106
104
106
110
110
108
110
112
108
108
108
100
100
102
81
81
81
84
84
86
84
82
82
69
68
65
63
59
63
62
65
71
81
86
91
93
91
93
89
87
89
93
91
91
95
95
93
89
91
91
89
87
89
86
87
89
93
91
93
98
98
95
100
104
104
106
108
108
106
108
108
108
108
110
108
104
104
108
79
79
79
81
84
87
84
84
82
71
66
65
63
63
63
63
66
72
81
84
91
91
91
89
89
93
93
93
89
91
91
95
93
91
91
93
91
87
91
89
89
89
87
91
93
95
95
95
100
102
104
108
108
104
106
110
108
108
108
110
110
106
106
106
81
82
81
82
84
82
82
84
77
71
65
62
63
65
62
63
65
72
81
86
87
87
89
86
89
91
95
91
89
93
93
95
95
91
89
91
93
87
89
93
87
86
86
89
89
93
95
96
100
102
104
108
108
106
108
110
112
112
110
110
108
108
104
102
82
82
81
82
84
86
86
82
76
68
63
63
62
62
62
59
63
72
79
84
86
87
89
87
87
87
91
89
91
91
91
93
93
91
91
87
89
89
91
89
89
86
84
86
87
91
91
95
98
102
104
106
106
106
106
108
108
112
110
110
110
108
104
106
81
84
82
82
84
87
86
82
76
68
63
62
62
62
62
62
65
74
81
84
86
86
87
86
87
87
91
89
89
91
91
91
91
91
87
87
87
87
89
89
91
87
89
86
86
89
89
93
96
100
102
106
110
104
102
104
106
106
108
106
106
106
106
106
81
84
86
86
84
87
87
84
77
69
65
60
58
59
59
60
66
76
84
87
87
89
87
87
89
91
89
87
91
91
93
93
91
87
87
86
89
89
87
91
93
91
93
89
91
93
93
95
98
100
104
110
108
102
102
104
104
108
108
102
104
106
110
110
84
87
87
87
86
89
91
86
76
66
63
56
58
60
58
60
68
77
87
93
87
84
89
89
91
89
93
93
91
95
93
89
91
87
87
89
91
91
89
91
93
95
95
96
95
95
95
95
98
98
102
108
104
102
106
104
102
108
110
108
106
104
110
108
84
87
87
84
86
87
91
84
74
65
63
58
60
60
59
63
69
77
89
91
87
84
87
91
89
91
93
95
91
93
95
91
93
91
91
87
91
91
91
91
95
98
98
96
95
96
96
93
96
98
104
104
102
102
102
102
106
104
108
108
108
106
106
106
82
82
84
81
82
86
89
82
72
63
63
63
62
62
62
62
69
79
89
91
89
86
89
93
91
91
89
91
93
93
93
93
93
93
91
91
93
89
93
93
98
98
96
95
98
100
98
96
96
100
102
102
102
104
104
102
104
106
104
104
104
104
104
104
79
82
84
82
86
87
87
82
71
65
62
62
60
60
63
62
71
81
89
93
93
89
91
93
95
95
93
93
91
93
93
91
93
91
91
95
95
89
91
95
96
102
100
100
100
96
95
96
95
98
100
100
100
102
98
98
98
100
100
100
102
104
102
102
79
82
84
84
84
87
86
82
72
66
62
60
60
59
62
65
71
82
89
93
91
89
91
93
95
95
95
95
95
95
95
95
95
91
91
93
95
91
93
96
96
100
102
100
96
95
95
96
98
96
98
98
98
100
98
98
98
96
98
98
96
96
98
96
81
82
82
86
86
86
84
84
77
68
63
60
62
60
65
65
71
84
93
95
91
91
95
96
96
93
96
93
95
96
96
93
93
91
91
95
98
96
95
95
96
100
100
98
95
96
95
95
100
100
98
98
100
98
93
95
96
95
96
98
96
96
96
96
84
86
87
89
87
87
87
84
77
69
65
66
65
65
63
66
74
86
93
95
96
96
96
96
98
96
96
95
95
93
93
91
93
91
91
91
95
98
96
95
100
98
96
100
96
96
95
96
98
98
98
98
102
98
98
95
93
93
96
100
96
91
93
96
84
89
93
91
93
91
89
84
76
68
66
66
63
62
63
69
77
87
93
95
96
95
93
95
98
95
95
96
95
93
95
96
95
91
95
93
95
100
96
100
100
98
98
98
96
96
95
95
96
96
96
96
98
96
98
95
96
96
95
95
95
91
91
96
84
89
91
91
91
95
91
86
77
69
68
68
66
66
68
72
81
89
93
96
96
96
95
96
98
98
96
96
95
96
98
100
95
93
95
96
95
96
96
100
98
98
98
96
95
95
96
96
93
93
96
93
95
93
91
93
96
95
95
95
95
93
95
95
86
87
87
89
89
91
91
87
79
72
69
68
66
65
68
74
81
89
93
95
95
95
95
96
98
98
98
95
91
96
98
96
96
96
96
95
93
93
96
98
98
102
102
98
98
96
95
93
93
93
96
91
93
91
89
93
91
95
95
91
89
91
91
95
89
87
87
84
87
93
93
87
79
72
71
68
65
63
65
74
81
91
95
95
91
95
93
95
95
96
96
96
95
95
98
100
98
98
98
93
91
91
95
98
102
104
104
104
102
96
95
91
93
91
96
93
93
91
91
93
91
95
95
89
87
89
91
93
91
87
87
86
89
95
93
87
77
74
72
66
65
65
68
74
82
87
91
91
91
91
91
93
93
95
96
96
96
93
98
100
98
102
100
95
95
95
93
98
98
102
102
102
102
98
98
96
95
93
93
93
93
93
93
95
91
93
96
91
89
89
89
91
93
89
86
86
91
95
95
87
77
74
74
68
66
68
69
74
81
86
89
91
91
89
89
89
89
93
93
96
96
96
98
96
96
96
95
93
95
95
95
96
96
100
102
100
100
96
95
96
96
96
93
93
95
93
91
96
95
93
93
91
93
93
91
91
91
89
86
87
93
96
93
87
77
72
71
68
68
69
68
74
81
87
91
89
87
87
91
91
89
91
93
95
95
93
93
93
93
93
95
93
93
95
96
98
96
96
98
98
98
95
95
95
96
100
98
95
96
96
95
93
93
93
93
93
95
93
91
89
91
89
87
91
91
95
93
87
76
69
68
68
68
68
69
74
81
87
91
87
87
86
89
87
91
93
95
91
89
91
93
93
95
96
95
93
93
95
96
95
96
96
98
98
100
96
96
96
96
98
98
98
98
95
95
93
91
95
91
91
95
95
96
93
89
91
93
95
93
93
93
86
74
71
66
65
65
68
71
76
79
84
89
89
87
87
87
87
91
95
95
91
87
87
89
89
91
93
93
91
89
93
95
95
96
95
95
98
100
96
95
96
96
98
96
98
96
95
93
93
91
96
95
93
95
93
96
95
93
87
89
89
91
91
89
84
74
69
66
65
66
68
69
76
79
84
89
91
91
91
87
89
93
89
89
91
91
87
89
87
89
91
89
89
93
93
93
93
93
93
95
96
98
96
95
95
96
100
100
98
96
93
89
89
91
96
100
96
96
89
93
93
93
89
89
93
95
91
89
82
74
69
66
65
65
68
69
74
79
86
89
91
91
91
87
87
87
89
93
96
96
91
89
86
87
89
93
91
93
91
91
93
93
95
93
95
98
100
98
96
98
98
98
96
95
95
91
93
93
96
96
95
93
93
89
95
89
93
93
95
95
93
89
81
74
69
65
66
65
66
68
74
81
86
89
89
86
87
91
89
91
91
93
96
93
93
89
84
84
87
89
86
91
89
93
93
93
96
95
95
96
98
98
96
96
98
98
95
96
95
91
95
96
96
96
91
95
95
93
95
87
91
95
93
96
95
89
81
71
68
66
65
65
66
68
72
81
84
84
84
86
86
89
89
93
95
93
96
95
93
89
87
86
84
87
87
91
91
91
91
95
96
96
95
96
98
95
96
98
98
96
93
93
93
93
93
95
95
96
93
93
91
96
95
87
89
91
93
91
93
89
81
69
69
65
65
65
66
69
74
81
81
84
84
87
87
87
86
87
93
89
91
91
87
87
87
84
84
87
86
89
93
93
93
95
96
98
93
93
95
93
95
98
98
93
91
91
93
91
91
95
96
95
93
91
91
95
91
91
89
91
93
95
93
87
79
68
68
65
63
66
66
69
72
79
82
82
84
86
89
86
87
93
93
91
89
89
89
91
89
86
82
86
86
89
93
96
95
96
95
95
89
89
95
96
96
95
96
93
93
93
95
93
95
96
95
93
91
89
93
96
93
91
95
95
96
98
95
86
79
68
65
66
65
63
65
69
72
79
84
84
82
87
89
87
89
91
91
91
91
89
89
91
91
89
82
82
84
87
93
93
95
89
93
93
89
89
93
96
96
93
95
95
95
95
93
93
98
96
91
91
91
89
89
95
95
93
95
93
95
102
96
86
79
68
65
66
68
65
65
68
76
81
84
84
84
86
86
86
87
89
93
91
89
89
87
89
87
87
81
81
82
86
91
91
87
86
91
95
87
91
93
93
95
95
91
93
96
95
95
95
96
96
95
93
93
91
89
95
93
91
95
96
96
98
96
87
77
69
66
66
66
63
66
68
76
82
86
87
86
84
82
84
86
91
91
87
87
84
82
87
89
86
82
84
84
82
87
87
89
87
91
95
87
89
95
91
95
96
95
95
96
96
96
96
96
96
95
96
95
91
91
93
93
89
95
95
96
96
95
86
76
71
65
60
63
63
63
68
76
82
86
87
86
86
86
89
87
91
89
87
89
86
86
87
89
86
82
82
82
82
87
89
93
93
93
93
91
91
96
95
98
98
96
98
98
98
98
95
95
95
95
95
95
91
93
91
93
