P2
# 407 of 608 Angiograms
64 64
255
86
84
84
87
91
84
84
87
89
89
89
87
89
89
91
93
96
98
96
98
95
87
77
72
71
66
66
68
74
76
82
86
87
86
87
84
84
87
89
89
86
87
84
82
86
84
81
76
79
81
81
82
87
89
91
95
95
93
95
93
95
96
93
95
86
82
87
87
89
86
84
86
89
93
91
87
87
91
91
91
95
96
96
100
96
86
74
69
69
65
68
71
74
77
86
87
87
86
84
84
82
84
89
89
86
86
84
86
86
86
79
76
77
82
84
86
89
91
91
95
98
96
96
93
95
96
95
96
89
86
86
89
89
87
86
87
89
93
93
91
89
91
87
89
93
95
96
98
96
84
72
71
69
68
68
71
74
79
87
91
86
82
82
84
82
82
86
87
84
84
84
87
86
81
77
76
76
82
86
87
89
91
93
96
98
96
96
95
95
96
96
98
89
87
86
87
87
86
89
87
89
91
93
91
89
87
87
89
95
95
95
96
95
84
74
69
69
66
66
69
76
82
89
93
86
84
84
84
81
84
84
82
87
82
82
86
82
77
77
76
79
82
87
89
91
91
93
96
96
95
95
95
95
95
98
98
89
87
87
86
86
87
87
86
87
91
89
89
87
91
89
89
91
95
96
98
93
82
74
71
68
66
63
69
79
84
91
91
87
86
86
84
81
82
84
84
87
81
82
82
77
72
76
79
82
84
87
91
91
93
95
93
93
93
95
95
93
93
98
98
91
91
89
86
86
86
82
82
87
87
89
89
89
89
93
91
89
93
96
98
91
81
72
69
68
68
63
71
76
84
91
89
91
89
86
86
82
82
82
84
84
77
79
79
76
74
77
81
82
86
89
89
91
93
95
93
93
93
93
93
91
91
98
102
93
91
86
86
84
86
82
82
86
89
89
89
86
86
91
93
89
91
96
96
89
81
72
69
66
66
65
71
76
86
93
93
89
86
86
84
81
81
84
82
82
79
76
76
79
81
81
82
82
87
91
91
91
91
95
95
93
95
95
95
95
95
96
96
91
91
89
87
84
84
82
79
82
87
89
89
87
87
89
91
89
95
96
96
87
81
74
71
66
65
68
69
76
87
95
95
87
86
87
82
81
82
84
82
82
81
81
81
82
84
87
86
87
87
89
91
91
95
96
95
93
96
95
95
96
96
96
96
89
87
91
86
82
86
84
77
79
84
89
91
91
91
89
91
93
91
95
96
91
81
72
69
68
65
65
68
76
87
96
95
87
86
87
87
84
82
81
86
86
84
84
84
86
86
89
89
93
91
93
93
93
96
98
93
89
93
95
95
95
95
96
96
89
89
91
87
84
82
81
77
79
82
87
89
93
95
91
93
91
93
95
96
91
81
69
66
66
65
66
68
74
86
93
93
87
87
89
87
84
87
82
86
89
87
87
91
91
89
95
95
95
96
96
96
95
96
96
91
91
93
95
95
93
95
98
96
87
93
89
84
84
84
82
82
79
82
89
87
89
89
89
91
95
96
95
95
89
79
69
66
65
65
66
68
74
86
93
89
91
91
93
89
86
86
86
89
89
91
93
96
96
96
96
96
98
98
98
100
98
96
93
91
91
93
93
93
95
95
96
91
91
95
95
91
87
86
86
84
82
84
87
84
84
86
87
89
91
98
102
95
87
79
71
68
66
63
65
69
76
87
91
95
95
95
91
86
82
86
86
86
86
87
93
98
98
98
98
100
102
102
104
102
98
96
93
91
87
87
87
93
93
95
95
95
93
93
95
93
89
89
86
86
82
82
87
87
87
86
86
86
89
95
100
95
87
79
72
69
68
66
65
68
76
87
93
96
98
96
89
84
84
87
89
87
87
89
95
100
98
98
98
102
102
102
106
104
100
96
91
91
89
89
89
93
96
100
98
98
95
95
95
93
89
87
89
87
86
82
86
87
91
87
84
87
89
93
96
93
86
77
71
66
65
66
65
68
74
87
91
93
93
95
91
87
86
86
84
86
87
91
96
100
98
96
100
104
104
102
104
104
102
96
95
93
93
93
95
96
98
102
102
98
93
93
96
89
89
89
87
89
86
84
86
87
89
89
87
87
89
95
98
91
82
74
69
68
66
63
63
69
76
87
93
95
95
95
93
87
86
86
86
87
91
95
102
98
96
96
98
102
106
104
106
104
102
100
100
95
93
91
96
98
98
102
106
102
91
93
96
95
91
91
89
91
87
84
86
86
87
87
86
86
91
96
98
89
79
71
68
66
66
65
65
69
74
87
95
93
95
98
93
89
87
86
86
87
91
98
102
102
98
100
102
106
108
106
102
104
104
100
95
95
95
95
98
104
106
108
108
104
91
91
96
98
95
89
89
87
84
82
84
87
91
91
89
89
91
95
96
87
79
69
66
63
66
65
65
69
76
89
95
93
93
91
91
86
84
82
86
87
91
98
102
104
106
106
108
108
110
108
106
104
104
100
95
93
93
95
98
100
106
108
108
108
91
89
93
95
93
89
89
87
87
84
82
87
91
87
89
91
95
96
95
87
81
72
69
65
63
66
68
69
76
87
93
95
91
89
87
86
84
84
82
86
89
98
104
104
106
106
110
110
110
108
110
104
104
104
98
95
93
96
100
102
106
104
106
106
91
89
91
93
93
93
86
86
86
84
84
87
93
91
91
95
96
98
95
87
79
74
72
65
63
66
69
72
77
87
91
95
91
91
89
87
89
82
81
82
87
96
100
102
104
108
110
112
108
108
106
100
102
100
98
95
95
96
96
98
104
104
104
104
91
89
91
91
89
93
89
87
86
84
84
89
93
95
93
93
98
98
95
87
79
74
69
66
63
63
69
71
77
89
93
95
93
89
87
84
84
82
76
77
84
95
98
100
102
108
108
108
106
106
104
102
98
98
98
96
96
95
96
98
102
100
104
108
93
86
91
89
86
89
89
89
89
87
89
93
91
93
95
96
95
95
93
86
77
72
69
68
63
62
68
72
77
89
95
93
91
87
87
84
82
81
76
77
82
91
96
100
104
106
106
106
102
100
102
98
96
100
96
96
100
98
98
102
102
100
106
110
87
87
91
95
87
87
87
86
87
91
91
95
93
95
91
95
95
91
89
84
77
72
68
66
63
62
66
72
79
91
96
93
87
87
86
86
82
81
79
76
82
87
95
98
102
104
104
106
104
100
100
95
95
95
93
91
96
98
100
104
104
104
102
104
91
89
93
93
89
87
86
84
87
93
95
96
95
93
91
89
93
91
87
81
76
71
68
65
66
63
66
72
81
93
96
95
87
87
86
84
82
81
76
76
79
86
93
98
104
106
104
104
104
100
96
98
91
89
87
87
93
96
98
102
106
108
104
106
91
91
95
93
89
86
84
82
89
93
93
95
95
95
95
89
91
89
84
81
74
69
65
65
63
65
68
74
82
93
96
96
91
89
89
86
81
76
72
76
77
86
93
100
106
108
106
104
100
96
96
98
96
93
93
87
89
95
96
100
102
110
106
104
91
91
95
89
87
86
82
82
87
93
91
93
95
95
96
89
91
91
87
81
71
65
62
63
63
65
69
76
86
95
95
96
96
91
89
86
81
76
71
71
77
86
95
104
110
110
108
110
108
100
100
98
96
95
91
86
86
93
96
98
98
106
106
108
93
91
89
91
86
82
81
82
87
93
91
89
87
91
93
93
91
91
87
79
69
65
62
59
60
63
69
77
87
96
93
95
96
96
93
89
82
79
76
74
79
87
96
106
110
110
108
108
108
106
104
102
98
96
93
87
89
93
96
98
98
100
106
106
93
89
91
91
86
82
82
86
87
89
91
89
87
87
89
91
93
91
84
77
68
66
60
59
58
62
71
79
89
96
95
95
96
95
95
89
81
79
76
76
79
89
96
104
112
113
112
112
110
108
108
104
100
96
93
91
93
95
95
98
96
98
104
106
87
86
87
89
86
84
84
82
87
89
91
89
89
87
86
87
91
91
82
76
68
65
60
59
59
62
71
79
89
96
98
96
95
93
93
87
81
81
76
76
81
89
96
102
112
117
113
112
108
108
106
104
98
96
91
87
89
95
96
100
98
102
104
108
86
86
84
84
84
84
84
86
89
89
87
87
89
86
86
86
87
86
79
72
68
63
59
59
60
62
69
79
89
95
95
96
95
95
93
86
84
81
74
76
81
89
95
102
110
115
112
112
110
108
104
102
98
96
93
91
93
93
96
98
98
100
102
104
87
82
82
84
86
87
87
91
91
86
86
91
91
89
87
86
82
82
79
71
66
63
60
60
60
63
69
79
89
96
93
95
95
95
89
86
86
79
77
76
82
91
96
104
112
113
113
113
112
108
104
102
96
95
93
89
93
95
96
100
98
96
98
102
81
77
79
82
84
87
89
87
89
87
89
93
95
91
87
86
87
82
77
69
62
60
62
60
60
63
68
79
87
96
95
95
93
93
89
86
82
77
79
79
84
93
96
104
110
110
115
115
112
108
106
102
96
95
93
89
93
98
98
98
96
96
102
104
79
79
77
79
84
86
84
84
89
86
89
91
93
89
87
89
89
84
76
69
60
58
58
60
63
65
68
79
87
93
95
96
96
95
91
86
81
77
77
82
86
91
98
106
110
112
112
115
112
108
106
102
96
98
93
91
93
98
100
98
98
100
102
102
82
84
79
79
82
82
84
84
87
86
86
87
93
93
89
89
89
87
77
71
60
56
56
58
62
63
68
77
89
95
96
95
95
93
87
86
82
79
79
81
86
91
98
108
108
110
112
117
112
110
106
104
100
98
96
95
93
96
98
102
100
100
102
98
84
82
79
81
82
81
82
84
87
87
86
86
93
91
89
89
91
87
79
71
62
60
62
59
60
63
68
77
89
93
93
93
95
89
89
86
86
84
81
79
86
93
100
110
110
110
113
117
115
110
106
102
98
96
96
95
93
96
98
100
102
102
102
98
82
81
81
82
84
84
84
86
87
87
89
89
93
91
89
91
89
87
79
71
63
62
63
63
60
62
69
79
89
95
95
95
95
91
91
89
87
86
81
79
82
91
100
108
110
110
113
112
115
110
104
100
95
96
95
95
96
96
98
102
106
104
102
100
81
79
79
81
82
81
82
84
86
86
87
89
93
96
93
91
89
87
81
71
62
63
62
60
59
63
69
79
89
96
98
96
95
95
95
91
87
82
82
79
81
89
100
106
106
110
110
112
115
112
106
100
98
96
91
93
95
98
102
102
106
106
100
100
79
77
76
81
82
82
82
84
87
89
86
89
93
96
95
91
89
89
81
69
66
62
59
60
60
65
69
79
89
95
96
95
95
93
93
89
86
82
81
79
82
87
100
106
108
112
112
112
115
113
108
102
98
96
95
95
98
98
98
98
100
102
102
102
76
74
76
79
82
82
81
82
86
87
87
91
95
98
96
93
91
87
82
71
68
63
60
62
63
66
69
81
91
96
98
96
96
95
93
89
84
79
82
81
84
86
98
106
108
108
112
110
112
112
106
100
95
96
96
95
98
95
96
98
98
100
104
102
76
71
74
79
84
84
82
82
86
86
87
89
93
96
98
96
96
91
86
76
69
65
63
63
66
65
71
81
93
96
95
100
95
93
91
91
86
84
82
82
81
86
96
106
106
106
112
110
112
110
104
98
95
95
93
96
98
98
98
98
98
102
102
102
77
74
76
81
82
82
79
81
82
84
87
89
91
96
98
96
98
96
89
79
72
66
65
66
65
65
74
84
93
95
95
100
98
95
91
89
89
84
79
79
77
81
89
100
104
108
110
112
112
113
106
100
96
93
93
98
102
100
98
98
100
102
102
95
77
79
77
81
84
81
79
81
79
84
86
89
91
95
98
100
100
96
89
79
72
68
66
68
65
69
79
86
93
95
96
98
96
91
93
93
89
82
77
77
74
79
86
93
102
108
112
108
110
113
112
104
98
95
95
98
98
100
100
102
102
102
98
95
79
79
76
77
82
82
79
81
82
87
89
89
91
95
98
100
100
95
87
79
72
66
63
66
69
71
81
87
89
91
93
93
91
89
93
91
84
79
81
81
79
81
86
89
96
104
110
110
113
112
112
110
102
96
96
98
96
102
102
104
102
98
100
98
82
81
76
76
79
79
77
81
86
89
89
89
93
96
102
96
95
93
84
76
71
69
68
68
69
71
81
86
89
91
91
93
91
89
91
89
84
82
82
82
81
82
84
87
93
98
106
110
113
113
112
110
108
104
100
100
102
100
104
106
104
102
104
104
81
79
76
76
76
79
81
79
84
87
89
89
93
96
100
102
96
91
81
72
69
69
69
68
69
71
81
87
93
91
86
87
89
91
91
89
86
84
82
79
79
82
82
82
86
93
100
108
113
113
112
112
110
106
102
100
100
102
106
106
106
102
102
104
79
77
77
77
77
77
81
79
81
84
87
89
91
98
102
102
98
89
79
72
66
63
66
66
68
69
82
87
91
91
87
89
91
93
91
89
86
84
81
79
79
82
82
81
82
87
95
102
110
112
112
112
110
106
102
98
102
106
106
108
104
100
100
100
77
77
77
77
74
76
81
81
84
84
84
89
95
100
100
102
96
89
79
72
69
65
63
66
65
66
81
87
89
91
91
91
91
93
91
89
87
86
81
82
82
82
84
82
84
87
91
98
106
110
108
110
108
106
106
102
104
104
106
108
106
104
104
104
81
81
77
76
74
77
81
81
82
82
81
87
95
98
96
96
96
89
81
72
68
63
62
63
65
68
81
86
89
89
89
87
89
93
96
93
89
87
84
86
84
84
86
86
87
87
91
95
100
108
106
108
108
104
108
106
106
106
106
108
110
110
112
110
82
79
74
74
76
77
79
81
81
82
82
87
96
98
100
96
95
87
81
72
68
63
63
65
65
69
82
87
89
91
91
89
89
95
96
93
89
89
87
87
86
87
87
86
89
87
89
95
96
104
106
108
108
106
108
106
108
108
106
112
113
113
110
110
84
82
76
74
74
77
79
79
81
84
86
91
96
100
100
96
95
86
77
72
69
65
62
65
66
69
82
87
87
91
91
89
93
95
95
91
91
91
87
86
89
89
91
87
89
91
91
95
95
98
106
108
108
106
108
106
106
108
108
110
110
110
110
108
86
82
79
76
76
74
76
81
84
84
87
91
93
96
96
96
91
84
76
69
69
65
65
63
65
69
81
87
87
89
89
89
93
98
95
91
87
89
89
89
91
91
91
91
87
93
89
93
93
96
100
106
108
112
110
104
110
112
108
108
108
108
108
108
86
84
81
81
77
76
79
84
87
84
87
93
93
96
98
95
91
84
74
69
68
66
63
65
63
71
81
87
91
95
91
91
93
96
95
93
89
89
91
93
91
93
93
93
91
93
93
95
95
96
96
102
104
110
110
106
106
106
106
106
108
106
108
108
89
87
86
82
79
77
82
84
89
91
91
91
95
100
96
93
91
82
76
68
63
63
63
63
63
69
82
87
93
95
91
95
95
98
93
93
93
93
95
96
95
96
96
96
91
91
96
96
96
95
95
98
100
104
108
108
110
108
108
108
108
110
110
106
89
89
87
81
74
77
84
84
86
89
91
93
95
98
95
93
87
82
74
68
63
60
62
63
63
69
82
87
93
95
96
96
96
98
96
95
93
95
93
95
96
96
96
96
95
91
95
93
96
96
96
96
102
104
108
110
108
110
110
112
112
110
108
110
87
86
84
79
74
76
82
84
87
91
91
93
95
96
95
93
89
82
74
68
66
63
62
63
68
69
82
89
93
93
96
100
96
98
95
95
95
95
89
93
96
96
96
96
98
95
96
95
96
96
98
98
100
104
108
110
108
110
110
110
110
108
108
108
87
84
82
79
74
76
79
84
87
93
95
96
96
96
95
91
87
82
74
69
66
63
65
63
63
69
82
89
96
95
96
98
96
98
98
95
93
91
93
98
96
95
96
100
96
96
98
96
96
96
98
102
102
104
108
108
110
108
106
108
110
108
108
106
86
84
84
82
74
74
79
86
91
93
96
98
96
96
96
93
86
82
74
69
65
65
66
62
63
69
82
91
95
98
98
98
98
102
100
95
91
93
100
102
96
96
96
100
96
96
98
95
93
95
98
102
102
102
104
106
110
110
108
110
108
108
110
110
87
84
82
82
77
74
84
91
95
95
96
96
98
96
96
95
87
81
72
66
63
66
66
62
63
71
82
91
95
98
100
102
96
100
102
98
93
95
98
100
95
95
96
100
98
96
98
96
95
96
98
100
102
98
100
102
104
106
108
112
113
113
110
112
86
84
84
84
79
76
84
91
95
95
96
98
98
100
96
96
89
77
71
66
62
65
68
68
66
72
82
91
96
98
100
100
96
95
96
98
98
96
98
102
96
98
95
98
98
95
96
95
96
96
96
98
100
102
100
100
104
104
106
110
110
112
112
108
84
82
82
86
82
81
84
91
93
98
98
96
98
100
98
96
89
77
71
65
60
62
66
66
68
74
82
91
95
98
100
102
96
95
96
98
96
96
96
100
100
98
95
95
96
95
95
95
96
98
96
100
102
104
102
102
106
106
106
106
112
112
110
108
89
86
86
86
81
82
86
95
96
98
96
95
96
98
98
96
89
76
69
65
63
65
66
66
68
76
84
91
93
98
102
98
96
96
96
95
95
96
96
102
100
98
95
96
95
98
96
96
95
98
100
100
98
102
102
102
102
104
108
104
108
110
106
104
86
86
86
86
84
79
86
95
96
96
98
96
96
100
98
98
87
74
69
66
62
63
63
62
69
76
86
91
91
96
96
95
95
96
98
96
95
96
96
102
102
98
96
96
93
96
93
95
93
98
98
96
96
98
100
104
102
102
106
104
104
110
108
104
84
82
84
86
82
82
86
93
95
96
96
95
95
98
100
96
84
74
68
65
59
59
60
62
69
77
86
93
93
96
95
95
95
98
100
100
95
96
100
100
98
98
96
93
91
93
95
96
96
98
98
98
98
96
98
102
102
104
104
102
104
108
110
106
89
86
86
84
82
86
86
93
95
95
93
96
98
96
98
95
84
72
68
65
63
60
59
63
71
81
86
91
95
95
95
95
95
98
98
100
96
96
100
98
95
96
96
95
93
96
98
95
95
96
100
100
100
100
98
100
102
104
104
104
104
108
106
106
91
89
86
82
84
87
86
91
93
89
89
95
102
100
96
93
82
72
66
65
63
60
58
62
69
81
87
91
95
91
93
96
95
96
100
100
96
96
98
98
96
95
95
96
96
93
93
93
95
95
98
98
100
96
96
100
102
106
104
102
104
106
104
106
