P2
# 417 of 608 Angiograms
64 64
255
93
96
95
91
89
86
86
82
82
86
86
84
84
84
86
82
82
86
84
82
82
84
82
82
81
79
76
76
81
81
81
84
86
89
91
87
91
91
91
91
93
93
93
93
93
93
96
100
98
98
98
98
91
81
71
69
69
68
66
68
74
81
93
100
95
98
96
91
89
86
87
84
86
87
87
86
87
86
86
84
82
86
86
82
86
87
84
79
79
82
81
81
81
79
81
86
87
87
89
89
91
91
87
91
91
91
91
91
95
93
95
96
98
96
96
96
89
81
72
68
68
69
71
71
72
81
93
98
96
95
91
89
89
89
87
87
86
89
86
84
86
86
86
82
82
86
82
82
82
84
82
79
81
79
81
82
82
81
79
84
87
86
86
89
89
91
87
89
93
91
91
91
93
91
91
96
98
98
96
95
89
81
72
68
68
68
68
71
72
81
93
98
91
91
91
91
91
91
87
86
86
87
86
87
84
84
86
87
84
86
84
82
84
86
82
77
81
84
82
82
86
84
82
82
84
86
86
87
91
95
91
93
95
93
95
96
93
91
93
96
98
95
93
93
89
81
74
71
68
68
63
68
74
82
93
98
91
87
91
89
91
89
89
89
86
84
82
84
84
84
86
84
82
86
84
82
84
84
82
81
82
84
81
81
84
82
82
82
86
86
84
84
87
93
93
91
95
95
96
96
96
96
98
98
98
96
95
93
87
82
77
74
66
63
62
65
74
84
93
100
93
87
89
89
89
91
87
87
84
84
86
82
82
82
84
84
84
84
86
86
82
82
81
79
81
84
81
81
84
84
86
84
89
86
86
87
87
89
93
91
95
95
96
93
96
102
100
98
98
98
95
91
86
81
76
72
68
65
65
66
74
86
95
100
93
91
91
87
91
93
91
89
89
87
87
86
84
86
87
84
84
84
86
86
87
86
84
82
82
81
81
82
86
82
84
84
86
87
86
91
93
95
95
93
91
95
93
91
95
98
96
98
96
93
91
93
84
76
71
69
69
66
65
66
74
86
95
96
95
91
93
91
93
95
91
89
89
87
89
89
86
87
86
84
86
87
87
87
89
89
86
86
84
81
82
82
82
84
84
84
87
87
86
89
91
93
93
91
91
93
95
95
95
95
96
96
93
89
89
91
82
76
74
72
69
65
66
68
74
86
95
100
98
93
91
93
91
91
93
91
93
89
89
87
87
87
86
86
89
87
89
91
89
89
87
84
82
79
82
82
82
84
86
84
87
91
89
91
89
89
91
89
95
93
95
95
95
96
96
93
93
91
87
89
79
74
72
74
71
68
69
72
74
87
96
100
98
96
95
93
91
93
95
91
93
91
91
91
89
86
86
89
89
87
89
89
89
89
89
86
86
84
84
86
86
87
87
82
84
91
91
91
89
91
89
93
96
96
98
98
96
96
95
93
89
89
87
87
79
72
68
71
69
68
71
72
74
89
96
98
98
100
98
95
91
93
91
91
93
96
96
93
89
89
89
89
89
86
91
91
87
89
87
87
89
87
86
86
87
89
89
84
82
86
87
89
93
91
95
93
96
96
96
100
98
95
93
91
89
86
86
82
77
69
66
68
69
68
71
72
76
91
98
98
96
96
96
95
95
91
91
95
96
96
100
95
89
91
89
87
91
87
91
93
93
89
86
89
91
93
89
87
87
87
89
87
82
86
89
93
95
93
95
98
96
100
96
98
98
96
95
93
87
87
89
84
76
69
66
68
68
65
66
71
77
91
100
102
95
96
95
93
93
95
95
98
98
96
98
93
91
91
93
91
93
93
91
95
95
87
89
89
89
93
93
89
87
87
89
87
82
84
87
91
91
91
95
95
96
98
98
100
98
96
98
93
93
89
87
81
74
66
68
68
68
65
66
69
76
89
96
98
93
95
96
95
96
98
98
98
96
95
96
95
95
95
91
91
93
91
91
91
95
89
87
87
89
93
93
89
87
89
89
86
82
82
84
89
91
93
93
93
95
96
96
98
96
95
91
87
89
91
89
82
74
68
66
63
65
65
66
69
76
89
93
95
96
96
96
98
100
102
98
96
96
96
96
95
93
91
91
93
93
95
95
95
95
93
91
89
87
91
91
89
87
89
87
87
89
87
87
89
91
91
93
93
93
93
95
93
95
91
89
91
89
87
86
82
74
68
66
63
63
63
66
69
76
87
91
95
100
100
100
100
102
98
98
96
95
95
93
93
91
93
93
93
96
96
96
98
96
91
91
87
86
93
93
87
87
89
91
89
91
91
87
87
91
91
95
95
96
93
91
93
95
91
91
86
87
84
84
79
74
71
66
62
62
62
63
68
74
84
89
91
98
98
98
96
96
95
96
95
96
98
96
93
93
95
91
91
95
95
91
93
95
93
87
89
89
93
93
89
87
87
87
89
91
89
86
87
87
89
91
95
95
95
95
93
95
89
87
87
84
84
82
76
72
68
63
60
59
62
60
65
71
81
86
91
98
96
95
96
96
96
96
96
100
98
96
93
95
95
95
96
89
89
93
91
93
91
91
91
91
93
91
87
91
91
93
89
91
91
89
87
86
87
93
95
95
95
91
93
93
91
86
86
86
82
81
74
68
65
62
60
59
60
62
63
72
82
87
93
102
98
93
93
98
100
96
95
96
96
100
95
95
93
93
96
96
95
93
93
91
87
89
91
91
89
93
89
91
89
89
91
91
91
89
87
89
87
89
89
93
93
89
93
93
93
87
84
86
86
82
76
68
62
60
60
56
58
63
66
77
86
91
93
102
100
96
95
98
98
95
91
93
93
95
95
95
95
95
95
96
96
96
93
89
89
93
93
93
91
93
91
91
87
86
89
93
91
91
91
93
89
91
91
89
89
87
89
89
89
87
86
86
82
84
79
66
59
60
62
62
59
63
71
79
87
91
96
100
100
93
96
96
98
96
95
95
95
95
96
98
95
95
96
96
98
96
95
95
91
93
91
89
89
91
91
89
91
89
93
89
89
91
93
93
95
93
93
87
87
86
87
86
87
86
89
86
82
82
77
65
59
62
63
62
60
66
72
82
86
91
95
98
96
95
95
93
95
96
96
95
95
95
95
96
96
96
98
95
96
96
96
93
89
87
91
87
87
91
87
86
91
89
89
89
86
87
86
89
93
93
91
89
87
84
86
86
84
87
91
89
82
84
76
66
65
62
62
60
62
69
72
82
89
93
95
95
95
95
95
95
96
98
93
95
96
95
95
98
96
98
98
96
96
98
96
91
87
91
93
89
89
91
86
87
87
89
89
87
87
86
86
86
87
87
86
87
87
86
84
86
82
82
86
89
87
84
72
68
68
65
62
60
63
69
74
82
93
96
96
95
98
98
95
95
96
95
95
95
96
96
93
98
96
96
96
95
95
96
96
93
87
89
95
93
93
91
87
87
86
87
84
84
81
84
84
84
86
84
86
84
82
82
84
82
79
81
86
87
89
84
72
66
65
65
60
63
68
72
74
84
93
96
96
95
95
93
93
91
93
93
93
93
95
95
96
98
96
95
95
95
93
93
95
96
91
89
95
93
89
86
86
82
86
84
84
82
81
82
86
81
82
86
86
82
82
81
81
77
76
79
84
87
87
84
71
66
62
63
60
62
69
74
77
86
87
93
95
93
89
93
95
95
93
93
95
96
93
95
96
95
96
95
93
93
93
91
91
93
93
91
95
91
89
86
86
82
81
79
82
82
82
81
82
81
82
82
82
82
82
82
81
81
77
79
84
84
84
82
72
65
62
62
59
63
66
72
77
86
87
89
91
93
93
95
95
95
93
95
96
96
95
93
96
98
96
91
89
93
93
91
93
95
96
93
95
93
91
84
82
81
81
79
79
79
86
84
82
82
84
82
82
86
84
84
79
77
77
82
86
89
87
82
74
65
62
59
59
63
66
71
76
86
86
87
91
96
95
93
93
93
93
95
95
95
91
95
102
98
95
91
91
93
89
93
95
96
96
96
96
96
91
86
84
81
79
77
77
79
82
84
82
81
84
81
82
82
84
82
79
77
79
84
87
86
87
82
74
66
60
60
60
65
66
69
76
86
87
89
87
96
95
95
95
95
93
93
93
95
93
96
98
96
93
89
91
89
89
89
93
93
95
95
95
93
89
87
84
84
82
84
82
81
79
81
84
79
81
82
79
76
79
82
82
79
81
84
87
86
86
82
71
66
65
63
60
63
66
69
76
86
87
87
87
98
93
95
95
95
93
95
91
91
95
95
95
95
91
91
91
87
87
86
86
89
91
93
91
91
87
84
86
86
82
84
86
81
76
77
79
77
79
79
81
77
81
82
82
82
82
82
86
89
87
81
69
63
63
60
60
65
69
68
77
84
86
89
87
95
95
96
93
91
91
89
89
89
87
91
93
93
93
89
87
84
84
82
86
87
89
87
91
87
86
84
84
86
84
82
86
81
77
74
74
74
77
79
82
82
82
82
84
82
81
81
86
89
87
81
69
63
62
60
63
63
63
66
77
84
86
87
86
95
96
96
91
87
89
87
89
87
87
87
89
91
89
87
87
82
79
82
87
89
89
89
87
84
84
82
82
84
82
82
84
81
79
79
81
79
79
81
82
82
81
81
82
81
87
86
87
91
87
81
71
60
62
62
60
62
65
68
79
87
89
89
87
91
95
95
95
93
93
91
89
89
91
91
87
87
89
89
87
86
82
82
86
87
87
89
89
84
82
82
81
81
81
82
82
81
79
81
82
82
77
79
79
79
81
81
84
84
87
91
89
89
86
81
71
60
60
62
63
66
65
66
77
89
89
91
89
91
95
95
95
98
95
93
89
89
89
91
89
87
87
87
89
87
86
84
84
86
86
86
87
86
82
82
79
76
77
79
79
81
79
79
84
82
79
81
82
84
82
82
82
81
86
87
86
87
86
81
72
66
62
62
63
65
65
66
77
87
89
89
86
93
96
96
96
95
95
95
93
91
91
93
91
87
87
87
89
87
89
89
87
86
86
84
84
82
81
81
81
79
81
81
81
77
77
77
82
82
82
84
87
87
86
84
79
79
84
84
82
87
87
82
72
66
62
63
65
66
65
68
77
86
89
93
89
93
95
95
93
95
98
96
96
96
95
95
91
87
86
89
89
87
87
87
86
86
84
86
84
82
84
82
81
79
82
79
79
76
77
81
82
84
89
87
87
87
84
79
77
81
86
86
87
89
87
81
71
65
62
63
65
65
66
71
79
87
91
95
93
89
91
93
95
98
98
96
96
98
98
96
95
89
89
91
91
91
87
89
89
86
84
86
86
82
81
81
82
82
82
79
79
81
81
82
84
86
89
89
87
86
82
79
79
82
84
89
91
93
87
79
69
65
63
63
65
66
68
74
82
89
93
93
93
93
93
93
93
96
96
96
96
96
95
96
91
89
91
91
89
87
87
89
87
91
86
84
87
82
79
81
81
81
81
81
81
81
81
82
84
87
86
87
89
89
84
82
84
82
84
89
91
91
87
77
71
69
69
68
62
63
68
76
86
95
95
93
95
91
91
89
93
95
98
96
96
96
95
95
91
93
93
91
89
89
89
87
89
89
86
89
87
84
77
79
82
81
81
82
82
81
84
86
86
89
89
91
93
89
86
84
84
82
84
89
91
93
86
77
71
69
69
66
63
63
69
77
91
100
98
95
93
91
91
87
89
93
95
93
93
93
95
93
91
89
91
89
87
87
87
87
89
93
87
86
89
87
84
82
82
84
86
86
87
87
89
89
89
91
91
93
93
89
86
81
81
87
84
87
91
93
87
77
74
69
68
65
66
68
71
81
95
100
96
98
98
91
89
89
93
91
89
89
87
89
91
89
87
87
87
89
89
86
87
86
89
91
87
84
86
87
89
86
82
87
89
86
89
87
89
91
91
89
95
96
95
93
87
82
84
86
86
87
91
91
89
79
74
72
68
66
65
68
72
84
95
100
96
96
100
91
89
91
89
91
89
89
89
89
93
91
87
91
91
91
89
91
91
86
89
87
89
87
89
89
86
86
86
87
91
89
89
89
93
91
91
93
95
98
96
96
89
87
87
89
86
87
91
93
89
79
76
71
71
69
69
71
74
84
96
100
100
98
98
87
87
91
89
91
89
89
91
91
91
91
91
91
91
93
93
93
93
93
91
89
89
89
89
91
89
87
89
91
91
89
89
91
95
93
93
95
95
95
95
95
89
91
91
93
87
87
93
91
87
79
74
72
69
68
71
72
74
84
95
96
100
98
95
89
87
91
89
87
91
91
93
91
93
95
93
91
91
89
89
95
95
96
96
93
91
91
91
93
93
91
95
95
93
91
93
93
95
95
98
96
96
93
93
93
93
89
91
87
86
86
91
91
89
79
72
69
68
69
66
71
76
84
95
96
96
96
95
93
93
93
93
95
95
95
96
96
98
98
93
95
93
89
95
98
95
93
96
96
93
96
93
91
91
91
93
93
93
93
91
93
96
96
98
96
98
95
93
95
95
93
89
87
84
84
89
91
89
79
74
69
69
71
71
74
77
84
93
93
93
93
91
98
95
93
93
98
100
96
96
98
100
98
98
96
96
95
98
100
98
98
96
93
93
93
91
91
89
89
91
91
93
93
89
93
98
96
95
98
96
93
95
95
95
89
89
89
84
86
87
91
89
79
72
68
68
72
72
72
76
84
91
91
93
91
89
93
95
95
95
98
98
98
100
100
100
100
100
100
100
96
98
100
96
100
96
96
95
93
95
93
89
89
89
91
87
89
89
95
98
100
95
96
93
91
93
95
95
91
91
87
86
89
91
89
87
77
69
68
69
72
74
71
72
84
91
91
91
89
89
98
100
96
98
96
98
98
102
102
100
96
96
98
98
96
96
96
95
98
95
95
91
95
96
93
89
91
91
89
89
87
89
95
98
98
95
96
95
93
93
95
96
93
91
89
89
93
93
89
84
74
69
68
68
69
71
72
72
84
95
95
93
89
89
100
102
100
98
98
96
98
100
98
96
95
95
96
98
96
98
93
91
93
93
95
91
95
96
91
87
87
89
91
91
91
93
96
98
98
95
95
93
93
93
93
95
93
91
91
91
95
95
93
86
72
71
69
68
68
71
71
72
84
93
93
91
87
91
102
104
98
96
96
100
98
98
98
96
96
98
100
100
98
96
95
95
91
93
95
93
93
95
91
87
89
87
89
91
95
95
95
100
98
91
93
93
95
93
95
100
95
93
93
91
93
95
91
84
72
69
68
66
68
71
74
74
86
89
89
86
86
89
102
104
98
95
93
95
95
96
96
98
98
98
102
102
98
95
93
95
95
96
95
91
93
93
91
87
87
87
87
89
93
95
95
96
98
95
93
93
93
95
95
98
93
87
87
91
93
95
91
84
71
68
69
69
68
71
71
76
86
89
89
87
86
86
102
102
98
96
95
95
96
95
96
98
96
96
96
102
98
93
93
95
98
96
93
93
91
93
91
87
86
86
86
87
91
95
98
98
96
96
95
95
93
95
96
96
93
89
89
91
91
93
91
81
69
65
68
68
68
71
72
74
86
89
89
89
84
84
100
98
98
93
93
96
95
93
95
96
95
95
98
100
98
96
98
98
98
93
91
95
95
93
89
89
87
86
86
87
89
95
98
96
96
98
98
93
91
91
93
95
96
95
89
91
95
93
91
79
69
66
68
68
68
72
71
74
84
89
87
82
82
87
100
96
95
89
89
91
93
95
95
95
95
96
96
98
96
100
98
95
95
91
91
93
93
93
89
91
89
84
82
87
91
95
100
98
95
100
98
96
93
93
91
95
96
95
93
91
93
95
91
79
69
66
68
66
68
71
69
76
82
87
86
82
84
89
98
98
98
91
89
89
91
91
93
95
95
95
98
98
98
98
96
96
93
87
89
93
91
91
89
87
87
87
87
89
91
98
102
100
98
100
96
96
95
95
95
96
96
95
93
95
93
96
89
77
69
66
69
68
68
71
71
76
81
87
86
84
86
87
96
96
96
95
91
93
93
91
89
95
96
96
100
100
96
95
95
95
95
91
91
93
89
93
91
89
87
91
91
89
95
100
102
96
96
98
98
98
96
95
93
93
95
95
91
96
98
98
89
74
69
66
71
68
69
71
74
76
81
87
87
86
89
87
96
95
95
98
95
96
95
91
93
93
95
98
102
98
96
95
96
93
91
91
93
91
91
93
91
91
89
91
93
91
95
98
102
98
96
98
102
100
100
95
89
91
91
95
93
98
102
98
89
76
68
66
68
68
66
69
71
76
79
89
93
91
91
89
96
95
95
98
96
95
93
93
95
95
95
100
102
102
100
96
100
96
93
93
91
91
93
91
93
89
91
91
91
93
95
96
100
102
100
100
100
102
98
95
91
89
91
93
93
100
102
96
89
76
68
69
66
69
66
69
71
74
82
86
89
91
89
86
93
93
93
91
89
91
91
95
96
96
96
98
98
98
98
98
100
98
95
93
91
93
93
95
95
93
93
91
93
95
93
93
98
100
100
100
96
98
95
91
91
93
91
91
93
98
98
96
89
76
69
69
68
68
68
68
71
77
82
84
84
87
91
87
93
91
91
91
89
89
91
93
95
95
96
95
96
98
96
95
96
93
93
91
93
91
91
91
91
93
87
86
89
89
93
95
98
102
98
98
98
98
93
93
95
91
89
89
95
100
96
95
87
76
69
69
69
69
69
66
74
81
82
86
91
91
95
91
93
93
91
89
91
96
95
95
95
95
93
95
98
100
96
95
98
96
95
93
93
91
93
89
89
91
89
84
84
87
93
96
102
100
100
98
98
95
96
95
93
91
89
91
96
104
98
95
86
76
71
69
71
69
69
71
77
81
84
86
89
89
89
89
91
95
93
91
93
93
91
93
96
96
98
100
102
96
95
96
96
96
96
93
93
91
95
95
91
89
87
84
84
89
91
95
100
96
98
93
95
96
96
98
93
91
89
93
95
98
100
96
86
76
71
69
69
69
71
69
74
81
84
84
87
89
89
89
93
93
91
93
95
93
89
91
96
98
100
100
98
96
96
98
98
96
93
95
95
93
93
95
93
93
87
82
84
87
89
93
96
96
95
91
95
95
96
98
93
95
95
95
95
95
98
95
86
76
72
71
69
72
69
71
74
82
86
86
89
89
89
89
93
95
93
93
96
96
89
93
96
98
98
96
93
93
95
96
98
96
91
89
93
91
91
93
89
91
89
86
86
89
89
93
93
91
93
91
93
93
95
93
91
93
93
96
96
98
100
95
86
76
72
71
69
69
71
72
77
86
89
89
89
91
91
91
