P2
# 419 of 608 Angiograms
64 64
255
95
95
93
91
95
91
91
86
89
91
93
93
96
93
93
93
91
91
89
91
91
93
93
89
84
76
72
69
66
65
66
69
71
72
86
93
98
100
102
102
102
108
110
108
104
104
104
106
108
104
108
104
106
110
106
104
108
108
112
113
113
113
108
106
95
95
95
95
96
91
89
86
91
91
95
95
91
91
93
91
91
93
93
93
93
93
93
93
86
79
77
72
63
62
63
65
66
71
82
91
96
100
100
100
102
104
106
110
106
106
106
108
108
108
110
106
108
110
106
106
110
112
112
110
112
110
106
106
100
98
95
96
93
95
91
89
93
93
95
93
91
89
93
91
91
91
93
91
91
95
96
95
87
79
76
71
66
65
66
66
66
71
81
89
96
96
96
100
100
102
106
108
108
104
106
108
108
110
112
108
108
106
104
106
112
112
112
110
110
110
106
104
98
96
95
95
91
93
93
93
93
93
93
93
93
89
95
93
91
89
91
89
95
96
95
93
87
81
71
66
65
66
68
68
69
74
81
87
96
98
98
100
100
102
104
106
106
104
102
108
106
108
108
106
108
106
108
108
112
110
112
110
110
108
110
108
93
93
93
95
93
93
91
91
91
91
91
93
91
89
93
95
93
91
89
95
95
98
95
95
89
79
71
69
66
66
69
68
69
74
81
87
96
98
98
100
100
100
100
104
104
104
106
108
106
108
108
106
108
108
110
112
112
113
113
112
110
110
108
108
95
95
95
91
91
95
93
89
91
93
91
89
93
91
89
93
91
91
93
95
95
98
95
93
89
81
72
68
66
68
69
69
71
72
79
89
95
96
96
96
96
96
98
100
102
104
108
112
108
108
110
110
106
108
106
113
113
113
112
115
112
112
110
108
93
93
91
89
93
93
87
87
87
93
95
93
91
91
91
93
95
93
93
98
98
100
95
93
89
81
74
69
68
71
68
68
69
71
79
87
95
96
95
96
95
95
96
98
98
102
106
110
108
106
106
104
106
106
106
110
113
113
113
117
112
108
108
106
93
93
89
89
93
89
87
89
87
91
93
93
89
87
91
93
95
93
95
98
100
100
95
95
89
81
76
74
69
68
66
68
69
71
79
89
96
96
98
96
93
95
96
98
96
96
102
104
102
100
100
104
102
106
108
108
110
113
115
113
108
112
112
110
95
93
91
89
89
86
86
86
84
89
89
89
89
91
91
91
93
96
100
100
102
100
98
98
91
82
76
72
71
68
66
68
68
72
81
91
98
98
100
100
96
95
96
95
93
91
96
96
96
96
100
104
102
102
108
110
110
112
112
110
106
106
106
108
93
93
93
91
93
87
87
87
86
87
86
89
89
91
89
93
93
95
100
100
98
96
96
96
93
86
76
71
69
68
68
68
68
72
81
91
98
100
102
104
98
95
93
91
91
89
91
91
95
95
98
100
100
100
102
106
106
108
108
108
104
108
110
110
91
89
89
91
91
86
87
89
91
87
86
87
87
87
86
95
96
95
95
98
96
98
98
100
95
86
76
72
71
68
66
65
69
72
81
89
98
102
102
100
100
95
93
95
96
93
93
91
95
93
95
96
98
98
102
104
102
104
104
106
106
108
108
110
87
91
91
89
95
91
91
89
89
89
86
87
86
89
93
96
100
98
95
96
98
96
100
104
95
84
76
72
71
68
69
69
71
74
81
89
98
102
104
102
100
98
96
98
95
95
93
95
93
91
93
98
96
96
100
96
96
100
102
108
106
104
104
108
89
89
89
93
96
96
91
89
91
89
89
87
89
93
96
98
96
98
96
96
98
98
98
100
95
82
76
72
72
71
68
69
72
77
82
91
100
104
104
102
100
98
96
96
93
93
93
96
93
95
96
96
93
96
98
95
91
95
98
100
98
98
102
104
87
86
91
93
93
93
89
89
91
89
87
86
89
95
95
96
96
96
100
100
98
96
98
98
93
84
76
74
74
72
72
74
74
76
82
93
102
106
102
100
102
100
98
96
95
98
100
96
96
96
96
95
95
96
95
93
93
96
95
96
98
96
100
100
89
89
89
89
89
89
89
91
93
89
87
91
91
91
95
98
100
96
96
100
96
95
98
98
95
84
76
74
72
69
72
74
72
76
84
95
102
104
106
104
106
104
100
96
95
98
100
96
96
96
98
98
96
95
93
93
91
95
96
95
95
93
96
98
95
91
91
91
89
91
91
89
89
89
91
91
89
89
93
93
96
95
91
95
95
93
95
98
96
86
76
72
71
69
71
71
72
77
84
96
102
102
104
108
106
102
102
98
96
98
100
96
98
96
98
98
96
98
96
95
93
95
93
89
93
93
93
95
95
93
93
93
93
91
91
91
87
89
89
89
89
89
91
91
93
95
91
95
95
95
96
98
95
86
76
71
71
72
71
71
76
79
82
96
102
102
104
106
106
100
104
104
96
98
98
98
96
98
98
98
98
98
98
98
98
95
93
95
95
95
93
95
91
93
95
96
95
95
93
91
89
91
91
93
95
93
91
93
95
93
93
95
93
96
95
98
93
84
76
72
71
72
71
74
76
72
81
93
102
104
106
104
102
100
104
106
100
100
95
96
100
96
98
100
100
95
96
98
98
100
96
95
95
95
96
96
93
93
95
96
95
93
91
89
89
93
93
95
93
93
91
91
95
95
96
95
95
96
95
95
93
84
79
72
69
66
71
72
69
71
79
91
98
104
102
100
100
106
108
104
104
100
96
96
100
96
96
104
98
93
95
95
100
100
96
96
96
96
100
98
95
95
93
95
91
89
91
89
91
93
91
91
91
91
89
89
91
91
95
95
96
98
96
95
93
86
77
74
69
66
71
72
69
72
77
87
98
102
100
102
102
106
108
104
102
100
100
100
100
96
96
100
98
95
98
100
100
95
96
95
93
96
98
98
93
95
93
93
93
91
91
91
95
93
91
91
91
93
93
93
91
89
95
95
95
98
100
96
95
86
77
74
69
69
71
69
72
74
77
89
98
100
102
102
102
104
104
100
95
96
100
98
98
98
96
98
98
96
98
98
96
93
96
98
96
96
98
102
93
93
91
89
91
93
91
91
93
91
89
91
91
93
93
93
91
93
93
96
95
98
102
100
98
87
77
72
71
72
71
72
74
74
77
87
98
102
106
106
106
104
100
100
96
96
98
96
96
95
96
95
98
98
98
98
98
93
96
98
96
96
100
100
95
91
89
87
91
96
93
93
91
89
89
87
89
91
93
95
96
96
96
96
98
98
102
100
96
87
77
74
71
71
71
69
71
72
77
87
98
102
102
104
106
102
98
98
96
95
96
93
93
93
95
93
95
96
98
98
96
95
100
100
98
98
102
102
91
89
91
91
91
95
93
93
91
89
91
89
91
93
93
96
96
95
96
102
102
100
98
96
95
87
77
74
74
69
71
71
68
69
76
87
96
100
100
100
100
102
98
93
96
95
93
95
93
91
93
91
91
95
98
100
96
98
100
102
100
98
100
100
89
89
89
91
93
91
91
91
89
89
93
91
93
93
93
98
98
95
96
98
100
98
98
96
95
89
79
72
69
66
68
71
68
69
74
86
96
98
102
100
100
102
102
96
96
96
93
95
93
93
91
91
93
96
100
102
100
98
100
102
102
100
100
98
89
86
86
93
91
91
89
89
86
87
91
89
91
95
95
95
96
96
98
98
100
100
100
100
98
89
79
72
69
66
68
68
66
68
72
84
93
96
100
100
100
100
100
98
98
96
95
93
93
93
95
93
95
100
100
102
100
100
100
104
102
102
100
98
87
87
89
93
91
91
91
89
87
89
91
89
91
95
96
95
95
96
98
98
98
100
100
100
102
93
81
72
71
66
66
69
65
66
72
82
91
96
102
100
102
98
98
100
100
98
98
96
96
98
96
96
98
100
104
104
100
102
102
100
104
106
104
100
87
89
89
91
89
89
93
91
89
89
89
87
91
95
95
95
93
93
96
100
100
98
100
102
100
93
82
72
72
69
69
71
68
68
72
81
91
98
102
100
102
100
100
96
96
96
96
95
96
98
96
98
100
102
104
100
100
102
104
98
104
106
102
102
87
87
86
87
87
87
89
87
89
89
89
87
91
93
95
95
93
93
98
98
98
98
100
100
100
93
81
74
71
69
69
71
68
69
71
82
93
100
100
98
102
102
100
96
96
100
98
96
96
98
98
102
102
100
98
98
96
98
100
100
96
98
102
104
87
89
89
89
91
89
89
87
87
89
93
95
93
96
98
95
93
95
96
98
104
102
102
102
100
91
79
71
69
71
69
68
66
68
72
82
95
100
100
102
98
98
98
102
98
98
96
96
100
102
104
102
102
98
96
100
100
100
100
100
98
98
100
96
86
89
87
87
91
89
89
89
89
86
91
93
93
96
96
98
96
98
100
98
102
104
100
100
96
91
79
72
71
69
69
71
66
68
72
82
95
100
102
100
96
98
98
100
100
102
100
102
106
106
102
102
102
100
98
100
100
100
100
100
96
96
98
98
84
84
87
87
87
87
87
89
91
89
89
89
93
95
96
95
96
100
100
100
98
100
98
100
96
89
82
74
71
69
69
71
68
68
72
82
95
102
102
100
102
100
102
100
102
104
106
108
110
106
100
102
100
100
102
102
98
96
93
95
95
96
100
98
86
86
87
86
87
86
87
91
95
91
89
89
95
96
96
95
98
100
102
100
100
100
98
98
96
91
82
76
72
68
69
69
68
68
72
82
95
102
104
104
106
104
102
102
104
104
106
108
108
106
100
100
100
100
102
104
98
98
95
93
95
98
104
100
87
87
87
89
87
87
89
87
89
93
91
91
91
95
96
95
95
95
98
98
98
100
100
96
95
91
82
74
69
69
69
69
68
69
74
84
95
104
102
102
106
104
104
102
104
104
104
106
108
108
102
100
98
96
100
100
102
102
100
96
96
98
98
96
89
87
87
87
87
91
89
87
87
89
89
87
89
93
95
91
93
95
93
95
98
98
96
95
95
91
81
74
69
68
68
72
69
69
76
86
96
106
106
106
108
108
106
104
106
106
104
108
110
106
106
106
100
98
102
100
102
102
100
98
98
96
96
98
93
91
91
95
93
93
91
89
89
86
86
86
87
93
95
91
87
93
93
95
95
93
93
95
95
91
81
74
69
68
68
71
72
71
77
89
96
106
110
110
108
108
106
104
106
104
102
106
108
108
108
108
104
104
104
104
102
100
100
100
98
98
98
96
96
95
100
98
96
95
95
93
93
87
87
89
87
91
91
91
93
93
95
96
96
96
95
95
93
89
81
74
71
72
72
72
71
71
77
89
100
110
110
110
108
110
110
104
100
102
102
104
108
110
108
106
108
108
106
106
100
98
102
98
100
102
100
98
96
98
100
100
96
98
96
91
91
91
87
89
86
86
89
89
93
91
91
96
98
98
95
93
91
87
81
74
72
74
71
68
66
72
77
89
100
110
112
108
106
106
108
102
100
104
102
104
106
108
108
104
106
106
106
102
98
98
100
98
98
98
96
102
96
98
100
102
98
98
95
91
93
91
91
93
89
87
87
89
95
91
87
96
96
96
95
91
91
89
82
74
69
71
69
68
68
72
76
86
98
104
104
104
104
104
108
106
102
102
102
100
104
104
104
104
102
106
106
100
100
102
98
98
98
100
98
102
98
98
98
98
98
96
96
95
93
91
93
93
89
87
89
93
89
89
91
93
95
95
95
93
93
91
84
74
66
68
71
69
71
76
76
82
96
102
104
104
106
104
104
106
104
104
102
96
100
102
100
102
102
104
104
100
98
100
100
96
98
100
100
102
95
96
98
98
95
95
98
98
96
95
95
95
91
91
95
95
95
95
93
91
95
95
93
95
95
89
84
72
71
69
71
72
71
72
72
82
95
100
104
104
106
104
104
104
106
104
102
102
102
104
102
102
104
102
100
98
98
104
106
102
100
96
96
102
96
98
100
100
98
98
98
96
96
96
98
96
95
96
95
93
95
95
93
95
95
95
93
93
95
93
82
72
71
71
71
71
68
69
72
81
93
100
104
102
102
102
102
104
106
102
104
102
102
100
102
102
100
102
100
102
102
106
106
104
100
96
98
100
95
96
98
100
96
98
98
98
96
96
96
98
96
98
95
93
95
95
93
95
95
95
93
93
93
93
82
74
71
71
71
72
71
71
71
81
91
100
104
102
102
102
104
102
100
104
108
108
104
102
100
100
100
104
104
104
102
100
102
102
102
100
100
98
95
96
98
98
100
100
98
98
98
95
95
100
100
100
98
102
100
100
96
93
95
95
93
96
96
93
84
77
72
71
69
72
71
72
74
81
89
96
102
102
100
100
106
102
102
102
104
104
100
100
100
100
100
102
104
106
102
104
104
102
104
100
100
96
95
95
100
102
104
102
98
100
98
96
98
98
98
100
100
102
100
102
100
96
96
95
95
98
100
93
84
74
71
69
71
71
68
69
74
79
89
96
100
98
98
100
102
100
98
96
100
100
100
100
102
102
104
102
104
108
104
106
106
104
104
104
100
102
100
100
102
104
106
106
106
104
102
100
96
98
100
104
100
98
96
96
96
96
98
98
96
98
100
95
86
74
72
72
71
68
68
68
72
77
89
96
102
102
100
100
102
98
98
98
98
100
100
98
100
104
104
104
104
108
104
104
102
102
100
100
100
100
104
106
104
104
106
108
108
106
104
98
95
98
98
100
98
96
93
93
98
100
102
100
98
100
102
98
87
76
69
71
69
71
69
69
72
77
89
96
98
100
98
100
98
95
98
100
100
98
98
98
100
104
104
100
102
106
104
104
102
100
100
98
96
93
106
106
106
104
106
106
108
106
102
100
98
100
96
96
98
95
95
95
98
100
100
100
98
102
100
98
89
77
71
69
69
68
68
72
72
79
89
98
96
98
98
100
95
95
98
96
100
100
96
100
100
100
102
100
98
100
102
108
102
102
102
98
100
98
110
106
104
108
108
110
110
108
104
104
102
98
98
98
96
96
95
95
100
96
96
100
98
98
100
98
91
79
76
72
71
69
72
76
76
81
87
95
96
98
98
96
96
96
100
98
100
102
95
96
98
98
100
100
98
100
102
108
102
98
98
98
98
96
106
106
106
108
110
110
108
106
108
104
104
102
104
102
100
98
98
95
96
96
96
98
98
98
98
100
93
79
74
74
72
72
74
74
77
81
87
95
96
98
96
98
95
95
98
96
98
102
98
96
98
98
98
96
98
98
102
104
100
98
100
100
98
95
104
106
106
108
106
106
106
106
108
104
108
108
106
102
100
98
96
100
100
98
98
100
100
100
98
96
91
81
74
74
74
74
76
76
76
81
89
96
100
102
98
96
98
98
96
96
98
98
98
95
98
96
95
95
96
98
98
98
95
98
102
98
93
93
106
108
106
110
106
106
106
106
108
108
112
110
108
104
102
100
98
96
98
98
98
98
98
98
100
96
93
82
77
77
76
72
74
72
74
79
89
96
104
104
100
98
98
96
98
100
100
98
96
95
96
96
93
98
98
98
98
98
93
96
100
96
91
91
108
106
108
108
104
104
106
108
108
108
112
110
110
106
102
100
102
100
102
102
100
100
98
98
100
98
95
84
79
74
72
74
72
74
77
81
93
100
104
106
102
96
96
98
98
98
95
96
96
93
95
93
93
93
96
95
95
98
93
93
93
95
93
91
106
108
106
102
100
102
108
108
108
108
110
108
108
106
104
102
102
104
102
100
104
102
100
96
96
100
95
86
79
74
74
76
72
72
74
81
95
104
106
104
102
100
98
96
98
96
95
95
96
95
93
93
91
93
95
91
93
95
93
93
93
91
93
95
106
106
104
102
98
102
108
110
110
106
106
106
106
106
106
106
102
102
106
100
100
102
102
100
102
100
95
86
77
74
74
74
71
69
74
81
93
102
106
106
106
104
102
98
100
98
95
95
95
93
91
93
93
93
93
91
89
91
93
93
95
91
91
98
100
100
102
106
106
104
104
104
106
108
108
104
106
106
106
106
102
104
106
100
102
104
106
108
106
104
96
84
79
74
76
74
71
69
72
79
91
100
106
104
104
104
100
98
100
100
96
95
95
91
91
91
91
93
93
89
91
93
91
96
96
95
93
93
102
104
102
104
104
104
102
104
106
108
106
104
106
108
106
106
102
104
104
104
108
106
104
106
108
106
96
82
77
72
71
69
68
68
71
79
89
104
110
106
102
104
100
98
102
100
96
93
95
91
89
89
91
93
91
86
91
93
91
93
95
95
95
89
104
106
104
102
104
106
104
106
106
108
106
106
106
108
108
106
104
106
104
106
112
112
108
106
108
108
98
82
76
71
72
72
71
69
71
79
89
102
108
106
102
102
100
100
102
98
98
96
95
93
93
89
89
93
87
84
91
91
93
93
93
93
89
91
104
106
106
106
106
104
100
104
104
110
106
104
106
108
108
108
108
108
106
108
108
110
112
110
108
108
100
84
76
72
74
72
71
72
71
79
87
98
104
104
98
98
98
100
98
100
100
98
96
93
91
89
93
93
93
91
93
93
95
93
93
91
91
91
106
102
104
104
104
102
100
102
104
106
104
102
106
108
108
108
106
106
104
108
108
112
112
108
110
106
100
86
76
72
71
71
69
71
71
77
86
98
102
104
102
100
100
102
102
100
98
98
100
98
95
95
95
98
95
93
93
95
100
96
93
93
93
93
102
102
102
102
102
102
102
102
100
104
106
102
102
104
106
108
108
108
108
106
108
112
112
106
106
104
100
86
79
76
72
72
72
71
74
77
86
96
102
104
102
98
98
102
102
100
96
96
98
98
98
102
98
98
95
93
93
96
96
98
96
93
93
95
102
102
102
100
104
102
98
100
104
104
104
104
104
106
104
106
104
106
106
102
102
106
106
106
108
106
100
87
77
76
72
72
71
69
72
77
84
95
98
102
104
98
96
100
104
102
98
96
96
100
98
102
102
98
96
96
95
96
96
96
96
93
91
93
104
102
100
102
102
102
98
102
104
102
104
104
102
104
104
102
102
102
104
102
104
106
106
108
106
106
100
87
77
74
71
71
69
68
71
77
84
93
102
104
104
104
98
100
102
106
104
100
96
100
98
102
100
98
98
98
96
95
98
96
96
96
93
93
100
102
102
102
104
106
104
102
102
104
104
106
102
102
104
102
102
100
102
102
102
104
106
108
110
110
102
89
79
74
71
69
69
69
71
77
86
95
104
100
102
100
102
100
100
104
106
104
96
98
102
102
102
96
96
96
96
100
100
98
96
96
93
95
