P2
# 420 of 608 Angiograms
64 64
255
141
142
141
141
137
135
135
137
139
139
141
142
142
142
142
142
141
137
139
139
141
139
137
133
133
137
137
137
137
137
139
141
141
141
137
133
131
133
135
137
139
141
139
142
144
142
141
142
139
133
127
125
127
127
125
125
125
127
127
121
115
112
108
100
141
142
142
139
139
137
137
137
137
137
139
141
142
142
142
142
139
139
139
139
139
137
135
133
131
133
137
135
135
135
137
137
137
137
137
133
133
135
139
137
137
139
142
142
141
141
139
137
133
127
121
119
123
123
123
127
127
131
129
125
119
113
110
100
141
142
141
139
139
139
137
137
137
137
137
137
141
139
137
139
139
141
139
139
137
137
135
135
133
131
133
135
131
131
131
133
133
135
137
135
135
133
135
135
135
137
141
141
137
135
133
131
127
123
117
115
117
121
123
125
127
129
125
123
117
113
106
98
141
142
139
137
135
137
137
135
135
133
135
139
141
137
137
137
139
139
137
133
133
135
135
133
133
133
131
133
131
131
131
131
133
137
137
137
135
133
133
133
131
133
137
137
133
131
129
127
123
117
115
115
117
123
125
123
125
125
121
119
115
112
102
96
141
142
137
135
133
135
133
133
133
135
139
139
142
139
139
139
139
137
135
131
133
133
133
135
135
135
133
135
133
133
133
133
131
133
135
137
135
133
135
135
135
135
135
135
131
129
127
125
123
119
117
115
117
123
125
123
123
123
123
119
113
108
102
95
139
141
139
139
135
131
131
133
135
137
139
141
142
141
139
139
141
139
137
133
133
131
133
135
133
131
133
133
133
135
133
133
133
131
131
133
133
131
133
135
133
133
133
131
129
127
125
127
127
121
119
119
123
125
125
125
123
123
123
117
112
108
98
93
137
141
141
139
135
133
133
135
139
139
141
142
142
141
139
139
142
141
139
135
133
133
133
135
133
133
131
131
133
133
135
135
137
133
131
131
131
131
133
133
133
131
129
129
125
123
125
127
127
125
125
125
129
127
127
125
119
121
123
117
112
106
98
95
139
139
141
139
137
137
135
135
137
139
142
141
142
142
141
139
139
141
139
139
137
139
139
137
135
135
133
133
135
135
135
135
135
133
133
133
133
133
133
133
131
129
129
131
127
125
125
129
129
127
125
125
125
125
127
125
121
121
121
117
112
106
98
96
139
139
141
141
141
139
141
141
141
142
144
144
142
142
141
141
139
139
141
137
135
137
139
139
137
137
137
133
133
133
135
133
135
133
131
129
127
131
133
131
131
131
131
133
131
131
131
133
131
129
127
125
125
123
123
123
123
119
119
115
108
104
98
93
139
139
141
139
137
141
142
141
144
146
148
148
148
144
141
141
141
137
137
137
137
139
137
139
139
135
137
135
133
135
135
133
131
127
125
125
127
129
131
133
131
129
131
131
131
131
131
131
129
127
125
127
127
125
123
123
121
119
117
113
110
102
98
93
137
137
139
141
141
141
142
141
144
148
150
148
146
144
142
141
141
139
137
137
137
137
137
139
137
135
135
135
131
131
131
131
127
125
123
121
127
129
131
133
133
131
131
129
129
129
131
131
129
127
125
125
127
123
121
119
117
117
113
113
110
104
98
93
139
139
137
141
142
144
142
144
144
144
146
144
144
144
141
141
139
137
135
137
135
133
135
137
135
135
135
133
133
131
129
127
125
125
125
123
125
129
129
135
137
133
133
133
131
133
133
133
133
131
129
125
125
119
121
119
117
115
113
112
108
104
98
96
137
139
139
142
146
146
144
144
144
144
142
142
141
141
139
137
139
137
133
133
137
133
135
135
131
133
131
131
133
131
129
129
127
125
123
121
123
127
129
135
133
133
137
135
137
137
137
139
139
133
129
129
127
121
121
119
117
115
113
112
110
102
98
95
139
141
144
146
150
148
144
142
142
142
141
141
139
141
137
135
133
137
133
133
135
133
133
135
133
133
129
129
131
131
129
129
131
129
127
127
127
127
131
133
133
135
137
139
139
137
139
139
141
135
129
131
129
127
123
121
119
112
112
112
108
104
98
95
142
144
146
148
148
146
144
142
142
144
144
144
141
139
137
133
133
137
137
137
137
133
133
131
133
133
129
131
133
131
131
131
133
131
127
125
125
127
131
133
135
135
137
139
139
139
139
141
141
137
135
129
129
131
127
123
117
112
112
112
108
104
98
93
144
144
144
146
150
148
148
146
142
142
142
141
141
137
137
135
135
137
139
139
139
133
131
129
131
131
131
131
133
131
133
135
131
131
127
125
125
127
129
133
135
139
141
141
142
141
141
141
139
137
137
137
133
133
129
125
119
113
110
108
106
104
98
93
144
146
146
146
150
152
150
148
144
142
141
141
141
137
137
135
133
137
141
141
135
133
133
131
131
133
133
131
135
137
137
135
131
127
125
127
127
129
131
135
139
141
141
142
142
142
142
142
141
139
141
139
135
133
127
123
119
115
110
110
104
100
98
96
148
150
150
148
148
152
152
148
146
141
141
141
141
137
135
137
133
139
139
139
139
137
137
133
131
133
133
133
131
135
137
135
131
129
129
129
131
131
133
139
142
142
142
144
144
141
142
144
144
142
141
139
135
133
129
125
119
115
110
108
106
100
100
96
150
152
150
150
150
150
150
150
146
142
141
141
139
135
137
139
139
139
141
141
141
139
139
137
135
135
137
137
135
135
135
135
131
133
133
135
135
135
137
141
141
142
142
144
144
141
141
142
142
142
141
139
137
133
131
127
123
119
113
110
108
104
98
96
150
150
150
152
152
152
152
148
148
144
142
142
141
139
139
139
139
141
141
141
141
141
139
137
137
139
141
141
141
139
135
135
135
135
137
139
139
137
135
139
142
144
142
144
146
144
141
142
141
141
142
141
137
135
135
129
125
123
117
117
113
108
100
96
150
148
152
156
152
152
152
152
148
146
146
144
144
142
141
139
139
139
141
141
141
141
142
142
142
141
142
142
142
141
137
137
135
139
141
141
139
135
137
142
141
144
144
144
146
146
142
142
141
142
142
142
141
137
133
129
131
125
119
119
115
112
106
100
152
152
156
158
154
152
154
154
150
148
148
148
146
146
142
139
141
139
141
139
142
142
142
142
144
142
142
142
142
141
139
139
137
139
142
142
139
137
137
141
142
144
144
142
144
144
142
142
144
142
142
141
141
135
135
131
131
129
123
119
115
112
108
102
152
154
158
159
158
156
156
156
154
152
150
150
148
148
144
141
139
141
141
141
141
142
144
144
146
142
144
142
141
141
137
137
137
137
142
144
139
137
137
141
144
146
148
144
142
142
141
142
142
141
142
139
141
135
135
131
131
127
123
119
113
112
108
100
154
156
159
161
159
159
158
158
158
156
154
152
150
148
146
142
139
141
139
141
141
142
146
144
142
142
142
141
141
139
135
135
139
141
141
142
139
135
139
141
144
146
146
146
144
142
141
141
141
141
141
137
139
137
137
133
135
131
125
121
113
110
106
100
158
158
159
161
161
159
156
156
154
152
152
152
150
148
146
142
141
141
139
141
141
141
144
142
141
141
144
142
141
141
139
139
139
139
139
141
139
137
139
141
141
142
146
144
142
144
142
141
139
142
144
142
141
141
141
137
137
133
127
121
115
110
106
102
158
159
161
161
159
159
158
156
154
152
150
150
148
148
144
142
141
139
139
142
144
141
142
142
141
142
146
144
142
142
141
139
139
139
141
141
139
139
141
141
141
141
142
144
141
142
144
142
142
144
144
144
144
142
141
139
137
133
127
123
115
110
106
102
158
159
159
158
156
156
154
152
150
148
146
146
146
144
141
141
141
139
141
141
142
142
141
142
142
146
146
144
144
139
137
137
137
139
141
141
142
141
141
141
139
141
142
144
141
142
142
144
144
144
142
141
142
142
141
141
135
133
127
123
115
110
106
102
158
159
158
156
154
152
148
146
148
144
142
141
141
141
141
139
139
141
141
141
141
142
144
144
142
144
144
142
141
137
137
135
133
135
137
137
137
137
137
139
139
139
142
144
142
142
142
144
144
144
142
141
142
141
137
139
133
131
129
123
117
110
106
104
154
158
156
156
152
148
144
142
144
142
141
141
142
141
141
142
141
144
144
142
142
142
146
144
144
144
142
141
139
135
131
133
131
133
135
131
131
131
133
137
135
137
141
142
139
141
144
144
144
144
144
142
142
141
137
137
133
131
127
123
117
112
108
108
152
154
154
154
154
148
144
142
142
139
141
144
142
142
142
142
144
146
144
144
144
142
144
146
144
144
141
141
137
131
131
133
129
131
133
133
133
131
131
135
131
135
137
141
142
144
144
146
146
146
144
144
144
142
137
133
129
129
125
123
119
113
108
108
150
150
154
154
154
148
144
142
141
139
141
142
142
141
142
142
144
144
142
142
142
144
144
142
141
141
137
139
137
135
133
135
133
131
133
133
131
129
131
131
129
131
137
141
142
144
144
146
146
144
144
144
142
144
142
135
131
129
129
127
123
115
108
106
148
150
152
156
152
148
144
139
137
139
139
141
142
142
142
141
142
144
142
142
141
141
142
139
137
137
137
137
137
137
135
137
133
133
131
131
127
127
129
131
127
127
133
139
141
146
146
146
144
141
142
144
142
142
142
139
135
131
129
125
123
117
110
106
148
148
152
152
152
148
142
139
135
135
137
141
141
141
141
141
144
142
142
142
142
142
141
141
137
137
137
137
137
135
135
131
131
131
131
129
125
125
131
133
131
133
135
141
142
146
146
146
144
142
142
144
146
146
144
139
133
133
131
127
125
117
112
110
146
148
148
150
150
148
142
139
135
133
133
137
141
141
141
141
144
142
142
146
144
144
144
142
141
139
139
139
137
137
137
135
133
133
131
131
129
129
133
135
137
141
142
142
144
144
146
146
144
146
142
142
146
144
142
139
135
133
133
127
125
119
115
112
148
148
150
150
150
148
142
137
137
135
135
137
139
139
141
142
144
146
146
144
144
144
146
146
142
141
139
141
141
139
139
139
137
137
133
133
133
135
139
141
142
144
146
144
144
144
146
146
146
148
144
142
142
142
141
141
139
135
133
131
127
121
115
112
150
150
150
150
150
148
144
141
137
137
137
139
139
141
142
146
148
148
146
144
141
144
146
148
146
142
141
141
141
141
141
142
142
141
141
141
141
142
142
142
142
146
148
146
144
144
146
146
146
148
146
144
142
144
142
142
141
139
135
131
127
123
117
112
150
148
148
150
152
150
148
144
144
142
142
142
144
146
148
148
150
150
146
146
142
146
146
148
150
146
142
139
139
142
142
146
144
144
144
144
142
144
144
144
142
146
148
146
142
144
144
146
146
146
146
146
144
144
142
144
144
142
139
135
131
125
121
113
148
150
150
150
152
150
150
148
146
144
144
146
146
150
152
150
150
150
146
146
144
142
146
148
148
148
146
144
141
142
142
144
148
146
146
148
144
144
144
144
142
144
148
148
144
144
146
146
148
146
148
146
142
142
142
144
146
144
142
139
133
127
121
113
148
148
148
150
152
152
150
150
148
148
148
148
150
152
152
152
152
154
150
146
144
146
146
148
148
146
144
148
146
144
142
146
148
148
148
148
146
146
144
142
141
144
148
146
142
141
144
146
148
144
146
144
142
144
144
144
146
144
141
139
135
129
119
112
152
152
150
152
152
152
154
152
148
148
148
150
152
156
154
154
154
152
150
146
148
148
150
150
146
146
146
150
148
146
144
144
148
150
150
148
148
146
144
142
139
141
142
142
139
139
142
146
146
144
146
146
142
144
144
144
144
144
141
141
135
129
119
112
154
154
150
148
148
152
154
152
148
146
148
150
150
156
156
154
152
150
150
148
152
154
154
152
146
146
146
148
146
144
144
146
146
148
152
150
148
146
146
144
141
141
139
139
135
137
139
142
144
146
148
146
144
144
144
142
142
141
141
141
135
129
119
112
152
150
150
148
148
148
150
150
148
146
146
150
150
152
154
152
152
146
148
150
154
156
154
150
148
148
146
146
146
146
148
146
144
146
150
150
148
146
146
144
141
137
137
137
131
135
139
142
142
142
146
146
146
146
148
144
142
142
141
139
133
127
121
112
150
150
148
150
150
148
148
150
148
146
146
150
152
152
152
150
148
146
146
148
152
156
152
150
148
144
144
144
144
144
144
144
146
148
148
150
146
142
142
142
139
135
135
133
131
135
139
141
139
141
142
144
144
146
146
144
142
141
141
137
131
127
121
113
148
148
148
150
150
148
150
150
148
144
144
148
150
150
148
146
144
144
144
144
148
148
148
148
146
142
144
142
139
141
141
144
146
144
144
146
144
142
142
139
135
131
131
129
129
135
139
141
135
139
142
144
142
144
144
144
141
139
137
133
129
127
123
117
146
148
150
150
150
148
150
148
148
146
146
144
148
148
148
146
144
146
146
146
146
144
142
142
142
142
142
141
139
141
141
141
142
142
141
142
142
144
141
137
131
129
129
129
131
133
135
139
139
141
142
144
142
142
142
144
141
139
135
135
129
125
123
117
146
148
152
152
152
150
150
148
148
146
146
144
146
146
146
144
144
146
146
146
144
141
139
141
142
142
141
141
141
141
141
141
141
142
141
139
141
141
139
133
129
129
127
129
133
133
133
137
139
141
141
142
142
141
141
142
142
141
137
137
133
127
123
115
150
152
152
154
152
152
152
150
148
146
146
148
146
144
144
144
144
146
148
146
144
139
137
139
139
142
142
142
141
142
142
141
139
142
142
141
139
137
135
131
129
129
127
127
133
137
137
139
141
142
141
141
141
139
139
144
144
142
139
139
135
129
123
115
154
156
158
154
152
152
152
152
148
148
148
146
144
144
144
142
144
148
148
148
144
139
137
137
139
141
142
141
141
142
144
141
141
141
142
142
139
135
135
131
129
129
129
129
131
137
137
141
142
144
144
146
144
142
142
144
144
144
142
142
137
131
123
115
154
156
156
154
154
152
152
152
148
146
146
146
144
142
144
146
146
148
148
150
146
141
137
139
139
141
139
141
141
142
144
141
141
144
144
142
139
135
133
133
129
131
129
129
133
137
141
144
144
142
144
146
144
144
142
142
144
142
142
142
137
131
123
113
156
156
156
154
152
152
154
152
148
148
146
146
148
144
146
148
148
146
148
146
144
142
139
139
139
141
141
142
142
142
146
144
142
144
144
142
142
137
131
133
133
135
135
133
135
139
141
144
148
146
148
148
146
144
144
142
144
142
142
141
135
129
121
113
156
154
154
152
150
154
154
152
148
146
146
144
146
146
148
150
150
148
144
144
144
142
141
141
142
144
144
144
142
142
144
144
142
141
142
142
144
141
135
133
133
137
137
139
139
141
142
144
148
148
148
150
148
146
146
146
144
144
142
141
135
127
121
113
156
154
150
148
148
152
154
152
148
148
146
148
146
148
148
150
148
148
144
142
142
144
144
144
144
144
144
144
146
146
144
142
142
141
142
141
142
141
139
139
139
141
142
146
146
146
146
148
148
146
148
150
148
144
144
144
144
144
144
141
135
129
121
115
156
154
148
146
146
150
152
152
150
148
148
146
148
148
146
148
146
146
144
144
141
144
144
148
148
148
146
148
146
146
148
148
146
146
144
144
142
142
141
142
146
148
148
152
152
152
152
152
150
148
148
148
148
146
146
144
146
144
141
141
137
131
123
117
156
154
152
148
148
152
152
154
150
148
148
146
146
148
146
148
148
144
144
146
146
146
146
148
150
150
150
150
148
148
148
150
152
150
150
146
146
146
144
146
150
152
154
158
159
158
158
156
152
152
150
150
148
146
146
146
146
146
144
142
137
133
125
119
158
156
154
152
150
150
154
152
148
146
144
144
146
144
144
148
146
148
148
150
150
150
150
150
152
152
150
152
152
152
152
154
156
154
152
148
148
148
150
152
154
156
159
161
161
159
159
159
158
156
154
152
152
150
150
150
150
150
150
144
141
133
127
123
159
159
158
154
152
150
152
152
148
148
146
144
144
144
146
150
152
154
156
156
158
158
156
154
154
154
152
152
152
154
154
156
158
156
152
148
148
152
152
154
156
159
163
165
165
163
161
161
159
158
156
156
156
154
150
150
150
150
148
146
142
135
127
125
158
159
159
158
158
156
156
156
152
148
146
146
144
146
148
152
154
158
159
159
161
163
159
159
158
156
156
154
154
154
154
158
158
156
150
150
150
152
152
156
159
163
167
167
165
163
161
159
161
161
159
158
156
154
150
150
152
150
148
146
142
135
127
123
159
158
159
161
161
159
156
154
156
154
148
146
146
148
150
156
158
161
159
159
161
161
161
161
159
158
156
156
154
154
156
158
156
156
150
150
154
156
154
158
161
165
168
170
167
165
163
161
161
161
161
158
156
156
152
152
154
150
148
146
142
137
129
121
158
158
159
161
163
163
159
156
156
154
150
150
148
152
156
156
159
161
161
161
159
161
161
161
161
159
158
156
152
156
156
158
156
154
152
152
156
156
156
159
159
163
167
168
167
167
165
165
163
163
163
158
154
156
154
154
154
150
144
144
141
137
129
121
158
159
161
161
163
163
159
156
156
154
150
148
152
154
156
156
159
159
159
158
158
159
159
161
161
159
158
154
152
154
156
156
156
154
152
154
158
158
158
158
158
163
165
168
167
167
165
165
165
163
165
158
154
154
154
154
154
150
146
142
141
135
129
121
159
161
161
159
159
161
159
158
156
154
148
150
150
152
156
156
158
156
158
158
154
158
159
159
159
159
156
152
150
152
156
156
154
152
150
152
156
156
156
156
158
161
165
172
168
167
165
165
165
163
163
158
154
154
154
154
152
152
148
144
141
135
129
119
161
161
159
159
158
159
159
158
154
152
148
148
150
152
154
156
156
156
156
154
152
154
158
158
158
158
154
152
152
152
150
150
150
148
148
150
154
158
159
158
158
161
163
167
168
167
165
165
165
163
161
158
156
154
154
154
154
154
150
146
141
135
129
119
161
159
159
159
159
158
158
156
152
150
148
146
150
150
152
154
156
154
156
154
154
152
154
156
158
156
154
152
154
150
148
146
146
146
146
150
154
158
159
158
158
159
161
165
165
165
165
165
163
161
158
156
154
156
156
158
156
152
150
146
142
135
129
119
159
159
159
159
159
158
156
154
152
152
150
152
152
152
150
152
152
152
156
154
154
152
152
154
156
158
154
154
152
148
144
142
142
144
148
150
156
158
158
158
158
158
159
163
163
163
165
165
161
158
154
156
156
156
156
156
156
154
154
148
142
135
129
121
