P2
# 421 of 608 Angiograms
64 64
255
98
98
98
96
96
98
100
102
104
106
104
108
108
102
102
106
104
104
106
110
112
110
110
112
108
106
106
106
104
108
110
108
108
108
106
95
77
69
72
74
72
69
69
76
81
93
104
106
106
106
104
102
100
102
104
104
104
100
98
100
102
102
104
100
96
98
96
96
98
98
100
104
102
106
102
108
108
104
106
108
106
104
108
110
113
108
108
104
104
106
108
108
102
104
108
108
110
110
106
95
79
69
66
68
69
66
69
74
82
93
102
106
106
104
104
104
100
102
102
102
100
98
100
102
100
104
102
98
96
96
98
98
98
100
102
100
100
104
106
106
108
104
106
102
102
102
106
104
104
104
104
102
102
102
106
104
102
102
108
110
112
108
106
96
81
71
66
69
71
71
72
74
82
93
104
106
106
102
102
102
98
98
100
100
98
98
98
104
104
102
100
95
95
96
98
98
98
102
100
98
96
104
104
102
104
104
102
102
100
102
104
104
102
104
104
102
102
102
102
104
104
108
112
113
112
112
108
96
82
74
72
72
71
72
72
74
81
93
106
106
104
106
104
102
102
100
96
98
104
104
104
102
102
100
102
100
95
102
100
98
96
98
98
96
98
100
100
102
100
102
100
102
102
102
104
106
104
102
104
100
100
100
102
104
106
106
108
110
113
110
108
96
82
72
72
74
72
71
71
72
81
91
102
104
106
104
102
108
108
104
102
102
104
104
108
106
102
100
102
102
95
100
100
98
96
95
102
104
104
100
98
102
96
98
100
104
102
98
102
102
100
100
98
98
98
98
98
102
102
102
108
112
112
108
106
98
82
72
71
68
66
69
72
72
81
93
104
104
104
104
108
108
110
110
108
106
108
104
108
106
104
100
102
98
93
96
96
98
98
96
104
104
104
104
100
104
104
104
104
104
100
96
96
96
95
95
96
96
96
98
98
100
106
106
110
112
113
110
108
98
84
74
72
68
69
71
72
74
81
93
104
106
108
108
106
106
110
108
108
108
110
106
106
102
102
100
96
96
93
95
96
96
98
98
104
104
102
104
102
102
104
106
104
100
100
98
100
98
96
96
96
96
98
100
100
102
104
104
104
106
112
112
108
100
86
76
71
69
68
74
72
76
81
93
104
106
110
110
110
108
112
108
106
106
108
104
100
100
104
96
93
93
93
93
95
95
98
98
104
104
102
104
102
100
104
106
100
100
100
102
104
100
96
95
96
95
96
100
104
106
106
106
106
106
110
108
108
100
87
77
72
69
71
72
71
72
81
91
102
108
112
113
112
112
112
110
108
110
112
106
104
102
102
98
95
93
98
98
96
93
93
95
98
100
100
100
100
100
98
102
100
100
100
98
98
96
95
95
95
95
96
102
106
106
108
108
106
106
108
110
108
100
87
76
69
69
72
72
72
76
79
91
102
112
113
113
113
112
108
108
110
112
110
104
104
102
98
96
95
95
98
98
93
91
93
93
96
96
98
100
98
98
98
102
96
98
98
95
96
96
93
95
95
95
98
100
104
108
102
106
108
108
108
112
106
100
89
76
71
69
72
72
74
77
81
91
102
108
113
115
112
112
110
110
112
112
108
104
102
102
100
96
96
95
96
96
95
91
89
93
95
100
100
98
100
100
100
104
102
95
96
95
95
95
96
95
93
96
98
102
98
104
102
102
108
110
106
106
104
102
91
77
71
71
72
74
72
76
81
91
100
106
112
113
112
110
110
110
110
108
106
104
100
102
98
100
100
100
95
96
96
95
91
91
93
98
98
98
102
100
100
104
100
98
96
96
96
93
95
95
96
96
102
102
100
106
102
102
104
106
106
106
106
104
91
79
72
72
74
76
71
76
79
91
100
106
110
112
112
110
110
112
110
108
106
104
102
102
100
100
100
98
96
95
95
95
93
93
95
96
100
100
102
98
98
100
100
100
100
96
96
93
95
95
96
95
102
102
102
106
106
106
104
106
106
104
106
102
91
77
72
72
76
76
72
74
79
91
102
108
112
115
112
108
108
110
110
110
106
104
104
102
102
102
100
96
96
98
100
98
96
96
98
100
100
100
100
98
98
102
102
100
102
96
95
93
95
95
96
96
102
104
102
106
104
104
104
104
106
106
106
102
91
76
71
72
72
72
69
74
79
91
100
108
113
113
110
108
110
113
108
106
102
104
104
102
98
100
98
98
95
96
96
95
96
98
98
100
100
102
100
96
96
98
102
98
102
98
95
96
95
93
98
98
102
104
104
106
104
98
100
104
108
106
108
102
89
76
72
74
72
68
68
72
77
89
102
108
110
108
108
108
108
112
108
104
104
104
104
102
98
100
100
100
96
95
96
95
96
100
98
100
100
100
100
98
96
96
100
100
100
98
95
96
96
95
96
98
100
102
106
106
104
100
104
110
110
108
108
100
89
77
74
72
76
74
74
74
77
89
102
108
112
108
108
108
108
106
104
104
104
106
104
100
100
100
100
100
95
93
95
95
95
96
100
100
100
100
100
100
96
100
102
102
102
100
95
93
95
95
96
100
102
102
104
104
102
100
104
110
110
108
104
98
91
77
71
71
71
74
76
74
77
89
102
106
110
110
108
108
108
104
104
104
104
104
104
100
100
100
100
98
96
95
95
95
95
95
102
98
96
98
100
100
100
100
102
100
102
102
98
93
96
98
96
102
102
102
102
102
104
100
104
112
113
112
104
100
93
77
71
71
72
72
71
72
77
87
100
106
108
108
110
108
104
106
106
104
104
102
102
102
100
102
100
98
96
96
96
95
93
95
96
98
95
96
98
102
102
102
102
96
96
100
96
96
96
98
96
98
100
100
104
106
104
102
104
110
110
108
104
100
95
77
72
71
72
69
71
71
76
86
100
106
106
108
108
108
106
104
104
104
104
100
100
102
102
104
104
100
93
91
93
96
95
95
93
95
95
96
100
102
100
100
98
95
96
98
98
100
100
104
100
100
102
102
104
104
102
104
102
104
106
104
104
100
93
79
71
71
69
66
71
71
76
86
98
104
104
106
104
104
102
104
106
102
102
104
102
102
104
106
106
104
95
95
96
96
95
96
95
95
96
96
96
100
100
98
100
100
100
100
100
100
100
100
104
98
100
100
100
102
100
100
102
106
108
106
104
100
95
81
74
69
71
68
71
72
76
86
98
106
106
106
104
104
106
106
106
104
102
102
100
100
102
102
104
108
95
93
93
95
95
95
91
91
96
95
93
98
98
96
102
100
102
98
98
100
98
98
102
104
100
100
98
98
98
100
98
102
106
106
106
104
95
82
72
71
68
69
71
71
74
84
96
106
110
108
104
102
104
104
106
106
104
100
102
102
100
100
104
108
93
93
93
91
96
96
91
95
98
95
95
96
96
98
100
102
100
98
100
102
100
100
106
106
102
100
100
100
98
98
98
100
104
108
106
100
93
82
72
72
69
68
69
72
74
79
96
106
110
108
106
104
106
106
106
104
106
104
102
102
102
102
104
108
91
93
91
91
93
95
95
95
96
96
95
96
98
98
98
98
102
104
102
100
102
104
106
102
100
100
100
100
100
100
98
100
104
108
106
100
93
82
72
69
68
68
66
69
71
81
96
106
112
110
108
104
104
104
104
104
106
104
100
102
100
100
104
106
91
91
91
91
95
96
95
95
96
96
96
98
100
98
100
100
104
104
102
102
102
104
104
98
98
98
100
100
102
100
102
98
104
108
104
102
91
81
72
69
68
66
66
69
69
81
95
106
108
110
110
104
104
104
104
100
102
106
102
100
104
104
102
104
93
91
93
93
96
96
96
96
98
98
98
100
98
100
102
102
102
100
100
102
104
106
102
98
100
98
98
98
96
98
100
98
102
108
106
102
91
79
72
69
69
68
66
69
71
79
93
104
106
108
108
108
106
104
100
100
100
104
102
104
102
104
104
104
91
93
93
95
96
96
96
98
100
98
98
100
100
100
98
98
98
100
102
102
102
102
104
102
100
95
96
95
96
96
100
98
104
104
102
98
89
79
72
69
68
68
66
69
71
79
93
102
106
106
106
106
104
102
100
98
102
102
102
104
106
106
104
106
93
93
91
93
95
96
98
98
98
98
100
100
100
100
102
102
102
102
106
104
100
102
106
104
96
96
95
96
96
98
98
98
104
102
100
96
89
79
72
69
68
66
66
66
71
77
91
100
104
104
106
104
102
104
102
100
102
104
102
102
106
102
104
106
93
91
91
93
93
96
98
98
98
98
100
102
102
98
102
104
102
104
106
102
100
102
102
102
96
98
96
96
95
96
95
98
100
100
100
98
93
82
72
69
66
68
68
65
69
77
89
98
104
104
106
102
102
102
100
100
100
102
100
104
104
100
102
106
89
93
95
93
91
96
98
96
102
100
102
102
102
98
104
104
100
100
100
102
98
98
98
98
100
100
98
96
96
96
93
98
96
96
100
98
93
82
72
71
69
68
66
66
71
77
89
100
108
106
104
102
104
102
102
100
100
102
102
102
102
102
106
110
93
93
96
96
95
95
95
98
100
102
106
106
100
100
102
104
102
102
102
100
98
98
98
98
98
98
95
95
96
96
96
98
98
102
104
98
93
82
72
71
68
68
66
66
71
77
87
100
106
106
106
104
108
102
100
102
102
102
102
102
104
106
106
104
93
95
96
98
98
98
100
100
102
104
106
106
102
100
102
100
100
102
102
100
100
100
98
98
96
98
98
96
100
98
100
98
98
102
106
104
95
82
74
69
66
66
65
68
72
77
86
98
102
106
104
104
106
102
100
102
102
102
98
100
104
104
104
104
95
96
93
96
96
96
96
98
102
102
102
104
104
100
100
100
102
100
98
98
100
104
98
96
96
98
100
98
100
100
100
102
106
106
104
104
95
84
74
68
65
66
65
69
74
77
84
98
104
104
106
108
104
100
98
98
100
106
104
102
106
106
108
108
98
96
96
98
96
95
95
96
100
100
100
102
104
102
104
104
104
104
98
100
102
104
102
98
98
98
102
104
102
100
102
102
106
106
104
106
95
84
74
68
66
68
65
69
72
76
84
98
106
108
106
104
100
102
102
100
104
106
108
102
102
104
110
112
100
98
95
96
98
96
96
98
98
100
100
102
102
106
104
104
104
104
102
100
102
108
108
100
98
96
100
102
104
104
104
104
108
108
106
106
96
84
76
66
65
66
69
71
74
76
84
96
104
108
108
102
102
100
102
104
104
108
108
100
102
106
106
108
100
98
95
95
100
100
100
102
100
100
102
100
102
104
106
102
104
106
104
102
104
108
104
98
98
96
96
98
104
102
100
102
108
108
108
106
100
84
76
69
66
71
71
71
71
74
82
95
102
108
106
106
104
100
102
106
108
108
106
100
106
108
106
108
98
98
96
98
100
102
100
104
102
102
104
104
102
100
102
102
104
104
102
100
100
102
104
100
98
96
98
98
100
100
100
100
106
108
110
110
102
84
74
66
65
66
68
68
69
72
81
93
106
110
104
104
104
102
104
106
106
102
102
104
106
106
106
106
100
98
98
102
104
104
102
102
102
102
106
106
102
102
104
104
102
100
102
100
102
102
104
106
100
98
102
100
98
98
98
102
108
110
110
106
100
86
72
66
65
66
68
66
65
71
79
91
104
108
104
104
102
102
102
106
104
102
104
108
106
102
102
104
100
98
100
100
102
102
100
100
100
104
104
104
104
102
104
104
100
100
102
104
104
102
104
104
98
98
102
102
100
98
100
104
106
106
106
106
102
87
74
66
66
66
63
63
66
69
79
91
102
106
104
104
102
100
102
100
102
102
104
108
104
102
106
110
98
98
98
98
102
100
100
102
104
104
106
104
102
102
106
106
104
102
104
104
100
100
104
104
98
98
98
96
98
102
104
104
106
106
108
108
104
91
76
71
66
65
63
65
68
69
77
89
104
104
102
104
104
104
102
104
106
106
104
108
108
106
106
108
95
95
95
98
100
96
100
102
104
104
100
102
104
100
102
104
104
104
106
104
100
102
104
102
96
100
100
96
98
104
108
108
108
108
112
110
104
93
77
69
69
66
65
65
66
71
77
91
104
104
102
104
106
104
106
106
108
106
106
108
106
104
104
106
93
93
93
96
98
95
98
98
102
102
104
104
104
106
104
104
102
104
108
108
102
104
104
102
100
100
100
98
98
104
106
108
108
108
106
108
104
93
76
68
71
66
65
65
63
69
76
89
102
106
104
102
106
104
106
108
108
108
108
108
106
104
102
104
91
93
93
96
96
96
96
100
102
104
106
108
106
104
104
104
104
104
104
108
108
104
102
104
100
98
98
100
102
104
102
104
106
108
106
106
106
95
77
71
71
66
65
63
65
68
76
87
100
104
106
104
106
108
108
108
104
102
106
108
104
104
100
102
91
89
93
95
95
96
96
100
100
104
108
112
108
106
106
108
106
102
102
106
108
104
104
102
100
98
96
102
104
100
102
102
104
104
104
108
106
95
77
71
66
65
65
66
66
69
77
87
100
104
106
106
106
104
106
106
104
102
102
104
106
104
100
102
87
89
91
91
93
95
95
100
104
104
108
112
112
110
106
104
108
104
104
106
106
104
104
100
96
96
98
102
102
100
98
96
98
98
104
106
104
93
77
71
65
62
65
65
66
68
77
87
100
102
106
108
108
108
104
106
104
104
100
100
102
100
100
102
87
89
87
87
93
93
95
102
102
104
106
112
110
108
108
108
108
104
108
106
106
106
104
98
96
96
98
102
102
102
102
100
96
98
104
106
104
93
76
68
66
63
66
63
65
68
76
89
98
102
106
110
110
108
104
104
106
104
100
102
102
102
100
100
86
89
89
89
91
91
93
96
98
102
106
104
106
108
106
108
108
106
108
104
102
104
104
100
96
98
98
102
102
108
108
104
98
100
104
106
104
91
76
69
69
68
69
66
65
69
76
87
98
104
104
110
108
110
110
104
104
104
102
102
102
102
102
102
89
89
89
89
91
91
91
96
96
98
104
102
104
106
110
108
110
108
106
102
100
104
104
102
100
98
96
96
100
106
108
106
100
104
106
108
104
93
76
68
68
66
66
65
63
68
76
87
98
102
108
108
108
110
108
106
104
104
104
102
100
100
104
102
87
89
91
91
93
93
93
96
98
104
102
102
102
102
106
104
106
106
104
104
104
104
102
102
102
96
96
95
98
104
106
102
102
104
108
112
104
93
77
68
66
68
68
65
63
68
76
89
98
106
110
108
108
106
106
110
108
108
104
102
100
100
102
102
87
86
86
87
91
95
95
96
98
100
100
100
100
98
98
102
106
108
102
102
104
102
106
104
100
98
96
95
96
102
104
102
106
104
108
108
102
91
76
68
68
68
63
62
62
68
76
89
100
108
110
110
112
108
108
108
108
106
106
104
104
100
98
102
87
84
87
91
93
93
93
98
98
96
96
100
100
100
104
104
106
110
106
102
104
102
106
104
100
98
96
96
98
100
102
102
106
104
106
104
100
89
76
66
63
62
62
62
63
68
77
89
100
106
108
108
108
108
106
108
108
110
110
108
108
104
100
102
86
87
89
93
93
93
93
96
93
93
95
98
102
102
104
104
106
104
102
102
106
106
108
106
102
98
98
100
100
100
104
106
110
108
104
100
100
91
77
66
62
62
60
62
63
66
76
89
100
104
108
108
108
106
106
108
110
112
108
108
108
104
100
104
87
86
87
87
91
95
93
93
93
95
98
100
100
102
100
104
106
104
104
104
108
106
106
104
102
102
100
100
100
100
104
106
108
110
108
110
104
93
77
68
63
62
62
60
63
65
74
87
100
102
106
108
104
108
110
112
110
110
106
106
104
104
102
102
87
86
86
87
91
91
93
93
93
95
96
100
100
100
98
98
102
102
104
106
104
102
106
102
102
102
100
100
102
104
102
104
106
108
110
110
104
93
77
66
65
62
60
60
62
66
74
89
100
102
102
102
104
110
110
110
108
108
108
102
102
104
104
100
86
84
84
87
91
89
89
95
93
95
98
98
100
98
96
96
100
100
102
102
102
102
104
102
102
100
100
106
106
108
104
100
104
108
106
108
104
93
77
66
65
63
60
59
62
69
74
87
102
102
102
104
106
106
108
106
110
110
106
104
102
100
100
102
86
86
87
89
91
93
93
95
96
96
98
98
98
93
96
96
98
98
96
98
98
102
104
104
104
106
106
106
108
108
104
102
104
106
106
110
104
95
77
66
65
63
60
59
62
68
76
89
102
104
104
106
104
108
110
110
110
108
104
102
104
102
100
100
86
87
91
93
95
95
95
95
96
95
98
100
98
98
96
96
98
98
95
96
98
98
100
104
108
106
104
106
106
106
104
106
108
104
106
110
108
96
82
69
63
62
62
63
60
66
77
89
102
106
106
106
106
106
108
108
108
106
106
104
104
106
102
102
87
87
89
91
89
89
93
95
96
93
96
100
98
98
98
96
98
100
98
98
98
98
98
100
104
100
102
102
106
108
108
108
110
104
108
110
108
98
86
72
66
63
65
66
62
68
77
89
102
108
106
106
104
106
108
108
106
106
106
108
106
106
106
108
87
89
91
89
87
87
89
91
95
95
96
100
96
100
98
96
98
96
96
95
96
98
100
100
100
100
100
98
104
108
108
104
106
106
106
108
108
100
87
74
68
65
66
66
66
71
76
89
104
110
110
108
108
108
110
110
106
108
110
110
110
108
106
108
89
95
91
91
89
89
89
89
93
95
98
96
96
96
96
98
100
96
95
93
96
100
100
98
98
98
100
98
102
104
104
104
104
106
108
110
110
102
89
76
69
68
66
68
68
71
74
91
106
112
110
110
110
112
115
115
110
110
112
112
110
108
108
106
87
91
87
87
87
89
91
91
93
93
96
98
96
95
95
96
98
98
98
95
96
100
100
100
96
98
100
98
102
104
104
106
104
104
106
110
108
102
89
76
69
66
66
68
68
71
76
89
106
113
113
112
110
110
115
117
112
112
112
112
110
108
108
106
91
91
87
87
87
89
89
93
93
93
95
95
96
95
95
95
98
98
96
96
95
96
98
100
98
96
98
98
100
100
102
106
104
104
104
106
108
104
91
77
69
69
68
69
68
71
77
91
106
113
112
112
112
110
115
115
110
113
113
113
112
108
108
108
87
89
84
86
89
91
87
89
93
93
95
93
95
95
95
96
96
96
96
98
98
98
96
98
98
96
96
98
96
96
96
98
100
102
102
108
112
104
91
79
72
71
71
71
69
74
81
89
104
112
112
112
112
110
113
117
113
115
115
115
113
112
110
112
