P2
# 423 of 608 Angiograms
64 64
255
68
76
77
81
81
84
87
89
86
89
91
93
91
93
95
96
98
98
98
100
98
95
89
81
76
72
72
72
74
76
84
93
104
115
119
121
119
115
119
119
119
119
121
121
117
121
123
121
119
112
98
86
79
76
76
74
76
79
86
96
106
113
113
112
71
76
77
81
82
86
84
86
86
86
87
89
89
91
93
98
98
96
98
98
95
95
91
82
74
72
72
71
71
74
81
87
98
112
113
115
117
115
117
117
117
117
117
119
119
119
121
123
121
115
104
91
81
79
76
74
74
81
86
95
106
113
115
115
74
76
77
81
82
84
84
84
86
91
91
87
89
93
95
98
96
96
100
100
95
95
93
84
76
72
71
72
69
72
77
82
93
106
112
112
112
110
110
110
112
112
113
117
119
117
119
123
119
115
104
91
81
77
76
76
76
82
86
93
104
113
115
115
72
77
79
79
77
81
81
84
86
89
89
89
89
87
91
95
95
93
96
98
96
95
91
87
77
71
71
69
69
72
76
81
87
100
112
112
112
112
110
108
110
110
110
113
115
117
121
121
117
115
104
91
82
81
77
77
77
82
86
93
104
113
115
115
69
72
77
77
79
81
82
84
87
89
86
89
89
89
91
93
93
91
93
93
93
91
89
87
79
72
69
66
66
69
72
77
86
95
106
112
112
113
108
106
108
108
108
110
112
115
121
121
119
113
100
89
84
84
79
77
77
81
84
89
104
115
115
117
71
71
72
76
77
82
82
87
87
87
87
87
89
89
87
89
91
89
87
86
86
87
89
89
81
74
69
69
71
71
72
76
81
91
98
106
106
108
104
102
106
106
110
112
112
113
117
117
115
112
98
87
82
81
76
76
76
77
81
89
104
113
117
117
69
74
72
72
77
84
84
86
84
84
89
87
87
86
84
87
86
82
81
82
87
86
87
87
82
76
69
69
71
71
71
72
77
84
95
98
104
106
104
104
104
108
113
113
113
115
113
112
113
110
100
87
81
77
76
72
74
76
79
86
98
110
117
119
68
71
72
72
74
84
84
84
86
86
86
86
86
86
86
82
81
79
79
84
89
89
89
87
84
77
72
71
72
69
66
71
77
82
91
98
102
108
106
110
110
110
113
113
113
113
112
113
113
112
102
91
84
81
74
74
76
76
79
84
95
106
115
117
65
71
76
72
71
79
86
82
84
87
87
82
82
82
79
77
77
81
81
84
87
91
91
86
84
82
74
72
71
68
66
71
74
81
89
95
102
104
108
108
110
110
112
113
113
112
113
117
113
112
104
95
86
79
74
74
74
72
77
84
89
102
112
117
62
68
71
69
69
76
81
81
81
86
89
84
81
76
74
76
76
79
81
81
86
89
89
89
91
87
81
74
71
66
68
72
72
79
84
91
100
106
106
106
108
108
110
112
113
113
117
117
113
110
108
98
84
81
79
77
77
74
76
84
87
100
106
112
63
66
66
68
71
74
79
81
79
82
86
82
77
74
74
76
79
82
82
82
87
89
89
91
93
93
86
81
74
69
69
72
72
77
81
89
96
110
110
108
112
110
110
113
115
115
115
115
112
112
110
98
84
81
79
79
77
74
76
79
87
98
106
110
62
63
69
69
69
72
77
77
79
77
81
77
76
76
76
81
86
87
89
87
89
89
89
93
96
95
93
84
79
72
71
71
69
76
79
86
96
108
108
110
112
112
112
113
117
117
113
113
113
117
113
100
87
84
82
79
76
74
74
77
86
96
106
106
60
65
69
71
71
72
79
79
76
77
79
76
74
77
81
86
86
87
89
93
91
93
93
95
98
100
95
87
81
74
71
71
69
72
77
82
93
104
108
108
108
108
110
112
117
117
113
112
115
113
112
102
89
82
81
81
77
74
77
81
84
95
104
104
59
63
66
69
71
71
74
76
76
76
79
79
76
79
82
86
86
89
87
89
91
96
98
95
98
102
98
89
79
74
71
71
72
74
77
81
89
100
108
108
110
108
112
113
113
113
117
115
113
115
110
102
87
81
81
77
76
77
81
81
82
95
102
106
62
65
65
68
69
71
71
72
74
76
77
79
79
82
81
82
82
86
86
89
89
95
98
95
98
100
102
93
81
76
71
71
74
76
74
79
87
96
110
112
110
112
113
115
115
112
115
112
113
115
112
102
89
84
81
77
79
79
79
81
82
93
102
108
65
66
66
69
71
69
69
71
74
76
77
77
79
82
79
81
84
84
87
91
91
96
96
96
98
98
100
98
87
76
71
72
76
74
76
79
86
95
108
110
106
110
113
112
113
112
113
113
115
117
115
104
91
84
81
76
79
81
79
79
84
93
104
106
65
65
69
74
71
69
71
74
76
76
74
74
77
82
82
84
86
84
87
89
91
95
96
95
96
100
100
98
91
79
72
74
74
74
76
77
84
93
102
106
106
106
110
110
112
112
112
117
117
117
115
106
91
84
79
79
81
81
79
81
86
93
104
108
62
65
68
71
72
69
69
72
76
76
74
77
77
81
82
84
86
84
86
87
91
96
100
102
98
96
102
96
89
81
74
74
71
72
74
77
81
89
98
102
106
106
110
108
110
113
112
112
112
115
113
106
93
84
77
79
79
82
82
84
87
95
104
110
62
65
65
68
72
69
71
72
72
74
77
79
79
81
82
82
84
86
84
87
93
100
102
98
95
98
98
96
89
82
74
72
71
72
74
79
79
86
93
100
104
106
110
110
112
112
113
113
113
113
112
106
93
82
77
77
77
79
81
82
86
95
106
115
65
65
66
69
71
69
71
74
74
77
77
81
82
81
84
86
89
86
84
87
91
96
98
98
98
98
96
95
93
86
76
71
71
74
74
76
74
81
89
96
104
108
110
108
113
112
113
115
117
117
113
106
93
84
81
81
79
77
76
81
84
91
104
115
65
66
71
72
72
72
71
74
74
74
76
77
79
81
82
84
86
86
86
86
87
91
95
100
102
98
96
96
95
91
82
74
71
72
76
74
76
81
84
93
100
108
110
108
112
113
113
115
117
117
113
108
95
86
81
79
81
77
77
77
84
89
102
115
65
68
74
77
77
76
74
76
72
72
74
77
79
77
81
81
84
86
89
87
87
89
89
95
100
100
96
96
96
95
87
77
72
71
72
74
76
76
81
87
98
106
108
106
110
113
113
113
115
117
115
110
96
87
79
77
79
81
81
81
86
89
100
112
65
71
74
79
81
82
77
74
76
76
77
77
79
79
81
81
82
84
86
86
87
89
86
91
95
98
98
98
98
95
89
82
74
72
74
77
77
76
79
84
95
104
108
112
112
113
113
113
113
113
113
112
96
87
81
77
77
82
81
81
84
87
96
108
68
69
74
77
81
82
79
77
76
77
79
77
81
79
81
81
82
86
86
86
84
86
87
89
95
98
98
98
98
96
93
87
79
72
74
77
77
76
79
82
89
102
110
110
112
110
112
113
113
113
115
110
98
87
79
76
76
77
77
79
81
87
96
106
68
71
76
79
79
81
81
81
79
79
82
84
82
81
77
81
82
84
86
89
86
87
91
96
96
96
98
98
98
96
96
91
86
77
76
74
76
76
76
81
87
100
108
110
110
110
110
113
112
113
115
110
98
89
79
76
71
72
76
79
79
86
95
102
69
76
77
79
84
82
84
81
81
76
79
81
81
79
77
77
81
84
87
89
89
89
89
93
95
96
96
96
98
102
100
95
89
82
77
74
72
74
76
79
86
95
102
104
108
108
110
110
112
113
115
110
102
91
81
76
72
74
77
79
81
87
93
100
72
76
79
79
81
84
84
82
81
81
82
81
79
81
82
84
82
86
87
87
84
87
87
93
96
96
95
98
100
100
102
100
93
87
81
74
74
72
74
76
82
91
98
102
106
108
108
108
110
113
113
112
104
95
82
77
76
76
76
72
79
86
91
98
71
76
79
77
84
84
86
84
84
84
82
81
79
79
82
84
84
86
86
87
87
89
89
89
93
96
95
98
98
100
102
100
95
89
81
76
74
72
74
77
79
87
95
100
104
108
108
110
113
112
110
110
106
96
86
79
76
76
74
76
79
82
91
100
71
76
77
81
84
86
86
86
87
86
82
81
79
79
81
82
84
82
86
87
89
87
87
89
95
95
96
96
100
102
100
102
96
89
81
77
77
74
74
77
81
84
95
100
106
110
110
113
113
110
110
112
104
96
87
81
76
76
77
77
76
81
89
100
72
77
81
84
86
87
86
86
87
87
87
84
82
81
79
81
81
81
84
84
86
84
87
93
93
93
95
95
102
106
104
106
102
95
86
77
77
76
72
76
79
82
91
102
112
112
112
112
110
110
108
108
104
96
87
81
76
76
74
76
76
79
87
98
74
77
84
86
84
87
87
87
89
89
87
87
86
79
79
79
79
77
82
84
82
84
91
95
95
89
91
95
100
104
104
106
102
98
89
82
79
79
76
77
79
79
86
100
112
112
113
113
112
113
112
110
104
96
87
82
79
76
71
72
72
77
86
98
77
81
81
84
87
87
89
91
93
91
87
87
87
82
82
81
81
81
81
82
82
86
93
95
93
93
93
96
100
100
102
106
104
102
93
82
79
81
77
76
79
76
82
96
108
113
115
113
110
112
112
110
106
100
89
81
79
74
72
71
72
77
86
96
74
77
81
84
89
87
86
87
89
91
93
91
87
84
84
82
82
81
81
81
82
87
91
91
93
93
91
96
96
96
102
102
100
100
95
86
81
84
79
79
79
79
82
93
102
108
112
112
108
108
108
110
110
102
91
84
79
74
71
72
72
79
86
93
74
76
81
86
86
84
84
86
87
91
93
91
86
87
87
84
82
79
82
82
84
86
89
86
87
91
93
96
96
95
102
98
102
100
98
91
86
84
82
79
76
79
82
89
98
108
112
112
112
108
112
113
113
106
93
86
81
76
74
74
76
81
87
93
72
74
79
79
82
82
84
87
87
87
89
89
87
91
86
84
82
82
84
82
84
82
86
84
87
91
91
93
95
96
96
98
102
102
102
98
89
87
82
81
79
79
81
87
95
106
112
115
113
115
113
113
113
104
96
86
77
77
77
77
81
81
86
93
69
72
77
79
84
84
81
84
84
86
87
86
86
86
86
84
84
84
82
81
82
82
82
82
84
87
89
89
93
95
96
98
102
104
106
102
93
84
81
79
79
77
77
82
89
100
110
112
113
117
117
117
113
102
96
87
79
77
76
76
77
77
84
95
69
74
76
79
82
82
84
82
84
84
86
89
89
84
87
86
81
84
84
81
81
81
81
82
82
87
89
91
91
91
98
98
100
104
108
102
96
87
81
77
77
77
76
76
84
93
104
112
115
117
117
117
112
102
98
89
82
79
77
77
77
77
82
93
69
74
74
77
81
82
84
84
86
84
87
89
87
87
87
82
82
84
84
82
79
77
81
81
82
87
89
91
91
93
95
98
100
102
104
102
96
89
82
77
76
76
76
74
79
89
98
110
115
119
115
113
112
106
98
91
86
82
79
77
77
77
82
91
69
72
77
81
82
82
82
82
87
86
86
86
87
89
86
84
84
86
86
84
82
79
81
81
82
84
89
91
93
91
91
95
96
98
100
100
96
89
84
76
76
74
74
74
79
82
93
104
112
113
113
115
115
110
100
91
82
84
79
77
76
77
84
91
66
69
74
79
84
84
86
87
86
84
84
87
87
87
87
87
86
84
86
82
82
81
82
81
82
82
86
89
89
87
89
93
95
98
100
98
96
91
84
76
74
74
74
72
76
81
89
100
110
112
113
113
113
112
100
91
84
82
81
77
76
77
82
89
65
69
74
77
82
82
86
86
86
84
86
86
86
86
87
86
87
86
84
84
84
84
84
86
84
86
86
86
87
87
89
93
96
98
98
98
96
91
84
76
74
72
74
74
74
79
86
96
106
110
113
112
112
110
100
91
84
81
81
74
72
76
81
87
69
71
74
79
81
82
82
84
86
84
84
86
86
86
84
86
87
86
84
86
89
89
89
87
87
87
84
84
84
89
89
91
98
100
98
98
98
95
86
77
72
69
72
72
74
77
82
91
100
104
108
106
108
108
98
89
84
79
79
74
74
76
81
87
71
72
76
79
79
84
84
86
86
86
86
86
86
87
86
86
86
86
87
89
91
91
93
93
93
93
89
87
89
91
93
95
96
98
98
98
98
98
91
81
74
71
71
74
76
76
81
87
96
100
102
104
104
104
98
89
84
79
72
72
74
76
81
86
69
71
76
79
82
86
89
89
87
87
87
89
89
89
87
87
86
87
87
89
91
93
95
93
95
96
91
91
91
93
96
96
100
100
100
100
100
100
96
87
77
74
72
76
77
77
79
84
95
100
104
106
108
102
100
91
82
76
74
74
76
76
79
82
69
71
79
81
84
86
87
87
87
91
91
89
87
89
87
86
87
89
87
87
91
91
91
93
95
96
95
95
93
96
93
93
96
100
100
100
100
100
96
91
82
77
74
72
77
77
82
84
93
100
106
108
110
108
100
91
82
77
74
69
74
74
76
81
66
69
76
81
81
84
86
87
87
89
89
87
86
87
87
87
89
89
91
91
93
93
89
91
95
93
93
95
95
95
95
96
98
96
100
100
100
100
98
96
87
79
77
76
74
72
79
84
89
98
110
112
112
108
102
93
84
81
74
71
71
71
72
77
63
69
74
79
82
82
86
87
86
91
89
86
86
84
87
89
89
89
91
91
93
93
91
91
93
96
95
93
93
96
98
100
98
95
98
102
100
100
98
96
87
81
79
76
72
71
76
82
87
96
108
117
115
112
106
96
86
79
76
76
74
72
74
76
60
66
69
74
79
84
86
87
87
91
89
86
87
87
89
91
89
91
91
91
91
93
95
89
91
96
96
96
98
98
100
100
100
96
96
96
96
95
98
96
89
82
77
76
74
76
76
81
82
93
106
113
117
113
108
98
87
81
77
77
81
76
74
74
58
62
66
71
74
79
84
84
86
84
84
86
89
89
87
89
89
91
93
93
91
93
93
91
93
96
98
100
100
98
102
100
100
98
98
96
95
96
100
98
91
82
79
76
76
77
77
79
82
86
100
112
113
110
106
96
89
82
79
79
79
79
76
77
59
63
68
69
71
76
79
81
81
81
82
84
86
87
86
87
87
87
89
93
93
91
91
89
91
95
93
98
98
98
98
100
100
100
100
98
98
98
98
96
91
82
77
77
74
76
76
74
79
84
95
108
112
112
106
95
86
82
82
77
79
79
79
82
60
63
68
69
72
72
74
76
82
84
82
84
82
84
87
87
87
86
89
93
91
91
89
89
89
91
91
98
102
96
98
100
98
98
98
96
98
95
95
93
89
84
79
76
71
71
72
71
74
81
89
102
112
112
106
95
86
81
76
77
79
79
82
86
63
66
68
65
69
74
74
76
81
84
84
82
82
81
82
86
87
87
91
91
89
89
87
89
89
89
95
96
100
96
96
100
96
100
100
98
96
91
91
91
91
86
81
76
74
74
71
68
71
76
82
93
106
110
106
95
86
81
79
77
79
79
82
87
65
65
65
68
69
77
81
81
79
82
87
84
81
82
81
82
87
91
91
89
87
89
87
89
91
93
95
96
96
96
98
100
98
100
100
96
93
93
93
91
89
87
84
77
71
71
68
68
71
74
77
86
100
106
104
93
86
79
77
77
79
79
81
86
65
68
68
71
74
77
81
82
82
84
86
82
82
84
86
84
87
89
89
87
89
86
87
93
93
95
95
100
102
98
98
100
102
100
102
98
95
91
93
93
89
86
82
77
71
68
65
68
71
74
76
81
93
100
98
93
86
79
79
77
81
81
77
79
65
71
69
72
77
79
81
84
87
89
87
86
86
87
87
86
87
89
89
86
86
84
91
93
95
95
98
102
104
104
102
102
104
106
108
104
104
102
100
96
95
93
87
81
71
68
66
68
71
74
74
77
86
91
93
93
84
82
79
76
76
77
77
79
63
68
74
77
79
82
86
91
93
93
89
89
87
89
87
86
87
91
87
86
86
91
95
96
98
100
102
106
108
108
110
110
112
115
115
112
108
108
104
102
100
100
96
87
76
69
66
65
69
72
72
74
81
87
93
93
86
81
79
77
72
76
77
82
60
65
74
77
81
86
86
89
91
93
91
91
87
87
89
89
93
91
91
89
93
96
96
100
104
108
110
108
110
112
115
117
115
115
117
119
115
110
106
106
106
106
104
95
84
74
69
68
69
69
69
72
77
86
91
89
82
77
76
76
71
74
76
77
60
65
72
76
82
84
84
87
93
95
95
95
91
89
91
95
96
93
93
93
95
96
96
104
106
110
112
113
113
117
119
119
119
117
121
123
117
113
112
110
110
112
110
106
93
82
74
71
69
69
69
71
77
84
87
87
84
79
77
76
72
72
74
74
65
68
72
79
82
84
86
87
89
91
93
95
95
93
95
98
96
93
93
96
96
98
102
108
110
108
108
112
113
117
121
121
119
119
119
119
117
119
117
115
113
115
112
112
100
89
81
76
72
69
71
72
76
82
87
93
87
81
76
72
71
71
72
74
66
69
72
77
81
82
86
89
89
91
91
96
95
93
96
95
93
93
96
96
100
102
102
106
108
108
108
112
113
115
119
121
121
123
119
121
119
123
121
117
115
115
115
113
110
96
87
82
77
71
69
72
77
82
87
93
91
82
77
74
69
71
74
72
63
69
72
76
81
84
84
86
89
91
93
96
98
98
98
96
95
96
96
96
98
100
100
102
104
108
110
110
112
113
115
117
121
119
119
119
119
123
121
117
115
119
117
113
112
106
93
86
82
77
76
74
77
81
84
89
91
86
79
76
71
72
72
71
62
69
72
77
81
86
87
86
93
93
93
93
95
96
98
98
96
96
96
98
102
100
100
100
102
106
106
108
110
113
115
117
117
115
121
117
117
119
123
119
121
121
119
117
115
112
100
89
86
81
81
79
82
82
87
91
93
86
81
77
74
72
74
74
63
68
72
77
79
82
84
84
87
91
91
91
93
95
93
95
95
95
98
104
102
100
98
98
102
104
104
110
112
112
112
112
113
117
119
121
117
119
123
121
121
119
119
117
117
115
106
95
87
84
84
84
84
86
84
86
87
84
79
77
77
74
76
77
65
69
74
76
79
81
82
82
86
86
87
89
89
91
91
93
93
95
96
100
102
98
100
96
102
104
104
112
112
112
112
113
115
119
119
119
117
119
121
125
123
121
123
119
119
117
112
100
93
89
81
82
82
86
84
86
84
84
81
79
77
77
77
76
