P2
# 424 of 608 Angiograms
64 64
255
137
135
137
141
141
141
141
141
141
137
129
121
113
110
115
123
131
139
142
144
146
150
152
156
156
156
158
158
156
158
158
159
161
165
167
168
168
172
175
177
175
178
183
186
188
189
189
188
185
182
178
173
170
165
159
154
148
142
137
131
121
110
95
81
137
137
139
141
141
139
137
137
137
137
131
125
119
117
117
123
129
135
141
141
144
148
152
154
156
156
158
158
156
158
158
159
161
161
165
167
168
172
175
175
175
175
180
183
186
186
188
188
185
182
180
177
172
165
159
154
148
142
137
131
121
110
96
82
137
141
141
141
139
139
137
137
137
135
133
131
125
121
121
125
129
131
137
141
142
146
152
154
158
158
158
158
158
159
161
159
161
163
165
167
170
172
173
173
173
175
178
182
185
186
188
188
186
183
182
178
173
168
161
156
146
142
137
131
121
112
98
86
141
142
141
141
139
141
141
141
139
139
137
137
133
127
125
127
127
127
133
135
141
144
150
156
156
158
158
159
159
161
161
163
161
163
163
167
168
172
172
172
172
173
177
180
183
186
188
186
185
185
183
180
175
170
165
158
150
142
139
131
121
110
98
86
142
142
142
141
142
142
144
144
142
141
142
144
142
137
133
131
129
129
131
131
135
142
148
152
156
158
159
159
161
161
163
165
163
161
161
165
168
170
172
168
170
172
175
178
182
186
188
186
186
186
185
182
177
172
168
161
154
148
141
133
123
113
100
86
142
144
142
142
144
146
146
146
144
144
144
144
146
142
139
137
137
135
131
129
133
137
144
148
154
158
159
159
163
163
163
165
165
163
163
163
167
168
168
168
168
172
175
175
178
183
186
185
185
185
185
182
178
175
170
165
159
152
144
135
123
113
102
84
146
146
144
146
148
148
148
150
148
148
144
144
148
146
142
139
139
139
135
131
133
135
139
144
152
156
159
161
163
165
167
165
163
161
161
161
163
167
168
168
168
172
175
175
175
178
183
183
185
183
183
182
178
177
172
168
163
156
146
139
127
117
104
86
152
148
146
146
148
148
148
148
148
148
146
144
148
150
144
139
141
141
139
133
131
131
135
141
148
154
158
161
161
163
167
167
165
163
161
161
161
165
168
168
168
170
172
173
173
173
178
182
183
183
185
183
180
178
175
172
167
158
150
141
127
117
104
87
150
146
146
146
146
148
148
150
148
148
148
146
148
152
150
142
141
139
139
137
131
129
131
137
144
152
156
159
159
161
165
165
165
165
165
163
161
163
165
168
168
170
172
173
173
173
175
180
183
183
185
183
182
182
178
173
168
163
154
141
129
119
106
89
146
146
146
148
146
144
146
148
148
146
148
148
148
154
152
146
141
139
139
141
135
129
129
133
141
148
152
156
159
159
161
163
163
163
165
161
159
159
161
165
167
170
172
173
173
172
173
177
182
183
185
186
186
183
180
175
170
163
152
141
127
121
110
93
144
144
144
146
146
146
148
150
148
150
150
148
148
150
150
148
142
139
139
142
139
131
123
127
133
141
148
152
156
158
159
161
163
161
163
161
159
159
161
163
165
168
172
172
173
173
172
175
178
182
185
186
188
186
182
177
170
161
152
141
127
121
110
93
144
142
144
148
148
146
148
148
150
148
148
146
146
146
148
148
146
141
139
142
141
135
125
123
125
131
142
148
152
154
156
159
159
159
161
161
161
163
161
163
165
167
170
172
172
172
172
173
177
180
183
186
186
186
183
177
170
161
152
141
129
121
110
95
144
141
142
148
146
144
148
148
150
146
146
144
144
146
148
150
148
142
141
142
142
139
131
125
121
125
133
142
148
152
154
156
158
156
158
159
161
161
161
163
163
165
170
170
170
170
172
172
175
178
182
185
185
185
183
178
172
161
152
141
133
123
110
96
144
142
144
144
146
141
142
146
142
142
142
142
142
144
148
150
150
144
142
142
146
144
139
129
121
119
125
137
142
148
150
154
156
154
154
156
159
161
163
161
161
165
168
168
168
170
170
170
173
175
180
183
185
185
183
178
172
163
154
142
133
123
112
98
144
142
142
142
142
144
144
144
141
139
139
139
141
144
148
150
150
148
144
144
148
148
146
139
125
115
119
131
141
144
148
152
154
152
152
152
154
156
159
161
159
161
165
168
168
170
168
168
170
173
177
180
182
183
182
177
172
163
154
142
133
125
112
98
144
142
142
141
141
142
144
144
141
137
137
139
139
141
148
150
150
148
148
148
148
148
150
144
131
117
115
127
139
146
148
152
152
150
152
148
146
150
152
154
158
159
161
165
168
168
168
168
168
170
173
177
180
182
182
177
172
163
152
142
133
123
112
98
142
141
139
141
141
142
142
142
139
137
137
139
139
139
144
150
150
148
148
150
150
150
150
146
137
125
117
125
135
144
148
152
152
152
150
146
142
144
144
148
152
158
161
163
165
168
167
168
168
170
172
175
178
180
180
177
170
161
150
141
133
123
112
95
142
142
141
141
144
142
142
141
141
139
139
142
141
141
142
148
148
146
148
150
150
150
150
146
139
133
127
127
133
139
146
150
154
154
150
148
144
144
146
146
148
152
158
161
163
165
167
168
170
170
170
173
177
180
180
175
170
159
148
139
133
123
113
96
144
144
142
141
144
142
141
141
139
137
139
141
141
142
142
144
144
144
148
148
148
148
148
144
137
137
133
131
131
135
141
148
154
156
152
150
150
148
148
148
152
152
154
158
161
163
167
168
172
172
172
173
177
177
177
173
168
159
148
139
133
123
113
100
144
146
144
144
144
142
141
139
135
137
139
139
139
141
142
142
142
141
142
144
146
146
142
139
133
135
139
135
133
131
137
142
150
154
154
152
150
152
152
154
152
154
156
154
158
161
165
168
170
172
172
172
173
175
173
170
167
156
146
139
133
123
113
100
142
142
144
146
146
141
139
135
135
135
137
137
135
137
139
141
142
139
139
141
141
139
137
131
129
135
141
141
135
135
135
139
146
154
156
154
152
156
156
156
154
156
158
154
156
158
161
167
170
170
170
170
172
172
170
168
165
154
144
137
131
123
112
100
139
141
141
144
142
139
137
135
135
135
135
137
137
139
137
139
142
139
137
139
139
135
133
125
125
133
142
144
139
135
131
135
139
148
154
154
156
158
156
159
159
159
159
156
154
154
158
163
167
168
168
170
170
168
167
165
159
150
142
135
129
123
112
98
137
141
141
142
141
137
135
135
135
135
135
137
137
137
137
141
141
141
135
137
137
135
131
129
129
133
137
141
137
133
129
129
133
141
150
152
154
156
158
161
161
161
159
158
156
156
156
159
165
167
168
168
167
165
163
159
154
146
142
133
125
119
112
96
137
139
141
142
141
139
139
139
135
135
135
137
137
139
142
141
141
141
137
135
133
131
131
133
133
135
137
139
139
135
129
127
129
135
144
150
152
158
159
161
163
163
158
158
158
156
156
159
163
165
165
165
163
161
158
154
148
144
139
129
123
117
106
93
133
135
139
141
141
141
141
141
139
137
135
135
139
141
144
142
141
139
137
133
131
131
133
135
137
137
139
139
137
135
135
131
125
129
139
148
152
158
159
159
161
163
159
159
158
158
158
161
161
161
163
163
161
158
152
150
144
141
137
127
121
113
106
89
133
137
141
141
142
142
142
141
141
139
137
135
139
141
142
142
141
139
137
131
127
131
133
137
139
137
137
139
139
139
139
135
129
127
133
144
152
156
158
156
158
159
159
156
158
158
159
161
161
159
161
159
158
156
152
146
142
139
133
127
119
112
104
87
137
139
141
142
142
142
139
141
141
141
142
141
141
142
142
144
144
141
137
131
129
129
133
137
139
137
133
135
139
141
142
142
135
129
129
137
148
152
156
156
156
158
158
159
159
159
161
163
161
161
161
159
158
156
150
144
142
137
133
125
119
110
102
86
139
141
141
142
141
142
142
144
144
144
144
144
144
144
146
144
144
144
139
133
131
131
131
135
137
137
135
135
137
141
146
146
141
133
129
129
141
148
154
156
156
156
156
159
159
161
165
163
161
161
163
161
158
156
152
146
141
137
131
123
115
108
98
86
142
144
144
142
142
142
146
146
144
148
150
148
146
146
148
146
146
144
139
135
133
131
131
135
137
139
137
137
137
141
142
142
142
137
129
127
133
141
150
152
156
156
158
158
159
163
168
167
163
163
163
161
159
158
154
148
142
137
129
121
112
104
95
84
146
146
146
146
144
142
142
141
142
146
150
150
148
148
148
148
148
144
139
135
133
135
135
137
139
139
139
139
137
139
142
142
142
141
133
127
129
135
142
148
152
154
158
158
158
161
165
165
165
163
161
163
161
159
156
150
144
139
131
119
110
102
93
82
150
148
144
144
144
144
146
142
142
144
146
148
150
150
148
148
146
144
141
137
135
137
139
139
141
141
141
142
141
141
142
144
146
144
141
131
127
129
133
141
146
150
152
156
158
159
159
161
163
161
159
159
159
159
156
152
146
142
131
119
110
102
93
82
152
150
148
146
144
146
146
144
142
146
144
146
148
148
150
146
146
142
142
141
139
139
141
142
142
142
142
144
142
141
142
146
148
146
144
139
133
131
131
135
142
146
148
152
156
156
156
158
159
161
158
158
159
159
156
152
146
142
131
119
110
102
95
84
154
152
150
148
148
148
146
142
144
144
144
146
146
144
144
144
142
142
144
142
142
142
142
144
146
144
142
144
144
142
144
146
146
146
148
146
139
133
131
131
137
142
146
148
152
154
154
156
158
158
156
154
156
156
154
152
146
141
131
121
112
104
95
86
156
152
152
150
148
146
148
146
144
144
142
144
142
141
139
139
141
142
144
144
144
144
144
146
146
146
144
144
144
144
146
148
146
148
148
148
146
139
133
131
135
141
144
146
150
154
156
154
156
156
154
150
152
154
154
152
146
141
133
123
113
106
96
86
156
156
154
152
152
148
148
144
142
141
141
141
139
137
137
139
139
141
144
144
144
146
146
148
146
146
146
146
148
148
148
148
146
144
148
150
148
146
139
135
135
137
142
146
148
152
152
152
152
152
148
148
148
148
150
148
146
141
131
121
113
106
95
84
159
158
156
154
154
150
148
146
144
141
139
139
137
137
137
137
139
141
142
142
144
146
144
146
146
150
148
146
150
152
150
150
148
144
146
150
150
152
146
137
135
135
141
144
148
150
148
148
148
148
146
148
146
146
148
146
144
139
129
121
112
106
96
84
158
156
158
156
154
152
150
148
146
142
141
139
137
137
135
135
137
137
139
141
142
144
144
146
148
148
148
150
152
154
152
152
150
148
148
150
152
154
150
144
137
137
139
142
146
146
146
146
146
146
150
150
148
146
144
146
142
137
129
123
113
106
95
82
156
156
158
158
156
152
150
150
148
144
142
141
137
137
135
137
137
135
135
139
141
142
144
146
148
148
148
150
150
156
154
154
152
152
150
152
152
154
152
148
141
135
137
142
146
144
146
146
148
150
150
152
150
148
146
144
139
137
131
123
113
104
93
81
152
154
156
158
156
154
152
152
152
148
144
141
139
139
137
137
137
135
135
137
141
141
144
144
146
148
148
152
152
156
154
152
152
154
152
150
154
154
150
150
144
137
137
142
146
144
148
148
148
150
152
152
154
150
148
144
137
137
133
125
113
106
95
79
146
148
150
154
154
152
154
154
152
154
150
144
142
141
141
139
137
137
137
137
139
141
141
144
148
148
148
150
150
152
152
152
152
152
154
156
156
156
154
154
146
139
139
142
148
150
152
152
152
152
154
156
154
152
148
144
139
137
131
123
113
106
95
81
142
144
146
150
152
152
152
152
152
154
152
148
146
146
144
141
141
139
139
137
141
141
141
142
146
146
146
146
148
148
148
150
150
154
158
156
158
158
158
156
150
141
141
142
150
154
154
154
154
154
154
156
156
154
150
144
142
139
133
125
115
108
96
84
141
142
142
144
148
150
152
154
154
152
152
152
150
148
148
146
144
142
142
142
142
141
142
144
146
146
144
144
146
146
146
150
148
152
158
156
158
159
158
158
154
144
141
144
152
156
156
158
156
156
156
158
159
156
152
144
142
139
133
123
115
110
98
84
137
141
141
142
144
148
148
152
154
152
154
156
154
150
150
150
148
146
146
144
144
144
142
144
144
144
144
142
142
142
144
146
148
150
154
156
156
156
158
158
154
146
144
144
152
156
159
159
158
158
158
159
161
158
152
146
142
139
133
125
115
110
98
84
135
137
141
141
142
146
148
150
150
152
154
156
156
154
154
152
150
148
148
150
150
150
146
144
144
144
142
139
139
141
141
144
146
146
148
152
154
154
156
158
156
150
146
146
152
158
159
161
159
159
156
158
158
154
154
148
142
139
131
123
115
108
98
86
139
139
137
141
141
142
148
150
150
152
154
154
156
156
156
154
152
150
150
154
156
156
154
148
146
144
142
141
141
141
141
142
144
144
146
148
152
152
156
158
158
152
148
146
152
158
159
161
161
158
158
156
156
156
156
152
146
141
133
125
113
106
100
87
139
139
137
139
141
142
142
148
150
150
152
154
154
154
156
154
150
150
152
156
156
158
159
156
150
148
144
142
141
142
142
142
142
146
146
144
148
152
154
156
158
154
150
150
154
158
158
159
159
159
159
158
156
158
158
154
150
142
137
127
117
110
100
87
137
137
137
139
141
141
142
142
146
148
150
154
154
152
152
150
150
150
152
154
158
156
159
158
154
152
148
144
141
142
142
142
144
146
146
144
148
148
150
154
156
154
150
148
152
158
158
159
159
161
161
161
161
161
161
158
152
146
137
129
119
112
98
87
139
139
139
141
141
141
144
142
142
146
150
152
152
152
150
150
150
150
152
154
156
156
158
158
154
152
150
148
146
144
144
144
146
144
144
144
144
144
148
150
156
154
148
146
150
154
158
159
159
161
163
163
161
163
163
159
156
146
139
127
121
112
98
84
141
141
142
144
142
142
141
142
142
146
150
152
152
152
150
150
148
150
152
156
158
158
156
156
152
152
152
150
150
148
148
148
146
144
144
144
142
142
146
150
154
154
150
148
148
152
156
158
159
161
165
163
165
165
163
159
156
148
139
129
121
112
96
84
142
144
142
146
146
144
142
142
144
146
146
150
154
154
154
152
150
152
152
154
156
156
158
156
154
154
152
150
152
150
148
148
146
146
146
146
142
141
142
150
152
154
154
148
146
150
156
156
158
161
163
163
165
165
163
161
156
148
139
129
121
113
100
89
144
146
146
148
146
144
144
144
144
146
144
148
152
154
154
152
152
150
152
152
154
156
156
158
158
156
154
154
154
152
150
148
148
148
148
148
144
144
144
150
152
156
156
150
148
150
156
158
159
163
161
163
165
163
163
161
156
148
139
129
121
115
104
93
144
146
148
150
146
146
144
144
144
144
144
146
150
152
150
154
154
152
152
152
154
158
158
158
158
158
156
156
156
154
150
148
150
150
150
148
146
146
144
148
150
156
154
148
144
146
154
158
161
161
161
161
163
163
165
161
156
148
141
129
123
115
108
98
148
148
148
148
146
146
144
142
142
142
144
146
148
150
150
152
154
152
152
152
154
156
158
159
159
158
158
158
156
154
150
152
150
150
150
150
150
148
146
148
150
152
150
144
141
142
150
158
161
163
161
161
161
161
161
161
156
150
142
131
123
117
110
102
148
148
148
148
148
144
142
139
141
141
142
144
144
146
148
150
152
152
152
152
154
156
158
159
163
159
158
158
154
154
150
150
152
152
152
152
152
150
152
150
150
150
148
142
139
139
144
154
159
163
163
161
161
161
161
159
156
150
144
133
125
117
110
104
148
148
148
148
146
146
142
141
139
137
137
139
141
142
144
148
150
152
150
150
152
158
158
158
159
159
156
156
156
156
154
154
154
152
154
152
152
154
152
150
152
150
148
142
137
133
139
148
156
161
163
161
161
161
159
156
154
150
144
135
125
117
110
106
150
148
146
144
142
144
142
142
141
139
139
139
141
142
148
148
148
150
150
150
152
154
156
158
158
158
156
156
158
156
156
156
154
156
156
154
150
152
150
150
152
152
150
144
137
131
135
144
154
159
163
163
163
159
158
156
154
150
144
137
125
117
112
106
150
148
146
142
141
142
142
141
141
141
142
142
142
144
148
148
148
150
150
148
150
152
154
156
158
158
158
158
158
158
158
158
156
156
156
154
152
150
150
148
152
154
154
150
141
135
137
142
152
158
161
163
163
159
158
158
156
150
144
135
125
117
113
106
154
152
148
146
144
144
142
142
141
142
144
144
146
146
146
148
146
148
148
148
146
148
150
154
156
158
159
159
159
159
159
161
159
159
158
156
154
152
150
150
152
154
156
156
146
141
141
148
154
156
159
161
161
159
159
158
156
152
144
135
127
119
112
108
154
154
154
150
146
144
142
142
144
142
142
144
146
148
148
150
148
146
148
148
146
146
150
152
154
154
156
158
159
161
159
159
159
158
159
158
156
154
150
150
152
154
154
158
152
146
146
150
156
156
159
161
159
159
158
158
154
150
142
135
125
119
112
108
154
154
154
152
148
146
144
146
146
146
144
148
150
152
150
152
152
150
150
152
150
150
148
150
152
154
156
156
159
161
158
158
158
158
158
158
156
154
150
150
154
156
156
159
156
148
148
154
158
156
158
161
163
161
158
156
154
148
141
135
125
119
112
106
154
154
152
152
152
150
148
148
148
148
150
152
154
154
154
152
154
152
154
154
152
150
150
152
154
154
156
156
156
158
158
156
156
158
159
159
158
154
152
152
152
156
159
161
158
148
150
154
161
158
158
161
165
163
159
156
154
148
141
135
127
121
112
104
154
154
154
152
154
154
150
150
150
150
154
156
158
158
158
156
154
154
154
154
154
154
150
152
150
152
154
152
152
154
156
154
156
158
159
158
158
156
154
152
152
158
161
161
159
150
148
154
161
159
158
161
165
165
161
159
154
148
141
137
129
119
110
102
156
156
154
152
152
154
154
156
154
154
158
158
159
159
159
158
156
154
156
156
156
156
154
152
150
152
154
152
150
154
156
156
156
159
161
159
159
158
156
154
154
158
161
163
159
150
148
156
161
161
159
159
163
167
163
161
158
150
144
139
129
121
112
100
158
156
154
152
154
156
156
156
156
156
159
159
159
159
161
159
158
158
158
158
159
158
156
154
154
154
154
152
152
154
156
158
158
161
163
163
161
158
156
156
156
158
158
161
159
152
150
156
163
163
159
158
161
167
165
163
158
152
144
139
131
121
112
100
