P2
# 427 of 608 Angiograms
64 64
255
142
144
146
142
142
142
144
142
142
137
137
139
142
144
144
146
144
141
141
139
142
142
142
144
144
144
144
148
150
148
146
144
144
142
141
139
131
121
112
106
102
102
106
113
123
131
139
141
142
141
139
135
131
127
129
137
144
150
152
150
152
152
154
154
144
144
146
144
142
142
141
142
142
137
135
137
142
144
144
144
142
141
142
142
144
144
142
142
141
139
141
142
144
144
144
142
141
141
135
129
121
108
98
93
91
95
100
104
113
121
125
131
133
135
135
135
133
131
135
142
146
148
150
152
152
154
154
156
142
142
142
142
141
141
141
141
139
139
137
135
141
144
144
144
142
141
144
146
146
148
146
144
142
141
141
141
141
139
139
139
139
135
129
119
110
102
95
89
89
95
100
106
112
117
121
125
127
129
127
129
133
135
141
146
150
150
150
152
152
156
154
154
141
141
142
141
139
141
139
139
141
141
135
135
139
144
144
144
142
142
144
146
146
148
148
146
144
142
142
141
139
137
135
135
133
127
121
112
108
102
98
96
100
104
110
112
115
121
123
125
127
127
129
131
135
142
148
152
152
150
152
152
152
154
154
154
141
142
141
139
141
137
137
137
141
139
133
133
139
144
144
146
146
144
144
144
144
144
146
144
146
144
144
142
141
137
133
131
125
119
112
108
108
108
110
115
121
123
125
121
123
123
125
127
131
129
131
135
142
150
154
156
152
152
152
152
150
150
152
154
139
139
139
141
137
139
137
137
139
139
135
135
137
142
144
146
146
144
144
142
142
144
144
144
148
150
146
144
142
137
133
129
119
112
106
106
112
117
123
131
137
141
141
139
137
133
131
133
133
133
133
142
150
154
152
154
152
152
152
152
150
152
154
156
137
139
137
137
135
139
139
137
139
139
137
135
135
141
142
146
144
146
146
142
144
144
142
144
148
150
148
146
142
135
131
119
113
108
108
112
119
127
139
146
150
150
150
148
146
144
139
135
135
133
137
146
154
156
152
152
150
150
152
152
152
154
156
154
135
137
137
135
135
135
139
137
139
139
137
133
131
139
142
146
144
142
142
142
144
146
146
144
148
150
148
146
141
133
123
115
113
113
115
123
133
142
152
156
158
156
154
152
152
152
148
142
137
133
137
146
152
156
152
154
150
150
152
152
156
158
158
158
131
133
137
137
135
135
137
139
139
139
139
135
131
135
141
144
144
142
142
142
142
144
146
144
148
148
146
142
135
127
119
115
117
121
127
137
144
152
158
159
159
158
158
156
154
156
152
146
139
135
133
141
150
154
154
156
156
154
154
158
159
161
161
161
131
131
133
135
135
135
137
141
142
142
139
135
133
131
137
142
144
142
142
142
141
141
142
142
144
146
142
137
127
125
119
121
121
129
139
144
152
156
158
159
159
158
158
159
159
158
156
150
146
139
133
137
144
150
154
154
154
154
156
159
161
163
163
163
131
129
133
135
137
137
139
141
141
141
141
133
129
127
133
141
142
141
142
142
139
139
141
141
142
141
135
129
123
121
121
123
127
139
144
150
156
158
156
156
158
156
158
161
161
159
158
156
150
144
139
139
142
150
150
150
152
154
156
159
159
163
163
161
133
131
133
133
135
139
141
141
139
139
141
131
125
125
131
139
141
141
141
141
141
139
137
139
137
135
127
121
121
121
121
129
139
146
150
152
156
154
154
152
154
156
158
161
163
161
161
159
156
152
146
144
146
150
150
150
150
152
154
158
159
163
161
159
131
129
131
131
133
137
137
141
139
139
141
131
125
123
129
137
141
141
141
142
142
141
137
135
131
125
121
119
119
121
127
139
146
150
152
150
152
152
154
150
152
154
156
158
161
161
161
161
158
154
152
152
152
154
152
152
154
152
152
154
158
158
156
158
133
129
127
127
129
131
135
135
137
139
137
129
123
123
129
139
141
142
141
144
142
139
133
129
123
119
117
119
119
123
135
144
150
152
154
152
152
152
150
148
152
154
156
156
161
159
159
161
158
156
156
158
158
156
156
156
154
152
150
150
150
152
152
154
133
127
123
123
125
125
125
125
129
129
129
123
119
121
127
137
141
141
139
137
135
133
127
123
117
115
115
117
123
131
142
150
152
156
154
152
152
150
150
148
152
154
156
156
159
158
156
158
159
159
159
161
159
158
158
158
158
156
154
154
152
152
150
150
129
123
119
117
117
115
115
113
113
115
117
113
112
115
121
127
131
131
129
129
125
125
119
115
113
113
115
119
129
139
146
152
156
158
156
154
152
152
152
152
152
154
156
156
158
156
156
156
159
159
161
159
163
161
159
159
159
159
158
158
154
152
150
148
125
119
113
108
106
106
106
104
102
104
104
102
104
110
113
119
121
121
119
117
117
115
113
112
113
115
119
127
135
144
150
154
156
154
156
154
152
150
150
152
150
152
154
154
156
158
158
154
156
158
158
159
159
159
159
161
161
161
161
159
158
152
150
148
119
112
106
106
106
104
104
98
96
98
98
98
98
104
108
112
112
112
110
110
112
115
115
113
115
119
129
137
144
150
152
152
154
156
154
150
152
150
152
154
152
152
152
154
156
159
158
154
156
158
156
158
158
158
159
161
161
161
161
161
159
152
150
150
113
106
108
108
106
108
106
98
95
95
95
95
96
102
104
104
106
104
108
108
112
117
117
119
123
129
137
144
150
152
152
152
152
152
150
150
150
150
152
152
154
154
154
152
154
156
156
156
158
158
158
158
156
154
158
158
159
161
161
159
156
154
152
150
108
106
110
110
110
110
110
104
98
95
95
95
96
100
102
102
104
108
108
112
115
119
123
127
133
141
146
148
152
152
152
154
152
150
152
148
150
152
152
154
152
154
154
152
152
154
154
156
158
158
156
156
154
156
156
158
156
159
159
158
156
156
154
154
110
110
110
113
115
115
113
112
106
102
100
98
100
104
108
108
110
113
115
119
121
127
131
137
142
146
148
150
152
152
152
154
154
152
152
150
152
152
150
154
152
152
154
154
154
154
154
156
156
158
156
156
156
156
158
159
158
158
158
158
156
156
156
154
110
113
115
121
125
125
123
121
119
115
113
110
110
113
119
123
121
123
125
127
131
137
141
142
146
148
146
148
150
150
150
152
154
152
152
152
148
148
150
152
152
152
156
154
154
154
156
158
158
158
158
156
158
158
158
159
156
156
154
154
154
156
156
156
110
115
123
129
133
135
133
129
129
127
123
121
121
125
129
131
133
135
137
139
141
144
144
144
148
148
144
146
146
150
150
150
152
152
152
150
148
148
148
150
152
154
156
154
154
154
154
154
156
158
159
159
161
158
156
158
156
156
156
156
156
154
154
156
112
121
127
133
137
137
139
135
133
131
131
129
131
133
137
139
142
142
144
144
144
146
146
144
148
148
146
144
146
146
146
148
150
152
154
152
150
150
148
150
150
154
154
154
156
154
154
156
156
158
159
159
159
158
156
156
156
156
156
156
154
152
154
156
113
123
131
135
135
137
139
137
135
133
133
135
135
137
141
144
144
144
146
144
144
144
144
146
146
144
146
146
142
142
144
146
150
154
156
154
152
152
150
148
150
152
154
154
156
158
156
154
156
159
158
159
161
159
158
158
156
158
156
154
154
152
156
158
110
123
131
135
135
137
137
135
135
133
137
139
139
139
139
142
142
146
144
141
142
141
141
144
146
146
148
146
142
141
142
146
150
152
154
156
156
154
152
150
150
152
154
154
154
156
154
156
156
158
158
159
161
161
159
156
154
156
158
158
154
154
156
158
106
119
127
131
133
133
133
133
135
135
135
139
141
141
142
142
142
142
142
141
142
142
141
141
142
144
148
146
142
139
142
144
148
152
154
156
156
152
152
152
152
152
154
154
152
152
154
154
154
158
158
161
163
163
159
158
154
154
158
158
156
156
158
159
100
112
119
125
127
125
129
133
137
137
137
141
141
141
142
142
144
142
142
142
144
142
142
141
141
142
146
144
141
139
139
142
146
150
154
156
154
154
156
152
152
154
154
154
154
154
152
152
156
156
159
161
161
161
159
159
156
158
158
156
158
158
159
158
98
104
113
119
121
123
127
135
139
139
139
139
139
141
141
141
141
142
144
144
146
144
141
139
141
142
146
144
142
141
139
141
144
148
150
152
154
156
156
154
154
154
154
154
152
154
154
152
154
156
159
161
161
161
161
159
159
158
158
156
158
159
159
159
98
100
110
117
119
121
127
135
139
142
142
139
139
141
142
142
141
142
144
144
146
148
144
141
141
141
142
142
142
144
144
142
144
146
150
150
154
154
156
154
156
154
154
154
152
152
154
154
154
158
158
161
163
161
161
159
159
158
158
158
158
159
159
161
106
106
113
117
119
123
131
135
139
142
144
142
141
142
142
142
142
146
148
146
146
146
146
144
142
142
142
144
144
146
146
142
142
146
148
150
148
154
158
158
156
156
154
154
154
154
154
154
154
156
158
159
161
159
161
161
161
158
156
156
159
161
163
161
121
121
123
123
125
127
133
137
139
142
146
144
144
144
146
146
146
146
146
146
146
144
144
142
141
141
142
144
144
144
146
146
144
146
146
146
148
150
158
159
159
158
154
154
156
156
156
156
156
156
158
158
158
159
161
161
159
156
156
158
159
163
165
163
131
131
131
131
131
131
135
137
139
142
144
146
146
146
146
146
146
146
144
146
146
144
144
141
141
139
139
141
142
142
144
144
142
146
148
146
148
150
154
158
159
159
156
158
159
158
156
158
158
156
158
158
158
158
161
161
158
156
156
158
161
163
163
165
135
135
135
135
135
135
135
135
137
139
141
141
144
144
144
144
146
146
146
144
142
141
142
139
137
135
137
139
141
141
146
144
144
146
148
146
148
150
152
156
158
158
158
158
159
159
156
158
156
156
156
156
158
156
159
159
159
158
158
159
161
165
163
163
135
135
137
137
135
135
135
135
137
139
139
137
141
142
142
144
144
146
146
142
141
141
141
139
137
135
135
137
137
139
142
141
142
146
144
146
146
148
150
152
152
154
156
156
158
158
156
156
154
152
152
152
154
154
156
158
159
161
159
161
161
161
161
161
131
135
137
139
135
135
135
135
137
139
137
137
141
141
139
142
144
146
142
141
139
139
139
137
135
133
133
135
135
135
137
137
139
142
144
144
144
146
146
148
150
150
154
154
156
156
156
156
152
150
150
148
148
150
152
156
159
161
159
161
161
163
161
161
133
135
135
135
135
137
135
137
137
137
137
137
141
141
139
141
142
142
142
142
139
137
135
133
133
133
133
131
133
133
135
135
135
141
139
141
141
142
146
146
146
148
150
152
154
152
154
154
150
150
150
148
148
148
150
152
156
159
159
163
163
163
161
161
133
135
135
135
137
135
135
139
139
137
139
139
139
141
139
137
139
141
141
139
139
139
133
131
129
131
133
131
131
131
131
133
135
137
139
137
139
142
144
146
144
144
146
146
148
148
150
150
148
146
146
144
144
144
146
148
150
154
159
161
163
161
161
161
133
135
139
139
137
135
135
139
137
137
139
139
139
139
141
139
139
137
137
135
133
135
133
131
131
135
135
133
133
129
131
133
135
135
135
137
139
141
142
142
141
141
142
142
144
144
144
144
142
141
141
142
141
142
144
146
148
150
154
159
161
161
161
159
133
135
137
137
137
135
137
137
137
137
139
139
139
139
139
137
137
137
133
131
133
131
129
131
133
133
133
133
133
133
131
131
133
133
135
137
139
139
141
141
141
142
142
142
142
141
142
141
139
137
137
141
141
139
141
142
144
148
150
156
159
159
158
159
131
135
135
137
137
135
135
135
137
137
141
139
137
141
139
139
137
135
133
133
131
131
131
133
133
133
131
133
133
131
129
127
129
131
137
137
137
137
139
141
141
139
139
141
142
141
139
137
135
135
133
135
135
135
137
139
141
144
148
152
156
158
156
158
131
131
133
137
135
135
133
133
135
135
135
137
139
141
139
139
137
137
135
135
131
131
133
133
133
131
133
133
133
133
129
129
127
129
137
137
135
135
137
139
141
137
139
139
139
139
135
133
131
131
129
133
133
133
135
137
139
142
146
148
150
150
152
154
131
133
133
133
133
133
131
129
133
133
133
133
137
139
139
139
137
137
139
135
133
131
133
133
135
135
133
133
133
133
131
129
127
127
135
137
135
135
137
137
137
139
139
137
135
135
135
131
129
127
129
131
131
135
137
137
137
142
148
148
148
150
150
150
129
131
131
131
133
133
131
131
133
131
135
137
139
139
141
137
135
139
141
137
133
133
133
135
135
135
133
131
131
133
131
127
127
127
131
133
133
133
133
135
135
139
139
135
135
135
135
133
131
129
127
127
129
133
135
137
141
144
148
148
148
150
150
150
127
129
129
131
131
133
131
131
131
129
133
137
137
137
141
139
139
142
141
141
139
137
135
131
133
135
133
133
133
135
133
131
129
131
131
131
127
127
131
131
131
133
137
135
135
135
135
135
131
129
127
125
129
131
131
135
141
144
146
146
148
146
148
150
127
129
129
129
129
133
131
129
131
129
131
133
133
135
137
137
139
142
141
142
139
137
133
131
133
137
133
133
131
131
133
129
127
131
131
129
127
125
125
129
129
131
135
135
133
133
135
135
133
129
127
127
129
131
131
137
139
144
144
146
148
148
150
148
125
127
125
125
127
131
131
131
131
131
129
131
133
133
133
135
137
141
139
141
141
137
131
127
129
133
131
129
129
129
129
125
125
129
129
127
127
123
125
125
127
133
137
137
135
133
135
133
131
127
125
127
129
131
133
139
141
144
146
146
148
150
150
146
125
127
127
127
127
131
133
135
135
129
127
127
131
131
131
135
135
137
139
139
137
135
129
123
125
129
131
129
127
127
125
125
127
127
129
125
125
123
123
123
127
133
135
135
135
135
131
129
129
127
127
129
129
133
137
137
141
144
146
146
148
150
148
150
127
127
127
125
127
131
133
133
133
129
127
127
125
127
129
133
133
135
133
133
133
131
129
123
121
123
129
129
125
125
123
127
125
125
125
121
123
121
121
121
121
125
131
133
133
133
131
127
125
125
127
127
129
135
137
137
139
142
146
148
150
150
150
152
127
129
127
125
129
131
131
131
131
127
125
123
127
127
129
133
133
133
135
137
133
133
129
123
121
123
127
125
123
121
121
123
123
121
121
119
119
121
119
117
117
117
121
125
127
129
129
127
125
125
127
125
129
135
137
137
141
142
144
144
148
150
154
154
127
129
129
129
129
131
131
131
131
127
123
119
123
127
133
135
135
135
137
135
133
133
131
125
125
125
125
125
123
119
119
119
121
121
119
117
115
113
113
113
112
112
117
121
121
123
125
125
123
125
127
127
127
133
137
137
141
141
144
146
146
148
152
154
129
129
129
131
131
131
133
129
127
125
119
119
125
129
137
137
137
135
137
135
133
133
135
131
129
127
127
127
123
121
123
121
121
119
119
117
113
112
112
112
110
112
115
115
117
119
123
125
123
125
125
127
127
131
137
137
139
139
142
144
144
144
148
152
131
129
129
133
133
133
131
127
127
125
125
127
127
133
137
139
139
135
137
135
135
135
137
137
133
131
129
129
125
123
123
123
123
121
119
113
110
110
112
110
110
110
112
112
113
115
117
121
123
123
121
125
127
131
133
137
137
139
141
142
142
142
146
148
133
133
131
135
133
133
133
131
129
129
129
131
131
133
135
139
139
137
139
137
135
139
141
141
139
137
133
131
129
125
125
125
127
123
119
113
110
112
110
108
110
110
108
110
110
113
115
117
117
117
117
121
127
131
133
133
135
137
139
141
141
142
142
144
133
133
131
133
133
133
135
135
135
135
135
135
135
133
133
135
135
137
137
137
137
139
139
141
139
137
137
133
131
129
129
127
127
123
119
115
112
110
108
108
108
110
110
110
112
112
112
112
112
115
117
119
123
129
131
135
135
137
139
141
142
142
141
142
133
133
133
133
131
131
135
137
139
139
139
137
137
135
135
135
135
137
135
139
139
139
139
139
139
137
137
133
129
131
133
131
129
125
119
117
113
110
108
108
110
108
106
110
110
112
113
112
110
113
117
119
121
125
127
131
133
135
137
139
137
139
141
142
133
133
131
131
129
133
137
141
142
141
141
139
137
137
137
135
137
137
139
141
141
141
141
139
139
137
135
135
135
135
135
135
131
125
121
119
115
112
108
110
110
110
108
110
110
112
113
113
113
115
115
117
119
121
125
129
131
135
137
137
135
137
141
141
133
131
129
129
133
137
141
142
142
142
142
142
139
137
137
137
137
137
139
142
142
142
142
141
141
141
141
141
141
141
141
139
133
127
123
121
117
113
108
108
110
110
108
110
110
113
115
115
119
117
115
119
121
123
125
129
131
133
135
135
139
139
141
141
137
135
135
137
139
141
144
144
144
146
146
144
141
141
139
139
141
141
141
142
144
146
146
142
142
142
142
144
144
144
142
141
135
131
127
125
119
112
106
106
108
110
108
110
112
113
115
119
121
121
121
123
123
125
125
131
133
133
135
137
139
139
139
142
137
139
142
142
141
142
146
146
148
150
148
146
144
142
142
142
142
142
142
142
144
146
148
144
144
146
148
150
150
148
146
142
139
133
127
125
119
110
108
106
106
106
108
110
113
115
117
121
125
127
127
127
127
125
129
133
133
133
133
137
139
142
142
142
139
142
144
144
144
144
146
148
150
150
150
148
146
146
146
148
148
150
150
148
146
148
148
146
148
148
150
150
152
152
148
146
142
137
131
123
119
110
108
106
104
106
110
112
113
115
121
125
127
129
129
129
131
129
129
133
135
133
135
137
139
144
146
146
141
146
144
144
144
148
150
150
150
150
150
152
152
152
152
152
154
156
154
152
152
150
152
150
150
150
152
154
154
152
150
148
146
141
135
129
119
115
110
108
108
108
108
113
117
121
125
129
131
133
133
131
133
131
131
137
137
137
137
141
142
144
146
148
141
144
146
146
146
150
152
154
152
152
150
152
154
154
154
156
156
156
154
152
152
152
152
150
150
154
154
156
154
156
156
154
152
148
142
135
125
121
117
113
112
112
113
119
123
127
129
133
135
133
133
135
137
137
135
139
139
139
141
142
142
148
150
150
141
144
144
146
148
152
152
154
154
152
152
152
156
159
159
159
158
156
154
152
152
154
154
152
154
156
156
158
159
161
161
159
158
154
150
142
135
129
125
123
123
119
121
125
129
131
137
137
135
135
137
137
139
139
139
139
141
141
144
146
148
150
150
152
