P2
# 431 of 608 Angiograms
64 64
255
158
158
154
152
152
152
156
161
165
165
165
161
158
152
152
150
150
148
150
152
154
156
158
159
158
158
156
156
158
156
152
152
152
152
152
152
150
148
152
154
154
156
156
156
156
156
152
150
148
146
148
148
148
144
144
146
146
144
144
148
150
150
150
154
159
158
156
156
152
152
158
163
167
165
165
161
158
152
152
150
148
146
146
150
152
156
158
158
158
158
158
154
154
152
150
150
152
156
154
150
146
148
152
152
154
158
156
156
154
154
152
150
146
144
148
148
150
146
144
146
146
146
144
150
152
154
154
152
158
156
156
158
154
152
158
163
165
165
163
159
156
152
150
148
144
142
144
146
150
152
156
156
156
154
154
156
156
152
150
150
154
154
152
148
144
146
150
152
152
156
156
154
156
154
152
152
148
148
148
150
152
148
146
144
146
146
148
152
152
152
152
152
156
152
154
154
154
150
156
161
163
163
161
159
156
150
150
146
141
137
141
144
148
150
152
154
156
156
154
154
156
152
152
152
154
154
152
148
144
144
146
150
152
154
154
152
152
150
152
152
150
150
148
152
152
148
144
144
144
146
148
150
152
152
152
152
152
152
152
152
152
150
154
158
158
161
161
159
156
150
148
144
139
137
139
144
148
150
152
154
156
154
154
152
152
150
150
152
154
156
152
148
144
142
146
150
150
152
152
152
148
148
148
150
150
152
150
154
154
150
146
148
148
148
148
148
152
154
152
152
152
150
150
148
148
148
152
158
159
159
159
158
156
152
148
144
141
141
141
146
150
152
152
152
154
154
152
152
152
150
150
150
154
156
152
150
146
142
146
150
150
152
152
150
148
146
146
148
150
152
150
150
152
152
148
148
150
150
148
148
152
152
150
150
150
148
148
144
144
146
150
156
158
158
159
159
158
152
148
146
142
142
142
146
150
150
152
152
154
152
152
152
152
152
152
152
154
154
154
150
150
146
148
150
152
152
152
148
148
148
148
148
150
152
150
148
150
150
150
150
152
152
152
150
150
150
150
148
152
148
144
141
141
144
148
154
158
158
159
159
158
154
152
148
144
144
146
148
152
150
150
150
152
152
154
154
154
154
154
154
156
158
156
154
152
150
150
152
154
154
152
148
148
150
146
148
150
152
150
148
150
152
154
154
154
152
150
148
150
150
148
148
154
148
144
142
141
144
148
154
158
158
158
158
158
156
154
152
150
150
152
154
156
152
148
146
148
150
152
152
156
158
158
158
158
158
158
158
154
152
152
152
152
154
152
152
150
150
150
152
152
152
152
150
148
150
154
154
154
154
152
150
152
148
146
146
154
150
148
146
146
148
152
156
158
156
154
152
156
156
154
158
159
158
158
156
156
152
146
144
146
148
148
152
156
156
156
159
159
156
158
159
158
154
154
154
152
154
156
154
154
154
156
156
156
156
154
150
148
150
150
150
154
154
154
154
154
150
148
148
156
150
150
148
148
152
156
158
156
154
154
154
156
156
156
159
159
159
159
158
154
152
150
148
148
148
150
152
154
156
158
158
159
158
158
161
159
156
156
154
152
154
156
154
154
156
158
159
159
158
154
150
150
150
152
152
154
156
154
150
150
148
146
148
158
152
150
150
152
156
158
158
158
156
156
156
154
156
158
158
159
159
159
158
154
152
154
152
152
150
152
154
154
156
158
159
161
159
159
159
159
158
156
152
150
152
154
156
156
154
154
156
156
154
152
150
150
150
152
152
152
154
154
152
152
148
146
148
158
154
150
150
154
158
161
161
161
159
159
158
158
159
158
156
158
159
159
159
158
156
156
156
154
150
152
154
156
158
158
159
159
161
161
161
159
158
156
152
150
150
150
156
158
158
156
154
152
152
152
152
150
148
146
148
152
154
152
152
150
148
146
144
158
154
152
154
158
161
165
165
165
165
165
165
163
163
161
159
161
163
163
163
163
161
159
159
158
154
152
154
158
156
156
156
158
161
161
159
158
156
152
150
150
150
152
152
154
156
154
152
150
150
152
152
148
146
146
148
150
154
152
150
150
148
146
142
154
154
152
156
161
165
168
168
170
170
170
170
168
167
165
165
165
168
168
168
167
165
163
161
161
159
158
154
156
156
154
154
156
156
158
156
154
150
146
148
150
150
154
152
152
152
152
152
152
150
150
148
148
148
148
150
148
150
150
148
148
146
146
144
154
152
152
158
165
167
170
170
172
173
172
172
172
170
167
167
170
172
170
168
168
168
165
165
165
163
161
156
156
154
154
152
152
152
152
152
150
146
142
144
148
150
152
150
150
154
152
150
152
150
150
148
150
148
148
150
148
148
150
150
152
148
146
148
150
152
152
159
165
167
170
172
172
173
173
173
173
170
168
168
170
172
172
168
168
168
167
167
165
163
161
158
156
152
150
148
148
148
148
148
148
146
142
144
146
148
148
148
150
150
150
150
150
152
150
148
148
148
150
152
152
150
150
150
148
148
148
150
150
154
156
159
163
167
168
168
170
172
173
173
172
170
168
167
168
170
170
168
167
167
167
167
163
163
161
156
154
152
148
146
144
144
146
146
148
144
144
144
146
148
148
150
150
150
150
150
150
152
152
150
150
150
152
154
154
150
150
150
146
144
148
150
154
156
158
159
163
165
165
167
167
168
172
172
170
168
165
165
165
167
167
167
167
165
163
163
161
161
156
154
152
148
146
142
142
144
146
148
146
144
144
146
146
148
152
152
154
152
152
150
152
154
154
154
152
150
150
152
152
152
148
150
148
146
148
148
156
156
154
158
159
163
163
163
165
167
168
168
167
165
161
161
161
161
161
161
161
161
161
163
159
158
154
154
152
150
146
144
146
148
148
146
144
142
142
144
144
150
150
152
156
156
154
154
154
156
154
154
152
150
150
150
148
150
146
146
148
148
150
146
156
156
154
156
158
158
158
159
161
165
167
167
165
161
159
159
159
159
158
158
158
159
159
161
158
156
154
156
156
156
152
152
152
150
148
146
144
141
139
142
146
150
152
152
158
159
158
156
156
154
154
154
152
148
148
148
148
148
148
148
150
150
150
150
152
150
152
154
156
154
154
158
161
163
165
165
163
159
159
159
159
158
158
158
158
159
159
158
158
156
154
158
159
159
159
158
158
158
154
150
144
142
141
142
146
150
152
154
159
161
159
159
158
158
156
154
152
150
152
148
148
148
150
150
150
148
148
148
152
150
150
152
154
156
156
158
161
163
161
163
163
161
159
158
159
159
158
159
159
161
159
158
156
156
158
161
161
163
163
165
165
163
159
156
150
146
144
146
148
150
152
154
156
156
156
156
156
156
156
156
156
154
154
152
150
148
150
152
150
152
150
150
154
152
152
154
156
158
159
161
163
161
161
161
159
158
158
156
159
159
156
158
159
158
158
158
158
156
159
163
165
165
163
163
165
165
163
159
154
148
148
148
148
150
152
154
154
152
152
154
156
158
159
159
158
158
158
154
150
150
150
150
152
152
152
152
158
156
154
156
158
159
161
165
165
165
163
161
161
159
158
158
158
158
156
158
158
156
156
158
159
158
159
163
165
163
161
163
165
165
163
161
158
152
150
150
150
148
152
152
156
154
152
154
156
158
161
161
159
161
159
152
148
148
150
148
148
150
150
154
161
159
158
161
163
163
165
167
167
165
165
163
161
159
159
158
158
158
158
159
159
159
158
159
159
161
161
161
165
163
163
163
165
167
163
161
159
156
152
152
152
148
150
152
154
152
154
156
156
156
159
161
161
161
156
148
144
142
144
144
144
148
150
154
163
161
159
163
163
163
167
168
168
167
167
167
165
163
161
161
161
161
161
163
163
163
161
161
161
161
161
163
165
165
165
165
167
168
165
163
161
159
156
154
152
150
150
152
152
152
152
154
156
156
158
158
159
158
150
144
141
139
139
142
144
148
152
154
165
165
161
159
161
165
167
168
168
167
168
168
168
168
167
165
163
165
165
165
165
167
167
167
167
167
165
165
165
167
168
170
170
168
165
163
163
163
161
158
154
152
150
152
152
150
150
150
152
154
156
156
154
152
148
142
139
135
139
141
144
148
150
154
165
163
159
159
161
163
165
165
167
167
167
170
172
173
172
170
170
170
168
167
165
167
167
167
168
168
168
170
170
168
168
168
168
167
165
163
161
163
161
159
156
154
152
150
150
150
146
148
150
152
152
152
152
150
146
142
139
135
137
139
142
146
148
154
161
159
159
158
159
163
163
165
167
167
168
168
172
173
173
172
172
172
168
167
167
167
167
165
167
167
167
168
168
168
167
168
168
167
165
161
159
161
161
159
158
156
156
150
150
150
146
146
146
148
148
150
152
152
146
141
139
139
137
139
142
146
148
152
159
158
158
156
158
161
163
165
168
167
167
167
168
172
173
173
172
173
168
165
167
165
165
165
167
168
168
168
168
170
170
170
170
168
167
163
161
161
161
159
158
156
156
152
150
152
148
146
144
146
146
150
154
154
150
144
141
139
141
142
146
150
152
156
161
158
158
156
159
159
161
167
167
165
165
165
167
168
172
173
173
172
168
165
163
163
165
168
170
173
172
170
170
170
170
170
170
168
167
165
163
163
161
159
158
156
156
152
152
152
148
148
148
148
148
152
152
154
152
148
146
144
144
146
150
154
154
156
161
159
159
159
159
159
161
163
165
165
165
165
167
168
170
173
172
170
165
161
161
161
163
168
170
173
173
172
172
172
172
170
167
167
167
163
165
163
161
161
158
158
156
154
152
150
150
150
150
150
152
156
156
156
154
150
148
146
146
148
152
154
154
154
165
163
161
161
161
161
161
163
165
167
165
167
170
172
172
170
168
165
161
159
159
159
163
168
172
173
175
173
172
172
172
170
167
167
165
165
167
165
163
161
158
156
156
154
154
152
152
152
152
154
156
158
159
158
156
150
150
148
146
152
154
152
154
152
168
165
165
163
163
165
167
167
167
167
168
170
170
170
168
167
165
159
156
156
158
159
163
168
170
173
172
172
172
170
168
168
165
163
165
165
165
165
165
161
158
156
154
156
158
156
154
156
156
156
158
159
159
158
156
150
150
148
150
152
154
154
152
152
170
168
167
167
167
168
170
168
167
167
168
170
170
168
167
165
161
159
154
154
156
159
163
165
167
168
168
168
167
165
165
165
163
161
161
163
165
165
165
161
156
156
156
158
159
158
154
154
154
154
154
158
158
158
152
150
150
148
152
156
154
154
152
152
170
168
168
168
168
170
172
170
168
168
167
168
167
165
165
163
161
161
158
156
158
161
165
165
163
165
165
163
163
165
163
163
161
161
161
163
163
163
163
161
158
158
158
158
159
159
156
154
150
150
152
154
156
154
152
152
148
148
152
156
154
154
152
154
168
167
167
168
168
170
173
172
170
168
167
165
165
163
165
163
163
163
163
159
159
163
163
163
163
163
161
161
159
161
161
163
163
161
161
163
161
161
163
161
159
159
158
156
159
158
156
152
150
148
152
152
152
152
152
152
152
152
152
156
156
154
156
156
168
168
168
168
170
170
173
172
172
168
167
167
165
163
163
163
161
163
165
163
163
163
163
163
161
159
158
159
161
165
165
163
163
163
163
163
161
163
161
161
161
161
159
158
158
158
156
152
154
150
150
150
150
152
152
152
154
154
154
156
158
158
158
156
170
170
168
168
172
172
173
172
170
168
167
165
163
161
161
161
159
163
165
165
167
165
165
163
161
159
159
161
163
165
167
167
163
161
161
161
161
163
163
161
159
163
163
161
159
158
158
156
154
152
148
148
148
150
152
152
152
152
152
154
154
156
158
156
175
172
170
170
172
172
173
172
170
170
167
165
161
159
158
161
161
165
165
165
165
165
165
163
161
161
163
163
163
167
168
167
167
163
163
161
163
165
165
161
161
163
163
161
161
159
158
156
154
150
148
148
148
148
150
150
150
150
152
154
156
156
158
156
178
175
172
170
168
170
173
172
170
170
167
165
159
159
159
161
163
165
167
167
167
165
167
167
167
165
165
165
165
167
167
167
168
167
165
165
165
167
167
165
165
165
163
161
159
159
158
156
154
152
152
154
154
152
150
148
150
152
156
156
156
158
158
156
180
175
173
173
172
172
173
172
172
170
167
163
159
158
161
163
165
165
167
167
167
167
167
168
170
167
167
167
168
168
167
167
168
168
168
168
168
168
167
167
167
165
165
161
159
158
156
156
154
156
154
152
154
152
150
148
148
150
156
156
158
158
156
156
178
175
173
175
173
172
173
172
172
170
165
161
159
159
159
159
163
165
165
167
168
168
168
172
170
167
168
168
168
167
168
168
168
168
168
168
165
167
165
167
165
165
165
161
158
158
158
156
156
156
154
152
152
152
150
146
144
148
154
156
154
156
152
152
177
175
175
175
175
172
170
172
170
167
165
161
161
161
159
159
161
165
167
168
172
170
170
172
170
170
170
168
168
167
168
168
167
167
167
167
165
167
167
165
165
167
165
161
158
158
158
156
156
154
152
150
148
148
146
146
144
148
152
154
154
152
148
148
175
175
175
177
175
173
172
170
170
167
165
161
159
161
158
156
159
161
165
167
172
172
172
172
170
170
168
167
165
167
168
168
168
167
165
165
167
167
167
167
167
167
161
159
158
156
156
154
152
152
150
150
148
148
144
144
146
148
152
152
152
148
146
146
175
175
173
175
175
175
173
172
170
168
165
161
158
159
159
158
159
159
159
163
167
170
170
170
168
167
165
163
163
163
167
168
168
167
165
163
165
165
165
165
163
161
159
158
158
156
152
150
148
146
148
148
146
146
144
144
146
148
150
150
148
146
142
142
175
175
173
175
175
175
175
175
173
170
167
163
159
158
159
158
158
159
161
159
163
165
167
167
163
161
159
158
158
161
163
163
163
163
161
161
163
163
163
161
159
158
156
154
154
150
148
144
142
142
144
146
144
146
142
142
144
148
148
148
146
146
142
142
177
177
175
175
177
177
175
177
175
173
168
165
161
159
161
161
159
158
158
158
159
161
163
159
158
156
156
154
154
156
159
161
159
159
159
158
159
159
159
158
154
152
150
150
150
148
144
141
142
142
142
148
148
146
142
142
146
146
148
146
144
142
142
142
178
178
177
177
177
177
175
175
175
175
172
168
163
161
161
161
159
158
154
154
156
156
156
156
154
154
154
154
152
152
156
156
158
158
156
156
154
154
154
152
152
150
148
148
148
146
144
142
142
141
142
146
148
148
146
144
146
150
148
148
146
144
144
144
180
180
178
178
177
175
177
177
175
177
175
170
165
161
161
161
158
158
154
152
154
154
154
154
152
152
150
150
152
152
152
154
154
152
152
152
152
154
152
150
150
148
146
146
146
146
144
142
142
142
144
148
150
148
146
146
148
150
150
150
150
146
144
144
178
180
180
177
177
178
178
180
178
175
173
172
165
161
159
158
158
156
154
154
154
154
152
152
150
148
148
148
148
150
150
150
148
146
148
152
152
152
150
148
148
148
148
150
148
146
146
148
148
148
150
150
150
148
148
148
150
152
152
150
150
150
148
146
178
180
178
177
178
178
180
178
177
173
173
170
165
161
158
156
156
156
156
154
152
152
150
150
148
146
144
144
146
146
148
148
148
148
148
152
150
150
148
146
148
150
150
150
150
148
150
150
150
150
152
152
152
154
154
154
156
156
156
154
152
152
152
152
178
177
177
177
177
177
177
175
173
172
170
167
165
161
158
154
154
154
152
150
150
150
146
146
146
144
144
144
144
146
146
146
146
148
148
148
148
146
146
146
146
150
150
152
156
154
152
152
152
152
154
154
156
156
158
158
158
158
158
158
156
152
150
152
175
173
173
173
172
172
172
170
168
168
165
163
163
159
154
150
148
148
150
148
148
146
146
148
146
144
146
144
144
142
142
142
141
141
141
139
141
142
142
144
146
148
150
154
158
158
158
156
156
156
156
158
158
158
158
159
156
156
158
161
159
158
152
150
172
170
168
168
168
168
167
167
165
165
163
161
159
156
152
146
144
142
144
146
148
148
148
146
146
146
148
148
146
142
142
139
137
135
133
135
135
135
139
142
146
148
152
156
158
159
159
159
159
159
159
159
159
159
161
159
158
159
161
163
161
159
156
154
170
167
168
168
168
167
163
163
163
163
161
159
158
154
150
142
139
139
142
141
144
146
148
146
148
150
152
152
150
144
142
139
135
133
133
133
135
135
137
144
146
150
154
156
159
159
159
161
161
163
163
163
161
161
159
159
159
159
161
161
161
159
158
156
170
170
170
168
167
165
161
159
161
159
158
158
156
152
148
142
141
142
142
142
144
146
146
146
148
148
150
152
150
146
142
137
133
133
133
133
135
135
135
144
150
154
156
159
161
161
163
163
165
165
165
163
163
163
159
158
159
159
159
159
159
159
158
158
172
170
170
168
165
163
161
159
159
158
156
156
154
152
150
148
146
146
144
142
142
144
144
146
148
148
148
148
148
148
142
137
135
133
133
131
131
133
137
146
152
154
156
159
161
163
165
165
167
165
165
165
163
163
158
154
156
156
158
159
161
159
159
158
172
170
170
167
163
163
161
161
161
159
158
158
156
154
154
152
150
150
148
148
146
146
146
148
148
146
148
148
148
146
142
137
135
131
129
129
127
131
137
146
152
156
158
161
163
165
163
163
165
163
161
159
159
159
156
152
152
156
156
158
159
159
158
158
170
168
167
165
163
159
158
159
159
163
161
159
159
158
156
154
154
154
150
148
148
146
146
148
146
146
148
146
146
146
142
137
135
131
131
129
129
133
139
148
152
154
156
159
161
161
161
161
161
159
159
159
159
159
156
152
152
156
154
156
158
159
158
156
168
167
167
165
163
159
158
158
159
163
163
159
159
158
158
158
156
156
154
150
150
148
146
146
148
148
146
146
146
146
144
141
137
133
133
131
133
137
142
148
150
152
154
158
159
161
159
159
159
159
158
156
159
159
158
154
152
156
156
154
156
159
158
156
167
165
163
165
163
159
159
159
163
165
165
161
159
159
158
158
156
158
156
154
152
152
150
150
150
148
148
150
150
148
146
142
141
137
137
137
139
141
146
148
150
148
154
158
161
161
159
158
158
158
156
156
158
159
158
156
156
156
158
158
159
159
158
156
167
165
165
165
161
161
159
161
163
163
163
161
158
159
159
158
156
158
158
154
154
154
154
152
150
150
152
154
154
152
150
148
144
142
141
142
142
144
146
148
150
148
152
158
159
159
158
158
158
158
158
158
158
159
159
159
159
159
159
161
163
159
159
159
