P2
# 432 of 608 Angiograms
64 64
255
93
95
96
91
93
95
95
96
95
95
91
89
89
89
87
89
87
89
87
87
86
89
87
89
91
91
91
93
93
91
87
89
95
93
95
93
96
98
100
100
102
98
96
87
79
76
72
71
69
72
76
81
91
100
110
108
110
108
108
106
106
106
104
100
91
93
91
93
95
98
96
98
95
95
93
93
89
87
87
87
89
89
89
87
89
87
86
87
89
91
89
91
91
89
89
93
95
95
95
96
96
98
100
100
100
95
95
87
79
74
72
74
72
71
74
82
91
98
110
110
110
108
110
108
110
106
102
100
89
91
91
91
95
96
96
95
93
93
93
93
93
89
87
91
91
87
89
87
91
89
86
86
87
89
89
91
89
87
89
95
93
91
91
95
95
98
100
100
95
96
96
89
82
77
74
74
72
72
76
79
89
98
110
110
110
110
110
110
110
106
102
100
89
89
93
91
91
96
95
95
93
93
93
93
91
93
93
96
95
91
89
91
93
91
91
91
93
91
91
91
91
91
93
91
89
91
91
95
96
96
96
98
93
96
95
89
84
79
72
72
74
74
74
76
86
98
106
108
106
108
110
106
104
106
102
98
89
91
93
93
95
96
91
93
91
93
96
93
93
98
98
96
96
95
91
96
98
96
91
91
93
91
91
89
91
91
89
86
87
87
91
91
95
96
95
95
95
96
93
87
82
77
76
72
71
74
72
77
84
100
106
108
106
106
106
102
102
102
100
98
91
91
91
95
96
95
91
93
93
93
91
89
95
96
98
95
96
95
96
102
98
96
96
93
93
89
93
91
91
91
86
86
91
89
89
91
93
95
96
96
98
96
89
84
77
72
71
69
71
72
72
77
84
98
106
108
104
102
100
102
102
98
96
100
91
93
93
95
98
98
95
96
95
93
91
91
95
96
96
98
96
95
100
100
100
96
96
96
98
96
95
91
89
93
91
91
93
89
93
91
91
93
96
96
96
93
87
82
76
72
71
71
71
69
74
77
84
96
102
102
102
102
100
102
102
96
95
96
91
93
91
93
96
96
93
96
95
93
95
95
95
95
95
96
96
95
100
100
98
100
102
100
100
100
98
95
95
95
93
93
93
91
93
89
87
91
91
93
93
91
89
81
74
74
72
74
71
71
72
76
84
95
102
102
102
100
98
98
96
96
98
98
93
95
95
96
96
95
93
95
95
95
95
98
95
93
93
96
96
96
100
98
96
98
102
102
100
102
102
100
98
98
96
95
96
93
91
93
93
95
91
91
91
91
89
82
74
72
72
72
69
69
71
76
82
93
100
100
98
100
100
96
98
100
96
96
93
93
96
96
98
96
96
95
95
96
100
100
98
95
96
96
98
100
98
100
102
100
102
102
100
104
106
104
98
98
93
96
96
95
95
93
93
95
93
87
93
93
93
84
74
71
71
71
69
69
74
74
81
89
96
98
100
98
100
100
100
96
95
95
93
95
95
100
102
100
98
98
96
100
100
100
100
100
100
98
98
100
98
98
98
100
102
102
102
102
106
108
104
100
98
100
98
98
98
93
91
95
96
93
95
93
93
86
76
71
69
68
69
71
72
76
79
87
93
95
98
98
98
100
96
96
93
95
96
96
96
98
100
98
96
98
96
100
102
102
102
100
104
104
104
102
98
96
100
98
100
102
100
100
104
106
106
100
102
106
102
102
102
98
98
98
100
96
95
96
91
86
76
69
66
65
66
68
71
71
77
86
93
96
98
96
96
98
96
96
93
93
98
95
95
96
100
102
98
100
98
100
102
104
102
100
100
102
106
102
100
100
104
104
102
100
102
100
100
102
100
100
104
106
102
102
104
104
100
102
102
98
95
98
95
87
77
72
69
69
66
69
69
69
76
86
95
96
95
95
95
96
96
95
91
91
98
95
93
98
100
102
104
104
106
106
104
102
104
102
100
104
104
104
100
102
102
104
102
100
102
104
102
104
102
104
106
104
102
102
104
106
104
104
104
100
104
102
96
89
77
71
69
68
66
66
66
68
76
84
95
96
95
95
93
95
95
93
93
93
95
95
98
100
102
100
102
104
106
108
104
102
106
106
102
104
106
102
100
102
104
104
102
98
102
102
104
102
104
106
102
102
102
104
106
106
102
106
106
104
106
102
100
93
77
71
66
65
63
65
66
68
74
82
89
93
93
95
95
95
93
93
91
93
93
96
98
98
100
102
100
102
104
102
102
106
106
106
102
102
104
104
104
104
104
104
108
102
102
104
104
102
108
108
106
104
104
104
104
106
110
110
106
106
106
106
104
93
79
71
66
68
63
63
66
69
74
82
87
91
93
93
96
95
93
91
91
93
95
96
98
96
102
102
102
102
102
98
100
104
106
106
106
106
102
108
106
106
106
102
104
106
110
106
102
104
106
106
108
106
104
106
106
108
108
106
102
102
104
108
106
96
79
72
71
69
66
65
68
69
72
82
91
93
95
98
96
95
95
93
93
93
91
96
98
100
102
102
100
102
100
100
100
106
106
108
108
104
102
108
108
108
106
104
104
108
108
106
104
106
106
106
108
108
108
108
108
108
106
104
102
104
104
108
108
98
81
72
72
68
66
65
66
71
74
86
91
93
95
102
100
96
93
91
91
93
91
98
100
98
102
102
102
102
100
102
104
110
110
108
104
102
104
104
104
102
104
104
104
106
108
106
104
104
106
108
112
110
112
113
112
108
108
110
104
106
108
106
104
95
81
74
72
69
69
69
66
68
76
89
96
96
98
102
98
93
93
91
91
91
95
98
102
104
104
104
102
100
104
102
104
104
106
106
104
104
108
104
106
106
106
110
108
108
106
108
106
106
110
112
112
112
112
112
112
108
106
108
104
104
108
106
100
93
81
72
72
71
71
72
68
69
77
87
93
98
100
100
95
93
96
93
91
91
95
96
102
104
104
104
104
102
102
102
102
102
106
104
108
106
104
104
104
106
112
113
113
113
108
110
110
110
110
112
112
112
110
112
110
112
108
108
106
108
108
102
100
91
81
74
72
72
71
74
74
74
77
87
95
100
104
100
95
95
96
95
95
95
96
96
102
102
106
104
102
102
102
100
98
102
106
106
108
106
100
102
104
106
112
112
112
113
112
113
117
113
113
113
112
112
112
110
110
110
110
108
106
106
106
106
100
93
81
74
71
72
71
74
74
74
77
87
96
102
104
100
96
96
98
95
95
96
96
96
98
100
102
102
100
104
102
100
100
102
106
104
104
102
98
104
106
106
106
112
112
112
113
113
115
115
117
115
113
110
110
108
108
108
110
106
104
104
106
106
100
93
82
74
69
72
72
71
72
72
76
87
98
102
104
102
98
100
96
95
96
100
91
93
100
100
100
100
100
100
100
100
102
102
104
106
108
104
104
106
108
106
106
108
108
108
112
113
113
112
112
112
110
108
110
110
108
106
104
104
106
106
106
104
102
95
84
76
72
72
74
74
74
74
76
87
96
102
104
104
102
102
102
100
98
98
93
93
100
100
100
100
102
98
100
102
100
98
102
102
106
104
104
102
108
108
108
110
110
110
110
110
110
110
108
112
110
108
108
108
108
100
102
106
106
108
110
108
106
95
86
77
74
76
74
72
74
74
77
86
95
102
106
104
102
104
102
100
96
96
91
91
96
95
96
100
102
98
98
100
98
100
100
100
100
104
104
102
106
108
104
108
110
110
108
106
106
106
106
108
110
110
108
106
108
102
102
106
110
108
108
108
108
98
87
79
74
72
74
71
72
74
77
86
95
100
102
104
98
98
102
100
98
96
91
96
96
95
95
98
98
98
98
96
96
100
100
98
104
104
106
102
104
106
106
106
106
104
106
106
106
106
106
104
106
106
108
104
104
102
102
104
108
110
108
104
106
100
87
82
77
71
72
72
74
74
77
86
96
102
102
102
102
102
102
102
100
98
89
96
98
96
96
100
102
102
100
98
96
96
98
100
104
104
104
104
106
106
108
102
100
104
106
104
108
106
104
102
104
104
104
104
104
102
104
104
106
108
102
104
106
100
87
82
79
72
71
71
74
72
76
84
96
102
104
104
106
102
104
104
100
100
89
93
96
96
98
96
100
102
104
98
96
96
98
104
104
102
104
104
102
104
104
102
98
100
104
106
108
106
104
104
104
104
104
104
106
102
104
106
108
106
102
104
106
98
89
82
76
72
71
71
72
71
76
84
95
102
104
104
106
102
100
102
100
100
91
91
95
95
95
95
96
102
98
100
100
100
102
102
104
102
104
104
102
102
102
102
102
102
104
104
104
106
104
106
104
102
100
100
102
102
104
106
108
108
108
104
106
100
89
79
74
74
71
71
71
68
72
84
96
102
106
104
104
100
102
104
102
100
89
91
95
95
96
98
100
96
95
98
98
100
98
100
102
100
104
106
100
102
106
104
106
104
104
104
104
106
104
102
102
100
100
102
100
102
104
104
102
106
106
104
106
100
89
79
72
68
69
69
71
71
74
86
96
104
104
104
106
104
102
104
102
102
91
91
95
98
96
96
98
96
95
96
98
98
98
100
100
100
102
102
98
102
104
100
102
100
104
102
100
102
104
102
100
102
102
104
100
102
104
102
104
106
106
106
106
102
91
81
74
72
71
72
74
77
77
86
98
104
104
104
102
102
102
102
104
106
91
91
93
96
95
96
96
96
95
93
95
100
98
102
100
102
100
98
98
100
102
102
98
100
102
100
100
102
104
102
102
102
102
102
100
100
102
106
106
108
106
104
102
102
93
82
76
72
72
72
71
74
76
86
100
108
108
106
98
98
102
102
104
108
89
91
93
95
95
100
100
95
96
96
96
100
100
98
98
100
98
98
96
96
100
100
98
98
98
98
100
102
102
102
104
102
100
98
96
96
102
106
108
108
106
104
102
102
93
81
74
72
71
71
72
74
79
87
102
108
110
106
102
100
102
102
100
104
89
91
93
91
96
100
100
95
95
95
95
96
96
98
98
100
100
100
100
98
100
102
98
100
100
98
100
102
102
102
102
102
100
98
95
100
102
104
106
106
104
104
108
104
93
81
74
74
74
71
74
76
81
87
100
106
108
106
102
100
98
100
102
104
91
95
95
95
96
98
98
100
96
98
96
96
98
98
98
100
100
100
102
98
96
96
96
100
102
100
100
102
102
100
106
106
102
98
98
102
104
104
106
104
102
108
112
106
93
81
76
76
74
72
72
74
79
87
100
106
110
108
104
100
102
102
104
104
89
93
96
96
95
95
96
96
98
98
96
98
100
100
98
102
102
102
102
98
96
96
95
98
100
98
100
100
100
100
102
106
100
98
100
102
106
106
104
100
96
102
106
106
93
82
77
74
72
74
74
74
76
86
98
104
108
108
108
104
104
100
102
102
86
87
93
95
98
96
93
93
98
98
96
98
96
100
100
102
102
102
102
100
98
98
98
100
100
98
96
96
96
98
96
100
98
98
98
102
104
102
102
98
98
100
106
106
95
84
81
76
72
72
72
69
76
84
95
106
110
108
108
106
106
100
104
106
87
87
89
93
96
96
93
93
98
98
96
96
95
95
96
96
96
96
96
96
95
96
98
96
98
96
96
98
100
98
96
98
96
98
100
104
102
106
106
104
102
104
104
104
95
84
77
74
72
72
72
72
76
82
93
108
110
108
108
110
106
106
106
106
86
87
91
95
96
95
95
95
96
98
95
93
93
93
95
95
95
96
100
96
98
102
102
98
98
100
98
100
98
98
98
98
96
100
100
102
104
104
104
106
104
102
104
106
96
86
77
74
72
74
72
74
74
81
93
108
110
106
106
108
106
108
106
112
86
87
89
93
96
95
95
95
96
96
93
95
93
95
95
95
95
96
98
98
98
100
100
98
98
100
104
106
100
98
96
100
100
100
98
100
104
104
102
104
104
102
104
106
98
87
77
76
74
77
72
71
72
81
91
106
106
110
106
106
106
108
108
113
87
89
93
95
96
96
96
95
95
95
96
95
95
95
95
96
96
95
98
98
100
98
102
98
98
98
102
104
104
100
96
100
100
98
98
100
102
102
102
104
102
102
106
106
96
89
79
74
71
74
74
72
74
81
93
106
108
112
108
104
106
106
106
112
86
89
91
93
96
98
96
96
95
96
95
95
93
93
95
96
95
95
98
98
96
100
100
98
100
102
100
100
104
102
100
102
98
96
98
102
104
106
108
104
104
102
104
104
95
87
79
74
72
71
71
71
72
81
93
106
110
112
110
106
106
108
104
108
84
86
89
93
95
95
96
93
96
96
96
93
93
93
93
93
95
91
96
100
98
96
96
100
102
102
104
102
100
100
100
100
100
96
100
100
104
106
108
104
106
104
104
104
95
86
79
72
72
68
68
69
72
81
91
104
112
112
110
108
108
108
108
106
86
86
89
91
91
96
95
95
98
95
96
95
93
95
96
95
95
96
98
98
98
96
95
98
102
100
102
100
98
100
100
98
100
100
100
102
104
106
108
108
108
106
104
106
98
87
77
76
72
71
71
71
72
81
93
104
112
113
110
108
110
110
108
110
86
89
89
91
93
96
95
95
93
96
98
98
95
93
95
96
96
96
98
98
98
98
98
102
102
98
98
98
98
98
102
102
98
104
100
102
104
108
112
112
108
106
106
108
100
87
79
76
74
72
69
69
71
81
93
104
110
112
110
108
108
108
110
108
89
93
91
91
91
95
95
96
96
96
96
98
93
91
93
95
95
96
96
98
98
98
100
100
100
100
96
98
100
98
98
100
102
104
102
100
106
106
110
112
108
104
106
108
102
87
81
74
72
72
69
68
69
81
93
106
112
112
110
108
106
106
108
108
89
89
89
93
95
95
95
98
96
93
95
96
96
95
95
95
93
95
98
96
96
100
100
100
102
102
100
98
100
98
98
100
102
102
102
98
104
104
106
108
108
110
110
110
100
89
81
76
74
69
69
68
71
81
93
110
115
115
112
110
108
106
104
106
87
86
89
91
93
91
93
93
93
91
93
95
96
93
95
98
95
93
96
96
98
100
100
100
98
98
100
104
106
102
100
102
102
104
106
106
102
102
104
104
108
110
112
110
98
87
79
74
71
68
69
68
71
81
93
108
113
113
112
108
104
106
106
104
87
87
87
93
93
93
91
93
95
95
96
96
96
93
96
100
98
96
96
100
100
96
96
96
98
100
98
104
104
104
102
100
102
102
104
104
102
104
106
106
110
110
112
108
96
86
76
71
69
71
69
68
71
79
93
108
113
113
112
106
102
104
104
106
87
86
89
93
95
95
93
93
93
95
96
98
96
96
96
96
98
96
96
98
100
98
98
98
102
100
102
102
102
102
98
98
98
100
104
102
102
104
104
104
108
110
110
104
96
84
76
71
69
71
68
68
71
79
93
106
113
112
108
106
102
102
104
108
86
89
91
89
93
93
93
95
95
93
95
96
96
98
96
96
98
98
93
96
100
102
102
100
100
98
102
104
102
102
104
102
98
98
102
102
98
100
100
102
104
108
106
102
95
82
74
74
71
68
68
69
72
79
93
104
110
112
112
108
106
104
104
108
87
91
89
89
95
93
91
91
95
93
95
95
95
98
98
96
98
98
96
95
100
104
104
100
98
100
102
102
102
100
102
102
96
96
102
104
104
102
102
104
104
104
102
102
96
82
74
72
68
65
68
69
72
79
91
104
110
108
110
106
106
104
104
108
87
87
87
91
93
95
93
91
93
93
95
95
91
95
96
98
96
95
100
98
98
100
104
100
100
102
104
104
102
100
102
102
98
98
100
102
104
100
102
100
102
102
102
100
96
84
72
71
69
69
69
71
72
79
89
100
108
110
110
110
106
106
104
106
87
89
87
89
93
93
95
95
93
95
96
95
95
95
96
98
98
96
102
104
100
104
108
104
106
106
106
104
106
102
104
104
102
102
104
100
102
100
100
100
100
102
104
102
96
84
72
68
69
68
69
68
69
79
87
98
106
112
110
108
106
108
106
106
89
89
91
89
93
95
93
95
95
96
96
96
95
96
95
95
98
98
98
104
104
106
108
106
106
104
100
102
104
104
100
102
102
104
104
98
98
98
102
100
98
102
106
102
96
86
74
71
72
72
69
68
68
77
86
96
110
112
112
110
106
104
104
104
89
87
89
93
93
96
93
93
91
95
95
93
95
98
96
96
100
98
98
104
102
104
106
102
102
102
104
104
104
102
102
102
104
102
100
96
98
100
100
96
96
100
100
100
96
87
76
71
72
74
71
68
68
76
86
96
110
112
113
110
110
108
108
104
89
87
87
93
95
96
96
95
91
91
93
91
95
98
100
100
102
100
100
104
102
104
104
100
100
102
104
106
106
104
102
102
102
96
95
95
96
98
98
96
102
100
98
96
95
87
76
71
72
74
69
69
71
76
86
96
108
112
112
110
108
108
110
106
86
86
87
93
95
96
95
95
93
93
95
93
98
98
98
100
100
102
102
104
106
104
100
98
102
100
104
108
104
104
104
102
98
95
96
96
93
98
96
98
100
100
102
102
96
86
76
69
66
66
66
68
71
76
86
98
110
112
112
106
104
106
108
104
86
89
91
93
95
95
95
91
91
95
95
95
98
98
98
102
100
102
100
102
106
104
98
98
102
104
106
106
104
104
104
102
98
96
98
96
95
98
98
98
100
100
102
102
98
86
74
68
66
66
68
69
72
74
84
98
110
110
106
104
104
106
102
98
86
91
93
95
96
95
93
91
91
93
93
95
98
98
102
102
104
104
102
100
104
106
100
100
104
110
110
106
104
106
104
104
100
98
98
96
98
98
98
102
102
98
100
100
96
87
74
68
68
69
69
68
71
74
84
98
108
110
108
106
104
104
102
100
87
89
91
93
96
95
93
93
95
93
95
93
98
98
100
100
102
102
100
106
106
102
100
102
104
106
104
104
104
104
102
100
102
100
96
96
96
96
100
100
98
100
100
100
96
89
74
68
71
69
68
68
68
74
84
96
108
110
106
104
102
102
100
100
86
86
89
93
96
95
95
93
96
96
95
93
95
96
98
100
100
100
102
108
104
98
100
104
104
104
102
102
102
102
104
100
100
100
98
98
96
95
102
98
98
98
100
100
96
91
77
71
69
68
71
69
69
74
84
98
108
106
104
102
104
104
102
98
81
86
91
93
95
91
91
91
93
98
95
91
98
100
98
98
98
100
100
104
100
100
100
102
106
106
102
104
102
102
104
100
100
100
100
98
100
98
98
95
96
96
102
102
95
89
77
71
68
66
68
71
72
77
84
98
108
104
102
102
106
102
100
96
