P2
# 434 of 608 Angiograms
64 64
255
150
150
152
152
150
150
148
146
148
144
141
142
146
146
146
146
144
144
142
146
146
146
144
148
150
152
152
152
152
152
148
141
131
129
125
129
137
144
148
146
144
144
142
141
139
141
137
135
135
139
139
141
141
142
142
142
146
148
148
148
146
146
144
144
148
148
154
154
154
152
150
150
148
146
146
146
146
146
144
142
142
142
142
146
148
146
144
148
148
150
150
150
150
152
148
142
135
127
125
125
133
141
148
148
146
146
146
144
144
142
139
135
137
139
139
139
137
137
139
141
146
150
150
150
148
148
146
144
144
144
150
152
154
154
152
150
150
148
146
146
146
146
144
144
144
146
146
146
146
144
146
146
146
150
146
146
148
148
144
141
137
127
125
123
127
137
144
148
148
150
148
148
146
144
137
137
139
139
141
139
137
137
135
139
146
150
148
150
150
148
146
144
141
141
144
146
150
150
154
154
152
148
148
148
148
150
148
150
150
148
148
146
146
146
148
146
146
146
146
148
146
146
142
139
137
131
125
125
125
131
139
144
148
148
148
146
146
142
141
139
141
142
142
142
139
139
139
141
144
146
148
148
148
148
148
148
139
139
139
141
144
148
150
152
152
152
150
150
148
148
148
150
152
152
152
150
148
148
146
146
144
146
146
144
146
146
142
141
139
135
133
129
127
129
133
141
144
148
148
146
146
146
144
142
142
144
144
142
141
141
141
141
144
148
148
148
148
146
146
146
139
139
139
139
142
142
144
144
148
150
150
150
148
148
148
150
150
152
152
152
152
152
148
146
146
146
146
144
144
144
141
139
137
137
135
133
131
131
131
133
139
144
146
146
148
148
148
146
144
144
142
144
144
142
142
142
146
148
150
150
148
144
146
146
139
137
137
139
141
141
141
141
142
144
148
148
148
146
146
148
150
150
152
152
152
150
148
150
150
148
146
144
141
141
139
137
137
137
139
137
133
131
129
129
135
141
144
146
150
150
148
148
150
146
142
146
146
144
144
142
146
146
146
148
148
146
144
146
139
139
137
139
142
141
139
139
139
142
148
148
148
144
144
144
148
148
148
150
152
150
148
148
148
146
146
144
142
141
139
137
137
139
142
142
139
133
129
127
129
133
141
146
150
152
152
150
150
150
146
148
146
144
144
142
146
148
146
148
146
144
146
146
142
141
139
141
142
141
141
139
139
141
146
146
148
144
142
142
142
144
146
146
148
148
148
150
146
146
144
142
142
139
135
137
137
139
142
144
142
139
133
127
127
129
135
142
146
150
150
150
150
150
148
148
146
142
142
142
146
148
148
148
148
146
148
148
144
142
141
139
141
141
141
141
141
142
144
146
144
142
142
139
137
139
142
144
144
144
144
144
142
142
142
141
139
137
135
137
141
141
142
146
144
142
137
133
127
125
129
137
142
148
150
148
148
150
148
148
146
144
146
144
144
148
148
150
152
148
148
148
148
144
142
141
141
141
141
142
141
142
142
144
142
142
141
135
133
137
139
141
141
141
139
139
139
141
139
137
135
135
133
137
141
141
142
146
146
146
141
137
129
123
125
131
137
144
150
148
148
152
148
148
144
144
144
146
146
148
148
150
152
150
148
148
146
144
144
144
142
141
141
142
141
141
142
144
144
142
139
133
133
135
137
141
139
139
137
137
139
139
137
137
137
135
133
137
141
144
144
146
148
146
142
137
131
125
121
123
131
139
144
146
146
148
146
144
144
144
146
146
144
146
148
148
150
148
150
150
142
144
144
144
144
142
141
141
142
142
142
142
141
141
139
133
129
131
135
137
141
137
135
137
139
139
137
137
135
137
135
135
139
142
144
146
146
144
141
139
135
127
121
121
123
129
135
139
142
144
142
141
142
144
144
144
142
144
148
148
150
148
150
150
139
141
142
141
142
142
142
141
141
142
142
141
139
141
137
131
131
129
131
135
137
135
133
133
135
135
137
137
135
137
137
135
137
141
144
146
146
142
141
141
137
133
127
125
123
123
127
133
139
141
142
139
141
142
141
141
142
142
146
146
148
148
148
150
139
141
142
142
142
142
142
141
142
144
141
141
141
139
137
133
131
129
129
131
133
131
131
131
129
131
133
137
137
137
139
137
139
141
146
148
146
142
142
142
139
135
133
129
125
119
123
129
135
139
139
137
137
137
137
139
141
141
144
148
148
150
150
148
141
142
142
142
142
142
142
141
142
142
144
142
141
139
137
131
131
129
129
129
133
129
131
129
129
129
135
137
139
139
141
142
142
142
146
146
144
142
142
142
142
141
139
135
129
125
123
127
131
137
137
137
135
133
135
137
139
139
141
144
146
150
150
148
141
144
144
142
144
144
144
142
146
141
141
139
139
139
137
131
127
129
131
131
131
129
131
133
131
133
137
139
141
144
148
148
148
150
150
148
146
144
144
146
144
144
142
142
135
129
127
125
129
135
137
135
133
133
135
135
135
135
141
142
144
144
146
144
142
144
142
142
144
144
146
146
146
141
137
137
135
135
135
131
129
131
131
133
133
131
133
135
133
137
139
141
146
148
150
150
150
150
150
150
148
148
148
146
146
144
146
146
142
137
131
129
131
133
135
137
137
135
135
135
135
135
139
141
141
141
142
142
146
146
146
144
144
144
144
146
144
141
139
141
137
133
133
133
131
133
133
133
137
135
137
135
135
139
141
144
148
150
152
152
152
150
150
152
150
146
148
148
148
146
148
148
148
144
137
131
129
129
135
139
137
135
135
137
137
135
137
139
139
141
141
144
148
150
148
148
146
144
142
146
144
142
139
139
137
133
133
133
129
129
131
133
137
137
137
137
139
141
144
148
148
150
152
152
152
150
150
152
148
146
146
146
148
146
146
148
148
148
142
135
131
131
133
135
137
139
137
135
137
137
139
139
141
141
141
144
150
150
150
148
146
146
142
142
146
144
141
141
137
135
135
133
129
131
131
133
137
139
141
141
142
146
148
148
150
150
150
150
148
148
146
148
150
144
146
146
148
148
148
148
150
150
148
141
133
131
129
131
133
137
137
139
139
139
137
139
141
141
139
137
148
148
146
148
148
144
144
144
146
144
144
141
137
135
135
135
133
131
131
135
137
141
142
142
146
150
152
148
150
150
150
150
148
148
146
146
146
146
146
146
146
146
150
148
150
150
148
144
135
129
127
129
131
137
141
141
141
139
137
137
139
141
141
137
148
148
148
150
150
150
150
146
146
148
144
142
139
137
135
135
137
135
133
135
141
142
144
144
148
150
152
152
152
150
150
148
148
148
148
144
144
144
146
146
144
144
146
146
146
148
148
142
137
131
125
127
129
135
141
141
141
141
139
137
139
141
141
139
148
150
150
150
150
152
154
152
150
150
148
144
142
141
141
139
139
139
137
139
141
142
144
148
148
150
150
152
152
152
150
148
148
148
148
144
144
144
144
142
141
141
142
142
142
144
144
141
139
135
127
125
127
133
139
142
144
144
142
142
142
142
142
142
148
150
150
154
154
156
156
158
156
152
148
146
144
142
142
141
141
142
142
139
141
146
148
148
148
150
150
150
150
150
148
146
146
146
148
146
144
142
142
141
139
141
141
142
144
142
141
139
141
139
133
129
127
131
137
142
146
148
148
148
146
146
146
144
146
148
150
154
156
156
158
158
156
154
150
148
146
142
142
141
144
146
144
141
142
148
148
148
150
148
148
148
148
148
148
148
146
148
148
146
142
142
142
141
139
137
137
139
141
141
139
139
142
142
139
131
129
129
133
141
144
146
150
150
150
148
146
146
146
150
152
152
156
158
158
156
156
154
150
148
148
144
146
144
146
146
142
142
146
150
150
152
152
148
150
148
148
150
150
150
150
148
150
148
144
142
142
139
137
137
135
137
141
141
139
141
142
142
142
137
131
127
129
137
142
146
148
148
148
148
148
144
146
148
148
152
156
156
158
154
156
154
150
146
148
146
148
148
148
146
144
144
148
150
152
152
150
152
150
148
148
150
148
152
150
148
150
148
144
144
142
139
139
141
141
139
141
141
142
142
144
144
142
141
135
129
127
131
139
142
146
150
150
150
148
146
146
146
148
152
154
156
154
152
152
152
150
148
148
148
150
148
148
148
148
146
150
152
152
150
152
152
150
148
148
146
148
150
150
148
148
144
142
142
142
142
142
142
141
142
142
142
144
146
146
146
146
142
139
131
125
127
133
141
146
150
150
150
150
146
144
144
144
150
152
154
152
152
150
148
150
150
150
150
148
144
144
146
148
148
148
150
152
150
150
152
150
150
148
146
148
148
146
146
142
141
139
137
139
142
144
146
142
144
146
146
146
148
148
148
146
144
141
133
125
125
129
139
144
148
150
150
150
148
144
142
142
146
150
152
154
152
148
144
144
144
144
146
146
146
146
146
146
146
148
150
150
150
150
154
150
148
146
146
146
144
144
144
139
137
139
137
139
142
146
148
146
148
148
148
146
148
150
152
148
144
142
135
129
123
127
137
144
146
146
148
148
146
144
141
142
144
148
148
148
148
144
144
144
142
141
142
146
146
146
146
142
146
148
152
150
148
152
154
150
148
148
148
144
144
142
142
137
135
137
137
139
144
148
146
146
146
148
148
148
150
150
152
150
150
146
139
131
127
129
137
144
146
146
146
148
148
142
141
141
144
144
146
146
148
144
144
144
142
142
144
146
146
144
144
142
144
146
148
148
146
150
152
150
148
148
148
146
146
146
144
141
137
133
133
139
142
144
144
146
148
148
150
152
150
152
152
150
148
148
142
135
129
129
135
144
148
148
148
150
150
142
144
142
142
141
142
142
142
142
144
144
144
144
144
144
144
142
142
142
142
146
146
146
146
148
150
148
148
150
150
150
150
150
150
146
141
135
135
135
139
141
141
144
146
148
148
148
150
154
152
150
146
146
144
139
133
131
133
142
148
148
148
150
152
148
148
146
144
141
139
141
141
141
141
142
146
144
144
142
144
141
142
141
142
142
142
142
146
146
148
146
148
150
150
154
154
152
152
148
144
139
141
141
141
141
141
142
144
146
148
148
150
152
150
150
150
148
146
141
135
131
133
142
146
146
146
148
148
148
148
148
146
142
142
142
142
144
142
142
142
142
142
142
142
139
141
141
141
141
139
141
144
144
144
148
148
152
152
158
158
154
152
150
148
144
142
144
146
146
148
146
144
144
148
150
152
150
150
150
152
150
150
144
137
133
133
141
146
146
146
150
148
146
146
146
146
142
142
142
142
144
141
141
142
141
139
139
141
141
141
137
139
139
139
139
142
142
142
146
148
152
154
156
158
154
152
152
150
146
144
144
148
150
152
150
146
146
150
150
152
152
152
154
154
152
152
148
139
133
131
137
142
146
146
146
144
148
148
146
146
146
144
142
142
141
141
141
141
141
141
139
137
139
137
137
139
139
137
139
141
144
144
146
146
150
154
156
156
154
152
150
150
148
146
146
148
150
152
154
148
148
150
148
150
152
154
158
156
154
152
150
142
135
129
135
141
144
144
144
142
148
148
146
146
146
144
142
142
142
142
144
142
142
141
139
137
137
137
137
137
139
137
139
141
141
144
146
146
148
152
156
156
154
150
150
152
148
148
150
150
152
152
152
150
152
154
154
152
154
156
158
156
156
154
152
144
137
127
131
139
144
144
146
144
148
148
146
146
146
142
142
144
144
144
144
142
142
142
141
137
137
137
139
139
139
139
139
141
142
144
144
146
148
150
154
154
152
150
148
148
146
148
148
152
154
152
154
150
150
154
154
152
152
156
156
156
158
156
154
146
137
127
131
137
142
148
146
144
148
150
150
148
146
144
146
146
144
146
144
142
142
142
142
141
139
139
141
139
141
141
139
139
142
144
148
148
150
152
154
150
148
146
144
144
146
148
150
152
152
152
154
150
150
154
152
152
154
154
156
156
158
158
156
148
139
131
131
135
142
148
148
146
148
150
150
150
150
148
148
148
146
144
146
144
142
142
144
142
142
142
142
142
142
142
141
142
144
144
148
148
150
152
152
150
150
146
144
146
146
146
146
148
148
150
150
148
148
152
150
152
154
158
154
154
158
156
156
152
142
135
133
137
142
146
146
146
144
146
148
150
148
148
148
146
144
144
146
146
142
142
144
144
144
144
146
144
144
146
146
144
144
144
148
148
146
148
150
150
148
148
148
148
146
146
146
148
148
148
148
148
146
150
150
150
152
154
154
152
156
158
156
154
146
137
135
137
144
150
150
148
144
144
150
152
148
146
146
144
142
142
144
142
144
146
146
146
146
144
146
148
150
148
146
144
144
144
148
150
148
148
150
150
150
150
152
152
150
148
148
148
148
148
146
146
148
150
152
150
150
152
152
152
154
158
156
154
146
141
133
135
144
152
154
150
148
146
150
152
150
148
146
146
144
142
142
142
141
144
146
146
146
148
150
150
152
152
148
148
146
146
148
150
152
150
152
152
154
154
154
154
152
152
150
150
148
146
148
148
150
152
154
154
150
150
152
154
154
156
154
152
148
141
135
135
142
150
154
152
148
148
152
152
152
148
148
148
144
142
141
141
142
141
144
146
146
150
150
150
152
152
150
150
150
148
148
152
150
150
150
154
154
154
154
156
156
152
152
150
148
148
150
152
152
154
154
154
152
150
152
152
154
154
154
152
148
144
141
137
142
148
152
152
148
148
148
148
148
148
148
146
144
141
141
141
141
139
141
144
146
148
150
148
150
150
148
150
152
150
148
150
150
152
152
154
154
154
156
158
156
154
154
154
152
154
156
156
156
156
156
156
156
156
152
150
154
154
154
152
150
148
146
144
144
144
148
154
144
146
148
148
150
150
148
144
142
141
142
141
141
141
142
144
144
146
148
148
148
150
150
152
152
152
150
152
150
152
152
154
152
152
158
158
156
156
156
156
156
158
158
158
158
156
159
159
159
159
158
156
156
154
156
154
154
152
150
148
146
144
144
146
142
144
146
148
150
150
146
144
141
142
142
141
139
139
141
144
144
146
146
148
146
148
150
148
150
150
150
152
154
152
152
154
154
156
156
156
158
156
154
154
156
156
158
158
159
159
159
161
161
161
159
158
158
156
159
159
158
154
154
152
152
146
144
144
135
141
144
144
146
144
142
144
141
141
142
144
144
144
142
142
144
146
148
148
148
148
148
148
148
150
150
154
154
154
152
154
156
156
156
158
158
156
156
156
154
154
158
159
159
159
159
159
161
159
158
156
159
159
159
159
159
158
154
154
154
150
148
146
131
135
141
142
144
144
142
141
139
141
142
144
146
144
144
146
144
146
148
148
146
148
146
146
150
150
150
154
156
156
156
154
152
156
158
158
158
156
156
156
156
154
156
158
159
159
159
159
159
159
158
158
159
163
161
159
159
159
156
154
154
154
150
150
121
127
133
141
141
142
141
137
139
141
141
144
144
146
144
142
146
148
148
146
148
148
144
146
148
150
150
150
154
156
156
154
152
156
158
158
158
154
154
154
156
154
156
156
156
158
158
158
159
159
158
158
159
159
159
159
161
161
159
154
154
154
152
152
119
121
125
131
135
137
137
137
137
141
141
142
142
142
144
144
146
148
148
148
150
148
148
148
150
150
150
152
154
154
156
156
154
154
154
156
154
154
154
154
156
156
158
156
154
154
154
156
158
158
156
156
161
159
159
158
159
161
161
158
154
152
152
154
119
119
119
123
129
131
133
135
135
137
137
141
141
141
144
144
144
146
148
148
150
148
148
150
148
148
148
152
152
156
156
156
156
154
152
150
150
152
152
152
154
156
158
154
154
154
154
154
156
156
158
159
163
161
159
159
158
158
158
158
158
156
156
156
119
117
115
117
123
127
129
133
133
135
137
141
141
139
141
141
141
142
144
146
148
146
146
148
146
148
148
152
152
152
154
154
156
156
154
152
152
152
152
154
154
156
156
156
154
152
152
154
154
154
158
161
163
163
159
158
156
156
158
158
158
158
158
159
117
112
112
112
115
123
129
131
131
133
137
139
139
137
139
139
141
141
142
144
148
148
150
148
148
148
148
150
152
152
154
156
158
158
154
154
156
154
156
158
158
158
156
156
156
154
152
152
152
152
156
161
163
163
161
158
158
158
158
159
158
158
159
159
115
110
108
110
112
119
125
131
131
133
137
135
137
139
141
141
139
139
142
146
148
148
150
148
148
148
148
150
150
150
152
154
156
156
154
154
156
158
158
158
158
158
154
154
158
156
154
152
150
150
154
159
161
163
165
161
159
158
158
159
159
159
158
156
113
112
108
108
112
117
123
125
129
133
135
135
135
137
137
137
137
139
142
144
146
146
148
150
148
148
148
150
150
150
150
150
150
152
152
152
154
154
156
156
154
156
158
159
161
159
158
156
154
154
156
158
159
161
163
161
159
158
161
159
159
159
158
158
117
113
108
104
110
115
119
123
125
127
131
133
133
135
135
135
135
141
141
144
146
148
148
148
148
150
150
150
148
148
146
148
146
148
148
150
150
154
152
152
152
154
156
159
159
159
159
158
156
154
158
158
159
159
163
159
159
158
159
159
158
158
158
158
117
112
108
106
110
113
117
121
123
125
127
129
133
135
133
135
135
139
141
142
146
146
148
148
150
148
150
148
146
146
146
148
146
144
146
146
148
150
150
148
148
150
152
156
158
159
158
156
152
154
156
156
158
159
161
159
158
158
156
156
158
158
158
161
115
112
112
112
112
113
117
119
121
123
125
125
131
135
135
135
135
137
141
142
144
144
146
146
146
148
148
148
146
146
146
146
144
142
141
141
142
142
144
144
146
148
150
152
154
156
156
154
154
154
154
154
158
158
156
156
154
154
154
156
156
158
161
161
113
110
113
115
113
115
119
121
123
125
125
121
125
131
133
135
137
137
139
142
144
144
142
142
144
146
146
146
148
146
144
144
144
139
135
135
139
142
144
144
144
146
152
152
152
152
156
152
150
152
152
152
156
156
154
152
152
152
154
156
158
159
161
159
112
110
113
113
115
115
119
121
125
125
127
123
125
125
127
131
133
135
137
141
142
142
142
142
146
144
144
146
148
144
146
144
141
137
135
135
137
141
144
142
146
148
150
152
152
150
154
152
150
152
150
150
152
154
152
154
150
148
152
154
156
158
159
158
113
115
113
113
115
117
119
121
123
129
129
127
125
123
125
129
131
133
137
141
141
142
142
142
144
144
144
144
144
144
144
144
141
137
137
137
137
139
142
142
144
148
152
152
152
148
150
150
150
150
148
148
152
152
152
152
150
148
150
150
150
152
154
156
