P2
# 442 of 608 Angiograms
64 64
255
87
89
87
89
91
95
95
91
89
91
95
96
93
91
91
91
93
93
93
91
95
91
91
93
93
93
91
91
91
91
93
91
91
91
93
91
89
91
89
87
87
87
87
87
84
82
84
89
86
86
87
91
89
87
86
87
89
89
91
89
87
87
87
86
87
89
86
86
87
89
89
89
87
87
93
95
91
89
91
93
91
93
93
89
91
91
93
95
96
95
89
91
95
96
96
95
91
89
89
87
89
91
89
89
89
87
89
86
87
84
84
87
86
87
89
91
89
87
87
87
86
86
89
91
89
89
89
89
87
87
86
84
86
87
89
87
87
89
91
93
89
87
91
91
89
93
89
91
95
91
93
96
100
100
96
93
96
95
96
95
91
89
93
91
89
93
91
91
93
91
87
86
89
86
86
87
86
87
89
91
89
87
87
89
91
87
91
89
89
91
91
89
89
89
86
84
86
89
89
87
87
87
89
89
89
89
93
93
93
93
93
95
95
91
95
96
96
98
98
93
93
93
93
89
89
93
91
93
93
93
93
95
95
93
89
86
87
86
89
91
87
86
91
93
93
89
93
89
95
93
91
89
89
91
91
89
91
91
89
89
89
89
86
89
87
89
91
87
87
91
95
95
95
91
93
95
91
89
95
96
96
96
95
91
93
91
89
86
87
93
93
91
95
93
93
93
93
95
93
89
87
87
91
89
91
87
87
89
89
93
95
89
93
93
89
93
93
91
89
87
93
93
89
91
89
89
91
91
87
87
89
87
89
91
93
95
93
93
93
95
93
91
95
96
98
96
95
93
95
91
89
89
93
96
95
95
96
96
93
91
91
93
91
89
89
91
93
91
91
91
89
87
87
89
91
89
89
91
87
93
95
91
89
91
96
95
91
93
89
87
91
87
89
86
86
89
91
93
93
93
91
91
93
93
93
95
95
93
93
98
93
93
95
95
93
89
91
95
95
95
96
96
95
91
91
93
89
89
93
93
95
93
91
91
91
86
87
89
91
89
89
91
91
95
93
91
91
91
93
96
95
91
89
89
87
86
87
89
84
86
89
91
93
95
91
93
93
95
96
96
93
89
89
95
93
93
91
93
91
89
93
93
95
98
100
93
91
93
93
91
93
95
96
93
91
93
93
93
91
89
87
89
89
91
93
95
91
91
91
91
89
91
93
95
95
93
95
93
89
86
87
89
86
84
89
91
89
89
91
91
93
93
93
95
95
93
95
91
93
93
91
89
91
95
93
95
95
95
100
96
93
93
93
91
91
95
96
95
91
93
91
95
96
93
89
89
93
95
91
91
89
91
93
91
91
93
91
91
93
95
95
93
91
89
89
89
86
87
87
89
87
89
89
91
93
89
89
91
91
91
91
89
89
91
93
93
91
93
93
93
93
95
96
96
96
93
93
91
89
91
95
93
93
93
89
95
98
96
93
93
91
91
91
93
91
89
91
93
91
93
95
93
93
93
91
93
91
91
93
89
84
87
89
89
89
89
87
91
95
91
93
89
91
91
91
89
91
93
95
93
93
91
93
96
95
96
96
95
95
96
95
95
93
91
93
91
96
93
93
93
95
95
95
96
95
93
89
89
93
91
89
91
91
91
95
93
93
91
95
95
89
91
89
86
86
89
89
89
95
93
93
91
93
95
96
91
91
95
96
95
95
91
95
95
95
96
96
96
96
98
98
98
95
95
93
91
89
91
93
91
95
91
93
91
91
91
91
93
93
93
91
89
91
93
87
84
89
89
91
91
91
91
93
93
89
91
91
87
89
89
89
89
93
95
91
91
93
95
93
93
93
96
95
93
93
91
93
95
96
96
95
95
96
96
96
95
91
93
93
89
87
93
93
91
91
89
91
91
91
91
91
93
93
93
91
89
87
91
89
89
89
89
91
95
93
93
93
93
91
89
89
91
91
87
89
87
87
89
87
91
89
87
91
93
95
96
93
91
93
95
93
95
96
96
96
95
95
93
95
96
95
93
93
91
89
93
93
91
91
93
91
91
93
93
93
93
91
91
93
91
87
86
87
89
93
91
91
91
93
93
91
93
91
89
89
89
89
89
91
82
84
86
89
91
93
91
91
91
95
96
96
95
93
93
91
95
96
95
95
95
95
93
95
95
93
98
95
93
93
93
96
95
91
96
91
87
91
93
91
87
89
89
91
91
91
91
91
93
95
95
93
89
91
95
95
91
91
95
95
91
91
89
87
86
84
86
91
91
91
96
95
95
95
96
98
98
95
91
89
93
95
95
98
96
95
95
96
96
96
96
95
91
93
93
93
95
93
95
91
87
91
91
89
89
89
89
91
91
95
87
89
91
93
93
96
91
89
91
93
95
93
95
93
89
93
89
87
87
87
89
91
89
93
95
95
96
95
95
98
96
96
93
91
93
91
91
96
96
93
93
95
95
96
96
96
89
89
89
89
95
95
95
93
91
89
91
89
91
89
87
91
89
93
95
89
87
89
91
93
93
91
91
91
89
89
89
89
91
95
91
89
84
89
89
87
87
89
91
95
95
93
93
98
95
95
91
91
91
95
95
95
93
91
95
95
93
98
98
96
93
89
89
91
93
91
89
91
91
93
91
86
87
89
87
87
89
89
95
91
87
87
91
93
93
89
89
89
91
91
91
89
93
95
91
91
86
86
87
86
87
86
89
87
91
91
95
98
95
91
91
91
93
93
93
95
95
93
93
95
95
98
96
96
95
91
91
91
91
91
87
89
91
91
89
86
89
93
91
89
89
91
89
89
89
87
87
89
91
87
87
93
95
93
89
91
93
93
93
91
87
87
89
89
87
89
89
87
93
91
93
93
91
93
95
91
93
93
95
93
93
95
95
98
96
95
96
95
93
95
93
91
91
93
89
91
91
91
89
87
91
91
91
93
93
93
89
87
89
89
87
93
91
87
91
95
96
93
89
91
91
91
95
91
89
87
89
89
87
87
87
89
91
93
91
95
95
95
95
93
91
93
93
89
91
93
98
98
98
96
95
96
95
91
95
93
91
91
91
91
93
87
87
89
91
95
95
93
95
91
86
87
86
86
87
93
91
91
91
91
95
93
93
93
91
93
89
89
89
89
87
86
86
87
86
87
89
91
91
93
95
95
93
93
91
91
93
95
93
95
96
95
93
93
91
95
95
96
98
95
93
89
91
91
91
89
86
87
91
95
93
91
87
89
86
86
86
87
87
95
91
89
89
93
89
89
93
93
93
95
91
91
93
91
87
87
86
86
87
89
91
93
93
95
93
91
89
89
87
91
91
91
91
98
98
96
96
91
89
93
93
96
96
95
93
93
93
91
89
89
93
93
93
93
91
91
89
89
87
87
84
87
87
95
93
93
89
91
91
89
93
91
91
93
95
93
89
89
87
86
87
87
89
89
91
89
91
95
95
93
91
87
86
91
91
89
91
96
98
98
96
93
95
93
95
95
91
93
95
95
86
89
91
89
91
95
93
93
91
93
93
87
89
89
87
89
87
95
93
91
91
91
95
93
93
89
91
89
87
91
91
89
87
91
91
87
87
86
87
91
95
96
95
93
91
87
87
89
91
87
89
89
95
96
93
95
91
91
93
93
91
91
95
95
89
93
95
93
89
93
93
91
91
89
89
86
87
91
89
89
86
93
93
91
91
93
95
96
93
91
91
91
91
91
91
91
89
95
91
91
87
86
87
91
93
95
95
93
93
89
91
89
87
86
89
91
93
93
93
95
93
91
89
91
89
89
89
93
91
93
95
95
93
93
91
93
89
87
84
84
87
87
86
86
86
93
93
91
89
95
95
96
93
89
89
89
87
89
91
91
91
93
91
87
87
87
89
89
93
95
95
95
95
93
93
89
86
86
91
91
89
87
91
93
91
89
87
89
87
93
93
93
93
95
91
91
93
93
93
91
89
87
84
84
86
86
82
82
86
91
93
91
91
93
95
96
93
95
95
89
86
87
91
91
91
91
89
87
89
87
87
86
93
96
93
93
91
89
89
89
86
87
91
91
91
91
96
93
95
95
91
89
89
89
93
91
93
91
91
89
93
93
89
86
86
86
86
86
86
86
86
89
87
91
91
91
91
91
95
96
95
95
93
91
87
89
89
91
93
89
87
89
89
87
86
86
91
95
91
87
87
91
91
91
89
89
87
87
89
87
93
95
95
96
95
93
89
87
89
89
87
89
89
91
89
87
84
82
81
82
86
87
87
84
87
87
87
89
89
89
89
91
93
96
96
93
91
93
95
91
87
87
87
87
87
89
91
89
86
86
91
96
93
87
87
89
89
95
93
87
84
86
89
89
93
93
91
93
93
93
95
93
93
87
86
87
89
89
86
84
81
77
77
79
82
86
86
86
87
86
86
89
87
91
91
91
93
95
96
95
93
89
91
93
87
89
89
91
91
87
89
89
87
86
89
93
95
91
87
89
87
89
91
91
87
87
91
95
96
89
91
96
96
95
95
95
93
87
89
87
87
84
82
79
79
77
79
82
87
87
86
87
84
84
84
95
93
95
95
93
93
96
95
95
91
91
93
87
87
91
93
93
87
87
87
89
87
87
89
89
93
91
86
89
91
89
89
89
91
91
91
98
96
89
89
95
96
95
95
91
87
86
89
89
86
84
79
77
79
79
82
84
84
86
86
86
86
84
86
91
89
91
93
91
95
95
93
93
93
91
93
91
89
89
89
91
91
89
87
93
91
89
91
93
95
91
87
86
89
89
87
87
91
93
89
91
95
93
89
93
93
95
95
89
86
86
89
89
86
82
79
77
81
81
79
84
84
84
87
89
87
86
87
91
93
93
95
96
95
91
91
93
96
93
93
93
91
91
89
91
91
89
89
93
91
89
89
89
91
91
87
87
86
89
87
87
89
89
91
93
95
96
91
91
93
93
93
89
89
87
86
86
86
82
81
81
79
81
79
82
82
81
82
84
86
89
89
89
91
95
95
96
95
91
91
93
93
95
89
91
93
95
91
91
89
84
87
87
89
87
89
87
89
89
86
89
89
87
87
86
86
87
89
91
95
93
89
87
87
89
89
87
87
84
84
86
84
81
81
81
79
79
81
81
81
77
81
84
84
86
89
91
93
95
95
95
93
93
91
93
93
93
87
89
93
93
93
93
91
87
89
87
89
89
89
89
89
89
86
91
89
87
87
84
84
89
89
91
91
91
91
89
91
91
89
87
87
82
82
84
84
82
79
79
79
79
79
81
77
77
81
84
86
84
87
96
93
95
93
93
93
93
93
95
96
95
87
91
91
89
87
93
96
91
89
91
93
93
89
89
91
91
87
89
89
86
86
82
81
86
93
93
93
91
93
93
93
93
91
87
89
82
82
82
82
82
81
81
81
79
79
79
79
79
82
86
84
86
89
95
95
93
91
93
93
89
91
91
93
96
91
93
89
87
87
89
93
93
87
89
89
91
91
93
93
91
89
91
91
86
84
86
82
84
87
89
91
91
93
93
91
93
89
86
87
84
84
84
82
79
81
81
79
81
82
79
77
79
86
84
84
86
87
93
93
91
91
95
95
91
91
89
93
95
95
93
91
93
91
86
91
91
87
86
89
93
93
93
91
87
87
89
89
87
87
87
84
86
87
89
89
91
93
91
93
89
89
89
89
86
84
82
81
81
81
81
79
82
82
82
82
82
84
87
89
87
86
91
91
93
95
96
98
95
93
95
96
98
96
93
91
95
95
91
95
93
89
89
93
95
95
93
91
89
87
89
87
87
89
89
86
87
91
89
91
89
93
95
91
89
87
87
87
82
84
84
81
82
81
81
81
81
82
82
84
84
84
91
95
93
91
91
95
95
95
95
95
93
93
95
95
95
95
95
98
95
93
95
93
93
91
89
91
95
96
96
95
91
87
87
87
86
84
84
86
87
89
91
96
95
93
91
91
91
91
91
87
86
87
87
84
82
84
84
81
81
84
82
82
84
87
91
96
95
95
93
93
93
93
95
96
96
95
93
91
89
93
95
96
93
89
91
91
95
93
93
95
98
100
100
95
89
87
87
87
87
86
87
89
87
87
93
95
93
89
87
91
91
87
87
86
86
86
84
84
81
82
81
81
82
84
82
87
87
87
89
93
95
95
89
89
93
93
95
95
93
95
95
91
91
95
93
91
96
95
93
91
93
95
95
96
96
98
100
93
91
89
89
87
91
91
91
89
87
87
93
93
87
87
87
89
87
89
89
89
87
87
84
81
82
82
81
81
82
84
84
87
91
87
93
95
93
93
89
89
93
95
95
93
91
93
93
93
96
96
93
93
96
98
93
93
91
95
96
93
91
96
96
93
93
89
91
91
91
93
89
86
82
86
91
89
86
86
89
87
89
91
93
91
89
86
84
84
82
82
84
84
86
84
87
89
89
89
93
95
91
93
93
91
95
93
93
93
93
96
95
95
96
95
93
96
96
95
93
91
93
95
95
96
96
96
95
95
93
91
87
87
89
89
89
87
84
86
89
87
87
91
91
91
93
91
91
91
93
89
86
84
84
86
86
84
84
84
87
91
86
89
93
93
91
91
91
91
93
93
96
95
96
96
96
93
95
95
96
96
96
93
89
93
93
91
96
98
96
96
96
98
98
95
89
89
89
89
89
89
86
86
87
87
89
91
91
93
96
91
89
89
91
89
82
84
82
86
87
84
84
84
84
86
84
89
91
93
91
91
95
91
93
93
93
93
95
96
96
93
93
91
91
96
95
95
93
95
91
91
93
95
95
96
95
96
96
95
89
89
91
89
89
89
86
84
87
87
87
89
87
91
93
91
93
91
91
91
84
86
82
87
89
84
82
84
84
84
84
86
87
91
91
93
95
89
95
96
95
93
95
98
96
95
93
91
95
96
95
93
95
93
91
93
93
93
95
96
93
93
93
93
91
93
89
89
91
91
91
86
86
89
91
86
87
91
93
93
93
89
89
91
87
89
86
87
87
84
84
82
81
82
84
86
87
87
87
89
93
93
95
96
96
93
95
98
98
95
96
93
89
95
91
93
96
96
95
93
93
95
95
93
93
95
95
95
95
95
93
93
96
96
95
91
89
89
89
89
89
93
93
93
89
87
91
91
89
87
86
84
84
86
84
84
86
81
82
84
87
87
91
87
95
91
95
96
96
93
91
93
95
96
93
93
89
91
96
96
98
98
96
93
93
91
95
93
93
93
96
95
96
96
96
95
96
95
93
91
93
89
93
95
89
91
91
93
89
87
91
89
87
87
86
81
86
86
86
86
82
79
81
84
86
86
87
89
95
93
91
93
96
93
91
93
93
96
93
93
93
95
96
95
95
96
95
95
95
93
98
96
93
95
95
93
96
96
95
95
96
96
91
89
89
87
89
95
89
89
89
91
91
93
93
93
91
89
86
86
87
84
86
86
84
81
81
81
82
84
87
86
93
89
91
93
89
89
89
87
87
93
93
93
96
98
95
95
95
93
95
93
93
95
96
93
93
93
93
93
98
96
93
95
96
95
89
91
93
87
87
91
87
89
89
93
91
93
91
91
93
89
87
89
86
86
84
84
84
86
82
81
81
81
84
87
91
91
93
89
87
89
89
87
89
91
95
95
98
95
95
93
93
91
91
91
89
91
91
89
91
93
95
96
96
95
91
93
93
93
87
91
95
91
89
91
89
91
91
95
91
91
91
89
87
89
89
89
86
86
84
81
82
84
81
81
81
81
82
82
91
89
93
93
93
89
87
91
91
89
91
91
93
95
93
91
89
89
89
89
89
93
91
91
89
89
95
95
95
95
93
91
93
91
89
89
89
89
89
89
89
89
89
91
91
93
89
87
86
87
91
91
87
87
86
82
84
79
79
79
81
81
81
79
91
91
93
93
93
86
86
87
91
91
91
89
89
91
93
91
87
87
91
91
93
93
91
89
89
91
93
95
93
91
91
91
89
86
86
87
87
86
87
89
91
91
89
87
87
86
86
87
89
91
91
89
86
86
86
82
82
79
79
79
79
82
82
79
93
87
87
89
89
84
84
84
89
89
87
87
87
87
87
89
87
89
87
89
91
89
87
89
89
89
89
93
91
91
89
91
87
86
84
89
89
89
86
86
89
89
87
89
87
84
86
87
89
91
89
87
84
84
86
82
81
79
76
74
77
81
82
79
89
87
87
87
86
84
84
87
89
89
86
87
87
86
86
87
86
87
86
86
86
87
87
89
89
89
89
91
91
91
93
91
89
87
87
89
89
89
84
87
87
87
86
87
89
87
89
89
86
87
86
87
87
87
87
84
81
82
79
76
77
79
79
81
84
84
87
87
87
86
86
87
89
87
86
87
87
86
89
87
87
87
89
89
86
86
86
86
89
89
87
89
93
95
91
89
86
87
86
86
84
86
82
84
86
84
86
86
86
86
89
91
91
89
87
89
91
86
86
84
86
87
84
79
79
79
79
81
82
84
84
82
87
86
84
86
86
84
86
87
87
84
89
87
87
84
87
86
86
86
84
86
87
87
87
91
93
95
93
89
87
87
87
91
89
86
84
86
87
87
84
84
86
89
89
89
89
89
87
89
91
89
86
86
91
89
86
82
79
77
77
77
82
82
79
77
79
82
81
82
82
82
81
84
86
87
89
86
84
84
81
81
86
87
84
84
86
86
89
89
93
89
89
93
91
89
89
91
91
89
87
89
89
87
84
86
89
89
84
86
87
86
86
89
91
89
87
86
87
86
84
84
77
76
74
77
82
81
79
81
81
81
84
84
82
86
86
82
86
87
86
84
84
86
86
84
82
86
84
82
82
86
89
87
86
87
87
89
89
89
89
89
89
89
89
87
86
87
87
87
87
84
82
84
86
84
87
87
87
87
86
86
86
84
84
82
77
76
74
76
84
84
84
84
84
86
86
86
84
86
84
82
84
81
81
82
82
82
81
81
82
82
82
84
82
82
86
86
86
86
86
86
87
87
86
86
86
87
86
82
82
84
87
87
84
86
84
84
86
87
89
89
87
89
87
87
87
84
86
79
77
74
72
74
81
81
81
81
79
82
84
84
84
84
81
82
84
82
79
77
79
77
77
79
77
79
82
81
81
81
81
81
82
81
84
82
82
86
82
82
81
82
84
82
84
86
89
87
82
84
82
82
86
86
86
84
84
87
86
86
86
84
82
76
74
72
74
72
79
81
82
79
79
79
81
82
82
82
81
81
81
81
81
81
79
79
77
77
77
77
77
81
84
82
81
79
82
82
81
79
79
79
79
77
79
77
81
82
87
84
82
84
82
82
82
84
86
84
82
81
82
86
86
84
86
84
79
77
72
71
72
71
