P2
# 447 of 608 Angiograms
64 64
255
84
87
87
86
87
89
93
93
87
89
91
87
89
91
87
89
87
86
89
91
91
89
87
86
87
86
87
91
91
91
91
91
87
82
84
87
87
89
86
82
84
82
84
82
84
86
86
87
86
84
86
87
89
87
86
86
86
86
87
87
89
89
87
89
87
89
87
87
89
91
93
93
87
89
89
87
87
91
87
86
89
86
87
89
91
87
84
87
87
86
87
87
87
91
91
89
86
84
84
84
87
84
84
86
86
84
86
87
87
87
87
87
87
87
86
87
86
86
84
84
84
84
89
86
87
87
87
89
89
89
91
89
89
91
95
91
91
93
91
89
91
93
89
89
91
91
93
93
93
89
86
89
89
86
86
87
86
86
89
89
87
82
86
86
82
86
86
86
86
82
86
89
89
89
87
86
86
87
89
86
81
84
84
82
82
86
89
87
87
87
87
89
86
89
89
89
87
87
91
91
93
91
91
91
95
96
93
91
91
91
91
93
93
89
89
91
89
86
86
87
84
82
84
87
87
84
82
82
86
84
86
86
84
84
87
91
89
89
87
86
87
89
91
82
82
82
84
82
84
86
87
86
86
89
87
86
86
89
87
87
87
89
89
89
89
89
89
93
95
93
95
93
93
87
87
91
89
87
87
89
91
89
86
86
84
84
81
84
86
82
82
84
82
84
84
84
84
84
84
89
87
91
87
86
89
87
87
84
84
84
84
86
87
86
87
87
87
91
86
84
89
87
89
87
89
91
91
89
87
89
91
95
93
91
93
96
95
89
89
89
87
89
87
87
89
87
89
87
86
86
84
86
86
82
82
79
84
86
86
86
84
86
84
89
87
91
91
93
89
89
86
84
84
84
84
82
84
86
86
87
89
89
87
87
89
89
93
93
91
93
91
91
89
87
91
95
93
89
89
91
91
91
93
91
89
87
86
89
87
86
89
89
89
86
87
89
86
82
81
81
84
84
87
86
87
87
89
87
87
93
93
89
89
87
86
84
84
84
84
82
84
84
87
89
87
86
86
86
89
89
89
91
91
93
91
93
91
89
93
95
91
91
86
87
87
91
91
87
87
87
84
87
89
87
86
87
87
84
89
89
86
86
82
81
84
82
86
86
87
86
84
87
87
87
91
87
87
86
87
87
86
86
84
84
86
81
86
89
86
87
87
87
89
91
89
91
95
89
89
91
91
93
93
87
89
89
84
86
87
89
87
86
86
86
86
87
87
87
87
89
89
89
91
93
87
84
84
81
82
81
82
86
86
87
82
86
86
86
86
86
84
87
91
89
84
82
84
86
87
84
89
89
86
86
84
89
87
91
87
89
91
87
89
95
96
96
95
93
89
89
89
89
87
87
86
87
86
87
86
82
87
91
89
89
96
93
91
91
87
86
82
82
86
87
86
89
89
89
84
86
86
86
82
86
87
89
93
91
84
84
89
89
89
86
91
87
86
82
82
86
87
89
89
91
89
91
89
95
98
96
95
93
91
91
89
91
89
87
87
87
89
87
86
82
86
89
89
86
89
89
89
89
87
86
82
82
86
87
87
87
87
89
86
87
87
87
84
84
86
87
87
91
87
82
89
87
89
89
86
86
82
84
84
84
91
87
89
93
93
91
93
93
91
96
96
95
95
93
89
89
87
87
87
87
87
86
84
84
87
87
87
86
89
89
91
89
86
84
82
82
86
86
86
87
89
91
89
89
89
87
86
86
87
84
86
87
87
87
87
86
86
89
84
86
87
87
86
84
87
87
89
89
89
91
93
93
93
96
95
91
89
91
89
89
89
89
87
86
87
87
89
86
86
89
87
86
91
91
87
86
84
84
82
82
84
86
87
87
87
87
87
86
87
89
87
84
87
84
87
87
87
87
87
91
89
86
84
86
89
86
84
84
84
87
91
87
86
89
93
91
93
95
93
95
91
91
87
87
91
96
93
93
87
89
89
87
86
89
87
87
87
91
84
86
86
82
81
81
84
91
87
87
86
86
87
84
86
86
84
84
89
84
87
89
84
87
89
93
91
91
89
87
87
84
86
84
86
91
91
87
86
86
93
93
95
93
91
93
91
93
89
89
93
93
95
91
89
89
89
87
87
86
87
89
87
89
87
87
84
84
81
84
87
91
91
89
89
91
91
89
89
87
86
87
87
86
86
87
86
87
89
91
91
89
86
87
87
86
87
87
89
87
89
89
87
86
89
93
93
91
87
93
91
93
89
89
89
91
91
91
89
89
89
86
89
89
89
87
87
87
86
87
84
82
82
82
87
86
89
91
93
93
91
91
93
91
87
87
87
89
86
84
86
89
89
89
89
89
89
89
89
91
87
86
89
87
87
89
89
87
87
89
93
89
86
93
95
91
89
91
89
87
91
93
91
89
91
89
87
91
87
86
86
84
87
84
84
86
84
82
86
86
87
91
91
89
91
89
91
89
89
87
86
87
86
84
86
87
93
89
89
93
91
89
91
91
87
86
89
89
89
95
91
91
89
89
89
89
91
91
93
91
87
91
89
87
93
89
89
91
95
91
89
89
86
84
84
84
86
86
87
87
87
82
82
86
87
87
87
87
87
87
87
87
87
86
86
87
87
89
91
89
93
95
91
91
89
87
87
91
93
89
87
87
87
89
93
91
89
95
91
89
89
93
91
93
91
91
89
87
89
89
87
87
91
91
87
87
89
86
84
87
89
87
91
91
87
84
84
86
89
89
87
87
86
89
91
86
84
87
87
86
87
89
89
89
91
93
89
87
86
87
87
87
87
87
89
89
86
89
93
91
89
93
91
89
93
95
93
95
91
87
86
89
89
89
86
87
89
89
86
87
89
87
87
89
87
86
89
91
86
84
84
84
89
89
87
87
89
91
87
87
84
87
87
86
86
86
87
86
89
89
87
86
86
87
84
82
86
86
87
87
91
91
91
89
87
91
91
91
93
89
89
91
91
91
87
87
87
87
87
87
86
86
87
87
87
87
89
86
86
89
91
91
86
81
82
86
86
87
91
89
89
91
87
87
84
86
87
86
84
84
87
89
87
87
86
86
82
84
81
82
86
84
89
91
89
91
89
87
86
91
93
93
93
91
89
91
95
91
87
87
84
89
87
84
86
86
86
86
89
89
91
89
87
89
91
91
84
82
82
86
89
87
87
89
89
89
87
86
84
84
84
84
87
87
86
87
86
87
87
86
86
87
86
86
87
86
91
93
89
91
89
87
87
91
91
91
91
91
93
91
95
93
91
89
86
87
87
87
87
87
87
89
89
89
91
91
91
86
89
93
86
84
84
86
89
89
89
87
91
89
87
86
84
86
87
86
89
84
86
89
89
89
86
87
87
89
87
89
89
89
91
91
87
87
91
89
91
91
95
93
89
89
91
93
96
93
87
86
89
93
91
87
86
89
87
91
89
86
89
91
89
87
89
93
87
86
87
87
87
87
87
87
87
86
86
87
86
84
86
84
82
82
84
86
89
89
89
87
84
87
89
91
89
87
89
93
89
89
89
89
91
93
93
93
93
91
93
93
95
93
89
89
91
91
87
84
86
86
86
87
87
86
91
91
91
89
93
89
86
86
84
87
89
89
89
87
89
87
86
89
89
87
86
84
81
82
86
84
87
89
89
91
87
86
86
89
87
89
91
95
95
91
89
89
93
93
91
93
93
93
91
91
91
93
89
87
91
91
89
91
91
86
86
87
89
89
91
89
87
91
93
87
86
86
84
87
89
89
89
91
91
89
87
89
91
89
87
87
84
86
84
86
91
91
89
93
89
87
86
84
87
87
89
91
91
93
91
91
89
91
93
93
93
93
89
93
93
91
89
87
89
87
89
91
89
87
87
89
89
91
89
87
87
91
91
89
87
84
84
89
87
91
87
89
91
91
89
87
89
89
89
89
87
86
87
89
91
89
89
89
87
86
86
89
89
87
93
89
89
91
91
93
93
93
93
89
93
91
91
95
95
91
89
89
89
87
86
89
87
86
87
91
91
93
91
89
93
91
89
86
86
84
84
86
87
87
89
87
86
91
93
93
91
89
89
87
87
87
87
86
91
93
89
87
87
86
86
87
86
86
93
91
93
93
95
95
93
95
95
93
93
89
89
89
91
87
91
91
91
89
87
86
89
87
87
91
91
93
89
91
93
91
89
87
84
86
86
87
89
87
87
86
87
91
91
89
87
86
87
89
87
87
86
86
89
93
89
87
86
86
86
84
84
87
93
89
93
95
93
93
89
91
91
93
93
95
91
89
89
89
91
95
91
89
91
89
86
84
89
89
89
91
91
93
93
95
93
89
89
87
86
86
91
89
87
86
86
91
89
86
86
87
89
89
91
87
84
84
87
91
87
87
89
89
84
82
86
87
89
89
89
91
93
91
89
91
91
89
91
91
91
91
91
93
95
95
89
91
89
86
84
86
89
89
86
89
93
93
93
95
95
91
89
87
86
84
84
87
87
86
86
87
91
87
87
87
91
91
93
89
87
84
84
87
87
86
86
87
89
87
86
87
91
93
91
91
93
93
89
91
93
89
93
91
91
93
93
93
95
96
93
89
87
87
87
87
91
89
87
89
91
91
89
91
89
93
93
89
84
84
84
86
84
86
87
89
91
87
89
89
91
93
89
89
87
86
86
86
86
86
82
84
87
87
86
87
93
95
91
89
91
93
91
89
87
89
93
93
95
93
91
93
95
93
93
93
89
89
87
87
91
87
86
89
91
93
91
91
89
89
93
93
87
86
86
86
82
86
87
89
91
87
89
91
89
87
89
87
87
89
89
86
86
87
87
89
86
86
86
87
91
93
91
91
89
89
91
87
87
91
91
93
89
89
89
93
91
89
86
87
91
91
87
86
89
87
89
87
91
93
91
91
91
89
91
91
93
91
86
82
84
82
86
89
93
87
89
89
87
89
87
86
87
86
91
89
86
86
87
86
86
87
86
86
91
93
91
93
91
89
89
89
86
87
89
89
89
89
91
91
87
89
89
87
91
87
87
84
87
89
91
89
93
91
91
93
91
91
91
89
89
89
87
86
89
86
86
89
91
87
91
91
93
89
87
87
87
86
91
89
87
84
84
86
86
87
89
91
91
91
93
93
93
89
89
87
87
89
91
89
87
87
91
89
87
91
89
89
91
87
86
87
89
91
91
91
89
89
91
93
89
91
89
89
89
86
87
84
87
86
84
87
87
89
89
89
91
87
86
86
87
87
91
89
87
84
84
87
89
87
89
91
91
91
95
96
91
91
89
87
89
91
91
91
89
89
91
89
91
91
93
91
93
89
87
87
91
91
91
91
91
93
95
95
91
91
91
89
91
87
87
87
86
84
82
87
87
87
91
87
87
87
89
86
91
91
89
86
86
82
82
84
87
87
87
89
93
93
95
95
95
93
89
95
96
93
91
91
93
89
87
89
95
93
91
89
91
91
89
87
93
93
93
95
95
93
91
93
95
91
91
89
87
89
86
86
86
84
84
82
84
89
91
86
86
86
87
86
87
89
91
87
86
81
82
82
84
84
87
91
93
91
93
95
96
95
93
96
96
93
93
91
93
91
89
95
95
91
93
91
91
91
91
89
91
91
89
93
95
95
93
91
91
89
87
91
89
87
89
89
91
87
86
84
84
87
86
86
86
87
87
87
91
91
89
86
86
84
82
84
82
84
84
84
93
91
91
91
93
91
93
93
95
93
91
91
91
91
95
93
93
93
96
95
95
91
89
89
89
89
87
91
93
93
95
93
89
87
89
93
91
89
87
91
91
91
87
86
87
86
87
87
87
86
82
84
91
93
89
86
86
84
86
84
84
84
82
84
91
91
91
91
89
91
93
91
89
91
89
91
91
91
91
91
95
95
95
95
95
91
89
89
87
87
86
91
91
91
91
93
95
91
93
91
89
89
91
95
93
93
91
84
84
87
86
87
84
82
86
86
89
87
86
86
87
84
87
82
84
84
86
86
91
91
91
91
91
93
91
89
87
87
91
93
91
91
91
93
93
91
93
95
91
91
91
93
91
89
89
89
91
93
91
91
93
95
91
89
89
91
91
93
89
91
87
87
86
86
87
86
84
84
86
86
87
84
82
86
86
84
84
86
86
84
86
84
91
93
93
93
91
95
93
89
89
89
93
93
91
93
91
91
93
93
93
91
91
93
89
93
91
91
93
93
91
93
93
91
91
95
91
91
93
89
87
91
89
87
91
89
91
89
91
87
87
89
86
86
86
86
86
86
86
84
87
87
86
86
84
86
91
91
93
91
91
91
89
89
91
91
91
91
91
93
95
95
93
91
93
93
91
93
91
91
93
93
91
91
91
93
95
91
89
93
91
91
93
91
89
89
93
89
93
89
87
91
89
89
89
87
86
87
91
91
91
86
86
87
91
87
87
87
84
87
89
91
93
93
91
87
91
89
89
89
91
91
89
89
95
95
93
93
93
93
95
91
89
91
95
98
95
91
93
93
96
91
91
95
91
89
89
89
91
91
89
91
87
87
89
91
91
86
86
87
86
87
91
91
89
87
86
89
93
87
86
87
93
89
91
89
93
93
93
89
93
89
87
87
93
95
95
91
91
91
91
93
91
95
95
87
87
93
96
96
95
93
91
91
93
93
95
95
91
87
89
87
89
93
89
89
86
87
89
91
91
87
89
89
89
91
91
91
89
87
87
91
91
89
87
91
91
89
89
91
93
95
93
91
93
91
87
87
91
95
93
89
91
93
93
91
91
93
95
91
89
91
93
96
93
93
95
91
89
91
95
95
89
91
93
91
91
95
91
91
89
86
86
89
91
89
87
89
89
89
89
91
89
86
87
91
93
93
91
91
91
91
89
87
89
91
89
91
89
89
91
89
95
95
93
93
91
91
91
93
89
89
91
91
91
89
89
89
93
95
95
91
89
89
91
93
93
93
91
89
95
93
95
93
89
87
87
89
93
93
89
91
91
89
89
89
89
86
87
91
91
91
91
89
89
91
91
89
95
93
93
89
89
91
91
91
93
91
89
91
93
93
93
96
93
91
89
87
86
89
89
91
91
93
93
91
89
89
93
93
95
89
89
89
95
95
93
93
93
89
86
86
91
89
91
91
91
91
89
89
89
87
89
89
89
89
91
91
91
89
91
95
95
95
95
93
91
91
91
91
95
91
93
93
93
95
95
95
93
89
87
89
87
89
89
91
93
93
91
89
89
91
89
89
93
91
89
87
91
95
91
91
91
87
86
86
87
91
89
89
89
87
86
86
87
89
89
87
91
93
91
89
89
89
93
93
93
96
95
93
93
93
91
93
91
91
93
95
95
95
95
95
93
89
87
91
93
89
89
89
93
91
91
91
91
93
93
93
89
91
86
87
93
93
93
89
91
89
89
87
91
91
91
87
87
87
87
86
87
89
89
87
91
93
89
91
89
87
91
91
95
91
91
91
93
93
93
95
89
91
93
95
91
93
95
96
95
95
91
91
93
91
89
89
93
91
91
91
91
91
95
95
89
87
91
91
93
91
93
91
91
91
91
86
89
91
89
84
87
87
89
87
86
89
89
86
86
89
86
89
87
91
93
93
93
89
95
93
93
95
95
95
93
93
93
93
89
91
93
91
91
89
93
93
95
95
91
91
89
93
93
87
91
91
95
93
91
91
93
89
89
89
89
91
89
93
93
89
89
95
91
87
86
86
86
86
87
86
86
82
84
89
89
89
89
89
93
89
91
91
91
93
93
93
93
93
89
93
93
96
95
93
93
93
89
91
93
95
93
91
89
91
87
91
95
89
93
91
93
93
93
91
89
91
91
89
91
89
87
89
87
87
89
89
89
89
89
89
86
86
89
87
86
86
87
91
89
91
91
89
93
89
89
91
91
93
93
91
91
89
89
91
91
98
95
93
95
93
91
95
95
93
91
91
93
91
86
89
93
91
96
93
95
91
89
89
89
91
89
87
89
87
86
84
86
89
89
87
91
93
91
91
87
89
87
87
86
86
91
89
87
87
89
91
93
91
91
91
93
96
95
93
93
91
89
93
93
98
98
95
93
95
91
93
93
89
91
91
91
93
87
87
93
93
91
93
91
87
86
91
91
91
89
86
87
87
84
86
86
89
89
91
96
93
91
95
89
89
87
86
84
89
89
86
86
89
87
89
91
91
87
91
95
95
93
91
91
87
91
93
95
95
96
95
93
91
91
91
91
89
91
91
87
89
91
87
89
95
89
89
91
89
89
87
86
87
87
87
87
86
86
87
86
86
91
93
91
89
89
91
89
87
87
86
86
87
89
86
86
89
87
86
95
89
89
89
93
93
95
95
93
89
91
91
91
95
95
95
93
93
91
91
91
87
89
89
87
91
91
86
89
93
91
87
91
87
87
89
87
87
87
86
87
86
84
86
86
86
86
89
89
91
87
86
86
86
86
86
87
89
89
91
91
91
89
89
93
95
91
91
93
95
95
95
93
91
93
93
91
95
93
95
95
93
95
93
91
91
93
89
87
91
89
86
87
91
89
89
89
87
89
89
89
87
86
87
86
87
86
87
87
86
86
91
91
91
89
89
89
86
84
87
89
87
87
89
87
89
89
91
91
95
95
91
95
98
95
95
95
93
95
93
96
96
96
95
96
95
93
95
89
93
93
91
87
89
87
86
87
89
87
87
84
84
86
87
87
86
87
87
87
89
91
86
86
91
89
91
91
89
91
91
89
87
86
87
86
86
87
87
89
89
89
86
91
96
95
91
95
95
95
95
95
95
96
96
100
98
96
96
95
95
91
91
87
89
91
87
86
87
87
87
86
87
87
89
87
87
89
89
87
84
86
87
86
93
95
87
91
95
91
89
89
91
89
89
89
89
89
91
91
89
89
89
87
89
87
87
95
93
93
91
91
91
91
91
91
93
95
95
96
95
95
95
91
93
93
91
87
93
93
87
86
87
89
91
87
87
87
86
86
89
89
87
87
87
87
89
87
91
91
87
91
91
89
86
87
93
93
91
93
89
87
87
86
89
93
91
89
87
87
87
95
93
91
91
91
91
93
93
91
93
91
91
95
96
95
91
93
91
93
91
89
93
91
87
89
89
91
91
91
89
86
84
86
86
87
89
86
87
89
89
89
89
87
84
87
89
87
87
87
93
95
95
95
89
87
87
87
89
87
91
93
91
86
87
95
95
95
91
87
93
95
93
93
95
91
93
95
96
91
91
91
91
91
93
93
93
89
91
93
95
95
95
93
89
87
87
87
89
87
87
87
89
91
89
87
89
91
87
89
89
89
89
87
89
91
93
95
93
89
89
89
89
87
91
89
89
89
89
