P2
# 451 of 608 Angiograms
64 64
255
98
96
98
98
100
102
100
96
96
93
96
95
95
95
96
100
102
98
96
96
95
95
98
98
100
96
93
95
96
93
93
93
95
93
91
96
96
91
95
93
93
95
95
93
93
95
91
93
93
91
93
95
93
93
95
95
95
93
93
91
93
89
96
96
95
96
98
98
98
100
102
98
93
95
96
98
100
96
96
96
100
96
98
98
95
96
100
100
93
95
93
95
95
93
93
93
96
95
96
100
98
91
93
95
89
87
93
91
95
93
91
93
95
93
91
96
93
95
95
95
95
93
91
95
93
93
93
96
98
100
100
96
96
100
100
98
95
95
96
98
98
95
95
93
100
96
93
96
96
96
98
95
93
95
95
98
98
95
95
93
95
95
96
98
100
96
96
96
95
93
87
89
91
91
95
91
91
93
91
93
91
91
91
91
95
95
96
96
93
95
96
95
100
98
96
96
98
100
102
96
95
93
95
96
98
95
95
96
96
95
93
91
96
96
96
95
96
96
98
98
98
93
93
96
96
96
98
98
100
96
95
95
95
93
89
89
87
91
93
89
91
91
91
91
93
91
93
93
95
95
96
100
100
98
98
93
96
96
91
93
93
95
98
96
95
93
93
91
93
95
93
98
96
95
95
91
95
96
96
98
95
96
98
100
98
93
89
93
98
98
96
95
93
91
95
95
91
93
91
95
93
91
87
91
91
95
93
89
93
91
93
93
95
91
93
95
98
98
100
91
96
93
93
95
96
95
96
93
93
91
91
91
95
95
95
95
95
96
95
93
95
96
98
100
96
93
98
98
98
96
96
95
93
93
95
95
91
91
93
91
95
95
93
96
96
93
89
93
91
93
93
93
91
91
96
93
93
91
89
89
89
95
98
91
95
96
95
96
98
98
95
95
93
95
93
93
98
91
91
95
98
98
95
96
100
100
98
96
96
98
98
98
100
98
93
95
93
93
95
93
93
95
93
93
96
96
93
93
95
91
93
96
95
93
95
95
93
93
95
91
95
91
91
89
91
93
96
95
91
95
95
95
95
95
95
95
93
95
96
96
96
89
91
91
96
100
95
96
98
96
96
98
98
98
98
98
96
96
93
93
93
91
93
95
96
95
91
93
98
98
96
95
93
93
98
98
95
95
95
96
93
91
91
93
95
95
95
91
93
95
96
96
95
95
95
95
95
93
93
93
91
95
96
96
93
91
93
95
100
102
98
95
98
96
93
95
98
96
98
95
96
100
95
95
96
93
93
95
96
95
93
95
98
100
100
98
96
93
95
95
95
95
96
93
95
91
89
95
96
95
95
95
95
95
96
95
93
95
100
96
95
93
96
96
95
95
96
95
91
93
96
98
102
100
102
98
98
96
93
93
91
93
95
95
96
98
95
96
98
95
95
93
93
91
93
98
100
98
95
96
95
95
95
91
93
95
93
89
91
93
89
91
91
91
89
95
95
95
96
95
91
93
95
98
96
95
96
96
95
96
95
96
96
96
96
98
100
98
98
98
95
95
96
96
93
93
95
95
96
98
93
96
98
96
96
95
93
95
98
100
96
98
96
96
95
96
98
95
93
95
95
93
91
91
93
93
93
91
89
93
91
95
95
91
95
91
91
96
96
93
93
95
96
93
91
96
100
98
96
93
98
98
96
95
93
96
98
98
96
95
96
95
96
95
96
95
98
100
96
95
93
91
95
95
93
95
96
98
96
98
98
95
93
95
98
96
93
91
93
96
95
91
93
89
95
96
93
91
95
96
96
98
96
95
96
96
96
95
95
98
100
96
93
91
95
93
93
95
95
91
95
96
96
95
95
95
96
96
95
95
96
95
93
93
95
95
91
95
95
95
96
95
95
93
93
91
93
95
96
93
93
91
93
96
95
93
96
95
96
96
98
91
95
95
95
95
96
96
100
100
98
96
98
100
98
95
91
89
91
91
93
93
93
93
96
98
96
95
95
95
96
96
98
96
95
93
95
93
96
98
96
95
95
96
96
96
93
93
91
89
93
96
96
95
91
91
96
95
96
96
96
96
96
95
96
91
95
93
95
91
95
96
96
98
96
96
96
100
100
96
93
91
93
93
95
95
93
91
95
95
95
98
98
98
96
98
96
95
95
95
96
98
95
96
96
96
95
95
96
96
93
95
93
91
93
93
95
95
93
93
98
98
95
98
96
95
95
95
93
91
96
95
93
93
93
96
96
95
95
98
95
98
100
95
95
95
93
91
96
98
95
95
96
95
98
100
100
98
96
96
95
95
91
93
96
96
96
95
93
96
95
95
96
96
95
93
95
91
89
93
93
93
91
93
95
89
93
95
93
98
96
93
93
91
96
95
91
93
93
95
91
95
96
96
95
98
98
96
95
95
95
93
96
93
93
98
96
95
95
96
95
98
98
96
95
93
93
95
95
96
95
95
95
96
96
95
96
96
96
93
91
93
89
89
91
93
93
96
95
93
93
93
96
100
95
89
89
93
98
98
93
93
95
93
93
96
96
95
95
96
93
95
95
96
98
96
93
93
93
95
93
96
100
100
96
98
96
96
93
93
93
95
95
93
95
98
96
96
93
91
93
95
93
91
89
91
93
89
93
95
95
95
95
98
98
96
96
93
93
93
89
91
98
95
95
93
95
95
93
95
96
95
93
93
93
95
100
100
98
96
93
95
93
91
91
95
98
100
98
98
96
96
93
93
89
95
95
91
89
93
93
93
91
93
89
89
91
87
91
93
93
91
93
95
93
96
96
98
98
100
96
91
91
93
89
91
95
93
96
96
93
93
93
93
95
96
95
95
95
95
98
100
96
93
91
93
93
93
93
95
96
98
98
98
96
96
96
95
93
95
93
91
89
87
89
93
93
95
91
87
93
95
93
93
95
95
95
93
95
98
98
98
100
98
95
91
95
93
87
89
93
91
93
96
93
89
93
95
95
95
96
96
93
93
95
95
95
93
91
91
95
95
95
98
100
100
96
96
95
95
96
95
95
93
95
93
89
91
91
93
93
95
91
89
95
96
93
93
95
95
93
93
91
95
95
96
98
98
93
95
95
91
91
91
93
91
89
91
91
89
93
95
95
93
93
93
91
93
96
95
98
95
89
91
95
96
95
96
96
96
96
93
91
93
93
95
96
96
95
98
95
93
95
93
91
95
95
93
93
95
91
93
95
95
91
91
93
93
91
95
98
96
95
96
96
91
91
93
95
93
87
87
89
91
96
96
95
96
93
91
91
95
95
93
95
95
93
91
95
93
93
95
93
95
95
93
93
93
96
96
93
91
95
98
96
93
91
89
93
95
95
93
95
95
89
87
93
93
89
89
93
95
93
91
93
95
96
98
96
93
95
95
89
89
87
86
89
91
95
96
95
95
93
91
93
95
95
93
93
96
96
93
95
93
91
89
91
93
93
96
96
93
93
93
91
95
96
96
95
96
91
89
87
87
89
93
95
96
89
91
95
95
93
91
91
95
93
95
95
91
93
98
98
96
96
89
87
89
89
89
89
87
87
91
89
95
93
93
95
93
95
95
98
98
96
91
95
93
91
89
93
91
89
91
93
91
91
93
95
93
91
91
89
95
95
93
91
89
89
93
96
98
96
93
93
95
95
93
93
93
91
95
93
91
91
93
93
93
93
89
87
89
86
86
87
87
87
89
91
91
93
95
93
91
93
95
93
95
96
95
91
91
91
87
93
93
87
87
87
89
95
93
93
95
93
89
89
93
95
93
91
89
91
91
95
98
95
95
95
93
93
93
93
93
91
95
95
95
93
89
91
95
91
87
91
89
87
86
86
89
93
91
91
93
91
91
93
93
95
96
93
91
95
96
93
91
95
95
95
91
91
89
89
89
93
91
89
93
95
89
87
91
91
96
95
91
89
91
93
96
96
96
95
91
93
93
95
95
91
95
98
95
91
89
89
93
93
89
93
87
86
86
87
89
91
95
89
93
91
89
89
91
95
95
95
95
96
96
95
95
95
95
98
95
95
95
91
89
91
91
91
89
91
91
91
93
93
95
95
93
91
89
89
91
93
93
95
93
93
91
93
95
93
93
91
91
89
89
87
89
89
89
89
89
86
89
89
89
91
93
91
91
93
89
91
91
95
93
93
93
96
95
95
96
95
95
96
96
95
95
91
89
91
91
91
93
93
93
91
91
91
91
95
89
89
89
91
91
95
93
91
91
93
91
89
93
95
93
89
86
89
89
84
91
89
87
89
89
89
89
91
93
93
93
89
93
91
91
95
93
95
95
93
91
95
98
98
96
93
95
95
96
96
98
95
89
91
95
93
91
91
91
91
93
93
91
91
89
91
91
91
93
93
93
91
95
93
89
89
91
91
93
89
86
87
89
86
89
93
89
89
91
87
87
89
93
95
96
93
91
91
91
96
96
96
98
95
89
89
96
98
96
96
95
95
96
96
98
96
96
95
96
95
96
95
95
93
91
95
95
93
93
91
87
89
91
93
91
91
91
93
93
95
93
93
91
89
86
87
91
91
91
93
93
87
87
89
87
89
93
95
95
91
89
91
93
96
96
93
93
91
91
91
95
95
95
93
93
93
93
95
96
98
100
95
95
96
96
93
93
93
93
93
95
95
95
91
91
91
96
96
93
95
93
89
89
89
89
91
91
89
87
87
91
89
89
89
93
87
87
89
87
89
91
91
91
87
87
91
93
95
95
91
91
91
91
91
91
91
89
89
95
95
89
95
96
96
98
96
98
98
96
96
95
93
91
89
93
91
89
93
95
98
98
93
93
95
95
93
89
89
86
89
93
93
89
87
89
86
86
87
93
87
89
87
87
86
89
91
93
91
89
91
96
96
93
89
91
93
95
96
91
93
91
93
96
96
93
95
96
93
96
98
98
98
96
96
93
95
93
91
93
93
93
95
93
95
96
89
91
93
91
91
93
91
87
91
95
95
93
87
87
91
89
91
95
91
89
86
87
86
89
93
96
93
91
95
100
98
96
93
96
95
95
95
93
89
91
95
95
95
93
93
93
93
96
96
96
98
96
95
95
98
93
91
96
96
93
95
96
96
95
91
89
87
89
87
91
91
89
93
95
95
93
93
93
91
91
91
91
93
91
91
87
86
89
91
95
93
93
95
93
96
96
96
98
98
95
93
93
89
89
91
95
95
96
93
95
95
95
93
95
93
95
98
98
98
96
96
98
98
95
95
93
93
91
91
89
91
91
89
91
91
91
89
91
95
96
95
93
93
93
93
93
87
87
89
87
87
91
91
91
91
93
93
93
96
98
96
96
96
98
98
96
93
91
89
91
95
96
96
96
95
93
91
95
95
95
96
96
96
96
98
93
93
96
95
93
96
95
95
89
87
89
89
89
89
87
87
91
95
98
98
96
95
91
91
91
86
91
91
89
87
89
91
95
93
95
93
93
95
95
93
96
98
98
98
96
93
91
91
91
95
95
95
96
98
95
93
96
95
96
96
96
95
96
95
91
95
96
95
93
95
96
93
91
89
89
91
91
89
86
87
95
95
96
98
98
91
93
91
89
89
87
86
87
89
87
91
93
91
95
93
93
93
93
95
98
98
98
96
95
91
91
93
89
93
96
93
91
93
93
95
98
93
95
95
95
96
91
91
95
91
93
93
91
93
95
93
95
89
89
91
91
93
93
95
93
91
95
96
96
91
95
95
91
89
87
86
86
89
89
91
93
93
93
93
93
93
93
93
95
98
96
95
93
91
93
93
93
91
91
93
91
95
95
93
96
95
93
95
95
96
91
91
93
89
93
93
93
93
93
91
93
93
89
93
91
93
96
95
93
93
95
96
95
93
96
96
95
89
87
86
87
89
93
95
93
91
93
95
93
93
93
91
91
93
95
93
93
95
96
95
96
93
93
93
91
91
96
95
95
89
91
95
95
95
96
96
95
95
95
93
91
91
91
93
93
93
93
95
91
93
95
95
93
95
93
91
95
98
98
95
96
86
86
91
89
89
95
95
93
89
93
96
93
95
93
93
89
93
93
95
91
95
98
95
96
95
95
96
93
91
93
96
95
93
93
93
93
93
98
98
95
95
95
96
93
89
93
95
95
95
93
91
93
93
93
95
95
95
93
89
93
96
98
96
98
89
89
91
89
89
93
89
91
93
96
98
95
93
93
93
91
91
93
95
93
93
96
95
93
91
91
93
91
87
91
98
93
93
93
95
95
93
95
95
96
95
93
95
93
91
89
91
91
96
95
91
93
95
95
95
96
95
95
93
95
95
96
96
93
89
87
87
89
87
86
87
89
93
95
98
96
96
96
91
89
91
91
95
96
95
95
95
95
95
93
95
93
91
93
96
93
93
95
93
95
93
93
93
96
95
95
95
95
91
89
89
91
95
95
93
93
91
91
93
93
89
91
93
96
95
95
96
95
91
89
86
86
86
84
87
89
91
95
96
95
96
96
95
91
93
93
96
93
93
95
93
95
93
91
93
91
89
91
93
93
95
95
96
98
91
91
95
95
93
95
95
96
93
93
95
98
98
93
95
96
93
93
91
96
91
91
93
98
95
95
96
96
91
91
89
86
84
82
86
87
87
93
93
91
95
95
96
95
95
96
95
93
95
93
91
93
89
89
91
95
93
93
91
91
95
95
96
96
93
93
93
95
96
100
100
98
95
93
96
96
98
95
93
95
96
96
93
96
93
93
95
96
91
96
96
93
89
91
91
87
86
86
82
87
89
95
95
95
96
95
95
93
93
95
96
93
93
96
95
91
87
89
89
93
95
93
95
91
95
95
95
96
95
96
98
98
95
96
98
96
95
93
96
98
98
98
96
93
91
93
95
95
89
91
93
93
91
93
95
93
89
89
93
91
89
87
82
87
87
89
95
96
95
96
95
93
98
93
95
98
95
96
95
91
89
91
89
89
93
91
89
93
93
95
96
96
93
93
96
95
93
95
95
95
95
98
98
95
98
95
96
93
87
89
93
96
93
93
95
93
91
91
95
95
89
93
89
91
87
84
84
87
87
91
93
93
93
96
91
93
95
91
95
100
96
93
89
91
91
93
95
91
95
91
91
95
95
91
98
100
95
93
91
93
95
93
93
91
95
95
96
95
96
93
95
95
95
91
89
91
95
93
95
95
96
91
93
93
91
91
93
93
87
84
84
87
86
89
95
93
93
95
93
93
93
96
96
96
98
93
89
89
91
95
91
91
91
93
95
95
95
93
96
100
96
95
96
96
95
93
93
93
93
93
95
93
93
93
93
93
93
91
87
93
96
95
95
95
95
95
91
91
89
87
91
91
91
87
86
84
86
87
93
89
91
95
96
96
95
96
95
96
93
91
89
87
91
93
93
91
91
95
95
95
96
93
95
96
95
95
96
95
95
95
95
95
93
95
95
91
91
93
93
91
91
91
89
93
96
95
91
93
95
95
95
93
89
89
91
91
91
91
89
89
89
93
89
89
91
95
96
96
93
91
93
93
89
89
89
89
91
93
91
91
93
91
93
95
98
95
93
96
95
95
93
87
91
95
95
96
95
96
93
89
95
98
95
96
96
95
95
93
96
93
89
93
93
95
96
93
95
93
91
93
93
93
91
89
89
89
91
91
93
93
95
95
93
93
96
96
93
91
87
87
89
91
91
93
91
89
93
95
96
96
96
95
93
93
93
93
95
96
95
95
93
93
91
91
93
95
95
95
96
95
95
93
93
93
86
87
91
98
98
96
95
91
91
93
95
91
89
89
89
89
91
91
93
91
95
95
93
91
93
96
96
93
89
87
93
93
89
93
91
91
95
96
96
100
96
96
96
93
95
98
98
98
95
96
98
91
91
91
95
95
93
91
98
96
93
93
95
91
87
86
89
96
98
98
95
93
95
93
91
89
89
89
86
89
91
91
91
96
93
93
95
98
96
95
95
93
91
91
95
95
95
93
91
91
95
95
93
96
95
93
95
95
95
95
95
95
93
93
96
96
91
89
95
93
93
91
96
96
91
91
93
89
89
91
91
98
98
100
95
96
96
93
93
91
93
91
89
89
95
95
96
96
91
95
96
96
93
95
93
91
95
91
91
89
89
89
93
93
93
95
95
98
93
91
91
93
93
93
93
95
93
91
93
96
93
91
93
91
93
96
100
96
93
93
93
89
91
93
93
95
96
100
95
93
93
95
96
95
93
91
87
87
93
96
98
95
89
91
93
95
93
91
91
91
93
93
89
89
93
93
95
96
93
93
96
100
95
95
93
91
95
91
91
93
95
91
91
93
91
93
91
89
91
93
98
95
93
95
95
95
95
89
89
91
91
93
91
89
93
98
96
89
89
89
87
91
95
96
96
93
91
91
91
91
91
91
87
93
95
91
91
93
93
95
95
93
96
96
102
100
96
96
93
93
98
96
96
93
91
89
91
93
91
91
89
89
89
93
96
100
100
95
95
95
95
96
95
93
93
93
91
91
95
96
93
89
91
91
91
95
95
98
96
93
95
93
91
89
91
89
91
95
95
91
95
93
93
91
93
93
93
96
100
100
96
95
93
93
95
96
96
95
95
93
89
95
93
93
89
89
95
96
102
102
98
91
93
91
93
96
96
95
95
93
93
91
93
95
93
91
95
91
91
93
95
95
93
93
91
93
95
93
89
89
91
93
93
89
95
96
95
91
93
95
95
93
96
98
95
95
91
96
95
98
95
95
93
93
95
95
91
95
95
95
95
95
100
102
96
91
91
93
93
95
95
93
96
95
96
95
95
93
93
93
96
93
89
89
91
91
91
89
89
91
95
89
89
91
96
96
95
93
95
98
95
93
96
96
95
96
96
93
93
91
91
95
96
95
95
91
87
95
96
93
96
96
98
100
100
98
100
98
95
93
93
95
93
93
93
91
98
96
98
95
93
93
91
91
91
91
89
91
91
91
91
84
86
91
89
91
89
93
98
98
98
96
95
95
95
93
96
96
93
93
96
96
91
89
93
96
96
93
89
93
93
93
93
89
96
96
95
98
100
100
98
98
93
93
95
95
93
93
95
93
98
98
98
98
96
96
96
95
91
91
91
96
96
91
89
87
87
91
86
89
89
93
95
93
93
93
93
91
95
96
93
93
93
93
96
96
91
89
91
93
95
93
91
93
95
93
93
91
95
93
93
95
96
95
95
95
93
95
95
93
91
91
95
93
93
95
95
96
96
95
96
96
93
95
95
100
96
93
89
87
86
91
93
93
91
89
91
89
89
93
96
95
93
95
91
93
95
95
95
93
95
93
93
96
93
95
95
93
93
95
93
95
93
93
93
95
95
91
93
95
96
91
95
96
95
91
93
95
95
95
