P2
# 454 of 608 Angiograms
64 64
255
115
112
107
107
110
112
110
107
103
100
100
103
105
110
107
105
107
107
103
105
112
112
112
110
110
112
110
115
117
112
115
120
117
117
117
117
122
120
120
120
122
120
122
120
115
117
115
117
122
122
122
127
127
125
125
122
122
125
129
129
129
127
125
125
117
117
112
110
112
112
112
107
105
105
107
107
107
110
105
103
105
107
105
105
107
107
103
103
105
110
110
115
115
112
115
117
117
115
112
112
117
122
122
120
120
122
122
120
117
120
117
115
120
122
122
127
127
122
122
125
127
129
132
132
127
129
129
125
120
120
117
115
112
110
110
110
107
107
110
112
110
105
100
98
100
105
103
105
105
103
98
95
100
107
110
110
110
110
110
107
110
112
112
112
112
117
122
122
125
127
122
120
117
122
120
117
122
127
127
125
125
125
125
129
129
132
134
132
127
127
127
125
117
115
112
115
112
105
105
105
110
110
110
110
105
103
103
103
103
103
103
103
103
98
93
98
103
105
107
110
105
105
105
107
110
112
112
112
112
112
117
122
127
129
127
122
120
122
125
125
129
129
132
129
127
127
127
132
132
134
134
134
129
127
127
125
117
112
107
112
112
107
105
105
110
110
107
110
107
103
103
103
103
100
98
100
98
93
95
100
103
105
110
110
105
105
110
115
115
115
115
115
115
110
112
117
125
132
132
127
125
125
127
129
134
137
137
134
132
132
129
127
129
132
137
134
132
127
125
122
117
112
110
110
110
105
105
105
107
110
110
107
105
103
100
100
100
100
98
98
98
93
98
100
100
105
110
112
110
112
115
115
115
117
117
115
115
110
115
120
125
129
134
129
127
129
129
132
134
137
139
137
134
132
132
129
129
132
137
137
129
129
125
122
120
115
112
107
107
105
105
103
105
110
110
110
105
103
100
100
103
103
103
100
98
98
100
103
100
105
112
115
117
117
117
115
117
117
117
115
112
115
120
125
127
132
137
132
132
132
134
137
134
137
137
139
139
139
137
134
132
132
134
132
127
129
127
125
120
115
112
107
107
107
105
105
107
110
110
107
105
100
100
100
105
105
107
103
103
100
103
105
105
110
112
115
117
120
120
117
115
115
115
117
117
120
122
125
129
134
137
134
134
137
137
137
134
134
137
139
142
142
139
134
134
137
134
129
129
129
127
129
120
115
112
112
110
110
112
107
110
112
112
110
107
105
103
100
105
105
103
105
110
105
107
107
107
110
110
110
115
120
120
117
115
112
117
122
120
122
125
129
134
139
139
139
137
134
134
134
129
132
134
134
139
139
139
137
134
132
134
132
132
132
129
129
117
112
112
112
110
112
112
107
110
112
110
112
110
105
103
107
110
107
105
107
110
107
110
112
112
110
112
112
115
120
120
120
115
110
115
120
120
122
127
132
134
134
137
139
134
132
132
132
129
129
132
132
137
137
137
134
132
127
129
137
137
132
129
127
117
117
115
115
112
112
112
110
110
110
107
112
112
107
107
110
115
112
110
107
105
107
112
117
115
110
112
115
115
120
122
122
120
112
115
120
120
125
129
129
132
132
134
137
134
132
132
132
129
129
129
132
134
134
137
134
132
129
132
134
137
134
132
127
115
115
115
115
112
110
110
110
107
107
110
110
110
110
110
110
115
115
112
110
107
110
115
115
112
110
110
115
115
115
117
122
122
117
117
120
125
129
127
125
127
132
132
137
134
132
132
129
127
129
132
132
132
134
137
134
132
132
129
132
132
129
132
132
115
112
110
110
112
112
107
110
110
107
107
107
110
115
112
112
115
117
117
115
115
115
112
112
112
112
112
115
115
115
115
117
117
117
117
122
127
129
127
125
125
129
132
134
129
129
132
132
132
134
134
132
132
132
137
132
127
127
127
127
127
127
127
132
112
110
110
110
110
112
112
112
107
103
100
100
107
110
110
112
115
117
115
117
117
117
115
112
112
112
115
115
117
115
115
115
115
117
117
122
127
127
127
125
125
127
129
127
127
129
132
134
137
139
137
134
134
132
132
132
127
122
120
120
120
122
127
132
110
107
107
112
110
110
115
110
105
100
100
103
103
105
110
115
115
115
112
115
120
122
117
112
112
115
115
117
120
117
115
112
117
117
120
122
127
129
127
125
129
129
125
125
127
129
132
134
134
134
134
132
132
132
129
129
125
120
120
117
115
115
122
129
107
103
107
110
110
110
107
107
105
100
100
100
98
100
103
107
112
110
110
112
117
122
120
117
117
120
117
115
117
120
120
120
122
122
125
125
125
127
127
127
129
129
129
127
129
132
134
134
132
129
127
125
125
129
129
127
122
120
120
115
112
110
115
125
105
100
105
105
105
105
105
107
105
103
100
98
95
98
98
105
107
110
110
110
115
120
122
120
122
125
122
115
117
122
125
125
122
122
122
122
125
127
127
127
127
129
129
129
132
134
134
129
127
122
120
117
120
125
125
122
120
120
120
115
112
112
115
120
103
103
105
103
103
105
105
105
105
105
103
103
103
100
98
103
107
107
112
112
112
117
120
122
122
125
122
120
117
120
127
127
127
120
117
120
127
127
127
127
127
129
129
129
129
132
132
129
127
120
117
115
120
125
125
117
120
117
117
115
112
112
117
122
105
105
105
103
103
103
103
103
105
105
103
103
105
103
100
103
105
107
112
112
115
117
120
120
122
122
120
117
115
117
122
122
122
120
120
125
125
127
127
125
127
127
129
132
137
139
134
132
127
122
117
115
120
125
122
117
117
117
115
110
112
112
115
122
103
105
103
103
103
103
105
105
105
105
105
107
105
103
100
103
103
105
112
120
122
120
120
125
125
125
117
115
115
115
115
120
120
120
122
122
125
125
125
127
127
129
132
134
134
134
132
132
129
125
120
120
120
122
117
115
122
122
117
115
112
112
115
120
103
103
105
103
103
103
105
107
107
105
107
107
105
107
105
107
107
110
115
125
122
120
120
122
122
120
117
115
115
115
115
117
120
120
120
117
120
122
125
127
127
127
129
129
129
127
127
125
127
122
120
120
120
117
115
117
122
122
120
120
117
115
112
112
100
103
107
107
105
105
107
105
105
105
105
107
105
107
107
107
112
112
115
127
127
120
115
117
117
117
117
115
117
117
115
115
117
115
115
117
120
120
122
125
122
125
129
125
125
127
125
122
122
122
122
120
120
120
115
117
120
125
122
122
120
115
110
110
98
103
107
110
107
107
107
105
105
105
105
105
103
107
107
107
110
112
115
122
122
120
117
115
112
115
115
112
115
115
117
115
115
112
112
112
115
115
122
122
122
125
127
125
125
127
125
122
120
122
122
120
122
122
120
117
120
122
120
117
117
115
115
117
98
103
107
107
107
110
107
105
107
107
107
107
103
103
105
105
107
110
112
120
125
122
122
117
115
112
112
110
112
115
120
117
115
110
110
112
112
117
122
122
120
122
122
122
122
120
120
117
120
120
120
122
125
125
120
120
120
120
117
115
117
120
117
117
100
105
107
110
110
107
105
105
107
107
107
107
105
103
103
103
105
107
107
112
117
120
115
115
115
110
110
112
112
112
117
117
117
112
112
115
117
120
117
117
117
117
117
117
117
120
115
115
117
117
120
127
127
122
122
122
125
125
122
120
120
122
120
122
105
107
107
110
107
103
103
105
107
110
110
107
105
105
105
105
105
105
105
110
115
112
112
112
115
112
115
115
115
112
112
115
112
110
115
117
120
122
117
117
115
115
112
110
112
115
112
112
115
120
122
127
127
125
122
125
127
129
127
125
125
127
127
127
110
112
110
107
105
98
100
103
105
107
107
107
110
112
110
110
107
103
105
110
110
112
115
112
112
115
115
115
112
115
115
112
112
115
117
117
115
112
112
115
110
107
105
107
110
112
110
115
117
120
122
125
122
122
122
127
132
129
129
129
129
129
129
132
115
115
112
110
107
100
100
100
103
107
107
110
115
115
110
112
110
105
105
110
110
115
120
120
120
115
117
120
115
115
115
115
117
117
117
115
110
105
107
110
110
107
105
107
110
112
112
115
117
117
122
122
122
122
125
127
132
129
129
132
132
134
134
137
122
120
120
117
115
107
105
103
100
105
105
110
112
112
112
112
112
107
105
107
110
115
120
120
122
120
120
120
120
117
115
117
117
115
115
112
105
105
107
107
107
107
107
110
112
112
110
115
117
117
120
122
125
125
125
127
132
132
132
134
134
139
139
139
127
125
125
122
122
117
112
107
105
107
107
107
107
107
112
115
112
107
103
105
110
117
122
120
122
125
122
122
122
120
120
120
120
117
112
112
110
107
105
107
110
105
110
107
107
105
107
110
112
115
117
117
120
122
125
129
134
137
139
139
139
139
142
142
127
129
129
127
125
122
115
112
107
105
105
103
103
105
112
115
112
107
103
105
112
117
122
120
117
120
122
122
125
125
120
120
120
120
117
117
115
110
107
112
110
107
110
105
103
103
105
110
112
112
110
110
115
120
122
127
132
137
139
139
142
142
144
144
125
129
132
129
125
122
117
112
112
107
105
103
105
107
110
110
107
103
100
105
112
115
117
115
115
117
122
125
125
125
122
122
120
122
120
117
117
112
110
112
110
110
107
103
98
98
103
107
112
115
115
115
112
117
122
122
127
132
134
134
137
137
142
147
122
127
132
129
125
122
117
115
115
110
103
100
105
105
105
105
105
103
103
105
112
115
115
115
120
120
125
127
125
122
122
125
122
122
120
117
117
115
112
115
115
110
107
103
100
103
103
105
110
112
115
115
115
117
120
120
122
125
129
134
134
139
142
147
120
127
129
127
125
122
120
112
112
107
103
100
100
103
103
103
105
98
103
107
112
115
115
115
115
117
122
125
122
122
125
125
125
122
120
122
122
117
112
115
115
112
107
103
103
103
103
105
110
110
115
117
115
117
122
122
125
122
122
129
134
139
142
147
120
125
127
125
125
122
117
112
110
107
105
103
98
98
100
103
103
95
98
103
105
105
107
110
112
115
120
120
122
125
125
125
127
122
122
125
125
120
115
112
112
112
110
105
105
105
105
107
112
112
115
117
115
117
122
125
127
125
122
125
132
134
139
142
120
122
125
125
122
117
112
110
107
105
103
100
98
95
95
100
98
93
93
98
100
103
105
107
107
110
112
117
120
120
120
125
125
122
122
120
120
120
115
112
110
112
112
107
105
105
105
107
107
110
112
115
117
120
122
122
127
125
122
122
127
132
134
139
117
117
122
122
120
115
112
112
110
105
105
100
98
95
93
95
98
98
98
95
98
103
103
103
105
105
107
110
112
112
117
122
122
122
125
122
120
117
117
115
112
112
112
107
105
103
107
107
107
107
112
115
117
117
120
120
120
120
120
120
120
125
129
134
120
120
117
122
120
115
112
112
110
107
105
100
95
93
91
95
98
98
98
95
95
100
100
100
100
100
103
103
107
110
117
122
120
122
125
125
122
122
117
115
112
110
110
107
105
103
107
107
107
107
112
115
115
112
115
117
117
120
120
120
120
125
127
129
122
125
122
125
125
122
117
115
112
110
105
100
100
95
91
93
95
98
95
95
98
98
98
98
98
98
100
103
107
112
115
117
117
122
125
122
122
125
120
115
110
107
107
105
103
100
103
103
103
107
110
110
112
112
115
115
120
120
120
120
125
125
125
127
125
127
129
132
134
132
127
122
117
112
110
105
105
103
95
95
95
93
91
93
93
95
98
103
103
103
103
105
112
117
117
117
120
122
122
117
120
122
120
115
112
107
105
103
100
98
98
103
103
105
107
110
112
117
117
117
117
117
117
120
125
125
122
122
134
137
137
137
137
139
137
129
125
117
112
107
107
103
98
98
98
93
91
89
86
91
95
103
105
107
110
112
115
120
122
120
122
122
120
117
115
120
117
112
112
110
107
100
95
95
100
103
100
100
103
107
110
115
117
117
117
112
112
117
122
120
117
120
144
147
144
142
139
139
137
134
132
122
115
107
105
103
98
100
103
100
93
91
86
91
98
103
107
110
112
115
117
122
125
122
117
117
115
112
110
115
115
107
105
107
107
100
98
98
103
103
98
98
100
105
110
110
110
110
107
105
103
107
115
117
117
120
151
151
149
147
142
137
137
134
134
127
115
105
103
98
98
100
103
103
98
93
89
91
98
105
110
115
115
117
120
125
122
122
117
117
112
112
112
117
115
107
103
103
103
103
100
103
103
103
98
100
103
105
107
105
105
105
103
100
100
103
107
110
112
117
151
154
151
149
147
139
137
137
134
129
117
105
100
98
100
100
103
103
103
98
95
98
105
107
112
117
115
117
120
122
120
120
120
120
117
117
117
120
117
110
103
100
105
107
105
105
105
105
103
107
107
107
105
103
105
103
103
98
98
100
100
103
110
112
151
149
149
149
147
142
139
134
134
129
120
110
103
100
100
103
107
105
107
107
107
107
107
110
115
117
112
115
120
122
122
120
120
122
120
117
120
117
115
115
112
105
105
107
107
110
107
105
105
107
110
107
103
105
107
105
105
103
100
103
100
105
110
112
159
154
151
149
147
147
144
139
137
134
125
115
110
105
105
107
107
105
110
112
110
110
110
112
115
115
115
120
122
122
117
115
120
120
117
120
120
117
117
117
115
112
112
107
107
112
112
110
107
107
107
107
103
107
110
110
107
105
103
103
100
103
105
103
163
159
156
156
151
149
147
144
142
139
129
120
115
115
115
110
107
107
112
112
110
110
112
112
117
115
117
122
122
125
120
117
117
120
122
120
120
122
120
115
112
115
115
110
110
112
115
112
110
107
105
103
103
105
107
107
107
103
107
105
103
100
103
103
165
161
159
159
156
151
149
147
147
142
134
127
122
120
117
115
110
110
110
110
110
110
110
112
117
117
117
120
125
125
122
120
117
122
127
127
127
125
117
112
110
112
115
112
112
112
112
112
115
112
107
105
103
100
100
100
100
103
103
103
103
103
105
100
170
163
161
161
159
156
154
149
144
144
137
129
125
122
120
120
115
107
107
110
110
107
107
115
120
120
120
120
122
122
122
120
120
127
129
129
127
122
120
115
115
115
115
112
112
112
107
107
115
112
110
110
105
100
98
95
93
95
95
95
98
98
98
95
172
168
163
163
161
161
156
151
144
142
137
129
125
120
117
120
115
110
112
112
112
112
112
120
122
122
122
117
117
122
122
122
127
129
129
127
129
127
122
117
120
120
117
115
112
112
107
110
115
112
110
107
105
100
95
93
93
93
95
95
93
95
98
95
174
172
168
165
161
161
156
151
144
139
134
129
122
117
112
117
117
115
115
112
112
112
117
122
125
125
117
120
120
122
127
127
129
132
129
129
132
129
125
117
117
117
115
112
115
115
112
115
115
112
110
110
105
100
95
95
98
98
98
98
93
95
98
95
174
174
172
165
161
161
156
149
142
134
129
125
117
107
107
112
115
115
112
110
112
112
115
120
122
122
122
125
125
122
127
129
129
127
127
129
129
129
125
117
112
112
112
112
117
120
117
117
117
112
112
112
107
100
98
98
100
100
100
98
95
95
95
93
174
174
174
168
163
161
154
144
139
132
127
120
112
103
103
105
105
107
107
105
107
112
115
120
120
120
120
122
122
122
122
122
122
122
122
120
122
122
120
112
107
107
107
110
115
122
122
120
120
117
112
112
110
105
100
98
100
103
103
100
98
95
95
93
178
174
174
168
161
156
151
144
137
134
125
117
107
100
95
98
103
103
105
105
105
107
112
115
115
112
112
117
120
117
117
120
122
125
120
120
120
117
115
107
103
105
107
110
115
120
122
122
125
122
117
115
112
107
105
103
103
103
103
105
100
100
98
93
178
176
172
165
161
154
149
142
137
132
122
115
105
98
98
98
100
100
103
103
105
103
107
107
107
107
110
112
112
112
112
115
120
122
120
120
117
115
112
105
105
105
107
115
120
122
122
125
125
122
122
117
115
110
107
103
100
103
103
105
103
103
100
98
176
172
168
163
156
151
147
144
137
132
125
117
105
98
100
100
100
103
105
105
103
103
103
100
100
103
105
107
110
110
112
112
115
120
117
115
110
110
110
107
105
107
110
117
120
120
122
125
120
120
122
120
115
110
107
103
100
100
98
100
103
103
103
103
170
170
168
163
156
151
149
144
137
132
125
117
107
100
100
100
103
107
107
105
103
105
103
100
103
103
105
105
107
107
107
110
112
115
112
110
107
105
107
107
107
107
110
117
120
122
122
120
117
117
120
117
115
110
107
105
103
103
100
95
98
98
100
103
168
165
165
163
161
154
149
144
139
134
127
120
107
105
105
105
107
107
107
105
103
100
100
100
103
103
100
100
100
103
103
107
110
107
107
110
107
103
100
103
107
112
112
117
120
120
117
120
117
117
120
120
117
112
112
107
103
105
103
98
98
100
100
103
163
163
165
163
163
159
151
147
142
134
129
120
107
107
107
107
105
105
103
100
98
100
98
98
100
100
98
95
98
100
103
105
105
105
105
107
105
103
98
103
110
112
112
115
115
115
117
115
117
120
120
122
120
117
115
112
105
105
105
100
100
100
100
100
165
163
165
163
163
163
159
151
144
137
129
120
107
107
107
103
105
103
103
103
103
100
100
98
98
98
95
93
95
98
98
100
100
100
100
103
105
105
100
105
107
110
112
112
112
115
117
115
112
117
120
122
120
117
117
117
110
105
103
103
100
98
98
100
165
165
168
165
163
163
161
156
147
139
132
120
110
110
110
107
107
107
103
103
103
98
98
98
98
98
95
95
95
95
95
95
98
95
95
98
100
103
105
110
107
110
115
112
112
117
120
120
115
117
120
120
117
117
120
120
115
110
105
103
100
100
98
100
168
165
165
168
165
165
163
159
151
142
134
125
112
110
112
110
107
107
105
103
98
93
95
98
98
95
91
91
98
100
100
98
95
93
93
93
98
100
105
110
110
110
112
112
110
112
117
122
122
120
120
117
117
117
120
117
115
110
107
107
103
103
98
103
168
165
168
170
168
165
163
161
156
147
137
129
117
110
112
112
110
107
105
100
98
93
95
95
93
89
91
93
95
98
103
100
100
98
95
93
95
98
100
103
107
105
107
107
110
112
112
120
125
122
120
117
117
117
117
115
110
107
107
110
107
105
100
103
168
165
165
165
165
165
163
161
156
149
139
132
122
112
112
112
110
110
107
105
100
98
98
95
91
89
89
91
95
98
103
103
103
100
95
91
95
98
98
103
103
103
103
107
110
112
117
120
122
117
112
117
117
117
117
110
105
105
103
103
103
100
98
98
