P2
# 456 of 608 Angiograms
64 64
255
105
105
103
105
105
105
107
107
107
107
112
115
115
115
115
115
115
112
110
110
110
110
115
115
115
112
107
107
110
110
110
110
112
112
112
115
115
122
125
125
122
122
122
125
129
132
127
125
125
125
122
117
117
117
120
120
117
112
112
117
120
120
122
120
107
100
107
110
107
105
105
105
105
105
107
112
110
110
112
112
115
117
112
110
107
112
115
117
115
110
107
107
112
110
110
112
112
115
112
115
115
117
122
127
127
125
125
125
127
129
129
127
127
125
125
122
122
117
117
120
117
112
112
115
120
120
122
122
107
105
107
107
107
105
103
103
103
103
103
103
105
105
110
110
112
115
115
115
115
115
115
115
112
107
110
115
117
112
110
107
107
115
117
117
117
117
120
125
127
127
127
127
127
127
127
127
127
127
129
129
127
122
120
117
115
115
117
120
122
120
120
122
105
107
105
105
110
107
103
103
103
100
98
98
98
100
103
107
110
115
117
120
120
120
117
115
115
115
117
117
115
112
110
105
107
115
117
117
117
117
120
125
127
127
127
125
125
127
127
122
127
132
129
129
127
125
122
120
115
117
120
122
125
122
120
120
105
107
107
105
110
110
105
105
105
103
98
95
98
95
100
103
110
112
110
117
122
125
122
120
122
122
120
117
117
115
115
112
112
115
117
120
117
120
122
125
127
129
127
125
122
122
125
125
125
127
129
129
125
122
120
117
117
120
122
120
122
122
120
120
107
110
107
107
105
107
107
105
105
103
98
98
100
100
100
103
107
112
112
117
120
122
122
122
127
127
125
125
122
122
122
122
122
120
122
122
120
120
120
120
122
125
127
127
122
122
127
125
127
125
127
127
122
122
120
117
117
122
125
120
120
120
117
120
112
110
110
110
107
110
110
107
103
103
103
103
105
107
107
107
107
112
112
115
115
117
117
120
122
127
132
132
129
127
125
129
129
125
125
125
125
122
120
117
117
122
127
129
127
125
127
127
127
125
127
122
120
120
120
120
117
117
120
117
117
117
115
117
115
115
112
107
107
110
107
103
98
98
103
105
105
107
112
112
112
112
112
112
112
115
115
112
115
120
127
132
132
134
134
134
134
132
132
129
127
125
120
120
117
122
127
129
129
127
127
129
129
127
125
125
117
115
112
112
112
115
112
115
115
115
117
117
115
117
115
112
107
105
103
100
98
100
100
105
105
107
112
112
115
110
112
115
112
112
112
112
110
115
125
129
132
134
134
137
134
134
134
134
132
127
125
125
122
125
129
129
127
129
129
132
132
129
127
125
117
112
107
107
112
110
110
115
112
110
115
115
115
115
115
112
110
107
105
103
100
100
100
103
107
107
112
115
115
115
115
112
110
107
112
110
107
112
117
125
127
127
129
134
134
132
134
134
132
129
127
125
127
129
129
129
127
129
132
132
132
129
127
117
112
110
105
105
110
107
107
110
107
110
110
115
112
112
115
112
110
112
110
103
98
95
98
103
107
110
112
112
115
115
112
110
105
103
107
107
110
112
117
120
122
122
125
127
127
129
132
132
132
127
127
127
127
132
132
132
129
129
132
132
129
127
122
112
110
107
105
107
110
110
110
107
107
107
110
112
110
112
115
112
112
112
110
103
98
98
98
103
107
110
112
110
115
112
112
107
103
105
105
110
107
110
117
120
120
120
122
122
125
125
129
129
129
125
122
125
127
132
134
134
132
134
134
132
127
122
117
112
107
105
110
110
110
107
110
112
110
112
112
112
110
112
115
112
115
112
110
103
98
98
100
103
107
112
112
115
117
115
115
112
107
107
110
107
107
110
117
120
122
120
122
120
122
122
125
125
125
125
125
125
127
129
134
132
132
134
132
134
127
120
115
112
107
105
107
107
107
110
110
110
110
112
112
110
112
117
117
112
112
110
110
103
98
100
103
105
110
110
112
117
120
117
115
115
115
112
112
112
112
115
117
122
122
122
122
122
122
122
122
120
120
122
122
125
125
127
129
132
132
132
132
132
127
117
112
110
110
110
110
107
107
107
105
107
112
115
117
115
117
120
117
115
112
112
107
103
100
103
105
107
110
110
112
115
117
117
117
115
120
115
115
117
115
117
117
120
125
125
127
122
122
125
125
120
117
117
120
122
127
127
125
129
129
129
132
129
122
117
115
115
112
112
112
112
110
105
105
107
112
115
120
115
117
120
117
115
112
112
110
105
103
107
107
110
112
112
115
117
117
117
120
120
120
115
112
112
112
112
112
117
120
122
125
122
125
125
127
125
122
122
120
122
127
125
125
127
127
127
129
127
122
120
120
117
117
115
115
115
110
105
107
107
115
117
117
115
117
117
120
115
112
112
112
107
105
110
115
112
112
112
115
115
117
120
117
117
120
115
110
112
112
112
112
115
115
115
120
120
122
125
125
122
122
127
125
125
125
122
125
129
129
129
129
129
122
120
117
115
115
112
112
112
112
110
107
112
117
117
117
115
115
115
115
115
115
112
115
112
110
112
120
117
115
115
115
115
115
117
115
115
117
115
112
112
115
117
117
115
112
110
115
117
120
122
125
125
127
129
129
127
125
125
127
127
127
132
132
129
122
122
117
117
115
112
112
115
115
112
117
122
117
117
115
110
112
115
117
117
115
115
117
117
115
115
117
115
112
112
115
115
110
110
112
112
112
115
115
112
112
117
120
117
112
112
112
115
115
120
122
125
129
132
134
132
129
129
129
127
129
134
137
129
122
120
117
117
115
110
112
115
115
115
122
125
122
115
112
110
110
115
117
115
115
115
117
120
120
117
115
115
117
117
117
117
112
107
110
112
112
112
115
115
112
112
115
112
110
112
112
115
117
117
120
122
127
132
132
129
127
129
129
125
127
129
129
125
120
120
120
117
112
110
110
115
115
115
120
120
120
115
115
112
107
112
115
112
115
115
120
120
120
117
115
120
122
120
120
120
117
110
110
112
112
115
115
115
112
112
112
110
112
115
115
115
120
122
117
122
127
129
132
129
125
127
125
122
120
122
122
120
120
117
117
115
110
107
107
112
115
112
115
115
115
120
117
115
110
112
112
110
112
115
117
120
122
120
120
120
122
125
120
122
122
117
115
117
120
122
122
120
117
115
110
110
115
117
115
115
120
125
120
125
127
129
132
129
129
129
125
122
120
120
120
117
117
115
115
115
107
105
107
112
112
112
112
112
115
117
115
112
112
110
107
107
110
115
117
117
117
117
120
120
122
122
122
120
120
117
117
122
127
125
125
122
120
117
112
110
115
112
112
115
120
117
115
122
127
127
125
127
132
132
127
125
120
117
115
115
115
120
117
112
107
105
107
110
110
110
107
112
115
115
112
112
110
110
107
107
112
117
117
115
112
115
117
120
122
120
117
117
120
117
117
122
125
127
125
122
122
122
115
112
112
110
110
115
115
112
112
117
122
122
122
125
129
129
127
127
120
115
115
115
115
117
117
112
105
105
107
107
107
107
107
110
112
115
115
112
110
107
110
115
120
120
120
117
112
112
117
117
120
115
117
120
125
120
117
117
120
120
122
125
125
122
120
115
112
110
112
115
115
110
110
112
117
122
122
122
125
127
125
127
122
115
115
120
120
115
112
107
105
105
105
107
105
107
107
110
110
112
112
115
112
115
117
125
127
125
122
120
115
110
112
115
112
112
115
117
122
122
120
120
117
117
122
125
125
122
125
120
120
117
115
117
117
110
110
115
117
120
120
120
122
122
125
125
122
117
117
117
115
110
110
107
107
105
107
110
107
107
107
107
107
110
115
117
117
117
125
125
127
127
125
122
117
117
115
112
112
112
110
115
117
120
117
120
122
122
125
125
125
125
127
122
120
120
120
120
120
115
115
117
120
122
122
120
120
122
125
122
117
117
115
115
110
107
105
110
110
107
110
107
103
105
103
105
107
107
112
117
117
117
125
125
129
127
125
125
120
117
115
110
110
112
112
115
115
117
117
120
122
125
127
127
127
129
127
125
125
125
122
117
117
115
115
117
120
125
125
122
120
122
127
125
117
115
115
112
110
110
110
112
112
110
107
103
100
103
100
100
105
105
110
115
115
117
122
125
129
127
125
122
120
120
117
112
110
110
112
115
115
117
117
117
125
125
127
127
127
129
127
127
125
122
120
115
115
117
117
120
122
127
125
125
122
122
127
127
120
115
115
112
110
110
107
110
110
110
105
103
100
103
98
100
100
100
105
110
115
117
122
125
125
129
127
125
125
122
120
115
112
110
112
117
115
112
115
117
122
122
125
125
127
129
127
127
125
122
117
115
112
115
117
120
125
125
125
127
127
125
127
127
125
120
117
115
110
110
110
110
110
110
105
100
100
100
98
95
95
95
98
105
115
115
120
125
125
127
125
122
122
120
120
115
115
115
115
117
115
112
115
117
120
120
122
120
125
127
122
122
122
120
122
120
115
115
115
117
120
120
120
122
127
127
127
125
125
125
117
117
112
107
112
110
105
105
103
100
100
105
98
93
93
98
100
100
120
117
120
120
125
125
122
122
120
117
115
115
120
117
115
117
115
115
115
117
117
117
117
120
125
125
125
125
122
120
120
120
117
117
117
115
120
120
120
122
125
127
127
125
122
122
120
117
112
112
115
110
105
103
100
98
100
103
100
95
95
100
100
98
129
127
125
125
125
122
122
125
122
117
120
120
120
120
117
117
115
115
117
117
120
120
120
122
122
125
125
125
122
120
117
117
117
117
120
120
120
120
120
122
125
127
127
125
122
120
120
120
117
117
115
110
107
103
100
100
105
105
103
100
98
100
98
98
137
134
137
132
129
129
129
129
127
127
127
125
125
122
117
112
110
112
117
117
120
120
125
122
122
125
125
125
125
122
117
115
117
120
122
125
125
125
125
127
127
127
127
125
122
120
122
122
122
120
117
112
110
107
105
103
105
110
110
107
105
100
103
100
142
142
144
139
132
132
132
132
129
129
129
127
125
125
120
115
112
112
117
117
117
120
120
120
122
122
125
122
122
120
120
120
120
125
125
129
134
134
137
137
137
134
129
129
127
127
127
127
127
125
120
115
115
115
112
110
112
115
110
110
110
105
103
103
149
149
149
147
139
134
134
134
129
129
129
125
125
125
122
120
115
115
115
117
120
117
117
120
120
122
125
125
125
125
125
125
127
127
129
134
137
139
139
139
139
134
132
129
129
129
132
132
127
127
122
117
117
117
117
115
117
117
115
112
112
110
110
107
154
151
151
151
144
139
139
139
137
134
132
129
129
127
122
125
117
115
117
120
122
122
120
120
122
127
127
129
129
129
127
125
129
132
134
137
137
137
139
139
139
137
132
129
129
129
132
134
129
127
122
122
120
120
117
117
122
122
120
117
117
117
120
120
151
154
154
151
147
147
144
142
139
137
134
132
132
129
125
125
125
120
122
122
122
122
122
122
125
127
132
134
134
134
132
129
132
134
137
137
137
134
137
134
139
137
134
132
132
134
134
134
134
129
125
127
127
127
125
125
125
127
125
125
125
125
127
127
151
154
156
154
149
149
144
144
144
142
139
132
129
132
132
129
127
127
127
129
127
125
127
127
127
129
134
137
137
137
134
134
137
139
139
139
139
139
139
137
139
139
137
137
139
139
137
134
134
134
129
132
134
134
132
129
127
129
127
125
127
127
129
129
151
159
159
156
149
147
147
147
147
144
139
132
132
137
137
132
129
129
127
127
129
127
127
127
129
134
137
139
142
142
139
137
139
142
144
147
144
142
142
139
139
139
139
144
147
144
139
137
139
139
137
137
137
137
137
132
127
129
129
127
127
127
127
129
149
154
154
154
151
147
147
147
144
142
139
134
134
137
134
129
129
129
125
122
127
127
127
127
132
134
139
142
142
144
144
142
144
144
147
147
144
144
142
142
139
142
144
147
149
149
144
142
142
142
142
142
142
142
139
134
129
129
129
129
129
129
129
127
147
149
151
151
149
147
144
147
144
142
142
139
139
139
134
132
132
129
125
125
127
125
125
127
134
139
139
142
142
144
144
144
144
147
149
149
151
151
149
149
147
147
147
144
147
149
144
144
147
147
149
149
147
144
142
139
134
129
132
132
132
129
127
125
149
149
149
149
149
147
147
144
144
144
142
142
142
139
137
132
132
129
129
129
129
127
127
132
132
134
137
139
137
139
142
142
144
147
149
151
156
159
156
154
151
149
149
147
147
149
147
147
149
151
149
149
149
149
144
139
134
134
134
134
134
129
127
125
154
154
151
151
149
149
147
147
147
147
147
147
144
142
134
132
132
132
134
134
134
132
134
134
132
134
139
137
134
137
137
139
139
142
147
156
161
163
161
156
156
151
151
149
149
149
149
151
154
156
156
156
154
154
149
144
139
137
142
142
137
132
127
125
161
159
156
154
151
151
149
149
151
154
154
154
147
139
134
129
127
132
134
137
139
139
139
137
134
137
139
137
134
137
137
139
139
142
147
154
159
161
161
159
159
156
149
147
147
149
151
151
156
159
161
159
159
156
151
149
144
144
147
147
139
134
129
129
161
161
156
156
154
154
149
144
149
151
156
156
147
139
137
129
127
132
137
137
137
142
142
142
139
139
137
134
137
134
134
139
139
139
142
149
156
156
159
159
159
156
149
144
144
147
151
154
159
161
161
163
161
159
154
149
149
149
149
147
144
137
134
134
161
159
156
156
156
151
149
144
147
149
151
151
147
139
139
134
129
134
134
134
134
137
142
139
142
144
137
137
137
137
137
137
137
139
139
144
151
151
156
159
159
154
149
147
147
149
151
159
161
163
163
163
161
156
151
151
154
154
151
151
147
144
139
137
159
156
156
159
156
151
149
147
144
142
147
147
142
139
137
134
134
134
132
134
137
139
139
139
139
144
144
142
142
142
142
139
142
142
142
144
147
151
154
156
156
154
149
147
149
151
156
159
163
163
161
161
161
156
154
154
156
156
154
154
154
151
144
142
156
159
159
159
156
154
151
149
144
139
139
139
137
134
134
134
134
134
134
137
139
137
134
139
139
139
142
142
144
147
147
144
144
144
147
147
147
151
154
154
154
151
147
147
149
154
156
159
163
163
161
161
159
159
159
159
156
154
156
161
161
159
154
147
159
161
163
161
159
156
154
154
151
142
137
134
134
132
132
132
134
134
137
142
139
137
137
137
137
137
139
142
147
149
149
149
149
149
151
149
144
149
154
156
151
149
147
147
147
151
156
159
163
161
159
154
151
154
156
156
156
156
156
163
165
163
159
151
159
161
165
163
161
156
154
156
154
144
139
134
134
132
129
129
132
137
139
142
139
139
139
137
139
142
139
142
147
149
149
149
147
149
149
144
142
149
154
154
151
151
154
154
151
154
156
159
161
159
156
149
149
149
151
154
154
156
159
163
165
165
163
156
156
161
163
163
161
154
151
154
151
144
139
134
134
132
129
132
137
139
142
142
139
139
142
139
142
144
142
144
147
147
147
149
147
147
144
139
137
144
149
154
149
154
156
156
156
159
159
159
156
154
154
151
149
151
151
151
154
159
159
163
165
165
163
156
154
159
161
159
159
154
151
151
147
144
139
134
134
134
137
139
142
142
139
134
134
137
139
142
139
142
142
144
147
144
144
144
147
144
139
134
134
139
147
149
149
149
156
159
156
159
159
159
154
151
151
151
154
151
154
154
156
156
156
159
161
161
159
156
151
154
156
156
156
154
154
151
149
144
142
137
137
137
139
144
144
142
139
134
134
137
137
137
139
142
139
142
147
144
142
144
144
142
137
134
137
139
144
147
147
147
151
154
154
156
156
156
154
149
149
151
154
156
156
156
154
154
156
156
156
154
156
156
151
154
154
154
156
156
156
156
156
151
147
144
142
142
144
147
149
144
142
139
137
137
137
137
137
139
137
139
142
142
142
144
144
142
137
132
134
137
142
147
149
149
151
151
151
151
151
151
149
147
149
151
154
156
154
151
151
151
154
154
154
154
159
156
154
154
151
151
154
159
161
163
161
159
154
149
147
149
151
154
154
151
147
144
139
137
139
139
139
139
142
142
139
137
139
139
142
139
134
129
132
137
144
149
151
154
154
151
151
151
149
144
142
147
149
151
154
156
154
149
151
154
156
154
154
156
159
159
156
156
154
154
156
161
163
163
165
163
156
151
149
154
156
159
159
156
151
144
144
142
144
144
144
144
144
144
139
137
134
134
137
137
129
129
134
142
147
154
159
159
156
154
151
154
149
144
142
144
147
151
154
156
154
154
156
156
156
156
156
159
159
156
159
159
156
156
159
161
165
168
168
165
159
154
154
156
161
165
163
161
156
151
147
144
147
147
147
144
144
142
137
134
129
129
134
134
132
132
137
144
151
159
163
165
163
159
156
154
149
144
139
139
144
151
156
159
159
159
156
156
154
154
156
156
156
156
161
161
161
161
161
161
165
168
168
165
161
156
156
156
161
165
165
161
156
154
151
149
149
149
147
147
144
142
139
134
132
132
134
134
132
134
137
142
151
161
165
165
165
165
161
156
149
147
144
144
149
154
156
156
156
156
156
154
151
154
154
154
154
154
161
163
163
161
163
163
165
168
168
168
163
159
156
156
159
161
165
163
159
159
156
156
154
151
149
149
149
147
142
139
137
137
137
137
137
137
139
142
151
159
165
168
170
168
163
156
147
147
147
147
151
154
154
154
154
156
156
154
154
154
156
159
156
156
161
163
163
161
161
161
163
165
168
168
165
161
159
159
156
159
163
165
165
161
161
161
161
159
154
154
151
149
147
144
144
144
144
144
142
139
139
142
151
156
163
170
172
168
161
154
147
144
144
147
151
154
151
151
154
156
156
156
156
159
161
165
165
165
161
163
163
163
161
163
161
163
165
170
170
163
159
159
159
159
163
163
163
161
163
165
165
163
161
156
154
149
147
149
151
149
149
149
149
149
147
147
154
159
163
170
174
170
163
154
147
147
147
149
149
151
154
151
151
154
156
156
159
159
163
165
165
165
163
163
165
165
163
163
163
165
168
170
170
165
161
163
163
161
163
163
163
165
165
165
165
163
161
161
156
151
149
149
151
151
151
151
154
154
156
159
161
163
168
172
176
172
165
156
151
151
151
151
149
151
154
154
151
151
151
154
156
159
163
163
165
170
163
163
165
165
165
165
168
170
170
168
168
165
163
163
163
163
163
165
168
170
172
172
172
168
163
163
161
159
156
154
151
154
156
161
163
165
168
170
170
170
172
176
178
172
168
163
159
159
156
154
154
156
159
159
156
154
151
154
156
159
163
165
170
174
