P2
# 460 of 608 Angiograms
64 64
255
120
117
115
120
122
122
117
107
107
112
112
117
117
115
115
115
115
110
105
103
103
105
105
110
110
112
115
117
115
115
115
115
112
107
105
100
98
95
100
98
98
100
105
107
107
105
107
110
110
110
115
117
117
110
110
110
110
107
105
105
107
110
110
110
122
120
120
122
122
120
117
110
110
115
115
120
117
115
115
115
115
115
112
105
105
105
105
105
107
112
112
117
117
115
115
112
107
103
98
95
95
95
98
98
98
100
105
107
107
110
110
107
105
105
105
110
107
105
105
105
103
100
100
103
107
107
107
107
122
125
122
120
122
122
115
110
110
112
117
122
122
117
115
117
117
117
115
112
107
110
110
107
110
112
112
115
115
115
115
112
107
100
95
98
98
98
100
98
100
105
110
112
107
110
110
107
103
100
100
103
107
103
105
105
105
105
105
110
112
115
117
117
120
122
122
117
120
120
115
112
115
120
122
125
125
122
120
117
117
117
117
115
115
112
115
117
117
117
117
117
115
115
115
112
107
105
100
100
98
95
100
100
103
105
110
112
107
105
107
105
100
95
98
107
110
110
110
112
115
117
120
120
122
125
127
129
117
120
117
115
115
117
117
120
122
122
122
122
122
122
122
122
120
120
115
117
120
122
122
122
122
122
127
125
117
115
115
112
107
110
105
100
98
98
103
100
103
105
107
112
110
105
105
103
100
100
107
112
107
110
112
117
120
125
125
127
127
127
132
134
117
120
120
117
112
115
117
120
122
122
120
120
120
122
122
122
122
122
122
125
122
125
127
125
125
127
132
129
125
117
112
112
112
110
107
107
100
100
103
103
103
107
112
115
110
107
107
105
105
110
112
115
112
112
115
115
122
125
125
127
129
129
129
132
117
120
122
117
112
112
117
120
122
122
122
120
120
120
120
122
127
129
127
125
122
122
127
129
129
129
129
129
127
122
117
115
115
110
110
107
105
103
105
107
107
110
117
115
112
112
112
110
112
117
117
115
110
112
112
115
122
127
125
127
132
132
129
129
117
122
125
117
110
110
117
120
122
122
120
117
115
115
117
125
127
129
127
125
125
129
129
129
132
129
129
127
125
125
125
117
115
110
107
105
105
105
107
107
107
112
115
110
105
107
110
112
120
120
117
112
107
112
112
117
122
127
132
132
132
129
127
127
120
120
122
117
115
115
117
117
125
125
120
115
115
117
117
125
127
127
127
125
127
132
134
137
134
132
129
129
125
129
129
122
117
112
110
105
105
105
105
105
107
107
107
105
103
107
115
120
122
122
117
110
110
115
115
120
122
127
129
132
132
132
129
127
115
117
122
120
117
117
117
115
120
125
120
117
117
115
120
122
122
122
122
122
127
129
134
137
139
134
132
132
129
132
132
127
122
117
115
110
107
105
103
100
103
100
103
103
107
115
120
122
122
122
117
112
112
115
117
122
125
127
127
127
129
132
132
127
115
117
117
117
120
117
117
115
115
120
120
120
117
115
117
122
125
125
122
127
129
132
132
134
134
134
132
134
132
132
132
129
122
120
117
112
105
98
98
95
98
103
105
107
115
120
122
122
122
120
115
115
115
120
125
122
125
129
129
127
129
129
129
127
115
115
115
115
117
117
117
115
115
120
120
120
120
117
120
122
127
127
127
127
129
132
129
132
134
129
129
129
127
127
129
129
122
117
115
110
105
100
100
98
98
105
110
115
120
120
122
122
120
117
117
120
120
125
127
125
127
132
132
129
132
129
129
132
117
112
115
117
117
117
117
115
115
117
120
120
122
122
122
125
129
127
127
129
132
134
132
134
134
129
125
125
127
127
129
127
120
117
115
112
112
107
100
98
103
110
115
117
120
120
122
120
115
115
115
120
122
125
127
127
132
132
132
132
132
132
132
134
120
117
117
117
117
117
120
115
115
117
120
120
120
125
127
129
127
125
127
129
134
139
134
134
134
129
125
125
127
127
127
125
120
120
120
120
120
117
110
103
105
115
117
120
122
120
122
122
120
117
117
120
122
125
129
129
132
132
132
129
129
129
129
127
120
120
120
120
122
117
120
115
115
115
117
120
120
125
129
129
127
125
125
129
134
139
137
134
132
132
127
127
125
125
122
122
122
122
127
127
127
125
120
112
110
115
122
125
127
125
125
122
122
120
120
120
122
127
129
132
134
134
129
127
125
127
127
122
120
122
125
122
122
122
122
117
115
115
120
120
125
127
129
132
129
125
127
127
129
134
134
134
129
132
129
127
125
122
120
120
125
127
129
129
127
127
125
115
107
115
125
127
127
125
122
122
120
115
117
115
122
129
129
132
134
134
129
127
125
127
129
127
117
120
125
125
125
122
122
120
117
117
120
120
122
127
132
129
127
125
127
127
127
132
134
129
127
129
129
129
127
125
122
125
132
132
132
132
127
127
125
115
105
110
125
127
129
129
125
122
120
115
115
117
122
125
127
127
129
129
129
127
125
125
127
129
120
122
127
127
122
122
122
120
117
117
115
120
125
127
129
129
132
127
129
127
129
132
134
134
129
129
129
132
132
127
125
132
137
132
129
129
129
127
122
112
105
110
122
127
132
134
129
127
125
120
117
117
120
122
122
125
122
125
127
127
129
127
125
125
122
125
127
125
120
117
122
125
122
120
122
127
129
127
129
134
134
132
132
127
127
134
132
134
134
137
134
134
129
125
127
134
137
132
127
125
127
122
120
110
105
105
117
129
134
134
132
129
127
125
120
117
117
120
120
122
122
122
127
127
129
129
127
122
125
125
127
122
120
120
122
127
127
129
132
132
129
129
132
134
134
134
132
129
129
134
134
134
139
139
137
134
132
127
132
134
134
129
125
127
127
122
117
112
105
103
115
127
132
132
132
132
129
127
122
117
117
120
122
127
127
127
125
125
127
127
127
125
122
122
122
122
122
120
125
127
132
139
134
129
129
129
132
132
132
132
129
129
132
134
134
134
134
134
134
134
134
132
132
132
132
129
127
127
125
122
120
115
107
105
112
125
132
132
134
134
132
129
125
122
122
127
129
132
134
132
127
127
127
127
125
122
122
125
120
125
125
122
125
127
132
137
134
129
132
132
134
134
132
132
132
129
132
132
129
134
132
132
132
134
134
129
129
129
129
129
127
125
122
120
117
115
110
107
112
120
129
132
134
137
134
134
132
125
127
132
134
134
137
132
129
129
127
125
125
125
125
125
122
125
127
125
127
129
132
134
137
132
134
137
137
134
134
134
134
129
132
129
129
132
132
134
134
134
132
127
127
129
134
134
129
127
125
120
117
112
110
110
112
115
125
129
134
137
137
134
132
127
127
132
134
134
137
132
132
134
129
129
127
122
127
127
125
125
125
127
125
129
132
134
134
132
134
134
134
134
134
134
132
129
132
132
129
132
132
132
132
134
132
125
127
127
132
134
132
127
122
120
115
110
107
110
110
115
117
127
132
134
132
132
129
127
127
132
134
134
134
134
134
134
134
132
129
127
127
122
125
125
122
125
125
127
132
132
132
129
132
129
127
132
134
132
127
127
132
129
132
134
134
132
134
134
132
132
129
129
132
132
129
125
120
117
112
107
107
110
112
117
117
125
129
132
132
132
129
127
125
129
134
132
134
137
132
132
134
137
134
132
125
120
122
122
120
122
127
129
129
129
127
129
129
122
125
129
129
127
125
125
127
127
132
134
132
132
137
134
134
132
129
129
129
132
127
122
120
115
112
112
112
112
117
122
125
129
132
134
129
129
129
129
125
127
129
132
132
134
132
134
134
137
134
134
120
122
122
122
120
120
125
129
127
127
125
127
129
125
125
127
127
122
125
122
127
127
127
129
129
129
132
132
129
129
129
127
125
125
122
122
120
115
110
115
117
122
127
132
134
134
134
132
129
129
129
125
122
127
132
132
132
134
129
134
134
132
132
129
120
122
120
120
120
122
125
122
125
125
122
122
127
127
125
122
122
122
122
117
120
120
122
125
127
132
129
127
129
129
129
127
122
120
120
122
120
117
117
120
122
125
129
134
137
137
134
129
127
129
127
125
122
125
132
132
132
129
127
132
132
127
125
122
120
120
117
120
117
117
122
120
122
122
120
122
122
125
120
117
120
122
122
117
120
120
117
122
127
132
129
127
127
129
129
127
125
120
117
117
117
120
122
125
125
125
127
129
132
134
132
129
125
125
122
125
122
125
132
134
132
132
129
129
127
120
117
120
120
117
115
112
112
115
120
120
122
125
122
122
122
122
115
115
117
120
122
120
120
122
122
122
125
127
129
127
127
129
127
125
122
117
112
112
117
120
120
122
125
127
125
129
129
132
132
132
125
122
125
125
127
127
129
134
134
132
129
127
122
115
112
112
117
115
115
115
112
115
117
117
122
125
125
125
122
120
117
117
117
120
122
117
117
120
127
125
122
127
127
129
127
127
125
117
115
112
110
112
117
120
120
120
125
127
125
129
129
129
129
132
129
125
125
122
125
127
127
132
134
132
129
127
120
115
112
112
117
117
115
112
110
112
115
115
120
122
122
122
122
120
117
117
112
115
120
120
117
115
120
122
120
125
127
129
127
122
117
112
110
107
110
112
117
122
125
122
122
125
129
129
127
127
127
129
134
129
127
125
125
129
129
129
129
129
129
127
120
117
110
110
115
115
112
110
112
110
112
112
120
122
122
122
120
120
117
115
115
112
115
120
120
115
115
117
120
122
125
125
120
115
110
107
107
105
107
112
117
122
125
125
125
125
129
129
127
125
125
127
129
132
129
127
125
125
129
127
127
127
127
122
120
117
112
110
117
115
110
107
107
107
112
112
117
120
120
120
117
115
115
115
117
117
112
117
115
115
117
120
120
125
122
117
112
107
105
105
107
107
110
112
117
122
125
125
127
129
129
125
125
125
122
125
129
129
127
127
122
120
122
127
129
127
125
122
120
115
112
107
117
115
107
105
105
105
110
112
115
117
120
117
115
115
115
117
120
120
117
117
112
110
115
120
122
120
112
107
105
103
103
105
110
110
107
112
117
120
120
122
125
127
125
127
125
125
122
122
129
127
127
129
125
117
120
127
132
127
125
122
122
115
112
110
112
112
107
105
105
103
107
115
117
117
117
115
115
115
117
117
115
120
120
117
112
107
112
115
115
107
105
103
103
103
103
110
112
112
107
112
115
117
117
117
120
122
125
125
129
127
127
125
127
125
125
127
127
125
120
127
129
127
125
125
122
117
112
112
112
110
110
107
105
105
107
115
120
117
115
110
112
117
120
117
115
117
120
115
112
110
107
107
105
103
103
105
107
107
112
115
117
112
110
112
115
115
117
117
122
127
129
127
127
127
127
129
129
127
125
127
127
122
120
125
127
127
125
125
122
120
115
112
115
110
110
107
103
105
107
112
115
112
112
110
112
115
117
117
112
115
112
112
110
105
98
100
103
103
105
107
110
115
117
120
120
115
112
112
115
115
120
120
122
125
127
127
127
125
125
127
129
125
125
127
125
120
120
122
125
125
122
122
120
117
117
115
112
110
107
105
103
103
105
110
110
112
115
112
112
115
117
115
115
115
112
110
105
103
98
95
100
105
107
110
112
117
117
122
120
115
115
112
112
115
120
120
122
125
122
122
125
125
125
127
122
122
127
129
127
125
122
122
122
122
122
117
117
117
117
120
110
110
105
103
100
100
103
107
110
115
117
115
115
115
117
117
120
117
112
105
103
98
98
95
98
105
112
115
115
115
117
120
120
117
115
115
115
115
115
117
120
120
117
120
122
125
127
127
125
125
127
132
129
127
120
117
117
120
120
115
112
117
120
120
107
105
103
100
100
98
103
105
110
117
117
117
115
117
120
122
120
115
107
105
98
93
93
93
100
110
117
117
117
122
122
117
117
117
115
115
112
112
115
115
117
117
115
117
120
125
127
127
127
125
127
129
129
129
122
120
115
115
117
115
112
117
117
112
110
105
103
100
100
100
103
105
110
117
117
115
117
117
120
122
117
112
107
100
93
93
95
98
105
115
120
117
117
122
120
115
110
112
115
112
110
115
115
117
115
115
117
120
125
127
127
127
125
125
127
129
129
129
125
120
115
110
112
112
115
117
115
112
110
105
103
103
100
98
98
103
107
112
115
115
115
115
117
120
117
112
105
95
93
93
98
105
107
117
120
117
112
117
120
115
112
110
115
115
115
115
117
117
115
115
120
125
129
129
127
125
125
127
129
129
127
127
122
117
112
107
105
110
112
115
115
117
107
105
100
100
98
95
91
95
105
110
107
110
112
115
117
120
117
110
98
91
93
95
100
105
110
112
115
115
112
112
117
120
115
112
115
115
117
117
117
117
115
117
120
125
129
129
127
127
127
129
127
127
125
125
122
117
110
105
105
112
115
115
115
115
110
105
103
103
103
95
93
95
105
107
105
107
110
110
112
115
112
107
95
89
93
98
105
112
112
112
112
117
117
117
120
120
117
115
115
117
117
117
117
120
120
122
122
125
127
129
127
129
129
127
127
125
122
122
122
117
112
105
110
117
112
112
115
117
117
112
105
105
105
98
95
95
103
105
103
105
105
105
107
110
107
100
93
93
98
105
112
112
112
115
117
115
120
122
122
122
120
122
120
115
120
122
122
125
127
127
129
127
129
127
129
127
127
127
127
125
120
120
120
115
115
110
115
117
117
115
117
117
117
115
110
107
105
103
103
103
105
105
107
107
107
107
110
107
103
95
91
91
100
105
112
115
115
120
120
117
122
120
122
122
125
125
122
120
120
122
125
127
129
129
132
129
129
127
125
125
125
122
122
122
120
117
112
115
120
112
110
117
120
122
120
117
117
117
115
110
105
100
98
103
107
107
107
110
112
112
110
105
100
93
91
89
100
105
110
115
117
120
122
117
120
120
120
125
125
125
122
122
122
122
125
127
129
132
129
129
129
127
122
125
122
120
125
122
120
115
112
115
117
115
112
115
120
122
122
117
122
122
120
115
110
103
100
105
107
107
107
107
110
107
105
103
100
95
93
93
100
107
107
110
110
115
120
117
117
120
120
122
122
122
125
125
122
122
127
129
129
132
132
134
134
129
127
122
120
122
125
122
117
112
112
115
115
115
117
117
117
117
122
120
125
120
122
120
115
107
105
103
103
103
103
103
103
100
100
98
98
95
95
98
103
107
110
110
110
115
120
120
120
120
120
122
122
125
125
125
122
122
127
132
132
129
129
132
132
129
129
127
125
122
122
120
112
112
115
120
117
117
117
115
115
117
120
120
120
115
115
112
110
105
103
100
98
98
95
95
93
93
93
93
91
91
98
103
107
107
112
112
117
117
115
117
117
115
117
120
122
122
122
120
120
122
127
132
132
132
129
129
132
132
132
129
125
120
117
112
110
115
115
115
117
117
117
117
117
120
120
120
110
107
105
103
98
95
93
93
91
93
93
91
86
84
84
86
86
86
95
105
110
110
112
112
115
115
115
115
115
115
117
115
115
115
115
115
115
120
125
127
127
127
127
127
127
127
125
120
117
112
107
105
107
110
112
110
112
115
115
115
115
117
117
117
103
100
95
91
86
86
89
91
89
86
89
89
84
82
80
82
84
86
91
98
103
103
105
110
110
112
112
110
107
110
112
115
112
112
110
107
105
107
112
117
120
120
122
120
117
115
115
110
107
103
98
98
100
105
107
110
110
112
110
110
115
120
120
117
93
91
89
84
80
82
82
86
86
89
89
86
84
84
80
82
86
89
89
89
93
95
98
98
98
98
100
100
100
100
103
105
105
103
100
95
91
95
100
103
105
105
105
105
103
103
100
100
95
91
89
89
95
98
103
103
100
100
100
100
107
115
117
117
89
86
84
82
82
84
82
84
89
91
89
86
89
89
89
89
91
91
89
89
91
91
93
91
93
93
93
95
95
98
100
98
95
93
93
86
84
86
93
95
95
93
93
93
93
91
91
89
89
91
89
93
98
100
103
100
100
98
98
100
105
110
115
117
91
89
86
86
86
86
89
91
93
95
95
98
100
103
103
100
100
98
98
98
95
93
95
95
95
93
93
95
95
95
98
95
93
91
86
84
82
84
89
93
93
91
89
89
91
95
98
103
105
107
110
112
115
117
120
117
115
107
103
103
105
110
117
122
93
93
95
98
98
100
103
107
110
112
112
115
115
117
117
117
115
110
107
105
103
100
98
100
100
98
95
93
95
98
98
93
95
98
93
91
91
93
95
100
98
95
93
95
103
107
112
115
120
122
122
122
125
127
129
129
125
122
115
110
105
105
107
117
105
110
112
115
115
117
122
125
125
125
125
122
120
122
122
125
122
117
112
110
107
107
105
105
107
105
103
103
103
103
103
103
105
107
110
107
105
105
105
110
110
107
107
107
112
115
115
117
122
122
125
125
127
125
127
127
125
125
127
120
110
105
105
107
125
125
127
127
129
132
134
137
132
132
132
129
125
122
122
125
125
122
115
112
112
107
107
110
110
107
107
110
112
112
112
110
110
112
115
115
110
107
107
110
117
117
112
117
120
120
117
117
120
117
122
125
122
122
122
122
122
125
129
127
122
117
115
112
132
129
129
129
134
137
137
137
134
134
134
134
127
122
122
122
125
125
122
122
117
115
117
115
110
110
112
115
115
115
115
112
110
112
115
112
107
105
107
110
120
120
117
117
120
122
120
117
122
122
122
120
120
120
122
122
120
120
125
127
127
129
125
120
134
132
129
134
137
137
139
134
134
137
137
132
125
127
125
122
127
127
127
127
127
122
117
115
115
115
120
120
115
115
115
110
110
112
115
112
107
103
103
110
117
120
117
117
120
120
117
117
122
125
120
117
120
125
120
117
112
112
120
122
125
127
127
122
132
132
132
134
134
137
137
134
134
134
134
129
129
132
127
120
125
127
127
127
127
127
120
115
115
120
122
120
117
115
115
112
112
117
120
117
112
105
105
112
115
115
117
117
117
117
115
117
120
120
117
117
120
125
120
112
110
117
122
117
117
117
120
120
127
132
132
134
137
137
139
134
132
134
134
132
132
132
127
122
122
125
127
125
122
125
122
120
122
122
122
120
120
117
117
115
117
117
122
122
115
110
110
110
112
112
115
112
115
115
115
112
115
117
120
120
122
125
122
115
112
117
115
115
115
117
112
112
127
129
132
132
134
137
139
137
134
132
137
134
132
129
129
125
122
125
127
127
125
125
122
122
127
129
129
125
122
117
117
115
117
117
122
122
115
107
107
110
110
112
110
112
115
115
117
112
115
117
120
120
120
122
120
112
112
112
112
115
117
112
112
115
