P2
# 466 of 608 Angiograms
64 64
255
91
91
91
95
95
86
84
89
84
82
78
76
78
78
74
74
74
72
74
78
76
76
78
78
76
76
74
74
76
76
78
82
82
80
78
78
80
76
78
78
80
80
74
74
72
76
78
76
78
80
80
78
76
76
78
76
72
72
74
72
72
70
72
72
93
93
89
91
91
89
89
91
82
76
78
76
76
74
70
70
66
66
70
76
74
72
74
76
78
76
74
78
78
76
76
78
80
80
78
80
78
76
78
80
82
80
74
74
76
82
82
80
82
80
84
82
78
78
80
76
74
72
72
72
76
74
72
72
93
91
84
86
86
86
86
86
82
76
76
72
72
72
70
64
64
64
66
70
68
68
74
74
76
74
74
76
74
74
76
76
78
80
82
78
78
78
76
76
76
78
78
76
76
82
84
82
82
80
82
82
80
78
80
78
74
72
74
72
72
70
72
72
89
86
84
86
86
86
84
82
78
76
74
70
70
68
70
68
66
64
64
66
64
66
70
76
76
74
72
72
72
74
72
74
76
80
80
78
78
76
74
72
74
76
78
76
78
82
82
84
84
82
78
80
82
80
82
78
72
72
74
72
72
70
74
72
82
84
89
86
82
82
84
82
80
78
72
70
70
64
70
72
68
62
66
68
66
68
72
78
78
74
72
70
76
76
76
76
76
76
78
78
78
76
74
74
76
80
82
78
80
82
82
82
84
84
80
80
82
82
80
76
74
74
76
70
70
72
72
72
78
78
84
84
82
84
86
84
80
78
74
72
72
68
70
72
68
64
68
68
68
68
74
78
80
76
74
74
78
78
78
80
76
76
78
78
78
78
76
78
76
78
78
80
80
80
82
82
84
86
84
82
80
80
80
78
76
76
76
72
68
72
72
72
84
80
80
80
82
84
89
84
80
78
78
78
74
70
70
70
66
66
68
70
70
70
74
78
76
74
72
76
76
78
76
74
78
78
78
78
78
78
76
78
74
76
76
76
78
82
82
80
84
84
84
82
78
80
80
80
78
78
76
74
70
72
74
72
86
82
80
80
84
84
86
84
80
76
78
76
74
72
70
68
66
66
68
72
68
66
70
72
72
68
70
76
74
74
74
74
80
78
76
76
76
80
80
78
74
74
76
76
78
80
82
84
86
82
82
84
80
82
82
80
80
76
72
72
74
76
74
70
86
84
82
80
86
84
86
84
80
78
78
76
72
72
70
66
64
66
70
70
66
66
68
70
70
68
70
72
74
74
72
74
76
76
74
72
74
78
78
78
74
72
76
78
78
80
80
82
86
82
84
82
76
80
82
80
74
72
70
72
76
76
76
74
84
86
86
86
86
84
84
84
80
78
76
74
72
70
64
64
64
64
66
70
70
70
70
72
72
70
72
74
76
74
70
70
76
78
74
72
72
76
74
76
76
76
78
78
76
80
84
84
84
82
82
78
76
76
78
78
76
74
72
70
74
76
78
74
82
82
86
89
84
84
84
86
84
80
76
76
74
70
64
66
66
64
66
72
72
72
72
70
72
72
72
76
76
72
68
72
78
78
72
70
70
72
74
76
80
80
80
76
76
80
89
86
86
84
80
80
78
78
80
78
78
74
70
68
70
72
74
72
78
80
86
86
84
86
86
86
84
84
80
78
76
74
70
70
70
68
68
66
70
68
72
74
72
70
72
74
76
74
72
72
76
76
70
70
72
72
76
80
80
80
78
76
78
82
84
82
84
84
82
78
76
76
78
76
78
74
72
72
70
72
72
70
78
80
86
86
84
84
89
86
84
80
80
78
74
74
72
76
74
70
64
62
68
70
68
72
72
74
74
72
76
78
78
76
76
74
70
72
74
74
76
80
82
80
76
74
78
82
82
80
82
82
78
76
74
76
72
72
72
74
72
72
74
76
72
70
78
82
82
82
84
84
82
80
82
80
78
74
72
70
72
76
74
70
66
64
66
70
74
70
70
74
76
72
74
78
78
80
80
78
70
70
72
74
76
76
82
82
78
80
82
82
84
82
80
78
76
74
76
72
68
72
74
76
74
78
80
78
72
70
84
82
82
82
82
80
76
80
78
78
76
74
74
74
74
70
70
66
64
68
68
68
72
70
68
72
74
72
70
76
76
74
76
74
74
72
74
76
78
80
82
82
82
82
82
84
84
80
78
76
78
74
72
70
70
72
74
78
78
76
78
80
72
68
84
84
86
84
80
80
80
80
76
78
76
76
74
76
76
72
68
66
66
66
66
70
72
72
68
68
70
72
68
72
74
74
76
76
74
74
76
80
82
84
82
82
80
78
78
78
78
76
74
76
78
74
74
72
70
70
72
74
76
80
78
80
72
68
80
80
84
82
78
80
80
78
78
74
74
72
68
72
74
72
68
66
68
66
68
72
72
74
72
68
72
72
72
72
74
78
80
76
74
76
80
82
84
86
84
82
76
74
74
76
78
74
72
78
78
76
80
78
74
72
74
76
78
80
78
78
74
68
80
80
82
82
80
80
84
82
76
74
78
76
72
74
74
72
68
70
76
70
72
72
68
72
72
72
74
74
72
72
74
80
80
78
76
80
84
86
86
86
86
82
80
78
76
76
78
78
80
80
78
76
78
80
78
76
78
78
80
82
78
78
74
68
80
78
78
80
80
78
86
84
76
76
78
78
76
76
72
72
72
74
76
74
74
72
68
68
70
72
72
74
74
72
76
80
86
84
82
82
84
86
86
86
89
89
86
86
82
76
78
82
86
86
84
80
80
78
80
74
78
80
82
84
80
78
74
72
82
80
78
80
82
82
86
86
76
76
74
74
74
76
72
72
72
74
74
70
74
72
66
66
70
72
72
70
72
74
76
80
82
84
86
86
89
86
89
89
89
91
89
89
84
80
82
89
89
89
86
80
76
74
78
76
78
80
80
80
82
78
76
78
84
82
80
84
89
89
86
84
80
76
78
76
72
72
72
70
74
76
76
72
70
70
70
70
70
72
72
72
74
76
76
76
80
80
82
86
91
89
86
91
91
89
91
89
84
78
78
84
86
84
80
78
74
76
78
80
78
80
82
78
80
80
80
80
86
84
82
82
84
84
86
82
80
76
78
78
74
70
68
70
72
74
78
76
72
70
70
68
70
74
76
72
76
80
78
76
76
76
80
89
91
89
91
93
93
91
91
86
78
78
80
80
86
82
78
78
78
80
78
78
78
80
78
76
78
82
80
76
84
84
80
82
84
84
82
82
80
80
78
74
72
70
72
74
72
72
76
80
74
72
70
68
72
76
76
76
78
80
78
74
76
76
80
91
91
93
93
91
91
89
86
82
80
80
82
82
82
82
80
76
76
78
78
74
78
76
74
76
76
78
80
78
86
84
82
82
82
86
82
82
78
76
74
72
72
70
72
74
74
72
74
74
70
72
70
70
76
74
72
74
78
82
82
78
80
80
82
91
95
98
93
89
89
86
80
82
80
78
80
80
80
80
80
76
72
74
76
74
74
74
74
74
76
76
80
80
84
86
84
84
84
82
82
78
74
74
76
74
70
70
70
72
74
72
70
74
74
72
72
70
76
74
70
72
78
78
78
80
84
86
84
89
89
93
93
91
89
89
86
82
80
76
78
82
82
80
78
80
76
76
74
74
74
76
74
74
78
78
78
78
84
91
89
84
84
84
82
76
72
74
76
74
72
72
72
74
70
70
74
76
74
72
72
72
76
78
76
76
76
78
78
84
86
86
86
89
91
93
98
93
93
91
86
84
80
78
78
82
82
80
76
80
76
74
74
72
74
76
74
72
78
80
80
80
89
91
89
86
86
86
84
76
76
76
76
76
76
74
74
74
74
72
72
72
74
74
70
72
74
76
76
76
76
74
78
84
86
86
89
91
95
95
98
98
93
89
86
86
82
78
80
82
80
78
76
80
76
76
76
74
74
74
76
78
80
82
80
82
91
89
84
84
86
86
86
80
76
78
80
80
76
74
74
74
74
74
72
70
72
72
72
70
70
72
72
74
76
78
82
84
84
86
86
91
95
98
98
95
93
86
86
89
80
78
78
78
78
76
78
80
78
76
74
74
74
76
78
80
82
84
84
80
91
89
86
86
86
82
82
78
78
80
80
78
76
72
72
74
74
72
70
70
70
70
72
72
68
66
68
70
74
80
82
82
80
84
86
86
93
95
95
93
89
86
86
86
82
78
78
80
80
80
78
78
78
78
74
70
72
78
82
82
80
80
84
84
91
89
89
89
86
84
84
78
78
80
80
80
76
76
70
72
74
76
74
72
70
76
76
74
70
66
70
72
72
76
78
80
80
80
84
82
89
93
95
93
89
89
89
84
80
78
80
80
80
78
78
78
76
74
72
72
74
82
84
84
84
82
80
82
86
84
84
86
86
84
86
86
82
82
78
76
76
78
74
72
74
74
72
70
68
72
70
72
72
70
70
74
76
78
78
80
80
80
82
84
89
91
93
93
95
91
86
82
78
80
80
78
76
76
76
76
76
74
76
76
74
82
84
89
89
84
82
82
93
86
84
84
84
82
84
86
82
80
76
72
76
78
74
74
72
76
74
70
68
70
72
74
74
72
74
74
76
80
82
84
82
82
82
82
84
89
91
93
95
93
89
84
78
80
80
78
78
78
78
70
70
74
74
74
78
80
82
86
84
84
82
80
93
91
84
84
84
84
84
84
80
76
72
70
72
76
78
72
70
76
78
72
72
78
74
72
72
74
72
74
76
80
82
84
84
82
76
82
89
86
84
91
93
93
91
86
78
80
76
76
78
78
78
72
68
72
72
76
80
82
80
82
84
80
78
80
91
89
82
84
84
84
86
82
76
76
72
68
70
76
78
74
70
68
72
74
72
74
72
72
70
72
70
70
74
80
84
86
84
82
78
84
89
89
86
89
89
86
86
82
78
78
76
78
76
74
74
72
72
74
78
80
78
80
82
82
80
80
80
80
91
86
84
86
89
89
84
78
76
74
72
68
68
72
74
72
70
66
68
70
70
70
70
70
68
70
72
72
74
78
84
84
82
80
84
86
84
86
89
91
89
84
82
78
78
78
78
76
78
78
72
70
74
80
84
84
78
80
82
82
80
80
82
82
84
84
86
91
93
89
80
78
76
74
68
68
70
72
70
72
72
70
70
70
70
70
68
68
66
70
76
76
76
74
82
80
80
80
84
84
80
84
91
89
84
84
78
74
76
76
76
72
76
76
72
72
76
80
84
84
80
80
82
84
82
80
82
82
84
84
86
93
93
84
78
76
76
76
70
66
72
72
70
74
76
74
74
72
74
72
70
70
68
70
70
72
72
74
78
80
78
78
82
80
78
82
86
84
84
82
80
76
74
70
70
74
78
76
76
74
76
80
84
86
82
80
84
82
80
80
78
80
86
86
86
91
89
82
76
72
74
76
74
72
72
70
68
72
76
74
76
76
76
72
70
72
70
68
68
68
72
72
76
78
78
78
84
82
82
82
82
82
82
80
80
78
76
72
74
76
76
76
76
74
72
78
84
86
82
80
80
80
78
78
76
78
91
86
86
89
86
82
76
74
76
74
72
72
72
68
68
70
72
72
74
76
74
68
68
70
68
68
70
72
74
74
78
78
80
86
84
84
86
80
80
82
78
76
76
76
76
72
76
76
70
68
72
74
72
76
82
82
78
78
76
74
78
74
74
74
93
91
86
84
82
80
76
72
72
72
72
72
70
66
64
68
70
70
68
70
64
66
64
72
72
70
74
74
76
78
78
80
86
89
84
80
80
78
80
82
78
74
72
72
72
70
72
70
70
70
72
70
70
78
76
76
74
78
76
76
78
76
74
74
91
89
84
86
84
78
76
70
66
70
72
70
70
68
68
68
66
66
64
68
64
66
66
70
70
68
72
74
72
76
76
76
82
82
82
82
80
80
80
80
76
72
68
70
68
66
70
72
74
74
74
72
74
78
78
80
76
78
78
76
78
74
74
76
91
86
89
86
84
80
74
68
64
68
72
68
70
70
72
68
68
68
70
68
64
66
68
70
70
68
72
76
74
74
76
78
78
78
80
82
80
80
80
76
74
70
68
66
66
66
70
72
70
70
74
70
74
76
76
78
78
76
80
80
80
78
78
78
89
89
86
82
80
78
72
66
64
68
70
68
66
70
72
70
68
68
68
66
68
70
72
70
68
72
72
76
78
78
78
78
76
74
76
78
80
78
80
78
72
70
68
66
66
66
70
72
68
70
76
74
74
78
80
82
82
80
80
78
74
74
80
80
91
91
89
82
80
76
70
66
64
66
68
66
68
68
72
70
66
70
70
68
70
72
70
66
66
68
70
70
74
76
76
74
78
78
78
78
78
76
80
82
76
70
68
68
68
68
72
74
72
70
74
78
78
82
84
86
84
80
76
80
76
72
76
80
95
91
91
84
80
76
70
66
66
64
68
66
64
64
70
68
68
70
70
68
70
70
70
68
66
68
68
68
70
70
70
74
76
80
78
78
78
74
74
74
76
72
68
66
68
68
70
74
74
72
74
76
82
86
86
86
86
78
78
78
76
72
74
76
93
91
89
86
80
76
70
66
68
68
70
68
64
64
66
64
66
68
70
66
68
70
72
70
66
68
68
68
68
68
70
72
76
76
76
74
74
74
74
74
76
76
72
66
70
72
72
74
72
74
76
78
86
89
86
84
84
80
78
76
78
78
78
80
91
91
89
82
80
76
74
70
72
70
68
68
64
64
64
62
64
64
66
64
68
70
72
68
66
70
70
68
70
72
72
74
70
74
74
74
72
74
74
72
76
74
72
72
72
70
72
72
72
74
76
80
89
86
84
82
82
80
78
78
80
82
80
80
86
82
84
84
82
76
72
72
72
70
66
68
64
66
68
64
64
64
64
66
70
72
70
68
66
68
68
68
70
72
72
70
70
72
74
76
74
74
74
76
78
76
74
74
72
70
70
74
78
78
80
82
89
86
86
89
84
82
78
82
82
80
76
80
89
82
82
84
80
74
68
68
72
70
68
70
68
70
68
64
64
62
62
68
70
68
66
66
64
62
68
70
72
72
70
66
68
70
72
72
72
74
74
76
76
76
72
70
72
72
72
78
82
82
82
86
89
89
89
86
86
86
84
82
82
82
82
84
91
84
84
84
82
78
70
70
70
70
72
70
70
66
64
64
64
66
66
68
64
64
64
68
66
66
68
66
70
70
66
64
66
68
70
72
74
76
76
74
74
76
76
76
76
74
76
76
78
84
86
89
86
86
86
84
82
86
82
80
80
82
84
86
89
82
84
84
82
78
72
72
70
68
70
70
68
64
64
64
66
68
68
64
64
64
64
64
64
66
62
64
68
70
66
64
64
70
72
74
74
76
76
74
74
80
78
78
76
76
78
76
82
84
84
89
91
91
86
84
82
82
84
80
78
80
84
84
86
82
82
82
82
78
74
72
70
70
68
70
66
62
64
68
66
66
66
64
60
64
68
64
60
58
60
66
68
68
64
64
68
72
72
74
72
76
74
74
80
80
78
76
76
80
80
78
82
84
84
86
91
89
84
86
84
86
84
82
80
82
84
82
86
82
80
80
82
78
76
70
68
70
70
64
62
62
66
70
68
64
64
66
62
62
66
62
58
60
62
68
72
72
68
66
70
74
74
76
74
76
74
76
78
78
78
80
80
82
80
82
80
82
84
84
86
86
82
82
84
89
84
86
84
82
80
78
86
84
84
84
84
78
78
70
70
70
66
62
62
64
66
66
64
64
62
64
66
64
64
64
58
60
62
70
74
72
72
72
72
76
76
76
74
76
78
78
78
76
80
82
84
80
78
80
80
86
89
84
84
84
84
84
89
89
86
84
86
84
80
78
86
82
80
78
78
76
78
72
70
68
66
64
66
62
64
62
60
62
62
62
60
62
64
62
62
60
60
68
70
72
72
74
76
80
80
80
80
80
82
84
84
80
82
82
84
82
78
80
82
91
95
86
86
86
89
89
89
89
86
82
82
82
82
78
82
76
76
76
80
74
76
72
70
68
66
68
66
58
58
58
58
60
64
66
64
60
62
60
60
60
62
66
68
72
74
78
80
80
82
84
84
82
86
89
89
84
82
80
82
80
82
86
84
91
93
89
89
89
89
89
86
84
84
86
84
82
82
76
80
76
76
80
80
76
72
72
70
68
66
66
68
58
55
55
58
58
62
64
62
60
57
58
60
62
66
66
68
72
74
78
82
82
80
84
84
82
86
84
84
89
84
80
80
78
80
86
86
89
89
91
93
89
89
91
89
84
84
84
84
82
78
76
82
78
82
84
82
78
74
72
72
70
66
64
64
60
58
58
58
57
55
55
57
57
55
57
62
62
66
68
70
72
72
74
84
84
78
82
84
82
82
82
86
86
84
80
80
80
80
84
86
86
86
89
89
89
89
89
91
86
89
86
86
82
78
80
82
78
78
80
80
78
78
78
76
74
68
62
62
62
64
60
62
60
55
57
57
57
58
60
62
64
68
70
72
74
74
76
82
82
80
84
86
84
82
82
82
84
80
82
80
78
82
86
86
86
86
89
89
89
89
91
89
89
89
84
80
78
78
78
80
74
74
80
78
78
78
78
78
78
68
60
64
64
64
60
58
60
58
58
60
60
60
62
64
66
70
70
72
76
76
80
84
80
80
84
89
86
84
82
82
82
78
78
78
78
82
84
84
84
84
86
86
86
86
86
84
84
84
78
78
76
72
78
82
78
76
78
78
80
78
78
80
76
68
64
64
64
64
58
55
58
57
57
60
64
62
62
64
66
68
72
76
80
80
84
86
80
80
86
86
84
86
86
82
78
78
78
78
80
84
84
82
82
84
84
80
82
84
84
84
84
82
76
74
72
74
80
84
80
78
76
80
80
80
80
76
72
70
68
64
64
64
60
55
58
58
57
58
60
58
62
66
66
70
74
74
78
80
84
84
82
80
86
84
80
82
84
84
82
78
78
78
80
82
84
82
80
82
82
80
80
82
84
82
84
84
76
72
74
78
82
82
78
76
76
76
80
80
76
70
70
72
68
68
68
64
62
58
58
55
57
57
57
57
60
64
70
72
74
76
80
80
82
84
80
80
84
86
84
82
84
84
80
78
78
78
78
78
82
84
82
82
82
82
80
82
84
82
82
80
74
72
78
84
86
78
76
74
74
72
74
74
72
68
68
70
66
64
66
62
60
60
60
55
55
58
58
57
62
66
72
74
74
78
78
80
82
84
80
80
86
89
82
82
82
80
80
80
78
78
78
80
82
82
82
80
80
80
80
82
84
82
80
78
74
76
80
89
89
