P2
# 468 of 608 Angiograms
64 64
255
110
120
122
125
120
117
115
115
110
105
98
100
112
122
122
127
129
127
120
117
117
122
120
117
122
125
127
129
132
132
134
132
129
129
132
129
127
127
127
127
125
125
127
125
125
125
125
127
134
134
129
127
125
125
120
105
93
89
89
98
103
110
117
127
110
117
122
125
122
120
117
112
107
103
100
107
117
122
122
125
127
122
115
115
117
120
120
120
125
127
129
132
132
129
127
125
125
129
132
129
127
129
127
125
120
115
117
120
122
125
127
132
134
132
127
127
125
127
120
107
95
89
89
91
100
107
115
127
112
120
125
127
127
122
115
107
103
103
107
115
120
122
125
125
122
120
115
115
117
112
115
122
127
127
127
127
125
125
122
122
120
125
125
125
125
125
127
125
120
112
110
115
120
125
127
132
137
132
125
127
129
129
125
110
98
93
95
93
98
107
115
127
115
122
125
125
122
115
107
105
105
110
115
117
117
120
129
127
120
117
120
120
120
120
122
125
127
122
122
122
122
120
122
122
120
120
120
120
117
115
120
122
117
112
110
112
117
122
127
129
134
129
127
129
129
129
127
115
100
93
98
98
98
105
115
127
117
122
120
120
115
107
105
107
110
115
117
115
117
122
127
122
117
117
120
122
120
120
125
125
120
117
112
115
120
120
122
122
120
117
115
112
110
110
112
117
117
115
115
117
117
125
127
129
132
129
129
132
134
134
129
117
103
95
95
98
98
105
115
127
117
117
120
115
105
103
105
110
112
117
115
115
120
122
122
117
112
112
117
117
117
120
120
115
115
115
115
117
120
120
122
120
120
115
112
107
110
110
110
112
117
117
117
120
122
125
129
132
134
132
129
134
134
129
129
120
107
100
95
98
100
105
115
122
115
117
115
107
103
100
105
115
112
112
115
115
117
117
112
112
115
112
112
112
115
117
112
112
117
122
125
122
120
120
120
115
112
115
117
112
112
110
110
110
112
117
120
120
122
122
129
134
134
137
132
134
129
127
129
122
112
100
95
95
100
105
112
117
110
110
105
103
100
103
105
110
107
110
112
112
112
107
110
115
117
120
115
117
115
112
112
117
120
125
125
122
120
120
117
115
115
115
117
117
112
112
112
110
110
115
120
125
125
122
129
134
137
137
134
132
127
127
129
127
117
103
95
95
98
103
110
115
107
103
98
100
103
105
105
105
103
112
112
112
112
112
115
117
125
127
122
120
122
122
120
120
120
120
120
125
122
122
120
117
117
120
120
120
117
117
117
117
112
115
125
127
125
125
132
137
139
137
134
132
127
129
132
127
122
110
98
98
95
98
107
115
98
95
98
100
100
103
105
105
110
115
115
112
115
115
117
122
129
125
122
122
122
127
127
122
120
117
115
117
120
120
122
122
122
125
122
122
122
125
127
127
122
122
125
125
122
125
132
137
142
137
137
134
129
127
132
132
127
117
103
98
95
98
103
112
91
95
100
105
107
107
107
110
115
117
120
115
115
117
120
125
127
125
122
122
125
122
120
117
120
120
115
112
115
117
125
125
125
127
125
125
125
127
125
127
125
125
122
122
122
125
129
137
142
139
137
137
129
129
134
134
129
125
112
100
98
100
103
107
95
103
105
110
110
107
112
112
115
117
120
115
117
122
125
125
125
125
125
122
125
122
117
117
117
117
115
115
117
120
120
125
129
129
125
125
127
129
125
122
125
122
122
125
125
122
125
132
139
139
137
137
134
132
134
137
132
129
122
107
100
98
98
105
105
112
112
112
110
107
112
112
112
115
117
120
122
127
127
127
122
122
125
125
127
122
120
122
117
115
115
115
120
122
122
127
129
127
127
129
127
132
125
120
122
125
122
127
127
122
120
127
134
137
137
137
139
134
134
134
132
132
127
120
105
98
95
103
112
117
117
112
110
107
110
110
115
117
120
120
122
127
127
127
127
125
125
125
122
122
122
125
120
112
115
117
120
122
122
125
127
127
125
129
129
129
127
122
122
125
125
125
127
125
122
122
129
134
137
137
139
134
134
134
132
132
132
127
115
103
100
103
115
117
117
117
112
110
110
115
117
120
120
117
122
125
127
127
127
125
125
125
122
122
125
125
120
120
120
120
120
120
120
122
120
125
122
125
129
129
127
125
122
122
122
125
129
129
125
120
127
132
134
132
132
134
134
134
132
134
137
134
125
110
105
103
120
112
112
112
110
112
112
115
117
120
117
115
120
125
125
125
125
127
127
127
125
120
125
127
120
120
120
120
120
120
120
120
122
125
122
122
125
129
129
127
127
127
122
122
129
132
127
125
122
129
129
129
132
134
132
132
132
132
134
137
129
117
105
103
120
115
115
112
110
112
112
112
117
120
120
117
120
122
127
125
125
127
129
127
122
120
125
125
122
122
125
125
122
122
120
120
122
125
122
122
125
125
127
127
129
129
125
122
127
132
129
125
122
127
127
129
127
129
132
132
132
129
132
134
132
122
107
103
117
117
120
117
115
115
115
115
117
122
122
122
117
117
122
120
117
120
122
125
125
122
122
120
122
127
127
127
125
122
122
125
127
127
125
122
125
122
125
125
127
125
122
125
125
127
127
122
125
129
134
132
127
125
125
125
129
127
129
132
132
125
112
107
117
117
120
122
122
120
120
117
120
122
122
122
120
117
117
115
115
120
120
120
117
120
120
125
125
127
127
122
125
125
122
125
127
127
125
122
122
125
125
125
127
127
125
125
122
127
125
120
122
129
134
137
132
129
125
120
122
125
127
129
132
127
120
117
120
120
120
122
122
122
120
117
117
120
117
117
117
115
112
110
110
112
115
117
115
115
117
125
125
122
122
125
125
122
120
122
125
125
125
122
120
122
125
122
120
125
127
122
125
125
120
115
117
127
132
134
134
132
129
122
117
120
120
122
127
125
125
120
125
122
120
120
122
122
122
120
117
117
117
117
120
115
110
105
105
107
107
107
107
110
112
120
125
122
120
125
125
122
120
125
127
125
122
122
120
122
125
122
122
125
127
122
120
120
112
105
112
125
127
132
132
129
132
127
122
120
117
120
117
120
122
122
125
122
120
122
120
117
120
120
115
117
117
117
117
112
107
105
103
103
100
98
100
103
107
110
117
122
120
120
122
120
122
127
127
127
122
125
122
122
125
125
125
129
129
125
117
115
107
105
115
125
129
132
132
129
127
129
127
125
122
122
120
117
117
120
127
122
120
120
117
115
115
120
117
117
115
112
110
107
107
105
103
98
100
100
103
105
105
105
107
112
115
117
117
120
122
127
127
125
120
122
125
125
129
129
127
129
129
125
120
115
107
107
115
125
129
129
132
129
129
134
134
132
132
132
127
125
125
125
125
125
117
115
112
117
120
122
117
115
112
107
103
103
103
100
95
95
98
100
103
105
105
100
103
105
107
110
115
117
120
122
122
120
117
117
122
125
127
125
125
129
129
127
122
112
105
107
117
125
127
129
132
132
134
139
139
137
137
137
134
132
132
132
125
125
117
115
115
117
117
115
107
105
105
100
100
100
95
98
95
95
100
98
98
100
103
100
100
103
105
105
110
115
115
112
112
112
112
115
120
125
125
122
125
127
127
125
120
107
103
107
120
125
127
132
134
134
137
144
142
142
139
139
134
134
137
139
125
120
115
112
112
110
107
103
98
98
98
98
100
100
100
100
100
95
95
95
93
93
95
98
98
98
100
103
105
107
107
105
105
107
107
110
115
120
120
120
120
122
122
120
117
107
103
107
120
125
129
134
139
139
139
144
144
147
144
142
137
139
139
139
117
112
107
105
103
103
103
98
98
98
100
105
110
110
112
110
107
100
95
95
95
95
93
93
95
93
93
98
100
100
98
100
98
98
100
100
105
110
110
110
110
110
112
115
110
105
103
110
122
125
129
134
139
142
142
144
147
149
144
142
142
142
142
142
105
103
103
98
95
103
105
103
103
105
110
112
117
120
122
120
115
110
103
98
98
103
100
98
95
95
95
98
98
100
98
95
91
93
95
95
95
100
100
100
98
100
100
103
100
98
100
110
122
122
127
132
137
142
144
144
144
147
142
142
144
144
139
139
91
91
91
93
95
100
103
105
105
110
115
120
120
125
132
132
125
120
110
105
103
103
103
103
103
103
103
100
100
103
98
93
91
93
95
93
91
93
91
89
89
91
93
91
89
91
98
110
120
122
127
132
137
139
142
144
144
144
144
144
144
142
137
139
80
84
84
89
91
95
98
103
105
105
110
117
120
122
129
134
134
127
120
112
110
110
110
110
110
110
107
105
103
103
98
98
100
100
98
98
93
91
86
82
78
80
84
84
80
82
93
105
117
122
127
134
134
139
142
139
139
139
142
142
139
142
139
139
76
82
82
82
86
89
91
91
93
95
100
105
112
115
122
127
129
129
127
117
115
117
115
112
115
112
110
107
105
107
103
105
107
112
112
107
100
91
86
80
74
72
76
78
74
76
86
100
115
122
127
132
132
134
137
134
134
134
137
137
137
139
139
139
82
89
89
89
89
91
91
89
91
91
95
100
103
105
112
117
122
122
125
122
117
117
112
110
112
112
112
112
110
107
107
110
115
117
120
120
110
98
91
84
80
74
72
76
78
80
89
98
110
117
122
127
129
132
134
134
132
134
137
137
137
137
139
139
93
100
105
105
103
100
100
100
100
100
103
105
103
107
105
110
115
117
122
120
120
117
115
112
115
115
117
117
112
107
107
112
117
120
122
122
117
107
100
93
86
80
74
76
80
86
91
98
105
112
115
120
125
129
132
132
132
134
137
137
137
137
137
142
107
112
120
122
122
120
117
115
112
110
110
110
107
105
103
103
107
115
120
120
117
120
117
117
122
120
120
117
117
110
107
112
115
122
125
127
122
115
107
100
93
84
78
78
84
91
93
103
105
107
112
110
115
122
125
127
127
129
132
134
137
139
139
144
117
120
125
127
125
125
125
125
120
117
117
117
115
110
103
100
100
105
112
117
117
117
117
120
122
125
122
117
115
110
105
110
115
122
125
125
122
115
115
110
100
91
82
80
86
91
93
103
107
110
115
112
112
117
120
122
122
127
127
127
134
139
142
144
120
122
125
125
125
122
125
125
120
120
122
125
122
117
107
100
95
100
105
112
117
117
117
117
120
125
122
117
112
112
105
107
115
117
122
122
120
115
115
115
110
100
86
80
82
86
93
103
107
110
115
115
112
112
117
120
122
125
120
120
127
134
139
144
117
120
120
122
122
122
125
122
120
120
127
129
125
122
112
105
98
100
105
112
115
120
115
112
120
125
122
117
117
112
105
110
115
120
120
122
122
120
117
115
112
107
98
84
80
82
91
103
107
107
107
110
110
112
115
117
120
120
115
110
115
125
129
132
115
117
117
122
122
120
122
122
120
125
132
129
127
122
115
107
103
105
112
115
115
115
115
110
112
120
122
122
120
112
107
112
117
120
122
120
120
120
120
115
112
107
103
93
82
82
93
105
107
107
105
105
107
110
110
110
115
115
107
105
107
112
112
112
115
117
117
122
122
122
122
120
122
129
134
129
129
129
122
115
112
115
117
120
117
117
112
107
107
112
115
117
117
110
107
112
120
120
120
117
117
115
115
115
110
105
105
100
91
91
98
107
110
112
107
105
107
110
110
110
112
107
98
95
98
100
98
98
120
117
117
120
120
122
120
120
127
132
134
132
132
134
127
117
115
120
125
129
127
122
117
110
107
105
112
117
117
110
105
110
117
117
115
112
112
115
115
117
112
107
105
105
98
93
103
112
112
112
112
115
115
115
115
115
115
107
95
91
91
93
91
91
120
120
117
117
117
120
122
125
127
132
134
132
132
134
127
117
115
122
127
129
127
127
122
115
107
107
112
117
115
110
110
110
110
105
103
107
107
107
112
115
112
107
105
103
95
93
105
110
110
112
115
120
120
120
120
117
115
107
100
91
89
89
91
91
117
120
117
115
115
120
122
125
127
129
134
132
132
132
125
115
117
125
127
127
125
127
127
125
115
107
112
115
110
107
107
105
103
100
100
105
105
105
110
110
107
103
103
95
91
95
105
107
107
110
115
117
115
117
117
117
112
105
98
89
89
89
89
89
117
117
115
112
117
122
125
125
127
129
132
132
132
127
120
112
122
125
125
125
125
125
125
125
122
120
115
112
107
107
105
103
100
98
100
100
100
105
105
105
105
103
98
91
93
100
105
105
103
107
112
112
110
110
110
107
103
98
93
86
86
89
89
89
120
117
112
115
117
122
122
122
127
129
127
127
129
122
117
120
127
127
125
127
127
125
125
122
122
125
120
115
110
107
103
100
98
98
100
103
100
103
103
103
103
98
93
93
98
105
107
107
105
107
110
107
105
103
100
98
93
91
89
86
91
93
95
98
120
117
115
115
120
122
117
120
122
125
125
125
120
115
117
122
129
132
127
129
129
127
125
122
125
125
122
120
117
115
105
100
98
103
103
98
98
100
105
100
98
95
95
98
100
105
107
107
110
110
110
105
100
93
86
84
84
84
86
91
93
98
103
103
115
115
117
120
122
120
120
117
120
117
117
115
110
110
117
122
125
129
127
127
127
127
125
125
125
122
122
122
125
122
112
103
100
98
95
95
95
95
98
95
93
95
98
100
103
107
107
107
107
105
105
98
91
84
84
82
80
84
91
91
98
100
103
103
115
117
120
117
120
120
122
122
120
117
112
107
107
107
117
125
127
129
125
122
122
125
122
122
125
120
117
120
122
125
117
107
100
98
93
93
93
91
91
91
91
93
98
100
103
105
103
107
107
105
98
93
86
82
82
82
82
82
86
91
98
100
103
107
120
120
120
117
117
117
122
120
117
110
105
105
107
112
120
125
125
127
125
122
120
120
117
120
125
120
117
120
120
122
117
112
105
98
95
95
91
89
89
91
93
95
100
103
103
105
105
105
105
98
93
86
80
80
80
82
84
86
86
93
98
103
110
115
122
122
120
117
117
117
117
117
112
107
105
107
112
117
120
125
125
122
117
115
115
115
115
112
115
120
120
120
117
120
120
115
112
103
98
95
91
84
84
91
95
98
103
105
105
110
107
100
95
91
86
82
78
76
78
78
84
86
86
95
100
107
115
125
125
122
120
117
115
115
115
112
105
103
105
110
117
122
120
120
117
115
115
117
117
120
115
112
112
117
122
120
120
122
120
120
115
112
103
100
95
86
84
89
95
100
103
103
105
105
98
93
91
86
84
82
80
78
76
78
84
86
91
98
105
115
122
132
125
122
120
117
112
110
110
107
100
103
110
117
120
120
117
117
112
115
120
122
120
117
115
110
112
120
120
120
117
122
120
117
117
112
110
107
100
91
84
89
95
100
100
100
100
93
91
89
86
80
76
74
74
74
76
80
86
91
95
105
110
120
129
137
122
120
120
115
112
107
107
100
100
110
115
115
117
117
117
120
117
117
120
120
117
115
110
112
117
120
117
115
112
115
115
117
120
117
115
115
110
98
89
93
95
93
91
89
89
86
86
84
78
72
68
70
70
70
74
82
89
93
103
107
117
127
132
137
122
125
120
117
112
107
103
100
105
115
117
115
112
112
115
115
117
115
117
120
115
112
112
117
120
120
115
110
112
115
115
115
120
120
115
112
110
103
95
93
93
89
82
82
82
82
82
78
70
64
58
62
66
68
76
84
91
100
107
117
127
127
132
134
117
117
117
117
112
105
100
105
115
117
115
112
110
110
110
110
115
117
117
117
112
112
120
122
120
120
115
110
112
115
117
117
117
117
112
110
110
103
98
93
86
78
76
76
78
74
72
70
66
57
53
55
62
70
82
89
100
110
120
129
132
132
132
134
112
112
115
112
110
105
107
115
122
125
122
120
117
115
112
110
110
117
112
112
115
120
122
122
120
120
115
107
110
115
115
112
115
115
115
112
107
100
93
89
80
76
76
74
74
70
68
68
62
53
48
50
60
76
89
100
112
120
127
129
132
129
132
134
110
110
110
112
107
110
117
125
129
129
129
125
125
120
117
112
112
115
115
117
125
127
127
127
125
122
115
110
110
110
110
112
110
110
110
107
103
93
86
82
78
74
74
74
70
68
70
64
58
48
45
50
62
84
100
112
120
122
125
129
127
127
132
134
110
107
105
107
112
117
125
127
129
129
129
127
125
122
122
117
117
117
122
129
134
137
134
129
127
122
120
115
112
110
112
112
107
105
103
100
91
86
82
80
78
74
76
72
68
66
66
62
55
48
45
53
72
95
112
120
120
122
125
125
125
125
127
132
115
110
110
110
117
125
132
129
127
129
125
125
125
122
120
120
120
122
129
137
142
142
137
132
127
125
122
117
115
110
107
107
103
98
95
91
84
80
78
76
76
76
76
74
68
64
62
62
55
48
47
58
82
105
120
125
122
120
125
125
125
127
127
129
115
115
115
112
117
127
132
129
127
127
125
122
120
120
115
117
120
129
137
139
139
139
134
132
129
125
125
122
115
110
107
100
95
93
89
84
78
74
72
74
72
74
74
76
72
68
68
64
57
50
48
64
86
112
120
122
120
120
122
127
125
125
127
132
115
117
117
115
117
125
127
127
127
127
125
122
117
115
112
117
125
132
134
137
137
137
134
129
127
125
122
120
112
107
100
93
93
91
84
80
76
70
72
74
72
74
78
80
80
76
72
70
62
53
52
68
93
110
120
120
117
120
125
127
127
127
132
132
117
120
117
115
115
117
122
122
125
125
122
120
117
115
117
122
125
132
134
137
137
134
132
129
127
122
120
115
107
103
95
91
89
86
82
82
78
72
74
80
82
84
86
91
89
82
78
74
66
60
58
76
98
107
115
120
115
117
122
125
127
132
134
134
122
122
117
117
112
110
110
115
120
122
122
120
117
120
125
125
127
129
132
132
129
129
127
127
122
117
112
107
100
98
93
89
86
82
80
80
78
74
78
84
91
93
95
95
93
89
84
78
70
64
66
80
100
107
110
115
115
115
120
122
129
134
134
134
120
122
120
115
105
98
95
100
107
112
117
120
120
127
125
122
122
122
120
120
122
122
120
117
115
115
107
103
98
95
91
91
86
82
78
80
82
82
89
95
103
107
110
105
98
93
89
84
72
66
66
82
103
105
105
110
112
112
117
122
129
132
132
132
117
117
115
110
103
91
86
86
93
100
107
112
117
120
117
115
112
112
115
115
115
115
112
110
110
110
105
100
98
95
91
91
89
86
82
84
86
91
100
107
112
115
115
115
107
98
93
86
72
66
66
84
100
105
105
107
110
110
115
120
125
127
127
125
