P2
# 469 of 608 Angiograms
64 64
255
98
103
103
100
103
103
105
107
107
110
105
105
105
105
110
112
115
115
110
110
112
115
112
110
105
107
110
110
115
117
117
115
115
117
112
115
110
107
110
110
112
115
115
112
110
110
110
112
107
103
105
105
103
100
105
105
105
105
105
105
105
107
107
107
103
103
103
103
105
105
103
107
107
105
103
105
105
110
110
110
107
107
110
112
115
112
110
110
107
112
115
115
117
117
115
115
117
117
112
115
110
112
115
117
117
117
115
110
110
110
112
112
107
105
105
107
103
98
100
107
110
107
107
107
105
103
107
110
103
103
103
103
107
107
107
107
105
105
105
107
105
107
105
105
103
107
107
110
112
112
110
107
110
115
115
112
117
120
117
120
120
120
117
115
110
112
117
117
117
112
110
110
112
107
110
112
107
105
110
110
105
103
100
105
107
105
107
110
107
105
110
107
103
105
105
105
107
105
105
110
107
107
107
105
105
107
105
107
105
110
110
112
112
110
110
112
112
115
115
112
117
120
120
120
120
117
115
115
112
115
115
115
117
112
110
110
110
107
112
112
107
105
107
107
105
107
107
105
105
107
105
105
110
110
110
107
103
105
107
105
107
107
105
110
110
110
107
103
105
110
110
107
107
107
107
110
112
115
112
115
115
115
120
120
120
122
117
120
120
115
112
115
112
112
112
110
112
112
110
110
112
110
110
110
110
105
103
105
103
103
110
107
107
110
107
103
105
107
107
105
107
105
107
107
105
105
107
107
112
110
105
103
103
103
103
105
107
110
107
110
110
112
112
112
112
115
120
125
125
122
117
117
117
115
115
115
115
115
112
110
110
115
110
110
112
112
112
110
107
107
107
105
103
105
112
110
110
110
110
107
105
105
105
107
105
107
112
107
103
103
107
105
110
110
103
103
105
103
103
103
107
110
110
107
107
112
117
115
117
120
120
122
125
125
120
117
117
115
112
112
115
115
110
110
110
112
112
112
112
115
115
110
110
107
107
105
103
105
107
105
105
110
107
107
107
105
107
110
107
105
107
105
103
107
110
105
105
105
105
105
105
100
105
107
107
110
107
103
110
117
117
117
122
122
120
117
120
125
122
115
115
117
117
115
115
115
110
107
107
110
112
112
112
110
110
110
110
107
110
112
105
105
105
107
107
105
103
103
105
105
107
112
107
107
110
110
107
107
110
107
110
107
107
105
103
103
110
112
112
110
107
103
112
117
117
120
117
115
115
115
120
125
122
115
110
117
120
117
117
117
112
110
112
112
115
115
112
110
107
105
110
110
110
107
107
107
105
105
105
103
105
105
107
105
110
112
110
110
112
112
110
110
110
112
115
112
107
107
107
107
115
112
110
107
107
107
115
117
115
115
115
115
117
117
117
120
115
115
115
117
117
112
115
117
115
112
117
117
117
115
115
112
107
105
110
107
110
107
105
105
107
105
103
100
105
107
110
110
110
110
110
110
110
112
112
112
112
112
112
115
107
110
110
112
115
112
110
107
107
110
117
115
112
115
117
120
120
120
120
117
112
115
112
115
115
112
115
115
115
112
115
117
117
115
112
112
110
110
110
107
112
110
105
107
107
105
105
105
105
107
105
107
107
110
107
110
110
112
112
115
110
110
112
112
115
112
112
115
112
110
110
110
107
112
120
117
115
117
120
120
120
120
117
120
117
117
115
115
115
112
112
115
115
115
112
112
112
110
110
107
110
112
115
110
110
112
110
107
107
112
112
107
107
107
105
105
107
110
107
110
107
110
110
112
112
110
107
112
117
117
117
115
110
107
107
110
110
112
117
115
112
117
122
122
122
117
115
120
120
117
112
115
115
112
112
115
117
115
112
110
110
110
110
110
110
110
110
107
110
112
115
112
110
112
112
107
105
107
107
107
107
110
112
110
107
110
110
110
112
110
110
110
115
120
120
115
110
110
110
110
112
115
115
117
117
120
120
120
120
117
115
117
120
120
117
115
117
112
112
112
112
112
112
112
115
112
112
110
110
110
110
107
110
112
117
112
110
112
110
110
107
105
105
105
107
107
112
110
107
110
110
112
110
112
112
115
115
117
120
115
112
112
112
115
115
117
117
120
122
120
117
120
122
117
115
115
117
117
115
117
117
112
112
112
115
115
110
112
112
110
112
112
110
112
107
107
107
110
112
110
107
110
110
112
110
107
103
103
107
103
112
110
110
112
115
115
110
110
115
117
115
115
117
117
117
115
110
117
117
115
117
120
125
120
117
117
117
117
117
112
112
115
112
115
120
115
112
110
112
112
112
110
110
105
107
112
107
105
107
107
105
105
110
110
105
110
110
110
107
107
105
105
105
103
110
107
107
112
112
115
115
115
115
117
115
115
117
117
115
117
115
117
117
117
117
120
120
117
117
115
117
115
117
115
112
115
115
115
120
115
110
107
112
117
112
110
112
110
110
112
107
105
107
107
107
110
110
112
110
110
110
107
107
107
110
107
105
103
112
110
107
110
112
112
117
115
115
115
112
115
117
115
117
120
120
120
120
117
115
120
117
117
115
115
117
117
120
120
117
117
117
120
117
115
112
110
112
112
110
110
110
112
117
115
110
110
112
110
112
107
110
110
110
107
110
107
110
110
105
103
107
105
112
112
110
110
110
110
112
115
110
110
107
115
112
112
120
120
120
120
122
122
117
117
117
115
112
112
117
120
120
120
120
122
120
122
120
117
115
112
112
112
107
107
112
115
115
117
112
110
112
112
112
110
107
107
107
107
110
110
110
110
105
105
110
107
112
112
110
107
112
112
115
115
112
112
112
112
112
120
122
117
122
117
117
120
117
117
117
115
112
115
117
117
117
120
122
120
117
122
122
117
115
115
117
120
112
112
112
115
115
115
112
112
115
115
110
110
105
105
107
110
107
105
107
110
105
103
107
110
115
112
112
112
115
115
115
112
112
112
112
112
117
125
125
120
120
120
117
120
117
117
117
117
112
117
117
115
117
120
120
120
117
122
120
117
115
117
117
122
115
115
117
117
115
115
112
110
110
110
110
107
107
107
107
107
107
107
107
107
107
105
100
103
115
112
110
110
115
120
115
112
110
115
115
115
122
125
125
122
120
117
120
120
117
115
115
115
117
120
120
117
117
122
122
120
120
120
117
117
115
115
115
120
117
115
115
112
115
112
112
112
110
112
115
112
112
107
110
107
107
110
110
107
107
107
105
103
115
110
107
112
120
117
115
112
112
115
115
117
125
125
122
122
120
120
120
117
117
120
117
120
120
120
120
120
117
117
117
117
117
115
117
117
115
117
117
120
120
115
110
110
110
110
110
115
115
117
115
115
110
107
107
107
110
110
110
107
105
110
112
110
112
112
112
117
120
115
115
115
117
117
115
120
125
122
120
122
122
120
122
117
117
120
122
120
117
117
117
117
120
120
117
115
115
117
117
117
115
120
120
120
115
115
112
112
112
110
110
110
112
115
110
112
112
112
110
110
112
110
110
110
107
107
107
110
112
112
115
117
120
117
115
117
115
115
115
117
117
117
120
120
122
122
122
120
117
120
122
117
115
115
117
115
117
122
120
115
115
117
117
112
112
115
115
112
115
112
110
112
110
110
110
107
112
117
112
112
115
115
115
112
110
110
110
112
110
107
107
107
110
115
115
120
117
117
115
115
115
115
117
120
115
117
120
120
122
122
122
120
117
120
117
120
120
117
117
117
122
122
120
117
117
117
115
112
112
112
110
107
115
117
115
115
110
110
112
112
115
117
117
117
117
117
117
115
112
112
110
110
112
112
110
107
110
112
117
117
117
117
120
117
115
115
117
122
117
117
120
120
125
120
120
120
120
120
115
115
122
120
117
117
120
117
120
120
120
120
117
112
112
110
107
105
110
115
117
115
112
112
112
112
110
112
117
120
117
117
117
115
112
107
105
110
115
112
112
110
115
112
115
115
112
117
122
120
115
120
122
125
120
120
120
117
120
115
117
120
117
117
117
117
117
115
117
120
117
120
120
122
122
120
112
112
110
107
107
107
112
112
112
115
117
117
115
110
110
112
117
120
117
117
117
112
110
112
112
110
112
110
112
107
115
112
115
112
110
115
117
117
115
117
122
122
122
122
120
120
120
117
120
115
115
117
120
117
115
115
117
122
120
120
115
117
120
117
110
110
110
110
112
112
115
115
115
115
117
120
115
112
112
115
117
117
115
115
112
112
112
115
115
110
107
110
110
107
115
115
117
115
112
115
117
117
115
115
117
117
117
122
120
117
122
120
117
122
122
120
122
120
120
117
117
125
122
120
115
117
120
115
115
112
110
110
115
117
120
117
117
117
120
120
112
115
117
117
117
117
115
115
112
112
115
117
112
107
105
107
107
107
117
117
117
117
117
117
117
117
115
112
115
112
115
120
120
117
122
117
120
122
125
122
120
125
122
120
120
127
125
120
120
120
120
115
115
112
112
115
115
117
120
120
117
117
115
115
115
115
117
117
115
115
115
115
112
112
115
117
112
112
110
110
107
107
117
117
117
122
120
115
115
115
115
115
115
115
117
117
120
117
117
120
122
122
122
120
117
122
122
122
120
127
125
122
122
120
117
117
115
112
115
117
120
122
122
122
120
115
115
115
112
115
115
115
115
115
117
117
120
117
115
110
112
115
115
110
107
110
115
117
122
122
120
117
117
117
117
120
120
117
117
117
117
117
115
120
125
122
115
117
120
120
120
125
125
122
120
122
120
120
120
120
117
115
117
117
120
125
127
127
122
117
112
110
112
110
112
115
115
117
117
117
117
117
110
112
115
117
115
110
105
107
115
117
120
120
120
117
115
115
117
117
120
122
117
115
117
120
117
120
122
120
117
120
120
120
120
120
122
117
117
117
115
117
122
122
120
117
117
120
122
122
125
122
122
120
112
112
115
112
112
117
115
117
117
115
115
115
112
115
117
117
115
112
107
107
115
117
120
117
115
115
115
117
120
120
120
117
117
117
120
117
117
122
120
120
120
117
117
122
125
122
120
120
122
120
120
117
120
120
120
117
120
120
122
122
122
122
125
122
115
112
115
112
117
117
115
115
115
115
115
115
112
115
117
115
115
115
115
115
115
115
117
115
115
115
117
117
117
120
117
112
115
120
117
117
115
120
122
122
122
120
120
122
122
125
125
125
122
122
117
117
117
117
120
117
120
120
120
120
120
120
122
122
117
115
112
115
117
117
115
110
110
112
117
117
117
115
115
115
115
112
115
112
120
117
115
115
115
115
117
117
120
117
115
112
117
120
117
117
115
117
122
122
125
127
125
122
122
125
125
122
120
122
120
117
115
112
112
115
117
117
117
117
122
122
120
120
115
117
117
117
117
115
115
110
112
112
117
117
115
110
112
115
115
112
112
112
122
117
115
115
120
120
115
117
117
117
117
115
117
120
120
122
120
117
120
122
125
127
125
122
120
120
122
120
122
122
120
115
110
110
115
120
117
117
117
117
122
120
117
117
115
115
115
115
115
115
115
115
110
115
117
115
112
107
107
115
117
115
115
115
120
115
115
117
120
117
117
117
117
117
120
115
115
117
120
122
120
120
120
122
120
122
125
120
117
122
122
122
122
122
120
117
112
112
117
120
120
120
120
115
117
120
120
120
117
117
115
115
115
115
115
117
115
115
117
120
117
112
112
115
115
112
115
115
120
117
117
120
120
117
122
120
120
120
122
120
117
117
120
120
120
122
122
120
120
122
125
120
120
122
122
122
122
122
125
120
115
115
117
117
115
115
117
115
117
115
117
117
117
120
117
117
115
117
115
115
117
117
115
117
117
112
112
115
112
112
115
115
117
120
120
117
120
122
122
120
120
122
122
120
120
117
117
117
122
122
122
122
122
125
122
120
122
125
125
125
125
127
125
122
117
120
117
117
117
115
112
115
117
115
115
115
117
120
115
117
117
117
115
117
120
120
115
115
117
112
112
115
112
115
115
115
117
122
120
117
117
120
122
120
120
120
120
122
125
120
117
117
120
122
120
122
122
122
122
120
120
120
122
122
125
129
127
122
117
117
117
115
115
115
115
120
122
117
117
112
115
117
115
115
117
115
112
117
120
120
115
117
117
115
115
112
112
112
115
115
120
122
120
117
117
120
122
120
120
117
117
120
122
125
125
122
122
122
120
120
120
122
120
120
122
120
122
125
125
125
125
122
115
117
117
115
120
120
120
120
117
120
120
117
117
117
115
112
115
115
112
117
117
117
115
115
117
115
112
115
115
115
117
117
122
125
120
120
120
120
120
120
120
120
120
117
120
127
127
125
125
127
125
122
122
125
125
122
125
127
127
127
125
125
122
120
115
117
115
112
117
120
120
122
117
120
120
120
120
117
117
115
115
115
112
115
115
117
115
117
117
112
115
115
112
115
115
112
122
125
122
122
122
120
120
120
117
120
120
122
122
125
127
127
127
127
125
125
125
125
125
122
127
125
125
125
125
125
122
120
117
117
117
117
117
117
120
120
120
120
120
120
120
117
117
117
115
120
117
115
115
117
115
115
115
115
112
115
112
112
107
110
120
125
125
120
122
122
120
120
117
122
122
122
122
122
122
127
129
127
125
125
122
125
125
125
125
127
125
125
125
127
125
122
120
117
115
115
117
117
117
120
122
120
120
120
120
120
117
120
117
120
120
117
117
120
117
115
112
115
115
115
112
115
115
112
120
122
122
120
120
122
122
120
120
122
125
120
117
122
125
127
125
125
125
122
122
125
122
122
122
127
127
125
125
125
125
125
122
117
117
115
117
117
115
117
120
120
117
117
117
120
117
120
117
115
117
120
122
122
117
115
110
112
115
112
112
115
117
117
120
120
117
115
120
122
120
117
120
125
125
122
122
125
127
125
122
125
125
125
120
125
120
125
127
129
129
125
125
122
125
122
120
117
120
117
117
117
115
115
117
117
120
122
120
117
117
120
117
115
112
115
120
120
115
115
110
115
117
112
110
112
112
112
120
122
120
120
122
120
120
120
120
122
125
125
127
127
125
127
125
127
125
125
122
122
125
125
122
127
129
127
125
122
122
122
120
117
120
117
117
117
115
115
115
117
120
120
120
122
120
115
112
115
112
115
115
117
115
115
115
117
117
112
110
112
112
112
120
122
122
120
122
120
120
120
122
122
122
127
127
125
127
125
125
125
125
127
125
122
125
122
120
122
125
125
127
125
120
120
122
115
117
120
120
120
117
120
117
120
125
122
120
127
122
117
115
115
112
115
115
115
115
115
117
117
117
110
107
110
112
112
117
120
120
117
120
122
122
122
125
129
127
129
127
122
122
122
125
125
127
127
129
125
122
125
125
125
127
122
125
125
120
120
122
117
120
120
117
117
120
120
120
120
125
125
122
125
120
117
117
115
117
117
117
115
115
117
117
117
117
112
107
110
112
110
120
122
117
117
122
127
125
122
122
122
127
127
125
122
120
122
125
125
127
129
132
125
127
129
127
127
125
120
122
125
120
120
125
122
120
120
117
117
120
122
122
115
120
122
122
122
120
117
117
115
117
117
117
117
115
117
115
115
112
115
110
107
112
112
122
122
120
120
125
127
127
125
122
120
127
125
125
122
122
125
125
125
127
129
129
127
129
127
127
127
125
125
125
127
122
122
127
125
122
122
120
120
122
125
125
120
125
125
125
120
117
112
115
117
117
115
112
115
117
115
112
112
112
110
110
107
110
115
125
122
122
122
125
129
125
122
125
122
127
127
125
125
127
127
127
127
127
129
127
125
127
127
129
127
125
122
125
127
125
125
127
125
125
122
122
125
125
127
127
125
127
125
120
120
117
115
117
115
115
115
115
117
115
117
115
110
107
107
110
112
112
115
120
120
125
127
127
127
125
122
125
120
120
122
125
127
127
127
127
125
125
127
125
122
127
129
127
125
120
120
120
122
125
125
125
125
122
122
125
125
120
125
129
125
125
122
122
120
120
122
120
117
117
117
117
115
112
115
115
112
110
107
110
112
112
112
115
120
125
127
127
127
125
125
122
117
117
120
122
122
125
127
125
122
125
125
125
125
127
127
125
122
120
122
125
122
125
125
125
122
122
125
125
129
125
122
127
129
127
122
122
120
117
117
117
117
117
120
117
115
112
112
115
112
110
110
107
110
112
110
122
125
127
127
127
127
127
125
122
120
122
122
125
125
127
127
127
125
125
127
125
127
127
127
127
125
122
120
122
122
125
127
125
122
125
125
127
129
127
125
125
127
125
122
122
120
115
115
115
117
117
117
117
115
112
110
115
115
112
112
112
110
112
112
125
125
122
125
125
125
125
125
125
125
127
122
125
125
125
125
125
125
127
125
125
125
125
129
129
125
125
122
122
122
127
127
127
122
122
122
127
129
132
129
127
122
120
125
125
122
117
117
120
117
115
115
120
115
112
115
117
117
112
112
110
110
110
112
125
125
122
127
125
125
125
125
125
122
125
122
122
125
125
122
120
122
125
122
122
125
127
127
125
122
125
125
125
125
125
125
127
122
122
122
127
129
132
132
127
122
122
122
125
122
120
120
120
122
120
117
117
117
117
117
117
115
112
112
110
115
112
112
122
127
125
127
127
125
125
127
125
122
122
125
125
127
127
122
122
120
125
125
125
127
125
125
122
122
125
122
125
122
122
122
125
125
122
125
127
127
129
129
127
122
122
122
125
120
117
117
120
122
122
120
117
117
115
112
115
112
110
112
112
115
112
110
122
125
125
127
125
122
125
129
127
125
122
125
125
122
122
125
125
120
122
127
127
125
125
125
125
125
125
125
122
122
125
127
125
127
125
127
129
127
127
129
127
122
122
122
122
120
117
117
117
120
117
120
120
117
112
107
110
107
110
112
117
115
110
107
122
125
125
125
125
125
125
129
129
125
122
122
120
117
122
127
127
125
125
127
127
125
125
125
125
122
125
127
125
125
127
129
127
129
127
127
129
129
129
127
125
122
122
122
122
122
122
120
117
117
115
115
115
112
112
112
110
110
112
117
117
117
112
112
127
122
125
125
127
127
127
125
125
125
122
120
120
120
122
127
127
129
129
129
127
125
127
125
125
125
127
127
125
122
127
127
127
127
129
127
127
129
127
125
125
122
120
120
120
120
120
120
115
115
112
115
117
112
115
112
112
110
112
115
112
112
115
112
122
120
122
125
125
125
127
125
125
125
122
120
120
120
120
122
127
129
129
129
129
127
127
125
127
127
125
127
125
125
125
127
127
129
129
127
125
125
127
122
122
122
120
120
117
117
117
117
115
112
115
115
115
115
112
110
110
110
112
115
112
112
110
107
