P2
# 471 of 608 Angiograms
64 64
255
100
95
93
93
93
98
95
95
98
103
100
100
100
100
105
103
100
105
100
103
107
107
105
103
100
100
103
95
95
98
98
98
95
95
93
98
100
100
98
95
95
98
98
98
95
95
95
95
95
98
100
98
98
98
95
91
91
89
89
91
93
93
91
89
98
95
93
93
93
98
100
100
98
100
105
105
98
95
98
100
103
103
103
105
105
105
103
103
103
105
103
98
100
103
100
98
98
98
95
95
100
105
100
98
95
95
98
98
98
98
98
98
98
100
100
98
100
98
95
89
89
93
93
93
93
91
89
93
95
91
89
91
93
98
100
105
103
103
107
105
95
93
93
98
103
103
103
103
103
100
103
103
107
105
100
98
100
100
98
98
98
98
98
98
103
105
103
98
98
95
98
98
98
95
95
98
98
98
98
98
98
95
93
89
89
93
95
95
93
93
91
93
95
91
91
86
91
95
98
103
105
107
107
105
98
93
93
98
100
100
100
98
103
100
103
103
105
103
100
98
100
100
98
98
98
98
98
98
100
100
100
98
95
93
95
95
93
89
91
93
93
93
93
93
93
93
91
91
91
91
93
93
98
98
91
86
95
91
91
89
89
95
98
100
103
107
107
103
95
91
95
98
100
98
98
98
100
103
105
107
110
105
98
93
100
100
98
98
95
95
98
100
98
98
95
93
93
91
93
93
93
91
89
91
93
93
91
89
91
93
95
93
93
93
91
95
95
93
84
86
95
93
93
91
89
95
100
100
103
105
100
100
98
95
95
93
95
95
98
95
98
100
103
103
103
103
95
91
95
98
98
103
98
98
95
98
98
95
95
93
89
93
91
93
93
91
93
95
98
95
89
89
93
95
98
98
93
93
98
100
95
91
86
89
95
98
95
93
91
93
98
98
100
100
98
98
100
98
95
91
91
95
98
98
98
100
103
100
93
98
98
95
95
98
98
100
100
95
93
91
95
98
100
98
91
91
93
93
95
93
93
95
100
95
89
89
91
95
98
98
95
93
98
98
95
93
89
86
95
100
100
93
91
91
95
98
98
100
98
95
100
98
95
93
91
95
93
98
98
98
98
103
98
95
98
93
93
95
98
98
98
93
91
89
93
98
103
103
95
91
93
98
95
91
93
93
95
95
93
93
93
95
93
95
93
95
95
95
93
91
86
84
95
98
100
93
93
95
93
95
98
103
98
98
103
98
95
95
98
100
98
98
100
95
98
93
93
93
95
93
91
93
95
91
95
93
91
91
93
98
100
103
100
93
93
93
95
93
93
91
91
91
93
95
98
93
93
95
91
93
95
91
89
91
86
86
91
95
95
93
93
95
95
93
98
100
95
95
98
98
93
95
98
100
105
105
100
95
95
93
93
93
91
91
93
91
93
93
93
95
95
98
98
100
103
100
98
93
91
95
95
93
93
91
91
91
93
95
98
98
95
93
91
93
98
91
93
93
91
86
89
93
95
93
91
95
95
95
95
100
95
95
100
98
93
93
100
103
105
105
100
98
95
93
93
91
89
86
91
89
91
95
93
93
98
95
95
98
98
98
95
93
93
95
93
95
93
93
95
93
93
93
95
98
98
95
93
93
98
93
93
91
89
89
86
91
95
91
89
93
95
95
98
98
95
98
100
100
98
93
98
95
95
98
95
93
93
91
89
89
91
91
91
91
89
91
93
95
93
95
95
98
98
100
98
93
91
93
93
93
93
91
95
95
93
91
91
95
95
98
98
93
91
91
89
89
89
93
82
89
91
89
91
91
95
98
98
95
98
98
100
103
103
98
93
93
93
93
93
91
93
89
86
89
91
93
91
91
89
86
93
95
91
95
95
100
103
105
100
95
93
93
95
95
93
93
95
93
91
89
91
93
93
93
98
95
91
93
93
93
93
91
76
82
84
86
91
93
95
98
95
91
95
100
103
103
100
100
95
91
91
93
93
95
93
91
91
89
84
86
89
89
89
89
95
91
91
95
98
100
100
103
100
98
98
95
98
95
95
98
98
93
89
86
86
89
93
95
98
95
93
95
98
95
95
91
72
76
82
84
89
91
93
98
95
93
95
100
100
100
98
100
95
89
91
91
93
93
93
91
91
91
86
86
86
91
91
93
93
86
89
93
98
95
95
98
98
98
98
98
93
93
93
98
95
91
84
84
91
91
91
91
91
93
98
98
95
95
98
95
68
72
76
82
84
89
89
95
98
98
98
103
103
98
93
93
91
91
93
95
93
95
93
91
91
91
89
89
91
93
89
91
91
86
91
95
95
93
93
95
98
100
98
93
93
98
98
95
95
93
89
91
93
89
84
89
91
93
93
95
95
91
98
98
74
72
74
78
82
84
89
91
93
95
95
103
103
95
93
93
91
93
95
98
95
95
95
95
93
93
91
91
93
91
89
93
93
93
93
98
98
95
95
95
98
100
95
93
95
98
98
93
93
93
91
93
91
89
86
91
98
98
95
95
93
91
95
100
76
76
74
74
76
78
84
86
89
91
91
95
98
93
95
95
93
93
95
95
93
91
91
93
93
93
93
91
93
95
93
93
98
98
95
95
98
95
95
95
93
100
100
98
95
98
93
91
93
95
93
91
89
89
89
93
95
98
93
93
91
95
98
98
74
74
72
74
74
74
76
82
89
93
91
93
98
95
98
95
93
93
95
93
93
91
91
93
95
95
93
93
95
98
98
98
98
100
93
93
95
95
95
95
95
98
100
100
98
98
95
95
91
95
95
95
91
91
93
93
95
98
95
95
98
100
98
95
74
70
70
72
74
74
74
78
82
89
93
98
100
100
100
98
98
95
93
93
93
93
98
98
98
98
95
91
91
98
98
100
98
98
98
95
95
98
98
98
98
98
95
98
100
98
98
98
95
100
100
98
95
95
98
95
95
95
95
98
100
100
98
95
76
72
72
72
72
70
74
78
80
84
89
95
100
103
100
100
98
95
93
93
95
98
103
98
100
100
98
93
91
95
100
100
95
95
98
98
98
98
95
98
100
98
95
95
98
98
98
100
98
98
100
103
100
100
103
98
98
98
98
98
98
98
100
100
76
78
74
72
74
72
76
80
78
78
84
91
98
95
93
93
95
95
95
95
95
98
100
98
100
98
95
93
93
95
100
98
93
95
98
103
100
100
95
98
100
98
95
100
100
103
103
100
98
95
100
100
103
105
105
100
103
100
98
100
103
103
100
100
78
78
76
76
76
74
76
76
72
76
80
84
91
93
93
93
93
95
98
98
98
103
100
98
98
100
98
98
98
98
95
95
98
100
98
100
100
100
103
100
98
98
98
100
100
103
100
100
100
95
95
95
98
103
105
103
105
105
103
103
103
103
100
103
76
76
76
80
78
74
74
74
68
72
74
80
84
91
93
93
98
100
103
98
98
105
100
100
98
100
100
100
103
103
100
100
98
103
103
103
105
103
103
100
100
103
105
105
103
103
105
105
100
103
95
95
98
100
105
105
107
105
103
103
103
103
103
105
74
76
74
78
78
78
76
72
68
70
74
78
80
84
89
93
103
105
103
100
103
103
100
98
98
100
95
100
103
103
103
105
103
105
103
100
105
105
105
103
105
107
105
105
105
107
107
107
100
95
95
98
100
105
107
107
107
107
105
105
105
103
100
98
78
82
78
80
82
82
78
76
76
76
76
82
78
82
86
93
98
103
103
103
105
100
98
100
105
100
100
100
100
100
103
100
100
103
100
98
103
107
107
105
107
107
107
105
103
105
103
103
100
98
98
100
100
103
105
110
110
107
110
107
107
105
103
100
80
82
80
84
84
82
80
76
78
78
78
80
78
82
91
93
93
98
103
105
105
103
100
103
103
103
103
100
103
100
100
98
98
100
100
98
100
105
105
103
103
100
100
100
100
98
95
98
103
100
100
103
105
105
105
112
110
107
107
105
107
105
103
103
80
78
80
84
82
84
84
82
80
78
78
80
80
82
89
89
89
93
100
105
105
100
100
100
100
100
103
100
100
98
98
95
98
98
100
100
100
103
103
100
98
98
95
95
98
95
93
93
100
100
100
103
105
105
107
112
110
107
103
98
100
105
103
103
82
82
84
84
84
89
89
86
84
80
82
82
84
84
82
84
86
91
100
103
103
100
98
95
95
98
98
98
100
103
98
98
98
100
98
100
100
103
100
100
100
100
103
100
100
93
95
95
98
100
100
103
105
107
110
115
112
107
100
98
100
100
100
105
84
86
86
86
82
86
91
86
80
82
82
86
84
84
84
82
84
86
93
98
100
98
95
95
93
93
95
98
100
103
95
95
95
98
95
98
103
103
100
103
105
103
103
103
100
98
100
103
98
98
100
103
103
105
107
110
107
105
100
98
103
103
100
103
86
89
86
82
84
84
84
84
82
80
82
82
84
86
84
80
82
84
91
93
95
93
93
95
95
93
95
95
98
98
98
93
91
93
93
98
100
100
100
103
103
100
100
98
103
103
103
98
98
98
98
100
100
105
107
107
107
107
105
103
103
103
100
98
86
86
84
84
82
84
86
82
82
82
82
82
86
86
84
82
82
82
86
91
91
89
91
95
95
95
95
93
95
95
93
95
98
95
95
100
100
103
103
100
100
100
100
98
105
103
98
93
95
98
98
100
105
105
110
110
107
107
105
100
100
103
100
98
86
86
84
84
82
82
86
86
84
82
84
82
82
86
84
82
82
80
80
84
89
86
89
91
91
93
95
93
95
98
98
98
98
98
98
103
105
105
105
100
95
95
98
98
100
98
98
98
100
100
98
103
107
107
105
103
103
105
103
98
95
98
98
98
84
89
89
86
82
80
86
86
84
82
86
82
80
84
84
80
82
82
78
80
82
82
86
89
91
93
91
91
93
95
98
98
100
98
98
98
103
105
105
100
100
95
98
98
98
98
100
100
103
100
98
103
107
105
103
100
100
103
100
98
95
100
98
95
82
86
89
89
84
84
86
86
84
86
89
84
78
80
82
78
76
78
78
78
76
78
84
86
91
91
91
91
93
93
95
100
100
98
98
98
105
107
103
98
98
95
93
98
98
98
103
103
100
98
98
100
103
103
100
103
103
105
100
98
100
100
100
95
82
84
82
82
82
82
82
82
80
82
86
84
78
82
82
80
78
74
72
72
72
74
80
84
89
89
86
93
93
91
93
98
100
98
95
100
105
105
100
95
91
91
95
95
95
100
100
103
103
100
100
98
100
100
103
103
100
100
100
98
100
100
98
95
82
78
78
78
78
80
80
82
80
80
84
84
84
84
84
82
80
74
70
70
72
74
74
80
82
84
84
91
93
93
91
98
100
98
95
100
100
98
98
93
86
91
95
98
95
100
100
100
100
103
100
100
100
100
105
100
95
98
98
95
98
98
95
93
84
80
80
78
80
80
80
82
80
82
84
84
86
84
84
84
80
76
72
70
70
72
70
76
80
84
84
89
93
95
95
95
95
98
100
103
98
95
98
95
89
91
93
95
95
98
98
100
103
105
105
107
107
105
107
100
98
98
93
93
91
91
95
93
82
80
80
80
78
82
78
80
82
84
84
84
82
82
82
80
80
76
76
72
72
70
66
70
78
84
84
84
89
95
95
93
91
95
93
95
98
98
98
93
91
91
91
93
98
95
98
100
105
105
105
103
105
105
105
100
100
95
98
95
93
93
98
93
82
82
82
82
82
80
76
78
82
82
82
80
78
76
76
76
76
78
78
72
72
72
70
70
76
78
78
80
82
91
95
91
91
95
93
95
95
98
100
93
89
91
91
91
98
100
103
105
105
105
100
95
98
100
98
98
95
95
100
100
95
93
93
91
80
78
78
82
82
82
80
82
84
84
82
80
76
76
74
78
78
78
80
74
78
80
76
76
80
78
76
76
82
86
91
91
89
93
95
95
91
93
95
93
91
93
95
98
98
103
105
100
103
105
98
95
100
100
93
95
95
93
93
98
93
91
93
93
80
76
76
76
76
80
82
84
82
82
82
80
78
78
78
80
80
74
76
76
78
76
76
78
78
80
76
74
82
84
86
89
89
93
93
86
86
89
93
93
93
91
95
103
100
100
103
98
98
103
100
98
103
100
93
93
95
95
95
93
95
93
91
89
78
80
78
76
76
78
80
78
76
78
80
78
80
84
78
78
78
78
78
80
80
74
74
76
76
80
78
76
82
84
84
86
91
89
91
84
84
86
89
93
91
89
93
95
100
100
100
100
100
100
98
100
103
103
98
93
93
95
95
93
93
98
95
91
84
78
76
76
76
80
80
76
74
78
82
78
80
82
80
78
76
80
82
80
78
78
78
80
76
78
78
80
80
80
80
82
86
86
86
86
86
89
86
93
91
89
91
91
95
98
100
98
95
93
93
95
100
98
98
93
93
91
93
93
95
100
100
95
80
78
76
80
78
82
82
78
78
80
82
78
78
80
82
76
76
78
80
78
76
78
78
78
76
74
76
78
78
74
78
78
80
84
86
89
89
86
86
89
91
89
91
91
93
95
98
93
95
95
95
95
93
95
95
93
93
93
93
95
98
100
98
95
80
82
82
80
78
80
80
80
80
82
82
80
80
80
78
74
76
76
78
80
80
82
78
76
76
76
78
76
76
74
74
74
76
80
82
82
86
84
84
86
89
86
84
91
93
93
93
93
95
98
98
100
95
95
93
93
95
95
100
100
98
95
93
93
84
86
84
80
76
74
78
74
76
80
80
80
78
78
76
74
76
76
74
76
78
80
78
76
74
74
78
78
76
74
74
74
74
76
78
76
82
84
86
86
89
84
84
89
91
89
91
93
95
93
93
100
98
91
93
95
95
98
100
100
95
91
89
93
84
86
82
76
74
74
78
76
76
78
76
78
78
78
76
74
72
72
70
72
74
74
76
76
72
72
76
76
74
74
74
74
76
80
78
74
80
84
84
86
89
89
86
86
89
89
93
95
95
93
95
100
95
89
98
98
98
100
103
100
91
86
89
93
80
82
82
76
76
78
82
80
80
80
78
78
80
80
78
72
70
70
72
74
74
72
74
74
72
72
74
74
72
74
74
74
76
80
80
74
76
82
84
84
86
89
89
89
93
93
93
95
95
93
91
93
95
95
95
95
98
100
100
95
89
86
91
93
80
78
82
82
80
80
82
82
84
84
78
80
80
78
78
76
74
74
76
76
76
76
72
72
70
72
72
72
74
74
72
74
74
78
80
74
74
78
80
80
84
86
89
91
93
91
89
91
91
91
93
95
93
95
93
91
93
98
98
93
91
91
93
91
80
80
80
82
78
76
80
82
84
84
82
82
82
80
80
76
78
78
76
78
78
74
72
74
70
70
74
74
72
72
72
74
74
74
76
72
72
74
74
76
80
82
86
91
93
91
91
91
91
93
93
95
93
93
93
93
93
91
93
95
95
93
91
89
80
82
78
78
78
76
78
82
84
84
82
84
84
84
82
76
76
74
72
76
76
76
74
74
68
74
76
78
76
74
74
74
74
74
74
74
74
74
72
72
74
78
84
91
91
89
86
86
91
91
89
91
95
93
95
95
95
91
91
95
98
93
91
91
80
78
76
78
78
76
78
80
82
82
78
80
82
82
82
76
76
74
70
70
72
74
76
76
72
76
76
76
78
74
70
70
72
72
74
74
78
76
72
72
70
76
82
89
86
86
84
86
89
89
91
95
100
98
95
95
95
91
91
93
98
91
93
95
76
76
76
76
74
76
76
78
78
82
80
82
78
78
78
76
78
76
72
70
72
76
76
76
76
78
74
74
76
76
70
70
74
74
76
80
82
78
78
76
68
74
82
84
84
86
86
89
89
89
93
98
95
95
98
98
95
95
95
95
98
95
95
93
82
78
76
76
78
78
76
76
80
84
82
80
80
82
80
76
76
74
74
72
74
80
76
74
76
82
78
74
74
76
74
70
72
74
76
76
80
78
78
76
72
74
78
80
78
80
82
86
89
91
93
98
93
91
95
98
95
95
98
100
98
98
98
95
80
80
78
74
78
78
78
76
80
82
78
78
80
80
78
78
74
74
74
74
78
80
76
74
76
78
76
74
78
76
74
70
70
74
76
74
78
80
76
76
74
70
72
76
76
84
89
86
86
91
91
93
91
91
93
93
93
91
98
98
93
93
98
100
76
80
78
76
78
76
76
78
80
82
82
80
78
78
76
76
72
74
76
74
78
78
76
76
78
80
80
78
78
76
76
74
74
74
76
76
76
76
74
76
76
74
74
76
78
86
86
84
89
91
86
91
93
91
89
91
93
93
95
95
91
89
91
98
78
80
78
76
74
76
76
78
80
82
80
80
80
76
76
76
74
74
76
76
76
78
78
78
78
80
80
80
78
76
76
76
76
74
74
78
76
74
72
72
78
76
72
74
78
82
86
84
84
91
91
91
91
89
89
89
95
98
93
89
89
91
91
93
78
76
76
74
72
74
74
76
78
78
74
76
84
82
76
78
78
74
74
80
80
80
80
82
80
76
76
78
78
76
78
80
74
76
80
80
76
74
70
72
78
78
74
68
74
78
80
80
80
84
86
86
86
84
86
89
93
98
95
91
91
91
93
93
76
76
74
76
74
78
76
76
74
76
76
78
80
82
76
76
78
74
76
82
80
80
78
78
80
76
76
78
78
76
74
72
70
74
78
78
76
74
72
74
78
76
78
72
72
74
76
76
78
82
82
84
84
84
86
86
91
93
93
91
91
91
91
91
78
72
74
76
78
78
76
74
74
80
80
78
76
74
72
74
78
76
76
80
82
82
80
78
78
76
78
78
78
76
74
70
70
74
78
78
76
74
72
74
74
74
76
76
74
76
76
74
76
80
82
84
86
91
89
89
93
93
89
91
91
89
86
89
74
72
74
74
72
70
72
72
74
80
84
82
76
72
76
80
80
78
76
78
78
80
82
82
78
76
76
78
78
74
74
74
76
76
76
74
70
70
74
74
70
70
70
70
74
78
78
76
76
78
82
89
89
91
91
89
93
93
91
89
91
89
89
91
76
78
76
74
72
72
70
72
76
80
80
80
78
78
78
78
78
80
76
76
76
76
78
80
78
78
76
76
74
74
72
74
78
76
74
72
70
68
72
74
78
74
70
68
72
76
78
76
76
80
78
82
86
91
91
84
86
86
89
89
89
89
89
89
76
80
74
72
74
72
72
74
76
78
78
78
78
80
78
78
80
82
78
76
78
76
76
74
78
78
76
74
72
74
78
80
80
80
78
72
72
70
72
72
78
76
72
70
74
74
74
76
78
80
78
80
80
84
86
84
82
84
84
84
84
89
91
89
