P2
# 473 of 608 Angiograms
64 64
255
103
103
105
107
110
112
115
115
115
115
110
110
110
110
112
112
112
115
117
112
115
115
115
112
105
98
103
105
98
98
98
95
98
98
103
103
98
98
95
93
89
86
84
84
82
78
78
76
80
82
82
82
76
72
76
72
70
66
58
53
55
53
55
57
98
100
103
110
112
112
117
112
115
117
115
112
112
112
112
110
107
112
112
112
112
110
107
107
105
98
100
100
98
98
100
100
100
100
100
98
98
95
91
89
84
82
86
86
84
80
80
80
82
84
82
80
78
74
76
74
68
64
58
57
57
57
55
55
100
103
103
105
110
112
115
110
115
117
117
115
115
115
112
105
105
110
110
110
107
103
100
100
100
98
100
103
100
103
103
100
103
98
98
95
93
93
91
86
84
82
84
86
86
84
80
86
86
84
82
78
78
76
76
74
64
60
58
57
55
57
57
57
100
103
103
107
110
110
112
112
115
117
115
115
112
110
107
103
100
103
105
105
103
103
103
98
95
98
100
100
100
103
105
100
98
93
93
93
93
93
91
89
86
80
80
84
84
84
80
84
84
80
82
82
80
76
76
74
64
58
55
55
55
53
57
55
103
103
105
107
112
112
112
112
112
112
112
110
107
103
103
100
98
98
103
105
105
105
103
100
100
100
100
98
100
100
105
98
95
93
93
93
93
93
93
91
86
80
78
82
84
82
82
82
82
80
82
84
80
78
76
74
64
57
53
55
53
53
52
53
107
105
107
110
110
110
110
107
112
115
112
107
105
105
103
105
103
100
103
100
103
105
105
103
100
98
95
100
100
100
103
100
100
98
98
93
91
91
93
91
86
80
80
82
84
86
82
82
82
82
82
80
78
78
76
74
62
57
55
53
52
52
52
50
107
107
112
112
107
110
110
110
112
115
110
105
105
103
103
105
105
105
105
103
103
105
105
103
98
95
95
98
95
98
98
98
98
93
93
89
89
91
93
91
86
84
82
84
84
84
82
84
84
82
84
80
82
82
78
72
60
60
57
55
50
50
50
52
112
117
115
110
107
110
107
105
107
110
105
100
100
103
103
105
105
105
110
107
103
103
103
100
95
95
98
103
103
98
93
95
93
93
93
91
93
95
98
91
86
84
82
82
82
82
82
84
84
86
89
86
82
82
78
70
62
60
57
52
48
48
48
53
112
112
110
110
107
105
103
103
105
105
103
103
103
103
105
105
107
107
107
105
103
105
103
100
100
100
100
100
100
98
91
91
91
93
95
93
95
95
95
89
84
86
86
84
82
84
84
84
86
89
89
91
86
82
80
72
64
57
52
47
45
47
47
52
110
107
105
110
105
103
103
105
105
103
103
103
100
103
105
107
105
100
100
100
103
105
103
100
100
103
103
98
100
98
91
93
91
93
91
89
93
93
89
86
84
86
89
89
84
84
82
86
89
86
86
84
82
78
76
72
62
57
50
45
43
45
50
52
107
105
107
110
105
100
103
103
100
103
103
103
98
103
103
105
105
98
98
98
103
105
100
100
100
100
100
95
98
95
91
93
91
93
93
91
91
93
82
82
84
82
86
84
86
84
84
86
86
84
84
80
78
76
76
70
60
55
52
48
47
48
50
52
105
105
107
107
105
98
100
100
98
100
103
105
107
110
105
103
105
98
95
98
103
105
103
103
103
100
100
100
100
98
93
95
95
93
93
91
91
89
82
82
84
80
84
89
86
86
84
84
84
84
84
80
78
74
74
68
58
52
50
48
47
47
48
50
105
103
103
105
105
100
98
100
100
100
105
105
110
107
105
103
105
103
98
98
103
110
110
107
110
105
100
98
100
100
95
95
98
98
95
93
91
86
84
84
82
80
86
91
89
84
82
82
86
86
84
82
78
76
74
66
55
50
47
47
47
45
47
50
107
100
100
107
107
105
100
103
103
105
105
103
105
100
105
105
105
105
103
103
105
105
107
110
107
107
100
98
100
100
95
98
100
100
95
89
86
86
86
86
84
82
80
82
84
86
86
86
86
84
84
84
82
78
74
64
55
50
48
47
48
45
47
50
107
105
103
105
105
105
100
103
103
105
107
103
103
105
107
105
98
103
107
107
103
105
105
105
103
103
100
100
100
95
93
98
95
98
91
84
84
84
86
84
84
82
80
78
82
86
86
84
84
86
91
91
86
80
74
64
55
50
48
48
50
47
47
50
107
105
105
105
105
105
100
103
105
105
105
107
110
105
103
105
100
100
105
107
105
103
103
100
100
103
103
100
98
95
93
98
98
93
89
84
86
86
84
86
86
84
82
82
84
84
84
82
82
84
86
86
89
82
74
62
53
48
47
48
45
44
45
50
110
110
107
103
107
107
105
105
105
105
105
105
107
105
100
100
103
105
103
105
107
105
100
103
105
103
98
100
100
95
98
95
95
91
89
89
89
89
86
86
86
84
84
82
84
86
86
82
80
82
84
86
86
80
72
62
52
52
48
47
43
43
44
50
105
105
105
105
105
107
107
105
105
103
103
103
103
103
100
100
100
103
105
105
105
105
105
98
100
100
100
105
103
95
93
93
95
93
91
91
91
89
86
86
86
84
84
82
82
86
86
82
78
82
84
86
84
78
72
60
53
50
48
47
44
45
45
48
105
105
105
105
105
105
107
107
105
103
100
103
103
105
103
103
100
100
100
103
103
103
103
98
95
95
100
105
100
95
91
93
93
93
91
89
91
89
86
86
91
86
82
82
82
86
86
80
78
78
82
84
82
78
72
62
53
52
50
45
45
47
50
52
105
107
105
105
107
105
105
103
103
103
100
103
103
105
100
100
105
100
95
100
95
98
98
95
98
103
103
100
100
98
95
98
95
93
89
86
91
86
84
84
89
84
82
84
86
82
82
82
82
78
80
82
82
80
72
62
57
50
50
50
50
50
53
55
103
103
103
105
105
107
105
103
103
100
95
95
100
103
98
103
105
103
100
98
95
98
95
98
103
103
103
98
98
98
98
95
95
95
89
89
89
82
84
84
84
86
86
89
86
82
84
80
80
74
76
82
80
80
72
64
58
53
52
52
50
48
52
55
100
100
105
105
105
107
105
105
103
100
98
95
98
100
103
103
105
105
103
98
98
98
98
98
95
95
98
100
95
98
98
93
95
95
91
89
86
82
80
84
84
86
86
91
91
89
86
78
76
74
78
86
84
80
72
64
57
53
53
52
47
48
52
58
103
105
107
105
107
107
100
103
105
100
100
98
98
100
100
100
100
100
98
98
95
98
98
100
98
98
98
98
98
95
95
95
98
98
95
91
89
89
86
89
86
86
89
91
91
86
82
78
78
80
80
82
80
80
72
64
55
53
50
48
48
53
55
62
100
105
107
107
107
105
100
98
100
98
98
100
98
98
98
95
95
95
95
95
95
98
98
100
100
103
105
103
100
100
95
95
98
98
95
93
91
91
91
91
86
86
86
86
86
86
84
80
82
86
80
80
80
78
70
62
55
53
50
48
52
53
57
66
100
107
107
105
105
100
98
98
103
100
98
100
95
100
100
95
95
95
91
91
93
98
98
98
105
107
110
107
105
105
100
95
95
93
98
95
91
91
91
89
86
89
86
84
82
82
84
86
84
84
82
80
78
76
72
64
58
55
53
48
50
53
57
64
100
105
105
103
103
100
100
100
105
103
100
100
98
100
98
93
89
89
91
89
91
95
103
103
107
110
107
105
107
107
105
100
98
95
93
95
91
86
86
89
89
89
84
82
84
86
89
89
84
82
80
80
78
74
70
62
58
55
55
50
52
55
57
62
103
103
103
103
103
100
100
103
105
100
100
103
100
98
93
91
89
89
91
91
93
95
98
103
105
107
107
107
110
110
105
103
98
98
93
93
91
84
84
86
84
84
86
86
89
91
91
89
86
84
82
80
76
76
68
60
55
55
55
53
57
58
60
62
107
107
105
103
103
100
100
105
105
103
103
98
98
93
93
95
93
93
93
91
95
98
98
103
107
107
110
112
107
105
105
105
103
98
98
98
95
89
86
89
89
86
89
91
91
89
84
84
86
89
86
84
80
78
70
58
53
55
57
57
60
62
60
62
105
105
105
103
103
103
105
105
103
103
103
98
95
93
93
93
93
93
91
89
98
98
98
107
107
107
110
110
107
105
103
105
103
98
98
103
98
95
95
91
89
91
93
91
91
89
84
84
89
86
86
86
80
78
68
60
57
57
57
57
58
60
60
64
105
103
103
105
105
107
107
105
103
103
100
100
95
91
93
93
91
91
93
93
98
95
98
105
107
105
105
107
107
100
103
107
103
103
103
105
100
98
98
93
93
98
98
95
93
89
84
86
91
89
89
93
86
78
68
62
58
58
58
57
55
57
58
64
107
103
105
107
110
107
105
103
100
103
98
98
98
91
93
95
95
93
95
95
93
95
98
103
105
105
107
105
103
100
100
103
105
105
105
103
100
98
98
98
98
103
105
103
98
93
86
89
91
91
95
95
91
82
70
64
57
58
58
55
57
57
58
68
100
100
100
103
107
110
105
100
103
103
100
100
103
98
95
95
93
91
93
95
93
98
98
103
103
105
105
107
103
100
100
100
100
103
103
103
100
100
100
105
100
100
107
105
103
95
93
95
95
95
98
98
95
84
72
64
60
58
58
57
58
60
66
74
98
98
98
103
105
105
105
103
100
100
95
93
100
100
95
98
98
93
95
95
93
98
98
103
103
100
98
103
98
95
100
100
98
98
98
100
100
98
100
110
107
103
103
100
103
98
98
98
98
98
103
100
95
84
76
66
62
60
62
60
62
64
68
76
98
98
98
103
105
103
103
100
98
100
98
93
100
105
100
103
103
98
100
98
98
95
98
98
103
103
103
100
95
98
100
100
98
95
98
98
98
98
100
110
103
98
98
100
98
98
98
98
98
100
103
103
98
84
76
66
64
64
66
64
66
66
66
74
91
93
98
100
105
107
103
105
103
100
100
100
100
100
103
100
100
100
100
98
98
100
103
100
100
100
98
98
95
95
93
91
93
95
93
95
95
98
100
103
103
98
95
98
98
98
98
98
95
98
103
105
100
84
74
66
66
68
68
62
64
64
68
76
95
98
103
100
103
105
105
105
105
103
100
100
100
100
103
100
100
103
103
100
100
105
105
103
100
100
98
98
93
91
93
93
93
95
95
93
93
93
93
95
100
100
95
98
100
98
95
98
95
98
100
103
98
86
80
74
74
74
70
66
68
70
72
78
93
95
100
100
100
103
103
100
103
100
100
100
103
103
105
100
100
100
100
100
100
103
103
105
100
98
98
95
95
98
93
95
95
95
100
95
95
95
95
98
100
100
95
98
103
98
95
95
98
100
98
98
98
84
82
78
76
72
70
66
70
72
74
78
93
95
98
95
100
103
100
100
103
100
100
100
100
103
100
98
98
98
95
95
98
95
98
98
98
95
93
93
95
100
95
95
98
95
100
95
95
98
95
100
103
100
95
98
100
95
95
98
98
98
98
100
100
84
80
76
72
72
70
68
70
72
76
82
89
95
98
98
98
98
95
95
98
95
95
95
95
98
98
95
95
93
91
91
93
98
95
93
100
98
98
98
100
100
95
93
95
100
98
93
93
95
98
98
98
95
95
98
98
98
95
95
98
98
100
103
100
82
80
76
70
70
70
72
74
74
78
80
84
89
93
95
95
93
89
93
95
93
95
93
93
93
93
93
93
95
93
93
95
95
91
91
98
100
98
100
98
98
93
93
95
100
95
93
93
98
98
98
95
98
103
100
100
100
98
98
95
98
100
103
100
82
78
74
74
72
70
72
74
76
80
80
89
89
91
93
93
89
89
93
95
95
91
91
93
95
93
95
95
93
91
91
93
95
93
93
95
95
95
98
98
95
93
95
98
100
98
93
93
98
100
95
95
103
103
98
98
98
98
98
98
103
100
103
98
80
74
70
72
72
70
72
74
78
82
80
89
86
89
89
91
86
89
91
91
91
91
93
95
95
93
93
95
93
91
91
93
95
98
93
93
95
98
98
95
93
95
95
95
98
98
95
95
98
95
93
95
98
98
98
98
98
100
100
103
105
103
105
95
78
70
72
72
66
64
68
70
78
82
82
84
82
86
89
91
86
84
86
86
91
91
93
93
93
91
91
91
91
91
95
95
100
100
98
98
98
98
100
98
95
98
98
98
100
100
100
98
98
93
93
95
95
93
95
100
100
100
100
100
105
100
100
91
74
68
70
68
62
64
70
70
78
84
86
86
86
89
89
91
86
84
84
86
93
93
91
93
91
89
91
91
89
91
95
100
103
100
103
100
103
103
103
103
105
105
100
100
103
100
103
98
98
95
93
95
95
95
95
100
103
100
98
100
103
100
98
89
72
66
66
64
62
62
70
74
80
86
86
89
91
93
91
91
86
80
82
86
89
86
86
89
86
86
89
89
91
91
95
100
103
103
105
103
103
100
100
103
105
105
98
95
100
103
105
100
98
95
93
93
95
98
98
100
100
98
100
100
103
100
95
84
72
66
64
64
64
66
68
74
80
89
89
89
91
93
91
89
89
82
80
84
84
84
84
86
84
84
89
89
89
89
93
98
100
100
103
105
105
103
100
103
103
103
100
93
95
100
103
100
98
93
93
95
95
98
98
98
95
95
100
103
100
98
95
82
68
64
66
66
68
66
68
72
82
89
86
89
89
86
89
89
84
84
82
82
84
84
84
86
86
86
86
91
89
89
93
95
98
100
103
105
103
100
100
103
103
98
98
95
93
95
100
100
98
93
93
98
98
98
100
100
100
98
98
100
103
100
95
82
70
64
66
68
68
64
66
72
80
89
91
93
89
89
91
89
86
89
86
82
82
84
86
84
86
86
89
89
89
93
95
98
98
98
100
103
103
103
100
100
100
98
95
93
95
98
100
98
93
89
89
98
98
98
98
98
103
100
98
100
107
105
98
84
72
66
66
68
64
62
66
74
82
89
91
95
93
93
93
91
91
86
80
82
84
84
84
84
91
91
89
86
91
93
98
98
100
98
100
105
103
100
100
98
98
98
98
98
98
100
100
98
95
91
89
95
95
95
98
98
100
98
98
100
105
105
98
84
74
64
64
64
66
64
68
76
82
89
89
91
91
95
91
93
86
80
82
86
86
84
82
80
82
84
84
86
91
93
93
95
98
98
103
103
103
98
100
100
100
103
100
100
100
103
103
98
95
91
93
93
93
95
95
100
100
98
98
100
105
105
95
84
72
68
68
64
66
66
68
76
84
93
91
91
89
91
89
89
86
84
84
89
89
84
82
84
84
84
86
89
93
93
95
95
95
95
98
103
98
98
95
95
98
100
100
100
100
105
105
98
95
91
95
95
91
93
93
95
98
100
98
103
107
103
93
82
72
68
70
66
66
64
70
76
89
93
93
93
93
93
89
86
86
86
84
86
89
86
86
89
86
89
89
89
91
91
91
93
91
95
98
100
95
95
95
93
98
100
98
98
98
98
100
100
98
95
95
93
89
91
93
95
100
103
98
98
103
100
91
82
72
66
66
64
66
66
72
78
91
93
91
93
93
93
89
89
89
86
82
82
84
86
89
89
91
91
89
84
89
93
93
91
93
98
100
100
95
95
93
98
103
98
95
93
93
93
98
100
100
103
100
95
95
93
93
95
98
98
100
100
100
98
86
80
72
66
66
68
70
66
72
80
93
95
93
93
91
89
82
82
84
86
84
86
86
84
82
86
84
86
91
86
91
95
95
93
93
93
98
100
98
93
95
98
98
98
98
95
95
93
95
98
100
100
100
95
95
98
93
93
98
98
98
98
98
93
86
78
70
64
66
70
66
64
72
80
93
93
91
95
91
86
82
84
84
86
86
86
84
84
82
86
84
86
91
91
93
95
93
91
89
89
93
95
95
95
93
93
98
93
95
93
93
93
95
95
93
95
95
91
91
95
100
103
100
100
98
98
95
93
86
78
70
66
66
66
60
62
70
82
89
89
89
86
86
86
84
86
86
86
86
91
86
82
86
89
89
89
89
91
89
91
91
91
89
91
93
95
95
95
91
91
93
93
91
91
91
93
95
98
95
93
95
91
93
100
100
103
100
100
100
100
100
93
86
76
72
68
66
62
62
62
72
84
89
89
84
86
86
84
82
82
84
86
86
86
89
86
86
91
93
93
89
89
89
89
91
89
91
93
93
91
93
93
91
91
93
93
95
95
91
91
91
91
95
95
95
95
98
100
100
98
95
103
103
103
100
95
84
74
72
72
70
68
66
66
72
86
91
84
78
91
86
84
82
86
89
91
91
84
86
84
84
89
93
95
91
89
91
91
93
93
91
91
93
91
91
91
93
95
98
95
95
98
95
93
93
93
98
95
98
98
95
98
103
100
100
103
105
103
100
93
84
74
72
70
72
70
70
68
72
84
86
84
76
86
84
86
86
91
91
89
86
86
86
82
82
86
89
93
89
89
93
93
95
93
91
91
91
93
89
89
95
95
98
98
98
95
95
93
95
95
100
100
100
95
93
95
100
100
100
103
103
100
98
91
80
70
68
70
70
68
68
66
72
82
86
84
78
86
89
91
86
89
91
86
86
86
86
84
82
84
84
89
86
89
93
93
95
91
91
91
91
93
91
91
91
93
95
98
98
98
95
93
93
93
98
98
98
98
98
98
100
103
103
100
100
98
95
89
78
68
68
68
68
68
66
66
70
80
82
76
78
86
93
93
86
86
89
86
86
86
86
84
84
84
84
89
84
86
91
91
91
86
89
95
95
98
91
89
91
91
93
91
93
95
93
91
93
95
98
98
100
100
100
103
100
103
100
100
98
93
95
86
74
68
68
64
64
66
66
68
68
78
78
74
74
86
91
91
89
89
89
89
86
86
86
86
86
84
82
86
84
86
91
91
86
86
89
93
95
93
89
91
93
93
89
89
93
98
95
93
93
93
98
98
100
100
98
100
100
98
98
98
93
91
91
82
70
64
66
64
62
62
66
70
72
76
78
72
68
84
89
91
91
91
91
93
91
91
89
89
86
84
86
89
89
91
91
89
89
91
89
86
91
91
89
93
98
100
91
93
98
95
93
95
98
95
98
100
100
103
100
98
93
91
93
95
95
89
86
78
70
66
64
64
60
60
62
64
70
78
78
74
70
89
91
91
91
91
89
86
89
89
86
86
84
84
86
89
89
89
89
89
89
89
86
86
89
93
86
91
98
98
95
98
98
93
89
95
98
98
100
100
100
103
98
95
93
91
89
93
95
89
82
76
70
64
62
62
60
62
66
68
72
78
82
80
74
