P2
# 482 of 608 Angiograms
64 64
255
98
98
95
93
91
91
91
93
91
91
91
91
91
89
93
93
86
84
86
86
89
84
82
84
89
86
84
82
84
86
84
84
84
82
84
84
82
80
80
82
82
80
78
78
76
74
76
76
78
80
78
76
76
76
76
76
76
78
78
74
74
76
80
80
95
95
98
93
93
91
91
91
91
93
93
89
93
93
95
93
89
86
86
86
86
84
82
80
86
86
86
84
82
82
82
82
82
82
80
80
78
76
78
80
82
80
78
74
72
74
76
78
78
74
74
74
74
76
74
76
78
78
78
76
76
74
76
74
95
93
95
93
93
89
89
89
89
89
89
84
91
91
89
91
89
86
86
86
89
86
84
86
89
91
89
84
82
84
80
80
80
82
80
80
82
80
80
78
78
80
78
72
68
72
78
80
78
74
74
74
76
76
74
76
74
74
80
78
76
76
76
76
93
93
93
91
86
89
91
91
89
89
86
84
89
93
93
91
91
91
89
89
89
89
86
86
86
89
89
86
86
84
80
80
80
82
82
84
84
82
82
80
78
78
78
76
74
76
76
76
76
76
74
72
76
76
74
74
74
76
80
80
76
76
78
76
91
91
91
89
86
86
91
89
89
89
86
84
91
91
91
91
95
91
89
89
89
86
89
84
82
82
89
86
86
84
86
86
89
89
86
84
84
84
86
80
82
82
82
80
80
82
82
80
76
76
74
72
74
74
72
70
72
74
78
78
74
74
76
74
89
89
91
89
84
86
86
89
91
91
89
89
89
91
89
93
93
91
89
91
91
91
93
93
89
89
91
91
91
91
93
93
93
91
89
86
84
86
89
86
82
84
86
84
84
84
82
80
80
80
76
74
72
74
72
70
72
70
72
68
72
76
76
70
89
91
89
86
89
91
91
89
89
89
89
89
89
91
93
95
95
95
93
95
95
98
100
100
95
95
95
93
95
95
95
95
91
89
91
91
89
91
91
89
89
89
86
89
89
84
82
84
84
82
80
74
76
76
74
74
76
74
72
66
70
76
72
72
93
86
86
86
89
89
91
93
93
91
91
91
89
91
100
100
98
98
100
100
98
100
100
103
103
100
98
95
95
95
93
93
93
95
95
95
91
91
89
89
91
93
91
91
93
91
91
89
86
86
84
82
80
80
80
76
76
76
72
70
72
74
72
76
91
86
84
86
89
93
91
95
98
95
93
93
95
98
100
103
103
105
107
103
100
103
103
103
103
103
100
98
95
93
93
91
93
98
98
93
91
91
89
93
95
98
95
93
95
98
98
95
93
93
91
89
84
84
84
82
78
78
76
74
76
78
78
80
89
89
89
91
93
95
95
98
100
98
98
100
98
98
100
98
103
105
105
105
103
103
103
103
103
103
103
100
98
95
93
91
93
95
98
95
95
91
89
93
95
98
98
98
98
98
98
95
91
93
93
89
86
89
86
86
84
82
80
80
78
78
80
80
93
93
93
95
98
98
100
100
100
100
103
107
103
100
103
103
103
107
105
103
103
103
105
107
100
98
100
100
103
103
98
95
93
91
93
93
95
95
95
95
98
100
103
100
103
100
98
95
91
93
91
89
89
91
86
84
86
89
84
84
82
80
82
80
98
98
95
98
98
100
103
100
100
105
107
107
105
103
105
107
107
107
107
103
103
100
103
105
100
98
100
100
103
103
100
98
93
93
95
95
95
98
98
95
98
98
98
100
100
98
98
98
93
93
89
91
91
89
86
86
89
89
89
86
86
82
80
80
103
100
95
95
98
100
103
100
100
103
105
105
103
103
105
110
110
107
105
105
103
103
105
103
100
100
103
100
100
103
100
98
95
95
100
100
98
95
98
95
98
100
95
95
95
93
95
98
95
91
91
89
89
89
86
89
89
91
93
91
89
86
82
84
105
103
103
103
100
103
105
100
100
100
105
105
103
103
103
105
107
105
103
103
103
107
105
103
100
100
105
103
103
100
100
100
98
98
100
100
98
95
95
93
95
98
95
98
98
95
98
98
95
95
93
93
91
89
89
93
93
95
98
98
93
89
86
84
103
103
105
105
103
100
105
103
100
100
103
105
103
100
100
100
105
107
105
100
100
107
107
107
103
103
103
100
103
103
105
103
100
100
103
100
100
100
98
95
98
98
98
98
98
98
98
100
98
95
93
95
93
93
95
100
98
98
100
100
98
91
91
89
98
100
103
100
103
105
103
98
98
100
105
107
107
103
103
100
105
112
107
103
103
105
105
107
107
105
105
103
103
105
105
103
100
98
98
103
105
103
100
98
100
103
100
100
100
98
100
103
98
93
91
95
95
98
98
100
100
100
100
103
100
93
89
86
98
100
103
103
105
107
105
103
103
105
105
105
105
105
103
105
107
107
107
105
103
107
107
107
107
110
107
103
103
105
105
103
103
103
100
105
107
105
105
103
103
105
105
103
100
100
105
105
98
95
93
95
95
98
98
100
103
105
100
100
103
91
93
91
98
103
103
103
105
105
107
103
103
105
105
107
103
100
103
105
105
105
107
107
105
107
107
110
112
110
105
103
105
107
107
107
107
105
105
110
105
103
107
107
110
107
112
110
105
103
105
100
98
98
98
95
98
98
98
95
100
100
100
98
100
91
98
98
100
100
98
100
100
107
103
100
105
105
107
107
107
105
105
105
105
107
105
105
107
107
107
112
112
107
107
105
105
112
112
107
103
105
107
107
105
107
107
107
105
105
110
105
105
103
100
98
98
100
100
100
98
100
100
100
100
100
98
98
98
93
98
98
98
95
98
100
100
103
100
103
107
105
107
110
110
110
105
107
105
105
105
105
110
110
107
110
110
110
107
107
110
112
112
112
105
105
107
107
110
110
105
105
107
107
107
103
105
105
100
100
98
100
98
98
98
100
103
103
98
98
98
98
98
98
98
98
98
95
100
103
103
103
100
103
107
105
107
107
107
107
107
110
110
107
107
107
105
107
110
110
112
110
107
107
107
112
112
110
105
103
103
105
107
112
107
105
107
110
105
103
105
103
100
103
100
98
98
98
98
98
100
100
100
95
100
103
100
100
100
103
100
100
103
103
105
107
105
110
110
110
110
110
110
107
107
110
110
110
110
107
105
107
110
112
112
107
107
110
110
112
112
110
107
103
105
105
107
110
110
107
110
110
105
103
103
100
103
103
103
98
95
98
98
100
100
100
95
95
100
103
98
98
98
100
103
103
107
107
105
103
105
112
112
115
112
112
115
112
110
110
107
107
107
107
107
110
110
110
112
107
107
110
112
110
112
110
107
107
107
110
112
110
107
110
107
105
103
105
105
105
105
103
105
103
95
93
95
100
103
100
95
98
105
100
98
98
98
98
105
103
107
110
107
107
107
110
112
112
112
115
112
110
110
110
105
105
110
110
107
112
112
110
107
110
107
110
112
107
107
105
105
107
107
107
110
110
107
107
107
107
105
103
105
107
105
105
100
103
98
95
98
98
100
103
103
103
103
98
95
100
95
98
110
107
110
110
110
110
110
112
112
115
112
110
107
107
110
110
107
112
115
115
112
117
120
117
115
112
110
107
107
105
107
105
107
110
110
110
107
110
110
107
107
105
107
105
105
105
107
107
98
98
100
100
98
100
98
98
103
100
98
98
98
98
98
100
107
110
107
110
112
112
112
112
115
112
112
110
105
105
105
110
110
112
115
115
110
112
115
115
117
117
112
107
107
107
107
107
105
107
107
105
107
107
105
107
107
107
105
105
105
107
105
105
98
98
100
100
100
98
93
93
98
98
100
98
95
98
98
100
107
110
107
110
115
115
115
115
112
107
110
110
103
107
107
107
112
110
110
112
110
110
117
112
110
112
110
105
105
110
107
105
105
107
107
107
110
107
105
105
105
107
107
105
105
107
103
103
100
98
103
100
100
98
93
95
98
98
100
100
98
98
100
98
110
112
110
112
115
112
115
112
112
110
112
110
107
112
115
112
112
110
107
110
112
110
112
112
110
112
112
110
110
107
110
107
105
110
107
105
107
107
105
105
107
107
110
105
100
103
103
105
103
100
103
100
103
98
98
100
98
98
100
100
100
98
98
103
112
112
112
112
115
112
112
112
112
110
110
107
105
110
112
115
110
110
110
110
112
110
107
107
112
112
112
115
110
107
110
110
107
107
105
103
107
107
103
105
105
107
107
107
103
103
103
103
100
98
95
95
100
100
100
98
93
95
103
105
103
103
105
103
110
112
112
112
112
110
107
107
110
110
110
107
107
110
112
112
112
115
115
112
110
107
110
115
120
115
112
112
107
107
110
110
110
105
103
107
110
107
105
107
110
110
107
107
105
103
103
103
100
98
93
93
98
100
98
98
95
100
100
103
100
103
105
103
110
115
117
110
105
105
105
107
107
110
110
105
112
110
112
112
115
115
112
112
110
112
112
117
117
115
110
110
107
110
112
112
110
107
103
105
107
110
110
107
107
110
107
103
103
103
103
100
100
98
95
93
100
100
100
100
98
98
98
100
98
100
105
105
112
115
115
110
105
107
107
110
110
115
112
110
112
110
112
112
115
117
115
115
115
115
112
110
115
110
107
107
110
112
110
112
110
105
105
105
107
110
110
103
105
105
103
103
105
105
103
103
103
103
98
95
98
100
103
100
98
98
98
100
100
100
103
103
112
115
115
110
107
107
110
112
110
117
115
115
112
112
115
117
117
117
120
115
117
115
112
112
112
112
110
107
110
112
110
110
107
105
105
105
107
110
110
105
105
105
103
103
103
105
105
103
105
105
103
98
98
103
100
98
95
100
103
103
100
100
100
100
115
112
112
110
107
107
112
112
115
115
115
115
112
115
120
122
117
115
117
117
115
110
112
112
115
110
107
107
110
112
107
110
110
107
107
112
112
110
107
107
107
105
105
100
100
103
105
100
100
105
103
95
98
100
98
95
95
98
103
103
98
98
103
105
112
112
112
110
110
110
110
112
112
112
112
115
115
120
120
120
117
112
110
112
115
107
110
112
110
110
107
110
112
110
105
107
110
107
110
112
112
110
107
107
107
103
103
100
103
105
103
100
105
107
100
95
100
103
100
100
100
98
103
103
103
103
103
105
110
107
107
107
110
107
110
115
110
110
112
112
115
117
117
117
117
115
112
115
115
112
112
112
110
107
110
112
110
110
107
107
107
110
110
110
110
107
105
107
107
105
105
103
105
105
105
103
107
107
103
100
100
103
100
103
103
100
103
100
100
100
98
98
107
105
107
107
107
107
110
112
107
107
110
110
112
115
117
117
115
117
117
117
112
117
120
115
110
110
112
112
107
107
107
107
107
107
110
112
110
107
105
105
107
107
103
105
105
107
105
103
105
103
103
100
98
103
100
98
103
100
100
98
95
98
95
98
105
107
110
107
112
112
112
112
107
105
107
112
115
117
117
117
115
115
117
115
115
120
120
117
110
112
115
112
107
107
110
110
112
112
110
112
110
105
103
103
105
105
98
103
105
105
105
105
103
103
103
98
95
100
100
103
103
100
103
100
100
98
98
103
110
112
110
107
112
112
112
115
110
107
107
112
115
115
115
112
112
115
120
115
115
120
120
115
115
112
110
110
110
112
112
110
112
112
110
110
110
107
105
103
103
100
100
107
110
110
110
107
107
105
103
100
100
103
103
103
100
103
103
103
105
103
100
103
115
112
110
107
112
115
115
112
110
110
112
115
112
112
112
107
110
112
120
115
112
115
117
112
115
112
112
112
115
115
112
115
112
112
112
110
112
107
103
103
103
103
105
110
112
112
107
110
107
105
107
105
103
103
103
103
103
105
105
103
98
100
103
100
112
112
112
110
115
115
115
112
112
112
115
112
112
112
112
107
107
110
112
115
115
115
117
112
112
112
110
112
115
115
112
110
110
115
112
107
107
110
105
100
100
103
105
107
110
110
103
105
105
105
103
105
105
105
107
105
103
107
107
107
100
98
100
98
112
110
112
115
115
110
112
115
117
117
117
110
110
112
112
110
110
112
115
120
117
115
115
112
115
112
112
115
115
115
107
105
107
112
110
107
107
110
107
100
103
105
105
107
107
107
107
107
105
105
105
107
107
107
110
110
107
110
110
107
103
103
100
100
110
107
110
115
115
107
110
115
117
112
112
110
112
115
112
110
110
115
115
120
115
117
117
115
115
115
115
115
115
112
112
110
112
110
110
107
110
110
105
103
107
110
110
107
105
107
110
110
107
107
105
107
107
110
112
110
107
107
110
107
105
107
105
103
115
112
110
110
110
110
112
115
115
112
112
112
112
117
112
112
110
115
115
115
112
117
117
117
115
117
115
115
115
115
120
115
112
115
112
110
110
110
105
107
110
112
112
110
105
105
110
110
107
105
105
107
107
110
110
105
105
105
110
107
107
107
107
105
115
110
110
110
112
107
112
115
115
115
112
112
112
110
107
107
112
117
117
110
110
115
117
117
115
112
117
117
115
115
117
117
115
115
115
115
112
112
107
110
112
112
115
110
107
103
105
103
107
103
103
105
107
107
110
107
105
105
110
105
107
107
107
112
115
112
110
112
110
110
115
117
110
110
110
110
112
110
110
110
112
117
117
115
115
115
115
117
115
115
117
120
117
117
115
115
115
115
117
115
112
112
112
115
115
112
112
110
107
110
107
105
105
105
105
105
105
105
105
107
105
105
105
105
105
105
110
115
115
115
112
110
110
112
115
115
110
110
112
110
110
112
110
110
110
112
117
117
120
117
115
115
115
115
117
115
115
117
115
112
112
117
117
115
112
112
112
115
115
110
107
105
107
112
112
110
107
105
107
110
105
100
103
105
105
105
103
103
103
105
105
105
107
115
115
112
115
115
115
115
112
112
112
110
112
115
115
107
110
112
115
115
120
117
117
120
117
115
115
115
112
115
112
110
112
115
115
115
117
117
115
112
110
107
110
105
107
107
107
110
110
107
110
110
107
100
100
105
105
105
105
103
103
103
100
103
110
115
115
112
112
112
115
117
112
110
110
112
115
115
110
107
107
112
115
112
112
115
117
117
115
112
115
120
115
115
112
110
112
112
115
117
117
117
120
115
112
110
110
105
103
107
110
115
115
110
110
110
107
105
105
107
110
107
107
105
105
105
100
103
112
115
115
112
110
112
117
120
112
110
112
115
115
110
107
107
110
112
117
115
112
115
117
117
115
115
117
120
117
115
112
112
112
115
120
120
120
120
120
120
115
110
107
107
105
107
110
112
112
107
107
107
105
103
105
110
110
110
110
105
105
103
103
105
112
115
115
115
112
115
117
117
110
110
110
110
107
110
110
107
112
112
117
120
117
117
120
122
117
117
117
117
115
115
112
112
115
117
117
117
115
117
117
115
117
110
110
110
107
107
107
107
110
110
112
110
110
105
107
110
107
112
110
107
105
103
105
107
112
115
115
117
117
115
115
112
112
112
115
112
105
110
112
110
112
115
117
120
120
120
120
122
117
117
117
117
115
115
115
117
117
117
115
115
115
117
117
117
112
112
112
112
107
107
107
107
110
112
112
107
103
107
107
105
103
110
110
110
107
107
107
105
110
110
112
117
117
117
117
112
115
112
115
112
110
110
110
110
115
115
117
117
115
117
120
122
117
117
120
120
120
122
120
120
120
117
115
115
115
117
112
112
112
110
110
110
107
105
105
107
107
112
112
103
103
107
105
105
105
110
110
110
110
110
110
103
107
110
110
115
117
117
117
115
115
112
115
112
112
112
112
115
117
120
120
117
115
117
122
122
122
125
125
125
125
125
125
117
117
120
117
115
112
115
112
112
110
105
107
110
110
107
103
105
107
112
110
105
105
105
105
107
110
112
110
107
107
107
105
100
112
110
110
112
115
117
117
115
115
115
115
112
112
115
115
112
117
117
120
120
117
120
120
120
125
125
125
125
125
122
125
122
120
120
120
115
115
115
115
117
112
110
110
112
110
107
105
107
110
110
112
110
110
107
107
103
107
107
110
107
110
110
105
103
115
110
107
110
115
117
117
115
115
117
112
112
112
115
115
115
117
120
120
122
120
117
117
120
122
122
122
122
122
120
120
120
120
120
117
117
117
117
115
115
117
112
110
107
107
105
103
105
110
107
112
112
110
110
110
105
103
105
107
110
107
107
105
100
112
110
110
115
117
115
115
112
112
115
112
112
115
115
115
117
117
117
122
120
117
115
117
117
120
120
120
122
125
117
115
117
120
115
112
117
120
115
112
112
112
110
110
107
105
105
105
103
107
107
110
112
110
110
107
100
105
103
105
107
107
105
103
103
110
110
112
115
120
117
117
115
112
115
112
115
115
117
115
117
117
120
122
120
117
120
120
120
120
120
120
122
120
117
117
117
117
115
117
117
115
115
112
110
110
112
115
110
105
105
107
110
110
112
112
112
105
107
107
103
103
103
105
103
103
107
110
107
110
112
115
117
120
115
117
120
115
115
115
115
117
117
115
115
115
117
122
120
117
120
120
120
122
120
120
120
117
117
120
117
120
117
120
117
115
112
112
110
112
115
115
112
107
107
115
115
112
110
112
110
105
107
107
105
103
103
107
103
100
105
112
110
112
112
117
115
112
110
110
115
115
115
117
112
112
112
112
112
112
117
122
120
120
120
120
120
120
122
117
122
122
122
120
120
120
115
112
117
115
115
115
112
110
112
112
112
107
110
112
112
110
110
105
107
107
110
107
103
105
105
103
103
103
107
110
110
112
110
115
117
115
115
110
112
112
115
117
115
112
110
107
112
115
115
120
120
120
122
122
122
117
120
120
120
122
120
122
122
120
115
115
115
112
110
110
112
110
107
110
112
112
110
107
110
107
107
107
110
110
110
110
105
105
105
103
103
105
110
110
107
115
112
115
117
117
120
112
110
112
115
117
115
115
115
112
117
115
112
122
122
122
122
122
125
122
117
120
120
120
122
122
120
115
115
115
115
112
112
110
107
107
112
110
112
112
112
107
107
107
110
112
107
107
110
110
105
105
105
105
103
105
107
107
105
120
117
115
115
117
117
117
115
115
115
112
115
120
117
115
115
117
117
122
122
122
120
122
125
125
122
120
120
120
125
122
120
120
117
115
115
115
115
112
107
110
112
112
112
107
107
105
105
107
112
115
110
107
110
107
107
105
103
105
103
103
103
103
100
120
120
120
117
115
117
117
115
112
110
110
115
120
120
117
117
120
115
112
117
120
120
120
122
125
122
122
122
122
125
125
120
117
117
115
112
115
115
110
110
110
112
112
107
107
107
105
105
110
112
110
110
110
110
105
105
105
103
103
103
105
107
105
100
