P2
# 484 of 608 Angiograms
64 64
255
154
151
149
144
142
142
139
137
139
147
154
159
159
159
159
159
159
154
159
161
161
163
163
163
163
165
168
165
165
161
151
151
156
161
163
161
161
161
161
161
159
159
154
151
151
147
142
142
144
144
149
151
149
149
149
149
151
154
154
147
144
144
142
139
154
151
149
144
142
142
142
139
142
151
159
163
163
159
159
159
159
156
159
161
161
163
163
163
163
165
168
163
163
159
154
154
161
163
165
165
161
159
161
161
161
159
156
154
151
147
149
147
144
147
149
149
149
147
151
151
154
156
154
149
144
139
139
137
151
151
149
147
144
144
142
144
149
156
161
163
163
161
161
161
156
159
159
161
161
161
161
161
161
163
165
163
163
159
159
156
161
163
163
163
161
161
163
163
163
161
161
159
149
149
149
149
149
149
149
149
149
147
151
154
159
159
154
149
144
139
137
137
147
149
149
151
154
151
149
149
154
159
161
161
159
159
159
159
156
156
159
159
161
161
159
159
161
163
161
161
161
159
156
156
159
161
161
161
159
156
161
163
161
159
159
159
151
149
151
151
154
154
149
149
144
144
149
154
156
154
151
149
144
139
137
137
147
149
151
154
156
154
154
154
159
163
163
163
161
156
156
156
156
156
156
159
161
161
156
156
159
163
163
161
161
156
159
161
161
161
161
159
156
156
156
159
159
159
159
159
154
151
154
151
154
156
154
149
149
147
149
154
154
151
149
147
144
144
142
137
154
154
154
154
159
156
154
159
163
163
163
163
161
159
156
156
159
159
156
159
161
161
156
154
159
161
161
163
161
159
161
161
159
161
159
159
159
159
156
159
159
159
159
156
154
154
151
151
156
156
154
151
149
151
151
151
154
151
149
147
144
144
144
139
154
156
156
156
159
159
161
163
163
163
161
161
159
159
159
159
159
161
161
159
159
156
154
156
159
161
161
159
156
159
161
161
161
161
159
159
159
159
159
161
161
159
161
159
156
154
151
151
156
154
154
156
151
149
151
151
149
151
151
149
144
147
147
144
154
159
159
161
163
163
163
163
161
161
159
161
161
161
161
161
161
161
163
159
156
154
151
156
156
159
156
156
154
159
161
161
161
161
159
161
161
159
161
163
161
161
159
159
156
154
154
151
151
151
156
154
151
154
154
154
149
147
149
149
147
147
144
144
154
159
161
161
161
161
159
161
161
161
159
156
163
165
163
163
161
163
163
161
156
154
154
154
154
154
154
154
154
156
161
161
159
159
159
161
163
163
163
163
161
159
159
156
154
149
154
154
151
151
156
156
154
156
156
156
151
147
147
149
147
144
144
144
156
161
161
161
159
159
156
159
159
159
156
159
163
165
163
161
159
161
161
161
156
154
154
156
154
154
154
154
156
156
161
161
159
161
161
159
161
163
163
163
161
159
159
156
151
149
151
156
154
154
156
156
156
156
159
156
151
147
147
147
147
144
144
144
159
161
159
159
159
159
159
159
159
161
161
161
161
163
161
161
161
161
163
163
161
159
159
159
154
156
156
156
156
156
161
161
163
165
165
163
161
163
163
163
161
159
159
154
151
151
154
156
159
156
159
159
159
159
159
154
149
147
144
147
147
142
144
147
159
159
161
159
156
154
156
156
161
161
161
163
163
163
161
163
161
163
165
165
163
163
161
159
156
156
154
154
154
156
161
161
163
165
165
163
159
161
161
159
156
156
151
149
151
154
156
159
159
159
161
163
163
161
156
151
149
147
144
147
147
147
144
147
154
159
161
156
154
151
154
159
159
161
161
161
161
163
163
163
163
163
163
165
163
163
163
161
156
156
154
156
156
156
161
161
163
163
163
159
156
156
154
151
151
149
149
147
149
154
156
154
156
159
163
165
165
159
154
151
151
151
147
144
144
147
144
144
154
156
159
159
156
154
156
159
159
161
161
161
161
163
163
163
163
163
165
163
163
161
161
159
156
156
154
151
154
156
161
163
161
159
161
159
156
154
151
149
149
149
149
147
147
151
154
154
156
156
163
165
165
159
154
154
156
154
151
144
142
142
142
142
154
154
159
159
161
159
159
159
156
159
159
159
161
159
163
165
163
163
161
161
163
161
159
156
154
156
154
149
149
154
159
161
161
159
159
159
156
151
149
151
149
151
149
147
147
149
154
154
154
154
161
165
163
159
156
156
154
151
151
147
142
144
142
139
156
156
161
161
161
161
161
159
156
159
159
161
163
161
161
163
161
159
159
161
161
159
156
154
151
151
151
149
151
154
156
159
161
161
159
156
154
154
149
149
149
149
149
144
147
149
151
154
154
156
159
163
161
159
159
154
151
151
151
147
142
144
142
144
154
156
163
165
161
161
161
159
156
156
159
163
163
163
161
161
161
159
159
159
161
159
156
151
151
151
151
151
151
154
154
156
159
159
156
151
151
151
149
151
154
154
151
149
147
149
151
154
154
156
159
161
159
156
151
149
149
149
151
149
142
142
142
144
151
159
163
165
161
161
159
154
151
154
156
161
163
163
163
161
161
161
156
156
159
156
154
151
151
149
151
154
156
159
156
159
161
159
156
154
154
154
151
154
156
159
156
151
149
149
149
149
154
154
154
154
154
151
149
144
147
151
151
149
142
142
144
144
156
156
161
163
161
159
156
154
151
154
154
159
161
163
165
165
163
161
159
154
154
151
149
149
149
149
151
154
156
161
161
163
161
163
163
161
159
154
151
154
154
156
156
151
149
149
149
149
151
149
151
151
151
151
147
144
144
149
149
149
144
142
142
142
159
156
159
163
161
156
159
159
156
154
154
156
161
163
165
168
165
161
159
156
154
151
147
147
149
147
149
154
156
159
161
161
161
163
163
161
161
154
151
151
149
149
149
149
149
151
149
149
151
149
151
151
149
147
147
147
147
147
147
149
149
144
144
144
159
159
159
163
161
159
159
163
163
159
156
159
159
163
165
168
165
163
161
159
156
151
147
147
147
147
151
154
156
159
161
163
163
163
161
163
161
154
151
149
147
147
147
149
151
151
149
149
149
151
149
149
149
147
147
147
147
147
144
144
149
147
147
144
159
159
161
161
161
159
159
161
161
156
154
159
161
161
163
165
165
165
163
161
156
151
147
144
147
149
154
159
159
161
161
163
165
163
159
159
156
151
149
147
144
144
147
149
149
147
147
149
149
151
149
151
151
151
149
149
149
149
144
144
144
144
147
144
159
159
161
161
159
156
156
161
159
159
159
159
159
161
161
161
161
161
159
159
156
154
151
149
151
151
151
154
154
156
156
159
163
163
159
159
156
151
151
149
147
144
147
149
149
149
144
144
147
149
149
154
154
156
154
149
151
149
147
147
147
144
144
142
159
156
159
159
161
159
156
156
154
156
156
154
154
156
156
156
156
156
156
156
156
156
156
151
154
151
151
151
151
151
156
156
161
161
159
161
161
156
156
154
154
151
154
151
151
151
149
147
149
149
151
151
151
154
156
154
154
156
154
149
144
142
142
142
156
154
154
159
161
159
154
154
156
154
149
151
154
154
154
154
156
159
159
159
159
156
156
154
154
154
154
159
159
154
156
156
159
159
161
163
161
154
154
154
156
156
156
156
154
154
151
154
154
151
151
151
149
151
151
154
156
156
156
151
144
139
142
139
154
154
156
159
161
161
156
154
154
151
149
151
154
154
154
156
159
159
159
159
159
154
154
156
156
154
154
159
161
159
156
156
159
161
161
163
156
154
151
154
156
156
156
156
156
156
151
151
151
149
151
149
151
154
151
156
156
156
156
154
147
142
142
139
151
154
156
159
159
161
161
156
154
154
151
151
154
156
159
161
159
159
159
161
161
159
154
154
156
154
154
156
159
159
156
156
156
159
161
159
156
154
154
156
156
159
159
159
159
159
156
154
154
151
151
149
151
154
154
156
156
154
156
154
149
144
142
137
149
151
156
159
159
161
163
161
159
156
154
154
156
156
159
156
156
159
156
159
159
159
156
156
156
154
151
154
156
154
156
159
159
159
156
154
156
156
154
156
159
159
161
161
161
161
159
156
154
154
151
151
149
154
159
156
154
154
154
151
149
147
139
137
151
151
156
159
159
163
165
165
165
161
159
154
156
156
156
156
154
156
156
159
161
159
159
156
154
151
151
151
151
154
159
159
159
161
159
156
156
159
156
154
156
161
163
165
163
161
159
156
156
156
154
151
151
149
156
156
156
154
154
149
147
142
139
139
154
154
156
156
156
161
165
168
165
163
159
156
159
156
156
156
156
156
159
161
161
159
159
154
151
149
149
149
149
149
154
156
159
159
159
159
159
159
156
159
161
163
165
165
165
161
159
156
154
156
151
149
149
149
154
154
156
156
151
147
144
139
137
134
154
154
156
159
156
161
163
163
161
161
159
156
154
154
154
156
156
159
159
163
161
159
159
151
151
151
151
154
151
149
151
156
156
156
159
159
161
161
161
161
161
165
163
161
161
159
159
159
156
154
154
149
147
147
149
151
154
154
151
149
144
142
139
134
154
154
156
154
156
159
161
161
161
161
159
156
151
154
154
156
159
159
161
161
159
156
154
151
151
151
151
154
151
149
151
156
159
156
156
161
159
161
161
161
165
165
163
161
161
161
159
161
159
159
156
154
149
144
144
149
149
151
151
149
147
144
139
134
151
151
151
154
156
159
159
159
156
159
161
156
154
154
154
156
161
165
165
163
159
154
154
151
154
154
151
154
151
149
149
154
156
156
156
161
159
161
163
165
168
168
163
159
161
163
161
161
159
156
156
156
151
144
147
147
147
149
149
149
147
144
139
137
147
149
151
154
154
156
156
154
156
159
159
156
154
151
154
156
159
163
165
165
159
159
156
154
154
154
156
156
151
149
149
151
151
156
161
161
163
165
165
168
170
170
163
163
163
163
161
159
156
154
154
154
151
147
147
147
142
142
147
144
147
144
139
139
144
147
151
151
151
151
156
154
156
154
156
159
154
151
154
161
163
165
165
163
161
161
159
151
154
156
156
159
156
151
149
149
154
159
163
165
163
165
170
168
170
170
165
165
165
165
161
159
156
154
156
151
151
151
149
149
144
147
147
144
147
149
144
139
142
147
147
149
151
151
154
154
154
156
156
159
159
156
159
163
165
165
163
161
161
161
159
151
151
159
159
159
156
156
151
149
154
159
161
163
163
163
168
170
170
168
163
165
165
165
163
161
159
156
156
154
149
147
147
147
147
149
149
147
147
147
147
144
142
147
147
147
149
151
151
154
159
156
154
156
159
159
159
163
165
165
163
163
161
159
156
151
154
161
163
163
159
156
154
151
156
161
163
163
161
161
168
168
165
165
163
163
163
161
161
161
159
156
154
151
147
147
147
147
142
144
149
147
147
144
144
147
139
147
149
147
147
151
154
156
159
156
154
156
156
159
159
161
163
163
163
161
159
159
156
156
159
165
168
165
161
159
154
154
159
161
163
163
163
163
168
165
163
161
163
161
159
156
156
159
159
156
151
151
149
149
144
142
142
144
149
147
147
144
142
144
134
144
147
147
149
151
154
154
156
161
159
154
156
156
156
159
163
163
161
161
159
161
161
159
161
165
168
163
161
159
156
159
161
163
161
161
163
163
163
163
163
163
163
159
154
149
151
154
156
154
151
149
149
149
144
139
137
142
147
147
147
144
142
144
132
139
144
147
151
154
154
154
156
159
159
156
156
154
154
154
159
159
159
159
159
161
161
161
163
163
163
163
161
161
159
161
161
161
161
159
159
161
161
161
161
161
161
156
151
149
149
151
154
154
154
149
149
149
144
139
137
142
144
147
147
144
144
147
129
134
144
147
154
154
151
154
156
156
156
154
154
151
149
149
154
156
156
156
156
161
161
161
163
163
163
163
161
161
159
161
159
159
159
159
159
159
161
159
159
159
159
154
151
149
149
154
154
151
151
151
149
147
147
144
142
142
144
142
144
147
147
144
127
134
142
147
151
154
151
154
154
154
151
147
147
149
147
147
151
154
154
154
156
163
161
161
163
163
163
161
159
161
161
156
156
159
156
156
159
159
159
156
156
159
156
151
149
151
154
156
151
151
149
147
149
149
147
147
144
139
139
142
149
147
144
142
129
137
142
144
149
149
149
151
151
151
147
144
144
147
147
147
149
151
149
151
156
161
161
159
161
161
163
159
159
163
163
159
156
159
159
156
159
156
156
154
156
156
156
154
151
151
154
154
154
151
151
149
149
151
147
147
144
139
142
144
149
147
147
142
132
134
142
144
147
147
149
149
151
147
144
144
144
147
147
149
149
151
151
154
156
159
161
159
159
159
161
159
161
163
163
161
159
156
159
159
156
154
154
154
156
156
159
156
156
156
156
154
154
151
151
151
149
149
147
147
139
139
142
144
144
144
144
144
134
132
134
142
144
144
149
151
151
147
142
139
142
142
147
149
151
151
154
159
159
159
159
161
159
156
159
159
163
165
165
159
156
156
159
156
151
151
154
154
156
156
159
156
156
156
154
151
154
151
151
151
151
149
149
147
139
137
142
144
144
144
147
144
132
129
132
134
139
142
147
151
151
144
139
142
144
142
147
149
149
154
156
159
159
159
156
159
159
159
159
159
161
165
163
156
156
159
161
156
151
151
151
154
156
159
159
156
154
154
154
151
151
149
149
151
156
151
149
147
139
137
142
147
144
144
144
144
129
129
132
132
134
139
144
147
144
139
137
144
147
144
149
151
151
154
156
159
156
159
161
161
159
159
156
156
161
161
159
156
156
159
156
154
151
151
154
154
154
156
159
161
156
151
151
151
149
149
149
151
154
154
151
151
147
139
142
144
144
144
144
142
127
127
132
129
134
139
142
142
144
139
139
144
149
151
151
154
154
154
156
159
156
159
163
163
161
161
156
156
159
156
156
156
156
156
156
154
151
149
151
154
151
154
159
159
154
151
149
147
149
149
149
151
151
151
151
151
147
144
142
142
144
144
142
142
125
127
129
129
134
142
142
142
144
144
139
144
149
154
156
156
154
151
154
156
156
156
159
163
163
161
159
159
156
159
159
159
159
159
159
156
151
149
147
151
154
156
159
154
149
147
144
144
147
151
151
149
154
154
154
151
149
147
144
142
142
139
139
139
127
129
132
134
137
142
144
142
144
142
142
144
151
156
161
156
156
154
154
151
154
156
159
159
161
159
161
163
161
161
159
159
161
161
159
154
151
149
144
149
151
156
156
151
149
149
144
147
149
154
154
151
156
154
154
149
147
147
147
144
144
139
139
142
129
132
132
137
139
139
142
142
142
144
142
147
154
156
159
161
161
156
154
154
151
156
159
161
159
156
159
159
159
159
161
163
163
161
159
154
149
149
147
149
154
156
156
154
151
149
144
147
151
154
156
156
154
151
151
147
144
147
147
147
147
142
139
144
132
134
134
137
137
137
139
139
139
142
142
149
154
156
159
163
159
154
154
154
154
156
159
159
156
156
156
159
159
159
161
163
163
161
159
154
149
149
151
151
156
159
156
156
154
149
149
151
151
154
154
156
154
151
149
144
142
142
144
147
149
147
144
142
132
137
139
137
139
137
137
142
142
144
147
151
154
154
156
159
156
154
154
151
151
154
156
154
151
151
154
159
156
156
161
163
168
163
159
154
154
154
154
154
154
156
156
154
151
151
154
151
154
154
156
154
156
154
147
142
139
144
144
147
147
144
147
144
132
137
139
139
139
137
134
139
144
147
149
151
154
151
151
154
154
151
151
149
149
151
151
149
147
147
154
159
159
159
161
163
163
161
156
154
151
154
154
151
151
149
154
154
154
154
154
156
156
156
156
154
156
154
144
139
139
142
147
147
147
144
147
147
129
139
142
142
139
139
137
134
142
144
147
151
154
151
151
154
156
154
154
149
149
149
149
151
149
147
154
159
161
161
159
161
161
159
156
154
156
156
156
151
149
144
149
154
154
154
156
159
156
154
154
154
156
151
144
142
139
139
142
144
149
144
144
144
132
137
142
142
142
142
139
134
139
144
147
151
151
154
156
156
159
159
159
156
151
151
149
151
151
151
156
159
159
159
159
156
159
156
154
154
156
156
154
151
151
149
151
154
154
156
156
159
156
151
151
151
154
149
142
142
137
137
142
144
147
144
142
139
132
134
139
142
142
139
137
139
139
144
147
149
151
156
159
161
163
161
161
159
156
156
154
154
154
154
159
159
161
159
159
156
156
154
154
154
154
151
151
151
149
147
154
154
151
156
159
156
154
149
147
151
149
144
144
139
137
139
142
144
142
142
139
134
134
137
137
139
142
142
142
139
139
142
147
149
151
156
161
161
163
163
161
161
161
159
159
156
154
156
161
159
159
159
154
151
154
156
156
154
151
151
151
147
147
147
149
151
149
151
151
156
151
147
149
151
149
149
147
147
142
142
144
144
139
137
134
132
134
137
139
139
142
142
137
139
142
144
147
151
154
159
161
161
161
163
163
161
161
156
156
159
159
159
159
156
156
156
154
151
151
154
151
151
151
149
149
147
144
144
147
149
149
149
151
151
149
147
149
149
149
149
149
149
149
147
147
139
134
134
132
132
134
134
137
139
142
142
137
137
139
142
151
156
156
156
159
159
161
161
161
159
159
156
156
159
161
159
161
159
156
154
154
154
154
151
151
151
151
149
149
147
144
144
144
147
147
147
149
147
149
149
147
144
147
149
149
147
149
147
142
132
132
132
132
132
137
134
137
139
144
144
139
134
134
142
151
159
159
154
151
154
156
161
161
159
161
156
156
156
156
159
159
156
154
154
154
154
154
151
154
154
154
154
154
151
149
147
144
147
149
149
149
149
149
149
144
144
144
147
144
144
144
142
134
129
132
132
134
132
142
139
139
144
149
147
139
134
134
139
147
156
156
154
154
156
156
161
159
159
161
159
156
154
151
156
161
156
151
156
156
156
156
156
159
156
156
159
159
154
154
151
149
149
149
151
151
156
154
151
147
149
149
147
147
147
144
139
137
134
134
134
134
132
144
142
142
147
147
147
142
139
139
144
149
154
156
154
154
154
159
161
159
156
156
156
156
156
151
154
159
159
156
159
161
161
159
156
161
161
161
161
161
159
159
156
151
149
151
154
154
156
156
154
151
151
149
149
151
149
144
137
137
137
134
137
137
134
144
142
144
149
147
144
144
142
142
147
154
154
154
154
156
156
159
156
154
154
154
154
151
154
154
156
159
159
159
161
163
163
161
161
163
163
165
165
163
161
163
161
159
154
154
154
154
156
156
159
159
154
151
149
149
147
144
142
139
137
137
137
137
137
