P2
# 491 of 608 Angiograms
64 64
255
233
238
240
242
243
244
244
244
244
244
244
243
242
240
238
237
236
236
236
235
234
235
235
235
236
236
236
234
233
233
232
232
230
229
229
228
229
232
232
232
232
233
234
236
237
238
237
236
233
229
226
221
218
210
206
206
206
209
213
214
217
218
219
217
234
238
241
243
244
244
244
244
244
244
244
243
241
239
238
236
236
236
235
235
234
235
236
236
235
235
235
234
233
233
232
232
231
230
229
229
231
233
233
233
233
234
235
236
237
237
236
233
231
228
224
219
214
207
204
204
206
207
211
214
217
218
218
217
234
239
242
244
245
245
245
244
244
244
243
242
240
238
236
236
236
235
235
235
235
235
236
236
235
234
233
233
233
233
233
233
231
230
230
231
231
233
233
233
234
235
235
236
236
236
234
233
229
226
221
217
210
204
201
202
206
209
211
214
217
217
217
215
235
239
243
244
245
245
245
244
244
243
242
241
238
236
236
235
235
235
236
236
235
235
235
235
234
233
233
233
233
233
233
233
232
231
231
231
232
232
233
233
234
235
236
236
236
235
233
232
228
224
218
214
207
202
199
201
204
209
211
213
214
214
215
214
235
240
243
245
245
245
245
244
244
243
242
239
237
235
234
234
235
235
236
236
236
235
235
234
234
233
233
234
233
233
233
233
233
232
232
232
233
233
233
233
234
235
236
236
236
235
233
230
227
221
217
211
206
202
201
201
204
209
210
211
211
211
211
211
236
240
244
245
245
245
244
244
243
242
241
239
236
234
233
234
235
236
236
236
236
235
234
234
234
234
235
235
235
234
234
233
233
232
232
232
232
232
232
233
234
235
236
236
236
235
233
229
225
220
215
209
204
202
202
202
206
209
209
210
209
209
209
209
236
241
244
245
246
245
245
244
243
242
240
238
236
234
233
234
235
236
237
236
235
235
234
234
235
236
236
236
236
235
235
233
232
231
231
231
231
231
232
233
234
234
234
235
235
235
232
228
224
219
215
209
204
202
204
206
206
207
207
207
206
206
207
207
236
241
245
246
246
245
245
244
243
242
240
238
236
235
235
235
236
238
237
236
236
235
235
236
237
237
237
236
236
236
234
233
231
230
229
229
230
231
232
233
233
233
233
234
235
234
231
228
224
220
214
207
204
202
204
206
207
207
207
207
206
204
206
207
236
241
245
245
246
245
245
244
243
242
240
238
236
236
236
237
238
238
238
236
236
236
236
237
238
238
237
236
236
235
233
231
229
228
228
228
228
230
232
233
233
233
233
233
234
233
229
226
224
220
214
207
206
204
206
206
207
207
207
207
206
204
206
207
237
242
244
245
245
245
245
244
243
241
239
237
236
236
238
238
238
238
238
237
237
236
237
237
237
238
237
236
236
234
232
230
228
228
228
229
229
230
232
233
234
234
234
234
233
231
227
225
223
219
214
207
206
206
207
207
209
209
209
209
207
207
207
207
238
242
244
245
245
245
244
243
241
240
238
236
236
238
239
239
239
238
238
238
237
236
236
236
236
236
236
236
234
233
231
230
229
229
229
230
230
231
232
233
235
235
234
234
232
228
225
224
221
218
213
207
206
207
209
210
211
211
211
211
210
210
209
209
238
242
244
245
245
244
243
242
241
239
238
236
238
239
239
239
239
239
238
238
237
236
236
236
235
235
235
234
233
233
232
231
231
231
231
232
231
231
232
233
235
235
234
233
228
226
225
223
219
217
213
207
207
207
209
210
211
213
214
215
215
214
211
210
238
242
244
244
244
243
243
241
240
239
238
238
239
239
239
240
240
239
238
237
236
236
236
236
236
235
235
234
233
233
233
233
233
233
233
233
232
232
232
233
235
234
233
230
227
225
224
221
218
214
211
207
207
209
209
211
214
215
218
219
219
218
217
210
237
241
243
244
243
243
242
241
240
239
238
239
240
240
240
240
240
239
238
237
236
235
236
236
236
236
235
234
233
233
233
233
233
233
233
233
233
233
233
233
234
233
231
228
226
225
223
219
215
213
210
207
207
207
209
211
214
217
218
220
221
221
219
211
236
241
243
243
243
243
242
241
240
239
239
239
240
240
240
240
240
240
239
238
236
236
236
236
236
236
235
234
233
233
233
233
233
233
233
233
233
233
233
233
234
233
229
227
225
223
220
218
214
211
209
206
204
206
209
211
213
215
218
220
221
221
219
210
236
240
242
243
243
243
242
241
240
240
239
240
240
241
241
241
240
240
240
239
238
236
236
236
236
236
235
234
233
233
233
233
234
234
233
233
234
234
233
233
233
231
228
226
224
221
220
217
213
209
207
204
202
206
210
211
214
215
218
220
221
221
219
209
236
240
242
243
243
243
242
241
240
240
240
240
241
241
241
241
241
240
240
239
238
237
236
236
236
236
235
234
233
233
233
233
233
233
233
233
234
233
233
233
232
231
228
226
224
221
219
217
211
207
206
202
204
207
210
213
214
217
218
220
221
221
219
207
236
239
241
242
242
242
242
241
240
240
240
241
241
241
242
242
241
240
240
239
238
238
237
236
236
236
236
235
234
234
233
233
233
233
233
233
233
233
233
232
231
231
228
226
223
220
218
215
210
207
206
206
207
210
213
213
214
217
218
220
221
220
218
207
235
239
240
241
241
242
241
241
240
241
241
241
241
241
242
241
241
240
240
240
239
238
238
237
236
236
236
235
235
235
234
233
233
233
233
233
232
232
231
231
230
230
228
225
223
219
217
213
209
206
206
207
209
210
213
214
215
217
219
221
221
220
217
206
234
238
240
240
240
241
241
241
241
242
241
241
241
241
242
241
241
240
240
240
239
239
238
238
237
236
236
236
236
235
234
233
232
232
232
231
231
230
230
229
230
230
227
224
221
218
215
210
207
207
206
209
211
210
210
214
215
218
220
221
221
220
218
206
234
238
240
240
239
240
241
241
242
242
241
241
241
241
241
241
241
240
240
239
239
239
238
238
237
236
236
236
236
235
233
232
231
231
231
230
229
228
229
229
230
229
227
224
219
217
213
209
207
207
209
210
211
211
211
214
215
219
221
223
223
221
219
206
234
238
239
240
240
240
240
241
242
241
241
241
240
240
241
241
240
240
239
239
239
238
238
237
236
236
236
236
236
235
233
231
231
231
231
229
228
228
229
230
230
229
227
221
218
214
210
207
209
209
210
211
213
213
213
214
217
219
223
224
224
223
220
207
235
239
240
241
241
241
241
241
241
241
241
241
241
241
241
241
240
239
239
238
238
238
238
237
236
236
236
237
236
235
233
233
232
232
231
230
230
230
230
230
230
229
227
221
217
211
209
207
209
209
210
213
214
213
214
215
217
219
221
224
225
226
224
210
235
239
241
242
242
242
241
241
241
241
241
241
241
241
241
241
240
239
238
238
237
238
238
237
236
236
237
238
236
235
234
233
233
233
233
232
232
232
231
230
230
228
226
220
215
210
209
209
209
210
211
213
214
215
215
217
218
218
220
224
226
228
225
213
235
239
241
242
242
242
242
242
242
242
242
242
242
241
241
240
239
239
238
238
238
238
238
237
236
236
238
238
237
236
235
234
233
233
233
233
233
233
232
230
230
228
224
219
214
210
209
210
210
210
211
214
215
218
217
217
218
219
221
223
225
227
226
214
235
239
241
243
243
243
242
242
242
243
243
243
243
242
241
240
239
238
238
238
238
238
238
237
236
236
238
238
237
236
236
234
233
233
233
234
233
233
232
231
229
227
221
215
211
210
210
211
211
211
211
214
217
219
219
219
219
220
221
223
225
227
225
214
235
240
242
243
243
243
242
242
243
244
244
244
243
242
241
240
240
239
239
238
238
238
238
236
236
236
238
238
236
236
236
235
233
233
234
234
233
233
231
230
228
224
218
214
211
210
210
213
213
213
213
215
218
219
220
220
221
221
223
223
225
226
225
214
234
239
242
243
243
243
242
242
243
244
244
244
243
242
241
241
240
240
239
238
238
237
237
236
236
237
238
238
236
236
236
236
234
233
234
234
233
232
231
229
226
220
215
211
210
211
213
213
213
214
215
217
219
220
221
223
224
224
224
223
225
226
224
214
234
239
241
243
243
243
243
243
244
244
244
243
243
242
241
240
240
240
239
239
238
237
236
236
236
237
238
238
237
237
238
236
235
234
234
234
233
232
230
228
224
218
213
211
211
213
213
214
215
217
218
219
221
223
224
225
226
226
225
224
225
227
225
214
233
238
241
243
243
244
243
243
244
244
243
243
242
242
241
241
240
240
240
239
237
236
235
236
236
237
238
238
238
238
238
236
235
234
233
233
233
232
230
227
221
215
211
211
213
213
213
214
215
217
218
220
223
224
226
226
227
227
225
224
226
228
225
214
233
238
241
243
244
244
244
244
244
243
243
242
242
242
242
241
241
241
240
239
238
236
234
235
236
237
238
238
238
238
238
236
235
233
233
233
233
231
228
225
219
213
211
211
213
214
215
217
217
218
218
220
223
225
227
227
227
227
226
225
228
228
225
214
234
239
242
244
244
244
244
244
243
242
241
241
242
242
242
242
242
241
241
239
238
236
235
235
236
237
238
238
238
239
238
236
234
233
233
233
232
230
228
224
217
211
211
211
213
215
217
218
219
219
219
221
224
226
227
227
227
227
227
227
229
229
224
213
236
240
243
244
244
244
244
244
242
240
239
240
242
242
242
242
242
242
241
240
239
237
236
236
236
237
238
238
238
238
236
235
234
233
233
233
232
230
227
220
214
211
211
211
213
215
217
219
220
221
221
223
225
227
227
227
228
228
228
228
230
230
224
213
237
241
243
244
244
244
244
243
241
239
238
240
241
242
242
243
243
242
241
240
240
238
236
236
236
237
237
237
237
236
235
234
234
233
233
233
232
229
225
217
211
211
211
213
214
217
218
219
220
223
224
225
226
228
228
227
228
228
228
230
231
230
223
211
238
242
244
244
244
244
244
243
241
240
239
240
242
243
243
244
244
243
242
241
241
239
237
236
236
236
236
237
236
235
234
233
233
233
233
233
231
228
220
213
211
210
211
214
215
218
219
219
220
221
223
225
226
228
228
227
227
228
229
231
232
230
223
211
239
242
244
245
245
244
244
243
242
241
241
242
242
243
244
244
244
244
243
242
241
240
237
236
236
236
236
236
236
234
233
233
233
233
234
233
230
225
217
211
210
210
211
213
215
217
218
219
219
220
221
223
225
226
226
227
228
229
231
233
233
231
223
211
239
243
244
245
245
245
244
244
243
242
242
243
243
243
244
244
244
244
244
243
242
240
238
236
236
236
236
236
236
234
233
232
233
234
234
233
228
221
213
211
211
211
211
214
215
217
219
219
219
219
221
224
224
225
225
226
228
229
231
233
233
231
224
213
239
243
244
245
245
245
245
244
244
244
243
243
243
243
244
244
244
244
244
243
241
240
238
238
238
237
237
237
236
235
233
232
233
235
234
232
227
218
214
214
214
211
213
214
217
218
219
220
221
221
224
224
225
225
226
228
228
230
231
233
233
232
224
214
238
242
244
245
246
245
245
245
244
244
244
244
243
243
244
244
244
244
243
242
241
240
239
238
238
238
238
238
237
235
233
233
234
235
234
231
224
218
215
217
215
214
214
215
218
219
220
221
221
223
225
225
226
226
227
228
230
231
233
233
234
233
225
215
237
241
244
245
245
245
245
245
245
244
244
244
243
243
243
244
244
244
243
242
242
240
239
239
239
239
239
238
237
236
234
234
234
235
233
228
221
218
218
218
217
215
215
217
219
220
221
221
221
224
226
227
227
228
228
230
231
233
233
234
235
233
226
217
237
241
244
245
245
245
245
245
245
244
244
243
243
243
243
244
244
244
243
243
242
241
240
240
239
239
239
238
236
236
235
234
234
235
232
226
220
219
218
218
217
215
215
217
219
220
221
221
223
225
226
227
228
228
230
232
233
235
235
236
236
234
227
218
237
241
244
245
246
245
245
245
245
244
244
244
243
243
243
243
244
244
244
243
242
241
240
240
240
240
239
237
236
236
236
236
236
234
229
223
220
219
218
217
215
215
217
218
219
220
220
221
224
225
226
228
228
230
232
233
234
236
236
236
236
235
228
218
236
241
244
246
246
246
245
245
245
245
244
244
244
243
243
244
244
244
244
243
242
242
241
241
240
240
238
236
236
236
236
236
236
233
227
220
219
218
217
217
217
217
217
219
220
220
221
223
225
227
227
228
231
233
233
233
234
235
236
237
237
236
229
219
236
242
245
246
247
246
246
246
246
245
244
244
244
244
244
244
244
244
243
243
243
242
242
241
241
239
238
237
237
237
237
237
235
230
224
220
219
218
218
218
218
219
218
220
221
223
224
224
226
228
228
231
233
233
233
233
234
236
236
237
237
236
230
219
236
242
245
247
247
247
247
247
246
246
245
245
244
244
244
244
244
244
244
243
243
243
242
241
240
239
239
239
238
238
238
237
233
228
221
219
219
219
219
219
220
220
221
223
224
225
225
225
227
229
231
233
233
233
233
233
235
236
237
237
236
235
229
218
236
242
245
247
248
248
248
247
247
246
246
245
245
244
244
244
244
244
244
243
243
243
242
241
240
240
240
240
239
238
238
236
232
226
221
220
221
221
221
223
223
223
224
224
225
226
225
226
228
231
233
233
234
233
233
233
234
236
236
236
235
234
229
217
235
241
245
247
248
248
248
247
247
247
246
246
245
245
244
244
244
244
244
244
244
243
242
241
240
240
241
241
240
239
238
235
229
224
221
223
223
224
225
225
226
226
226
226
225
226
227
228
231
233
234
235
234
234
233
233
234
235
235
235
234
233
229
217
234
241
245
247
248
248
248
247
247
246
246
246
245
245
245
245
245
245
244
244
244
243
242
241
240
240
241
241
240
239
237
233
228
224
221
223
225
226
226
227
228
228
227
226
226
227
228
231
233
235
236
236
235
233
233
233
233
234
234
234
234
233
230
218
234
240
244
247
248
248
248
248
247
246
246
246
246
245
245
245
245
245
245
245
244
243
242
241
241
240
241
241
240
239
236
232
227
223
223
224
225
227
228
228
228
228
226
226
227
228
230
233
234
236
237
236
235
234
233
233
233
233
234
234
234
233
230
220
234
240
244
247
248
248
248
248
247
247
246
246
246
246
245
245
245
245
245
244
244
243
243
242
241
241
241
241
240
238
235
231
226
224
224
225
226
227
228
228
228
227
226
227
228
229
231
233
236
237
237
236
236
235
234
233
233
233
233
233
233
230
228
220
234
240
244
247
247
248
248
248
247
247
247
246
246
246
246
245
245
245
245
244
243
243
243
242
242
241
241
241
239
238
234
230
226
225
224
225
227
228
228
228
227
227
227
228
229
231
233
234
236
237
237
236
236
236
234
233
233
232
230
229
228
226
223
214
235
241
245
246
247
248
248
248
247
247
247
246
246
246
246
245
246
245
245
244
244
243
243
243
242
242
242
241
239
237
234
229
227
226
226
226
228
228
228
228
228
228
229
230
231
233
234
236
236
238
237
237
236
234
232
230
228
228
226
224
220
218
214
206
236
241
245
246
247
247
248
248
247
247
247
247
246
246
246
246
246
246
245
244
244
244
244
243
243
243
242
240
239
237
233
230
228
228
228
228
229
229
229
229
230
230
231
233
233
235
236
236
236
236
235
233
231
228
227
225
223
220
217
213
211
207
202
192
236
242
245
246
247
247
247
247
247
247
247
247
246
246
246
246
246
246
245
244
244
244
244
244
244
243
242
240
238
236
233
232
230
229
229
229
231
231
231
232
231
232
233
233
234
234
234
233
233
231
229
227
224
221
219
217
213
209
204
199
196
190
182
172
238
243
245
247
247
247
247
247
247
247
247
247
246
246
246
246
246
246
245
244
244
244
245
245
244
243
242
240
238
236
234
233
232
231
230
231
232
232
232
232
232
233
233
233
232
231
230
228
227
225
221
218
214
210
206
202
197
190
182
174
168
163
154
144
239
243
245
247
247
247
247
247
247
247
247
247
247
247
247
247
247
246
245
245
245
245
246
245
245
244
242
239
238
236
235
234
233
232
232
232
232
231
231
231
231
230
229
228
227
226
225
221
218
214
210
204
197
192
188
182
174
163
151
142
134
129
125
120
239
243
245
247
248
247
247
248
248
248
247
247
247
247
247
247
247
247
246
245
245
246
246
245
245
244
242
240
238
236
236
235
233
233
232
231
229
228
228
228
227
226
224
220
219
218
214
209
202
196
188
178
172
165
159
151
142
129
120
117
112
107
105
103
239
244
246
247
248
248
248
248
248
248
248
248
248
248
248
248
247
247
246
246
246
246
246
246
245
244
243
240
238
237
236
234
233
231
228
227
226
225
224
223
221
218
214
211
207
201
192
184
176
165
156
149
142
134
132
125
115
105
103
103
100
100
100
98
239
244
246
247
248
248
248
248
248
248
248
248
248
248
248
248
248
247
246
246
246
246
246
246
245
244
243
240
238
236
234
232
229
226
223
220
217
215
213
211
209
202
196
188
182
172
161
151
142
134
127
122
120
117
112
110
103
98
98
98
100
100
100
100
240
245
247
248
248
249
248
248
248
248
248
249
249
249
248
248
248
247
247
246
246
247
247
246
245
244
242
239
236
232
228
225
220
215
211
207
202
197
192
186
180
172
165
156
147
137
132
127
122
120
117
112
110
110
107
105
100
98
95
98
98
100
100
100
240
245
247
248
249
249
249
248
248
248
249
249
249
249
249
248
248
247
247
247
247
246
246
245
244
242
239
233
228
223
217
210
201
192
184
180
174
168
163
154
149
144
137
129
127
125
122
120
115
112
112
110
107
107
107
103
100
100
100
98
98
100
100
98
239
245
247
248
249
249
249
249
249
249
249
249
249
249
249
248
248
247
247
247
246
245
244
243
240
236
228
220
211
202
192
180
170
163
156
151
149
144
137
134
129
127
122
122
120
120
117
117
115
112
110
107
107
107
107
105
103
103
105
103
103
100
98
98
239
244
248
249
249
249
249
249
249
249
249
250
250
249
249
248
247
246
245
245
243
241
238
235
228
219
207
196
186
176
165
154
147
142
137
132
129
127
122
120
120
120
120
117
115
117
120
117
115
112
110
107
107
110
105
107
105
103
105
105
105
103
100
98
239
245
248
249
250
250
250
249
249
250
250
250
250
249
248
247
245
243
240
238
234
230
225
219
209
196
184
174
165
156
147
137
132
127
125
122
120
120
120
120
120
120
117
117
117
120
120
117
112
110
107
110
110
107
105
105
105
105
110
107
105
103
103
100
