P2
# 493 of 608 Angiograms
64 64
255
188
184
178
174
172
172
170
165
159
151
144
137
129
122
120
110
110
117
127
132
142
149
154
159
163
163
163
161
161
165
170
172
176
184
192
199
204
206
206
209
210
213
214
214
214
214
214
211
209
209
209
207
204
201
199
197
197
196
197
197
197
199
201
199
184
180
176
174
172
168
165
163
154
144
137
129
125
120
117
107
110
120
129
137
144
154
161
165
163
165
165
161
161
163
168
170
172
178
188
199
204
207
209
210
211
213
215
215
215
215
214
213
211
210
210
210
207
202
199
196
196
197
201
201
197
199
204
201
180
176
172
170
168
165
163
159
149
139
132
129
125
122
117
105
112
125
132
142
151
156
165
168
168
165
165
163
163
163
165
170
172
178
186
196
204
210
211
211
211
211
214
217
217
217
215
215
214
211
211
213
210
206
201
196
196
199
201
201
199
201
204
201
176
172
170
168
165
165
163
156
147
137
132
129
125
122
110
105
115
127
137
147
151
159
165
170
172
170
165
163
161
159
163
168
170
178
182
190
201
209
211
214
213
213
215
218
218
217
217
218
217
213
213
213
213
209
202
197
196
199
201
199
197
201
202
199
174
174
174
170
165
165
163
156
149
139
134
132
122
117
105
105
117
129
139
149
154
161
163
168
170
168
168
165
161
161
165
165
170
176
182
186
196
204
211
214
214
214
218
219
219
218
218
217
215
213
214
215
215
210
204
197
196
197
201
201
199
199
202
199
174
176
176
172
168
165
163
159
151
144
134
132
122
112
107
107
117
129
139
149
156
163
165
165
168
165
165
168
165
165
168
168
170
174
180
184
190
199
210
214
215
218
220
220
218
217
217
214
213
214
215
217
214
211
204
197
197
196
197
201
199
201
201
197
172
176
176
172
170
168
165
163
156
149
142
132
122
112
107
107
117
129
139
149
161
165
168
168
168
168
165
168
170
168
165
168
170
172
176
180
188
196
206
213
215
219
221
220
218
217
214
213
213
214
214
214
213
211
206
199
199
199
201
201
202
202
201
194
172
174
174
172
170
168
165
163
159
154
147
134
125
112
105
110
120
129
142
156
165
168
170
170
170
168
170
168
168
163
163
165
170
170
172
176
182
192
201
209
214
219
221
220
219
218
215
214
215
215
213
213
211
211
207
202
201
204
204
202
199
201
199
192
172
174
172
168
168
165
163
165
161
154
149
134
125
115
107
115
122
132
147
161
168
168
172
172
170
170
172
168
165
163
163
165
170
170
172
174
178
188
196
204
211
215
220
220
220
220
218
215
215
214
213
211
211
211
210
207
206
206
206
204
201
201
197
192
168
168
163
159
159
161
161
161
161
156
151
134
125
117
112
117
125
134
149
161
163
165
170
170
168
172
172
168
165
165
165
165
170
172
172
172
178
184
194
199
207
213
217
219
220
220
218
215
215
213
211
209
209
210
210
210
209
207
206
202
202
199
196
194
161
161
156
154
156
154
156
161
159
156
151
134
125
120
115
120
127
137
149
156
159
163
168
170
170
172
168
163
163
165
163
165
168
168
168
170
176
182
188
196
201
209
214
217
219
220
218
217
214
211
209
207
207
209
211
213
213
209
204
202
201
197
194
192
161
156
151
149
149
149
156
161
161
159
151
137
125
120
122
125
129
134
144
154
154
159
165
168
168
165
161
161
163
161
163
165
168
168
165
165
172
178
182
190
196
202
210
214
218
219
219
217
213
207
204
201
204
207
211
215
215
213
206
201
199
196
192
190
156
151
149
149
147
151
159
163
163
161
151
137
129
125
127
129
127
129
139
149
154
156
161
161
163
161
159
159
161
163
163
165
168
168
165
165
170
174
178
182
190
197
204
211
214
217
218
215
210
204
201
201
202
207
211
215
218
215
210
202
197
196
194
192
154
149
147
149
149
156
163
168
165
163
151
134
129
129
129
127
125
125
132
142
149
154
156
156
156
156
156
159
163
163
165
165
168
168
168
165
165
170
172
176
182
190
199
207
213
214
215
213
209
204
201
202
206
210
214
218
218
215
213
207
201
196
196
194
151
147
144
147
151
161
168
170
168
163
149
134
127
127
122
117
117
122
129
137
147
149
147
147
147
149
151
156
163
165
168
168
170
170
170
165
163
163
163
170
176
184
194
202
209
213
213
211
209
207
206
207
210
214
218
219
217
215
213
209
202
199
197
196
154
151
149
151
161
165
170
170
168
161
144
129
122
115
107
107
112
120
127
137
144
147
144
142
142
142
147
156
163
165
168
168
170
168
170
168
165
163
163
168
172
178
186
196
204
210
213
213
210
210
210
211
214
217
219
218
215
214
211
209
204
199
196
192
159
156
159
161
163
165
170
172
168
156
137
125
115
105
103
107
112
120
127
134
142
144
144
147
144
142
149
154
159
161
163
168
165
165
168
168
168
168
168
168
168
174
182
190
197
206
210
210
210
210
211
214
217
219
219
217
213
211
209
207
202
197
194
190
159
161
163
163
165
170
172
170
163
149
129
117
107
100
100
107
115
120
127
134
139
144
142
144
147
147
151
151
154
159
161
163
165
165
168
168
170
170
168
165
168
172
182
190
194
199
207
209
210
211
214
217
218
218
218
214
211
209
207
204
199
196
192
190
163
165
165
163
168
172
174
168
156
139
122
110
100
98
100
107
112
122
129
137
139
144
142
142
144
147
149
151
151
154
159
161
163
165
165
168
172
172
168
168
170
174
182
190
194
199
204
209
211
214
215
218
218
217
215
213
207
204
202
197
194
194
190
190
168
168
165
165
170
172
172
163
149
127
115
105
100
100
100
107
115
125
129
137
139
142
144
142
144
147
149
147
147
151
154
156
159
163
165
168
172
170
168
165
170
174
182
188
194
197
201
207
211
215
218
218
217
215
214
209
204
201
197
194
190
188
188
188
170
170
168
165
168
168
165
159
139
122
115
105
100
100
100
107
120
129
132
134
137
139
139
142
144
144
144
144
147
151
154
156
154
161
161
161
163
165
168
168
170
174
180
184
190
196
199
204
211
215
219
218
215
214
210
206
201
197
192
188
186
184
186
186
172
172
172
168
168
168
163
151
132
120
115
105
103
103
105
117
129
137
137
134
137
134
137
139
142
144
144
147
149
151
154
154
156
156
159
159
163
165
168
170
172
178
182
184
188
192
196
201
206
213
215
215
213
211
206
201
196
192
188
184
182
180
180
182
176
174
174
172
172
168
161
144
125
120
115
107
107
110
115
127
134
142
144
142
142
137
139
139
142
147
147
147
147
149
151
151
154
156
159
161
165
172
172
174
176
182
186
186
190
190
192
196
201
207
210
210
209
206
201
196
190
186
182
178
176
176
176
178
176
176
176
176
174
170
161
139
122
117
115
112
115
117
122
129
137
144
144
142
144
144
144
144
147
149
151
151
151
149
149
151
154
154
156
161
168
168
172
174
176
182
186
188
190
188
190
192
196
199
202
204
202
197
192
188
184
178
176
174
172
172
172
172
180
180
182
180
178
174
161
137
122
117
117
117
117
122
129
132
137
139
139
142
144
147
149
149
149
151
154
154
154
149
149
154
159
154
156
161
165
170
172
172
176
182
186
188
190
188
188
188
188
190
192
192
192
190
186
182
178
176
174
170
168
170
170
170
180
182
184
186
182
176
159
132
120
115
117
120
122
127
132
134
134
134
137
139
144
147
149
151
154
156
156
156
154
151
149
154
159
156
159
159
165
170
172
174
176
182
186
190
192
190
186
182
178
178
176
178
178
182
180
178
176
174
168
163
163
165
165
168
182
184
186
188
184
176
156
129
117
112
117
122
129
134
137
134
134
134
134
139
144
147
151
154
159
159
161
161
156
154
154
154
156
159
161
159
161
170
172
172
176
182
184
186
188
186
180
174
170
165
163
163
165
172
176
176
174
168
161
159
161
161
161
170
184
184
186
186
182
172
154
132
122
120
125
132
142
147
144
142
139
139
142
142
144
147
154
159
161
159
163
163
159
159
159
159
161
161
161
161
161
168
172
174
176
180
182
182
182
176
172
165
163
159
154
151
154
159
165
168
165
161
159
159
161
163
165
172
186
186
186
184
180
165
149
139
132
132
137
144
149
151
151
151
149
147
144
144
144
144
151
161
161
161
165
163
159
161
163
161
163
163
163
163
165
170
172
174
176
176
176
174
172
170
165
161
154
149
147
144
147
149
156
161
161
159
159
161
165
168
170
172
188
188
184
182
176
161
147
144
142
142
144
151
156
161
163
161
156
151
144
142
144
144
151
161
165
163
163
163
161
159
163
165
165
163
163
165
168
172
172
172
172
170
168
163
159
156
154
151
147
142
139
139
137
142
147
151
156
156
159
163
170
172
174
176
186
186
184
180
172
156
147
149
149
149
151
154
163
163
168
165
161
154
147
142
139
142
151
156
161
165
163
163
163
161
163
168
168
165
165
165
165
165
165
165
163
161
156
154
151
149
147
144
137
134
137
137
134
137
142
144
149
156
161
168
174
176
176
178
186
188
184
180
172
156
149
151
151
151
154
156
161
161
163
163
159
149
144
139
134
137
147
154
161
165
163
161
161
163
165
170
170
165
163
163
159
156
156
154
151
149
144
147
147
147
144
137
132
132
137
137
137
137
137
137
142
149
159
168
172
176
176
176
184
186
186
180
170
159
156
156
151
151
156
159
159
156
159
156
149
142
137
134
134
137
142
147
156
163
163
161
159
159
161
163
163
163
159
154
149
147
144
142
139
139
139
144
144
144
139
134
134
137
142
142
139
134
129
129
132
139
151
161
165
170
174
176
182
184
184
178
170
163
161
161
159
156
159
156
156
154
151
147
142
134
132
129
129
134
139
144
149
156
163
161
156
154
156
159
159
156
151
147
139
134
132
134
137
134
137
139
137
137
139
137
142
144
144
142
139
134
129
127
127
129
139
151
159
161
163
170
184
186
182
176
168
165
165
163
159
161
161
156
154
149
144
142
134
129
127
127
129
132
137
142
147
151
156
159
154
156
156
154
151
149
144
137
134
132
132
132
134
134
137
137
137
137
139
142
144
142
139
137
134
132
127
125
125
125
127
134
144
147
156
161
186
182
178
172
165
168
168
165
161
163
159
154
149
144
139
137
129
127
125
125
125
129
137
142
144
149
151
151
149
149
149
149
147
142
137
132
137
134
134
137
134
139
144
142
139
142
142
142
139
139
139
134
129
125
120
122
122
122
122
125
129
139
147
156
182
178
174
168
163
165
165
163
159
156
154
147
142
139
137
132
127
127
122
122
122
122
129
134
137
139
139
139
139
139
142
142
139
137
134
132
137
134
137
139
142
142
147
147
144
142
142
139
137
134
132
127
125
120
117
117
117
120
120
117
122
129
139
154
178
174
168
161
159
159
156
154
151
147
142
139
134
129
127
125
125
122
120
115
115
115
122
127
127
129
129
127
129
134
137
137
134
134
137
137
134
137
139
142
144
147
147
144
144
144
139
139
134
127
125
122
120
115
115
112
112
117
112
110
115
122
134
149
174
168
161
154
151
147
144
139
137
134
132
127
122
117
112
112
110
110
107
107
107
107
112
117
122
125
125
125
127
132
132
129
132
137
137
137
134
137
142
142
142
144
144
142
142
137
134
129
125
122
122
120
117
117
115
115
115
115
107
110
112
120
129
144
170
165
156
149
144
137
127
120
117
120
120
120
115
112
107
105
100
98
98
100
100
103
107
112
117
122
122
125
129
132
129
129
134
137
137
132
134
134
139
144
142
142
142
139
134
129
125
122
122
120
120
117
117
117
115
115
115
110
107
107
110
122
134
144
170
163
156
149
142
132
120
112
107
105
107
110
110
107
103
98
95
91
91
91
93
95
103
105
110
117
122
122
122
127
129
129
134
134
134
134
134
134
139
142
139
139
137
129
125
122
117
115
112
115
117
120
120
117
115
112
115
115
115
115
117
127
139
149
170
165
159
149
139
129
122
117
110
103
100
100
103
100
95
93
89
86
86
84
86
89
93
100
105
112
120
120
117
122
125
127
132
132
132
134
137
139
139
137
134
132
127
122
122
120
115
110
110
112
115
120
117
115
110
112
115
122
120
120
127
137
147
151
170
163
156
144
134
132
127
122
117
110
105
98
93
93
91
86
84
82
84
84
82
86
89
93
103
107
117
117
115
117
120
122
129
132
129
127
127
129
129
127
125
122
120
115
112
112
112
110
112
115
122
125
120
117
117
117
122
125
122
127
134
144
151
154
168
159
151
139
134
132
132
127
122
120
112
105
95
93
89
84
82
84
84
84
82
86
86
89
95
107
115
115
115
112
115
120
125
125
122
120
120
120
120
117
115
115
110
107
107
112
115
112
115
122
132
132
127
122
125
127
127
125
127
132
139
149
159
159
161
151
144
134
134
134
132
127
127
122
120
117
110
103
95
93
86
84
86
84
84
84
84
86
93
105
112
112
112
110
112
115
115
115
117
115
115
112
110
107
107
105
105
110
112
112
115
115
122
129
132
132
129
129
129
132
132
129
132
137
147
159
163
165
154
147
139
134
134
134
129
127
129
125
122
122
122
117
112
105
98
93
91
91
91
91
91
91
95
107
112
112
107
110
110
110
107
110
110
110
107
105
103
103
105
107
112
117
117
117
117
122
129
134
134
134
134
137
139
139
139
139
139
147
156
165
168
168
147
142
137
132
132
129
127
125
127
127
125
127
129
127
125
120
115
107
103
103
103
105
105
105
105
110
112
110
107
105
103
100
100
103
105
107
105
100
103
105
105
112
120
122
125
129
129
132
134
139
142
144
147
147
144
144
147
149
151
159
165
170
174
176
147
142
137
132
127
125
122
125
132
132
129
132
134
132
132
127
122
117
115
110
110
112
115
115
115
115
115
112
105
103
95
93
95
95
100
105
107
107
107
107
110
115
122
125
134
139
144
144
149
151
154
156
154
154
151
154
154
156
159
163
165
172
176
180
149
147
139
132
129
125
120
125
132
132
129
132
134
134
134
134
127
122
122
120
117
120
125
127
127
122
120
117
110
103
95
91
89
91
98
103
107
110
110
115
120
125
129
129
134
142
147
151
156
159
161
163
163
161
159
159
159
161
161
161
165
172
176
180
154
154
144
134
132
127
122
125
127
129
129
129
129
132
134
134
129
127
127
125
122
127
132
134
137
134
127
122
117
107
103
98
95
95
100
103
107
107
110
120
125
129
134
132
134
144
151
156
159
163
165
168
170
165
163
161
159
156
159
161
163
170
176
178
156
154
147
139
132
127
125
122
125
127
127
129
127
127
129
132
132
127
132
129
127
132
134
139
144
139
132
127
122
115
110
107
105
103
105
105
107
115
122
127
129
132
134
132
139
147
149
151
156
163
168
172
172
168
165
163
159
156
159
161
165
172
176
178
156
154
149
142
134
127
125
125
125
122
122
125
127
127
129
132
134
132
129
127
129
132
137
139
142
139
134
132
129
122
115
115
115
110
110
115
120
127
129
132
132
132
134
137
142
149
154
154
156
161
168
172
172
168
165
165
161
161
161
165
170
174
178
182
156
156
154
144
137
129
125
122
122
117
115
115
115
120
125
127
129
127
122
122
125
127
129
132
132
132
132
134
134
129
122
117
120
117
120
122
129
134
134
134
132
132
134
137
142
149
154
154
156
161
163
170
170
165
165
168
165
165
165
170
174
178
178
180
159
159
156
147
139
132
129
125
122
117
117
112
110
112
117
117
117
117
115
112
112
112
115
117
122
127
129
134
134
134
132
127
122
125
125
127
132
134
134
132
129
132
134
139
142
144
144
147
149
154
156
161
165
163
165
165
168
168
172
172
174
176
176
176
159
161
156
149
139
134
132
129
127
125
117
110
107
107
105
105
103
103
100
98
98
98
100
103
110
117
122
129
132
132
134
134
129
127
127
132
134
134
132
127
127
127
132
137
137
137
137
137
139
144
147
149
151
151
154
156
161
168
172
172
170
168
170
172
161
159
159
149
142
137
134
132
129
127
120
110
105
100
95
95
93
95
95
93
91
93
91
93
100
107
115
117
125
129
132
137
137
134
129
129
134
132
129
127
127
129
132
134
137
137
139
139
142
142
142
142
142
142
142
142
144
151
161
163
163
163
168
170
165
161
159
151
144
137
137
134
132
127
122
112
105
98
95
95
91
93
93
89
89
91
89
91
93
100
110
115
117
122
127
132
134
132
132
132
127
125
127
132
132
134
137
134
134
137
142
144
144
142
142
139
137
134
134
134
134
134
139
147
156
161
168
170
168
165
159
154
142
139
134
134
132
127
125
117
107
100
100
98
93
91
89
89
89
86
89
91
93
98
105
112
112
117
120
120
122
125
125
122
117
117
125
132
137
139
142
139
137
139
144
144
142
144
144
139
132
127
127
127
125
122
122
127
134
149
161
168
168
168
159
151
144
137
132
132
132
127
127
122
112
103
103
95
89
86
91
89
86
84
89
93
95
100
100
105
110
112
112
112
110
112
115
115
110
110
115
125
129
137
144
142
139
142
144
147
144
144
144
139
134
129
125
122
117
115
112
115
122
127
142
156
163
161
156
151
144
137
132
134
134
134
134
129
117
107
100
91
86
82
89
91
91
89
89
93
95
98
95
100
107
112
115
112
112
112
112
110
105
105
110
120
125
134
139
139
137
139
144
144
144
147
147
142
134
129
125
120
112
107
103
107
112
117
125
137
159
159
156
151
144
139
137
134
137
137
137
134
122
112
100
86
84
82
86
91
93
93
95
98
100
103
98
98
103
112
117
112
112
112
110
105
100
103
107
115
125
137
142
139
137
137
142
144
142
144
147
144
139
132
125
115
110
100
95
100
107
110
115
125
159
159
154
154
149
144
142
139
137
134
137
132
122
112
103
93
84
84
86
89
91
95
98
95
98
103
100
100
100
107
115
112
110
110
105
103
103
103
107
115
125
137
139
142
137
134
134
137
139
139
144
144
137
129
125
115
105
100
98
100
103
105
107
117
163
159
154
156
154
149
144
139
134
132
132
127
120
115
110
103
93
91
89
89
89
93
93
93
98
103
100
103
105
103
110
112
110
110
107
107
105
105
107
112
122
132
134
139
134
132
129
129
132
134
137
137
129
125
120
115
107
103
103
103
105
107
110
115
168
161
154
159
159
151
147
139
134
129
125
120
115
115
115
112
107
100
98
93
91
91
93
95
98
100
100
105
105
100
107
107
105
107
110
107
107
110
107
110
120
129
134
134
132
127
125
125
129
129
132
125
120
117
117
112
110
110
107
110
112
112
112
115
