P2
# 494 of 608 Angiograms
64 64
255
93
91
91
93
86
86
89
89
91
93
93
93
98
95
93
91
91
93
93
89
89
93
91
86
89
93
95
93
89
86
89
86
84
82
82
86
82
84
82
82
82
80
82
80
78
78
78
76
76
78
76
76
78
78
78
80
84
82
84
84
82
80
82
82
93
91
91
93
86
89
89
89
86
89
91
93
95
93
93
89
91
91
89
86
91
91
86
86
89
91
93
89
89
91
89
84
80
80
80
82
82
82
80
84
86
82
82
80
80
80
82
82
80
78
76
74
76
78
80
80
82
84
86
84
84
78
80
80
93
89
86
89
86
89
91
86
86
89
89
91
91
93
91
89
91
89
86
91
89
89
86
89
93
91
89
84
86
89
84
82
82
80
80
84
82
80
84
84
84
82
82
78
80
82
80
82
78
78
78
76
76
76
78
76
80
84
84
80
78
78
76
78
93
89
89
89
89
91
93
91
91
89
91
91
93
93
91
89
89
91
86
89
89
91
89
86
91
91
84
84
86
84
86
84
84
80
82
84
86
84
84
84
84
82
82
80
80
82
82
78
74
76
78
78
74
78
78
76
76
82
84
82
78
78
78
76
91
89
93
91
91
91
95
98
95
93
93
95
95
95
93
89
91
91
91
89
91
91
91
93
93
91
86
89
86
84
86
86
82
80
82
86
86
84
82
82
84
82
82
82
80
82
78
78
78
78
80
80
76
72
74
74
78
78
80
76
74
80
80
76
93
93
93
95
93
95
98
100
103
100
98
98
98
100
98
95
95
95
95
95
98
100
100
100
98
93
93
95
93
91
89
91
84
82
82
84
84
82
82
80
80
80
84
84
82
80
76
80
80
80
80
76
74
70
72
76
78
76
76
72
74
78
80
76
103
100
98
98
98
98
98
98
100
105
103
100
103
103
105
100
100
100
98
100
107
105
105
103
100
98
98
95
95
95
93
91
91
89
89
89
89
84
84
80
78
82
84
80
80
78
76
78
78
78
74
72
72
68
74
74
74
72
72
76
78
78
78
76
105
103
103
100
103
100
98
98
103
105
100
98
100
100
105
105
103
98
100
105
110
107
105
107
103
103
103
100
95
95
95
98
98
98
95
93
93
91
84
86
84
84
82
78
80
78
78
74
76
76
74
70
68
70
74
72
72
70
72
72
76
76
76
72
103
103
105
105
103
103
103
103
105
105
103
100
100
98
105
105
103
103
103
103
103
103
103
105
105
103
103
103
95
95
98
100
100
100
98
98
98
93
86
84
84
86
84
78
82
82
82
76
74
74
76
72
74
72
72
74
74
72
72
72
74
74
74
74
105
103
105
103
103
103
105
107
105
105
105
105
105
103
105
105
100
100
100
103
107
105
107
110
105
107
107
105
100
95
100
103
100
100
100
98
93
91
89
84
84
86
89
84
84
84
82
78
78
74
76
76
74
74
74
80
78
72
74
78
74
74
74
72
105
103
103
105
107
107
107
110
107
100
103
103
105
107
105
103
100
100
103
107
105
107
112
110
110
105
103
103
103
100
105
107
103
103
100
98
93
93
95
95
91
89
89
89
86
84
86
84
82
78
78
78
78
78
78
76
78
74
74
76
76
72
68
66
105
105
105
107
110
112
110
110
105
103
103
105
105
110
110
103
103
103
105
103
100
105
110
110
112
107
103
105
105
107
107
103
98
100
98
98
98
98
95
98
95
93
91
89
89
86
89
86
80
80
78
76
76
78
78
76
76
76
74
72
74
78
74
72
105
105
110
112
112
112
107
107
107
107
107
103
107
107
107
105
105
105
105
105
105
105
110
115
112
110
107
105
103
105
107
98
95
100
95
93
98
98
98
98
98
95
95
91
93
91
89
86
82
82
82
78
78
78
78
78
80
78
74
74
76
78
78
80
103
103
105
112
112
112
110
107
110
110
107
107
105
107
107
107
107
103
103
105
105
110
112
112
115
110
105
100
103
105
103
98
98
103
100
98
100
98
98
98
98
98
98
95
98
93
89
89
89
86
84
84
82
80
78
80
82
80
74
76
76
78
80
80
105
107
105
107
112
115
112
115
115
107
105
110
110
105
107
107
107
103
103
103
107
112
115
110
112
110
103
100
105
105
100
100
100
100
100
98
100
100
98
98
103
100
100
95
93
89
86
89
89
86
84
82
82
80
80
84
86
84
78
78
78
80
78
76
110
112
110
110
110
110
112
112
112
112
105
105
107
105
107
107
107
110
112
112
110
110
110
107
107
107
103
100
103
103
103
105
103
105
103
100
100
100
100
100
103
98
95
95
93
91
91
89
86
84
86
82
82
84
84
86
84
82
80
78
80
80
80
80
117
115
110
105
107
110
110
110
107
110
110
105
103
110
110
112
115
112
115
112
107
110
112
110
112
105
103
98
100
103
103
103
105
107
103
103
100
98
100
103
103
100
98
98
95
95
91
86
86
86
86
86
84
86
84
86
84
82
82
80
76
80
84
86
120
117
110
105
110
110
107
112
105
103
107
103
100
110
112
112
115
110
107
110
107
107
107
110
110
105
103
103
105
103
103
103
103
105
103
103
103
100
103
103
103
100
98
98
98
95
91
89
84
82
86
89
84
86
91
91
86
84
84
84
80
82
84
89
112
112
112
110
107
107
107
110
110
105
105
103
103
107
110
110
115
115
110
110
110
110
110
107
105
107
107
107
105
103
100
103
103
100
100
105
100
100
103
103
103
100
103
103
98
98
95
93
91
84
84
89
89
89
95
100
98
89
86
91
84
80
82
89
110
110
112
112
107
110
110
112
110
107
110
107
107
110
110
107
112
112
110
107
107
110
112
110
112
112
110
105
105
105
100
103
105
103
103
105
103
100
105
103
105
105
105
103
98
98
100
95
95
95
93
93
93
91
95
98
98
93
89
93
91
82
80
84
112
107
112
112
110
112
112
112
110
115
117
115
112
115
115
110
110
112
112
107
107
107
112
110
110
110
110
105
105
107
103
103
110
107
107
105
107
105
105
105
110
110
107
105
103
103
103
100
98
100
100
95
93
93
95
93
93
91
91
89
89
86
84
84
107
110
112
112
110
112
110
110
115
115
112
112
112
115
117
112
110
112
112
107
107
107
112
112
110
107
107
112
112
110
105
110
110
105
105
107
107
105
110
107
110
110
107
107
105
105
103
98
100
103
103
98
95
95
95
95
95
95
95
91
91
86
86
86
110
112
112
112
110
110
112
112
112
110
107
107
112
115
112
115
110
110
110
107
107
112
115
115
112
112
110
115
112
107
103
107
110
103
103
107
110
110
110
107
110
107
107
107
103
105
105
100
100
100
98
95
95
95
98
98
98
100
98
93
93
91
93
93
112
112
110
110
112
112
112
112
112
112
107
107
110
115
112
110
110
110
110
107
110
112
115
117
115
112
110
110
112
107
105
110
110
105
105
107
110
107
105
103
103
103
105
103
103
105
107
105
100
95
93
98
100
100
103
100
98
98
98
95
93
95
91
91
112
112
110
112
115
112
112
115
117
115
112
110
112
117
115
110
110
112
110
110
112
110
110
112
110
107
107
105
107
110
110
110
110
107
107
107
107
105
105
103
100
100
107
103
100
103
105
110
105
103
100
100
103
103
105
103
98
100
100
98
98
98
95
95
112
112
112
115
112
112
117
120
120
117
112
110
112
115
115
115
110
107
107
110
112
112
110
112
115
110
110
105
107
110
110
110
110
110
107
107
107
107
110
107
103
103
105
103
100
103
103
103
103
103
105
103
107
103
105
105
103
103
105
100
98
100
98
95
112
112
112
112
112
112
117
117
117
115
110
110
112
115
115
112
110
107
107
110
115
112
112
112
112
112
115
112
110
110
115
115
110
110
107
110
107
107
110
110
107
107
107
103
103
105
103
103
107
107
105
107
107
105
105
103
105
103
103
103
100
100
98
98
110
110
112
115
112
115
112
112
112
112
110
110
110
112
115
115
115
112
110
112
115
115
115
110
110
112
112
115
115
115
115
117
112
107
107
110
107
107
110
112
112
110
107
103
103
103
105
105
107
107
107
107
105
103
103
105
107
107
105
105
103
105
103
103
110
112
112
112
115
117
112
110
110
112
112
112
110
110
110
115
117
115
112
110
115
120
112
105
110
112
115
115
117
117
117
115
115
110
107
110
110
110
112
112
110
112
110
105
105
110
112
107
103
103
105
105
105
98
100
107
107
110
107
105
103
105
100
100
110
110
107
107
112
112
110
110
110
112
115
112
112
110
110
115
115
115
112
115
120
115
112
110
115
112
115
117
117
117
117
115
112
107
107
110
107
110
110
107
110
112
107
107
110
115
110
110
107
103
100
103
105
100
103
105
103
107
107
105
105
103
100
100
112
107
105
107
107
107
112
110
110
110
112
115
112
110
112
115
115
115
115
115
115
115
115
115
117
115
117
117
115
112
115
115
112
107
105
107
103
105
107
107
110
110
105
107
112
110
103
105
103
100
103
103
105
105
105
105
103
105
107
105
103
103
103
103
115
110
110
112
112
110
112
110
107
107
112
117
115
112
117
115
115
112
110
107
110
115
112
112
115
112
115
115
115
112
112
115
115
112
115
115
110
110
110
107
107
107
103
103
107
105
100
105
103
100
103
107
107
105
105
105
105
107
107
107
105
103
105
103
115
110
112
115
115
112
112
110
110
110
115
117
115
115
117
115
115
112
107
105
107
110
107
115
115
110
110
115
115
115
112
110
112
115
120
120
115
112
110
110
107
105
100
103
105
107
105
107
107
105
105
107
107
105
103
105
107
103
103
103
107
107
107
107
110
112
112
115
112
112
115
115
112
115
117
112
115
115
115
112
112
112
112
112
112
110
110
112
115
115
115
115
115
115
115
110
110
110
115
115
117
115
112
112
110
105
105
105
103
105
105
107
110
107
105
105
103
103
107
107
103
103
105
107
112
110
107
110
112
115
117
117
115
115
117
115
112
115
115
112
117
115
115
112
112
112
112
112
112
112
112
115
117
117
115
115
120
117
115
115
115
115
112
112
115
115
115
112
105
107
107
107
105
107
105
107
110
110
105
107
107
107
105
105
110
107
105
110
112
110
105
107
117
117
120
120
117
120
120
117
112
110
112
115
117
115
112
112
115
115
112
110
110
115
115
117
120
120
117
115
117
115
115
115
115
112
110
107
110
112
112
110
107
110
107
107
110
112
112
112
115
112
110
110
110
107
103
103
107
107
103
110
110
107
107
110
117
117
117
117
117
117
120
115
112
115
112
117
117
117
112
115
112
112
110
110
110
112
115
115
117
120
120
115
110
115
115
115
115
115
112
110
110
112
112
112
107
110
110
107
110
112
112
115
115
115
112
110
110
110
107
105
110
110
107
110
110
107
105
110
115
115
115
115
115
115
117
112
112
112
115
115
117
117
115
117
110
107
110
110
110
107
110
115
117
120
120
117
115
117
117
117
115
115
117
115
112
110
110
112
110
112
110
107
107
110
115
115
115
112
112
110
107
112
110
110
115
112
110
110
112
110
100
103
115
115
117
115
112
112
112
115
110
112
110
112
115
117
115
115
115
112
112
110
110
110
112
117
117
117
120
117
120
122
120
120
117
115
115
112
112
110
110
112
110
112
115
110
110
110
107
110
110
110
110
105
107
112
112
112
115
115
112
112
110
110
105
110
115
115
115
112
112
112
112
112
112
112
110
110
110
112
112
110
112
112
112
110
112
112
115
117
117
117
117
120
122
122
122
122
120
115
117
117
117
115
115
115
112
112
112
110
112
110
107
105
107
112
115
107
110
110
110
110
112
115
110
110
105
107
107
110
112
117
112
112
117
115
112
110
110
110
110
110
112
115
112
107
110
117
120
120
117
115
115
115
117
120
117
122
125
122
117
117
120
117
117
122
122
115
115
115
115
112
112
110
112
112
110
105
107
112
115
110
107
110
110
110
110
112
107
105
107
107
107
110
115
117
115
115
117
112
112
110
110
112
112
117
117
117
112
110
112
117
120
120
120
120
120
120
120
122
122
122
125
122
117
120
122
120
117
120
120
115
112
117
120
120
115
112
115
117
112
107
107
110
110
110
107
105
107
107
107
107
107
105
105
110
110
112
117
117
115
117
120
117
112
112
112
112
117
117
115
115
112
112
117
117
117
120
122
120
120
122
125
127
125
122
125
122
120
120
120
120
117
120
117
115
115
115
117
115
112
112
115
112
112
110
110
112
112
112
107
105
105
105
103
103
107
105
105
107
110
115
117
120
117
115
115
120
117
112
112
112
115
117
115
115
112
112
115
117
117
122
120
117
117
122
127
129
125
120
122
122
122
120
117
115
117
117
117
115
117
117
115
115
112
115
115
110
107
107
110
112
112
110
110
107
107
107
105
100
105
107
110
107
110
115
115
120
115
115
115
120
120
117
115
115
115
115
115
112
112
115
115
115
117
120
117
117
120
125
127
127
125
122
122
122
120
120
117
115
117
120
117
117
117
115
115
115
115
115
112
112
110
110
110
115
112
115
115
115
112
112
110
105
110
110
110
110
110
112
115
120
117
117
117
117
120
120
117
117
117
120
112
112
115
115
117
115
117
117
117
120
125
129
127
127
127
127
125
125
122
122
120
115
115
115
112
115
115
117
117
117
117
115
112
115
110
107
110
117
115
112
115
117
112
112
107
105
110
107
107
112
115
112
115
115
115
112
112
112
117
120
117
122
122
120
112
115
120
117
117
115
117
117
120
122
125
127
127
127
127
127
127
127
125
125
122
115
115
115
112
115
115
120
120
115
115
115
112
112
107
107
110
112
110
112
112
115
112
110
105
105
110
107
105
110
112
112
112
112
110
110
112
115
117
122
117
120
120
117
117
120
120
117
115
115
120
120
122
125
122
125
125
125
127
127
125
125
125
122
120
117
115
117
117
115
120
117
117
115
112
110
112
112
107
107
112
110
107
107
112
112
110
110
107
105
105
105
107
112
112
112
115
112
112
115
117
115
117
120
117
117
117
117
117
115
115
117
117
117
122
125
125
122
120
122
122
125
125
127
127
122
117
120
120
115
115
117
117
117
122
122
117
115
115
112
115
117
115
115
115
115
115
110
112
115
112
107
110
110
105
103
110
112
112
110
117
117
117
117
115
115
120
120
117
115
115
117
115
112
115
117
117
117
122
122
122
122
120
120
120
125
125
127
127
122
120
120
117
112
112
120
115
110
117
120
120
115
115
112
112
112
112
112
115
117
115
112
112
115
112
107
110
107
103
107
110
112
115
112
117
117
117
117
115
120
122
120
122
117
117
117
117
117
120
117
115
120
122
120
122
125
122
122
122
125
127
125
122
122
122
120
120
115
112
117
115
112
115
117
120
117
112
110
110
112
112
112
112
112
112
115
115
115
110
107
105
103
107
110
107
107
115
112
115
112
112
115
115
120
120
117
120
120
115
115
115
117
117
117
120
122
120
120
122
125
125
125
125
122
122
122
120
122
122
122
120
117
115
117
115
112
115
115
115
115
112
112
112
112
112
110
110
110
112
115
112
112
107
107
105
107
107
110
107
110
112
107
115
115
117
117
117
117
117
117
117
120
120
120
117
117
117
117
122
122
120
122
125
125
127
125
125
125
122
120
122
125
122
122
125
120
115
112
115
115
115
115
117
115
112
112
112
112
112
110
110
112
112
112
112
112
110
110
110
107
105
105
107
112
112
107
120
120
120
120
117
117
120
120
120
122
122
120
117
120
120
120
120
122
120
125
125
122
127
127
125
127
125
122
125
125
122
122
122
120
117
115
117
117
115
115
117
115
112
112
117
115
112
110
112
112
110
112
112
112
115
115
107
105
105
107
105
107
110
105
120
117
120
122
117
117
117
120
120
120
117
115
115
120
120
117
120
120
120
125
125
122
127
127
125
125
120
122
125
122
122
120
120
120
120
117
120
117
115
112
112
117
112
112
115
110
110
112
115
112
110
107
107
110
110
107
107
107
110
112
107
107
105
103
117
120
120
120
115
120
120
120
122
120
120
120
120
117
122
122
122
120
120
122
122
122
127
127
125
122
117
120
125
125
120
117
117
117
117
117
115
117
117
115
112
117
115
112
115
112
112
110
112
115
115
112
110
110
107
105
107
110
112
112
107
107
107
103
117
122
125
120
120
122
125
122
120
120
125
122
120
122
125
125
120
120
122
122
122
122
127
127
122
120
117
120
122
122
115
117
115
115
117
112
112
115
115
115
112
112
110
112
112
110
107
105
110
115
115
115
112
112
110
107
107
107
110
110
107
105
105
103
117
117
122
127
122
125
122
117
117
117
117
117
120
122
125
125
120
117
120
122
122
122
125
125
120
122
120
122
122
122
120
120
117
115
117
120
120
117
117
115
112
112
112
115
112
110
107
110
112
112
115
112
110
112
110
107
105
107
105
103
105
105
103
100
120
120
122
125
122
125
120
115
112
115
117
120
122
122
122
122
120
120
117
122
125
122
125
122
122
122
120
120
122
122
125
120
117
115
117
120
120
120
122
120
115
115
115
115
112
110
110
115
112
110
110
110
107
107
110
110
107
107
103
105
110
105
103
103
125
125
125
127
122
127
120
117
115
117
122
122
125
125
125
125
122
122
120
117
122
122
125
125
120
122
122
122
122
122
125
117
120
117
117
117
120
120
120
120
117
112
112
115
115
110
112
112
115
115
112
112
110
107
110
107
110
107
105
107
107
105
105
103
125
122
125
125
122
125
120
117
117
122
122
122
125
125
125
125
125
125
122
120
122
120
122
122
122
122
122
125
122
125
125
120
120
117
117
117
120
120
120
117
117
115
112
115
112
110
110
112
112
112
115
115
110
107
107
105
105
107
105
105
105
105
107
105
122
122
122
122
122
122
122
120
120
120
122
125
122
122
125
122
125
125
122
127
122
120
122
125
125
122
125
125
122
120
122
122
120
117
120
122
122
120
120
120
117
120
117
112
110
110
112
112
112
115
112
112
110
110
107
103
105
107
107
107
105
105
107
107
122
122
125
122
122
122
120
117
120
122
125
125
122
122
125
122
122
122
122
125
125
125
122
122
125
125
127
125
122
122
122
120
120
120
120
120
120
120
117
117
115
117
117
112
110
112
112
112
112
115
115
110
110
107
105
103
105
105
103
105
105
105
107
107
120
122
122
125
122
122
120
117
117
125
127
125
122
125
122
122
120
120
122
122
127
127
122
120
125
127
127
125
120
120
120
120
120
117
120
122
120
120
117
117
115
115
117
115
112
112
112
112
107
110
110
110
112
107
107
107
105
103
100
103
103
105
107
105
