P2
# 499 of 608 Angiograms
64 64
255
122
122
122
122
120
120
122
125
125
125
125
125
127
125
127
125
125
129
137
142
139
134
137
137
134
134
132
129
132
129
127
120
110
105
107
110
115
120
117
110
91
74
66
62
62
60
58
60
74
93
117
129
134
137
137
129
127
127
129
129
129
127
127
129
129
127
125
122
120
122
125
127
129
129
127
127
127
127
127
125
125
132
137
142
142
139
137
137
137
132
132
132
132
127
125
117
105
103
105
112
115
120
120
110
91
74
68
64
66
62
60
62
76
95
122
132
137
142
134
127
127
127
127
127
129
125
127
129
132
129
127
125
122
120
120
122
127
129
129
127
125
125
127
127
129
134
139
142
144
139
137
139
134
132
132
132
129
125
120
115
107
103
107
112
117
120
120
110
89
76
68
66
68
64
62
66
76
100
127
137
139
139
132
127
127
127
127
127
125
125
129
134
129
129
129
125
122
122
125
125
125
129
129
127
125
125
125
125
132
139
142
144
147
139
134
137
137
134
134
132
125
120
115
112
110
105
110
117
120
120
117
107
86
74
70
70
68
64
64
66
78
105
132
137
137
134
127
122
125
125
127
125
125
127
134
139
127
127
125
125
125
125
125
127
129
129
129
125
122
117
120
125
134
142
144
147
144
142
139
137
134
132
132
127
122
115
112
110
107
107
110
115
115
115
112
103
86
74
70
70
66
64
64
68
78
107
134
134
132
129
127
125
125
127
127
125
129
132
137
142
127
127
125
127
129
129
127
127
129
129
127
122
120
117
120
127
137
144
147
149
144
142
139
137
132
129
127
125
117
110
107
107
107
107
107
110
112
110
107
100
84
72
68
70
68
66
64
68
80
110
129
134
129
129
132
129
129
129
129
132
132
134
134
137
127
127
127
127
129
129
127
127
127
127
125
120
120
122
125
129
134
142
144
144
142
139
137
134
129
125
120
112
105
107
107
110
107
105
103
105
107
110
107
100
80
70
66
66
68
70
62
68
82
112
127
132
132
132
137
134
132
132
134
134
134
132
129
129
125
125
129
132
132
129
127
132
129
125
125
125
125
125
127
132
132
134
137
137
137
132
132
127
122
115
107
103
105
105
105
105
103
103
100
100
105
107
105
95
78
70
64
62
66
66
58
68
82
112
120
127
127
127
129
127
125
127
134
134
132
127
127
125
129
129
134
137
137
132
127
129
132
127
127
125
125
125
129
129
129
127
127
127
129
129
125
120
115
110
105
100
103
100
100
103
98
98
95
100
105
103
100
91
74
68
62
62
64
64
58
68
84
112
120
122
122
125
125
125
125
129
129
127
125
120
120
120
129
132
134
134
134
132
129
127
132
129
127
127
125
127
127
127
125
125
125
122
120
120
117
115
110
107
103
100
100
100
100
100
100
98
95
100
103
103
98
86
72
66
60
60
62
60
60
70
84
110
120
120
120
117
120
122
127
125
120
120
120
112
110
107
129
132
132
132
132
132
134
134
134
132
127
125
122
122
122
120
117
115
112
110
110
110
110
105
103
103
100
98
95
95
93
95
95
98
100
98
100
100
100
86
72
64
60
62
62
58
60
72
86
110
115
117
117
115
115
117
117
115
115
117
112
107
107
105
127
127
127
129
129
132
134
132
129
127
120
117
112
112
117
115
112
107
105
105
107
107
107
103
100
95
95
98
95
93
95
95
91
95
98
93
95
100
100
84
72
64
64
64
64
57
60
74
89
112
115
115
115
115
115
112
112
110
110
112
107
105
103
98
122
125
125
127
127
127
127
125
120
117
112
110
107
107
112
115
115
107
105
103
105
105
103
98
100
100
98
98
95
93
95
95
93
95
95
95
100
103
100
84
72
66
66
68
62
57
62
76
95
115
120
117
112
107
107
107
107
105
103
98
98
95
93
91
122
125
122
122
122
122
122
117
112
110
107
110
110
107
110
112
115
107
103
100
100
100
95
93
98
100
98
98
100
95
95
91
93
95
98
103
100
103
98
82
74
70
74
72
64
58
66
78
100
117
120
115
105
100
103
103
103
100
95
95
91
89
89
86
125
125
117
115
115
115
115
112
112
112
110
112
110
107
107
110
110
105
103
98
95
98
98
93
95
95
93
98
100
100
95
93
95
95
98
105
103
100
93
80
76
74
76
70
62
60
70
82
107
120
122
115
107
98
100
100
103
95
91
89
89
89
89
89
129
125
115
110
112
115
112
110
110
115
115
112
110
107
107
107
110
105
103
95
91
95
95
91
93
93
93
91
95
95
93
95
100
98
98
100
98
98
91
78
72
70
74
66
60
60
72
86
112
125
125
115
110
100
95
100
100
95
93
91
93
95
98
98
127
120
112
110
110
112
110
110
112
112
115
115
112
107
107
107
107
105
100
95
93
95
95
91
93
91
91
86
91
91
91
93
98
98
98
100
98
98
89
76
70
68
70
66
62
60
74
93
115
125
125
115
110
98
98
100
98
98
100
100
100
103
103
103
120
115
115
110
107
107
110
112
112
110
115
115
112
107
107
107
105
105
100
98
98
95
93
89
91
93
89
86
89
93
93
91
95
95
98
98
95
93
84
74
70
68
68
62
60
60
76
95
117
122
122
112
107
98
93
93
100
105
107
110
110
110
107
105
115
112
112
107
105
105
112
115
112
110
115
112
110
110
105
103
103
105
100
100
98
95
93
91
93
95
91
86
91
93
93
95
98
98
98
98
93
86
78
72
68
68
66
58
55
60
78
98
115
122
115
110
103
95
93
95
100
107
110
115
115
110
105
103
112
110
107
105
103
105
112
117
112
112
115
112
110
105
100
98
103
105
103
98
95
93
93
93
95
98
93
93
93
95
98
100
103
98
93
93
89
82
74
68
62
60
57
53
52
62
78
95
115
117
110
105
98
91
91
95
103
110
115
117
117
112
110
105
112
112
110
105
103
105
110
112
110
110
112
112
110
103
100
103
107
107
103
98
93
98
100
95
95
98
93
95
98
103
105
103
103
98
91
91
86
80
72
60
55
53
50
48
48
60
76
91
105
110
107
100
98
93
91
98
107
115
120
122
120
117
117
115
115
112
112
110
105
105
107
107
107
107
110
110
107
103
103
105
107
110
105
100
98
103
103
100
100
100
103
103
107
110
107
105
103
98
93
89
86
80
68
55
53
52
48
44
45
58
74
86
98
103
103
98
95
93
95
103
115
122
122
125
122
120
120
120
112
115
112
110
107
100
103
105
103
103
110
107
103
105
105
105
110
110
105
100
103
107
107
107
105
105
105
107
112
115
110
107
105
98
95
91
86
80
64
55
52
52
48
44
47
58
74
86
91
95
95
95
91
91
98
110
120
120
122
122
125
120
117
120
110
112
110
110
105
98
100
100
100
103
110
107
103
105
105
110
115
110
107
105
110
110
112
112
110
112
110
112
117
115
112
110
107
103
100
98
93
82
66
57
52
50
48
48
52
60
74
89
91
93
95
91
89
93
103
115
120
122
125
127
125
122
120
120
110
112
112
107
103
98
98
98
100
103
110
107
105
105
103
107
112
107
107
105
110
112
112
112
117
117
112
112
117
117
115
112
112
107
107
107
98
89
74
60
55
48
48
50
53
64
78
91
98
100
98
95
93
98
110
117
127
129
132
132
132
132
129
127
110
112
112
107
103
98
95
95
95
98
105
105
107
107
103
100
105
107
110
107
112
112
112
115
120
120
117
117
117
117
112
115
117
115
112
110
105
91
76
66
60
53
50
50
57
68
80
98
105
105
105
103
103
112
125
137
139
139
139
139
142
142
142
139
112
110
112
110
103
100
98
95
98
100
100
103
110
112
107
103
103
107
112
110
115
117
115
115
117
120
120
120
117
117
120
122
122
122
122
117
112
93
78
66
62
60
53
52
60
70
84
103
107
105
105
110
120
134
144
151
156
156
151
149
147
147
149
149
110
107
110
110
107
103
100
100
103
103
103
105
112
115
112
107
110
112
115
117
115
115
115
115
117
117
122
125
125
125
122
122
125
127
127
127
115
95
78
66
62
64
57
55
64
72
89
105
110
107
112
125
137
147
156
163
168
163
159
151
149
147
147
144
110
107
105
105
105
105
105
100
100
105
107
107
115
115
115
112
110
115
120
117
115
112
112
115
115
112
117
125
129
132
127
125
125
127
132
129
117
95
76
62
60
64
58
53
64
76
93
107
110
115
127
137
147
154
161
165
168
165
161
154
149
144
142
137
112
110
103
100
100
103
105
103
103
100
103
110
115
115
112
112
110
115
117
117
115
112
110
107
110
110
117
125
132
134
132
127
129
129
129
127
115
91
74
62
60
64
58
53
66
78
95
110
115
125
134
142
149
156
161
163
165
163
159
154
147
144
139
134
115
112
107
103
103
103
103
107
107
100
103
107
112
110
107
110
110
115
117
120
117
115
112
107
112
115
117
125
132
134
132
129
132
132
129
122
112
89
74
64
60
62
57
55
68
80
100
112
120
129
137
142
149
156
163
163
163
159
156
154
147
144
137
132
115
112
107
105
105
105
103
105
107
103
103
103
110
107
105
107
107
112
115
117
117
117
117
112
115
120
122
125
132
134
132
132
132
132
132
122
107
86
74
66
62
62
62
60
70
82
103
115
120
127
134
139
144
151
161
161
156
154
151
149
144
142
137
132
115
110
107
110
107
105
105
107
107
103
100
100
105
107
107
110
110
112
112
112
115
117
115
115
117
122
127
129
132
134
132
134
132
134
132
122
105
82
74
66
62
64
64
64
74
84
105
115
117
122
129
134
139
144
149
151
149
144
142
139
139
139
137
132
117
112
112
112
112
110
107
107
112
107
105
103
105
105
107
110
115
115
115
115
115
115
112
112
117
122
127
129
129
132
129
132
132
134
127
120
100
80
70
66
62
62
60
62
74
84
105
110
115
120
125
127
132
137
139
139
139
137
134
132
132
132
129
125
112
115
115
120
120
117
112
110
112
112
110
107
107
105
107
112
120
120
115
115
115
115
112
112
115
120
127
125
122
122
125
127
129
127
122
112
93
76
66
62
64
64
60
64
74
84
105
107
115
117
120
122
127
134
134
134
134
132
127
127
122
120
120
117
115
115
117
122
125
122
120
115
115
117
110
107
107
105
105
107
115
117
115
115
117
112
110
112
115
117
122
120
117
117
120
122
122
122
117
105
89
72
62
60
62
66
62
68
74
86
105
110
117
115
117
117
125
132
132
132
134
134
129
127
127
125
125
127
120
120
120
120
122
122
120
117
117
117
115
112
107
100
100
105
112
112
110
112
115
110
110
112
112
112
117
117
115
112
115
115
112
110
107
103
84
70
62
62
64
68
66
72
78
89
107
110
115
112
115
120
127
129
132
134
139
139
137
134
134
134
137
134
120
122
120
120
120
115
112
110
115
117
115
115
107
105
100
103
107
110
107
110
105
105
105
107
110
110
112
112
110
107
107
110
107
107
105
98
84
72
68
70
70
72
70
76
82
95
110
112
112
112
117
125
129
129
132
137
137
134
134
132
132
134
134
137
115
117
115
117
117
117
112
112
115
115
112
115
110
105
105
105
103
105
105
100
100
103
103
103
105
107
110
103
103
105
107
107
107
107
103
98
84
72
70
72
72
76
70
78
84
103
112
115
115
117
122
129
132
132
134
137
134
134
132
129
129
132
134
137
115
115
117
120
120
117
115
112
112
112
112
115
107
103
103
103
100
98
93
91
91
93
93
95
100
105
103
98
98
103
105
105
105
105
105
95
84
74
74
74
74
74
74
80
89
107
115
120
120
125
125
129
134
137
137
137
134
134
134
137
137
137
134
137
115
117
120
120
115
112
112
112
112
112
115
112
107
103
103
100
95
91
93
89
89
89
89
91
98
103
103
103
103
105
105
103
105
105
105
98
82
74
76
76
74
70
72
80
89
112
120
122
127
127
127
127
132
137
137
134
137
139
139
142
139
134
134
139
117
117
117
115
112
112
112
112
110
107
107
110
105
100
98
95
89
91
93
89
89
91
91
89
91
100
103
107
107
110
110
107
107
105
105
98
82
74
74
72
68
66
70
78
91
112
122
127
132
132
129
127
132
132
132
134
139
139
139
142
139
134
132
137
115
112
112
110
110
112
112
110
110
107
105
107
105
98
93
89
89
86
89
89
89
91
93
89
91
98
103
107
107
110
112
107
107
105
105
95
80
76
72
68
64
60
64
76
89
112
122
127
127
127
127
127
127
129
129
129
132
134
134
137
137
134
132
134
115
115
112
107
107
110
107
107
107
110
107
107
100
93
93
89
86
86
89
89
91
95
98
98
100
100
98
105
105
105
107
107
105
107
105
93
78
74
72
68
62
57
62
72
89
107
117
125
127
127
127
125
127
127
129
129
129
127
127
125
122
120
120
120
115
115
112
107
107
107
105
105
107
110
110
107
98
95
95
91
86
86
89
91
95
98
100
103
103
103
100
103
103
103
105
105
107
110
105
93
76
70
68
66
60
55
62
68
86
105
115
122
127
127
127
125
122
127
127
125
122
120
117
115
107
98
95
95
110
112
115
110
110
107
103
100
105
107
107
103
95
93
95
91
91
93
95
98
98
100
103
103
105
110
107
107
105
105
105
105
110
115
107
91
76
72
66
62
60
57
62
68
84
100
112
117
120
120
120
120
115
117
117
115
110
107
105
100
93
86
84
84
107
112
115
112
112
110
103
98
100
105
103
98
93
91
98
93
93
95
98
100
103
105
105
105
112
115
112
110
110
112
107
107
112
115
107
91
74
68
68
64
62
58
62
70
86
100
105
105
105
110
110
110
107
112
110
105
105
100
100
95
93
91
91
89
110
112
110
112
112
110
107
105
105
103
98
93
91
93
95
95
93
98
98
95
100
105
107
112
117
115
112
112
110
110
110
110
112
115
107
89
74
68
66
66
62
53
62
70
89
103
105
105
105
105
107
107
105
107
107
105
107
107
105
103
105
105
105
103
110
112
112
115
112
110
110
107
107
100
98
93
93
95
95
95
98
100
105
100
100
105
112
117
117
112
110
112
112
110
112
112
115
112
105
86
76
68
64
62
58
55
62
74
93
105
107
107
105
103
105
107
107
105
105
105
107
110
107
110
112
112
112
110
105
110
110
112
112
110
112
110
107
103
98
91
93
98
98
98
100
103
103
107
105
107
115
117
115
110
112
115
112
115
117
120
120
115
103
82
74
68
66
60
53
53
64
76
98
107
110
110
110
110
110
110
110
107
103
100
105
110
110
115
117
122
122
125
103
103
107
110
107
112
115
110
105
103
98
93
95
98
98
103
103
100
105
107
107
107
115
117
117
115
120
120
117
117
120
120
122
117
103
80
70
68
68
62
52
53
64
84
103
112
115
112
112
115
117
117
117
112
107
105
105
110
112
117
125
132
134
134
105
105
107
110
110
110
112
107
100
100
103
100
100
100
98
100
100
100
103
107
107
110
115
117
120
122
127
127
122
120
122
125
122
120
98
78
70
72
68
62
52
55
66
89
107
115
120
125
127
127
125
125
120
117
115
115
117
115
117
127
137
142
144
144
107
107
110
110
110
115
112
107
105
103
103
103
98
95
98
100
100
100
100
103
107
112
115
117
120
125
127
127
125
125
127
129
129
117
95
78
72
72
68
62
53
57
70
91
112
122
127
132
132
132
134
129
125
120
120
120
120
120
127
139
149
151
149
147
110
107
107
105
105
110
112
110
105
103
100
103
98
95
95
95
98
98
100
100
105
110
112
115
120
122
122
122
125
127
132
134
129
115
89
76
74
70
64
58
55
60
70
93
115
125
127
132
134
134
134
127
122
120
125
125
125
129
139
149
147
149
151
149
112
110
105
103
105
110
110
105
103
103
105
105
100
93
93
95
93
93
93
95
103
107
110
112
117
117
115
120
125
129
132
134
127
112
84
74
68
68
60
58
57
64
72
95
117
122
127
129
129
132
127
125
120
120
125
127
132
139
144
149
147
149
151
151
115
112
107
105
107
112
107
107
107
107
107
105
98
95
95
95
91
89
93
93
98
103
107
110
110
110
112
120
122
129
132
129
122
105
80
68
64
64
60
57
57
68
74
98
115
120
125
127
127
127
127
122
120
122
127
134
137
142
147
147
147
151
154
156
120
115
107
105
110
112
112
110
110
105
105
105
98
91
91
93
91
86
95
95
95
100
103
105
107
110
117
120
125
132
132
127
120
100
78
68
64
62
58
55
57
70
78
100
110
117
120
125
125
127
122
120
120
127
134
139
139
147
149
151
151
154
159
163
122
122
115
110
115
117
117
110
105
105
107
103
93
91
89
89
91
89
93
98
98
93
95
100
103
110
115
120
127
129
127
125
120
98
76
68
64
64
60
57
57
70
80
100
110
115
117
117
125
122
117
115
122
132
142
144
142
144
149
151
154
159
163
165
122
122
122
117
120
117
120
115
107
107
107
100
95
93
91
91
91
89
93
103
103
98
98
100
100
107
112
117
125
129
129
127
122
100
78
68
64
64
60
57
58
70
84
103
110
115
115
115
117
115
112
120
129
139
147
149
144
142
147
151
154
159
163
165
120
120
125
122
120
117
117
117
112
110
107
103
98
95
93
91
89
91
93
100
103
100
98
100
100
107
110
115
122
127
129
132
120
100
80
72
66
62
58
53
58
72
86
103
112
115
115
115
115
115
120
125
132
139
147
144
147
147
147
147
151
156
159
161
120
120
125
127
125
125
120
117
115
110
105
103
98
95
93
89
89
91
91
95
103
103
100
100
105
112
112
115
120
125
129
129
117
98
80
70
62
60
57
50
58
74
89
105
112
110
110
112
117
120
122
125
132
139
147
144
147
144
142
142
144
149
154
159
117
117
125
127
127
125
120
112
112
107
107
105
98
98
95
93
89
89
91
95
100
103
107
107
110
112
115
117
120
122
127
122
115
93
80
68
62
60
57
52
60
74
91
105
105
103
105
107
115
120
120
125
132
137
144
144
144
139
137
139
142
147
149
154
122
125
125
127
127
125
117
115
110
107
105
105
103
98
93
91
86
86
89
95
98
103
107
107
107
110
112
120
120
117
117
120
112
91
76
68
64
64
58
55
62
74
93
107
107
98
98
103
107
112
117
122
129
134
142
144
144
139
137
142
144
147
147
151
125
127
125
125
125
120
117
115
110
107
105
107
103
98
93
91
86
86
84
93
103
100
105
105
103
105
112
120
120
115
115
115
105
86
74
66
64
62
58
55
64
72
93
105
103
103
103
100
103
107
115
120
125
129
139
144
144
142
142
144
151
149
149
151
