P2
# 503 of 608 Angiograms
64 64
255
127
132
129
132
137
134
132
132
129
125
120
115
112
112
110
112
115
115
117
117
117
120
117
115
115
117
120
117
115
112
112
115
115
120
125
127
127
125
127
125
122
122
122
122
122
122
122
120
117
122
122
122
125
129
132
137
137
132
125
125
129
127
127
125
122
127
127
137
142
134
134
134
129
125
120
117
117
115
115
115
115
115
112
115
120
122
117
112
117
120
117
120
120
117
115
117
120
120
122
127
127
127
129
125
125
122
120
120
120
125
125
122
115
120
125
125
127
129
132
134
134
132
127
127
129
127
127
120
120
127
129
137
139
134
134
132
129
125
117
115
117
120
122
120
120
115
112
115
117
120
115
112
117
122
117
112
117
120
120
117
120
120
122
127
129
129
129
127
125
122
120
120
122
122
120
120
117
117
122
125
129
134
132
129
129
132
127
127
127
125
120
112
120
127
129
132
132
129
127
127
125
125
122
120
120
122
122
122
117
112
112
112
115
115
115
115
117
120
120
115
117
122
117
115
120
122
127
129
132
129
129
129
125
122
120
120
117
115
117
117
117
120
122
127
129
134
132
127
127
129
127
125
125
125
117
112
117
125
127
129
129
127
125
127
127
127
122
120
120
120
120
117
115
112
110
110
115
115
115
117
125
125
120
120
120
120
117
115
120
125
125
125
129
129
132
129
127
125
120
120
117
120
122
120
120
122
125
125
129
132
132
129
127
132
129
125
122
122
117
112
115
117
122
125
129
132
127
125
125
129
125
117
122
122
117
115
117
115
112
112
115
115
120
125
132
127
120
117
120
120
122
120
120
125
125
125
129
129
129
127
127
125
122
120
122
125
125
122
122
125
125
125
125
125
127
132
134
132
127
127
127
120
117
110
112
115
117
120
127
132
129
129
127
125
122
117
120
120
115
110
112
117
117
115
115
120
125
129
132
125
117
117
120
122
122
122
122
125
127
132
129
132
129
127
127
125
125
125
125
127
125
122
122
122
122
120
120
122
127
132
134
127
125
127
125
117
117
115
110
110
112
117
122
125
129
127
125
122
122
115
115
117
112
107
110
112
115
115
117
120
125
127
125
120
120
120
120
122
122
120
120
129
127
129
127
132
127
122
122
125
127
125
122
125
125
127
125
120
117
117
120
125
127
132
129
125
125
122
117
115
117
115
115
112
115
117
120
122
125
125
125
122
122
120
120
120
112
107
110
112
112
115
117
120
122
122
120
117
117
117
120
122
117
115
117
125
127
127
125
127
125
127
125
127
122
125
125
125
125
127
125
117
115
117
122
125
125
129
125
120
122
117
112
117
120
112
115
117
115
117
120
120
122
122
120
122
125
122
120
120
112
107
105
110
112
117
120
117
115
117
117
120
120
120
120
120
117
115
117
120
122
127
127
122
125
129
129
127
122
125
127
125
127
127
125
122
117
117
117
120
122
127
122
120
120
117
117
120
120
117
110
115
115
115
112
112
115
120
120
117
120
117
117
117
110
107
107
110
115
117
115
112
115
117
117
120
120
120
120
117
115
112
115
117
122
125
127
127
127
129
129
125
125
127
127
127
127
127
129
127
120
115
112
117
122
122
122
120
125
122
122
125
122
122
107
115
117
117
117
112
112
115
115
120
117
122
125
117
110
112
112
112
115
110
107
110
115
117
120
120
122
122
117
115
112
110
115
117
125
127
129
129
127
125
127
127
127
127
127
127
125
125
129
127
122
117
112
115
117
122
125
125
125
127
127
127
129
129
107
117
120
117
117
112
115
115
115
120
120
125
127
120
115
117
117
112
112
110
110
112
115
115
117
120
122
122
117
115
115
115
115
120
127
132
132
129
127
122
125
132
132
127
125
125
125
125
127
125
122
117
115
117
120
122
132
129
125
127
129
129
132
129
107
115
117
117
117
115
115
112
115
117
115
120
120
120
120
115
117
112
110
115
115
112
115
112
112
115
117
117
117
117
117
117
120
122
132
134
134
132
129
129
129
134
132
127
127
129
127
127
127
127
125
120
120
122
122
125
129
129
125
127
132
132
127
127
105
110
115
117
117
117
122
117
115
115
112
115
115
115
120
120
117
112
110
112
115
112
115
115
112
112
115
115
117
120
120
117
117
125
134
137
134
132
129
129
132
134
132
129
127
132
127
127
127
127
125
120
120
122
122
127
127
127
125
127
132
129
129
129
105
110
115
115
115
117
120
120
117
115
110
112
112
112
115
117
117
117
117
117
117
115
112
110
112
112
110
107
110
115
120
120
120
127
132
137
137
132
129
132
129
127
132
129
129
129
125
122
125
125
122
117
120
125
125
127
129
129
132
129
127
129
134
132
105
107
110
112
115
117
120
117
120
117
112
115
115
117
117
117
120
117
122
120
117
115
110
107
110
110
107
107
110
112
115
120
125
129
132
134
137
137
132
132
129
127
129
127
127
127
125
122
120
122
122
120
122
127
129
129
129
129
129
129
129
134
132
132
105
105
110
112
115
117
122
117
122
120
115
115
115
117
122
125
125
122
122
117
115
115
110
110
110
110
107
107
112
115
120
125
127
132
132
134
137
137
134
132
132
127
129
129
127
127
125
125
122
125
125
122
129
132
132
132
129
127
127
129
132
137
134
132
98
100
105
115
115
117
120
122
125
125
120
115
117
117
120
122
125
125
122
120
120
120
112
110
110
115
112
110
115
117
122
125
127
132
132
132
134
132
132
134
134
132
129
132
129
127
127
122
122
125
127
127
134
134
132
127
125
127
127
127
132
134
132
132
95
98
103
110
115
117
120
122
122
120
117
117
117
115
115
120
122
122
120
120
117
115
112
115
117
115
115
120
125
122
125
127
127
127
127
129
132
132
132
134
134
134
132
132
129
129
125
122
122
129
132
134
137
134
129
127
125
122
125
132
134
134
132
134
95
100
105
110
112
120
120
120
117
115
120
122
120
117
117
117
120
122
120
120
120
120
120
117
117
117
120
120
125
127
129
129
127
127
129
127
127
134
137
134
132
134
132
132
127
129
125
125
127
132
134
134
134
132
129
129
127
125
122
129
134
137
132
137
100
105
105
107
107
112
112
112
112
115
120
127
127
120
117
117
120
122
122
122
122
125
122
120
122
120
122
122
127
132
137
134
127
127
127
127
127
134
137
137
134
132
129
129
129
127
122
127
132
134
137
134
134
129
129
129
129
129
127
127
129
132
134
134
100
105
103
100
103
105
107
107
112
115
122
127
127
122
117
115
117
120
122
122
125
125
122
125
125
125
127
127
129
134
137
137
129
125
127
127
127
137
137
137
134
132
129
127
129
125
125
127
134
134
137
137
137
132
129
134
132
132
129
127
125
125
127
132
98
103
103
100
100
103
103
105
112
115
120
125
125
122
117
112
112
117
125
127
125
120
122
125
129
129
129
132
134
137
139
139
132
125
125
127
129
137
137
137
132
132
132
132
132
127
127
129
134
134
134
137
134
132
132
134
134
132
132
127
127
127
127
129
100
103
103
100
100
100
103
105
110
110
112
117
120
120
117
115
115
120
122
129
127
122
125
127
129
132
132
134
134
134
139
139
137
129
127
127
132
137
137
134
134
137
139
137
134
132
132
132
132
134
132
132
134
132
134
134
132
132
127
129
127
129
132
129
98
105
103
98
100
105
105
105
107
107
107
110
112
117
115
117
117
117
120
127
127
127
127
127
129
132
132
132
134
139
139
139
137
134
129
129
134
137
134
134
132
139
137
139
137
134
134
132
132
129
129
132
134
132
132
132
129
129
125
127
129
129
129
129
100
103
100
98
98
103
105
105
103
103
107
110
112
115
115
117
117
115
117
122
127
125
127
129
127
132
132
132
137
139
137
137
139
134
132
132
132
132
132
129
132
137
134
137
139
134
132
129
129
129
127
129
132
132
132
132
129
127
122
125
127
127
129
129
98
103
103
100
103
107
107
105
103
100
100
105
105
107
112
115
120
120
120
125
125
125
127
132
129
134
137
134
134
137
137
137
134
137
134
132
132
132
129
127
129
132
134
137
139
134
132
132
132
129
132
134
134
137
134
129
132
127
125
125
125
129
127
125
100
103
103
107
107
107
110
107
105
105
103
100
100
103
105
110
115
120
122
125
127
127
127
134
132
134
134
137
134
139
142
137
134
139
134
129
132
134
132
129
127
129
129
134
137
134
132
134
132
132
134
134
132
137
134
129
132
132
129
127
125
127
122
122
107
105
103
110
107
105
105
107
105
100
98
98
98
100
107
112
112
117
120
125
127
125
125
132
134
137
137
139
142
139
142
137
137
139
134
129
127
134
132
129
127
127
127
132
134
129
129
132
134
132
134
132
132
134
132
127
129
132
132
127
125
122
122
120
110
105
103
105
105
107
107
107
105
100
98
98
100
105
112
115
112
115
122
125
129
129
125
127
132
134
139
144
144
142
139
137
134
134
132
129
129
132
129
127
125
127
129
129
129
129
129
134
137
134
134
132
129
129
132
129
127
127
127
125
122
122
120
115
107
103
100
98
100
105
110
110
107
105
105
107
105
107
115
117
115
112
122
127
129
129
125
122
132
139
142
144
144
144
144
139
134
134
132
132
132
132
129
127
125
125
125
125
125
127
127
134
139
137
134
132
132
129
129
129
127
125
122
120
117
117
117
115
105
103
103
100
98
107
110
110
112
110
107
110
107
110
112
117
117
117
122
125
127
127
122
125
134
139
142
142
142
142
144
142
134
134
132
129
129
127
129
127
125
127
127
125
122
127
129
134
139
134
132
132
134
132
129
127
125
120
115
115
115
115
115
117
105
103
100
98
98
103
107
107
112
112
112
112
110
112
117
117
112
117
122
122
125
129
127
129
137
137
139
144
144
142
142
139
137
132
129
127
132
129
127
127
125
127
127
125
122
127
129
134
137
134
129
134
132
132
132
127
120
117
115
112
112
112
115
117
103
103
100
100
98
100
103
103
107
112
115
115
112
115
117
115
110
117
122
120
122
127
129
129
134
139
139
144
144
142
142
139
139
134
127
129
132
132
125
125
125
125
125
122
120
125
129
134
134
134
134
132
132
132
132
127
120
122
122
117
112
115
120
117
107
103
100
100
100
103
105
105
107
112
117
115
115
117
115
115
115
120
120
117
122
127
129
132
132
137
142
142
142
142
142
139
142
139
129
127
129
127
125
125
120
122
125
125
122
125
129
132
132
129
132
129
129
129
132
129
127
127
122
115
112
117
117
117
105
100
98
100
100
103
105
107
107
110
112
112
117
120
117
117
117
120
120
120
122
129
132
132
134
134
139
142
142
139
142
144
144
142
134
129
129
127
127
125
122
127
127
127
129
129
129
132
134
129
129
134
134
129
132
134
129
127
125
115
110
115
117
117
105
103
103
103
100
100
103
107
110
110
110
112
117
117
120
122
122
120
120
120
122
125
129
129
134
134
137
139
139
139
139
142
144
142
142
139
137
132
127
125
127
127
127
125
125
127
132
132
132
129
129
132
134
132
129
132
132
129
127
115
110
112
115
112
105
103
103
103
100
100
100
103
105
107
107
115
115
117
120
122
122
122
120
117
120
122
127
129
132
132
132
137
137
134
134
139
142
142
144
144
144
139
134
132
132
129
127
125
125
125
127
129
129
129
129
132
132
132
127
129
129
127
125
117
110
110
110
107
105
103
107
105
103
103
100
103
103
105
105
110
115
117
120
117
117
117
117
117
117
120
122
125
127
129
132
134
137
134
132
139
144
144
147
144
142
139
139
139
134
132
127
125
125
125
122
122
122
127
127
125
125
127
127
129
127
125
122
117
110
107
107
107
107
107
110
105
105
103
100
100
103
105
103
107
112
117
117
115
112
115
117
117
117
115
117
122
127
132
132
134
139
139
139
142
144
144
147
147
142
144
144
144
139
137
134
134
127
122
122
120
120
120
120
120
120
122
125
127
125
122
120
115
112
110
105
105
110
110
110
110
105
103
98
98
100
103
103
105
110
112
112
115
112
117
117
117
115
112
112
120
127
132
132
132
139
142
142
144
144
144
144
147
147
147
147
147
144
137
134
134
134
127
125
120
120
120
117
117
117
122
122
122
122
122
117
110
110
110
107
105
110
107
107
110
107
100
98
100
100
100
100
105
105
107
112
117
117
120
117
115
112
110
107
112
122
127
132
134
137
139
142
144
142
139
139
144
149
149
149
149
147
142
134
137
137
132
122
117
122
117
115
115
120
120
120
120
122
125
115
107
107
107
110
110
110
110
107
103
105
103
100
98
100
100
100
103
107
110
115
115
115
117
112
112
112
107
110
112
120
127
129
134
137
139
139
142
144
144
142
147
151
154
151
151
147
144
139
137
134
132
122
117
117
117
117
120
120
117
115
120
125
125
117
107
105
107
112
110
110
110
110
103
103
105
105
100
100
100
98
103
105
110
110
112
115
115
112
112
110
110
107
110
120
127
127
129
137
142
142
142
142
144
144
147
149
151
151
149
147
147
142
139
134
132
127
122
117
117
120
120
117
112
112
117
122
122
115
107
105
107
107
105
112
107
107
107
103
105
103
98
98
98
98
98
103
107
107
107
112
115
112
110
107
110
107
112
122
125
127
127
134
137
142
142
142
144
144
144
147
147
149
151
149
144
142
142
142
137
132
127
122
120
122
120
115
115
115
115
115
115
112
107
107
105
100
103
117
110
107
105
103
98
100
98
98
95
93
95
98
103
105
107
110
110
110
110
107
110
112
115
122
127
127
129
134
132
137
139
142
147
147
144
144
147
149
149
147
142
142
142
144
139
137
132
132
125
122
117
120
122
117
112
112
110
110
107
103
98
98
103
120
115
107
103
100
98
103
103
100
95
95
98
98
95
100
105
107
105
107
107
112
115
112
117
120
122
127
129
132
129
134
137
139
144
142
139
139
144
147
147
144
142
142
144
142
139
137
134
132
125
120
117
120
122
122
115
112
110
110
105
100
100
98
105
120
117
110
105
100
103
105
103
100
98
98
98
98
95
100
105
107
107
110
110
115
117
115
117
120
120
125
129
132
132
137
134
137
139
142
142
142
142
144
144
144
142
142
139
137
137
137
134
129
120
120
120
117
120
122
117
115
110
105
100
100
103
100
107
120
120
112
110
107
107
105
103
98
98
100
98
100
98
103
105
105
107
112
112
115
115
117
117
120
122
129
132
129
134
137
134
134
139
142
144
144
142
142
142
139
142
139
139
137
137
137
132
127
117
115
120
120
117
115
112
110
107
100
103
103
103
107
107
117
117
112
115
115
110
107
107
103
100
103
100
95
95
105
105
107
110
110
115
117
117
117
117
122
127
129
132
132
132
134
132
134
139
142
139
137
137
137
134
134
134
134
134
137
137
137
132
125
115
112
117
120
117
112
107
107
103
103
105
105
103
105
107
117
115
115
112
112
110
110
107
105
100
98
98
93
95
105
105
107
107
105
110
115
115
115
117
125
129
132
134
134
132
134
134
134
134
134
132
134
129
127
127
129
127
129
132
134
137
132
127
122
112
112
115
117
115
110
110
107
103
103
103
103
100
100
100
117
117
115
115
112
112
112
107
103
98
98
100
100
100
103
105
105
105
107
107
112
115
115
120
127
132
132
134
134
134
134
129
129
129
132
132
127
127
125
122
122
117
120
125
129
132
127
125
122
112
110
112
112
115
115
110
110
107
105
103
100
103
100
100
117
115
115
115
117
115
112
107
103
98
100
103
103
103
105
105
107
107
107
107
110
115
117
122
127
129
132
134
134
134
134
134
132
132
132
129
125
125
125
122
120
117
120
117
120
120
122
122
117
115
115
112
112
112
112
112
110
107
105
100
100
105
105
105
117
112
115
115
115
115
115
110
105
103
103
105
103
100
103
107
107
107
107
105
107
110
115
122
127
129
137
137
134
134
137
134
132
132
132
129
127
125
122
122
122
120
117
115
117
117
117
117
117
112
112
110
107
110
112
112
110
107
103
103
103
100
103
105
117
112
110
112
110
112
115
112
103
107
105
107
105
103
103
105
107
103
105
105
103
107
107
115
122
127
137
137
132
132
132
132
129
125
125
125
125
122
122
125
125
120
115
117
117
117
115
112
115
112
107
105
105
110
110
110
110
105
100
103
107
103
103
107
120
117
112
110
115
110
110
110
105
107
107
107
105
103
103
103
103
100
100
103
103
105
103
105
110
122
132
132
132
137
134
129
125
122
120
120
120
120
120
120
120
115
115
115
115
115
115
115
117
117
112
107
107
107
105
110
107
105
98
100
105
105
105
105
120
117
110
110
107
107
110
107
103
105
103
100
103
103
103
103
103
100
98
100
105
103
95
98
103
110
122
129
129
132
132
127
120
117
117
117
117
115
115
117
117
112
112
117
120
115
115
117
117
117
115
110
107
107
107
107
107
103
100
98
100
103
100
103
122
117
112
107
107
107
110
110
107
103
103
103
100
103
103
103
105
103
100
98
100
95
93
98
103
105
115
122
125
125
122
117
112
112
112
115
117
112
112
112
115
117
117
122
120
112
112
117
122
115
115
115
112
112
110
107
107
105
105
100
103
105
103
103
125
117
115
110
107
105
110
110
110
105
103
105
103
103
107
105
103
103
100
103
98
98
95
98
100
103
110
117
120
117
115
112
110
107
107
110
112
115
112
112
115
120
122
120
117
115
117
120
122
122
120
117
120
120
115
110
110
112
110
105
105
105
107
110
125
120
115
115
110
110
112
112
107
105
103
103
100
103
107
103
100
105
103
100
98
95
95
95
100
103
110
115
115
115
115
112
112
112
110
107
110
110
107
110
112
120
122
122
120
120
120
122
125
125
127
125
127
127
122
115
110
110
110
107
107
107
107
110
122
122
117
117
117
112
107
107
105
100
98
100
100
98
100
103
100
103
103
98
95
95
98
95
98
100
103
110
112
112
112
112
117
117
110
107
110
110
105
110
112
120
125
125
125
127
125
125
127
127
129
134
137
132
129
122
112
110
112
110
110
112
112
112
125
125
125
117
117
115
112
105
103
100
95
95
95
98
98
103
100
100
100
98
95
95
95
93
95
95
98
100
107
112
112
112
115
115
112
112
107
107
110
112
117
122
129
129
129
129
125
125
127
127
132
137
139
137
134
129
120
115
115
112
112
115
115
112
125
125
125
120
117
115
112
110
105
95
93
91
93
95
98
98
98
98
98
95
93
93
91
91
91
89
91
91
95
100
103
105
105
105
107
110
110
110
112
115
120
125
129
129
132
132
127
125
125
127
134
137
139
139
139
134
125
122
120
117
112
110
110
110
