P2
# 504 of 608 Angiograms
64 64
255
93
93
103
115
122
129
134
137
139
139
139
139
139
139
139
137
139
139
139
139
142
147
142
137
134
132
129
129
127
127
129
132
129
125
125
127
125
122
117
117
120
122
122
127
129
129
127
127
127
127
129
129
129
129
129
127
127
129
125
125
127
127
125
125
91
93
100
110
117
125
132
134
137
134
137
139
139
137
137
139
139
142
147
144
144
149
144
137
134
129
127
129
129
127
129
132
132
127
127
125
125
125
117
115
120
125
120
122
125
125
125
125
125
125
127
129
134
129
127
127
129
127
125
122
120
120
122
122
93
95
100
107
112
120
127
134
134
134
137
137
137
139
139
139
139
142
144
144
144
144
139
134
129
127
127
129
129
129
129
132
129
129
127
127
125
125
115
110
117
125
120
117
120
122
120
122
122
122
125
129
134
132
127
129
127
125
122
117
117
117
117
122
95
95
98
105
112
117
125
129
132
137
137
142
142
142
139
139
137
139
139
142
144
142
137
132
129
127
127
132
134
137
134
132
129
129
129
127
127
125
115
110
115
122
120
120
120
120
122
120
122
125
127
129
132
132
129
127
127
122
120
120
120
120
120
120
103
100
100
105
110
117
122
127
127
132
137
142
147
144
142
142
139
137
134
139
142
139
137
132
129
127
127
129
132
137
134
134
127
127
125
125
125
122
117
112
115
117
122
122
120
120
122
120
122
127
127
129
129
132
129
127
127
125
120
117
117
120
117
120
107
105
107
110
112
115
120
127
129
127
132
139
144
142
139
142
139
139
137
134
137
137
137
134
132
129
132
129
132
134
132
132
127
125
122
120
122
120
115
112
115
117
120
120
115
120
122
122
125
127
127
129
127
125
127
127
125
127
122
117
117
117
117
120
110
110
112
115
115
117
120
125
127
127
129
134
139
142
139
137
137
137
137
137
134
137
134
137
134
132
132
132
132
132
129
129
127
122
122
122
120
117
115
112
115
117
120
117
117
117
122
122
125
127
129
127
125
125
129
127
125
127
125
125
122
120
122
120
110
115
117
120
117
120
120
122
125
127
129
132
139
142
139
137
134
134
134
137
137
137
137
137
137
134
132
129
129
127
125
125
125
122
122
120
120
120
117
117
117
120
125
122
120
120
125
122
122
127
129
127
129
129
132
129
127
129
127
127
127
125
122
120
112
117
120
122
120
117
120
122
127
129
129
129
137
139
142
137
132
132
132
134
137
137
139
139
134
134
132
127
122
122
125
125
125
120
120
120
120
120
117
120
122
122
122
117
120
122
127
125
120
127
129
129
132
132
132
132
134
132
127
129
129
125
120
120
115
117
120
125
125
125
122
122
122
127
132
129
132
134
134
137
134
132
129
134
137
137
137
137
134
132
129
127
120
117
122
122
117
117
117
117
120
122
120
120
120
117
120
117
117
122
127
125
122
127
132
132
134
132
129
134
132
129
127
127
129
125
122
122
115
115
122
129
127
122
122
122
125
127
129
129
134
132
134
137
137
134
134
134
137
137
134
137
137
137
134
129
122
122
120
117
117
117
117
117
120
122
122
120
120
117
115
112
117
120
122
122
122
125
132
134
134
129
127
132
129
127
127
125
129
125
122
125
120
122
127
129
127
122
122
127
127
129
129
127
132
129
134
137
137
137
137
139
137
137
134
139
134
132
134
132
125
122
117
115
115
117
117
120
117
122
125
120
117
117
117
112
117
120
117
120
117
122
129
132
132
129
132
132
132
129
127
127
127
127
122
122
125
129
129
127
127
125
127
129
129
129
129
127
132
134
132
134
137
139
139
142
142
139
137
137
134
134
132
134
132
125
120
117
115
115
115
120
117
122
120
117
117
117
115
110
115
120
120
120
117
122
127
127
132
134
134
134
132
132
132
134
134
129
125
122
129
129
127
127
127
127
129
134
134
132
129
127
132
137
137
137
139
144
144
144
144
142
142
142
137
137
137
134
134
127
125
122
120
117
115
115
117
117
117
117
117
117
115
112
115
117
117
120
117
122
125
127
132
137
137
137
132
132
134
139
134
134
129
125
132
129
127
127
129
132
132
139
139
137
134
134
134
137
139
142
144
147
147
149
149
144
142
142
139
137
139
142
137
134
127
125
122
120
117
115
117
117
117
117
117
117
115
117
117
117
117
120
120
120
125
129
129
134
137
137
134
132
134
137
137
137
129
127
134
132
129
129
134
137
142
144
142
139
137
137
137
139
139
142
144
147
147
149
149
144
142
139
139
139
139
142
142
139
134
129
127
125
125
120
120
120
117
117
120
122
122
122
125
125
122
122
125
125
127
127
129
129
134
134
134
137
134
132
134
134
132
132
137
132
132
134
137
142
147
149
144
139
137
137
139
137
139
137
139
144
147
147
144
147
144
142
139
137
139
142
142
142
139
137
134
134
132
127
125
125
122
120
120
125
127
127
125
125
122
122
125
127
127
129
132
129
132
132
134
137
132
129
129
129
134
129
137
134
134
134
142
149
154
151
149
144
139
137
137
137
139
137
137
142
142
144
144
144
144
142
139
137
137
142
142
139
139
137
139
139
134
127
127
125
122
122
122
125
127
127
127
122
120
122
125
129
129
129
134
129
129
129
132
132
127
127
127
129
132
132
134
134
134
137
147
154
154
154
151
149
144
142
139
139
139
137
134
137
139
142
142
139
139
144
144
137
137
139
142
139
137
134
139
142
134
129
127
125
122
125
127
127
127
127
127
122
125
125
125
129
129
127
129
129
127
127
129
129
127
127
127
129
132
134
137
137
139
142
151
156
154
154
154
151
149
144
137
139
139
137
137
142
144
142
142
139
142
144
142
139
137
139
142
142
137
137
139
139
137
132
127
127
125
122
125
125
127
125
125
125
127
129
127
125
122
125
127
127
125
129
129
129
127
129
127
127
132
134
139
139
142
147
154
159
159
159
159
154
151
147
142
139
139
139
139
144
147
147
144
144
147
144
142
142
142
142
142
144
139
137
139
142
137
132
127
125
122
122
122
125
125
127
127
125
125
127
127
127
125
127
127
127
125
127
127
125
129
127
129
129
129
132
137
139
142
149
156
159
161
163
159
156
154
149
144
142
139
139
142
144
144
147
149
149
151
144
142
139
142
142
142
139
139
139
142
139
137
132
129
125
122
122
122
122
122
120
117
120
122
125
127
129
127
127
127
125
125
125
122
125
129
129
129
134
132
132
134
139
144
151
159
161
165
165
161
156
154
149
149
147
144
144
144
147
144
147
149
149
151
149
142
139
137
137
137
139
142
139
139
139
137
132
132
127
127
125
125
125
122
122
125
125
120
122
125
125
125
125
122
125
127
125
125
127
129
132
132
132
132
132
142
142
147
151
159
161
165
163
161
156
156
154
151
149
149
147
144
147
144
149
149
149
149
149
144
142
139
139
137
137
142
142
139
137
134
132
132
129
127
125
129
132
127
129
127
127
125
122
125
125
125
125
125
125
127
127
127
132
132
132
134
134
132
132
144
142
144
149
156
161
165
165
163
159
159
156
154
154
149
144
147
144
144
147
149
147
147
149
149
149
147
144
142
139
139
142
139
134
132
132
134
134
134
134
137
134
134
134
129
129
129
127
125
125
127
127
129
129
132
129
134
134
132
134
134
137
134
132
142
139
139
144
151
159
163
165
163
161
159
159
159
156
149
144
144
144
144
149
151
151
149
149
149
151
149
147
144
144
144
144
139
137
134
134
132
137
139
142
139
137
139
137
134
137
134
134
132
132
132
132
134
132
134
134
137
134
134
134
134
139
139
137
139
139
142
144
149
156
161
165
165
161
159
163
161
156
151
144
144
144
147
149
151
154
154
151
147
147
147
147
147
144
144
144
139
137
137
137
137
137
142
147
144
142
142
142
139
139
137
137
137
137
137
134
137
137
134
132
139
137
137
137
137
139
142
142
139
142
142
144
147
154
161
163
165
161
161
161
159
156
154
147
144
147
151
154
154
154
154
154
151
149
149
149
147
144
142
139
139
139
139
137
139
137
142
149
149
147
147
144
142
139
139
139
139
137
134
134
137
134
132
137
139
144
139
139
142
142
142
142
142
142
142
142
147
154
159
161
161
161
161
161
161
161
154
149
149
151
154
154
156
156
156
156
154
151
151
149
144
142
139
139
142
144
144
139
139
137
139
149
154
151
151
149
147
144
142
142
139
137
137
137
134
134
137
139
142
147
142
144
147
144
144
147
142
144
144
147
147
151
156
161
163
163
163
165
168
165
161
156
154
156
156
156
159
159
156
151
151
151
151
147
144
144
144
147
142
144
144
142
142
139
139
147
151
151
151
151
149
149
147
144
137
134
137
139
139
139
139
139
139
139
144
149
151
147
144
147
149
147
149
151
149
147
154
159
161
159
163
165
170
168
165
161
159
161
163
161
159
156
151
151
149
151
149
147
147
147
147
147
144
144
142
139
139
142
142
147
149
151
151
154
151
149
149
147
142
139
139
139
139
139
142
142
139
142
147
149
151
149
147
144
151
151
151
154
149
147
151
161
159
159
163
165
170
170
165
163
161
163
163
159
156
156
151
154
151
149
149
151
151
149
147
147
147
144
142
139
142
144
147
151
151
151
151
151
149
149
151
147
144
139
139
139
139
142
144
142
139
147
149
149
147
147
149
147
154
154
151
151
149
151
156
161
161
161
163
165
168
170
165
163
163
161
159
156
156
156
154
156
154
151
151
154
154
154
151
149
149
144
139
137
144
147
149
149
149
149
149
147
147
147
151
151
147
142
142
142
142
142
144
144
144
149
149
147
144
142
144
147
156
156
151
154
156
156
156
161
161
163
165
165
168
168
168
165
163
159
156
156
161
159
156
161
159
156
156
156
156
156
154
151
147
147
142
139
144
149
147
147
151
154
151
149
149
149
149
154
149
144
147
144
142
144
147
144
144
147
149
147
142
142
142
144
156
159
156
159
156
156
161
163
163
165
165
168
170
170
170
168
163
159
156
159
161
161
159
159
159
159
159
161
159
156
156
154
149
149
147
144
147
149
151
151
154
156
156
154
149
149
151
156
154
147
147
144
144
147
147
142
142
142
147
149
144
142
144
151
159
161
159
159
156
156
163
170
165
168
170
170
172
172
172
170
165
161
159
159
161
163
163
161
161
161
159
163
163
159
156
154
151
151
149
147
149
149
154
156
159
156
154
151
149
147
147
151
151
149
151
149
147
147
144
142
144
142
144
144
144
147
149
151
156
159
156
154
154
154
163
170
170
172
176
176
174
172
174
170
165
163
161
161
163
165
165
163
163
163
161
161
163
159
154
154
154
154
151
149
151
151
154
159
159
154
151
149
151
147
142
144
147
149
151
149
144
147
144
142
139
139
142
142
144
149
149
149
147
149
149
149
149
151
161
165
170
174
180
182
178
176
176
172
165
161
163
168
168
165
168
165
165
165
165
165
163
159
154
149
149
149
151
151
149
149
154
154
154
154
151
149
154
151
147
147
149
149
154
151
147
149
147
142
137
139
139
139
144
149
149
147
139
142
139
137
139
144
154
161
165
172
178
180
176
176
178
172
168
163
165
168
170
170
168
168
165
168
168
168
165
159
159
151
149
149
149
151
151
149
151
154
154
151
151
151
154
156
154
151
151
149
154
154
149
147
147
142
139
139
142
142
144
149
147
144
134
132
129
127
129
137
144
154
161
168
172
174
174
176
178
174
170
168
168
172
174
172
172
170
170
170
168
168
168
163
161
161
159
156
154
154
154
154
156
154
154
151
151
154
156
156
156
156
154
149
149
151
154
154
149
144
142
144
142
144
147
144
147
144
127
127
125
122
125
132
137
144
151
159
163
168
170
172
172
172
172
168
172
174
178
176
172
174
172
172
174
174
172
170
168
168
165
161
161
159
156
159
159
156
156
154
151
154
154
156
156
156
151
149
149
151
154
154
151
149
147
147
147
147
144
147
149
149
120
120
120
125
122
127
132
137
142
147
151
154
156
159
161
165
170
172
174
176
180
180
174
176
176
174
176
176
172
170
170
170
170
165
163
163
163
161
159
161
156
154
154
156
154
156
156
154
147
144
147
149
154
154
149
149
151
151
149
149
144
149
151
151
117
117
117
122
125
125
127
129
134
139
142
144
144
147
151
156
161
168
172
176
178
180
176
178
178
178
174
174
174
174
172
172
172
168
165
165
168
165
163
161
161
159
156
156
159
159
154
151
144
147
149
149
149
149
149
151
154
151
149
147
147
151
154
154
115
117
117
122
125
127
125
129
132
134
137
139
137
139
142
147
154
159
165
172
174
178
180
180
180
178
176
176
176
178
176
174
174
172
168
168
172
172
170
165
165
163
161
159
159
156
154
149
147
147
149
149
147
147
149
151
154
151
149
149
149
151
151
151
112
115
117
120
122
125
125
127
132
129
129
132
129
129
134
139
144
151
156
161
165
170
174
176
178
176
176
176
176
178
176
172
172
170
165
168
172
174
174
170
168
163
161
159
159
154
151
149
147
147
147
147
147
144
149
151
154
154
149
149
151
151
151
149
110
112
115
117
120
120
127
129
129
127
127
132
127
127
127
132
137
142
149
154
156
159
163
168
170
170
172
172
174
176
172
172
170
170
168
170
172
176
176
172
170
165
163
163
161
154
151
151
149
147
147
147
149
149
149
151
154
154
151
147
144
151
154
149
112
112
115
115
117
120
125
122
122
127
129
127
125
122
120
125
132
134
139
144
147
149
154
154
156
159
159
161
165
170
172
172
170
168
170
172
174
176
176
172
170
170
170
168
163
156
151
149
149
149
154
151
151
151
154
154
154
154
154
149
149
151
154
149
110
112
115
115
115
120
117
120
120
125
125
122
120
117
115
117
125
129
134
139
144
147
147
151
151
149
149
149
151
156
163
168
168
168
170
172
174
178
180
178
178
174
172
170
163
159
151
151
154
151
154
154
154
156
156
154
151
151
154
151
151
154
154
147
107
112
115
110
112
120
122
117
115
122
122
117
115
110
107
110
117
122
129
134
142
144
144
147
147
144
144
147
149
149
151
156
159
161
163
168
172
176
180
182
182
176
174
172
168
163
156
156
156
156
154
156
159
161
161
159
156
151
154
154
151
154
154
149
110
107
110
112
112
120
125
122
120
125
120
112
107
105
103
105
107
115
122
127
134
139
139
142
142
142
144
147
149
147
149
151
151
154
156
159
165
172
176
178
178
174
174
172
170
165
161
159
159
161
159
161
165
163
161
159
156
154
151
154
156
154
151
151
107
105
105
107
112
120
125
125
125
125
117
110
105
98
100
100
103
110
115
122
127
132
134
134
134
134
139
142
144
147
144
144
144
144
147
149
151
156
163
168
170
170
172
172
174
168
165
163
161
163
161
163
165
163
163
159
161
156
154
154
156
154
151
151
107
105
105
107
112
117
120
122
125
122
115
112
103
93
93
98
100
105
110
112
120
122
125
127
129
132
134
137
139
144
144
139
139
139
139
139
142
147
149
154
156
161
165
168
170
168
163
163
161
163
163
163
163
161
163
161
163
161
159
154
154
154
154
151
107
107
105
107
110
110
115
120
120
120
117
112
103
93
89
95
100
100
103
105
112
117
120
122
125
127
129
134
137
142
139
134
134
137
134
134
134
137
142
144
147
147
151
156
159
159
159
161
161
163
165
163
161
163
163
163
163
165
165
161
156
154
156
156
110
110
105
107
110
112
112
117
117
117
120
117
105
100
95
95
103
103
105
103
105
110
112
115
117
122
125
127
132
137
134
134
132
129
127
125
125
127
132
134
137
139
142
144
147
149
151
154
156
156
159
159
159
163
163
161
161
165
165
161
161
161
159
159
110
112
105
105
105
107
112
117
120
120
122
120
110
105
103
100
100
103
105
103
105
107
107
110
115
117
122
122
125
127
127
129
127
125
125
125
125
125
125
129
129
129
132
134
134
137
139
142
144
147
149
151
156
161
161
163
163
165
163
163
163
163
165
163
110
107
105
105
105
103
110
117
120
120
120
117
112
110
105
100
100
103
103
103
107
105
105
107
112
115
115
117
120
120
117
117
120
125
127
127
125
122
122
125
127
125
127
129
132
132
129
129
134
139
142
144
147
151
154
159
161
163
165
165
165
165
165
163
112
110
105
107
107
105
112
115
115
115
117
115
110
110
107
105
105
105
103
105
107
107
107
105
105
110
112
112
115
112
112
112
115
117
122
125
122
117
120
125
127
127
127
127
129
127
125
125
127
134
137
139
139
142
147
149
156
161
165
170
168
165
163
161
107
103
105
107
103
103
110
117
115
115
115
115
112
105
107
107
103
103
103
105
110
107
107
105
103
105
107
107
107
107
107
112
115
115
120
122
120
117
120
122
127
125
125
127
125
122
122
125
129
134
134
132
129
132
139
144
147
154
159
163
163
163
161
161
105
103
105
107
103
100
105
110
112
115
115
112
110
107
107
105
105
100
100
103
107
107
110
107
105
103
103
100
103
107
107
112
117
117
120
122
120
117
117
120
122
125
125
125
127
125
125
127
132
132
132
132
132
129
132
139
144
147
151
154
156
156
156
154
105
107
110
110
103
103
103
107
110
112
115
112
107
105
105
105
105
100
98
100
105
107
107
107
110
105
100
98
103
107
107
115
120
120
117
120
120
117
120
120
117
122
120
122
125
125
125
127
129
129
129
132
134
134
134
137
139
142
142
142
142
144
144
144
100
105
107
107
103
103
103
107
112
110
115
115
112
105
103
107
107
103
103
103
105
107
107
110
112
110
103
100
100
110
110
115
117
117
117
117
117
117
117
115
112
117
120
120
122
120
125
127
127
127
127
132
134
134
134
134
134
134
134
134
134
132
132
134
98
103
103
103
105
103
105
107
107
107
110
112
115
107
103
103
105
103
105
105
110
110
107
110
112
110
105
103
105
110
110
112
115
115
117
117
115
115
117
110
107
110
115
117
120
120
120
122
125
122
127
132
134
132
132
129
129
129
127
127
129
129
129
129
100
103
100
98
100
103
103
103
103
105
105
110
112
107
105
103
100
100
105
105
107
105
103
103
105
105
103
103
110
112
110
112
115
115
117
115
115
115
112
110
107
107
112
112
115
117
120
125
125
125
129
132
132
132
129
127
125
127
125
125
127
125
125
125
100
100
95
95
98
98
100
100
100
103
105
107
107
105
105
103
100
98
98
100
100
103
98
95
95
98
98
103
110
115
117
115
112
112
115
115
112
115
112
107
107
110
110
112
117
115
117
125
127
125
125
125
129
129
129
127
127
127
125
125
125
125
122
120
