P2
# 507 of 608 Angiograms
64 64
255
120
127
132
137
139
139
142
142
139
139
139
142
139
134
134
139
137
144
147
151
154
151
144
132
117
107
105
110
117
132
137
134
132
134
137
137
137
137
139
139
142
142
142
142
142
144
144
149
151
154
154
154
154
156
156
154
149
149
149
147
147
144
134
132
137
139
139
139
142
144
142
142
144
144
144
144
142
139
139
137
137
144
151
156
154
156
151
142
127
115
107
110
115
127
137
134
132
139
139
134
132
132
134
139
139
139
142
139
139
139
142
144
151
154
149
151
154
159
161
156
151
149
151
154
151
147
137
129
142
142
139
139
144
142
139
144
147
144
142
144
142
139
142
139
142
144
151
154
154
154
154
147
137
122
110
110
112
122
132
134
137
142
137
132
129
129
134
134
134
139
139
137
137
134
139
144
147
149
147
149
154
159
159
156
154
151
151
149
149
144
139
129
139
142
142
142
142
139
137
139
142
139
139
142
142
139
139
142
144
144
149
154
156
154
154
151
142
129
112
107
112
120
132
134
134
137
139
134
132
132
132
134
134
137
134
132
134
134
139
142
147
147
147
151
151
154
159
156
151
149
147
144
144
144
139
129
142
142
144
142
142
134
134
137
137
137
139
137
139
139
139
139
144
147
149
151
154
154
154
149
142
134
117
107
110
120
134
139
134
134
137
134
129
129
132
132
134
132
129
129
134
137
142
144
147
149
149
149
149
151
154
156
154
149
147
144
144
144
139
132
142
142
144
142
139
134
134
134
132
134
137
137
139
142
139
137
144
147
147
149
151
151
149
147
142
134
120
107
107
120
134
139
139
134
134
134
129
127
125
125
127
125
125
127
129
137
142
144
144
147
147
147
149
151
149
151
154
151
147
147
147
144
139
134
142
139
139
139
137
134
134
134
132
132
134
137
137
137
137
139
142
147
144
144
147
147
144
142
137
132
117
110
110
117
134
139
139
139
137
134
132
127
122
125
127
125
122
125
129
137
142
144
144
144
144
147
147
144
144
144
149
151
151
149
149
149
144
139
139
137
137
134
132
132
132
132
134
134
134
134
139
137
137
142
142
142
137
137
137
134
134
132
132
129
120
112
110
115
132
137
139
142
137
132
129
132
125
122
122
122
122
127
134
139
144
144
144
147
144
144
144
144
142
144
147
149
151
154
151
151
147
139
139
137
134
134
132
132
132
134
137
134
134
137
139
139
142
142
139
134
127
127
134
134
134
137
134
132
117
112
110
112
127
132
137
139
134
129
127
132
129
125
125
125
127
134
139
142
142
142
144
144
139
139
142
142
139
144
149
151
154
156
154
151
147
139
137
132
134
134
132
129
134
134
137
134
132
134
137
139
142
139
137
134
132
132
139
144
144
139
137
132
117
110
105
112
125
129
134
137
134
129
129
132
132
127
127
129
134
139
144
144
139
142
144
142
139
139
142
139
139
144
149
154
154
156
151
149
147
142
137
134
134
137
134
129
134
134
134
134
129
134
139
139
137
132
132
137
134
134
142
147
147
142
137
127
115
105
103
112
125
129
132
134
137
132
132
134
137
132
129
132
139
144
147
144
142
144
144
147
147
144
144
142
142
147
147
151
151
154
151
151
149
144
139
137
134
137
134
132
134
137
139
137
134
137
137
137
132
132
134
139
137
139
139
144
147
142
134
125
112
105
105
115
127
132
134
134
139
137
137
139
139
134
132
134
142
144
144
144
142
142
144
151
154
149
144
144
144
147
147
144
149
149
149
149
147
144
134
134
137
137
132
132
134
137
137
137
134
134
137
134
134
134
134
137
139
142
142
142
144
139
132
120
110
105
107
122
132
139
139
139
142
142
139
142
139
134
134
137
142
144
142
144
144
144
147
149
151
151
149
147
147
144
144
142
147
149
147
142
142
144
134
134
134
129
129
132
134
134
134
134
134
137
137
137
137
137
137
137
139
144
144
142
139
134
127
117
107
105
115
129
139
142
142
142
144
142
137
134
134
137
137
139
142
142
142
142
142
142
144
147
147
151
149
149
144
144
144
142
142
144
142
139
139
142
142
137
134
129
132
134
132
132
132
132
134
137
134
137
139
139
144
144
144
144
147
139
137
129
122
115
110
110
125
134
142
144
144
144
144
142
137
134
134
134
134
139
142
139
142
144
144
142
144
144
147
149
151
147
142
139
142
139
137
139
137
139
142
142
139
134
134
134
137
134
134
129
129
134
137
134
137
137
137
139
144
149
147
149
144
139
134
127
120
112
110
117
129
137
142
144
147
149
147
144
139
134
134
132
132
139
142
139
139
149
147
142
142
144
144
147
147
147
142
137
139
137
137
139
139
142
142
144
137
134
134
134
137
134
134
132
132
134
139
139
139
139
139
139
142
147
147
147
144
139
134
127
117
112
112
122
132
137
139
144
149
151
151
149
142
137
137
132
134
142
142
139
142
149
144
144
144
144
149
149
144
144
139
139
137
139
139
139
144
144
144
142
132
134
134
134
134
134
132
134
137
139
142
144
144
144
142
139
144
147
147
147
144
142
137
127
117
112
115
125
134
137
139
144
147
149
149
151
147
142
139
137
142
144
142
142
144
147
144
144
144
142
144
144
144
142
137
134
137
139
139
142
144
144
142
139
129
137
134
134
137
134
134
139
142
144
144
144
147
144
144
144
144
147
147
149
147
144
139
125
115
112
117
129
134
137
137
142
144
147
149
149
147
142
142
139
144
142
142
142
144
144
144
144
142
142
142
142
142
139
137
134
134
134
137
139
139
142
142
142
134
137
137
134
137
137
139
142
144
147
149
147
147
147
144
144
147
147
147
149
149
149
139
125
117
115
120
129
134
134
134
137
142
144
147
147
144
139
139
139
139
142
142
142
144
144
147
144
144
144
144
139
137
134
134
134
134
132
134
139
139
142
142
139
134
134
134
137
139
142
142
142
144
149
151
147
149
149
144
144
147
151
151
147
147
149
139
125
120
117
122
132
134
137
137
137
137
142
144
144
139
139
139
142
142
144
144
142
144
144
147
147
147
144
142
142
137
134
132
132
132
129
129
134
137
139
137
139
137
137
137
142
142
144
144
142
142
147
147
147
149
147
144
147
149
151
154
149
147
144
139
127
122
117
125
132
134
139
139
137
134
139
144
144
142
142
144
147
147
147
149
147
144
144
142
144
144
142
142
144
142
134
132
132
132
129
127
129
134
137
139
142
137
137
137
139
139
142
147
144
144
147
147
147
147
144
144
149
151
149
154
151
149
147
139
127
120
117
125
132
137
139
142
139
137
139
144
144
142
142
147
147
144
147
151
149
147
144
139
142
142
139
142
142
139
134
132
134
132
127
125
127
134
139
139
144
139
139
137
134
137
144
149
147
149
149
149
149
149
144
144
149
151
151
154
151
149
147
139
127
117
117
127
134
137
139
139
139
139
144
142
139
139
139
142
142
144
147
151
151
147
147
144
142
142
137
137
137
137
134
129
132
129
127
127
127
132
137
142
149
139
137
134
134
137
142
144
149
151
151
151
149
147
147
144
147
149
149
154
154
147
144
139
125
115
120
129
134
139
139
139
137
139
144
139
137
137
137
137
142
144
149
151
154
149
147
144
144
144
139
134
134
137
132
129
132
125
122
127
127
129
137
144
149
139
137
134
137
139
139
139
147
151
151
149
149
149
149
144
144
144
144
149
151
149
144
137
127
117
122
129
134
139
144
144
144
144
142
137
134
137
137
139
139
144
147
149
151
149
147
144
142
142
137
132
134
137
134
132
134
129
127
129
129
132
139
144
147
134
134
139
142
142
139
137
139
147
149
149
149
149
149
147
147
147
144
144
147
149
144
134
127
120
122
129
134
137
142
144
147
149
147
139
134
137
137
137
139
144
147
149
147
142
144
147
144
142
139
137
137
137
134
134
134
134
137
134
134
137
142
144
149
132
137
139
139
139
137
137
137
142
144
144
144
144
144
144
144
147
147
147
147
147
142
134
127
125
125
129
134
137
139
142
147
147
147
139
137
137
137
137
139
144
147
147
144
142
144
149
147
144
142
139
139
139
137
137
137
137
139
137
134
139
144
144
147
134
142
142
142
139
137
137
137
139
142
142
142
139
142
144
142
142
144
147
149
147
139
134
132
127
125
125
129
134
139
144
144
144
144
139
134
134
134
137
139
142
147
147
147
144
144
149
147
144
142
142
144
142
142
142
139
142
144
142
137
139
142
142
147
139
144
142
139
142
139
139
142
144
147
144
142
144
144
142
139
139
139
142
144
142
139
134
132
132
127
127
127
129
137
142
144
144
142
137
132
134
132
137
137
142
144
144
144
144
144
144
144
144
142
144
147
142
142
144
139
142
144
144
142
144
142
139
142
142
142
142
139
142
142
142
144
147
147
149
147
144
139
139
137
137
134
139
142
139
139
134
132
132
132
132
129
129
132
139
139
139
139
137
137
137
134
137
139
142
147
144
144
139
139
139
139
142
142
147
144
142
142
144
142
142
144
144
144
144
144
139
142
147
147
142
144
142
144
147
149
149
149
151
149
144
142
142
139
139
139
139
139
139
137
137
137
137
134
134
134
132
132
137
139
142
144
144
139
137
137
137
137
139
144
144
144
142
139
137
139
142
142
147
144
142
144
142
142
144
144
142
144
147
144
139
139
144
144
144
144
144
149
151
151
149
147
151
149
144
142
142
144
142
139
139
139
142
137
137
139
139
134
137
139
134
132
134
139
142
147
142
134
132
137
134
134
139
144
147
144
142
142
139
137
139
144
144
144
144
147
142
142
144
147
147
147
147
147
142
137
147
147
144
144
149
151
154
151
147
147
149
147
144
144
144
144
144
139
142
144
144
137
134
137
137
137
137
137
137
137
132
134
139
142
137
134
134
137
134
137
142
142
144
142
137
139
139
139
142
144
144
147
147
144
142
139
142
144
147
149
147
144
142
134
149
149
147
147
149
151
151
154
149
144
147
144
142
142
139
139
142
142
144
147
144
139
134
134
139
139
137
134
137
137
132
129
134
139
137
137
137
139
137
137
139
142
142
139
137
137
139
142
142
144
144
144
144
144
142
139
144
147
149
149
147
144
142
139
149
151
147
149
149
149
149
151
151
149
147
142
142
139
137
139
142
142
144
144
139
137
134
132
137
137
134
134
134
134
132
127
129
137
139
137
139
137
139
137
139
139
142
139
139
142
142
142
142
144
147
144
142
144
144
144
149
151
151
149
144
142
139
142
149
151
149
151
149
147
147
149
149
151
147
142
139
139
142
142
144
144
144
147
139
137
134
134
134
134
132
132
132
132
129
129
132
134
137
137
137
134
137
139
142
142
144
142
142
142
142
139
139
142
144
144
144
144
144
147
149
149
151
149
144
139
139
142
147
147
149
147
149
147
147
144
144
144
144
142
142
142
144
147
147
149
149
147
139
137
137
139
139
137
132
134
132
132
134
132
132
132
137
134
134
137
139
144
144
147
147
144
142
142
142
142
137
137
139
142
144
144
147
147
149
151
151
149
147
139
139
139
144
144
149
147
147
147
142
142
142
142
142
142
142
144
147
151
151
154
151
147
142
139
142
142
142
137
134
134
132
129
132
129
129
129
129
129
134
134
139
142
144
147
147
147
144
142
144
142
139
137
137
139
139
142
147
149
151
151
151
149
147
144
137
137
142
144
147
144
142
142
139
139
139
139
139
142
142
147
151
149
154
154
151
147
147
142
142
144
144
137
137
134
129
129
129
129
129
127
129
132
132
134
139
147
147
147
147
144
142
142
142
139
139
137
137
137
139
142
149
151
151
151
151
149
149
147
142
137
142
139
139
139
137
139
139
142
142
139
139
142
147
151
151
149
151
151
149
147
144
142
142
144
144
139
137
134
129
127
132
129
132
134
134
137
134
134
137
147
149
151
147
144
142
139
142
139
137
134
137
137
142
147
151
151
151
151
151
149
151
149
144
137
139
137
137
139
139
139
139
144
139
137
137
144
149
151
151
151
149
147
144
144
144
144
144
142
142
139
134
132
132
127
127
127
129
134
134
137
134
137
139
144
147
147
147
142
142
139
139
137
137
134
139
144
144
147
149
151
151
149
149
149
151
149
144
139
139
139
139
142
142
142
142
144
139
137
139
144
149
151
151
151
147
144
144
144
144
144
142
139
139
142
142
139
134
129
129
127
129
134
137
137
134
139
142
147
144
142
142
137
137
139
137
134
134
137
142
144
144
144
147
149
147
144
147
147
149
147
144
142
137
137
137
137
139
142
144
144
142
142
142
144
149
154
154
151
147
139
144
147
142
144
142
139
144
144
144
142
139
137
132
132
134
137
139
137
137
139
142
147
144
139
134
132
134
139
137
134
134
139
142
144
144
144
147
151
147
147
144
147
147
144
139
139
137
134
137
139
142
142
144
147
144
142
142
147
151
154
154
154
149
147
147
149
147
147
144
144
147
144
147
144
142
139
137
137
139
134
137
137
134
137
142
142
139
132
127
127
132
137
134
137
137
139
142
147
149
147
149
149
147
144
144
144
142
139
134
134
139
139
142
142
144
144
147
147
142
142
144
149
151
151
151
151
151
149
149
151
151
151
151
149
147
149
149
147
144
144
139
139
139
137
134
137
134
132
137
139
134
129
125
127
134
132
134
137
137
139
144
147
147
149
149
147
144
139
142
139
139
137
137
134
142
142
144
144
144
144
147
144
142
142
144
149
149
149
149
151
151
154
154
156
154
154
151
154
151
151
147
147
149
149
144
142
142
139
137
137
134
132
132
134
132
129
127
127
129
127
132
134
137
137
142
142
144
144
144
144
144
142
142
139
139
139
139
139
149
149
149
147
147
147
147
142
142
147
149
147
147
144
147
151
151
151
154
154
156
154
151
151
154
149
147
149
151
149
144
142
139
139
134
132
129
132
132
132
129
125
125
125
127
129
132
134
137
137
137
137
142
144
142
142
142
142
142
142
142
144
142
137
151
149
147
147
147
147
149
147
147
151
151
149
147
142
144
149
151
154
154
154
151
151
151
151
151
151
151
149
149
147
142
137
137
134
132
127
127
127
132
132
127
122
122
127
127
129
132
134
134
134
134
134
137
144
142
139
139
139
142
142
139
139
139
132
149
147
144
144
144
144
149
149
147
149
151
149
147
144
147
149
151
151
154
151
149
149
149
149
149
149
151
149
144
142
137
134
134
132
129
127
125
122
127
132
132
127
129
129
129
132
134
132
132
132
134
134
139
142
139
137
137
139
139
137
137
137
137
129
144
144
142
142
142
139
144
144
142
142
147
147
149
149
149
154
151
149
149
147
147
147
144
144
147
147
147
142
139
137
137
132
134
132
129
127
125
125
127
134
137
137
134
134
129
132
134
129
127
132
132
132
137
137
134
134
139
139
139
137
134
134
134
132
142
144
144
142
142
142
142
139
137
139
139
144
147
151
149
151
149
149
149
147
144
144
142
139
142
139
137
139
139
137
134
129
129
129
127
125
125
127
134
137
137
139
137
134
132
134
137
129
129
132
132
129
129
129
132
134
134
137
137
137
134
134
134
132
142
142
147
144
142
144
139
134
134
137
137
139
144
149
149
149
149
149
151
147
144
142
137
132
132
134
134
137
137
134
129
125
125
129
132
127
125
129
134
137
137
137
137
134
132
134
134
129
132
134
134
129
127
132
134
134
134
132
132
129
129
132
132
127
142
142
144
139
137
142
139
137
134
137
137
137
139
144
144
144
147
149
149
147
147
144
137
132
132
134
134
134
137
132
127
122
125
129
132
127
127
127
132
137
137
137
134
132
129
129
132
129
132
134
134
134
132
129
134
134
132
129
125
125
127
132
127
122
142
142
142
139
134
137
139
137
134
134
137
137
139
137
142
144
144
147
144
144
144
144
137
134
132
134
137
134
134
129
127
125
125
127
125
125
127
129
129
134
134
132
132
132
129
129
132
132
129
129
129
132
132
129
129
129
127
122
122
122
125
127
122
117
142
142
142
137
137
134
137
137
134
132
134
139
139
137
139
142
142
147
144
144
144
144
137
132
129
132
134
134
134
134
132
127
125
122
120
122
125
129
129
134
137
132
127
127
127
127
129
132
132
132
132
134
132
129
127
127
125
120
122
125
125
122
117
112
147
142
142
137
134
132
139
139
137
134
134
142
142
142
142
142
142
142
144
142
142
142
134
129
129
132
134
137
132
134
132
129
125
125
122
122
125
125
127
134
137
129
125
125
122
122
127
129
132
134
134
134
134
127
125
125
125
117
120
125
125
122
117
115
144
142
142
142
137
137
137
142
139
137
139
142
144
144
142
144
139
142
147
144
142
137
134
132
129
134
134
137
134
134
129
129
127
127
122
117
122
122
127
132
132
125
122
120
117
117
125
127
129
134
137
137
134
127
125
127
125
122
120
122
122
122
120
120
144
142
144
142
142
139
139
142
139
139
137
139
142
142
142
142
139
144
144
142
142
134
132
132
132
137
137
137
134
129
129
127
125
122
117
115
120
122
127
129
129
125
120
117
115
115
120
125
127
132
134
137
137
132
129
129
125
125
120
117
117
122
122
122
144
144
144
144
147
147
144
147
144
144
142
139
144
144
142
139
142
142
139
142
142
134
129
132
134
137
137
132
129
127
127
125
120
117
115
115
117
122
125
125
125
127
122
117
115
117
120
122
125
127
132
134
137
137
137
137
132
127
120
115
112
120
122
122
151
151
147
147
144
144
144
144
142
142
142
142
144
142
142
142
142
142
142
144
142
134
127
129
129
127
125
125
127
125
122
120
115
115
112
115
120
122
125
125
127
129
125
120
117
117
122
127
127
127
129
129
134
139
139
137
137
129
125
120
115
120
125
127
154
151
147
149
147
142
139
142
142
139
139
142
147
144
139
139
142
139
144
144
144
137
132
129
129
127
122
122
127
125
122
117
117
117
117
122
125
125
125
125
129
132
125
122
120
122
129
129
129
129
129
134
137
137
134
137
139
132
127
125
122
120
125
127
154
151
149
149
149
144
139
142
142
137
139
142
144
142
139
142
144
144
144
142
142
137
134
132
127
125
120
125
127
125
120
120
120
120
125
125
127
129
127
129
132
129
125
125
122
127
132
134
132
129
132
134
134
132
134
137
137
134
132
129
125
125
127
129
151
156
156
154
154
149
144
142
139
139
139
142
144
142
144
144
144
144
142
139
137
137
134
129
127
125
122
122
127
125
122
120
122
125
127
132
134
132
129
129
129
129
132
129
127
132
134
134
134
134
134
137
134
134
134
137
137
137
134
129
129
127
132
132
