P2
# 508 of 608 Angiograms
64 64
255
134
134
129
132
134
129
127
132
132
132
137
137
134
134
139
139
139
137
134
134
134
132
127
122
120
115
112
115
120
122
120
115
115
120
122
120
117
115
115
110
112
112
112
110
107
103
103
100
100
98
98
98
98
100
103
107
105
110
117
120
122
125
125
129
137
134
132
134
137
129
129
132
132
129
129
129
132
134
134
137
137
137
134
134
134
132
125
122
120
115
112
115
120
120
120
117
112
117
120
120
117
120
122
117
112
115
112
115
110
105
103
105
103
103
100
100
100
100
103
105
107
115
120
122
127
129
129
132
137
134
132
134
134
129
132
134
134
129
127
132
134
134
134
132
132
129
129
132
132
127
120
120
120
115
115
112
120
120
122
117
115
117
122
125
125
125
129
125
120
115
117
115
110
105
105
105
105
103
103
103
105
103
103
105
110
117
122
125
129
127
132
137
134
132
129
129
132
129
132
134
134
134
132
129
134
134
132
129
125
125
127
132
127
122
117
117
117
112
115
117
117
117
122
117
117
120
125
127
127
132
132
127
122
120
120
115
110
103
103
105
105
103
103
100
105
103
105
107
112
117
120
122
127
127
132
139
132
132
129
129
132
132
129
129
129
132
132
129
129
129
127
122
122
122
125
127
122
117
112
112
115
115
117
117
117
115
117
120
120
122
125
122
127
137
132
127
125
120
117
115
112
107
107
107
107
105
107
105
105
105
110
115
117
117
120
122
125
127
134
142
127
127
127
127
129
132
132
132
132
134
132
129
127
127
125
120
122
125
125
122
117
112
112
115
112
112
117
117
117
117
117
117
120
125
125
125
125
132
127
125
125
120
115
117
115
112
112
115
112
112
115
112
110
112
120
122
122
120
120
120
125
129
139
149
125
125
122
122
127
129
132
134
134
134
134
127
125
125
125
117
120
125
125
122
117
115
117
117
112
110
115
120
120
117
122
120
120
125
127
127
125
125
125
125
120
120
122
120
117
115
112
117
115
115
115
117
120
120
122
127
129
127
125
122
127
134
147
154
122
120
117
117
125
127
129
134
137
137
134
127
125
127
125
122
120
122
122
122
120
120
120
117
115
115
120
122
120
120
120
120
120
125
125
125
125
125
125
122
117
117
120
120
120
120
115
117
117
120
117
122
125
122
125
127
129
127
127
127
132
142
151
161
120
117
115
115
120
125
127
132
134
137
137
132
129
129
125
125
120
117
117
122
122
122
120
120
120
120
120
122
125
125
120
117
122
125
125
122
125
127
127
122
120
117
115
115
115
117
117
115
117
120
122
129
129
127
127
129
125
125
129
134
139
147
156
163
122
117
115
117
120
122
125
127
132
134
137
137
137
137
132
127
120
115
112
120
122
122
122
122
125
122
120
120
125
125
120
117
120
120
122
120
122
125
127
125
125
120
117
115
117
117
120
117
120
122
129
132
129
127
127
122
122
129
134
139
144
151
156
163
125
120
117
117
122
127
127
127
129
129
134
139
139
137
137
129
125
120
115
120
125
127
129
132
129
127
122
125
125
120
117
117
117
117
120
115
117
120
125
125
125
125
122
122
120
122
122
122
125
132
134
134
134
132
127
125
127
134
139
144
149
154
159
161
125
122
120
122
129
129
129
129
129
134
137
137
134
137
139
132
127
125
122
120
125
127
132
134
132
127
125
125
122
120
120
120
122
120
120
115
112
117
120
125
127
127
127
127
129
129
127
125
129
134
137
139
139
137
134
132
137
144
147
151
154
154
154
156
125
125
122
127
132
134
132
129
132
134
134
132
134
137
137
134
132
129
125
125
127
129
134
137
134
129
125
120
120
117
115
117
120
122
122
117
117
122
125
127
129
129
129
129
129
127
127
129
132
134
139
144
147
144
142
142
149
154
156
156
159
156
156
154
132
129
127
132
134
134
134
134
134
137
134
134
134
137
137
137
134
129
129
127
132
132
137
137
134
129
125
122
122
120
120
120
120
122
122
120
122
125
129
132
134
132
129
132
129
129
134
132
132
139
144
149
151
151
147
149
156
159
159
163
165
161
156
151
134
129
132
134
134
132
132
134
134
137
139
137
139
142
142
142
139
134
132
132
134
134
137
137
134
129
127
125
125
125
125
125
122
122
125
125
125
129
132
132
129
132
129
132
132
134
137
134
137
142
149
151
154
154
154
156
159
163
165
165
163
159
156
154
134
132
134
137
139
137
134
134
134
134
137
137
137
139
142
144
142
139
137
137
137
137
137
137
134
127
127
127
127
127
129
129
129
127
125
125
129
132
134
137
134
134
134
137
137
137
137
139
142
147
151
159
159
156
154
159
159
161
165
163
159
159
159
159
137
137
137
139
139
137
137
137
137
134
134
134
134
137
142
144
142
139
139
137
137
139
142
139
134
132
129
132
132
129
129
132
134
132
127
129
132
137
139
142
139
139
139
142
139
137
139
142
147
149
156
161
163
159
156
159
159
163
163
161
159
159
159
159
139
139
139
137
134
137
137
137
139
139
137
134
134
137
142
139
139
139
134
137
137
137
139
137
137
134
132
134
134
132
129
132
132
134
129
132
137
139
139
142
142
139
142
144
144
144
144
149
147
147
154
159
161
161
161
161
163
163
161
159
156
154
154
156
142
142
139
134
134
134
137
137
142
142
137
134
137
139
137
137
139
139
137
134
137
137
137
134
137
137
132
134
139
137
132
132
134
134
132
134
137
139
139
142
144
142
147
151
151
149
147
149
144
144
149
154
159
161
163
163
163
163
159
154
154
154
156
156
144
139
137
134
137
134
134
137
142
142
134
134
137
137
139
137
137
139
139
139
137
134
139
139
139
137
137
137
137
134
127
134
137
137
139
137
139
139
142
144
147
149
151
156
154
149
149
144
142
139
144
151
156
161
165
163
161
156
151
147
149
151
154
154
142
142
139
134
137
137
137
137
139
139
134
137
142
142
142
137
132
137
142
139
137
137
139
142
142
139
137
139
137
134
129
134
139
142
139
134
137
139
142
144
147
149
154
154
151
149
144
139
137
137
142
147
151
159
159
156
151
151
149
142
147
149
151
151
144
144
142
139
142
142
139
139
137
139
139
144
147
144
142
139
137
137
139
142
144
139
142
144
147
144
139
139
139
139
139
137
142
142
139
134
139
142
144
147
144
147
149
151
149
147
139
134
134
134
137
142
144
144
147
151
149
151
147
139
142
147
147
149
147
147
147
142
142
142
139
139
139
142
149
151
149
142
139
139
142
142
142
144
147
144
144
149
151
149
144
142
144
144
142
142
144
142
142
139
142
144
144
144
144
147
149
151
149
144
137
134
132
129
129
132
132
134
139
144
147
147
142
142
142
147
147
147
149
147
144
142
142
142
142
142
144
149
154
151
149
142
137
139
142
142
144
147
149
147
149
151
154
149
149
147
147
147
147
144
147
147
147
142
139
139
142
147
147
144
149
149
147
142
139
137
134
132
129
127
127
134
139
142
142
139
139
137
142
144
147
144
151
147
142
142
144
144
144
147
147
151
156
151
149
142
139
142
144
147
147
147
149
149
151
154
154
151
151
149
147
149
147
149
154
154
151
147
142
137
139
147
147
144
147
144
142
142
142
139
134
127
122
120
122
132
137
137
132
132
134
134
137
142
144
144
151
147
142
142
142
147
147
149
151
154
154
151
147
144
142
144
149
151
149
149
151
154
154
154
151
151
151
151
151
151
149
149
149
149
147
147
144
139
139
144
147
142
142
142
142
139
139
137
127
122
122
125
125
132
139
134
129
129
129
132
134
137
142
144
151
149
147
144
147
147
147
147
149
151
151
149
147
147
147
149
149
154
154
151
154
156
156
154
154
154
154
154
151
151
149
151
151
149
147
149
147
142
139
142
144
137
137
137
137
139
139
134
125
122
117
120
127
134
137
132
129
127
125
125
132
134
139
142
151
154
156
151
149
149
151
149
147
151
154
151
149
151
154
154
154
154
151
156
156
159
159
159
159
161
159
156
154
149
151
154
154
156
151
149
147
142
142
142
142
137
134
132
132
132
134
129
125
122
115
117
129
134
132
132
129
125
122
122
129
137
137
137
154
156
159
154
151
154
154
154
149
151
151
154
151
151
154
154
156
156
151
156
161
161
159
161
163
163
161
156
156
151
154
154
154
156
154
149
144
139
142
144
142
137
132
127
125
127
127
125
122
120
120
125
129
134
132
132
129
125
122
125
127
132
134
134
154
156
159
154
154
156
156
156
154
154
156
159
156
154
151
151
154
156
156
156
161
163
156
161
165
165
163
161
159
154
156
154
154
154
154
147
139
137
139
144
142
137
127
122
122
122
125
120
117
120
125
125
129
132
129
129
129
125
125
125
127
129
132
129
154
161
159
159
156
159
159
156
154
154
159
159
156
159
154
156
156
156
156
156
163
165
161
161
165
165
163
163
161
154
154
154
154
156
154
144
134
134
137
139
142
134
125
120
120
122
117
112
115
122
125
127
127
127
129
132
129
127
125
127
127
125
125
122
156
159
161
161
161
161
159
156
151
154
159
159
156
159
156
156
154
154
154
159
165
168
165
163
163
163
163
161
161
156
154
151
151
154
151
142
137
134
137
139
137
129
122
117
115
115
112
110
115
122
125
122
125
125
127
134
129
127
125
127
125
120
120
120
159
159
161
159
159
159
156
156
151
154
161
159
159
156
156
156
151
151
154
159
165
165
163
168
165
161
163
163
163
159
154
149
149
151
151
142
139
139
139
139
134
127
120
112
110
110
112
112
117
125
122
120
122
125
127
134
132
129
129
127
125
120
117
120
156
159
159
154
154
156
159
156
154
156
159
159
159
161
161
156
154
156
159
163
163
161
163
165
165
165
163
163
161
154
151
149
149
149
147
144
142
142
139
134
129
122
117
110
107
107
112
115
117
122
120
120
120
122
125
129
132
129
127
122
122
120
117
117
154
159
154
151
151
154
156
159
159
159
156
159
161
163
163
161
161
163
161
163
163
161
161
163
165
163
161
159
156
151
147
144
144
142
142
144
142
139
132
127
125
120
112
107
107
107
115
115
117
120
117
120
125
122
122
125
127
125
117
112
115
115
115
115
151
156
154
151
154
154
156
163
163
161
161
161
159
159
161
161
163
161
163
165
165
163
161
163
163
163
159
156
151
151
144
139
139
137
139
142
137
129
122
125
122
112
105
105
110
110
112
115
122
120
120
122
125
125
122
122
125
122
115
115
112
110
110
110
142
151
154
151
151
154
159
163
165
163
163
161
156
154
156
161
163
163
165
165
165
165
161
159
161
161
156
151
151
151
144
137
137
134
137
137
132
125
122
122
117
107
103
105
112
112
115
122
127
127
125
120
122
125
125
125
122
122
117
115
112
115
112
110
132
139
147
151
151
154
159
163
165
165
163
161
154
151
156
159
161
163
163
163
163
161
161
156
156
154
151
154
156
151
144
137
137
139
142
137
129
125
120
117
115
107
105
110
115
117
120
125
127
127
129
127
125
127
127
127
125
127
122
115
117
115
115
110
125
127
134
142
149
151
156
161
163
163
163
161
156
151
151
156
159
163
161
161
161
163
159
156
154
151
149
151
154
149
144
142
142
142
142
137
129
125
117
115
115
112
112
112
115
117
120
127
127
127
132
132
127
125
125
120
122
122
120
117
120
120
115
105
120
120
122
132
139
144
149
156
161
161
159
159
156
151
151
156
161
161
161
161
159
161
159
154
154
154
151
149
147
144
144
142
142
139
137
137
132
125
117
115
112
112
115
115
117
120
120
122
125
132
137
132
129
125
120
117
122
125
120
120
120
120
112
100
122
120
120
125
129
137
142
147
149
151
154
156
151
147
149
154
159
159
161
163
161
159
154
151
151
151
151
149
147
147
144
144
142
142
137
137
129
122
115
115
115
115
117
115
115
120
120
122
127
132
137
134
129
125
117
117
120
125
122
122
122
120
110
98
122
125
127
125
127
129
134
137
139
142
144
149
147
147
149
151
156
161
161
163
161
159
154
149
154
151
154
151
149
147
144
142
142
139
139
134
129
120
112
112
115
115
117
112
110
115
117
122
127
132
134
134
132
125
117
115
117
122
122
122
122
115
105
95
120
122
122
122
125
129
132
129
129
132
134
137
139
144
147
151
159
161
159
159
159
161
156
154
156
156
156
151
149
147
142
144
144
139
137
132
127
122
115
112
115
117
115
110
112
112
115
117
122
127
132
132
129
127
120
120
120
120
117
120
117
107
100
91
117
115
115
120
122
125
125
125
125
122
122
127
132
134
142
147
151
154
156
156
154
154
156
156
156
159
159
156
151
147
142
142
142
134
132
129
127
122
117
117
117
115
112
112
112
112
115
115
117
122
125
129
129
125
122
122
122
117
117
115
112
103
98
86
115
112
112
115
117
117
117
120
117
115
117
122
125
129
134
139
144
147
151
151
149
149
151
156
159
161
159
154
149
147
144
139
137
132
129
129
127
122
122
120
115
110
107
110
112
117
117
117
117
122
125
127
125
122
122
125
125
120
115
112
105
98
93
84
110
110
110
110
112
112
115
115
117
115
115
117
120
122
127
129
134
142
147
149
149
151
154
156
159
161
156
151
149
147
142
139
134
132
132
127
125
122
125
120
112
107
110
110
115
117
120
120
117
122
127
125
122
122
125
127
127
122
112
107
98
95
89
84
107
110
112
112
110
112
110
110
110
115
115
115
115
115
120
122
127
132
139
144
147
149
156
156
156
156
154
151
147
142
139
139
134
132
127
127
127
122
125
120
115
110
110
112
112
115
120
122
122
122
125
125
122
122
122
122
125
125
115
103
95
91
86
82
107
110
110
110
107
110
107
105
105
110
115
115
112
115
117
120
122
127
129
134
139
144
149
154
154
151
149
147
144
139
137
137
134
132
132
132
129
129
125
120
117
115
112
115
115
112
115
120
122
122
125
127
125
122
122
122
122
122
112
103
95
86
84
82
110
105
103
105
107
107
107
107
105
105
110
115
110
110
115
120
120
122
125
127
132
137
139
144
149
149
147
144
142
139
137
132
132
129
132
134
134
132
127
122
120
117
115
117
117
115
115
120
122
122
125
129
127
125
125
125
120
117
110
105
93
86
86
82
100
98
98
100
100
103
105
103
103
103
110
115
112
112
115
117
117
120
122
125
129
129
132
134
137
137
139
139
137
134
132
129
127
129
134
134
134
132
129
125
120
120
112
115
115
115
120
122
127
127
129
129
129
127
127
122
115
112
105
100
91
89
89
82
100
98
95
98
100
103
103
105
100
105
112
115
115
112
110
115
117
117
117
117
120
122
122
125
125
127
127
129
129
129
125
125
125
129
134
134
132
134
132
129
127
122
115
112
112
120
122
125
129
129
129
127
129
129
125
117
110
105
100
95
89
89
93
84
98
95
95
98
103
98
103
105
107
107
112
115
110
107
110
115
110
110
110
110
110
112
117
120
120
120
122
125
122
122
125
127
129
132
137
137
137
139
139
129
127
122
117
110
112
120
125
127
127
129
127
125
125
125
117
107
103
98
95
93
91
89
89
86
95
98
98
100
100
98
100
105
105
110
112
112
110
110
112
115
110
110
110
107
105
107
110
115
117
115
115
115
117
117
117
125
129
134
137
139
142
142
139
132
125
120
117
112
112
120
125
127
125
127
127
122
120
115
105
98
91
89
91
89
89
89
91
86
98
98
98
100
100
98
103
105
105
110
110
107
110
112
115
117
117
112
110
107
105
107
107
107
107
110
110
112
112
112
115
120
125
127
134
139
142
142
139
129
120
117
120
117
117
117
120
122
122
127
122
117
112
103
95
93
91
91
91
89
91
89
91
86
100
98
100
100
100
100
100
105
110
112
112
110
112
112
115
120
117
112
107
107
107
107
107
105
107
112
110
112
115
115
115
115
122
125
129
134
139
142
137
129
120
117
120
117
115
115
117
117
117
115
112
107
100
93
93
91
91
95
95
91
91
91
91
82
98
95
98
100
100
100
105
107
107
110
112
112
110
112
112
112
110
107
107
107
110
110
107
103
105
110
107
112
112
112
107
110
117
120
122
127
132
134
134
129
122
120
117
112
112
115
115
112
112
107
103
100
95
91
89
86
84
91
95
93
91
86
86
80
98
98
95
103
105
105
107
110
110
110
112
115
115
117
112
110
107
105
107
107
107
110
110
105
107
110
110
107
107
107
103
107
110
112
115
117
120
122
125
127
125
120
115
107
105
103
105
105
105
100
95
91
93
91
89
86
82
84
91
93
89
89
84
78
98
100
98
105
107
110
110
115
112
112
115
112
115
115
112
110
107
105
107
107
105
107
110
107
110
110
105
107
107
107
107
110
105
105
107
107
110
112
115
120
120
115
107
100
103
103
100
98
100
100
98
91
91
91
91
89
86
86
89
91
91
93
89
76
103
103
105
105
107
112
115
115
115
117
115
110
112
112
110
107
105
103
105
107
107
105
105
107
112
110
107
105
107
107
107
107
107
107
105
105
105
105
105
105
105
103
98
100
103
105
100
98
100
105
100
93
91
91
91
89
84
84
89
91
89
89
86
72
105
105
103
105
112
117
115
115
115
117
117
112
112
110
110
107
103
103
105
103
105
107
107
110
112
110
107
103
103
98
95
98
98
98
100
98
98
98
100
95
93
95
98
98
100
100
100
100
100
103
100
93
91
91
91
89
89
86
91
91
89
86
80
66
100
100
100
107
112
117
112
112
115
115
115
115
115
107
110
107
105
105
103
100
103
107
110
112
110
107
105
103
103
98
93
91
93
98
98
95
95
91
98
93
91
91
93
95
95
95
103
103
98
98
100
100
95
95
93
91
89
89
91
89
84
82
76
66
98
100
103
107
115
115
115
110
115
112
112
115
115
110
107
107
105
105
103
103
103
110
112
112
110
105
105
103
103
98
93
89
89
91
91
91
91
91
93
91
89
84
86
91
91
93
98
95
93
95
98
95
98
95
93
91
89
91
91
89
84
84
74
62
98
98
100
107
110
112
110
107
105
107
110
112
112
110
105
105
105
103
105
105
105
110
110
110
107
105
100
103
98
93
91
91
89
86
86
86
86
86
91
91
89
86
84
84
86
86
89
86
91
95
95
93
98
93
91
91
91
91
93
91
89
82
72
58
98
98
103
105
107
107
107
105
100
100
105
110
107
105
105
107
103
103
105
105
103
105
110
107
107
107
103
98
93
89
89
89
86
89
84
80
84
86
89
89
86
82
80
78
78
78
80
84
86
89
95
98
95
93
91
93
91
89
89
89
86
82
68
57
