P2
# 509 of 608 Angiograms
64 64
255
93
91
89
89
86
89
91
89
86
89
91
86
84
84
82
82
82
80
80
80
86
82
78
82
82
80
82
80
82
82
82
80
76
74
76
76
76
78
74
72
72
72
72
76
78
78
76
74
74
72
74
74
74
74
70
68
70
72
72
72
74
74
74
72
93
93
91
93
89
91
93
89
86
86
86
86
86
84
84
84
86
84
80
84
86
80
78
84
84
84
82
80
80
80
80
76
76
78
78
76
80
80
76
74
74
74
74
80
80
78
76
78
74
70
74
76
78
78
78
76
74
72
72
72
74
74
72
70
91
91
91
95
93
93
93
89
86
84
84
89
91
86
86
84
86
84
82
84
84
80
82
84
84
86
86
86
84
82
78
76
78
76
78
78
78
78
76
78
80
78
78
80
78
78
80
78
76
76
76
76
76
76
74
72
72
70
74
76
76
78
74
72
93
93
95
93
89
89
91
89
86
86
86
86
89
89
86
84
82
82
82
86
82
80
82
86
89
89
86
86
89
84
78
78
80
78
78
78
78
80
80
80
84
82
80
78
78
78
78
76
78
76
76
76
78
76
76
74
72
70
78
76
76
80
80
74
93
95
93
95
93
89
86
86
86
91
89
84
86
89
84
84
84
84
84
84
82
80
78
82
86
89
86
86
82
84
86
82
80
80
80
78
80
80
80
80
80
84
80
78
80
80
78
78
76
76
78
74
74
78
78
72
72
72
78
72
74
76
78
76
93
95
98
98
95
91
89
89
89
89
86
84
82
84
82
84
89
89
86
84
84
78
78
84
86
89
86
86
84
86
89
84
80
78
80
84
84
82
80
82
84
84
82
78
80
82
80
76
76
80
78
76
76
78
80
76
72
74
76
74
76
76
76
74
93
95
95
93
91
91
91
93
93
89
84
84
84
86
84
84
89
86
91
89
84
78
84
86
86
86
84
84
82
84
82
80
80
80
78
78
78
78
80
84
84
84
84
84
80
80
78
76
78
82
80
80
78
78
80
78
76
76
76
78
80
80
74
74
95
93
95
93
93
93
98
103
98
91
86
86
89
86
84
82
84
86
91
91
84
84
89
89
84
82
84
80
78
80
80
80
78
80
80
78
78
80
82
86
86
84
82
84
84
84
80
80
78
78
80
78
76
78
82
80
80
78
78
80
82
80
74
78
93
93
93
93
95
95
98
95
93
91
91
91
91
89
86
84
89
93
93
91
86
86
86
86
82
80
82
80
80
84
84
80
84
84
82
80
84
80
80
82
82
84
82
82
84
80
78
80
80
78
78
78
78
80
82
82
78
78
80
82
80
76
74
78
91
93
93
95
95
95
93
91
91
93
91
86
89
91
86
86
91
91
89
86
86
86
89
84
82
80
80
80
80
84
84
84
86
89
86
82
86
82
80
82
82
82
80
78
82
80
78
80
80
80
78
78
80
82
80
82
78
78
78
78
76
76
76
78
89
93
95
98
95
93
91
91
91
95
95
91
89
89
91
91
89
89
89
86
84
84
86
84
78
82
80
78
82
82
82
82
84
84
84
86
86
82
84
84
80
80
80
82
82
84
84
82
82
78
78
80
80
82
78
78
80
82
76
76
76
78
78
76
89
91
91
91
95
93
93
95
93
93
93
93
91
89
89
91
89
86
84
82
84
89
86
86
82
82
82
80
82
82
82
82
86
84
82
84
82
82
84
82
78
80
84
84
82
82
84
84
84
80
78
82
82
80
80
80
80
82
76
76
80
78
80
76
86
91
89
91
93
95
98
98
93
93
93
89
89
86
89
91
93
89
84
82
86
86
89
91
89
86
86
82
80
80
84
89
91
86
84
84
80
82
82
82
82
80
84
86
86
82
84
84
84
82
82
82
84
82
82
82
82
82
78
76
78
78
80
78
82
89
89
89
89
91
93
95
93
95
93
89
86
86
86
86
91
89
84
82
82
84
86
91
89
86
86
89
84
82
84
86
89
86
80
82
80
80
80
82
82
80
84
84
82
82
84
82
82
84
84
82
86
82
86
84
82
80
76
78
78
80
80
76
78
86
91
89
89
93
93
93
95
95
93
86
82
84
89
91
91
89
86
84
82
84
84
89
86
86
86
91
89
84
84
86
89
84
78
80
82
82
80
84
84
80
84
84
84
84
82
78
78
80
82
84
84
84
84
82
82
78
76
76
78
80
78
76
74
84
89
89
91
93
89
91
93
93
91
86
84
84
86
91
91
89
89
86
86
89
84
84
89
89
89
89
89
84
84
86
91
86
80
80
82
78
82
86
84
84
84
89
89
86
80
82
80
84
84
82
82
82
84
80
80
80
76
74
78
78
72
74
72
82
84
89
89
91
91
89
89
91
89
89
89
86
84
89
89
86
86
84
86
89
82
84
89
86
84
84
86
86
84
84
86
84
84
80
80
78
82
84
82
82
82
86
89
84
80
80
82
82
82
80
82
84
84
82
82
80
78
76
76
74
74
76
70
80
84
91
91
93
93
93
91
89
89
91
93
89
86
86
86
86
89
84
84
86
84
86
86
82
82
86
89
86
86
84
89
84
84
82
82
82
84
84
84
82
80
86
86
86
86
82
82
82
84
82
84
84
84
82
84
80
76
76
74
76
76
74
66
76
84
86
91
95
95
95
91
86
89
89
91
89
89
86
86
86
89
86
84
84
89
86
82
82
86
89
91
89
91
93
91
89
82
84
84
82
84
82
84
82
78
78
82
84
86
86
82
82
82
84
86
84
80
82
82
82
78
74
74
74
70
72
62
72
82
86
91
93
93
95
93
91
86
84
89
86
93
91
89
89
89
86
89
86
89
89
86
84
84
84
91
91
91
93
93
93
89
86
84
86
84
80
84
86
84
82
84
89
86
84
82
82
82
84
82
80
80
80
80
82
82
78
76
74
74
72
64
68
80
89
95
93
93
95
91
89
89
84
89
86
86
89
86
86
84
84
84
86
84
84
86
86
84
86
86
89
86
91
95
95
93
86
84
86
84
82
84
86
82
82
82
84
84
82
80
80
82
86
82
76
76
82
82
78
80
78
78
78
76
74
64
66
78
89
98
95
93
89
89
89
89
89
89
86
86
86
84
86
84
84
82
82
84
82
82
89
89
89
91
91
84
91
93
91
93
89
84
86
84
82
82
84
82
82
80
84
84
80
80
76
80
82
80
78
80
82
80
76
74
74
74
76
76
76
64
66
78
89
93
93
91
89
91
89
86
91
91
89
86
86
82
86
89
84
80
82
86
82
84
89
86
86
91
93
89
91
93
93
93
91
89
89
84
82
86
86
80
80
86
89
86
78
80
78
80
80
78
82
82
78
76
76
74
76
76
76
78
78
60
66
76
86
89
89
91
89
86
89
91
91
89
86
84
82
82
86
86
82
80
80
80
84
86
89
89
86
93
93
89
89
89
91
89
89
84
84
84
84
86
84
82
84
86
89
89
82
82
82
82
78
80
80
82
78
76
76
74
76
78
78
74
72
60
64
72
82
84
86
89
86
84
89
93
91
86
86
86
82
80
82
84
86
82
80
80
80
84
86
91
89
91
91
89
86
89
86
82
84
82
82
84
82
84
84
89
86
84
82
82
84
80
80
82
80
80
80
78
78
80
78
74
76
76
78
76
76
66
64
68
78
84
89
91
91
91
89
89
86
86
82
82
80
80
82
82
84
86
86
84
84
84
86
89
91
91
91
89
86
86
84
82
82
80
82
84
82
84
84
86
80
78
78
80
82
82
80
84
84
80
78
78
76
76
74
74
74
76
78
76
76
66
66
64
74
82
89
91
93
95
93
91
91
89
86
84
82
80
82
82
84
86
86
82
86
86
86
89
91
91
89
89
86
84
84
86
86
86
84
84
86
89
89
84
80
78
80
80
80
82
82
82
80
78
76
80
80
78
78
74
74
74
76
76
74
66
66
62
68
80
89
89
93
93
93
93
91
86
89
89
86
86
89
86
86
82
80
80
84
84
86
84
86
86
84
89
86
86
86
89
91
89
84
84
84
86
86
82
80
82
78
82
82
82
78
82
80
76
74
78
82
80
78
78
78
74
80
80
76
70
64
62
68
76
89
89
91
95
93
95
93
89
86
86
86
89
91
86
84
82
78
78
86
86
84
82
86
86
84
84
86
86
89
89
89
89
89
86
84
86
89
84
82
84
82
86
86
84
80
80
80
80
80
80
78
78
80
80
78
78
82
84
80
72
64
64
72
74
89
93
93
93
91
93
93
89
84
86
89
84
84
82
78
80
78
80
82
86
84
89
89
89
84
84
84
86
84
82
84
84
86
86
86
86
86
86
86
84
84
84
86
89
86
84
84
86
84
84
80
80
82
84
82
82
84
84
82
72
68
66
68
74
86
93
93
91
91
89
91
89
86
89
86
80
84
84
82
84
84
86
84
84
84
89
89
86
82
82
84
86
82
82
80
84
89
89
84
84
84
86
89
89
89
82
84
86
86
84
86
86
86
86
86
84
86
86
86
84
84
89
86
74
68
64
66
72
84
91
95
93
91
89
89
91
91
91
86
84
84
84
84
84
86
89
89
86
84
89
89
84
82
84
86
86
84
84
82
84
86
84
86
84
86
89
86
89
89
84
86
84
82
82
86
82
86
86
86
84
89
89
89
84
89
86
89
76
68
62
64
72
82
89
95
93
91
89
91
93
93
89
86
84
84
82
84
86
86
89
91
93
93
93
91
86
84
84
91
91
89
86
84
84
86
86
86
86
89
86
84
89
91
89
89
86
82
84
89
86
84
86
86
86
89
89
86
89
89
84
84
80
68
62
66
68
78
86
93
95
95
91
91
91
91
91
84
80
80
82
84
84
84
86
89
91
93
91
93
91
86
86
91
93
91
91
89
86
84
86
86
89
86
84
82
89
89
91
91
89
86
86
86
89
89
89
86
84
86
91
89
91
89
86
84
86
72
62
64
64
72
82
89
93
98
95
91
86
86
89
84
84
84
86
86
82
82
86
86
89
91
91
93
86
86
89
89
89
89
89
86
84
86
86
89
89
89
86
84
89
89
91
91
93
89
84
86
89
89
89
86
84
89
91
91
89
86
89
91
89
76
64
58
62
68
76
86
93
95
98
89
86
86
89
86
89
86
84
84
84
84
89
89
89
91
93
93
89
86
86
84
91
89
89
89
86
91
89
93
89
86
84
86
91
89
89
89
93
91
84
84
89
89
86
84
84
86
89
91
91
86
84
84
89
80
70
64
64
68
72
82
95
95
98
91
86
86
89
86
84
86
84
86
84
86
91
93
89
89
89
89
89
89
89
89
91
89
91
89
91
91
91
89
89
86
86
89
89
86
91
91
93
93
89
86
89
89
84
84
84
89
91
89
89
86
86
86
89
84
74
66
62
66
70
80
93
93
95
91
86
86
89
86
84
86
86
86
89
86
89
89
89
91
89
91
91
89
91
89
91
93
91
91
91
89
89
84
86
89
86
89
86
84
86
91
89
91
89
86
91
89
86
89
89
93
93
89
84
84
86
91
93
86
76
68
62
64
70
74
89
93
93
93
91
89
86
86
84
86
84
89
91
89
89
84
86
89
91
91
89
89
89
91
91
91
91
93
91
89
89
89
86
84
84
84
86
89
89
89
82
84
86
89
91
91
86
89
91
91
95
89
82
82
86
86
95
91
80
70
62
64
66
72
80
89
93
93
91
89
89
91
89
86
89
89
91
91
89
86
86
86
93
89
86
89
89
91
89
86
89
91
89
89
86
86
84
89
89
82
86
91
93
91
84
84
86
91
91
91
93
93
89
91
93
89
84
84
82
80
93
93
84
72
62
60
64
70
76
80
86
89
89
91
93
91
86
86
89
84
86
89
89
91
89
89
91
86
86
86
86
89
89
89
91
89
86
84
86
84
86
91
86
82
86
89
86
89
91
86
91
91
86
89
91
93
89
89
89
89
86
84
82
84
95
95
89
76
64
57
58
64
72
80
82
86
91
91
91
89
86
89
89
86
86
86
84
86
89
89
89
84
84
89
91
91
91
89
91
86
84
86
86
84
89
91
86
84
84
86
84
86
86
86
89
89
86
86
91
93
91
89
89
86
86
86
82
84
98
95
91
80
68
60
58
62
68
78
84
86
91
91
93
91
89
86
89
91
91
86
86
86
84
82
84
84
86
89
89
86
91
89
89
89
86
86
84
84
86
89
89
89
89
84
84
89
84
86
86
86
89
89
89
91
91
89
91
89
89
89
86
86
98
95
91
84
70
64
64
64
66
78
84
86
89
91
93
93
89
91
89
91
91
89
86
86
84
82
84
89
91
91
89
89
91
91
89
89
89
89
89
89
86
86
86
84
84
84
86
89
84
84
82
82
86
86
89
91
89
86
86
93
91
89
91
89
93
93
93
89
74
66
66
64
68
78
86
89
93
91
89
91
91
95
98
93
91
89
93
91
93
91
89
89
89
89
91
91
93
93
91
86
89
84
86
89
91
86
84
84
84
84
84
86
84
82
86
89
86
84
86
89
89
89
86
89
86
84
89
86
91
95
95
91
78
68
66
64
66
74
84
91
91
86
89
89
89
93
93
89
86
89
95
91
89
91
91
86
86
89
91
93
93
95
93
93
91
84
86
89
89
84
84
86
84
82
86
86
86
84
84
86
89
86
86
91
91
91
86
86
86
86
86
84
91
93
91
89
80
68
64
62
60
70
80
86
89
84
86
86
89
93
89
86
86
91
91
86
86
89
91
86
89
91
93
91
91
93
93
93
86
82
86
91
91
84
86
86
82
80
84
86
89
86
82
84
86
84
89
93
95
93
86
86
89
91
89
86
91
89
89
86
80
70
66
60
60
64
76
84
89
89
86
86
91
93
89
89
91
93
91
86
84
89
91
91
91
89
89
89
91
91
91
91
86
86
89
91
91
91
89
84
80
80
82
84
84
84
84
86
86
89
91
91
93
93
86
84
89
91
86
89
91
86
84
86
82
72
64
58
58
66
76
84
89
91
89
89
95
95
91
91
91
91
93
89
89
91
89
89
89
89
86
89
91
93
91
91
91
91
91
89
91
93
89
86
84
86
84
80
78
82
86
84
86
91
91
91
91
93
86
82
84
86
91
89
93
91
86
86
86
76
66
58
60
66
76
82
89
89
89
91
93
93
91
93
93
89
91
91
93
93
89
91
91
86
89
91
86
91
91
89
91
91
89
93
93
95
89
86
86
89
86
82
80
84
86
84
84
89
91
91
89
91
86
82
80
84
89
89
93
91
95
93
91
80
68
58
58
64
74
80
89
89
91
89
93
91
91
95
93
89
93
91
89
89
91
93
89
89
89
89
84
84
84
86
89
89
91
91
93
93
91
89
86
86
84
84
84
84
91
86
84
89
89
86
89
91
86
84
82
82
84
89
93
91
95
98
95
86
70
64
60
64
70
78
84
89
93
91
93
91
91
93
93
91
95
86
84
89
89
86
86
91
91
89
86
84
86
89
91
93
93
89
89
91
93
93
91
91
84
86
86
84
89
86
86
89
84
84
91
91
91
89
84
82
89
89
93
91
95
98
98
89
74
68
64
64
68
76
82
91
93
91
91
91
89
89
89
89
93
86
91
91
89
89
86
89
86
91
89
91
93
93
91
93
91
91
91
93
93
91
93
93
86
89
89
84
84
84
82
86
89
93
95
93
91
93
86
84
91
86
91
91
95
95
95
89
76
70
64
60
62
70
82
86
86
86
86
91
93
89
89
89
91
89
89
89
89
89
89
89
89
91
89
89
95
95
93
91
93
91
93
93
91
91
95
95
89
86
89
84
82
82
80
82
91
95
95
91
89
91
91
89
91
86
95
95
93
95
95
89
80
72
66
64
62
68
76
84
86
86
89
89
91
93
91
89
91
89
86
91
91
91
89
89
91
91
86
86
91
95
93
91
91
91
91
93
91
89
91
93
89
84
82
80
82
82
82
82
84
86
89
89
86
84
89
89
86
84
98
95
91
98
93
86
82
74
66
64
58
64
72
80
84
89
91
91
89
89
93
91
91
91
86
89
89
86
89
86
86
84
86
86
89
93
91
89
93
95
91
91
91
89
91
91
86
82
80
80
80
82
82
82
84
84
84
89
89
86
89
89
84
84
93
93
91
93
91
86
84
76
66
60
57
62
68
76
82
89
91
93
91
86
89
89
89
84
84
86
86
84
89
86
84
82
86
89
89
86
86
86
91
91
91
86
86
91
91
84
84
82
80
78
78
82
82
82
86
82
82
86
86
89
89
89
84
82
91
91
89
86
86
84
82
78
68
60
58
62
64
70
80
91
95
91
91
86
86
86
84
82
86
86
82
82
86
89
86
82
78
82
86
84
84
84
86
86
89
84
84
86
84
80
80
80
80
80
78
82
86
82
82
78
82
86
86
86
89
84
82
80
89
93
89
86
84
84
80
78
70
60
58
60
64
70
80
89
89
89
89
86
89
86
84
84
84
82
84
86
91
86
86
82
80
82
84
82
86
84
82
80
82
80
82
80
78
80
78
76
78
80
82
82
84
82
78
76
80
84
84
84
82
78
82
82
86
89
91
86
82
84
86
82
72
62
58
58
64
70
80
89
89
89
86
86
86
84
82
84
82
82
86
89
86
86
84
86
89
84
82
82
80
82
82
78
78
80
80
82
76
78
76
74
78
80
80
80
84
84
82
78
80
82
82
80
76
78
80
84
82
84
89
86
84
86
86
80
72
64
60
58
60
68
78
84
89
86
86
86
89
86
84
82
84
84
84
84
86
84
84
86
89
82
82
84
80
84
84
80
80
82
82
82
78
76
76
76
74
76
74
76
80
80
82
80
78
82
82
82
80
78
82
82
84
84
84
84
84
86
89
78
72
66
60
57
58
66
74
82
86
86
84
80
82
82
82
82
84
84
82
82
84
84
89
86
82
82
84
84
80
82
80
78
80
80
78
80
78
74
76
78
76
78
76
78
78
78
80
76
78
80
80
78
76
76
80
80
84
82
82
84
84
86
86
78
74
68
64
57
55
62
70
80
84
82
82
82
80
80
80
82
82
78
80
80
82
82
86
89
82
82
82
82
80
78
78
80
76
76
76
78
76
74
76
76
76
78
76
76
76
76
76
76
80
80
78
76
76
78
80
80
80
80
80
82
84
86
82
80
76
70
64
60
57
60
66
74
82
82
82
84
80
80
80
82
82
80
80
80
78
78
82
84
80
80
78
78
80
80
78
78
76
74
74
78
80
80
78
78
74
72
72
72
72
72
72
74
74
78
76
76
76
78
80
82
