P2
# 512 of 608 Angiograms
64 64
255
93
93
91
89
91
93
91
93
93
93
91
95
93
93
93
93
93
95
98
103
98
95
100
103
100
95
95
91
91
95
95
93
95
98
100
103
100
100
103
107
105
105
103
98
95
91
91
93
91
91
84
80
80
80
80
80
78
76
78
72
74
74
76
80
93
93
93
91
93
91
91
93
93
93
93
95
98
93
93
91
93
95
95
98
95
93
98
98
95
95
95
91
91
93
93
95
98
98
100
100
103
100
103
105
103
100
100
98
98
95
93
93
91
89
86
82
80
80
80
78
78
76
78
78
80
78
80
78
95
98
93
91
93
93
93
95
95
93
95
98
100
95
91
91
91
91
91
93
93
91
98
98
93
95
95
93
93
95
98
98
100
100
98
98
105
105
103
98
98
98
98
98
95
98
98
98
91
84
86
84
78
80
80
76
76
76
78
80
78
80
82
78
93
95
95
93
93
93
93
95
95
95
95
98
95
93
93
93
91
93
91
91
91
91
95
95
93
93
93
93
93
95
100
98
98
98
95
98
98
100
100
98
98
100
98
95
98
95
98
95
89
84
82
78
76
80
80
76
78
76
76
76
78
78
78
80
91
93
91
93
95
93
91
89
91
95
95
93
95
93
93
93
91
91
91
89
89
91
91
89
89
91
86
89
93
95
98
95
98
95
93
95
95
98
98
98
93
98
100
100
103
95
93
91
91
84
78
74
78
80
78
78
78
80
72
74
76
74
78
82
93
93
91
91
95
95
91
89
86
89
91
93
95
93
91
93
93
91
89
86
89
91
93
91
89
91
89
91
98
95
93
93
95
95
93
95
93
93
95
98
93
95
98
100
103
98
95
91
86
84
80
78
80
80
78
78
78
76
72
76
74
78
76
80
93
93
95
93
93
93
93
91
86
84
89
93
95
95
91
93
95
93
86
86
89
93
95
95
91
89
91
93
95
93
93
91
91
95
95
95
93
89
95
98
95
93
98
98
100
98
95
91
86
84
82
82
82
80
78
76
76
72
74
76
76
76
76
80
95
98
95
91
91
91
89
91
86
84
86
93
93
93
91
89
93
89
86
89
91
93
95
93
89
89
91
91
89
89
91
89
91
91
93
95
93
91
95
95
95
98
98
98
93
93
93
91
86
89
86
82
80
78
78
76
72
72
72
76
74
74
76
78
95
98
93
91
91
91
89
86
86
86
86
89
89
91
89
86
91
89
89
91
91
91
93
93
89
89
89
91
89
86
91
91
91
91
91
91
91
93
93
95
98
98
98
98
95
91
93
89
84
86
84
82
80
78
78
80
74
72
74
74
74
76
78
82
91
93
93
93
91
89
86
84
86
86
86
84
89
89
89
86
93
95
93
91
91
89
89
91
89
89
91
93
91
89
89
91
91
91
93
91
91
93
93
93
95
98
98
98
98
95
95
91
86
86
84
80
80
80
80
78
74
70
74
74
78
78
80
82
86
91
93
93
89
84
82
84
86
86
86
89
86
89
89
86
93
95
93
91
91
89
86
89
89
84
89
91
91
91
91
91
89
86
89
89
93
91
91
95
98
100
100
98
95
95
93
89
89
84
80
78
78
78
76
78
76
72
72
72
74
76
78
78
93
95
93
91
89
82
82
86
84
86
91
89
91
89
89
91
93
93
91
91
91
91
86
84
86
86
86
89
91
93
91
91
89
86
86
84
91
91
93
95
95
100
100
98
95
95
91
86
84
84
82
82
80
78
78
80
78
72
72
72
72
74
78
80
95
98
95
93
89
84
84
86
86
86
89
91
93
91
91
93
89
86
89
89
89
89
86
86
82
84
86
86
89
91
89
84
89
89
89
89
89
89
91
98
95
93
95
95
98
95
91
89
82
82
86
86
84
82
80
80
76
72
74
70
76
76
78
80
98
98
95
95
91
86
84
86
91
91
91
91
91
89
89
91
86
82
82
84
86
86
86
86
84
86
89
86
84
86
86
86
86
86
86
86
89
89
89
93
93
93
95
98
98
95
89
84
80
82
86
86
86
86
84
78
74
68
72
74
78
80
78
80
100
98
95
95
91
86
86
84
86
89
91
93
95
86
84
91
91
84
82
86
89
91
89
89
89
86
89
84
82
84
84
89
89
86
84
84
86
86
86
89
91
91
95
98
98
91
89
84
84
82
82
82
84
86
86
80
76
76
76
76
78
78
78
78
98
100
100
95
91
89
89
86
89
84
86
89
93
89
84
89
89
84
84
86
89
91
91
91
89
86
84
80
80
86
89
89
86
84
86
84
86
86
89
89
89
86
95
95
93
91
91
86
84
84
84
84
84
86
86
84
82
80
82
84
80
78
78
78
98
100
98
95
91
91
93
91
89
86
84
86
91
91
86
89
89
84
84
89
86
89
91
89
89
89
84
82
84
89
91
89
89
86
89
86
86
86
86
89
89
89
93
93
93
95
95
89
84
84
84
84
86
84
82
82
84
82
84
82
80
78
80
80
98
98
95
93
89
91
93
89
86
84
84
86
89
91
89
89
84
84
86
86
86
89
86
86
86
86
86
84
82
86
91
86
84
89
91
86
84
86
89
89
86
86
86
89
89
95
95
91
86
84
84
82
84
84
82
82
82
80
78
74
74
76
78
80
93
95
93
89
89
89
89
86
82
82
82
84
89
91
91
86
84
82
84
86
89
89
86
86
86
86
84
82
84
86
89
84
80
82
84
84
82
86
86
89
84
89
89
89
86
93
93
91
89
84
82
78
82
86
84
82
84
80
78
76
78
78
76
78
95
100
93
89
89
89
86
82
80
82
82
84
89
91
89
86
86
84
86
91
91
89
89
89
86
84
84
86
91
91
89
86
84
80
82
86
86
89
89
86
84
91
89
89
89
93
91
89
89
84
80
78
80
86
84
82
82
80
82
82
82
82
80
78
91
95
91
91
86
86
84
82
82
82
84
84
86
89
84
86
91
84
82
89
89
84
86
91
89
86
89
91
91
91
89
86
84
82
84
86
84
86
89
86
84
91
89
86
91
91
86
86
84
84
80
80
82
82
86
86
82
80
80
80
78
80
78
74
95
95
91
91
89
84
84
82
82
84
84
82
86
89
86
89
91
89
84
89
89
89
89
93
89
84
86
84
84
86
86
86
86
89
89
84
86
86
89
84
82
89
86
86
91
91
86
86
84
80
78
78
80
82
86
86
78
80
82
80
80
78
76
76
95
95
93
91
86
82
84
80
82
86
84
82
89
89
86
89
91
91
89
89
91
86
84
89
89
91
91
86
86
82
82
82
84
86
89
84
84
84
84
84
82
84
86
89
91
91
84
84
82
80
80
80
82
86
89
84
80
82
86
82
84
82
80
80
95
95
95
93
89
84
82
80
82
82
82
84
86
84
84
89
89
91
91
91
86
84
82
86
91
93
93
89
84
80
80
78
82
86
89
86
86
80
82
80
82
82
84
84
86
86
84
84
80
78
82
84
84
89
89
86
84
80
84
84
84
84
82
82
95
95
93
95
93
89
82
82
84
84
82
84
86
84
86
86
84
86
89
86
86
84
80
84
86
89
89
86
86
82
82
84
89
86
86
89
89
82
80
80
82
82
86
84
84
84
82
82
82
80
80
84
86
89
86
84
86
82
80
82
84
84
82
82
91
93
89
91
91
89
80
80
84
89
86
86
86
89
86
84
84
84
89
84
80
82
80
84
84
84
82
84
89
86
86
86
86
84
84
86
84
82
80
82
82
80
84
80
89
86
80
80
82
82
82
84
86
89
86
84
89
86
82
82
84
84
82
80
89
91
91
91
89
84
80
80
82
89
89
89
89
86
86
84
84
84
86
82
78
82
82
84
84
80
80
84
89
86
86
84
84
86
84
84
82
84
82
82
84
84
80
80
86
86
82
82
80
80
82
86
89
86
86
86
86
86
84
84
89
82
78
78
86
89
91
93
89
84
82
82
82
86
86
89
89
82
84
84
82
84
84
84
82
84
84
86
86
84
82
82
86
89
89
89
86
84
80
82
86
84
82
82
84
84
80
82
86
84
86
89
82
78
82
86
84
84
80
82
86
84
82
84
84
80
78
78
89
89
86
86
89
89
86
84
86
86
86
89
89
86
86
89
86
86
84
84
84
84
84
84
84
86
86
86
89
91
86
86
89
84
82
84
82
82
84
82
84
89
86
84
82
86
91
93
86
82
82
86
84
84
82
84
84
84
82
80
78
74
74
78
89
86
82
84
84
89
89
89
91
89
89
89
89
89
89
86
86
86
86
84
84
84
86
84
82
82
86
89
91
86
84
89
89
84
84
82
82
84
82
82
86
93
89
84
82
84
89
89
89
86
84
82
84
86
84
82
82
82
80
80
76
72
74
76
89
86
82
82
84
86
89
89
86
84
86
86
89
89
89
89
84
86
82
84
84
84
84
84
84
82
84
86
89
89
89
89
89
89
86
84
84
84
78
80
84
89
86
84
82
82
84
86
84
86
84
84
84
86
84
80
80
80
78
78
78
76
74
76
89
86
84
82
82
89
89
86
86
86
86
86
91
91
86
86
86
86
84
84
82
86
89
89
86
84
86
86
86
91
89
84
82
84
84
84
82
82
82
78
80
82
82
84
84
82
82
89
84
84
84
84
86
84
84
82
78
80
78
78
78
78
78
76
89
89
89
84
82
89
89
84
86
89
86
89
91
93
89
86
89
89
89
84
84
86
86
89
86
84
86
84
82
82
82
80
78
78
80
82
82
82
82
80
84
84
82
82
84
82
80
84
84
84
86
84
82
80
82
82
80
80
80
80
78
78
80
76
89
86
86
86
84
84
82
86
89
86
86
86
91
91
89
89
91
89
89
86
84
84
89
91
86
84
84
84
82
82
82
78
78
78
78
80
80
82
80
80
80
80
82
82
84
84
82
84
82
80
86
86
82
80
82
82
82
82
80
80
82
80
82
78
84
84
84
86
86
84
84
89
86
86
89
93
91
89
91
91
95
91
86
86
80
80
86
86
84
84
82
84
84
82
82
80
80
78
80
82
80
80
80
78
78
78
82
89
86
84
84
86
84
80
84
82
84
86
84
82
82
80
80
80
84
82
76
76
82
84
86
89
89
86
91
91
89
89
93
91
91
89
89
93
95
95
86
82
80
80
84
84
82
82
82
82
82
80
80
82
82
78
80
80
78
76
76
78
80
78
76
80
80
76
80
84
82
86
86
84
84
86
82
78
80
80
80
78
78
76
74
76
82
86
91
91
86
86
91
95
89
89
89
86
89
89
86
91
91
93
86
82
82
84
86
86
82
82
82
80
82
80
78
80
82
80
80
78
76
76
76
74
78
78
74
76
78
74
80
82
84
91
91
86
84
84
82
82
82
80
80
78
76
76
74
78
84
89
91
89
86
86
89
91
89
89
89
82
86
93
93
91
91
93
89
89
86
86
84
86
84
86
84
82
82
80
80
78
78
76
74
76
74
74
76
78
76
78
78
80
80
80
84
84
86
93
91
86
84
84
82
86
84
80
78
78
74
74
76
80
89
91
91
89
86
86
89
89
91
93
89
86
89
93
91
89
91
93
91
91
89
86
86
89
89
89
86
82
80
80
82
80
78
80
76
76
72
72
76
78
78
78
76
78
78
82
84
82
84
89
93
89
86
89
84
89
84
80
78
78
76
74
78
78
91
91
91
89
89
86
91
86
89
91
89
89
86
89
86
89
89
91
91
89
86
86
86
86
89
89
84
78
78
80
78
80
78
78
78
74
74
76
80
76
78
78
76
76
76
80
84
82
86
91
91
91
89
89
86
89
84
80
82
80
80
78
76
76
91
86
89
91
91
84
91
91
93
91
91
89
82
82
84
89
89
89
86
86
86
86
86
82
84
84
80
80
80
78
74
78
76
76
76
74
76
76
80
78
76
78
78
78
76
80
86
89
89
91
91
93
91
86
82
80
80
82
82
80
80
80
80
76
89
84
86
91
91
89
91
93
91
91
89
86
86
86
84
86
86
86
84
84
84
84
80
78
80
80
80
82
82
78
74
78
76
76
78
80
84
80
80
82
80
76
80
80
80
82
86
93
93
93
91
91
89
86
82
82
80
82
82
80
82
82
78
76
86
86
89
91
91
89
91
93
91
91
89
89
91
89
86
89
89
84
84
82
82
84
80
78
78
80
80
78
82
82
78
78
80
78
76
80
86
82
76
80
78
78
78
80
82
84
89
91
93
95
93
89
89
84
86
89
84
82
80
80
80
80
78
78
86
86
89
91
91
91
91
91
91
91
89
89
89
89
86
86
89
89
89
86
84
82
82
82
80
78
78
76
80
82
78
76
78
74
74
78
78
76
78
80
78
78
78
80
84
86
91
89
91
91
91
89
89
86
86
89
86
82
80
80
78
78
76
76
86
84
86
93
93
89
89
84
89
89
89
89
86
91
89
86
86
86
84
84
82
78
80
80
82
78
76
78
80
80
78
74
74
76
78
80
80
78
82
82
78
76
78
80
82
86
89
91
89
89
89
89
86
86
89
89
84
82
80
82
80
76
74
74
86
84
89
91
89
91
89
84
86
89
86
86
84
91
91
86
82
82
78
78
76
76
76
76
78
76
78
80
80
80
82
80
80
78
82
80
78
80
82
82
80
80
78
80
82
82
84
89
89
89
89
89
86
86
91
89
86
86
84
82
80
78
78
80
84
82
86
89
93
91
93
89
86
86
84
84
86
89
86
84
82
80
80
82
78
78
76
76
78
80
82
84
84
82
80
84
82
80
78
76
76
78
80
78
80
84
84
84
86
82
80
84
89
89
89
89
86
86
84
82
84
84
86
86
84
82
80
84
86
84
82
84
89
89
91
89
86
86
84
84
86
89
86
84
84
84
82
82
78
80
78
78
80
80
80
82
82
80
80
82
84
82
78
78
76
76
76
76
76
80
84
84
86
84
84
86
86
89
86
89
89
86
82
80
80
78
84
86
82
82
82
84
82
82
84
82
84
89
91
91
91
89
84
84
86
89
86
86
86
89
89
82
78
80
84
84
82
78
78
82
82
78
78
82
84
84
82
82
76
78
78
78
78
78
78
78
80
82
86
89
86
86
89
91
89
86
86
84
84
82
84
82
78
78
82
84
82
82
84
82
84
86
89
91
86
86
84
84
86
86
86
84
84
89
82
82
84
86
84
82
78
78
76
78
80
78
78
80
82
80
84
82
78
78
78
78
76
76
76
78
78
80
84
89
89
91
91
89
86
84
84
84
86
86
86
82
82
82
80
84
84
84
86
84
84
86
84
84
84
84
86
86
82
84
84
82
82
84
80
82
86
86
82
78
80
80
76
76
80
78
80
82
80
78
80
84
84
80
78
78
82
80
80
84
82
80
84
86
84
86
89
86
89
86
86
84
86
89
89
84
84
82
84
89
86
89
89
84
82
82
82
82
86
86
86
86
86
86
86
86
84
84
82
82
86
84
80
76
80
82
80
80
82
80
84
84
82
80
80
84
82
82
80
76
78
80
84
84
82
82
82
84
84
82
84
86
91
91
89
86
89
91
86
86
86
84
86
89
82
84
86
84
84
82
80
80
84
86
84
82
84
82
84
84
86
91
86
84
84
80
80
78
78
78
78
80
80
82
84
84
84
82
80
80
80
82
80
78
78
82
84
80
80
78
80
84
84
82
82
84
91
91
89
84
89
93
89
86
84
86
86
89
82
82
82
86
84
86
84
80
82
84
84
82
84
84
84
84
89
93
86
80
80
78
80
82
80
80
80
82
78
82
84
86
84
82
78
80
80
80
80
82
82
84
82
80
78
78
78
82
84
84
86
86
91
89
89
86
86
93
93
89
86
86
86
86
82
82
80
80
80
82
82
80
82
82
80
82
86
89
84
84
86
89
84
80
80
80
84
82
82
80
82
80
76
78
80
82
82
82
80
80
80
82
80
84
82
82
82
82
80
80
80
82
82
84
86
89
91
86
91
89
89
93
93
89
86
86
84
82
80
80
80
76
78
78
80
80
82
84
80
80
84
89
84
84
84
86
84
82
80
82
82
80
82
82
80
78
78
80
80
86
89
84
84
80
78
80
82
82
82
82
82
80
82
80
82
82
84
89
89
89
89
91
91
91
89
89
89
89
89
84
84
89
76
78
82
80
78
78
78
82
82
82
80
78
84
86
82
82
86
84
78
80
82
84
82
80
78
82
84
82
80
82
80
86
89
82
84
84
80
80
82
82
80
82
80
80
82
80
80
80
84
91
91
89
93
95
93
91
89
86
86
89
91
84
84
86
76
74
78
78
78
74
76
82
86
84
82
84
84
82
82
84
86
86
80
80
80
82
84
84
82
84
84
82
82
82
84
86
89
84
82
84
84
86
86
86
82
82
80
80
82
82
82
82
86
91
91
89
89
91
89
89
89
89
86
89
91
89
86
84
72
74
72
72
74
74
74
80
82
84
80
84
82
82
86
84
86
82
82
82
82
82
84
84
84
84
84
82
84
86
86
86
89
84
82
86
86
86
86
89
86
82
78
80
82
84
86
91
91
93
93
86
86
89
89
89
89
89
84
86
89
89
84
82
74
74
76
72
70
74
78
82
82
80
80
80
78
82
84
82
82
80
82
84
82
80
80
82
82
84
84
84
86
86
89
89
86
84
84
86
84
84
82
84
86
84
80
78
80
84
84
86
89
91
91
89
89
91
89
86
84
84
84
86
89
86
82
82
74
74
72
72
72
76
78
84
82
78
80
82
78
78
84
80
78
80
84
84
84
82
82
84
86
84
84
86
86
89
89
86
84
82
84
86
84
82
82
80
84
82
80
78
78
82
82
80
84
86
91
89
89
89
86
84
84
82
84
86
86
82
80
80
72
70
68
66
70
76
78
76
76
74
78
80
74
74
80
80
78
80
82
84
84
82
80
80
84
84
80
82
84
86
82
84
84
80
82
84
82
82
82
78
82
78
74
76
76
78
82
80
84
84
86
89
89
86
84
84
84
82
80
84
82
78
80
80
70
66
66
66
68
72
72
70
70
70
72
74
72
70
72
76
78
80
82
84
84
82
80
80
80
84
82
80
84
84
80
82
84
80
82
82
82
80
80
76
78
78
74
74
76
76
80
82
86
86
82
84
86
86
84
82
82
80
78
78
80
78
78
82
68
66
70
70
70
72
68
70
68
68
70
72
68
68
68
74
76
80
80
84
82
80
84
84
84
89
82
78
82
84
80
82
82
80
82
82
80
80
78
78
78
76
76
76
78
78
78
80
84
86
82
82
82
84
84
82
80
80
80
78
78
78
76
80
