P2
# 516 of 608 Angiograms
64 64
255
93
86
86
82
78
86
93
95
93
91
98
95
95
98
103
105
105
100
105
98
93
93
103
105
105
103
103
100
100
103
105
103
100
103
103
103
103
103
103
100
105
100
98
98
103
105
107
100
95
105
105
105
103
95
100
103
103
107
115
115
112
107
105
105
93
89
91
86
80
84
93
93
89
93
107
100
93
98
103
110
110
107
110
105
98
95
103
105
105
103
98
98
103
103
105
103
103
103
103
105
100
100
105
105
105
100
100
100
103
105
107
98
98
105
98
100
100
95
95
103
105
110
112
115
115
112
107
105
89
86
89
91
86
84
91
89
84
98
105
100
98
95
98
105
105
110
110
105
100
98
105
107
100
100
103
95
98
100
98
100
100
105
110
103
98
103
103
103
103
98
100
105
107
107
107
100
100
100
100
95
100
105
98
98
103
103
105
107
110
112
110
105
89
91
95
98
93
91
89
89
91
95
98
100
98
95
98
103
100
103
107
105
100
100
107
103
93
95
103
100
98
98
98
98
100
110
112
103
98
100
105
100
98
100
100
103
103
103
107
103
100
103
103
100
105
110
103
103
107
107
107
107
105
110
112
107
91
91
98
98
93
95
91
93
91
89
91
91
93
95
95
103
103
103
98
103
103
100
100
103
95
95
100
100
100
103
98
100
103
105
107
105
100
98
100
98
98
103
103
100
98
93
98
105
107
103
98
105
103
103
107
107
110
110
112
110
110
110
107
107
91
89
95
95
89
91
93
95
95
95
91
93
95
95
98
100
105
98
98
105
100
98
98
98
95
93
95
100
100
103
103
103
105
107
107
107
105
100
100
105
105
107
105
105
103
100
98
110
110
103
98
103
100
100
107
107
107
112
117
117
112
112
110
103
89
91
98
93
84
86
89
93
100
100
98
98
103
103
103
100
100
103
103
105
98
95
93
95
93
91
91
98
100
105
105
100
103
110
107
105
105
103
105
112
110
110
105
105
107
103
103
107
105
98
93
93
95
98
103
103
110
115
115
117
115
112
107
98
86
95
98
95
91
86
89
91
98
95
95
98
103
107
107
105
100
103
105
103
98
105
103
100
95
93
93
100
103
105
105
103
100
105
105
98
100
100
103
103
105
110
103
100
100
98
100
100
95
95
95
98
100
100
98
107
112
110
115
117
117
115
105
98
91
93
95
91
98
91
84
89
93
93
98
95
95
103
107
110
105
103
103
103
100
105
103
100
95
95
100
100
103
100
105
105
100
103
100
95
100
98
100
103
100
100
103
100
98
103
105
103
98
98
98
100
100
100
103
112
115
115
117
115
110
107
103
103
89
89
93
91
91
91
91
93
91
95
98
100
98
100
105
103
100
100
100
103
103
103
103
100
100
98
98
103
100
100
103
100
98
95
93
93
95
95
98
100
98
100
107
105
100
98
100
103
100
98
100
98
95
100
107
115
117
115
115
110
110
107
100
98
89
86
89
89
86
86
91
91
91
91
93
103
103
105
105
98
93
95
103
98
100
100
95
98
98
98
100
105
105
103
98
98
93
89
91
91
91
93
100
98
95
100
103
103
100
100
100
100
98
98
100
95
95
98
107
110
117
115
115
110
112
115
103
93
93
91
89
91
91
91
93
91
91
98
100
105
100
105
105
98
98
98
100
95
98
98
98
100
95
98
103
103
105
105
103
100
95
95
95
98
95
95
95
98
95
93
93
95
98
98
98
98
100
98
98
93
93
98
107
112
112
112
115
112
115
112
107
100
91
93
91
93
93
98
98
91
93
100
105
103
95
100
103
103
103
98
95
93
98
98
103
107
100
100
103
103
105
110
107
103
100
105
98
98
95
93
93
95
95
95
91
93
98
95
98
98
98
98
100
98
95
98
107
110
112
117
120
115
112
107
107
105
82
91
86
84
89
95
93
93
95
98
98
98
100
103
105
100
98
100
100
100
95
100
107
107
103
105
107
100
100
100
103
100
103
105
100
93
93
95
98
98
95
98
98
98
100
98
95
93
95
95
98
95
95
98
107
110
112
117
122
115
107
103
103
103
82
84
89
84
89
93
89
93
98
93
95
98
103
100
98
95
98
105
103
100
100
105
107
107
100
98
100
98
98
98
100
100
98
100
100
95
98
95
100
98
98
100
98
98
100
103
100
93
91
93
100
100
91
93
105
107
112
112
117
120
107
100
103
105
84
86
86
89
93
91
89
95
98
91
91
95
95
95
100
100
103
105
100
95
98
105
107
107
100
98
98
95
100
100
100
98
100
98
100
98
100
98
98
103
100
100
93
89
95
105
110
103
93
93
98
100
98
98
105
112
112
115
117
120
110
105
105
107
91
89
86
86
91
89
93
93
91
93
98
98
95
95
98
98
100
105
103
100
98
100
105
110
107
103
100
98
103
103
105
105
103
93
95
100
100
100
98
100
98
95
95
95
100
103
107
105
103
98
98
103
105
105
110
112
115
115
115
117
110
110
110
110
89
93
95
95
91
91
93
95
93
93
100
103
95
98
103
103
107
107
103
105
105
100
98
105
105
103
100
95
98
100
105
100
98
91
93
98
105
100
98
98
98
95
93
98
100
100
100
103
103
103
103
105
110
110
110
112
112
112
112
117
112
110
110
115
84
91
103
103
95
95
98
95
91
95
93
100
98
98
105
110
117
107
103
105
103
98
100
103
105
105
103
98
103
103
103
98
98
93
93
98
103
98
93
95
93
98
95
100
100
100
100
100
98
98
100
107
107
105
107
110
112
112
112
117
115
105
105
107
86
93
100
100
93
98
98
95
86
86
98
107
103
98
103
107
107
105
100
98
103
105
105
103
105
107
107
105
105
103
103
103
100
98
100
98
98
100
95
98
100
103
95
98
103
98
98
100
98
98
98
103
100
103
107
112
112
112
112
110
107
107
105
115
89
98
95
98
95
98
100
98
91
93
98
103
105
105
105
110
103
103
98
95
105
110
105
103
103
110
112
107
103
103
107
110
100
107
107
103
98
100
98
95
98
98
95
98
100
103
103
103
103
100
95
95
98
100
105
107
112
115
110
105
105
110
112
115
91
93
93
91
91
95
98
95
95
98
98
98
103
105
110
110
107
107
105
105
105
105
100
98
103
110
107
105
105
105
110
105
100
103
103
100
100
100
98
100
98
100
103
98
95
100
100
105
103
100
100
98
95
95
103
103
110
115
107
105
107
110
112
112
89
89
91
89
91
95
103
100
93
93
98
103
100
100
107
112
110
110
110
112
107
103
103
100
103
103
105
105
103
105
103
100
105
105
100
98
105
103
98
98
98
103
105
103
100
103
103
107
105
100
98
98
95
98
107
103
110
112
107
103
107
105
112
117
89
86
91
95
95
95
103
105
98
91
95
103
98
100
103
105
112
110
115
112
107
105
103
105
107
107
100
98
100
98
95
100
110
110
103
95
100
100
103
98
98
100
103
103
103
103
98
100
103
95
95
95
98
98
103
105
112
110
105
103
107
112
110
107
91
89
93
100
98
95
98
100
98
95
98
98
100
98
103
103
110
110
110
107
103
107
110
110
112
110
103
100
100
100
103
105
110
107
105
103
98
100
103
95
95
98
103
105
105
103
100
100
103
98
95
95
103
100
105
110
112
107
107
112
110
112
115
107
95
91
93
95
98
98
100
103
105
100
93
98
98
98
100
105
105
112
112
107
107
107
107
110
110
105
105
103
100
103
105
107
110
105
103
103
103
105
103
100
100
105
107
105
105
105
100
103
100
100
100
100
105
105
107
110
105
107
110
115
112
107
112
110
95
93
93
95
98
103
103
103
103
103
98
100
95
100
105
103
103
107
107
110
112
112
112
107
107
107
105
100
98
103
105
110
105
100
98
100
107
107
107
110
105
107
110
110
110
105
98
103
98
95
103
105
107
107
105
107
107
107
110
112
112
105
112
112
91
91
93
95
95
91
95
98
98
98
100
95
98
103
107
103
103
107
112
115
115
112
107
103
105
103
100
103
100
103
107
107
103
98
98
100
105
110
110
110
112
103
110
115
110
100
100
98
98
100
100
103
103
98
100
103
107
110
112
117
115
105
107
105
82
84
91
100
98
89
91
93
98
100
103
93
100
103
103
105
110
105
107
110
105
107
107
107
105
105
105
105
103
103
110
110
103
98
98
100
105
105
105
110
110
107
110
107
103
100
95
100
95
93
95
100
98
100
100
105
107
112
112
115
112
103
100
105
82
86
89
95
98
93
89
89
95
100
103
98
100
103
105
107
107
110
105
107
107
107
105
107
105
110
107
107
107
105
103
103
98
95
93
93
98
103
107
110
107
107
105
103
100
98
100
98
98
100
100
98
100
105
107
110
112
115
110
107
105
103
103
110
89
91
91
89
93
95
93
91
100
103
100
95
95
95
100
105
105
107
105
112
107
105
103
103
103
107
105
107
110
107
103
98
95
95
98
98
93
98
103
107
107
103
98
98
98
100
105
103
98
103
100
98
103
110
112
110
115
112
112
110
107
105
107
110
91
91
93
93
95
95
95
98
107
105
105
98
95
98
98
100
103
107
107
110
107
105
107
100
95
103
105
110
107
107
100
98
95
95
103
103
100
98
103
105
105
98
95
100
103
103
105
105
98
103
103
100
103
110
115
112
110
107
107
107
107
103
105
103
86
86
86
93
95
91
95
105
110
107
107
100
100
103
103
105
107
107
103
105
107
107
105
103
103
103
100
103
103
107
103
98
98
100
100
95
100
105
105
107
105
103
105
103
100
100
100
98
98
100
100
103
105
112
112
107
105
105
103
100
105
105
107
107
93
91
86
91
93
91
93
103
105
107
107
105
107
107
110
110
107
103
95
98
100
107
107
107
105
93
93
95
103
105
100
93
98
107
103
100
98
100
100
100
103
107
110
107
105
105
98
93
98
103
103
103
112
115
115
105
103
103
100
103
107
112
110
107
93
91
86
91
95
93
93
98
100
103
107
107
105
110
112
110
112
107
103
100
103
103
103
103
107
100
100
93
98
100
93
91
98
103
98
98
100
100
98
103
105
103
110
110
105
103
98
95
103
110
105
107
110
112
115
105
98
100
105
107
107
107
105
107
93
89
84
91
95
93
95
98
105
103
107
105
103
110
107
107
112
107
105
103
100
100
103
100
105
100
98
98
98
95
95
95
100
105
103
103
100
100
103
107
105
105
110
112
105
103
103
103
105
105
103
107
112
112
112
110
103
103
103
110
110
107
107
107
91
86
82
91
95
91
91
93
103
107
105
98
98
107
107
103
100
105
112
105
95
98
105
105
103
100
100
100
100
103
103
103
100
103
103
105
103
98
103
110
105
105
107
110
107
103
100
105
105
103
103
103
112
115
115
112
107
105
100
107
107
110
110
107
89
89
91
91
91
89
91
93
100
105
100
95
98
103
105
103
100
107
112
112
103
103
105
107
110
105
107
105
98
105
107
103
103
105
103
107
107
98
103
110
105
100
107
112
107
100
98
103
105
103
103
103
112
117
112
115
112
107
103
110
105
107
110
107
93
93
89
86
89
91
95
100
105
103
100
98
98
98
103
100
105
107
110
110
105
103
105
107
107
107
107
105
103
105
105
105
107
107
107
107
107
98
105
110
105
100
110
112
107
103
103
103
105
103
103
105
115
120
112
112
112
110
110
110
107
110
110
112
91
91
93
93
89
93
93
98
103
107
105
100
100
103
107
105
105
105
103
105
103
103
110
110
110
107
107
105
105
107
107
105
107
103
107
100
98
103
107
110
105
105
112
112
107
105
103
103
105
105
103
103
110
112
112
107
110
112
107
107
110
107
107
112
84
89
95
98
93
93
95
98
103
107
105
103
105
110
110
105
105
100
98
105
103
103
105
105
107
103
103
105
105
107
107
105
105
98
103
105
98
98
105
107
107
110
115
110
105
105
103
105
107
107
105
98
103
105
107
110
112
115
107
107
107
105
105
107
86
95
95
93
93
98
100
98
100
103
100
103
105
105
107
105
100
98
98
107
105
107
107
103
105
103
103
100
100
105
105
107
107
105
100
103
100
98
103
105
105
110
110
107
107
110
107
105
105
103
107
103
103
107
107
107
110
112
107
107
103
103
103
103
95
98
95
93
98
100
103
98
98
100
100
105
105
105
110
110
105
103
100
105
105
105
105
105
103
100
100
105
107
103
103
107
107
107
105
105
105
105
105
98
103
107
110
110
105
110
112
103
98
100
103
105
105
103
110
110
110
105
105
105
105
103
100
100
93
93
95
98
100
100
107
107
103
100
103
105
105
103
107
112
112
105
95
100
105
103
103
105
107
112
107
110
115
107
105
105
107
105
107
110
110
107
107
100
103
105
105
110
105
103
105
98
98
103
100
103
105
105
110
110
112
107
103
105
100
98
100
103
95
95
100
100
100
98
103
103
100
100
100
103
103
105
103
105
105
103
93
93
103
105
100
100
107
107
110
107
107
105
105
105
105
110
107
110
110
107
112
112
110
103
100
107
107
100
103
100
95
103
103
103
110
110
107
107
107
107
103
103
103
103
103
105
98
95
98
100
103
103
100
98
98
98
98
100
100
105
105
105
105
103
98
98
103
103
100
103
107
107
110
110
103
100
100
105
105
110
107
110
112
110
120
115
110
105
100
105
105
105
100
98
100
103
105
103
110
110
103
100
103
110
105
103
98
103
103
100
100
98
100
105
107
110
105
105
103
98
100
103
103
105
105
103
110
103
103
100
103
100
105
107
112
112
110
112
100
98
103
107
110
115
110
105
105
110
115
110
107
107
100
103
105
107
105
103
100
103
103
103
105
105
103
103
107
112
107
105
100
98
100
95
100
103
103
100
103
105
105
103
103
103
105
103
103
105
100
103
103
103
107
105
100
103
105
110
115
110
107
107
103
105
105
105
115
115
110
105
103
107
110
103
100
98
95
98
103
105
107
105
95
98
103
100
105
103
98
105
115
117
112
107
103
103
103
98
95
98
100
100
103
103
100
100
100
100
100
100
105
107
107
103
105
103
103
100
100
103
107
110
110
103
103
105
112
110
110
112
115
112
110
107
103
105
110
110
107
103
100
98
103
105
105
103
100
103
103
103
107
105
103
105
112
117
112
110
110
105
103
98
95
100
100
100
103
98
95
91
95
98
98
103
105
110
112
107
105
105
105
103
100
105
110
105
100
103
105
105
115
110
107
107
112
110
107
112
107
105
110
110
115
110
103
95
95
98
103
100
98
105
105
105
107
107
105
100
103
110
110
112
112
105
98
100
95
95
98
100
103
98
93
91
95
98
93
98
105
107
105
107
107
110
112
107
105
107
110
103
98
105
103
107
115
107
107
103
112
110
107
110
110
110
110
107
105
105
105
100
95
98
100
98
100
107
103
105
110
110
105
98
107
105
107
115
112
105
100
103
93
98
98
103
103
100
98
95
95
95
91
95
98
103
103
110
112
107
107
105
105
105
107
100
95
103
105
115
112
107
110
107
110
112
110
105
107
105
103
105
107
112
110
105
103
98
98
98
98
100
103
105
107
105
107
103
107
105
105
110
110
105
105
103
98
100
103
103
103
105
100
98
100
98
98
98
98
103
107
107
107
105
105
103
105
107
103
103
100
107
107
112
110
110
107
105
115
115
107
107
105
103
100
103
107
110
107
107
107
105
100
95
93
100
100
105
103
105
107
107
110
105
105
110
110
107
105
100
100
100
98
98
100
103
95
93
100
103
103
100
100
103
105
103
105
107
107
105
110
103
98
103
100
105
107
110
112
110
112
112
115
110
105
107
107
105
100
98
100
103
105
105
107
107
100
98
100
105
105
105
105
107
107
110
110
105
112
110
110
107
105
103
98
93
93
95
95
98
95
93
98
98
103
105
105
107
103
100
105
105
107
107
110
105
100
100
98
103
107
107
107
110
112
110
107
110
103
98
98
100
103
100
95
100
105
107
107
110
105
100
100
105
112
112
110
105
107
112
115
107
107
103
100
103
105
105
91
89
91
95
93
93
93
95
100
98
100
103
103
110
103
103
110
105
105
107
103
103
105
103
103
103
105
105
100
103
105
105
110
115
107
98
98
103
105
100
95
98
105
107
103
105
110
107
103
105
110
110
107
105
107
112
115
110
110
103
98
98
103
107
91
91
91
93
93
95
95
95
93
98
98
100
103
107
107
107
110
103
103
100
95
98
103
105
103
103
103
100
98
98
100
100
107
112
110
105
100
103
100
100
95
98
100
98
95
100
105
110
103
100
100
105
107
105
107
110
110
107
105
103
95
93
98
105
93
91
95
98
95
89
93
91
91
98
98
103
105
105
105
105
103
98
103
100
98
98
100
100
98
105
105
100
100
103
103
100
105
107
105
107
100
100
100
103
98
95
98
98
98
100
103
107
105
100
100
98
103
105
107
105
107
105
103
103
100
98
98
98
95
91
100
100
100
93
93
93
98
100
100
103
103
103
107
107
100
98
100
100
100
103
103
98
95
103
98
95
100
107
107
100
103
105
100
103
103
103
103
100
93
95
95
98
103
95
95
103
110
110
105
100
100
107
110
103
107
105
103
100
103
100
100
105
93
91
93
100
105
100
98
100
105
107
107
105
105
105
107
110
105
100
103
103
100
100
103
105
105
103
98
98
100
103
103
100
100
98
95
98
98
100
98
98
95
95
91
95
100
93
95
103
107
110
107
107
105
105
107
100
100
103
107
103
103
103
103
103
95
95
95
100
103
103
103
105
107
110
110
103
103
103
107
107
107
107
105
105
105
105
107
107
105
105
105
105
98
95
100
98
95
95
91
93
95
98
100
103
95
93
95
98
100
100
100
100
103
107
107
110
110
105
105
105
103
105
107
105
100
103
105
100
98
98
100
100
103
103
103
105
105
110
105
105
107
103
103
107
105
105
105
107
105
107
110
107
107
107
110
107
103
95
95
95
98
95
91
95
95
100
103
100
95
95
100
103
100
103
103
105
103
105
107
112
117
107
105
105
103
105
107
105
103
100
98
103
95
98
100
100
100
103
107
107
103
107
98
98
107
105
105
107
105
103
105
105
105
103
105
105
105
105
105
103
105
103
103
103
105
100
98
98
95
95
103
100
98
98
103
103
100
103
105
107
107
110
107
110
115
112
105
103
100
100
103
100
100
100
100
107
98
95
93
95
95
103
110
110
110
105
98
95
100
105
105
107
105
103
105
105
105
105
107
103
98
98
100
103
105
103
105
103
103
103
98
100
95
95
100
100
100
98
100
100
100
105
107
103
103
107
107
107
110
110
105
103
103
100
103
100
98
103
105
107
