P2
# 518 of 608 Angiograms
64 64
255
129
132
139
142
137
134
132
125
122
129
127
122
115
120
120
122
125
125
117
112
120
120
125
125
122
120
120
120
122
117
117
112
115
112
112
115
110
105
110
115
115
115
115
115
110
110
112
117
115
107
110
112
112
110
115
112
115
117
120
120
117
120
117
115
132
129
129
132
129
132
129
125
122
129
129
125
117
122
122
122
120
117
120
117
122
125
122
122
122
115
115
120
120
112
112
110
110
107
110
112
112
110
112
117
115
112
117
117
112
110
110
115
112
105
107
110
112
112
112
112
115
120
120
122
115
112
122
117
129
132
132
132
134
132
132
125
127
127
127
125
120
125
122
120
115
117
122
120
122
125
120
117
122
120
122
125
120
112
110
110
112
107
107
112
110
112
112
117
112
107
115
117
110
110
112
115
115
105
105
112
115
117
115
112
115
112
110
112
112
112
117
117
132
127
127
137
139
137
137
132
132
127
122
120
122
127
122
117
115
120
125
120
117
112
112
120
117
120
122
122
120
117
112
112
115
115
112
112
115
115
115
117
112
110
112
107
103
110
110
115
117
112
110
117
120
120
120
115
115
110
107
115
117
122
120
117
127
129
129
139
144
139
134
129
127
125
122
120
120
122
122
115
117
122
122
122
115
112
115
120
117
117
120
117
117
117
120
120
115
117
120
117
117
117
120
117
110
110
110
107
103
105
107
112
110
110
112
117
122
120
120
115
112
110
110
115
122
122
117
110
125
129
132
139
144
137
129
125
125
127
122
125
125
122
120
117
120
122
122
120
115
115
117
120
115
112
117
115
115
115
122
125
117
117
120
120
125
120
120
117
110
110
112
112
107
105
105
110
107
110
117
112
117
117
115
115
115
110
110
115
120
122
110
107
129
129
132
142
142
137
127
125
127
122
122
125
125
120
120
117
120
120
117
115
117
117
117
115
112
115
112
117
122
117
120
122
122
122
117
117
120
120
120
120
110
110
110
112
117
115
117
110
105
107
117
117
115
115
112
112
115
112
112
117
125
120
112
112
127
137
139
139
142
137
129
125
125
120
117
122
122
122
120
117
120
117
120
115
115
117
117
115
115
117
117
120
125
125
122
117
120
122
120
120
117
117
117
120
107
107
110
112
120
117
115
105
107
107
112
117
112
110
107
105
112
115
110
122
122
122
117
117
122
132
134
139
139
137
134
127
122
122
120
120
120
122
120
117
117
117
117
115
115
120
120
120
120
120
120
120
120
125
122
117
112
120
120
117
117
110
115
117
110
107
112
117
115
117
110
100
107
110
107
112
110
107
107
112
112
110
110
120
120
120
117
117
120
129
137
139
137
139
137
134
129
127
125
125
120
120
115
112
112
115
115
117
115
117
120
125
125
120
120
120
117
120
120
120
120
117
120
120
117
112
110
115
110
112
112
110
115
115
110
100
105
112
110
112
107
103
107
112
110
107
107
117
120
117
117
120
117
127
137
139
137
132
129
127
129
129
122
117
125
127
120
115
115
117
117
117
120
117
117
127
122
115
115
117
115
117
120
122
122
117
117
117
117
112
110
115
110
115
115
110
112
112
110
105
105
110
115
112
105
103
107
110
110
107
110
112
115
112
110
110
115
125
132
137
134
132
127
129
129
129
122
117
125
129
122
117
120
122
120
120
117
115
117
120
120
115
112
115
120
122
122
125
120
117
117
115
110
107
107
112
112
115
117
112
110
110
107
107
112
112
115
115
107
105
105
110
110
112
115
115
120
117
110
112
117
122
129
129
132
134
132
134
132
129
125
120
122
125
122
120
117
120
122
120
117
115
117
120
117
115
112
110
115
120
122
122
120
117
115
107
110
110
110
110
112
117
122
115
112
112
107
110
112
112
115
120
112
105
107
110
115
120
122
122
122
120
120
115
117
122
129
134
137
137
137
137
134
127
125
122
125
120
117
122
120
117
120
120
117
115
117
117
117
120
117
110
115
117
112
115
115
117
112
107
112
107
107
110
112
115
120
115
117
112
107
107
110
107
112
115
112
112
115
117
122
125
122
122
120
120
120
112
115
122
134
142
147
144
139
142
139
129
125
125
129
127
120
117
117
117
117
117
115
110
115
117
125
122
115
117
120
117
115
117
117
120
115
110
107
107
110
110
110
107
107
110
112
107
107
107
105
107
110
117
117
120
120
122
125
120
115
110
115
120
117
110
112
125
134
142
147
144
137
134
134
129
127
127
129
127
122
115
112
117
122
122
117
110
110
117
120
122
120
117
117
115
120
122
125
125
117
112
110
117
117
112
110
103
105
107
107
105
107
112
110
110
115
117
117
117
112
115
117
117
115
115
117
120
115
110
112
125
134
142
144
142
137
132
132
132
129
129
129
127
125
120
112
115
122
120
117
115
112
115
120
120
120
117
115
115
117
117
122
127
120
115
110
117
117
112
107
103
107
112
115
110
112
115
112
110
110
110
115
120
112
112
112
115
117
117
117
120
117
107
112
122
132
142
144
139
134
132
129
132
132
129
129
129
127
122
115
112
117
120
115
115
117
120
122
120
120
122
117
115
112
115
112
117
117
115
110
112
112
107
105
107
105
110
115
115
115
115
110
107
105
112
115
117
117
112
107
107
112
117
117
120
115
110
115
120
132
142
142
137
132
129
127
129
132
134
132
132
122
120
115
110
112
115
115
117
120
125
122
120
117
120
117
110
115
115
110
115
115
110
110
112
112
110
107
110
107
107
115
117
117
117
117
112
107
107
115
115
115
115
115
107
112
120
117
117
115
112
115
117
129
142
144
139
137
134
132
129
129
134
134
127
120
122
120
115
115
112
117
120
122
125
125
122
115
115
117
117
115
115
115
112
115
115
110
110
112
112
112
110
107
110
115
120
117
115
117
112
112
110
115
117
117
112
112
112
115
120
117
115
117
115
112
117
132
144
144
144
142
137
132
129
127
129
132
122
117
120
127
127
117
117
120
122
120
120
122
117
110
112
117
115
110
115
115
112
115
117
112
110
112
115
117
115
112
110
110
110
110
110
112
112
110
110
112
117
120
117
115
115
112
115
110
112
115
115
115
117
129
144
144
142
142
137
129
127
127
125
127
125
115
112
117
122
120
117
120
117
117
120
117
115
110
117
120
115
115
115
115
112
110
110
110
112
115
115
115
117
115
117
112
110
110
110
107
105
105
110
112
115
122
122
117
115
112
110
107
110
110
112
112
115
127
142
147
144
139
137
132
125
125
125
127
127
120
112
110
112
120
120
117
120
120
125
125
117
112
115
122
117
117
117
117
115
115
110
107
110
112
117
115
112
115
115
120
117
112
107
105
107
107
110
110
117
122
122
117
112
112
110
110
110
107
107
107
110
125
142
147
144
142
137
137
134
129
127
127
127
122
115
110
110
117
120
122
125
127
127
122
120
117
115
120
120
115
115
115
117
115
107
107
107
110
117
117
112
112
112
117
112
112
107
105
112
115
110
107
112
120
112
112
112
110
110
112
110
112
112
103
110
122
142
144
142
142
142
139
134
134
132
132
132
125
120
115
115
117
122
122
125
125
122
125
122
120
117
120
122
112
105
112
112
110
107
107
110
115
122
117
115
112
115
115
110
112
112
110
112
112
110
115
117
115
107
110
112
110
110
107
107
110
107
103
110
122
137
144
144
139
139
137
132
132
132
132
132
129
122
122
120
115
120
120
120
120
120
117
120
120
115
117
120
112
110
115
117
110
110
110
117
117
120
117
115
115
112
112
112
112
110
110
107
110
110
115
115
112
107
112
110
105
105
105
107
110
103
100
107
120
132
142
144
142
142
137
129
125
125
129
129
127
125
125
122
117
117
117
120
122
120
115
117
122
120
120
115
112
117
117
117
110
112
117
122
120
112
112
112
115
110
110
110
112
107
107
105
103
110
115
117
115
112
112
112
112
110
107
100
100
105
98
105
117
129
137
142
144
144
139
132
125
122
125
125
125
122
122
122
120
117
115
117
125
122
117
120
125
125
120
115
117
112
115
117
115
117
117
117
117
110
110
112
112
112
107
107
112
110
105
105
105
107
112
115
115
112
112
115
122
117
112
105
98
100
95
103
112
125
134
139
142
144
142
134
125
122
120
122
122
120
120
117
117
120
117
117
125
120
117
122
125
122
117
117
120
120
115
117
115
115
117
115
112
110
110
112
110
112
110
105
110
107
105
110
105
105
110
110
117
117
112
115
120
115
112
112
105
100
93
103
110
125
129
137
144
147
142
134
125
127
122
120
120
122
117
115
117
120
117
117
120
120
117
120
122
115
115
120
120
122
122
115
112
115
112
110
115
115
115
112
110
112
110
105
107
107
107
110
105
107
110
110
112
110
112
112
110
107
115
117
110
105
98
103
107
122
129
134
139
142
139
134
127
129
125
117
120
122
122
120
115
115
117
120
110
115
120
120
117
112
117
117
120
120
120
112
115
115
112
112
112
115
115
117
112
107
105
103
107
110
110
107
107
112
112
115
110
105
107
112
112
115
115
110
110
112
98
100
105
120
132
137
137
139
144
134
127
127
125
120
122
122
125
117
115
117
117
117
115
117
120
117
117
120
112
112
115
117
117
107
105
107
110
112
112
112
115
120
112
105
105
107
112
112
105
110
115
115
115
115
112
107
105
112
112
115
112
110
112
115
93
98
105
117
132
137
139
137
139
134
132
132
127
125
127
129
127
120
115
117
117
117
117
117
117
117
117
120
117
112
110
115
120
115
112
112
117
117
115
115
115
112
110
105
107
110
115
107
103
107
115
115
112
112
107
105
107
112
110
115
110
110
112
112
91
100
105
115
127
132
134
137
137
134
132
129
125
129
132
127
122
117
112
115
117
117
117
122
122
120
117
115
112
107
107
112
115
112
112
115
117
112
112
112
110
107
107
105
103
105
107
105
107
105
107
110
107
107
107
105
110
117
115
112
107
107
110
110
93
98
103
112
125
132
129
134
137
134
132
125
122
125
125
122
120
117
117
117
117
120
120
125
125
122
122
122
117
112
115
110
105
103
107
110
115
110
110
110
103
107
110
107
105
110
110
110
107
103
100
103
105
107
112
107
112
115
110
107
105
105
107
112
91
95
103
110
122
127
132
134
139
137
129
125
122
125
122
120
120
117
120
120
122
122
115
120
125
120
122
122
117
115
112
105
100
105
110
107
112
110
110
105
103
107
110
115
115
112
110
110
105
100
100
105
107
107
112
112
112
112
110
110
105
105
107
110
91
98
103
110
120
122
127
132
137
137
132
125
125
125
122
120
117
117
117
120
120
120
115
120
120
120
120
117
107
110
105
98
100
110
117
112
110
107
107
105
103
105
103
103
107
112
107
110
107
105
105
107
103
103
105
103
100
103
105
110
103
100
105
110
93
98
103
110
122
125
127
127
129
132
134
127
125
125
120
117
117
112
115
112
115
115
115
120
122
120
117
107
107
107
105
100
103
110
112
107
112
107
100
100
98
100
103
100
98
105
107
107
107
107
105
103
98
103
105
103
103
107
107
103
98
98
105
107
95
100
103
107
122
125
125
125
125
129
134
127
125
122
120
117
117
112
112
115
117
120
122
127
127
122
112
112
115
112
110
103
105
103
103
107
110
110
103
98
95
98
100
98
98
103
105
110
107
103
100
98
100
105
107
107
107
110
103
98
98
100
105
107
95
98
100
107
117
122
120
120
127
132
132
125
122
120
120
117
115
115
110
107
115
120
125
129
127
122
117
112
110
107
107
103
100
98
100
105
105
105
103
100
95
93
98
98
100
105
105
105
103
105
107
103
107
107
110
110
107
105
100
100
100
95
98
100
93
98
100
105
112
117
117
122
129
125
125
120
115
115
112
112
112
115
110
112
115
120
125
127
127
120
117
110
110
107
110
103
98
98
103
107
105
103
98
103
95
93
98
98
98
100
103
107
105
107
103
103
107
110
112
107
103
98
98
103
98
95
91
89
95
100
105
107
112
122
120
122
125
122
122
120
110
110
107
107
112
112
110
112
115
122
125
125
120
115
115
115
110
107
110
105
100
100
103
107
103
105
103
98
93
93
98
100
103
95
100
105
103
103
103
103
103
110
110
105
103
100
95
93
95
95
91
93
98
100
103
105
112
122
122
120
120
120
122
117
112
115
112
112
115
115
115
112
115
122
127
125
117
112
115
117
117
110
110
105
105
107
103
105
107
103
103
98
91
93
100
103
105
100
103
95
95
98
100
103
100
107
105
103
103
100
98
95
93
95
98
95
95
100
100
103
112
117
122
125
125
117
115
117
120
120
117
117
117
120
120
115
120
122
125
122
120
117
117
117
122
110
107
105
107
110
107
107
110
103
100
103
100
103
100
98
100
103
105
98
98
100
98
100
100
103
100
100
103
105
107
98
93
98
105
95
95
100
103
105
112
117
120
125
125
117
115
120
120
120
120
122
122
122
120
117
125
120
117
115
115
120
117
117
117
110
107
110
112
112
112
110
107
105
103
105
105
105
105
98
98
105
105
105
103
100
103
100
103
105
103
100
103
103
103
98
95
98
98
95
95
100
100
105
107
115
115
115
120
117
115
120
117
117
122
125
125
120
117
122
122
117
115
112
115
122
122
115
112
115
110
112
110
107
117
112
107
110
107
100
103
103
105
105
105
103
103
105
110
105
103
105
107
105
107
110
107
105
105
98
93
95
95
98
93
100
100
103
103
110
115
112
115
120
122
125
120
122
122
125
125
122
120
122
122
117
120
120
122
122
120
112
110
112
115
117
110
107
117
112
107
112
110
98
100
100
103
105
107
100
98
103
110
105
105
105
105
105
107
110
107
103
103
100
95
98
98
103
91
103
105
110
110
115
117
115
115
117
120
125
125
122
120
120
117
122
120
115
112
117
120
120
120
117
117
112
110
112
117
115
107
105
110
110
107
110
110
100
103
100
103
107
110
105
103
105
112
107
105
103
103
103
105
107
103
100
100
98
93
98
103
105
93
103
105
110
112
117
117
115
115
115
112
117
125
122
120
120
122
122
120
115
115
117
117
120
117
112
115
115
112
112
115
112
107
105
110
110
107
107
107
103
100
103
107
107
110
107
107
107
110
103
103
105
103
100
107
103
100
98
95
98
98
100
103
103
93
103
98
103
110
112
117
115
112
112
112
112
117
117
117
117
122
122
120
115
117
120
122
117
115
115
112
112
115
115
112
112
107
103
107
115
110
103
105
105
103
110
112
107
105
107
105
105
103
103
105
105
100
98
98
100
98
98
98
100
95
98
103
103
91
98
93
98
103
107
112
117
112
105
105
105
110
112
112
117
122
122
125
122
117
117
122
125
117
117
112
115
117
117
115
112
107
105
105
112
112
103
105
105
105
110
110
105
103
105
98
98
103
105
103
100
98
98
95
98
98
103
100
98
95
98
103
107
84
89
91
95
103
107
112
115
110
107
105
107
110
110
110
112
120
125
125
120
115
117
125
127
125
117
112
112
115
112
110
107
110
110
107
110
107
103
107
112
110
105
105
103
105
110
107
105
103
105
100
100
98
98
98
100
98
100
98
98
95
98
105
107
84
89
91
100
105
110
110
110
110
107
105
107
112
110
112
115
120
122
117
120
122
117
122
127
127
120
117
112
112
112
112
110
112
112
110
107
103
103
103
105
107
105
105
103
107
115
115
110
105
107
103
103
103
100
103
100
95
98
93
93
98
103
110
115
84
89
95
103
107
112
112
110
110
107
98
105
107
110
112
117
120
122
120
122
125
120
120
115
117
117
117
115
115
112
117
115
110
110
107
100
95
98
100
105
105
107
107
110
110
110
115
110
107
107
110
107
105
103
100
100
98
95
95
95
98
105
115
115
89
86
93
105
107
110
110
110
107
103
100
103
103
105
110
117
120
120
122
122
120
120
120
117
117
117
115
117
112
112
120
115
107
103
100
95
98
100
100
107
110
107
107
110
110
112
112
112
107
107
107
105
103
103
103
103
103
100
95
95
100
105
112
117
89
89
93
103
105
105
107
105
103
100
103
100
103
107
112
117
117
115
120
120
117
117
120
125
120
117
117
117
115
112
115
112
107
107
103
103
105
105
105
110
107
105
107
107
107
112
112
107
110
107
105
103
103
103
103
105
105
103
98
98
103
107
112
120
86
89
95
100
100
105
107
100
98
98
103
100
103
105
112
115
117
115
115
117
115
112
112
115
117
115
112
115
117
120
117
112
112
110
110
110
107
107
103
103
107
107
110
110
112
112
110
110
110
107
105
103
103
105
103
103
98
95
98
100
103
105
112
117
86
91
95
95
98
105
103
100
95
91
95
103
103
98
107
115
115
115
112
117
115
107
107
112
115
115
117
120
120
120
117
117
117
107
110
110
107
103
100
103
103
107
107
110
112
107
112
112
112
110
107
105
105
103
103
103
98
98
98
98
100
105
110
112
86
91
95
91
95
103
103
103
100
98
98
103
100
98
100
107
107
115
115
115
112
110
115
120
117
122
120
117
115
117
117
115
115
112
110
110
110
107
105
103
105
107
110
110
105
105
107
107
107
110
110
103
100
103
103
103
103
103
98
95
105
107
107
112
86
89
91
91
93
100
103
103
103
100
95
98
98
98
98
103
105
112
110
107
110
115
115
117
117
120
117
112
115
115
110
110
112
112
110
107
105
105
105
107
110
110
110
110
107
105
105
103
103
103
103
103
105
103
103
100
98
103
98
95
107
110
115
115
86
93
91
93
95
98
103
98
95
93
93
100
100
103
100
98
103
105
105
107
110
115
115
120
117
120
120
115
115
112
115
117
112
110
112
110
103
105
107
107
107
110
105
105
107
107
107
105
103
103
100
103
100
98
98
98
98
100
93
95
105
112
117
120
89
95
93
91
91
98
105
98
91
91
93
100
103
105
105
103
103
110
107
110
112
115
120
125
120
117
122
122
117
115
117
120
115
110
112
112
105
105
110
110
105
103
105
110
107
112
110
107
105
100
95
95
95
95
93
95
98
95
93
95
98
105
110
112
86
93
91
93
95
98
103
103
98
91
95
95
98
100
100
100
105
110
107
110
110
112
115
122
120
117
120
120
115
117
122
122
115
110
110
112
110
110
115
115
105
103
100
107
110
103
107
105
105
100
93
95
95
93
93
93
91
91
93
93
95
98
100
103
84
89
91
91
95
98
100
98
93
91
93
93
89
89
93
95
100
105
105
112
115
115
117
122
120
115
120
117
115
115
117
117
112
107
112
115
112
110
112
107
107
105
95
98
100
98
100
103
105
100
95
95
93
91
89
89
89
86
84
86
91
93
91
93
