P2
# 519 of 608 Angiograms
64 64
255
93
95
95
100
98
91
93
100
103
98
95
91
89
93
93
93
98
105
103
100
105
95
98
105
103
103
100
100
103
103
100
100
100
107
107
100
93
89
89
89
93
95
98
93
89
91
98
95
95
95
91
93
93
93
93
89
89
95
98
98
95
98
98
100
95
100
100
100
95
89
91
98
103
95
98
91
84
95
95
95
100
105
103
103
103
98
100
103
103
100
95
100
98
95
98
103
103
107
107
98
93
91
91
91
91
95
100
95
93
93
95
100
100
95
95
95
91
89
95
89
86
93
98
100
100
98
100
103
91
95
95
95
95
93
93
95
100
95
98
98
93
95
100
103
103
103
103
103
103
103
100
95
98
103
100
103
100
95
98
98
100
105
105
100
98
93
95
95
91
95
100
95
93
93
93
95
100
91
89
95
93
91
93
91
95
98
98
98
100
100
103
103
89
93
93
93
95
93
95
95
98
100
98
95
95
100
103
105
107
103
105
103
103
105
103
98
93
98
100
105
105
103
107
100
100
100
100
98
95
93
95
98
95
98
98
95
95
98
98
100
98
93
93
98
95
95
95
95
100
100
93
93
98
100
100
95
91
93
98
93
98
95
93
93
95
100
98
95
98
98
103
100
107
105
103
100
100
103
100
103
98
95
100
103
103
100
98
95
100
98
98
95
95
95
98
98
100
98
98
98
95
100
98
103
95
95
95
100
98
95
95
95
100
95
89
93
95
98
95
93
93
93
100
103
105
98
100
100
100
98
98
98
100
98
100
100
107
103
103
100
98
98
98
98
100
100
100
98
105
100
91
95
100
98
98
93
89
95
107
105
103
100
98
98
100
105
98
98
93
98
95
93
95
95
95
95
95
93
91
91
93
95
93
93
98
100
105
105
103
100
98
103
103
93
91
93
95
98
103
103
100
95
100
98
93
95
100
93
95
98
95
95
105
103
95
98
100
98
98
95
93
93
103
103
103
100
100
103
105
100
95
93
93
95
93
95
95
95
95
98
95
98
91
89
91
93
93
93
98
100
100
103
105
98
93
98
93
91
86
91
93
95
103
95
91
93
98
98
95
98
100
95
95
98
98
100
103
100
95
95
100
103
95
93
98
95
98
95
98
98
100
103
103
95
93
93
98
95
91
93
93
95
98
95
95
95
89
91
91
91
89
95
103
98
100
100
103
95
89
98
95
91
93
93
93
93
98
98
98
100
100
105
100
105
105
105
105
105
100
100
103
100
93
91
95
100
93
91
93
98
98
95
95
100
98
95
100
100
100
100
100
100
93
93
95
98
100
95
91
95
95
91
91
91
91
98
100
93
100
103
107
98
93
98
98
98
98
93
91
95
98
100
100
98
95
100
95
98
103
105
110
107
100
98
98
95
93
93
95
95
93
93
93
95
98
98
98
100
98
93
98
103
98
103
105
100
93
93
95
98
95
93
93
98
98
91
91
91
93
100
93
93
100
100
105
98
91
95
98
103
103
93
93
103
100
95
103
98
93
100
98
95
95
98
98
100
100
98
100
100
98
98
95
93
93
98
95
93
95
100
98
98
98
93
100
105
100
100
105
98
93
91
95
98
91
93
98
95
95
98
95
98
95
100
91
93
103
107
105
98
91
93
93
98
98
95
100
103
100
100
103
98
91
100
100
95
91
91
93
98
100
95
98
103
103
100
95
89
91
95
93
89
93
95
93
98
95
93
98
98
100
105
100
100
98
98
103
103
95
93
98
98
95
100
100
95
95
100
95
93
100
107
107
98
95
100
98
95
103
100
100
98
98
103
100
93
93
100
100
95
93
93
98
100
100
95
95
100
103
100
95
93
95
98
93
89
89
95
98
100
98
95
98
98
100
103
100
100
100
105
107
100
98
100
100
95
93
98
95
93
93
100
98
95
98
103
100
98
95
98
98
98
103
100
103
100
98
98
95
93
93
98
95
93
93
98
100
98
100
98
95
100
103
100
98
95
100
103
98
95
95
103
103
103
100
103
98
98
100
107
105
105
105
110
105
98
98
100
100
95
98
95
93
93
95
100
98
98
98
98
95
100
98
95
98
103
105
103
100
100
98
95
98
95
98
91
86
95
95
100
100
100
103
100
100
98
103
103
98
98
100
103
103
105
100
103
98
98
100
100
100
100
105
103
100
105
110
112
105
100
98
95
95
98
103
95
93
98
98
95
98
100
100
100
98
95
95
95
103
105
103
100
98
100
98
98
100
105
98
93
89
93
93
98
100
98
103
103
103
103
103
105
100
98
98
100
105
103
100
98
93
95
98
95
95
103
105
100
100
100
103
107
103
105
100
93
98
98
103
98
98
98
98
95
100
103
98
100
98
93
95
98
105
105
105
103
100
95
93
95
98
103
100
95
91
91
93
98
103
100
100
103
100
103
105
100
98
98
95
100
98
95
100
100
100
98
98
95
93
98
103
100
103
100
98
98
103
107
100
95
93
93
100
100
95
100
103
103
100
103
95
98
95
98
98
100
103
105
105
100
95
95
95
98
100
103
100
95
95
93
91
98
105
100
103
105
103
105
105
95
91
95
98
103
103
95
100
107
103
100
100
103
100
100
103
105
105
105
103
98
100
98
98
95
91
95
98
100
100
100
103
105
100
100
98
93
95
98
100
105
107
105
103
95
95
95
95
98
105
105
103
98
105
103
95
95
95
100
103
105
105
107
103
93
91
98
100
103
100
98
100
105
107
107
107
107
110
105
105
107
105
107
107
103
100
95
95
95
95
98
98
103
103
103
105
110
95
98
98
95
98
100
100
103
105
100
100
98
100
100
95
100
103
105
105
98
100
103
100
100
100
100
100
98
98
103
103
93
98
100
103
103
103
103
103
103
107
107
107
110
112
105
103
100
103
107
107
105
100
100
98
98
98
100
105
105
100
105
110
110
95
98
95
100
103
100
98
100
100
98
98
93
95
98
98
105
103
98
98
100
98
100
100
100
103
103
98
95
95
100
100
95
93
98
103
103
105
107
103
98
103
103
100
103
103
100
98
95
100
100
107
107
103
103
103
100
100
103
103
98
98
100
105
103
100
98
98
98
100
100
100
100
100
95
95
89
93
95
98
103
100
95
95
98
100
100
95
103
103
103
105
103
98
100
98
100
103
103
103
105
100
105
103
95
93
93
98
103
103
100
103
105
103
100
100
107
105
105
107
103
100
103
100
95
98
95
100
98
93
100
98
100
103
107
103
100
103
100
93
91
95
95
93
100
100
98
95
98
100
100
100
105
105
103
103
103
100
98
100
103
105
105
105
105
103
98
95
93
91
91
95
100
103
105
103
105
110
107
103
105
107
112
112
105
103
107
105
98
103
100
100
105
91
100
103
100
103
105
103
100
98
105
98
95
100
98
95
98
100
100
91
93
93
98
98
105
107
100
98
100
100
98
100
105
105
103
100
100
98
100
98
95
93
95
100
100
103
103
100
100
103
105
105
103
107
110
107
100
100
105
103
100
105
105
103
103
93
95
98
100
100
103
103
103
98
103
98
100
98
100
93
89
95
100
100
95
95
100
95
95
103
103
98
98
100
98
98
100
103
100
100
100
100
105
107
105
105
103
100
100
98
93
98
103
100
103
100
103
110
107
103
98
103
98
100
107
107
107
98
98
93
95
98
103
105
103
103
103
103
98
98
100
98
98
93
84
91
98
98
98
95
100
98
98
100
100
105
100
100
95
95
91
98
98
100
103
100
105
110
107
110
105
98
100
98
95
95
98
98
100
103
107
105
103
103
105
105
100
103
110
105
103
98
98
95
100
103
105
103
103
100
95
98
95
98
98
95
95
95
93
91
95
98
100
95
100
98
98
95
95
103
98
100
98
95
93
93
95
100
98
93
98
100
103
107
103
100
100
100
100
95
95
98
103
105
105
103
98
98
100
110
107
105
105
105
100
100
105
95
103
107
107
100
98
98
103
100
100
98
98
100
100
98
91
93
98
98
100
93
95
100
98
95
95
95
95
98
103
100
95
91
98
103
95
89
91
93
98
100
100
103
103
103
100
93
95
100
103
105
105
100
98
100
98
103
107
105
103
103
100
103
105
98
103
105
103
103
98
95
98
100
98
91
95
105
98
91
89
91
98
95
100
98
103
105
100
98
93
93
95
98
103
103
100
100
105
100
95
91
93
95
95
98
100
100
100
103
103
100
98
95
100
103
98
98
95
100
103
103
103
103
103
103
103
103
107
100
98
93
95
95
93
93
98
98
95
89
98
103
98
93
89
89
98
98
103
105
107
105
100
95
95
98
95
100
105
103
95
100
98
95
93
93
93
91
93
98
98
98
95
103
103
100
98
95
103
100
95
93
98
100
100
98
100
103
103
103
103
107
110
98
95
93
103
98
91
95
105
103
103
95
100
98
95
95
93
93
98
103
105
105
107
105
98
95
95
98
95
103
100
98
98
93
93
98
95
95
98
98
93
98
98
95
100
105
105
103
103
100
105
107
100
98
98
100
100
98
100
98
98
105
105
110
107
93
89
95
105
100
93
103
105
100
100
95
98
98
98
95
98
95
95
100
98
103
105
103
95
95
93
95
103
105
100
93
95
93
95
103
98
103
103
98
95
98
95
95
100
103
103
105
105
105
105
105
105
95
93
95
100
100
100
100
100
105
105
105
105
98
93
95
100
100
98
100
98
100
95
91
95
103
95
95
98
100
98
98
100
105
105
100
93
95
95
95
103
100
100
98
93
93
95
100
100
105
100
95
95
100
98
93
98
100
100
103
100
100
105
107
103
98
93
98
95
93
93
100
100
103
110
110
105
100
98
98
95
98
98
100
98
93
91
91
95
98
91
93
95
105
98
95
98
100
103
100
95
98
95
95
98
98
98
100
98
100
95
95
95
100
98
103
100
100
98
93
95
100
98
100
100
103
105
105
100
98
98
98
95
95
95
95
98
100
107
112
103
100
100
100
98
98
98
100
103
100
91
95
100
98
95
98
98
103
98
98
95
95
98
100
100
98
91
93
95
98
100
98
98
100
98
95
98
100
98
105
107
105
100
98
98
95
93
95
98
105
105
100
105
100
100
100
98
95
100
103
98
98
95
98
98
100
103
100
93
100
103
103
98
103
103
95
98
95
95
98
95
95
93
95
100
103
103
103
105
103
95
98
98
98
95
91
91
93
95
100
103
100
100
105
105
105
100
98
100
100
98
95
98
100
100
100
110
105
98
100
98
98
100
103
100
103
100
100
100
103
103
100
93
100
103
105
100
100
107
103
100
95
95
95
95
93
91
98
100
95
103
105
100
100
103
105
103
95
91
93
91
91
93
103
103
100
103
105
100
100
98
103
100
100
100
95
98
100
98
100
105
100
98
98
98
105
100
100
95
100
103
100
98
98
103
100
95
95
100
103
105
103
103
100
95
95
93
93
98
100
100
100
95
91
93
98
100
98
100
103
105
93
89
93
95
89
95
103
100
98
100
100
98
100
98
95
95
98
98
98
100
98
98
100
100
100
100
98
98
100
98
100
98
95
100
98
98
100
103
98
95
95
95
100
103
105
98
98
95
95
95
100
105
107
105
103
98
93
95
98
100
100
93
91
98
98
95
100
100
95
93
98
98
98
98
95
95
100
98
98
98
95
95
95
98
100
98
93
93
98
100
98
95
98
98
98
98
100
100
95
98
105
100
100
98
95
93
98
98
100
98
100
95
93
95
98
105
110
107
105
98
103
103
103
103
103
98
91
95
100
98
100
98
100
100
100
100
98
98
98
98
100
100
98
95
91
95
95
95
98
93
91
93
95
95
93
89
91
95
95
98
103
98
98
100
98
103
98
98
95
91
93
95
93
89
93
93
86
93
95
95
100
105
103
98
100
105
103
103
103
103
95
93
98
98
100
98
105
103
100
95
91
93
98
100
103
107
103
98
95
95
91
91
95
93
95
95
98
98
95
89
89
95
98
93
95
95
103
103
91
91
89
91
95
93
93
91
89
89
93
93
86
93
98
95
86
93
98
98
100
98
95
95
98
103
100
95
93
98
103
105
103
100
98
93
89
89
95
100
100
98
100
98
98
98
93
89
91
91
91
93
98
100
98
91
86
95
103
98
91
98
105
103
93
91
91
95
98
98
100
95
98
100
98
95
93
95
98
95
89
89
93
95
100
98
95
93
95
103
100
93
95
95
93
100
98
100
100
98
95
93
91
98
98
91
91
95
95
95
95
93
91
93
91
93
95
98
98
93
91
98
103
93
91
100
103
100
93
93
91
91
93
98
100
100
100
105
103
95
95
98
100
103
98
93
93
98
95
95
100
100
93
98
98
95
95
91
91
95
100
105
103
103
103
98
91
98
93
93
91
91
95
93
89
91
93
98
98
95
93
98
98
98
95
98
93
89
91
98
103
100
98
98
91
91
91
93
98
103
95
95
95
91
95
100
98
103
100
100
98
93
93
95
100
98
93
93
98
103
100
95
93
95
98
98
100
103
100
98
95
93
95
95
95
93
93
98
103
100
100
103
98
98
95
98
98
98
93
95
91
93
95
103
100
95
93
95
91
91
91
91
95
98
91
95
95
98
95
98
95
93
93
95
98
95
95
95
91
91
95
95
100
98
98
100
95
91
91
91
91
98
100
98
98
98
98
95
95
95
93
98
107
105
100
103
98
98
98
95
98
95
91
91
93
95
98
103
100
95
91
91
95
98
98
100
98
91
93
98
100
95
95
95
95
93
95
98
98
95
100
95
89
91
95
98
98
98
98
98
98
93
91
93
95
91
100
103
103
103
103
100
98
98
98
98
103
98
100
103
103
103
98
93
98
98
95
93
93
93
95
100
98
98
95
95
98
100
100
98
98
93
91
95
98
95
93
95
91
86
93
98
100
100
95
98
91
91
95
100
98
98
95
98
95
93
93
93
100
98
98
103
98
98
98
105
107
105
103
100
100
103
98
103
103
98
98
98
100
100
100
98
95
93
93
98
98
95
100
105
100
98
95
98
95
93
91
93
98
95
95
98
93
84
91
93
93
93
91
95
95
91
93
98
95
95
93
98
95
95
98
98
100
103
100
103
98
93
95
98
105
107
105
100
95
100
93
95
95
95
95
100
105
95
98
103
100
93
91
95
98
98
98
107
103
98
95
95
95
91
91
98
100
93
98
100
100
91
93
98
95
91
91
95
95
93
93
95
91
91
93
95
93
95
95
93
98
100
103
100
91
91
98
98
100
100
100
98
98
100
103
98
95
98
100
100
105
100
100
105
100
98
100
95
95
105
100
103
103
98
93
89
91
91
98
95
95
95
100
103
103
100
100
100
95
95
98
100
95
93
98
98
91
91
95
100
100
98
95
93
98
103
105
98
91
98
95
98
95
98
100
98
93
93
100
107
100
103
105
100
103
98
98
100
100
103
103
98
103
105
95
93
93
98
93
86
89
95
100
98
100
100
98
95
100
95
98
100
100
100
98
100
100
100
103
98
89
91
98
103
103
100
103
100
103
107
107
103
95
100
98
98
98
95
100
100
98
91
93
103
98
103
105
103
100
95
91
100
100
103
100
100
98
103
93
91
95
100
95
93
93
95
100
103
105
100
98
93
93
95
95
98
98
103
105
100
98
98
100
95
86
89
98
105
105
105
107
105
105
103
105
105
100
98
100
103
100
95
100
105
105
103
98
100
95
100
103
103
100
93
93
98
103
100
95
95
98
105
93
93
91
98
95
95
95
100
105
107
103
98
95
91
86
84
89
95
98
103
105
95
95
100
100
98
93
95
100
105
100
98
95
95
98
98
100
107
103
103
100
98
98
100
103
107
107
105
105
100
95
100
105
100
100
100
100
98
100
100
98
100
95
103
93
98
98
100
98
95
100
103
107
107
100
93
93
91
91
91
93
100
95
98
100
93
98
98
100
103
103
105
105
103
98
95
93
95
100
98
98
103
100
98
105
100
100
103
103
107
105
107
110
105
95
100
105
100
103
103
100
95
98
100
98
103
98
100
100
103
103
103
105
103
95
98
98
100
98
100
100
98
95
95
95
98
100
98
95
95
98
95
95
103
105
110
105
103
100
103
100
100
95
98
100
100
100
98
103
110
103
100
100
100
103
103
103
105
98
98
100
100
100
100
103
100
95
100
98
105
103
103
103
103
103
103
100
105
98
93
95
98
100
98
98
95
95
98
98
100
103
103
100
100
100
98
98
103
105
105
100
98
100
100
103
95
98
103
100
98
100
100
98
103
98
98
89
86
93
100
98
100
95
91
93
95
103
105
105
103
95
100
100
105
103
105
103
98
98
98
98
103
103
95
98
98
100
98
100
100
105
105
100
98
100
105
107
107
105
103
103
107
105
103
98
95
95
100
103
98
107
105
103
103
105
100
95
93
91
93
95
93
91
93
95
98
98
98
95
95
103
107
103
95
98
107
98
100
95
98
103
105
105
103
98
100
105
103
98
100
100
93
98
103
105
105
103
100
105
103
103
103
105
105
107
105
105
105
98
98
98
98
100
105
110
107
103
103
105
100
93
91
93
93
98
103
103
100
98
98
98
103
100
98
103
100
95
95
98
100
100
98
95
98
105
110
110
107
103
103
105
103
100
100
95
93
98
103
107
107
112
107
110
103
98
100
103
105
100
98
98
100
95
95
100
95
98
100
105
103
98
100
110
105
98
95
98
100
98
103
107
105
103
100
103
105
100
103
103
95
93
100
100
98
98
103
100
100
105
107
115
105
105
105
105
103
98
100
98
98
98
98
100
107
110
107
107
98
95
103
107
103
98
98
98
103
98
93
93
95
93
98
105
105
103
103
107
100
98
95
93
98
103
98
98
100
98
95
100
105
100
100
100
100
100
98
103
100
98
100
98
95
107
107
105
103
103
100
105
110
105
103
103
103
105
105
105
105
107
115
115
107
100
103
107
105
100
100
95
100
98
98
95
93
93
95
103
103
98
98
103
100
100
98
91
93
98
98
95
98
95
95
100
107
100
105
110
107
100
95
100
100
103
100
100
103
107
103
103
103
100
100
110
115
110
110
110
107
107
110
107
107
107
110
110
107
105
98
103
103
105
103
95
100
98
100
98
98
98
100
107
105
98
100
105
103
103
103
98
98
100
100
93
93
95
98
98
105
107
110
112
105
98
95
98
105
103
100
103
103
107
105
103
100
103
105
110
115
107
105
107
105
103
105
107
105
100
98
100
98
100
100
98
103
105
100
98
100
100
103
105
105
105
103
105
105
105
103
103
103
103
107
103
105
107
105
100
95
95
98
103
105
110
110
107
103
105
105
107
105
103
100
100
103
