P2
# 520 of 608 Angiograms
64 64
255
107
100
103
107
112
107
103
103
105
103
98
103
107
103
103
100
105
107
105
103
100
95
98
100
100
107
105
100
103
100
103
103
103
105
100
95
91
93
91
89
91
86
84
82
84
91
89
91
89
86
86
84
86
82
84
82
86
86
84
82
89
82
82
84
105
110
107
105
107
105
103
103
105
105
103
107
107
105
110
107
105
105
103
98
91
93
103
103
100
107
110
107
107
105
100
105
107
105
100
93
91
91
89
89
89
86
86
80
80
82
86
82
78
80
84
82
82
84
82
86
91
86
86
82
84
84
86
86
103
110
107
105
105
103
103
105
105
107
107
110
107
105
107
107
105
107
103
100
95
100
105
103
103
105
107
115
110
103
98
103
105
105
95
91
93
91
89
93
91
84
82
84
82
80
82
76
76
78
84
86
80
82
80
80
86
89
89
86
82
84
91
93
103
107
107
103
105
105
105
103
103
105
107
110
107
107
103
105
110
115
110
107
110
110
110
107
110
107
103
112
110
100
103
103
103
100
98
100
98
95
95
95
89
82
82
84
78
80
84
80
72
74
78
84
78
80
76
78
86
91
91
86
82
86
93
89
103
107
103
103
103
107
107
103
100
100
107
110
105
105
103
103
107
107
103
107
107
110
110
110
110
107
103
107
107
103
105
105
100
100
103
103
100
100
100
93
84
82
84
84
82
84
84
84
74
76
80
82
80
78
80
84
91
93
91
86
82
82
89
89
100
107
107
105
105
105
107
105
100
103
107
105
105
105
107
103
103
105
103
103
103
105
110
107
110
107
105
100
98
100
103
103
100
103
98
95
98
98
95
89
78
80
89
89
86
82
82
86
80
82
82
80
82
84
84
86
89
89
86
82
80
80
84
89
98
105
107
105
107
105
105
107
105
103
105
100
105
110
110
103
107
110
103
105
100
98
103
110
117
112
107
103
98
103
103
100
105
110
98
95
98
95
91
82
78
78
84
84
78
80
82
82
78
82
80
80
80
82
84
82
82
82
82
78
78
82
86
89
98
103
105
105
110
110
107
110
110
103
103
105
105
110
105
103
107
105
105
105
103
100
103
107
115
110
107
103
100
107
105
103
105
110
98
93
98
98
95
86
82
78
80
84
80
86
84
86
80
80
80
78
82
80
80
78
84
80
84
78
76
80
80
84
93
98
103
105
107
105
105
112
112
105
103
103
100
105
103
98
100
103
103
100
100
103
107
105
112
112
105
105
103
103
103
105
107
110
103
95
95
91
86
84
89
86
86
84
84
89
89
86
84
80
84
84
82
80
82
84
89
84
82
80
78
78
78
84
95
93
100
103
105
107
107
112
110
103
98
93
98
100
103
100
98
98
98
100
100
100
103
100
105
112
105
105
103
103
105
103
103
107
103
98
93
91
82
78
84
89
93
89
86
86
89
89
82
78
82
80
82
82
82
84
84
80
84
86
86
89
89
86
95
93
95
103
105
103
103
105
103
100
98
98
103
100
100
100
98
95
98
103
105
103
105
103
103
105
103
98
98
95
98
100
100
105
98
91
91
91
82
78
78
82
86
86
84
84
82
86
82
82
84
86
82
82
82
82
80
82
89
84
84
84
86
86
100
98
98
100
100
98
98
100
98
98
93
100
103
100
95
93
91
95
98
98
103
105
105
103
103
105
105
100
100
95
98
105
105
105
98
91
93
89
82
80
82
82
86
84
84
86
84
84
84
82
84
89
84
86
82
78
84
86
86
82
84
80
84
86
98
98
98
100
100
95
95
93
91
93
95
103
103
103
103
98
93
91
93
100
105
107
105
95
100
105
100
98
98
98
103
105
103
103
100
93
91
89
86
86
84
82
89
86
86
89
89
89
86
84
89
86
89
91
82
82
82
84
82
86
89
86
84
84
98
100
100
98
98
100
95
89
89
95
98
100
100
103
105
103
95
91
93
103
105
105
103
100
93
100
95
95
91
91
95
100
103
103
98
93
91
86
91
89
82
84
86
86
82
89
86
89
91
89
93
93
91
93
84
89
89
82
82
84
84
89
91
89
100
95
95
91
93
100
98
89
86
89
93
95
100
105
110
105
98
93
91
98
103
100
103
100
95
98
95
100
93
93
91
93
95
98
93
89
86
86
82
78
84
84
86
91
89
86
89
86
89
93
95
95
89
91
89
91
89
82
80
82
82
84
89
89
103
98
95
93
93
100
98
91
86
86
89
91
98
103
105
103
98
91
93
93
98
100
105
103
103
103
100
98
93
98
98
95
95
93
89
84
84
89
84
78
84
82
82
91
91
91
86
84
89
91
93
91
82
86
86
89
91
82
80
80
78
80
82
86
98
93
93
91
86
91
95
93
91
86
89
95
95
95
95
98
93
91
95
98
98
103
103
100
100
103
105
98
93
95
98
95
93
91
86
89
89
89
89
86
89
89
89
89
89
89
91
89
86
91
91
89
82
86
89
89
91
84
82
86
84
80
78
76
93
89
89
89
91
91
91
93
93
91
95
100
98
98
95
98
105
103
100
100
95
98
100
100
98
103
103
98
95
93
95
98
93
86
86
91
89
86
89
95
95
93
95
91
91
89
91
95
93
93
91
91
82
86
91
89
89
86
82
82
80
78
74
74
91
93
91
93
93
95
93
93
95
95
103
103
100
98
93
95
103
105
103
98
95
95
98
100
100
95
95
95
95
98
100
98
91
89
93
93
89
93
91
93
93
93
95
93
86
91
93
98
95
98
95
91
86
89
86
86
84
84
84
82
80
80
78
80
95
98
95
93
95
91
89
89
91
95
107
105
100
95
98
91
93
95
93
89
91
95
95
95
98
95
93
95
95
95
93
95
95
98
95
93
93
91
91
91
91
93
95
93
84
89
95
98
93
93
95
93
89
86
84
82
82
80
82
80
84
86
78
80
103
98
93
93
95
93
91
89
86
89
100
98
93
89
89
89
95
95
89
93
93
93
95
95
98
98
95
95
100
95
86
86
91
95
98
95
98
91
91
89
93
93
91
86
84
86
89
89
86
91
91
89
91
89
89
84
84
86
84
80
82
84
86
80
95
95
93
93
95
93
91
91
86
91
105
95
91
91
93
95
98
95
98
103
95
93
93
95
98
95
93
95
98
95
93
91
91
93
95
95
93
91
86
91
93
91
89
82
84
89
86
89
89
91
91
89
89
82
82
84
84
84
89
80
80
82
86
89
100
98
95
95
93
93
95
98
91
89
95
95
95
98
100
98
93
95
100
100
93
93
89
89
93
93
95
98
98
98
95
89
89
93
93
93
93
91
84
91
95
95
89
86
91
95
93
89
89
91
86
89
86
84
84
84
82
80
82
84
78
76
80
89
100
100
93
89
89
91
93
98
95
98
98
95
98
98
95
95
95
93
100
98
91
95
91
89
89
91
93
98
100
98
95
89
89
95
95
93
89
82
86
95
95
95
89
84
86
93
98
98
93
93
91
86
89
89
86
86
89
80
82
84
80
74
82
89
98
95
91
89
89
91
91
91
95
103
98
93
89
89
93
95
95
100
100
93
91
98
98
91
93
98
98
98
103
100
98
95
91
91
95
91
86
80
86
93
91
89
86
84
91
95
95
98
91
86
89
86
89
93
86
89
84
84
89
86
86
78
84
89
91
89
91
93
93
95
98
95
95
95
95
91
86
91
98
103
98
95
93
86
91
98
98
93
93
93
93
98
103
98
98
91
89
91
93
91
91
89
93
95
91
91
89
84
89
91
89
91
82
82
91
93
91
93
91
89
84
89
91
89
89
84
82
80
86
89
93
100
98
100
100
95
91
91
91
89
86
89
91
93
91
95
93
95
100
98
100
95
93
98
95
95
93
93
91
91
89
91
95
86
86
91
95
100
100
93
86
86
89
86
86
93
89
89
91
86
89
95
93
93
89
89
91
89
89
89
82
82
89
95
95
98
103
100
98
95
91
91
91
91
89
84
84
89
91
95
95
98
98
98
100
95
91
91
91
84
84
91
95
93
93
95
93
86
80
89
95
100
95
91
86
84
86
86
84
89
91
89
91
91
91
98
91
89
89
86
89
84
86
86
82
78
93
98
95
103
100
93
91
93
91
91
86
86
86
86
84
89
89
91
93
93
98
98
98
95
93
91
91
86
84
86
93
93
89
89
91
84
80
89
98
95
89
91
89
86
89
89
86
84
91
93
93
91
93
93
89
89
84
89
89
86
84
82
80
74
91
95
103
103
98
93
93
93
91
95
89
86
84
89
86
86
86
93
98
95
100
95
91
91
95
95
95
93
86
84
91
89
80
80
84
86
80
89
95
93
89
84
89
89
89
89
89
84
84
91
89
89
93
89
84
84
82
89
89
84
86
82
78
76
95
95
100
103
98
95
100
95
91
93
91
86
86
86
86
89
91
91
93
95
95
91
91
91
95
93
89
91
86
86
93
89
76
80
86
82
80
86
91
86
82
82
86
86
86
86
86
84
86
86
86
91
91
89
82
82
84
89
89
84
82
80
80
82
103
103
103
103
100
98
98
91
89
89
93
86
86
86
86
86
89
89
89
91
93
91
86
86
93
93
89
91
86
86
84
84
80
86
86
84
82
84
89
89
84
86
84
86
89
86
82
84
84
82
82
86
89
89
82
84
89
89
82
80
76
76
76
80
105
103
95
95
105
105
95
86
84
86
89
84
86
91
89
86
86
91
91
86
84
82
82
84
93
93
91
91
89
84
80
78
82
86
89
91
89
91
89
89
86
89
89
86
91
89
84
82
78
78
80
84
86
86
84
91
93
82
82
80
74
70
74
76
100
100
98
98
105
103
98
89
82
82
82
86
89
91
89
89
91
91
91
84
82
80
84
86
93
89
89
86
84
80
76
76
82
86
86
86
86
91
91
91
89
91
91
89
86
86
84
80
74
78
84
89
86
82
89
95
93
82
80
82
80
74
74
74
98
100
100
95
100
95
98
95
84
82
82
86
86
86
89
93
93
95
95
86
78
78
80
86
86
84
80
78
80
82
82
80
82
84
84
82
86
89
89
91
89
91
93
86
82
82
82
82
82
84
86
89
89
84
84
91
89
84
82
84
82
80
78
78
95
98
100
98
95
91
93
95
86
84
86
84
84
84
93
95
91
91
91
86
76
74
76
80
84
84
80
74
78
80
82
84
84
86
89
86
86
91
89
89
89
89
84
84
84
84
82
84
89
86
86
89
89
80
76
82
84
82
84
86
84
80
80
80
98
98
93
89
95
95
95
98
89
93
93
89
84
86
95
93
91
84
84
84
80
78
76
82
86
82
80
76
78
84
84
84
86
86
91
91
84
89
93
86
86
89
89
89
89
89
86
89
91
89
89
91
86
80
78
82
84
82
86
89
82
80
84
82
95
95
95
93
93
98
100
98
93
93
89
84
82
89
93
91
89
84
82
84
84
80
78
84
86
82
76
76
76
86
86
84
84
86
89
91
89
89
89
86
91
91
93
89
84
86
89
89
89
89
89
86
84
80
78
80
89
89
89
84
82
84
84
78
98
93
95
100
93
89
98
105
93
89
89
84
86
89
91
89
86
86
82
82
82
78
78
82
86
82
80
80
78
82
84
86
89
86
84
91
91
86
86
91
91
89
84
84
86
86
89
84
82
84
84
82
82
80
76
80
86
89
86
84
84
82
82
82
98
98
95
105
100
89
95
103
91
91
93
89
84
84
82
84
86
91
86
80
78
78
82
82
80
78
84
86
82
80
76
82
89
91
86
91
86
84
86
89
89
89
84
86
86
86
89
84
84
86
84
80
80
82
78
80
86
89
89
86
82
80
76
74
95
98
93
103
98
93
95
98
89
89
89
89
86
86
84
84
89
84
86
86
84
86
86
84
80
80
86
84
82
80
82
84
89
89
89
86
86
82
84
84
93
95
95
95
91
89
89
86
86
89
89
89
86
86
80
74
80
86
91
91
86
84
82
76
91
95
91
98
98
95
103
98
89
86
86
86
93
91
86
80
84
84
86
91
89
89
89
86
78
80
84
84
80
80
80
86
93
93
91
93
91
84
84
86
91
98
98
95
89
91
89
86
89
86
93
95
82
86
84
80
82
80
84
86
84
84
82
76
95
98
100
98
98
100
103
95
89
89
86
86
93
91
84
78
86
86
91
93
93
91
86
86
80
78
78
80
78
78
78
84
93
98
93
95
89
84
91
91
89
93
95
95
91
91
89
84
86
89
89
91
82
82
82
82
84
78
78
80
82
84
82
78
105
105
105
103
103
105
105
93
89
89
91
89
84
80
80
82
89
82
84
84
89
86
86
86
78
76
74
72
76
76
76
82
91
93
93
91
86
89
91
93
91
91
93
93
91
93
91
84
89
89
89
84
82
78
80
80
82
80
78
78
82
82
82
82
105
100
103
105
103
100
98
95
95
91
89
89
82
78
86
84
89
84
82
84
91
86
86
84
84
82
78
80
82
82
82
82
84
84
89
95
93
91
89
91
91
93
93
91
89
91
86
80
91
91
86
84
80
82
80
76
80
82
80
76
78
76
78
78
100
95
103
105
100
95
93
95
93
89
86
82
78
80
86
86
82
86
86
89
89
89
89
84
84
86
84
82
78
80
82
80
84
86
89
95
95
91
86
89
95
98
98
93
91
89
82
80
86
84
82
82
82
86
82
76
78
78
78
76
80
80
76
74
103
103
103
95
100
98
91
91
86
82
80
76
80
84
89
89
84
86
89
89
91
91
89
84
91
91
89
84
82
82
82
78
78
82
86
89
91
89
86
84
91
98
95
95
95
89
84
86
84
80
82
82
86
89
86
80
80
78
80
82
84
78
74
74
105
105
103
98
100
98
91
86
84
80
78
82
86
86
89
91
89
86
91
93
91
93
91
89
91
89
93
86
80
86
86
82
78
76
80
86
93
89
86
86
89
91
93
93
95
93
91
84
82
84
80
82
86
86
86
86
82
80
80
86
86
74
72
70
107
105
100
100
100
93
91
89
86
89
84
84
89
95
91
89
91
91
93
89
84
93
93
89
86
86
93
89
86
91
86
84
80
74
78
82
89
91
91
91
89
93
95
95
93
89
86
80
78
82
80
76
84
86
86
82
78
82
78
84
82
74
70
70
110
105
103
105
100
95
95
89
89
91
89
84
86
95
95
91
89
91
93
91
89
89
93
91
89
98
98
93
89
86
84
82
76
76
80
82
89
93
93
95
98
100
100
98
89
86
82
78
80
84
82
80
80
82
78
72
78
86
82
82
80
74
70
70
110
103
98
103
100
98
93
91
91
91
93
89
89
93
98
98
95
95
95
93
89
93
93
93
98
103
100
100
93
86
84
84
82
80
82
80
89
91
95
98
98
98
103
100
91
86
84
86
86
84
84
82
78
76
78
74
80
86
84
80
78
78
76
74
105
100
95
100
98
93
93
95
95
98
100
95
93
93
98
100
103
103
103
95
93
98
103
98
105
105
105
103
103
95
93
95
89
84
82
84
86
93
95
95
95
95
100
103
98
86
86
89
89
89
84
82
78
78
80
80
84
86
84
84
84
84
80
78
100
98
98
103
100
98
95
95
95
100
98
100
100
95
98
100
105
103
100
100
98
98
103
107
110
103
103
107
105
103
100
100
98
93
89
86
89
93
93
98
98
93
98
103
100
91
86
89
93
91
86
89
82
80
80
82
86
86
86
84
86
84
82
80
103
100
100
100
100
100
98
95
100
95
93
100
103
98
100
105
103
103
105
107
100
98
103
112
107
98
100
105
103
98
103
107
107
103
100
98
93
89
89
93
95
95
105
107
103
98
91
91
91
89
89
91
89
84
80
82
84
84
84
86
86
86
86
84
107
105
103
100
93
100
95
100
105
103
100
95
95
100
105
110
105
105
105
105
100
103
107
110
100
95
98
98
98
98
105
107
107
110
112
110
103
93
91
86
89
95
100
100
103
103
100
95
93
93
89
89
86
86
82
80
80
82
82
84
86
86
89
89
107
105
105
103
98
100
100
100
103
98
98
95
98
103
105
105
100
107
112
107
103
105
110
107
100
98
100
107
107
103
107
107
107
110
115
112
107
100
91
86
93
95
98
93
100
103
103
100
98
95
93
89
86
84
82
82
84
86
84
86
86
86
93
89
107
105
103
98
98
103
105
105
105
100
100
100
100
105
100
100
100
105
112
110
103
105
107
103
105
105
100
107
100
103
107
107
107
115
115
112
103
100
93
86
91
95
98
93
95
103
98
98
98
95
91
89
93
95
91
86
89
82
80
84
86
95
98
93
100
95
98
93
98
103
105
107
107
105
103
100
103
100
95
100
105
103
105
103
100
105
105
98
105
100
98
98
98
105
107
105
105
112
110
112
110
103
98
95
98
100
100
98
93
98
93
89
86
89
91
91
95
100
98
93
89
84
80
82
89
93
93
91
98
98
98
95
95
98
100
103
103
103
103
105
112
105
103
100
105
107
107
105
103
100
103
98
103
98
95
95
95
100
105
103
105
105
100
103
105
103
100
95
100
105
103
98
93
93
93
84
82
86
91
91
95
98
95
91
89
86
84
84
84
84
86
86
98
105
103
100
95
95
93
91
95
98
103
103
103
103
100
98
107
107
105
103
100
98
98
103
107
100
98
95
100
100
103
98
98
100
95
95
100
98
93
93
98
100
103
100
100
100
93
91
89
89
91
93
98
98
95
91
89
86
84
84
82
82
84
82
98
107
103
98
93
95
93
91
93
95
95
98
100
110
100
95
100
105
100
98
95
95
100
103
105
103
103
95
95
98
98
98
105
105
98
95
100
95
91
89
91
91
100
100
100
100
95
91
98
98
103
103
98
98
91
82
84
91
89
82
82
86
86
82
95
98
95
95
93
93
93
95
95
95
93
95
98
103
98
98
103
105
98
95
95
100
103
103
103
103
103
98
95
103
95
98
103
103
98
95
98
98
93
91
93
91
95
100
98
93
91
93
98
98
100
103
98
95
91
84
91
95
93
84
80
84
86
84
98
95
91
95
93
93
89
86
93
98
98
98
103
98
95
100
103
98
93
91
98
100
103
107
105
103
100
100
100
103
100
103
105
103
103
100
95
91
91
95
98
93
95
95
98
95
91
93
95
98
105
105
100
100
98
98
95
95
98
89
84
86
91
89
100
103
100
98
98
91
89
86
91
98
100
98
100
98
95
98
98
98
93
89
91
98
98
103
105
103
100
98
100
100
103
103
100
100
103
105
98
91
91
91
91
93
93
95
98
93
93
91
91
95
103
100
93
93
95
95
95
95
93
91
89
91
95
91
