P2
# 523 of 608 Angiograms
64 64
255
182
184
184
184
180
178
176
174
172
174
176
176
174
174
176
180
180
180
180
182
182
180
176
176
174
172
168
161
161
156
151
149
147
147
142
134
132
129
125
115
112
110
107
105
105
105
103
103
105
112
125
132
149
163
172
176
178
182
186
188
190
192
196
197
182
180
180
178
176
174
174
170
170
170
172
174
174
174
176
178
178
178
178
178
180
178
176
176
174
172
170
165
161
156
149
147
147
144
142
137
134
132
125
117
110
107
105
110
110
107
107
103
105
112
115
125
132
144
161
170
176
176
178
180
184
186
190
194
176
176
174
172
172
170
170
170
172
172
170
172
174
176
178
180
180
178
176
176
176
176
174
174
174
172
165
161
159
156
147
144
142
144
142
139
137
132
122
115
107
105
105
112
115
112
112
110
110
115
117
120
127
129
139
154
165
172
176
178
180
182
186
190
172
174
174
174
172
170
168
170
172
172
172
174
172
176
178
180
180
176
174
174
176
174
174
174
172
168
163
159
156
154
149
142
142
142
142
139
134
125
115
110
107
107
110
117
117
115
115
115
117
122
122
120
122
125
129
134
149
161
168
172
176
180
184
186
172
174
174
176
174
170
168
168
172
172
172
172
172
174
176
178
180
178
176
174
176
178
176
172
170
163
163
161
156
151
147
142
139
144
139
134
125
117
110
110
110
112
117
120
117
115
117
117
120
122
127
122
120
120
122
122
129
142
159
168
172
176
180
182
174
174
176
176
174
170
168
165
170
172
172
174
174
176
176
176
178
178
178
178
178
180
178
172
165
159
161
161
154
149
149
147
144
144
137
127
117
112
112
117
115
115
122
120
117
117
120
120
122
125
129
127
122
117
115
115
117
125
137
154
165
170
174
178
172
172
172
174
172
168
168
165
170
172
172
174
176
176
176
178
178
178
178
182
182
180
176
170
163
163
159
156
151
149
149
149
144
139
129
122
117
112
115
115
115
117
125
125
122
122
125
125
127
132
134
127
127
125
120
115
110
115
125
137
151
163
168
172
172
170
170
170
168
170
170
168
170
170
172
172
172
174
174
178
178
176
178
180
180
178
174
170
165
165
156
154
154
151
151
147
139
134
127
120
115
112
112
112
112
117
125
122
122
125
129
132
132
129
129
127
127
127
122
117
112
112
117
125
134
151
161
168
170
170
170
170
168
170
170
170
170
170
172
172
172
172
172
178
180
180
180
180
178
174
170
168
168
163
159
154
151
151
149
142
134
132
127
120
112
110
112
115
117
120
122
122
125
129
134
137
132
129
132
127
127
127
122
120
115
115
115
120
127
134
149
159
168
170
172
170
165
168
165
168
168
170
172
172
174
174
174
176
178
180
180
176
174
172
168
168
165
163
159
154
151
149
142
134
132
132
129
120
115
112
112
120
120
122
122
125
129
132
134
134
134
132
132
129
127
127
125
122
120
120
117
117
120
127
134
147
172
170
170
168
168
170
165
168
170
170
170
172
176
174
174
176
176
176
174
172
172
168
165
165
165
161
159
156
151
147
137
134
134
134
132
120
115
117
117
120
120
122
122
125
129
132
132
134
137
132
134
137
132
129
129
127
127
122
117
120
120
122
125
132
172
170
168
168
172
174
170
168
168
168
170
172
176
174
172
172
172
172
172
170
168
163
163
163
163
163
161
156
149
144
137
139
137
137
132
122
120
122
122
125
122
117
122
129
129
132
134
134
139
137
139
142
137
132
132
129
127
122
120
120
117
120
120
122
176
172
170
172
176
174
172
170
170
165
165
170
174
172
170
168
165
165
168
170
168
168
163
163
161
159
159
154
151
147
142
142
139
137
132
125
125
125
125
125
120
117
125
132
134
134
134
134
139
139
137
137
137
137
132
129
125
122
122
120
117
115
112
115
174
172
170
174
176
174
172
168
165
168
165
168
170
168
165
165
163
161
161
161
159
159
161
161
163
159
154
154
151
147
147
142
139
137
129
125
125
120
120
125
125
125
132
134
137
137
137
139
139
137
134
137
137
137
134
132
125
122
122
117
115
110
107
110
174
168
168
172
172
172
170
165
165
170
163
163
165
165
163
163
161
159
159
156
156
156
161
161
163
161
156
154
151
149
147
142
139
134
129
129
125
120
122
127
125
127
129
137
139
142
139
137
134
132
129
127
129
132
132
129
127
125
125
120
115
110
107
112
170
165
168
170
170
168
168
168
165
165
163
161
161
161
161
161
156
154
154
156
156
154
159
159
161
163
161
154
151
149
147
144
142
134
132
129
127
125
127
125
122
120
122
127
134
137
137
134
132
127
125
127
127
127
127
125
125
122
122
122
120
117
115
115
168
163
165
165
165
168
170
168
165
163
161
159
163
161
159
156
156
156
151
151
154
154
156
159
161
168
165
156
154
151
147
147
147
139
134
129
129
129
125
122
120
117
115
117
122
127
129
129
129
127
127
129
129
122
122
125
122
117
122
125
122
117
122
120
161
159
161
163
165
165
168
168
165
161
161
161
161
159
154
156
156
156
151
151
151
154
156
156
161
165
165
161
159
154
149
147
147
142
137
132
129
125
125
122
115
112
112
115
117
122
127
129
129
132
134
132
129
127
125
122
115
115
120
122
117
117
122
122
161
159
159
159
161
163
163
165
163
163
165
163
161
154
154
156
156
151
147
147
147
149
151
156
159
163
163
163
161
154
151
149
147
142
139
134
127
122
120
115
110
112
115
115
115
120
127
132
134
134
132
129
127
127
127
122
122
120
120
122
122
122
122
120
161
163
159
156
159
161
161
163
163
163
163
161
156
154
156
156
151
149
147
144
144
144
147
151
156
163
163
163
159
156
154
151
147
139
134
132
122
120
115
112
112
115
115
112
115
117
125
132
134
132
132
132
129
132
129
122
122
125
127
129
127
122
122
117
163
161
154
154
156
154
154
159
159
156
156
156
154
154
154
151
147
149
149
142
144
147
147
151
154
159
161
161
159
154
149
144
142
134
132
125
117
115
110
110
110
107
107
107
112
117
125
132
134
132
132
132
134
132
129
125
127
127
127
129
132
125
122
120
161
156
156
154
151
154
154
154
159
156
156
156
156
156
154
151
151
151
151
144
144
149
149
151
154
156
159
156
156
149
142
142
139
137
129
122
117
115
112
112
110
110
107
107
112
117
127
134
134
134
134
137
137
132
129
127
129
125
127
132
132
127
122
117
156
156
161
154
151
154
154
154
151
154
156
156
156
156
156
154
154
154
151
144
147
149
147
149
151
154
156
154
151
144
137
137
139
137
132
122
117
115
112
115
115
112
112
112
115
120
129
134
134
134
134
139
137
132
129
132
127
125
127
129
129
127
120
120
154
151
156
156
156
154
156
151
151
151
154
159
154
151
154
151
154
154
149
149
149
147
147
147
147
151
151
151
149
144
142
137
137
134
132
127
125
120
115
110
117
120
120
117
117
120
129
132
132
132
134
134
134
137
139
137
132
129
129
127
129
125
122
125
151
151
154
156
156
156
154
151
151
154
154
159
154
151
151
151
154
149
144
144
149
147
149
144
147
147
149
149
147
144
142
139
134
134
132
132
129
125
120
120
125
122
117
117
117
120
129
132
132
132
134
134
134
137
139
137
132
132
132
127
127
125
127
129
149
151
154
151
151
151
149
151
149
151
151
154
151
151
149
151
149
147
144
147
149
149
149
147
147
147
147
149
147
144
144
142
137
134
132
132
132
127
122
127
129
127
120
115
120
125
132
129
127
129
129
132
132
134
137
139
132
129
129
129
127
127
129
127
147
149
149
147
144
142
144
144
147
147
147
147
147
151
149
147
144
147
149
154
154
154
154
151
149
149
149
151
147
147
144
147
139
134
129
129
132
125
122
129
127
129
125
122
122
127
134
129
125
127
132
129
129
132
139
139
134
132
132
132
132
132
129
127
144
144
144
147
142
142
144
144
142
142
139
139
142
144
144
142
144
147
149
151
154
154
159
156
156
154
149
149
147
149
149
147
139
134
127
127
127
122
125
127
127
127
129
129
127
127
132
132
125
127
132
129
129
132
137
137
134
134
134
129
132
134
132
127
144
142
144
147
147
144
144
142
142
144
144
142
142
142
139
144
147
147
151
151
154
154
159
156
159
156
154
149
142
142
144
144
139
134
129
127
125
122
125
125
125
127
129
129
129
125
127
129
129
129
132
129
127
129
134
137
134
134
134
129
129
132
132
129
142
144
147
147
149
144
139
139
142
147
147
144
144
144
144
149
149
151
154
154
151
151
159
156
154
156
154
151
147
142
144
142
139
139
134
129
127
125
127
125
125
129
129
127
129
129
127
129
129
129
129
127
129
129
132
137
134
132
134
132
134
134
132
132
142
144
147
142
142
137
137
134
139
147
147
147
144
144
149
151
151
154
154
156
154
154
154
156
156
154
151
147
144
142
142
139
139
142
139
134
127
125
129
129
129
132
134
129
129
132
127
129
127
127
127
127
129
134
134
137
137
134
134
134
137
134
134
132
142
142
142
139
137
137
134
134
144
149
149
149
147
144
149
151
154
156
154
154
156
159
159
159
159
154
151
149
147
142
144
142
142
139
139
137
134
127
127
127
132
132
132
132
132
127
127
129
127
122
125
127
129
132
129
132
134
134
137
139
137
137
137
137
139
142
144
142
137
134
137
139
147
151
151
151
149
147
151
151
154
151
154
156
156
161
159
156
156
154
154
151
147
147
142
142
142
139
139
142
139
132
129
127
129
129
129
129
132
127
122
127
125
120
127
129
127
127
129
132
132
132
134
139
137
139
139
142
137
142
139
142
142
137
134
139
147
154
149
149
151
149
147
151
151
151
156
159
159
159
159
156
159
156
151
151
147
144
142
142
142
139
142
144
139
134
129
129
129
129
132
129
132
127
125
125
125
122
127
127
127
129
129
129
132
132
134
137
137
139
139
142
134
139
139
139
142
142
142
139
144
149
154
149
149
151
149
151
154
154
156
161
161
156
159
161
161
154
149
147
144
144
142
142
142
142
147
147
137
134
127
132
132
132
137
134
129
127
125
122
125
129
127
127
129
134
132
132
132
132
134
137
137
137
137
139
139
144
142
142
144
144
144
142
144
147
149
149
147
151
151
151
156
156
156
159
161
154
156
159
154
149
144
142
137
137
144
147
144
147
149
149
137
134
129
132
132
139
139
139
132
129
122
122
122
125
127
127
129
132
132
132
132
132
134
137
137
134
134
137
144
144
144
142
144
144
147
144
144
144
147
147
144
147
151
151
151
156
154
159
161
156
154
151
149
147
142
139
139
139
142
149
149
151
151
147
137
132
132
129
134
137
137
139
134
129
122
120
117
125
122
122
127
132
134
132
132
132
139
137
134
132
134
139
147
144
142
139
142
144
147
144
142
144
147
147
147
144
149
151
149
151
154
159
161
159
154
149
144
147
144
144
144
144
144
149
151
151
149
147
142
134
129
132
134
137
134
137
134
127
125
122
122
125
122
120
125
132
134
129
129
134
139
147
139
132
134
139
139
139
142
142
142
147
147
142
144
151
151
149
147
144
144
149
147
147
149
156
159
156
154
151
147
147
149
151
149
147
149
149
149
149
149
144
144
139
134
132
132
137
137
134
132
125
125
125
125
125
120
117
122
127
127
127
125
132
139
144
142
137
134
137
134
139
142
139
142
144
147
144
147
149
151
149
149
144
142
144
144
144
147
151
159
159
154
156
151
149
149
149
149
149
149
147
151
151
149
147
147
144
137
134
134
137
139
139
132
127
127
125
125
122
117
117
120
125
125
122
125
129
137
142
142
139
134
137
132
134
137
137
139
142
144
144
147
147
147
149
149
144
139
142
142
142
144
149
156
159
159
159
156
151
149
149
149
149
149
151
151
154
154
154
149
144
137
134
132
134
137
139
132
127
127
129
125
120
117
120
122
125
122
120
125
132
137
142
144
144
139
139
134
142
142
142
139
139
144
147
144
144
147
149
147
144
142
142
147
144
147
151
154
156
159
159
156
156
151
151
149
149
154
159
156
159
161
156
151
147
139
132
129
132
137
142
134
129
127
127
125
120
120
122
122
122
122
122
125
132
137
139
139
144
142
144
137
144
142
139
137
139
142
139
139
142
144
147
142
144
144
144
147
147
147
151
154
154
159
159
156
154
154
154
154
151
151
154
156
159
159
156
151
147
139
134
134
137
139
142
137
132
127
122
122
125
125
125
125
122
117
120
125
132
137
142
139
142
144
142
142
142
137
139
139
142
142
144
144
147
147
147
144
147
144
144
147
149
149
151
154
156
156
159
159
151
151
156
154
151
154
151
154
159
156
154
151
144
139
134
137
139
142
142
137
132
125
120
122
127
122
125
125
120
117
122
125
132
137
139
137
139
142
139
144
139
137
137
139
142
142
142
147
149
147
147
147
147
149
147
147
151
151
154
156
159
159
159
159
154
151
154
154
154
151
154
156
159
159
159
154
144
139
137
137
139
142
137
132
132
127
120
125
125
125
125
125
125
122
125
125
129
139
142
139
137
139
137
142
139
134
132
134
137
139
142
142
144
147
149
154
149
149
149
149
151
151
154
154
154
156
156
156
154
151
151
154
154
154
156
161
161
159
156
156
144
142
139
139
137
139
137
134
134
129
127
127
129
127
125
122
120
122
125
122
129
134
142
139
142
142
137
139
137
134
134
142
142
142
142
142
139
142
147
151
149
147
147
147
147
147
149
149
149
154
159
159
159
151
154
154
154
156
156
159
159
156
154
154
144
142
139
142
139
139
142
139
132
129
127
129
129
122
120
120
115
120
125
125
127
132
139
139
142
144
139
137
139
134
139
144
142
139
137
137
139
142
147
151
151
149
149
149
149
147
149
147
147
154
156
156
159
151
154
154
154
154
156
161
159
156
156
156
149
144
137
137
142
142
144
147
137
132
125
125
127
122
122
122
122
117
122
125
127
134
137
139
139
142
139
134
139
139
139
139
137
134
134
137
137
142
147
151
151
149
147
147
147
147
147
147
147
154
156
154
156
154
154
154
156
156
156
161
159
156
154
159
154
147
139
139
137
139
142
144
139
132
127
122
127
125
120
125
127
117
120
125
129
134
137
137
137
142
142
137
139
139
139
134
132
134
134
139
142
142
147
151
151
147
147
147
147
147
147
149
149
154
156
156
156
156
156
154
151
151
151
154
154
149
151
156
159
151
142
137
139
139
139
139
139
132
132
125
127
127
125
125
127
117
117
127
132
134
139
139
139
142
144
132
137
137
139
139
137
137
139
142
144
139
144
151
151
149
151
154
151
149
149
149
154
154
154
156
156
154
151
149
149
151
149
147
151
151
151
154
154
149
144
142
142
137
137
139
139
134
132
132
127
127
125
125
125
122
122
129
134
137
139
137
139
137
134
132
137
139
142
142
139
139
139
142
139
137
142
151
149
151
156
159
159
154
149
151
154
154
154
159
159
156
151
151
151
147
147
149
154
151
154
151
151
149
144
142
144
139
142
142
144
139
132
132
127
122
125
125
122
125
127
129
132
134
137
139
139
132
132
132
134
139
144
142
142
139
139
134
139
134
137
147
149
154
159
159
156
156
154
151
151
154
154
154
156
154
149
147
147
147
149
149
149
149
151
154
154
147
142
137
137
142
147
147
147
139
132
132
127
122
125
125
122
125
127
129
132
129
134
137
134
132
129
132
134
142
147
147
144
142
137
134
139
139
137
142
149
154
159
159
156
156
151
149
149
149
149
154
156
154
154
149
144
147
147
147
149
147
149
154
151
147
139
137
137
147
147
147
144
142
134
129
127
127
127
127
127
127
129
127
127
129
132
129
127
125
127
127
137
147
149
151
147
142
137
134
137
142
139
139
144
149
154
159
159
154
149
151
151
147
149
154
154
154
154
151
144
144
144
147
151
149
149
151
149
142
137
137
139
147
147
147
147
144
134
127
127
129
127
127
125
125
129
132
129
132
134
134
129
125
129
129
137
147
151
151
149
144
144
139
142
144
144
139
144
149
154
154
149
147
144
147
147
144
147
147
151
151
154
151
149
142
139
147
151
151
151
151
149
142
137
139
142
147
147
147
149
144
139
134
129
129
127
125
125
129
132
132
134
137
132
132
132
127
129
132
137
144
151
151
151
147
149
147
144
149
147
139
144
151
154
154
151
151
149
144
144
142
144
147
147
149
151
154
149
147
142
147
149
149
149
151
151
144
139
142
144
147
144
147
147
142
137
134
132
132
127
125
127
132
134
132
132
134
132
132
132
129
132
129
134
142
149
151
154
151
151
149
144
147
144
142
147
149
154
154
151
151
149
147
139
142
147
149
147
147
149
149
147
142
142
144
144
144
147
149
149
144
139
139
144
144
142
144
144
139
134
132
132
134
129
127
129
132
132
129
129
129
132
134
134
134
134
129
134
139
147
151
154
154
156
151
149
147
144
144
144
144
147
149
149
149
147
144
144
147
149
149
147
144
147
144
142
137
137
139
139
144
147
151
149
144
139
142
144
142
142
142
139
139
137
132
132
132
129
127
129
132
132
129
134
132
129
132
134
137
132
132
134
137
149
154
151
151
159
154
151
147
144
147
144
139
144
144
147
149
151
147
144
142
142
144
144
147
151
144
142
139
137
137
137
139
144
151
149
144
144
147
144
144
144
144
144
142
139
134
134
132
127
127
129
132
129
127
134
129
125
127
129
134
132
137
137
139
149
156
154
154
156
151
149
147
147
147
147
144
144
147
147
151
151
144
142
139
139
139
142
147
147
147
144
142
139
139
142
139
142
147
149
147
144
147
147
147
149
149
147
144
139
137
137
134
134
134
134
129
125
127
132
127
125
127
129
134
132
137
139
142
151
156
156
154
151
151
149
147
147
147
147
147
151
149
149
151
147
142
144
144
147
147
144
142
147
149
144
142
142
144
147
144
142
144
149
147
147
147
147
149
151
147
147
142
139
139
137
134
129
132
134
132
127
129
129
129
132
129
132
134
129
127
132
142
151
154
154
151
154
149
149
149
147
149
147
147
154
154
147
147
149
142
144
147
151
149
149
149
149
147
147
142
144
147
147
144
144
147
147
151
149
149
149
149
149
147
147
144
142
142
142
137
137
134
129
132
129
129
132
127
129
129
129
129
125
125
132
142
151
156
154
151
154
149
151
151
151
154
154
151
151
151
147
142
149
144
144
147
154
151
147
144
144
144
139
137
139
144
147
144
144
147
147
151
149
149
151
151
149
147
144
147
144
142
139
137
137
137
129
129
127
127
132
129
127
129
132
127
120
