P2
# 524 of 608 Angiograms
64 64
255
137
142
139
134
129
129
132
134
132
125
127
129
129
127
127
129
132
137
137
137
137
134
134
137
137
139
139
137
134
132
129
132
134
134
134
132
137
137
137
132
129
127
127
129
129
132
137
134
134
137
132
127
122
122
125
122
120
120
120
127
127
127
129
127
142
144
139
139
134
132
132
134
127
122
125
127
127
125
127
132
134
142
142
137
134
134
134
134
134
137
142
139
134
134
132
137
137
134
132
132
137
134
134
134
132
129
129
132
132
134
137
134
132
129
129
127
127
127
127
125
125
125
120
122
125
125
129
127
147
144
142
137
134
134
134
132
129
127
125
125
125
127
129
132
134
139
139
137
139
137
137
132
134
137
139
142
137
137
137
139
139
134
132
134
134
132
129
129
127
129
132
132
132
129
134
137
134
125
125
125
129
132
129
125
127
129
125
125
122
122
127
120
144
139
142
137
132
132
134
132
129
129
127
127
127
129
129
132
134
139
137
137
139
139
134
132
134
137
142
144
142
142
142
142
139
132
134
134
137
132
129
129
129
132
132
132
132
127
129
134
132
125
120
122
125
127
125
120
125
125
122
125
125
122
122
117
142
139
139
139
137
134
134
134
132
127
125
127
125
127
134
137
137
139
137
137
137
137
132
134
134
139
144
147
144
142
139
139
137
134
137
137
137
137
132
127
129
132
132
132
129
127
129
134
127
125
122
122
122
125
122
120
122
122
125
127
127
125
122
125
144
142
139
137
134
132
134
137
134
129
125
125
125
132
137
139
142
142
139
139
139
139
139
139
134
137
142
139
139
137
134
134
134
137
139
134
134
134
137
132
129
129
132
129
129
129
129
129
127
127
125
125
125
127
127
125
127
125
125
129
127
127
125
122
139
139
142
139
132
127
132
139
134
132
129
127
129
134
134
137
139
139
142
142
139
137
139
137
137
139
139
137
137
137
137
139
137
139
139
137
139
137
137
139
132
132
134
134
132
132
132
132
132
132
129
129
129
129
129
127
129
129
125
127
129
127
125
122
134
137
137
134
132
127
132
134
132
132
129
132
132
134
134
137
139
139
144
149
142
137
137
137
137
139
137
137
139
139
139
139
137
142
139
137
139
137
137
142
137
132
134
134
137
134
129
132
129
127
129
132
127
127
127
129
134
132
125
127
127
125
122
120
134
134
129
129
132
127
132
134
134
132
132
134
134
137
139
139
142
142
142
147
144
137
139
142
139
139
142
139
142
142
142
142
139
139
139
137
137
137
139
139
139
134
134
132
132
132
132
132
132
129
129
127
125
127
127
127
127
132
129
127
125
127
122
122
137
132
127
129
129
129
127
129
132
134
132
129
132
134
134
137
139
142
144
147
144
139
142
139
139
139
139
137
142
142
142
139
139
139
137
134
134
134
134
137
137
134
129
127
127
129
132
132
129
127
129
125
125
127
127
127
129
132
132
129
125
129
129
127
139
132
132
132
129
129
125
122
122
125
125
125
132
132
132
134
137
142
142
139
137
139
137
137
137
134
134
134
142
142
139
137
137
137
137
134
134
134
129
129
132
132
127
129
127
127
129
127
127
127
127
125
125
127
127
129
129
127
127
125
127
129
132
134
134
134
134
132
127
129
127
122
120
122
125
127
132
134
134
132
134
142
144
139
139
137
134
139
137
134
134
137
142
142
139
137
134
134
137
137
132
134
137
137
134
134
129
129
127
129
132
129
127
127
129
125
127
132
125
127
129
127
122
122
127
129
129
132
134
132
134
134
132
129
129
125
120
122
127
125
125
129
129
129
132
139
142
139
137
134
137
139
137
132
134
137
137
142
139
137
139
137
137
134
132
134
134
137
137
137
134
132
129
132
132
132
127
127
129
129
129
129
127
127
127
127
127
125
122
125
127
127
129
129
132
134
134
132
127
127
122
122
129
132
127
125
129
134
134
139
142
142
134
134
137
137
134
132
134
134
137
139
134
129
134
137
134
129
129
132
134
137
132
132
132
129
129
132
129
127
127
127
127
127
129
129
129
129
127
127
127
125
125
127
125
125
134
132
129
132
129
127
125
127
127
127
125
127
125
127
132
132
137
139
139
139
137
137
137
137
137
134
137
134
134
134
127
127
132
137
137
132
132
129
134
134
127
129
127
125
129
129
125
122
125
125
127
129
129
127
127
127
127
125
125
125
129
127
127
129
134
129
132
132
129
125
122
122
127
125
122
125
125
129
132
134
139
139
137
139
134
137
137
134
137
137
134
134
132
129
127
127
134
134
134
132
129
129
125
125
127
127
125
125
127
125
122
125
122
125
127
129
127
125
127
127
127
127
125
127
129
125
129
134
134
129
132
134
129
125
122
122
125
120
122
125
127
132
132
139
139
137
137
134
129
134
134
137
137
139
134
129
132
129
127
132
134
132
132
132
132
127
122
125
127
125
122
125
125
120
122
125
125
127
125
125
125
125
127
129
127
127
125
129
129
125
134
142
134
132
132
127
127
127
125
122
122
122
122
125
125
127
129
134
134
132
129
129
129
134
134
132
134
137
134
132
132
129
129
132
132
132
132
132
129
125
127
127
127
125
127
127
117
120
122
122
122
120
122
120
120
125
127
125
125
125
122
129
129
127
134
137
134
134
132
132
127
122
122
122
122
127
127
127
125
127
129
134
139
132
127
127
129
134
137
132
129
129
129
132
129
129
132
129
127
127
129
127
125
122
125
127
125
125
125
117
115
117
120
117
117
120
120
112
115
122
125
122
125
127
129
134
132
134
137
137
129
132
132
134
132
129
125
122
122
125
127
129
129
134
134
132
134
134
132
132
132
132
134
132
132
129
127
129
129
129
129
125
127
127
127
125
122
125
125
125
122
122
120
115
115
117
117
117
115
120
120
117
117
120
125
127
129
134
134
134
137
139
139
137
132
132
132
134
129
129
127
122
120
122
125
127
129
132
134
134
134
129
134
139
132
129
132
129
129
127
125
122
127
129
129
127
127
125
122
125
122
125
129
125
122
122
120
117
117
117
120
125
122
122
122
122
122
127
132
134
134
134
134
137
139
144
144
142
132
129
129
132
127
125
120
120
120
125
125
129
129
132
132
134
134
125
127
129
129
129
132
132
129
127
122
122
127
132
132
129
127
127
125
122
117
122
125
125
122
122
120
120
122
122
127
127
127
127
127
129
132
137
139
137
134
134
137
142
144
149
151
151
129
134
129
127
125
117
117
117
120
127
127
127
127
129
129
132
134
129
125
127
127
132
134
134
132
129
122
122
127
127
127
129
129
132
127
122
117
122
122
122
125
122
120
127
127
132
134
134
137
134
134
134
137
142
144
139
139
139
144
147
149
154
151
149
132
134
129
129
122
120
120
120
120
125
125
122
127
127
127
129
132
134
127
125
122
127
132
132
129
129
125
127
129
127
125
127
127
129
127
122
120
122
122
125
127
125
129
134
134
137
132
134
137
132
134
137
137
142
144
144
144
147
149
149
151
156
154
151
129
129
132
129
127
125
120
120
120
120
120
120
125
127
127
129
132
132
127
120
120
122
125
129
129
127
129
127
127
127
122
120
125
127
127
127
125
127
127
127
129
127
134
137
137
137
134
132
134
134
134
139
137
139
144
147
149
154
154
154
154
156
159
156
127
127
129
127
125
122
117
117
115
112
115
120
120
122
122
127
129
127
125
122
125
125
125
127
125
125
127
125
125
125
120
120
122
125
127
127
129
132
132
125
127
129
137
139
139
139
139
137
137
139
139
142
142
144
149
149
151
154
151
151
156
159
161
159
127
127
127
127
120
117
120
120
115
115
115
115
115
120
120
125
125
125
125
129
129
132
129
125
122
125
125
122
122
122
120
117
120
125
129
127
132
134
132
127
132
137
144
142
137
137
139
142
144
147
147
149
149
149
151
151
154
156
154
156
159
161
161
159
125
125
125
127
122
117
122
122
120
117
117
117
117
117
122
125
122
125
125
125
127
129
127
125
122
125
122
120
122
120
117
120
122
127
129
127
129
129
129
132
137
144
144
142
139
142
142
144
144
144
149
151
154
154
154
154
156
161
159
159
159
159
161
159
125
122
117
117
117
117
120
122
117
112
115
117
117
120
120
120
122
122
120
122
122
122
122
122
122
127
122
117
122
125
125
127
127
129
129
129
129
132
134
137
137
139
142
144
144
142
147
147
147
149
151
154
156
156
154
154
159
159
159
159
156
154
156
156
120
122
117
115
117
120
120
120
117
115
115
112
112
115
115
115
117
117
120
120
120
122
120
122
122
122
122
122
127
129
129
129
134
137
137
137
137
139
137
137
142
142
142
144
144
144
149
154
159
159
159
159
161
161
156
156
161
159
159
159
156
154
156
154
120
120
117
117
120
122
120
117
115
112
112
112
112
112
112
115
117
117
115
115
120
122
120
117
120
125
127
129
134
137
137
137
139
142
142
139
139
139
139
142
144
144
142
144
144
147
151
159
159
159
159
161
161
161
159
156
159
156
159
159
159
159
156
154
120
120
117
115
115
117
117
112
112
112
110
112
115
112
112
117
122
120
112
115
122
122
120
125
127
132
134
134
137
142
142
139
137
139
142
142
144
144
144
144
144
144
144
147
147
147
151
159
159
159
159
159
159
161
161
159
159
159
159
159
156
156
156
154
115
115
117
117
117
115
112
112
112
115
115
115
115
112
115
120
122
120
115
120
122
125
127
132
134
134
134
137
139
144
144
139
137
142
147
149
151
151
154
156
151
147
151
154
156
154
154
156
159
159
161
161
159
161
161
159
159
159
156
156
154
156
154
151
110
112
117
117
117
120
117
112
110
110
115
120
122
120
120
122
125
125
125
125
127
129
134
137
139
142
139
142
147
149
149
147
147
149
151
154
156
156
159
156
154
154
156
159
156
159
159
159
159
159
161
161
159
159
159
154
154
156
156
156
156
156
151
149
112
110
115
117
115
117
117
117
115
112
115
122
125
125
122
122
125
132
137
134
134
137
137
139
142
147
149
149
149
147
149
151
151
151
154
154
156
156
156
156
159
159
156
156
154
159
161
159
159
159
159
159
159
156
159
159
156
159
156
156
156
156
154
151
107
107
115
117
117
115
112
117
115
115
120
125
127
127
125
127
134
142
142
142
139
139
142
139
139
147
147
147
144
147
147
147
147
151
154
154
159
156
154
156
159
159
159
154
154
161
161
161
163
163
161
161
161
156
159
159
159
154
151
154
156
156
154
154
112
115
120
120
120
120
117
120
115
115
122
127
129
132
134
137
142
142
142
144
144
142
142
142
142
149
149
147
147
147
147
144
147
151
154
154
156
156
151
154
154
156
159
159
159
159
159
161
161
163
163
163
161
159
161
161
159
151
149
151
154
156
154
154
117
122
125
122
122
120
122
122
120
122
129
132
137
142
139
142
144
142
142
144
144
142
144
144
147
149
149
149
149
149
147
147
151
154
154
159
159
156
156
156
156
151
156
161
159
156
156
159
159
161
161
163
161
163
159
159
159
159
154
151
154
156
154
154
125
129
129
129
125
125
125
122
125
129
132
139
142
144
144
144
147
144
142
144
144
147
147
147
149
149
147
147
149
149
147
149
154
156
154
156
156
156
159
156
151
149
154
159
154
154
156
159
161
163
163
163
161
163
161
159
159
161
159
156
159
161
156
154
134
132
132
132
129
129
132
132
134
137
139
144
147
149
151
149
147
147
147
147
149
149
147
149
151
149
147
147
144
147
147
147
149
151
151
151
151
156
159
154
154
156
156
156
154
156
156
159
163
163
163
165
161
161
161
161
159
159
159
159
159
161
156
151
142
144
139
137
137
139
137
137
137
142
144
144
149
149
151
149
147
147
144
147
147
144
147
151
154
154
151
149
147
144
144
144
147
151
151
151
154
154
154
151
156
156
156
156
156
156
156
161
163
165
161
163
161
159
161
161
159
156
154
156
159
159
154
149
144
147
142
142
142
142
137
137
142
142
144
144
147
144
149
147
144
142
147
149
149
149
151
154
154
154
151
154
154
151
149
149
149
149
154
154
151
154
154
151
156
159
159
159
159
156
159
161
163
163
161
161
161
159
156
159
159
156
156
156
159
159
156
154
142
144
144
142
139
142
142
142
144
144
147
147
144
147
147
149
144
147
149
154
154
151
154
154
154
149
151
154
154
156
151
149
149
149
151
154
154
151
154
154
156
161
161
161
159
156
159
161
163
161
159
159
161
159
156
159
159
161
161
159
161
159
156
156
142
144
147
144
142
139
142
144
144
147
147
147
144
147
147
147
144
147
151
149
147
149
149
151
151
149
149
151
151
154
151
149
147
149
151
154
154
154
154
154
159
161
163
159
156
159
159
161
161
159
159
159
161
159
156
151
151
156
159
161
161
159
159
161
142
144
147
144
142
139
142
144
147
144
147
147
147
147
144
142
142
147
151
149
147
147
147
151
154
149
149
151
154
151
149
149
149
151
151
149
154
156
156
154
156
161
159
156
159
156
156
159
161
159
159
159
159
156
159
156
151
151
156
159
159
159
159
163
144
147
147
147
144
142
144
147
144
144
142
144
151
147
142
144
144
147
151
149
149
151
149
151
151
149
149
151
151
149
147
147
154
151
149
149
151
154
156
156
156
159
156
156
159
156
154
159
159
156
156
159
156
156
156
159
159
159
156
159
159
159
159
161
144
147
147
149
151
149
147
144
147
144
139
142
149
144
142
147
147
147
149
149
149
151
154
149
149
149
149
149
147
144
144
149
151
149
149
149
149
149
151
154
156
156
154
154
154
154
156
161
159
154
151
156
159
159
156
156
161
163
159
156
161
163
161
159
147
147
149
151
151
147
144
144
147
144
142
142
142
142
144
147
144
147
151
149
147
149
151
149
147
149
149
149
147
147
147
151
149
149
151
149
149
147
151
151
156
156
156
156
156
156
156
159
156
154
154
156
156
156
154
156
159
159
154
151
154
156
154
154
144
147
151
149
149
147
142
144
147
142
142
139
139
142
147
147
149
149
151
149
147
147
149
149
151
151
149
149
149
144
144
149
151
151
154
151
151
151
154
156
159
159
156
156
154
156
156
154
154
156
156
161
159
154
151
149
147
149
151
154
154
154
154
151
149
149
149
147
144
139
139
142
144
142
142
139
139
144
144
147
149
149
151
149
151
151
154
154
151
149
149
151
149
144
147
149
151
154
156
154
154
156
156
159
161
161
159
156
154
159
154
151
154
154
156
159
156
151
151
144
139
144
149
151
154
151
151
151
149
149
147
147
144
142
137
137
139
139
142
142
144
147
147
147
149
151
151
154
156
159
156
154
151
154
154
151
147
149
151
149
149
149
154
154
156
156
159
163
161
159
159
156
154
159
156
151
151
149
154
159
154
149
149
142
142
144
147
149
151
151
149
147
149
149
149
147
149
144
139
139
142
144
144
144
147
147
149
149
154
154
154
154
159
159
159
156
154
154
151
149
149
151
151
151
151
154
156
159
159
159
159
159
159
161
159
156
154
156
156
154
154
151
154
156
151
151
151
151
147
144
147
144
144
149
149
147
142
144
144
144
147
144
139
139
144
149
147
147
149
147
147
149
156
161
159
159
161
156
156
154
151
151
154
151
154
151
149
151
154
159
161
161
161
161
159
159
161
163
161
156
159
161
161
156
154
154
156
156
154
151
154
154
151
147
149
147
144
147
144
142
142
144
144
142
144
144
139
137
142
144
147
151
154
151
147
149
156
161
161
161
159
156
154
154
154
154
154
156
154
151
149
151
154
159
159
159
156
156
156
159
163
161
163
159
161
163
161
161
159
156
159
156
151
154
154
154
151
149
147
147
144
142
142
142
137
144
144
147
147
147
144
139
137
139
147
151
154
151
151
151
156
156
156
159
156
156
154
154
159
156
154
154
154
154
151
151
154
156
159
159
156
156
159
159
161
161
163
159
156
159
161
161
159
154
156
156
151
154
154
149
151
149
147
144
142
144
144
144
137
139
142
144
147
149
147
144
144
144
149
149
149
149
151
156
159
161
161
159
156
154
156
154
151
154
156
151
154
154
151
151
151
161
156
159
161
156
159
159
156
161
161
161
159
154
156
159
159
156
154
154
154
151
149
154
151
147
142
142
144
149
144
144
144
144
142
144
147
147
147
147
147
149
149
149
149
151
151
154
159
161
161
161
161
154
151
154
151
151
154
154
151
151
151
149
154
161
159
159
161
159
159
161
159
161
161
161
161
159
156
156
156
156
156
154
151
149
144
147
147
144
139
142
144
147
147
149
149
149
149
144
147
147
144
147
147
149
149
149
151
154
154
151
156
159
159
156
159
156
156
156
154
156
156
156
151
149
149
149
156
159
156
156
156
154
159
163
159
159
159
159
159
161
156
151
156
156
154
154
154
151
147
144
147
144
139
142
144
139
142
149
147
147
149
144
144
144
144
147
147
149
149
154
156
156
154
154
156
156
156
154
154
156
161
156
154
156
154
154
154
151
151
154
159
156
159
159
154
154
159
163
161
156
154
156
156
159
151
151
154
156
156
156
156
154
149
147
147
147
142
144
142
139
147
149
144
149
149
144
147
147
149
147
147
149
151
151
154
156
156
159
156
156
154
156
154
154
159
156
151
151
154
156
159
154
151
151
154
156
161
159
154
156
159
161
159
159
159
159
156
154
151
154
156
156
159
156
154
156
154
149
149
147
144
144
142
144
147
147
151
151
149
147
149
149
149
144
147
149
151
151
151
154
156
156
156
156
156
154
156
156
156
156
154
156
156
156
159
154
151
151
154
156
159
159
154
156
159
159
156
156
159
159
156
154
154
156
156
156
159
156
154
154
154
151
149
147
149
147
147
149
149
144
151
151
149
149
151
149
149
144
144
147
147
149
149
151
151
154
154
156
156
154
156
154
156
156
156
156
156
154
154
154
154
156
154
154
154
154
151
154
154
159
159
159
156
154
151
154
154
154
156
154
154
151
149
147
149
147
149
151
151
151
147
147
149
144
147
149
151
154
154
154
151
149
147
149
151
149
149
151
154
154
154
156
154
156
156
154
154
156
154
154
156
154
154
156
156
156
154
151
156
156
156
154
154
159
159
156
154
151
149
149
154
154
156
154
151
149
149
149
149
147
149
151
151
151
149
144
144
142
149
147
151
156
156
156
154
151
149
151
156
156
154
154
154
151
154
159
154
156
159
156
156
159
156
156
156
154
151
156
154
154
156
154
156
156
156
156
154
154
154
154
151
151
151
149
151
154
151
149
151
149
151
151
149
147
149
151
151
149
144
139
142
142
