P2
# 530 of 608 Angiograms
64 64
255
105
112
120
115
110
103
112
115
112
115
115
120
120
115
107
105
107
103
107
112
117
115
107
107
105
110
107
103
105
105
105
107
107
107
107
105
110
107
105
107
105
103
100
100
100
100
103
103
100
105
110
107
107
105
103
107
112
112
112
110
112
112
115
120
105
117
117
110
107
110
120
117
117
115
115
117
117
115
110
105
105
107
110
112
115
115
110
105
103
110
110
105
105
105
103
103
110
110
105
107
107
110
107
103
105
103
100
100
103
105
103
100
100
100
105
105
105
103
103
107
112
112
117
112
110
107
110
112
110
115
115
117
115
115
120
117
117
115
110
110
110
112
107
103
110
112
112
115
112
112
110
107
105
103
105
103
100
100
100
103
105
107
105
105
105
110
107
105
107
105
100
103
107
112
107
98
98
95
98
103
105
105
105
112
120
117
117
115
112
110
110
110
107
112
112
115
115
112
117
112
112
112
110
110
105
105
105
105
107
110
110
110
110
110
107
105
105
100
103
103
100
95
95
100
105
107
105
100
103
103
103
103
105
105
103
105
107
105
105
103
100
98
98
98
103
105
110
115
117
120
120
120
117
115
117
115
107
107
117
117
112
110
115
115
120
115
107
105
105
103
105
105
103
100
105
107
110
107
105
100
103
105
103
103
95
91
93
100
105
107
103
100
98
100
103
103
100
105
103
103
105
107
107
105
105
105
103
103
103
105
112
112
115
117
122
122
115
117
117
117
107
107
117
120
117
117
117
115
112
112
110
110
110
110
110
107
103
100
103
107
110
107
107
100
103
103
98
98
95
95
98
103
103
103
103
107
100
98
98
100
100
100
100
105
105
112
112
110
103
100
103
103
100
107
112
115
115
115
117
115
115
115
115
117
110
110
112
117
120
117
115
112
107
107
110
112
115
117
117
112
105
103
107
110
110
103
105
100
98
98
98
103
103
100
103
100
95
95
98
105
100
95
98
98
100
100
98
103
107
112
115
115
105
98
98
103
107
112
115
115
115
115
120
117
117
115
115
112
110
110
112
115
120
117
110
112
110
107
112
115
115
115
115
117
112
107
103
107
110
98
100
100
98
98
95
105
103
95
100
100
93
95
100
100
103
98
98
100
98
100
103
105
110
117
117
117
107
100
103
110
115
117
120
117
117
117
122
120
117
117
115
115
110
110
112
112
115
110
110
107
105
105
110
110
110
107
107
112
107
105
100
105
100
95
100
98
95
95
95
107
103
91
93
98
98
100
105
105
107
105
100
98
100
105
107
107
112
120
117
117
110
103
107
112
120
120
120
122
120
120
117
120
120
117
117
117
115
112
110
107
107
105
105
105
103
98
100
103
105
105
107
105
103
103
103
100
98
95
103
98
93
93
95
107
103
95
95
98
98
98
105
105
100
105
107
103
98
103
105
107
112
112
115
117
112
107
110
120
120
117
115
117
117
115
110
117
117
115
117
117
112
112
105
98
100
103
98
100
103
98
95
95
100
105
103
100
105
107
107
105
100
100
100
103
98
93
95
100
100
95
95
100
98
98
100
100
100
100
105
105
100
98
103
105
107
115
115
115
115
112
115
117
112
112
115
117
120
115
112
117
112
112
115
110
107
105
98
95
98
103
100
103
100
103
98
93
98
100
95
103
110
110
110
107
105
107
107
103
103
100
98
98
95
95
100
105
103
100
103
105
110
105
103
105
100
100
103
105
110
117
115
112
107
112
115
115
110
115
120
117
115
112
110
117
115
112
115
110
98
98
98
100
105
107
110
107
105
98
98
93
98
98
100
105
107
110
107
112
107
105
107
105
105
107
107
103
98
95
100
105
103
103
105
110
112
105
105
105
103
95
105
105
107
110
110
110
103
107
115
115
112
112
122
122
117
112
107
115
117
115
117
117
100
98
100
105
105
110
107
110
110
107
103
98
103
107
110
107
107
105
107
112
110
107
107
107
110
107
105
103
100
98
100
103
103
105
107
107
103
103
103
105
105
98
105
110
105
105
110
107
103
107
117
115
112
115
120
122
117
115
110
112
115
115
115
120
105
103
103
105
110
110
110
115
117
112
105
105
110
112
112
110
112
107
110
107
105
110
112
110
112
107
107
107
110
110
107
103
98
105
110
107
105
95
100
98
100
98
103
107
105
105
110
110
107
107
115
115
115
117
120
120
117
115
112
112
117
122
120
120
110
107
112
117
120
120
117
112
115
115
112
110
112
115
115
115
112
110
112
110
112
112
110
107
112
110
112
110
110
107
107
103
103
110
112
107
110
103
100
98
100
100
105
110
107
110
110
107
110
110
112
112
115
117
117
115
115
112
112
117
117
125
122
122
112
115
120
120
117
117
115
110
107
112
115
115
112
107
117
120
112
110
110
110
112
112
115
115
115
112
112
112
110
105
107
107
105
107
105
105
110
107
100
98
100
103
107
110
112
112
110
107
107
110
107
110
112
115
115
115
112
110
112
120
120
122
122
122
110
112
120
120
117
115
112
115
107
107
110
110
110
112
115
115
115
112
107
105
100
107
112
112
112
117
117
115
110
105
112
112
107
107
100
100
107
110
103
98
103
105
105
105
112
112
110
110
110
110
107
110
110
110
115
115
112
115
112
117
117
120
120
120
112
110
112
115
112
115
115
117
107
107
110
110
112
115
110
110
115
112
107
110
112
112
112
110
110
112
110
107
107
110
112
110
107
110
105
105
110
110
105
103
105
103
103
105
110
110
110
110
110
112
115
115
115
115
115
112
117
120
112
112
115
115
117
117
107
107
112
120
115
117
117
120
110
110
112
110
115
115
110
110
112
112
107
110
115
112
112
112
110
107
105
103
105
110
107
105
107
110
107
107
110
107
105
107
110
103
103
107
112
112
110
115
115
117
117
115
122
120
117
115
117
120
112
110
115
117
115
115
107
105
110
117
115
117
117
117
112
112
112
112
112
112
110
112
112
115
112
110
115
115
115
110
110
105
107
105
105
107
103
105
107
107
105
105
105
105
107
110
110
107
105
110
115
112
110
115
115
115
115
115
120
120
117
115
115
117
112
112
117
115
110
112
105
107
110
115
117
120
115
112
115
115
112
115
112
115
112
115
112
115
115
115
112
112
117
110
110
110
110
107
107
105
103
103
107
105
100
98
103
103
105
110
112
115
112
112
110
112
112
112
112
112
112
110
117
120
115
110
110
110
107
112
117
117
115
117
105
107
110
117
117
117
115
112
117
115
115
115
117
112
110
110
110
110
112
115
115
110
112
110
107
110
110
107
105
107
105
103
107
103
103
100
107
107
107
112
115
115
112
107
107
117
115
112
115
115
112
112
115
115
115
112
112
112
107
112
117
117
117
120
112
112
110
115
112
115
117
115
117
115
110
117
115
110
110
115
112
110
112
112
110
107
107
110
105
103
105
110
107
103
100
100
105
100
95
98
103
112
107
107
110
110
110
107
107
115
115
112
112
110
112
117
120
120
117
117
115
112
107
112
112
115
115
120
117
115
110
112
112
115
117
115
112
115
110
112
112
115
112
112
110
107
107
107
107
105
107
110
103
98
98
103
103
103
100
103
103
100
95
95
100
105
100
103
107
107
110
107
107
110
107
110
110
110
112
115
117
117
115
115
110
110
112
112
107
115
117
117
117
117
117
110
110
115
117
115
112
115
112
115
112
120
115
110
107
110
110
107
107
105
105
107
105
100
98
100
105
105
105
105
103
100
93
95
103
105
103
103
105
105
105
107
107
107
107
110
107
105
110
115
115
115
112
110
107
107
112
115
115
117
117
120
117
112
112
107
110
115
117
117
115
115
115
115
115
115
117
110
110
112
112
112
110
103
100
103
105
105
103
100
100
103
105
107
103
98
98
100
103
107
107
105
105
107
107
107
107
112
112
110
110
110
112
112
115
115
112
110
107
112
120
120
120
120
115
120
120
110
107
110
107
115
115
115
117
117
115
115
115
112
115
115
115
112
112
112
112
107
105
110
110
110
103
100
103
100
103
110
107
105
103
103
107
112
112
107
103
107
110
107
110
112
110
105
103
107
115
110
112
115
115
112
115
117
120
117
117
115
115
115
120
115
112
110
107
112
110
110
115
120
122
117
112
115
115
115
112
107
107
110
112
112
107
110
110
115
103
100
103
105
100
103
107
110
107
107
110
115
112
110
105
107
105
107
110
112
112
110
105
107
115
115
115
115
115
115
115
120
120
120
120
112
112
117
115
115
112
112
110
112
107
112
117
120
122
120
115
117
117
110
112
112
112
112
115
115
110
105
105
110
107
100
103
103
100
100
105
107
107
107
107
107
112
107
110
110
105
105
112
115
117
112
112
112
117
120
122
117
115
112
115
122
125
122
117
115
117
120
115
115
112
112
115
112
117
122
125
122
122
122
117
117
115
112
115
115
112
115
117
115
110
105
107
110
110
103
100
100
98
103
105
103
103
105
110
110
107
110
107
107
110
107
112
115
117
117
112
112
112
115
120
117
117
115
112
120
122
120
117
115
120
122
112
115
117
120
115
117
125
125
125
117
117
122
120
120
117
115
115
110
110
112
117
117
110
110
112
112
115
105
98
95
95
103
105
100
103
107
107
103
103
105
107
107
110
110
107
110
115
117
115
115
115
117
117
120
120
117
115
117
117
115
115
115
122
125
115
117
120
120
117
122
125
125
127
125
120
120
122
125
120
112
110
112
112
115
120
120
117
115
112
112
115
112
105
98
98
100
105
103
105
107
105
103
107
105
107
110
107
107
110
110
112
117
120
115
115
117
115
120
120
117
120
112
115
115
115
117
125
122
120
117
122
120
115
122
125
122
127
125
122
125
125
125
122
115
107
115
115
115
120
122
120
112
110
112
112
112
107
100
98
100
100
103
107
107
107
105
110
105
107
110
112
112
112
112
115
112
115
115
112
117
122
120
120
122
122
117
115
117
117
125
122
117
120
117
122
120
115
120
125
122
122
122
120
122
127
125
122
112
115
115
110
110
117
122
117
112
110
107
110
110
105
98
98
103
100
105
110
107
105
103
105
105
110
110
110
112
110
112
115
117
115
112
112
117
120
120
122
122
115
115
120
117
120
120
115
112
117
112
117
117
117
117
117
117
120
120
120
125
125
127
125
112
112
112
112
115
120
120
117
112
107
103
107
107
105
98
103
105
105
107
110
107
107
105
105
105
110
107
110
115
115
112
115
117
115
112
112
117
117
120
120
115
115
117
117
120
122
117
112
112
115
110
112
112
112
117
115
117
125
122
120
127
125
127
125
115
115
117
117
117
117
117
115
115
112
107
105
107
107
103
103
107
107
107
107
107
110
107
107
110
112
112
107
112
122
120
117
115
112
112
115
117
120
115
115
117
117
120
125
127
125
120
117
117
117
112
110
110
112
112
115
120
125
122
122
125
125
132
127
120
117
120
117
115
115
115
117
117
115
112
107
107
107
105
105
103
105
110
112
115
115
112
110
112
115
112
107
110
117
120
117
115
110
112
117
115
117
117
117
115
117
122
129
132
129
122
120
120
117
112
107
107
107
105
110
112
117
120
120
122
125
125
122
122
120
117
117
117
117
117
117
117
117
112
110
107
107
110
107
100
100
110
115
120
115
110
105
105
107
110
112
115
117
117
117
115
115
117
117
115
115
115
112
115
120
122
125
125
125
122
120
120
120
117
115
115
112
107
105
105
110
112
112
115
120
120
115
117
120
115
115
117
117
117
117
120
120
115
107
105
107
107
105
103
100
105
107
112
110
110
107
107
112
112
110
112
117
120
115
117
115
117
120
120
120
115
115
120
120
120
120
120
125
122
120
122
122
122
120
122
125
120
112
107
110
110
105
107
110
112
110
110
112
115
112
112
112
120
117
117
115
110
107
107
105
103
105
103
105
110
112
112
107
107
105
110
115
117
112
112
117
120
117
117
122
122
120
122
122
120
117
120
117
117
117
117
125
125
117
117
125
127
127
127
127
127
125
117
112
110
107
107
110
115
112
107
110
110
105
107
112
120
115
115
110
103
100
103
100
100
103
100
103
110
110
112
110
110
110
112
112
115
115
112
117
122
120
117
122
122
117
117
122
122
122
120
115
115
115
117
125
122
117
117
125
129
129
129
127
125
127
125
117
115
112
112
112
117
112
107
103
105
103
107
110
115
112
112
105
98
95
100
95
100
100
100
110
112
112
107
107
112
115
117
115
112
110
112
115
122
122
117
120
117
117
117
122
122
120
117
117
120
120
120
120
122
122
122
127
129
132
132
129
127
127
125
125
117
120
115
115
117
112
105
103
103
105
103
105
112
110
107
103
100
98
98
98
100
103
107
115
115
112
110
110
115
117
115
115
112
112
112
115
122
122
120
117
117
117
120
125
120
117
120
122
125
122
120
120
122
125
122
129
132
134
129
129
132
132
129
127
120
120
120
117
117
120
112
107
107
110
107
105
110
110
103
103
100
100
100
98
103
103
105
112
115
107
110
110
112
112
112
112
117
115
115
112
117
122
120
117
112
117
115
112
117
120
120
125
125
122
122
120
120
122
125
129
132
134
132
129
132
134
132
125
117
127
125
122
127
127
122
117
112
110
110
107
107
100
98
100
100
95
95
100
105
103
105
107
112
112
110
110
110
112
110
115
117
112
112
117
120
120
120
117
112
115
112
115
117
122
125
125
125
122
120
117
117
125
125
125
127
129
129
129
129
132
132
122
122
129
132
125
129
127
125
120
117
115
112
107
103
95
93
93
95
91
93
95
100
100
105
105
107
112
110
112
110
112
110
115
115
115
110
115
115
117
122
122
117
112
115
120
120
120
122
122
122
120
120
120
122
127
127
122
120
127
125
127
127
127
127
125
127
129
132
132
127
125
127
127
120
115
110
105
98
98
95
93
93
89
91
95
100
105
110
105
105
115
110
115
115
112
112
112
112
115
112
110
107
117
122
122
122
117
117
125
122
122
122
122
125
125
127
125
122
125
125
122
125
127
122
122
122
125
125
129
127
129
132
134
132
129
127
127
125
117
115
107
100
98
93
93
91
89
91
98
105
110
110
107
105
110
112
115
115
115
115
115
115
112
110
110
110
115
122
125
122
120
120
125
125
122
120
120
120
125
129
127
127
127
127
120
127
127
120
117
120
122
125
129
127
129
129
132
129
129
132
127
125
122
117
112
107
100
98
95
91
91
95
100
105
110
112
110
110
112
117
115
112
112
112
120
120
117
115
115
115
117
120
120
125
125
122
122
125
125
120
120
120
125
127
125
125
127
127
122
125
122
117
117
120
127
127
129
125
125
127
127
127
129
132
129
127
117
117
115
115
107
105
103
95
95
98
103
105
110
112
110
110
115
120
117
110
110
115
120
120
117
115
112
115
120
117
117
120
120
120
122
125
129
127
122
120
122
122
122
120
120
125
117
125
125
125
127
127
127
125
125
122
117
125
127
129
132
125
127
127
120
120
117
115
105
107
105
98
98
105
110
105
110
112
110
107
112
117
122
112
107
112
115
117
117
112
107
115
122
122
117
117
120
122
129
129
129
127
127
122
122
125
125
120
122
125
115
122
125
127
129
132
129
127
125
122
117
122
127
129
129
122
122
125
122
122
120
112
105
110
105
103
105
105
107
107
112
112
110
107
110
115
120
115
107
110
115
115
110
107
110
120
127
127
122
122
122
122
129
127
125
122
122
122
127
125
122
122
125
122
115
122
125
129
127
129
132
132
125
120
122
122
127
129
127
122
125
127
122
122
122
112
107
110
107
105
110
110
110
110
115
115
115
107
107
115
120
115
112
107
110
112
110
110
117
125
127
127
125
122
120
125
122
122
120
120
122
122
125
122
122
120
122
122
110
117
122
122
122
125
127
129
125
120
125
122
122
122
122
120
122
122
120
120
122
112
107
105
105
105
110
110
107
117
120
122
117
115
112
120
122
115
107
105
107
107
112
115
125
127
127
122
120
120
120
125
122
122
117
120
125
122
122
125
122
120
120
117
107
112
120
122
120
115
120
127
127
120
125
122
120
120
117
115
120
122
122
122
120
110
105
100
105
110
110
107
110
117
120
122
120
117
120
120
117
120
112
110
112
115
115
120
127
122
120
120
120
122
120
125
125
125
120
122
125
122
125
127
125
122
122
117
103
103
112
117
117
115
117
122
122
120
122
117
117
120
112
112
117
122
120
117
115
110
107
105
105
110
112
110
112
120
122
125
120
120
120
117
112
122
120
115
115
115
115
122
125
122
120
117
122
122
120
120
125
125
122
125
127
125
122
120
122
120
120
117
100
103
107
112
117
112
115
117
117
117
115
112
120
120
112
115
115
117
122
117
115
112
110
110
105
112
115
115
117
125
122
122
122
122
117
110
110
115
120
117
112
112
115
117
125
122
122
122
125
122
125
125
125
122
125
125
125
125
125
122
122
120
112
117
103
103
100
103
110
110
110
110
110
112
107
112
120
117
112
115
115
112
120
117
107
115
117
115
115
115
115
117
125
127
122
122
125
127
117
112
110
115
117
117
117
117
115
115
120
122
122
125
120
117
125
127
125
122
125
127
125
122
127
125
127
125
117
117
98
100
100
105
107
105
107
107
105
105
107
115
117
117
112
112
107
107
110
110
105
117
120
115
120
120
120
120
125
125
125
122
122
122
117
115
110
112
120
117
117
120
117
120
117
117
120
122
120
115
120
120
122
125
127
129
127
125
129
125
125
127
120
120
100
100
100
103
103
105
105
105
103
105
110
110
115
120
115
112
110
110
110
110
112
120
117
112
112
117
122
120
122
125
127
122
117
117
120
115
110
107
115
120
117
117
117
120
117
117
120
120
125
120
120
115
120
125
129
125
125
129
127
120
120
125
122
122
105
105
103
100
100
103
105
105
105
105
105
105
110
112
112
110
107
107
107
112
115
117
117
115
115
120
120
120
122
120
122
122
120
120
122
117
110
107
110
117
120
122
122
117
117
117
117
117
120
122
122
117
120
127
127
122
125
127
120
115
115
120
120
120
107
100
100
105
98
98
100
107
110
105
105
107
112
112
112
110
107
107
107
107
107
112
117
120
120
120
120
122
122
120
117
115
117
122
120
117
110
107
110
112
117
120
117
112
115
117
115
110
115
122
122
120
117
125
127
125
125
122
117
117
117
115
112
117
100
95
95
98
98
98
100
105
110
107
105
110
110
110
110
107
107
105
107
100
105
110
117
125
127
127
125
122
122
122
112
112
120
120
117
115
112
110
110
112
120
120
117
115
115
115
115
112
115
120
122
122
120
120
122
122
125
120
115
120
120
115
115
115
