P2
# 531 of 608 Angiograms
64 64
255
244
243
244
244
245
245
245
245
245
245
245
244
243
242
240
239
239
239
239
240
240
239
238
237
237
237
236
234
234
233
232
231
230
227
224
220
219
220
220
223
224
226
227
226
226
225
224
221
219
217
214
213
211
210
207
207
210
213
215
218
221
224
225
226
244
244
244
244
245
245
245
245
245
245
244
244
243
242
240
239
238
239
239
239
238
237
236
236
236
236
235
233
233
235
233
232
229
225
221
218
215
214
215
218
221
223
225
225
225
224
223
220
219
217
214
211
211
209
206
204
209
213
217
220
224
226
225
225
244
243
244
244
245
244
244
244
244
244
244
243
243
242
240
238
238
239
238
238
237
236
235
236
236
235
233
233
233
234
233
232
229
225
221
218
215
214
214
215
218
220
223
224
223
221
220
218
217
214
213
210
211
209
204
204
209
213
217
221
225
226
225
223
244
243
244
244
244
244
244
244
243
243
243
243
243
242
240
238
238
238
237
236
235
235
235
234
234
233
233
232
232
233
233
231
228
225
223
220
218
217
217
217
218
219
220
220
218
217
215
214
214
211
211
211
210
207
202
204
209
213
218
221
224
225
224
223
244
243
244
244
244
244
244
243
243
242
242
242
242
241
239
238
238
237
236
236
235
234
234
233
232
231
231
231
232
233
233
231
228
225
223
223
220
219
219
219
219
218
217
215
213
211
209
209
209
209
210
211
209
206
204
207
209
213
218
221
223
223
223
221
243
243
244
244
244
244
244
243
242
241
241
241
240
239
238
237
236
236
235
234
234
234
233
233
230
230
231
232
232
233
232
230
228
225
223
223
221
220
219
218
215
214
213
210
207
204
202
204
206
206
207
209
209
206
204
207
209
213
217
220
221
221
220
219
243
242
243
243
244
244
244
243
242
241
240
240
239
238
237
236
235
234
234
233
233
233
233
232
231
231
231
231
231
231
230
229
228
224
223
223
221
219
215
213
211
209
206
201
197
197
199
201
202
204
204
206
207
207
206
206
209
211
215
219
220
219
218
218
241
241
242
243
243
243
243
242
241
240
239
238
236
236
235
234
233
233
233
234
233
233
233
232
231
230
230
229
229
229
228
228
227
224
221
220
218
214
210
207
206
202
199
194
192
192
194
196
201
202
204
204
206
207
207
207
207
210
214
218
218
217
215
215
241
240
241
242
243
243
242
241
240
238
237
235
233
232
231
232
232
233
233
234
235
234
233
233
231
230
229
228
228
228
228
227
225
221
218
215
213
209
207
204
204
201
196
190
188
190
194
196
199
202
204
204
204
206
207
206
207
209
213
217
215
215
214
214
241
240
241
242
242
242
242
240
239
237
235
233
232
230
230
230
231
233
234
235
234
233
233
232
230
229
228
227
227
226
226
225
223
219
213
210
209
207
206
206
204
201
196
192
190
192
196
197
201
204
204
204
206
207
207
206
206
209
213
215
214
213
213
213
243
241
241
242
242
242
241
240
238
236
234
233
231
231
231
231
232
233
234
235
233
233
232
231
229
228
227
226
224
225
225
224
221
215
210
206
206
207
207
207
206
202
197
194
194
197
199
199
201
202
204
204
206
207
209
206
206
209
213
214
214
213
213
213
244
243
243
242
242
242
241
240
238
236
234
233
232
232
232
232
233
233
234
235
234
233
232
231
228
227
226
224
224
224
224
223
219
211
206
204
204
206
209
209
207
204
199
196
196
197
199
199
199
199
201
201
204
209
209
209
209
211
213
215
215
213
213
213
244
244
243
242
242
241
241
240
238
236
235
233
233
233
233
232
233
233
234
235
234
233
231
230
229
226
224
223
223
223
223
221
217
210
204
202
202
206
209
209
206
202
199
194
196
197
197
197
197
196
199
199
204
209
210
210
210
213
215
217
217
214
213
213
244
243
243
242
241
241
241
240
239
238
236
235
234
234
233
232
232
233
234
235
234
233
231
229
228
226
224
223
220
220
220
219
214
210
206
204
204
207
207
207
204
202
201
196
196
196
197
196
194
196
197
201
207
210
211
211
213
214
217
219
218
215
213
211
243
243
242
242
241
241
241
241
240
239
238
237
236
235
234
233
232
233
234
234
234
232
229
228
228
226
223
221
220
220
220
217
213
210
209
209
209
209
209
206
204
202
202
197
194
194
196
196
197
197
201
206
210
213
214
213
213
215
218
219
218
215
213
210
243
242
242
242
241
242
242
242
242
241
240
238
237
236
234
233
232
232
233
233
233
232
229
228
228
226
223
220
220
220
219
217
213
209
211
211
210
210
207
206
206
206
204
201
197
194
196
197
199
202
204
209
213
215
215
214
214
215
218
218
217
215
213
210
243
243
242
241
241
242
242
243
242
241
240
239
238
236
235
233
232
231
232
232
233
232
230
228
228
225
223
220
220
219
218
217
213
210
211
213
213
211
209
204
204
204
206
202
201
199
201
202
202
206
209
211
215
218
217
214
214
215
217
217
215
214
213
210
243
242
241
241
241
242
242
242
242
242
241
240
239
237
236
234
232
230
230
231
232
232
231
229
228
224
221
219
219
218
217
217
214
211
213
214
214
213
210
204
202
204
206
204
202
202
204
206
207
209
211
215
218
219
217
214
215
217
217
217
214
214
213
211
243
242
241
240
241
241
242
242
242
242
241
241
239
238
236
234
233
231
229
229
230
230
231
230
228
224
221
219
218
217
215
215
215
213
214
217
218
215
210
206
202
202
206
206
204
206
209
211
211
213
215
218
218
218
217
215
215
217
218
217
214
214
214
214
244
242
241
240
240
241
241
241
243
242
242
241
240
239
237
236
233
232
231
229
229
230
230
229
228
225
223
220
218
217
214
214
215
215
217
219
219
215
210
206
202
202
202
204
206
209
210
213
215
215
217
218
218
217
217
215
215
217
218
217
217
214
215
215
244
243
242
240
239
240
240
241
242
243
242
241
241
240
238
236
234
233
232
231
230
230
229
229
228
227
224
221
219
217
214
213
214
215
218
219
219
215
210
204
202
201
202
206
207
210
211
214
215
217
215
215
217
217
217
215
215
215
218
218
218
217
217
215
245
244
243
241
240
239
240
241
242
242
242
241
241
240
239
236
234
233
233
232
230
230
229
229
228
228
225
221
219
217
214
213
214
217
218
218
218
214
209
204
202
202
204
207
209
210
211
214
215
215
214
214
214
215
215
215
215
214
217
218
218
218
217
215
245
244
243
242
241
241
240
240
241
241
241
241
240
239
239
237
234
233
233
232
230
231
232
229
228
227
225
221
219
217
214
213
215
215
217
218
217
214
209
204
204
204
207
209
210
210
211
213
214
213
213
211
213
213
214
215
215
214
217
218
219
218
217
214
245
245
244
243
242
241
241
240
241
241
241
240
239
239
239
237
235
233
233
232
231
231
232
229
228
227
225
221
219
217
215
215
217
218
217
218
217
213
209
204
204
204
207
209
209
209
210
211
211
213
213
213
214
214
215
218
217
215
217
217
218
217
215
214
246
245
244
243
242
241
240
240
240
241
240
240
240
240
239
238
236
233
232
232
232
231
231
230
228
226
225
221
219
217
215
215
218
219
219
218
215
213
209
204
202
202
204
206
207
209
210
210
210
211
213
214
214
214
217
218
218
218
217
217
217
217
215
214
246
245
245
244
243
241
240
240
240
241
240
240
240
240
240
239
237
235
233
231
231
231
231
230
228
226
225
221
218
217
215
217
219
219
219
217
214
211
207
202
199
197
199
202
206
207
209
209
210
211
213
213
214
217
218
218
217
217
215
215
217
217
215
214
245
245
245
244
244
241
239
239
240
240
241
241
241
241
240
239
238
236
234
232
231
231
231
230
228
227
225
221
218
217
215
218
219
220
220
217
213
211
207
202
199
197
199
199
201
202
204
207
209
210
213
214
217
219
218
217
217
215
215
217
218
218
215
214
245
245
245
245
244
241
240
240
240
240
241
241
241
242
241
240
238
237
235
233
232
232
230
229
228
227
225
223
219
217
217
219
220
221
220
217
213
211
207
202
201
201
201
197
199
201
202
206
210
211
214
217
219
218
218
218
217
215
217
217
218
217
215
215
244
244
245
245
244
242
241
241
241
240
241
241
241
241
241
240
238
237
236
233
232
231
229
228
228
227
224
223
219
218
219
220
221
221
220
217
214
211
209
206
202
202
201
197
199
201
204
207
210
214
217
219
220
220
219
219
217
217
217
217
218
217
214
214
244
244
244
245
244
243
243
242
242
241
241
241
241
241
241
239
238
236
235
233
233
231
229
228
228
226
224
224
220
219
219
220
221
223
220
218
215
213
210
207
206
202
202
199
201
204
207
211
213
215
219
221
221
223
220
219
218
218
217
217
217
214
214
214
243
243
244
245
245
244
243
243
242
242
242
242
241
241
240
239
238
236
236
234
232
230
229
228
227
224
224
224
220
219
219
219
220
221
221
219
217
214
211
209
207
206
204
202
204
209
211
211
214
218
220
221
223
224
223
220
219
218
217
215
214
213
213
214
243
244
244
245
245
244
244
243
243
242
242
242
242
241
240
239
237
236
235
233
232
230
228
227
225
223
224
223
220
220
219
218
219
220
223
221
219
215
213
211
210
209
207
206
207
210
213
211
214
218
220
221
223
224
223
220
219
218
215
214
213
213
214
215
244
244
245
245
245
245
244
244
243
243
243
243
242
241
240
238
236
236
235
233
232
230
227
225
223
223
223
221
220
220
220
220
220
221
221
223
220
217
213
213
211
211
210
207
207
210
211
211
214
217
219
220
221
224
223
220
219
218
215
214
214
215
215
217
244
245
245
246
246
245
245
245
244
244
243
243
242
241
240
238
236
236
236
233
231
229
227
225
225
224
224
223
221
220
221
221
221
221
221
221
221
217
214
214
215
214
213
210
209
209
211
211
213
217
219
220
221
223
221
220
219
218
217
215
217
217
218
218
244
245
246
246
246
246
246
245
245
244
244
243
243
241
239
238
237
236
235
233
231
228
227
226
225
226
225
224
223
221
223
224
224
223
221
221
220
217
215
217
217
217
215
213
210
209
210
210
211
215
219
220
221
221
221
220
219
219
217
217
217
218
219
219
242
244
246
246
247
247
246
246
245
245
244
244
243
241
239
237
236
236
234
232
230
228
227
227
226
227
226
224
224
224
224
224
224
223
221
220
219
217
215
218
219
219
218
214
211
209
209
210
211
214
217
221
221
221
220
220
220
219
219
218
218
219
219
219
239
241
244
246
246
246
246
246
246
245
245
244
243
242
239
237
236
236
233
231
230
228
227
227
227
227
226
225
225
225
224
224
224
221
220
220
218
215
218
220
221
220
218
215
213
210
209
207
210
213
215
219
221
221
220
221
220
220
220
219
219
220
220
218
235
238
240
242
244
245
246
246
246
246
246
245
244
242
240
238
237
236
233
233
231
229
228
227
228
227
226
225
226
226
225
224
224
221
220
219
218
218
220
221
221
220
218
217
215
211
209
207
206
211
215
218
221
223
221
221
221
221
223
220
219
219
218
218
230
233
236
238
240
242
244
245
246
246
246
245
244
243
241
239
237
236
234
233
232
230
228
228
228
227
225
226
226
226
226
225
225
223
221
219
219
220
220
220
220
220
219
219
217
214
210
209
207
210
214
218
220
221
223
223
223
223
224
221
220
217
215
217
225
228
231
233
236
238
241
243
245
246
246
245
244
243
242
240
238
236
234
234
233
231
230
228
228
226
225
226
227
228
227
226
225
224
221
219
219
220
219
219
220
221
220
220
220
217
213
210
210
213
215
217
220
221
223
223
221
223
223
220
218
215
215
215
219
223
226
228
231
234
236
239
240
243
244
245
245
244
243
242
240
238
236
234
233
231
230
229
228
226
225
226
228
227
227
226
225
224
223
220
220
220
220
221
221
221
223
223
223
220
217
214
215
217
218
218
219
221
223
223
221
221
221
219
217
215
215
214
215
218
220
223
226
229
232
235
237
238
240
242
243
244
244
243
241
239
238
236
234
232
231
229
228
227
225
226
227
227
226
225
225
225
223
221
221
221
223
223
224
224
225
226
226
224
220
218
217
219
219
218
219
220
221
223
221
220
219
218
215
214
213
211
211
214
215
219
220
224
228
230
233
235
236
238
239
241
242
243
242
240
239
238
236
233
231
229
228
228
227
226
225
225
225
225
225
225
224
223
223
221
221
224
224
225
226
227
227
225
223
220
219
220
219
218
220
221
223
223
221
219
218
217
214
213
211
211
209
210
213
215
218
219
223
226
228
230
232
233
235
236
238
240
240
240
239
238
237
235
233
232
231
229
228
228
226
225
224
225
225
225
224
224
224
224
224
225
225
226
228
228
227
225
224
223
223
223
221
221
223
223
224
223
221
219
217
214
213
211
211
211
207
207
210
211
214
217
218
220
221
224
226
228
230
232
233
235
237
238
238
238
238
236
233
233
232
231
230
229
228
227
226
226
226
225
224
225
224
224
225
226
226
226
228
228
228
226
224
224
225
225
224
223
224
224
224
221
220
218
214
213
211
211
213
213
204
206
207
210
211
213
214
215
215
217
218
219
223
227
229
230
231
233
235
236
237
236
235
233
233
233
231
230
230
229
228
228
228
227
226
225
223
224
226
227
227
227
227
228
227
225
224
225
226
227
227
225
226
225
223
220
218
215
213
210
210
211
213
211
202
204
206
209
210
210
210
210
210
210
211
211
213
218
221
224
225
226
228
230
233
234
233
234
233
233
232
232
232
231
230
229
228
228
228
226
224
225
226
228
228
228
228
227
226
226
224
225
226
228
228
227
227
225
220
218
215
213
210
210
210
211
211
210
202
202
204
207
209
209
207
207
207
207
207
207
207
209
211
214
217
219
221
224
227
228
231
233
234
234
233
233
233
232
232
231
230
230
229
228
226
226
227
228
228
228
228
228
227
227
226
226
227
228
228
228
227
223
219
215
211
209
209
209
209
210
209
207
199
201
202
204
207
209
207
206
206
206
206
206
206
206
206
206
209
211
214
217
219
223
226
228
231
233
233
233
233
233
233
233
232
232
231
230
229
227
227
228
228
228
229
229
228
228
227
228
228
228
228
228
225
220
217
211
207
206
206
206
206
206
206
207
194
197
199
202
204
207
207
206
204
201
201
201
201
199
197
197
199
202
207
210
213
217
220
223
226
228
231
232
233
233
233
233
233
233
233
233
231
229
228
228
228
228
228
229
229
228
228
228
229
229
228
226
221
218
214
209
206
202
202
201
202
204
206
206
188
190
194
199
201
202
204
202
199
197
197
196
197
196
192
190
190
194
197
201
206
210
214
217
219
221
224
228
231
233
234
234
235
236
235
234
233
231
229
228
228
228
228
228
229
229
229
229
229
228
224
220
217
214
210
206
204
202
199
197
197
199
202
204
184
188
190
194
196
197
197
196
194
190
190
188
188
188
186
186
186
186
190
192
197
202
209
211
214
215
218
220
225
229
233
235
236
236
236
235
233
233
231
230
229
230
230
230
230
229
229
228
225
220
217
214
214
211
207
206
204
201
197
194
192
192
196
199
182
186
190
192
194
194
194
190
188
186
184
182
182
180
180
180
180
180
184
188
190
194
199
204
206
209
210
214
218
224
228
233
235
236
235
235
234
233
231
231
230
230
230
230
229
228
226
221
217
214
213
214
211
209
206
206
204
201
196
194
192
190
192
196
184
184
188
190
192
190
188
184
184
184
182
182
178
176
174
174
174
174
178
182
184
186
190
194
196
199
202
209
213
218
223
227
231
233
233
234
233
232
231
230
229
229
229
228
227
224
219
215
213
213
213
213
210
207
207
204
204
201
196
196
192
188
192
196
182
184
184
186
188
186
184
182
182
182
182
180
176
176
172
172
170
172
174
178
180
180
180
182
184
186
192
199
206
211
215
220
224
228
230
230
230
230
229
229
230
229
228
226
223
218
215
213
213
213
213
210
209
209
206
204
204
201
197
196
194
190
194
196
180
180
182
182
184
184
184
182
180
180
182
180
178
178
174
174
172
172
174
176
176
176
174
174
176
176
178
184
192
199
206
211
215
219
223
225
226
228
228
228
228
228
225
221
218
215
214
211
210
211
211
211
209
207
206
204
204
202
199
197
196
194
194
196
182
178
180
180
182
184
184
182
182
184
184
182
180
178
178
178
178
178
176
174
174
174
172
170
170
170
170
170
174
182
190
197
204
210
213
217
219
221
224
225
224
221
218
217
217
217
214
213
210
211
210
210
209
207
206
206
206
204
201
201
199
197
197
196
186
182
180
180
186
188
188
186
188
188
188
186
184
184
184
184
184
178
174
174
174
172
170
168
163
161
161
159
161
163
170
178
188
196
201
204
207
210
214
214
215
215
217
217
218
218
215
213
210
210
207
209
209
206
207
209
209
206
202
202
201
202
201
199
188
186
184
186
190
190
192
190
190
190
188
186
184
186
184
182
180
174
172
172
174
172
168
165
163
159
154
147
147
147
151
156
165
174
182
186
190
194
197
202
207
213
215
217
217
217
215
213
210
207
206
207
209
207
206
207
207
204
202
201
202
204
204
204
184
186
188
186
188
188
188
190
190
188
184
182
182
182
178
176
174
172
170
170
168
168
168
165
161
154
149
144
137
134
134
137
142
149
159
168
172
178
184
192
199
206
213
214
215
215
214
213
210
207
206
209
209
207
206
206
206
202
201
201
202
206
206
206
182
186
186
186
186
186
186
186
186
184
182
180
180
180
176
172
170
168
168
165
163
163
163
161
156
151
144
137
129
125
125
125
127
129
134
147
159
165
176
184
192
199
206
211
213
214
214
214
211
209
207
209
209
209
206
204
204
201
201
202
206
207
207
206
184
186
184
184
184
184
182
180
182
182
182
180
178
176
172
170
165
163
159
161
161
161
163
159
154
149
139
132
125
122
120
117
112
112
115
125
139
154
165
176
184
192
199
204
209
210
211
213
211
210
210
210
211
210
207
206
202
201
201
206
207
209
207
204
182
184
184
182
182
182
180
176
178
182
180
176
176
174
172
168
168
165
161
159
161
161
159
154
149
144
137
129
125
120
115
110
107
105
105
107
120
134
154
165
176
184
192
196
201
204
207
210
211
211
213
211
213
213
210
207
204
202
202
207
209
209
209
207
178
178
176
178
180
180
180
178
178
182
180
176
176
176
174
172
170
163
159
156
156
156
154
149
147
139
134
127
120
117
115
107
103
98
95
98
105
117
134
151
165
176
184
188
194
199
202
204
207
209
211
213
214
213
210
207
207
206
206
209
209
210
209
206
