P2
# 539 of 608 Angiograms
64 64
255
95
95
103
110
115
115
117
120
120
122
115
115
115
117
117
120
122
120
117
115
112
115
117
117
115
107
105
105
105
115
122
127
129
122
117
122
129
127
122
120
117
115
112
110
110
107
105
103
100
103
107
112
115
112
112
115
112
110
110
107
110
115
117
117
98
95
100
107
110
112
117
120
120
125
120
117
115
112
115
120
120
122
122
117
112
112
112
115
115
110
105
105
112
117
122
132
129
125
120
120
122
120
117
122
122
120
115
112
110
107
107
100
100
107
112
110
112
110
112
110
107
107
110
115
112
115
120
120
103
98
98
103
107
112
115
115
120
115
117
117
117
120
117
120
115
115
120
115
112
115
110
107
110
107
107
107
115
117
120
125
125
117
117
120
120
115
115
120
122
117
112
110
105
107
105
100
103
107
105
110
115
110
110
107
107
112
115
115
112
115
125
122
103
100
95
98
105
110
112
115
122
120
122
120
117
125
127
127
125
117
115
115
110
115
112
105
105
105
103
107
112
115
117
117
115
112
112
120
122
120
120
122
117
112
107
107
107
107
105
100
105
105
110
112
110
107
107
103
103
112
115
115
117
120
122
120
103
100
93
98
103
105
110
117
125
122
122
120
120
127
127
120
120
115
115
122
120
117
112
110
107
107
107
112
112
112
115
112
112
112
112
117
122
120
117
112
107
110
107
112
110
107
103
105
107
110
112
112
110
107
110
110
107
112
115
117
122
122
125
122
103
95
95
103
105
110
110
117
125
117
112
117
125
127
125
117
117
115
110
112
117
117
117
115
112
115
117
112
110
115
115
115
117
115
110
115
125
125
117
112
110
112
110
110
110
107
105
105
107
112
115
115
112
115
112
112
115
112
117
117
120
120
122
122
100
95
100
107
105
107
115
115
122
117
117
125
127
122
125
125
125
122
115
112
112
115
115
117
117
112
110
110
112
117
120
122
122
117
112
115
125
125
122
117
112
110
107
110
110
115
110
105
105
110
107
110
112
112
112
110
107
110
107
110
115
117
122
122
100
98
103
105
103
110
115
115
122
122
120
127
127
117
120
127
127
122
120
117
117
120
120
122
122
117
112
112
120
122
122
125
125
120
117
120
125
125
122
120
117
112
110
112
115
112
110
107
103
105
105
105
107
110
107
110
112
112
107
110
110
115
117
115
105
107
107
107
107
107
115
115
120
122
122
122
125
120
120
127
132
127
122
120
125
122
122
125
120
122
122
122
125
125
117
120
122
125
122
122
122
122
122
117
115
112
112
112
112
110
115
115
103
100
103
105
105
103
103
107
112
112
107
110
110
110
107
107
107
110
112
110
107
107
112
115
117
120
117
122
125
125
125
129
132
127
127
122
127
127
122
120
120
120
117
120
122
122
120
122
125
125
122
122
120
117
120
117
115
112
112
112
110
115
117
115
112
105
100
105
105
105
100
105
110
112
103
107
110
110
105
110
103
110
115
110
110
110
112
112
115
120
122
127
129
127
125
127
127
122
122
125
132
127
122
122
122
120
115
120
122
122
122
127
125
120
120
122
120
117
120
117
115
112
115
110
112
110
110
112
112
107
100
107
110
107
103
103
105
107
105
110
112
107
103
105
103
107
110
110
112
112
117
115
117
120
125
132
129
125
122
117
120
122
125
122
125
125
120
120
120
120
120
117
120
120
122
127
125
122
125
122
120
115
117
120
117
115
115
120
115
112
107
105
107
107
105
103
103
105
105
103
100
105
107
107
110
105
103
107
100
110
110
107
112
112
115
117
122
122
125
132
129
125
125
120
120
125
120
117
120
122
122
122
120
122
122
120
117
117
117
122
125
125
120
115
115
112
117
120
117
120
117
120
115
115
115
110
110
110
107
103
100
103
103
105
103
105
100
103
107
107
107
107
100
105
105
107
110
110
110
115
122
125
122
129
122
120
125
127
125
125
120
115
120
122
125
125
122
125
125
125
122
120
117
122
122
125
120
120
122
125
125
115
115
117
117
117
115
115
117
115
107
107
107
105
105
105
103
107
107
100
98
103
105
110
112
115
98
95
103
110
107
107
110
112
117
120
122
125
120
120
127
132
127
125
125
120
122
125
127
127
125
125
125
127
127
125
125
122
120
122
125
129
129
127
125
115
115
115
117
117
115
112
115
110
107
107
110
107
105
107
107
107
103
103
103
107
110
112
115
122
107
100
105
112
112
110
110
112
112
117
122
127
127
122
127
129
122
127
125
125
120
125
129
127
120
127
127
132
134
129
125
120
112
117
122
129
127
127
122
112
112
115
115
115
115
112
110
105
105
103
107
103
103
107
112
107
105
107
105
107
115
117
122
125
107
103
105
110
112
110
112
112
110
115
125
129
129
125
127
129
127
127
127
132
127
127
132
127
120
127
129
132
132
129
127
122
115
115
122
127
129
125
120
115
112
112
115
112
110
117
110
107
107
105
107
103
103
103
107
107
107
110
107
110
117
120
122
129
107
105
110
115
107
107
112
112
112
120
125
134
134
129
125
127
127
127
127
127
127
129
129
127
125
127
129
127
129
127
127
122
120
122
129
129
125
127
122
117
117
115
110
110
110
112
105
105
105
103
100
98
100
103
107
107
107
110
110
117
122
125
127
134
110
107
103
110
107
107
112
112
115
120
125
132
129
127
125
127
125
127
125
125
122
127
129
132
132
129
127
125
122
127
129
127
125
125
127
125
122
125
122
120
122
117
112
115
112
105
103
100
105
105
98
91
93
103
107
110
110
110
115
122
129
132
134
142
110
110
107
110
107
107
115
117
117
115
120
125
122
120
122
125
125
127
125
122
122
125
129
137
132
127
127
127
125
129
132
129
125
127
125
122
120
117
115
117
120
117
110
112
110
107
105
100
103
98
95
91
95
103
110
112
107
112
120
129
134
137
142
144
112
112
110
110
103
107
117
117
122
120
115
120
117
122
125
122
125
125
122
122
122
125
132
134
134
127
125
127
129
127
127
127
125
125
122
117
120
115
115
117
120
115
107
110
112
107
107
105
100
95
95
98
100
105
110
112
110
115
122
132
132
137
144
144
120
117
115
110
110
112
117
120
120
120
120
122
125
129
129
129
129
129
125
120
120
125
132
129
127
134
134
132
132
134
129
125
120
120
120
117
120
117
120
117
115
115
110
107
110
112
110
105
98
98
100
100
103
107
110
115
117
120
122
129
132
139
142
142
122
120
120
115
112
112
112
115
117
117
120
122
127
134
134
134
134
132
122
120
120
125
129
132
127
132
132
129
129
129
125
120
120
120
115
112
117
115
117
117
110
107
110
107
112
115
115
105
100
98
100
103
100
105
107
112
120
122
127
127
134
139
144
144
120
120
120
117
115
112
110
110
112
115
115
122
125
129
134
132
132
129
127
125
125
127
132
132
134
132
129
129
132
127
120
117
115
112
115
115
115
115
115
115
112
107
105
110
115
112
112
107
105
105
107
107
107
107
110
107
117
122
122
125
129
134
139
142
120
117
120
117
117
115
110
115
112
115
117
125
122
129
134
129
127
132
132
129
129
127
132
129
132
132
129
129
134
127
120
117
115
110
110
112
117
117
115
115
115
115
112
110
115
115
115
110
110
115
115
110
107
110
105
107
117
122
120
120
125
129
132
137
120
120
120
115
115
117
115
120
120
122
120
125
122
127
132
127
127
132
132
127
129
129
129
129
129
129
129
132
134
122
120
120
115
110
107
112
115
117
112
112
112
112
112
112
115
115
115
115
112
117
117
115
110
107
105
110
117
122
125
122
127
129
129
132
117
122
122
120
122
125
120
120
117
115
115
120
122
129
132
127
127
129
129
127
129
129
127
129
132
132
134
132
127
120
117
117
117
115
115
115
117
117
115
112
107
107
110
110
115
117
117
117
115
112
120
120
115
110
107
112
117
120
125
127
132
129
132
129
117
120
122
125
127
127
115
115
120
117
115
122
127
127
129
125
125
125
125
122
129
132
132
132
132
132
132
132
125
117
115
112
112
117
120
117
120
117
112
107
107
107
107
110
115
117
117
117
117
117
120
120
115
112
110
112
115
122
129
129
132
132
132
129
120
117
122
122
125
122
115
117
125
120
120
125
132
129
127
127
129
125
122
122
127
127
129
129
129
129
127
125
117
112
110
103
107
112
117
115
115
115
112
105
105
107
107
112
117
120
120
117
117
120
117
115
112
112
112
117
120
129
132
132
132
132
132
132
115
115
120
120
120
120
115
117
120
120
120
120
129
129
127
125
125
120
117
120
127
125
127
129
129
127
120
117
112
115
107
98
105
110
115
112
110
107
110
105
100
105
112
117
117
120
115
110
112
117
115
117
117
117
120
122
125
129
132
134
137
137
139
139
115
117
117
120
117
117
120
117
115
120
122
120
125
127
127
122
117
117
120
117
122
122
120
120
122
120
117
115
115
112
107
105
110
112
115
112
110
105
107
103
98
103
115
117
117
117
112
112
117
117
117
120
117
120
120
120
125
129
132
137
139
144
144
144
112
112
115
120
117
120
117
117
115
120
125
122
125
127
122
115
110
115
115
110
110
110
110
107
110
107
110
110
112
110
112
110
110
107
107
107
107
105
110
107
105
110
115
115
115
112
117
122
122
120
120
117
117
122
125
127
127
132
132
137
142
144
147
147
112
112
115
117
122
120
115
117
117
120
122
125
125
122
122
110
107
107
107
105
107
107
105
105
105
107
105
107
112
112
112
115
110
105
105
100
100
105
107
107
110
112
112
112
107
112
115
120
122
120
117
117
120
122
125
125
127
134
137
142
142
144
147
144
115
112
115
115
122
120
120
120
115
117
117
122
122
122
120
112
110
110
107
110
112
110
107
107
105
110
105
110
110
112
112
115
110
105
103
100
100
105
110
110
112
115
112
110
112
120
120
117
122
115
115
120
120
122
120
120
127
137
139
142
144
144
149
144
112
110
107
112
115
120
117
112
110
112
117
120
115
115
117
117
117
117
120
120
117
112
107
107
105
105
105
110
112
112
115
115
107
107
105
107
103
103
107
110
112
115
115
112
120
122
122
120
122
117
120
122
125
122
117
120
127
137
142
144
147
142
144
147
105
107
110
112
115
117
117
112
115
117
122
122
117
117
122
117
117
115
120
120
122
115
107
103
103
105
107
110
110
110
112
115
107
105
105
107
105
105
110
112
115
112
110
115
122
120
122
122
122
122
122
125
125
120
122
125
132
137
144
144
144
144
147
149
105
107
112
115
117
117
120
115
115
120
122
122
120
120
122
122
120
115
117
117
120
117
107
103
107
112
110
112
110
110
112
110
107
107
107
110
112
112
115
117
115
110
112
112
115
117
120
127
127
129
129
129
129
127
125
127
129
137
144
147
147
144
144
147
110
107
115
117
117
115
117
117
115
117
122
125
120
125
125
122
122
117
120
117
120
122
112
110
117
112
110
110
107
110
112
110
107
112
107
110
112
112
115
117
112
112
115
110
112
115
122
129
132
129
132
132
132
129
127
122
129
134
142
144
147
142
142
144
110
110
112
115
120
122
120
117
117
117
122
120
120
125
122
122
122
120
122
122
125
127
122
120
117
110
110
105
105
112
115
112
115
112
110
112
112
112
115
117
115
115
112
112
117
120
125
129
129
127
129
129
127
129
127
122
129
134
137
139
142
142
137
142
110
112
107
107
112
120
120
120
120
120
120
117
122
122
117
115
117
117
122
120
125
127
127
125
120
110
110
105
105
110
112
115
120
117
112
115
117
117
115
117
115
117
117
120
127
129
129
127
127
127
127
122
125
127
127
125
129
134
134
137
139
139
139
139
110
112
112
112
112
117
120
122
120
120
120
120
122
122
117
117
120
117
117
122
122
127
127
125
122
112
115
112
110
107
107
110
117
125
120
117
120
120
117
122
120
120
120
122
129
134
132
129
125
127
127
125
125
125
125
125
127
132
132
137
137
142
144
139
105
107
107
112
115
117
117
122
125
120
120
120
122
122
120
122
120
115
112
117
122
125
122
125
120
115
115
115
115
112
112
112
117
122
122
122
120
120
125
127
127
125
122
127
134
137
134
132
127
122
122
125
122
122
122
120
125
134
134
132
134
142
142
134
115
112
115
115
115
115
115
122
120
120
125
125
117
120
122
122
120
115
115
115
120
117
117
122
120
120
120
117
115
117
117
112
112
117
120
122
125
129
127
129
129
132
129
129
132
137
134
132
129
125
120
120
122
122
122
122
127
132
134
132
132
142
144
137
115
112
112
117
117
115
117
120
122
125
125
125
120
122
125
120
117
115
117
115
117
120
120
120
115
115
120
117
117
115
117
115
115
112
117
125
129
129
125
127
129
132
127
125
129
137
132
129
129
129
127
125
125
125
122
122
125
129
129
132
134
142
144
139
115
110
110
117
117
117
122
120
117
122
120
120
117
122
125
120
115
112
115
115
115
120
120
117
110
107
112
112
112
110
110
115
117
117
122
127
127
127
127
127
127
125
122
129
134
139
134
129
127
129
127
125
122
117
122
125
127
127
127
132
137
139
137
139
107
110
115
120
120
115
122
120
115
117
120
120
122
127
122
117
115
112
117
122
120
115
115
117
112
110
112
112
110
110
107
107
112
115
120
125
129
127
127
129
132
129
127
129
129
129
132
129
127
127
125
125
120
117
122
127
134
132
129
134
137
137
137
137
107
105
115
122
120
112
117
120
117
120
120
115
120
120
120
120
115
115
115
117
112
110
110
112
117
115
115
115
112
112
115
110
110
115
122
129
129
125
127
129
134
129
129
132
127
127
132
127
125
127
127
125
120
115
117
125
129
129
132
137
139
134
134
137
103
107
117
125
122
120
122
122
120
117
112
110
112
115
112
115
112
110
107
112
112
115
115
115
117
117
115
115
115
115
115
112
112
117
125
129
129
129
129
132
132
129
129
132
129
132
132
125
125
127
125
122
122
120
117
122
132
129
132
137
137
134
137
137
107
115
120
122
122
122
125
127
122
115
110
110
112
115
112
112
110
110
112
117
117
115
115
110
115
112
112
112
110
110
112
117
117
125
127
132
134
132
134
137
134
129
125
127
132
132
129
127
127
129
127
127
127
127
120
125
129
129
132
132
134
134
134
137
115
117
122
122
125
122
125
127
122
115
112
115
110
110
107
110
117
117
115
120
120
120
120
110
112
115
112
107
100
100
112
117
122
129
132
137
137
134
134
137
134
134
129
125
129
132
129
125
122
127
129
127
132
129
125
127
127
127
127
129
134
134
134
139
122
115
117
120
120
122
125
125
120
115
117
117
110
107
107
110
117
117
112
112
112
115
115
112
112
115
110
107
105
107
115
120
127
129
134
139
137
137
134
137
139
137
132
127
127
129
129
127
125
132
129
127
129
132
132
129
127
125
125
129
137
139
134
134
127
120
120
122
120
117
117
115
112
117
122
120
117
115
112
110
110
112
110
110
107
110
112
117
115
110
112
110
112
115
120
125
129
132
137
139
134
132
129
132
137
134
129
129
129
127
127
125
125
127
125
125
129
132
132
129
127
127
129
134
134
137
132
129
132
127
125
127
122
110
107
112
110
112
115
115
117
115
115
112
112
112
107
107
110
112
115
115
115
110
115
120
120
125
127
132
132
134
137
134
129
129
132
132
132
127
129
127
127
125
127
125
122
125
125
127
127
127
129
127
129
132
132
129
134
134
132
132
132
129
129
129
122
112
110
112
115
115
115
117
117
115
110
107
110
110
107
107
110
115
115
115
117
115
120
125
127
127
132
132
134
132
129
129
127
127
129
129
127
132
134
129
127
127
127
125
125
125
122
127
122
122
127
129
129
134
134
134
134
134
134
134
120
120
120
122
122
120
120
122
120
122
117
112
110
105
105
107
107
110
110
107
110
112
112
115
117
120
125
129
132
132
129
127
129
129
127
127
125
127
125
125
125
127
127
127
125
125
125
125
125
122
122
127
125
122
125
132
129
127
132
134
134
134
137
137
117
122
120
125
125
120
117
122
122
120
120
115
110
105
107
110
112
110
112
112
110
110
110
115
122
127
132
137
137
132
129
129
129
129
132
132
127
125
127
129
125
127
127
125
120
122
127
125
122
122
122
125
125
125
125
129
129
125
129
137
139
139
139
142
122
120
117
117
115
115
117
122
122
120
120
122
120
112
112
117
115
115
115
115
115
115
112
117
125
129
139
139
134
127
129
127
125
127
134
134
129
127
132
129
125
127
129
125
120
122
125
122
122
122
122
122
122
122
125
127
127
129
132
134
139
142
142
139
125
120
112
110
112
117
122
122
122
122
122
122
122
120
122
120
120
122
122
122
122
120
117
120
125
132
137
134
134
127
129
132
127
127
132
132
129
127
127
125
122
122
125
122
122
122
125
125
120
115
117
117
120
120
125
125
122
127
132
132
134
137
137
139
127
122
117
120
122
120
122
122
125
127
122
120
120
122
127
122
120
120
122
122
125
120
122
120
125
134
134
132
129
129
129
132
132
127
125
122
122
122
122
122
120
117
122
122
120
120
122
120
117
117
117
117
117
120
125
132
127
127
129
129
127
132
137
142
125
125
120
122
122
125
127
125
122
125
127
125
125
127
127
125
117
125
125
125
122
122
125
125
129
134
132
132
127
127
125
125
132
127
125
122
120
120
120
122
117
117
115
120
122
117
120
117
117
120
120
120
120
122
122
125
127
127
125
125
122
129
137
142
127
122
120
122
122
125
127
125
122
122
125
122
120
120
122
125
122
127
127
122
120
120
125
127
132
127
127
132
129
129
125
120
127
127
125
127
127
122
125
125
122
120
117
120
120
117
120
120
117
120
125
125
122
122
122
127
127
127
127
125
125
129
132
137
122
122
122
125
122
125
122
125
125
125
125
127
122
117
115
122
127
127
125
127
125
122
122
129
127
125
127
129
127
127
122
127
129
129
127
122
125
125
122
122
125
122
122
120
115
117
120
120
117
122
127
127
122
120
125
127
127
125
127
125
125
127
127
132
122
127
127
125
120
125
127
125
127
125
125
129
125
122
122
127
134
129
127
129
129
129
127
122
122
125
127
129
125
125
129
129
127
127
127
125
122
125
120
120
122
125
129
127
120
120
117
120
122
120
125
122
120
122
125
127
125
127
129
127
127
127
129
132
125
125
127
127
125
129
129
127
129
122
127
129
129
129
129
129
132
127
129
134
137
137
132
127
125
127
127
125
122
122
127
125
122
127
127
129
125
122
117
122
125
125
127
129
127
120
120
122
122
125
122
120
120
120
117
122
127
129
129
129
125
127
132
132
