P2
# 542 of 608 Angiograms
64 64
255
159
165
168
170
168
172
176
176
178
178
174
170
168
165
163
163
163
165
168
170
168
165
170
178
180
182
184
182
182
186
192
192
190
196
199
202
202
202
204
204
204
204
202
201
197
199
202
202
201
199
201
201
204
206
206
207
209
210
211
210
202
188
163
115
159
161
165
168
168
174
176
174
174
176
172
168
168
163
161
161
163
163
165
168
165
163
170
178
180
184
188
184
184
186
190
186
188
194
197
201
202
202
202
202
202
202
201
197
197
197
201
202
201
201
202
202
202
206
209
209
209
207
211
210
202
188
163
115
161
163
165
170
170
172
170
170
172
174
172
168
165
165
163
159
163
165
163
163
163
163
172
178
182
186
186
184
182
186
188
186
190
194
196
199
202
202
204
204
204
201
196
192
194
194
197
199
201
202
204
202
202
206
209
210
207
207
210
209
201
186
161
117
161
163
168
165
165
170
172
170
172
172
172
170
168
163
165
163
163
163
163
163
163
165
172
178
180
182
184
184
184
184
186
188
190
194
196
199
202
202
202
204
202
197
194
192
192
192
196
199
202
202
204
204
204
207
207
207
206
207
209
209
201
186
161
120
163
165
168
168
165
165
170
170
170
168
165
165
163
161
163
165
168
168
168
165
165
168
172
176
178
180
182
182
184
184
186
188
188
192
196
201
202
202
204
204
199
194
194
192
194
192
196
199
201
202
206
206
209
210
210
207
206
207
209
207
201
186
161
120
163
165
170
170
168
168
170
172
168
168
163
161
161
159
161
165
165
163
168
163
163
165
172
176
176
178
178
180
184
186
188
190
190
192
196
199
201
202
204
201
196
194
194
192
192
192
196
197
199
204
207
209
210
211
211
209
207
207
206
206
199
184
163
120
165
165
168
168
170
170
168
170
172
170
168
163
161
163
165
165
165
163
165
165
163
163
168
172
174
178
178
176
184
186
188
192
190
192
194
196
199
201
202
199
194
194
190
190
188
192
197
196
199
204
209
211
213
213
213
209
207
206
206
204
197
184
163
120
163
163
165
165
168
168
163
163
168
170
168
165
165
168
165
165
168
165
165
163
163
163
170
170
172
174
176
176
182
184
188
190
188
192
194
196
197
199
199
194
190
190
192
190
188
192
196
196
199
204
209
211
213
213
213
210
209
209
207
206
197
184
165
120
163
163
165
168
170
168
163
163
163
165
168
168
165
165
165
168
170
165
165
163
163
165
170
172
172
172
174
176
180
182
186
188
190
190
192
194
197
196
196
192
190
190
190
190
194
194
194
196
201
202
206
210
210
211
211
211
211
209
209
206
197
184
163
122
156
161
163
165
170
168
163
163
159
159
163
165
168
165
165
168
168
165
163
163
163
165
170
170
168
170
174
176
180
178
180
182
184
188
190
196
196
196
194
190
190
190
192
192
192
194
194
194
199
201
206
209
210
211
211
213
213
210
209
207
199
188
165
125
156
161
163
163
165
165
163
163
161
161
163
163
165
168
165
165
165
165
163
165
168
168
172
172
170
172
176
178
182
180
180
178
182
186
190
194
194
194
190
188
186
190
190
190
188
190
192
196
199
201
204
209
210
211
211
211
210
207
207
209
202
190
170
127
159
161
163
165
165
168
165
163
163
163
161
163
165
165
163
165
165
165
163
165
168
170
170
174
172
174
178
182
182
182
182
182
182
184
188
192
192
192
186
184
184
184
184
186
188
190
192
196
201
202
202
206
206
206
207
209
207
207
210
211
207
196
174
132
159
161
163
165
168
168
165
161
159
161
161
163
163
165
165
163
163
165
163
163
163
165
168
172
172
174
180
184
184
184
184
184
184
186
186
188
190
188
186
186
186
186
186
188
192
194
194
196
199
201
201
201
201
201
204
207
209
209
213
213
209
197
176
134
159
161
163
165
168
165
163
159
161
161
161
161
161
165
165
163
161
159
159
161
161
161
163
168
170
174
180
182
184
184
186
184
180
182
188
188
186
186
186
188
188
188
190
196
196
196
194
194
196
196
196
196
196
199
202
206
209
210
213
211
207
197
174
134
159
161
163
165
168
163
161
156
161
161
161
163
163
163
159
161
161
163
161
163
161
161
163
168
168
172
176
180
180
180
180
182
182
186
190
184
182
182
184
188
186
190
194
196
196
194
194
196
197
196
192
194
194
199
204
206
209
211
213
211
207
197
172
134
159
163
163
165
165
163
159
156
159
159
161
161
161
159
154
156
159
159
161
161
161
163
165
165
168
170
172
174
174
172
172
176
182
186
186
184
184
184
184
186
188
190
194
197
196
194
196
197
197
196
190
190
194
199
202
207
210
211
213
211
206
196
174
134
156
159
161
163
163
161
159
154
159
159
161
163
161
156
154
154
154
154
154
159
156
159
163
163
165
170
170
170
170
172
172
174
180
182
182
184
188
186
184
186
190
192
194
197
197
197
197
197
199
196
192
194
197
199
201
207
210
210
211
210
206
196
174
139
159
156
159
161
159
159
159
154
156
159
156
159
159
154
151
154
154
154
154
156
156
156
161
163
168
168
168
172
174
174
176
178
176
180
182
184
184
184
186
190
192
190
192
197
201
199
199
199
197
196
196
196
197
199
201
206
210
210
209
209
206
197
176
142
159
161
159
161
156
159
156
154
154
156
156
154
154
154
154
156
156
154
154
156
159
159
163
165
165
168
168
170
174
172
176
178
176
180
184
184
184
184
186
192
190
190
194
201
201
199
199
199
197
196
194
194
197
201
202
204
207
210
211
210
206
197
180
147
159
163
159
159
159
159
156
154
149
149
154
149
151
149
151
156
159
154
154
154
161
161
161
161
163
165
170
172
174
174
174
174
176
180
184
184
186
184
184
188
188
190
194
199
201
201
201
199
197
196
194
194
197
199
202
204
204
207
210
210
207
201
182
149
156
161
159
156
156
154
154
149
149
147
151
154
154
151
151
154
159
156
151
156
161
161
161
161
163
165
172
172
174
172
172
170
174
180
184
184
186
186
184
186
186
186
192
196
201
202
201
199
199
199
196
196
199
199
202
206
204
207
210
210
209
202
184
151
154
159
161
156
154
151
144
147
149
149
149
151
151
151
151
151
151
154
154
156
161
161
159
159
165
168
172
172
172
170
168
168
172
176
180
184
184
184
184
186
186
184
190
194
197
199
197
196
199
197
192
194
197
197
202
206
207
207
210
211
211
204
184
156
154
156
159
159
154
147
144
147
149
151
154
156
156
154
147
147
149
154
154
156
159
159
159
159
165
168
172
172
170
165
168
170
172
174
180
184
188
188
188
190
188
186
190
192
196
197
196
196
197
196
194
197
197
199
206
207
209
209
210
214
213
204
186
156
156
159
161
159
154
147
144
149
151
156
159
159
156
154
149
149
151
151
151
154
156
159
159
159
163
168
168
168
165
161
165
170
168
170
178
182
188
190
190
190
188
186
188
194
196
197
199
199
197
194
194
197
197
202
206
209
207
210
213
214
213
206
186
156
161
161
163
159
154
151
149
151
151
154
154
154
151
151
149
149
149
149
151
151
151
156
159
159
163
165
163
163
161
159
163
168
168
170
176
180
184
188
188
188
186
186
190
196
197
196
197
196
196
194
194
199
201
202
206
207
209
211
214
215
211
206
188
151
156
159
159
156
156
154
151
151
149
149
151
147
147
149
151
149
144
151
151
151
149
151
154
159
163
165
161
163
161
161
161
163
165
170
176
178
182
186
188
190
186
188
192
194
196
197
194
194
194
194
196
199
201
202
202
204
207
210
213
213
210
204
186
151
154
154
154
156
156
154
154
151
149
151
151
147
147
144
147
147
144
151
156
151
151
151
154
156
161
163
163
165
165
165
165
165
165
170
176
180
186
184
186
188
188
190
192
196
196
196
194
194
194
196
197
199
201
202
201
202
204
207
210
211
210
202
186
151
151
151
154
154
154
154
154
149
151
151
151
147
147
144
142
142
144
149
154
154
154
154
156
156
159
161
163
168
170
172
170
170
168
170
176
182
186
184
186
186
186
190
192
196
194
194
196
196
196
197
199
201
201
201
199
202
204
207
210
210
209
201
186
154
154
154
156
154
151
154
156
151
151
149
149
149
147
144
144
139
139
147
151
154
159
156
161
159
159
161
165
170
174
174
170
168
170
172
174
180
184
182
186
186
186
192
194
194
194
194
194
194
192
194
197
199
199
197
199
202
206
207
211
210
209
201
186
156
154
151
154
154
154
156
161
154
151
149
149
149
147
142
147
147
147
149
154
151
156
156
163
163
161
161
168
172
172
170
163
165
170
170
172
174
180
182
186
184
186
190
192
192
194
192
194
192
194
196
197
197
197
196
197
202
206
209
213
211
209
201
186
156
154
151
151
156
159
159
159
156
154
151
149
149
147
142
144
149
149
151
151
151
156
159
159
163
165
163
168
168
165
163
161
161
165
168
168
174
176
180
184
186
184
186
188
192
194
192
196
194
192
194
196
196
196
194
197
202
206
209
211
213
210
202
186
156
154
151
149
156
159
159
159
159
156
154
151
149
147
144
144
147
149
151
149
149
154
154
156
159
161
163
163
165
165
163
161
159
163
165
168
170
174
178
182
182
184
186
188
192
192
192
196
194
192
190
192
194
194
194
197
202
206
209
211
213
211
204
188
159
151
151
151
154
156
156
159
161
156
151
149
149
149
149
147
147
149
149
147
149
149
151
151
151
156
161
165
165
163
161
159
159
161
165
170
170
174
178
180
180
182
186
188
190
190
190
192
194
192
190
188
190
192
194
197
202
206
207
210
213
210
204
188
159
151
151
154
156
159
156
159
159
156
151
154
156
156
151
147
144
147
149
151
149
151
154
151
149
149
151
159
159
159
156
161
159
159
165
168
170
176
178
180
178
180
184
184
188
190
190
190
190
188
188
188
188
188
192
197
201
206
207
210
211
210
204
190
161
154
156
154
151
156
159
156
154
154
156
159
159
156
159
151
147
144
144
147
149
151
151
154
154
151
149
154
156
159
156
156
154
156
159
161
168
174
180
180
180
182
182
184
184
186
188
188
188
186
188
184
186
188
194
197
201
204
207
209
210
210
204
190
159
151
151
154
154
156
161
156
151
154
156
159
156
156
159
151
147
144
142
144
147
149
149
154
154
156
154
151
154
156
156
154
151
154
156
161
168
176
178
176
176
178
180
180
180
182
182
184
186
186
188
184
182
186
194
196
201
204
206
207
210
209
202
188
159
147
151
154
156
159
161
154
149
149
156
159
156
156
154
149
147
147
142
144
149
149
149
151
156
156
154
151
154
154
154
154
151
149
154
163
172
176
180
178
178
176
178
182
182
184
184
184
184
184
186
188
184
186
192
194
201
204
206
207
209
207
201
188
159
151
151
156
156
159
159
151
147
147
149
156
156
154
151
149
147
147
144
144
147
149
151
154
154
154
149
149
151
151
151
151
151
151
156
165
170
176
182
182
182
180
178
184
184
182
184
184
184
184
186
190
186
186
194
196
201
206
207
207
207
204
201
188
159
154
151
151
154
154
154
147
147
147
149
149
154
154
151
149
147
144
144
142
144
147
149
154
156
151
147
144
149
149
147
149
151
154
161
165
170
174
180
184
182
182
182
184
184
184
184
182
184
186
188
188
184
186
194
197
202
206
207
206
206
202
199
188
161
154
151
151
154
151
149
147
144
142
144
149
151
151
154
151
151
149
142
139
142
147
151
154
154
149
147
147
149
147
147
149
151
156
161
168
168
172
180
182
180
182
184
186
188
190
188
184
184
186
186
186
186
190
194
199
202
206
206
206
204
201
197
188
163
151
151
151
149
147
147
144
142
142
142
147
149
149
151
151
149
149
142
142
142
144
149
151
149
147
147
147
149
149
151
154
161
161
163
168
168
174
178
180
182
180
182
184
188
188
186
186
188
186
186
188
192
194
196
201
204
207
207
207
204
199
196
186
163
154
154
151
147
147
144
144
142
144
142
144
147
149
156
154
151
149
144
147
149
147
147
149
151
151
149
149
147
149
154
161
161
161
165
168
172
176
180
182
182
182
182
184
184
184
186
188
190
186
188
190
192
192
196
201
206
207
209
207
206
201
196
186
161
154
154
151
151
151
147
144
142
139
139
142
144
151
156
154
151
149
149
149
149
147
147
147
151
154
156
156
154
154
159
161
159
161
165
170
170
174
180
182
182
180
182
182
182
186
186
184
188
188
188
192
192
192
194
197
202
206
207
206
204
202
197
184
159
159
154
151
151
149
147
142
139
139
137
139
144
149
151
154
151
154
156
151
149
147
149
149
151
154
159
159
154
159
163
163
161
163
163
163
165
170
178
180
178
180
180
182
184
184
182
180
184
186
188
192
192
192
196
199
199
202
204
202
202
202
197
184
156
151
147
147
147
147
144
139
139
139
142
144
142
144
149
154
156
154
151
151
151
151
149
149
151
154
156
156
156
161
163
161
161
163
163
163
163
170
174
176
176
180
180
180
182
180
180
180
180
184
188
192
194
194
196
197
199
201
201
201
202
201
196
182
154
147
149
149
147
144
142
142
142
144
144
147
144
144
147
151
154
151
149
149
151
151
147
147
149
151
154
156
159
161
161
159
159
163
165
163
163
168
170
174
176
178
180
178
176
178
180
180
180
182
184
192
194
196
196
199
201
201
201
201
201
199
194
180
154
149
151
151
147
142
139
142
144
144
144
147
147
149
149
151
151
151
151
147
147
147
142
144
149
151
151
154
156
159
159
159
156
163
163
163
165
170
170
170
172
176
176
176
172
176
178
178
178
180
184
188
194
194
196
197
197
201
202
201
201
201
192
178
154
149
149
147
149
149
144
144
144
142
144
149
151
151
149
149
151
156
154
149
147
142
144
144
147
147
147
149
151
154
156
159
161
163
163
168
172
174
172
170
172
172
174
174
172
176
178
178
178
180
184
186
192
192
197
199
199
199
201
201
202
201
190
176
151
154
149
147
149
149
149
149
144
142
144
149
154
154
151
151
156
156
154
154
147
142
147
147
144
142
142
147
149
154
156
161
165
165
163
168
172
176
176
172
172
172
172
174
174
180
182
182
182
184
188
188
192
190
194
199
201
199
202
202
202
202
190
174
151
149
144
144
147
149
149
151
149
147
149
151
151
154
154
154
156
156
154
154
149
144
147
144
142
139
142
144
151
156
161
159
161
165
163
163
170
174
178
176
176
176
176
174
174
178
182
182
184
188
188
190
194
192
194
199
199
201
202
204
204
201
190
174
154
144
144
144
147
144
147
149
149
147
154
151
149
151
151
154
156
154
151
149
149
144
142
139
144
147
149
154
156
156
156
154
156
161
163
163
170
172
176
178
180
178
178
174
174
178
178
178
182
186
188
190
192
192
194
197
197
199
202
204
202
199
192
176
156
147
147
144
142
147
149
149
147
147
151
151
147
149
154
154
151
151
151
147
147
147
144
147
149
151
154
156
159
156
156
151
154
159
161
163
168
174
176
178
178
178
176
172
176
178
176
178
180
184
186
188
194
196
197
197
199
199
202
202
201
197
192
180
159
144
144
142
142
149
151
151
147
151
154
151
147
149
151
151
149
149
151
149
151
151
151
149
151
151
154
161
159
161
161
156
154
156
161
165
168
174
176
174
180
180
178
176
178
178
178
180
182
186
186
190
194
197
199
199
199
199
201
201
201
197
194
180
161
144
144
139
144
147
149
149
149
151
156
151
147
147
151
151
149
149
151
151
149
151
151
149
154
151
156
163
163
163
159
159
154
154
159
165
172
176
176
174
180
180
180
178
178
178
182
182
184
188
192
192
194
196
199
199
201
201
201
204
202
199
194
182
161
144
144
139
142
147
144
147
149
151
154
151
147
147
149
151
149
147
147
149
151
154
154
151
154
154
159
165
165
161
159
159
156
154
156
165
172
178
178
178
180
180
180
176
178
182
184
182
186
190
190
192
194
196
196
199
202
202
202
202
204
199
194
182
161
144
139
139
137
142
142
147
151
149
151
149
147
149
147
149
147
149
149
149
151
151
151
151
154
156
161
165
163
161
159
159
156
159
161
165
172
180
180
180
180
182
178
178
182
184
186
186
188
190
192
192
194
197
197
197
201
202
202
201
201
197
194
182
161
137
137
142
139
137
142
147
151
149
151
149
147
147
147
147
147
151
154
154
149
149
151
151
154
159
161
165
165
161
156
159
159
163
165
163
170
176
182
180
176
178
178
180
184
182
188
190
190
190
192
192
194
196
197
197
197
202
204
202
199
196
194
180
161
129
129
134
139
137
134
142
147
147
147
144
147
149
151
147
147
149
154
154
154
151
151
151
156
159
161
165
163
159
159
159
161
165
168
165
170
174
178
180
178
178
180
184
184
186
188
190
190
190
188
188
192
194
192
194
199
201
201
199
196
194
192
182
161
129
127
127
134
139
139
139
142
144
144
147
147
147
147
144
147
149
151
154
154
154
151
154
156
159
161
163
163
159
161
161
163
163
161
163
170
174
174
176
178
182
184
188
188
186
188
188
188
186
186
186
188
192
194
196
199
201
199
196
194
192
190
180
159
129
127
129
134
137
142
144
144
144
147
144
144
147
144
144
147
149
154
154
154
154
156
156
156
159
163
165
165
161
161
161
161
163
161
163
168
172
172
176
182
186
186
188
190
188
190
190
190
186
186
186
186
188
194
197
197
196
194
192
192
190
190
182
159
127
127
132
139
144
147
147
149
147
147
147
144
147
147
151
154
154
156
154
156
161
159
154
154
156
161
163
165
161
161
161
159
163
163
165
170
172
174
178
182
186
186
188
190
190
192
192
190
188
186
186
186
188
190
192
190
190
188
188
190
190
190
182
161
132
134
139
147
149
144
147
151
149
147
149
149
149
151
154
156
156
156
156
156
159
154
154
156
156
156
161
161
159
161
163
159
161
163
165
170
174
176
182
184
186
184
188
188
188
192
192
190
190
186
184
182
184
186
188
186
186
188
188
190
190
190
180
161
137
142
147
151
149
144
147
151
149
147
151
151
149
149
151
156
159
161
156
154
151
149
154
159
161
159
161
161
159
159
156
156
159
163
168
172
174
178
184
188
188
186
186
186
188
192
192
192
192
188
184
182
182
184
186
184
182
186
190
190
190
188
180
161
139
142
149
151
142
139
147
154
151
149
154
154
149
144
149
156
161
156
154
151
149
147
154
156
159
159
161
161
159
154
154
156
159
165
168
174
178
180
184
184
186
190
190
186
184
188
190
190
188
186
184
182
182
182
184
184
180
184
188
188
190
186
178
161
