P2
# 543 of 608 Angiograms
64 64
255
217
215
213
210
206
201
199
199
199
199
196
192
192
190
188
190
192
190
190
190
190
186
186
186
188
188
188
188
190
192
192
192
190
188
184
182
178
174
168
168
163
163
165
168
172
176
176
176
176
176
176
176
178
178
176
174
172
170
168
168
168
170
168
168
217
215
213
209
204
199
199
199
199
199
196
192
190
190
188
186
188
190
190
188
188
186
186
188
188
188
186
186
186
188
190
192
190
188
184
182
178
172
168
168
165
163
163
168
170
174
176
176
174
176
178
176
178
180
178
176
172
170
168
168
168
168
165
168
217
217
213
209
204
199
199
199
199
197
196
192
190
188
186
186
186
188
188
188
188
186
188
190
188
186
188
188
188
188
188
188
188
188
184
180
176
174
170
168
168
163
168
170
170
176
178
176
174
176
178
178
178
178
180
176
174
172
168
168
168
165
168
170
215
215
213
210
204
199
199
201
199
199
197
194
192
190
186
186
186
186
188
188
188
186
188
188
186
188
188
188
190
188
186
188
186
188
184
178
176
176
174
170
170
168
168
170
172
176
178
178
176
178
178
178
178
176
176
176
178
174
168
170
170
170
168
168
217
215
214
211
207
202
201
202
199
199
199
196
194
192
188
186
186
186
188
192
192
190
190
188
190
192
190
190
188
186
186
186
182
184
180
178
176
176
176
172
174
172
168
172
174
178
180
180
178
182
180
180
178
178
174
176
178
176
168
165
165
165
165
168
215
215
215
214
210
207
204
202
202
201
199
196
194
194
190
188
186
184
188
192
192
192
192
192
192
192
192
194
190
186
186
184
182
180
178
178
180
178
176
172
172
170
172
174
176
180
182
182
184
184
182
180
180
178
176
178
180
176
170
165
165
165
165
165
215
215
215
214
211
210
207
206
204
204
201
196
196
194
190
186
182
182
188
192
192
192
194
194
194
194
194
194
190
188
186
184
182
180
178
180
182
178
176
172
172
172
176
178
182
184
186
184
184
184
184
180
178
178
178
180
178
174
170
170
170
170
170
172
215
213
214
214
211
211
210
209
207
204
199
196
194
190
188
184
182
184
188
192
190
192
192
192
192
194
194
190
188
188
186
182
182
184
180
180
180
178
178
176
174
176
180
182
186
188
188
184
182
184
182
180
178
176
176
176
174
172
172
174
172
172
172
172
214
214
214
213
213
210
210
210
207
202
199
194
194
188
188
188
184
184
188
190
190
192
190
190
192
192
192
188
188
188
186
182
184
186
182
180
178
178
178
178
180
182
184
186
186
188
186
184
182
182
182
182
180
178
174
174
172
172
174
176
176
176
176
176
215
214
213
211
211
213
211
210
207
202
199
196
194
188
186
186
186
186
186
188
190
190
190
192
190
192
190
188
188
186
184
182
184
186
184
182
180
178
178
178
184
188
190
190
188
186
186
184
182
182
182
182
180
178
174
172
172
174
176
180
176
176
178
178
214
213
211
211
213
211
210
210
207
204
201
196
192
188
186
186
186
186
186
186
188
190
190
192
192
192
192
188
186
184
184
184
186
186
184
184
184
178
178
178
184
188
190
190
188
186
186
186
184
182
180
180
178
176
172
170
172
176
178
178
176
176
178
180
213
213
213
213
211
210
210
209
207
204
199
197
192
188
186
186
186
186
188
186
186
188
188
190
192
194
194
190
186
184
182
182
186
186
184
182
182
178
178
178
182
184
184
184
184
184
184
184
182
182
180
178
176
172
170
172
174
176
178
178
178
178
182
178
215
214
213
211
211
210
210
207
204
201
199
197
192
190
190
188
186
186
186
186
186
184
184
186
188
190
192
188
184
184
184
184
182
182
182
180
182
178
178
180
182
182
180
180
180
182
182
182
182
180
176
174
172
170
170
174
174
176
176
178
178
180
182
178
218
217
213
210
210
209
207
204
202
199
197
196
192
192
190
190
186
184
184
184
184
184
186
184
184
186
188
186
184
184
184
182
182
182
182
182
182
180
178
180
182
180
180
180
182
182
180
180
182
178
176
174
170
172
172
172
174
176
176
174
176
180
182
178
217
214
213
210
207
206
204
202
201
199
196
196
194
190
188
190
190
184
182
184
180
182
186
186
186
186
188
190
188
188
186
186
184
184
182
184
182
182
180
182
180
178
178
180
180
180
180
178
180
180
180
174
170
172
172
172
170
174
174
174
176
180
180
178
214
213
211
207
206
206
204
202
201
199
197
197
194
190
192
192
190
190
186
186
184
186
188
188
188
186
188
190
190
190
188
190
188
186
186
184
186
184
184
184
184
180
178
180
180
180
180
178
180
182
178
176
174
174
176
174
172
172
174
176
178
182
180
180
210
209
207
206
204
204
202
201
199
199
199
199
196
194
194
192
190
192
190
188
186
188
190
190
190
188
188
190
192
190
190
190
188
186
188
186
186
186
186
186
186
182
182
180
178
178
178
176
180
180
174
174
176
178
176
174
174
174
172
176
180
182
182
180
207
206
204
202
202
201
199
197
197
199
201
201
199
196
196
196
194
194
192
188
186
186
190
190
190
190
192
192
192
190
192
188
188
186
186
186
184
184
184
186
186
184
182
178
176
176
178
178
180
178
172
174
176
174
174
174
174
172
172
174
178
182
180
178
207
204
201
199
196
194
194
196
197
199
201
202
199
194
196
197
197
196
194
190
188
186
188
188
188
192
192
194
194
192
188
186
184
184
188
188
186
184
184
184
184
184
180
178
176
176
180
180
180
176
172
174
174
174
174
174
172
174
174
172
174
174
176
178
206
202
199
196
194
192
192
194
199
201
201
201
197
194
197
197
199
201
197
194
192
190
188
190
190
192
192
194
194
190
186
184
182
184
186
186
184
182
182
180
182
182
182
180
178
180
180
182
180
176
172
172
174
174
174
176
174
174
176
176
174
172
176
178
204
202
201
197
196
194
196
197
202
202
202
202
201
201
201
201
201
201
201
197
194
192
190
190
192
192
192
194
192
190
186
184
184
186
184
184
184
182
180
182
182
182
182
182
180
178
180
180
178
174
174
174
176
176
176
176
176
176
178
178
176
176
174
176
206
202
202
202
201
201
201
204
204
204
204
204
204
204
204
202
202
201
202
201
197
194
192
190
192
194
194
194
194
192
190
188
186
188
186
186
184
180
180
182
180
180
182
184
180
178
180
178
176
174
176
176
178
176
176
176
178
176
176
176
178
176
172
172
207
207
206
206
206
207
207
209
207
206
204
206
206
207
206
206
206
206
204
202
201
197
194
192
194
196
196
196
194
192
190
188
188
188
186
184
182
180
180
180
178
178
180
182
178
178
180
180
178
178
180
178
178
180
178
176
176
178
176
176
176
174
172
172
211
210
209
209
209
210
210
210
209
209
207
206
207
206
206
206
207
207
204
202
202
201
197
194
196
194
194
192
192
190
188
188
186
186
184
184
182
178
178
176
174
174
176
178
180
180
180
182
180
178
180
182
182
184
180
178
176
176
174
174
174
174
174
174
211
210
207
209
210
210
211
211
211
211
209
207
206
206
204
204
204
204
206
204
202
202
199
196
196
194
194
192
190
188
186
184
182
182
184
184
182
178
174
174
172
170
172
174
176
176
180
182
182
180
180
184
184
184
182
180
178
176
176
174
174
174
174
174
211
210
209
209
209
210
210
211
213
211
209
207
207
206
204
204
204
202
204
204
204
201
197
194
192
192
190
190
190
188
184
180
180
182
184
184
180
178
174
174
174
170
172
174
176
174
176
178
180
182
182
184
182
182
182
180
178
176
174
172
172
174
174
174
210
210
209
207
207
207
207
207
209
207
207
206
206
204
204
202
202
201
201
201
199
196
192
188
188
188
188
186
186
186
184
180
180
182
182
182
180
178
176
174
172
170
172
176
178
178
176
178
182
182
182
184
182
180
178
176
176
176
174
172
170
170
172
174
206
207
206
206
204
202
202
202
202
201
199
197
196
196
196
194
194
194
196
194
192
190
188
186
186
186
186
186
184
184
184
180
178
176
178
178
176
176
174
174
172
172
176
178
180
180
178
182
184
184
184
182
178
178
174
174
176
176
172
170
168
168
172
174
199
202
206
204
202
201
199
199
197
196
194
192
188
184
182
184
184
184
186
188
188
190
186
184
182
182
184
184
184
184
184
184
180
176
174
174
174
174
176
176
176
176
180
180
182
182
182
180
182
182
182
180
180
176
172
172
174
172
172
170
168
170
170
170
190
196
199
201
201
199
197
197
196
196
192
190
186
184
182
182
182
186
190
190
190
190
186
184
180
182
182
182
184
186
186
186
184
178
176
176
174
172
174
176
176
178
180
178
182
184
182
182
180
180
180
180
180
176
174
172
174
170
172
170
170
170
168
165
182
186
188
194
196
196
196
196
194
194
192
186
186
182
182
182
184
186
190
192
192
190
186
182
180
184
182
182
184
186
186
186
184
182
178
176
174
172
174
178
176
178
178
176
178
182
182
180
178
178
180
180
180
178
174
170
174
172
172
170
165
165
165
165
176
178
180
184
190
194
196
196
196
194
192
186
186
184
184
182
184
184
186
190
192
190
190
186
184
184
184
184
184
186
186
186
184
182
180
178
176
176
180
180
176
176
178
176
174
178
180
178
176
174
176
180
180
176
172
170
172
170
168
165
161
159
163
163
168
170
172
176
180
188
192
194
197
197
192
188
182
182
180
182
184
186
186
190
190
188
190
188
182
178
178
180
180
182
184
184
184
182
182
178
176
178
180
178
176
178
178
176
174
176
178
176
174
174
174
174
176
172
170
172
168
168
165
163
159
156
159
159
159
163
165
170
174
178
186
190
194
197
196
192
188
184
180
182
184
186
190
192
190
188
188
188
180
176
174
176
176
176
178
178
178
178
178
176
174
174
176
174
174
176
176
174
172
174
176
174
174
174
172
170
170
168
170
168
163
163
163
159
154
154
156
161
147
154
159
163
168
172
176
182
188
190
190
190
190
184
180
180
184
190
192
192
192
190
190
188
182
178
176
174
172
176
180
180
178
178
178
176
172
172
172
170
170
170
170
170
170
170
170
170
170
172
174
170
168
165
168
165
163
161
159
151
149
154
159
161
134
147
154
156
159
163
168
172
176
182
184
184
182
180
178
178
184
188
190
192
194
192
190
188
186
182
176
172
174
178
182
180
180
182
182
180
174
172
172
170
168
163
161
161
163
163
163
163
163
168
170
172
168
165
165
168
161
159
156
149
151
156
159
159
127
137
144
151
154
156
159
163
168
172
178
180
180
178
176
178
182
186
190
192
194
194
190
186
184
184
180
176
178
180
180
180
180
180
180
180
176
172
170
165
161
156
154
156
159
159
159
161
163
168
170
168
165
165
168
170
161
159
151
149
154
156
156
156
122
129
134
144
147
147
151
156
161
165
172
178
180
182
180
182
180
184
188
192
194
192
188
186
186
186
184
180
178
180
182
178
180
180
180
180
178
170
168
165
161
156
151
151
154
159
159
156
159
165
168
168
163
165
165
165
159
156
149
151
154
154
154
156
120
125
132
137
142
142
142
147
151
159
163
172
178
182
182
182
182
182
186
190
190
188
186
186
190
188
186
184
180
182
182
182
184
184
182
182
178
172
170
168
165
163
159
154
154
154
159
156
159
161
165
165
163
163
165
163
161
156
154
156
161
159
154
151
122
125
127
132
134
134
137
144
149
149
154
161
170
176
178
178
178
178
182
186
186
186
186
188
190
192
188
186
184
184
186
184
184
182
180
182
178
172
170
170
165
165
165
163
161
161
161
161
161
163
163
165
163
163
163
163
163
161
159
163
163
159
151
149
125
122
127
125
127
132
134
139
147
149
154
154
159
165
170
172
174
174
180
184
186
184
184
186
188
192
190
186
184
186
186
184
184
182
180
180
178
174
172
170
170
170
168
165
165
170
170
165
163
161
159
161
163
163
163
163
163
165
165
161
159
154
149
149
125
122
125
125
122
125
129
134
137
144
149
154
151
156
161
168
174
176
180
184
184
182
182
184
186
190
188
186
182
182
186
184
184
182
182
182
178
178
176
174
174
170
168
165
165
170
170
165
161
159
156
156
159
161
159
161
163
165
163
159
159
154
151
149
125
122
122
122
120
122
122
122
127
137
142
147
149
151
154
161
165
174
178
180
182
182
182
184
186
188
190
188
186
184
188
186
184
180
182
184
180
178
176
176
172
165
163
165
168
172
170
165
161
159
154
154
154
154
154
156
161
163
163
161
156
151
149
149
122
122
117
122
125
120
115
117
120
127
137
147
149
151
151
154
161
165
172
174
176
178
178
182
182
186
188
186
186
186
188
188
186
182
182
182
180
176
176
174
170
161
163
163
168
170
170
165
163
161
156
154
151
149
151
154
161
165
163
161
154
149
147
147
122
125
120
117
117
117
115
117
117
125
132
139
144
149
151
151
156
161
165
170
172
176
178
178
180
184
188
184
186
186
188
190
188
182
180
184
180
176
174
172
165
161
163
165
170
172
172
170
168
165
161
156
151
147
147
151
154
159
159
154
149
147
147
147
125
122
117
112
115
117
112
115
120
125
127
132
139
142
147
147
151
159
161
165
172
178
178
180
180
184
186
184
186
190
190
190
188
184
184
184
180
176
172
170
168
163
165
170
172
172
172
170
170
168
168
161
154
144
142
147
151
154
151
151
147
147
147
147
122
120
117
117
117
117
115
117
120
122
125
127
129
134
137
142
144
149
156
163
170
180
184
182
186
186
186
182
182
186
188
188
186
188
186
182
182
176
172
172
172
170
168
172
174
174
176
172
170
170
170
165
154
144
142
142
147
149
151
154
151
149
147
147
120
120
117
117
117
115
115
115
115
117
117
120
122
125
132
137
142
144
151
156
168
180
186
188
190
188
184
182
182
184
184
186
186
186
186
184
182
176
172
172
176
174
172
172
172
176
178
174
172
168
165
161
154
144
142
144
149
149
149
147
149
151
154
154
122
122
120
115
115
112
115
115
112
110
115
115
117
120
125
134
139
142
147
151
161
172
182
188
190
188
184
182
182
182
180
182
186
188
186
184
180
176
174
174
176
176
172
170
172
174
176
174
170
165
161
159
149
142
144
144
149
151
149
147
147
151
156
156
125
125
122
115
115
117
117
117
115
115
120
120
117
122
125
132
139
142
147
149
154
163
172
180
184
184
182
182
180
182
180
182
186
188
186
182
178
176
174
174
176
176
172
170
170
172
174
172
168
161
159
154
149
142
144
144
151
154
154
151
151
154
159
159
129
125
125
122
122
122
122
120
120
117
117
117
115
120
125
127
134
139
147
149
149
156
161
170
176
178
182
184
180
180
184
184
184
186
184
180
176
174
172
174
178
178
176
174
174
174
174
172
170
163
156
154
151
144
144
149
154
156
154
154
154
156
159
161
132
127
127
125
125
122
120
120
122
122
117
120
117
115
122
125
127
132
139
144
147
149
154
159
165
172
178
182
180
180
184
182
182
182
182
180
176
174
172
174
176
178
176
174
174
176
176
174
174
168
161
159
154
149
149
154
154
154
154
151
149
151
156
161
127
122
122
122
120
120
120
122
122
120
122
125
127
117
120
120
125
127
132
137
142
147
147
149
156
165
172
178
178
178
178
176
174
174
176
176
176
174
174
174
174
176
176
174
174
176
178
180
178
172
161
156
154
151
154
154
151
156
154
149
149
154
156
161
129
122
120
120
120
125
125
127
127
122
125
127
127
125
122
120
120
125
127
132
137
139
142
142
147
154
163
172
174
176
178
176
172
170
172
172
172
174
172
172
174
176
176
176
174
176
178
180
178
170
161
156
154
159
156
154
156
159
156
149
154
156
159
159
127
125
122
122
125
129
127
127
127
125
127
125
125
125
120
122
117
115
122
127
129
134
137
139
139
144
154
163
172
176
178
176
174
172
170
172
172
174
174
174
178
178
180
182
178
174
174
176
174
168
163
159
159
159
156
159
156
159
161
156
156
154
151
154
120
122
122
127
129
129
127
127
127
127
127
125
125
125
122
125
120
115
117
122
127
129
132
134
139
139
147
154
161
170
174
174
178
174
172
174
176
176
176
176
178
178
180
180
178
174
174
172
170
165
165
163
161
161
159
159
159
163
163
161
159
151
149
149
122
122
120
125
127
127
127
127
125
125
122
122
122
122
122
122
120
122
122
122
125
122
125
129
134
139
144
147
154
161
172
176
178
176
174
178
178
178
178
176
178
178
178
180
178
174
170
168
165
163
163
165
165
165
163
165
165
168
165
163
159
149
147
147
117
120
120
125
125
127
127
125
122
122
122
122
122
122
122
115
117
122
125
122
120
122
122
127
132
139
144
147
149
154
163
174
180
180
176
178
182
178
174
178
184
180
182
182
176
172
165
165
163
165
168
170
172
174
170
168
168
168
168
165
156
147
144
142
120
120
125
127
125
125
125
122
120
120
122
127
127
125
122
120
120
120
122
120
117
122
127
129
129
134
139
144
147
149
159
168
176
178
178
182
182
178
174
178
180
182
182
180
174
168
161
161
163
165
170
172
176
178
176
170
168
168
165
163
154
144
139
132
125
122
125
129
125
125
129
125
125
125
127
129
127
122
122
125
122
120
122
122
120
122
120
120
125
127
129
139
147
149
154
163
172
176
178
180
180
178
180
180
180
180
178
176
170
165
163
165
168
168
172
174
176
178
178
174
172
170
163
159
149
139
132
120
127
127
127
132
129
129
132
134
134
129
127
132
132
129
127
122
120
122
122
120
120
117
115
112
117
122
122
129
142
147
151
159
165
174
176
180
180
180
182
180
180
178
176
172
168
165
165
170
170
168
172
174
176
178
180
174
170
168
161
151
139
129
117
107
127
129
129
134
132
132
134
137
137
134
132
134
137
132
127
122
120
122
120
120
117
112
105
103
110
120
122
127
137
144
149
154
159
170
174
180
184
184
186
182
180
180
174
170
165
163
165
170
172
174
174
174
174
176
176
172
165
161
151
137
127
115
103
98
125
129
132
137
137
134
137
137
137
134
129
134
139
134
129
127
125
120
117
122
115
107
103
103
107
115
122
129
134
139
144
151
156
161
168
178
182
182
186
184
184
178
172
165
163
163
165
170
174
174
174
172
172
174
168
163
156
147
134
125
110
98
95
95
127
132
139
139
134
132
134
137
134
134
129
134
134
132
129
129
122
115
115
117
110
103
100
103
110
112
120
129
134
137
142
149
154
159
163
170
178
182
186
188
182
174
170
163
163
163
165
170
172
172
174
174
172
165
159
151
144
134
120
105
95
91
86
89
