P2
# 545 of 608 Angiograms
64 64
255
110
112
112
115
117
117
117
115
115
115
115
110
107
107
110
107
112
117
120
115
112
112
112
117
122
132
129
125
125
127
125
122
122
120
120
125
122
117
117
117
122
125
122
122
122
125
122
120
117
120
125
127
127
125
122
122
125
125
127
129
129
127
127
127
120
120
120
125
127
122
120
120
120
117
115
112
112
110
107
110
115
117
117
115
112
115
120
122
122
127
129
122
120
125
129
127
125
125
125
125
122
120
120
122
127
125
125
120
122
122
125
122
115
112
117
122
122
122
125
122
122
122
125
129
129
127
129
127
125
122
122
127
129
125
122
125
122
120
115
115
115
107
107
112
115
117
117
120
115
120
125
125
125
125
122
120
117
122
127
125
122
122
122
120
117
120
122
120
120
122
120
117
122
120
117
115
115
115
115
120
122
120
122
122
120
125
125
127
129
129
129
125
127
122
127
129
125
122
125
125
117
117
117
115
112
110
110
115
117
120
125
125
120
122
125
125
127
127
125
120
117
120
120
117
117
117
117
115
115
117
120
120
117
117
112
115
122
120
115
115
120
122
122
125
122
120
125
122
125
127
127
127
125
127
127
122
125
122
127
127
125
127
125
122
122
117
115
112
110
112
117
125
127
129
129
127
127
127
125
127
129
129
125
120
112
112
110
112
115
117
117
115
117
117
125
125
120
115
115
120
120
117
115
120
120
120
122
125
122
125
127
125
125
125
125
129
127
125
127
122
122
125
122
122
127
125
122
120
125
122
115
110
110
117
127
127
127
134
129
127
125
125
125
127
127
125
122
122
115
112
112
112
112
112
115
115
115
115
117
122
120
117
117
115
117
112
117
122
122
120
125
122
117
122
127
125
127
125
125
129
129
127
127
122
125
125
120
122
129
125
122
117
122
120
112
107
112
120
122
122
129
132
125
127
122
122
125
125
122
127
125
125
120
120
117
112
112
112
110
107
107
107
112
120
115
112
115
112
117
117
117
120
117
120
127
122
120
120
127
125
125
122
120
125
129
127
127
127
127
127
122
120
127
125
125
125
125
120
112
110
115
117
117
125
129
127
125
127
125
122
122
122
122
122
122
122
122
122
120
117
112
112
110
105
103
98
107
115
112
110
115
115
115
115
117
117
112
115
122
122
127
122
127
127
125
120
117
120
125
122
120
117
127
127
127
122
129
125
125
129
127
125
120
117
115
115
120
125
125
122
127
127
127
125
120
122
120
117
117
120
122
125
120
120
115
112
112
107
103
100
107
112
110
115
120
117
115
115
117
120
117
115
120
125
125
125
125
127
127
122
120
117
117
117
115
115
122
127
129
129
129
122
125
129
127
122
122
122
117
115
122
127
120
122
125
129
129
125
125
122
115
112
112
117
122
120
117
120
120
115
112
112
110
107
115
115
112
117
120
120
115
117
120
120
120
122
127
127
127
127
122
125
125
120
112
105
112
120
122
120
120
122
127
132
129
125
127
127
127
117
117
125
120
117
120
125
122
125
125
125
127
127
127
125
115
115
112
117
122
120
117
117
117
120
115
117
115
110
117
117
115
120
122
122
115
117
117
120
125
127
127
127
125
120
117
117
120
115
105
103
112
122
122
122
120
122
125
129
125
122
122
122
122
120
122
125
122
125
125
125
125
122
120
120
122
125
125
125
115
110
112
120
125
120
117
120
117
117
117
125
122
122
120
117
115
117
125
122
120
117
117
117
120
125
125
122
120
115
112
112
117
112
107
110
122
125
122
122
112
120
125
122
120
115
115
120
120
117
117
122
122
125
122
122
120
117
115
115
117
120
122
122
120
112
117
120
122
120
117
120
120
115
117
122
122
125
122
117
115
115
120
120
117
115
115
115
112
112
115
120
117
115
112
115
122
120
112
120
129
127
122
122
98
105
115
117
115
115
117
120
117
112
112
117
117
112
112
120
120
122
120
112
120
120
125
125
122
120
120
120
117
117
117
115
120
115
117
117
117
117
117
112
105
110
115
115
112
110
110
112
117
115
117
120
117
115
110
115
120
117
117
125
129
127
125
122
86
91
100
107
112
115
115
115
115
112
110
110
115
115
112
120
122
122
122
115
117
122
122
122
122
122
120
117
115
112
110
112
117
120
112
112
115
115
112
110
105
110
115
117
117
115
117
120
125
125
122
122
125
122
120
117
117
120
125
129
125
120
122
120
86
89
93
98
103
107
107
110
112
117
117
115
120
117
115
115
120
122
117
115
115
120
120
117
117
117
117
115
117
115
110
115
122
125
117
112
117
115
112
112
112
115
117
122
125
122
125
127
127
132
129
125
127
127
127
129
127
125
127
125
125
125
125
120
91
91
93
95
103
103
103
107
112
115
117
120
122
125
122
122
125
122
117
115
115
120
117
112
112
115
115
112
115
112
115
120
125
122
120
120
117
120
120
120
117
115
122
125
125
125
125
127
129
137
132
125
125
125
129
132
129
127
127
127
129
125
120
117
91
93
95
95
98
100
95
100
105
107
110
117
117
122
129
129
132
127
125
122
117
122
122
120
117
120
120
117
117
115
120
125
122
117
117
117
120
122
120
120
120
122
125
127
127
129
127
127
129
134
129
125
125
125
127
127
127
127
125
127
127
120
115
115
98
100
103
100
98
100
98
95
100
103
103
110
115
115
120
122
127
127
122
122
120
122
117
112
112
112
112
112
112
112
112
122
122
117
115
117
122
120
117
122
125
125
127
125
125
129
129
127
129
129
129
132
129
129
125
125
125
127
127
127
125
115
112
112
105
105
107
105
98
98
95
98
93
95
98
105
110
110
115
120
125
125
122
122
120
112
105
103
100
100
98
100
103
105
107
112
117
112
110
115
115
117
120
125
129
127
127
125
127
129
132
129
129
132
132
132
125
127
125
125
127
127
125
125
122
117
120
122
120
117
115
112
105
100
98
100
98
98
100
103
105
107
112
117
115
115
112
107
103
95
89
93
93
89
89
91
93
95
95
98
98
98
103
107
110
112
117
122
125
127
129
127
129
132
132
132
129
127
125
127
125
125
129
125
127
125
122
125
125
125
127
127
125
122
122
120
115
110
107
107
107
103
100
100
103
105
105
107
105
103
100
100
98
95
93
91
89
82
80
84
84
82
78
78
80
84
91
100
103
105
110
115
120
125
127
125
125
125
127
127
127
127
127
127
129
129
127
122
120
122
122
127
129
132
132
129
122
125
122
122
115
117
115
115
115
110
105
105
107
107
103
105
105
100
95
95
95
93
91
89
89
80
76
74
76
74
70
70
76
80
84
93
98
100
100
107
112
117
122
120
120
122
125
122
122
132
129
127
125
122
122
122
122
125
127
127
129
132
129
127
125
127
127
122
117
117
117
117
120
115
115
117
115
112
110
110
110
107
100
100
98
91
89
91
93
84
74
70
72
74
74
76
78
80
86
89
89
91
95
98
103
103
105
107
112
115
117
120
125
129
127
127
127
127
127
125
127
132
132
127
129
137
132
127
125
127
125
122
122
122
120
120
122
120
120
125
122
122
122
117
117
115
110
107
105
100
95
95
95
89
76
70
76
80
82
82
78
82
86
84
86
86
91
95
98
98
95
98
105
107
107
115
122
127
125
129
129
129
132
132
134
137
134
129
129
132
129
127
125
127
120
122
125
122
117
122
125
117
117
120
122
125
127
122
120
117
115
115
112
110
107
105
100
93
86
80
84
86
89
91
84
82
82
84
84
84
89
93
95
93
93
95
98
95
100
110
112
117
120
120
120
120
122
125
129
129
132
129
129
129
127
127
125
127
125
125
125
122
117
122
117
115
115
120
122
127
129
127
122
120
120
122
120
120
117
107
103
93
91
91
93
95
98
95
93
86
84
82
84
86
89
91
93
95
91
91
91
93
98
107
110
110
107
107
107
110
110
112
117
122
122
125
127
125
127
125
117
120
125
125
125
122
117
117
115
115
120
122
125
129
127
127
125
120
122
122
125
125
120
107
95
89
93
95
103
110
110
103
103
98
95
93
89
89
91
91
91
93
93
91
93
98
98
100
100
98
100
103
103
105
105
103
105
110
112
115
117
120
122
122
120
120
122
127
125
125
117
117
120
125
129
129
125
125
127
127
127
120
117
117
122
122
112
98
89
80
86
100
110
115
112
105
100
100
98
110
105
100
95
93
91
93
98
98
98
98
98
95
95
98
103
105
103
100
98
95
95
100
100
103
105
105
107
110
125
125
125
125
125
125
122
120
122
125
127
129
125
122
127
129
125
117
117
117
120
115
103
91
86
80
86
100
107
110
107
103
93
95
103
117
117
112
103
98
93
98
103
105
105
103
103
100
103
100
100
103
103
98
98
95
95
98
98
98
93
95
95
98
127
127
125
120
122
125
125
122
120
120
125
125
125
122
125
125
122
117
115
115
115
107
98
91
84
82
89
100
105
107
103
95
91
98
107
117
122
117
110
103
95
95
100
105
110
115
115
112
110
107
107
105
105
100
105
103
98
95
93
95
95
98
95
93
125
125
122
120
125
125
127
122
120
120
122
122
125
122
125
122
122
122
120
117
115
107
100
95
91
93
98
103
105
107
107
107
105
105
110
117
117
117
115
107
98
93
95
100
107
117
122
122
122
120
120
120
115
110
107
103
103
100
100
98
98
95
95
95
127
125
125
127
125
125
125
122
122
127
125
125
125
125
127
125
125
129
127
127
125
117
107
107
107
107
105
105
107
110
110
112
115
115
115
115
112
115
120
112
105
103
100
98
98
105
117
120
122
120
120
125
125
122
115
112
110
110
110
105
103
103
103
103
127
122
125
129
129
125
122
122
125
127
125
122
122
125
125
125
122
129
129
129
127
122
115
112
112
107
107
117
117
110
112
112
115
115
117
117
117
120
117
110
110
105
98
95
93
91
105
117
120
122
122
122
125
127
120
117
115
120
117
112
107
107
110
112
125
122
127
125
127
125
122
127
129
127
125
122
125
122
117
120
120
120
127
125
120
120
117
115
115
112
107
112
112
110
112
112
115
115
112
117
120
122
117
112
115
112
103
98
89
84
91
107
115
120
120
117
120
127
125
120
115
117
115
115
112
115
117
117
125
127
132
125
125
122
122
122
127
125
120
125
129
122
117
122
122
120
125
117
112
112
120
117
115
112
107
107
107
107
110
112
115
115
115
117
117
120
120
117
115
117
112
103
93
86
89
103
112
117
122
122
122
125
127
120
115
117
115
115
117
120
125
122
125
127
129
127
125
122
122
120
125
125
120
125
125
122
120
122
125
122
122
117
115
117
117
117
117
117
110
110
103
105
112
120
117
115
117
120
120
122
120
120
120
117
117
112
103
93
93
100
112
117
122
125
125
125
127
117
117
117
115
115
117
120
125
125
122
125
125
125
122
122
120
117
120
120
122
122
120
120
115
120
125
122
120
122
120
117
115
117
117
120
120
115
110
110
112
115
115
120
122
120
122
122
122
122
125
122
120
115
110
105
98
100
110
112
115
117
117
120
122
117
120
117
117
112
117
122
125
122
122
122
120
120
117
115
117
117
117
120
125
122
120
120
120
120
120
122
125
125
120
115
110
115
117
120
122
117
110
115
115
115
117
122
122
117
120
120
122
125
122
122
120
117
115
110
103
100
103
103
105
112
110
115
122
122
122
120
122
120
117
122
122
122
125
125
122
120
117
117
120
117
117
122
127
125
122
125
122
120
125
122
122
122
120
117
112
117
117
117
120
120
112
112
112
115
115
120
115
115
120
117
120
122
122
122
117
117
117
115
105
98
98
100
107
115
117
120
125
125
125
122
122
117
115
120
122
120
127
127
125
122
120
120
122
122
122
120
125
122
122
125
122
120
125
125
125
120
120
120
112
117
120
120
122
122
120
115
112
112
112
112
110
115
120
120
122
125
129
125
120
122
120
112
103
95
93
100
112
120
125
125
125
127
129
122
122
117
115
120
122
120
125
125
122
120
115
115
120
122
125
122
122
120
122
125
122
120
122
125
125
122
120
115
115
117
117
117
120
117
120
117
112
112
112
110
112
112
117
122
125
125
125
122
120
122
120
110
98
91
95
105
120
125
129
125
129
132
127
122
120
120
115
117
120
122
125
120
117
117
112
112
115
120
127
129
122
122
125
125
120
122
122
125
127
127
122
117
115
115
115
115
117
120
117
120
117
115
115
112
115
115
117
120
120
125
120
120
120
120
112
107
98
93
100
115
122
125
127
127
129
127
122
120
120
120
117
117
117
125
125
122
120
117
115
115
120
120
122
129
125
122
120
122
122
125
120
120
127
127
122
117
112
112
115
117
115
120
120
120
120
117
115
117
117
117
120
120
120
120
120
120
120
115
110
107
105
103
110
117
122
127
129
129
127
127
120
122
122
122
122
120
117
122
122
127
125
122
120
117
122
125
122
125
122
122
120
122
117
120
122
122
127
127
125
120
120
117
115
115
112
117
120
122
120
115
112
115
115
117
122
120
120
115
117
112
115
115
110
110
112
115
115
117
122
122
125
129
127
125
125
125
122
125
120
122
125
125
125
125
122
122
122
122
125
122
122
120
120
120
125
117
115
120
122
122
122
125
125
125
117
115
117
115
117
120
120
120
117
117
120
122
120
120
122
120
120
117
115
115
120
122
120
115
117
122
125
125
122
117
120
125
127
125
125
125
127
125
127
125
127
129
122
127
122
122
122
127
127
125
122
120
120
120
120
112
115
117
120
125
117
117
117
117
115
117
117
112
120
120
120
120
120
120
125
125
127
120
117
117
117
117
115
117
127
122
120
120
122
125
129
127
125
120
120
122
117
120
127
125
125
122
120
122
127
132
127
125
120
120
125
127
129
132
129
125
122
120
117
115
117
115
115
122
120
112
112
115
117
120
115
112
120
120
120
122
122
125
125
122
127
120
112
110
112
117
117
117
127
125
125
125
122
122
127
129
125
122
122
127
122
122
125
122
122
117
115
117
129
132
132
129
120
117
122
122
125
127
127
122
122
122
120
115
115
117
120
122
122
120
117
122
120
117
115
117
120
115
115
115
117
125
120
120
122
120
115
112
112
112
115
117
125
129
127
127
122
122
125
125
120
120
125
127
127
122
117
120
120
117
117
120
125
127
127
127
122
117
120
120
122
117
115
112
120
122
117
117
120
122
127
122
120
117
115
115
115
115
112
117
117
120
117
115
120
122
120
120
117
115
115
115
112
110
115
120
122
125
125
125
120
117
120
120
117
120
125
122
122
120
120
125
117
117
122
120
120
122
125
125
122
120
120
125
120
117
117
120
122
125
115
115
120
115
120
120
115
115
112
110
110
112
107
107
112
117
117
117
120
120
117
117
115
112
117
115
112
107
112
117
122
127
127
125
120
115
112
115
117
117
117
117
120
117
120
125
120
120
120
117
120
117
120
120
117
115
115
120
120
125
127
127
125
122
115
112
112
115
117
120
120
117
115
115
112
107
105
105
107
115
115
115
120
117
115
115
117
117
117
117
115
110
110
115
120
122
125
127
127
120
115
117
117
120
120
117
120
120
122
122
117
120
120
117
115
115
117
117
112
112
115
115
120
127
129
122
122
122
115
112
117
120
117
120
120
115
115
115
112
107
110
110
107
112
115
115
117
115
117
112
115
120
117
115
112
110
110
115
117
120
122
127
127
125
122
120
122
127
125
122
125
125
120
115
115
117
120
122
122
120
120
117
112
110
115
120
120
127
127
120
120
120
117
115
112
115
117
122
115
115
115
115
110
112
112
115
110
112
117
115
117
112
117
110
107
110
117
112
105
107
115
117
120
120
120
127
125
125
125
125
125
127
129
125
122
125
122
115
117
120
122
125
127
122
120
117
117
117
122
125
125
125
125
125
117
115
122
120
117
117
122
120
115
112
115
117
115
115
115
115
110
115
117
115
115
112
115
110
107
107
112
110
103
110
117
120
122
122
120
125
125
125
120
120
122
125
129
127
125
125
120
122
120
122
120
122
127
122
120
120
120
125
125
125
122
120
122
122
120
117
122
122
120
120
120
122
117
112
112
117
117
112
110
110
112
117
117
112
112
107
105
110
110
110
112
112
115
117
120
120
125
125
120
125
120
120
117
122
125
125
125
122
120
122
117
117
120
120
117
117
117
120
120
117
115
122
125
122
115
115
122
122
120
120
120
117
117
117
120
120
117
117
115
117
112
110
107
112
115
117
117
115
112
107
105
115
117
117
117
117
120
122
125
120
122
122
120
122
120
120
122
127
127
125
125
120
117
120
117
117
120
120
120
120
120
120
125
125
120
120
122
122
115
117
122
120
117
117
117
115
117
117
115
112
112
115
110
107
107
107
107
107
115
117
115
112
107
107
112
120
125
122
125
122
122
122
127
122
122
122
122
125
125
122
122
127
127
125
127
120
115
122
120
117
122
127
125
127
129
122
127
129
122
120
120
115
115
117
122
120
115
115
115
115
117
117
115
110
110
110
110
105
100
100
105
107
112
112
115
112
110
115
117
122
122
120
122
122
125
125
125
122
122
122
125
125
125
122
122
127
125
122
125
125
120
120
117
117
125
129
129
129
127
120
122
125
120
117
120
117
112
112
120
125
122
120
117
117
117
117
117
110
107
107
110
105
103
103
105
110
112
112
117
115
122
122
120
115
117
117
117
120
127
127
122
117
122
127
129
122
122
125
125
125
122
122
122
120
120
120
120
120
125
129
132
129
127
125
120
122
122
120
122
122
112
112
115
120
122
125
120
115
112
112
115
112
110
112
117
112
110
110
112
117
117
117
117
120
127
125
125
122
117
115
117
122
129
127
125
122
122
125
127
122
120
122
122
125
125
120
122
117
117
122
125
125
125
129
129
127
127
127
120
117
120
120
122
122
115
115
115
117
122
122
117
117
115
112
112
112
110
115
117
112
115
112
115
122
122
117
117
120
122
120
120
122
122
115
115
122
129
129
127
129
125
122
129
127
122
122
125
127
125
125
120
115
120
125
125
127
127
129
127
127
127
125
120
117
115
120
120
122
122
120
120
122
125
125
122
122
115
115
117
112
107
110
112
112
112
115
115
117
117
115
115
120
122
120
120
120
120
120
120
122
127
127
127
127
122
127
132
132
127
127
127
125
122
125
120
120
122
127
132
129
127
127
127
125
125
122
120
117
112
117
122
125
125
122
120
125
120
120
125
122
120
120
120
120
112
110
115
115
115
115
115
115
115
117
120
120
120
117
117
120
120
125
127
127
129
127
122
122
120
122
127
129
129
129
127
127
125
122
125
122
125
129
129
127
127
125
125
125
125
125
