P2
# 550 of 608 Angiograms
64 64
255
134
132
129
129
134
134
137
137
134
139
139
134
137
142
137
139
139
137
137
137
139
142
144
139
137
134
129
134
134
144
139
132
134
134
137
139
139
139
142
139
139
139
139
137
134
134
139
142
142
137
132
129
132
134
137
137
137
134
134
132
137
134
132
129
132
132
127
129
129
137
137
134
134
132
132
132
137
137
139
139
142
139
134
134
137
137
142
139
137
134
134
134
139
144
142
137
137
134
142
144
142
139
142
144
139
134
132
134
134
134
139
142
139
137
134
132
132
134
137
134
134
134
134
137
134
132
129
125
129
129
127
127
127
132
132
132
132
129
129
132
137
137
137
137
137
139
139
137
139
144
147
142
139
134
134
139
142
144
142
142
139
137
144
147
147
142
144
147
142
137
134
137
137
137
139
137
137
137
134
134
134
132
134
132
132
134
134
137
139
137
132
132
129
132
129
127
125
127
129
132
132
134
134
134
137
137
134
137
132
137
142
139
139
144
144
139
142
137
139
142
139
142
144
142
142
139
147
147
142
142
142
144
142
139
137
137
137
139
142
134
134
137
134
134
139
139
137
137
134
132
132
134
134
134
134
137
134
137
132
125
127
127
129
134
137
139
139
137
134
134
137
137
134
134
139
137
137
142
139
137
139
139
139
142
142
142
142
139
139
144
147
144
142
142
142
144
144
144
142
139
139
142
142
137
139
139
139
137
137
139
139
137
134
132
134
134
134
134
134
137
134
132
129
129
132
129
129
134
134
132
137
137
137
132
134
134
134
134
137
132
134
139
134
134
139
142
142
142
142
137
134
137
139
144
144
144
142
142
142
144
147
147
144
144
142
139
139
139
142
139
137
137
139
137
142
137
132
134
137
137
132
134
137
134
137
132
129
132
134
134
132
132
129
125
132
134
137
134
134
134
134
137
139
134
137
137
134
132
137
139
144
144
142
139
134
137
137
142
144
144
144
142
144
147
147
149
149
147
147
142
137
139
139
137
137
134
144
142
142
142
134
134
137
137
132
129
134
134
134
129
127
132
134
139
137
132
129
129
134
139
139
137
139
137
139
137
139
137
137
137
134
134
134
134
139
139
139
137
137
137
139
139
144
144
144
144
147
147
144
144
147
149
149
147
142
142
142
137
139
139
137
142
139
139
137
134
139
137
132
129
132
132
132
129
129
132
132
132
132
132
129
132
137
137
137
137
137
139
134
132
137
137
134
137
137
134
134
137
137
137
139
139
139
139
142
142
142
142
144
144
147
149
147
142
147
147
147
149
147
144
144
137
139
139
137
137
137
139
139
137
139
139
137
134
134
132
127
127
132
132
127
127
132
134
129
127
129
132
134
132
132
134
134
132
134
132
132
134
137
134
134
137
139
137
142
142
142
142
139
137
142
137
139
139
142
144
147
144
142
147
149
149
147
144
144
139
139
139
137
137
137
137
137
139
142
137
134
137
137
132
129
132
134
134
129
129
134
134
125
125
127
127
129
132
129
129
132
134
134
132
129
132
134
134
137
139
142
139
142
144
142
142
137
139
142
139
137
139
139
142
144
144
144
147
147
149
149
149
142
137
139
137
137
139
137
134
137
139
142
134
132
137
134
129
129
134
134
134
137
137
137
134
127
127
129
129
132
129
129
129
134
132
132
129
129
134
137
137
142
142
142
142
144
144
139
139
139
139
142
142
139
139
144
144
139
142
147
147
147
149
151
147
142
137
139
137
137
137
137
139
139
139
137
134
129
134
129
129
129
134
139
134
134
139
134
132
129
132
132
132
129
127
127
129
132
134
129
132
134
134
134
142
144
144
139
142
144
142
139
139
139
139
144
144
142
142
142
144
144
144
147
144
147
149
144
142
142
137
139
139
137
137
139
139
137
139
139
137
129
129
129
129
132
134
137
132
132
137
137
137
134
134
132
129
134
129
129
129
134
137
129
132
134
134
139
142
142
144
139
139
142
144
142
142
139
142
144
142
139
139
142
142
144
144
144
147
147
144
142
139
142
142
139
139
139
137
142
139
137
137
137
134
132
129
132
137
132
134
134
129
129
132
134
134
137
134
129
127
132
132
129
132
134
137
132
134
134
137
142
139
139
142
137
142
144
144
142
139
139
142
142
137
139
144
144
144
142
142
142
142
139
137
139
137
139
139
139
139
137
142
144
144
142
139
134
132
134
132
132
139
134
134
129
127
129
132
134
132
134
134
127
132
134
132
134
134
137
134
134
139
137
137
139
137
137
142
142
142
147
147
139
137
139
139
139
139
139
142
144
147
144
144
142
139
137
137
139
137
137
137
137
139
139
142
142
139
139
139
132
134
137
134
134
139
132
132
129
132
132
132
134
134
137
137
132
134
137
134
134
134
137
137
134
137
137
139
139
142
142
144
142
147
147
142
139
137
137
137
134
139
139
139
144
147
144
144
142
139
139
142
139
137
137
139
139
137
139
142
137
134
139
137
134
134
139
139
139
142
129
129
129
129
127
129
129
132
134
134
137
134
134
134
134
137
137
142
134
132
137
144
142
139
139
144
142
147
144
142
142
142
139
134
137
139
137
139
142
144
144
142
137
137
134
137
142
139
134
137
137
137
134
137
139
137
139
139
134
132
137
139
139
139
134
129
125
122
120
125
127
127
129
129
129
129
132
137
137
137
137
139
137
132
137
142
139
137
137
137
134
139
139
137
139
139
137
132
134
134
134
134
137
139
139
134
129
134
132
134
139
139
134
134
139
139
134
134
139
139
137
142
134
132
134
139
142
137
137
134
132
127
125
125
125
127
127
125
125
129
134
132
134
129
129
132
134
134
137
137
137
137
137
134
129
134
134
132
134
132
132
132
132
132
134
134
137
137
137
134
132
132
129
129
134
139
137
137
139
139
137
137
139
139
137
139
137
134
132
139
139
137
134
134
132
134
132
132
134
132
132
129
129
129
132
129
132
127
129
134
134
137
134
134
137
134
132
132
134
137
137
134
129
127
127
127
129
129
132
139
139
137
132
134
134
134
132
127
132
137
137
139
137
134
137
139
137
137
137
134
134
134
134
139
139
139
132
132
134
134
134
134
137
134
134
137
137
137
134
132
132
132
134
137
134
132
132
129
132
132
134
139
137
134
137
132
127
127
127
129
132
132
134
139
139
137
129
132
132
134
134
132
132
134
134
139
142
137
137
137
137
137
139
137
134
137
142
142
142
137
134
137
137
137
132
132
137
134
139
142
139
137
134
134
134
134
137
134
132
134
129
129
134
134
137
134
134
134
132
129
129
134
132
129
132
134
134
137
139
139
137
134
129
132
134
134
134
137
139
139
142
142
139
139
139
139
139
139
137
137
137
139
142
139
137
139
142
142
134
132
137
137
139
142
139
134
134
134
139
139
142
139
134
134
134
137
137
134
134
132
132
132
129
127
129
132
129
129
127
127
132
134
134
137
134
132
132
132
134
134
137
137
139
142
142
139
139
142
142
139
137
134
137
139
137
137
139
139
139
142
139
134
134
134
139
142
139
139
139
137
134
134
134
134
137
139
139
137
139
142
139
137
137
134
134
134
129
122
127
129
127
122
117
122
127
129
132
134
134
132
134
134
132
134
134
134
137
139
137
139
139
139
142
139
139
137
142
144
142
139
139
139
139
144
139
139
139
137
139
142
139
139
139
137
137
137
132
132
134
134
137
137
139
144
139
137
137
134
134
137
132
127
125
129
127
122
120
125
125
125
127
132
137
134
137
137
137
137
137
134
134
137
139
142
139
139
137
139
142
142
147
144
139
142
142
139
139
139
139
142
139
139
137
139
139
139
142
142
139
137
137
137
134
137
134
134
137
139
139
137
134
134
134
134
132
132
129
129
129
125
120
122
125
122
122
125
129
132
134
137
139
139
139
139
137
134
134
139
139
139
137
137
139
139
142
144
144
142
142
139
137
139
137
139
137
139
144
142
139
139
139
144
142
144
139
137
134
134
134
132
132
134
134
137
134
132
134
137
134
127
127
129
132
127
122
122
125
125
125
125
127
127
129
134
139
137
134
134
137
137
134
139
142
142
144
142
139
139
139
142
142
142
137
137
139
139
137
134
134
137
142
144
139
134
137
142
139
137
134
132
132
132
134
132
132
132
132
132
132
134
132
134
132
127
129
134
132
127
125
127
127
127
129
127
125
125
125
125
134
134
132
132
134
134
134
139
142
139
144
142
142
137
139
139
139
139
137
137
137
137
139
137
134
137
137
142
139
137
137
139
134
132
132
129
129
132
134
132
129
129
129
129
132
132
129
132
132
132
134
129
127
127
125
129
129
132
129
127
129
127
127
125
129
127
127
132
134
132
137
139
137
142
142
139
137
137
144
142
134
134
137
137
134
134
137
137
137
134
134
137
137
137
137
137
132
132
132
129
134
134
134
134
129
132
134
132
129
129
132
132
134
137
134
129
129
127
129
129
132
132
129
129
132
132
132
129
127
122
125
134
132
132
137
142
139
139
139
139
137
139
142
144
139
134
137
137
134
139
137
137
137
137
134
132
137
139
139
134
132
129
129
127
127
129
132
132
129
129
132
134
134
132
132
132
134
137
137
137
132
129
127
125
129
129
132
129
132
132
132
132
129
129
127
129
132
134
137
142
142
139
139
139
139
137
137
139
139
137
137
139
129
137
139
134
134
137
139
137
137
142
137
134
127
127
129
127
129
129
129
129
127
129
129
132
129
127
129
127
132
137
134
134
134
134
129
127
129
127
129
127
129
132
132
132
132
132
132
127
127
132
134
137
137
142
142
142
139
137
137
137
134
132
129
134
127
134
137
137
139
139
139
139
137
139
137
132
127
125
127
129
132
127
125
127
132
132
129
132
125
127
129
127
132
134
132
134
139
139
137
134
132
129
132
129
129
132
134
134
132
134
134
132
127
132
134
132
132
134
139
139
139
139
134
132
129
134
132
127
132
134
134
139
139
137
139
142
134
137
137
132
127
127
127
129
132
129
127
129
129
127
127
129
127
129
129
129
134
137
137
137
142
142
137
132
132
129
134
129
127
132
134
132
134
134
132
132
132
137
137
132
129
132
134
132
132
132
129
129
132
134
132
127
132
132
137
137
139
139
139
142
137
134
134
129
127
125
127
129
129
127
129
129
127
127
125
125
129
129
127
129
137
142
139
139
144
144
142
137
132
132
129
129
129
129
129
129
132
134
134
134
137
137
134
132
129
132
129
122
127
127
129
132
132
134
132
132
129
132
137
139
139
139
137
137
137
134
132
132
129
127
129
127
127
127
129
132
129
129
127
127
129
129
127
132
134
139
137
139
144
144
142
142
139
134
132
132
132
129
132
134
134
132
134
137
137
132
129
127
127
129
129
125
125
125
132
134
132
134
127
132
132
132
134
139
137
134
134
134
134
134
132
129
129
129
129
129
127
127
127
132
129
129
127
129
129
134
132
134
137
142
142
142
144
144
142
142
142
139
137
134
132
132
132
134
137
134
139
134
132
129
127
127
125
127
129
127
125
127
132
132
129
132
127
134
137
132
134
137
134
134
134
134
137
134
129
127
129
132
129
127
127
127
127
132
132
132
134
134
132
132
137
137
137
142
144
144
142
142
144
144
144
142
139
139
137
134
134
137
134
134
134
137
134
132
132
134
134
137
134
129
127
132
129
127
127
129
132
134
139
134
137
139
134
134
132
134
134
132
132
132
125
125
127
127
127
125
127
129
129
127
129
129
134
132
137
137
139
139
137
137
137
144
144
147
147
144
139
137
137
137
137
137
134
134
134
137
134
134
134
137
139
137
137
132
129
129
129
127
125
125
132
134
134
132
134
137
137
134
134
134
132
127
127
132
127
122
127
127
125
125
122
125
129
129
129
127
132
129
134
139
137
137
134
134
142
142
142
142
144
142
142
137
134
139
142
139
137
137
142
142
137
137
139
139
139
137
134
134
129
127
129
129
129
129
129
129
132
127
129
134
137
137
137
137
129
125
122
125
127
132
129
129
127
125
125
127
132
132
129
129
132
134
134
139
137
137
137
139
142
142
139
137
139
139
142
139
134
134
142
139
139
142
142
142
139
137
139
139
137
137
137
139
137
129
127
129
134
134
129
127
137
129
127
127
134
137
134
134
129
129
129
129
127
132
129
127
125
129
129
129
132
127
127
129
134
137
137
137
137
134
137
139
139
142
139
134
134
137
139
137
137
137
139
137
139
142
139
139
139
137
139
137
137
139
139
139
139
137
132
132
132
134
132
132
137
134
127
125
129
132
134
134
132
132
134
132
129
132
127
125
127
129
127
132
132
127
129
132
134
137
137
137
137
134
137
139
137
137
139
137
134
134
134
134
137
139
137
134
137
137
139
142
139
139
139
134
137
139
139
137
139
137
134
134
137
137
132
129
132
134
129
127
129
132
134
134
132
132
134
132
129
127
127
127
129
132
132
134
132
129
134
134
137
137
139
137
137
134
137
137
134
132
134
137
137
134
132
129
132
134
134
134
137
137
137
139
137
134
132
129
132
139
137
137
137
134
137
137
139
137
129
129
129
132
134
137
137
137
137
137
132
132
134
134
134
129
129
129
134
137
134
134
134
134
137
134
137
139
139
137
137
134
134
134
134
134
132
137
137
134
129
132
132
134
134
134
132
134
134
134
132
127
127
129
132
139
142
137
137
137
137
139
137
134
132
132
129
134
142
144
142
142
142
137
134
132
132
134
139
134
129
127
134
137
134
139
139
139
142
134
137
139
142
139
137
137
137
137
134
132
134
134
134
134
132
132
132
129
132
132
132
132
132
132
134
134
132
132
134
139
142
137
137
139
139
139
137
134
132
132
127
137
142
144
142
142
139
137
139
139
139
139
142
139
134
129
137
139
139
142
142
144
144
142
137
142
142
142
139
137
137
137
132
129
132
134
137
134
132
137
134
132
134
137
134
134
134
134
137
137
134
137
139
142
142
139
139
139
139
142
142
139
134
134
134
139
144
147
144
144
142
142
144
144
142
142
142
142
139
137
137
137
139
142
139
142
142
139
139
142
142
142
139
139
137
134
129
132
137
134
137
137
134
137
139
139
139
142
142
139
137
132
137
139
139
142
144
144
142
139
139
139
137
142
142
139
137
134
139
144
147
151
151
149
147
147
147
149
144
139
142
142
139
137
137
139
139
137
134
134
137
139
142
139
142
142
137
134
134
134
132
134
132
132
132
137
137
137
139
139
137
142
139
137
137
137
139
137
139
142
139
142
144
142
139
137
134
139
137
134
134
132
142
144
149
154
154
154
151
149
147
147
149
144
142
139
139
134
137
137
134
137
134
132
132
139
139
139
139
139
137
134
134
134
134
134
132
132
132
134
134
139
139
139
139
139
137
137
137
139
137
139
139
139
139
142
142
139
137
134
134
137
134
134
132
132
149
149
156
159
159
156
154
151
149
149
149
149
147
142
144
139
137
137
134
134
137
134
132
137
139
139
139
137
134
132
134
134
134
137
137
137
134
134
137
142
144
142
142
139
134
132
134
137
139
139
142
142
142
142
137
137
134
129
132
134
137
132
129
134
151
154
159
159
159
159
156
154
154
151
154
154
154
149
144
142
134
132
134
132
132
132
137
137
139
139
142
139
137
134
137
139
134
137
139
144
139
137
137
139
142
142
142
142
139
134
134
137
139
139
137
139
142
137
134
134
132
129
129
129
132
132
129
132
156
156
161
161
159
159
156
156
154
154
154
154
156
156
147
142
137
137
137
134
129
129
132
137
137
134
137
139
137
137
139
139
137
139
142
147
142
139
137
139
139
139
137
142
139
139
142
137
137
137
137
139
137
134
134
134
134
132
129
129
127
127
129
132
154
159
161
161
159
159
154
156
156
154
156
156
156
156
151
147
144
139
134
132
129
127
129
137
139
139
137
137
137
139
139
139
139
142
144
144
142
137
137
137
139
139
139
137
139
137
137
134
134
137
139
137
132
137
137
134
132
134
134
132
132
132
132
132
156
161
159
163
161
156
156
156
154
156
159
156
159
154
151
151
147
142
137
134
129
129
132
134
139
139
139
137
139
139
137
137
139
139
139
137
139
142
139
137
137
137
134
134
134
134
137
132
129
134
137
139
134
137
137
132
134
137
139
137
137
134
129
132
161
163
163
163
159
154
156
156
156
156
159
156
159
156
154
151
147
142
139
139
137
134
132
134
137
134
137
137
137
134
132
137
137
137
139
139
139
139
134
137
137
134
134
132
132
134
137
132
129
132
134
137
137
137
134
132
134
137
137
137
142
142
139
137
163
161
163
161
161
156
156
159
159
161
161
161
161
156
154
154
149
144
144
139
137
134
132
132
132
134
134
134
134
132
134
134
137
137
139
139
137
134
134
137
137
139
137
132
134
134
132
134
134
132
132
134
132
132
132
132
132
132
134
139
142
139
139
134
161
161
161
159
161
159
159
161
161
161
161
161
161
154
151
154
151
149
147
147
139
137
137
134
134
134
134
134
132
129
129
134
137
137
139
137
137
134
134
137
137
137
132
132
134
134
132
132
134
137
137
132
129
129
132
137
139
137
134
137
137
132
129
129
159
161
161
159
159
159
161
163
161
159
159
161
159
156
151
154
151
151
147
151
149
142
139
139
137
134
137
134
132
129
132
132
134
134
137
137
134
137
134
132
137
134
132
129
134
137
134
132
134
137
134
134
137
137
134
134
132
134
132
132
134
132
132
132
159
159
159
163
161
156
156
161
161
161
156
154
154
154
151
149
151
149
149
149
149
149
144
142
142
139
137
134
134
129
129
129
132
134
134
134
134
134
129
132
137
139
137
132
132
137
137
139
137
137
137
137
139
137
134
132
132
134
132
134
137
134
134
134
161
161
159
159
161
156
154
159
161
161
156
151
151
151
149
149
151
149
147
147
144
147
147
147
147
144
142
137
137
134
127
129
129
132
134
137
134
132
132
137
137
132
132
129
129
134
139
139
137
139
137
139
137
134
132
129
132
134
132
139
139
134
134
134
161
159
156
159
159
156
156
159
159
159
156
156
156
149
147
149
151
149
147
144
147
147
147
147
147
147
144
142
137
134
132
132
132
132
137
132
127
127
132
134
129
127
127
129
132
134
132
134
137
134
137
139
137
134
134
132
132
132
132
134
137
134
129
134
161
159
156
159
161
159
159
156
156
159
156
159
156
151
147
144
149
149
144
144
149
151
149
147
147
149
147
144
139
134
134
137
137
129
129
129
125
125
127
129
127
125
125
129
132
132
129
132
132
129
134
137
137
134
129
127
129
132
134
134
137
134
129
134
