P2
# 552 of 608 Angiograms
64 64
255
202
202
202
204
202
199
197
192
190
184
178
174
174
174
170
168
165
165
165
165
163
159
151
149
144
142
144
147
142
137
134
139
139
139
139
139
137
134
132
129
129
125
125
122
117
120
122
115
107
103
103
100
105
110
110
110
107
105
105
100
98
95
95
95
201
202
206
207
204
201
196
192
190
188
178
172
172
172
170
165
161
159
163
163
161
156
154
147
142
139
144
144
137
129
132
137
142
142
139
139
142
137
129
122
125
125
122
125
122
125
127
122
115
105
103
103
107
112
115
112
107
110
110
103
100
100
98
100
204
204
206
206
206
201
196
190
190
190
182
174
165
168
170
168
163
163
165
163
161
159
154
144
139
139
144
144
137
134
134
134
142
144
144
142
139
142
134
125
125
125
129
127
127
127
125
122
120
115
112
112
117
115
115
112
107
110
110
107
105
103
105
105
201
202
204
204
202
201
196
192
190
192
184
176
170
165
170
172
170
168
168
165
163
163
156
142
139
139
142
142
134
134
132
134
139
142
139
137
134
144
139
132
129
129
132
127
127
125
122
120
120
117
115
115
115
115
112
107
110
107
105
105
103
105
107
107
201
202
202
202
201
199
196
194
194
190
186
178
174
172
172
172
168
168
170
168
165
165
159
147
139
137
137
137
132
132
134
137
142
142
144
142
139
139
139
137
132
132
132
127
122
117
117
117
117
115
112
117
117
115
110
107
107
103
100
103
105
110
107
110
199
201
202
202
201
201
197
196
196
190
188
178
174
172
174
174
170
172
172
168
165
163
159
149
139
134
134
134
129
134
137
137
142
144
147
147
144
142
142
134
129
127
129
125
120
117
115
112
112
110
112
115
120
117
110
107
107
110
103
103
105
107
103
105
201
199
201
199
197
199
196
196
196
190
188
180
174
174
174
172
172
174
170
168
168
163
161
154
142
134
134
137
134
137
134
134
142
147
149
149
147
144
139
134
132
129
129
127
120
120
117
117
115
115
117
117
120
122
115
112
117
117
110
105
107
107
105
107
201
199
197
197
196
194
192
194
194
192
190
184
178
174
172
170
170
170
172
170
168
161
159
156
144
134
129
134
137
137
137
137
144
154
149
147
144
142
137
137
134
132
132
129
125
120
117
115
117
115
120
122
125
125
120
117
115
112
110
107
107
110
112
115
199
199
196
194
192
192
192
192
194
194
192
186
182
176
172
168
168
170
172
170
163
161
159
156
144
134
132
132
134
137
139
139
144
154
149
142
139
139
137
139
137
134
132
132
127
120
115
112
112
117
122
127
127
122
112
115
112
107
110
110
110
115
115
117
199
199
196
194
194
192
192
194
194
194
192
188
184
180
174
172
174
172
172
165
159
156
159
154
147
137
134
134
139
139
142
144
144
151
149
137
137
134
137
139
139
134
129
129
125
117
112
112
112
115
120
125
122
115
110
112
107
107
107
110
112
112
115
120
196
197
197
197
196
194
192
192
194
192
190
188
186
180
176
176
174
172
170
168
161
159
159
151
149
139
134
137
137
139
142
144
147
149
147
137
137
134
134
134
129
129
129
125
120
117
115
115
115
115
115
117
117
112
115
115
103
103
105
110
112
112
112
117
194
196
199
199
197
194
194
194
190
188
190
190
186
180
176
174
172
172
172
170
165
161
156
149
151
147
139
139
139
142
142
144
147
149
142
137
134
134
132
127
127
127
127
120
117
117
117
120
125
125
117
117
115
115
115
112
105
103
107
115
120
120
117
115
192
194
197
196
192
190
188
186
184
186
188
186
184
178
174
172
168
170
172
170
165
163
154
149
151
149
147
139
139
142
142
144
147
142
134
129
132
129
125
127
129
127
125
120
117
117
117
122
127
127
125
117
112
117
115
112
107
107
112
117
120
115
115
120
190
190
192
192
190
186
186
182
184
186
184
184
184
180
174
172
170
170
168
168
165
163
156
151
154
151
149
144
144
137
137
139
139
134
129
127
129
129
127
127
129
125
120
120
117
120
122
125
127
129
125
122
120
117
112
115
112
110
112
115
112
110
112
117
186
186
188
190
190
188
184
182
184
184
184
184
182
180
174
172
172
168
165
165
163
163
159
149
151
154
151
149
142
132
134
137
134
129
129
127
125
129
129
127
125
122
120
117
117
122
122
125
127
125
122
125
122
115
112
115
117
112
112
115
112
112
112
117
180
180
182
184
186
186
184
182
182
184
184
182
180
178
174
168
170
172
168
163
163
163
159
151
151
154
154
149
144
139
142
139
134
132
129
127
125
125
125
125
129
125
120
115
117
117
120
127
125
122
120
122
122
115
112
117
122
122
117
115
115
110
107
115
176
174
178
182
184
186
184
182
182
182
182
182
180
178
174
170
168
170
170
163
163
165
161
156
154
151
156
151
147
147
144
139
137
134
127
122
125
122
120
122
125
122
120
117
120
120
125
125
122
120
117
122
120
112
112
122
125
125
122
120
112
110
107
115
180
176
176
182
186
190
186
184
182
182
180
178
176
178
174
172
170
168
165
163
163
163
163
159
154
151
154
154
147
144
142
139
134
132
125
122
125
127
122
120
122
122
122
122
120
120
122
120
117
115
115
117
120
115
117
125
120
117
120
122
120
117
115
112
182
178
180
182
186
186
186
186
184
182
180
176
176
178
172
165
165
165
165
163
161
161
159
156
154
154
159
154
144
144
144
139
132
127
125
122
127
127
120
120
122
125
127
122
120
117
122
117
112
112
112
112
117
115
120
122
115
115
120
122
120
115
112
107
184
178
180
184
186
188
190
188
184
184
182
176
176
176
172
163
163
163
163
161
159
154
151
151
151
154
154
149
147
147
144
139
132
127
127
127
127
120
115
115
122
129
132
125
120
120
125
120
110
112
115
115
120
122
122
120
115
115
115
117
115
115
112
107
186
180
182
184
184
188
190
188
186
184
180
178
174
174
168
163
163
163
156
156
156
154
151
149
147
149
147
144
149
149
144
142
132
125
125
127
122
115
110
115
122
129
127
122
117
120
122
120
112
112
115
112
115
120
122
117
117
115
115
115
115
117
110
105
186
182
184
184
182
186
188
186
186
184
180
176
172
170
163
161
161
163
159
159
159
159
154
149
144
144
142
139
142
147
144
142
132
120
125
127
125
115
112
115
120
122
122
117
117
120
122
122
117
112
117
112
110
112
115
117
117
120
120
115
115
112
110
105
188
182
186
186
180
182
182
184
184
180
178
174
172
165
163
161
159
161
161
163
161
156
154
149
147
142
139
142
144
147
144
142
132
122
127
132
127
120
117
117
120
122
122
122
122
125
125
122
125
122
120
117
110
107
112
120
120
120
117
115
115
112
107
100
188
186
186
186
180
178
174
174
176
178
176
174
172
170
165
163
163
163
161
161
159
159
154
149
144
137
134
139
147
149
144
139
129
127
129
129
122
120
120
122
122
122
115
115
117
120
122
125
127
127
125
120
115
110
115
125
120
115
112
115
112
107
100
103
192
190
184
182
180
176
176
174
174
174
174
172
172
172
170
165
165
165
165
165
161
159
156
149
142
139
137
137
144
147
139
134
127
125
127
125
120
117
120
122
122
120
112
110
115
120
125
129
129
127
129
122
120
115
117
120
120
110
110
107
112
105
103
100
194
192
188
186
184
178
176
176
174
172
172
172
174
172
172
172
168
168
168
168
168
163
161
154
144
139
139
137
142
142
137
132
125
120
122
122
117
112
117
125
122
120
117
117
120
122
127
134
134
129
127
125
120
120
122
122
117
110
103
100
112
110
110
105
192
192
192
190
188
180
174
172
174
174
170
174
176
172
170
168
168
170
170
170
168
165
163
156
147
144
144
142
142
142
137
129
122
115
120
122
120
117
117
125
120
117
122
127
125
125
129
134
132
129
127
125
122
125
122
120
115
105
103
103
115
115
112
107
188
190
190
190
190
182
176
174
174
174
172
174
176
172
165
163
165
170
170
170
165
163
163
159
151
144
144
144
142
139
134
127
122
117
117
120
122
120
117
117
115
117
125
132
129
127
129
132
127
127
127
122
125
125
120
115
112
110
103
110
117
112
107
105
188
186
186
186
186
180
180
178
172
170
170
172
174
170
165
163
163
170
172
172
165
165
161
156
151
144
139
142
137
134
129
127
125
120
115
115
120
120
120
117
122
122
125
129
129
127
127
127
127
125
125
122
122
120
115
112
110
110
107
120
120
115
105
103
188
188
186
186
184
180
178
174
168
165
168
172
170
168
165
163
163
163
170
170
165
163
161
156
149
144
139
137
132
127
129
129
127
122
122
122
122
122
120
122
127
127
125
129
129
127
122
125
122
122
125
122
117
115
112
110
110
110
115
120
120
115
112
110
188
188
186
184
180
178
176
172
168
165
165
168
165
165
165
165
165
165
165
163
163
163
161
154
147
142
137
129
125
127
129
132
132
125
125
125
122
120
125
122
122
125
129
132
129
127
127
125
125
122
120
120
120
117
110
110
110
107
112
117
120
115
112
117
188
186
186
180
176
176
172
172
168
163
161
163
165
165
168
168
165
168
170
165
163
159
156
151
144
139
134
127
127
134
129
129
129
125
120
122
120
117
125
127
125
125
129
132
122
120
120
120
117
115
112
117
120
115
110
110
110
110
110
117
117
115
112
122
184
186
182
178
176
174
172
168
163
163
161
161
161
163
165
163
163
163
163
165
165
156
154
149
139
137
134
129
129
129
129
127
129
125
122
122
120
120
122
129
129
129
129
125
115
117
120
117
112
107
110
107
115
115
112
115
115
115
110
115
120
117
115
125
184
182
180
178
176
172
165
163
161
161
161
159
159
159
159
156
156
156
156
159
159
156
151
149
139
134
132
127
129
129
129
129
125
122
125
120
115
117
125
129
132
132
129
122
115
117
117
115
107
107
112
107
112
115
115
115
115
110
105
112
117
112
115
125
182
180
178
176
172
163
161
159
156
156
159
156
154
154
154
151
154
151
151
151
151
151
149
147
142
134
129
127
129
129
127
127
122
120
122
117
117
122
127
132
129
129
127
120
112
112
115
112
110
112
110
107
112
115
115
115
115
110
107
115
115
115
120
122
182
178
176
170
165
161
159
154
147
149
154
151
151
154
151
151
151
147
144
147
149
149
151
147
142
134
127
125
129
129
125
125
125
120
122
117
115
122
129
132
132
127
125
117
110
112
112
112
112
115
110
103
103
110
115
112
112
115
112
117
122
122
122
122
184
176
168
154
154
159
154
151
147
147
151
154
154
154
151
151
149
144
144
149
149
154
154
151
142
132
125
120
125
127
127
125
127
125
122
120
122
122
125
125
120
120
122
117
115
117
112
110
112
112
107
103
105
107
110
105
107
107
110
120
125
120
115
120
184
176
159
134
142
151
154
151
147
151
154
159
156
151
151
151
147
144
149
151
151
161
159
151
144
134
125
120
129
129
127
127
127
127
127
125
125
122
120
120
115
115
120
117
120
122
122
120
117
110
105
103
105
107
107
107
107
110
112
120
122
117
110
117
188
178
163
137
137
144
149
154
154
154
154
156
154
151
151
147
144
147
151
154
154
154
154
151
144
137
127
125
129
129
125
127
132
134
134
132
129
122
120
120
115
110
112
115
117
120
122
120
115
110
107
107
110
112
110
105
107
110
112
120
120
115
107
117
192
182
172
154
142
144
144
149
161
161
156
156
151
149
144
142
142
147
151
149
151
149
149
147
144
137
129
125
127
129
132
129
134
137
137
134
132
125
117
115
112
112
112
115
117
122
122
115
112
112
110
110
117
117
112
105
107
110
112
117
117
112
107
112
192
184
176
165
154
147
139
144
154
161
159
154
149
147
144
142
144
149
151
149
149
147
142
144
142
134
129
122
125
125
127
129
132
132
132
132
132
125
120
115
112
112
115
120
122
127
122
117
120
115
107
107
115
117
115
110
107
110
112
115
115
115
112
110
192
186
180
172
163
154
144
142
144
154
159
154
151
149
149
147
147
149
151
149
147
142
142
142
139
132
127
122
120
122
129
134
134
129
129
129
129
127
122
117
115
115
120
125
120
127
125
120
120
117
110
107
112
120
117
112
107
110
117
115
112
110
107
110
192
188
184
176
168
161
154
144
139
142
149
154
154
154
151
149
149
144
142
144
142
139
142
139
137
132
125
122
122
127
137
137
134
129
127
125
127
127
122
117
115
117
122
125
117
120
127
122
120
115
112
112
112
115
112
107
105
105
103
103
100
103
107
107
194
190
186
180
172
165
161
154
147
142
139
142
144
147
151
151
149
142
137
139
139
142
144
142
137
134
132
127
127
129
137
134
132
127
122
122
122
120
120
120
117
120
120
125
120
120
120
120
112
105
107
117
120
115
112
105
105
103
103
103
103
107
107
107
197
194
190
186
178
172
163
161
159
154
144
137
132
134
137
142
139
134
134
139
142
142
137
137
137
134
134
134
134
132
134
134
129
127
125
122
120
117
115
120
117
115
117
115
120
117
117
115
112
107
110
115
120
120
115
105
105
105
105
103
107
107
110
107
201
199
196
190
184
178
170
165
165
165
156
147
134
127
127
129
129
129
134
137
139
134
132
132
134
134
134
132
134
134
134
134
129
129
127
125
120
115
115
112
112
115
115
117
115
115
112
112
112
115
115
110
115
115
112
105
107
107
110
107
107
105
107
110
204
202
201
197
190
184
178
172
168
168
163
159
151
144
139
134
134
134
137
134
132
132
129
129
132
134
134
129
134
137
137
134
129
129
127
127
125
117
115
112
115
117
115
117
112
110
110
112
112
110
112
112
110
112
112
107
105
105
110
107
105
103
107
107
207
206
204
201
196
188
184
178
172
170
165
161
159
159
156
151
139
134
134
129
129
129
127
129
129
132
132
134
134
137
132
127
125
125
129
132
129
125
122
120
120
120
115
110
103
100
103
107
107
107
107
110
107
105
110
110
105
103
105
105
103
107
110
105
207
207
206
202
197
190
184
182
180
176
172
168
163
163
165
163
156
144
134
127
127
125
122
125
127
129
132
139
137
134
129
132
125
125
132
132
129
129
127
122
122
120
110
98
98
91
98
103
100
98
100
105
105
103
110
112
107
107
107
107
107
110
115
110
207
206
206
202
199
192
188
180
178
180
178
174
172
170
170
168
161
154
144
132
127
122
117
110
115
122
129
134
137
134
132
129
125
120
127
129
134
132
127
117
120
115
103
95
91
91
100
98
93
93
100
107
105
103
105
110
112
115
112
110
107
107
110
110
206
204
206
204
199
194
188
180
176
176
178
178
176
176
172
168
161
156
156
144
132
125
117
105
103
110
117
127
132
132
129
129
125
122
127
129
129
129
125
120
120
110
100
100
93
95
103
98
95
98
103
103
107
103
105
107
112
115
112
115
112
110
107
110
206
204
206
204
201
196
190
184
180
180
180
180
180
182
176
172
163
161
161
154
144
134
127
115
105
103
107
115
122
125
127
127
125
127
127
127
122
122
122
120
117
110
105
105
100
100
103
100
98
98
100
105
107
110
107
105
107
112
112
115
115
115
115
117
204
202
202
202
202
199
192
186
184
182
180
180
182
182
180
174
168
165
163
159
151
142
134
129
117
105
103
105
110
115
117
120
122
125
125
122
122
120
122
120
120
112
110
107
107
105
103
100
93
93
98
103
107
110
107
103
103
107
112
112
115
117
120
115
199
201
202
202
202
199
196
190
186
182
180
182
184
180
178
174
170
168
163
161
154
149
142
137
129
117
107
105
107
107
110
112
117
117
115
117
120
117
115
117
120
112
110
105
105
105
105
103
95
89
93
100
105
107
107
107
105
110
112
112
115
115
115
112
202
202
202
201
201
199
197
194
190
186
182
182
180
180
178
174
170
165
163
163
159
154
149
142
137
127
117
112
110
107
105
110
115
115
117
117
117
110
112
112
117
115
105
100
95
95
100
107
103
95
100
100
105
105
100
105
110
110
110
110
115
115
110
107
201
202
202
202
202
201
201
197
194
190
186
182
178
178
176
172
172
174
170
168
165
159
154
147
142
134
125
117
115
115
112
115
117
115
115
112
110
107
110
112
112
112
105
98
91
91
93
100
103
105
103
103
107
105
100
103
107
110
105
105
107
112
107
105
201
202
202
201
201
201
201
199
199
194
190
186
182
178
176
176
176
176
174
172
170
163
159
151
144
139
132
125
117
117
120
122
125
120
112
107
107
105
107
112
112
110
105
100
93
86
91
98
103
105
103
100
107
107
100
95
98
98
100
100
100
107
105
107
201
202
202
199
201
199
199
199
199
196
194
190
186
182
180
180
178
178
176
174
170
170
163
156
151
147
137
132
125
125
125
122
129
127
117
112
107
103
105
105
107
107
107
100
95
93
98
100
100
100
103
105
107
100
93
91
89
91
95
98
98
100
105
107
202
201
199
199
201
199
199
199
196
194
194
192
188
184
182
180
180
180
178
176
172
170
165
159
156
154
147
139
134
127
122
122
129
129
125
115
112
107
105
100
98
103
107
103
103
98
100
100
100
100
98
95
93
91
89
89
89
91
93
100
100
95
100
107
199
202
201
201
199
197
197
197
194
192
194
192
190
186
184
182
180
180
180
176
174
170
165
161
159
156
151
144
139
132
129
127
127
129
129
122
120
115
110
103
98
100
105
103
103
105
103
100
103
95
91
89
89
91
89
84
86
89
91
95
95
91
98
105
197
201
199
201
199
196
196
196
192
192
192
192
190
188
188
186
184
184
182
176
174
170
165
163
161
156
151
144
139
132
132
129
125
127
129
127
125
122
117
110
103
100
103
103
105
112
110
105
98
98
89
91
95
89
86
82
86
91
93
93
93
95
98
103
197
196
197
199
199
196
194
194
194
192
192
190
190
188
186
186
186
184
182
176
172
165
165
163
156
151
149
144
142
134
134
132
127
125
127
125
125
125
122
117
112
107
103
103
103
110
112
103
100
100
91
93
93
89
84
86
91
86
91
93
95
95
98
95
196
196
196
199
197
194
192
192
194
192
190
190
190
188
184
182
180
180
176
174
170
165
163
159
154
149
147
149
147
137
137
132
129
122
122
125
122
120
122
125
120
115
110
107
105
110
107
100
98
95
91
89
91
91
86
89
89
84
91
95
100
100
100
95
194
194
196
196
196
194
192
190
192
192
190
188
188
186
182
180
176
174
172
170
168
165
161
156
151
149
149
151
149
142
134
132
129
122
120
125
122
115
120
125
125
120
115
115
117
115
105
98
93
93
89
89
89
91
93
91
89
86
91
93
98
105
105
100
