P2
# 556 of 608 Angiograms
64 64
255
122
117
117
120
122
127
122
125
122
122
122
125
129
125
127
129
132
129
127
125
127
129
127
129
129
127
127
129
129
129
132
132
129
129
129
134
134
132
132
132
134
134
129
127
129
132
129
125
125
134
142
139
132
134
132
132
132
129
134
132
129
129
132
129
127
125
120
120
120
122
122
125
125
125
127
129
132
127
127
132
134
132
132
132
129
129
129
129
129
127
129
129
132
127
127
129
132
132
132
134
134
134
134
127
129
134
134
129
127
129
127
125
127
132
134
137
134
134
134
132
132
129
134
132
129
127
129
129
137
129
125
125
125
120
120
125
127
127
129
132
129
127
127
129
132
132
132
129
129
132
129
132
134
132
132
132
134
132
125
127
129
129
129
132
132
134
134
132
132
134
132
132
127
129
132
129
129
132
129
134
134
132
132
129
132
134
139
134
132
129
129
129
129
127
129
127
127
127
122
125
127
129
129
134
129
127
122
125
125
129
132
132
132
132
129
127
134
137
137
132
134
134
129
127
127
127
129
129
132
137
132
129
132
132
132
132
132
132
134
134
132
129
127
132
134
137
134
129
127
134
134
132
134
132
129
127
127
127
129
127
127
125
125
127
127
127
129
134
132
127
125
122
125
132
134
134
127
125
125
129
137
134
132
134
134
137
134
129
129
127
127
129
132
134
132
129
127
132
134
132
132
132
134
137
129
122
127
132
137
139
137
134
134
134
134
134
134
134
129
125
125
129
129
127
125
120
125
127
129
129
129
132
137
132
129
129
127
134
132
132
127
120
125
132
137
139
137
134
134
139
137
134
132
129
127
127
129
127
127
127
125
132
132
129
129
129
134
137
129
127
132
137
134
132
132
137
134
134
132
134
134
132
127
127
127
132
132
132
129
127
129
132
134
132
134
137
137
134
134
134
132
134
134
134
129
127
132
137
132
137
139
139
137
142
137
137
134
134
127
125
122
125
122
125
125
132
129
125
129
132
134
134
129
132
134
137
134
129
129
132
132
134
132
132
137
134
129
129
129
134
134
134
132
132
129
134
137
134
134
137
137
139
137
139
137
137
139
137
132
129
132
134
132
132
137
139
142
142
142
142
134
129
132
125
122
122
127
129
127
127
125
125
127
129
132
129
132
134
132
134
137
132
129
132
134
134
134
132
134
134
134
129
129
129
132
132
129
132
132
134
139
137
137
134
139
137
139
139
139
142
142
139
134
132
134
134
134
132
129
139
142
139
139
142
134
132
134
129
122
127
129
129
129
129
127
125
125
127
132
127
129
132
134
134
132
129
132
127
127
132
137
137
134
132
132
132
125
127
132
132
129
134
132
134
134
134
134
134
137
134
132
139
142
144
139
134
134
134
137
132
132
129
129
134
137
134
137
139
137
134
134
132
129
132
134
132
127
127
129
129
127
127
129
127
129
132
134
132
129
129
132
129
129
132
134
137
134
129
132
134
122
127
129
134
132
129
127
127
134
132
134
137
137
132
132
137
142
139
134
127
127
132
132
134
137
134
134
132
129
134
134
139
139
137
137
137
132
132
134
132
127
129
132
134
132
127
125
127
129
132
129
127
132
132
132
129
132
129
129
132
134
132
132
137
125
127
129
132
129
129
127
129
132
129
132
139
139
134
134
134
137
134
132
127
127
129
129
129
134
137
139
134
132
134
137
132
137
139
134
134
134
132
134
134
132
132
134
132
129
127
125
125
127
129
129
129
134
132
132
132
127
127
129
132
134
134
132
137
132
132
129
132
129
127
127
134
134
132
132
134
137
137
137
134
134
132
132
129
129
127
129
134
134
134
139
134
132
132
132
134
134
137
134
134
134
134
134
139
137
132
134
132
132
127
125
125
127
129
132
134
132
134
132
129
125
127
132
127
132
134
134
137
132
134
132
134
134
129
132
137
134
137
134
132
134
137
134
132
132
134
132
129
134
137
132
132
134
134
134
134
132
132
134
134
137
134
134
134
132
132
137
139
137
129
132
134
137
132
129
132
134
132
134
134
132
132
129
127
127
129
129
127
129
129
132
134
132
132
132
134
137
134
134
137
137
137
137
134
134
134
134
132
129
129
132
134
139
137
134
132
132
134
134
134
132
129
132
129
132
134
134
137
129
127
129
132
132
127
132
137
139
134
134
134
134
134
134
134
134
132
129
129
127
129
132
129
132
132
134
134
132
129
129
132
137
132
132
134
137
137
137
134
134
134
132
129
127
132
132
134
137
137
134
129
129
129
132
132
129
134
137
134
129
129
127
134
127
125
127
132
137
137
134
137
137
134
132
129
129
127
129
134
134
137
132
132
129
127
127
129
129
132
134
132
129
127
127
129
132
132
132
134
137
137
137
134
134
132
129
127
132
134
134
132
134
134
132
129
129
129
132
134
134
134
134
134
134
132
129
132
129
127
132
134
134
134
134
132
132
134
132
129
129
129
134
137
134
132
132
132
132
132
132
134
134
132
129
129
132
127
125
127
129
132
132
134
137
134
137
134
134
132
127
127
134
134
134
134
134
134
132
129
127
132
137
134
132
129
132
132
132
132
129
129
134
132
132
134
132
134
134
132
134
137
132
129
132
132
134
137
132
127
132
134
137
137
139
139
137
137
132
132
134
132
127
125
127
129
132
129
132
134
134
132
132
132
129
129
134
137
134
132
132
132
132
129
129
132
134
132
129
127
127
129
129
132
129
132
134
132
137
142
137
134
134
132
137
134
129
129
132
132
132
132
132
129
132
139
142
142
144
139
134
134
137
137
134
134
129
129
127
127
127
127
132
132
132
132
129
134
132
129
132
137
134
132
134
134
137
137
129
127
127
127
127
127
129
129
132
132
129
132
134
132
132
137
137
134
134
132
132
132
134
134
134
137
137
137
134
134
137
142
144
142
139
137
137
134
137
137
132
134
134
132
132
127
125
127
129
132
132
129
127
134
134
134
134
134
132
134
139
134
134
134
134
132
129
127
129
125
129
129
129
132
129
129
132
129
127
132
132
137
137
134
132
132
134
137
134
137
139
142
142
139
139
142
142
142
139
139
139
137
137
139
129
129
132
132
132
127
127
129
132
132
132
129
129
134
137
132
129
132
134
134
139
137
132
129
134
137
137
134
129
125
127
129
132
129
132
132
125
125
125
132
132
132
134
137
132
129
137
139
137
134
139
142
139
137
134
139
139
139
137
139
139
137
142
142
134
134
134
127
129
129
132
134
134
134
134
134
132
134
134
127
125
129
129
129
129
132
132
132
134
137
134
132
132
129
127
127
132
132
129
134
132
129
129
132
132
129
132
132
134
137
139
139
139
139
139
142
137
134
134
139
139
137
134
139
139
137
139
142
132
129
132
129
129
129
134
134
132
134
134
134
137
137
134
129
129
129
127
132
132
129
129
129
134
134
129
132
132
129
125
127
132
132
132
134
139
137
132
132
134
132
132
129
134
139
137
134
139
139
137
142
137
134
137
137
142
139
137
139
142
144
142
139
132
129
127
127
127
125
129
129
132
132
132
134
134
132
132
132
134
132
132
134
134
134
132
129
132
132
129
132
132
129
129
132
134
134
134
134
139
139
134
132
132
132
132
132
134
137
137
132
134
137
139
142
137
134
132
137
139
139
137
139
142
144
142
137
134
132
129
127
125
127
132
134
129
127
127
132
134
137
137
139
139
137
137
134
132
132
129
129
127
127
129
132
134
132
134
134
134
134
137
139
139
134
134
132
129
134
137
137
137
139
137
132
132
137
137
137
134
132
134
139
139
137
139
142
144
142
139
137
137
137
134
127
127
132
134
132
132
129
132
134
137
139
144
139
137
134
134
129
129
132
129
127
125
127
129
137
137
134
137
137
132
132
137
139
139
134
134
132
132
132
137
139
139
142
134
137
137
139
137
132
134
132
139
139
139
139
144
144
142
142
139
137
134
139
139
134
134
137
137
129
127
129
132
132
132
137
139
134
132
132
132
129
132
129
129
129
132
134
134
137
137
134
134
134
137
134
134
137
137
134
132
132
134
134
137
137
137
139
137
134
134
132
134
132
132
132
139
139
139
142
147
142
139
139
142
142
134
144
142
134
134
139
137
129
129
132
132
129
132
137
137
139
134
134
132
132
129
127
125
129
134
134
132
134
137
134
132
134
139
139
137
134
134
134
134
132
132
134
137
134
134
132
132
132
132
134
134
137
134
134
137
139
139
139
139
139
142
142
142
142
139
142
139
132
132
137
137
132
127
134
134
134
134
134
139
139
134
134
137
137
134
129
127
132
134
132
134
134
134
134
134
134
134
137
134
132
137
137
134
134
134
132
134
137
137
132
129
132
137
137
134
134
134
137
139
139
139
137
134
134
139
142
139
139
139
142
139
134
137
134
134
132
129
134
137
134
132
134
142
139
134
134
139
139
137
134
132
132
134
134
134
132
132
132
134
134
137
137
134
137
139
137
137
137
137
134
132
134
134
132
134
132
132
132
132
132
134
137
139
139
137
134
134
137
134
142
142
137
137
137
139
139
139
137
132
129
129
134
139
137
132
134
139
139
137
139
137
137
134
134
134
132
132
134
132
134
137
137
134
137
137
134
139
139
139
134
137
139
139
139
137
137
134
132
134
132
129
132
134
137
134
137
137
139
139
134
137
137
134
137
137
134
139
134
134
137
142
139
132
129
127
129
132
134
134
134
134
139
142
142
139
137
137
134
134
132
129
134
137
137
137
137
137
137
134
137
142
137
139
137
139
137
137
137
134
134
132
132
134
132
132
129
132
137
134
137
137
139
142
137
134
137
139
142
139
139
142
139
132
132
134
134
129
129
127
125
127
129
132
134
134
137
139
142
139
139
139
137
134
132
132
134
139
139
139
134
134
134
134
137
139
139
139
139
142
139
139
137
137
134
132
132
132
132
134
132
134
137
134
132
134
137
137
137
137
139
142
142
142
144
142
139
137
132
134
132
132
129
129
127
125
127
134
134
132
132
134
134
134
134
134
132
132
132
134
137
137
137
137
137
137
137
137
139
139
139
139
139
139
139
137
137
137
137
134
134
134
132
132
134
137
134
132
134
137
139
137
137
139
142
147
147
149
149
142
137
134
134
137
134
132
132
132
132
129
129
134
129
129
127
127
129
129
134
132
132
134
134
134
137
132
129
129
134
139
139
137
134
137
137
137
139
139
137
139
134
134
134
134
137
137
134
134
134
137
134
132
134
134
139
139
142
144
144
147
147
147
147
142
139
134
137
139
134
134
137
139
134
132
132
129
129
132
134
132
129
129
134
134
132
132
132
134
137
132
132
132
134
137
137
132
132
132
134
137
142
142
134
137
139
139
137
134
134
134
134
134
132
132
134
132
134
134
137
142
147
144
144
147
144
142
139
139
139
134
137
139
134
137
142
142
137
137
139
139
139
137
139
142
139
134
137
137
134
132
134
134
132
129
127
132
134
134
132
127
129
132
134
137
139
139
137
137
139
137
137
137
134
134
134
134
132
132
137
137
134
137
134
139
139
142
147
149
147
142
142
137
139
139
139
139
137
137
139
139
139
139
139
139
142
137
139
139
142
137
134
134
134
139
144
142
137
132
132
134
134
132
132
129
129
132
134
137
132
129
132
132
137
137
137
134
134
132
134
134
134
132
137
137
137
134
134
137
137
144
144
147
142
142
144
137
137
139
142
142
139
137
134
139
139
139
139
137
134
134
137
139
139
134
132
134
137
139
144
144
142
137
134
137
134
132
132
134
134
129
129
134
129
129
132
134
132
134
132
129
129
132
132
132
132
132
134
137
134
132
137
137
137
147
147
144
142
139
139
142
139
142
139
139
139
137
134
139
139
137
134
137
134
134
137
137
137
134
134
137
139
139
139
139
142
142
134
132
134
134
137
139
134
129
129
134
134
134
134
137
137
134
132
129
129
132
132
129
132
132
132
129
129
132
137
139
139
144
147
144
142
142
144
142
144
142
137
137
139
134
137
139
139
137
137
139
139
132
134
137
134
134
134
142
144
139
137
139
139
144
139
134
132
134
137
139
137
134
134
137
139
137
134
132
139
139
137
132
132
134
132
134
137
134
132
132
132
134
137
139
142
139
142
142
142
139
142
139
142
142
137
139
139
137
139
137
137
134
134
142
137
134
134
137
137
134
134
139
142
142
139
142
139
137
137
134
132
134
132
134
134
137
137
137
137
137
134
132
137
139
137
134
134
134
134
137
137
139
139
139
139
139
137
134
139
139
137
139
139
137
137
139
142
139
137
139
139
139
139
134
132
132
132
137
137
134
137
139
137
134
134
137
139
142
142
139
137
132
134
134
132
132
132
132
137
137
134
134
137
137
137
139
139
139
137
137
137
139
142
139
142
142
139
137
139
142
137
134
137
137
137
142
142
137
134
139
139
142
142
139
139
137
134
134
137
134
134
137
142
134
132
137
134
137
137
132
137
139
139
142
139
134
137
137
137
137
134
137
139
139
134
134
139
134
137
142
139
137
137
139
139
137
139
134
139
139
137
134
139
142
139
139
139
139
137
137
139
137
134
142
139
142
139
139
139
137
134
139
139
137
139
142
139
134
132
134
134
137
139
134
134
139
144
144
139
139
137
134
139
139
139
137
137
137
137
134
137
134
137
144
142
134
134
137
137
137
137
137
134
137
137
137
137
139
139
139
139
139
139
137
134
137
137
144
139
139
137
139
137
137
137
139
137
137
137
134
137
134
132
134
137
137
137
137
137
139
139
144
142
139
137
137
139
134
137
134
134
137
137
137
134
139
137
139
139
137
139
137
134
134
139
142
142
142
139
137
139
142
139
139
137
137
137
137
134
134
134
142
137
134
134
134
134
134
137
137
137
139
137
139
134
129
132
134
137
137
134
134
139
137
137
139
134
132
132
137
134
134
137
139
137
137
134
137
137
142
137
137
137
139
144
139
134
134
137
137
139
139
139
137
139
137
134
139
139
137
134
132
132
129
132
137
137
134
132
129
129
132
134
137
139
137
137
137
134
132
134
132
132
134
132
132
139
137
139
142
134
134
134
137
137
137
139
137
134
134
132
137
139
139
137
137
139
139
142
139
137
134
132
134
137
142
139
137
137
134
134
142
142
139
134
134
134
127
129
139
134
134
134
132
134
132
132
132
134
134
137
137
137
137
137
132
134
134
134
132
137
139
142
142
139
137
137
137
137
134
137
137
134
134
137
139
142
142
142
144
142
139
142
142
142
142
137
137
139
142
139
137
137
139
139
139
144
142
137
137
137
132
137
137
137
137
139
137
134
132
132
132
134
134
134
137
137
134
137
134
134
134
134
134
142
144
144
139
139
139
139
137
137
137
137
137
139
142
142
142
144
144
144
144
144
142
139
139
142
142
139
137
142
144
139
134
134
137
134
137
137
139
137
137
134
134
137
137
139
137
139
137
137
134
134
134
134
137
137
137
139
139
137
134
132
129
129
137
142
147
144
139
139
139
142
142
142
139
137
139
142
144
142
142
142
142
142
142
144
139
137
139
139
139
134
134
139
139
134
132
134
132
127
129
132
134
132
132
134
134
134
139
139
139
139
137
137
139
139
139
137
139
139
139
139
139
134
134
134
129
134
137
139
142
144
142
139
139
142
142
144
142
139
142
139
144
147
147
142
142
142
144
142
139
139
142
142
137
137
132
134
134
127
127
129
129
127
132
132
132
132
132
132
132
132
137
134
137
139
137
139
142
139
137
137
137
137
139
137
134
132
134
134
134
134
134
137
139
142
139
142
139
137
139
142
142
142
144
139
142
144
142
139
144
147
147
142
137
137
142
139
134
134
134
132
132
129
132
134
132
132
134
134
134
134
132
129
129
129
139
134
137
137
137
139
139
137
137
134
134
134
139
139
134
132
132
134
137
139
137
134
137
137
137
142
144
139
137
137
139
139
139
139
142
142
142
142
144
144
144
139
134
134
137
134
129
134
132
129
132
134
134
134
132
132
132
132
134
132
134
132
129
132
142
139
137
139
139
139
139
139
137
137
137
134
137
139
139
134
132
137
139
137
137
139
139
142
139
139
142
139
137
134
137
137
137
139
139
142
142
144
142
142
142
142
137
139
137
129
132
134
132
127
132
134
132
134
132
132
132
134
132
132
137
134
134
134
142
139
142
144
142
144
142
142
139
139
139
137
134
134
137
134
129
134
137
137
134
137
139
142
139
142
142
139
137
137
139
137
134
134
139
142
142
139
139
139
142
142
139
139
137
132
132
134
132
129
129
127
127
132
129
129
132
129
132
134
137
134
132
134
137
137
139
137
139
142
142
139
139
137
134
134
134
137
137
134
132
134
137
137
134
137
139
139
137
139
142
139
137
137
139
139
137
139
142
139
139
139
137
137
137
137
139
139
142
137
132
134
134
129
127
125
125
132
129
127
129
129
129
132
137
132
132
134
137
137
137
137
134
137
134
137
139
139
134
132
134
134
137
137
134
137
137
137
137
139
139
139
137
142
142
139
137
134
137
137
137
139
137
139
139
139
139
137
134
134
137
137
139
137
129
129
129
129
127
129
129
132
129
129
127
129
127
129
134
134
132
134
134
137
139
137
137
139
134
134
137
139
137
134
132
134
134
137
139
137
134
134
134
137
134
132
139
144
142
144
142
137
134
137
139
139
139
137
139
142
142
139
134
134
142
137
137
134
127
125
125
129
134
132
127
132
129
129
127
127
129
129
137
137
132
134
134
134
137
137
137
137
137
134
132
134
134
132
132
134
137
139
139
137
137
134
134
134
129
134
142
144
139
142
142
139
137
142
142
142
139
137
139
144
142
139
134
139
142
139
137
134
132
129
127
129
132
129
125
129
129
132
129
127
132
129
137
137
134
132
139
134
134
132
132
134
139
137
132
132
134
137
134
137
142
139
139
134
134
137
137
137
137
139
142
144
142
142
142
137
139
144
142
142
142
139
139
139
139
137
137
137
139
137
137
132
129
129
132
132
132
129
129
129
127
127
132
132
132
132
134
132
132
132
137
137
134
132
132
137
134
137
137
134
137
137
137
139
139
139
137
132
137
139
137
137
139
139
139
139
139
139
137
137
137
142
144
142
142
142
139
134
129
132
134
134
132
137
137
134
132
129
129
134
134
127
127
127
125
127
134
134
134
134
134
132
134
137
139
139
137
134
137
139
139
139
139
142
139
137
139
137
134
132
134
134
142
142
139
139
137
137
137
137
137
137
137
137
137
142
144
142
142
142
137
137
137
137
134
134
134
134
134
132
132
127
129
132
129
125
125
127
129
132
132
129
129
134
137
137
137
139
