P2
# 559 of 608 Angiograms
64 64
255
137
137
139
139
142
142
137
134
132
132
134
137
139
134
137
139
139
134
134
144
144
139
139
137
139
139
142
144
144
144
144
144
144
142
139
137
132
127
129
129
132
129
127
129
129
127
129
129
129
129
129
132
137
137
134
137
139
134
132
134
134
137
134
129
142
142
142
144
144
144
142
137
134
137
137
139
142
134
137
139
139
137
134
139
139
144
144
142
144
144
142
144
144
139
139
142
144
139
137
134
132
129
129
129
129
129
129
129
129
129
129
132
134
129
129
137
139
139
137
137
139
137
134
134
132
132
137
132
144
142
142
142
144
144
144
142
139
139
139
142
144
142
139
139
139
139
139
139
139
144
147
149
149
147
144
144
142
137
142
142
139
134
137
134
134
132
129
132
132
132
129
134
132
132
132
132
134
132
137
137
137
137
134
132
134
132
134
134
134
137
139
137
144
139
142
139
142
142
142
142
139
139
139
139
144
144
142
142
142
142
142
139
139
144
147
151
151
147
147
149
142
137
139
139
134
132
137
137
137
137
132
134
134
134
134
134
132
134
134
129
132
132
132
137
134
134
134
132
132
134
137
137
139
142
144
134
144
142
139
137
137
142
139
142
142
139
137
137
144
144
144
144
144
147
147
144
144
144
147
149
147
147
147
147
139
137
137
137
134
134
134
137
137
134
134
137
134
132
132
137
137
139
137
129
129
129
132
134
132
134
132
132
137
142
144
142
142
144
142
137
147
142
139
139
142
144
139
142
144
139
137
137
142
144
142
144
144
149
147
144
149
144
144
151
144
144
144
147
139
137
137
137
134
134
132
132
137
137
129
132
132
132
137
139
137
134
134
129
129
129
129
132
134
132
132
139
142
144
144
144
144
144
142
142
144
139
139
142
144
144
142
144
147
142
139
139
144
144
142
144
142
147
147
144
149
149
147
149
147
147
144
142
139
137
137
132
134
137
137
134
132
134
129
132
132
134
139
137
134
132
134
132
132
134
134
134
134
134
137
139
139
144
149
149
144
144
144
142
134
137
139
142
142
142
142
142
144
144
142
142
147
144
144
144
142
144
144
144
144
147
149
147
144
144
147
144
139
137
137
137
137
137
139
134
132
134
132
134
139
139
137
134
134
134
132
132
132
132
137
137
134
134
137
139
139
144
147
144
144
147
147
144
134
137
139
144
144
139
139
137
142
142
139
142
144
142
144
144
142
144
142
139
139
142
144
142
139
144
144
137
134
134
134
139
142
142
137
132
132
134
132
132
137
137
132
132
134
132
132
132
132
132
132
137
137
137
142
142
144
144
147
147
147
149
151
149
137
139
137
139
142
142
142
139
139
137
139
142
142
139
142
144
144
142
139
139
142
144
142
142
142
139
134
129
129
132
132
137
142
139
139
134
132
134
132
134
134
132
132
129
132
132
132
132
132
132
129
134
137
137
139
142
142
142
147
147
147
147
149
149
139
144
137
134
139
142
142
139
137
137
139
139
142
139
139
144
147
144
139
142
144
142
142
144
142
137
132
132
129
129
132
137
142
142
134
134
132
134
132
129
134
132
132
134
134
134
137
137
134
134
132
137
139
139
139
142
139
142
144
144
142
144
147
147
142
142
137
134
134
137
137
134
139
142
142
139
144
139
137
144
147
144
142
139
142
142
142
139
137
137
134
134
134
137
137
137
139
142
137
132
129
132
129
129
134
134
132
132
132
132
132
132
132
132
134
139
139
142
142
142
139
139
142
144
142
142
142
144
139
139
139
134
132
134
134
132
139
139
142
142
142
137
137
139
144
144
142
139
137
139
142
139
139
139
132
132
129
134
137
134
134
139
137
137
134
134
129
127
134
134
132
132
132
132
129
129
134
134
139
144
142
144
144
144
139
139
142
144
142
142
142
144
139
137
139
134
134
137
137
134
137
137
139
142
139
137
139
139
142
142
139
139
137
137
137
134
137
139
132
132
129
132
132
129
134
139
137
137
134
134
132
129
134
132
134
134
129
129
132
137
137
137
142
147
144
142
142
144
144
142
144
144
142
139
139
144
139
139
142
139
134
132
132
132
134
137
137
137
142
142
139
137
137
134
137
139
139
137
134
134
134
137
134
132
129
129
129
132
134
134
134
134
137
137
137
134
132
134
134
137
134
134
139
139
142
139
142
144
144
142
144
144
142
142
144
142
142
142
142
144
139
139
139
137
134
129
134
137
137
137
137
134
142
142
134
134
137
139
134
132
132
134
137
137
134
132
129
127
125
129
129
129
132
134
134
134
137
139
137
137
134
134
134
134
137
137
142
144
142
144
147
144
147
147
149
147
142
142
142
144
147
144
144
144
139
137
137
142
134
134
142
139
137
137
137
139
142
137
132
134
139
137
134
134
129
129
129
129
129
129
129
127
125
129
134
132
132
137
137
134
134
137
134
137
134
132
137
137
139
139
144
144
137
139
144
142
142
142
144
142
142
142
139
142
147
147
144
142
142
137
139
144
142
142
144
142
139
139
142
144
142
137
132
134
134
132
134
134
132
129
127
125
127
127
132
127
125
132
137
137
134
137
137
137
134
134
134
137
137
137
137
137
139
142
142
139
137
137
142
142
142
137
139
142
142
142
139
139
142
142
142
142
139
137
137
139
137
142
142
137
139
139
137
139
139
139
134
134
129
134
137
134
129
132
129
125
127
132
129
127
129
134
134
134
139
144
147
144
142
137
137
137
139
137
137
134
134
139
139
137
132
132
137
142
139
134
134
139
142
142
139
139
137
139
142
142
134
137
137
132
134
142
142
137
134
134
137
137
134
134
134
134
129
134
134
129
129
132
129
127
127
129
127
125
127
132
134
142
147
151
149
147
149
147
139
137
134
134
137
137
137
137
134
134
137
137
134
134
134
134
134
132
137
139
139
142
134
134
139
142
139
137
137
132
134
139
139
139
137
134
132
134
132
129
129
132
129
127
129
129
125
122
122
125
127
132
132
134
137
139
144
149
149
151
151
151
154
151
147
139
134
134
137
134
134
137
132
132
134
134
134
134
134
137
137
134
137
137
137
137
137
134
137
142
139
139
137
132
134
137
137
137
134
132
129
129
127
125
127
127
127
127
127
129
127
122
122
125
127
129
134
139
147
151
151
151
151
149
154
154
154
151
149
144
139
137
137
137
134
132
132
129
129
129
132
132
134
137
137
137
137
139
137
137
137
137
137
137
134
134
134
134
132
134
134
132
134
132
129
129
129
129
132
132
129
127
125
129
125
122
127
129
132
134
139
147
151
154
151
154
154
149
151
151
149
147
147
149
142
139
139
139
134
129
129
129
129
132
129
132
132
137
137
134
137
139
137
137
137
137
137
142
132
132
129
132
132
132
129
129
129
132
132
129
132
134
134
132
127
127
127
129
127
122
127
132
137
139
142
149
151
154
154
156
154
149
151
151
149
147
147
147
149
144
142
139
137
137
134
132
129
132
129
129
132
134
134
132
132
137
137
134
137
139
139
142
132
132
129
127
127
132
129
127
129
132
134
132
129
132
132
127
127
127
127
129
132
132
132
137
142
144
147
149
151
151
151
151
149
149
151
154
154
149
149
147
147
149
147
144
142
142
142
137
132
132
132
129
129
129
132
129
129
134
137
132
134
139
137
137
129
129
127
125
125
129
129
127
129
132
134
132
127
127
129
129
132
134
134
139
142
142
142
144
149
151
154
154
156
156
156
156
154
154
156
156
151
151
151
149
149
151
149
147
144
142
144
142
137
132
129
127
125
129
132
129
127
132
132
132
137
137
137
134
122
125
127
129
125
125
129
125
125
129
132
129
125
127
132
134
137
139
139
142
144
147
147
151
154
154
154
156
156
156
159
159
159
159
159
156
154
154
154
154
154
151
151
149
147
147
147
149
142
134
129
125
125
125
125
122
125
129
129
129
137
137
132
132
125
122
125
127
125
125
127
129
129
132
129
127
127
132
137
139
144
142
142
147
149
149
151
154
154
154
156
156
156
156
161
159
156
159
154
154
154
154
154
156
156
151
151
154
151
149
149
151
147
142
137
132
129
125
122
125
129
132
129
129
132
137
134
132
129
127
125
129
129
127
129
129
132
129
129
129
132
134
134
134
142
144
147
151
147
151
156
151
151
154
159
159
159
159
159
159
154
154
154
151
149
151
151
151
154
151
151
154
154
151
151
151
149
144
142
139
137
132
127
127
132
134
134
134
132
134
132
127
129
127
129
132
127
127
127
129
129
127
127
129
132
134
134
134
142
147
151
149
144
149
156
156
156
154
159
159
156
159
159
156
154
151
149
149
147
149
151
149
149
149
151
151
151
154
154
151
151
147
144
144
139
137
134
132
137
139
137
134
129
132
129
125
129
129
129
129
127
129
132
137
134
134
132
132
134
134
134
137
144
149
151
151
144
149
156
156
154
154
156
156
154
154
154
154
154
151
151
149
147
147
149
149
149
149
149
149
149
149
151
151
149
149
144
142
139
137
137
139
142
139
134
132
127
127
129
127
129
132
132
132
129
132
134
137
142
139
137
134
137
139
144
147
151
154
156
154
149
149
149
149
151
154
154
156
156
154
156
156
154
154
149
149
144
144
147
149
149
149
149
147
144
142
142
144
147
149
147
147
142
139
139
142
142
139
134
129
127
129
129
127
129
132
134
137
137
132
132
139
142
142
142
142
144
147
151
154
154
154
154
151
147
149
154
151
151
151
151
154
156
156
156
154
154
149
147
147
142
142
144
149
147
147
144
144
144
147
144
147
151
154
151
147
144
144
144
144
139
137
129
129
127
127
127
127
129
132
134
134
137
132
134
139
139
139
142
142
147
147
149
149
151
154
151
151
149
154
156
156
154
151
151
154
156
156
154
151
151
147
144
147
147
147
147
147
144
144
142
139
139
142
142
147
154
151
149
151
147
147
149
144
137
137
132
134
129
129
129
127
132
129
134
134
134
134
137
137
137
139
142
144
147
147
147
147
149
151
151
149
154
156
156
156
156
156
156
154
156
154
151
151
149
147
144
147
149
147
144
144
144
142
137
132
132
137
139
147
151
151
151
154
151
151
151
147
139
134
134
132
129
129
127
125
134
134
134
132
129
134
139
142
139
139
142
144
147
149
149
149
149
147
149
154
156
156
156
161
159
156
159
159
156
154
154
151
151
149
147
147
144
142
142
139
142
137
132
129
132
134
139
144
147
149
151
154
154
151
149
147
144
139
132
129
129
127
127
125
137
134
132
132
132
137
144
144
142
139
144
147
147
147
147
149
149
149
151
154
156
159
161
161
156
154
156
154
154
154
156
154
151
151
149
147
144
142
142
139
137
137
132
129
132
132
137
142
144
149
151
151
151
149
149
144
144
142
134
129
132
129
127
127
139
139
137
134
134
139
147
147
147
144
149
149
147
149
151
149
149
151
151
156
159
159
159
159
156
156
154
156
156
156
154
154
149
149
149
149
147
142
137
137
137
134
132
134
132
129
134
137
139
144
144
144
147
149
147
142
144
144
137
129
129
132
132
129
139
142
139
139
142
142
147
147
149
151
151
149
147
147
149
149
151
154
156
159
161
159
154
156
156
154
154
156
159
156
151
151
149
151
151
149
149
147
142
142
139
137
134
137
132
129
134
132
132
134
139
144
144
144
147
144
144
144
139
129
132
132
132
129
142
142
142
142
144
142
144
147
149
151
151
151
147
144
149
154
154
156
156
161
161
156
154
154
154
151
151
156
156
154
151
151
154
154
151
151
149
149
147
147
142
139
139
137
132
132
134
134
134
134
137
142
142
142
142
142
144
142
137
132
134
132
129
125
142
142
139
139
144
147
147
144
149
151
149
151
149
147
149
151
149
151
156
159
159
156
151
151
151
151
151
154
151
154
154
156
159
159
156
154
151
147
147
144
139
139
139
137
132
129
134
137
139
137
134
134
134
137
139
139
142
139
139
134
134
129
127
125
144
142
142
144
144
147
147
144
147
149
154
156
149
149
151
151
151
151
154
156
156
156
154
156
151
149
151
154
151
151
156
159
159
156
156
154
151
147
144
144
142
137
137
137
132
129
132
132
132
132
129
132
134
132
134
137
139
139
137
137
132
129
129
125
144
147
147
144
144
144
147
147
144
147
151
154
151
151
149
154
154
154
151
156
156
156
154
156
151
149
154
154
151
151
156
156
154
154
151
151
151
149
149
147
147
142
139
137
137
134
134
134
134
132
129
134
134
132
129
134
139
139
137
137
134
132
127
122
147
149
147
144
144
142
144
147
147
151
151
154
154
151
151
159
156
151
151
154
156
154
151
154
151
154
156
159
156
156
156
159
154
151
151
151
149
151
154
151
147
144
142
142
142
142
144
142
137
137
137
137
134
132
132
134
139
137
137
137
132
127
125
120
147
147
147
149
147
144
147
149
151
154
154
154
154
151
151
156
154
149
151
154
156
154
154
154
156
159
159
159
159
156
159
161
159
156
156
156
151
149
154
154
151
147
144
144
147
144
142
139
139
139
137
132
129
134
134
134
137
132
132
129
125
125
127
125
147
147
147
151
149
147
149
154
151
151
151
154
151
151
151
154
151
147
149
151
151
151
151
154
154
159
159
156
156
156
159
159
159
159
156
154
154
151
154
154
156
154
149
149
151
149
147
142
142
139
134
132
132
137
137
134
132
129
132
134
129
129
129
125
149
149
154
154
154
154
154
154
154
156
154
154
154
154
154
156
156
151
151
149
151
151
151
151
151
154
156
156
154
154
159
161
161
159
159
156
156
154
151
154
156
156
154
151
154
154
151
144
147
142
137
137
137
139
139
137
134
137
137
134
129
129
132
127
151
154
156
156
154
154
156
154
154
159
159
156
156
156
156
161
161
156
156
154
156
156
159
156
156
154
151
151
154
156
161
163
161
161
161
161
159
156
156
156
156
154
154
159
159
159
154
147
149
149
147
144
142
139
144
142
137
139
137
134
132
134
137
132
161
159
159
159
156
159
159
154
154
159
161
159
161
159
156
159
161
159
159
159
161
163
156
156
159
159
154
154
159
161
165
165
165
163
163
163
163
161
161
159
159
159
161
161
161
161
156
151
156
154
151
151
144
147
144
144
142
144
142
139
137
139
139
137
161
161
159
159
161
161
161
161
161
161
161
156
159
159
161
161
159
159
159
159
161
161
159
154
154
154
156
156
159
159
161
165
165
165
163
161
163
159
159
161
161
161
163
163
161
159
156
156
156
156
154
149
147
151
151
149
147
147
144
144
144
147
144
142
161
161
159
161
161
161
161
161
163
163
161
159
161
161
161
161
159
159
161
159
159
159
159
156
154
156
161
159
159
159
159
163
163
161
161
161
163
159
156
159
161
161
161
163
161
161
159
156
156
159
154
151
149
151
154
154
151
151
149
149
147
149
149
147
161
159
159
163
163
163
163
163
163
165
161
161
161
159
159
163
163
161
159
159
161
161
159
159
159
161
161
159
163
159
161
161
159
156
161
161
163
161
161
161
163
161
159
161
161
161
161
161
159
159
156
156
154
154
154
151
151
154
151
151
154
154
154
151
161
161
161
161
161
163
165
163
163
165
163
163
161
161
163
168
170
165
163
159
159
159
161
161
159
161
163
159
163
161
161
161
161
161
163
163
161
163
163
161
163
163
161
159
161
163
161
161
159
159
159
161
156
156
154
154
154
154
154
154
154
149
154
151
165
163
163
163
163
165
168
165
165
165
163
163
163
165
165
168
168
168
168
165
161
161
163
156
156
156
159
159
161
161
161
161
163
163
163
165
163
163
163
161
163
165
163
159
161
163
163
163
161
156
156
156
159
159
156
156
156
156
156
154
151
151
156
154
170
170
168
165
163
163
168
165
165
163
163
163
163
165
168
165
165
165
165
165
161
161
165
159
156
156
156
161
161
161
161
161
165
163
161
163
163
163
163
163
163
163
165
163
163
168
170
165
163
156
151
154
159
161
156
151
156
156
156
156
151
151
154
156
170
170
170
165
165
165
168
168
168
165
163
163
165
165
165
165
163
165
168
165
163
163
168
163
161
159
159
159
161
163
161
163
165
165
163
161
161
165
168
165
163
165
165
163
165
168
170
165
165
163
159
159
159
161
159
156
159
156
159
156
154
154
151
156
172
172
168
165
163
163
163
168
168
163
161
163
163
163
165
161
163
163
168
168
168
168
165
165
163
165
161
159
161
163
163
168
168
165
165
163
161
165
168
163
165
170
168
165
165
165
168
168
165
163
163
163
163
161
156
161
159
156
156
156
154
154
151
154
172
172
172
170
168
165
165
163
161
161
161
163
161
161
163
161
159
163
165
165
165
165
161
163
163
165
161
161
161
159
163
170
170
168
168
168
165
168
168
159
163
168
168
168
165
168
165
165
168
163
161
161
161
161
159
161
161
159
156
159
159
156
154
154
168
170
174
174
170
168
168
168
161
161
163
165
161
161
163
163
163
165
168
165
163
163
163
163
161
161
161
159
161
159
163
165
168
168
170
168
168
170
165
159
161
168
170
170
168
165
165
170
168
163
163
163
165
161
159
161
163
161
159
159
161
161
156
154
170
172
172
170
170
170
170
168
163
163
163
163
163
165
165
165
165
168
170
168
163
163
163
165
163
163
161
161
161
161
165
165
165
163
165
170
168
168
165
161
159
165
168
170
170
165
165
168
163
163
163
163
165
163
161
161
159
163
159
156
159
161
156
154
174
172
172
170
170
172
172
170
168
168
165
163
163
163
163
165
168
165
168
168
163
161
163
161
161
159
159
159
161
161
163
161
163
161
161
168
165
168
165
165
163
168
168
172
172
165
165
165
161
163
165
165
165
165
165
165
163
161
159
156
159
161
163
161
174
172
170
172
174
174
172
172
172
170
168
165
168
163
163
165
170
168
165
165
165
163
163
161
161
161
159
159
161
159
161
159
163
163
163
168
165
168
168
168
168
168
168
172
172
168
168
165
165
165
170
168
168
165
163
165
165
161
159
156
159
163
165
163
176
172
174
174
176
174
170
174
174
172
170
168
165
163
165
168
165
165
165
163
163
163
161
163
161
163
161
159
159
159
161
161
161
163
165
170
172
170
168
168
165
168
170
172
172
170
170
168
168
170
170
170
170
168
165
165
165
163
161
159
161
165
165
163
172
174
174
174
170
170
170
174
172
172
170
168
165
165
165
168
165
165
168
163
163
165
165
165
163
163
161
161
159
163
163
165
165
165
165
168
172
170
168
168
170
170
170
168
172
170
165
165
168
170
170
170
168
168
168
168
168
165
165
163
163
163
165
161
