P2
# 562 of 608 Angiograms
64 64
255
89
89
87
89
87
89
91
87
89
91
87
87
93
95
93
91
91
93
93
93
95
95
95
95
96
95
93
93
93
96
98
96
98
98
95
98
98
95
95
98
96
98
100
102
104
104
102
102
104
106
102
104
102
102
104
106
104
104
104
104
104
106
106
106
91
89
87
89
87
91
91
91
87
87
86
89
91
93
89
93
91
89
91
93
93
95
96
96
95
91
93
93
95
96
96
96
95
95
93
96
98
96
95
96
98
96
96
100
104
102
102
104
106
106
104
102
104
104
104
104
102
104
106
104
104
104
104
106
87
89
91
89
89
91
91
91
91
89
87
89
91
89
91
93
91
89
89
91
95
96
96
95
96
95
95
96
96
96
96
95
93
95
93
95
96
96
96
95
96
96
96
96
98
100
102
102
106
108
106
106
106
104
102
102
100
100
102
104
104
104
104
104
89
89
87
87
89
87
91
91
93
91
89
91
91
89
91
93
91
89
89
91
93
95
95
93
95
96
95
95
95
93
91
93
95
98
96
96
96
96
96
96
95
96
93
93
95
100
102
102
106
106
104
104
104
102
100
102
100
98
100
104
104
104
102
98
91
91
89
86
89
89
91
93
93
91
91
91
95
93
91
91
91
89
91
89
93
93
91
93
93
93
93
89
93
93
93
95
96
96
98
96
93
96
93
93
93
95
95
95
96
98
100
102
102
104
102
104
104
102
100
100
98
100
100
100
104
102
100
98
93
93
89
91
89
89
89
93
91
89
93
95
93
91
91
91
93
89
86
91
93
91
89
91
93
93
93
93
93
93
91
91
93
93
96
95
95
95
95
91
91
93
95
100
100
95
98
100
102
106
104
102
102
102
98
96
100
100
100
100
98
100
100
100
89
91
93
91
89
89
93
95
91
89
93
93
91
93
89
91
91
93
89
91
91
91
91
91
95
93
93
91
91
93
93
95
93
93
96
95
93
95
91
93
91
93
93
96
96
98
100
100
100
102
104
104
104
102
100
100
102
102
100
98
100
100
100
100
91
93
93
93
93
89
93
93
91
91
91
93
93
93
91
89
91
93
93
95
93
91
93
91
91
93
93
93
93
89
91
93
93
93
95
95
93
91
89
91
95
93
93
96
98
96
96
96
96
98
104
106
104
102
104
100
100
100
98
98
100
98
96
100
89
91
91
93
93
95
96
93
91
89
89
91
93
91
93
91
89
91
93
95
93
91
91
91
91
87
89
91
93
95
91
95
95
91
93
95
93
89
89
91
95
93
93
93
96
96
96
98
98
96
98
102
102
104
104
98
98
102
96
98
98
100
96
100
91
91
89
89
93
95
98
93
91
91
89
91
91
91
91
91
89
89
93
95
95
91
91
93
91
89
93
93
89
91
91
93
93
93
91
89
89
89
89
93
95
95
91
95
100
100
98
98
98
98
96
96
100
102
102
98
98
100
100
100
98
98
102
98
91
93
93
91
95
96
96
91
93
91
89
93
93
95
91
91
91
89
91
95
93
89
93
95
93
93
95
93
91
91
91
91
93
93
89
91
91
91
91
93
93
91
91
95
98
98
96
95
98
98
96
98
98
98
102
100
102
100
102
98
98
102
104
98
93
93
91
93
93
91
91
91
93
93
95
98
95
93
93
93
95
93
95
93
89
89
93
93
95
93
91
89
91
91
91
91
93
93
87
93
95
93
91
93
93
91
93
96
96
95
96
96
100
100
98
98
98
96
98
100
102
100
98
96
98
100
98
96
93
91
91
91
89
89
91
93
95
93
93
95
95
93
93
95
96
96
95
93
91
93
96
95
95
93
89
89
87
89
93
95
95
93
89
89
91
93
93
95
96
93
91
96
98
96
98
96
100
102
100
98
96
96
95
98
98
100
98
96
98
98
98
98
96
93
91
89
91
95
93
93
93
91
91
93
96
95
93
95
98
96
95
93
93
95
95
93
91
91
93
93
93
91
93
93
93
95
93
91
89
91
91
96
93
95
93
93
96
96
98
96
100
102
98
96
96
96
95
95
95
98
98
96
100
100
100
96
95
95
91
89
89
93
91
91
93
93
95
93
93
93
93
95
96
96
96
93
95
93
91
89
89
91
91
93
95
91
93
93
91
91
93
93
91
91
93
91
93
93
91
91
95
96
98
96
98
96
95
93
93
93
95
95
93
98
98
98
102
100
98
93
95
95
91
93
91
89
93
91
95
96
93
93
91
95
95
96
96
96
95
95
95
91
91
89
91
91
91
93
95
91
91
93
93
95
93
93
93
93
91
91
95
93
93
95
95
93
96
95
98
100
96
91
95
93
95
95
93
96
96
98
100
98
95
93
93
93
91
91
93
93
96
95
96
96
96
96
93
96
96
95
93
95
95
95
96
93
91
91
93
91
93
91
93
91
89
89
93
95
93
93
93
91
93
93
95
93
95
93
95
95
95
96
98
100
95
93
96
95
96
95
93
95
95
95
96
98
95
91
91
91
95
91
89
89
93
96
93
91
96
96
95
95
96
95
91
95
95
95
96
95
93
91
93
91
93
91
91
91
91
91
91
93
93
93
93
93
95
95
95
93
95
95
95
96
98
98
95
98
100
98
98
96
95
91
91
93
93
95
95
96
96
93
95
95
96
93
91
89
91
93
93
95
95
95
93
89
93
95
93
93
95
95
96
91
93
93
91
95
93
93
91
87
89
91
91
91
93
93
93
95
93
93
95
91
93
96
95
93
96
95
93
98
98
100
98
96
95
93
91
89
89
95
95
93
96
95
93
93
95
91
89
91
89
91
95
95
96
93
93
91
93
95
95
95
96
95
96
95
95
91
91
93
91
93
95
93
91
91
93
95
93
93
91
91
91
93
93
91
93
96
96
96
93
93
96
96
98
100
98
96
95
95
91
91
91
93
93
93
93
93
93
91
93
93
93
93
93
95
93
95
93
95
93
93
95
93
91
95
98
96
95
95
95
93
96
96
93
91
93
91
95
96
95
95
95
89
89
89
93
93
93
91
95
98
98
98
96
96
96
96
95
98
98
96
96
93
91
93
95
93
89
91
89
91
96
95
93
93
91
93
95
95
95
93
95
96
93
93
95
93
95
95
96
96
96
96
95
93
93
95
93
91
89
91
93
91
91
93
91
91
89
89
93
93
93
95
98
98
96
96
95
96
96
98
95
95
98
96
95
91
91
91
93
91
89
89
87
84
95
96
93
93
96
93
93
93
95
91
95
93
91
91
95
95
96
98
96
95
95
93
93
95
93
93
91
91
91
93
93
91
89
91
91
91
89
89
91
91
93
93
96
96
93
96
98
96
96
98
95
95
96
95
95
93
93
91
91
91
87
87
89
87
93
96
93
95
96
93
93
91
91
91
93
91
93
93
95
95
95
93
95
95
93
89
91
91
95
95
93
91
91
89
91
93
93
91
93
91
91
91
89
89
91
93
93
93
91
96
95
95
96
98
96
96
95
89
93
93
93
91
91
91
86
86
89
93
95
95
93
91
93
96
95
91
89
95
93
93
96
95
93
93
93
91
96
100
95
91
91
93
89
91
89
91
91
91
91
93
93
91
91
89
87
93
93
93
95
93
95
93
91
93
95
96
95
98
98
98
95
91
91
95
93
89
87
87
86
86
87
87
95
93
96
96
95
93
93
91
93
98
95
96
96
93
91
93
95
95
95
96
96
91
95
93
87
91
93
93
93
93
95
93
91
91
91
87
93
91
91
93
95
93
95
93
93
93
95
95
96
95
96
96
95
95
93
95
93
87
87
87
84
84
86
86
95
93
95
95
95
95
91
91
93
95
95
95
93
95
93
93
93
95
95
95
96
93
93
93
93
93
95
95
93
95
95
95
91
91
93
91
93
93
89
91
91
91
93
95
96
95
95
96
96
95
96
96
95
96
93
93
89
87
89
84
86
84
86
86
95
93
93
96
95
93
93
93
93
93
93
89
93
93
93
93
93
93
95
95
93
95
93
93
93
93
93
93
95
95
93
95
96
95
89
87
89
89
91
91
91
93
93
95
98
98
96
96
98
96
95
96
96
96
93
91
89
87
86
87
87
86
84
84
95
93
95
95
95
95
95
95
93
95
93
91
93
95
93
95
95
93
95
93
91
93
95
93
93
93
95
93
91
93
93
95
93
91
89
89
91
91
91
91
95
95
96
95
96
98
95
96
98
100
96
96
96
95
96
93
89
89
91
91
86
84
84
84
95
96
96
96
95
95
95
95
93
95
95
93
93
93
93
95
95
95
95
91
93
93
93
95
95
96
96
93
95
95
93
95
93
91
93
93
95
91
91
91
95
95
96
95
95
96
93
95
96
98
96
96
96
96
96
95
91
87
89
89
86
86
86
84
96
98
93
96
93
96
98
96
98
96
95
93
93
95
95
93
95
96
95
93
93
93
93
93
96
96
95
91
95
96
95
95
95
95
91
93
91
89
87
91
95
95
93
95
95
95
95
95
96
96
98
98
95
96
93
91
89
87
91
89
87
87
87
87
95
95
93
95
95
96
98
96
96
95
95
93
93
95
96
95
95
96
93
91
91
93
95
93
95
96
96
95
95
95
91
96
96
93
91
93
93
93
91
93
95
93
93
93
93
95
96
98
98
98
98
98
95
95
95
91
87
89
87
87
87
91
89
87
93
93
95
96
96
95
93
95
95
91
93
93
95
95
96
95
93
93
91
89
91
95
93
93
91
93
93
93
95
96
93
93
95
95
91
91
93
96
96
93
89
93
95
96
95
93
93
96
100
102
98
96
96
95
91
93
89
86
89
89
87
87
87
87
96
93
95
96
95
93
93
95
95
93
96
96
95
95
95
95
95
93
91
93
89
93
93
91
93
91
93
93
95
95
93
93
95
93
93
93
91
93
93
91
91
95
95
95
93
93
95
95
100
102
96
98
98
95
91
91
89
87
89
89
87
86
87
87
100
96
95
96
96
98
98
98
98
98
98
98
95
91
93
93
95
95
93
93
91
89
93
91
93
93
91
91
95
95
93
93
91
95
93
95
95
95
96
95
96
96
93
93
93
95
96
96
96
98
96
98
96
95
93
89
87
89
89
87
86
87
87
86
98
96
95
98
96
100
100
102
102
100
98
96
95
93
95
93
93
93
95
93
91
93
91
91
93
93
91
91
91
93
91
91
93
96
93
95
96
98
96
96
96
96
96
96
98
96
98
100
100
98
96
95
95
95
93
89
89
89
91
87
86
87
87
86
96
96
96
96
96
98
96
100
102
96
96
93
93
93
93
93
95
95
95
93
91
93
91
91
91
93
93
93
91
91
91
93
95
98
96
95
93
96
95
91
95
96
98
96
96
95
96
96
96
98
98
95
93
93
93
89
89
87
89
87
84
87
87
86
95
96
98
96
95
96
98
100
98
95
95
93
95
93
93
95
95
93
95
95
93
96
96
93
93
93
93
91
91
93
93
89
91
95
96
95
91
95
98
95
95
93
95
95
95
93
95
96
96
98
100
93
91
93
91
87
87
84
86
86
87
87
87
84
93
95
98
96
96
95
98
98
96
95
95
95
96
95
95
95
93
95
93
91
91
95
93
93
91
93
95
91
89
91
93
91
93
93
95
96
93
95
95
93
93
95
93
91
95
95
96
95
98
98
96
93
93
91
89
89
89
86
84
86
87
87
87
86
96
96
96
96
95
96
96
95
91
93
98
96
98
96
95
95
91
93
95
93
93
91
91
91
91
93
91
91
93
91
91
91
91
91
95
98
98
96
96
96
93
93
93
96
96
96
95
96
96
98
96
95
93
91
89
91
89
89
87
86
86
86
87
87
98
100
98
96
98
96
96
98
96
96
96
95
96
93
95
93
91
89
91
93
91
93
93
95
93
91
89
91
95
93
93
93
93
93
95
96
100
98
98
96
95
93
91
95
95
96
96
96
96
96
96
95
93
93
91
89
87
87
89
87
86
84
86
84
98
100
96
95
98
96
96
98
98
96
96
96
100
98
95
95
93
91
89
93
93
95
95
93
91
91
91
93
95
98
96
95
93
91
93
95
95
96
96
95
93
93
95
96
93
95
96
96
95
96
95
93
91
95
93
89
89
89
87
89
87
86
86
84
95
96
95
93
96
98
96
96
98
100
98
96
95
96
96
98
95
93
93
93
93
93
93
93
93
93
95
95
95
96
95
95
95
93
93
95
95
95
96
96
91
93
91
95
95
95
96
96
95
98
95
93
93
95
93
91
89
87
89
87
84
87
87
87
96
95
96
96
96
96
96
95
96
98
98
96
96
95
93
95
95
95
93
93
91
93
93
95
95
96
98
96
96
95
95
96
98
96
93
93
95
95
96
93
93
91
95
98
98
96
96
96
96
96
95
91
95
95
95
93
93
89
87
84
81
86
87
86
96
95
96
98
96
100
98
98
98
95
100
98
96
95
93
95
96
98
95
93
93
95
95
95
93
96
95
93
96
95
96
95
96
98
93
93
93
95
95
93
91
91
93
96
96
98
98
96
98
95
93
89
91
91
93
91
93
91
87
87
84
89
89
84
96
95
95
96
96
98
100
100
98
95
96
96
95
95
93
91
95
95
95
96
95
96
95
95
95
95
95
95
95
96
100
96
96
96
96
98
98
96
95
95
91
91
93
96
95
95
93
95
96
96
95
95
93
89
93
91
93
91
89
87
87
91
86
82
95
96
95
95
95
98
98
98
96
96
96
95
96
95
93
91
96
96
96
96
95
96
95
95
95
96
95
96
95
95
96
95
96
95
98
98
93
95
95
93
95
93
91
95
91
91
91
93
95
96
93
93
96
93
93
89
87
86
87
91
87
86
84
81
93
95
93
95
96
98
98
98
96
95
96
98
95
95
95
91
93
95
96
96
95
96
95
93
95
95
95
95
95
95
95
95
95
93
95
95
91
95
95
95
98
95
93
95
91
91
89
93
96
95
93
93
95
91
93
86
86
87
87
89
86
84
82
84
95
95
93
95
96
96
98
98
96
96
95
98
96
96
96
93
95
95
95
96
95
95
95
93
95
96
96
95
95
95
91
91
93
95
93
98
96
95
93
95
98
95
93
95
91
93
93
93
96
95
95
96
96
93
91
87
84
87
86
87
86
86
87
87
93
93
95
95
95
95
93
95
96
98
100
102
98
95
95
93
95
96
95
96
93
95
96
96
96
96
95
93
91
93
93
93
95
96
98
96
96
98
95
98
96
96
93
95
95
93
93
95
96
96
96
98
98
95
91
89
87
87
89
89
91
91
86
86
96
95
95
95
95
98
96
96
93
96
98
98
96
96
95
93
95
96
96
100
98
98
98
96
96
96
95
93
91
95
96
95
96
96
96
98
98
95
96
96
93
96
95
96
96
93
87
89
95
96
95
93
91
91
91
89
87
86
87
93
91
87
87
87
96
96
98
96
95
96
98
96
96
96
95
93
95
96
98
96
100
98
98
100
102
102
100
96
98
98
96
96
95
96
100
102
98
96
93
100
100
98
98
95
93
95
95
96
95
93
86
89
96
98
95
91
89
89
89
89
87
86
87
91
89
89
89
86
96
96
98
98
95
96
95
96
96
95
93
95
93
96
98
98
98
100
100
100
102
100
96
96
96
95
96
98
96
96
98
100
98
98
95
96
100
100
102
96
93
95
96
93
93
91
87
93
98
95
95
89
91
89
91
91
87
87
87
89
87
87
86
86
95
96
96
95
95
95
95
96
95
96
95
96
95
95
96
96
100
100
98
98
98
100
96
98
98
96
93
95
96
98
98
95
96
96
96
96
98
98
100
98
95
96
95
91
91
91
91
95
96
95
93
93
93
91
91
89
89
87
86
87
86
84
86
84
96
96
93
95
96
96
95
95
98
96
95
98
96
96
96
96
100
98
96
95
98
102
98
100
98
96
95
96
95
96
98
96
95
96
95
98
96
100
100
98
95
95
93
91
93
93
95
93
93
96
93
93
91
93
91
89
87
87
87
87
86
86
84
86
93
93
93
95
96
98
95
96
98
98
98
96
98
98
98
102
100
95
96
96
98
98
96
96
96
96
96
96
96
98
98
98
96
96
96
98
98
98
98
95
96
95
93
91
93
96
98
98
98
98
98
96
93
93
91
87
86
87
86
87
87
86
86
87
96
95
93
93
95
98
98
98
96
100
96
95
98
98
98
100
102
98
96
95
93
93
93
96
98
98
98
96
96
98
98
96
98
98
98
96
96
95
95
91
93
95
93
89
91
93
95
98
98
100
98
93
93
91
91
91
89
86
86
86
86
86
87
91
98
96
93
95
96
100
100
100
100
95
95
93
96
96
96
96
98
98
96
93
93
91
95
98
100
100
96
96
98
102
98
96
98
96
100
98
98
95
95
95
93
93
93
93
91
93
93
95
96
96
98
95
95
91
95
91
91
89
89
87
87
89
89
89
98
98
98
96
98
100
100
102
102
96
95
96
98
96
98
98
98
95
96
96
95
95
96
98
98
98
95
95
96
100
98
98
98
95
96
96
96
98
98
93
93
89
93
91
93
93
95
96
96
98
98
96
93
91
95
91
89
89
91
87
86
87
86
86
98
95
96
98
98
96
98
98
95
96
100
100
98
96
98
98
102
98
96
96
98
100
100
98
95
96
95
95
96
96
96
96
95
95
96
96
100
98
100
96
91
91
91
93
96
95
96
96
96
98
96
96
98
93
91
91
87
89
91
89
87
84
87
86
96
95
95
96
96
96
96
96
95
96
98
100
98
98
98
98
100
98
98
96
96
98
98
96
96
96
96
96
96
96
98
98
98
96
98
98
96
98
96
95
91
93
95
96
96
95
96
93
96
96
96
95
95
93
91
91
86
87
89
87
87
84
86
89
98
95
98
100
96
95
95
95
91
91
95
98
98
98
98
96
95
96
100
96
95
95
95
95
95
95
95
95
96
96
98
102
98
98
102
98
96
96
95
91
91
93
93
93
95
93
93
96
98
98
96
95
93
96
93
89
89
89
89
87
87
87
86
87
100
96
98
104
100
95
95
91
93
93
95
95
95
96
96
96
95
95
95
95
98
98
95
96
98
96
96
96
95
98
98
100
98
96
100
98
95
95
95
91
93
95
95
93
93
91
95
98
100
98
96
95
95
95
95
93
89
91
91
87
87
87
89
84
98
96
96
100
100
96
96
95
95
93
95
95
96
95
95
95
96
96
95
96
96
96
96
96
96
95
96
96
98
100
98
98
96
100
100
98
95
93
93
93
95
95
95
93
91
91
95
98
98
98
98
93
96
96
95
93
93
91
91
91
89
86
86
82
