P2
# 563 of 608 Angiograms
64 64
255
86
82
82
79
81
86
91
93
93
95
98
95
95
91
91
93
91
91
89
86
89
91
91
93
93
93
96
98
98
96
96
96
95
96
96
98
98
98
96
98
98
102
100
98
95
96
95
98
98
100
104
106
106
108
110
110
106
104
106
108
104
102
100
100
84
84
81
77
81
87
93
96
96
96
96
93
93
91
91
91
93
91
87
91
89
89
89
89
89
93
95
95
96
93
93
95
95
95
98
96
96
98
98
98
98
102
98
93
91
93
96
98
100
102
102
104
106
108
110
108
108
108
104
106
110
106
104
102
86
81
79
79
82
87
91
93
95
93
93
91
93
93
93
93
91
93
91
91
87
86
89
89
91
93
96
98
98
93
93
93
95
95
95
96
96
95
98
100
98
98
100
95
95
98
100
100
100
100
102
106
108
106
108
108
106
108
110
108
108
106
104
104
86
81
81
79
81
86
89
93
95
91
91
93
91
91
91
93
91
93
91
89
86
86
91
91
91
93
91
98
98
91
93
96
96
96
96
98
98
96
98
100
96
96
98
98
98
98
98
98
102
100
102
104
104
104
106
108
108
108
108
110
108
108
102
102
86
82
81
79
81
84
91
96
96
93
93
93
91
87
89
95
96
96
93
89
89
89
91
91
91
95
93
93
93
96
96
95
98
96
96
96
100
96
96
98
96
96
96
98
98
100
98
98
102
102
102
102
102
106
108
108
108
108
108
106
106
104
106
102
87
84
79
76
77
82
89
96
93
93
93
93
91
91
93
95
95
96
91
89
91
91
89
89
91
93
91
91
93
98
96
95
96
98
96
98
98
98
96
98
98
96
95
98
100
98
100
100
100
100
100
104
104
108
108
106
106
108
104
108
108
102
102
100
89
84
82
77
76
84
91
95
95
96
96
93
93
93
93
89
93
93
89
87
93
93
93
91
91
91
91
91
93
95
96
95
96
98
96
95
95
102
100
98
98
96
98
96
98
96
100
98
96
100
100
104
104
106
106
108
108
110
108
108
106
104
102
100
86
82
84
81
77
84
91
98
96
95
95
93
91
91
91
91
91
91
91
87
89
93
89
89
86
89
89
93
95
96
96
93
95
95
95
96
98
100
98
100
100
96
98
98
98
98
100
102
100
100
102
104
104
104
104
108
108
108
108
108
106
104
102
100
86
84
81
81
77
82
89
95
95
95
95
93
91
91
91
91
91
91
91
89
89
91
89
89
91
89
91
93
91
93
96
95
95
95
95
96
98
98
96
96
98
96
98
98
96
98
98
98
102
100
100
100
106
108
104
106
106
108
106
104
102
104
100
100
86
84
79
77
79
82
86
93
93
93
95
93
95
93
91
89
89
89
89
91
93
91
91
93
91
87
91
91
89
91
95
93
96
96
98
98
96
96
98
98
100
96
98
98
98
100
100
96
98
98
100
100
102
104
104
104
106
110
106
102
100
102
98
100
84
82
81
81
79
81
86
91
95
95
93
91
95
93
89
89
89
87
89
91
93
91
91
93
91
89
93
91
93
93
93
95
96
100
102
102
100
96
95
96
98
102
100
98
96
98
98
98
98
100
98
96
100
102
106
106
104
108
108
104
100
104
100
100
82
79
77
79
77
81
86
91
93
95
93
96
96
93
91
91
87
89
89
91
93
93
95
95
93
91
91
93
93
91
95
95
96
98
100
102
102
98
96
98
98
100
98
96
95
96
98
102
102
102
100
96
100
104
102
102
106
106
102
104
100
100
100
102
81
76
72
74
76
79
87
93
93
89
91
95
93
91
87
87
89
86
84
89
89
93
91
89
89
87
91
91
93
93
95
93
93
95
98
100
98
100
98
98
98
98
98
98
96
100
102
100
100
100
98
98
100
102
100
102
106
106
104
100
96
98
98
98
77
76
72
71
72
79
86
93
93
91
89
91
91
89
89
87
91
87
86
87
89
91
89
87
89
91
89
91
93
91
91
91
93
95
98
96
96
98
98
96
96
98
100
98
96
98
100
98
98
98
98
98
98
98
98
98
102
104
102
100
98
98
96
96
79
76
71
71
71
76
84
93
93
91
87
89
89
89
89
87
87
86
84
86
86
87
87
86
87
89
89
89
91
89
87
89
89
95
100
98
96
98
96
93
93
95
96
95
96
95
96
96
96
95
96
95
96
96
95
96
102
102
98
96
98
98
95
95
79
77
72
69
71
74
84
93
91
91
91
91
87
91
91
89
87
87
84
84
86
86
89
89
87
89
86
84
89
87
89
93
93
93
95
95
96
95
91
89
89
93
93
93
95
93
95
95
95
95
96
95
93
93
95
96
96
100
96
96
95
95
93
93
79
77
72
72
71
76
84
93
93
95
91
93
91
93
93
89
89
89
86
82
86
89
91
89
89
87
89
91
89
87
89
93
93
93
93
93
93
91
91
91
89
93
93
93
91
93
91
93
93
95
95
95
89
93
95
98
98
100
96
96
95
93
95
93
79
79
72
74
72
79
86
93
95
95
93
93
93
93
89
86
86
89
87
86
87
87
89
87
89
87
91
93
91
89
93
95
93
91
93
91
91
95
95
91
89
91
93
91
91
89
91
91
93
91
91
93
91
91
91
95
95
96
96
95
93
95
93
89
79
76
74
74
74
81
87
95
96
93
89
91
91
91
89
87
89
86
86
87
89
89
89
89
86
87
93
93
93
91
91
93
93
95
93
93
95
93
93
91
93
91
93
91
93
91
89
91
91
91
91
91
86
87
91
93
91
93
95
95
93
91
87
87
77
74
72
74
76
81
89
95
96
95
95
91
91
91
91
89
89
87
87
87
89
89
91
89
91
91
93
91
91
91
91
95
93
95
93
91
89
91
93
89
91
95
91
93
93
91
91
91
89
91
89
89
89
87
89
93
95
95
95
93
91
89
87
87
79
76
74
74
76
81
89
95
95
96
93
89
89
89
87
87
87
87
86
89
87
87
91
91
89
87
89
91
89
89
89
93
93
93
93
89
87
93
93
89
91
93
91
91
91
89
89
89
91
91
89
87
89
87
87
93
95
95
91
89
89
89
87
87
81
79
74
72
74
79
86
91
95
93
89
89
89
89
87
87
89
87
89
91
89
89
91
89
89
89
87
87
87
89
89
91
91
89
93
91
89
91
93
95
93
93
93
89
89
87
87
84
86
87
89
87
91
93
93
93
91
91
91
89
87
89
87
87
77
77
76
74
74
79
86
89
93
96
93
89
91
91
89
89
91
91
91
89
89
91
91
87
89
87
87
89
89
87
87
87
89
87
89
89
91
93
96
95
93
95
93
89
87
86
87
86
87
89
87
89
93
95
93
91
89
89
89
89
89
89
89
89
79
74
72
71
71
76
84
89
95
96
96
93
93
93
91
89
89
87
89
89
91
95
91
87
89
86
86
89
87
87
89
91
93
89
89
89
91
91
95
93
93
93
93
91
86
87
89
86
87
89
89
91
93
91
89
89
89
89
87
89
93
89
89
89
79
76
71
71
72
74
82
89
95
96
96
96
95
93
91
89
87
89
89
89
89
89
87
89
86
84
84
86
86
86
89
91
89
89
89
91
93
93
93
93
91
91
91
89
86
87
89
87
86
87
89
89
91
95
91
87
89
89
87
89
91
91
87
87
79
74
71
69
72
74
82
86
87
95
96
93
91
91
93
93
89
93
93
91
89
91
86
87
91
89
87
87
87
89
91
89
89
87
89
89
95
91
95
96
91
89
89
84
86
86
87
86
84
86
86
89
89
95
87
86
87
86
84
84
87
89
86
87
79
76
72
71
72
74
81
86
89
91
91
89
91
95
93
89
89
95
93
91
89
89
87
89
93
89
86
89
89
93
91
95
95
89
89
91
95
93
89
93
95
89
86
87
87
87
87
86
86
87
89
87
87
87
86
86
87
87
86
87
87
93
89
87
81
76
72
72
71
71
79
84
91
91
89
89
91
95
93
91
95
93
93
93
93
89
89
87
91
89
86
89
87
89
91
96
95
91
89
87
89
91
87
89
91
87
87
87
87
86
86
87
87
87
91
86
86
86
84
86
86
87
86
89
87
93
93
89
81
76
71
74
71
72
79
84
89
91
89
89
89
95
95
95
95
95
96
95
91
89
89
89
91
89
87
87
86
87
91
95
95
95
89
87
89
91
89
91
91
91
91
87
87
86
86
86
86
87
91
86
84
84
86
86
86
86
84
89
91
91
91
87
79
74
72
74
72
72
77
81
84
87
91
89
91
91
91
95
95
93
95
91
89
89
91
91
93
91
89
89
87
89
89
95
96
93
91
91
91
91
91
89
89
91
91
87
87
86
87
89
87
89
91
87
84
86
89
87
86
87
87
87
91
95
87
84
82
76
72
72
72
74
76
79
82
89
89
89
91
91
89
91
93
89
91
91
89
89
91
93
89
91
91
91
91
93
93
95
96
93
93
91
89
91
89
87
89
89
89
89
87
87
86
87
87
87
89
89
86
82
86
86
87
91
87
87
93
93
87
87
84
77
72
72
72
72
74
77
82
87
89
91
93
93
91
95
93
91
91
89
93
91
87
89
89
91
89
91
91
91
91
93
95
91
91
91
89
93
91
89
91
89
89
87
89
87
86
86
87
87
89
91
87
86
86
87
89
87
87
91
93
93
91
91
84
79
72
71
71
72
74
79
84
87
89
89
89
93
93
91
91
87
89
91
89
87
87
89
91
91
91
89
89
91
93
91
93
89
91
91
89
89
91
91
91
87
86
87
89
89
89
87
87
87
87
89
89
89
89
89
89
87
87
91
87
87
87
89
79
77
74
72
71
69
72
79
86
89
91
89
89
91
91
89
89
89
93
89
87
89
91
89
91
89
89
87
89
91
95
93
91
91
91
89
89
91
91
89
89
86
86
89
91
93
91
87
86
89
87
87
87
89
89
87
86
86
86
86
86
87
87
87
86
79
77
72
71
72
74
77
84
87
89
87
86
91
89
89
89
91
93
93
87
89
91
91
89
89
91
91
91
89
91
93
93
93
91
87
89
91
91
91
89
87
89
91
93
91
89
87
87
87
86
86
87
87
89
87
87
89
84
84
87
93
91
87
86
86
77
72
72
74
76
79
82
84
87
86
89
91
91
93
91
93
91
93
93
93
93
93
91
91
96
95
93
91
91
93
93
93
89
89
87
91
91
93
89
89
91
91
91
91
87
86
84
86
86
86
89
89
91
87
91
89
86
87
89
91
93
91
86
84
79
74
72
74
76
79
82
82
84
84
89
89
93
93
91
91
89
89
89
91
93
93
93
91
95
96
95
91
89
93
95
93
89
89
91
89
89
91
87
89
89
89
87
89
89
89
86
86
89
87
89
89
91
91
91
87
86
89
86
87
91
93
87
84
81
76
72
72
74
77
82
84
84
87
87
86
91
93
91
93
91
91
91
91
93
89
89
91
95
96
96
91
89
95
95
89
89
89
89
86
86
86
87
89
86
87
87
87
89
91
91
89
91
89
87
89
89
87
87
86
86
89
87
89
91
91
87
82
82
77
76
74
72
77
82
84
86
87
87
89
89
87
89
93
89
89
89
89
91
87
89
91
95
95
95
91
91
93
93
89
89
89
87
87
89
87
86
87
87
87
89
89
91
89
91
89
91
89
89
87
86
87
89
87
87
89
89
87
89
91
87
86
82
81
77
76
76
76
81
82
84
84
86
91
91
89
89
93
91
91
91
91
91
91
93
91
93
93
93
93
93
93
93
91
87
86
87
89
91
87
89
87
86
87
89
87
87
86
87
91
93
89
91
89
87
86
89
87
89
91
91
89
91
91
87
87
86
81
79
76
76
76
81
82
84
82
87
93
91
91
91
91
93
91
91
93
91
93
95
93
93
93
95
95
93
91
91
89
87
87
89
89
89
87
87
87
84
84
87
87
84
87
89
91
89
86
89
93
91
86
89
87
87
91
91
91
93
89
82
86
86
84
81
76
77
76
77
81
84
84
87
89
89
89
91
93
93
93
95
93
91
95
93
91
91
91
93
91
93
93
89
87
89
89
91
91
87
89
89
87
86
84
86
86
86
86
87
89
87
86
87
89
89
87
87
89
87
87
91
89
89
84
82
86
89
89
84
81
77
77
79
79
84
87
87
86
91
89
93
93
93
93
93
93
91
95
95
93
91
89
91
91
89
91
93
89
87
89
93
89
91
89
87
87
87
86
87
84
84
82
84
86
84
86
84
89
87
87
86
86
89
89
93
89
86
86
82
84
89
93
87
84
82
79
79
81
82
86
87
87
89
91
91
89
93
89
91
93
95
96
98
98
96
89
91
93
93
91
91
91
91
91
89
87
87
87
89
89
86
86
86
86
84
82
84
87
89
87
84
86
86
86
89
86
91
93
93
89
89
89
82
87
91
95
89
84
84
81
76
77
81
82
86
86
89
93
89
89
87
87
89
91
96
98
95
95
95
91
89
91
93
89
91
91
89
89
87
89
91
89
91
87
86
84
87
84
82
84
84
86
84
86
86
86
84
82
81
87
91
91
93
87
91
93
82
89
93
91
89
84
82
79
76
77
79
77
81
84
89
89
91
89
87
87
89
91
95
93
95
93
91
89
89
89
91
91
89
91
91
91
89
93
91
89
87
82
81
82
84
82
82
84
86
84
82
84
86
86
87
84
84
89
91
89
91
89
89
91
84
87
93
91
91
87
84
82
77
77
79
79
77
84
87
87
89
89
87
87
89
89
93
91
91
93
93
91
91
87
89
91
91
91
91
89
91
87
89
89
86
84
82
87
86
81
84
86
86
86
86
84
84
86
87
84
84
87
87
87
87
89
89
89
87
89
93
91
87
89
84
82
79
77
79
79
79
82
87
91
91
89
89
89
89
93
95
93
93
93
93
91
91
91
91
93
95
95
91
91
91
89
87
84
86
87
89
89
89
86
86
86
84
86
84
87
82
84
87
82
81
86
84
86
86
89
86
84
87
89
93
91
89
91
86
82
79
76
77
81
81
84
86
91
89
86
89
91
93
95
96
98
96
93
93
89
89
91
93
93
96
93
89
89
91
91
87
84
84
87
87
87
89
86
86
86
84
86
82
82
84
84
86
84
82
86
86
86
86
89
87
82
87
91
91
89
91
93
87
86
81
77
81
82
81
81
82
87
89
89
91
95
95
95
93
95
96
93
93
93
93
93
93
93
96
95
93
91
89
93
91
89
89
89
91
89
87
84
84
86
84
86
84
86
87
87
89
86
84
84
84
84
84
87
89
87
87
89
89
89
91
93
87
84
82
81
79
82
81
82
84
86
86
89
93
96
95
91
89
89
95
93
91
87
93
95
95
93
93
93
91
91
93
95
96
95
91
93
87
86
89
87
84
86
86
87
87
89
87
89
89
86
86
87
84
87
86
87
89
87
89
89
87
89
89
91
89
87
84
82
81
82
81
82
84
84
87
86
89
91
93
91
91
87
89
89
89
87
93
95
93
95
95
93
91
89
93
93
93
93
93
93
89
87
87
87
86
86
86
86
82
87
87
86
86
86
84
81
84
87
87
84
86
86
87
89
89
91
89
91
91
91
87
84
82
82
81
81
82
84
86
86
87
93
91
91
91
86
86
91
93
91
89
93
93
95
93
93
89
89
93
93
95
93
95
91
89
89
89
87
86
86
84
84
84
86
82
82
86
87
82
82
84
82
86
87
87
86
87
86
86
89
89
91
89
91
89
84
84
81
81
81
82
82
84
89
91
93
91
89
89
89
87
91
91
91
91
91
93
93
93
93
93
91
95
95
91
93
96
93
89
89
89
89
89
86
84
84
86
86
86
82
84
86
84
86
84
84
84
86
89
86
86
86
87
87
91
95
93
91
91
84
84
82
81
81
82
82
84
87
87
89
89
89
89
93
91
89
89
89
93
93
91
91
93
93
93
95
95
95
91
95
95
93
91
87
87
87
89
87
87
84
84
82
86
82
82
84
86
86
84
86
84
84
87
89
89
89
89
89
89
91
93
93
93
87
84
84
82
82
84
81
81
86
86
87
89
89
91
93
93
89
89
91
93
91
91
91
91
93
93
93
93
91
89
91
91
91
89
86
86
87
87
87
86
82
86
84
82
79
82
86
84
84
82
86
86
86
87
86
87
91
91
89
89
91
91
91
91
87
87
87
82
81
81
81
79
84
86
86
86
89
91
93
91
89
91
93
93
93
91
93
91
91
91
93
91
91
89
87
89
89
91
87
86
86
87
87
84
84
87
87
84
81
84
87
86
86
86
84
82
86
89
89
86
87
89
87
89
91
91
89
89
89
89
89
84
82
84
84
81
81
84
87
87
87
91
95
91
89
89
91
86
89
89
89
91
91
93
95
93
91
91
91
89
93
91
89
87
86
87
86
84
86
87
87
86
86
89
86
86
86
84
82
82
84
89
89
86
84
86
84
87
89
87
87
89
89
89
87
86
86
84
84
82
82
84
86
86
87
89
93
91
91
87
87
91
93
91
93
95
96
95
96
96
95
91
93
95
95
93
91
89
89
89
91
87
87
87
87
89
87
87
87
86
84
87
86
86
86
89
89
86
86
84
82
82
86
86
84
89
91
89
86
87
86
84
82
81
81
82
84
84
87
86
89
89
89
89
87
89
89
89
91
91
93
95
91
95
91
91
93
93
93
93
91
89
91
89
89
87
89
86
87
91
86
87
87
87
89
91
87
87
87
89
84
84
86
84
82
82
82
84
87
87
87
89
86
87
87
86
82
82
82
82
84
84
87
87
89
89
89
93
89
87
89
89
87
87
93
91
89
95
96
93
93
93
93
89
87
89
91
89
89
87
87
86
87
89
87
89
87
87
91
91
91
89
86
86
86
87
86
82
82
86
84
86
86
84
84
91
89
87
87
87
86
84
82
82
87
87
87
87
87
91
89
91
93
89
87
89
86
87
93
95
93
93
89
91
91
89
89
87
91
91
91
89
93
89
89
87
84
86
89
89
87
87
89
89
93
91
87
86
87
87
86
86
86
86
82
82
84
86
87
93
91
89
89
86
84
87
84
86
87
84
82
87
89
89
87
87
91
89
86
87
87
87
89
93
96
91
87
91
91
87
91
91
93
93
91
89
91
89
87
87
86
87
87
91
91
93
89
87
89
93
91
87
89
86
86
86
89
86
86
84
86
87
89
89
89
89
93
89
87
86
84
84
86
84
81
84
86
87
87
87
87
86
86
87
89
87
89
91
91
93
93
95
91
91
93
93
91
89
89
87
89
89
89
89
87
87
89
87
89
93
89
86
89
93
93
93
87
