P2
# 564 of 608 Angiograms
64 64
255
62
66
66
66
66
66
68
69
71
72
72
72
76
77
74
77
76
74
79
81
82
84
86
86
89
87
87
89
93
93
93
93
93
93
95
96
93
93
95
96
95
95
96
95
95
96
98
102
100
96
96
100
98
98
96
95
93
91
93
96
93
87
87
91
62
65
68
68
66
68
66
68
71
72
74
72
74
77
74
74
77
76
79
82
82
82
86
86
87
89
91
95
93
93
93
93
95
95
93
95
93
98
98
100
98
91
95
95
93
95
96
98
98
96
96
100
100
98
98
95
96
95
91
89
91
87
87
91
62
65
68
69
68
68
68
69
71
71
72
76
77
79
77
77
77
74
76
79
82
82
84
84
87
89
89
95
95
93
95
95
93
91
93
96
95
96
98
96
95
95
96
95
95
96
95
95
96
96
96
98
100
96
95
93
95
93
91
87
87
89
91
89
62
63
66
69
69
69
71
71
71
68
72
72
76
77
77
77
77
74
79
81
81
81
84
84
87
87
89
93
95
91
89
93
93
93
93
96
96
96
93
93
95
95
96
96
95
96
95
93
96
96
98
96
98
96
95
96
93
89
91
89
87
87
87
87
62
66
66
66
68
71
69
68
69
71
69
71
76
77
77
77
76
77
77
82
82
82
82
86
89
91
93
95
95
93
93
93
93
91
91
95
95
95
93
93
91
93
95
96
95
93
95
96
96
98
98
98
95
95
93
93
91
89
87
86
86
86
87
86
62
62
66
66
68
71
69
68
69
74
74
72
72
72
74
76
76
77
77
82
82
81
84
87
89
93
98
98
98
96
96
95
93
93
93
93
91
91
95
93
93
95
96
95
95
95
96
95
98
98
96
98
96
95
91
91
91
87
87
86
84
82
86
87
62
63
63
65
68
71
68
69
71
72
72
74
74
76
77
77
79
79
76
82
84
87
86
86
93
95
95
93
96
96
95
96
95
93
93
93
93
93
95
93
93
95
93
93
93
95
96
96
96
98
98
96
96
95
93
89
89
87
87
84
81
81
87
89
63
65
62
63
68
69
71
72
71
71
72
72
72
76
79
79
79
81
79
81
86
86
86
86
91
91
91
91
95
95
93
95
93
95
96
91
93
96
95
93
95
96
95
93
95
96
100
98
100
98
100
96
98
96
91
89
89
89
87
82
81
81
86
87
60
62
63
63
68
71
71
72
72
71
74
72
74
74
77
79
79
77
81
81
82
86
86
86
86
91
91
93
95
93
93
93
91
95
98
96
96
96
95
95
96
95
95
93
96
100
98
98
96
95
95
95
96
95
93
91
89
89
87
84
82
84
86
84
63
62
66
66
68
71
71
69
69
71
72
74
74
72
76
77
77
77
79
79
82
86
86
84
86
87
91
93
95
98
95
95
95
95
96
95
95
96
96
95
93
93
95
98
98
98
98
96
96
96
95
95
95
93
91
91
87
86
87
86
84
86
87
87
63
63
65
69
71
72
74
72
74
72
72
72
72
72
74
77
79
79
79
82
82
84
82
84
87
86
89
91
93
98
96
96
96
96
95
95
95
93
95
95
93
93
96
98
98
96
96
96
96
96
96
95
93
93
91
87
87
87
87
86
84
84
86
86
62
63
65
66
71
71
71
68
71
71
74
74
74
71
71
77
79
82
81
84
86
82
82
82
86
89
93
93
93
96
96
95
95
96
96
96
95
95
96
95
93
95
96
96
96
95
96
96
98
95
96
95
91
96
93
89
87
86
86
82
84
84
86
86
59
60
62
65
68
66
66
65
69
71
72
74
74
72
74
77
79
81
81
84
84
84
86
87
87
93
93
95
96
98
98
95
93
96
98
95
95
95
98
93
93
98
98
98
98
96
98
96
95
93
93
93
93
95
93
89
89
86
86
84
86
87
84
86
60
59
60
63
65
66
65
65
66
68
69
72
74
76
76
74
77
79
77
77
81
81
84
87
87
89
91
93
95
96
96
93
93
96
96
91
93
95
95
93
95
96
95
96
96
96
96
95
93
91
91
91
93
96
93
91
89
86
87
84
84
87
86
86
62
60
63
63
66
68
66
66
68
69
72
72
74
76
77
74
74
77
77
79
79
79
82
86
87
87
89
91
95
96
95
91
95
95
93
89
93
95
93
95
95
96
95
96
96
96
96
95
95
93
91
93
91
91
95
91
86
86
86
82
84
81
84
86
60
62
62
63
65
66
66
66
68
71
69
71
74
74
76
76
76
76
77
79
79
81
82
84
87
87
89
91
93
93
95
95
95
95
91
93
93
95
95
98
96
95
95
96
96
96
98
95
95
95
93
93
93
91
93
87
82
82
82
84
82
82
86
84
59
63
62
63
65
68
66
68
68
69
66
66
71
71
72
74
76
79
79
77
77
81
82
86
86
87
89
87
89
89
93
95
91
91
93
93
93
96
98
96
96
96
95
98
98
98
100
96
95
91
91
95
93
91
91
86
81
81
82
84
82
84
87
86
60
63
63
63
66
66
66
68
68
68
68
66
69
69
71
72
76
79
77
77
77
81
82
84
86
86
89
91
89
91
89
89
89
89
93
95
95
98
100
96
93
93
93
95
98
96
100
96
93
91
89
91
95
95
91
87
84
82
84
84
82
86
87
87
60
62
63
65
65
65
66
66
68
69
69
68
68
69
71
72
74
76
76
77
76
81
81
82
86
87
89
91
91
93
91
89
91
93
93
93
91
93
98
98
93
95
93
93
98
96
98
96
91
89
89
93
93
89
89
89
86
84
86
84
82
82
86
86
62
62
65
66
65
63
66
66
68
68
69
68
71
71
71
72
74
74
74
74
77
81
82
84
86
86
86
87
89
89
89
89
91
95
91
93
91
93
95
96
96
95
91
91
95
95
96
95
89
89
91
91
91
89
89
87
84
84
84
81
81
82
82
82
60
66
68
68
65
63
65
66
68
68
71
69
71
72
69
72
74
76
74
74
79
82
82
84
86
86
86
87
89
89
89
91
91
93
93
91
93
95
95
95
93
93
91
93
93
89
93
93
87
89
89
89
91
91
87
86
86
82
82
82
84
84
84
84
63
66
66
65
62
65
68
68
66
66
68
66
71
72
72
71
72
74
72
74
76
79
82
81
84
87
89
93
93
93
89
91
93
91
95
93
93
95
95
95
93
93
91
93
93
87
93
89
89
89
91
89
91
89
86
82
84
86
86
82
84
84
86
86
65
66
63
65
65
63
65
66
65
68
68
66
69
74
74
72
76
72
69
74
76
77
81
86
86
87
89
89
91
91
91
93
95
91
91
93
95
95
93
91
91
96
89
91
95
91
91
91
91
95
91
89
93
89
86
84
86
87
86
84
87
86
86
84
60
63
62
63
65
62
63
65
66
71
69
66
68
71
74
74
74
72
74
76
77
77
81
86
84
86
87
89
91
93
89
89
91
91
96
95
93
93
91
89
89
93
89
87
89
91
91
91
93
93
91
95
91
87
84
86
86
86
86
89
84
87
86
84
59
63
62
63
63
62
62
65
66
69
68
69
69
69
72
77
76
74
77
77
79
81
82
82
86
87
86
87
89
91
89
89
91
91
91
91
93
91
91
89
89
89
87
87
89
89
86
87
89
89
89
91
89
87
86
86
87
84
86
87
86
87
87
86
60
63
63
62
62
63
65
66
68
69
71
72
71
69
72
76
77
74
76
76
81
84
82
82
87
89
86
89
91
93
91
91
91
91
91
91
93
91
93
89
87
89
89
86
87
86
86
87
87
86
87
89
91
87
89
87
84
86
86
87
91
87
86
86
60
62
62
62
65
65
69
71
69
68
71
69
71
69
72
72
74
76
76
74
79
82
84
82
86
87
87
91
89
91
91
93
87
89
89
89
89
91
89
87
87
89
87
84
86
86
84
86
87
87
87
86
87
89
89
86
82
84
82
89
89
87
86
84
62
62
62
63
66
66
69
71
69
69
71
69
72
71
71
69
71
74
76
76
79
82
86
82
84
86
86
89
87
91
93
91
87
86
87
84
86
87
86
87
87
84
86
86
86
87
84
81
86
87
86
86
86
86
84
84
86
86
87
87
89
89
86
86
60
63
65
65
68
68
68
69
69
71
71
72
69
72
71
72
74
76
77
79
79
81
86
84
86
87
86
87
91
91
93
87
86
84
86
82
82
82
86
87
87
87
89
87
89
87
86
84
86
82
84
86
84
84
82
82
87
87
86
87
87
87
89
86
60
65
68
66
66
66
69
71
69
68
71
69
71
69
69
72
74
74
76
79
79
81
82
87
87
89
89
89
89
89
89
84
84
84
84
82
82
82
82
86
89
91
93
89
89
89
87
87
84
82
84
84
81
81
81
81
82
84
84
84
86
84
86
87
60
63
65
66
68
66
68
71
69
68
68
71
71
69
72
74
72
74
77
81
81
79
84
86
86
87
87
87
87
86
86
84
84
86
86
87
86
86
84
84
89
91
91
89
86
87
87
86
82
84
87
86
86
84
84
82
82
82
81
81
84
84
82
82
59
63
63
66
68
66
69
69
69
69
71
71
71
68
74
74
74
76
81
82
86
81
84
86
86
87
86
87
87
86
84
86
86
86
87
87
87
87
84
84
87
86
86
87
84
87
87
86
86
87
86
84
86
86
86
84
84
82
81
81
82
86
82
82
59
63
65
66
66
65
65
66
69
72
72
69
69
69
74
72
71
74
81
82
84
82
86
86
82
81
84
86
84
84
86
86
87
86
87
86
84
87
86
84
86
87
87
84
86
89
87
87
87
87
84
86
86
86
87
87
84
84
82
84
81
84
82
84
58
62
66
68
65
63
63
65
66
69
69
69
71
72
72
76
76
76
82
84
84
84
86
86
84
81
84
86
82
84
87
86
84
84
87
84
84
84
89
87
89
87
87
87
87
86
87
86
86
84
84
84
84
84
86
87
86
87
86
84
81
84
82
79
59
62
63
66
65
65
65
66
68
69
69
71
71
71
74
77
77
79
82
81
82
82
86
84
84
84
86
87
87
86
87
86
84
84
84
84
87
87
87
87
89
89
89
89
89
87
86
87
86
84
82
84
84
84
86
86
86
87
86
86
84
84
79
77
59
62
65
65
65
65
65
66
65
68
71
72
71
76
74
76
77
79
81
81
77
81
82
82
82
84
84
84
86
86
86
86
82
84
84
82
86
84
84
87
87
87
89
93
91
87
87
87
87
87
87
87
84
84
84
84
86
89
91
89
86
84
81
79
58
59
62
65
65
66
63
65
68
69
69
69
71
71
72
76
76
77
79
79
76
79
79
81
82
82
84
82
82
84
87
86
84
84
86
86
89
86
84
84
87
91
89
89
87
86
91
89
87
87
89
86
86
84
82
84
86
87
91
89
86
84
82
82
58
62
62
63
63
68
63
65
66
69
69
71
71
69
72
72
76
76
77
76
77
77
76
79
81
82
82
84
82
82
84
81
84
87
84
87
89
86
81
82
86
87
89
87
86
86
87
89
86
86
84
82
86
87
84
84
86
86
89
91
89
84
84
86
58
62
63
63
63
66
66
66
68
68
68
69
69
69
71
71
74
76
79
79
76
76
77
82
84
86
84
84
84
84
84
84
84
84
86
86
87
84
82
84
86
87
86
87
87
89
89
87
87
87
86
82
84
86
86
84
84
86
84
87
89
87
86
87
56
60
60
62
63
63
66
66
69
69
68
66
68
71
72
69
71
72
77
81
77
77
77
81
84
86
84
82
84
86
84
86
86
86
86
84
86
87
84
84
84
84
84
89
86
86
87
87
89
87
87
87
89
87
87
86
82
82
82
86
86
89
86
86
55
56
59
63
68
63
63
66
66
66
65
65
68
71
72
69
72
74
77
79
77
79
79
79
81
81
82
84
84
84
86
86
84
82
84
86
87
87
87
87
84
86
86
87
87
86
86
87
86
89
89
89
87
86
89
89
84
81
82
84
89
86
86
84
58
58
60
62
65
62
63
65
66
65
68
66
68
72
72
71
74
76
77
76
76
77
81
81
82
82
82
84
86
84
87
86
84
81
86
87
87
86
84
87
86
86
86
86
87
87
87
89
89
87
89
86
87
86
87
86
86
82
82
84
87
86
86
84
55
59
60
60
62
63
66
68
66
68
71
71
71
72
71
69
74
74
74
74
74
77
81
79
81
82
81
84
86
86
86
86
86
86
86
89
89
86
84
86
86
86
87
86
86
87
89
89
84
86
87
86
87
87
87
86
84
81
79
84
87
87
86
82
52
56
59
60
62
63
65
68
65
69
71
71
71
74
71
71
74
72
72
74
76
77
79
77
81
82
82
82
87
87
86
84
86
86
84
89
89
87
87
89
87
89
91
89
87
89
89
87
87
87
86
86
86
89
87
86
82
82
81
82
86
84
84
82
54
55
58
59
63
63
65
66
68
69
71
69
69
72
71
72
72
71
71
72
74
77
79
81
82
86
84
84
86
87
87
86
86
87
87
87
87
87
89
89
87
89
93
89
87
86
84
86
89
91
89
89
87
87
87
86
82
81
79
81
81
81
84
86
54
56
56
59
63
65
66
66
68
69
69
69
69
71
69
72
72
72
72
72
76
77
81
82
82
84
87
87
89
89
87
87
87
87
87
87
87
87
87
84
86
86
87
91
87
84
82
87
89
86
87
86
82
84
84
86
82
79
81
82
79
82
82
84
55
58
59
62
63
65
65
63
66
71
69
71
71
72
71
72
72
74
74
76
77
77
79
79
82
82
86
86
87
86
84
84
84
84
87
87
86
89
86
86
84
84
87
91
87
86
86
87
87
87
86
84
86
87
86
87
84
81
81
81
81
82
84
84
56
58
59
62
65
66
66
65
68
69
71
71
71
71
72
74
76
74
74
76
79
77
79
81
82
84
86
87
87
86
86
86
86
84
84
86
87
87
84
86
86
86
87
86
86
86
86
86
87
89
91
86
86
87
87
87
86
82
81
81
84
82
86
86
55
58
58
60
62
65
65
63
63
66
71
72
71
71
72
72
76
76
76
76
79
81
81
82
84
87
87
89
87
84
86
89
86
82
81
86
89
91
87
86
86
86
82
86
87
87
87
87
86
86
86
87
86
84
86
89
86
82
82
82
84
84
84
84
52
58
58
60
63
66
65
62
63
69
71
72
71
72
72
74
76
74
74
76
79
81
81
81
86
87
89
91
84
84
89
91
87
86
82
86
84
86
86
86
86
86
87
86
87
86
89
86
86
87
86
84
86
86
84
86
84
84
82
79
81
84
82
84
52
58
60
63
63
65
65
65
65
65
69
71
69
72
74
74
77
74
74
74
77
79
79
79
82
86
89
91
91
86
84
87
89
87
87
84
82
86
84
82
84
89
89
87
86
84
87
87
86
86
86
86
86
87
84
84
84
87
84
81
81
81
82
82
54
56
60
62
63
60
62
66
66
68
68
68
66
69
71
71
72
74
74
74
79
79
82
81
82
84
86
91
91
89
86
87
87
87
86
84
82
84
86
86
84
86
87
91
87
87
89
86
84
84
89
87
86
86
86
86
82
84
84
81
81
82
82
82
54
55
58
60
62
63
63
65
66
68
68
68
68
69
71
69
71
72
72
72
76
81
84
82
86
84
84
91
89
87
86
87
86
86
84
84
86
86
86
87
86
84
87
87
87
89
91
89
89
86
84
86
86
86
87
84
86
82
81
81
79
81
82
82
54
55
59
60
63
65
65
63
63
66
66
69
66
66
69
72
71
72
72
71
77
81
79
82
84
84
84
91
89
86
89
87
86
86
84
82
84
87
84
86
86
86
87
86
87
87
89
89
87
84
84
84
84
86
89
86
86
84
84
82
81
79
79
81
52
55
58
62
65
66
63
63
65
66
66
69
69
69
68
72
72
72
72
76
79
79
76
79
82
82
86
89
93
89
87
84
86
84
84
84
82
86
82
84
86
89
89
84
86
87
84
86
86
86
87
82
81
84
86
86
87
86
86
82
82
81
81
82
51
54
59
60
62
63
63
65
65
66
68
69
69
69
69
72
76
74
76
77
79
79
81
82
82
82
84
84
89
87
84
84
86
84
84
84
84
86
84
87
87
87
87
86
86
84
86
87
87
89
91
84
82
84
82
82
84
84
84
81
84
81
79
81
51
54
58
62
62
63
65
65
66
66
68
68
69
69
72
72
74
76
79
79
79
82
81
82
82
82
82
82
86
87
82
82
87
86
87
87
89
87
84
87
89
86
86
86
86
86
87
87
87
89
87
86
86
87
87
86
82
86
87
82
81
79
79
82
51
52
59
62
63
65
63
65
68
68
68
68
69
69
71
74
74
74
76
77
81
81
81
81
82
84
87
86
87
87
86
84
84
86
87
89
89
89
84
87
89
89
89
87
89
89
89
87
87
87
86
87
91
91
89
86
86
86
82
81
81
81
79
84
52
58
59
62
65
66
65
65
66
66
69
69
68
68
69
74
74
72
74
76
81
84
81
79
82
84
87
86
86
87
87
86
87
89
89
87
87
86
84
84
89
89
87
86
86
87
89
89
89
87
87
86
87
87
87
84
87
86
81
79
81
81
81
87
54
54
59
60
63
66
66
65
66
68
68
69
68
69
72
74
74
71
71
76
81
82
82
81
82
87
87
86
87
89
89
91
89
91
87
87
89
87
87
87
87
91
89
87
86
89
87
89
87
87
89
87
87
87
86
84
86
86
82
81
82
82
82
84
54
55
59
60
62
63
66
66
68
69
69
72
71
71
72
76
76
74
76
79
81
81
82
86
86
86
89
86
87
93
93
89
91
91
91
89
89
89
89
89
89
89
86
87
87
89
87
87
89
91
89
89
87
86
86
84
82
84
84
84
87
87
82
84
55
60
59
58
58
62
65
65
65
68
69
68
68
69
71
72
74
76
79
82
81
81
81
84
86
86
89
87
87
91
89
89
91
87
87
89
89
89
87
87
89
86
86
84
86
87
86
86
89
89
89
89
86
82
86
84
82
81
82
86
89
84
84
82
54
58
58
58
59
60
63
63
65
66
68
69
68
69
74
76
76
76
77
81
79
82
79
81
82
84
89
89
86
89
87
87
87
86
87
89
87
87
86
86
86
82
84
84
84
86
86
87
91
89
87
89
86
81
82
82
82
81
77
82
84
84
84
82
54
56
56
58
59
63
63
65
65
66
68
68
69
69
72
72
72
74
74
79
79
81
79
79
81
84
86
86
87
87
87
87
87
87
87
87
89
87
86
86
84
82
82
86
87
86
84
87
91
86
86
87
84
82
86
84
84
81
82
82
81
81
81
79
