P2
# 569 of 608 Angiograms
64 64
255
86
89
91
93
95
93
89
87
89
86
87
89
87
89
89
87
86
87
89
87
86
87
87
84
86
89
91
89
87
89
95
95
96
95
91
82
76
76
71
68
69
68
72
77
84
91
95
93
98
100
98
96
93
91
93
93
95
96
91
91
93
93
89
87
86
89
96
93
91
87
84
86
86
87
89
87
87
89
87
89
89
86
89
89
89
89
87
84
86
87
89
91
87
87
93
95
98
95
89
82
76
74
71
68
68
66
72
79
82
89
91
91
95
100
100
98
95
96
95
95
95
95
93
89
89
91
89
89
86
86
93
91
87
87
86
87
89
91
93
89
87
89
89
89
87
86
91
89
87
87
87
86
86
87
89
91
87
89
91
95
96
95
87
82
77
76
71
69
68
65
71
79
84
87
91
91
95
100
100
100
98
98
98
98
96
95
95
91
93
93
91
93
84
86
91
89
87
91
89
89
93
91
89
89
91
89
89
87
84
86
87
89
89
91
87
87
87
86
86
86
91
93
91
93
93
89
86
82
77
76
72
74
69
68
69
77
82
84
87
91
96
98
100
98
100
100
100
98
95
93
93
91
93
95
93
95
82
82
87
87
91
91
87
86
87
89
89
91
89
87
87
86
86
87
91
91
91
91
87
89
89
89
87
89
89
93
93
93
89
89
87
84
79
77
74
74
71
68
69
74
79
81
86
89
98
96
96
96
96
96
98
96
93
91
93
91
95
96
96
95
82
84
86
84
89
91
87
84
86
89
91
93
89
89
87
89
89
89
91
93
91
93
91
89
89
89
87
91
89
91
91
91
87
87
86
84
81
81
76
72
71
69
68
71
77
82
84
87
93
96
96
95
96
98
95
96
95
93
93
93
96
98
96
91
87
86
84
84
87
91
87
86
87
91
89
89
89
89
87
89
89
89
89
89
91
95
95
89
91
91
87
91
91
93
91
89
87
86
86
82
84
87
81
74
74
71
69
71
76
79
82
84
89
93
96
96
98
100
98
96
98
96
95
93
93
95
91
87
89
86
84
82
84
87
86
86
87
87
89
89
91
89
87
87
87
91
89
91
91
93
91
91
91
91
91
91
91
93
95
93
89
84
84
86
87
89
84
77
74
71
68
69
72
77
81
84
89
93
95
98
98
100
100
98
98
96
96
95
95
89
91
89
87
86
84
82
84
87
87
86
87
89
89
89
93
91
86
87
87
87
89
91
95
93
93
91
91
91
93
91
89
91
93
93
89
84
84
84
87
93
86
81
74
71
68
66
71
74
77
82
86
89
89
96
98
98
98
96
98
98
98
93
95
95
91
91
87
86
84
84
84
89
89
87
89
91
91
91
91
91
89
86
86
89
91
93
93
93
93
89
95
89
89
91
89
89
91
89
84
81
86
86
89
91
89
82
76
71
69
68
71
76
79
81
84
87
91
95
96
96
95
96
98
102
100
93
93
93
91
87
84
86
84
84
82
86
89
89
87
89
87
87
87
89
87
87
87
91
89
91
91
89
91
89
89
89
89
89
93
91
87
86
84
81
84
86
89
93
93
86
77
76
72
72
71
76
79
82
86
91
93
93
93
96
98
96
96
100
98
98
96
95
91
89
87
86
84
86
84
84
86
84
86
84
87
87
89
89
89
89
87
89
91
91
87
89
91
89
91
93
91
89
93
93
87
86
86
82
86
87
93
93
93
89
82
77
76
74
71
72
74
77
84
87
91
93
95
98
98
95
98
95
95
98
96
93
89
91
87
82
86
84
81
82
82
82
86
86
87
87
87
89
91
91
89
89
89
91
91
91
89
86
89
95
89
86
89
91
86
82
81
82
86
86
93
95
91
91
84
79
77
76
72
69
72
74
79
84
87
91
98
98
98
96
100
96
95
95
93
91
87
91
87
87
84
82
81
81
81
82
87
87
86
86
87
89
93
89
89
91
89
91
91
91
87
86
91
91
89
89
91
91
87
82
81
84
87
89
96
96
93
89
84
77
76
76
72
72
72
71
76
81
84
87
96
100
100
100
100
96
93
91
91
87
86
91
86
86
84
86
86
81
77
86
91
89
86
86
86
87
89
89
91
93
89
89
91
93
89
87
89
87
89
95
91
89
86
82
82
84
84
91
96
98
91
91
86
81
76
74
74
72
71
68
74
79
84
87
93
96
98
100
100
96
95
93
89
87
87
89
87
86
89
91
84
81
81
84
86
86
87
91
89
89
91
91
93
96
91
89
91
89
87
87
87
89
91
93
93
91
89
86
82
84
82
87
95
98
93
93
91
84
79
76
74
71
69
69
74
79
84
86
89
95
96
96
98
95
95
95
91
89
86
87
89
87
89
91
89
86
84
81
84
86
89
89
91
93
91
91
96
98
98
93
89
89
89
89
86
89
91
91
91
89
86
84
82
81
82
87
91
93
93
93
93
89
84
76
74
69
71
71
72
74
79
86
89
93
96
95
95
93
95
91
93
89
91
89
93
89
89
89
89
89
86
86
87
87
87
93
93
93
93
95
96
98
96
95
93
91
91
93
91
91
89
91
91
89
89
86
84
82
87
87
91
93
93
93
95
91
87
82
77
74
71
72
71
72
76
81
86
89
91
95
93
93
95
91
93
91
93
91
93
93
91
91
91
89
87
86
89
89
89
95
95
93
91
95
96
98
98
96
95
93
93
95
91
89
89
91
93
91
87
87
82
82
86
84
91
93
93
96
96
93
93
86
82
77
74
71
71
71
72
77
82
86
89
95
93
96
96
93
93
93
91
89
96
98
93
91
89
87
87
87
89
87
89
95
91
95
95
96
98
100
98
96
96
95
93
93
95
93
91
93
95
91
89
87
84
81
81
86
89
89
95
96
96
96
96
91
86
82
79
74
72
71
72
76
81
82
89
96
100
102
98
93
93
95
93
91
93
98
95
91
87
82
86
86
89
89
91
93
93
98
100
98
100
102
98
100
98
95
98
95
95
93
91
93
93
93
91
87
87
84
81
84
89
93
98
96
98
96
96
93
89
84
79
76
74
71
72
74
79
81
86
91
96
100
100
95
89
93
91
93
93
95
95
89
89
89
89
89
91
91
93
93
95
96
98
98
102
102
102
100
100
100
102
98
96
96
93
91
91
91
91
91
87
86
82
86
89
96
98
100
100
95
93
95
93
86
81
77
74
72
74
74
77
79
81
84
89
95
96
95
91
91
89
91
93
93
95
91
91
93
89
89
93
91
93
93
95
95
96
102
102
102
102
102
100
102
102
96
96
96
93
91
91
89
93
93
89
84
84
84
89
95
100
100
100
95
91
95
95
89
84
79
76
74
74
74
74
77
81
87
89
93
95
93
91
93
89
91
95
95
95
91
91
89
89
89
91
91
95
95
96
98
100
100
98
102
104
102
98
100
102
98
98
95
95
93
93
91
93
91
89
86
82
82
89
91
95
96
98
96
95
95
96
95
91
84
81
77
74
74
74
77
81
87
87
89
93
95
91
87
91
89
98
93
91
93
91
89
89
91
91
89
89
93
96
100
98
96
98
98
100
98
96
100
98
96
96
96
93
93
95
93
89
91
93
89
86
86
91
93
93
93
98
98
96
96
96
98
93
89
86
81
77
74
74
74
76
81
84
84
89
91
91
93
96
95
98
95
91
95
95
91
87
87
89
89
91
93
95
96
98
95
98
96
96
93
96
100
100
96
96
95
95
95
95
93
91
93
95
89
86
87
89
91
93
93
96
96
96
95
98
98
95
93
89
84
77
74
72
71
74
77
82
82
86
87
89
93
96
95
95
93
93
93
93
91
89
91
91
89
91
91
91
91
95
95
95
95
95
93
96
98
96
93
95
95
93
93
91
93
91
93
93
89
84
87
89
91
91
93
93
93
98
96
96
98
96
93
93
87
82
79
77
74
76
77
81
84
84
86
87
93
95
95
91
93
93
95
93
89
89
89
91
91
89
91
87
91
96
95
95
93
93
93
95
96
91
91
96
96
96
91
93
93
91
93
93
89
86
89
89
91
93
89
91
95
96
93
91
96
98
95
95
93
87
84
81
76
74
76
77
77
82
86
86
87
91
95
95
95
96
95
91
91
89
86
87
87
89
91
91
95
98
98
98
96
93
93
93
95
93
93
96
96
93
91
95
93
89
89
93
91
87
89
87
89
91
91
93
95
95
93
93
95
98
100
102
100
95
87
84
81
76
76
74
76
77
82
86
84
87
89
95
95
95
93
91
91
89
89
87
87
89
89
93
96
98
98
98
98
98
95
95
93
95
93
95
93
93
93
93
95
95
93
93
87
89
89
86
86
91
91
93
93
93
96
96
96
100
102
100
98
96
91
86
82
81
77
76
74
76
81
81
82
86
87
93
93
93
91
89
89
89
89
87
87
87
87
91
96
98
98
98
98
98
96
98
96
95
93
95
95
93
95
95
91
89
91
95
89
89
87
87
89
91
91
93
91
89
93
95
98
96
98
95
96
95
95
91
87
86
81
77
74
74
76
77
81
82
86
93
93
93
93
89
91
91
87
86
87
87
87
89
93
95
96
95
96
95
93
98
96
96
95
95
93
89
95
95
91
91
93
89
87
89
89
86
87
93
91
89
91
91
93
95
98
100
98
96
96
98
98
95
91
86
82
81
77
74
72
72
77
79
81
91
93
91
93
91
89
91
89
87
91
89
91
91
89
95
96
96
96
95
95
96
96
95
93
91
89
93
95
95
91
91
91
89
89
89
86
86
86
89
91
91
95
95
93
91
91
96
96
95
96
96
96
93
93
89
86
84
82
76
74
74
77
79
81
93
95
93
93
91
87
87
84
87
89
89
91
91
93
96
96
96
95
95
95
95
95
93
93
89
91
95
95
95
93
91
91
91
91
91
87
87
87
89
91
91
93
95
91
89
89
91
95
96
96
95
95
96
96
93
89
84
84
79
77
77
77
79
79
93
95
93
93
91
87
86
81
86
87
89
91
93
91
91
91
93
93
91
91
91
93
91
91
93
95
95
93
93
91
91
91
91
89
89
89
89
87
87
91
91
91
89
91
87
89
91
95
96
95
93
93
93
96
96
91
86
86
81
81
81
79
81
81
95
96
93
91
89
87
87
84
87
89
91
93
93
89
87
91
91
93
89
91
91
91
91
93
96
95
91
91
93
89
91
89
87
87
91
87
86
84
86
91
89
89
89
87
87
89
93
93
95
93
93
93
93
95
95
89
86
87
84
82
81
81
79
79
95
96
96
89
89
91
89
84
89
91
93
95
95
93
93
93
95
96
93
91
93
91
91
93
93
91
91
89
89
89
89
89
87
89
91
87
84
84
86
87
89
89
87
93
91
87
91
93
93
91
93
93
93
95
93
89
89
87
89
86
81
81
81
79
95
96
96
95
95
95
93
89
93
93
95
95
93
93
91
93
96
96
93
93
93
91
87
91
95
91
91
89
91
91
93
91
87
87
91
89
87
86
86
87
89
89
91
93
93
89
89
91
93
91
91
91
95
93
93
87
91
91
89
89
87
82
81
81
93
95
95
95
93
91
93
93
89
93
93
93
89
87
87
91
95
95
93
95
95
95
89
91
95
89
91
91
91
91
95
89
89
89
89
87
89
87
87
86
89
91
89
93
93
93
91
91
91
91
89
87
87
89
93
91
93
89
89
89
91
87
84
82
95
96
93
91
91
91
89
91
91
91
93
91
89
86
86
91
93
93
91
93
93
91
86
89
95
93
95
91
93
93
95
91
89
86
87
87
87
91
86
87
91
89
91
93
93
93
95
91
91
93
91
87
84
86
91
91
89
89
89
89
93
89
84
82
96
96
95
95
95
93
91
87
91
89
93
93
89
84
87
89
93
91
91
93
87
87
86
91
96
95
93
91
91
91
93
93
91
87
87
86
87
89
89
87
89
89
89
87
89
89
96
96
91
95
93
89
84
87
89
87
89
91
91
91
91
89
87
84
98
96
96
95
93
93
91
89
87
89
87
91
91
87
87
87
91
91
91
89
87
89
89
91
96
95
93
93
93
89
93
93
95
89
87
87
87
87
87
87
89
87
87
87
87
89
95
95
89
91
89
89
89
89
89
89
89
91
89
89
89
89
91
89
98
95
95
93
91
87
87
87
87
87
87
89
91
87
86
86
89
89
89
87
89
91
89
89
93
95
93
89
91
93
93
93
91
91
89
91
89
87
89
89
91
91
91
89
87
87
93
91
87
91
91
89
89
89
89
89
89
91
87
87
89
91
91
89
96
95
95
91
89
87
87
86
89
86
86
89
89
87
84
86
86
84
87
89
93
89
86
86
87
91
91
91
91
93
91
93
93
91
91
93
91
89
89
91
91
89
91
89
89
89
91
91
86
89
91
89
91
91
91
87
89
89
87
86
87
87
93
93
95
93
93
91
89
87
86
86
86
87
91
93
87
87
86
86
86
86
91
89
91
89
86
87
87
89
93
93
93
91
93
95
95
89
89
91
91
89
89
89
89
87
87
87
87
91
93
91
89
89
87
89
91
91
91
91
89
93
89
87
89
89
91
93
93
93
91
89
91
87
86
84
86
87
93
91
86
84
87
86
87
86
89
89
91
89
86
91
91
91
93
91
93
95
93
91
93
89
87
91
91
89
87
91
91
93
89
87
87
86
93
95
91
87
86
89
91
93
91
91
93
95
91
89
87
89
89
87
93
93
89
89
87
87
86
86
86
86
89
87
87
86
87
87
84
87
91
89
89
89
87
87
89
87
89
91
91
89
87
87
89
93
89
89
91
91
89
89
89
93
91
87
84
84
91
93
89
89
89
89
93
93
89
87
87
89
91
91
89
89
89
89
91
91
89
89
87
86
86
87
87
86
86
84
89
91
86
86
82
86
89
87
86
87
89
89
89
87
87
89
91
93
91
91
91
93
93
93
93
91
89
87
86
87
86
86
84
86
89
87
89
91
91
93
95
91
89
86
87
86
91
89
86
89
87
89
93
91
89
89
87
87
86
86
89
89
86
84
86
87
89
89
86
84
86
86
84
87
89
89
91
87
87
89
93
95
93
93
93
93
95
95
95
91
93
91
87
89
91
87
87
87
87
87
91
89
93
93
91
91
91
89
87
91
93
91
86
86
87
87
95
93
89
89
89
87
86
82
87
89
89
86
86
89
87
87
87
86
86
86
84
86
87
89
89
87
91
87
91
91
91
93
95
95
93
93
93
91
89
87
91
91
95
91
87
89
91
91
91
89
89
89
89
93
89
87
87
89
89
91
91
87
87
86
95
93
87
87
87
89
89
86
87
87
89
87
87
89
87
89
87
87
87
89
87
86
89
89
89
91
91
89
91
93
91
87
91
95
93
93
89
89
89
89
91
91
95
91
87
93
93
89
89
89
89
91
91
93
91
89
89
87
86
89
89
89
91
87
91
87
87
84
86
91
93
87
86
84
86
87
87
86
87
86
86
86
86
87
91
91
91
89
89
91
89
89
91
91
91
87
86
89
91
89
87
89
89
91
91
89
95
96
95
95
95
89
89
89
93
91
91
93
93
91
89
86
86
87
89
87
89
93
86
87
87
82
84
87
87
86
87
86
86
84
87
86
87
86
84
87
89
89
91
89
89
89
87
91
87
91
91
91
93
91
89
91
91
87
87
89
93
93
93
93
93
96
95
91
91
93
89
89
91
89
87
91
93
91
89
86
87
89
89
89
91
95
86
87
86
82
87
87
84
84
89
89
86
87
87
87
89
87
86
87
86
87
87
87
89
89
84
89
91
91
91
91
89
91
91
93
93
91
87
91
91
93
91
93
93
91
91
91
93
93
91
87
86
86
89
93
91
91
91
89
87
91
89
87
91
93
89
89
84
82
86
87
87
87
87
89
89
91
87
87
87
87
89
89
86
84
87
87
89
91
89
87
89
91
91
91
91
93
93
93
89
89
89
87
89
93
91
89
87
89
91
93
91
89
87
84
84
84
91
93
89
91
89
91
91
89
89
89
91
91
87
89
89
89
86
87
89
87
87
91
89
91
89
87
84
87
89
91
87
86
87
87
87
89
91
91
87
93
93
93
93
95
93
89
89
89
89
87
89
89
87
89
89
89
91
91
89
87
86
84
86
89
93
93
95
93
89
89
87
87
89
91
87
91
87
89
87
87
89
86
86
89
89
91
89
91
89
86
86
87
89
91
89
86
86
89
91
91
93
93
89
87
87
89
95
93
93
87
89
89
89
87
87
87
91
93
95
95
95
93
91
89
87
86
87
87
89
87
93
91
89
89
87
91
95
91
89
89
89
87
87
87
89
84
86
87
89
91
86
91
89
89
86
87
87
87
87
89
89
89
89
91
93
93
91
89
87
87
91
93
93
91
89
87
86
89
87
87
91
91
96
95
91
91
89
89
89
89
89
89
89
89
93
93
87
89
89
89
89
89
91
89
89
89
86
86
87
87
89
89
91
89
84
87
91
91
87
87
86
86
87
89
89
89
87
91
95
89
89
91
89
89
93
95
93
93
89
89
87
87
86
86
87
91
96
95
93
91
87
86
91
93
89
89
87
87
91
91
91
89
91
89
87
89
91
91
87
87
89
87
86
87
89
91
89
89
87
87
91
91
86
89
87
84
86
89
93
91
91
93
91
91
93
93
91
87
89
91
91
91
87
87
91
89
87
87
89
93
93
91
91
91
87
86
87
89
91
87
86
86
91
89
89
87
89
89
91
95
93
93
87
84
89
87
87
89
89
91
89
86
82
84
87
87
87
93
93
86
86
89
91
89
89
91
89
91
93
93
93
89
87
86
86
86
87
89
89
87
87
86
89
91
91
91
91
91
87
86
86
86
87
87
87
87
91
89
91
89
87
91
95
95
96
93
86
89
86
86
89
93
91
91
91
89
84
86
87
87
89
93
91
89
86
89
93
91
91
89
89
91
91
89
93
91
89
86
86
86
89
87
86
84
89
86
89
89
91
95
89
86
87
87
86
86
87
91
91
91
89
91
93
91
91
91
95
93
96
95
82
86
87
89
91
93
93
87
87
89
87
87
87
87
89
91
89
87
89
89
87
91
91
87
89
93
91
89
89
89
89
87
87
86
86
86
86
86
86
86
89
91
93
95
87
86
91
87
84
86
89
93
93
91
87
89
89
87
89
89
89
93
93
91
81
84
87
89
89
91
91
87
84
84
86
84
87
87
86
86
87
87
87
91
91
93
91
91
91
93
91
89
91
91
91
87
86
84
84
86
87
87
86
86
87
95
95
91
89
89
93
89
87
89
89
87
89
84
87
87
89
87
87
87
86
91
93
93
