P2
# 571 of 608 Angiograms
64 64
255
68
68
68
68
68
68
68
71
71
72
72
77
81
79
82
84
82
84
86
87
87
86
87
86
87
87
86
89
89
91
89
89
91
91
93
96
93
91
93
95
95
96
98
102
100
100
98
96
95
96
100
100
100
100
102
102
102
98
102
106
110
112
106
106
66
66
69
68
68
66
66
71
72
74
76
79
81
81
84
84
84
86
87
86
87
87
87
86
86
86
87
87
91
87
95
93
91
89
93
93
89
91
95
95
96
96
98
100
100
102
100
96
96
95
100
98
98
100
98
100
102
102
102
108
108
110
108
104
65
65
69
68
68
68
69
72
72
77
76
77
81
79
82
82
82
87
87
86
89
87
87
86
84
86
89
93
93
93
93
93
91
91
93
95
91
91
93
96
96
95
100
100
98
102
98
98
98
100
100
98
96
96
96
96
98
104
106
110
110
106
104
102
65
65
68
66
68
68
72
74
72
76
77
77
79
79
82
82
84
84
87
89
87
84
84
82
81
86
86
91
91
91
91
93
95
96
96
95
91
91
91
95
100
100
104
102
98
100
102
98
98
98
98
98
98
98
100
102
104
104
104
106
106
104
102
104
63
63
63
68
68
69
74
76
72
77
81
79
79
81
81
82
81
82
87
89
87
84
84
82
82
86
86
87
89
91
93
93
96
96
96
96
93
95
95
95
100
104
104
100
100
100
102
98
98
98
100
100
98
96
100
106
106
106
104
106
102
102
104
102
62
65
65
66
69
69
71
72
74
77
81
77
79
81
79
81
81
86
89
89
86
84
87
84
82
86
87
91
91
91
93
93
96
96
96
95
96
95
95
96
100
104
102
98
100
100
102
98
98
100
102
100
98
100
100
108
110
112
108
108
102
98
100
98
60
66
69
66
71
71
71
74
76
77
77
77
82
82
82
82
84
87
89
89
87
82
84
84
86
87
91
91
89
89
93
91
91
93
95
95
98
96
98
100
104
106
102
100
100
100
100
98
96
100
100
100
102
104
102
104
108
110
108
104
100
100
98
98
63
66
69
71
76
72
72
76
74
76
79
79
81
81
82
82
84
86
87
87
86
84
86
86
89
91
91
91
89
89
91
89
91
89
91
93
96
98
96
98
100
104
102
100
98
100
102
100
100
100
102
102
108
106
104
104
102
106
104
100
96
96
98
95
66
68
71
74
76
74
74
76
76
74
76
79
77
82
82
82
82
87
87
86
86
86
87
89
93
91
91
93
89
86
89
93
89
91
89
89
91
95
98
98
100
100
100
100
102
100
104
104
102
100
98
100
106
106
106
106
102
102
102
100
100
96
95
95
68
71
72
71
74
74
74
74
72
72
76
77
81
84
81
82
84
84
84
86
84
84
86
91
93
96
95
95
93
89
91
91
89
89
87
89
89
93
96
100
100
100
100
98
100
100
102
104
104
102
100
102
104
108
108
104
104
100
100
100
100
95
95
96
71
71
71
71
72
72
77
77
76
74
72
72
76
79
81
82
84
82
82
82
82
84
86
93
96
98
96
96
95
91
91
87
86
87
89
91
93
95
100
100
100
100
102
102
100
100
102
106
104
100
100
104
106
108
108
106
102
102
100
98
96
93
96
95
71
71
71
71
72
74
76
76
76
77
74
74
76
77
79
82
86
82
81
79
81
84
87
93
95
98
96
98
96
95
91
91
89
91
91
91
95
96
102
102
104
104
104
106
106
104
104
106
102
102
100
102
106
106
106
102
104
102
102
96
95
95
95
93
69
69
69
72
72
74
76
77
77
81
79
77
76
77
79
81
82
77
76
74
79
86
89
95
95
95
95
96
95
95
93
93
95
93
91
93
96
98
102
106
106
104
104
106
104
102
104
104
102
106
108
108
106
100
102
100
100
98
98
96
93
95
93
93
68
71
71
71
71
72
74
77
79
77
79
76
76
76
79
79
79
74
74
76
81
86
91
93
95
95
96
95
96
98
95
95
95
95
93
95
95
98
102
106
102
102
104
106
106
104
104
104
102
104
104
106
104
100
100
100
96
95
93
93
95
93
91
91
69
71
71
72
72
74
76
79
79
76
76
76
79
77
79
79
79
77
77
81
82
87
95
98
93
93
96
91
95
96
96
95
95
95
93
93
93
96
102
104
102
102
104
106
102
102
102
102
104
104
104
102
100
98
98
98
96
95
93
93
95
93
95
91
69
69
71
74
76
76
79
81
79
76
76
77
79
77
79
79
77
77
81
82
84
91
93
96
96
95
96
95
91
96
100
98
98
96
93
93
95
95
102
104
104
104
108
104
102
102
102
100
98
96
96
98
98
96
96
96
95
93
93
93
93
93
93
91
68
69
72
74
71
74
74
77
77
74
74
74
76
77
77
79
74
77
81
82
87
91
93
96
96
93
96
98
96
100
102
100
100
95
93
91
93
95
98
102
102
102
102
100
106
104
100
96
93
87
91
95
96
96
96
96
95
96
95
93
93
93
93
93
69
69
72
74
74
74
74
74
76
76
72
74
77
77
77
77
79
81
81
82
89
91
93
93
95
93
96
100
98
102
104
100
100
98
93
91
93
91
96
102
106
102
100
100
104
104
96
91
84
81
86
91
95
95
96
95
96
95
98
96
95
95
93
95
68
71
71
74
76
72
74
76
76
76
74
77
79
81
79
81
79
79
82
86
91
93
91
93
95
95
98
98
100
102
100
96
98
96
91
91
91
93
96
102
102
100
102
100
100
98
89
82
81
81
82
87
91
95
96
96
95
96
96
98
95
93
93
93
69
71
71
72
74
72
76
76
76
77
72
76
81
82
82
82
81
82
84
87
93
95
91
91
91
93
95
98
96
96
98
96
96
95
93
91
87
89
93
98
100
100
98
98
98
91
84
81
77
79
82
87
91
93
93
91
93
95
95
95
93
91
91
95
71
71
71
74
72
76
77
74
76
77
76
76
77
81
82
82
84
86
86
86
89
93
93
93
91
91
95
95
95
96
98
98
95
95
93
89
91
89
91
95
96
95
95
93
91
84
77
79
76
77
82
86
87
91
91
91
93
93
95
95
95
91
91
93
71
74
74
72
76
81
76
76
79
79
81
79
81
79
79
81
82
84
86
84
87
93
91
91
91
95
93
95
95
98
102
98
96
96
96
93
89
89
89
89
89
91
91
91
87
81
79
77
79
79
81
84
84
89
91
91
93
93
91
93
95
93
93
93
71
72
76
76
77
77
77
77
77
79
77
77
79
81
81
81
82
87
89
87
89
93
93
93
96
95
95
98
98
96
98
100
96
95
95
93
91
86
84
86
87
87
91
91
87
84
82
79
79
79
81
84
87
91
91
89
89
91
91
96
91
89
89
93
69
71
74
76
76
74
76
77
76
77
76
76
77
81
77
82
82
82
87
89
91
91
95
96
95
96
95
98
102
96
100
100
98
93
95
95
91
87
86
86
86
87
87
87
86
84
84
82
81
82
82
86
89
89
87
93
93
93
93
96
95
93
93
93
68
69
71
74
74
76
77
77
76
77
76
76
77
79
81
84
86
84
86
87
89
91
95
95
95
93
93
95
96
95
100
100
96
95
98
98
93
91
89
89
89
91
87
87
86
86
86
84
81
81
81
84
86
87
89
93
93
95
96
95
96
95
95
93
71
69
71
72
72
76
76
77
79
77
79
81
79
79
82
84
82
84
86
86
87
89
89
93
95
93
93
95
96
98
96
98
98
100
100
100
98
93
91
93
91
89
89
89
89
89
86
87
84
82
84
82
86
87
89
89
91
95
96
95
95
96
95
93
69
69
71
74
72
71
72
76
79
77
79
81
79
82
82
82
82
82
86
86
86
87
89
93
91
93
93
95
96
98
98
98
95
96
98
98
98
98
96
93
93
91
87
87
91
89
89
89
86
82
82
81
84
89
89
87
87
89
98
96
95
95
93
95
71
72
76
74
69
72
76
76
77
76
76
79
79
81
82
81
82
81
86
86
86
89
89
89
91
93
95
96
95
96
100
96
95
95
95
96
96
96
95
93
93
91
87
86
93
89
87
87
87
84
84
82
82
86
87
87
89
91
95
95
95
95
95
96
69
72
72
71
71
74
77
76
76
74
74
77
79
79
81
81
81
82
89
89
87
91
93
91
91
93
95
96
96
98
100
98
93
95
93
93
95
95
89
91
89
87
86
86
93
93
89
89
89
89
86
84
84
84
87
89
91
95
93
95
95
96
93
93
66
69
68
69
72
72
72
74
76
72
72
76
79
79
81
82
84
84
86
89
89
95
93
87
87
91
93
95
95
98
102
98
95
93
95
89
91
89
89
87
84
87
91
91
95
93
93
95
91
87
86
84
82
84
86
86
91
91
93
93
93
91
91
91
66
68
69
69
72
74
72
74
74
72
74
76
79
79
81
82
86
87
87
89
89
91
89
87
87
91
95
95
93
96
100
98
93
93
93
91
89
91
91
86
86
91
96
96
95
93
93
93
89
89
86
84
82
81
82
89
91
91
91
95
93
89
89
89
65
66
72
72
74
76
76
76
76
72
76
79
79
82
82
84
84
86
87
89
89
89
89
89
87
91
95
96
96
96
96
95
93
89
89
89
87
89
91
89
89
95
95
95
95
95
93
93
91
93
87
81
81
81
82
87
93
93
93
91
93
89
89
89
68
69
72
72
74
74
76
74
79
77
77
81
82
84
84
84
84
82
86
87
89
87
87
89
89
93
95
96
98
95
95
96
93
87
87
89
89
89
89
89
89
91
95
93
93
96
93
91
91
89
86
82
79
81
81
87
93
96
95
95
93
91
89
91
66
71
71
71
74
72
74
76
79
81
79
81
82
82
84
84
86
84
84
86
91
91
89
89
91
93
95
96
100
98
95
95
93
87
87
91
91
91
91
91
91
91
89
91
95
95
95
93
89
87
84
81
82
81
82
87
89
93
95
96
96
93
89
93
66
71
71
71
72
72
74
76
79
81
81
84
82
84
84
82
84
84
86
87
89
91
89
91
95
93
95
96
96
96
96
96
93
87
89
93
95
95
91
91
91
89
91
91
93
93
93
93
89
89
86
82
82
82
82
84
87
89
91
95
96
96
93
95
68
68
69
69
72
72
72
74
77
79
79
81
84
86
86
86
84
86
86
89
87
89
89
93
95
91
93
96
98
96
98
96
91
91
89
91
93
96
93
89
89
89
89
91
93
93
93
95
91
93
87
86
84
81
81
82
86
87
89
91
95
93
91
91
66
66
66
68
69
69
72
76
77
79
79
79
81
81
82
84
82
82
86
87
86
86
86
87
91
91
93
95
96
100
100
100
93
91
89
93
95
93
89
89
89
89
87
86
87
87
91
95
95
95
89
87
82
79
81
84
84
86
89
89
93
91
91
93
68
68
69
71
71
72
72
76
77
76
76
79
81
81
81
82
79
81
82
87
86
84
86
87
91
93
93
95
96
102
102
98
95
91
87
87
89
89
91
91
91
91
87
87
89
91
93
91
93
95
93
89
86
79
81
82
81
84
89
89
91
93
95
95
74
72
71
74
76
77
76
76
76
79
79
81
81
82
81
79
81
86
84
86
86
87
87
89
89
96
95
95
96
98
98
96
93
91
91
87
91
93
96
95
95
91
89
87
89
91
87
87
89
89
91
91
87
82
81
81
84
82
87
89
91
95
95
96
74
72
71
72
77
79
77
77
77
77
79
79
81
81
81
81
81
84
87
87
87
89
86
86
91
95
95
93
95
95
95
95
91
89
91
91
93
96
96
95
93
95
93
89
89
89
87
86
89
89
87
89
89
86
82
81
81
81
82
84
89
93
95
96
74
76
72
74
76
74
74
77
77
77
79
79
82
81
79
79
82
84
87
89
89
89
86
87
93
96
95
95
93
95
95
93
89
87
89
91
91
91
91
89
89
93
95
89
89
89
91
89
91
91
91
91
89
86
84
81
79
79
76
79
87
91
93
96
74
74
74
74
76
77
76
76
77
79
77
77
79
77
77
81
81
82
91
93
93
91
89
91
91
93
93
93
93
93
93
89
89
89
89
91
89
89
86
89
91
93
95
89
87
86
86
86
89
91
89
87
87
86
84
82
82
81
76
79
81
86
89
93
74
72
74
74
74
76
76
77
77
77
77
77
77
79
79
84
81
84
89
93
91
91
91
95
91
91
93
95
93
93
89
87
89
87
86
87
86
86
84
89
91
93
91
89
87
86
84
86
91
91
89
87
89
91
86
86
82
79
77
77
77
81
86
93
71
72
76
72
72
72
76
74
76
77
77
76
76
76
79
81
81
86
87
89
86
89
93
91
87
89
91
91
89
91
89
87
87
87
86
87
87
86
86
87
87
91
91
87
87
89
89
89
89
89
89
91
93
91
87
89
84
79
79
74
74
79
84
89
72
71
76
76
74
72
74
74
74
74
77
79
77
76
76
81
81
82
82
84
87
89
91
89
89
89
91
89
89
91
89
91
89
87
87
91
87
86
86
87
87
87
87
87
87
89
87
86
87
89
89
95
95
93
89
93
91
86
82
76
76
79
84
87
76
74
76
77
76
72
74
72
72
74
76
77
76
74
76
76
81
82
82
82
86
89
89
87
89
89
93
91
89
89
89
91
87
87
87
87
87
86
86
89
87
89
91
89
89
87
87
89
89
87
89
95
93
93
93
93
93
87
82
79
76
77
81
84
77
76
74
76
76
72
71
71
71
74
76
77
76
74
76
76
82
84
82
84
86
87
87
91
93
89
87
87
89
86
89
87
86
86
86
86
87
86
87
89
87
89
91
91
89
86
89
91
89
89
91
91
89
89
93
91
89
86
84
82
77
74
79
81
77
74
72
72
72
72
66
68
69
72
76
79
76
74
77
79
81
84
84
86
86
87
89
93
93
89
89
89
89
87
89
91
87
84
84
84
84
87
89
87
91
89
89
91
89
89
91
91
89
86
86
87
86
87
89
89
87
87
86
84
79
76
77
77
79
77
76
76
72
72
68
69
71
69
71
74
72
74
76
81
81
84
86
84
84
87
89
89
91
89
89
91
91
89
89
89
86
87
86
82
86
86
84
87
89
89
89
89
89
91
93
89
89
86
84
86
87
87
87
87
89
91
86
87
87
79
74
76
76
76
76
77
74
74
72
71
72
72
71
72
74
74
77
84
84
84
86
84
86
87
89
89
89
87
89
93
93
91
91
89
86
84
84
81
84
86
89
89
87
89
89
89
89
91
93
89
89
89
86
86
87
87
87
89
91
91
86
87
89
82
77
77
77
77
79
79
76
76
76
74
71
74
74
74
76
77
81
86
84
87
89
89
86
87
87
87
89
87
87
93
93
95
91
86
86
82
82
82
84
86
89
87
89
91
91
89
89
93
93
91
91
91
89
89
87
86
87
87
89
93
86
86
89
84
81
79
77
77
79
77
77
79
79
76
76
76
76
79
79
81
79
84
87
91
91
89
84
86
89
89
87
87
89
93
93
91
86
86
84
84
84
84
86
87
87
87
87
89
89
89
87
87
89
91
91
93
89
86
84
86
87
89
87
89
87
87
89
86
84
82
77
77
79
79
81
81
77
79
77
76
79
77
79
81
82
84
87
89
91
89
87
91
91
89
89
87
89
91
89
87
87
86
87
86
86
86
86
86
86
86
87
87
89
86
86
89
89
91
89
91
89
87
87
89
89
87
86
89
87
87
87
89
86
86
77
79
77
81
81
81
81
82
77
79
81
79
81
82
84
87
87
89
91
91
89
93
91
87
89
87
87
93
91
87
89
86
87
86
87
86
84
86
86
87
89
87
89
87
86
87
91
93
93
89
87
86
89
89
87
86
87
87
86
91
87
87
87
89
77
79
79
79
81
81
82
82
77
79
82
79
81
84
84
84
86
87
89
91
89
89
87
87
89
89
89
93
95
91
89
87
87
87
86
86
87
84
87
87
87
89
89
87
87
87
89
87
87
89
89
87
87
87
86
86
87
86
86
89
89
89
87
93
79
77
77
81
82
82
84
84
81
81
82
82
84
86
89
86
86
89
89
89
91
89
84
86
87
91
89
89
91
91
93
89
89
89
87
89
91
87
86
84
86
84
87
87
87
86
86
86
86
87
86
87
87
91
89
89
89
86
86
87
87
87
89
91
79
77
79
81
81
82
82
82
82
81
82
84
84
86
89
86
86
91
89
87
87
89
86
86
87
93
91
89
93
93
91
93
91
91
91
91
91
86
86
84
84
86
89
89
87
87
86
87
84
87
87
87
89
93
95
95
91
86
86
87
89
89
89
87
79
79
79
81
81
81
81
82
84
81
84
87
87
87
87
89
89
89
93
91
89
89
89
87
93
93
93
91
95
93
93
93
91
91
91
91
87
87
89
87
87
86
86
89
89
87
87
89
86
86
87
89
91
95
98
95
93
91
87
86
87
86
87
87
79
79
81
82
81
81
81
82
79
81
82
87
91
89
91
93
91
89
89
89
89
89
91
89
93
91
87
89
93
93
91
95
95
93
93
95
91
91
89
91
89
86
87
89
87
87
86
86
86
86
89
91
95
96
96
95
91
93
89
86
89
86
86
87
76
76
79
79
79
81
84
82
81
82
84
86
89
89
91
93
91
89
89
89
89
87
87
87
89
89
87
87
91
93
93
95
93
96
95
93
95
91
89
91
89
86
89
93
89
87
87
89
86
84
89
91
95
93
93
95
96
95
89
87
87
86
86
87
76
79
81
82
82
77
82
82
81
84
87
89
91
89
89
89
93
91
89
89
89
87
87
89
91
93
91
91
93
93
95
95
93
96
95
93
93
91
89
89
87
91
93
93
89
89
89
89
89
89
91
89
95
93
95
93
96
95
91
89
89
89
86
89
74
79
81
82
82
76
81
81
82
86
86
87
87
87
87
91
91
89
87
89
91
89
86
87
89
89
91
95
93
96
96
95
93
95
96
91
89
91
93
91
86
91
93
93
93
91
89
89
89
89
91
91
95
91
91
95
96
96
93
89
86
87
89
89
74
76
77
79
81
79
79
81
82
86
84
86
87
87
91
93
91
87
86
87
89
86
86
89
91
93
93
96
95
98
98
98
95
93
91
89
89
89
93
91
91
93
93
93
93
93
93
93
93
93
93
93
95
95
95
96
96
95
93
91
89
91
89
89
72
76
77
77
81
79
79
81
81
82
81
82
86
91
93
93
89
87
84
84
84
84
86
89
91
91
93
95
96
95
98
98
96
93
91
91
89
89
93
93
95
93
93
93
93
93
96
96
95
93
95
96
96
98
98
98
96
93
93
93
91
89
89
89
