P2
# 575 of 608 Angiograms
64 64
255
156
158
161
165
167
168
172
172
168
167
163
163
161
161
161
161
161
165
165
167
168
168
168
170
170
170
170
168
167
167
168
168
167
165
165
167
165
165
163
159
159
159
158
158
158
156
154
148
148
152
156
161
167
167
165
163
161
163
167
168
170
173
178
182
154
158
159
163
165
168
170
170
168
167
165
165
163
161
163
163
163
165
167
167
170
168
168
168
168
168
168
168
168
168
170
172
170
168
167
165
165
167
165
163
163
161
161
159
159
158
154
152
150
152
156
159
161
163
163
163
163
165
167
168
167
170
175
180
150
154
158
161
165
168
168
168
168
167
165
163
161
163
161
163
163
163
165
168
168
168
167
168
168
167
168
170
168
167
168
170
172
172
168
165
167
170
168
167
167
165
163
163
161
159
156
154
152
154
156
158
158
159
159
161
163
165
167
167
168
170
173
178
148
152
156
158
161
167
170
168
167
165
165
161
163
163
159
161
163
163
163
165
167
168
168
168
167
167
168
168
168
168
168
170
172
172
172
168
168
170
168
167
167
168
167
165
163
161
158
156
156
158
156
156
152
154
158
158
161
165
168
168
170
170
173
177
150
150
152
156
158
163
167
167
165
163
165
163
163
163
161
159
159
159
161
163
163
163
165
167
167
165
167
168
168
168
170
170
172
172
173
172
172
172
170
168
168
168
170
168
165
163
159
158
159
159
159
156
152
152
152
156
159
163
168
168
172
170
170
175
154
152
152
154
156
159
161
163
161
163
163
163
163
163
161
159
159
158
159
161
161
161
161
163
165
163
165
168
170
170
170
172
173
173
175
173
172
170
170
168
170
170
170
170
168
167
163
161
163
163
161
158
152
150
148
150
156
161
168
170
170
168
170
172
161
158
154
154
154
158
159
159
159
159
159
161
163
163
161
161
159
159
159
159
159
159
158
161
163
163
165
170
170
170
172
173
175
175
173
173
172
172
170
168
170
168
168
168
168
167
165
163
163
165
163
159
156
150
146
146
152
158
167
170
172
170
170
170
168
163
159
158
156
158
159
158
158
159
161
161
159
161
161
161
159
159
159
158
158
159
158
159
161
163
165
170
172
172
172
172
172
172
173
173
173
172
170
167
167
168
167
168
168
167
167
165
165
167
165
161
158
152
146
144
148
154
161
167
170
170
172
173
173
170
167
163
161
159
159
159
156
158
158
158
158
158
159
159
158
158
158
156
156
158
156
159
161
163
165
170
172
172
172
170
172
172
172
173
172
170
170
167
165
167
165
168
168
167
167
167
167
167
165
161
158
154
150
144
146
152
156
161
168
170
173
177
178
175
172
170
167
161
159
158
156
154
154
154
154
154
156
156
156
156
154
154
154
154
156
158
161
163
163
167
170
172
172
170
172
172
172
170
172
170
170
167
165
165
167
168
170
168
168
168
168
167
165
163
159
156
152
148
146
150
152
156
163
168
175
178
183
180
175
173
170
167
161
159
156
154
152
150
150
152
152
154
152
152
152
152
152
152
154
158
158
159
161
165
168
172
172
172
170
172
170
170
170
170
168
167
163
165
167
168
170
170
170
168
168
168
165
163
159
158
154
150
148
148
150
152
159
167
173
178
186
183
180
177
175
172
167
161
158
156
152
146
144
146
148
150
150
148
150
150
152
152
152
156
158
159
161
163
168
170
172
172
172
172
170
170
168
168
168
165
165
165
165
168
170
170
170
168
168
167
165
161
159
159
156
154
150
150
152
154
159
165
172
177
189
188
185
183
180
177
170
165
161
158
152
146
142
142
142
146
148
148
146
146
150
152
152
154
156
159
161
163
168
170
170
172
172
173
172
170
168
168
165
165
165
167
167
168
170
170
170
168
167
167
163
161
159
156
156
158
154
156
156
158
159
163
168
175
189
189
188
186
183
178
173
168
165
161
156
148
142
141
141
141
144
144
144
144
146
148
150
152
156
159
161
163
167
168
170
170
170
172
173
172
170
168
167
165
165
165
165
167
170
170
170
168
165
165
163
159
156
156
156
159
161
161
161
161
161
163
167
172
189
189
189
188
185
182
177
170
167
163
159
152
146
141
141
141
141
142
142
144
144
148
150
152
154
158
159
163
167
168
170
168
168
172
173
173
172
170
168
167
167
167
168
168
170
170
170
168
165
163
159
159
158
158
158
159
163
163
165
165
163
163
163
167
191
189
189
186
183
182
178
175
170
167
163
159
152
146
144
142
141
141
142
142
144
146
150
152
154
156
159
163
167
167
167
168
168
172
173
173
173
172
170
168
168
168
170
170
170
170
168
167
163
161
159
159
159
159
161
163
165
167
167
167
165
165
165
167
191
189
188
185
182
180
180
178
175
173
170
167
163
158
152
148
144
141
142
142
144
148
148
152
154
156
161
165
167
168
168
168
168
172
173
175
173
172
172
172
170
170
172
172
172
170
167
165
165
163
159
159
161
161
161
165
168
168
168
167
167
167
165
167
191
189
186
183
180
180
180
180
180
178
177
175
173
170
163
159
154
148
146
146
146
146
148
150
154
158
161
165
167
170
168
168
170
173
173
175
175
173
175
173
172
172
172
173
172
170
167
163
163
161
159
159
159
159
161
165
167
168
168
167
168
167
167
167
191
189
188
183
180
180
180
180
182
182
183
183
182
178
175
170
165
158
152
148
146
144
146
148
152
156
159
163
165
168
170
170
172
172
173
175
175
175
175
173
173
173
173
173
173
170
167
163
165
163
159
158
158
158
159
163
167
168
170
168
168
168
167
167
191
189
188
185
182
182
182
182
183
185
186
186
186
185
182
178
172
167
159
152
148
146
146
148
150
152
156
161
163
167
170
170
172
172
172
173
175
175
175
173
173
173
173
175
175
172
168
165
165
163
161
158
158
159
159
161
165
167
168
170
168
168
168
168
192
192
191
186
185
183
183
183
185
186
189
189
189
188
186
183
178
173
167
159
154
150
146
146
148
150
154
159
163
165
168
170
172
173
173
173
175
175
173
173
173
173
173
175
175
173
168
165
165
163
163
161
158
158
159
161
163
165
167
168
168
168
167
168
192
192
192
189
186
185
183
183
186
188
191
191
191
191
189
188
183
178
173
167
159
156
150
146
144
146
150
154
159
163
165
168
172
173
173
173
172
173
172
172
173
173
173
173
175
173
168
165
165
165
165
163
159
159
159
161
161
163
167
167
167
168
168
168
191
192
194
191
188
186
186
186
188
189
191
192
192
191
192
191
188
183
180
173
167
161
156
152
146
142
144
148
156
159
163
165
168
172
173
172
170
172
170
170
172
173
173
173
175
173
170
167
165
165
167
165
163
161
161
163
163
163
165
167
168
168
168
167
192
192
194
192
191
191
189
189
189
191
191
192
194
192
194
192
191
188
185
178
173
167
163
158
150
144
142
144
150
154
158
161
165
167
170
170
170
170
168
168
170
172
172
172
173
173
170
168
167
165
165
165
165
165
165
167
168
167
167
167
168
170
170
168
192
192
192
192
194
192
191
192
192
192
191
191
192
192
195
195
195
192
189
185
178
172
168
163
156
150
144
144
148
150
154
158
161
163
167
168
170
170
170
168
170
170
172
172
173
173
172
170
168
167
165
165
165
167
165
167
168
170
168
168
170
170
170
168
191
191
192
194
194
191
191
192
192
192
191
191
192
194
195
195
196
198
195
191
185
178
172
168
163
154
148
146
146
148
148
152
158
161
163
167
170
172
172
170
172
172
170
172
173
175
172
172
172
170
167
165
165
165
167
168
168
172
172
170
168
168
168
167
191
192
192
192
192
192
192
192
192
192
191
191
194
194
196
196
196
199
199
196
191
183
177
172
167
161
154
150
148
148
146
148
154
158
161
165
168
172
172
172
172
172
172
173
175
175
173
172
172
170
168
165
165
167
168
168
167
170
172
170
168
168
168
168
192
191
191
191
191
191
191
192
194
192
191
191
194
195
198
196
196
196
198
198
194
189
183
177
172
167
159
154
152
150
148
146
150
154
159
163
168
172
173
173
172
172
173
175
175
173
173
172
173
172
170
168
165
167
168
168
167
168
170
170
170
170
168
168
195
192
191
189
189
189
191
194
195
194
191
191
194
196
198
198
196
196
198
198
196
194
189
183
177
172
167
161
158
152
150
148
148
150
156
161
165
170
172
172
172
173
175
175
177
173
175
173
173
172
170
168
168
168
170
170
170
170
170
170
170
170
170
170
198
196
194
191
189
189
189
192
194
194
191
191
192
195
198
198
196
196
198
199
198
196
194
189
183
177
172
168
163
158
154
152
150
150
154
158
163
167
170
168
172
175
177
175
175
173
175
173
172
170
170
170
170
172
172
172
172
170
172
172
172
173
173
172
199
198
196
195
192
189
191
191
194
194
191
189
191
195
198
198
196
196
198
199
199
198
196
194
188
182
175
170
168
163
159
156
154
152
154
156
159
165
168
168
173
175
175
177
175
173
173
172
170
170
168
170
170
172
172
172
172
170
172
172
173
175
175
175
199
198
198
198
195
192
191
191
192
192
191
188
189
192
195
196
196
196
198
199
199
199
198
196
194
188
182
175
172
168
163
159
158
154
156
156
158
161
165
168
172
173
173
173
173
173
172
170
168
168
168
168
168
172
173
173
170
170
172
172
172
173
177
178
198
199
199
198
198
196
194
192
191
191
189
188
189
191
194
195
196
196
196
198
199
199
199
198
196
192
186
180
173
170
168
163
161
158
158
158
158
161
161
163
167
170
172
172
172
170
168
168
168
168
168
167
168
170
173
172
170
172
173
173
175
175
178
180
195
196
198
198
198
198
198
195
192
191
189
188
189
191
192
194
195
195
196
196
196
198
198
199
198
196
192
185
178
173
170
167
163
161
159
159
161
161
158
158
159
163
165
167
167
167
168
168
168
168
167
167
167
167
168
172
172
173
172
173
173
177
178
180
189
192
195
198
198
199
200
199
196
194
192
189
189
191
192
194
194
195
196
198
198
199
199
198
198
196
195
189
183
177
173
170
167
163
161
161
161
163
159
156
156
158
159
161
163
163
167
167
167
168
167
167
167
167
167
170
170
173
173
173
173
177
177
180
183
186
189
194
196
200
202
200
199
198
195
192
191
192
194
194
194
194
196
196
196
196
198
198
196
196
195
191
186
180
175
173
168
167
165
163
161
163
161
158
154
152
156
158
161
163
165
165
167
168
168
167
168
168
168
170
170
173
175
175
175
177
178
180
180
180
182
186
192
198
200
202
202
200
198
195
194
192
194
194
194
195
194
195
195
195
195
196
195
194
194
191
188
185
180
177
173
172
168
167
165
163
161
159
156
152
150
152
156
161
165
165
167
168
170
170
170
170
172
172
172
173
175
177
178
178
180
182
178
178
178
182
186
192
198
202
203
202
200
196
195
194
194
194
194
194
195
195
195
195
196
196
195
194
192
191
189
189
185
180
177
175
173
168
167
163
161
159
158
154
154
152
152
156
159
163
167
168
170
172
173
173
173
175
175
177
178
180
182
182
182
182
177
177
178
178
182
186
192
198
202
202
200
198
196
195
195
194
195
195
195
195
195
195
196
196
195
192
191
191
192
191
189
186
182
178
177
172
168
163
161
159
158
156
154
152
148
150
154
159
163
167
170
172
173
173
175
177
177
177
180
182
183
183
183
183
175
175
177
178
180
182
186
192
198
200
200
200
198
196
196
196
195
196
196
196
196
196
196
196
194
192
192
194
194
194
192
191
186
182
178
175
170
163
161
161
159
158
154
152
150
148
148
154
161
165
168
172
173
173
173
175
177
177
180
182
183
183
183
185
175
173
175
177
178
178
182
186
192
196
199
200
199
198
196
196
196
196
196
196
196
196
196
195
195
195
196
198
198
196
195
192
189
185
182
178
173
168
161
161
159
158
156
154
150
150
148
150
156
161
165
168
172
173
173
173
177
180
182
182
183
183
183
185
173
173
173
177
178
178
178
182
185
191
195
198
199
198
198
196
196
195
195
196
196
196
195
195
196
198
198
199
199
198
195
192
189
186
185
182
177
173
167
161
159
158
158
154
152
150
150
148
152
158
161
165
168
172
172
173
175
178
180
182
182
183
183
183
172
172
175
175
178
178
178
178
180
183
189
194
198
198
198
196
195
195
195
195
195
195
195
196
198
198
199
199
199
198
195
192
189
186
185
183
182
177
172
167
163
159
158
156
152
152
152
152
152
154
158
161
165
168
172
173
175
177
180
182
180
182
182
183
170
172
173
175
177
178
178
178
178
180
183
189
194
195
196
196
195
195
194
194
192
192
194
195
196
198
198
198
198
196
195
192
188
188
188
186
183
182
178
173
168
163
159
158
156
152
152
154
154
154
154
156
159
165
170
172
173
175
178
182
182
182
182
182
170
172
172
173
175
177
177
177
177
177
180
183
186
189
192
192
192
192
192
192
191
191
191
191
194
195
196
196
196
195
194
191
189
191
189
188
185
183
182
180
173
168
161
158
156
154
152
154
156
156
154
154
156
159
167
170
173
175
177
178
180
180
180
180
168
172
172
173
173
173
175
175
175
177
177
178
180
183
186
188
188
189
189
189
189
188
188
188
189
189
192
194
194
194
194
191
189
191
191
191
188
186
185
183
180
173
167
159
158
154
154
154
156
156
154
152
152
156
161
167
170
173
175
177
177
178
178
178
165
168
170
172
173
173
172
172
172
173
173
173
173
175
178
180
183
185
185
185
186
186
185
183
183
186
189
191
192
192
191
191
188
191
191
191
191
189
186
185
183
177
170
163
159
156
154
154
154
152
152
150
150
150
154
159
167
170
172
175
175
175
177
178
156
161
168
170
172
170
168
167
167
168
168
167
167
168
170
173
177
178
182
182
182
182
182
182
182
183
186
188
191
191
191
189
188
189
191
192
194
192
189
188
185
182
177
170
163
159
156
154
154
152
154
152
150
148
148
152
158
167
172
173
173
173
175
177
146
152
158
163
165
163
161
161
163
163
165
163
161
159
163
167
172
173
175
175
175
175
177
178
180
182
185
186
189
189
189
188
189
191
192
192
192
191
191
191
189
185
182
177
170
163
159
158
156
154
154
154
150
150
148
148
152
159
167
170
170
170
173
175
141
142
146
150
156
159
159
159
159
159
161
159
158
156
159
163
168
172
173
173
173
173
175
175
177
180
183
185
186
189
189
189
191
192
194
192
192
191
192
192
191
188
185
182
177
172
167
161
159
156
156
156
152
152
150
148
148
154
159
167
170
170
172
175
135
133
139
141
146
152
156
158
156
158
158
158
156
156
158
161
167
170
172
173
172
170
170
172
175
178
182
183
186
189
191
192
191
191
192
191
189
189
191
192
192
191
189
186
182
177
172
168
163
159
158
159
158
154
152
152
150
152
158
161
167
170
172
173
135
133
131
135
139
144
152
156
158
156
156
158
159
158
158
159
161
167
168
172
172
170
168
170
173
177
180
183
186
189
192
194
192
191
191
191
191
191
192
192
192
192
189
189
186
183
180
175
170
167
161
159
159
158
154
154
154
154
156
158
163
168
172
173
135
131
129
131
135
139
144
152
156
158
158
158
159
159
161
159
159
163
167
170
172
172
170
172
175
178
182
183
186
189
192
194
194
191
189
189
189
191
191
192
191
191
191
191
189
188
185
180
175
170
165
161
158
158
158
158
156
154
154
156
159
167
172
175
137
135
133
131
133
137
141
144
150
154
154
158
159
159
161
159
158
161
165
170
173
173
173
175
177
178
182
185
186
189
191
194
194
192
189
188
189
189
189
191
189
189
191
192
191
191
188
185
182
175
170
165
161
159
159
159
158
156
154
154
158
165
168
173
139
139
137
135
135
137
139
142
144
148
154
154
159
161
161
159
161
163
167
172
175
177
178
180
182
182
183
185
186
188
191
192
194
194
191
191
191
189
189
189
188
186
189
191
191
191
189
186
185
180
175
170
167
163
161
159
158
156
154
150
154
159
167
170
141
139
139
137
139
139
139
141
142
144
148
152
158
161
163
163
163
165
170
173
177
180
182
183
186
186
186
186
186
188
189
191
192
192
192
192
191
191
189
188
186
185
186
189
191
192
191
189
186
183
178
173
170
167
165
159
158
156
152
150
154
156
161
168
142
141
141
139
139
141
139
141
141
142
146
150
154
159
163
165
167
170
175
178
180
182
183
186
188
189
188
185
185
186
189
191
192
192
191
191
192
191
189
188
185
183
185
186
189
191
191
191
189
186
183
180
173
168
167
163
159
159
156
150
152
154
158
163
144
144
142
141
141
144
142
141
141
142
144
150
154
158
163
167
168
173
178
182
183
183
185
186
188
189
188
186
185
185
186
189
191
191
191
189
191
191
189
188
185
183
183
185
188
189
191
191
191
189
188
183
180
173
168
163
159
159
158
154
150
152
156
159
144
146
144
144
144
144
144
142
142
144
148
150
152
156
159
165
168
173
180
183
185
185
185
186
186
188
188
186
185
185
185
186
189
189
191
188
188
189
188
186
185
185
183
185
186
189
191
192
192
192
191
188
183
180
172
165
161
159
159
156
154
152
154
156
144
146
148
146
144
144
146
146
146
146
148
150
152
156
156
161
167
172
178
183
185
185
185
183
186
186
185
185
186
186
185
185
185
188
189
188
188
186
188
188
186
185
185
186
188
189
189
192
194
194
192
192
188
183
178
172
167
161
159
159
158
156
156
156
144
146
146
146
144
146
146
146
148
146
148
150
152
154
156
156
159
167
173
178
183
185
185
183
183
183
183
185
186
186
186
185
183
185
188
189
188
186
186
188
188
186
185
186
186
188
189
191
192
194
195
194
192
189
183
177
172
167
163
161
161
159
159
158
142
144
144
144
144
146
148
148
148
146
146
150
152
156
156
154
156
161
167
172
178
182
182
180
180
182
182
183
185
186
186
185
183
183
185
186
188
186
186
188
188
186
185
186
186
188
188
189
191
192
195
195
195
192
189
183
178
175
172
168
165
165
163
161
141
142
142
142
144
144
144
146
146
146
146
148
152
154
156
154
152
156
159
165
172
177
180
180
180
180
182
183
185
185
186
185
185
182
182
183
185
185
186
186
186
186
186
186
188
188
189
189
191
192
194
195
195
194
192
189
185
180
178
175
173
170
167
165
137
141
141
144
144
144
146
146
146
148
148
148
150
152
154
154
154
156
158
159
165
170
175
178
178
178
180
183
185
185
186
188
185
182
180
178
182
183
185
186
188
188
188
189
189
189
191
191
191
192
192
194
194
194
194
191
189
186
185
183
182
178
173
170
