P2
# 578 of 608 Angiograms
64 64
255
65
63
60
62
60
56
58
60
63
65
62
65
68
66
71
71
74
77
79
79
82
82
77
76
82
84
89
89
86
84
84
81
82
79
77
77
79
77
81
82
81
81
82
77
79
79
77
77
79
77
76
74
76
77
77
81
84
86
82
86
86
84
82
84
65
65
63
63
60
58
56
62
65
68
66
66
66
69
74
72
74
76
77
81
81
81
77
81
86
87
87
87
86
86
84
81
79
79
81
77
79
82
82
86
82
81
81
79
81
79
82
79
77
77
77
77
81
79
79
84
86
87
86
86
87
87
86
86
63
63
65
65
62
59
60
63
65
69
66
66
69
69
72
72
74
74
76
81
81
81
81
82
86
84
82
86
87
87
86
81
81
81
77
76
77
82
82
82
82
79
77
77
81
84
81
81
76
76
77
79
84
81
81
84
87
87
87
86
86
86
84
84
63
63
65
65
65
60
62
63
68
71
66
65
69
72
72
74
76
76
79
82
79
79
82
81
86
82
79
87
86
87
87
84
82
81
76
76
76
79
79
79
77
79
77
76
81
84
81
81
77
74
76
79
86
79
79
82
87
89
87
84
86
84
87
87
62
63
63
63
65
63
63
63
68
68
63
63
68
69
72
74
76
76
79
79
79
79
81
81
87
86
82
84
84
84
86
82
77
77
76
76
76
77
77
77
79
77
76
76
81
82
79
79
81
77
77
79
84
84
82
84
87
89
87
84
82
84
89
89
62
62
60
62
63
63
62
65
66
65
62
63
65
69
71
72
74
76
79
79
79
82
81
79
86
87
86
84
84
82
84
79
77
77
79
77
77
76
79
79
79
77
77
77
82
81
77
79
76
79
79
79
81
84
84
84
87
89
87
84
84
84
87
89
63
63
60
62
60
60
63
65
65
65
65
65
65
68
69
74
76
76
76
76
77
79
79
81
82
84
87
86
82
82
81
81
79
77
79
77
77
79
77
76
76
74
77
79
79
76
77
81
76
77
76
77
79
81
82
84
89
89
86
82
82
84
87
89
65
66
65
62
63
62
63
65
63
63
66
66
68
68
69
72
72
74
72
76
79
79
77
81
81
84
84
87
82
82
82
82
81
81
81
81
79
77
76
77
76
79
79
79
81
79
79
77
77
77
77
77
79
79
81
84
87
84
86
82
82
84
87
87
63
65
68
63
65
66
68
66
63
68
68
68
69
72
72
72
72
72
76
77
82
86
82
79
79
81
81
82
81
79
82
81
81
81
81
81
77
77
76
79
79
81
81
77
77
79
81
77
79
77
79
77
76
74
77
82
84
82
84
86
87
84
84
89
60
65
65
66
68
69
71
71
66
66
66
69
71
72
74
72
72
74
79
76
79
84
81
79
79
81
81
81
81
81
81
79
79
79
79
77
76
76
76
81
77
79
77
79
77
77
77
79
79
77
77
74
76
74
76
81
86
87
86
84
84
84
86
91
60
62
65
71
71
69
71
71
69
65
68
71
69
72
76
76
76
77
79
77
79
82
79
76
79
81
79
81
81
82
82
81
81
79
79
77
76
76
76
77
81
79
77
77
81
79
81
82
79
76
74
74
76
77
77
81
84
86
84
84
84
87
87
89
60
62
65
69
71
69
66
66
68
68
71
68
69
71
74
74
76
77
77
76
77
81
79
81
82
81
81
81
81
84
86
84
82
81
81
81
81
81
77
77
77
79
77
77
79
81
81
79
82
81
76
77
77
76
77
81
81
82
86
84
84
86
89
89
60
63
65
66
68
68
68
65
66
69
66
65
66
68
74
74
76
77
77
74
77
79
77
81
82
79
79
81
81
84
84
84
84
86
84
82
84
82
82
82
79
79
79
81
79
81
82
84
86
84
81
77
77
76
79
81
82
82
82
84
86
84
87
89
62
63
63
65
65
66
68
68
63
65
65
65
66
66
72
74
76
77
76
76
76
77
76
76
76
81
81
79
81
84
84
82
84
84
82
79
79
84
86
86
82
81
77
79
81
81
81
81
82
81
77
74
76
77
77
81
81
79
81
82
82
81
86
89
60
63
65
66
65
68
69
66
63
65
63
63
66
68
71
74
76
76
74
72
74
77
74
77
77
81
81
82
84
82
82
82
81
79
81
77
77
81
84
86
82
81
79
79
81
79
77
77
81
79
76
74
76
76
79
81
79
81
84
82
81
84
89
93
59
62
65
65
63
66
65
65
66
66
66
63
68
68
66
71
72
72
74
72
72
72
74
77
81
82
81
79
79
77
82
84
82
81
81
77
76
79
82
84
81
81
79
81
81
77
77
77
81
77
76
74
74
74
76
81
81
81
84
82
84
86
87
91
58
62
62
60
62
65
65
65
66
69
68
65
63
65
65
69
72
71
74
72
71
74
77
76
81
81
79
81
79
76
79
82
82
84
81
77
77
82
82
81
79
79
79
79
81
79
79
79
76
76
77
74
74
74
77
79
81
82
81
84
87
86
87
87
58
62
60
60
59
62
68
65
62
65
68
65
62
65
66
72
71
72
76
74
72
77
77
77
79
81
81
81
82
79
79
79
81
82
82
81
81
79
79
77
76
76
77
74
79
77
77
81
79
76
76
76
77
76
77
81
82
84
82
82
84
86
87
87
59
60
62
60
60
62
65
66
66
65
63
62
65
66
71
72
69
72
76
76
76
77
77
79
82
82
82
81
81
82
79
79
81
82
82
79
81
79
79
77
74
74
76
77
77
77
81
82
81
79
79
76
79
79
77
81
86
87
86
86
84
84
86
89
60
60
63
62
62
62
62
62
66
65
60
60
62
66
69
71
68
72
77
79
77
77
77
82
84
82
84
81
82
82
81
81
82
81
79
77
77
77
81
77
74
77
79
79
77
79
82
82
81
79
76
76
79
79
77
81
86
87
86
82
82
84
86
91
59
60
62
60
62
62
63
62
66
66
63
62
63
63
65
65
66
71
76
77
77
79
81
84
84
84
84
82
82
81
84
82
86
86
82
79
77
77
79
79
77
77
77
77
81
81
82
81
77
79
79
79
76
76
76
77
86
87
84
82
81
84
89
89
56
59
62
60
62
63
63
60
63
63
65
60
62
62
65
68
71
76
76
76
76
77
79
81
84
87
87
87
86
84
82
86
87
84
82
81
79
81
79
77
76
77
81
82
84
84
84
82
79
79
79
76
76
77
77
77
81
84
82
82
84
86
89
89
59
62
60
63
63
63
63
62
63
66
65
63
62
62
66
69
72
74
74
72
74
77
77
81
86
89
86
87
87
86
84
86
86
82
81
81
81
81
79
77
79
81
82
84
86
84
84
82
81
77
77
74
77
77
77
81
82
82
84
82
84
86
87
91
59
59
60
63
62
62
65
63
66
68
66
65
63
63
68
71
74
74
76
76
79
77
77
79
84
86
81
84
86
87
84
84
84
84
82
82
84
82
79
81
79
84
82
82
84
82
79
79
79
77
77
76
79
81
79
79
81
84
87
86
84
86
87
89
56
59
60
62
60
63
66
65
66
69
69
66
65
66
69
72
74
76
79
79
77
77
79
79
81
86
86
87
84
86
86
84
82
82
84
81
81
81
79
79
79
81
84
82
81
82
81
79
77
76
76
77
77
77
77
76
77
82
87
87
84
84
87
89
58
58
59
60
63
66
65
65
66
72
69
69
72
72
71
72
76
76
77
81
77
81
82
79
82
86
87
89
84
84
86
82
81
82
84
81
81
77
79
81
84
84
81
81
77
81
77
77
74
72
74
76
77
77
79
76
76
77
82
82
84
84
86
89
58
59
60
62
62
65
65
68
71
71
71
72
74
74
72
74
72
72
76
76
79
81
81
81
84
86
87
86
84
82
82
84
81
82
84
81
81
77
79
79
86
86
82
81
79
79
77
74
74
76
77
79
79
79
76
76
74
77
79
81
84
87
87
91
56
59
60
60
62
62
65
69
72
72
72
76
77
74
72
74
72
72
74
76
77
79
84
84
86
87
87
86
84
84
82
81
81
79
82
82
82
82
77
79
84
86
86
84
79
76
74
74
76
79
79
79
82
79
77
76
76
81
79
79
84
86
87
91
56
58
62
62
63
63
63
66
69
72
72
76
72
71
71
71
74
76
76
77
79
81
81
81
86
87
84
84
84
86
82
81
79
79
81
84
82
82
82
81
86
86
84
82
77
76
76
77
76
79
77
77
82
82
79
77
79
79
79
81
82
86
86
89
55
59
62
62
63
63
63
65
68
72
69
72
71
72
71
74
76
76
76
79
79
79
79
79
84
87
86
87
91
91
84
82
79
77
82
84
82
81
81
81
84
82
82
81
74
72
76
77
76
77
77
77
81
81
79
79
81
77
76
82
84
86
87
87
56
59
60
62
62
63
66
66
66
66
69
69
68
72
71
71
72
72
72
76
79
82
81
81
81
86
87
89
89
89
86
81
77
79
81
84
81
81
79
79
79
79
79
81
76
74
74
76
76
74
74
76
77
79
79
79
79
79
79
82
86
87
87
89
56
60
60
63
66
66
66
68
68
65
68
69
68
71
71
72
72
76
74
76
81
82
82
82
82
82
87
86
84
84
82
82
79
79
81
82
81
79
79
77
74
76
74
74
72
76
74
74
77
77
76
77
77
76
77
77
82
84
84
82
84
84
84
87
58
59
59
62
63
66
65
66
66
66
69
69
69
72
71
71
76
77
76
76
77
81
81
81
77
81
82
84
82
82
81
81
79
77
81
81
79
81
81
77
77
76
74
74
71
74
72
72
74
74
77
77
79
79
77
77
79
84
86
84
82
82
86
86
58
60
59
60
63
65
65
66
66
66
68
68
68
71
68
72
76
76
71
76
79
77
77
77
76
79
79
84
82
82
81
77
77
79
81
79
79
79
76
76
74
72
72
71
71
72
72
74
74
72
74
74
77
79
76
76
79
82
82
82
87
87
87
87
58
60
60
63
63
63
63
62
65
65
66
68
71
71
72
76
76
71
71
79
79
77
77
77
79
79
79
82
84
79
79
77
81
81
82
77
77
77
74
74
74
71
69
69
69
71
72
72
76
74
72
76
76
77
74
74
77
82
81
82
87
89
89
87
58
59
62
65
65
65
65
66
66
63
66
71
74
74
74
74
74
74
74
76
79
77
77
77
81
81
82
82
81
79
81
82
82
82
82
79
76
76
72
76
74
76
74
71
71
72
74
76
76
74
74
77
77
77
79
77
76
82
84
84
86
89
89
89
59
59
65
69
68
65
68
69
66
63
66
71
72
72
74
74
77
76
74
76
76
77
77
79
81
81
82
84
79
77
77
81
81
79
79
79
76
77
74
77
74
76
76
74
74
72
74
77
81
76
76
76
77
79
79
79
77
81
84
87
86
87
87
91
60
60
63
66
68
68
69
69
66
68
71
69
71
74
74
76
77
76
77
76
76
77
77
77
77
81
81
79
77
77
77
79
79
81
77
76
77
81
77
76
72
76
74
74
76
77
77
76
79
77
76
79
81
82
81
79
82
82
84
86
87
87
89
87
59
62
63
65
66
68
69
71
68
71
71
72
71
72
72
74
76
76
77
77
76
77
81
81
79
76
77
77
81
77
79
79
79
79
79
77
76
77
77
76
76
76
76
76
77
76
77
79
79
76
77
79
81
84
82
81
81
82
84
84
82
84
89
89
58
63
68
68
69
69
71
72
69
71
71
77
74
74
76
77
77
74
79
79
74
76
79
81
77
77
76
77
81
79
79
79
82
82
84
77
74
79
77
76
76
77
77
77
79
79
79
81
82
81
81
79
82
84
81
84
81
84
87
86
82
86
86
87
58
62
66
66
66
71
69
69
69
71
68
71
72
76
76
77
76
74
81
82
76
76
79
79
79
82
81
79
77
81
82
82
84
84
82
76
77
81
79
79
79
74
77
79
82
82
79
82
84
84
84
84
82
86
82
84
82
82
86
86
84
89
87
86
58
63
66
65
63
66
69
71
71
69
69
69
72
76
76
76
77
77
79
79
76
74
77
81
77
81
81
79
77
82
84
84
84
81
81
77
77
81
81
81
79
77
79
81
81
82
84
84
86
87
84
82
82
84
84
84
84
84
86
84
82
86
82
86
56
62
65
65
65
66
68
76
72
69
72
72
71
72
74
76
77
77
76
74
74
74
77
79
79
81
82
82
82
82
84
82
82
82
82
79
79
82
81
81
81
81
82
81
81
79
81
82
82
84
86
82
82
84
84
87
89
86
86
82
82
86
82
87
55
59
63
65
66
66
69
74
74
72
72
72
71
71
72
74
76
76
72
72
72
74
76
77
82
81
81
79
81
84
84
82
86
82
81
81
81
81
81
82
81
84
86
82
82
82
82
81
81
82
84
84
86
84
84
84
87
87
86
84
87
87
84
89
58
59
60
63
65
68
71
74
74
72
76
74
71
68
71
79
77
74
72
72
74
76
77
79
82
81
82
82
84
84
82
82
82
79
79
82
81
84
81
81
82
82
82
82
82
82
86
82
82
82
84
86
86
84
86
84
87
87
87
87
89
87
84
84
60
60
59
63
65
66
71
72
74
76
74
72
69
69
71
77
76
72
72
72
76
76
76
77
79
79
81
84
82
79
82
82
82
79
81
82
84
82
81
79
82
82
81
82
84
84
82
82
82
84
84
84
86
84
81
86
86
87
89
91
91
87
86
86
59
60
59
63
63
63
69
72
71
69
71
69
69
72
71
72
74
71
71
72
74
76
76
77
82
81
79
82
81
79
81
84
84
81
81
82
84
81
81
84
84
86
82
82
86
82
84
84
84
86
87
87
89
87
82
82
84
86
86
91
87
86
87
87
58
62
62
60
62
63
66
66
65
66
68
68
68
69
71
72
71
69
71
72
76
77
76
79
82
82
79
81
81
81
82
84
84
82
82
86
84
79
79
82
86
87
84
84
86
84
84
84
86
87
86
87
89
86
84
82
87
86
87
87
89
86
86
84
56
58
59
59
59
62
63
65
68
68
68
68
68
68
68
69
68
66
71
74
76
74
74
74
79
79
79
79
79
82
87
84
81
82
86
86
84
82
81
82
84
84
84
86
87
87
86
86
89
87
87
86
84
86
84
84
84
87
89
89
89
86
87
89
58
59
58
58
56
59
63
66
68
69
68
66
66
66
66
68
68
68
69
72
76
76
74
72
77
81
79
76
79
82
84
82
79
81
84
82
81
84
82
82
84
82
86
87
87
84
84
86
87
87
86
86
86
81
84
86
86
87
89
87
87
87
91
91
60
62
59
60
59
58
62
66
65
66
66
65
65
65
65
66
66
68
68
69
72
74
74
76
81
82
82
79
79
84
82
81
77
77
79
82
82
86
84
82
81
82
82
82
84
84
84
84
84
86
86
82
86
84
86
86
89
89
87
87
91
89
87
87
56
59
56
58
59
58
60
60
62
62
65
66
65
65
65
66
66
66
68
68
72
72
76
79
82
77
79
81
79
79
82
84
81
81
84
84
84
84
84
82
82
84
81
82
86
87
84
86
87
86
86
86
86
84
86
84
87
89
87
87
86
86
86
84
55
55
56
55
56
58
60
60
59
60
63
62
63
65
65
65
65
68
69
71
69
69
76
79
77
77
79
81
81
82
81
82
82
82
86
84
82
84
84
84
82
81
79
81
86
87
87
86
86
86
86
84
84
82
81
84
87
89
87
86
86
87
86
84
52
54
55
58
58
56
59
59
60
60
62
62
63
63
65
66
69
72
72
69
71
72
76
77
79
81
81
82
82
82
81
84
86
87
84
81
84
86
86
84
81
79
82
82
86
87
87
86
87
87
86
86
84
84
84
84
87
91
87
87
82
86
86
84
54
54
54
58
56
58
60
60
62
62
65
65
65
65
66
68
72
72
74
72
74
77
77
81
82
82
82
82
82
82
82
84
87
87
84
82
84
86
84
82
81
81
82
82
84
86
89
87
89
87
87
86
86
86
86
84
87
93
89
87
86
87
91
87
54
54
56
55
55
58
56
62
60
60
66
66
66
66
69
72
72
76
76
74
77
77
81
84
86
84
82
82
86
82
82
84
86
84
82
84
84
84
84
81
82
84
82
82
84
86
87
86
87
89
89
86
82
84
82
84
89
91
91
89
86
87
91
86
52
52
56
55
55
58
59
63
65
65
66
69
69
69
72
72
72
76
76
74
76
81
86
87
87
86
86
87
87
82
86
84
86
86
84
87
87
86
82
82
82
84
84
81
82
86
84
86
87
89
91
86
81
82
84
86
91
89
89
89
84
86
87
86
52
54
56
59
60
58
60
63
68
68
69
71
72
71
71
71
72
74
76
74
79
86
89
86
87
86
84
84
82
84
84
86
86
86
87
87
86
82
81
82
87
87
86
86
86
84
84
86
87
89
87
84
84
87
87
86
87
87
87
86
86
86
84
84
55
54
56
59
63
60
62
63
68
71
71
68
71
72
71
71
71
71
71
71
77
84
86
86
87
84
84
82
82
84
86
86
86
87
87
86
84
86
84
84
86
86
87
86
87
87
84
86
87
89
89
87
87
87
86
84
86
86
87
86
84
84
86
84
52
54
56
62
65
63
65
65
68
71
69
68
72
72
68
68
69
71
71
71
76
81
82
84
84
82
84
86
86
87
86
86
84
86
87
84
86
87
86
89
89
87
86
89
89
86
84
86
86
86
87
89
89
87
84
86
86
84
86
84
86
86
87
87
52
55
58
60
66
65
63
65
68
69
69
69
71
69
69
69
69
72
74
72
74
77
81
82
84
84
86
87
87
87
87
86
84
84
84
86
87
87
87
89
89
89
87
87
89
86
86
87
86
87
87
89
87
86
84
84
86
86
86
87
84
86
84
84
54
56
60
65
68
66
65
63
63
66
68
68
71
69
71
74
72
72
74
74
74
76
79
86
87
86
84
87
89
86
86
84
82
81
84
86
86
86
89
86
86
86
86
86
87
87
84
86
86
87
87
87
86
86
86
86
84
86
89
86
86
87
84
82
55
58
62
62
65
65
65
65
65
66
68
69
71
71
69
69
71
71
74
76
74
74
79
84
86
87
84
87
91
87
86
84
82
82
84
84
86
87
86
86
87
87
86
86
87
86
86
84
87
91
89
87
87
86
86
84
81
86
89
87
87
87
84
82
58
58
60
63
63
66
66
66
69
69
68
69
71
72
69
69
71
71
74
76
77
77
79
79
79
82
84
87
86
84
84
82
82
84
86
86
87
86
86
86
87
89
91
86
86
86
86
86
89
89
93
89
87
87
84
84
84
86
87
86
86
87
84
84
