P2
# 579 of 608 Angiograms
64 64
255
172
167
161
159
159
159
161
163
170
172
175
173
172
170
167
167
165
165
167
165
165
167
165
165
163
163
165
165
163
163
165
167
167
165
165
167
170
170
170
168
167
165
165
163
161
161
161
161
161
161
161
159
159
158
156
154
150
148
150
152
156
161
163
165
177
172
167
161
159
158
158
161
167
170
173
172
172
172
170
165
161
161
161
161
163
163
163
163
163
161
161
163
161
161
165
165
165
163
165
165
167
168
170
168
168
165
163
161
161
159
159
159
161
161
161
161
159
159
158
158
154
150
148
152
152
156
161
163
183
178
173
167
161
159
159
159
163
167
170
172
173
173
172
168
163
159
159
161
161
161
163
163
163
161
161
161
163
163
163
163
163
163
163
163
163
165
167
167
165
163
159
159
158
158
156
158
159
161
161
163
161
159
159
161
158
154
150
148
150
154
158
161
188
185
180
173
168
163
159
158
159
163
167
170
173
172
172
170
167
161
159
159
161
163
165
165
163
161
161
163
163
163
163
163
161
161
159
161
161
163
163
163
161
158
159
159
158
156
158
159
161
163
165
165
165
161
159
161
163
161
156
150
150
152
156
159
192
189
186
182
175
168
163
158
156
158
163
167
170
172
172
172
170
165
163
163
163
165
167
167
167
163
163
163
163
163
163
163
163
161
161
159
159
159
159
159
159
156
158
159
161
159
161
163
163
165
165
168
167
165
163
165
165
165
163
158
154
152
154
159
196
195
192
188
183
178
168
163
156
156
158
161
165
168
170
168
170
168
168
167
167
168
168
168
168
167
165
165
165
163
161
163
165
163
161
161
158
158
156
158
158
156
156
159
161
163
165
167
167
168
168
170
168
167
167
167
168
168
167
163
159
156
154
158
198
199
198
194
189
185
178
168
161
156
154
156
159
163
168
168
170
170
170
170
172
172
172
170
170
168
167
165
167
165
163
165
165
163
163
161
159
156
154
156
158
156
158
158
159
163
165
167
167
168
170
172
172
170
168
170
172
170
168
167
163
159
158
156
198
199
200
199
195
191
185
177
168
161
156
154
154
156
161
165
168
172
172
173
173
173
173
172
170
168
167
167
167
165
165
165
163
163
161
161
158
158
154
154
154
154
154
156
159
161
165
165
165
167
170
172
172
172
170
170
170
170
168
167
167
163
159
158
196
198
199
200
198
195
189
183
177
168
161
156
152
152
154
158
163
168
172
173
172
173
173
172
170
168
167
167
167
165
165
163
161
161
161
161
159
158
156
152
152
150
152
154
158
161
163
163
165
167
168
170
173
173
172
172
170
168
170
168
167
165
163
159
198
198
199
200
199
198
195
189
182
177
170
163
154
152
148
150
156
163
167
170
172
172
175
172
172
168
167
168
168
167
163
159
158
158
159
161
159
158
156
152
152
150
152
156
158
163
163
165
165
165
167
170
173
175
172
172
170
168
170
172
170
168
165
163
199
198
198
199
199
199
198
194
188
182
177
172
163
156
148
146
150
156
163
167
168
170
173
173
173
170
167
167
168
167
163
159
156
156
156
158
158
156
156
154
152
152
152
156
158
163
163
167
165
165
167
168
170
173
173
172
172
172
172
170
172
170
168
167
200
199
198
198
199
199
199
196
194
188
183
180
173
165
154
148
148
152
158
163
167
168
170
172
172
170
167
167
167
167
161
159
158
156
154
154
156
158
158
156
154
152
152
154
159
161
163
167
167
168
168
167
168
170
172
172
170
170
168
172
172
172
170
168
202
200
199
198
198
199
199
199
196
192
188
185
180
173
165
156
152
154
156
158
163
167
168
170
170
168
167
165
168
167
161
159
158
156
156
158
158
158
158
158
158
154
152
154
158
163
165
167
170
172
170
168
168
168
170
172
170
168
168
172
173
173
170
168
202
202
202
200
199
198
199
199
199
196
194
189
185
180
175
167
161
159
158
158
158
161
165
168
168
168
167
167
167
168
163
161
158
158
158
158
159
158
158
159
159
156
156
156
159
163
165
167
172
172
173
172
168
168
168
170
168
167
168
170
173
172
170
170
202
203
203
202
200
200
200
200
199
199
198
195
189
185
180
177
170
167
163
159
156
158
161
163
165
167
167
167
167
168
165
161
159
158
158
156
158
158
156
154
156
156
154
156
159
163
165
168
170
172
172
173
172
170
170
170
167
167
167
168
172
172
172
172
198
202
203
202
202
200
200
199
199
199
200
198
195
189
185
182
178
173
168
165
159
158
158
159
163
165
165
167
168
168
167
163
159
159
158
156
158
158
156
156
156
156
154
158
159
165
167
168
170
170
172
173
173
172
172
170
168
167
165
168
172
172
172
170
195
198
202
203
203
202
200
200
200
200
200
200
199
195
189
185
183
180
177
172
165
159
156
158
159
161
163
165
167
168
168
165
161
159
159
158
158
159
158
156
156
156
158
158
161
167
168
168
168
170
172
172
173
173
172
172
170
168
168
170
172
172
170
170
191
195
199
199
202
202
200
200
200
200
200
200
200
198
194
189
186
185
183
178
172
167
159
158
156
158
161
163
165
167
168
167
165
163
159
159
159
159
159
156
156
158
159
159
163
167
168
168
168
170
170
172
172
172
173
173
172
170
170
170
172
172
168
170
186
192
195
196
198
200
199
199
200
202
202
202
200
199
198
194
189
188
186
183
178
173
167
159
156
156
158
161
163
165
165
165
165
165
163
161
161
161
159
158
158
159
161
163
163
167
167
167
168
168
170
172
172
173
173
173
173
172
170
170
172
173
170
170
182
186
191
195
195
196
199
200
202
202
203
203
202
200
199
196
194
191
189
186
180
177
172
165
159
156
156
158
159
163
165
165
167
167
165
163
161
163
161
161
161
161
161
161
163
167
167
167
168
170
172
173
172
173
172
172
172
172
172
170
172
175
172
172
178
182
185
189
192
194
196
199
202
204
205
205
204
200
199
198
195
192
191
186
182
178
175
170
165
161
158
158
159
161
163
167
167
168
167
165
165
165
165
165
165
165
163
161
161
163
167
167
168
170
170
172
170
170
170
172
172
172
172
172
172
175
173
173
177
178
182
185
188
189
192
195
200
203
205
207
205
203
200
198
196
194
191
188
183
180
177
173
168
167
165
163
161
161
161
165
168
168
168
167
165
167
167
168
168
168
165
163
161
161
163
163
167
168
168
168
168
167
168
170
172
172
172
172
172
173
175
175
177
177
178
182
183
185
189
191
194
199
203
205
205
204
202
199
196
195
191
188
186
182
180
177
173
172
170
168
167
163
161
161
165
168
168
168
168
167
168
170
168
168
167
163
163
161
159
161
165
167
170
168
167
167
168
172
172
172
173
172
172
173
175
175
177
177
178
178
180
182
185
186
188
192
196
200
203
203
202
199
198
195
191
189
188
186
182
180
178
178
177
175
172
168
165
163
163
165
168
170
168
167
168
168
168
168
167
163
161
161
161
163
165
167
168
168
168
168
170
172
173
172
173
172
173
175
175
173
177
175
177
177
177
178
182
183
183
185
189
195
198
200
200
200
199
196
192
189
188
188
186
185
183
182
182
182
178
173
170
167
167
165
167
168
168
168
167
168
170
167
167
161
159
163
161
163
165
165
167
170
170
170
172
173
172
173
173
173
173
173
173
173
175
173
173
172
172
173
177
180
180
182
183
188
192
196
199
200
202
199
195
192
191
189
188
188
188
186
186
186
185
182
177
173
170
168
167
165
167
167
167
167
168
168
167
163
161
163
163
163
163
163
165
168
172
168
170
172
170
172
173
175
175
175
173
172
173
170
168
170
170
170
173
177
178
180
182
183
188
192
196
200
202
203
199
195
192
192
191
191
191
189
189
189
189
186
183
180
175
172
168
165
165
165
167
167
168
170
168
165
163
163
165
163
163
161
163
165
167
167
167
170
170
170
173
177
177
175
173
172
173
170
168
168
168
168
170
173
177
178
180
182
183
188
192
198
203
204
204
199
195
194
192
192
192
191
192
194
192
191
188
183
182
177
173
168
167
167
167
168
167
170
168
165
163
163
163
163
163
161
159
161
165
167
165
168
168
168
172
177
177
177
173
170
173
172
170
168
168
168
170
172
175
177
180
180
182
185
188
194
199
203
204
203
199
195
194
194
192
192
192
195
195
192
191
188
186
183
178
173
170
168
167
167
165
167
167
163
161
161
161
161
161
161
158
159
161
163
165
167
167
167
170
175
178
178
175
172
173
172
172
170
170
170
170
172
173
173
177
178
180
182
185
189
194
199
202
203
202
199
196
194
192
191
194
195
195
195
194
191
189
188
185
180
175
172
170
167
167
165
163
159
159
159
161
161
159
159
161
159
161
165
167
168
167
168
170
175
178
180
177
173
170
170
172
172
172
172
170
170
172
172
172
173
175
180
182
185
188
192
198
202
202
200
199
195
195
194
195
195
196
196
195
194
192
191
189
186
182
177
173
168
165
163
159
159
158
159
159
159
159
161
161
161
161
165
168
168
167
170
172
175
178
178
178
175
168
170
170
170
172
172
170
170
168
168
170
172
173
177
180
183
185
188
192
196
199
200
200
199
198
196
196
196
198
198
198
195
195
195
194
192
188
183
178
172
167
165
161
159
159
159
159
159
161
161
163
165
163
165
167
168
168
170
172
173
177
177
178
177
167
168
168
168
168
170
170
170
168
168
170
172
173
177
180
182
183
185
186
191
195
199
200
202
200
200
199
196
198
198
199
198
198
198
198
198
194
188
182
177
170
167
165
161
161
161
159
159
161
161
161
165
165
165
167
168
168
168
168
170
173
175
177
175
165
165
167
167
167
168
168
168
168
168
168
172
173
177
178
180
182
182
183
185
189
194
198
200
202
202
200
198
198
198
198
199
199
200
200
199
196
194
188
182
177
170
165
163
161
161
159
158
159
159
161
165
167
165
167
168
168
168
168
168
172
173
173
173
163
163
163
163
163
165
167
168
168
168
168
170
173
177
180
180
182
180
180
182
183
188
192
196
200
202
202
199
198
198
198
199
199
202
203
202
200
196
192
188
182
175
170
165
161
159
158
158
159
163
163
163
167
167
167
167
167
167
168
167
170
172
173
173
163
161
161
161
159
161
163
167
168
168
168
168
172
177
180
182
182
180
180
178
180
183
188
192
196
200
202
200
198
198
198
199
200
200
202
203
203
200
196
192
188
182
175
168
163
159
158
156
158
163
163
165
167
167
167
167
168
168
167
167
168
172
173
173
161
159
161
158
158
159
161
163
167
168
168
168
172
175
180
180
182
178
180
180
178
180
185
188
191
196
199
199
199
199
199
199
200
200
202
203
204
203
200
195
192
186
180
173
165
158
156
158
158
159
161
163
165
167
168
168
170
168
168
168
168
170
170
170
159
159
159
158
156
158
159
161
163
165
167
168
170
173
177
180
182
180
178
180
178
178
180
183
185
189
194
196
199
200
200
200
202
202
202
203
204
204
203
199
195
192
188
180
170
161
159
159
158
158
159
159
163
167
168
168
170
168
167
168
167
170
172
168
158
158
159
158
156
156
156
158
159
161
161
163
167
170
173
177
180
180
178
178
180
178
180
180
182
183
186
191
195
198
200
202
203
203
203
203
204
204
204
202
198
195
192
186
177
168
163
161
161
159
159
159
161
163
165
167
168
168
168
168
167
167
168
168
154
158
159
158
154
152
154
154
156
158
159
161
163
168
172
173
178
178
180
178
180
180
178
180
178
180
180
183
188
195
199
203
204
204
203
203
203
203
203
202
200
198
195
189
183
177
170
165
163
161
159
156
158
161
163
165
165
167
167
165
165
165
167
167
150
156
159
156
152
150
150
152
152
154
156
158
161
165
170
172
175
177
178
178
180
180
178
178
177
175
175
177
182
189
196
200
203
204
203
203
202
202
202
202
202
200
196
192
189
185
177
172
167
163
161
158
156
158
159
161
163
165
163
161
161
161
163
165
152
158
158
156
150
148
146
148
148
150
154
156
158
163
167
170
173
175
177
178
178
180
180
177
175
172
172
173
175
182
189
196
200
202
202
203
202
202
200
200
200
200
198
195
192
189
185
177
172
168
163
159
156
154
156
156
159
161
161
159
159
159
161
163
152
158
161
156
150
148
144
144
146
146
148
152
156
159
163
167
170
172
175
177
178
180
178
177
175
173
173
173
172
175
180
188
195
199
200
200
200
199
199
199
199
199
198
195
194
191
188
183
177
172
168
165
159
156
154
150
150
154
156
158
158
159
161
161
148
156
159
158
152
148
144
142
142
146
148
150
154
158
159
161
163
168
172
173
177
177
178
178
175
175
175
175
172
172
175
182
186
192
196
198
196
196
195
195
195
195
195
195
194
192
189
186
182
177
172
168
167
161
158
152
148
148
152
156
158
159
159
159
139
150
156
156
152
148
142
139
139
142
148
150
154
158
159
158
159
163
167
170
173
177
177
177
177
175
177
175
173
172
173
175
178
183
189
192
194
194
192
192
192
192
194
194
192
192
189
186
185
180
175
173
170
167
163
158
152
150
150
152
156
156
159
159
129
139
148
154
152
148
142
141
139
141
146
150
152
154
156
156
158
159
163
165
170
173
175
175
175
177
177
175
172
172
170
170
172
175
180
185
188
189
189
191
191
191
191
191
191
189
189
188
186
183
180
177
172
170
167
163
158
152
150
150
152
156
158
159
125
129
137
146
150
148
144
142
141
142
144
148
150
154
154
156
156
158
159
161
165
168
172
172
173
173
175
173
173
172
170
168
168
168
172
177
183
186
188
189
189
189
189
189
188
189
189
189
188
186
183
180
175
172
168
167
163
158
154
152
152
154
156
158
127
129
129
135
142
146
146
146
146
146
146
146
150
152
154
156
156
156
158
158
161
165
168
168
170
172
172
173
173
172
168
167
165
163
167
170
175
180
183
186
188
189
189
189
189
191
192
191
191
189
188
183
178
173
172
170
167
163
159
156
154
152
154
158
133
131
129
131
135
142
146
150
150
146
146
148
148
150
152
154
152
154
156
156
156
159
161
165
165
167
167
168
168
168
167
165
163
161
161
165
170
173
178
182
185
186
188
189
191
189
191
191
192
192
191
188
183
177
173
172
168
167
163
159
156
154
154
154
139
133
129
131
133
137
141
148
150
152
150
150
150
148
150
154
154
154
156
156
156
156
156
158
159
161
163
165
165
165
163
161
159
158
159
161
163
168
172
177
180
183
186
188
189
189
192
192
194
194
192
191
188
183
177
173
172
168
165
161
159
156
154
154
148
139
131
129
133
133
137
142
148
152
154
152
150
150
150
152
154
154
154
154
154
154
154
154
154
156
156
158
158
159
159
159
158
158
159
161
161
163
167
172
177
180
183
186
191
192
192
192
194
194
194
192
191
188
182
177
173
172
168
165
161
158
156
156
154
144
135
129
131
131
133
139
144
150
152
154
152
150
148
152
154
152
152
152
152
150
150
148
148
148
150
150
152
154
154
156
158
159
159
161
161
163
165
168
173
178
182
185
189
192
194
194
194
195
195
194
192
191
188
183
178
173
172
168
163
159
158
158
158
148
139
137
135
135
135
139
141
144
148
150
150
150
150
152
152
150
150
146
146
146
144
146
144
146
146
144
146
150
150
152
154
158
158
159
161
163
165
168
170
177
180
183
186
189
192
194
194
196
196
196
195
195
194
191
186
180
175
170
167
161
161
161
154
148
141
141
139
137
139
142
141
142
142
142
146
150
150
150
152
150
146
144
146
146
144
146
146
146
146
144
146
148
148
148
152
158
159
159
161
163
167
168
172
177
180
183
186
186
188
191
194
195
196
196
196
196
198
195
192
186
180
173
168
163
163
163
154
148
144
141
142
141
141
144
142
141
139
137
139
144
148
148
148
146
142
144
146
150
150
150
150
150
148
146
146
148
148
148
152
158
161
161
163
165
168
170
173
175
178
182
185
186
185
188
192
194
196
196
196
196
199
196
195
192
188
180
172
167
163
165
152
148
148
146
144
144
144
144
144
142
139
133
133
137
141
142
142
142
141
142
146
152
154
152
154
152
152
150
148
148
150
150
154
159
163
165
167
168
170
173
175
175
177
180
183
185
183
185
188
191
195
196
198
198
199
198
196
194
191
185
175
168
167
167
154
152
154
150
146
146
148
148
148
146
141
135
131
131
133
137
139
141
141
142
148
152
154
156
154
154
156
154
152
152
152
154
158
163
165
168
170
172
173
175
177
175
175
180
182
183
183
183
185
188
192
196
198
198
198
198
195
194
191
188
180
170
167
167
156
154
154
150
148
148
150
152
150
148
142
139
133
129
127
129
133
137
139
142
148
152
154
156
156
156
158
156
154
152
154
156
159
165
168
170
172
173
175
177
178
177
177
178
180
182
185
185
185
186
191
195
196
198
196
196
194
192
191
188
183
175
168
168
158
156
154
152
150
150
150
150
150
148
144
141
137
129
125
123
127
133
137
139
146
152
154
156
156
156
156
156
154
154
154
158
161
167
168
170
172
175
177
178
180
180
178
178
180
182
183
185
185
185
188
192
195
196
196
195
192
191
189
188
185
178
172
170
158
156
156
152
150
148
146
146
146
144
142
142
139
133
127
123
125
129
133
137
142
148
154
154
152
154
154
154
154
154
154
156
161
167
170
170
172
173
175
178
180
180
178
178
178
180
182
185
185
185
186
189
194
195
196
194
191
189
189
189
186
182
177
172
159
158
158
154
150
146
142
142
144
142
141
141
139
135
129
127
127
129
131
133
137
144
148
152
152
152
154
154
154
154
154
158
161
167
170
170
172
173
175
177
177
178
178
177
178
178
180
183
185
186
186
188
191
194
195
194
192
191
191
189
188
183
180
177
159
159
158
154
152
144
139
139
141
141
141
137
135
135
131
131
131
131
133
133
135
139
142
148
150
150
152
156
156
158
156
159
161
165
168
172
173
172
173
175
178
177
177
177
177
177
178
182
185
186
188
188
189
194
195
194
194
191
189
191
189
186
183
180
156
156
156
154
150
142
133
133
137
137
137
135
133
135
133
135
135
135
135
135
135
137
139
142
146
150
152
154
154
156
156
159
161
163
167
170
172
172
173
173
175
177
177
175
177
175
177
178
183
185
186
188
189
192
194
195
194
192
191
192
192
189
188
185
152
150
154
154
152
141
133
131
135
135
133
133
133
133
137
141
141
137
137
137
137
139
139
139
141
144
148
148
150
154
158
159
159
161
165
168
172
172
173
173
175
175
175
175
175
175
173
175
178
183
185
186
188
189
192
194
194
192
191
194
194
192
189
189
