P2
# 582 of 608 Angiograms
64 64
255
91
91
89
89
87
87
87
84
81
86
84
86
84
84
81
79
81
82
81
82
82
84
87
89
87
91
93
91
86
81
84
89
91
91
91
93
93
93
95
96
96
98
98
96
96
95
87
81
76
71
74
74
74
77
81
86
89
91
96
98
100
98
96
93
89
89
87
87
86
87
86
86
84
86
84
84
84
86
84
84
82
81
82
84
79
82
86
87
86
87
89
87
82
81
86
87
91
91
89
95
95
93
95
96
96
98
95
95
95
91
84
77
72
69
72
71
72
74
81
87
91
93
95
98
98
100
100
95
89
89
86
86
84
87
84
87
86
84
84
82
84
86
86
82
82
81
82
86
84
84
87
87
86
86
86
82
77
79
87
87
89
89
91
95
98
98
96
93
95
96
96
95
93
89
84
76
71
69
72
71
72
74
81
87
91
95
96
100
100
100
98
95
89
91
86
87
86
86
84
86
86
84
81
82
84
86
82
82
81
79
82
84
84
84
86
89
87
86
84
81
77
79
86
91
91
93
93
95
98
98
96
93
93
95
96
96
95
89
82
74
68
69
71
72
74
76
82
86
89
95
98
100
100
98
95
96
89
89
86
84
86
87
87
89
87
84
81
84
84
82
81
82
81
79
77
79
81
84
87
87
87
87
84
81
77
81
86
91
89
93
93
93
93
98
93
91
93
93
95
95
93
87
82
72
71
71
71
69
72
76
82
87
93
95
102
102
100
100
98
98
91
89
87
84
86
87
87
87
87
82
81
82
84
82
79
82
82
81
77
79
81
84
87
87
86
87
86
81
79
79
86
89
87
91
95
93
91
95
95
96
93
91
91
93
91
87
81
72
71
74
71
69
71
72
79
87
89
95
100
100
100
102
98
96
93
93
89
86
87
86
86
86
86
84
82
79
79
82
82
84
82
81
82
82
84
86
89
91
89
86
84
82
81
81
86
89
89
89
93
93
93
95
96
98
95
93
91
89
89
86
82
74
69
68
66
69
68
72
79
86
89
95
98
96
98
100
100
98
93
93
93
91
86
86
84
89
87
86
84
81
79
79
82
84
82
79
79
81
86
86
87
91
91
87
84
84
82
81
86
87
87
87
91
93
95
96
95
96
96
93
93
95
93
91
86
76
71
68
65
66
68
71
79
84
87
93
96
96
102
104
100
100
91
93
91
91
91
87
87
91
89
89
87
84
82
82
82
86
86
82
79
82
86
84
87
91
91
87
87
87
84
81
82
86
86
89
87
87
91
91
89
91
93
91
93
95
95
91
86
77
72
68
66
69
68
72
81
82
87
89
96
100
102
102
102
102
93
93
91
91
89
89
87
89
89
89
87
86
86
82
82
84
86
82
81
84
84
84
89
89
86
82
86
87
81
77
79
84
87
87
87
87
91
89
87
89
89
93
93
96
96
91
87
77
71
68
66
69
68
74
77
82
86
87
93
96
100
102
102
102
91
95
93
91
87
89
87
87
87
87
86
84
87
86
87
84
84
84
84
86
84
84
89
86
82
82
82
81
77
77
81
82
87
89
89
89
89
87
89
93
91
91
93
95
98
95
87
81
74
69
68
69
69
72
76
79
84
87
89
95
102
104
102
102
89
93
95
91
87
89
87
86
84
86
86
86
87
89
89
87
84
82
84
82
81
87
86
86
86
82
79
79
77
79
82
84
87
87
87
89
91
93
89
91
91
93
91
93
95
95
91
82
76
71
69
69
69
71
76
81
86
86
86
91
100
104
102
102
87
91
93
91
87
87
89
87
84
86
87
86
87
91
84
86
86
82
87
84
84
84
84
84
86
82
79
77
82
81
79
82
84
87
89
89
93
91
91
89
93
93
87
89
89
95
93
86
77
71
66
66
69
71
74
79
86
84
82
87
95
98
102
100
86
87
91
91
89
87
89
91
91
86
87
87
89
87
87
86
86
84
87
84
87
89
86
82
86
82
82
81
82
82
82
86
86
84
87
89
93
91
91
89
91
87
89
89
91
96
95
87
79
74
68
65
68
68
72
76
81
81
79
84
89
95
98
96
86
87
89
91
87
87
89
89
89
87
87
86
86
84
86
86
86
86
87
86
87
87
84
84
84
84
82
82
82
82
84
82
82
84
87
91
95
91
91
91
93
91
91
95
95
96
93
89
81
74
71
66
66
66
69
71
74
77
81
84
86
91
93
93
86
89
86
86
87
89
87
89
86
87
86
87
84
82
82
82
84
84
86
84
87
86
86
86
82
86
86
86
89
86
82
81
79
81
86
89
93
89
86
89
91
93
93
93
96
96
95
93
84
76
68
65
65
66
66
71
74
76
79
86
86
86
89
93
86
86
84
86
89
89
89
91
87
86
86
86
86
86
82
81
82
84
84
86
86
87
91
87
86
87
87
91
89
89
86
84
82
81
84
89
89
87
86
87
91
91
91
91
95
93
95
95
87
79
69
66
63
66
66
66
71
72
76
81
82
86
87
87
89
87
87
87
89
91
93
95
91
87
87
86
86
87
84
82
84
86
86
87
87
91
91
87
86
87
87
84
84
86
89
84
81
82
82
86
86
86
87
87
91
89
91
91
95
95
95
95
89
84
74
68
68
68
66
62
65
71
76
77
81
82
86
87
91
91
87
89
89
91
96
96
95
89
89
89
87
87
86
84
86
87
86
86
89
89
89
89
89
87
84
81
84
84
84
86
81
81
82
84
86
87
91
91
91
91
93
93
96
98
98
95
93
86
76
71
68
65
62
62
63
69
72
79
82
86
87
87
87
89
87
89
89
93
93
95
93
91
93
91
86
86
87
87
87
87
84
86
89
87
87
89
89
87
82
77
79
82
82
86
86
82
84
84
87
89
87
87
89
89
93
93
96
98
98
93
91
87
77
72
68
62
62
62
65
71
74
79
82
87
91
91
89
87
86
86
89
89
89
89
89
91
93
89
87
87
89
89
87
87
87
89
89
91
91
89
87
87
82
79
81
84
81
84
86
84
86
86
87
89
87
86
86
89
91
91
93
95
95
96
95
91
81
74
69
65
63
63
65
71
76
81
86
89
91
96
89
87
86
87
91
89
89
87
93
91
91
87
87
89
87
87
87
86
87
87
86
87
89
89
87
87
84
82
84
84
84
86
86
86
87
87
86
86
86
86
87
91
91
91
93
93
95
96
96
89
87
79
71
65
62
60
66
72
77
84
86
91
93
96
91
91
89
89
91
91
91
91
91
91
91
89
87
87
86
87
86
86
89
87
87
87
89
91
91
89
84
82
84
84
86
86
86
84
89
91
91
87
87
89
91
91
89
91
95
95
95
95
95
89
87
81
72
66
63
65
68
74
79
86
84
87
93
95
91
89
87
89
91
89
89
91
93
93
89
89
89
87
86
86
84
86
87
87
91
89
89
89
91
91
87
84
86
84
86
89
89
91
91
89
89
91
89
93
89
89
87
89
91
95
95
93
93
91
82
79
74
68
65
65
68
74
79
84
86
87
93
95
93
91
87
89
91
87
87
89
95
95
89
91
91
86
87
86
84
86
84
86
91
89
87
91
91
89
89
87
86
86
86
87
91
91
89
87
87
89
91
93
87
86
89
91
89
95
95
89
89
87
81
77
74
69
65
63
65
74
79
82
84
86
93
96
91
93
89
91
91
87
89
91
93
95
93
91
91
89
89
87
84
86
82
87
89
89
89
93
89
89
89
89
87
86
86
89
87
86
89
91
89
87
89
91
91
89
89
93
93
96
98
91
87
87
84
77
74
71
66
63
63
71
76
81
82
84
89
95
91
89
91
91
89
87
89
91
91
91
95
93
91
89
87
87
87
87
86
87
87
89
91
89
89
91
93
95
91
86
86
87
87
87
91
91
91
89
93
93
89
91
93
95
95
96
98
93
87
86
82
77
77
71
66
63
63
68
74
77
81
81
87
93
91
89
93
93
89
89
91
89
87
87
95
93
87
89
91
87
89
89
82
87
89
87
87
87
93
93
95
93
89
87
87
86
89
89
89
91
93
93
91
91
91
89
93
91
95
95
96
91
86
82
79
79
79
72
66
63
59
65
71
74
79
81
86
91
95
93
93
95
93
87
91
91
91
87
91
95
91
91
93
95
89
86
86
87
87
87
87
87
91
95
95
93
89
87
86
87
89
91
93
93
89
89
91
91
91
91
89
91
91
91
91
87
82
79
77
81
79
74
69
66
62
65
69
74
77
79
81
86
95
96
95
95
89
89
93
93
91
89
89
91
93
93
93
91
93
87
84
86
86
86
87
84
87
95
93
91
87
89
87
84
86
87
89
93
87
87
89
93
93
93
93
89
91
89
89
84
81
77
77
79
81
77
72
66
62
63
65
69
74
79
81
81
96
96
95
93
91
91
93
95
91
89
91
89
91
91
95
93
89
86
86
86
86
86
86
86
91
93
93
93
89
89
87
82
86
86
87
91
89
89
87
93
95
95
95
93
93
91
87
82
81
77
79
82
86
84
76
69
66
68
66
66
71
77
79
79
96
95
93
93
91
93
95
96
91
93
95
93
93
93
93
93
91
87
86
84
84
89
87
87
91
93
93
93
87
87
89
91
91
89
87
93
91
87
89
91
93
95
98
96
91
87
86
81
77
76
82
86
86
84
77
71
69
68
65
68
68
74
79
79
93
93
93
95
93
93
95
96
96
93
93
93
93
93
89
91
91
89
89
86
84
84
86
87
87
87
93
89
86
86
89
91
89
91
89
89
89
87
87
89
93
95
96
96
93
91
86
79
77
76
82
87
86
82
77
74
71
69
66
65
68
69
74
79
95
96
93
95
93
93
95
93
93
89
93
93
95
95
91
91
93
89
87
84
84
84
86
89
86
87
91
89
87
87
91
89
89
91
87
91
91
87
87
89
93
96
96
96
96
91
82
79
76
79
81
84
84
82
81
77
74
68
63
63
68
71
71
76
95
91
93
95
95
95
95
91
87
87
91
91
93
91
91
91
89
87
87
86
86
84
84
86
89
89
89
89
87
89
91
93
91
91
89
91
87
87
86
91
93
91
95
98
95
89
81
77
79
81
86
87
86
82
82
81
76
71
65
60
65
68
69
72
91
91
91
93
95
96
96
95
93
91
95
93
93
93
95
93
91
89
89
89
87
84
84
86
87
86
89
91
87
89
93
93
89
91
91
89
86
86
86
89
91
91
89
93
95
91
81
76
77
82
86
87
87
82
82
82
79
74
66
62
65
65
66
69
91
93
91
91
95
96
96
95
89
91
93
93
93
96
96
93
93
93
91
93
87
86
87
89
87
86
87
89
87
89
89
89
91
91
93
91
86
86
87
89
93
91
89
91
93
91
81
76
77
81
84
87
87
84
84
82
81
76
68
63
62
63
63
66
89
91
91
91
93
95
95
91
91
91
93
91
91
93
93
93
93
93
91
93
89
86
87
87
86
86
84
86
87
91
87
87
87
89
91
87
87
89
91
89
87
89
91
95
95
93
81
76
76
74
79
84
87
89
86
84
84
77
71
65
63
63
62
65
87
89
91
91
91
93
91
89
91
91
96
95
91
93
96
93
91
91
89
91
87
86
87
86
86
84
86
87
91
91
91
89
89
91
91
87
89
89
93
89
87
86
91
95
93
91
81
76
74
76
77
82
89
95
89
89
82
79
74
69
65
65
62
65
89
93
93
93
93
93
89
89
93
91
93
93
93
95
98
95
91
91
89
89
89
87
87
86
82
82
86
89
91
93
91
87
89
91
91
87
89
93
93
91
89
89
91
93
89
87
81
76
76
76
79
82
91
95
93
91
86
81
76
72
68
66
63
62
87
91
93
91
89
93
89
91
93
93
89
93
95
95
95
95
95
87
89
91
93
91
89
86
87
87
87
87
87
89
91
89
89
89
89
89
89
91
95
93
91
91
89
91
93
86
81
76
74
76
79
84
91
96
96
93
87
82
79
74
68
66
63
60
87
91
93
93
91
93
89
89
91
93
93
93
95
91
91
93
93
89
89
89
91
91
86
87
87
87
86
87
84
86
93
91
89
87
87
89
91
91
93
91
93
93
91
93
95
89
81
74
72
72
77
84
89
95
96
95
93
86
84
79
71
66
66
65
91
91
95
93
91
89
87
91
91
95
95
93
91
89
91
93
91
91
91
89
91
89
87
86
87
87
86
84
82
86
91
89
87
89
89
89
87
87
89
93
93
93
91
89
93
89
82
76
72
72
76
82
87
93
95
98
96
93
87
82
76
69
66
65
95
93
95
93
89
91
91
95
91
91
93
93
91
86
89
91
93
93
91
91
93
91
91
87
87
89
89
87
87
89
91
89
87
89
89
91
91
93
93
95
93
91
93
91
91
87
82
76
74
72
76
79
86
91
95
98
98
98
93
87
82
74
69
66
95
91
91
91
89
91
91
93
91
91
91
95
93
93
91
91
93
95
95
96
95
89
89
87
89
87
86
89
91
91
93
89
87
87
89
93
91
95
98
96
95
95
91
91
91
87
84
79
76
74
76
79
86
93
93
95
98
100
96
93
87
81
72
68
95
95
91
91
89
91
89
91
91
89
89
93
95
95
91
89
93
96
100
98
93
91
93
91
93
91
87
87
91
91
93
93
91
89
91
93
93
95
98
95
96
95
91
89
91
89
86
82
76
74
74
79
86
93
95
95
93
96
96
95
95
89
81
72
96
95
95
95
95
93
91
93
93
93
91
95
95
95
93
93
95
96
98
98
93
91
93
95
95
95
91
87
89
95
95
95
93
93
93
93
93
96
100
96
96
96
95
93
91
91
86
84
76
74
72
79
86
93
98
96
93
98
98
95
96
95
91
82
95
95
96
96
98
96
93
95
95
93
91
93
93
95
96
95
95
96
98
98
96
95
93
95
96
95
93
91
93
93
93
95
93
91
93
93
96
102
100
96
96
98
96
96
93
95
91
84
79
76
76
81
87
93
98
96
95
96
98
98
96
95
93
89
95
93
93
96
96
95
95
95
96
95
89
93
93
95
96
96
98
98
100
96
98
96
95
96
93
91
91
89
91
93
89
95
95
91
95
93
96
98
100
96
96
96
98
96
95
93
93
89
81
77
76
81
87
89
95
95
95
100
100
98
96
96
96
96
93
91
91
93
95
95
96
96
95
95
93
93
93
96
96
96
98
100
96
95
96
98
96
95
95
93
95
91
91
93
91
93
93
93
93
93
96
100
100
98
100
96
96
95
96
95
93
91
84
77
76
79
84
84
91
96
95
96
98
100
100
100
98
96
93
95
95
95
93
93
93
96
93
91
93
93
95
95
95
96
96
100
96
96
98
98
98
95
95
93
91
91
91
89
91
93
93
91
93
95
98
100
100
102
100
96
96
95
95
96
93
89
84
81
79
79
82
84
91
95
96
96
98
102
100
98
96
96
91
95
95
95
93
95
95
95
93
93
93
89
96
95
95
95
96
96
96
98
98
98
98
96
93
93
93
91
91
89
91
93
93
93
93
95
96
98
96
98
100
96
96
96
95
95
95
89
84
81
81
82
81
82
91
95
96
98
98
100
98
95
95
96
93
93
93
96
95
93
93
91
89
93
95
91
95
95
96
96
96
95
96
95
96
98
96
95
93
95
93
91
91
89
89
95
93
95
95
95
96
96
93
96
98
95
95
98
95
95
93
89
84
79
79
81
84
84
89
93
96
98
98
96
96
96
96
96
93
95
95
95
91
93
95
91
89
91
95
95
95
93
98
98
98
95
95
95
95
98
100
95
96
98
96
93
93
91
91
93
93
95
95
96
98
93
93
96
98
95
95
96
98
95
95
91
87
82
77
79
81
81
87
91
95
96
96
95
95
95
96
98
96
96
95
95
93
91
95
93
91
93
95
95
91
93
96
98
100
98
96
95
93
98
100
96
96
96
95
91
89
93
91
93
93
95
96
96
98
93
95
95
100
98
95
95
98
96
93
91
87
81
79
77
79
81
86
91
96
96
95
93
95
95
96
100
95
96
95
96
95
91
91
95
95
95
93
93
95
95
98
98
98
96
95
96
96
98
96
95
93
95
96
93
89
91
91
91
93
95
96
100
96
95
91
93
95
96
95
96
98
95
91
93
89
84
82
81
74
77
84
87
93
93
93
95
95
93
93
93
93
91
96
96
93
91
95
95
93
93
93
93
91
91
95
96
96
95
96
98
96
98
96
95
93
95
95
93
89
89
89
93
91
93
96
98
98
95
91
93
89
93
93
95
96
93
91
93
89
86
82
81
77
79
84
87
89
91
91
93
93
93
95
95
93
91
95
96
93
93
95
93
91
91
91
93
93
91
93
95
93
95
96
98
96
95
95
96
95
96
95
93
89
87
89
93
91
95
95
98
96
95
93
91
91
93
96
98
96
91
93
96
93
89
84
82
79
79
82
86
89
91
91
93
96
96
93
96
93
93
95
96
95
96
96
95
93
91
89
87
93
93
93
95
95
93
96
98
98
98
96
96
96
95
95
93
89
89
89
91
93
93
96
95
93
95
96
93
91
93
98
95
95
91
93
95
95
93
86
82
84
81
81
84
89
93
93
98
100
96
95
93
91
91
93
96
98
98
96
96
95
93
91
93
93
95
93
95
93
93
96
100
102
96
95
93
95
95
95
91
87
87
89
91
93
95
96
93
93
95
96
95
95
95
89
89
93
89
91
95
93
91
91
87
82
77
77
81
86
91
95
96
98
98
96
95
91
91
89
95
95
96
96
96
96
96
95
93
93
93
96
95
93
95
98
100
100
96
95
96
98
95
91
93
89
93
89
91
91
91
93
93
96
91
91
95
95
91
89
89
91
93
93
93
93
93
91
93
84
79
79
81
84
87
87
93
96
96
95
95
91
91
89
93
93
95
93
93
95
95
93
91
93
96
100
98
95
95
98
96
95
96
95
96
96
93
91
91
87
91
91
91
91
91
87
89
89
91
93
95
96
91
87
91
91
91
91
95
96
96
93
95
89
82
82
81
81
84
87
93
96
96
95
98
91
87
87
89
89
91
89
89
91
93
93
91
95
95
96
100
96
95
96
100
96
95
95
96
93
91
93
91
89
91
89
89
93
93
89
87
89
91
91
95
96
91
91
93
91
91
91
95
95
93
93
96
93
86
86
82
79
79
86
91
95
95
93
96
89
89
87
89
87
89
91
89
91
93
93
93
93
93
93
95
96
98
98
98
96
95
95
93
95
89
93
95
91
91
89
91
93
93
89
91
93
91
89
93
93
89
93
95
93
91
89
93
91
87
91
95
91
89
87
82
79
81
82
84
87
91
95
93
