P2
# 583 of 608 Angiograms
64 64
255
167
167
165
165
167
168
172
173
173
172
175
175
175
173
172
172
173
173
173
173
173
172
172
170
172
170
170
170
172
172
168
165
159
152
150
148
146
148
150
150
150
148
148
148
148
146
142
141
142
144
146
146
142
137
139
139
139
141
141
139
139
141
142
142
167
167
167
167
168
170
172
175
175
175
175
175
173
173
173
173
175
175
175
173
173
172
173
172
170
170
172
172
172
173
172
168
165
159
156
152
150
150
148
148
150
148
146
146
146
142
139
137
139
142
144
144
142
141
139
139
139
141
139
137
139
141
144
142
165
167
168
168
168
170
173
175
175
175
175
175
173
172
172
173
175
175
173
173
172
170
172
172
170
170
172
170
170
170
170
172
170
167
159
156
154
152
150
150
148
146
144
144
142
139
139
137
137
139
142
144
144
142
141
139
139
139
139
137
137
141
142
142
163
165
167
170
170
172
173
175
175
175
175
175
173
173
173
173
175
175
173
172
168
168
168
168
170
168
168
168
168
167
170
172
172
170
165
159
156
156
152
150
144
142
142
141
139
137
137
135
137
139
142
144
142
142
141
141
142
141
141
139
137
141
141
141
161
163
167
170
172
172
173
175
175
175
173
173
173
173
173
175
173
173
170
168
165
163
165
167
168
170
168
168
167
168
170
170
170
170
168
163
158
156
152
150
146
142
139
137
135
135
133
135
137
139
141
142
142
142
141
141
141
144
144
142
141
139
139
141
159
163
167
170
172
173
173
175
175
175
173
173
173
175
173
175
173
170
168
167
163
161
165
167
168
168
170
170
168
168
168
170
172
172
170
165
159
156
152
150
148
144
137
133
131
135
135
135
135
137
137
139
139
142
141
141
141
142
144
142
142
141
139
141
158
159
165
167
170
173
173
175
173
175
173
173
173
173
173
175
172
168
167
165
165
165
167
168
170
170
170
168
170
168
170
170
170
172
170
165
161
158
154
150
148
144
135
129
129
131
133
133
135
137
137
137
137
141
141
142
142
141
142
144
144
142
142
141
152
156
161
165
167
170
172
173
173
175
173
173
173
173
173
173
172
168
167
167
165
167
168
172
172
172
170
170
170
170
172
170
168
168
168
165
163
159
156
150
148
142
135
129
127
125
127
131
133
133
135
135
139
141
141
141
144
142
141
142
144
146
144
144
150
152
154
159
163
167
168
172
172
173
173
173
172
172
172
172
172
168
170
170
170
170
172
173
173
173
172
170
172
172
172
170
167
168
167
165
163
161
156
152
148
141
135
127
123
121
125
129
131
133
135
137
139
141
142
144
146
144
142
144
146
146
146
146
150
150
150
154
158
161
165
167
170
170
170
172
172
173
170
168
168
168
172
173
173
173
175
175
175
173
173
172
172
170
170
168
167
167
165
163
161
159
156
152
148
141
135
129
123
123
123
127
129
133
137
139
142
144
146
146
146
144
144
144
144
146
146
146
148
148
148
148
152
156
158
163
167
167
167
170
170
172
170
167
168
168
172
172
175
175
175
173
175
172
170
170
170
168
168
168
165
163
161
161
159
159
156
152
146
141
137
133
127
123
123
125
127
133
137
141
142
144
148
146
146
144
144
144
144
144
144
146
146
146
146
144
146
150
154
158
163
165
167
167
170
172
170
168
168
168
170
173
173
173
172
172
172
170
168
168
167
168
167
165
163
161
159
159
159
158
156
152
148
142
139
137
133
127
127
127
129
133
137
141
142
144
146
146
146
144
144
144
142
142
142
146
146
148
146
146
148
148
150
154
158
161
165
165
168
170
170
168
168
168
170
170
170
170
168
170
170
172
168
167
165
163
163
163
161
159
156
156
156
158
154
152
150
146
144
142
141
137
133
133
133
135
139
141
144
146
144
144
146
142
144
146
144
144
142
144
144
146
146
148
148
148
150
152
154
156
159
163
165
165
165
167
167
168
168
168
168
167
167
167
168
168
167
163
161
159
159
159
158
156
154
154
156
158
156
156
154
154
152
150
148
146
142
141
139
135
139
141
142
142
144
144
144
142
144
146
144
144
144
142
144
146
146
148
150
150
150
152
152
154
154
154
158
161
163
165
165
167
167
167
167
163
163
161
163
163
161
159
159
159
158
156
154
154
152
152
156
158
159
159
159
159
159
156
158
156
152
148
144
142
141
139
141
141
142
144
146
144
144
146
144
141
142
141
146
148
150
152
152
150
148
148
148
150
150
150
152
154
158
159
163
163
163
163
163
161
159
159
159
159
158
158
159
159
158
156
152
152
152
152
156
158
159
159
161
163
165
165
165
161
158
156
150
146
142
141
139
142
142
142
142
142
144
144
144
142
141
141
148
150
152
154
152
150
148
146
144
146
148
148
148
150
150
154
158
159
159
161
161
159
158
158
154
154
156
156
156
156
158
158
154
156
156
156
158
158
159
161
163
167
168
168
168
168
165
159
154
150
146
141
139
141
142
142
142
144
146
146
142
141
139
139
150
152
156
158
154
150
146
142
142
144
144
148
150
150
148
148
152
156
156
158
159
158
158
156
156
154
156
154
156
156
158
159
159
159
159
159
161
161
165
167
168
168
168
170
170
170
168
165
159
154
150
144
139
139
139
141
142
142
144
144
142
141
139
141
152
154
158
158
156
152
148
146
144
146
144
148
146
146
146
146
146
148
154
156
156
156
154
154
154
156
158
158
158
159
161
163
165
163
165
165
165
167
167
168
170
172
172
170
172
172
172
168
163
158
154
148
142
139
137
139
141
141
141
141
142
141
139
141
156
158
158
156
154
152
150
146
144
144
142
144
146
146
144
144
144
144
146
150
152
152
154
154
154
156
156
158
159
163
165
167
165
167
167
168
168
168
170
172
170
172
173
173
172
172
172
172
170
163
158
152
146
141
139
137
139
139
139
139
141
142
142
142
158
159
158
154
152
150
148
144
144
144
142
141
144
144
144
142
141
141
142
144
148
150
152
156
156
158
158
161
163
165
167
167
167
168
170
170
168
170
172
172
172
173
173
173
173
170
170
172
172
167
161
156
148
144
139
137
137
137
139
139
139
141
144
144
159
161
156
152
150
148
146
144
142
142
141
141
144
142
144
142
139
137
137
139
142
146
150
156
158
158
159
163
165
167
168
168
170
170
170
172
170
170
170
172
173
173
173
175
175
173
170
172
172
170
165
161
154
148
144
141
139
137
137
139
137
141
144
146
161
158
156
152
150
146
144
142
142
142
141
141
144
144
142
144
142
139
139
139
141
142
148
156
159
161
163
163
163
165
168
170
172
172
172
172
173
172
170
172
172
172
173
175
177
175
173
172
172
172
168
165
159
154
150
146
142
139
137
137
137
142
146
144
163
159
154
152
148
144
142
142
141
142
141
141
144
146
144
142
142
142
142
142
142
142
148
156
159
161
163
163
163
163
167
170
172
172
172
173
173
170
168
168
168
168
170
173
175
175
175
173
175
173
170
168
163
159
156
152
146
142
141
139
139
142
144
144
163
161
156
152
148
144
142
142
142
141
141
142
144
144
144
142
141
142
144
144
142
144
148
154
159
161
165
165
163
165
167
168
170
170
172
172
173
170
168
168
167
167
168
172
173
172
173
173
173
172
170
168
168
165
161
158
154
148
144
142
142
142
142
144
161
159
154
152
148
146
144
142
142
142
142
142
142
142
142
142
144
144
146
146
144
144
148
152
158
161
165
167
165
165
167
168
168
168
170
172
172
170
168
168
168
168
167
168
172
172
170
172
172
170
168
167
170
168
167
163
159
154
148
144
144
142
141
142
158
156
154
152
148
148
148
146
144
144
144
144
142
141
141
142
144
146
146
148
148
150
152
152
156
159
163
167
168
167
168
168
168
168
168
170
170
168
168
170
170
168
167
168
170
170
170
168
168
168
167
167
168
172
170
168
163
159
152
148
146
146
141
141
154
154
150
148
148
148
148
146
144
146
144
142
141
139
141
144
144
146
146
146
150
152
154
154
154
156
159
163
167
168
168
168
168
167
167
168
168
168
168
172
170
168
165
167
168
168
167
165
167
167
167
167
168
172
172
170
167
163
159
154
150
148
144
141
156
152
150
148
148
148
150
148
146
146
144
142
137
139
141
141
142
142
144
144
146
150
150
152
152
154
156
159
163
167
167
167
168
165
167
168
167
167
168
170
168
167
165
165
167
165
163
163
165
165
165
167
168
172
173
172
168
167
165
159
154
150
144
141
158
154
152
148
148
150
150
148
148
146
144
142
139
139
141
141
139
139
142
144
144
144
146
148
148
150
152
156
159
163
167
167
168
167
168
168
167
167
167
165
165
165
165
165
165
165
163
161
161
163
163
165
167
168
170
170
170
168
167
163
158
152
144
139
159
156
154
150
148
150
150
148
146
144
144
144
142
142
142
141
139
139
141
141
141
142
144
144
146
146
148
152
154
158
161
165
168
167
168
167
167
167
165
163
163
165
163
163
163
161
159
159
159
161
161
163
165
165
168
170
168
168
168
163
159
154
146
139
159
158
156
152
150
150
150
148
146
148
148
148
146
146
146
144
142
141
141
141
141
142
142
144
146
146
148
150
154
154
156
161
165
167
165
167
165
163
163
163
163
163
161
161
159
158
158
159
161
163
161
161
161
163
165
168
168
167
167
163
159
154
148
141
161
161
159
156
152
152
150
150
150
150
152
152
150
150
150
148
146
144
144
144
142
142
144
144
146
146
146
150
154
152
154
158
161
165
165
165
163
163
161
161
161
163
161
158
156
156
156
158
159
161
159
159
159
161
163
165
167
165
163
161
159
156
152
144
163
163
161
159
156
152
152
152
152
152
154
154
154
152
150
150
150
148
146
146
144
144
144
148
146
148
148
148
154
154
154
154
156
159
163
165
163
161
163
163
159
161
159
159
159
158
156
158
158
158
159
159
161
161
161
161
161
163
163
161
161
159
154
150
163
163
163
161
159
158
156
154
152
156
156
159
159
158
156
154
154
150
148
148
146
146
146
146
148
148
148
148
152
152
154
154
156
156
158
161
163
163
163
163
159
158
159
159
161
159
158
158
158
159
159
159
159
159
161
159
159
159
161
161
163
163
158
152
165
167
167
165
165
163
161
159
158
158
158
161
161
161
161
158
156
154
152
148
146
146
148
148
150
150
150
150
152
152
156
158
154
152
154
158
161
163
163
161
159
158
158
159
161
159
158
158
158
159
161
161
161
161
159
159
159
159
161
161
163
163
161
158
167
168
170
170
168
167
165
163
161
159
159
161
161
163
163
161
159
158
154
150
146
146
148
150
152
150
150
152
154
154
156
158
154
152
152
156
159
163
163
163
163
161
159
159
159
159
159
161
161
161
163
163
163
163
161
159
158
159
159
163
163
163
163
161
170
170
172
172
170
168
167
167
165
163
163
161
161
163
161
161
161
159
156
152
148
148
148
150
152
152
154
156
156
156
156
156
154
152
150
154
158
163
165
165
165
163
163
163
163
165
167
167
165
163
163
165
167
167
165
163
159
159
159
161
163
165
165
163
172
173
173
172
170
170
170
170
170
167
163
161
159
159
159
161
161
161
158
154
150
148
148
150
152
156
156
158
156
158
156
156
154
150
150
152
154
159
161
161
163
165
165
165
165
167
168
168
168
167
165
165
167
168
168
167
165
163
161
163
165
168
168
167
173
175
177
175
172
172
172
172
172
170
167
163
159
159
161
161
163
161
159
156
152
148
148
150
152
154
156
156
156
154
154
156
154
152
152
152
152
154
158
159
161
165
167
167
168
168
170
170
170
168
167
167
167
168
168
168
168
167
165
165
167
168
168
168
173
175
177
175
175
175
173
173
173
172
168
167
163
163
163
165
165
163
161
156
152
148
148
150
154
154
154
156
156
154
154
156
156
154
154
152
152
154
154
156
158
161
165
167
168
170
170
172
170
170
168
168
168
170
170
172
170
168
168
167
167
167
167
168
175
177
178
177
175
173
172
173
173
172
172
170
168
167
167
165
165
165
163
158
152
150
146
146
150
154
154
156
154
152
154
154
154
154
154
154
154
154
150
154
156
159
161
165
167
167
168
168
170
168
167
168
168
170
172
170
170
168
167
167
167
167
167
167
175
177
177
175
173
172
172
173
173
172
173
170
170
168
168
168
168
167
165
161
154
150
148
148
150
152
154
154
154
152
152
154
154
152
152
154
156
156
154
154
154
156
158
159
163
165
167
167
167
167
168
167
167
168
170
170
168
168
167
167
167
170
170
168
175
175
175
175
172
170
170
172
173
173
175
172
172
172
172
170
170
170
168
167
159
152
150
148
150
150
152
154
152
152
152
152
150
152
154
154
156
156
156
154
154
154
154
154
158
161
165
165
163
165
165
167
167
168
170
170
168
168
168
170
168
168
172
170
177
175
175
173
172
168
168
170
173
175
173
173
173
173
173
173
173
173
173
170
167
158
154
152
150
150
150
150
152
150
150
148
150
152
152
152
156
158
156
156
154
152
150
152
154
158
161
163
163
165
167
167
167
168
170
170
168
168
168
168
170
170
170
172
175
173
172
170
170
168
167
168
172
173
175
175
175
175
175
175
175
173
172
173
170
165
159
158
156
154
154
152
152
152
152
152
152
152
152
152
156
158
156
154
154
154
154
154
152
156
158
161
163
165
165
167
167
168
170
168
168
168
168
168
168
172
170
170
177
172
172
170
168
168
168
170
172
172
173
173
175
175
175
175
173
172
172
173
172
167
165
163
161
161
159
159
158
156
156
156
156
156
156
156
158
156
154
154
154
156
156
154
154
154
156
159
161
163
163
163
165
168
170
168
168
168
168
170
170
172
172
170
175
173
172
168
167
167
168
170
170
172
170
173
175
175
173
173
173
173
172
172
172
170
168
167
167
165
163
163
163
161
161
161
159
159
159
158
158
158
154
154
154
154
154
156
154
154
156
158
159
161
161
165
165
165
168
168
168
168
168
170
170
172
172
170
173
172
170
168
167
167
167
168
170
168
168
172
173
173
173
175
175
173
172
173
173
172
170
167
167
165
165
167
167
165
165
163
161
163
161
159
158
158
156
154
156
156
156
158
156
154
156
159
159
159
161
161
163
163
165
167
167
167
167
167
167
168
168
168
172
170
168
168
168
167
167
167
167
167
167
170
172
172
172
175
175
172
172
172
172
173
172
168
167
165
165
165
167
167
165
167
163
163
161
158
158
156
158
158
158
158
156
158
158
154
154
158
158
159
158
159
161
161
163
165
163
163
165
167
167
167
167
167
170
170
168
170
168
168
167
167
165
165
165
168
170
172
173
175
173
172
170
170
172
173
173
170
167
163
165
163
165
165
165
167
167
165
161
158
158
156
158
159
161
161
159
158
156
156
156
156
156
158
158
159
161
161
161
163
163
163
161
163
163
163
163
165
170
170
168
168
170
170
168
167
167
165
165
168
170
172
173
173
172
172
172
170
172
173
175
172
167
163
163
163
163
165
163
165
167
167
163
159
158
158
158
159
163
165
163
159
158
158
158
156
154
156
156
158
158
158
159
159
159
159
159
159
161
161
161
161
170
170
168
168
168
168
170
168
167
167
165
168
168
172
173
172
173
175
175
173
172
173
175
172
167
163
163
163
163
165
163
163
163
165
163
161
158
158
159
163
165
167
165
165
161
158
159
158
154
152
156
156
156
156
156
154
154
156
156
154
154
156
159
161
170
172
170
168
170
167
167
167
167
167
167
168
168
168
170
172
172
173
175
175
173
173
175
170
168
167
165
165
165
165
163
163
161
163
163
163
161
159
161
165
165
167
167
167
165
163
159
158
156
154
154
154
154
152
152
150
150
152
152
152
152
152
156
158
170
172
172
170
168
167
167
167
167
167
167
167
167
168
168
170
170
170
172
172
172
173
173
172
170
168
168
167
167
167
165
163
161
161
161
163
161
161
163
165
165
165
167
168
167
165
163
158
158
156
156
154
154
152
150
148
150
150
150
152
150
152
154
158
172
172
172
170
168
167
165
168
167
167
167
165
167
167
168
168
170
168
170
170
168
170
170
172
172
168
168
167
165
165
165
163
163
163
163
163
163
161
161
163
165
165
165
167
167
165
165
163
159
158
154
152
152
150
148
148
146
148
150
152
152
152
154
158
170
170
170
168
167
167
167
170
168
168
167
165
165
167
168
168
170
168
167
165
165
167
168
170
170
168
168
165
163
161
161
161
163
163
163
163
165
165
165
163
161
161
163
163
163
163
165
163
161
158
154
152
150
152
152
148
146
146
150
152
154
156
158
158
167
167
167
168
167
167
170
170
168
168
167
167
167
168
170
172
172
168
165
161
161
163
167
167
170
170
168
167
161
159
159
161
163
163
165
165
165
165
165
165
163
163
161
161
161
161
163
161
159
159
156
152
152
152
154
150
148
148
148
150
152
156
158
158
163
163
163
165
167
168
170
170
168
168
168
168
168
170
170
172
172
170
168
163
159
161
165
167
170
172
170
167
165
163
161
163
163
165
167
168
167
167
167
167
165
165
163
163
161
161
161
159
159
161
158
156
154
154
154
154
150
150
150
150
152
156
159
161
161
161
161
161
165
167
170
172
170
170
170
172
172
172
172
172
172
172
170
165
161
161
163
165
168
170
168
168
167
165
165
165
165
167
168
170
168
170
170
168
167
167
168
167
165
163
161
161
161
161
161
159
159
159
158
158
154
152
152
152
152
156
159
159
161
159
158
158
161
167
170
170
172
172
172
173
173
173
173
173
173
172
172
168
163
161
161
163
163
167
167
168
168
168
168
167
167
168
170
170
170
172
172
172
170
170
170
170
167
167
165
165
163
165
165
163
163
161
159
158
156
154
152
152
152
154
158
159
165
161
159
158
159
163
168
172
172
170
172
172
173
175
175
173
172
170
172
168
167
165
163
163
161
161
163
167
167
168
168
168
167
168
168
170
172
172
172
173
173
173
173
172
170
168
168
168
167
165
165
161
161
161
159
159
158
156
154
152
152
150
152
156
170
167
163
159
158
161
163
167
168
170
170
172
173
173
173
172
172
170
168
168
165
165
163
163
159
159
161
163
165
167
168
168
167
167
167
168
172
170
172
173
172
172
173
173
172
172
172
170
168
167
165
161
159
161
161
159
159
158
154
152
150
148
148
152
177
170
167
163
159
161
161
161
163
165
168
170
172
173
172
172
172
170
168
167
165
165
165
163
161
161
161
161
163
165
167
168
167
165
165
167
168
170
172
172
170
172
175
175
173
173
173
172
167
168
168
165
161
161
163
161
161
158
156
152
150
148
146
148
