P2
# 584 of 608 Angiograms
64 64
255
112
113
112
113
115
115
112
113
113
113
113
115
113
113
113
110
112
113
112
112
113
115
117
121
121
121
123
121
121
123
123
121
117
113
115
115
117
123
125
127
129
131
131
127
125
123
119
123
123
123
125
123
125
125
125
123
117
112
106
102
102
95
89
89
113
115
113
110
113
113
110
112
112
112
112
113
113
112
110
108
110
113
110
106
110
113
115
117
117
119
121
121
121
123
123
123
117
113
113
113
115
121
125
129
129
129
127
127
125
123
123
125
123
123
123
123
123
125
123
123
115
112
106
100
98
93
87
86
112
113
113
112
113
115
113
112
112
115
112
112
110
108
108
110
112
112
110
110
110
113
113
115
115
115
121
123
123
121
123
123
119
117
117
115
115
119
123
129
133
129
129
129
127
127
125
127
123
123
123
123
123
123
121
121
117
112
106
100
96
93
89
86
110
110
112
112
113
115
115
113
113
115
113
112
110
108
108
112
110
110
112
112
110
112
112
112
113
117
119
121
123
123
123
121
119
117
117
119
119
121
121
127
129
129
129
129
129
129
129
127
125
123
123
123
123
123
123
121
119
113
106
100
96
93
89
84
112
112
113
113
113
117
115
117
115
113
112
112
112
110
110
110
108
110
112
110
108
110
110
108
108
113
115
119
121
121
121
121
123
123
121
121
119
119
121
125
125
125
129
129
129
129
127
125
123
123
121
123
123
121
119
119
119
113
108
100
98
93
87
86
113
115
115
113
113
113
112
113
113
112
112
113
115
113
115
112
110
110
112
110
108
108
104
106
108
112
112
113
117
119
121
123
123
125
125
123
121
121
121
123
123
123
125
127
129
129
127
123
123
119
121
125
123
123
121
121
117
113
106
100
98
93
87
86
113
113
113
112
113
112
112
112
113
115
115
115
113
115
115
113
112
112
110
110
108
106
102
106
106
108
112
112
115
117
119
123
123
123
125
125
125
123
121
123
125
121
125
125
125
127
127
123
123
119
121
123
123
121
123
121
113
112
106
98
95
91
89
86
113
112
113
112
113
112
113
113
112
112
113
113
110
113
113
112
112
112
112
110
106
104
102
102
104
106
110
112
113
117
119
121
123
123
125
125
125
127
123
125
125
121
121
125
123
123
123
123
121
121
121
123
123
123
123
121
112
110
104
98
95
91
87
82
112
113
113
112
112
113
115
113
112
110
112
112
113
112
110
112
112
112
112
108
106
104
102
104
106
108
110
108
112
115
119
117
119
121
125
125
127
127
127
127
127
123
121
121
121
123
121
123
123
121
123
121
125
125
123
121
113
110
104
98
95
89
86
82
110
112
112
110
112
113
115
113
112
113
113
110
110
110
112
112
113
112
110
108
108
106
102
106
108
112
113
110
112
113
115
117
119
119
123
125
129
129
129
127
125
123
121
123
125
125
123
125
125
123
121
123
125
123
123
121
115
110
104
100
95
91
86
86
108
110
108
108
110
113
115
115
113
113
112
108
110
110
112
112
110
110
112
108
110
110
104
104
108
112
113
110
113
115
113
113
117
117
121
125
127
129
129
129
129
127
125
123
123
121
123
123
121
123
123
121
121
121
121
119
115
110
104
96
93
89
87
86
104
104
104
104
106
108
108
108
108
108
108
106
110
110
112
110
110
110
113
113
112
112
106
106
106
106
110
112
112
113
113
113
113
115
119
121
123
125
127
127
127
127
129
123
123
123
121
123
123
123
121
121
121
125
119
117
113
110
104
96
91
87
86
82
98
100
100
100
102
102
102
102
104
106
106
108
110
112
112
112
110
110
110
113
113
110
108
106
106
106
110
112
112
113
113
113
115
117
117
117
121
125
129
127
125
127
129
127
123
125
123
123
123
123
123
121
123
121
121
117
113
108
102
96
91
87
84
82
98
100
98
98
96
95
95
96
100
100
102
104
110
110
112
110
110
112
112
113
113
113
112
108
108
110
112
112
108
110
112
112
115
115
115
117
119
121
125
127
125
125
129
127
123
125
121
121
123
121
121
121
121
121
119
117
112
108
104
96
93
87
86
82
102
102
100
96
96
95
95
95
93
93
95
98
102
106
108
108
110
112
112
113
113
113
110
110
112
112
110
110
110
110
112
110
112
115
117
115
119
119
123
125
125
123
127
129
129
125
125
123
123
119
121
121
121
119
121
115
110
106
104
98
95
89
87
81
106
110
108
104
102
104
102
96
95
91
91
93
95
100
106
110
112
112
108
108
112
113
112
110
112
110
110
112
110
108
108
110
112
113
115
115
117
121
123
121
121
123
125
129
129
127
127
123
123
121
121
121
121
119
119
113
112
108
106
98
95
89
86
82
106
110
112
108
108
106
106
102
96
89
89
91
91
96
104
108
110
110
110
108
110
110
110
110
108
110
112
112
112
110
110
110
112
112
112
115
115
119
121
123
121
123
125
127
129
129
127
125
125
123
123
121
117
117
117
113
110
108
106
98
95
89
86
84
112
110
112
110
112
106
106
108
104
95
91
91
89
93
100
106
106
108
113
112
112
110
110
110
108
110
110
110
112
112
110
112
112
112
112
113
115
117
117
121
121
119
123
125
127
125
123
125
127
123
123
121
119
115
115
117
110
108
104
100
95
91
86
82
110
112
113
110
110
108
110
112
106
100
95
93
89
89
96
100
106
108
112
113
112
112
113
113
112
112
110
110
110
112
110
108
108
110
113
112
113
115
115
119
119
117
119
123
125
123
125
127
125
125
127
123
119
119
115
113
108
108
104
98
95
89
86
81
110
112
113
110
110
112
112
112
108
104
98
95
91
89
93
96
102
106
108
110
112
112
113
113
112
110
112
112
112
110
108
106
108
112
110
112
112
112
113
117
119
117
119
119
119
121
121
125
127
127
129
125
125
121
115
110
110
108
102
96
93
89
84
81
110
110
112
112
112
113
112
110
110
106
102
98
95
93
91
93
96
104
108
108
110
112
112
108
108
112
110
112
113
112
108
106
110
110
112
112
110
113
113
115
117
115
117
117
117
117
121
125
129
127
129
127
127
121
113
110
108
106
102
96
93
89
84
81
110
110
110
112
112
112
113
112
112
108
104
100
96
93
91
91
93
98
104
108
108
108
110
108
110
112
110
112
110
110
108
108
110
110
113
112
112
113
115
115
113
113
113
115
117
117
119
125
125
127
129
127
127
123
115
112
108
108
102
100
95
89
82
81
110
108
110
110
112
112
112
112
112
110
106
102
98
93
91
93
93
96
98
102
104
106
106
106
108
110
112
112
112
112
110
110
112
110
113
113
113
115
117
115
113
115
115
115
115
119
119
121
125
127
129
131
129
123
117
113
110
108
104
100
95
89
84
81
112
110
112
112
113
110
108
112
112
108
104
102
100
98
95
95
93
95
95
98
102
106
104
106
108
112
112
110
112
110
110
112
110
110
113
115
115
117
117
113
115
113
113
113
117
115
119
121
123
125
127
129
129
123
119
115
113
108
104
98
93
87
84
81
108
108
110
110
112
110
108
110
108
106
104
102
104
104
100
96
91
93
95
96
98
102
106
108
108
110
110
110
108
110
112
110
108
108
110
113
115
117
115
112
115
113
112
112
112
113
117
121
121
123
125
125
123
119
115
115
113
110
104
98
91
89
86
81
108
106
110
108
110
112
112
110
108
108
104
102
106
106
102
100
96
93
91
93
93
98
104
110
112
110
110
110
110
110
108
112
110
112
110
112
113
115
113
110
112
113
112
112
115
115
117
117
117
117
119
121
117
115
113
115
117
113
106
100
91
87
84
81
110
110
106
106
108
110
110
112
110
106
104
106
106
104
102
98
96
91
87
91
93
100
106
110
112
110
110
110
108
110
110
112
112
112
112
113
113
115
117
115
115
115
113
113
117
117
113
113
115
117
117
117
117
113
113
117
117
113
110
102
95
86
81
79
110
110
104
104
106
106
106
108
106
104
106
106
106
104
102
96
95
91
91
91
96
104
106
106
108
106
108
108
108
110
110
112
112
110
112
112
112
113
115
115
117
113
113
115
115
115
113
115
115
113
113
113
113
115
115
117
115
112
110
106
98
89
84
81
110
108
104
104
106
106
106
106
104
104
106
106
106
102
100
98
93
95
93
95
100
106
108
108
110
104
104
106
108
110
110
112
113
112
112
112
112
115
115
117
115
113
113
115
115
115
113
113
113
115
113
113
113
115
117
117
115
113
110
104
100
93
86
81
108
106
106
108
104
104
100
104
104
100
104
108
104
100
96
96
95
95
96
98
102
108
108
110
108
108
106
108
108
112
113
113
115
113
112
112
113
113
113
115
112
112
113
115
115
115
113
113
115
115
113
115
113
115
115
115
117
115
110
104
96
95
87
82
104
106
108
104
104
102
104
104
104
104
102
104
106
100
98
96
93
95
98
100
102
106
104
104
102
106
106
106
108
108
113
113
113
115
113
112
113
115
113
113
113
113
113
115
115
112
112
112
113
113
113
113
115
113
113
113
115
113
108
104
96
95
87
84
106
108
106
106
104
106
108
106
104
106
104
104
104
102
102
100
98
98
100
104
106
104
104
108
106
108
106
106
106
108
112
112
112
113
113
113
112
113
112
112
112
112
110
110
110
112
112
112
112
112
113
112
113
112
112
113
113
110
108
102
98
95
87
84
104
106
108
106
104
106
108
106
104
106
110
106
106
106
106
106
104
104
100
104
108
108
108
110
108
104
104
104
108
110
112
112
112
113
113
112
112
113
112
112
112
112
110
108
110
112
113
113
110
110
113
112
113
113
112
113
112
108
106
102
96
93
87
82
106
106
104
102
102
104
106
106
108
106
110
110
106
104
104
104
104
102
102
104
104
106
104
104
104
100
102
102
106
110
110
112
113
113
110
110
110
112
113
110
108
110
112
112
110
113
115
113
110
110
113
115
113
113
110
110
108
106
106
102
95
91
87
81
106
106
104
102
98
104
108
108
106
106
110
108
104
100
100
102
104
104
102
100
100
104
102
98
102
100
104
104
104
110
108
108
110
110
108
110
110
112
112
112
112
113
112
113
113
113
113
113
112
112
115
115
113
112
112
112
110
106
104
100
93
91
87
81
106
104
104
104
102
102
106
108
108
108
110
106
102
100
100
102
106
108
104
100
102
104
104
98
98
100
100
104
106
106
106
106
108
108
110
110
108
110
108
112
112
112
113
113
113
113
113
115
113
113
115
117
115
113
112
113
112
108
104
96
91
87
86
81
102
102
104
104
102
104
106
108
110
110
108
106
104
100
98
98
102
104
104
102
104
106
106
102
104
104
102
102
100
102
102
104
106
106
108
108
108
110
108
108
110
113
112
115
115
115
115
115
117
113
112
113
117
115
115
112
110
106
102
95
93
87
86
81
100
102
104
100
102
108
110
110
112
108
106
106
104
96
96
98
100
98
100
100
104
104
106
106
106
108
102
102
100
100
104
104
108
108
110
108
110
108
106
108
110
113
113
113
115
117
115
113
115
115
112
113
117
115
113
110
108
104
102
95
91
89
86
81
102
102
104
102
102
108
110
112
108
106
106
106
102
98
98
96
96
98
96
100
102
102
104
104
104
104
100
104
108
102
102
104
108
112
108
108
106
106
108
110
112
115
115
112
113
117
115
115
115
117
113
115
115
112
110
110
108
106
100
93
91
89
82
79
102
104
104
102
104
106
108
108
108
108
106
104
100
96
100
98
96
96
98
102
104
104
102
102
102
102
102
102
102
102
100
104
108
108
106
104
104
106
112
112
112
117
113
112
113
115
115
115
115
117
117
115
113
112
110
110
108
108
100
95
95
89
84
79
104
104
102
104
106
108
104
106
108
110
106
102
102
100
100
96
96
98
98
102
102
102
104
102
104
104
102
102
102
102
102
104
104
104
108
104
104
106
108
110
112
115
113
113
115
115
113
113
117
117
113
113
113
113
113
112
110
106
100
93
91
87
84
82
108
104
102
106
108
108
106
110
108
106
102
102
102
100
100
98
98
98
96
100
102
102
102
106
108
106
106
104
102
102
104
102
102
102
106
106
106
106
110
112
113
113
113
115
115
113
113
115
115
113
113
117
117
117
113
112
108
106
98
93
89
86
84
81
108
102
100
102
104
104
106
108
108
104
104
102
102
98
98
96
96
96
96
96
100
100
102
108
108
106
106
110
106
102
102
104
102
102
104
110
106
108
110
112
115
115
113
113
113
113
113
115
113
112
113
115
115
115
110
112
110
104
98
93
89
86
82
79
104
102
102
100
106
104
104
104
104
104
104
100
100
98
98
96
95
95
96
98
100
100
102
106
108
106
106
106
104
102
98
102
104
102
104
108
108
108
108
112
112
110
112
113
115
115
112
113
113
112
112
112
113
115
110
110
108
102
100
95
89
87
81
77
102
100
100
100
102
102
104
104
106
106
102
102
104
102
100
96
93
93
95
98
100
102
104
104
106
106
102
102
104
102
102
102
102
102
104
106
108
108
108
110
112
112
108
112
113
112
112
112
112
112
112
112
112
112
110
112
108
104
100
96
91
89
82
79
98
96
100
100
100
102
104
104
106
104
104
104
102
100
98
96
95
95
96
102
100
104
106
108
108
104
104
102
102
104
102
102
102
102
102
104
106
108
108
110
113
113
110
110
112
110
112
110
112
112
113
112
112
110
112
112
106
106
102
95
91
87
82
79
96
96
100
100
98
100
104
104
104
102
100
102
100
100
96
100
98
96
98
102
100
102
106
106
106
106
106
104
106
106
104
104
104
104
106
104
104
106
110
110
113
113
110
112
112
112
112
110
113
112
110
110
112
113
112
110
108
104
102
95
91
86
81
79
98
100
98
102
100
98
100
100
100
102
102
102
100
102
100
100
98
95
95
98
102
104
102
104
102
106
108
104
102
102
102
102
102
104
106
108
106
108
108
108
113
113
112
110
112
113
110
110
112
112
108
110
110
110
110
108
108
104
100
93
87
86
81
77
98
98
98
98
102
100
98
98
100
96
98
102
98
100
100
100
98
96
96
96
100
104
100
102
102
102
104
102
98
102
102
102
102
102
106
108
106
110
110
110
113
113
112
112
112
112
108
110
110
110
108
108
110
110
108
106
106
102
100
93
89
86
82
79
100
98
98
98
98
98
100
104
102
98
96
98
96
98
100
98
95
93
95
95
98
102
102
102
102
100
102
100
100
106
104
104
106
104
104
106
106
108
106
108
110
110
110
110
110
108
108
108
108
108
108
108
108
108
106
104
104
102
100
95
89
87
81
77
100
100
100
100
100
102
102
102
102
100
96
100
96
96
98
98
95
95
95
95
96
102
102
102
100
100
102
102
106
104
108
108
106
108
102
102
106
106
106
104
106
108
108
108
106
106
108
108
110
110
108
106
108
108
106
104
104
102
102
95
89
86
79
76
96
96
100
100
100
104
106
106
104
102
100
100
96
95
96
96
96
96
95
93
95
102
100
100
104
100
104
106
106
104
106
108
106
106
108
108
106
106
106
106
106
108
108
108
108
108
106
106
108
106
106
106
110
108
104
102
102
100
100
95
89
84
79
74
95
96
98
98
98
98
100
102
104
104
98
98
98
96
95
93
95
93
91
93
96
100
102
100
98
98
98
104
106
104
102
104
106
106
108
104
104
106
108
108
104
106
106
108
110
110
102
100
102
104
104
104
106
104
102
100
98
100
98
95
91
86
81
76
93
96
98
98
98
98
102
100
98
100
100
100
98
96
93
95
96
95
91
93
96
100
104
100
96
100
100
100
104
102
102
102
100
102
106
104
102
104
106
106
106
106
104
106
106
108
104
100
100
102
102
106
106
104
104
102
102
102
96
93
89
86
81
74
93
96
96
96
98
100
104
100
96
96
102
104
98
96
93
96
98
95
95
93
95
96
100
100
98
100
100
98
100
100
102
104
104
104
106
104
104
104
106
106
104
102
102
104
104
104
100
100
100
100
100
104
104
100
102
102
100
98
91
91
89
82
79
74
91
95
96
95
98
102
102
98
96
95
100
98
95
95
93
96
96
95
93
95
98
98
98
102
100
98
98
98
100
100
100
106
108
106
102
102
104
106
108
106
106
106
104
104
100
102
102
102
100
102
100
100
100
100
102
100
98
96
93
87
86
81
77
74
95
93
93
93
96
98
98
100
100
98
102
98
95
93
93
96
98
98
95
93
96
96
98
100
100
100
100
100
102
102
102
104
108
106
102
102
104
106
106
104
106
106
104
102
104
102
102
104
102
102
100
96
98
102
100
102
100
96
93
87
84
79
79
74
91
91
93
93
95
98
98
100
98
100
100
96
96
89
91
95
96
96
98
95
96
96
96
100
100
102
104
102
102
100
102
102
104
102
102
104
106
106
106
104
104
102
102
102
104
104
102
100
100
98
100
98
98
102
98
98
98
98
95
89
86
81
79
72
89
93
93
93
93
96
96
95
96
96
95
96
95
93
89
93
96
95
93
95
96
98
98
100
102
104
102
100
100
102
102
102
102
102
104
104
104
108
106
104
100
100
100
100
102
100
96
98
96
96
96
96
96
96
98
96
96
93
95
89
84
81
77
71
91
93
95
93
95
93
96
95
95
95
93
93
93
91
93
93
95
98
95
95
96
100
98
98
100
100
98
98
100
100
102
100
102
104
104
104
104
102
102
104
102
100
100
98
96
96
96
98
100
96
95
96
96
98
96
96
93
91
91
87
82
77
72
69
93
93
93
93
95
91
93
93
91
95
95
95
91
91
93
93
96
100
96
98
100
98
98
98
96
96
98
96
100
102
100
98
100
104
106
104
102
100
100
102
104
102
100
98
95
95
98
98
100
96
98
96
96
95
96
95
93
89
87
84
82
79
74
71
96
93
93
89
93
91
93
91
91
89
91
89
93
98
96
95
98
96
96
100
98
98
100
102
96
96
98
98
98
100
102
98
100
104
106
102
102
102
100
102
104
102
98
100
98
98
100
100
98
95
96
96
96
96
95
96
95
89
86
82
81
79
74
69
93
95
95
91
93
87
89
91
89
86
87
89
95
96
96
98
100
98
96
100
100
100
102
104
100
98
102
98
100
98
102
100
102
104
106
104
102
102
102
104
106
98
98
100
98
98
98
96
96
96
96
96
96
96
93
95
96
95
86
82
79
76
72
68
93
93
91
93
93
89
89
91
89
91
93
91
93
95
100
100
100
100
98
102
98
98
100
104
104
102
100
100
102
100
96
100
104
104
104
102
102
104
102
106
102
96
100
102
100
98
95
96
96
98
96
98
93
93
95
93
89
91
87
84
81
76
72
69
