P2
# 587 of 608 Angiograms
64 64
255
183
185
186
186
188
186
185
182
178
177
175
175
175
173
172
168
163
161
161
158
156
154
156
158
158
159
161
161
163
163
165
161
158
154
156
163
165
168
172
173
173
172
170
170
168
170
172
172
173
173
175
175
177
177
175
173
170
165
159
156
154
158
161
163
186
188
188
188
188
188
186
183
182
178
178
177
175
173
172
167
161
158
158
158
156
156
154
154
156
158
159
161
161
163
165
161
158
154
158
161
165
168
172
175
175
172
170
170
170
170
172
173
173
173
173
173
175
177
177
175
170
167
159
156
154
158
161
163
188
189
189
188
188
188
186
183
182
180
180
178
178
175
173
167
161
156
156
156
156
154
152
152
154
156
158
161
163
165
165
163
159
158
158
159
163
168
172
175
173
173
172
172
172
173
175
175
175
173
173
175
173
175
177
173
170
165
159
158
156
158
161
163
188
191
189
188
188
188
185
183
180
178
178
178
178
178
177
172
165
159
156
156
156
154
152
152
156
158
159
161
163
165
165
165
161
159
159
159
163
167
170
173
173
172
172
172
173
175
177
178
178
177
175
173
173
173
173
172
168
167
161
159
159
159
161
165
186
189
189
188
188
186
185
182
178
177
177
178
178
180
178
177
172
165
161
161
159
158
154
154
158
159
159
161
163
165
165
163
161
161
159
161
163
165
167
170
172
170
170
170
173
175
177
178
178
177
177
175
175
173
172
170
168
167
163
163
161
163
165
167
186
188
189
189
189
188
186
182
178
178
177
178
180
180
178
178
177
172
167
165
161
159
156
154
156
158
159
159
163
163
163
163
161
159
159
161
163
163
165
167
168
168
168
170
172
175
175
177
177
177
177
177
175
172
170
168
170
168
165
165
167
167
167
168
188
188
188
188
189
188
186
183
182
180
180
178
178
178
178
178
178
178
175
170
167
163
159
156
156
158
159
161
161
161
161
163
161
161
161
163
163
165
163
165
165
167
168
168
170
173
175
175
173
173
175
177
175
172
168
167
168
168
167
168
168
170
168
168
188
186
188
188
189
189
188
183
182
182
180
178
177
178
180
180
182
180
182
178
173
168
165
161
161
161
161
163
163
165
165
167
167
167
165
165
167
167
167
165
163
161
165
167
168
172
172
170
168
168
170
173
173
172
168
167
167
167
167
167
167
167
167
165
186
186
188
188
188
186
186
185
182
182
182
180
177
178
180
183
185
185
186
185
180
177
172
168
167
167
167
167
167
167
165
168
168
167
167
168
170
170
168
167
163
161
161
163
165
165
167
165
163
163
167
168
170
168
167
165
163
163
165
165
165
165
165
165
185
186
186
186
186
186
186
183
182
183
183
182
180
182
185
186
188
189
189
189
186
183
178
175
172
172
170
168
167
165
167
168
168
167
167
170
172
172
170
167
165
159
159
161
161
161
161
161
161
161
161
163
167
167
165
165
163
161
161
161
163
161
161
163
185
185
185
185
186
186
185
183
183
183
185
185
183
185
188
189
191
192
194
192
191
186
183
180
177
173
170
168
167
165
165
167
168
167
167
168
170
172
170
168
163
159
158
159
158
158
159
159
158
158
158
161
165
167
167
167
167
165
163
163
165
163
163
163
185
185
183
182
183
183
183
185
185
185
186
186
188
188
189
192
195
196
196
195
194
189
186
183
180
177
172
170
167
165
163
165
165
167
167
168
170
170
168
167
161
158
156
158
158
158
158
158
156
156
158
159
165
165
168
170
168
167
167
165
165
165
165
165
185
183
182
180
180
182
183
183
185
186
189
189
191
191
192
194
196
198
199
198
196
192
188
186
183
180
177
173
168
167
165
163
165
165
165
167
168
168
167
163
159
158
158
159
159
159
159
159
158
158
159
161
163
165
168
168
170
168
168
170
170
168
167
167
186
183
182
180
178
180
182
183
186
188
191
191
191
192
192
195
198
199
200
200
199
195
191
188
186
185
182
178
173
168
165
163
161
161
163
165
167
167
165
161
159
158
159
161
161
161
161
161
159
159
161
161
163
165
167
167
168
168
168
170
172
172
170
168
186
183
182
180
180
180
182
183
186
188
192
192
192
192
194
196
199
199
199
202
202
200
196
194
191
189
186
182
177
172
167
163
161
159
161
161
163
165
165
161
161
161
161
163
161
161
163
163
161
161
161
161
163
165
167
167
167
167
167
168
170
172
173
170
188
185
183
180
180
180
182
183
185
186
189
192
192
194
194
196
198
200
200
200
202
203
202
199
196
192
189
186
182
177
170
165
161
158
159
161
163
163
161
161
161
163
163
163
163
163
163
165
165
163
163
161
163
167
168
168
170
168
167
168
170
172
173
172
188
186
185
183
182
182
182
183
185
186
188
189
191
192
194
195
196
200
202
200
202
204
203
202
199
196
192
189
186
182
177
170
163
159
161
163
165
163
163
161
163
163
163
161
163
163
165
167
167
165
163
163
165
170
170
170
170
168
167
168
170
172
173
173
188
186
186
185
183
183
182
183
185
185
185
188
189
189
191
192
195
198
200
200
202
203
204
202
200
198
195
192
189
186
182
175
170
167
165
165
167
167
165
163
163
163
165
163
161
163
165
167
167
165
163
165
168
172
170
170
170
168
167
168
168
172
173
173
189
188
186
186
185
185
183
185
185
185
185
186
188
188
188
189
192
195
198
200
202
202
203
202
200
199
196
194
192
189
186
182
175
173
170
170
170
170
168
165
163
165
165
165
163
161
163
167
167
165
165
167
170
172
170
172
170
170
168
168
170
173
175
175
188
186
186
185
183
185
185
186
186
186
185
185
188
188
186
188
191
192
195
196
199
200
202
202
199
198
196
194
192
191
188
185
180
177
173
172
172
172
172
170
165
165
165
165
165
163
163
163
165
165
165
167
170
172
173
172
172
172
172
170
172
173
175
177
185
185
185
183
183
185
185
186
188
188
186
186
186
188
188
188
189
191
194
195
196
198
199
199
198
196
194
194
192
191
188
185
182
178
175
173
172
172
173
173
170
165
165
165
165
167
163
163
163
163
165
167
170
173
173
175
175
175
175
173
173
175
175
175
183
185
183
183
183
185
185
185
186
188
188
186
186
186
186
186
188
191
192
192
194
195
196
195
194
192
192
192
191
188
186
183
182
178
175
172
172
172
173
175
173
170
167
167
167
167
167
163
161
161
163
165
168
173
175
177
177
178
178
178
177
177
175
173
183
186
185
185
185
185
185
186
186
186
186
186
185
185
183
185
186
189
191
191
192
192
194
192
191
191
191
189
188
185
183
182
180
178
173
172
172
172
173
177
177
173
172
172
170
168
167
163
159
159
159
161
165
172
175
177
177
178
178
178
178
178
177
173
183
185
186
188
188
186
186
186
185
185
185
183
183
183
183
183
185
186
188
189
191
191
192
192
191
189
188
186
185
183
180
178
178
175
173
173
173
173
175
177
177
177
175
175
175
173
168
165
161
158
159
161
163
168
173
175
178
178
178
178
178
177
177
177
180
185
188
189
188
188
186
185
185
185
182
182
183
183
183
183
185
186
186
188
189
191
191
191
191
188
188
186
183
180
177
175
173
173
173
175
175
175
175
177
177
177
178
178
178
177
173
168
163
161
159
159
163
167
170
173
177
178
178
177
177
175
173
173
180
183
186
188
188
186
186
185
185
185
183
182
183
182
182
183
186
186
188
189
189
191
191
191
191
188
186
185
182
177
173
172
170
170
172
173
173
175
177
177
177
177
178
180
180
180
178
175
168
165
161
161
163
165
168
170
172
177
177
175
173
172
172
173
178
182
183
186
186
186
186
186
186
186
185
183
182
180
182
183
186
188
189
191
192
192
191
191
189
188
188
185
180
177
172
170
167
167
168
172
173
175
175
177
177
177
177
178
182
183
183
182
177
170
167
163
163
165
167
168
168
172
175
173
170
170
172
173
180
182
183
185
186
186
188
189
189
189
188
186
183
182
182
183
185
186
189
192
194
195
192
191
189
188
186
185
180
177
172
167
165
167
168
172
175
177
175
175
177
175
175
177
180
183
185
185
183
180
172
167
165
167
168
168
167
168
172
172
170
170
170
172
183
183
185
185
185
186
189
192
191
191
189
188
186
185
183
183
185
186
189
192
194
194
192
189
186
186
183
182
178
177
172
167
165
168
170
173
175
177
177
175
175
173
173
175
178
182
185
186
188
186
180
172
167
167
167
167
167
167
168
170
170
172
170
170
186
186
186
185
185
186
189
192
194
192
191
189
186
185
185
185
185
186
188
191
192
191
191
188
185
183
182
180
178
177
172
167
167
170
172
177
175
177
177
175
173
172
172
173
177
180
183
185
188
189
185
180
173
168
167
165
163
163
165
167
168
168
168
168
185
188
188
188
188
188
189
191
194
194
192
189
188
186
186
186
186
185
186
189
191
191
188
185
182
180
180
180
178
177
172
168
168
172
177
178
177
175
175
175
172
172
172
173
177
178
180
183
186
188
188
185
180
173
170
167
165
163
163
163
165
165
165
165
182
186
188
188
189
189
191
192
192
194
192
191
188
186
185
186
186
185
183
185
188
188
185
182
178
178
178
178
177
175
172
170
172
175
178
178
178
175
173
173
173
173
172
173
175
177
178
180
182
185
186
185
182
178
175
170
167
165
163
163
161
161
161
161
178
182
188
188
189
191
192
194
194
194
192
191
188
186
183
185
186
185
183
183
183
183
180
177
175
175
177
177
177
175
173
172
173
177
180
183
182
178
175
173
173
175
175
175
175
175
177
178
178
180
183
185
182
180
177
175
172
168
165
163
161
159
158
158
178
180
185
188
189
192
194
195
195
194
192
191
188
185
183
185
186
185
182
182
182
180
177
173
173
173
173
175
175
175
175
173
175
177
183
185
183
182
178
177
177
177
177
175
173
173
173
175
177
178
180
182
180
178
178
177
175
172
168
167
163
159
156
154
180
182
185
188
189
194
195
196
195
194
192
191
186
185
183
183
185
183
182
180
180
177
173
170
170
170
170
172
173
173
175
175
177
180
185
186
185
183
180
180
178
177
177
175
173
172
173
173
175
177
178
180
180
178
178
177
175
173
172
170
167
163
158
156
183
183
185
188
189
192
195
195
195
192
192
191
188
185
185
183
183
182
180
178
178
173
170
168
168
170
170
172
173
173
175
177
180
183
186
188
186
185
183
182
180
178
177
175
173
172
172
172
173
175
177
178
177
177
178
178
175
173
175
173
172
168
163
159
185
185
186
188
189
192
195
196
195
194
191
189
188
185
185
183
182
178
177
178
175
170
167
167
168
170
172
172
173
175
175
178
182
185
188
189
188
186
185
182
182
178
178
177
173
170
170
172
173
173
175
173
173
175
175
177
177
175
175
177
177
175
170
163
185
186
186
188
189
192
195
196
196
195
192
191
188
185
185
182
180
177
177
175
172
168
165
165
165
167
172
173
175
175
175
178
183
186
188
189
189
189
186
183
182
180
180
178
173
170
168
170
172
173
173
172
172
172
173
175
175
175
177
178
178
178
175
170
183
186
186
188
189
191
195
196
198
196
194
191
188
185
183
180
178
177
175
173
170
168
167
165
163
163
167
170
173
175
175
177
183
186
188
189
189
191
189
185
182
182
180
178
175
168
165
168
172
173
172
172
172
172
172
173
175
175
177
178
182
182
178
177
185
185
188
189
189
191
195
196
198
196
194
191
188
185
182
178
178
177
175
172
170
167
167
167
161
159
161
167
172
173
173
175
182
185
188
189
191
191
189
185
183
182
178
178
175
168
165
167
170
172
172
172
172
172
172
173
173
175
177
178
180
182
180
178
185
186
188
188
189
191
194
196
196
195
192
189
188
186
185
180
178
177
175
172
170
168
167
167
165
159
159
163
168
170
172
173
180
185
186
188
191
191
189
186
183
182
180
178
175
170
167
168
170
170
172
173
173
172
172
172
172
175
177
178
180
182
182
180
186
186
188
189
189
191
194
196
195
194
191
189
188
188
188
185
182
178
175
173
172
170
168
168
167
163
158
159
165
168
170
173
180
185
183
186
188
189
188
186
183
182
180
178
173
170
168
170
170
172
173
175
173
172
170
170
172
173
175
175
177
180
180
178
186
186
188
188
189
191
194
195
194
192
191
189
188
188
191
189
186
182
178
177
173
172
170
168
167
165
161
159
161
165
168
173
180
185
183
183
185
186
186
185
182
180
178
175
173
170
168
170
172
173
177
177
175
172
170
172
172
173
175
175
175
177
178
178
185
185
186
186
188
189
192
194
195
194
192
189
186
188
191
191
189
186
183
180
177
173
172
170
167
167
165
161
159
163
168
173
178
185
185
182
183
185
185
185
180
177
175
173
172
170
168
172
173
177
178
178
177
173
172
170
172
173
177
175
175
173
177
177
183
183
185
185
186
188
191
192
194
194
192
189
186
186
189
191
189
189
186
182
178
175
172
170
168
168
168
165
163
165
170
173
178
183
185
183
183
183
185
183
180
175
173
172
170
168
170
172
175
177
180
178
177
175
173
173
173
175
175
175
173
172
172
173
183
183
185
185
183
186
189
192
194
194
192
189
186
185
186
189
191
189
188
185
180
175
173
172
170
170
170
170
170
170
175
177
180
183
183
183
183
183
183
182
178
175
173
172
170
170
170
172
175
177
178
177
177
177
175
175
175
175
175
173
173
172
172
172
183
185
185
183
183
185
188
189
192
192
192
189
185
183
185
188
191
191
188
185
182
177
173
172
172
172
173
173
173
175
178
182
182
183
182
182
183
182
180
180
177
173
173
172
170
168
168
172
173
175
175
173
175
177
175
177
178
177
175
175
175
175
173
172
185
185
185
183
183
185
186
188
189
191
189
188
185
183
182
185
189
191
189
186
183
178
173
172
172
173
173
173
177
180
183
185
185
183
182
182
182
180
178
177
173
173
173
170
168
167
167
168
172
173
173
173
175
177
177
178
178
178
177
177
178
178
177
175
182
183
183
183
183
185
186
186
186
188
189
188
185
182
182
183
188
189
188
186
183
178
173
173
173
175
175
175
177
182
186
188
188
186
185
185
183
182
178
175
170
170
170
168
167
165
165
168
170
172
172
173
175
177
178
177
177
180
178
180
180
180
178
178
178
183
183
183
185
185
183
185
185
185
186
186
185
182
180
182
183
186
186
185
182
180
175
175
175
177
177
175
178
183
188
189
191
189
189
189
186
185
180
175
172
170
168
167
165
165
165
168
172
172
172
173
175
177
178
177
177
178
178
180
180
180
180
178
170
180
182
183
183
183
183
182
182
183
183
185
183
182
180
180
180
182
182
182
182
180
177
175
175
177
177
177
178
183
188
192
194
192
192
191
189
186
183
178
173
170
168
165
163
163
165
167
170
170
170
172
172
175
177
177
175
178
178
178
178
178
178
178
165
175
180
182
182
183
183
182
180
182
182
183
183
183
180
178
178
178
180
180
180
180
177
175
173
173
173
175
177
182
186
191
194
195
194
192
189
188
185
180
175
173
170
165
161
161
163
167
168
170
168
170
168
172
175
175
175
177
178
177
177
177
177
177
161
173
180
182
182
182
182
182
180
180
178
180
182
182
178
177
175
177
178
180
178
177
175
172
172
172
170
172
175
178
183
186
191
194
194
192
191
189
185
183
178
175
172
167
161
159
161
165
167
168
170
168
168
170
172
175
175
177
177
177
177
175
175
175
161
173
180
183
182
180
180
180
180
178
178
180
180
182
180
178
177
178
180
178
178
177
173
172
172
172
172
173
173
177
180
185
189
191
192
192
191
189
186
185
183
178
173
168
163
161
161
165
167
167
167
167
167
168
170
172
175
177
177
177
177
175
175
175
163
173
180
182
182
180
180
182
180
178
180
180
182
180
180
180
178
180
180
180
178
177
175
175
175
175
178
177
175
177
180
183
188
191
192
192
191
189
188
186
186
182
177
168
163
161
161
163
165
165
163
165
167
168
168
170
172
175
177
177
177
175
173
173
163
173
182
183
183
183
182
182
182
182
182
180
182
182
182
180
180
182
182
178
178
178
177
177
180
182
183
183
182
180
183
185
189
192
194
195
194
189
188
188
188
185
180
170
163
159
159
161
161
161
163
163
165
168
168
168
170
173
177
177
177
175
173
172
163
173
182
185
186
188
186
185
185
185
183
183
182
180
178
178
178
180
182
178
177
178
178
182
185
186
186
188
188
186
186
188
191
195
196
198
195
192
189
189
191
188
182
173
163
158
158
158
158
158
161
161
165
168
170
170
170
173
177
177
175
173
172
170
165
173
182
185
189
191
191
188
185
185
185
183
182
178
178
178
178
180
180
178
177
178
182
185
188
189
191
191
191
188
188
189
194
196
196
196
196
192
191
191
192
191
186
178
168
163
159
159
158
156
159
161
163
167
168
170
172
175
177
177
175
172
168
168
167
172
182
186
188
191
192
189
186
183
183
180
180
177
177
178
178
180
180
178
177
178
183
188
191
192
192
194
192
189
189
191
195
196
196
196
195
192
194
194
194
192
188
183
177
170
165
163
161
159
159
161
163
165
167
168
170
173
175
175
172
168
168
168
167
172
180
185
186
189
189
188
185
183
180
178
177
175
175
177
177
178
178
178
178
180
183
189
192
194
194
195
192
189
189
192
194
196
196
196
195
194
195
195
195
191
188
186
183
178
173
170
167
163
163
165
165
167
168
167
168
172
173
172
170
168
170
170
167
170
178
185
185
186
186
185
182
180
177
177
175
173
173
175
177
177
177
177
177
180
185
188
191
192
194
194
191
191
191
192
194
195
196
196
194
194
195
196
194
191
188
186
185
185
183
178
173
168
168
168
168
168
168
167
167
170
172
173
172
170
172
170
163
167
175
182
183
183
182
180
177
175
173
172
172
173
173
175
175
175
175
175
177
178
183
186
189
191
192
192
191
192
191
192
194
194
195
195
195
195
195
194
192
189
188
188
188
188
188
186
182
177
173
172
170
168
167
165
165
168
172
173
172
173
173
172
161
165
172
180
182
182
180
177
175
173
170
170
170
170
172
175
175
175
173
173
177
177
180
185
186
188
189
191
192
194
192
191
191
191
192
194
195
194
194
194
191
189
189
189
189
189
191
188
186
182
178
175
172
170
167
165
165
167
170
172
173
177
177
173
161
163
168
175
178
178
177
175
175
173
170
168
170
172
172
172
175
173
172
172
175
177
178
182
183
185
185
188
191
194
194
191
189
189
189
191
192
192
192
192
191
189
188
188
189
191
191
189
188
186
182
178
173
170
167
167
167
167
170
172
175
178
178
175
