P2
# 593 of 608 Angiograms
64 64
255
156
156
156
154
152
148
144
142
142
146
148
152
154
156
159
161
163
165
165
167
168
172
172
173
173
173
173
172
168
168
168
170
168
167
165
163
163
167
168
170
170
172
170
170
168
168
168
168
163
156
148
139
129
127
131
139
144
152
154
156
154
156
156
158
161
161
161
159
156
156
152
150
148
150
150
152
156
158
159
159
161
163
163
165
167
170
170
172
175
175
173
172
168
167
165
167
167
165
163
161
161
163
165
167
170
170
168
168
168
168
168
168
167
161
156
148
141
133
133
137
144
150
154
152
154
154
156
158
165
165
165
165
163
161
161
158
156
154
154
154
154
156
158
156
156
158
161
163
165
168
172
173
173
173
172
168
165
163
161
163
165
165
163
159
158
159
161
163
167
168
167
167
170
170
168
168
168
165
159
156
150
142
139
139
142
148
150
150
154
156
158
159
168
168
168
168
168
167
165
163
163
161
158
158
156
154
152
150
152
154
159
163
167
168
172
173
175
173
170
167
163
161
161
163
165
165
163
161
161
161
159
159
165
167
167
167
170
170
170
170
167
167
165
161
158
154
150
146
146
146
150
152
154
158
159
159
172
172
173
172
170
170
168
168
167
165
163
163
161
158
156
152
152
154
159
165
167
170
173
175
175
173
172
167
163
159
161
163
165
165
163
161
161
161
161
161
165
167
165
168
170
172
172
170
167
167
165
163
161
161
159
156
152
148
148
150
150
154
156
158
173
175
177
175
173
172
170
170
170
170
170
168
167
165
159
156
156
159
163
165
168
172
175
175
175
175
173
168
161
159
161
165
165
167
165
161
159
159
163
163
165
167
168
168
170
170
170
170
167
165
165
161
163
163
163
163
159
154
150
148
150
150
152
154
173
173
175
175
173
173
172
172
173
173
172
172
170
168
165
163
161
163
165
165
168
173
173
175
177
175
173
170
163
159
159
161
165
165
165
163
163
163
167
167
165
167
167
167
168
170
170
168
167
165
163
161
163
163
167
168
167
161
154
148
148
148
148
152
170
170
172
173
172
175
173
173
173
172
172
172
172
170
168
167
167
167
167
167
168
172
175
178
178
177
175
172
165
161
159
159
163
165
165
165
165
167
168
168
168
167
167
165
167
168
168
168
165
163
163
165
165
167
168
170
172
170
163
154
148
144
142
144
168
168
168
170
172
175
175
175
173
172
170
172
172
170
168
170
170
172
170
170
170
172
173
177
180
178
177
175
170
165
165
163
163
165
165
165
165
167
168
170
168
167
163
163
165
165
165
167
163
163
163
163
165
167
168
170
173
173
168
163
152
144
141
141
165
167
167
168
172
173
175
173
173
172
170
172
172
172
170
172
172
173
173
172
170
170
172
173
177
178
178
177
175
172
168
165
165
163
165
165
165
165
165
165
165
163
161
163
163
163
165
165
163
161
165
163
165
163
165
168
172
172
170
167
161
150
142
139
165
167
165
165
168
170
172
170
170
168
168
172
170
172
172
172
172
173
173
173
173
172
173
172
172
173
175
177
178
177
173
168
167
165
163
161
163
163
163
161
163
163
161
163
163
161
163
163
161
163
165
165
165
165
163
167
170
170
168
168
165
158
150
139
163
165
161
163
165
165
165
163
163
167
168
170
172
173
173
175
173
173
172
173
173
173
172
170
170
172
173
178
182
182
178
172
170
165
163
163
163
163
163
161
165
165
163
161
161
161
159
159
159
161
165
167
165
163
163
167
168
168
168
168
167
161
156
146
159
161
161
161
161
161
159
158
158
161
165
168
172
172
175
175
173
172
172
173
173
172
170
167
167
168
172
177
183
183
182
177
170
167
165
163
163
163
161
163
165
167
165
163
159
159
159
158
158
161
163
165
165
163
165
167
168
168
168
170
167
165
159
154
156
156
158
159
161
159
156
154
154
154
159
165
167
168
170
172
172
172
173
172
170
170
167
163
163
167
170
175
180
183
180
175
170
165
163
165
165
163
163
163
163
163
165
163
161
161
161
161
163
163
163
165
163
163
163
167
167
168
168
168
167
165
159
156
154
154
156
159
161
158
156
154
150
150
154
159
161
163
165
167
168
170
170
170
168
167
165
161
163
165
168
172
177
178
177
172
168
165
163
163
167
163
161
163
163
161
163
163
163
163
163
165
163
165
165
167
165
163
163
165
167
168
167
167
165
163
159
158
156
154
156
158
159
159
158
156
154
150
150
152
154
156
158
159
163
165
167
167
167
165
161
159
159
161
167
170
173
175
172
168
165
163
161
161
165
165
161
161
159
159
159
161
163
163
163
165
165
165
165
167
165
163
163
163
165
165
165
165
165
163
161
158
158
156
156
158
159
159
159
158
154
152
152
152
152
154
154
152
156
158
161
161
163
163
161
158
158
159
161
167
168
168
168
165
161
159
161
163
163
165
165
163
161
159
159
161
163
165
163
163
165
165
165
165
163
161
159
163
163
165
163
161
163
163
163
161
158
156
154
156
158
159
158
158
158
154
154
154
152
154
152
150
148
152
154
156
158
158
156
154
154
156
159
165
168
167
165
163
159
159
163
163
165
167
167
165
163
161
161
161
163
163
163
163
163
163
163
163
161
159
159
161
161
161
163
161
163
165
165
163
158
154
152
154
156
159
158
159
159
156
158
156
154
154
152
148
144
146
148
150
150
150
148
148
150
152
158
163
167
168
167
165
163
163
165
165
165
168
167
165
161
161
163
165
165
165
167
167
167
165
163
161
159
158
159
158
159
163
163
161
161
163
163
163
158
156
152
152
154
161
161
161
159
158
158
156
154
152
150
148
144
144
146
146
146
144
144
144
148
150
158
163
167
168
168
167
167
167
165
165
167
168
167
165
161
159
163
167
168
167
165
167
168
167
165
163
161
159
158
158
159
163
167
165
165
163
165
165
158
158
154
154
156
161
163
167
163
159
158
156
154
152
148
148
146
144
142
144
142
142
141
144
148
150
156
161
168
170
170
170
167
165
167
167
168
168
167
165
161
161
161
167
170
170
167
168
170
168
167
165
163
161
159
159
159
163
167
167
167
167
167
167
159
159
158
156
158
161
167
170
170
167
161
158
156
152
150
148
146
144
142
142
141
141
142
146
148
150
156
161
167
170
170
172
168
165
165
167
170
168
165
163
161
161
161
165
168
170
170
170
172
172
170
168
167
165
161
161
161
163
168
168
168
168
167
168
163
163
163
161
163
165
170
172
173
172
168
163
159
154
152
150
146
144
144
144
144
144
146
148
150
152
154
159
165
170
172
175
173
167
165
168
170
172
168
165
163
163
165
167
170
170
170
170
173
173
173
172
168
167
165
163
163
165
168
170
170
168
167
168
165
167
167
165
165
167
170
173
175
175
172
170
163
159
154
152
150
148
148
148
146
148
150
152
152
152
152
156
159
167
172
177
177
172
168
170
170
170
172
168
165
165
167
168
170
172
172
173
175
173
173
173
170
170
168
167
167
167
170
170
170
168
167
168
168
168
168
167
167
168
172
175
177
177
175
172
168
163
158
154
152
150
148
148
148
150
154
154
152
152
152
152
156
161
170
175
177
175
173
172
172
172
172
170
167
167
167
168
172
173
173
175
177
175
172
170
170
170
170
172
172
172
172
172
172
170
170
170
168
170
170
167
168
170
173
177
177
177
175
175
172
167
163
156
152
152
148
148
150
152
154
154
152
150
150
148
154
159
167
173
177
177
175
175
173
173
172
172
168
167
167
168
170
172
172
173
175
172
170
168
168
172
172
172
173
173
173
173
172
172
172
172
170
172
172
167
168
170
173
177
178
178
178
177
173
170
167
159
154
152
152
152
152
152
154
154
152
150
148
150
154
159
163
168
173
175
175
177
177
175
173
172
170
167
167
168
170
172
172
173
172
170
168
167
168
172
173
175
175
175
173
173
173
173
175
175
173
173
172
168
168
172
175
178
180
180
180
178
177
173
168
163
156
152
152
150
152
150
154
156
154
154
152
154
156
161
165
167
172
173
175
177
178
178
177
175
172
170
170
172
172
172
172
172
170
170
170
167
167
170
175
177
177
175
175
175
175
175
175
178
177
177
175
172
170
173
177
180
180
180
182
178
177
175
172
167
159
154
152
150
150
150
154
158
156
154
154
156
159
163
167
167
170
172
172
175
177
182
182
178
175
173
173
173
173
172
172
170
170
170
170
167
167
170
172
173
175
173
173
173
173
175
177
178
182
182
178
175
173
173
177
180
180
180
178
177
177
177
173
170
163
156
154
150
150
154
158
159
159
158
158
159
161
165
170
170
170
172
170
170
173
178
182
182
180
177
175
175
175
173
172
168
167
168
167
167
167
168
173
173
173
172
170
172
173
175
177
178
183
182
180
180
175
173
177
178
182
180
178
180
178
177
175
170
167
159
156
154
156
158
161
163
163
159
159
161
163
168
172
173
172
172
168
167
168
173
178
182
182
180
178
177
175
173
172
170
167
167
167
168
170
168
172
172
170
168
167
168
170
172
175
177
182
182
182
182
180
175
175
177
178
178
180
182
178
178
177
173
168
165
159
158
158
159
163
165
163
163
161
161
165
168
172
175
173
172
168
165
165
168
172
177
180
180
178
178
177
175
173
170
168
168
168
170
170
170
170
168
168
165
165
165
167
168
172
175
178
178
180
183
183
180
177
177
177
180
180
180
178
177
177
175
172
168
163
159
159
161
165
165
165
163
163
163
165
168
172
173
173
172
168
167
165
167
168
172
175
177
175
177
177
177
175
173
172
170
170
172
172
168
168
170
168
165
163
161
163
167
168
172
177
178
180
183
185
183
180
177
177
180
178
178
178
177
177
175
173
168
165
161
161
161
163
165
163
161
161
163
163
167
170
172
172
172
168
168
168
168
167
167
168
172
173
173
175
175
177
177
175
173
172
172
172
170
170
168
167
165
165
165
163
165
167
170
177
177
180
185
186
185
182
177
177
178
180
178
177
177
178
177
175
170
168
163
161
161
161
161
159
158
158
159
159
163
167
168
170
170
170
170
170
170
168
165
165
167
168
170
173
175
177
178
177
175
173
172
172
170
168
167
165
165
167
167
167
167
167
167
178
178
180
182
185
185
182
178
175
180
182
178
178
180
180
178
177
172
168
165
163
161
161
161
158
156
158
158
159
159
163
167
168
170
168
170
170
170
170
167
165
165
163
167
170
173
175
177
177
177
173
172
170
170
167
165
163
163
165
167
167
168
168
168
178
180
180
182
182
182
180
177
177
180
183
180
178
180
182
182
177
173
168
165
163
161
161
161
159
156
156
158
158
159
163
165
168
168
168
170
170
172
172
170
165
161
161
163
167
168
172
173
175
175
175
172
170
170
165
163
163
163
165
165
168
172
173
170
180
182
182
180
180
180
178
175
178
182
183
180
178
180
182
182
178
175
170
165
161
159
159
161
159
156
156
156
158
161
165
165
167
167
167
168
170
172
172
170
167
163
161
163
165
167
170
172
173
173
173
172
170
168
165
163
163
163
163
165
170
173
175
172
183
183
183
182
182
182
178
177
180
183
183
180
180
180
182
180
180
177
173
168
163
159
161
161
158
156
156
158
161
163
163
165
163
165
165
167
170
173
172
172
167
165
163
163
165
167
170
170
172
172
172
170
168
168
163
163
161
163
165
167
170
173
175
173
183
183
183
183
182
180
178
178
180
182
183
182
180
180
182
182
178
178
177
172
167
161
159
161
158
158
156
159
163
165
165
165
165
167
167
168
168
172
172
170
167
165
165
165
167
168
170
172
172
172
170
168
167
167
163
159
163
165
167
167
168
172
173
173
185
185
183
183
180
180
180
180
178
180
182
182
180
178
182
182
180
180
178
173
168
165
159
159
158
158
159
163
165
168
167
167
167
168
167
167
167
168
168
170
167
167
168
168
168
170
173
172
172
170
168
170
168
168
165
163
165
165
165
167
167
170
172
172
188
186
185
183
178
178
180
178
178
178
180
180
180
178
180
180
180
180
178
173
170
167
163
161
161
161
161
163
165
167
167
168
168
170
170
167
167
167
168
170
168
167
167
168
168
172
173
173
170
168
167
168
168
170
168
167
167
165
165
167
167
168
170
170
189
188
185
183
182
180
180
178
178
178
180
180
180
182
178
178
178
178
178
175
172
170
168
165
165
163
163
163
165
165
168
170
172
173
173
168
165
165
167
168
168
167
167
167
168
172
175
173
170
167
165
165
167
168
170
168
168
167
165
167
167
167
170
170
188
186
185
186
185
183
182
180
178
178
180
180
180
180
178
177
177
178
178
177
173
173
172
172
170
167
165
163
163
165
167
170
170
172
172
170
167
165
167
168
167
165
167
167
168
170
173
175
173
168
163
161
165
167
168
168
170
168
165
167
167
168
168
168
183
185
186
188
188
186
185
183
182
180
180
178
178
178
177
177
177
178
178
178
175
173
175
173
173
172
168
168
167
168
168
168
170
172
172
168
167
165
167
167
167
165
165
167
168
168
170
172
172
168
165
161
161
165
167
168
170
170
168
167
167
168
168
170
183
186
188
189
189
186
186
185
185
182
182
180
178
177
175
175
177
178
180
178
177
175
175
173
173
175
173
172
170
170
170
170
170
170
172
170
168
168
167
167
165
165
163
165
167
167
168
170
168
168
165
163
161
163
163
165
167
168
172
170
170
170
172
172
185
188
189
189
189
186
186
185
186
185
183
182
180
177
173
172
173
177
178
178
177
177
175
173
172
173
175
175
175
173
173
172
172
173
173
172
172
170
168
167
167
165
163
165
165
168
168
167
167
167
165
163
163
163
163
163
167
168
172
173
173
173
172
173
186
189
191
191
188
186
186
186
186
185
185
183
182
177
173
170
172
173
173
175
177
177
177
173
172
173
175
177
177
175
173
172
173
175
177
175
173
173
172
170
167
165
163
163
165
168
168
165
165
167
165
167
167
165
165
165
167
170
170
172
173
173
172
173
186
191
191
189
188
186
186
186
185
185
185
183
180
177
173
172
170
172
172
173
175
177
177
175
173
175
177
178
177
175
173
173
175
175
175
177
175
175
175
173
170
167
165
163
167
168
170
170
167
167
167
170
172
170
168
168
168
168
170
170
170
172
172
172
186
189
191
189
188
186
186
186
185
183
182
182
178
177
173
172
170
172
172
173
175
177
175
173
173
175
177
178
177
175
173
173
173
172
173
173
175
177
178
177
173
170
167
167
168
170
173
173
170
168
170
172
172
172
172
172
170
167
168
168
168
167
168
168
185
188
189
188
186
185
185
186
183
182
180
178
177
175
172
172
173
173
175
175
175
175
173
172
172
175
178
180
178
175
175
173
172
170
172
173
175
178
178
178
177
173
170
168
168
172
175
175
172
170
170
170
172
173
172
172
172
168
167
165
165
163
163
165
180
185
186
185
183
183
185
186
183
180
178
177
177
173
172
173
175
177
175
177
175
175
175
173
175
177
178
178
177
175
175
173
172
168
170
172
175
178
182
182
180
177
173
170
168
172
175
175
173
170
168
168
168
170
172
173
172
168
167
165
163
159
159
161
175
182
185
183
182
182
183
185
183
180
177
177
175
173
172
173
177
178
177
177
173
173
173
175
177
180
180
178
175
177
177
175
172
170
172
172
175
178
182
182
180
178
175
172
172
172
173
173
173
172
168
167
165
167
168
170
172
168
167
165
163
158
158
159
173
177
180
182
180
182
185
186
183
180
178
177
175
173
172
173
175
178
177
175
172
170
173
175
178
182
182
180
177
177
177
175
173
172
172
173
175
178
182
182
180
177
173
172
172
170
170
170
170
170
168
167
167
165
165
167
168
170
168
167
163
159
158
158
173
175
178
180
182
182
185
186
185
182
178
177
173
172
170
170
173
175
173
173
172
172
173
175
180
182
183
180
178
177
177
175
173
175
173
173
173
175
178
178
177
173
172
168
167
167
167
167
167
168
168
168
167
165
163
163
167
170
170
168
167
163
161
159
173
175
177
180
182
182
185
185
185
183
178
175
172
170
167
168
172
173
172
172
172
172
173
175
178
183
183
183
180
178
177
175
175
175
175
172
170
172
173
173
172
170
167
163
163
161
161
161
163
165
167
167
165
161
159
161
163
167
170
170
168
167
165
163
175
175
177
180
180
180
182
182
183
183
182
178
173
172
168
168
172
172
172
172
170
172
173
177
178
182
185
185
182
180
180
178
175
175
173
170
168
168
168
168
168
167
161
159
158
158
156
156
158
159
161
161
159
158
158
159
161
165
168
170
170
170
168
168
175
175
177
180
180
178
178
180
182
183
182
180
177
173
172
172
173
173
173
173
172
173
175
177
178
180
182
182
182
180
180
178
177
175
172
168
167
165
165
167
167
165
159
156
156
156
154
154
154
156
159
159
159
159
158
159
161
163
168
170
172
172
172
172
175
177
177
178
178
178
178
178
180
180
180
180
178
175
173
172
173
173
175
177
177
177
178
178
178
180
180
178
178
178
177
175
173
172
170
167
163
161
161
163
165
165
159
158
156
156
156
154
152
154
156
158
159
159
161
163
163
163
168
172
175
175
175
175
172
173
177
178
178
177
178
178
177
177
177
177
177
175
173
173
172
173
177
178
178
178
182
182
180
180
180
178
177
175
173
172
172
172
170
165
163
159
158
161
161
161
159
158
156
156
156
156
154
154
156
158
159
161
163
165
165
167
170
173
175
175
177
177
168
170
173
177
177
177
177
177
177
175
173
175
177
173
173
173
173
175
177
178
178
180
182
183
182
182
180
177
173
168
168
168
170
170
172
167
165
163
161
161
161
161
159
158
154
156
156
156
156
158
159
159
163
165
167
167
167
168
172
173
175
175
177
178
165
167
170
172
175
177
177
177
177
175
173
175
175
173
173
173
173
175
177
177
178
180
180
180
182
180
178
177
172
167
167
167
167
170
172
170
168
168
167
165
163
163
161
158
156
156
156
158
159
163
167
167
168
168
168
170
170
172
173
175
175
177
180
182
165
165
167
167
170
175
177
177
177
175
173
175
177
177
175
175
175
177
177
177
178
178
178
178
178
178
177
177
172
170
168
167
167
168
173
172
170
170
168
167
165
165
165
161
159
158
158
158
161
165
168
170
172
170
172
172
173
173
175
178
180
180
182
183
165
167
168
167
168
172
175
175
175
175
175
175
178
178
178
177
177
177
177
177
177
177
175
175
175
177
177
177
173
172
170
170
168
170
172
173
173
172
172
170
168
167
167
165
163
161
159
159
163
167
168
172
173
172
172
173
173
177
178
180
180
180
182
185
