P2
# 596 of 608 Angiograms
64 64
255
77
82
82
79
81
81
76
79
81
81
84
84
84
84
87
86
82
82
82
84
87
89
89
89
91
91
84
77
72
72
74
81
87
93
95
98
100
98
95
91
87
86
91
93
93
93
87
84
79
72
68
65
63
66
68
71
69
76
79
82
89
95
93
98
79
82
81
81
81
81
77
81
81
81
84
82
82
82
84
84
86
86
81
82
86
89
91
95
91
87
84
77
71
72
74
81
87
93
95
96
98
95
93
93
89
86
89
89
91
91
89
86
82
76
72
68
63
66
66
68
71
72
76
77
84
91
95
96
82
82
82
81
77
76
79
81
82
81
82
82
84
84
82
82
82
82
81
82
87
91
91
93
91
87
84
77
74
71
72
81
86
95
95
98
98
95
95
91
91
89
89
89
91
91
96
87
84
79
74
71
66
68
68
71
71
72
74
76
79
86
93
96
81
81
79
79
79
79
81
77
81
82
81
79
81
84
82
84
81
82
82
84
86
87
89
89
89
87
86
79
74
69
72
81
86
95
95
95
95
93
93
87
89
91
89
89
89
93
95
91
84
81
77
74
69
69
69
69
74
72
74
76
76
84
89
91
82
79
77
79
79
82
82
79
77
79
81
81
77
81
81
81
81
81
81
84
84
87
91
91
89
87
86
81
74
71
74
81
89
91
95
93
93
91
89
89
93
95
93
93
91
93
93
91
87
82
79
76
71
68
68
71
72
71
72
72
72
79
86
91
84
79
81
79
81
84
82
79
77
77
81
82
81
81
81
81
81
79
77
82
84
87
89
91
91
87
84
82
76
72
76
84
87
91
91
93
93
93
87
91
95
95
93
93
91
89
91
91
86
84
79
76
76
71
71
72
71
71
72
69
71
76
82
89
84
82
82
79
79
81
79
79
77
77
81
82
82
79
81
84
79
79
77
84
87
91
91
95
93
91
87
82
77
74
77
84
87
91
93
91
93
91
87
91
93
91
93
93
93
87
89
87
87
86
82
77
79
76
72
76
72
69
69
69
69
72
77
84
81
81
82
81
82
81
79
79
77
79
76
81
86
82
79
82
79
77
81
84
89
91
95
96
95
93
91
82
77
76
77
81
84
89
91
93
91
91
89
95
98
93
93
95
91
89
89
87
87
87
82
79
81
77
72
74
68
66
68
66
68
69
71
77
81
81
81
82
82
81
79
79
77
77
76
82
84
82
81
81
79
77
79
82
86
89
91
91
91
93
91
82
79
74
77
79
82
86
89
91
91
93
93
91
93
93
95
96
95
93
87
87
87
87
87
82
81
77
72
69
65
65
66
68
68
66
66
71
81
82
84
84
84
79
79
81
79
79
76
77
81
81
82
81
79
76
79
81
82
86
91
87
91
91
89
84
79
77
77
79
82
87
89
91
91
95
95
93
93
95
95
96
95
91
89
87
87
87
86
87
82
79
76
68
66
69
66
66
65
63
63
65
79
84
86
86
86
81
79
82
81
79
77
79
79
79
77
79
79
79
81
81
82
87
93
91
89
91
91
86
81
79
81
81
81
86
89
93
95
95
95
93
93
95
96
95
95
93
91
91
89
89
89
91
89
82
79
71
68
68
65
63
60
56
56
60
82
82
82
84
82
82
82
84
81
77
77
79
81
79
77
77
79
79
79
81
86
87
91
91
93
93
89
86
82
76
76
76
79
87
93
95
95
96
98
93
93
93
96
95
96
95
95
93
93
91
89
89
87
86
81
74
69
63
62
63
58
54
55
58
82
82
82
84
82
82
82
82
81
76
76
76
79
77
77
77
79
81
81
81
82
87
89
89
89
91
91
87
84
79
72
74
79
87
93
93
95
96
96
89
89
93
95
93
96
96
100
96
91
91
91
89
87
86
82
79
71
65
59
59
56
55
55
55
84
84
82
81
81
82
81
81
81
77
79
79
79
77
77
76
77
77
76
79
82
84
86
87
87
86
91
87
84
79
76
77
79
84
91
93
95
93
91
89
89
93
95
93
95
96
96
96
95
93
91
87
87
89
86
82
76
68
65
62
56
55
55
55
84
84
81
81
84
86
86
82
81
79
77
79
77
74
74
74
74
74
77
81
82
82
82
87
87
84
89
89
87
81
76
77
77
81
87
93
91
91
91
89
93
95
95
95
96
96
95
95
95
91
89
91
91
89
86
84
81
72
66
60
58
55
55
55
86
86
82
81
84
84
82
86
84
81
82
81
77
76
74
72
72
76
81
81
82
82
86
86
86
84
89
89
87
82
81
81
79
82
86
91
93
91
91
91
91
95
96
98
95
96
96
95
95
93
87
93
95
91
89
91
87
79
71
60
56
56
55
54
84
82
81
81
86
84
82
81
81
81
82
76
74
76
77
74
74
79
84
82
81
81
84
84
86
86
87
91
89
86
84
81
81
82
84
87
93
91
91
93
93
95
95
96
95
93
96
95
91
91
91
95
95
91
91
93
91
86
79
71
62
59
59
56
81
81
82
82
82
82
81
77
79
77
79
76
71
71
74
74
76
77
81
79
79
81
84
82
86
87
89
91
93
89
84
81
81
82
81
84
89
93
89
93
95
96
95
96
95
93
95
91
87
91
91
93
96
95
96
95
91
89
86
81
71
63
60
59
84
84
84
82
81
81
79
77
77
79
79
76
72
74
76
77
77
77
79
79
77
81
82
82
82
84
89
89
91
93
87
82
81
81
79
79
84
89
91
95
95
93
96
96
95
95
95
89
89
91
93
91
95
95
96
95
93
91
89
86
81
71
62
60
84
82
81
81
82
79
79
76
77
79
77
74
74
76
74
77
79
81
82
79
77
79
81
82
81
82
87
89
89
91
91
84
79
76
77
79
86
87
91
96
95
93
95
96
96
96
95
89
89
91
93
93
91
95
95
96
91
91
91
89
86
81
69
63
82
79
82
82
81
79
77
77
79
79
77
76
76
76
76
79
82
84
81
79
77
76
76
81
82
84
86
87
89
91
91
87
79
74
76
77
84
87
89
96
96
93
95
95
95
95
91
89
91
93
91
89
89
93
93
91
93
89
91
89
89
86
77
69
79
77
82
86
82
77
76
79
79
79
79
74
72
74
76
81
84
81
79
79
76
77
79
77
79
84
89
89
91
93
91
87
82
76
76
76
79
86
89
93
93
93
93
95
95
91
89
91
93
91
89
91
91
91
91
91
93
89
89
93
91
91
84
76
82
81
81
82
81
79
77
79
79
79
77
76
74
74
76
81
82
82
79
81
76
76
79
79
79
82
89
91
91
93
89
87
84
79
77
77
77
82
89
95
93
96
95
93
93
91
89
91
93
95
95
95
95
93
93
93
89
87
91
93
89
91
87
82
81
81
81
81
84
84
81
79
77
79
76
76
76
76
76
81
84
86
84
81
77
81
79
79
82
82
86
87
89
93
96
93
89
82
77
79
77
81
86
89
91
95
95
93
95
93
91
91
91
93
93
95
95
95
93
91
89
89
91
95
91
91
89
86
82
81
79
79
81
84
84
81
79
77
77
74
76
79
79
77
82
86
82
81
79
81
79
76
77
81
87
87
89
95
96
96
93
86
79
77
77
79
84
86
93
95
95
93
93
93
91
89
89
89
91
91
93
91
89
89
89
89
91
93
89
87
89
89
79
77
79
79
79
82
84
79
79
76
76
77
76
77
79
79
81
81
79
77
82
81
79
77
79
84
87
87
87
95
95
96
95
89
84
79
76
76
81
86
91
95
95
93
93
91
89
89
89
89
87
89
91
89
91
91
87
87
91
93
91
89
89
91
79
77
81
79
77
82
79
81
79
76
76
76
76
74
76
77
79
79
81
77
79
82
82
82
82
87
91
91
87
91
95
98
98
95
89
84
79
77
77
84
89
93
93
91
91
91
91
89
91
93
91
89
89
89
93
93
89
89
93
93
91
89
89
91
79
81
77
77
79
81
79
77
76
76
77
77
76
76
76
74
79
81
81
76
77
84
84
82
84
89
91
87
89
91
95
95
95
93
91
86
84
77
79
82
86
87
87
93
95
93
89
91
91
91
95
96
95
91
95
89
89
93
93
89
89
86
87
89
79
77
76
76
79
79
81
76
76
76
77
74
74
76
76
76
77
79
77
76
77
84
86
84
87
91
91
87
91
93
95
91
89
91
93
89
87
84
82
82
84
86
86
89
91
93
91
91
95
95
95
95
96
89
89
89
93
91
91
89
87
87
86
91
81
79
79
81
79
79
81
76
76
74
76
76
77
76
77
77
77
79
77
76
79
81
82
86
86
87
89
89
89
91
95
93
91
93
89
89
89
86
82
81
82
84
84
87
87
91
93
96
96
95
93
93
93
89
89
91
93
91
91
91
89
89
87
89
79
79
79
79
82
79
79
77
74
76
76
79
76
74
74
76
74
77
77
77
79
82
82
87
86
86
86
86
89
93
96
96
91
93
91
91
91
87
84
77
76
77
82
86
87
91
95
95
93
95
93
95
93
91
89
89
91
91
91
91
89
89
89
89
79
79
76
76
81
81
81
82
76
76
76
77
77
72
76
79
76
76
77
79
82
84
82
86
84
86
86
86
91
93
93
95
95
95
93
91
93
91
86
79
74
76
79
81
84
86
91
91
89
95
95
95
95
91
89
89
89
89
93
89
87
91
91
89
79
79
77
76
81
81
79
82
79
77
77
77
77
76
76
77
79
77
76
79
82
82
82
84
81
82
84
84
89
93
91
93
95
95
95
96
95
93
89
86
81
79
77
81
81
86
89
91
91
91
91
89
91
93
91
91
91
89
91
87
84
89
93
89
77
77
77
77
79
77
77
79
79
77
76
76
77
77
77
76
79
77
76
79
82
84
81
82
79
82
84
87
89
91
93
96
98
96
96
98
98
93
91
87
86
82
79
79
79
84
87
87
87
91
91
91
91
93
91
87
87
87
89
87
89
91
89
87
79
77
77
79
81
81
77
81
77
74
76
76
76
77
76
76
77
76
76
79
82
82
81
81
82
82
84
84
86
89
93
93
95
95
95
98
98
95
91
89
89
86
81
81
79
79
84
87
87
91
93
91
91
93
93
87
87
87
86
86
86
91
89
86
82
81
81
79
81
77
77
81
79
76
77
74
72
76
76
77
79
77
77
81
79
76
79
81
84
86
87
84
87
91
91
93
95
95
93
95
96
95
91
91
91
89
86
82
79
79
81
82
89
91
91
91
91
91
93
87
86
87
84
86
87
89
87
86
81
79
77
76
81
79
79
81
77
77
76
76
77
76
77
79
79
79
79
82
79
76
79
82
82
86
87
82
86
89
91
93
96
95
91
89
89
91
93
93
91
91
87
86
82
79
74
79
84
89
89
89
93
91
93
91
87
87
86
86
87
87
87
89
79
77
77
76
79
79
81
82
79
79
76
77
77
77
79
79
79
82
81
82
81
77
79
82
82
82
84
84
89
89
91
91
93
93
93
89
89
89
91
93
93
91
89
89
84
82
77
77
81
84
86
89
91
89
89
91
89
86
87
87
89
87
86
87
79
79
77
76
77
77
79
81
79
79
77
77
76
79
81
81
82
86
82
82
81
81
81
86
84
82
84
86
87
87
89
91
93
93
91
93
93
93
96
95
95
93
91
87
86
84
82
81
77
79
81
84
87
87
87
87
89
87
87
87
89
86
87
89
79
77
74
74
76
77
79
81
79
81
77
81
81
79
77
79
82
86
84
81
81
81
81
82
87
86
84
86
89
91
91
93
93
93
95
96
98
96
98
95
96
93
91
89
87
86
84
81
77
76
76
81
86
89
91
89
87
87
87
89
87
87
89
89
77
77
76
74
77
77
81
81
77
77
76
81
81
79
79
77
82
82
84
82
82
84
82
84
86
84
84
89
91
93
93
93
91
91
93
98
96
96
96
95
93
93
93
93
93
87
87
81
77
77
76
81
82
86
89
89
89
87
87
91
93
89
89
89
77
77
77
76
77
79
79
79
77
79
76
77
81
79
79
79
81
82
81
82
87
86
79
82
82
84
86
86
89
89
89
86
89
89
93
93
93
93
95
93
93
93
91
91
93
89
87
82
84
82
79
79
79
81
86
89
89
87
89
87
89
93
93
87
79
76
76
77
76
77
77
81
79
81
79
77
82
81
81
77
77
82
81
84
87
87
81
81
81
82
84
84
84
86
87
87
89
89
93
96
93
93
91
93
91
91
89
91
93
89
89
87
86
84
81
76
76
79
79
86
86
87
89
89
86
91
93
89
81
81
76
79
77
76
76
79
81
81
77
79
82
81
81
79
77
79
82
82
84
84
82
82
84
84
82
82
82
86
86
86
87
91
93
95
95
93
93
93
93
91
91
93
95
91
91
91
86
84
84
81
79
76
77
79
86
86
86
87
89
87
91
89
79
79
77
77
77
76
76
77
81
79
79
79
81
81
77
77
81
81
82
82
84
84
82
84
86
84
82
82
86
86
86
84
87
91
91
91
93
93
93
95
91
89
91
91
93
91
91
89
86
86
86
84
82
77
74
76
81
86
86
89
86
84
87
87
77
79
76
77
77
79
77
76
79
77
79
81
82
81
76
76
79
82
82
84
86
87
82
82
84
84
82
81
79
81
81
84
86
89
91
87
91
91
95
95
91
91
91
91
87
87
87
87
89
87
86
86
86
81
76
77
77
84
86
84
86
84
84
87
77
79
76
77
79
77
77
77
77
76
81
82
86
86
81
79
82
84
82
87
86
82
79
82
84
82
81
81
77
79
82
86
84
86
91
93
91
89
91
91
91
93
89
91
89
86
87
87
89
86
87
89
86
82
79
77
76
79
82
84
82
82
86
87
81
79
77
77
77
74
74
72
74
76
82
82
84
84
77
77
81
84
86
86
84
81
81
82
84
81
82
81
81
82
81
84
82
84
87
93
91
87
87
89
89
91
93
91
89
89
89
87
89
87
87
93
93
86
82
82
82
81
82
82
81
81
84
86
86
79
76
77
76
74
76
71
72
76
76
79
81
79
76
77
79
82
86
86
84
84
81
82
82
77
81
81
82
86
82
81
81
81
84
87
86
86
87
87
87
89
93
89
86
86
86
87
87
84
86
93
91
86
84
81
82
82
82
81
82
82
82
82
82
81
76
76
74
76
76
76
77
76
76
77
79
81
79
74
76
81
86
82
81
84
81
77
76
81
81
79
79
84
81
77
79
82
82
84
86
87
87
89
89
87
91
93
87
84
84
87
86
86
89
93
89
86
82
81
86
87
86
82
82
81
81
79
84
81
76
74
72
76
76
77
79
76
77
77
79
79
77
76
76
81
86
82
81
82
79
77
82
84
81
82
82
84
81
81
82
84
82
81
84
84
87
91
87
84
91
91
87
84
86
89
89
91
91
93
91
89
86
86
87
91
89
86
86
82
81
81
81
79
76
72
71
72
74
77
76
76
77
79
81
82
79
76
76
79
84
82
79
77
79
77
84
86
84
82
84
84
82
82
84
86
84
84
84
82
86
87
86
84
86
86
87
87
86
87
91
93
93
93
89
89
87
87
87
89
91
89
87
86
84
84
76
77
77
72
71
71
71
77
76
76
76
77
81
82
81
79
77
79
81
81
82
79
81
77
82
82
82
81
81
82
84
84
84
86
84
86
84
82
82
84
84
86
86
87
87
84
86
84
89
91
91
93
91
91
89
87
89
91
91
91
89
87
87
87
79
76
76
71
71
72
76
76
74
72
76
79
81
79
79
76
79
81
82
81
79
81
79
79
79
81
81
79
77
77
82
87
86
86
84
86
84
86
86
84
86
87
87
89
87
87
87
86
87
93
93
93
93
93
91
91
87
89
91
91
91
91
91
87
79
77
76
74
77
79
74
77
76
74
76
76
81
79
77
76
79
81
81
77
77
77
77
77
81
81
79
82
79
79
81
84
86
84
82
86
84
86
86
84
82
84
86
87
89
89
89
87
91
93
91
91
93
91
91
91
89
93
93
91
93
93
93
93
79
77
74
72
76
77
74
76
74
74
77
77
81
79
79
79
79
77
79
79
76
79
81
81
81
79
81
82
79
82
77
82
86
82
82
86
86
86
87
86
82
82
86
86
86
87
87
87
95
93
91
91
91
89
91
89
87
89
91
91
96
96
93
93
74
76
74
74
72
76
76
76
74
72
76
79
79
77
79
82
82
81
79
81
77
79
79
79
82
79
79
81
82
81
79
81
81
79
84
84
86
82
86
87
84
82
82
82
84
86
86
89
95
95
91
89
91
91
91
89
89
89
89
89
93
95
93
93
71
72
76
76
74
76
77
76
76
76
76
77
81
79
77
79
81
81
82
81
79
79
79
82
84
79
77
82
82
82
81
81
82
82
82
84
86
86
86
87
87
84
86
86
87
87
86
87
93
95
93
91
93
91
89
89
91
89
89
89
93
95
95
96
71
72
76
77
76
76
79
79
76
79
79
77
77
79
81
81
79
81
79
79
77
77
82
82
81
79
79
81
82
81
81
81
84
84
81
82
84
86
86
87
87
86
84
87
87
89
87
87
89
93
91
91
95
93
89
89
91
91
91
87
91
93
93
93
74
74
76
77
77
77
77
77
79
81
79
77
76
81
82
82
82
81
79
82
79
79
79
81
81
79
79
81
79
79
79
81
84
82
84
84
84
86
86
87
87
86
84
86
89
91
87
86
87
89
93
93
93
93
91
93
93
91
91
89
93
93
89
86
76
76
77
79
77
79
77
76
79
79
79
79
79
81
82
82
84
81
84
84
81
81
81
81
82
81
81
81
81
81
77
81
82
81
84
84
84
86
84
82
82
84
81
82
89
93
91
87
89
91
93
93
91
93
95
95
95
91
93
95
91
91
91
87
79
81
81
79
81
79
77
79
81
82
86
84
84
82
84
82
82
81
79
81
81
82
84
81
81
81
81
79
79
77
81
82
84
84
82
82
82
84
84
84
84
82
86
87
91
93
91
91
91
93
93
95
96
96
98
98
95
91
93
91
91
93
93
91
81
81
79
81
82
81
77
81
82
84
84
86
87
86
86
84
82
81
77
77
79
84
87
82
79
79
79
79
79
79
79
81
82
82
81
81
82
84
84
86
86
84
84
87
93
93
91
89
89
93
93
93
96
98
98
96
96
95
93
93
93
91
93
91
79
77
77
79
79
79
79
77
81
84
86
87
86
84
84
84
81
82
81
77
79
82
84
79
79
77
79
79
79
81
79
81
81
79
82
81
79
84
84
84
86
87
86
87
91
93
91
91
89
91
93
93
93
96
96
96
98
95
93
93
93
95
91
89
