P2
# 600 of 608 Angiograms
64 64
255
185
183
182
180
180
178
177
178
177
178
178
178
180
182
183
185
188
188
186
183
180
180
178
177
177
175
172
172
173
175
178
178
178
177
173
168
167
168
168
168
168
167
165
165
165
167
168
167
167
165
163
163
161
161
163
165
165
165
163
163
165
165
167
167
183
182
180
178
177
175
175
175
175
177
177
177
177
178
182
185
188
189
188
185
183
182
180
178
177
175
173
172
173
175
177
177
175
173
172
168
167
168
170
168
167
165
165
163
163
163
163
165
167
167
163
161
159
158
159
163
163
163
165
167
167
167
165
165
180
180
178
177
175
173
173
173
175
175
175
177
177
177
178
183
188
188
188
186
185
183
180
178
177
175
173
172
173
175
175
175
173
172
170
167
167
167
168
167
167
165
165
163
163
163
163
163
167
165
163
161
161
159
159
159
161
163
167
168
168
167
163
163
180
178
177
175
173
172
170
172
173
173
175
175
177
175
177
180
185
185
185
185
186
183
180
177
175
175
173
173
172
173
173
173
172
170
168
167
167
165
165
167
165
165
167
165
165
165
165
163
165
165
163
165
163
161
159
159
159
161
165
170
170
167
163
161
180
178
177
175
172
170
168
168
172
172
172
173
175
175
175
177
180
183
183
185
186
183
180
177
175
173
173
172
170
172
172
172
172
170
168
167
165
165
165
165
165
165
165
165
167
167
167
165
165
165
165
168
168
165
163
161
161
161
165
168
170
168
163
161
180
178
177
175
172
168
167
167
168
170
170
172
173
173
173
175
177
180
183
185
185
183
180
177
175
173
173
170
168
168
170
170
172
170
168
165
161
161
161
163
161
163
163
165
167
168
168
167
167
168
170
173
173
172
168
167
167
165
165
167
168
165
163
161
180
178
175
175
172
167
165
167
168
170
172
172
173
172
172
173
177
178
182
183
183
183
182
180
175
173
172
170
170
168
168
170
172
172
167
163
161
161
161
161
161
163
167
168
170
170
170
170
170
173
177
177
178
177
173
173
172
168
167
165
167
165
163
163
178
178
177
175
172
167
167
167
170
173
173
175
175
173
173
173
175
177
180
182
183
183
183
182
177
173
172
170
168
167
167
168
170
170
167
163
161
163
163
165
163
165
167
170
172
172
170
170
173
177
180
180
180
180
178
178
177
173
170
167
167
165
165
163
178
178
178
175
172
168
168
170
173
173
173
175
177
177
177
175
177
177
178
180
182
182
183
183
180
177
175
172
170
167
165
167
168
167
165
161
159
163
165
167
165
163
167
170
170
170
170
172
175
178
182
183
183
183
182
182
180
177
173
170
167
167
167
165
177
178
178
178
175
172
170
172
173
175
173
173
177
177
178
177
177
177
177
177
180
182
185
185
185
182
178
177
172
167
165
167
167
165
161
158
159
161
167
170
168
165
165
168
168
170
172
173
177
178
182
183
183
185
185
183
182
180
175
172
170
168
167
165
177
178
180
180
178
175
173
173
175
175
173
173
175
177
177
177
177
177
177
178
178
180
183
183
185
185
183
180
175
170
167
167
165
163
159
156
158
159
165
168
168
167
167
167
167
168
172
175
177
177
180
182
183
183
185
185
182
180
178
173
172
170
168
165
177
178
180
180
180
178
177
175
175
175
173
173
175
175
177
177
177
177
178
178
178
180
182
182
183
183
183
182
178
173
170
168
168
165
161
159
159
161
165
167
168
168
167
167
167
168
172
175
175
177
180
182
183
183
185
185
183
182
180
177
173
172
170
165
178
180
182
182
182
182
178
175
175
173
173
173
173
175
175
175
175
175
177
177
177
178
180
180
182
182
182
182
180
177
175
173
172
170
167
163
163
163
165
168
168
168
168
170
170
170
172
173
175
177
178
182
183
185
185
185
183
182
180
180
177
173
172
167
178
180
182
182
185
185
180
177
175
175
173
173
173
173
175
175
173
173
173
173
175
177
177
178
178
180
182
183
182
180
178
178
177
175
172
168
168
167
168
170
170
170
172
172
172
172
172
172
175
177
178
180
183
185
185
185
185
183
182
180
177
173
172
167
178
182
182
182
185
185
183
178
177
175
173
173
172
172
173
173
173
172
170
172
173
173
173
175
175
177
180
183
183
182
182
182
182
178
175
172
170
168
168
168
170
172
175
177
177
175
173
173
173
175
178
182
183
185
185
185
183
185
182
178
177
173
170
167
178
180
182
182
183
185
185
180
177
175
173
173
173
173
175
173
173
172
172
172
172
173
175
175
175
177
180
183
185
185
183
183
183
182
178
173
170
170
168
167
168
172
175
177
178
177
175
173
172
175
180
182
183
185
185
183
183
183
180
177
173
170
167
167
177
178
182
182
183
185
185
182
178
177
175
175
177
177
177
173
173
173
173
173
173
173
175
177
178
178
182
185
186
186
186
185
183
183
180
175
170
168
167
165
165
170
173
177
178
178
175
173
173
175
178
182
185
186
186
183
182
182
178
175
172
168
167
165
177
177
178
182
183
185
183
182
180
178
177
177
177
175
175
173
172
173
175
175
175
177
178
180
180
182
182
185
188
188
188
186
183
182
180
177
172
168
167
165
163
167
172
173
177
177
175
173
175
175
177
180
183
185
185
183
180
180
177
173
168
165
163
165
175
177
178
178
182
183
182
182
180
180
180
178
177
175
175
173
172
172
173
175
177
178
178
182
183
183
183
185
188
189
189
188
183
182
180
180
173
170
167
163
161
163
168
170
175
175
175
175
173
175
177
178
180
182
182
182
180
180
177
172
167
165
163
165
175
177
177
177
178
180
182
180
182
182
183
182
178
177
175
173
172
172
173
177
177
177
178
180
183
183
183
185
188
191
189
188
185
182
182
182
177
172
167
163
159
159
165
168
173
175
175
177
175
175
177
178
180
180
178
178
180
178
175
172
168
167
165
165
173
175
175
175
175
177
178
180
182
183
185
183
180
177
175
175
173
175
177
178
178
178
178
180
182
182
182
183
188
191
191
189
185
182
182
183
178
173
167
163
159
159
163
168
173
173
173
175
175
177
177
178
178
178
178
178
178
177
173
172
172
170
168
167
172
173
173
173
173
173
177
178
182
183
185
185
182
178
177
177
177
177
178
180
182
180
180
182
182
182
180
183
186
189
191
189
186
183
182
180
178
172
167
165
161
161
165
170
173
175
173
177
175
177
177
178
177
178
178
178
177
175
172
172
173
173
173
172
172
173
173
173
175
175
175
177
178
182
183
183
180
178
178
178
182
182
180
180
180
180
182
182
182
182
182
183
186
188
189
188
186
183
182
180
175
170
167
165
165
163
165
168
175
177
177
175
177
177
178
180
178
180
178
177
173
172
170
170
173
175
175
175
173
175
175
177
177
177
175
175
175
178
180
180
178
178
178
182
185
186
183
180
180
182
182
182
182
183
182
183
185
188
189
189
188
185
180
177
172
168
165
167
167
165
165
168
173
178
178
177
177
178
178
180
178
178
177
173
170
168
168
170
173
175
173
175
177
177
178
180
180
178
177
175
173
175
177
178
177
177
178
183
186
188
188
185
182
182
183
185
183
183
183
185
186
188
189
189
188
185
180
173
170
167
165
167
167
165
165
167
173
178
180
178
175
175
177
177
177
175
175
170
167
165
167
170
173
175
175
173
178
178
180
183
183
183
182
178
175
173
175
175
173
175
177
182
185
189
191
189
185
183
183
183
183
186
186
186
186
188
189
188
188
185
178
172
168
167
167
167
167
165
165
168
173
178
180
178
175
173
173
173
173
173
172
168
163
165
167
170
173
177
177
175
178
178
183
186
189
189
186
183
178
175
173
173
172
170
173
178
182
185
189
189
188
183
183
183
185
186
186
186
188
189
191
189
188
185
178
170
167
167
168
168
167
165
165
167
170
175
178
177
175
173
173
172
172
172
170
167
163
165
167
170
173
177
180
180
178
180
185
191
194
194
191
188
183
177
173
173
173
172
172
175
178
182
185
188
186
183
182
183
185
185
186
186
189
191
191
189
188
185
178
170
165
167
168
170
170
168
167
167
170
173
177
178
175
175
175
173
172
172
170
167
165
165
168
170
175
175
178
180
177
180
186
191
195
196
194
189
185
180
177
175
175
173
173
175
175
178
183
185
183
182
180
180
183
183
183
185
188
189
191
191
189
186
180
173
168
168
170
172
172
170
168
168
170
173
177
177
177
175
175
173
173
172
170
167
165
167
170
172
175
177
178
178
173
178
185
191
194
195
192
189
186
183
180
180
178
177
177
177
177
177
178
180
180
178
177
178
182
183
183
185
188
188
189
192
191
189
183
177
172
170
172
172
172
172
170
170
170
172
175
177
178
177
175
175
173
172
168
167
168
170
172
173
177
180
180
178
173
175
180
188
192
192
191
189
186
185
182
182
182
180
180
182
182
178
177
177
177
175
175
177
178
182
183
185
186
188
189
191
191
189
185
178
173
172
172
172
172
173
172
172
172
173
175
177
178
180
177
177
175
172
168
167
168
172
172
175
180
180
180
180
175
175
175
182
188
189
189
189
186
185
183
183
183
183
183
183
183
182
177
175
175
175
175
178
180
180
183
185
186
188
189
191
191
189
186
182
175
173
172
172
173
175
175
173
173
173
173
175
175
178
177
177
177
173
170
167
170
172
173
177
180
182
182
182
177
177
173
177
182
186
189
189
188
186
185
185
185
185
185
185
185
183
178
175
175
175
177
178
178
180
185
186
186
186
189
189
189
188
185
183
178
173
173
175
175
177
173
175
175
175
173
173
173
175
177
177
177
175
173
170
170
172
173
177
182
183
183
182
178
177
177
175
177
182
186
189
189
188
186
185
183
183
183
185
185
185
182
178
177
177
178
178
180
180
185
188
188
186
186
188
188
185
183
182
178
175
173
175
175
175
175
175
175
173
172
172
170
172
175
177
175
175
175
172
172
172
173
175
180
183
185
183
178
177
175
173
172
175
182
186
188
188
188
186
183
183
185
185
185
185
183
182
180
180
180
178
178
180
183
186
186
185
185
185
185
183
182
180
177
173
172
173
175
175
175
175
175
175
173
170
168
170
172
175
178
177
175
173
172
172
173
173
178
182
183
183
178
177
173
172
172
172
175
182
186
188
188
186
185
185
185
185
185
185
185
183
183
182
182
180
178
178
182
183
185
183
183
182
182
180
178
178
175
175
173
175
175
173
175
175
175
175
173
172
170
170
172
173
175
177
175
175
173
173
172
172
175
178
182
183
177
173
173
172
170
168
172
177
183
185
186
186
185
185
185
185
186
186
185
183
182
182
182
180
178
177
180
182
182
182
180
178
178
178
178
177
175
175
175
173
172
172
173
173
175
175
175
172
172
170
170
172
173
175
173
173
173
173
173
172
173
177
178
182
175
172
172
170
168
167
168
173
178
182
183
185
185
185
186
185
186
188
188
186
183
180
180
180
178
178
180
182
182
178
175
175
175
177
178
175
175
173
173
172
170
170
170
170
173
175
175
173
170
170
170
172
172
172
173
173
172
172
172
172
175
175
177
180
175
172
170
168
165
165
167
170
175
182
183
185
186
186
186
186
186
186
188
186
185
182
180
180
178
178
180
180
178
177
173
172
172
173
175
175
173
173
170
170
168
165
163
167
170
173
175
173
170
168
168
168
168
170
170
172
170
170
172
173
175
175
175
178
178
173
172
167
165
163
167
170
175
180
183
186
188
188
188
188
186
186
186
186
185
183
180
178
178
178
178
180
178
175
173
170
170
170
173
173
173
172
170
168
163
161
163
163
167
172
173
172
170
167
165
165
165
167
168
168
168
168
170
173
177
175
175
175
178
175
172
170
167
167
168
170
173
178
183
186
186
186
188
189
188
186
186
186
183
183
182
180
180
178
178
180
180
177
173
170
168
168
170
172
172
172
168
167
163
159
159
163
165
170
172
170
168
167
167
165
163
167
168
168
168
168
168
172
175
177
175
175
180
177
175
173
172
172
172
170
173
178
183
186
188
188
189
191
191
189
188
186
185
185
185
183
182
182
182
183
183
182
177
172
168
165
167
168
170
168
167
165
163
159
158
161
165
168
170
168
167
165
167
163
161
163
167
168
168
168
167
170
175
178
177
177
182
178
178
177
177
175
173
173
175
180
182
185
186
188
189
194
194
192
191
191
189
186
183
183
183
183
183
186
186
185
182
177
170
165
163
168
168
167
167
163
161
159
159
161
165
168
170
168
167
165
165
163
161
161
163
167
168
167
165
170
175
178
178
177
183
178
178
178
178
178
177
175
178
180
180
183
185
186
189
194
195
194
192
194
192
189
186
183
183
185
186
189
189
188
186
182
177
170
167
168
168
167
167
163
161
159
159
161
165
167
168
167
167
165
165
161
159
159
161
163
165
167
165
168
173
178
178
178
185
182
178
180
180
178
178
180
180
180
180
180
183
185
188
192
194
194
194
195
195
192
189
186
183
185
188
189
192
191
189
186
182
177
173
170
168
168
165
161
159
158
158
161
163
163
163
165
165
165
163
161
159
159
159
159
163
165
167
168
172
175
177
177
188
186
183
180
180
178
178
180
178
177
178
178
180
183
186
189
192
194
195
195
195
194
192
189
186
186
186
188
191
191
191
189
185
182
180
175
172
170
167
159
158
156
156
158
161
161
161
161
161
161
159
159
161
159
158
158
161
163
167
170
172
172
173
173
191
189
186
183
182
180
180
180
180
178
178
178
178
180
185
186
191
192
194
194
195
194
194
192
189
188
186
186
188
189
189
189
186
185
183
182
177
173
167
161
159
154
154
156
159
161
159
158
158
158
159
161
161
159
156
156
159
161
163
167
170
170
168
168
191
191
188
185
183
183
183
183
182
180
178
178
178
178
182
186
189
191
192
192
192
192
192
192
191
189
188
188
188
188
188
188
188
186
186
185
182
178
172
165
161
158
158
158
159
161
161
159
156
156
159
161
161
161
158
158
158
161
163
163
168
168
168
168
192
191
188
185
185
185
185
185
185
182
182
180
180
178
180
185
188
191
191
192
192
192
191
191
191
189
188
186
185
185
186
186
186
188
189
189
186
183
180
172
167
165
163
161
163
163
163
161
159
158
159
163
163
161
161
159
159
161
161
161
167
167
167
170
192
191
188
185
185
186
186
186
186
183
182
182
182
180
180
183
186
189
189
191
191
189
189
189
188
186
185
185
183
183
183
183
185
188
189
191
191
188
185
180
173
170
168
167
167
165
163
161
159
158
159
163
163
163
161
159
161
163
163
163
165
167
167
167
192
191
188
186
185
186
186
188
188
185
183
182
182
182
183
185
185
188
188
189
189
188
186
185
185
183
182
180
178
177
178
180
183
185
188
191
191
191
188
185
180
177
175
175
172
168
165
161
159
159
159
163
161
163
161
159
161
163
163
165
165
167
165
165
192
189
188
188
186
186
186
188
188
186
185
182
182
183
185
186
185
186
188
188
186
185
182
180
178
178
178
175
172
172
172
175
178
180
185
188
189
191
191
188
185
183
182
180
180
175
170
167
163
161
161
163
161
161
159
159
163
163
165
165
165
165
167
165
191
188
186
185
185
186
185
186
186
185
185
183
185
186
186
186
185
186
186
185
183
182
180
177
175
175
175
172
168
167
165
167
170
173
178
183
188
189
189
189
189
186
186
186
185
180
175
172
168
167
165
163
163
161
159
159
163
165
167
165
165
165
167
167
189
185
183
183
183
185
185
185
185
185
185
185
186
188
188
188
186
188
186
185
183
182
178
177
175
173
173
172
168
163
159
159
163
168
173
178
185
186
189
191
191
189
189
188
188
186
180
175
173
172
170
167
163
161
159
159
161
165
165
163
161
161
165
167
189
186
182
182
182
185
186
185
185
186
185
185
188
188
188
189
189
186
185
183
182
178
177
175
173
173
173
172
170
165
161
156
158
163
168
175
182
185
189
191
191
191
189
188
189
189
185
182
178
178
175
172
165
163
158
158
159
161
161
161
161
161
163
167
191
188
183
183
183
185
186
186
185
185
185
186
188
188
188
188
189
186
185
182
178
177
173
173
175
175
175
175
173
168
165
159
158
161
167
173
180
185
188
189
189
189
188
186
186
188
186
183
182
182
180
177
170
165
161
158
156
158
161
161
161
161
161
165
188
188
185
185
183
185
188
186
186
186
186
186
188
186
188
188
188
186
183
180
177
177
175
173
175
177
177
178
178
173
170
167
163
165
170
175
180
183
186
188
189
188
185
183
183
185
185
183
183
183
182
182
177
170
165
159
156
156
156
158
159
159
161
163
182
185
185
185
185
183
186
186
186
186
186
186
188
188
186
188
186
185
183
180
177
177
177
175
175
177
178
180
182
180
177
172
170
172
173
178
182
183
185
186
188
186
185
182
178
182
182
182
183
185
185
182
180
175
170
165
159
156
152
152
158
159
161
163
173
177
180
183
183
183
185
186
188
186
185
186
188
188
188
189
189
186
183
182
178
177
178
177
177
178
178
180
182
183
183
180
178
178
180
182
183
185
185
186
186
186
185
180
177
178
180
182
185
188
186
183
180
178
177
173
167
159
152
150
152
158
159
161
170
170
173
177
180
182
183
186
188
186
186
186
188
188
189
191
191
189
186
185
182
178
178
177
178
178
180
182
183
185
188
188
186
185
185
185
188
188
188
186
186
186
185
180
178
178
180
182
185
188
186
183
180
180
178
178
175
167
158
152
150
154
158
159
170
168
167
168
172
173
177
182
186
188
188
188
186
188
189
192
195
192
189
186
185
182
178
177
178
180
182
182
183
186
189
191
189
188
186
188
189
191
192
191
189
188
186
183
178
178
178
180
183
185
185
182
180
182
182
182
180
175
167
158
154
154
158
158
173
170
167
163
163
165
168
173
182
185
186
186
186
186
189
194
198
196
192
189
186
183
182
178
177
178
180
182
183
186
189
191
191
189
188
188
191
192
195
195
192
189
186
183
180
178
177
178
180
182
182
182
180
182
183
185
183
178
173
167
159
158
156
156
180
177
173
168
163
161
161
165
172
178
183
185
186
188
189
192
198
198
195
191
186
183
180
178
177
177
178
180
183
185
188
189
191
191
189
189
191
192
195
196
194
192
188
183
182
180
178
178
178
180
180
180
180
182
185
185
185
182
178
173
168
163
161
159
180
180
180
177
172
167
161
159
163
168
173
180
185
186
189
191
194
195
194
191
186
183
180
178
175
177
178
180
182
183
185
188
189
189
189
189
191
191
192
194
194
192
188
185
183
182
182
180
180
180
180
182
182
183
185
183
183
182
178
177
175
172
168
167
