P2
# 602 of 608 Angiograms
64 64
255
77
77
81
82
79
81
81
81
82
84
84
84
87
89
87
89
91
91
95
100
96
95
96
98
100
98
100
100
98
96
100
98
98
102
102
98
96
91
89
91
95
95
93
95
96
93
93
93
89
87
86
91
87
89
87
87
87
91
91
87
82
84
84
86
72
77
82
82
77
79
79
81
82
81
82
82
86
87
87
89
86
89
93
100
96
93
96
100
102
102
104
100
96
100
102
98
96
98
98
95
95
91
91
91
93
93
91
91
93
95
95
91
89
87
86
86
87
91
89
89
91
89
87
86
84
84
84
84
77
81
82
81
79
79
81
82
84
86
82
82
87
86
87
89
87
89
95
100
96
95
100
104
104
100
100
98
98
100
102
100
96
98
98
95
95
93
89
91
93
91
91
91
89
95
93
89
87
91
87
86
87
91
87
89
91
93
87
86
86
87
87
89
76
76
81
81
79
81
81
82
82
84
82
82
87
87
87
84
84
87
93
96
95
96
104
106
106
102
100
100
102
98
100
102
102
98
98
95
93
89
89
91
91
89
91
95
95
95
91
87
91
89
89
89
87
91
89
87
93
95
89
86
87
91
89
87
76
76
79
82
84
81
79
82
84
84
86
84
86
86
86
86
87
89
89
91
93
98
104
104
102
102
104
100
100
96
96
100
100
100
98
93
89
86
87
93
93
91
93
95
95
91
91
89
91
89
89
93
91
91
89
87
91
93
93
87
84
87
86
82
76
76
79
82
82
79
79
81
81
84
87
84
84
82
84
86
89
89
91
91
95
98
102
104
100
102
104
104
100
95
93
96
98
100
96
93
89
87
91
91
87
93
93
96
95
91
91
89
91
89
89
93
93
91
89
89
91
93
91
86
87
87
87
84
77
76
77
79
81
79
74
76
81
84
81
82
84
84
84
84
84
89
91
95
96
100
100
104
100
102
104
106
98
98
96
98
98
96
95
91
89
89
93
95
91
93
93
96
95
95
93
93
89
89
91
95
95
89
87
87
91
95
89
86
89
87
86
84
77
74
77
81
81
79
77
76
82
82
79
79
82
86
84
86
89
89
89
95
98
102
100
100
100
100
100
100
96
98
96
98
98
96
95
91
87
89
89
95
96
95
91
93
93
95
95
93
89
91
93
95
91
89
89
87
89
89
87
87
89
87
84
86
77
77
79
77
76
77
79
79
82
81
79
81
82
84
89
93
93
93
91
93
98
102
98
98
100
98
100
96
93
95
98
100
100
96
93
91
86
86
91
93
95
96
91
93
95
95
93
91
89
89
91
93
93
91
91
89
87
89
87
84
86
82
82
86
77
79
77
79
77
79
79
81
82
82
79
82
87
89
93
95
95
96
93
93
96
98
98
96
98
96
96
95
95
95
96
102
102
96
95
93
89
87
89
93
96
100
98
95
93
91
91
91
89
87
89
91
95
96
93
87
87
87
86
84
86
86
86
86
74
74
77
77
77
81
82
82
81
79
82
86
87
91
95
96
95
93
91
93
96
96
95
95
96
96
98
100
98
96
98
100
98
98
98
93
86
87
93
95
95
96
98
96
93
91
89
86
87
87
91
93
95
95
89
87
89
89
86
86
87
86
89
87
74
76
74
76
76
77
79
79
79
79
84
87
87
89
93
96
96
96
93
93
93
96
95
95
96
96
98
100
102
100
100
100
98
98
95
87
86
87
89
95
96
95
95
95
91
87
87
82
84
87
89
89
91
93
91
91
93
89
89
89
89
89
93
91
69
71
72
76
76
74
72
76
79
81
84
87
87
87
89
96
98
96
93
95
93
91
91
93
98
98
100
100
102
98
100
104
102
98
93
87
89
89
93
95
96
93
89
93
89
87
87
86
87
89
93
93
93
93
91
95
93
93
95
96
96
96
96
95
68
71
74
77
79
72
72
77
79
82
82
87
89
91
91
95
96
96
98
96
93
91
91
95
93
93
95
98
96
98
102
104
100
98
95
95
95
91
93
91
91
89
89
87
87
86
87
91
91
91
93
95
95
100
96
95
96
98
98
100
100
98
98
96
66
69
72
76
77
74
76
77
79
82
82
86
89
89
91
96
96
95
95
93
91
93
95
91
93
93
93
96
96
95
96
102
96
95
93
93
93
91
89
87
89
91
89
86
87
89
91
89
89
93
96
98
96
96
96
95
96
96
98
96
98
98
98
96
68
69
69
74
74
74
76
77
81
82
81
82
87
91
91
96
93
91
93
95
89
91
93
89
91
95
95
93
95
93
93
96
95
93
95
93
89
91
87
84
89
91
89
84
86
87
91
93
95
96
100
102
96
96
96
96
95
95
98
98
100
98
96
100
68
69
71
74
72
74
74
79
82
81
79
86
89
91
93
95
95
95
96
95
89
91
93
91
91
93
95
93
91
95
93
93
93
91
95
93
93
91
86
84
84
91
89
84
87
93
96
96
98
102
98
98
100
96
96
96
96
96
100
104
100
96
96
100
66
68
69
72
74
74
77
82
86
86
86
86
89
93
95
95
96
96
93
91
91
91
93
95
93
91
93
91
91
95
96
95
93
95
96
96
96
93
87
82
81
87
89
87
91
98
102
102
104
102
100
98
100
100
96
98
100
102
106
106
102
98
98
102
68
69
68
68
69
74
76
82
87
89
87
86
91
91
91
95
96
95
93
91
93
91
93
93
93
93
91
91
93
95
96
95
93
95
96
98
98
91
89
86
81
82
86
87
95
100
106
104
102
98
102
102
98
98
100
102
102
102
106
108
102
100
96
100
65
66
66
66
68
72
76
82
87
89
87
86
86
89
95
95
95
95
91
93
91
91
93
93
91
91
89
91
93
98
96
98
98
96
98
98
96
89
89
89
82
84
86
91
100
102
106
106
102
96
102
102
100
98
98
96
100
102
102
104
100
98
95
98
65
66
68
68
69
74
77
82
87
89
87
87
86
87
91
93
93
93
91
93
89
87
89
89
86
87
91
89
93
96
98
98
100
98
95
96
96
93
95
91
86
84
89
98
104
106
104
104
100
96
98
100
98
98
100
98
98
102
102
102
102
98
96
96
68
68
69
69
71
74
74
81
86
89
87
86
87
86
86
89
93
93
89
91
91
87
87
89
89
91
91
86
89
96
95
98
100
100
95
93
95
95
96
93
91
91
95
100
104
104
100
100
100
96
96
96
96
98
100
100
102
106
102
102
102
98
96
98
66
68
72
74
72
76
76
82
86
84
86
84
84
84
86
89
89
89
91
93
91
87
87
87
87
87
87
84
86
91
89
95
96
96
96
93
93
93
93
93
93
93
96
102
106
104
100
98
100
98
102
102
100
102
104
104
106
106
104
100
98
98
98
98
69
71
74
76
72
74
77
82
82
86
82
81
84
86
87
89
89
89
89
91
87
82
84
86
87
84
82
82
82
87
89
93
93
95
95
95
95
95
95
93
89
89
96
98
104
104
100
98
100
104
104
102
100
102
108
106
106
108
104
98
98
98
98
100
71
72
76
76
74
76
76
77
79
81
82
81
82
86
87
87
86
86
86
87
87
86
84
82
86
82
81
81
84
87
89
91
89
91
91
95
93
96
93
91
91
91
95
98
98
100
98
96
100
102
102
102
98
102
108
108
108
106
100
96
98
95
98
98
77
74
72
72
76
79
81
81
81
79
79
81
82
81
84
82
82
82
84
86
87
86
82
82
82
81
81
79
81
86
87
89
93
91
91
93
91
93
91
93
93
91
93
95
93
95
95
95
98
98
98
100
100
104
106
106
108
104
98
98
98
98
100
102
76
76
72
72
74
76
81
84
84
81
79
81
82
79
81
86
82
82
87
89
86
84
84
82
81
77
76
77
81
84
86
89
93
91
91
91
95
96
95
91
91
93
95
93
93
95
95
93
93
95
98
100
100
104
106
108
108
104
100
100
100
100
102
102
76
76
77
74
74
77
82
84
82
81
79
81
79
81
84
86
82
84
87
87
86
84
82
82
79
77
74
76
79
84
82
86
93
93
93
95
96
96
93
93
89
93
91
91
95
91
93
91
93
95
98
96
100
106
106
106
104
98
100
102
104
102
102
98
74
76
76
76
76
81
81
81
82
79
79
84
81
84
82
84
86
84
86
87
84
82
81
79
81
79
74
77
81
84
84
87
91
91
91
95
98
95
95
93
89
89
93
91
93
93
93
95
95
95
98
98
102
106
108
106
100
100
96
102
104
104
106
102
74
74
74
76
76
79
79
82
81
79
81
86
84
86
84
86
84
84
84
84
82
84
84
86
82
82
81
81
82
87
87
91
93
95
93
95
98
98
96
96
95
95
95
91
95
95
95
98
95
95
98
100
102
106
106
102
100
102
102
104
102
102
100
102
74
74
72
74
77
81
79
79
77
77
81
86
86
82
84
89
84
86
86
87
84
82
84
84
86
84
81
82
82
84
89
93
93
95
96
96
98
96
95
96
93
96
95
93
95
95
95
100
98
96
100
102
108
108
108
108
106
106
106
106
104
104
102
100
76
76
76
76
79
82
81
79
76
76
79
84
82
82
86
91
89
86
87
87
86
84
84
86
86
82
82
86
86
86
89
93
93
98
96
96
98
98
96
96
98
100
95
95
95
93
93
98
96
96
102
104
108
108
110
108
106
110
108
106
104
102
102
104
76
76
74
77
81
79
81
79
76
74
77
82
82
84
84
89
93
91
87
86
86
86
84
86
84
84
84
84
82
86
89
91
91
95
96
95
98
100
100
100
102
102
98
95
96
95
95
96
98
98
100
102
108
110
108
108
108
108
108
110
106
104
104
110
76
74
76
77
81
79
77
76
77
77
77
82
84
84
87
89
89
87
86
86
87
84
84
86
84
84
82
84
86
86
87
87
91
95
96
98
100
100
96
100
102
102
100
98
96
96
93
95
98
100
102
102
106
110
106
106
106
108
108
110
106
106
108
113
72
74
76
79
82
81
79
77
79
79
79
81
82
86
87
91
91
91
87
86
86
84
81
86
84
86
87
87
86
87
86
87
93
95
100
102
100
98
95
96
100
102
102
100
98
96
95
96
98
100
102
108
110
106
106
108
106
106
108
108
106
110
112
115
69
74
77
77
79
81
77
81
79
81
77
81
82
87
86
86
89
91
87
87
87
84
81
84
86
84
87
89
87
89
87
89
91
96
100
104
102
98
96
96
96
102
102
98
104
102
96
96
98
100
104
110
108
106
108
110
104
106
108
106
110
113
112
113
71
72
77
79
81
76
77
82
84
82
82
82
86
86
87
89
89
91
89
87
89
84
84
86
86
86
86
84
84
86
87
86
87
95
100
100
104
104
102
100
100
104
102
100
102
100
100
98
96
100
104
106
108
108
110
108
104
104
106
108
113
113
112
113
71
69
74
81
79
79
82
84
86
84
84
84
87
86
89
93
93
93
91
87
86
84
84
84
86
84
81
77
81
82
84
84
86
93
100
100
102
106
102
98
100
102
104
102
102
98
98
96
95
96
102
104
108
110
108
106
104
106
106
110
112
115
113
113
72
69
72
76
79
81
84
86
86
87
87
84
86
87
93
91
91
93
91
87
84
81
82
84
84
82
79
77
81
81
84
82
84
91
96
100
106
104
102
98
98
95
98
102
104
102
100
100
96
95
98
102
108
108
106
104
102
108
112
113
115
115
110
113
72
71
72
77
79
79
82
84
86
89
89
89
89
89
91
95
89
91
89
86
79
79
82
84
87
86
82
81
82
82
86
82
81
86
95
98
100
100
100
98
96
95
98
102
104
102
100
98
98
96
96
102
108
106
104
102
104
108
110
112
113
112
110
110
72
74
76
79
81
81
82
84
86
89
89
87
89
93
93
95
89
93
87
87
84
81
84
86
89
89
87
84
86
84
86
82
82
84
87
91
93
95
98
100
100
100
100
102
102
106
102
102
100
100
98
100
104
104
104
104
106
108
110
110
110
106
100
95
74
76
79
77
79
79
81
81
84
87
86
89
91
91
89
91
93
91
87
87
86
82
86
89
89
87
87
89
86
87
89
86
84
84
86
87
89
91
96
100
100
100
98
100
106
104
102
104
102
100
100
102
104
104
102
104
110
108
104
98
95
87
81
74
76
76
79
77
77
79
81
82
86
87
87
87
87
89
87
87
91
91
89
87
87
86
87
89
91
89
84
89
89
87
91
91
87
84
87
86
89
91
96
100
100
100
100
102
102
102
98
104
102
98
98
102
104
102
100
100
102
96
91
82
76
72
68
63
77
76
76
79
81
81
81
84
86
87
87
86
86
87
86
86
89
87
86
87
87
87
87
89
89
89
86
87
89
87
91
89
89
87
87
89
91
95
95
98
102
100
102
100
96
100
98
100
98
96
95
98
98
96
93
91
84
81
74
71
66
62
59
58
77
77
77
82
81
82
84
86
86
89
87
89
91
86
84
87
89
87
87
86
89
89
87
87
86
84
86
86
86
91
95
95
91
89
87
93
95
96
96
98
102
104
102
100
96
100
102
98
98
93
91
89
86
79
76
74
71
66
63
60
58
59
58
55
74
77
77
82
82
86
87
87
86
87
89
91
91
86
86
91
91
87
89
87
86
89
86
86
87
86
86
87
87
89
91
91
93
93
93
95
96
96
96
98
100
102
102
104
102
104
100
102
98
93
87
81
72
68
63
63
63
60
60
58
55
56
58
56
72
76
76
81
81
82
86
86
84
84
89
89
91
87
87
93
93
91
89
86
86
86
86
84
84
86
87
84
84
89
89
89
89
91
91
93
95
95
100
100
100
102
102
102
104
104
102
98
93
86
76
66
62
60
60
59
60
60
60
56
56
58
59
58
74
76
77
77
79
82
86
86
86
84
84
89
93
91
93
91
93
93
89
89
86
84
86
86
86
87
87
86
84
89
91
89
86
89
91
91
91
95
100
96
96
104
104
106
108
106
100
95
86
74
65
62
58
56
58
56
56
58
59
58
59
60
65
65
74
76
79
77
79
84
86
87
86
84
84
87
89
89
89
91
95
95
93
89
87
84
87
91
87
87
87
86
86
89
91
89
91
91
93
93
93
95
96
95
96
100
104
106
108
104
95
84
72
65
62
58
58
55
56
58
58
59
60
59
62
66
71
72
74
76
77
79
82
81
82
86
86
86
89
89
87
87
91
93
91
93
93
89
86
87
87
91
89
87
89
87
89
91
91
93
93
95
98
96
95
95
95
95
95
98
106
106
104
98
87
76
68
63
62
58
56
54
55
56
58
56
62
63
68
74
74
72
76
76
79
79
82
79
81
84
84
86
89
93
91
87
89
86
86
89
89
87
87
89
89
89
89
89
89
89
91
91
95
95
93
95
98
98
93
93
95
93
96
98
102
100
96
93
84
76
68
63
59
58
55
55
58
58
60
59
66
69
74
76
74
74
77
76
77
79
82
82
84
81
82
87
87
93
91
84
86
87
87
91
89
91
87
87
89
89
89
91
87
87
91
95
98
96
96
98
100
96
98
96
95
93
93
93
95
95
93
93
86
79
72
68
62
60
59
59
58
59
60
63
68
66
71
72
72
76
77
77
76
77
82
84
82
82
82
87
87
87
86
87
89
87
89
89
89
91
91
89
91
93
91
91
91
91
89
95
98
100
100
102
102
100
100
98
96
95
91
87
93
93
95
93
87
81
76
71
66
65
62
60
60
62
65
71
71
69
68
68
71
72
77
77
76
77
84
86
84
84
82
84
86
87
87
87
93
89
91
91
91
91
93
93
96
93
89
89
91
89
89
95
96
100
102
102
100
100
100
100
98
95
86
86
91
93
96
95
87
81
81
72
69
69
66
63
59
62
69
74
74
69
69
69
69
68
77
79
79
81
84
87
86
84
84
86
84
84
87
87
93
93
95
93
91
91
93
93
93
93
95
89
87
89
93
95
98
96
100
100
98
98
96
98
98
91
89
89
91
95
93
95
89
82
77
74
74
71
69
66
65
66
71
74
72
69
74
69
65
62
79
82
77
81
84
87
84
82
84
86
84
86
89
89
91
96
95
93
89
89
93
95
93
93
91
91
89
93
96
95
95
96
100
96
98
98
95
96
91
87
87
87
91
95
93
93
87
79
74
76
76
71
68
66
65
65
69
74
74
76
76
71
65
63
84
79
77
81
84
87
82
82
86
89
89
91
93
87
89
91
91
91
93
93
93
93
95
93
93
93
95
98
98
95
95
93
95
98
98
100
96
91
84
79
81
86
87
91
93
91
82
74
72
71
71
69
68
66
68
69
72
74
74
74
77
76
71
68
82
79
81
82
82
86
84
86
86
93
95
95
91
87
86
89
93
93
95
93
93
93
95
93
91
91
91
96
96
95
93
95
95
98
98
98
95
86
79
79
81
84
86
91
91
84
77
69
66
66
66
66
66
68
71
74
76
76
76
76
77
77
76
76
84
81
79
86
87
82
81
84
87
93
96
95
91
89
87
89
95
95
95
93
93
95
95
93
93
93
95
95
95
96
95
95
95
98
102
98
91
84
79
77
81
84
89
91
87
79
71
68
65
63
63
65
68
68
72
77
77
76
77
79
77
76
79
82
87
84
84
84
84
82
79
84
91
95
96
93
95
93
91
93
95
93
91
93
95
93
95
95
95
93
96
93
93
95
95
96
96
96
98
96
89
87
82
79
79
84
86
86
79
71
68
66
65
68
63
62
68
71
76
79
79
77
79
81
81
82
89
96
86
87
86
82
82
84
82
86
89
91
95
93
91
91
93
93
93
95
93
93
93
93
93
93
95
93
95
93
93
95
98
95
96
98
96
91
86
91
87
81
81
77
76
76
72
66
65
66
65
68
66
68
72
77
79
76
79
77
81
84
87
95
102
108
84
84
82
82
82
86
84
86
89
87
86
91
87
87
89
91
93
91
93
89
91
91
91
91
93
93
93
93
93
95
96
95
95
93
91
86
86
87
86
81
76
69
68
69
68
68
63
63
65
65
66
71
77
82
82
79
77
79
84
93
100
106
112
112
86
82
82
81
82
84
89
87
86
87
86
86
87
89
89
89
89
91
91
93
91
91
91
91
95
95
96
96
96
95
95
93
89
89
87
87
87
84
79
74
68
65
66
65
66
66
63
62
65
66
71
76
84
86
82
81
81
87
96
104
108
112
113
113
82
81
82
82
84
86
89
87
84
86
86
87
87
91
91
89
87
91
95
96
95
89
87
93
96
96
96
95
96
95
93
91
91
89
91
87
84
77
69
66
65
65
63
63
63
65
66
63
68
72
77
84
86
84
82
86
93
100
106
108
112
112
112
113
