P2
# 603 of 608 Angiograms
64 64
255
93
98
95
93
91
89
93
95
98
100
106
104
106
106
108
108
104
102
108
108
106
104
104
102
102
104
102
100
102
104
102
102
102
102
102
102
106
104
96
87
77
74
82
93
100
106
108
106
108
110
112
112
112
112
110
110
108
106
108
110
113
112
108
110
91
95
95
96
95
93
96
96
98
102
106
106
106
104
106
106
104
102
110
110
106
104
104
104
104
98
100
102
102
104
102
102
102
104
106
106
106
106
95
84
76
79
86
96
102
106
108
106
108
106
108
108
108
110
110
110
106
104
108
110
112
113
113
112
91
89
93
98
96
95
96
100
102
106
104
108
108
106
106
106
108
104
110
110
108
106
106
106
106
102
100
102
102
104
104
104
104
104
104
104
104
100
93
81
76
82
89
100
106
108
112
110
106
106
106
106
106
106
106
106
104
104
106
110
113
113
112
108
87
87
91
95
96
96
100
102
102
106
108
106
108
108
106
106
106
104
106
106
106
104
104
104
104
104
104
102
102
104
104
104
104
104
102
102
102
100
91
79
79
84
93
102
108
108
110
106
110
108
106
106
106
106
106
104
104
106
106
106
108
110
108
108
89
86
89
93
96
100
100
102
102
106
106
106
110
110
108
108
108
106
104
106
108
104
100
98
100
104
104
104
102
104
106
104
102
104
102
100
102
100
87
79
79
86
95
106
106
108
106
106
110
110
108
106
104
106
106
104
102
106
108
106
108
110
108
110
86
81
84
89
93
98
100
102
102
106
106
106
110
110
106
106
108
106
104
106
106
106
102
100
102
104
104
104
102
102
104
106
104
104
106
100
104
98
87
76
76
87
96
106
106
106
106
106
106
108
108
106
102
104
108
104
104
108
106
102
106
108
106
108
87
82
81
84
91
96
100
100
102
106
108
110
108
104
106
106
106
108
106
104
104
104
104
102
104
102
100
102
102
104
102
104
106
106
104
106
102
98
87
79
81
89
100
106
106
106
108
108
106
108
106
104
104
102
106
106
106
106
106
102
104
106
104
106
91
87
81
82
89
95
100
104
106
108
108
110
104
102
102
102
102
104
102
100
104
102
100
104
102
100
102
104
106
104
104
104
108
108
108
106
104
96
86
81
84
93
104
106
106
108
108
108
108
106
104
102
104
104
106
106
106
106
106
102
100
102
106
108
95
91
86
84
87
93
102
106
106
104
108
106
104
104
102
100
100
100
100
98
100
100
100
102
104
104
104
106
106
104
102
104
106
104
106
108
104
96
86
82
84
95
104
106
106
110
112
112
108
106
102
102
104
102
104
106
106
106
102
98
96
98
102
106
96
93
89
86
86
93
102
104
102
106
106
102
104
106
104
100
98
98
98
100
102
98
102
104
104
104
108
108
104
104
104
104
106
102
102
104
104
96
86
81
86
95
100
104
108
110
110
106
108
108
106
104
104
102
102
104
106
104
104
100
98
100
100
102
95
91
87
86
89
95
100
106
106
106
110
108
108
106
104
104
102
98
100
104
102
102
102
104
104
104
110
104
102
104
104
102
102
102
104
104
104
95
86
82
86
93
96
100
102
106
108
106
104
106
104
104
104
102
104
106
106
106
106
104
102
100
102
100
95
91
87
87
91
95
98
104
104
106
108
106
104
104
106
106
106
100
104
106
104
104
104
102
102
104
106
104
104
106
104
102
100
102
104
106
102
95
89
84
87
91
91
98
100
106
110
106
104
104
106
106
106
102
104
108
106
108
106
106
100
100
104
106
96
93
89
91
93
95
100
102
104
106
108
104
104
102
106
108
104
104
104
104
106
104
106
106
104
104
108
106
104
106
104
102
102
104
104
104
100
96
93
91
87
89
86
91
96
100
104
104
104
106
106
106
106
104
102
106
108
110
106
102
98
98
104
108
95
93
91
93
95
98
98
102
106
106
108
106
106
104
108
108
106
104
104
104
104
104
106
108
108
106
110
108
108
106
102
104
102
102
102
98
100
98
100
98
93
89
87
87
89
93
96
100
102
102
104
108
108
108
106
108
110
112
106
102
100
100
104
108
96
95
93
93
95
98
95
96
102
108
104
100
100
106
106
108
104
100
104
106
104
100
106
108
108
106
106
106
106
106
104
102
100
100
102
98
96
100
102
102
98
93
87
87
87
86
87
91
95
98
100
104
108
108
108
108
108
108
106
104
104
102
104
106
96
95
91
93
96
98
96
98
98
104
100
102
102
104
104
104
104
100
102
104
106
102
104
106
106
106
106
108
108
104
100
102
100
100
102
102
100
100
104
104
102
98
93
91
89
84
81
84
86
87
93
98
102
106
108
104
106
106
106
104
106
104
106
108
93
91
91
93
98
100
98
98
96
98
100
102
104
102
100
102
104
102
102
104
102
100
104
106
108
106
106
106
104
102
102
102
100
100
104
104
106
108
110
110
106
104
100
96
96
91
84
82
82
81
86
91
96
102
104
106
106
104
106
104
106
104
106
106
89
91
95
96
100
98
98
98
95
96
98
100
100
102
102
104
104
104
102
102
100
100
104
106
106
104
104
102
102
100
102
102
100
98
102
108
110
110
110
112
108
106
106
104
102
98
93
87
84
82
82
86
91
96
102
108
108
108
104
104
106
106
108
108
91
89
93
98
100
96
98
98
98
95
95
96
98
100
104
104
104
100
102
102
102
104
104
106
106
102
104
106
104
100
104
102
98
96
102
110
108
110
112
112
112
108
110
106
104
104
100
95
89
86
84
81
86
91
98
102
104
104
104
106
104
106
108
110
93
91
91
95
98
96
100
98
98
95
95
95
96
98
98
104
104
98
102
104
106
108
108
108
104
102
102
104
104
102
102
98
96
96
102
106
108
110
110
112
110
110
108
104
108
108
108
104
96
87
84
81
79
87
93
100
102
102
102
106
106
106
106
110
95
91
89
95
100
98
96
98
98
98
98
95
95
95
98
102
102
100
102
104
106
104
106
104
102
102
102
102
104
102
106
104
100
100
104
104
106
108
110
108
108
108
108
106
108
108
108
110
104
95
87
81
77
82
89
96
104
104
104
104
108
106
108
106
96
91
89
91
95
93
95
98
96
98
96
93
91
91
95
98
98
98
100
100
102
102
102
104
102
104
100
100
102
104
104
102
100
102
104
104
108
108
108
108
108
108
110
110
108
110
110
110
106
102
95
86
79
79
86
95
102
106
106
106
106
106
104
100
95
91
89
87
89
89
93
96
93
91
93
93
89
89
95
96
96
96
100
100
102
104
100
100
100
102
100
100
104
106
100
98
98
104
104
104
108
108
108
108
108
108
110
108
112
110
110
108
108
106
102
93
84
82
84
91
102
106
104
104
106
104
100
98
95
93
89
87
86
89
89
91
91
89
91
93
89
89
93
98
96
96
100
100
104
102
100
102
100
100
100
104
108
102
98
96
98
98
104
104
108
110
108
108
108
110
110
106
112
112
112
113
112
108
106
100
91
86
84
89
98
104
104
106
106
102
98
98
100
96
91
87
84
84
84
86
87
87
86
89
89
89
91
93
93
95
98
100
100
102
104
102
98
100
102
104
102
100
96
98
98
98
100
102
106
106
108
110
110
112
110
106
110
112
113
112
112
110
108
104
96
86
84
87
95
100
102
104
108
104
98
98
98
96
93
89
86
84
87
91
93
91
89
89
87
86
82
86
91
91
96
100
100
98
102
98
98
102
100
100
104
100
98
100
100
102
100
102
104
106
108
108
110
110
108
108
108
112
112
112
110
110
108
104
96
86
86
87
93
98
104
106
106
102
100
100
98
95
95
93
93
91
91
93
95
95
95
91
86
82
79
77
82
89
96
98
98
100
100
98
98
98
98
102
102
98
98
102
106
106
104
104
104
104
106
108
110
108
108
108
108
112
112
108
110
112
108
100
96
87
84
87
91
98
104
104
102
100
102
100
98
96
95
96
100
100
100
98
98
95
96
95
89
82
76
72
79
86
95
98
100
104
102
100
100
96
96
102
100
100
102
104
104
106
104
100
102
102
104
106
108
108
108
108
108
110
112
108
110
110
106
100
95
86
87
87
91
96
102
104
102
100
102
102
96
96
96
98
98
98
98
96
95
96
95
96
91
82
77
76
82
89
96
100
104
104
104
104
102
96
98
100
102
104
104
106
106
104
104
104
102
102
102
104
104
106
106
106
106
108
110
110
110
108
102
98
95
89
86
86
89
93
98
102
102
102
102
102
98
100
98
98
96
96
96
95
96
98
98
96
91
84
82
81
87
93
98
102
100
102
102
102
100
100
100
100
106
106
104
106
106
104
104
104
102
100
104
104
104
102
104
104
108
108
108
106
108
106
102
100
98
93
86
86
89
91
93
98
100
102
100
102
96
96
96
96
95
95
100
98
98
100
98
96
91
87
86
82
87
95
102
102
98
100
100
100
100
98
102
102
106
106
102
104
108
102
104
106
104
104
104
104
102
104
104
104
106
106
106
104
104
108
106
106
104
100
91
87
86
86
87
91
96
98
100
102
95
93
93
96
98
96
98
100
100
102
100
95
91
87
86
86
87
95
100
100
98
98
98
98
100
100
102
106
106
106
104
104
106
104
106
106
106
104
104
104
104
102
100
104
102
102
102
102
106
108
112
108
106
102
95
87
82
79
79
86
95
98
98
102
95
93
95
96
98
98
100
102
104
106
100
95
89
89
87
87
91
95
96
98
100
102
98
98
100
100
102
104
104
104
102
100
102
104
104
102
102
102
100
102
102
104
98
102
100
102
102
100
104
106
110
108
106
102
95
87
84
79
79
86
93
96
100
104
96
95
95
95
98
96
98
98
102
104
98
95
91
89
87
91
93
96
98
98
100
100
98
98
100
100
102
102
104
102
102
104
104
104
102
100
104
104
102
106
104
104
96
95
96
96
100
102
102
104
108
104
102
98
93
89
84
82
84
89
95
98
100
104
98
96
96
93
96
98
96
96
98
98
96
95
87
89
93
95
95
96
98
100
100
102
98
98
100
100
104
104
104
102
102
104
104
104
104
102
104
104
102
104
106
102
96
93
93
95
96
102
100
102
102
104
100
95
91
89
87
86
89
95
95
100
102
104
95
93
95
93
93
96
96
98
98
98
95
91
89
93
98
98
95
96
98
100
100
98
96
96
100
102
104
104
106
106
106
104
102
104
104
104
100
102
102
102
104
102
96
95
95
96
96
102
104
104
102
100
95
91
89
91
91
93
95
98
100
100
102
104
96
93
95
95
95
95
98
98
100
98
91
89
91
93
98
98
98
96
96
98
98
98
98
100
104
100
104
102
104
106
104
104
100
104
102
104
102
100
102
102
102
104
96
93
96
98
100
104
102
104
102
98
95
91
91
93
95
96
100
102
104
104
102
104
98
96
98
96
96
96
98
96
95
96
93
91
91
95
95
98
96
98
96
95
96
98
98
100
102
98
98
102
102
104
102
104
102
106
104
106
104
100
104
106
104
104
100
95
100
102
104
106
104
104
102
98
98
93
91
91
93
98
102
102
104
106
104
106
98
98
98
98
96
98
98
96
95
95
95
91
91
95
95
96
96
98
100
98
96
100
98
98
98
100
100
102
102
102
102
100
100
102
106
106
104
104
106
108
108
104
100
100
102
102
104
108
110
110
102
96
96
95
91
93
96
100
106
108
106
104
106
108
98
96
98
98
96
96
96
96
95
93
93
91
91
95
95
93
98
100
100
100
100
98
98
98
98
102
102
102
100
102
104
100
102
104
104
104
102
102
106
108
106
100
98
100
104
104
106
106
106
108
100
96
96
95
95
93
96
104
106
106
104
106
104
110
98
100
100
98
96
96
96
95
93
93
91
91
91
93
95
96
100
102
102
100
102
96
96
96
96
98
100
100
100
104
102
104
104
104
104
106
104
102
106
104
102
98
102
104
104
104
106
106
108
106
98
91
93
96
96
95
95
104
106
106
106
108
104
108
100
100
100
100
96
96
96
93
93
93
93
93
91
93
95
98
100
102
102
100
98
95
96
98
98
100
100
98
100
102
102
100
102
106
102
104
104
104
104
104
102
98
100
104
106
106
106
106
106
100
96
91
93
96
100
98
98
104
108
104
106
106
108
106
95
98
100
98
98
96
98
96
93
96
95
93
91
93
93
96
96
100
102
100
98
98
96
96
100
100
100
98
100
100
100
100
104
102
102
104
104
106
104
100
100
102
102
106
108
108
106
108
102
98
95
91
95
98
100
98
100
108
106
104
106
104
104
108
91
96
98
96
96
95
95
95
91
93
93
95
95
95
93
96
96
96
98
98
98
96
96
98
100
98
100
100
100
104
100
100
100
100
104
104
104
102
102
100
98
100
102
104
106
104
108
104
98
95
93
93
95
98
100
96
100
108
108
104
104
104
104
108
95
95
96
95
93
95
96
93
91
95
93
93
93
95
95
95
96
96
96
96
96
96
96
98
96
96
98
98
98
100
98
100
102
104
104
104
104
100
102
100
100
100
102
104
106
104
102
98
95
93
89
89
93
95
96
100
102
106
106
104
106
106
106
108
93
93
93
91
91
95
95
93
93
93
95
93
93
93
95
95
95
95
95
98
98
96
96
96
98
98
98
96
96
98
96
98
100
102
100
100
102
100
100
98
98
100
102
104
104
102
98
96
93
91
91
87
91
91
95
98
102
104
104
102
104
106
108
108
93
93
95
95
95
95
95
95
96
95
95
93
93
93
96
98
98
96
96
96
95
96
95
95
98
98
98
98
100
100
98
100
98
100
102
100
100
100
102
100
98
98
100
102
104
102
100
95
93
95
95
91
87
87
93
100
102
102
102
106
106
104
102
104
95
96
95
98
96
98
98
96
96
100
96
91
93
93
96
100
98
96
93
93
95
96
96
98
100
102
100
98
100
100
102
100
100
100
102
100
98
98
100
102
102
100
102
100
102
102
100
93
93
95
91
95
89
89
95
102
106
104
102
104
106
104
102
104
95
98
96
96
96
96
98
96
96
100
98
91
95
96
96
95
98
96
95
96
98
98
98
98
100
98
98
100
100
100
100
100
100
100
100
96
98
98
98
102
104
102
98
98
98
98
98
95
91
96
96
96
91
89
96
102
104
102
104
104
104
102
102
102
96
95
93
93
93
95
95
95
95
98
96
91
93
95
96
95
95
96
96
98
98
98
96
100
100
98
98
100
100
102
100
100
102
104
100
100
100
100
98
102
102
100
96
96
98
98
100
96
93
96
98
96
91
91
96
100
102
102
104
106
104
102
102
102
96
96
95
93
95
96
95
96
96
96
95
95
96
96
96
98
98
95
95
95
98
96
96
96
98
98
100
96
98
100
100
104
104
102
100
102
98
100
100
102
100
98
95
98
100
102
100
96
93
93
95
93
89
91
95
98
100
102
102
104
106
104
100
102
96
96
95
95
96
95
96
96
98
96
95
95
95
96
98
100
96
95
98
96
96
95
98
96
98
100
102
100
98
100
102
104
102
100
96
98
98
98
100
102
100
98
96
98
102
100
100
96
93
91
89
91
89
91
95
98
100
102
100
100
100
102
102
102
95
96
93
95
93
95
98
98
98
95
93
93
93
95
95
98
96
98
98
95
95
95
96
96
100
100
102
100
100
100
102
104
102
100
98
98
100
98
100
102
98
96
96
100
100
98
96
95
89
86
87
87
89
93
96
96
100
98
102
104
102
102
104
104
93
95
93
93
93
95
98
96
96
93
87
89
95
96
96
95
98
96
96
96
95
95
100
102
104
104
100
98
98
100
104
102
104
100
100
98
102
100
100
100
98
98
96
98
98
96
93
93
89
84
86
87
91
96
98
98
96
100
102
104
100
102
102
100
93
95
93
91
91
93
96
95
93
93
89
91
93
95
98
95
98
98
98
102
100
98
100
102
104
104
100
102
102
102
100
104
104
104
102
100
98
98
98
98
98
96
98
98
96
93
95
93
89
84
84
89
95
98
100
100
98
100
102
100
98
102
102
98
91
93
93
89
89
93
95
93
89
95
93
91
93
96
98
96
98
98
98
100
100
98
96
96
102
102
104
106
106
102
100
102
102
102
102
100
102
104
102
98
98
96
96
96
96
93
93
91
86
82
82
89
98
96
98
98
100
98
98
98
98
102
98
98
91
93
91
95
95
95
93
93
91
93
95
95
95
96
98
96
98
98
95
95
96
98
98
96
100
102
106
108
102
100
100
100
102
100
104
102
102
102
104
100
98
98
100
100
95
91
89
86
82
81
84
89
95
95
95
95
98
96
96
96
98
102
98
102
91
93
91
93
93
93
93
93
93
93
95
95
96
95
96
96
96
96
95
96
96
98
100
98
98
100
104
104
102
98
98
98
102
104
102
98
98
100
102
100
98
98
96
98
93
89
86
81
79
82
86
91
95
93
93
93
96
98
96
95
98
100
98
102
91
93
93
93
91
91
93
91
91
93
95
95
95
93
93
93
95
96
96
98
100
98
98
98
98
98
100
100
102
100
100
98
100
98
100
96
98
102
98
98
98
98
98
96
91
86
82
77
77
82
86
91
93
93
95
96
98
98
96
95
96
100
98
98
91
91
93
93
91
93
95
93
95
95
91
93
91
93
95
96
98
96
98
96
98
96
95
96
98
98
98
98
100
100
100
100
100
100
100
100
100
100
102
100
98
98
98
95
89
86
81
81
81
86
86
93
93
95
95
96
96
98
96
96
96
98
96
96
95
91
93
95
96
96
93
93
95
93
91
91
91
91
93
95
95
95
96
95
96
95
96
96
100
100
98
100
102
100
100
104
102
102
102
100
98
96
98
100
96
95
98
95
89
82
79
81
84
89
86
93
95
96
95
98
98
98
96
96
98
100
100
100
89
89
95
98
96
93
91
93
95
95
95
93
91
95
93
95
95
96
95
95
98
96
98
95
100
95
96
98
100
100
98
100
100
100
100
98
98
98
98
96
96
96
93
95
87
79
81
82
87
91
91
93
95
96
96
96
96
98
95
96
96
102
100
100
91
91
95
98
98
91
89
96
96
95
98
95
91
93
95
96
98
98
95
95
96
98
95
95
98
96
95
95
96
96
96
98
98
98
100
98
95
96
96
95
96
96
95
93
86
77
82
87
91
93
93
93
93
95
95
95
96
96
96
96
96
98
98
98
95
91
91
95
96
93
91
93
96
95
95
96
95
93
93
95
95
95
93
95
98
98
95
95
96
96
95
96
98
95
96
96
96
98
98
96
96
96
93
93
96
96
93
91
86
79
84
93
95
93
95
93
93
95
93
93
93
96
95
96
98
100
96
98
