P2
# 605 of 608 Angiograms
64 64
255
106
106
106
108
108
112
112
112
113
110
104
98
98
98
98
96
96
100
102
106
104
106
108
104
104
106
106
108
110
110
110
110
110
113
113
113
112
113
115
115
112
100
86
77
74
76
93
108
115
117
119
117
117
115
115
119
119
117
113
115
115
115
119
119
106
108
106
106
106
106
110
112
113
110
104
98
96
98
98
96
96
98
102
104
106
102
102
104
104
102
102
104
108
108
108
106
106
110
112
113
115
117
115
115
108
95
84
74
71
81
100
112
117
121
119
115
117
117
115
119
117
115
113
112
110
112
115
117
106
108
106
104
104
106
108
110
108
108
104
100
96
98
96
96
98
100
102
102
104
98
100
102
104
102
102
104
104
108
108
108
108
108
108
112
113
115
115
112
106
95
82
74
72
86
102
113
119
119
117
119
117
117
115
119
115
113
112
112
110
112
112
113
104
104
102
102
102
102
106
106
108
106
104
100
95
91
95
98
98
100
98
100
100
96
100
102
102
102
106
106
104
106
108
110
110
110
108
110
112
112
110
108
104
95
84
77
79
87
104
113
117
119
119
119
115
115
115
117
117
115
110
110
108
104
104
106
102
100
98
98
100
102
106
106
104
108
102
98
93
89
93
98
98
100
98
102
98
98
102
102
102
102
104
102
102
104
106
108
108
108
106
106
106
108
108
106
102
98
87
81
81
87
98
110
115
117
117
115
117
115
119
117
115
112
110
104
102
100
102
102
98
100
96
96
100
102
104
102
102
102
98
91
89
87
93
98
98
98
100
100
96
98
98
102
98
98
100
100
98
102
104
106
108
108
106
102
104
106
106
106
106
100
93
82
79
86
93
106
112
115
115
115
117
117
115
117
113
110
110
104
98
100
104
106
100
100
96
98
100
100
100
98
100
96
91
87
84
82
87
95
96
98
98
98
96
98
98
98
98
96
98
98
96
100
104
104
106
108
108
104
104
106
108
106
106
106
98
89
82
82
89
100
108
113
117
117
119
117
115
115
112
110
106
102
100
102
106
108
98
100
98
100
102
102
102
98
98
93
89
89
87
82
87
93
96
98
100
100
98
98
98
100
98
98
98
96
98
100
104
108
106
108
110
110
108
108
108
108
108
108
104
95
87
84
89
93
102
108
115
119
119
121
119
115
110
106
104
104
102
106
106
106
100
100
98
98
102
102
102
96
95
93
91
95
91
89
89
93
100
100
102
102
100
100
100
100
98
98
95
95
100
102
106
108
106
104
112
110
112
110
108
110
110
110
108
100
93
87
87
89
95
102
110
117
121
121
121
115
110
104
104
102
106
108
104
104
98
100
98
100
102
96
98
96
93
91
91
95
95
95
93
96
102
104
104
106
104
102
102
102
102
100
95
93
100
102
104
106
104
104
108
106
108
110
110
110
112
112
110
104
98
91
91
93
93
95
100
110
117
119
119
117
110
102
102
104
104
106
104
104
100
102
100
100
104
100
100
98
96
96
96
98
98
100
98
98
100
104
102
106
104
104
104
102
102
104
98
96
98
98
100
102
102
104
108
108
106
110
110
110
112
112
108
102
98
96
93
93
91
91
93
98
108
115
117
115
108
102
102
102
100
104
100
100
100
102
100
102
102
104
102
100
100
100
95
95
102
100
102
100
98
100
104
104
104
104
104
102
104
104
102
98
98
96
100
100
104
106
108
106
106
108
108
110
110
110
104
102
102
100
96
93
91
89
91
91
96
106
110
110
106
104
106
106
104
102
102
102
100
104
104
100
100
98
100
102
102
98
96
96
102
98
102
102
98
96
98
106
106
106
102
100
102
104
100
98
98
98
100
102
102
106
106
106
108
108
106
112
113
108
104
104
106
102
100
98
93
89
91
91
91
96
102
104
104
106
108
108
108
104
102
104
100
106
108
106
102
98
102
106
102
98
96
98
102
104
104
108
104
100
98
104
110
110
106
102
102
102
104
98
100
100
100
102
100
102
106
106
108
108
106
106
110
106
104
104
102
104
104
102
100
93
91
86
87
91
93
96
100
104
110
110
108
106
104
104
104
106
110
108
106
104
104
102
98
95
91
95
98
104
104
108
106
102
98
100
106
106
108
106
104
102
100
102
100
100
102
106
106
106
106
104
104
108
106
108
108
106
104
104
104
104
106
106
104
98
91
86
86
84
86
87
93
100
106
106
106
106
106
104
106
104
108
108
104
102
100
98
98
95
93
93
96
102
106
108
110
102
96
96
104
106
106
104
106
104
104
104
102
104
106
108
112
112
108
104
102
104
106
108
110
106
104
106
108
108
108
108
108
104
95
89
87
86
84
84
84
91
100
108
106
106
104
106
102
104
106
106
104
102
100
96
96
95
95
93
98
102
104
108
110
106
98
98
100
106
108
108
108
106
106
106
102
104
106
106
110
112
110
104
102
104
106
106
108
106
106
108
112
110
110
112
112
106
102
96
89
86
84
82
81
82
95
102
106
106
106
106
100
102
104
102
102
102
102
96
98
95
95
96
98
100
102
104
104
110
104
100
100
104
108
108
106
106
108
106
104
106
104
102
108
110
110
106
104
104
104
104
102
102
104
110
112
112
112
112
110
106
104
102
96
91
86
82
79
77
86
95
102
106
106
104
98
98
100
104
106
104
100
96
98
96
96
102
100
98
100
104
108
110
108
102
100
102
106
112
110
106
108
106
102
102
100
102
108
108
108
106
104
104
102
100
100
104
104
108
110
110
110
108
106
108
106
106
104
96
89
82
77
76
79
86
95
102
106
106
93
95
96
98
100
102
102
100
100
98
98
96
96
95
98
104
106
108
110
104
98
100
104
108
110
110
110
108
104
100
102
106
108
108
106
106
106
104
100
96
98
104
104
104
108
110
110
108
108
108
108
108
108
104
95
86
77
72
72
79
87
95
100
106
93
91
91
93
98
102
100
100
102
102
96
95
96
96
98
104
104
108
110
106
100
100
100
106
108
108
110
108
106
102
104
104
104
104
106
106
106
104
102
98
98
102
104
106
106
106
108
108
110
112
112
110
112
110
102
91
82
76
74
76
79
84
91
102
98
93
87
89
95
98
98
100
104
102
96
95
95
95
96
102
104
108
110
108
104
102
100
102
106
108
108
106
108
104
104
102
102
102
104
106
106
106
104
104
102
104
106
106
106
104
106
110
110
108
108
110
113
113
106
100
89
82
77
74
74
79
82
91
102
100
93
89
91
93
96
100
102
104
102
98
95
93
96
98
104
108
108
108
104
102
98
100
104
110
110
108
106
102
102
102
104
104
102
102
102
102
104
104
104
106
104
104
108
106
108
108
106
108
110
112
113
112
110
104
98
91
84
79
76
77
77
81
106
102
96
91
87
89
93
98
102
102
98
93
93
91
95
98
102
106
104
106
102
102
98
100
100
106
108
108
108
104
104
102
104
106
102
98
98
98
102
104
102
104
104
106
108
106
106
104
106
108
110
110
110
112
113
108
104
100
93
86
79
76
74
74
104
102
98
93
87
89
93
98
100
102
98
96
95
95
96
96
100
104
104
106
104
104
98
98
98
104
108
110
112
106
104
104
104
102
102
102
102
100
102
102
102
104
106
106
108
106
106
106
104
104
106
110
108
108
112
108
104
102
102
95
87
81
76
72
100
100
96
95
89
89
95
100
106
102
98
95
93
95
98
100
100
104
104
106
106
102
98
98
100
102
106
108
110
108
106
106
106
104
102
104
104
102
102
100
98
104
106
110
106
106
106
104
104
106
108
108
106
108
106
104
104
104
104
104
98
89
81
76
104
102
96
93
89
89
95
100
108
106
100
96
96
96
96
100
100
102
104
106
106
104
98
98
102
102
100
100
106
108
106
104
104
106
104
104
104
102
102
100
100
104
106
108
106
106
106
104
104
106
108
108
108
108
106
102
104
106
110
110
104
98
87
79
104
104
96
91
87
87
95
100
106
106
100
98
96
95
95
98
102
106
108
106
106
104
100
100
104
102
98
96
100
104
102
104
102
104
104
104
106
102
104
102
98
102
106
108
110
110
110
106
106
108
106
108
108
108
106
106
108
108
110
112
110
102
91
82
102
102
95
86
82
86
95
102
102
102
100
100
96
96
96
96
102
104
106
106
102
102
102
102
104
104
102
95
96
102
104
106
106
104
102
104
104
106
106
102
98
102
106
108
112
112
108
108
108
108
108
108
108
106
106
108
110
110
110
112
112
106
95
81
98
100
95
84
79
84
95
102
102
98
100
98
96
95
91
95
100
104
106
106
104
102
98
100
106
106
104
98
95
98
102
106
106
102
100
104
104
104
104
102
100
104
104
104
108
108
108
108
106
104
104
104
104
106
108
110
112
110
110
112
110
106
95
81
100
100
95
82
79
84
95
100
102
98
100
100
98
95
95
95
100
102
104
104
104
102
100
102
104
104
104
98
93
95
98
102
104
106
104
104
104
104
104
106
104
102
100
100
104
106
108
108
108
104
104
104
102
108
108
112
112
112
108
110
108
102
95
82
96
98
95
84
79
82
93
100
100
100
100
100
96
95
95
95
98
100
102
104
104
102
102
104
102
102
104
98
93
91
93
98
104
106
104
104
104
104
104
104
104
100
100
100
104
106
108
106
106
104
106
104
104
108
108
112
113
112
108
108
106
102
95
84
98
100
95
87
84
86
95
100
98
98
98
102
98
96
95
95
96
100
100
102
102
98
102
100
98
100
102
100
95
91
91
95
102
104
106
106
104
104
104
102
102
100
100
100
104
108
108
106
106
104
104
106
104
106
108
112
115
113
110
110
108
104
95
84
98
98
95
91
89
91
98
98
102
100
98
98
98
96
96
96
95
98
100
100
98
96
100
100
100
100
100
96
95
91
89
95
100
102
106
110
108
106
104
102
102
102
100
100
104
108
108
106
104
104
104
106
110
110
110
112
112
113
112
112
110
106
95
86
98
96
96
91
91
95
98
100
102
102
102
100
98
98
98
98
95
95
96
100
100
98
100
100
100
98
98
96
95
91
91
95
100
102
106
110
108
106
106
104
106
104
104
104
104
104
106
104
104
102
102
106
112
112
112
112
112
113
115
112
110
106
95
84
98
100
96
91
91
93
95
98
100
102
102
100
100
100
98
98
96
96
96
98
98
98
104
102
96
96
98
96
95
91
91
96
100
102
104
106
108
106
108
108
106
102
102
106
104
104
104
104
104
102
102
104
108
112
112
112
113
115
115
112
112
104
95
82
96
96
95
93
93
91
93
96
98
98
98
100
98
96
96
96
95
95
96
95
93
95
100
100
100
98
98
96
96
95
93
95
102
102
104
108
108
110
108
106
106
104
104
108
106
106
104
98
102
104
102
104
106
106
110
112
110
112
112
112
110
104
95
82
100
100
98
96
93
91
89
93
93
93
95
96
96
96
93
93
95
95
93
93
95
95
98
98
98
96
96
98
96
93
87
95
104
104
104
104
104
108
110
106
108
108
106
108
110
108
104
102
104
106
102
104
106
104
108
108
108
110
110
110
110
106
95
82
102
104
102
100
96
91
87
89
91
91
93
93
93
93
91
93
93
91
91
89
93
95
98
96
96
96
98
98
96
93
91
96
104
104
102
100
106
108
110
106
104
106
108
108
108
106
104
100
100
104
106
106
108
106
108
108
106
108
106
110
108
108
95
82
102
104
102
100
98
95
93
91
87
87
89
87
87
87
91
91
91
91
89
87
91
96
102
98
98
98
98
100
96
91
91
96
100
104
104
104
104
106
110
110
106
106
108
108
106
106
104
102
100
100
104
104
104
104
104
106
108
108
108
108
110
108
95
81
98
100
102
104
100
98
95
89
87
86
84
84
86
86
91
91
91
91
89
87
91
96
100
98
96
96
96
98
96
93
95
98
100
102
104
104
104
110
110
108
106
104
108
110
104
106
108
106
100
98
100
102
104
104
106
106
108
108
106
106
108
106
95
81
96
98
96
98
100
100
95
87
87
82
82
82
82
82
86
87
87
89
89
89
91
96
98
96
93
95
95
96
95
96
98
100
100
98
100
104
106
108
108
106
106
108
108
108
104
106
110
108
104
100
98
100
104
104
106
106
106
104
106
106
108
104
95
82
96
96
96
100
100
98
95
91
91
87
84
84
87
87
87
86
84
82
86
87
91
95
98
96
93
93
93
96
96
98
98
98
100
100
104
106
106
106
106
104
106
106
106
106
104
106
106
108
104
100
96
100
102
102
106
106
104
104
106
106
106
104
93
82
96
96
96
100
100
96
95
93
91
91
89
89
91
91
89
87
84
79
81
86
87
91
95
95
96
95
95
96
96
96
98
98
100
102
104
102
100
102
100
102
106
104
104
104
104
104
104
104
104
102
100
102
102
102
104
102
106
106
106
104
106
102
91
84
96
96
95
95
93
93
91
93
95
91
93
98
96
91
91
93
87
84
79
81
86
89
91
93
95
96
98
98
98
98
100
100
100
100
100
100
98
102
100
102
102
104
104
104
102
104
104
104
100
100
100
100
102
104
102
104
104
106
106
104
104
100
89
84
98
96
93
91
91
91
89
93
98
95
96
98
96
93
91
93
89
87
82
79
84
91
93
95
95
98
98
98
102
106
104
100
100
100
98
100
102
102
104
100
102
100
102
102
104
104
102
102
102
102
102
100
102
104
104
104
106
104
106
108
106
98
86
82
96
95
93
93
93
93
95
98
98
96
98
98
96
96
93
93
93
89
86
82
86
91
95
96
96
98
98
100
100
104
102
98
100
98
96
98
102
102
104
100
102
104
100
102
102
100
100
102
102
104
104
104
102
104
104
104
104
102
104
104
106
96
86
86
96
95
95
96
96
96
96
102
102
98
100
100
98
98
96
96
98
95
91
89
86
91
95
100
96
96
98
98
98
98
98
98
100
100
98
100
100
100
102
102
102
102
100
104
100
100
102
104
104
100
102
104
102
102
98
102
106
106
102
102
102
96
87
86
95
95
96
96
98
96
98
102
102
98
98
98
100
100
100
102
100
95
91
87
86
91
96
96
95
96
100
100
100
100
100
96
96
100
96
96
98
98
100
102
104
100
102
102
100
102
102
102
102
100
100
102
102
104
102
104
106
106
104
100
100
96
89
87
93
93
95
96
95
96
98
100
100
102
102
102
102
104
104
102
100
96
91
87
89
91
95
95
95
96
102
104
102
102
100
96
102
102
98
98
96
96
100
100
102
104
104
102
102
100
98
100
102
100
102
106
106
106
104
104
106
106
102
102
102
96
91
87
96
89
91
96
96
96
98
100
100
102
102
104
102
104
102
100
98
98
95
91
91
91
91
91
93
96
100
102
106
104
104
104
104
104
102
100
98
96
96
100
104
104
102
104
104
100
100
102
104
100
102
104
106
104
104
102
104
106
102
102
98
93
89
86
95
91
91
95
96
98
98
102
100
100
100
100
102
104
104
100
100
100
96
91
91
95
93
95
95
95
100
102
106
106
104
104
102
102
100
100
102
98
96
102
104
104
102
104
104
102
102
102
104
104
104
102
104
106
108
102
102
106
104
100
95
87
86
89
98
95
93
95
95
96
100
100
100
102
100
98
100
100
98
98
100
100
93
89
91
91
95
96
95
95
100
106
104
106
106
106
102
102
102
102
102
102
102
104
106
106
106
102
104
104
102
102
104
104
102
102
104
106
106
102
104
104
100
100
91
86
87
89
96
95
95
98
98
96
98
98
102
104
100
100
98
98
100
96
98
96
91
89
91
95
98
96
91
93
100
106
106
104
104
106
102
104
104
102
102
102
104
108
106
106
104
104
106
104
102
102
102
102
102
100
102
104
106
102
104
104
104
98
95
91
87
89
96
96
96
96
98
96
98
100
100
104
102
100
100
98
98
96
98
96
93
91
91
96
98
95
93
93
96
104
104
104
104
102
102
104
102
102
102
102
102
104
104
104
104
104
104
104
102
102
102
102
102
98
98
102
106
106
106
108
106
100
96
93
93
93
100
98
95
98
98
96
98
100
100
100
102
100
98
98
96
93
95
95
95
93
93
95
96
96
95
93
95
102
102
104
104
104
102
104
104
102
100
100
102
100
102
106
104
102
102
102
104
104
104
104
104
102
102
102
104
108
108
106
102
96
95
96
96
96
98
98
93
98
98
95
96
98
98
98
98
102
100
100
98
91
93
95
95
93
91
93
96
95
95
95
96
98
102
102
106
104
102
102
104
106
102
104
104
100
104
104
106
106
104
104
104
102
104
104
108
104
102
102
104
104
104
102
102
98
96
96
98
96
102
100
98
100
98
96
96
98
98
98
98
100
104
102
98
95
93
95
95
91
89
93
95
98
98
98
98
98
102
100
100
102
104
104
102
104
106
106
106
104
104
106
108
106
106
106
104
102
102
104
106
106
104
106
104
102
102
104
104
102
100
100
102
102
102
100
96
100
98
96
96
96
96
96
98
100
100
98
95
95
96
95
96
91
87
91
93
96
96
96
98
98
98
98
98
98
98
100
102
104
104
106
104
104
104
106
106
106
108
104
104
104
104
108
110
108
104
108
108
106
104
102
102
100
102
104
106
104
98
95
96
100
98
96
98
98
95
93
98
100
96
96
96
95
96
95
93
91
91
89
91
95
96
95
96
98
100
100
100
100
98
98
102
102
104
106
104
104
104
106
104
108
108
104
104
104
104
108
110
108
106
104
108
108
104
102
100
102
106
108
108
104
96
96
98
98
96
95
98
98
93
93
95
100
100
98
98
96
96
96
95
93
91
91
89
89
91
91
95
96
98
95
96
100
100
100
100
102
104
106
102
102
106
106
106
104
106
106
106
106
104
108
110
108
108
106
108
106
104
102
102
106
108
112
110
104
100
98
98
95
93
93
96
95
93
91
95
98
98
98
98
98
98
98
96
95
93
93
87
87
86
89
93
95
95
93
96
100
100
100
98
102
102
102
102
104
104
106
106
106
104
104
106
104
104
106
108
108
106
104
106
102
104
104
104
106
110
112
110
106
98
100
100
98
96
95
95
93
93
93
95
95
96
98
96
96
98
98
96
93
95
95
91
86
84
86
89
89
89
91
95
100
102
98
96
102
102
102
102
104
106
106
106
106
108
106
104
104
104
106
106
108
104
104
104
104
104
104
106
110
110
112
110
108
98
98
102
100
98
96
95
95
91
91
95
93
95
96
98
100
96
95
95
95
96
95
93
89
87
87
86
86
87
89
91
95
100
98
98
102
100
100
102
102
104
106
102
104
106
104
106
106
106
102
104
104
106
106
106
106
106
106
108
112
112
110
108
106
