P2
# 608 of 608 Angiograms
64 64
255
77
81
81
81
82
82
82
84
86
86
86
87
91
87
89
87
86
87
86
87
86
87
86
84
84
84
84
84
82
84
82
79
77
81
81
81
81
82
82
84
84
87
89
86
82
82
84
86
87
91
91
89
89
86
86
91
91
91
95
96
93
93
93
93
77
79
79
81
81
84
84
84
87
87
87
89
87
87
89
89
91
91
87
87
84
82
84
86
86
84
84
86
84
84
82
82
82
84
82
84
86
84
86
86
86
87
89
86
84
81
86
89
89
89
91
89
89
87
87
87
93
95
95
96
93
95
95
93
77
77
76
81
82
82
84
87
87
89
86
82
82
86
89
89
91
91
89
87
84
82
86
87
87
86
84
86
84
84
82
81
84
84
84
82
84
86
87
89
89
89
89
89
86
86
87
89
91
91
89
87
86
86
86
87
93
96
96
95
93
91
93
93
77
76
76
81
82
82
84
86
87
86
84
84
84
87
89
87
89
89
89
87
84
84
84
87
87
87
87
86
86
86
86
86
86
82
82
84
84
87
89
95
95
91
91
95
91
87
87
87
87
86
86
86
84
84
86
89
91
91
91
91
93
89
91
93
79
77
77
79
81
84
86
82
84
87
86
86
84
86
86
87
87
89
89
84
82
84
84
84
84
86
87
89
86
84
86
87
86
86
84
87
87
87
91
91
93
91
91
93
91
86
84
84
84
82
81
81
77
76
77
81
84
86
86
86
87
87
87
89
76
76
79
77
81
82
81
79
81
86
86
82
86
84
84
84
84
86
87
86
84
84
84
84
87
87
89
91
91
87
89
93
91
87
87
89
91
89
93
95
91
93
91
91
89
86
84
82
82
81
76
74
72
69
69
71
74
76
77
77
77
77
77
77
74
76
76
74
76
77
79
81
81
82
81
86
86
87
84
84
84
84
84
86
87
86
86
84
86
89
89
93
93
93
93
93
91
89
89
91
93
91
91
93
91
87
87
86
82
81
79
79
77
76
72
69
66
66
65
65
66
66
66
66
66
66
66
69
76
77
76
71
74
76
82
82
81
81
81
86
87
87
87
86
84
84
84
86
86
84
86
82
84
89
89
89
91
93
93
91
93
93
93
91
93
91
89
87
86
82
81
79
77
76
72
71
69
68
66
63
62
62
63
62
60
60
62
62
62
63
62
63
81
79
76
76
76
79
82
84
81
81
84
86
86
86
89
89
86
86
87
87
86
86
86
86
87
89
87
89
95
93
93
95
93
91
93
93
91
89
86
81
77
76
72
71
68
69
68
66
66
65
62
60
63
62
63
62
60
60
62
60
60
63
62
62
77
77
79
79
81
81
81
81
79
79
81
82
84
87
93
91
87
86
84
86
86
86
87
89
89
91
91
91
91
91
95
95
89
89
89
91
89
84
81
76
74
72
69
65
63
63
63
62
62
66
62
59
60
60
62
63
60
60
60
60
63
63
60
59
77
77
81
79
79
81
81
81
82
82
82
82
86
86
87
89
87
86
86
84
86
86
89
87
89
91
91
91
89
89
91
95
91
86
86
86
82
81
77
72
71
68
65
60
59
59
60
60
62
62
62
59
60
59
62
60
60
59
59
60
62
60
59
58
77
77
77
77
77
79
77
81
82
82
82
84
84
84
89
89
87
86
84
84
87
91
89
86
89
93
93
93
91
89
89
89
84
81
81
79
77
74
71
66
68
66
63
59
59
60
60
60
60
60
60
60
60
59
62
62
60
59
60
60
59
59
58
58
79
79
79
79
77
79
79
79
81
82
82
86
82
84
87
89
86
87
87
87
91
89
87
89
89
89
93
91
87
87
86
82
79
79
76
72
69
69
69
66
66
66
62
60
60
62
60
59
58
59
59
60
62
62
63
62
62
62
60
62
59
60
59
60
79
79
81
81
77
79
79
79
77
79
82
81
81
81
86
89
86
82
86
86
91
93
89
89
87
86
87
87
84
82
82
79
77
76
71
66
65
68
68
68
66
66
63
62
62
63
59
58
59
62
62
62
63
63
65
65
65
62
62
63
60
62
59
59
79
79
81
77
76
77
79
79
79
79
81
81
82
81
84
86
87
84
86
86
89
93
91
89
84
84
86
86
86
81
77
74
71
71
66
66
66
65
65
66
66
65
63
62
60
62
60
60
62
65
66
66
68
68
68
69
69
66
65
63
63
62
60
59
79
77
81
79
81
81
77
79
79
81
82
82
82
82
82
86
86
84
84
86
87
89
89
89
86
86
87
86
81
76
72
69
68
68
65
66
63
65
63
63
68
66
63
65
63
63
63
65
66
68
71
74
76
76
76
76
76
74
76
72
72
71
68
65
81
77
79
79
79
81
82
81
82
82
84
84
82
86
87
86
87
86
86
87
87
89
91
89
87
86
84
79
74
72
69
66
66
65
65
65
63
60
62
65
71
69
69
71
72
72
74
76
76
77
79
82
84
82
82
82
84
86
86
87
84
79
74
69
79
79
79
79
81
82
86
81
81
82
82
82
84
87
87
89
86
86
87
84
87
91
89
86
84
81
76
72
69
68
63
62
65
65
63
65
63
62
65
66
69
72
72
77
79
81
82
86
86
87
89
91
91
89
87
87
89
87
91
89
87
84
82
79
79
77
77
77
82
82
86
82
84
84
84
86
86
86
84
87
87
87
87
87
86
87
87
82
79
74
72
69
68
65
60
60
65
65
65
66
65
65
65
68
72
74
79
82
84
86
89
91
93
95
96
95
93
93
91
93
93
93
93
96
93
87
84
82
79
79
79
77
79
81
82
86
86
86
82
86
82
82
86
87
87
89
86
86
86
84
81
77
72
68
65
65
65
63
62
60
63
62
63
62
63
65
66
71
76
79
84
87
91
93
93
96
100
102
98
96
98
96
96
96
95
95
96
96
95
89
87
86
79
81
79
77
76
77
81
84
82
82
82
82
84
84
87
87
89
86
86
86
84
79
76
72
66
62
59
59
59
62
62
60
60
62
63
63
65
66
69
76
79
84
89
93
98
98
93
95
98
96
96
96
98
96
100
102
102
100
98
96
93
89
91
91
77
79
81
81
79
77
81
82
81
84
84
84
84
87
86
84
86
86
86
84
81
74
72
66
63
59
55
58
59
58
62
62
59
63
66
65
65
68
76
81
84
89
91
96
96
95
95
96
96
98
96
98
98
98
102
104
102
100
98
100
96
95
95
95
79
81
79
81
82
77
79
79
81
81
81
82
82
82
81
81
84
84
82
79
77
72
68
66
62
56
54
55
58
58
60
60
59
62
65
66
68
74
82
84
87
89
95
98
98
96
98
98
98
98
98
98
100
100
98
98
100
100
98
100
100
100
100
96
82
82
79
77
81
77
79
79
79
77
79
81
79
77
77
79
76
76
76
76
74
69
66
62
59
58
56
56
56
56
58
59
59
62
65
68
71
79
82
87
89
93
95
98
96
100
98
98
98
98
98
100
100
96
96
95
96
98
100
104
104
104
102
100
81
79
77
77
77
79
79
77
76
77
79
79
76
74
76
74
72
72
72
71
66
68
63
59
58
58
56
58
56
59
60
60
60
60
66
69
72
76
81
87
93
95
96
98
102
104
104
100
100
100
96
98
96
96
96
95
95
100
104
106
104
104
106
102
74
77
77
77
76
76
76
74
74
77
77
76
74
74
74
71
71
69
66
66
65
65
59
58
58
55
56
56
58
59
60
62
63
68
69
76
79
79
81
84
89
91
93
96
100
102
104
100
102
98
95
95
93
93
95
91
95
98
98
104
104
106
106
102
68
69
71
72
71
72
71
71
71
71
71
69
69
71
71
69
68
65
65
65
63
59
58
58
56
56
58
56
56
60
63
65
68
71
76
81
81
82
82
84
86
89
91
93
96
98
102
102
98
95
93
91
89
93
93
95
95
95
96
98
102
104
102
100
62
63
65
63
65
66
66
65
65
65
65
65
65
68
66
65
65
63
63
60
60
59
59
60
59
56
59
59
60
63
66
71
72
76
79
81
84
84
81
79
82
86
89
93
95
96
98
98
95
93
93
91
91
91
93
95
93
96
96
98
102
100
98
96
59
59
59
58
59
62
60
59
59
59
60
62
62
60
60
62
63
62
62
62
60
60
59
60
59
58
60
62
63
68
72
77
79
79
79
79
84
84
79
81
84
86
87
91
93
93
93
93
91
89
91
91
93
91
91
95
95
96
98
96
98
98
96
93
55
56
58
56
55
58
56
58
56
56
58
56
59
60
62
63
63
62
60
62
59
58
60
62
60
62
62
65
68
71
74
79
81
79
81
82
84
82
81
82
84
86
86
91
91
93
93
93
91
87
86
87
93
91
91
91
93
96
96
96
96
96
98
95
54
58
58
55
55
58
54
56
56
54
55
58
58
58
58
62
62
62
62
62
60
62
62
63
62
63
65
68
71
74
77
76
77
81
81
81
82
82
84
82
86
89
87
87
89
91
93
93
93
91
87
89
87
87
87
87
93
95
95
96
98
96
100
98
54
56
58
56
55
56
55
55
56
56
56
56
56
54
56
59
59
62
62
62
63
65
63
65
66
68
69
72
76
77
77
74
76
77
79
79
82
82
84
84
84
87
87
86
87
89
89
91
89
89
89
87
87
91
87
91
95
87
87
93
96
96
100
100
55
54
55
55
55
56
55
54
55
55
58
56
55
55
56
60
59
60
62
63
65
65
68
69
69
71
72
76
77
79
76
72
72
71
74
76
77
81
84
87
82
86
87
87
87
87
87
87
87
84
87
89
89
91
87
93
89
82
87
91
95
98
100
100
55
54
54
52
52
54
55
56
54
55
56
56
54
55
56
59
60
59
63
66
65
68
72
72
72
71
76
77
77
74
71
69
68
65
66
71
74
76
81
84
86
87
87
89
89
89
86
87
86
86
86
86
87
91
91
89
87
86
89
93
96
98
98
100
52
51
52
51
54
58
55
56
52
52
55
56
55
54
58
58
58
56
62
66
68
69
72
74
71
69
69
71
69
68
65
63
62
59
60
63
68
71
74
81
84
87
87
87
87
89
86
89
87
87
87
86
87
91
89
87
89
86
87
93
96
96
96
100
54
52
52
55
55
59
58
55
54
55
56
55
55
54
55
56
55
56
62
66
68
71
71
69
69
68
68
68
66
63
59
60
58
55
55
58
60
65
69
72
81
87
89
89
89
87
89
87
89
87
87
87
86
89
91
87
87
87
91
93
95
96
98
100
56
58
56
56
58
58
56
58
58
56
58
58
58
56
55
54
56
59
60
65
65
69
69
68
66
65
65
65
62
58
56
59
59
58
56
54
56
58
62
68
72
81
86
87
87
86
89
89
89
86
84
86
89
91
91
87
89
93
95
93
96
98
98
100
62
62
62
59
59
58
59
58
56
59
60
58
59
58
56
55
56
58
59
62
62
65
65
63
63
62
63
65
60
59
58
58
56
56
54
51
54
56
59
63
68
72
79
84
87
87
87
87
87
87
86
89
93
93
91
91
93
96
98
98
98
100
100
102
69
69
68
66
63
63
65
63
63
66
66
63
62
60
59
58
58
58
59
63
62
63
65
62
59
60
62
63
65
62
58
55
54
55
55
52
52
52
56
59
60
66
72
77
82
87
87
87
89
89
91
91
95
96
95
95
95
96
102
104
100
102
102
100
74
72
74
74
71
71
71
71
72
72
71
69
68
66
66
65
62
59
60
62
63
62
60
59
58
59
63
65
63
59
60
59
59
59
59
58
58
56
58
59
59
63
68
74
79
82
86
87
87
89
89
91
93
95
98
96
96
98
102
106
104
102
104
102
81
81
81
81
79
79
77
76
77
79
77
77
72
71
71
68
65
63
62
63
66
66
63
62
62
63
65
66
66
65
63
63
63
66
69
68
65
62
60
60
60
63
66
72
76
81
87
89
87
87
89
89
93
95
98
98
98
102
104
106
106
106
106
104
89
87
87
89
87
86
82
81
82
82
81
81
79
77
77
76
71
68
68
69
69
68
68
68
69
69
71
71
72
74
72
72
74
76
77
77
74
71
68
63
62
63
65
66
71
76
82
87
89
87
87
87
93
96
98
96
100
104
106
104
100
102
102
102
93
93
91
93
91
87
87
82
82
82
82
82
84
81
79
81
77
76
77
76
76
76
77
77
77
77
79
77
81
81
82
81
82
86
89
89
89
82
77
69
63
62
62
65
68
71
77
84
87
87
87
89
96
96
98
98
100
104
106
104
102
100
102
100
93
95
91
93
91
89
87
86
86
84
82
84
84
82
82
84
81
81
84
81
81
79
81
82
84
86
87
89
91
89
89
87
86
89
93
93
95
91
86
77
69
63
63
63
63
69
74
79
86
86
82
91
98
98
100
98
102
102
106
106
102
102
102
98
96
95
91
93
91
89
89
87
89
87
86
86
82
84
86
84
86
82
84
86
87
86
87
87
87
87
89
91
93
91
93
93
91
91
93
95
93
93
93
87
77
71
66
63
62
65
71
79
84
82
81
89
95
98
100
102
104
100
102
104
102
100
96
95
93
91
93
91
91
91
89
87
89
89
84
87
86
86
86
84
86
87
91
89
89
91
93
93
91
89
89
91
91
91
95
93
91
93
95
96
91
93
93
91
87
77
72
66
63
63
65
72
81
82
84
87
93
98
96
102
100
100
100
102
100
98
93
89
89
93
95
93
93
89
89
87
89
87
84
86
87
86
84
84
87
87
87
89
87
89
93
93
93
91
91
93
91
93
95
93
91
91
93
93
91
89
91
93
91
86
76
71
65
62
65
66
72
79
84
86
89
93
91
96
98
98
100
98
95
89
87
82
89
93
95
95
93
91
89
86
89
89
84
86
86
84
84
84
86
86
86
89
91
91
91
91
91
93
91
89
89
89
91
93
93
93
93
91
89
91
95
93
93
89
82
74
69
65
62
63
66
74
79
81
84
87
89
91
93
93
95
93
91
86
84
81
87
89
91
89
89
91
89
87
91
87
86
86
86
82
82
82
86
87
89
89
93
93
95
93
91
89
89
87
87
89
91
93
91
91
91
89
91
95
96
96
96
93
86
79
72
66
63
63
63
68
74
76
79
82
82
82
81
84
86
87
87
86
84
82
89
89
91
93
95
95
91
89
91
89
86
86
84
82
81
82
87
89
91
89
89
93
93
95
93
91
89
89
91
89
91
91
91
93
91
91
93
96
98
100
100
96
91
82
76
71
68
66
65
65
71
76
77
79
79
77
76
77
79
82
82
82
81
82
89
91
95
95
93
91
89
89
87
87
82
86
86
84
84
86
89
91
91
93
89
93
96
95
91
89
87
89
89
89
91
91
91
93
95
95
96
95
96
100
100
100
96
89
79
72
71
66
63
65
69
74
76
76
74
74
71
72
76
77
77
81
82
86
89
93
95
95
93
89
91
91
87
86
87
87
87
87
86
86
89
91
93
95
93
95
95
93
93
91
89
89
89
89
89
91
93
91
91
95
96
93
95
100
100
100
100
95
84
76
72
65
63
66
69
74
74
74
72
71
71
71
74
77
79
82
86
91
91
95
96
95
95
91
89
89
87
86
91
91
87
91
89
91
91
96
95
96
96
96
93
93
95
93
91
93
91
89
91
91
93
91
91
93
95
96
96
98
100
100
102
98
91
81
77
71
68
68
72
74
74
72
71
72
74
74
76
79
82
87
91
96
91
91
91
93
93
95
91
86
87
89
93
93
91
91
91
93
93
96
96
96
96
96
95
96
95
91
89
93
91
91
93
93
93
93
93
93
91
91
95
96
98
96
98
98
95
87
79
77
74
76
77
77
77
77
77
77
77
79
81
82
84
91
95
98
89
91
91
93
91
93
89
87
89
93
93
95
93
89
91
95
93
95
95
95
98
98
96
95
96
93
93
93
93
93
93
93
93
95
93
95
93
93
96
100
100
98
100
98
96
93
87
84
82
84
84
82
82
86
86
84
82
82
82
82
87
93
95
95
89
91
91
91
91
89
86
86
87
91
93
95
96
91
93
95
93
93
95
95
98
96
95
93
95
95
95
91
89
96
95
93
93
93
91
93
93
95
100
102
100
98
98
98
98
96
93
93
93
91
91
89
89
91
89
89
87
86
84
84
87
93
96
98
89
89
91
89
89
87
86
84
87
89
91
93
93
91
91
95
95
93
93
96
98
96
93
93
95
96
93
89
93
96
96
91
91
93
91
91
93
95
96
100
102
100
100
98
100
98
95
95
96
96
95
96
96
96
96
96
95
91
87
86
86
91
96
100
87
89
89
89
89
89
89
87
89
93
91
91
91
93
93
95
95
95
95
96
98
96
93
93
95
95
93
89
93
95
96
91
89
91
93
91
93
93
93
96
98
100
100
98
96
95
95
96
96
100
100
98
100
100
98
100
102
96
91
86
87
89
95
98
87
89
89
91
93
89
91
91
89
89
91
96
95
95
93
91
93
93
95
96
100
96
95
93
91
91
91
93
93
96
95
91
89
95
93
93
96
95
95
93
96
98
100
98
95
95
96
96
98
100
100
98
100
102
102
104
104
100
95
89
87
87
91
98
87
86
86
86
89
89
91
89
87
89
93
96
98
96
91
91
95
93
93
95
95
95
91
91
93
91
91
91
93
93
93
93
95
95
96
98
96
96
93
93
96
96
96
93
91
95
96
98
96
98
100
102
102
104
104
106
106
104
100
96
91
89
89
95
84
84
84
87
91
89
89
89
86
89
93
95
96
95
93
95
93
93
91
93
95
95
93
91
93
91
93
91
89
87
89
93
95
98
100
98
96
96
93
95
96
98
95
89
87
91
96
100
102
102
102
104
104
106
106
108
108
108
104
102
100
93
91
93
84
84
87
89
91
91
87
86
89
89
93
95
96
95
93
95
96
95
93
93
91
93
91
91
93
93
95
93
87
86
89
91
95
96
98
98
96
98
96
96
96
96
95
87
84
89
96
104
106
104
102
106
108
108
108
110
112
108
106
106
104
98
95
93
86
87
87
84
87
89
87
87
89
91
93
96
98
95
91
95
98
95
93
91
91
91
91
91
91
93
91
91
89
87
91
91
93
96
100
98
96
96
96
95
96
95
93
89
86
87
96
104
104
102
106
110
110
108
108
110
110
112
112
108
106
100
95
93
81
82
86
86
87
89
87
87
91
93
93
95
100
95
91
95
96
98
95
96
95
89
89
91
91
93
91
89
91
89
89
93
95
98
102
100
98
100
96
95
95
95
95
93
89
89
96
104
104
106
108
108
108
110
110
110
112
112
112
108
98
87
81
79
